<?xml version="1.0" encoding="UTF-8"?>
<svg version="1.1" xmlns="http://www.w3.org/2000/svg" width="1254" height="1254">
<path d="M0 0 C413.82 0 827.64 0 1254 0 C1254 413.82 1254 827.64 1254 1254 C840.18 1254 426.36 1254 0 1254 C0 840.18 0 426.36 0 0 Z " fill="#015E2C" transform="translate(0,0)"/>
<path d="M0 0 C0.68774466 -0.00297112 1.37548933 -0.00594224 2.08407474 -0.0090034 C4.39393236 -0.01769095 6.70373816 -0.0191987 9.01361084 -0.02069092 C10.66770031 -0.0253191 12.3217887 -0.03034376 13.97587585 -0.03573608 C18.47395824 -0.04886312 22.97202569 -0.05530577 27.47012424 -0.05974674 C30.28050754 -0.0626773 33.09088676 -0.06678211 35.90126801 -0.07125092 C44.69466357 -0.08492736 53.48804981 -0.09459299 62.28145528 -0.09845281 C72.43124485 -0.10293245 82.58089968 -0.12047537 92.73064828 -0.1494534 C100.57619129 -0.17107493 108.42169641 -0.18115736 116.2672689 -0.18249393 C120.95287234 -0.18354172 125.63834914 -0.18944401 130.3239212 -0.20731354 C134.73325782 -0.2238021 139.14237273 -0.22594592 143.5517292 -0.21717453 C145.16780504 -0.21640454 146.78389283 -0.22074182 148.39993858 -0.23063278 C150.61120802 -0.2433702 152.82169432 -0.23746639 155.03295898 -0.22705078 C156.26887409 -0.22851734 157.5047892 -0.2299839 158.77815628 -0.2314949 C163.4153032 0.26237168 167.42163096 0.96602907 170.57939863 4.67991471 C174.08008269 10.64128614 173.8344842 16.91139557 173.78942871 23.64349365 C173.80068059 25.51584663 173.80068059 25.51584663 173.81215978 27.42602491 C173.83235165 30.87415556 173.8278843 34.32187319 173.81925225 37.77003574 C173.8142966 41.49458474 173.8324057 45.21903142 173.84767151 48.94354248 C173.87096088 55.39100003 173.87973306 61.83834517 173.87856293 68.2858429 C173.87689224 77.60774144 173.89724318 86.92949032 173.92291823 96.25134891 C173.9639814 111.37648199 173.98730761 126.50158811 173.99945068 141.62677002 C174.01128253 156.31690053 174.03148574 171.00698032 174.06292725 185.69708252 C174.0658314 187.05599982 174.0658314 187.05599982 174.06879422 188.44237 C174.07855894 192.98736289 174.08848802 197.5323554 174.09849882 202.07734776 C174.18129714 239.7650222 174.23529789 277.45269439 174.27044678 315.14044189 C175.39773358 314.01901864 176.52418638 312.89675698 177.65028381 311.7741394 C178.27766606 311.1492695 178.90504831 310.5243996 179.55144215 309.88059425 C181.34951065 308.06040535 183.04006443 306.18287123 184.68841553 304.22637939 C188.45509749 299.86561992 192.48674875 295.81503565 196.58294678 291.76544189 C197.35549805 290.99667725 198.12804932 290.2279126 198.92401123 289.43585205 C202.19420714 286.1818436 205.47038168 282.93387923 208.74603271 279.68536377 C211.15209962 277.29748837 213.55507716 274.90653397 215.95794678 272.51544189 C216.68731445 271.79437256 217.41668213 271.07330322 218.16815186 270.3303833 C221.47991107 267.03430513 224.69341493 263.70889475 227.74310303 260.16778564 C231.62208556 255.66827602 235.79889767 251.50417842 240.02044678 247.32794189 C240.83739014 246.51478516 241.6543335 245.70162842 242.49603271 244.86383057 C245.9573972 241.41866849 249.42473269 237.979539 252.89154053 234.53985596 C255.43659866 232.01297682 257.97857809 229.48302874 260.52044678 226.95294189 C261.29356201 226.188125 262.06667725 225.42330811 262.86322021 224.63531494 C266.20626457 221.30724053 269.46837094 217.96813213 272.53143311 214.37945557 C277.10251849 209.07375038 282.10749885 204.19234071 287.07407188 199.26165199 C288.88023555 197.46840755 290.68312017 195.67192149 292.48524475 193.87461853 C296.30665549 190.06455273 300.13200843 186.2584605 303.95794678 182.45294189 C308.4056394 178.0289161 312.8516652 173.60324105 317.29349709 169.17333031 C319.06401402 167.409263 320.83752953 165.64824936 322.6111908 163.88734436 C323.7004759 162.80169301 324.78962017 161.71590033 325.87860107 160.62994385 C326.36751328 160.14619797 326.85642548 159.66245209 327.3601532 159.16404724 C330.22193729 156.30270349 332.74532346 153.29687042 335.27044678 150.14044189 C336.92648439 148.46321354 338.59457028 146.79784755 340.27044678 145.14044189 C341.92279042 143.48234363 343.57461832 141.82373132 345.22601318 140.16468811 C346.2083701 139.17793394 347.19073651 138.19118922 348.17311096 137.20445251 C348.69164957 136.68358755 349.21018818 136.16272259 349.74444008 135.62607384 C361.74621654 123.57096333 373.75681721 111.52467546 385.77226257 99.48318958 C392.71114559 92.52885959 399.64718853 85.57174076 406.57659912 78.60797119 C412.63663883 72.51789941 418.70204922 66.43323545 424.77379227 60.35483092 C427.98004958 57.14468822 431.18368169 53.93202701 434.38085938 50.71283913 C437.39483814 47.67827739 440.41602515 44.65107311 443.44254494 41.62902069 C444.54272329 40.52802713 445.6403975 39.42452366 446.73514366 38.31812859 C456.24267569 28.71453899 466.40129358 19.53418927 478.52044678 13.32794189 C479.57751831 12.77868042 479.57751831 12.77868042 480.65594482 12.21832275 C498.08192139 3.51208947 516.39441805 1.83606371 535.57733154 1.88165283 C537.50524528 1.87893835 539.43315797 1.87537486 541.36106873 1.87103271 C546.56289917 1.86196632 551.76464972 1.86542764 556.96648145 1.87179089 C562.41830479 1.87687421 567.87012156 1.87215358 573.32194519 1.86901855 C582.46502913 1.86538848 591.60808066 1.87015573 600.75115967 1.87969971 C611.32709381 1.89061173 621.902951 1.88703494 632.47888333 1.8760469 C641.56785097 1.8669816 650.65679541 1.86568414 659.7457661 1.87092423 C665.17106988 1.87404434 670.59633741 1.87445154 676.02163887 1.86785126 C681.11311658 1.86208844 686.20449449 1.86605507 691.29596138 1.87763977 C693.16688877 1.88029081 695.03782453 1.87951373 696.90874863 1.87511444 C699.45578528 1.86967578 702.00249889 1.8764722 704.54951477 1.88647461 C705.29521668 1.88201317 706.04091858 1.87755172 706.80921751 1.87295508 C710.51835235 1.90134853 712.0988982 2.02607618 715.27044678 4.14044189 C714.92882357 9.36239667 711.93652836 12.14189394 708.45794678 15.70294189 C707.82501709 16.36552002 707.1920874 17.02809814 706.53997803 17.71075439 C698.19721119 26.37439688 689.63222789 34.8310001 681.0836792 43.29107666 C675.93031126 48.40058578 670.8697289 53.48894168 666.16693115 59.02130127 C660.90687758 64.89891005 655.13060296 70.32557246 649.5223999 75.86798096 C643.8606953 81.46918365 638.25602114 87.02892657 633.09075928 93.09747314 C628.40615857 98.35508295 623.25211555 103.20544727 618.24066162 108.14971924 C611.33596058 114.92358874 611.33596058 114.92358874 604.83294678 122.07794189 C599.32811348 128.52117414 593.12034376 134.34379343 587.09515381 140.29522705 C581.52312863 145.80514107 576.00783837 151.29839877 570.9208374 157.26739502 C567.04808487 161.6626254 562.76410535 165.68244805 558.58685303 169.78497314 C555.25347878 173.08218058 552.0043285 176.387249 548.95794678 179.95294189 C543.73961946 186.01812919 537.93235788 191.53432405 532.24066162 197.14971924 C526.96235865 202.36363199 521.7791602 207.58687577 516.95599365 213.23223877 C513.06646266 217.63556644 508.77642431 221.67034947 504.58685303 225.78497314 C500.55222187 229.77582891 496.7307294 233.85696198 493.0302124 238.15802002 C489.30652769 242.35284797 485.23389139 246.21461117 481.23138428 250.14044189 C477.974147 253.35995056 474.81873872 256.6036909 471.83294678 260.07794189 C467.16957933 265.49210093 462.03418104 270.42307901 456.94232178 275.42950439 C452.77360584 279.55568241 448.80379019 283.75911776 444.98138428 288.20684814 C442.06394103 291.50395866 438.91259574 294.55944615 435.77044678 297.64044189 C431.29445262 302.0684595 426.93589162 306.50599186 422.87200928 311.32012939 C420.2197685 314.33462745 417.31908256 317.09923266 414.46185303 319.91778564 C411.85646165 322.56033055 409.44736364 325.3312999 407.04779053 328.15997314 C404.44315337 331.06228312 401.56958065 333.66883594 398.67669678 336.28106689 C397.02970797 338.01275693 397.02970797 338.01275693 397.4977417 340.06939697 C398.38852382 342.45691822 399.32713987 343.45851493 401.22747803 345.13653564 C401.83905762 345.6880127 402.45063721 346.23948975 403.08074951 346.80767822 C403.74147461 347.39186523 404.40219971 347.97605225 405.08294678 348.57794189 C411.64110539 354.5353176 417.68342436 360.75863489 423.6161499 367.32891846 C426.85102973 370.87124554 430.16150403 374.34302198 433.45794678 377.82794189 C439.14913738 383.85884542 444.76185546 389.94192916 450.27044678 396.14044189 C455.11313256 401.5456175 459.98266615 406.92400693 464.89544678 412.26544189 C468.49449671 416.18024124 472.04417308 420.13071959 475.52825928 424.14825439 C477.58545076 426.50064825 479.67641592 428.82079155 481.77044678 431.14044189 C486.65082613 436.55307738 491.45245787 442.02804648 496.20794678 447.55059814 C497.31180338 448.83081348 498.41598055 450.11075246 499.52044678 451.39044189 C500.0803833 452.03924316 500.64031982 452.68804443 501.21722412 453.35650635 C504.78917551 457.47834351 508.43157473 461.52138801 512.14544678 465.51544189 C516.47423037 470.19280982 520.48047693 475.01816183 524.27044678 480.14044189 C522.65351696 484.22172861 519.72765748 486.94647281 516.64544678 489.95294189 C516.10347656 490.4884668 515.56150635 491.0239917 515.00311279 491.57574463 C511.55614263 494.95714604 508.00781601 498.17249176 504.32904053 501.30059814 C501.70544491 503.64540561 499.24077077 506.13695638 496.77044678 508.64044189 C493.17328858 512.280822 489.50495883 515.75716008 485.61419678 519.08184814 C482.35060852 521.9483665 479.18965375 524.9203246 476.02044678 527.89044189 C464.93477268 538.27355125 453.79208781 548.60639726 442.33294678 558.57794189 C439.10485166 561.38866714 435.93306235 564.2562409 432.77044678 567.14044189 C423.77301804 575.33782567 414.51925493 583.22959335 405.27044678 591.14044189 C402.29927204 589.82506353 400.44023152 588.49665523 398.35247803 586.01544189 C397.8251709 585.39661133 397.29786377 584.77778076 396.75457764 584.14019775 C396.20293945 583.48027832 395.65130127 582.82035889 395.08294678 582.14044189 C393.91444567 580.76608917 392.74517356 579.3923916 391.57513428 578.01934814 C391.00762451 577.35048584 390.44011475 576.68162354 389.85540771 575.99249268 C387.84897162 573.64794181 385.78669559 571.35847401 383.70794678 569.07794189 C379.62051779 564.5705202 375.67020361 559.95466777 371.72259521 555.32525635 C367.97337207 550.93736995 364.14601501 546.62834577 360.27044678 542.35137939 C356.28954743 537.95061957 352.4007267 533.4725792 348.55560303 528.95294189 C343.2131901 522.67932278 337.80765016 516.49947068 332.19842529 510.46295166 C329.32076114 507.3451803 326.60672946 504.14136377 323.95794678 500.82794189 C319.10259065 494.79155319 313.80280633 489.21093238 308.49310303 483.57794189 C305.59727024 480.50272123 302.79523082 477.36164664 300.03997803 474.15997314 C297.66160296 471.44558041 295.21537496 468.79470172 292.77044678 466.14044189 C289.75113909 462.8619314 286.74842427 459.57463103 283.83294678 456.20294189 C282.64652297 454.84783224 281.45887459 453.49379438 280.27044678 452.14044189 C279.41193115 451.15302002 278.55341553 450.16559814 277.66888428 449.14825439 C262.40879663 431.88663264 244.46602405 420.46225912 222.27044678 414.14044189 C221.50981934 413.88222656 220.74919189 413.62401123 219.96551514 413.35797119 C212.26328219 410.9174949 204.79204543 410.64747485 196.79315186 410.69439697 C194.60297089 410.70286448 192.41544732 410.67411877 190.2255249 410.64239502 C157.72409108 410.48109022 127.81930343 427.54801067 104.53607178 449.06622314 C102.47529306 450.95290159 100.35853128 452.73316615 98.20794678 454.51544189 C93.24681519 458.84896045 89.30228967 463.95565763 85.27044678 469.14044189 C84.53825928 470.05696533 83.80607178 470.97348877 83.05169678 471.91778564 C67.35834981 492.05942286 57.9080925 514.64040089 51.27044678 539.14044189 C51.07547607 539.82187256 50.88050537 540.50330322 50.67962646 541.2053833 C43.38771553 567.3265977 47.91302151 598.88842294 55.72113037 624.30889893 C56.17857726 625.8341285 56.58464087 627.37465186 56.97747803 628.91778564 C59.10995562 637.18629555 63.28024095 644.64541891 67.27044678 652.14044189 C67.82490479 653.18337402 67.82490479 653.18337402 68.39056396 654.24737549 C73.09678918 663.02290857 78.11641831 671.28295915 84.27044678 679.14044189 C84.92142334 679.99509033 85.5723999 680.84973877 86.24310303 681.73028564 C103.61563289 703.8437302 125.55745609 720.17064576 150.73919678 732.37872314 C153.68361327 733.84767429 156.48244854 735.39794299 159.27044678 737.14044189 C159.02044678 739.01544189 159.02044678 739.01544189 158.27044678 741.14044189 C154.8498415 743.47639663 151.73851744 743.39409591 147.67965698 743.40113831 C147.0189372 743.40496385 146.35821741 743.4087894 145.67747581 743.41273087 C143.46505822 743.42304386 141.25290097 743.41907203 139.04046631 743.4151001 C137.45357015 743.41944756 135.86667609 743.42463082 134.27978516 743.43058777 C129.96981563 743.44398632 125.65993375 743.44455542 121.34994745 743.44202447 C117.7515498 743.4409552 114.15316992 743.44583707 110.55477607 743.45062989 C102.06464109 743.46172833 93.57455035 743.46216078 85.08441162 743.45611572 C76.32752287 743.45007655 67.57079482 743.46238472 58.81393349 743.48368579 C51.29449029 743.50130389 43.77509822 743.50730277 36.25563514 743.50404805 C31.76514752 743.50223516 27.2747745 743.50487177 22.78430557 743.51876259 C18.56043672 743.53133948 14.3368182 743.52939819 10.11295319 743.5163517 C8.56418905 743.51398595 7.01540731 743.51672058 5.46666336 743.52497482 C3.34922037 743.53544473 1.23261697 743.52734064 -0.88479614 743.5146637 C-2.66067266 743.51491531 -2.66067266 743.51491531 -4.47242546 743.515172 C-9.36217619 742.95260984 -12.62428807 741.27557908 -16.04205322 737.76544189 C-18.67993234 733.66207438 -18.85443509 729.72515803 -18.85720372 724.9300791 C-18.86172768 723.37427457 -18.86172768 723.37427457 -18.86634302 721.78703964 C-18.86457355 720.65185996 -18.86280408 719.51668028 -18.86098099 718.34710121 C-18.86303362 717.13286523 -18.86508626 715.91862926 -18.86720109 714.66759825 C-18.87189394 711.28541726 -18.87209502 707.90328927 -18.8704235 704.52110894 C-18.86969292 700.84598774 -18.87471413 697.17087371 -18.87899852 693.49575555 C-18.88658266 686.20141736 -18.88877179 678.9070865 -18.88932757 671.61274478 C-18.89024079 662.87792883 -18.896907 654.14311967 -18.9036744 645.40830665 C-18.91973996 624.29725782 -18.92563798 603.18620971 -18.93042315 582.07515587 C-18.93275819 572.09183893 -18.9363607 562.10852256 -18.94011852 552.12520606 C-18.95295352 517.96243676 -18.96367355 483.79966779 -18.96712112 449.63689613 C-18.96734276 447.49210752 -18.96756454 445.3473189 -18.96778648 443.20253029 C-18.96800712 441.0525212 -18.9682276 438.90251212 -18.96844792 436.75250304 C-18.96889048 432.43910766 -18.96933759 428.12571228 -18.9697876 423.81231689 C-18.96989699 422.74284443 -18.97000638 421.67337196 -18.97011909 420.57149124 C-18.97375135 385.87802795 -18.98967807 351.18458554 -19.01297796 316.49113025 C-19.03755784 279.82486519 -19.05129307 243.15861207 -19.05248904 206.49233854 C-19.0526605 202.46968865 -19.05287593 198.44703877 -19.05312347 194.42438889 C-19.05317924 193.43387445 -19.05323501 192.44336002 -19.05329247 191.42283 C-19.05444442 175.46389202 -19.06547843 159.50497543 -19.08001053 143.54604468 C-19.09435604 127.51523725 -19.09762351 111.48445732 -19.08957055 95.45364524 C-19.08510536 85.92360063 -19.08901039 76.39364459 -19.10480906 66.86361156 C-19.11453078 60.50239543 -19.11340778 54.14124162 -19.10337283 47.78002611 C-19.0979605 44.15256918 -19.09733557 40.52528281 -19.10988155 36.89783974 C-19.12327246 32.99363285 -19.11355455 29.08968063 -19.10149002 25.18546486 C-19.10908521 24.05496751 -19.11668041 22.92447016 -19.12450576 21.75971532 C-19.07994581 15.12351451 -18.73839395 9.63508503 -14.22955322 4.39825439 C-9.26504182 0.64901402 -6.14091991 0.01479833 0 0 Z " fill="#FCFCFC" transform="translate(288.72955322265625,247.85955810546875)"/>
<path d="M0 0 C413.82 0 827.64 0 1254 0 C1254 413.82 1254 827.64 1254 1254 C840.18 1254 426.36 1254 0 1254 C0 840.18 0 426.36 0 0 Z M144 67 C143.27312988 67.50515137 142.54625977 68.01030273 141.79736328 68.53076172 C131.12305413 76.01937031 121.21377514 83.95790799 111.92285156 93.10791016 C109.85539521 95.14229141 107.76759574 97.15459559 105.6796875 99.16796875 C97.00696253 107.60570194 89.16239744 116.2515123 82 126 C81.29746094 126.93070312 80.59492187 127.86140625 79.87109375 128.8203125 C74.54206477 135.9743514 69.67222714 143.40637167 65 151 C64.63793457 151.58281738 64.27586914 152.16563477 63.90283203 152.76611328 C47.68431122 179.17496762 37.90019436 209.53768831 33 240 C32.68095703 241.84658203 32.68095703 241.84658203 32.35546875 243.73046875 C30.42679698 255.34412536 29.84951666 266.94075032 29.87136555 278.69900227 C29.86961251 279.91399911 29.86785947 281.12899596 29.86605331 282.38081089 C29.86222573 285.72794689 29.86281051 289.07502738 29.86533108 292.42216094 C29.8669749 296.07344871 29.86281444 299.72473086 29.85942191 303.3760168 C29.85428366 309.76737733 29.85284797 316.1587303 29.85387802 322.5500927 C29.8554061 332.05501142 29.85123417 341.5599218 29.8460034 351.06483891 C29.83634153 369.03231032 29.83351957 386.99977888 29.83294634 404.96725259 C29.83248639 418.84784039 29.83042597 432.72842707 29.82724571 446.60901451 C29.82634813 450.60788478 29.82545832 454.60675506 29.82457083 458.60562533 C29.82434979 459.59983268 29.82412874 460.59404003 29.82390099 461.61837487 C29.8177481 489.57807883 29.81380028 517.5377824 29.81424427 545.49748707 C29.81425985 546.5512687 29.81427543 547.60505034 29.81429148 548.69076475 C29.81437458 554.03146564 29.81447362 559.37216653 29.81457619 564.71286742 C29.81459613 565.77350012 29.81461608 566.83413283 29.81463663 567.92690592 C29.81467706 570.07176482 29.81471886 572.21662373 29.81476202 574.36148263 C29.81537446 607.71519525 29.80787331 641.06889771 29.79418945 674.42260742 C29.77881221 711.9190819 29.77022425 749.4155497 29.77115268 786.91202754 C29.7712273 790.91435572 29.77127601 794.91668389 29.77130699 798.91901207 C29.77131865 799.90444201 29.7713303 800.88987194 29.77134231 801.90516339 C29.77137302 817.73012196 29.76500023 833.55507166 29.75637473 849.38002759 C29.74787706 865.30036877 29.74692477 881.22069704 29.75348405 897.14103923 C29.75716586 906.5853253 29.75538853 916.02957205 29.74554171 925.47385391 C29.73950692 931.79932216 29.74087568 938.12476218 29.74801221 944.45022918 C29.7518645 948.04315584 29.75275533 951.63600686 29.74455485 955.22892795 C29.69795393 977.09820121 30.1752183 998.85128168 34.75 1020.3125 C35.01240479 1021.57811768 35.27480957 1022.84373535 35.54516602 1024.14770508 C37.7250851 1034.34993454 40.49680815 1044.1819013 44 1054 C44.53932644 1055.56891971 45.07838303 1057.13793221 45.6171875 1058.70703125 C58.3592011 1095.14889277 79.70769667 1126.86800388 107 1154 C108.06752857 1155.08874444 109.13386335 1156.17866024 110.19921875 1157.26953125 C116.80201963 1163.99684209 123.39230939 1170.39734833 131 1176 C132.53140625 1177.14662109 132.53140625 1177.14662109 134.09375 1178.31640625 C143.35453653 1185.15210293 153.06932899 1191.19132413 163 1197 C163.93682617 1197.55300781 163.93682617 1197.55300781 164.89257812 1198.1171875 C186.80204402 1210.91173839 212.06615674 1218.76377527 236.8125 1223.8125 C237.76495605 1224.0074707 238.71741211 1224.20244141 239.69873047 1224.40332031 C257.89616354 1227.89796707 275.83540174 1228.29702497 294.31693796 1228.26933783 C298.01094949 1228.26603431 301.70493931 1228.27438402 305.3989436 1228.28115618 C311.85770578 1228.29140756 318.31643801 1228.29430849 324.77520752 1228.29224396 C334.3805401 1228.28918121 343.9858398 1228.29754607 353.59116596 1228.30799321 C371.75010713 1228.32729294 389.90903696 1228.33295994 408.06798718 1228.33410732 C422.0981088 1228.33502801 436.128226 1228.339153 450.15834618 1228.34550858 C454.20356835 1228.3473038 458.24879054 1228.34908342 462.29401273 1228.35085833 C463.29980394 1228.35130043 464.30559514 1228.35174252 465.34186488 1228.35219802 C493.61772483 1228.36449952 521.89358325 1228.37239986 550.16944599 1228.37151146 C551.2346172 1228.3714803 552.2997884 1228.37144914 553.39723752 1228.37141704 C558.79539341 1228.37125084 564.19354929 1228.37105276 569.59170518 1228.37084763 C570.66370666 1228.37080774 571.73570814 1228.37076785 572.84019451 1228.37072675 C575.00804221 1228.37064587 577.17588991 1228.37056228 579.34373762 1228.37047596 C613.05412685 1228.3692511 646.76447581 1228.38425457 680.47485352 1228.41162109 C718.39112012 1228.44238968 756.30736027 1228.45955069 794.22364014 1228.45769465 C798.27232023 1228.4575454 802.32100032 1228.45744798 806.3696804 1228.45738602 C807.36648908 1228.45736271 808.36329775 1228.4573394 809.39031275 1228.45731538 C825.38232021 1228.45725402 841.37429251 1228.46998712 857.36628954 1228.48725055 C873.45975084 1228.50426327 889.5531611 1228.50613696 905.64662645 1228.4930319 C915.18768831 1228.48567999 924.72859439 1228.48918722 934.26963951 1228.50891658 C940.66582075 1228.52101675 947.06189053 1228.51821562 953.4580669 1228.50397559 C957.08725585 1228.49629603 960.71614598 1228.49441298 964.34531251 1228.51089029 C1022.3626658 1228.75707356 1081.38678917 1213.19231037 1127 1176 C1127.80824219 1175.38253906 1128.61648438 1174.76507812 1129.44921875 1174.12890625 C1177.09322565 1137.5099588 1211.17842286 1081.73431906 1223 1023 C1223.15162598 1022.2584668 1223.30325195 1021.51693359 1223.45947266 1020.75292969 C1227.55559392 1000.35047606 1228.29935284 980.25333843 1228.26313647 959.49484983 C1228.25891729 955.79107148 1228.26639541 952.08731198 1228.27228898 948.38353842 C1228.28100419 941.90932331 1228.28237987 935.43513985 1228.27878571 928.96092033 C1228.27345495 919.33289718 1228.27959776 909.7049044 1228.28786864 900.07688454 C1228.30307478 881.8766302 1228.30481719 863.67638982 1228.30234561 845.47613046 C1228.30050992 831.41738592 1228.30227835 817.35864593 1228.30657005 803.29990196 C1228.30717247 801.2770401 1228.30777366 799.25417824 1228.30837366 797.23131638 C1228.30928095 794.18270965 1228.31018962 791.13410292 1228.31110601 788.08549619 C1228.31953048 759.75640069 1228.32387473 731.42730691 1228.31969929 703.09821033 C1228.31954291 702.03119619 1228.31938654 700.96418205 1228.31922542 699.86483415 C1228.31841969 694.45731272 1228.31757392 689.0497913 1228.31671212 683.64226989 C1228.31654103 682.56840182 1228.31636994 681.49453376 1228.31619367 680.38812424 C1228.31584701 678.21650444 1228.31549848 676.04488464 1228.31514808 673.87326484 C1228.30979185 640.08892079 1228.31772059 606.30460285 1228.33618164 572.52026367 C1228.35691964 534.52493238 1228.36762093 496.52961726 1228.36360615 458.53428 C1228.36321084 454.47924563 1228.36284928 450.42421125 1228.36250877 446.36917686 C1228.36241804 445.37079443 1228.36232731 444.37241199 1228.36223383 443.34377553 C1228.3610702 428.30378535 1228.36769827 413.26381155 1228.37832069 398.22382545 C1228.39039634 381.10926639 1228.39190447 363.9947433 1228.37953053 346.88018367 C1228.37292404 337.31587396 1228.37448167 327.75165039 1228.38811904 318.18734765 C1228.39641067 311.78208549 1228.39360535 305.37688735 1228.38214377 298.97163032 C1228.37593366 295.33321033 1228.37416444 291.69495745 1228.38600711 288.05654762 C1228.61471742 212.5628762 1200.43390878 147.23318788 1147.75 93.625 C1114.57599741 61.06031583 1072.02418819 40.15546482 1027 30 C1025.89277588 29.74476562 1025.89277588 29.74476562 1024.76318359 29.484375 C1003.30644756 24.62664115 981.09117734 24.69792968 959.21037445 24.73686353 C955.55360813 24.74110507 951.89686033 24.73359241 948.24009883 24.72771102 C941.85611939 24.71901914 935.47217205 24.71761163 929.08818817 24.72121429 C919.5943171 24.72655762 910.1004767 24.72038988 900.60660896 24.71213136 C882.6590345 24.69694643 864.71147423 24.69518054 846.76389469 24.69765439 C832.90027168 24.6994917 819.03665329 24.69771829 805.17303085 24.69342995 C803.17666712 24.69282753 801.18030339 24.69222633 799.18393966 24.69162634 C796.17511989 24.69071903 793.16630012 24.68981036 790.15748035 24.68889399 C762.20883356 24.68047298 734.26018849 24.67612295 706.3115406 24.68030071 C705.25945272 24.68045709 704.20736484 24.68061346 703.1233955 24.68077458 C697.79177308 24.68158028 692.46015067 24.68242606 687.12852825 24.68328788 C686.06977074 24.68345897 685.01101322 24.68363006 683.92017215 24.68380633 C681.77911236 24.68415299 679.63805256 24.68450152 677.49699277 24.68485192 C644.18174122 24.69020915 610.86651614 24.68227512 577.55126953 24.66381836 C540.06677915 24.64307582 502.58230516 24.6323798 465.09780872 24.63639385 C461.09673937 24.63678916 457.09567003 24.63715071 453.09460068 24.63749123 C452.10953394 24.63758196 451.1244672 24.63767269 450.10954996 24.63776617 C435.27825836 24.63892919 420.4469834 24.63230649 405.61569595 24.62167931 C388.73883485 24.60959826 371.86201024 24.60810184 354.98514856 24.62046947 C345.5567622 24.62707064 336.12846325 24.62553073 326.70008399 24.61188096 C320.38304901 24.60357893 314.06607887 24.60640783 307.74904906 24.61785623 C304.16274835 24.62405617 300.57661697 24.62586294 296.99032666 24.61399289 C243.11358571 24.44812132 188.81788686 35.80583022 144 67 Z " fill="#FDFDFD" transform="translate(0,0)"/>
<path d="M0 0 C3.36398718 4.48531624 2.47274124 9.31515431 2.0625 14.75 C1.24973746 19.82513398 0.11353561 24.81174415 -1.0625 29.8125 C-1.38103476 31.21202238 -1.69823399 32.61184934 -2.01416016 34.01196289 C-2.6596496 36.86404729 -3.31182625 39.71445512 -3.97070312 42.56347656 C-5.17445223 47.76859358 -6.35614968 52.97850262 -7.52685547 58.19116211 C-8.03583813 60.45627732 -8.55015123 62.72020401 -9.07080078 64.98266602 C-10.25016081 70.19799441 -11.24244223 75.28016484 -11.61572266 80.61938477 C-11.9375 82.75 -11.9375 82.75 -12.88305664 85.56811523 C-14.00906215 88.96594572 -14.66073726 92.25470229 -15.26953125 95.78125 C-15.51050928 97.15350969 -15.751645 98.5257417 -15.99291992 99.89794922 C-16.11637787 100.60916931 -16.23983582 101.3203894 -16.36703491 102.05316162 C-18.26617114 112.94735403 -20.24098318 123.82511658 -22.625 134.625 C-22.81489502 135.52025391 -23.00479004 136.41550781 -23.20043945 137.33789062 C-23.47827271 138.55895508 -23.47827271 138.55895508 -23.76171875 139.8046875 C-23.91729248 140.50062012 -24.07286621 141.19655273 -24.2331543 141.91357422 C-25.09092011 144.15000903 -26.06987513 145.26241343 -27.9375 146.75 C-30.875 147.21484375 -30.875 147.21484375 -33.9375 146.75 C-36 144.94140625 -36 144.94140625 -37.9375 142.3125 C-38.69804688 141.31605469 -39.45859375 140.31960938 -40.2421875 139.29296875 C-40.66338867 138.73270996 -41.08458984 138.17245117 -41.51855469 137.59521484 C-44.26520366 134.02343698 -47.18146211 130.58848049 -50.0625 127.125 C-54.78498301 121.40738186 -59.45775275 115.66124543 -63.9375 109.75 C-67.83181805 111.32885475 -70.41948787 113.99101735 -73.296875 116.94921875 C-73.8049469 117.46249222 -74.3130188 117.97576569 -74.83648682 118.5045929 C-76.45833649 120.14419699 -78.0733566 121.79031153 -79.6875 123.4375 C-81.80382729 125.59068036 -83.92339177 127.74059507 -86.046875 129.88671875 C-86.56096924 130.40640228 -87.07506348 130.92608582 -87.60473633 131.46151733 C-90.98499498 134.85517784 -94.47381991 138.05102378 -98.11816406 141.15551758 C-101.38763244 144.02090915 -104.39531076 147.14744356 -107.4375 150.25 C-111.82264916 154.68255618 -116.21561904 158.99328301 -120.984375 163.015625 C-124.08300592 165.76720925 -126.95439295 168.74657641 -129.86328125 171.6953125 C-133.15179953 175.01131143 -136.55955554 178.11029132 -140.109375 181.140625 C-142.57783969 183.31371785 -144.85285363 185.65472369 -147.15625 188 C-149.65646185 190.45634849 -152.31430516 192.71309368 -154.96875 195 C-156.86773071 196.68798286 -158.65755988 198.43769734 -160.4375 200.25 C-162.69547943 202.54326036 -164.99746504 204.71428028 -167.4375 206.8125 C-171.45111713 210.27385585 -175.32046596 213.87705156 -179.1875 217.5 C-195.86340988 233.11616732 -195.86340988 233.11616732 -202.8125 239.125 C-206.60552369 242.41017115 -210.26884956 245.82759354 -213.9375 249.25 C-218.19413141 253.22092149 -222.47452063 257.14245127 -226.8828125 260.9453125 C-229.60674787 263.33781847 -232.27089986 265.79409419 -234.9375 268.25 C-238.89678098 271.89489638 -242.88878117 275.49260431 -246.95703125 279.015625 C-249.24883155 281.02264538 -251.49746752 283.07402851 -253.75 285.125 C-258.12035684 289.07371445 -262.64053079 292.7962721 -267.21875 296.5 C-269.85897729 298.68501569 -272.4047972 300.94171391 -274.9375 303.25 C-279.16114277 307.09510875 -283.5244793 310.71758171 -287.96484375 314.30859375 C-291.27501679 317.02719841 -294.51238543 319.82091855 -297.75 322.625 C-303.49736566 327.58688449 -309.38937163 332.32165691 -315.38671875 336.9765625 C-317.78645849 338.84104185 -320.1614756 340.73151688 -322.51953125 342.6484375 C-331.30920176 349.79092847 -340.33425565 356.52288582 -349.57519531 363.0703125 C-351.94208356 364.75325909 -354.29567379 366.45363042 -356.6484375 368.15625 C-376.54205594 382.44822304 -397.60390211 394.45890125 -419.47167969 405.45410156 C-422.02205694 406.79443844 -424.47062393 408.26285585 -426.9375 409.75 C-428.37943686 410.39231733 -429.8389872 410.99636087 -431.3125 411.5625 C-434.21373383 412.67998105 -437.08737065 413.81537327 -439.9375 415.05859375 C-460.31801498 423.76277202 -482.02324789 428.84321207 -503.9375 431.75 C-505.15348877 431.926521 -506.36947754 432.10304199 -507.62231445 432.28491211 C-512.42562442 432.87827786 -517.19300127 432.89377182 -522.02734375 432.8828125 C-523.44328575 432.88424759 -523.44328575 432.88424759 -524.88783264 432.88571167 C-526.87370877 432.8863887 -528.85958717 432.88456785 -530.84545898 432.88037109 C-533.86251874 432.87502213 -536.87942923 432.88032929 -539.89648438 432.88671875 C-541.83593782 432.88605777 -543.77539118 432.88477619 -545.71484375 432.8828125 C-547.05119118 432.88584885 -547.05119118 432.88584885 -548.41453552 432.88894653 C-553.99644591 432.86835333 -559.39924674 432.45528246 -564.9375 431.75 C-564.9375 430.76 -564.9375 429.77 -564.9375 428.75 C-564.22021729 428.5547876 -563.50293457 428.3595752 -562.76391602 428.15844727 C-497.78541736 410.35067278 -439.44763696 378.96498894 -385.95800781 338.28076172 C-383.91810917 336.73530927 -381.86402492 335.21083701 -379.8046875 333.69140625 C-370.88406541 327.09451824 -362.23887626 320.20491552 -353.66650391 313.16308594 C-351.37930673 311.29379799 -349.06603775 309.45837399 -346.75 307.625 C-341.27706932 303.25946834 -335.95344504 298.72034352 -330.62402344 294.18212891 C-328.94387156 292.75541048 -327.25813436 291.33560181 -325.5703125 289.91796875 C-319.73873831 285.01548414 -314.00996479 280.03551282 -308.375 274.90625 C-305.91306487 272.72838431 -303.38196353 270.67445305 -300.8125 268.625 C-295.20898201 264.09754877 -289.98809067 259.20649907 -284.77099609 254.24169922 C-280.85914399 250.5229277 -276.87804175 246.91300821 -272.80151367 243.37548828 C-270.22236594 241.12637687 -267.70482639 238.81821583 -265.1875 236.5 C-264.14459123 235.5402994 -263.1016208 234.5806658 -262.05859375 233.62109375 C-261.53765137 233.14140137 -261.01670898 232.66170898 -260.47998047 232.16748047 C-259.02250017 230.8281119 -257.5602229 229.49396875 -256.09765625 228.16015625 C-250.06185403 222.65424613 -244.07951932 217.09375649 -238.125 211.5 C-237.41964111 210.83846924 -236.71428223 210.17693848 -235.98754883 209.49536133 C-232.09928897 205.83460847 -228.27694093 202.12433864 -224.53491211 198.31396484 C-222.85517822 196.66940191 -221.10675942 195.14312252 -219.3125 193.625 C-214.92909052 189.85560897 -210.89452578 185.76471313 -206.85693359 181.63232422 C-204.07237769 178.80289788 -201.23604527 176.11223577 -198.21875 173.53125 C-192.84729659 168.88969744 -187.91792414 163.80152469 -182.9375 158.75 C-181.0447613 156.83024056 -179.14843242 154.91412746 -177.25 153 C-176.42113281 152.15953125 -175.59226562 151.3190625 -174.73828125 150.453125 C-172.58279212 148.3727924 -170.40930055 146.40764004 -168.14257812 144.45507812 C-163.66987115 140.57442433 -159.50599187 136.42748224 -155.34375 132.21875 C-154.55278931 131.42400269 -153.76182861 130.62925537 -152.94689941 129.8104248 C-150.44130477 127.29271568 -147.93899142 124.77178554 -145.4375 122.25 C-142.1383832 118.92411811 -138.83585626 115.60167664 -135.53125 112.28125 C-134.78830688 111.53000854 -134.04536377 110.77876709 -133.27990723 110.00476074 C-129.23548131 105.9416328 -125.09492412 102.07180581 -120.75158691 98.33032227 C-116.28061888 94.43548665 -112.13988147 90.17919592 -107.9375 86 C-106.96227077 85.04554105 -105.98701055 84.09111377 -105.01171875 83.13671875 C-104.10035156 82.23050781 -103.18898438 81.32429687 -102.25 80.390625 C-101.00669922 79.16134277 -101.00669922 79.16134277 -99.73828125 77.90722656 C-97.61708318 75.83450351 -97.61708318 75.83450351 -97.9375 72.75 C-99.35347988 71.30830238 -99.35347988 71.30830238 -101.375 69.9375 C-106.16886725 66.37244049 -110.77784233 62.6249982 -115.375 58.8125 C-120.90920419 54.22926059 -126.4684166 49.6977815 -132.15234375 45.30078125 C-133.9375 43.75 -133.9375 43.75 -135.9375 40.75 C-135.73324065 38.02654206 -135.40845835 36.3354738 -133.68374634 34.19139099 C-131.565071 32.44258873 -129.8337914 31.90603257 -127.18505859 31.18774414 C-126.2190976 30.92059097 -125.2531366 30.65343781 -124.25790405 30.37818909 C-123.21115509 30.09998825 -122.16440613 29.82178741 -121.0859375 29.53515625 C-119.454785 29.08963661 -119.454785 29.08963661 -117.79067993 28.63511658 C-115.48022244 28.00601363 -113.16843975 27.38176082 -110.85546875 26.76196289 C-107.37221011 25.82850142 -103.89286647 24.88155315 -100.4140625 23.93164062 C-89.3762876 20.93167216 -78.3320111 18.03874492 -67.17456055 15.51708984 C-63.79765471 14.71686071 -60.56199752 13.7311783 -57.29296875 12.578125 C-46.95113047 8.94218849 -36.38239387 5.95735432 -25.83361816 2.99008179 C-23.9053764 2.44607004 -21.97951811 1.89363282 -20.05371094 1.34106445 C-18.84875977 1.00550537 -17.64380859 0.66994629 -16.40234375 0.32421875 C-15.325896 0.02088623 -14.24944824 -0.28244629 -13.14038086 -0.5949707 C-8.43901145 -1.5564597 -4.45759951 -1.89685086 0 0 Z " fill="#FBFBFB" transform="translate(1054.9375,559.25)"/>
<path d="M0 0 C3.44204084 1.22475765 5.50255054 4.11529262 7.8605957 6.79125977 C8.39467041 7.38398682 8.92874512 7.97671387 9.47900391 8.58740234 C11.01152982 10.29302668 12.53212914 12.00841689 14.0480957 13.72875977 C14.71583008 14.48415039 15.38356445 15.23954102 16.0715332 16.01782227 C17.16532773 17.26567235 18.25529698 18.51688777 19.34106445 19.77172852 C21.38443001 22.11435127 23.4649043 24.42149399 25.5480957 26.72875977 C28.19923564 29.66554441 30.83099741 32.61478518 33.4230957 35.60375977 C36.40726256 39.03208169 39.46998054 42.38496777 42.5480957 45.72875977 C46.19288776 49.6881394 49.79069737 53.68003788 53.3137207 57.74829102 C55.32074109 60.04009132 57.37212422 62.28872729 59.4230957 64.54125977 C62.45782754 67.89677702 65.3522848 71.31714159 68.1730957 74.85375977 C72.70054694 80.45727775 77.59159663 85.67816909 82.55639648 90.89526367 C88.82949312 97.49406281 94.76218945 104.36899345 100.6730957 111.29125977 C104.96491462 116.30941801 109.27950739 121.30696868 113.6105957 126.29125977 C118.07664767 131.43296555 122.49811322 136.60906147 126.88647461 141.81713867 C130.38581113 145.96305055 133.92803321 150.07024684 137.4855957 154.16625977 C141.8730758 159.21811287 146.25211205 164.27685216 150.6105957 169.35375977 C151.09906982 169.92151123 151.58754395 170.4892627 152.09082031 171.07421875 C153.41645939 172.62014206 154.73256561 174.17422497 156.0480957 175.72875977 C157.18891602 177.03586914 157.18891602 177.03586914 158.3527832 178.36938477 C161.05556613 182.13086146 160.70641847 184.19364738 160.0480957 188.72875977 C156.15894306 191.95778815 152.45840969 192.15701648 147.60037231 192.10971069 C146.8593936 192.11439067 146.11841488 192.11907064 145.35498226 192.12389243 C142.87636438 192.13584121 140.39829955 192.12638546 137.91967773 192.11694336 C136.14034198 192.12100947 134.36100875 192.12635157 132.5816803 192.13287354 C127.74841586 192.14655819 122.91534343 192.14124109 118.0820756 192.13173628 C113.01352329 192.12413385 107.94498729 192.13118801 102.87643433 192.13589478 C94.35387226 192.14135561 85.83138812 192.13415732 77.30883789 192.11987305 C67.48590018 192.10359827 57.6631498 192.10879597 47.84021676 192.12535226 C39.38982907 192.13902051 30.93949743 192.14085925 22.48910224 192.13303626 C17.45006174 192.12838221 12.41110884 192.12767087 7.37207413 192.13764572 C2.62286438 192.14638911 -2.12610745 192.14016054 -6.87529182 192.12296295 C-8.60732824 192.11903485 -10.33938507 192.12006807 -12.07141304 192.12675095 C-37.23042834 192.21478108 -60.76883663 185.798226 -79.0222168 167.74047852 C-85.57122394 161.0664256 -91.56874863 154.02593629 -97.4519043 146.76391602 C-100.31535506 143.28750783 -103.24823836 139.87850206 -106.2019043 136.47875977 C-106.74314941 135.85364502 -107.28439453 135.22853027 -107.84204102 134.58447266 C-110.7697395 131.21062006 -113.72295425 127.86297191 -116.7097168 124.54125977 C-117.31525391 123.86095703 -117.92079102 123.1806543 -118.54467773 122.47973633 C-119.71401732 121.16687232 -120.89152838 119.86123169 -122.07788086 118.5637207 C-123.44776587 117.01827433 -124.71143889 115.3798912 -125.9519043 113.72875977 C-124.77000589 110.18306455 -123.76107957 109.57133778 -120.8269043 107.35375977 C-116.24986105 103.79310865 -111.82738568 100.09688797 -107.4519043 96.29125977 C-106.80713135 95.73051758 -106.1623584 95.16977539 -105.49804688 94.59204102 C-101.00686934 90.67329638 -96.56032244 86.70755709 -92.14331055 82.70532227 C-90.09651634 80.85919415 -88.03058873 79.03882693 -85.9519043 77.22875977 C-77.98503428 70.27556705 -70.21114252 63.12633796 -62.49633789 55.89599609 C-58.87299732 52.50492094 -55.22066135 49.15455573 -51.5144043 45.85375977 C-47.83006058 42.56525463 -44.3370774 39.13809564 -40.8737793 35.61938477 C-39.00216787 33.77820605 -37.0709863 32.06069396 -35.0769043 30.35375977 C-31.88507921 27.61254528 -28.90887453 24.72190089 -25.9519043 21.72875977 C-22.41735528 18.15104068 -18.79483937 14.79228277 -14.97143555 11.52954102 C-11.77888334 8.68279717 -8.81642463 5.61389391 -5.8347168 2.54907227 C-2.79621427 -0.38856711 -2.79621427 -0.38856711 0 0 Z " fill="#FCFCFC" transform="translate(879.951904296875,799.271240234375)"/>
<path d="M0 0 C0.9583374 0.00523682 1.9166748 0.01047363 2.90405273 0.01586914 C3.83548096 0.0183667 4.76690918 0.02086426 5.7265625 0.0234375 C7.51404907 0.03709351 7.51404907 0.03709351 9.33764648 0.05102539 C13.11202148 0.07165039 16.88639648 0.09227539 20.77514648 0.11352539 C20.77514648 8.36352539 20.77514648 16.61352539 20.77514648 25.11352539 C23.08514648 25.11352539 25.39514648 25.11352539 27.77514648 25.11352539 C40.08434399 28.35781001 52.53455867 36.33602224 59.0793457 47.30688477 C64.13600501 56.13355683 65.77514648 61.48474573 65.77514648 72.11352539 C56.20514648 72.11352539 46.63514648 72.11352539 36.77514648 72.11352539 C35.78514648 69.14352539 34.79514648 66.17352539 33.77514648 63.11352539 C29.86160533 56.82390569 23.73699852 54.03773835 16.77514648 52.11352539 C7.82226067 51.08163281 -1.51704011 50.99177574 -9.22485352 56.11352539 C-10.0969043 56.65686523 -10.0969043 56.65686523 -10.98657227 57.21118164 C-15.36904088 60.34151637 -17.14749556 64.00275293 -18.22485352 69.11352539 C-19.09937967 76.00176845 -18.36826786 80.51431682 -14.22485352 86.11352539 C-6.51684363 93.82153528 5.33806203 95.8265452 15.52514648 98.55102539 C53.13907216 108.61740396 53.13907216 108.61740396 64.77514648 125.11352539 C71.0790876 137.20864686 73.35580564 152.12635445 69.65014648 165.48852539 C69.06985057 167.04756925 68.44205716 168.58952038 67.77514648 170.11352539 C67.38456055 171.06356445 66.99397461 172.01360352 66.59155273 172.99243164 C60.98646688 185.42524247 52.2729337 194.55223676 39.77514648 200.11352539 C33.45067205 202.35747831 27.51411554 204.22847126 20.77514648 204.11352539 C20.7803833 204.83531982 20.78562012 205.55711426 20.79101562 206.30078125 C20.81172006 209.55085388 20.82478567 212.80091267 20.83764648 216.05102539 C20.84602539 217.18733398 20.8544043 218.32364258 20.86303711 219.49438477 C20.86625977 220.57397461 20.86948242 221.65356445 20.87280273 222.76586914 C20.87803955 223.76610107 20.88327637 224.76633301 20.88867188 225.796875 C20.77514648 228.11352539 20.77514648 228.11352539 19.77514648 229.11352539 C18.2255909 229.21252062 16.67160976 229.24432063 15.11889648 229.24633789 C13.70930664 229.24827148 13.70930664 229.24827148 12.27124023 229.25024414 C11.2825293 229.24637695 10.29381836 229.24250977 9.27514648 229.23852539 C8.28643555 229.24239258 7.29772461 229.24625977 6.27905273 229.25024414 C5.33932617 229.24895508 4.39959961 229.24766602 3.43139648 229.24633789 C2.56321289 229.24520996 1.6950293 229.24408203 0.80053711 229.24291992 C-1.22485352 229.11352539 -1.22485352 229.11352539 -2.22485352 228.11352539 C-2.31211575 226.33281293 -2.33184393 224.54869399 -2.32250977 222.76586914 C-2.31928711 221.6862793 -2.31606445 220.60668945 -2.31274414 219.49438477 C-2.30017578 217.78992188 -2.30017578 217.78992188 -2.28735352 216.05102539 C-2.2828418 214.91084961 -2.27833008 213.77067383 -2.27368164 212.59594727 C-2.26185099 209.76842188 -2.24536761 206.94099899 -2.22485352 204.11352539 C-2.80638184 204.06019043 -3.38791016 204.00685547 -3.98706055 203.9519043 C-17.69353909 202.58266803 -30.14242903 197.26393006 -39.66625977 187.05493164 C-44.74361027 180.73051259 -48.13132901 173.92518399 -50.22485352 166.11352539 C-50.45172852 165.26790039 -50.67860352 164.42227539 -50.91235352 163.55102539 C-51.35497762 160.09855739 -51.22485352 156.59425109 -51.22485352 153.11352539 C-41.32485352 153.11352539 -31.42485352 153.11352539 -21.22485352 153.11352539 C-20.56485352 155.75352539 -19.90485352 158.39352539 -19.22485352 161.11352539 C-15.6511534 167.73148856 -10.31495501 172.65991009 -3.328125 175.50927734 C0.90607607 176.72571932 5.21164603 176.64208307 9.58764648 176.61352539 C10.56725342 176.60925537 11.54686035 176.60498535 12.55615234 176.60058594 C19.59654522 176.43411997 25.12387217 175.60460431 30.77514648 171.11352539 C31.72389648 170.39165039 32.67264648 169.66977539 33.65014648 168.92602539 C37.38831217 163.97845316 39.41504329 158.67926066 40.27514648 152.55102539 C39.46049014 146.950263 38.08933853 142.17306696 33.75170898 138.31274414 C25.49086528 132.63165197 17.00783739 130.29400296 7.33764648 128.11352539 C0.263136 126.51269332 -6.49772416 124.84252443 -13.22485352 122.11352539 C-14.23290039 121.73711914 -15.24094727 121.36071289 -16.27954102 120.97290039 C-29.64313679 115.71630593 -40.00514435 108.04101933 -46.15844727 94.82055664 C-51.59414372 81.02225024 -51.04681661 68.96399896 -46.22485352 55.11352539 C-44.54956234 51.49000234 -42.58983419 48.32271435 -40.22485352 45.11352539 C-39.60030273 44.20086914 -39.60030273 44.20086914 -38.96313477 43.26977539 C-32.00982366 34.08221718 -20.39661405 27.37957044 -9.22485352 25.11352539 C-7.22557339 25.0598691 -5.2237071 25.04581754 -3.22485352 25.11352539 C-3.23009033 24.39173096 -3.23532715 23.66993652 -3.24072266 22.92626953 C-3.26142709 19.6761969 -3.2744927 16.42613811 -3.28735352 13.17602539 C-3.29573242 12.0397168 -3.30411133 10.9034082 -3.31274414 9.73266602 C-3.3159668 8.65307617 -3.31918945 7.57348633 -3.32250977 6.46118164 C-3.32774658 5.46094971 -3.3329834 4.46071777 -3.33837891 3.43017578 C-3.18796313 0.3607235 -3.06575004 0.15643298 0 0 Z " fill="#F9FAFA" transform="translate(471.224853515625,705.886474609375)"/>
<path d="M0 0 C8.33542668 8.33542668 5.38956196 32.59884682 5.40123022 43.43591988 C5.39732229 45.49562362 5.39157191 47.55531551 5.38540266 49.61501364 C5.37769728 53.31721319 5.3876095 57.01937662 5.39513266 60.72157085 C5.40590342 67.19152742 5.40567896 73.66140872 5.39799118 80.13136864 C5.38658975 89.75313809 5.39247293 99.37484468 5.4016161 108.99661378 C5.41737556 126.18809075 5.41605898 143.37953417 5.40737936 160.57101429 C5.39981938 175.61971253 5.39786877 190.66839849 5.4014473 205.71709824 C5.40167645 206.71705162 5.40190561 207.717005 5.40214171 208.74725999 C5.4030758 212.80691826 5.40403101 216.86657653 5.405021 220.92623478 C5.4141903 258.98105192 5.4058906 297.03584777 5.38973031 335.09066162 C5.37550093 368.85504885 5.37676277 402.61940213 5.39111328 436.38378906 C5.40720096 474.36193578 5.41353336 512.34006369 5.40427649 550.31821334 C5.40331442 554.37214462 5.40237589 558.42607589 5.4014473 562.48000717 C5.40109145 563.97715881 5.40109145 563.97715881 5.40072841 565.50455594 C5.39732515 580.53480237 5.40128984 595.56503515 5.40888596 610.59527969 C5.41748815 627.70097653 5.41526773 644.80663471 5.39904372 661.91232677 C5.39027652 671.46955337 5.38959905 681.02669616 5.40098225 690.58392047 C5.4077632 696.98698247 5.4034268 703.38997799 5.39046794 709.79303022 C5.38340666 713.42853206 5.38073115 717.0638688 5.39168589 720.6993648 C5.47936495 752.19075028 2.33467621 783.095405 -8 813 C-8.66 812.67 -9.32 812.34 -10 812 C-9.84144531 811.37738281 -9.68289063 810.75476562 -9.51953125 810.11328125 C-8.84476882 807.44032731 -8.17925586 804.76520829 -7.51806641 802.08886719 C-7.15315231 800.61751706 -6.78537417 799.14687578 -6.41552734 797.67675781 C-4.02558173 788.15071577 -1.78841446 778.6423312 -0.25 768.9375 C-0.13462891 768.21361084 -0.01925781 767.48972168 0.09960938 766.74389648 C1.7673397 755.59663538 2.15728434 744.46931633 2.20333862 733.21228027 C2.2127598 731.74451503 2.22256919 730.27675223 2.23272789 728.80899191 C2.25927533 724.78890394 2.2798485 720.76880524 2.29920501 716.74867702 C2.31664005 713.26987067 2.33737242 709.79108677 2.3580502 706.31229842 C2.4209498 695.7087162 2.47422037 685.10509791 2.52496576 674.50145149 C2.54966779 669.34578759 2.57565144 664.1901311 2.6020667 659.03447571 C3.13677828 554.60184463 3.15402102 450.16891967 3.12946185 345.73517597 C3.12492802 326.07475074 3.12582719 306.4143314 3.13037109 286.75390625 C3.13576931 263.38907575 3.13780947 240.02424867 3.13475883 216.65941763 C3.13444053 214.15707493 3.13412615 211.65473223 3.13381577 209.15238953 C3.13366149 207.92381203 3.13350721 206.69523453 3.13334826 205.42942742 C3.13250376 196.99130622 3.13392111 188.55318736 3.13629532 180.11506653 C3.16750679 117.52827882 3.16750679 117.52827882 2.64392003 54.94427001 C2.61732002 52.83630582 2.59365407 50.72832827 2.57081437 48.62032032 C2.41604025 35.20510399 2.09634645 21.95282113 0.41581917 8.63248444 C0.08037778 5.70215869 -0.08842115 2.94168378 0 0 Z " fill="#0D3D1D" transform="translate(1223,240)"/>
<path d="M0 0 C1.31097656 0.01353516 1.31097656 0.01353516 2.6484375 0.02734375 C3.30070313 0.03894531 3.95296875 0.05054688 4.625 0.0625 C4.625 0.3925 4.625 0.7225 4.625 1.0625 C-14.76907424 4.27509052 -33.53370108 5.65039481 -53.21670556 5.55156477 C-56.93860396 5.53751419 -60.66046414 5.54736916 -64.38237303 5.55387473 C-70.87222297 5.56207715 -77.36192458 5.55575583 -83.85175705 5.5393219 C-93.50152699 5.51495498 -103.1512055 5.51399946 -112.80100061 5.51748985 C-129.04170189 5.52271848 -145.28233758 5.50948317 -161.52301979 5.48542023 C-177.58408751 5.46168485 -193.64512786 5.44634292 -209.706213 5.44200897 C-210.70793462 5.44173401 -211.70965624 5.44145906 -212.74173306 5.44117576 C-217.82976575 5.43982228 -222.91779846 5.4386168 -228.0058312 5.43746826 C-263.96687802 5.42908508 -299.92788923 5.40218744 -335.88891602 5.36425781 C-370.80655733 5.32747141 -405.72418887 5.29916086 -440.6418457 5.28222656 C-442.25866904 5.28143741 -442.25866904 5.28143741 -443.90815546 5.28063231 C-454.73350796 5.27535785 -465.55886054 5.27025465 -476.38421318 5.26527687 C-498.43320054 5.25513427 -520.48218727 5.24384926 -542.53117371 5.23187256 C-543.54476628 5.2313234 -544.55835885 5.23077424 -545.60266635 5.23020844 C-613.19345903 5.19345719 -680.78423198 5.1300825 -748.375 5.0625 C-748.375 4.7325 -748.375 4.4025 -748.375 4.0625 C-689.69062542 3.89934043 -631.00623536 3.74231366 -572.32183206 3.58983526 C-565.33469752 3.57167677 -558.34756315 3.55344967 -551.36042893 3.53516477 C-352.18920815 3.01404898 -352.18920815 3.01404898 -267.22430733 3.03081679 C-265.01816824 3.03124874 -262.81202914 3.03162854 -260.60589004 3.03199959 C-233.05517244 3.03684627 -205.5044794 3.05375693 -177.95378399 3.09041595 C-137.62017885 3.1436322 -97.29140748 3.19458333 -56.9609375 2.625 C-56.23465542 2.61507648 -55.50837335 2.60515297 -54.76008272 2.59492874 C-36.59058719 2.34636702 -18.02204692 -0.24354117 0 0 Z " fill="#11401F" transform="translate(1015.375,1222.9375)"/>
<path d="M0 0 C0.66 0 1.32 0 2 0 C2 100.65 2 201.3 2 305 C-1.0396702 300.9471064 -1.37498828 300.47230363 -1.3719368 295.82539082 C-1.37852664 294.77302465 -1.38511649 293.72065848 -1.39190602 292.63640243 C-1.38384962 291.48145142 -1.37579321 290.32650042 -1.36749268 289.1365509 C-1.37076152 287.90877306 -1.37403036 286.68099522 -1.37739825 285.41601199 C-1.38342918 282.00632138 -1.37597215 278.59713882 -1.36285591 275.18749964 C-1.3519696 271.5113007 -1.35836894 267.83512719 -1.36264038 264.15892029 C-1.36827781 256.95743029 -1.35795188 249.75604663 -1.34235242 242.55457477 C-1.32483353 234.17490962 -1.32339361 225.79526525 -1.32273683 217.41558465 C-1.32104825 202.47014864 -1.30522567 187.52476117 -1.28125 172.5793457 C-1.25797901 158.06274004 -1.24382361 143.54616517 -1.24023438 129.02954102 C-1.24001161 128.13505864 -1.23978884 127.24057626 -1.23955932 126.31898836 C-1.23911674 124.51714849 -1.23867471 122.71530863 -1.23823325 120.91346876 C-1.23801369 120.02472675 -1.23779412 119.13598475 -1.2375679 118.22031116 C-1.23724392 116.89065504 -1.23724392 116.89065504 -1.2369134 115.53413718 C-1.23321661 101.7177212 -1.22185775 87.90131021 -1.2094375 74.0848997 C-1.20499627 69.06978317 -1.20156049 64.05466711 -1.19881538 59.03954939 C-1.19439095 51.08785998 -1.18664555 43.13618899 -1.17204097 35.18451122 C-1.16541584 31.54900285 -1.16036514 27.91351081 -1.15958023 24.27799606 C-1.15865371 20.34614648 -1.14999303 16.41433681 -1.14044189 12.48249817 C-1.14130838 11.320855 -1.14217486 10.15921183 -1.1430676 8.96236736 C-1.13922645 7.91782443 -1.13538531 6.8732815 -1.13142776 5.79708576 C-1.13018127 4.88830498 -1.12893477 3.9795242 -1.1276505 3.04320461 C-1 1 -1 1 0 0 Z " fill="#E8F1EB" transform="translate(460,259)"/>
<path d="M0 0 C0.66 0.33 1.32 0.66 2 1 C1.4652002 1.51908936 0.93040039 2.03817871 0.37939453 2.57299805 C-2.04663563 4.93654515 -4.46085349 7.31181865 -6.875 9.6875 C-8.13763672 10.91243164 -8.13763672 10.91243164 -9.42578125 12.16210938 C-10.23144531 12.95810547 -11.03710938 13.75410156 -11.8671875 14.57421875 C-12.61081543 15.30213623 -13.35444336 16.03005371 -14.12060547 16.7800293 C-16.104036 19.12288898 -16.95807837 21.13689711 -18 24 C-21.12174243 28.22353388 -24.60951191 31.46439784 -28.59765625 34.85546875 C-33.61787545 39.33693272 -38.2786393 44.20781889 -43 49 C-43.66 48.01 -44.32 47.02 -45 46 C-44.43079834 45.43603516 -43.86159668 44.87207031 -43.27514648 44.29101562 C-40.65988156 41.69673231 -38.04867381 39.09840077 -35.4375 36.5 C-34.54224609 35.613125 -33.64699219 34.72625 -32.72460938 33.8125 C-28.23594901 29.34028161 -23.90806223 24.81939678 -19.78491211 20.00976562 C-16.22421655 16.00051302 -12.37259687 12.2701845 -8.5625 8.5 C-7.73556641 7.67757813 -6.90863281 6.85515625 -6.05664062 6.0078125 C-4.04005041 4.00287887 -2.02114764 2.00033747 0 0 Z " fill="#115328" transform="translate(810,456)"/>
<path d="M0 0 C3.02601354 3.02601354 3.01373954 6.75859796 3.609375 10.84375 C3.7404364 11.7368689 3.8714978 12.62998779 4.00653076 13.5501709 C5.31662584 23.21278277 5.37354428 32.76728043 5.25 42.5 C5.23804162 44.32860767 5.22698529 46.15722145 5.21679688 47.98583984 C5.11159639 62.66666505 4.70708477 77.33551327 4 92 C3.67 92 3.34 92 3 92 C2.99191315 91.19028244 2.98382629 90.38056488 2.97549438 89.54631042 C2.89678008 81.82612636 2.80927566 74.10611089 2.71247292 66.38613415 C2.66302868 62.41948459 2.61670563 58.45285526 2.578125 54.48608398 C2.43342944 31.39397993 2.43342944 31.39397993 0.41552734 8.4074707 C0.06742385 5.55289932 -0.08512097 2.86885352 0 0 Z " fill="#104724" transform="translate(1223,240)"/>
<path d="M0 0 C15.07136732 6.95601569 28.57262563 17.71863346 40.73046875 28.9140625 C42.8276005 30.84154676 44.96376355 32.70761357 47.125 34.5625 C51.28318371 38.177574 55.15177865 42.05966697 59 46 C58.34 46.66 57.68 47.32 57 48 C51.77654269 43.54644003 46.92592544 39.02290155 42.5078125 33.76171875 C39.35473055 30.05364265 39.35473055 30.05364265 35 28 C34.34 27.01 33.68 26.02 33 25 C32.01 24.67 31.02 24.34 30 24 C28.33333333 22.33333333 26.66666667 20.66666667 25 19 C22.90010348 17.82425289 22.90010348 17.82425289 21 17 C20.34 16.34 19.68 15.68 19 15 C15.3143273 11.95826092 11.72749048 9.12537965 7.25 7.375 C3.97183304 5.98808321 2.21880569 4.75131906 0 2 C0 1.34 0 0.68 0 0 Z " fill="#1B4A27" transform="translate(1099,58)"/>
<path d="M0 0 C-13.22452569 6.75600769 -26.82467872 11.6159362 -41 16 C-41.70745361 16.21930176 -42.41490723 16.43860352 -43.14379883 16.66455078 C-46.88465107 17.78379878 -50.08787668 18.19083528 -54 18 C-50.98832456 14.98832456 -47.54547277 15.16136925 -43.43359375 14.5625 C-42.63050781 14.376875 -41.82742188 14.19125 -41 14 C-40.67 13.34 -40.34 12.68 -40 12 C-38.109375 11.40234375 -38.109375 11.40234375 -35.75 10.9375 C-34.94046875 10.77121094 -34.1309375 10.60492187 -33.296875 10.43359375 C-31.53515064 10.10102334 -29.76844663 9.7947411 -28 9.5 C-27.34 9.335 -26.68 9.17 -26 9 C-25.67 8.34 -25.34 7.68 -25 7 C-22.99609375 6.2890625 -22.99609375 6.2890625 -20.4375 5.625 C-16.22866905 4.44315062 -12.53415259 2.93697572 -8.69140625 0.8671875 C-5.35810418 -0.8418034 -3.51240224 -1.09005587 0 0 Z " fill="#114120" transform="translate(1086,1202)"/>
<path d="M0 0 C0.33 0.66 0.66 1.32 1 2 C0.03567924 3.68756133 -0.9731657 5.3497306 -2 7 C-2.474375 8.175625 -2.94875 9.35125 -3.4375 10.5625 C-4.94514662 13.87932257 -6.18804396 15.73229351 -9 18 C-9.66 18 -10.32 18 -11 18 C-11 18.66 -11 19.32 -11 20 C-16.75 23 -16.75 23 -19 23 C-19 23.66 -19 24.32 -19 25 C-22.47307692 27.10865385 -22.47307692 27.10865385 -25.140625 26.55859375 C-25.75421875 26.37425781 -26.3678125 26.18992187 -27 26 C-25.85724609 25.41605469 -25.85724609 25.41605469 -24.69140625 24.8203125 C-13.52996211 18.77278846 -6.59413155 10.70576651 0 0 Z " fill="#19532B" transform="translate(538,879)"/>
<path d="M0 0 C0.66 0.33 1.32 0.66 2 1 C0.33259058 5.15336529 -2.6631998 8.11130502 -5.6875 11.3125 C-6.4923584 12.17427856 -6.4923584 12.17427856 -7.31347656 13.0534668 C-11.12699453 17.12041476 -15.01241036 21.1030374 -19 25 C-19.66 24.34 -20.32 23.68 -21 23 C-20.34 23 -19.68 23 -19 23 C-18.92523437 22.43796875 -18.85046875 21.8759375 -18.7734375 21.296875 C-17.72178373 18.17378197 -15.95621293 16.55857979 -13.625 14.25 C-12.83351563 13.45078125 -12.04203125 12.6515625 -11.2265625 11.828125 C-9 10 -9 10 -6 10 C-5.62875 9.195625 -5.62875 9.195625 -5.25 8.375 C-3.70303025 5.43575748 -1.86985631 2.74245592 0 0 Z " fill="#1C4E2D" transform="translate(1163,1137)"/>
<path d="M0 0 C0.66 0.33 1.32 0.66 2 1 C1.38511719 1.59167969 0.77023437 2.18335938 0.13671875 2.79296875 C-0.67152344 3.58316406 -1.47976563 4.37335938 -2.3125 5.1875 C-3.11300781 5.96480469 -3.91351562 6.74210937 -4.73828125 7.54296875 C-6.92600034 9.91961004 -8.35962807 12.23430695 -10 15 C-11.4047882 16.63102749 -12.86581444 18.21506042 -14.375 19.75 C-15.12523437 20.52859375 -15.87546875 21.3071875 -16.6484375 22.109375 C-19.18457162 24.14839313 -20.80227089 24.66101812 -24 25 C-19.18132753 19.19108254 -13.98743592 13.86934448 -8.625 8.5625 C-7.79355469 7.73556641 -6.96210937 6.90863281 -6.10546875 6.05664062 C-4.0725896 4.03544469 -2.03740037 2.01663665 0 0 Z " fill="#104921" transform="translate(926,336)"/>
<path d="M0 0 C0 0.99 0 1.98 0 3 C-1.051875 3.556875 -2.10375 4.11375 -3.1875 4.6875 C-6.69182366 6.67891285 -9.18204446 9.10978919 -12 12 C-16.75952211 15.47048487 -21.25864089 17.72414242 -27 19 C-19.38759132 10.99287383 -9.78822996 5.03322419 0 0 Z " fill="#18542A" transform="translate(425,673)"/>
<path d="M0 0 C1.31097656 0.01353516 1.31097656 0.01353516 2.6484375 0.02734375 C3.30070313 0.03894531 3.95296875 0.05054688 4.625 0.0625 C4.625 0.3925 4.625 0.7225 4.625 1.0625 C-11.0550223 3.4852197 -26.46032089 5.82947249 -42.375 5.0625 C-42.375 4.7325 -42.375 4.4025 -42.375 4.0625 C-33.22023245 2.70769963 -24.17556206 1.76464254 -14.93359375 1.30859375 C-11.43389556 1.12411669 -11.43389556 1.12411669 -8.24609375 0.5390625 C-5.43397482 0.07228902 -2.84584247 -0.03845733 0 0 Z " fill="#1F4A2C" transform="translate(1015.375,1222.9375)"/>
<path d="M0 0 C0.66 0.99 1.32 1.98 2 3 C-10.9740991 16.18186937 -10.9740991 16.18186937 -15 19 C-15.99 18.67 -16.98 18.34 -18 18 C-14.65348519 13.7122779 -11.07466717 10.20568225 -6.9375 6.6796875 C-4.49654333 4.56353555 -2.24804455 2.31829594 0 0 Z " fill="#0E4E26" transform="translate(791,750)"/>
<path d="M0 0 C2 1 2 1 2.73022461 2.66723633 C2.95202393 3.38161865 3.17382324 4.09600098 3.40234375 4.83203125 C3.65169678 5.62528809 3.9010498 6.41854492 4.15795898 7.23583984 C4.41520752 8.0861377 4.67245605 8.93643555 4.9375 9.8125 C5.20183838 10.67311035 5.46617676 11.5337207 5.73852539 12.42041016 C11.48040313 31.30300038 11.48040313 31.30300038 10 37 C9.67 37 9.34 37 9 37 C8.79842285 36.17798096 8.5968457 35.35596191 8.38916016 34.5090332 C7.63536821 31.44255909 6.87833659 28.37690785 6.11914062 25.31176758 C5.7920047 23.98819242 5.46613984 22.66430239 5.14160156 21.34008789 C4.67331622 19.43031683 4.19998958 17.52178418 3.7265625 15.61328125 C3.30238037 13.89298706 3.30238037 13.89298706 2.86962891 12.13793945 C2.080045 9.03777592 2.080045 9.03777592 0.89208984 6.33666992 C0 4 0 4 0 0 Z " fill="#204B2D" transform="translate(1212,195)"/>
<path d="M0 0 C0.99 0 1.98 0 3 0 C4.0443955 1.63921195 5.03624852 3.31211349 6 5 C7.49928897 6.67914935 9.05105268 8.31230214 10.640625 9.90625 C11.54683594 10.81503906 12.45304687 11.72382812 13.38671875 12.66015625 C13.85770996 13.12695801 14.32870117 13.59375977 14.81396484 14.07470703 C16.23888228 15.48896545 17.65270277 16.91437574 19.06640625 18.33984375 C23.79439013 23.05445285 28.40152881 27.35016795 34 31 C33.01 31.33 32.02 31.66 31 32 C30.154375 31.21496094 29.30875 30.42992187 28.4375 29.62109375 C27.29186501 28.55968171 26.14601726 27.49849928 25 26.4375 C24.40493652 25.88610352 23.80987305 25.33470703 23.19677734 24.76660156 C20.05537322 21.86487557 16.88749651 19.01602965 13.625 16.25 C10.27096229 13.35687656 7.39358745 10.1824079 4.54296875 6.796875 C3.0324814 4.97551144 3.0324814 4.97551144 1.30078125 3.390625 C0 2 0 2 0 0 Z " fill="#144520" transform="translate(95,1140)"/>
<path d="M0 0 C-1.2680467 3.80414011 -2.57913212 4.09067839 -6 6 C-7.0828125 6.8353125 -7.0828125 6.8353125 -8.1875 7.6875 C-10 9 -10 9 -12 9 C-12.66 10.32 -13.32 11.64 -14 13 C-14.66 13 -15.32 13 -16 13 C-16 13.66 -16 14.32 -16 15 C-18.1171875 16.54296875 -18.1171875 16.54296875 -20.875 18.1875 C-22.23238281 19.01314453 -22.23238281 19.01314453 -23.6171875 19.85546875 C-24.40351562 20.23316406 -25.18984375 20.61085938 -26 21 C-26.66 20.67 -27.32 20.34 -28 20 C-23.33563817 16.19276082 -18.6638577 12.39485711 -13.98339844 8.60742188 C-12.3316577 7.26878807 -10.68474594 5.92419852 -9.0390625 4.578125 C-8.26304687 3.95421875 -7.48703125 3.3303125 -6.6875 2.6875 C-6.03136719 2.15511719 -5.37523437 1.62273438 -4.69921875 1.07421875 C-3 0 -3 0 0 0 Z " fill="#114822" transform="translate(749,890)"/>
<path d="M0 0 C0.66 0.33 1.32 0.66 2 1 C-0.24356298 4.0848991 -2.63107436 6.61519564 -5.53125 9.0625 C-10.59751675 13.44707959 -15.28804211 18.17849492 -20 22.9375 C-20.87011719 23.81212891 -21.74023438 24.68675781 -22.63671875 25.58789062 C-24.76013549 27.72297449 -26.88116378 29.86037205 -29 32 C-29.66 31.67 -30.32 31.34 -31 31 C-20.77 20.77 -10.54 10.54 0 0 Z " fill="#DBE7DE" transform="translate(545,479)"/>
<path d="M0 0 C6.39240262 4.9718687 11.33410046 10.95464621 16.46484375 17.15771484 C19.17117169 20.40548053 21.93126243 23.60709475 24.6875 26.8125 C25.71227239 28.00648226 26.73701497 29.20049011 27.76171875 30.39453125 C28.50035156 31.25433594 29.23898437 32.11414063 30 33 C27 33 27 33 24.8359375 30.98046875 C24.02382813 30.05878906 23.21171875 29.13710938 22.375 28.1875 C21.93623535 27.69266113 21.4974707 27.19782227 21.04541016 26.68798828 C17.30743543 22.43925109 13.7315645 18.06042862 10.18359375 13.65234375 C7.38342058 10.25106005 4.42931402 7.00664845 1.43359375 3.77734375 C0 2 0 2 0 0 Z " fill="#1A4D27" transform="translate(764,925)"/>
<path d="M0 0 C0.33 0 0.66 0 1 0 C1.05483538 2.31222521 1.09316402 4.62484377 1.125 6.9375 C1.14820313 8.22527344 1.17140625 9.51304687 1.1953125 10.83984375 C1.14795372 13.81107722 0.7341187 16.45840684 0.03125 19.34375 C-1.19504016 24.40505316 -1.44221556 29.3721835 -1.625 34.5625 C-1.66367187 35.47580078 -1.70234375 36.38910156 -1.7421875 37.33007812 C-1.83530252 39.55319924 -1.92112166 41.77633613 -2 44 C-2.33 44 -2.66 44 -3 44 C-3.32275808 29.02568018 -3.4673565 14.63306997 0 0 Z " fill="#084319" transform="translate(340,788)"/>
<path d="M0 0 C6.97719813 -0.31905358 13.26160088 0.88324394 20.0625 2.375 C21.63741211 2.70757813 21.63741211 2.70757813 23.24414062 3.046875 C28.56005701 4.18432721 33.79780832 5.42089501 39 7 C38.34 7.66 37.68 8.32 37 9 C34.28515625 8.828125 34.28515625 8.828125 31.0625 8.25 C30.00160156 8.06953125 28.94070313 7.8890625 27.84765625 7.703125 C25 7 25 7 22 5 C19.81579857 4.48692939 19.81579857 4.48692939 17.40234375 4.21875 C16.51869141 4.09886719 15.63503906 3.97898437 14.72460938 3.85546875 C12.86269267 3.61799935 11.00071312 3.38102218 9.13867188 3.14453125 C8.25630859 3.02464844 7.37394531 2.90476562 6.46484375 2.78125 C5.656521 2.67876953 4.84819824 2.57628906 4.01538086 2.47070312 C2 2 2 2 0 0 Z " fill="#154220" transform="translate(1008,28)"/>
<path d="M0 0 C6.87920597 0.66146211 13.31295703 2.25225013 20 4 C20 11.59 20 19.18 20 27 C19.67 27 19.34 27 19 27 C19 19.74 19 12.48 19 5 C18.01 5.33 17.02 5.66 16 6 C12.4375 6.1875 12.4375 6.1875 9 6 C8.34 5.34 7.68 4.68 7 4 C4.68351201 2.96157435 2.35096976 1.9578025 0 1 C0 0.67 0 0.34 0 0 Z " fill="#537F60" transform="translate(449,906)"/>
<path d="M0 0 C0.66 0.33 1.32 0.66 2 1 C1.47043701 1.51908936 0.94087402 2.03817871 0.39526367 2.57299805 C-2.0126192 4.93917912 -4.41259779 7.31322604 -6.8125 9.6875 C-7.64587891 10.50412109 -8.47925781 11.32074219 -9.33789062 12.16210938 C-10.14033203 12.95810547 -10.94277344 13.75410156 -11.76953125 14.57421875 C-12.50792236 15.30213623 -13.24631348 16.03005371 -14.00708008 16.7800293 C-16.04645759 19.05175044 -17.47370339 21.3656115 -19 24 C-19.66 24.66 -20.32 25.32 -21 26 C-22.32 25.67 -23.64 25.34 -25 25 C-16.75 16.75 -8.5 8.5 0 0 Z " fill="#134720" transform="translate(959,302)"/>
<path d="M0 0 C2.97 0 5.94 0 9 0 C6 2 6 2 2 2 C2 9.26 2 16.52 2 24 C1.34 24 0.68 24 0 24 C0 16.08 0 8.16 0 0 Z " fill="#174822" transform="translate(492,910)"/>
<path d="M0 0 C0.66 0.33 1.32 0.66 2 1 C1.43410156 1.55429687 0.86820313 2.10859375 0.28515625 2.6796875 C-0.44832031 3.40414062 -1.18179688 4.12859375 -1.9375 4.875 C-2.66839844 5.59429688 -3.39929688 6.31359375 -4.15234375 7.0546875 C-6.05667999 8.87027192 -6.05667999 8.87027192 -7 11 C-7.70125 11.37125 -8.4025 11.7425 -9.125 12.125 C-11.90954753 13.94100926 -13.36253464 15.51825201 -15.4375 18.0625 C-18.31568211 21.50243257 -20.47323125 23.11672805 -25 24 C-21.77951396 19.87375226 -18.38180331 16.46944946 -14.40234375 13.078125 C-11.38053461 10.46413725 -8.44006365 7.76770522 -5.5 5.0625 C-4.95915771 4.56532471 -4.41831543 4.06814941 -3.86108398 3.5559082 C-2.57335688 2.37136503 -1.28657556 1.18579381 0 0 Z " fill="#174522" transform="translate(897,756)"/>
<path d="M0 0 C3.79319535 1.55932742 6.11373748 3.94246388 8.9375 6.875 C14.57900505 12.9209579 14.57900505 12.9209579 21.625 17 C24.41439633 18.17448267 25.40258514 19.47776601 27 22 C26.67 22.66 26.34 23.32 26 24 C16.62296551 16.67793264 7.5053641 9.28295033 0 0 Z " fill="#164722" transform="translate(384,940)"/>
<path d="M0 0 C1.1055189 0.93590504 2.20935453 1.87379858 3.3125 2.8125 C3.92738281 3.33457031 4.54226563 3.85664062 5.17578125 4.39453125 C6.85526918 5.87262449 8.43190778 7.40555329 10 9 C10.66 9.61875 11.32 10.2375 12 10.875 C14.10185542 13.10822138 15.47508752 15.34797829 17 18 C17.98244845 19.34631825 18.97676564 20.68441297 20 22 C19.67 22.66 19.34 23.32 19 24 C0 3.49269311 0 3.49269311 0 0 Z " fill="#1A4A29" transform="translate(942,866)"/>
<path d="M0 0 C0.33 0 0.66 0 1 0 C1.47545004 9.45617311 0.10435896 17.83100739 -2 27 C-2.33 27 -2.66 27 -3 27 C-3 24.03 -3 21.06 -3 18 C-3.33 18 -3.66 18 -4 18 C-3.41632611 11.69632197 -1.95928381 6.01339937 0 0 Z " fill="#1F6339" transform="translate(343,774)"/>
<path d="M0 0 C0.66 0 1.32 0 2 0 C2.45375 0.969375 2.9075 1.93875 3.375 2.9375 C4.65786221 6.07079582 4.65786221 6.07079582 7 7 C7 7.99 7 8.98 7 10 C7.66 10 8.32 10 9 10 C9.268125 10.969375 9.53625 11.93875 9.8125 12.9375 C10.204375 13.948125 10.59625 14.95875 11 16 C11.99 16.33 12.98 16.66 14 17 C14.6875 19.0625 14.6875 19.0625 15 21 C14.01 21 13.02 21 12 21 C10.55786133 19.28759766 10.55786133 19.28759766 9.08203125 16.9140625 C8.55029297 16.06585937 8.01855469 15.21765625 7.47070312 14.34375 C6.92349609 13.4465625 6.37628906 12.549375 5.8125 11.625 C5.25369141 10.73554687 4.69488281 9.84609375 4.11914062 8.9296875 C0 2.29077953 0 2.29077953 0 0 Z " fill="#1A4E29" transform="translate(66,1100)"/>
<path d="M0 0 C0.99 0.33 1.98 0.66 3 1 C2.34 1 1.68 1 1 1 C0.74734375 1.58652344 0.4946875 2.17304687 0.234375 2.77734375 C-2.96419647 8.53679681 -9.05328749 12.47264718 -15 15 C-13.38959316 10.58980087 -10.05016131 8.11866017 -6.5625 5.1875 C-5.97662109 4.67251953 -5.39074219 4.15753906 -4.78710938 3.62695312 C-3.06640625 2.16796875 -3.06640625 2.16796875 0 0 Z " fill="#145127" transform="translate(777,864)"/>
<path d="M0 0 C4.61827322 1.44853588 7.67747442 4.10801815 11.125 7.375 C11.91197266 8.09816406 11.91197266 8.09816406 12.71484375 8.8359375 C15.44438292 11.37890058 17.8852464 13.9226689 20 17 C17 17 17 17 14.73828125 15.1015625 C13.93777344 14.28429687 13.13726563 13.46703125 12.3125 12.625 C11.50425781 11.81289063 10.69601562 11.00078125 9.86328125 10.1640625 C8 8 8 8 8 6 C5.525 5.01 5.525 5.01 3 4 C3 3.34 3 2.68 3 2 C2.01 1.67 1.02 1.34 0 1 C0 0.67 0 0.34 0 0 Z " fill="#1D562B" transform="translate(546,679)"/>
<path d="M0 0 C0.66 0.33 1.32 0.66 2 1 C-5.26 8.26 -12.52 15.52 -20 23 C-20.66 22.01 -21.32 21.02 -22 20 C-21.26177002 19.5877417 -20.52354004 19.1754834 -19.76293945 18.75073242 C-17.05254365 17.03329421 -15.03846459 15.26805947 -12.79296875 12.98828125 C-12.04208984 12.23095703 -11.29121094 11.47363281 -10.51757812 10.69335938 C-9.74865234 9.90767578 -8.97972656 9.12199219 -8.1875 8.3125 C-7.00510742 7.11657227 -7.00510742 7.11657227 -5.79882812 5.89648438 C-3.86127415 3.9354449 -1.92855724 1.96988119 0 0 Z " fill="#0C6C37" transform="translate(117,90)"/>
<path d="M0 0 C-0.41314562 4.44926052 -3.50461527 6.84100104 -6.5625 9.75 C-7.08263672 10.25660156 -7.60277344 10.76320313 -8.13867188 11.28515625 C-9.41910084 12.53034405 -10.70867554 13.76611502 -12 15 C-12.66 14.01 -13.32 13.02 -14 12 C-13.01 12 -12.02 12 -11 12 C-11 11.01 -11 10.02 -11 9 C-10.34 9 -9.68 9 -9 9 C-8.773125 8.443125 -8.54625 7.88625 -8.3125 7.3125 C-6.49644015 4.11277551 -3.9498923 0 0 0 Z " fill="#14602B" transform="translate(548,474)"/>
<path d="M0 0 C1.485 0.99 1.485 0.99 3 2 C3 2.66 3 3.32 3 4 C3.99 3.67 4.98 3.34 6 3 C6.268125 3.78375 6.53625 4.5675 6.8125 5.375 C7.84814432 8.28114923 7.84814432 8.28114923 11 10 C13.15021764 13.18232211 14.66489503 16.40548663 16 20 C12.66075225 16.76846992 9.46864052 13.41066799 6.3125 10 C5.54550781 9.175 4.77851562 8.35 3.98828125 7.5 C2.03677649 5.04624155 0.98719537 2.95630699 0 0 Z " fill="#184525" transform="translate(1011,945)"/>
<path d="M0 0 C5.96260189 4.82082706 10.96679794 10.22494276 16 16 C15.34 16.66 14.68 17.32 14 18 C12.03269409 15.94545882 10.0763118 13.88214078 8.125 11.8125 C7.29162109 10.9452832 7.29162109 10.9452832 6.44140625 10.06054688 C3.46163725 6.8833233 1.27051461 4.26989404 0 0 Z " fill="#1B4929" transform="translate(917,838)"/>
<path d="M0 0 C5.96260189 4.82082706 10.96679794 10.22494276 16 16 C15.34 16.66 14.68 17.32 14 18 C12.03269409 15.94545882 10.0763118 13.88214078 8.125 11.8125 C7.29162109 10.9452832 7.29162109 10.9452832 6.44140625 10.06054688 C3.46163725 6.8833233 1.27051461 4.26989404 0 0 Z " fill="#194827" transform="translate(900,819)"/>
<path d="M0 0 C0.99 0.33 1.98 0.66 3 1 C1.52278578 4.45201639 -0.43794001 6.64961936 -3.125 9.25 C-3.84945312 9.95640625 -4.57390625 10.6628125 -5.3203125 11.390625 C-5.87460937 11.92171875 -6.42890625 12.4528125 -7 13 C-7.66 11.68 -8.32 10.36 -9 9 C-8.01 8.34 -7.02 7.68 -6 7 C-5.34 7.33 -4.68 7.66 -4 8 C-4.33 7.01 -4.66 6.02 -5 5 C-4.34 4.34 -3.68 3.68 -3 3 C-2.01 3 -1.02 3 0 3 C0 2.01 0 1.02 0 0 Z " fill="#1F5530" transform="translate(937,650)"/>
<path d="M0 0 C-2.74356126 1.36878548 -5.49355105 2.72013177 -8.25 4.0625 C-9.02730469 4.45244141 -9.80460937 4.84238281 -10.60546875 5.24414062 C-11.35957031 5.60830078 -12.11367187 5.97246094 -12.890625 6.34765625 C-13.92751465 6.85824585 -13.92751465 6.85824585 -14.98535156 7.37915039 C-17.37757053 8.11635505 -18.66570847 7.80784795 -21 7 C-18.730384 5.85170023 -16.45939222 4.70628022 -14.1875 3.5625 C-13.54490234 3.23701172 -12.90230469 2.91152344 -12.24023438 2.57617188 C-4.39844952 -1.36503606 -4.39844952 -1.36503606 0 0 Z " fill="#1D482A" transform="translate(1086,1202)"/>
<path d="M0 0 C0.66 0.33 1.32 0.66 2 1 C-0.15422147 3.36964362 -2.15961028 4.57980514 -5 6 C-5.43957031 6.50144531 -5.87914062 7.00289062 -6.33203125 7.51953125 C-8.47016534 9.41731303 -9.86734567 9.48314099 -12.6875 9.6875 C-13.49574219 9.75324219 -14.30398438 9.81898438 -15.13671875 9.88671875 C-15.75160156 9.92410156 -16.36648438 9.96148438 -17 10 C-13.66248862 7.33656727 -10.11898148 5.29524496 -6.375 3.25 C-5.22773437 2.61578125 -4.08046875 1.9815625 -2.8984375 1.328125 C-1.46371094 0.67070313 -1.46371094 0.67070313 0 0 Z " fill="#2B5833" transform="translate(654,954)"/>
<path d="M0 0 C0.33 0.66 0.66 1.32 1 2 C-0.95711553 6.13168834 -3.46887513 8.20794778 -7 11 C-9.08115555 13.26767421 -11.05229485 15.61724044 -13 18 C-13.66 17.34 -14.32 16.68 -15 16 C-14.16855469 15.18015625 -13.33710937 14.3603125 -12.48046875 13.515625 C-11.38267895 12.42721802 -10.28503011 11.33866885 -9.1875 10.25 C-8.64029297 9.71117187 -8.09308594 9.17234375 -7.52929688 8.6171875 C-4.77802637 5.88259137 -2.21577882 3.20316096 0 0 Z " fill="#EAF0EB" transform="translate(1161,1143)"/>
<path d="M0 0 C0.66 0.33 1.32 0.66 2 1 C0.75 3.5 0.75 3.5 -1 6 C-2.32 6 -3.64 6 -5 6 C-5.433125 6.928125 -5.433125 6.928125 -5.875 7.875 C-7 10 -7 10 -9 12 C-11.125 11.625 -11.125 11.625 -13 11 C-12.22914063 10.37351562 -11.45828125 9.74703125 -10.6640625 9.1015625 C-9.15972656 7.87566406 -9.15972656 7.87566406 -7.625 6.625 C-6.62726562 5.81289063 -5.62953125 5.00078125 -4.6015625 4.1640625 C-2.03639494 2.09734084 -2.03639494 2.09734084 0 0 Z " fill="#104E25" transform="translate(807,838)"/>
<path d="M0 0 C0.99 0.66 1.98 1.32 3 2 C1.71034824 3.37562854 0.37310707 4.70766393 -1 6 C-1.66 6 -2.32 6 -3 6 C-3.268125 6.61875 -3.53625 7.2375 -3.8125 7.875 C-5 10 -5 10 -8 12 C-6.64994369 6.32976351 -4.1842771 3.82042691 0 0 Z M-11 13 C-10.01 13.495 -10.01 13.495 -9 14 C-9.99 14.495 -9.99 14.495 -11 15 C-11 14.34 -11 13.68 -11 13 Z " fill="#F4F7F5" transform="translate(552,472)"/>
<path d="M0 0 C1.7074998 1.28062485 3.37373596 2.61767557 5 4 C5 4.66 5 5.32 5 6 C5.61875 6.268125 6.2375 6.53625 6.875 6.8125 C9 8 9 8 11 11 C10.01 11.33 9.02 11.66 8 12 C7.7525 11.38125 7.505 10.7625 7.25 10.125 C5.77120461 7.61104784 4.62078835 7.1465949 2 6 C1.34 5.34 0.68 4.68 0 4 C0 2.68 0 1.36 0 0 Z " fill="#DBE1DD" transform="translate(100,1147)"/>
<path d="M0 0 C3.58304256 2.68728192 6.28669253 5.44463159 9 9 C9.66 9.66 10.32 10.32 11 11 C13.15795055 14.35681196 13.17892795 17.06358515 13 21 C12.67 21 12.34 21 12 21 C11.66355469 19.46279297 11.66355469 19.46279297 11.3203125 17.89453125 C10.10299435 13.63177078 7.82075394 10.91792765 4.875 7.6875 C0 2.22830579 0 2.22830579 0 0 Z " fill="#113B1E" transform="translate(1029,966)"/>
<path d="M0 0 C2.99201451 2.9013474 5.75390648 5.87200548 8.4375 9.0625 C11.35230033 12.44392407 14.15738996 14.75066729 18 17 C17.01 17.33 16.02 17.66 15 18 C8.89981775 14.20727799 3.88484284 7.96080573 0 2 C0 1.34 0 0.68 0 0 Z " fill="#194E26" transform="translate(425,884)"/>
<path d="M0 0 C3.78133733 1.53320739 5.89443552 3.83223272 8.5625 6.875 C9.32691406 7.73867187 10.09132813 8.60234375 10.87890625 9.4921875 C11.92884766 10.73355469 11.92884766 10.73355469 13 12 C13.91072266 13.05574219 13.91072266 13.05574219 14.83984375 14.1328125 C15.22269531 14.74898437 15.60554688 15.36515625 16 16 C15.67 16.99 15.34 17.98 15 19 C14.38125 18.18208984 14.38125 18.18208984 13.75 17.34765625 C9.86868424 12.27942027 5.8132439 7.46001611 1.50390625 2.75 C0 1 0 1 0 0 Z " fill="#194121" transform="translate(1158,107)"/>
<path d="M0 0 C1.8984375 0.23046875 1.8984375 0.23046875 4 1 C4.9765625 2.92578125 4.9765625 2.92578125 5.625 5.3125 C6.49660388 8.41438441 7.47641896 11.15467985 9 14 C8.01 14.495 8.01 14.495 7 15 C5.82823482 12.87767021 4.66245215 10.75242209 3.5 8.625 C3.16613281 8.02171875 2.83226562 7.4184375 2.48828125 6.796875 C0 2.2265625 0 2.2265625 0 0 Z " fill="#1C522D" transform="translate(57,1084)"/>
<path d="M0 0 C0.99 0.33 1.98 0.66 3 1 C1.625 2.5 1.625 2.5 0 4 C-0.66 4 -1.32 4 -2 4 C-2 4.66 -2 5.32 -2 6 C-3.609375 7.65625 -3.609375 7.65625 -5.75 9.5 C-6.44609375 10.1084375 -7.1421875 10.716875 -7.859375 11.34375 C-9.84460792 12.87976963 -11.71872045 13.9723966 -14 15 C-9.59156563 9.70987876 -4.92440206 4.81191572 0 0 Z " fill="#F2F8F4" transform="translate(511,514)"/>
<path d="M0 0 C1.21225993 4.84903972 -0.07101541 6.6944426 -2.4375 10.75 C-2.77587891 11.35199219 -3.11425781 11.95398437 -3.46289062 12.57421875 C-4.29768265 14.05568065 -5.14741494 15.52870608 -6 17 C-7.15941038 13.52176885 -6.70820884 11.54104422 -6 8 C-5.34 8 -4.68 8 -4 8 C-2.68 5.36 -1.36 2.72 0 0 Z " fill="#11401F" transform="translate(1203,1076)"/>
<path d="M0 0 C0.66 0.33 1.32 0.66 2 1 C-6.261959 8.48291572 -6.261959 8.48291572 -11 11 C-9.40128806 6.84334895 -6.38692539 3.8008925 -3 1 C-2.01 0.67 -1.02 0.34 0 0 Z " fill="#0F4B25" transform="translate(917,739)"/>
<path d="M0 0 C3.91121498 0.68936071 7.55508596 1.78250181 11.3125 3.0625 C12.38113281 3.42472656 13.44976563 3.78695312 14.55078125 4.16015625 C15.76314453 4.57587891 15.76314453 4.57587891 17 5 C14.10765685 5.82638376 12.11257569 6 9 6 C9 5.34 9 4.68 9 4 C8.071875 4.0825 7.14375 4.165 6.1875 4.25 C3 4 3 4 1.125 2 C0.75375 1.34 0.3825 0.68 0 0 Z " fill="#0E431E" transform="translate(825,984)"/>
<path d="M0 0 C3.7132971 1.2377657 4.62780182 2.74391789 7 5.8125 C7.680625 6.68519531 8.36125 7.55789063 9.0625 8.45703125 C10.71855722 10.63060636 12.36618753 12.80967016 14 15 C13.01 15 12.02 15 11 15 C8.80859375 12.734375 8.80859375 12.734375 6.4375 9.75 C5.65246094 8.77546875 4.86742187 7.8009375 4.05859375 6.796875 C2.40768883 4.55389982 1.11628162 2.53426097 0 0 Z " fill="#1B4425" transform="translate(995,927)"/>
<path d="M0 0 C0.66 0.33 1.32 0.66 2 1 C0.52296046 4.85205198 -1.48702291 6.25475324 -5 8.3125 C-5.886875 8.84488281 -6.77375 9.37726562 -7.6875 9.92578125 C-8.450625 10.28027344 -9.21375 10.63476562 -10 11 C-10.66 10.67 -11.32 10.34 -12 10 C-8.04 6.7 -4.08 3.4 0 0 Z " fill="#1E4F29" transform="translate(733,900)"/>
<path d="M0 0 C3.12395702 2.55596484 4.03166757 5.12667029 5 9 C5.07522969 11.33212027 5.09325876 13.6685311 5 16 C4.34 16.33 3.68 16.66 3 17 C0.88838269 5.47835991 0.88838269 5.47835991 0 0 Z " fill="#27532F" transform="translate(507,846)"/>
<path d="M0 0 C0.99 0.33 1.98 0.66 3 1 C2.09515208 2.15518918 1.1755794 3.29885406 0.25 4.4375 C-0.26046875 5.07558594 -0.7709375 5.71367188 -1.296875 6.37109375 C-3.19667629 8.18810554 -4.43586908 8.60423197 -7 9 C-5.44499019 5.18315774 -2.96404505 2.80804268 0 0 Z " fill="#E3EAE3" transform="translate(392,693)"/>
<path d="M0 0 C2.59265642 2.59265642 3.75389925 5.56253897 5.1875 8.875 C5.47302734 9.50019531 5.75855469 10.12539062 6.05273438 10.76953125 C7.60241158 14.33642818 8.17869826 16.31134409 7 20 C5.82421696 17.42047597 4.659209 14.83696062 3.5 12.25 C2.99919922 11.15558594 2.99919922 11.15558594 2.48828125 10.0390625 C2.17246094 9.33007812 1.85664062 8.62109375 1.53125 7.890625 C1.23798828 7.24125977 0.94472656 6.59189453 0.64257812 5.92285156 C0 4 0 4 0 0 Z " fill="#1E4C29" transform="translate(49,1064)"/>
<path d="M0 0 C3.94139078 1.66751148 6.7892812 4.22710649 10 7 C9.67 7.99 9.34 8.98 9 10 C7.86800647 9.0919838 6.74467637 8.17316174 5.625 7.25 C4.99851562 6.73953125 4.37203125 6.2290625 3.7265625 5.703125 C1.91687682 3.91800519 0.99882545 2.32050356 0 0 Z " fill="#1D5E33" transform="translate(706,608)"/>
<path d="M0 0 C0.66 0.33 1.32 0.66 2 1 C1.401875 1.721875 0.80375 2.44375 0.1875 3.1875 C-2.02474039 5.90897537 -2.02474039 5.90897537 -3.625 8.75 C-5 11 -5 11 -7 12 C-7.66 11.34 -8.32 10.68 -9 10 C-6.03 6.7 -3.06 3.4 0 0 Z " fill="#195D2E" transform="translate(93,113)"/>
<path d="M0 0 C0.66 0 1.32 0 2 0 C2 0.99 2 1.98 2 3 C1.01 3 0.02 3 -1 3 C-1.061875 3.598125 -1.12375 4.19625 -1.1875 4.8125 C-2.33554682 7.90339529 -4.10547052 8.5880344 -7 10 C-7.66 10 -8.32 10 -9 10 C-9 9.34 -9 8.68 -9 8 C-7.28515625 6.30859375 -7.28515625 6.30859375 -5.0625 4.4375 C-3.96615234 3.50744141 -3.96615234 3.50744141 -2.84765625 2.55859375 C-2.23792969 2.04425781 -1.62820313 1.52992188 -1 1 C-0.67 0.67 -0.34 0.34 0 0 Z " fill="#174E28" transform="translate(714,820)"/>
<path d="M0 0 C0.66 0.33 1.32 0.66 2 1 C1.51789062 1.47050781 1.03578125 1.94101562 0.5390625 2.42578125 C-0.09257813 3.04839844 -0.72421875 3.67101562 -1.375 4.3125 C-2.00148438 4.92738281 -2.62796875 5.54226563 -3.2734375 6.17578125 C-5.18086607 8.08812528 -5.18086607 8.08812528 -7 11 C-9.625 11.6875 -9.625 11.6875 -12 12 C-8.57833482 7.29521038 -4.42094803 3.72346836 0 0 Z " fill="#184921" transform="translate(761,778)"/>
<path d="M0 0 C3.68000434 2.75839204 6.49505889 5.62075382 9.3125 9.25 C10.00988281 10.14203125 10.70726562 11.0340625 11.42578125 11.953125 C11.94527344 12.62859375 12.46476563 13.3040625 13 14 C12.01 14 11.02 14 10 14 C8.1380628 12.08235129 6.47754723 10.20096474 4.8125 8.125 C4.34908203 7.56941406 3.88566406 7.01382813 3.40820312 6.44140625 C0 2.27526694 0 2.27526694 0 0 Z " fill="#1A4C26" transform="translate(997,677)"/>
<path d="M0 0 C2.50356732 3.75535098 1.9608592 4.86889414 1.125 9.1875 C0.92132812 10.27417969 0.71765625 11.36085938 0.5078125 12.48046875 C0.34023437 13.31191406 0.17265625 14.14335938 0 15 C-0.66 15 -1.32 15 -2 15 C-1.03644647 4.44191344 -1.03644647 4.44191344 0 0 Z " fill="#356242" transform="translate(1041,643)"/>
<path d="M0 0 C3.99996286 1.33332095 4.83782337 3.4957827 7 7 C6.34 8.32 5.68 9.64 5 11 C2.36620292 7.34666857 0.53115106 4.51478398 0 0 Z " fill="#17492B" transform="translate(1184,140)"/>
<path d="M0 0 C0.144375 0.61875 0.28875 1.2375 0.4375 1.875 C0.93152225 4.03258322 0.93152225 4.03258322 2 6 C0.58566794 6.2236337 -0.83167618 6.42826476 -2.25 6.625 C-3.03890625 6.74101563 -3.8278125 6.85703125 -4.640625 6.9765625 C-7.32152459 7.00319395 -8.72694089 6.36592084 -11 5 C-7.12315913 3.80712589 -4.08378077 3 0 3 C0 2.01 0 1.02 0 0 Z " fill="#1E6D3E" transform="translate(466,725)"/>
<path d="M0 0 C-1.5830577 4.2742558 -4.50568404 6.26531794 -8 9 C-8.33 8.34 -8.66 7.68 -9 7 C-8.34 7 -7.68 7 -7 7 C-6.896875 6.401875 -6.79375 5.80375 -6.6875 5.1875 C-5.47470998 1.32862265 -4.05869208 0 0 0 Z " fill="#1C4E2F" transform="translate(1151,1153)"/>
<path d="M0 0 C0.92232422 0.52013672 0.92232422 0.52013672 1.86328125 1.05078125 C-4.49024551 3.08436938 -9.56378419 4.65749859 -16.13671875 3.05078125 C-16.13671875 2.72078125 -16.13671875 2.39078125 -16.13671875 2.05078125 C-15.24919922 1.97730469 -15.24919922 1.97730469 -14.34375 1.90234375 C-9.21076656 1.42211069 -9.21076656 1.42211069 -4.32421875 -0.13671875 C-2.13671875 -0.94921875 -2.13671875 -0.94921875 0 0 Z " fill="#215432" transform="translate(506.13671875,982.94921875)"/>
<path d="M0 0 C3.78239671 0.65690619 7.21841526 1.720131 10.8125 3.0625 C11.78832031 3.42472656 12.76414062 3.78695312 13.76953125 4.16015625 C14.50558594 4.43730469 15.24164063 4.71445312 16 5 C16 5.33 16 5.66 16 6 C9.79011871 5.55643705 5.39459439 4.08467498 0 1 C0 0.67 0 0.34 0 0 Z " fill="#20522E" transform="translate(460,795)"/>
<path d="M0 0 C0.66 0.33 1.32 0.66 2 1 C1.06027344 1.90492188 1.06027344 1.90492188 0.1015625 2.828125 C-0.71570313 3.62734375 -1.53296875 4.4265625 -2.375 5.25 C-3.18710937 6.03890625 -3.99921875 6.8278125 -4.8359375 7.640625 C-6.75583143 9.73379455 -7.91633685 11.40397179 -9 14 C-9.66 13.01 -10.32 12.02 -11 11 C-7.37 7.37 -3.74 3.74 0 0 Z " fill="#174C23" transform="translate(713,557)"/>
<path d="M0 0 C3.45201639 1.47721422 5.64961936 3.43794001 8.25 6.125 C8.95640625 6.84945312 9.6628125 7.57390625 10.390625 8.3203125 C11.18726563 9.15175781 11.18726563 9.15175781 12 10 C11.34 10.66 10.68 11.32 10 12 C8.33032474 10.19019128 6.66417692 8.3773524 5 6.5625 C4.28457031 5.7880957 4.28457031 5.7880957 3.5546875 4.99804688 C0 1.11328125 0 1.11328125 0 0 Z " fill="#194928" transform="translate(879,797)"/>
<path d="M0 0 C3.39815137 1.13271712 4.28644916 2.1909314 6.5625 4.875 C7.16191406 5.57367187 7.76132812 6.27234375 8.37890625 6.9921875 C10 9 10 9 12 12 C9 12 9 12 7.24609375 10.390625 C6.64925781 9.68421875 6.05242188 8.9778125 5.4375 8.25 C4.83808594 7.55390625 4.23867188 6.8578125 3.62109375 6.140625 C2.11754827 4.15522037 1.02421999 2.2624561 0 0 Z " fill="#1D552C" transform="translate(573,705)"/>
<path d="M0 0 C0.66 0.33 1.32 0.66 2 1 C0.50902342 4.7952131 -1.75700849 6.61042731 -5 9 C-5.33 8.01 -5.66 7.02 -6 6 C-5.34 6 -4.68 6 -4 6 C-3.71125 5.38125 -3.4225 4.7625 -3.125 4.125 C-2 2 -2 2 0 0 Z " fill="#DFE5DE" transform="translate(957,300)"/>
<path d="M0 0 C-2.95183101 2.95183101 -5.95511947 3.08663988 -10 4 C-10.33 3.01 -10.66 2.02 -11 1 C-6.87831311 -0.62950412 -4.29299643 -1.26264601 0 0 Z " fill="#115328" transform="translate(610,978)"/>
<path d="M0 0 C0.66 0 1.32 0 2 0 C1.93983797 1.7717719 1.85100672 3.54258679 1.75 5.3125 C1.70359375 6.29863281 1.6571875 7.28476562 1.609375 8.30078125 C1 11 1 11 -3 14 C-2.01 9.38 -1.02 4.76 0 0 Z " fill="#124322" transform="translate(1032,691)"/>
<path d="M0 0 C0.66 0.99 1.32 1.98 2 3 C0.625 4.5 0.625 4.5 -1 6 C-1.66 6 -2.32 6 -3 6 C-3 6.66 -3 7.32 -3 8 C-4.32 7.67 -5.64 7.34 -7 7 C-4.69 4.69 -2.38 2.38 0 0 Z " fill="#245935" transform="translate(933,328)"/>
<path d="M0 0 C0.99 0.33 1.98 0.66 3 1 C2.07038578 2.15224028 1.1309875 3.29659176 0.1875 4.4375 C-0.59560547 5.39462891 -0.59560547 5.39462891 -1.39453125 6.37109375 C-3 8 -3 8 -6 9 C-5.52797514 4.75177626 -3.03344482 2.80010291 0 0 Z " fill="#F5F8F6" transform="translate(964,292)"/>
<path d="M0 0 C2 2 2 2 2.375 5.4375 C2 9 2 9 0 10.9375 C-0.66 11.288125 -1.32 11.63875 -2 12 C-1 3.42857143 -1 3.42857143 0 0 Z " fill="#18532A" transform="translate(541,866)"/>
<path d="M0 0 C1.485 0.99 1.485 0.99 3 2 C3 2.66 3 3.32 3 4 C3.598125 4.226875 4.19625 4.45375 4.8125 4.6875 C7.56351888 6.33811133 8.52484637 8.1972081 10 11 C9.01 11.495 9.01 11.495 8 12 C6.66081194 10.37982158 5.3288031 8.75370657 4 7.125 C3.2575 6.22007812 2.515 5.31515625 1.75 4.3828125 C0 2 0 2 0 0 Z " fill="#1D552D" transform="translate(804,716)"/>
<path d="M0 0 C0.66 0.33 1.32 0.66 2 1 C1.38511719 1.68835938 1.38511719 1.68835938 0.7578125 2.390625 C0.21898437 3.00421875 -0.31984375 3.6178125 -0.875 4.25 C-1.40867187 4.85328125 -1.94234375 5.4565625 -2.4921875 6.078125 C-3.9797487 7.97418746 -5.00322436 9.81290005 -6 12 C-6.66 11.01 -7.32 10.02 -8 9 C-5.36 6.03 -2.72 3.06 0 0 Z " fill="#1B5129" transform="translate(380,709)"/>
<path d="M0 0 C2.73902249 2.36551942 3.93170092 4.54857221 5 8 C5.125 10.8125 5.125 10.8125 5 13 C1.55834073 8.77614544 0 5.49939416 0 0 Z " fill="#174425" transform="translate(1206,180)"/>
<path d="M0 0 C1.21386936 3.64160808 0.6674695 4.33165469 -0.9375 7.6875 C-1.31777344 8.49574219 -1.69804688 9.30398438 -2.08984375 10.13671875 C-2.39019531 10.75160156 -2.69054688 11.36648438 -3 12 C-4.25360525 8.23918426 -3.83902226 5.84551868 -3 2 C-2.01 1.34 -1.02 0.68 0 0 Z " fill="#0E3E1E" transform="translate(1212,1055)"/>
<path d="M0 0 C0.99 0.33 1.98 0.66 3 1 C1.35 2.98 -0.3 4.96 -2 7 C-2.99 6.67 -3.98 6.34 -5 6 C-3.35 4.02 -1.7 2.04 0 0 Z " fill="#1C5830" transform="translate(778,762)"/>
<path d="M0 0 C0.66 0 1.32 0 2 0 C1.34 2.64 0.68 5.28 0 8 C-1.32 8.33 -2.64 8.66 -4 9 C-1.125 2.25 -1.125 2.25 0 0 Z " fill="#15552B" transform="translate(357,741)"/>
<path d="M0 0 C1.45606519 4.52092968 0.27032841 7.51648796 -1 12 C-1.99 12 -2.98 12 -4 12 C-3.33501617 7.61110675 -1.81242323 4.0188515 0 0 Z " fill="#1F6233" transform="translate(52,176)"/>
<path d="M0 0 C0.99 0.33 1.98 0.66 3 1 C0.0094833 4.33557632 -2.93184627 6.15083921 -7 8 C-5.51218185 4.21282653 -3.38011591 2.22592999 0 0 Z " fill="#124721" transform="translate(769,871)"/>
<path d="M0 0 C0.66 0.33 1.32 0.66 2 1 C2 1.66 2 2.32 2 3 C-1.465 4.485 -1.465 4.485 -5 6 C-5.66 5.34 -6.32 4.68 -7 4 C-1.7265625 0.77734375 -1.7265625 0.77734375 0 0 Z " fill="#165F30" transform="translate(770,257)"/>
<path d="M0 0 C4.04648443 1.34882814 4.95502599 3.34826069 7 7 C6.67 7.99 6.34 8.98 6 10 C2.46413986 6.82679218 0.41421969 4.83256305 0 0 Z " fill="#154724" transform="translate(1175,127)"/>
<path d="M0 0 C0.33 0.99 0.66 1.98 1 3 C0.34 3 -0.32 3 -1 3 C-1 3.66 -1 4.32 -1 5 C-4.465 6.485 -4.465 6.485 -8 8 C-6.88333826 4.65001479 -6.25305075 4.20659778 -3.4375 2.3125 C-2.79683594 1.87550781 -2.15617188 1.43851563 -1.49609375 0.98828125 C-1.00238281 0.66214844 -0.50867188 0.33601562 0 0 Z " fill="#174F27" transform="translate(714,915)"/>
<path d="M0 0 C1.98 0.495 1.98 0.495 4 1 C3.60196439 3.88575819 3.20990931 4.82189513 0.9375 6.75 C0.298125 7.1625 -0.34125 7.575 -1 8 C-0.835 7.030625 -0.67 6.06125 -0.5 5.0625 C-0.14007707 3.04016429 -0.14007707 3.04016429 0 1 C0 0.67 0 0.34 0 0 Z " fill="#255C38" transform="translate(954,631)"/>
<path d="M0 0 C-0.33 0.99 -0.66 1.98 -1 3 C-7.625 4.25 -7.625 4.25 -11 2 C-7.12315913 0.80712589 -4.08378077 0 0 0 Z " fill="#D2DCD6" transform="translate(1031,563)"/>
<path d="M0 0 C1.625 2 1.625 2 3 4 C0.36 4 -2.28 4 -5 4 C-5 3.01 -5 2.02 -5 1 C-2 0 -2 0 0 0 Z " fill="#D8E4D9" transform="translate(495,987)"/>
<path d="M0 0 C0.66 0.33 1.32 0.66 2 1 C0.71937515 2.7074998 -0.61767557 4.37373596 -2 6 C-2.66 6 -3.32 6 -4 6 C-4.33 6.66 -4.66 7.32 -5 8 C-5 6.68 -5 5.36 -5 4 C-2.5 1.75 -2.5 1.75 0 0 Z " fill="#D9E4DB" transform="translate(760,906)"/>
<path d="M0 0 C0.99 0.33 1.98 0.66 3 1 C1.35 2.98 -0.3 4.96 -2 7 C-2.66 6.01 -3.32 5.02 -4 4 C-2.68 2.68 -1.36 1.36 0 0 Z " fill="#E1E6E0" transform="translate(893,756)"/>
<path d="M0 0 C4.28359673 1.8855148 6.15103592 4.35965701 9 8 C8.01 8 7.02 8 6 8 C4.39453125 6.25 4.39453125 6.25 2.8125 4 C2.28269531 3.2575 1.75289062 2.515 1.20703125 1.75 C0.80871094 1.1725 0.41039062 0.595 0 0 Z " fill="#1E522D" transform="translate(728,632)"/>
<path d="M0 0 C2.375 0.1875 2.375 0.1875 5 1 C6.92164209 4.05715786 7.03249175 5.7129895 6.625 9.3125 C6.41875 10.199375 6.2125 11.08625 6 12 C5.67 12 5.34 12 5 12 C4.9175 10.7625 4.835 9.525 4.75 8.25 C4.36524541 5.01117036 4.09975997 4.12092117 1.9375 1.5 C1.298125 1.005 0.65875 0.51 0 0 Z " fill="#275434" transform="translate(1052,558)"/>
<path d="M0 0 C-1.09445838 0.86657116 -2.20097781 1.71792724 -3.3125 2.5625 C-3.92738281 3.03816406 -4.54226563 3.51382812 -5.17578125 4.00390625 C-5.77777344 4.33261719 -6.37976562 4.66132812 -7 5 C-7.99 4.67 -8.98 4.34 -10 4 C-7.99220736 -0.01558529 -4.07814299 -1.359381 0 0 Z " fill="#1F4E2A" transform="translate(1125,1178)"/>
<path d="M0 0 C0 0.66 0 1.32 0 2 C-3.78187881 3.83691257 -5.94568308 4.15837626 -10 3 C-9.67 2.34 -9.34 1.68 -9 1 C-5.93090555 0.33280556 -3.14213983 0 0 0 Z " fill="#154B23" transform="translate(573,987)"/>
<path d="M0 0 C-0.33 0.99 -0.66 1.98 -1 3 C-3.31 3.33 -5.62 3.66 -8 4 C-8 3.34 -8 2.68 -8 2 C-5.09399739 0.74335022 -3.20395416 0 0 0 Z " fill="#D9E3DC" transform="translate(529,977)"/>
<path d="M0 0 C0 0.66 0 1.32 0 2 C-2.8125 3.5625 -2.8125 3.5625 -6 5 C-6.99 4.67 -7.98 4.34 -9 4 C-3.375 0 -3.375 0 0 0 Z " fill="#1A532A" transform="translate(705,924)"/>
<path d="M0 0 C0.99 0.33 1.98 0.66 3 1 C1.25 3.0625 1.25 3.0625 -1 5 C-3.25 4.75 -3.25 4.75 -5 4 C-2.6875 1.9375 -2.6875 1.9375 0 0 Z " fill="#174E27" transform="translate(462,761)"/>
<path d="M0 0 C2.31 1.98 4.62 3.96 7 6 C6.67 6.99 6.34 7.98 6 9 C4.99406757 7.8803014 3.9954151 6.7540588 3 5.625 C2.443125 4.99851562 1.88625 4.37203125 1.3125 3.7265625 C0 2 0 2 0 0 Z " fill="#1E522D" transform="translate(739,643)"/>
<path d="M0 0 C5.01113235 1.4317521 6.94469549 3.98445693 10 8 C6.05205855 6.32971708 3.18203882 3.8204435 0 1 C0 0.67 0 0.34 0 0 Z " fill="#164A21" transform="translate(924,606)"/>
<path d="M0 0 C0.66 0 1.32 0 2 0 C2.33 1.32 2.66 2.64 3 4 C1.35 5.32 -0.3 6.64 -2 8 C-2.20086443 4.28400809 -2.1519437 3.22791555 0 0 Z " fill="#215F37" transform="translate(464,556)"/>
<path d="M0 0 C0.99 0.33 1.98 0.66 3 1 C1.35 2.98 -0.3 4.96 -2 7 C-2.66 6.67 -3.32 6.34 -4 6 C-4 5.34 -4 4.68 -4 4 C-3.34 4 -2.68 4 -2 4 C-2 3.34 -2 2.68 -2 2 C-1.34 2 -0.68 2 0 2 C0 1.34 0 0.68 0 0 Z " fill="#13592B" transform="translate(495,526)"/>
<path d="M0 0 C0.721875 0.144375 1.44375 0.28875 2.1875 0.4375 C3.5796875 0.7159375 3.5796875 0.7159375 5 1 C6.66666667 1.33333333 8.33333333 1.66666667 10 2 C9.67 2.99 9.34 3.98 9 5 C5.54074837 3.7508258 2.85306797 2.32472205 0 0 Z " fill="#245534" transform="translate(163,1196)"/>
<path d="M0 0 C3.39914975 1.13304992 4.05254451 2.12518475 6 5 C5.67 5.66 5.34 6.32 5 7 C2.69 5.35 0.38 3.7 -2 2 C-1.34 1.34 -0.68 0.68 0 0 Z " fill="#1A522D" transform="translate(405,957)"/>
<path d="M0 0 C1.258125 0.12375 2.51625 0.2475 3.8125 0.375 C4.87404297 0.47941406 4.87404297 0.47941406 5.95703125 0.5859375 C8 1 8 1 11 3 C8.83032311 3.95465783 7.43671207 4.14401212 5.17578125 3.3984375 C3.4315257 2.64129615 1.71372869 1.82390802 0 1 C0 0.67 0 0.34 0 0 Z " fill="#366843" transform="translate(449,906)"/>
<path d="M0 0 C0.66 0.33 1.32 0.66 2 1 C1.67 2.98 1.34 4.96 1 7 C0.01 6.67 -0.98 6.34 -2 6 C-1.34 4.02 -0.68 2.04 0 0 Z " fill="#105328" transform="translate(346,767)"/>
<path d="M0 0 C0.66 0.99 1.32 1.98 2 3 C0.35 4.65 -1.3 6.3 -3 8 C-3.66 7.67 -4.32 7.34 -5 7 C-1.125 1.125 -1.125 1.125 0 0 Z " fill="#17562F" transform="translate(956,700)"/>
<path d="M0 0 C2.31 1.98 4.62 3.96 7 6 C6.67 6.99 6.34 7.98 6 9 C4.99406757 7.8803014 3.9954151 6.7540588 3 5.625 C2.443125 4.99851562 1.88625 4.37203125 1.3125 3.7265625 C0 2 0 2 0 0 Z " fill="#1E4F2C" transform="translate(788,698)"/>
<path d="M0 0 C0.66 0.99 1.32 1.98 2 3 C0.75 4.5625 0.75 4.5625 -1 6 C-3.1875 5.6875 -3.1875 5.6875 -5 5 C-3.35 3.35 -1.7 1.7 0 0 Z " fill="#246039" transform="translate(815,450)"/>
<path d="M0 0 C2 3 2 3 1.8125 5.125 C1.544375 5.74375 1.27625 6.3625 1 7 C0.01 7.33 -0.98 7.66 -2 8 C-1.125 2.25 -1.125 2.25 0 0 Z " fill="#226D3D" transform="translate(47,188)"/>
<path d="M0 0 C1.32 0.66 2.64 1.32 4 2 C2.35 3.32 0.7 4.64 -1 6 C-1.66 5.67 -2.32 5.34 -3 5 C-2.01 3.35 -1.02 1.7 0 0 Z " fill="#124723" transform="translate(1129,1169)"/>
<path d="M0 0 C0.33 0.99 0.66 1.98 1 3 C-0.8125 4.5625 -0.8125 4.5625 -3 6 C-3.99 5.67 -4.98 5.34 -6 5 C-4.02 3.35 -2.04 1.7 0 0 Z " fill="#E2E8E3" transform="translate(1145,1160)"/>
<path d="M0 0 C0.33 1.32 0.66 2.64 1 4 C-0.65 5.32 -2.3 6.64 -4 8 C-4.66 7.67 -5.32 7.34 -6 7 C-4.02 4.69 -2.04 2.38 0 0 Z " fill="#DEE6E0" transform="translate(1168,1135)"/>
<path d="M0 0 C0.66 0.33 1.32 0.66 2 1 C0.70700306 3.88437779 -0.65941363 5.87219421 -3 8 C-3.66 7.67 -4.32 7.34 -5 7 C-4.54625 6.401875 -4.0925 5.80375 -3.625 5.1875 C-2.36704087 3.49409348 -1.17015276 1.75522914 0 0 Z " fill="#0B431D" transform="translate(1163,1137)"/>
<path d="M0 0 C4 4.625 4 4.625 4 8 C2.35 6.68 0.7 5.36 -1 4 C-0.67 2.68 -0.34 1.36 0 0 Z " fill="#2A5A38" transform="translate(686,585)"/>
<path d="M0 0 C0.99 0 1.98 0 3 0 C1.60667426 3.36720387 0.0210714 4.9859524 -3 7 C-3 5.68 -3 4.36 -3 3 C-2.01 3 -1.02 3 0 3 C0 2.01 0 1.02 0 0 Z " fill="#1C5E2F" transform="translate(501,520)"/>
<path d="M0 0 C-0.33 1.32 -0.66 2.64 -1 4 C-4.75 5.125 -4.75 5.125 -7 4 C-2.25 0 -2.25 0 0 0 Z " fill="#1F6635" transform="translate(132,77)"/>
<path d="M0 0 C2.475 0.495 2.475 0.495 5 1 C5 1.66 5 2.32 5 3 C5.66 3.33 6.32 3.66 7 4 C6.01 4.495 6.01 4.495 5 5 C2.375 3.6875 2.375 3.6875 0 2 C0 1.34 0 0.68 0 0 Z " fill="#144C27" transform="translate(142,1182)"/>
<path d="M0 0 C0.66 0.33 1.32 0.66 2 1 C0.515 4.96 0.515 4.96 -1 9 C-1.66 8.67 -2.32 8.34 -3 8 C-1.125 2.25 -1.125 2.25 0 0 Z " fill="#E5EBE8" transform="translate(1205,1076)"/>
<path d="M0 0 C3.91402949 1.26941497 5.79072873 2.51167694 8 6 C5.6875 5.8125 5.6875 5.8125 3 5 C1.1875 2.4375 1.1875 2.4375 0 0 Z " fill="#114420" transform="translate(803,970)"/>
<path d="M0 0 C-0.33 0.99 -0.66 1.98 -1 3 C-2.875 3.8125 -2.875 3.8125 -5 4 C-5.99 3.34 -6.98 2.68 -8 2 C-2.25 0 -2.25 0 0 0 Z " fill="#D5DFD6" transform="translate(557,966)"/>
<path d="M0 0 C0.66 0.33 1.32 0.66 2 1 C0.35 2.98 -1.3 4.96 -3 7 C-3.66 6.34 -4.32 5.68 -5 5 C-3.35 3.35 -1.7 1.7 0 0 Z " fill="#E4EDE5" transform="translate(786,799)"/>
<path d="M0 0 C0.33 0 0.66 0 1 0 C1.22162329 1.62324086 1.42689803 3.248721 1.625 4.875 C1.74101562 5.77992188 1.85703125 6.68484375 1.9765625 7.6171875 C1.98429687 8.40351562 1.99203125 9.18984375 2 10 C1.34 10.66 0.68 11.32 0 12 C-0.92844389 7.66726186 -0.92844389 4.33273814 0 0 Z " fill="#E7EDEA" transform="translate(451,776)"/>
<path d="M0 0 C3.3 0.33 6.6 0.66 10 1 C10 1.33 10 1.66 10 2 C6.7 2.33 3.4 2.66 0 3 C0 2.01 0 1.02 0 0 Z " fill="#4E8660" transform="translate(495,658)"/>
<path d="M0 0 C1.1875 1.5 1.1875 1.5 2 4 C1.27101296 6.78824238 0.1843275 9.37665092 -1 12 C-2.45606519 7.47907032 -1.27032841 4.48351204 0 0 Z " fill="#083B18" transform="translate(1044,634)"/>
<path d="M0 0 C0 3.10551666 -0.5393715 4.35261084 -2 7 C-2.99 7 -3.98 7 -5 7 C-3.70700306 4.11562221 -2.34058637 2.12780579 0 0 Z " fill="#255933" transform="translate(901,361)"/>
<path d="M0 0 C0 0.99 0 1.98 0 3 C-1.33333333 4.33333333 -2.66666667 5.66666667 -4 7 C-4.66 6.34 -5.32 5.68 -6 5 C-2.25 1.125 -2.25 1.125 0 0 Z " fill="#206B3A" transform="translate(75,139)"/>
<path d="M0 0 C2 1 2 1 3 3 C1.35 3.66 -0.3 4.32 -2 5 C-2.66 4.34 -3.32 3.68 -4 3 C-2.68 2.01 -1.36 1.02 0 0 Z " fill="#226D3C" transform="translate(148,64)"/>
</svg>
