<?xml version="1.0" encoding="UTF-8"?>
<svg version="1.1" xmlns="http://www.w3.org/2000/svg" width="1200" height="1200" viewBox="0 -262.5 1200 1200">
<rect x="0" y="-262.5" width="1200" height="1200" fill="#ffffff"/>
<path d="M0 0 C2.33384091 4.04137373 4.66708989 8.08308891 7 12.125 C7.34557953 12.72367889 7.69115906 13.32235779 8.04721069 13.93917847 C11.81757442 20.47164099 15.58285762 27.00666899 19.3125 33.5625 C22.45151721 39.06754304 25.65443319 44.53263184 28.87280273 49.99145508 C39.57475202 68.14715818 50.12507175 86.38654392 60.53955078 104.70849609 C65.83437102 114.02213633 71.14601093 123.31307425 76.70776367 132.47021484 C79.59201209 137.24885898 82.3091424 142.11029494 85 147 C87.96937282 152.39376641 90.99010473 157.73803923 94.1875 163 C98.96516351 170.86533547 103.54412047 178.84243852 108.1328125 186.8190918 C112.45699353 194.33311005 116.81033585 201.82923634 121.1875 209.3125 C125.99558004 217.53626582 130.74887503 225.78894584 135.46166992 234.06762695 C139.26426705 240.73742635 143.12359268 247.37286695 147 254 C151.87088859 262.32730517 156.68833344 270.68244672 161.4609375 279.06640625 C165.84804643 286.76125603 170.31400584 294.40896475 174.78686523 302.05419922 C178.58598728 308.55516347 182.34065204 315.07953227 186.0625 321.625 C190.11580637 328.75209173 194.24798014 335.82716863 198.4375 342.875 C203.5217355 351.43018933 208.45491467 360.06173406 213.33129883 368.73681641 C217.31974825 375.82349576 221.40626747 382.84524585 225.546875 389.84375 C231.66298568 400.18499994 237.64212333 410.60714526 243.58642578 421.04785156 C247.49167717 427.90651902 251.40919306 434.75002874 255.5 441.5 C261.71221997 451.75433081 267.57543011 462.21154478 273.49707031 472.63525391 C279.0643784 482.43040883 284.68157911 492.18925774 290.4375 501.875 C295.52380085 510.43394305 300.45847737 519.06952084 305.33789062 527.74780273 C309.26010296 534.71542086 313.2713241 541.62333239 317.34375 548.50390625 C330.34360648 570.46866376 343.10965562 592.57830812 355.72216797 614.76757812 C356.55032924 616.21440783 357.38737879 617.65620037 358.23486328 619.09179688 C361 623.79459193 361 623.79459193 361 626 C361.66 626 362.32 626 363 626 C363 626.66 363 627.32 363 628 C269.61 628 176.22 628 80 628 C76.7 622.06 73.4 616.12 70 610 C67.04610285 605.19902091 67.04610285 605.19902091 64.06640625 600.4140625 C61.57346316 596.29528696 59.25275252 592.09542182 56.9375 587.875 C53.67912639 581.93569389 50.27578432 576.16964705 46.57421875 570.4921875 C44.40614785 567.05985689 42.50148453 563.50740232 40.5859375 559.9296875 C38.50737794 556.08998389 36.33347285 552.30768416 34.15893555 548.52172852 C32.06488304 544.87192652 29.99437144 541.21025204 27.94287109 537.53637695 C23.73926905 530.01237137 19.41969039 522.56108465 15.0625 515.125 C10.39456281 507.15858748 5.79827046 499.16219762 1.37133789 491.05908203 C-1.11837937 486.51681175 -3.73800316 482.06783005 -6.41552734 477.63378906 C-9.17253365 473.0509564 -11.86691297 468.43164445 -14.5625 463.8125 C-15.16384766 462.78237793 -15.76519531 461.75225586 -16.38476562 460.69091797 C-21.18373998 452.44816551 -25.89894554 444.16013725 -30.56079102 435.83911133 C-32.96227463 431.56126123 -35.39634364 427.31379295 -37.9375 423.1171875 C-42.07153221 416.2742338 -45.90914417 409.26627961 -49.7890625 402.27734375 C-52.93265759 396.63410587 -56.13980799 391.04629327 -59.48535156 385.52050781 C-62.34631442 380.75961475 -65.10399691 375.93861341 -67.875 371.125 C-68.51848389 370.00875244 -69.16196777 368.89250488 -69.82495117 367.74243164 C-75.02071763 358.7242635 -80.17900228 349.68484097 -85.33535767 340.644104 C-90.81039965 331.04781982 -96.36857455 321.50509677 -102 312 C-106.44939583 304.46868321 -110.77000742 296.87151961 -115.0625 289.25 C-120.23734114 280.06428198 -125.51055067 270.940614 -130.83813477 261.84277344 C-134.5982156 255.41719337 -138.31751092 248.97033438 -142 242.5 C-146.36845562 234.82564639 -150.79364053 227.18614035 -155.25 219.5625 C-161.24912994 209.29703568 -167.18455349 199.0003579 -173.01953125 188.640625 C-178.35576452 179.170701 -183.70939216 169.71830174 -189.25244141 160.36767578 C-193.14958134 153.78187262 -196.93913539 147.13587542 -200.71508789 140.47998047 C-201.18551514 139.65256348 -201.65594238 138.82514648 -202.140625 137.97265625 C-202.60275391 137.15812988 -203.06488281 136.34360352 -203.54101562 135.50439453 C-205.56921786 132.02291888 -207.72146028 128.62020172 -209.88964844 125.22436523 C-211 123 -211 123 -211 119 C-210.27111572 118.59797363 -209.54223145 118.19594727 -208.79125977 117.78173828 C-190.75497265 107.83593699 -190.75497265 107.83593699 -172.94165039 97.49853516 C-168.0120396 94.57011378 -163.02216687 91.76634344 -158 89 C-151.34974238 85.33652223 -144.78434371 81.55224894 -138.25390625 77.6796875 C-133.53744407 74.88831192 -128.78572772 72.17070685 -124 69.5 C-118.45584324 66.40541213 -112.96382801 63.2342778 -107.5 60 C-101.47234146 56.43397707 -95.40603791 52.95022306 -89.29418945 49.53076172 C-76.18522935 42.19331243 -63.16990609 34.69011464 -50.17578125 27.15161133 C-40.07806244 21.29808995 -29.93499919 15.5237404 -19.79541016 9.74316406 C-18.46416135 8.98416581 -17.13301823 8.22498213 -15.80200195 7.46557617 C-14.13913911 6.51688149 -12.47583942 5.56895261 -10.8125 4.62109375 C-8.95479241 3.55033174 -7.12007422 2.43853573 -5.3125 1.28515625 C-3 0 -3 0 0 0 Z " fill="#000000" transform="translate(769,22)"/>
<path d="M0 0 C0.6290625 1.14855469 1.258125 2.29710937 1.90625 3.48046875 C5.80726555 10.57099388 9.70283047 17.64037897 14 24.5 C17.59676876 30.24905207 20.88573224 36.1336678 24.15283203 42.07299805 C26.9813824 47.20169418 29.88826744 52.27440082 32.875 57.3125 C36.5600128 63.52923967 40.17572964 69.7814266 43.75 76.0625 C48.11888313 83.73670433 52.54102732 91.37779834 57 99 C61.87093534 107.32727763 66.68833373 115.68244722 71.4609375 124.06640625 C75.26384049 130.73657737 79.12335296 137.37245714 83 144 C87.87088859 152.32730517 92.68833344 160.68244672 97.4609375 169.06640625 C101.26384049 175.73657737 105.12335296 182.37245714 109 189 C113.87088859 197.32730517 118.68833344 205.68244672 123.4609375 214.06640625 C127.84593192 221.75754726 132.30987763 229.40148446 136.78027344 237.04321289 C141.14984545 244.52088153 145.45737066 252.03212228 149.7421875 259.55859375 C152.78619119 264.89780878 155.87141342 270.20994694 159 275.5 C165.30470824 286.16434692 171.41227696 296.940958 177.54101562 307.70703125 C183.39950705 317.99475062 189.29857189 328.25388086 195.31640625 338.44921875 C203.81001272 352.84107371 212.1983597 367.28477034 220.35522461 381.87036133 C224.08300083 388.49411504 228.00005324 394.96709564 232.19433594 401.30664062 C233.18680229 402.83541893 234.10264327 404.41352483 235 406 C234.67 406.66 234.34 407.32 234 408 C198.5688402 408.54992997 163.13843133 408.9725242 127.70387893 409.22556791 C123.51595789 409.25558309 119.32804524 409.28664699 115.14013672 409.31835938 C114.30643693 409.32465483 113.47273714 409.33095028 112.61377372 409.3374365 C99.13274722 409.44173302 85.65418925 409.63087545 72.1746249 409.85166711 C58.33205969 410.07650501 44.49078243 410.20949063 30.64646637 410.25812387 C22.10930475 410.2909825 13.5791188 410.39450401 5.04410709 410.58999521 C-0.81753432 410.71737329 -6.67559905 410.75510038 -12.53852226 410.72403306 C-15.92180443 410.70870502 -19.28326804 410.74443694 -22.666008 410.8609314 C-39.20529986 411.40238187 -39.20529986 411.40238187 -46 408 C-52.08969925 402.09346558 -55.53818556 394.48798378 -58.80430388 386.77123737 C-60.29066703 383.32632771 -62.06546416 380.21089802 -64 377 C-64.60070312 375.94425781 -65.20140625 374.88851563 -65.8203125 373.80078125 C-72.47002369 362.16540854 -79.27001481 350.61313282 -86.08666992 339.07495117 C-90.03688834 332.38845319 -93.89382323 325.65932655 -97.67700195 318.87695312 C-100.20322756 314.3665913 -102.82074026 309.92095263 -105.5 305.5 C-108.97117121 299.77234201 -112.2908299 293.97462297 -115.55249023 288.12548828 C-118.73186837 282.43882928 -122.02350188 276.82309355 -125.33959961 271.21533203 C-127.93023526 266.83040593 -130.48241455 262.42730319 -133 258 C-135.95455118 252.80570841 -138.96213102 247.64596594 -142 242.5 C-145.70224195 236.22862651 -149.33678486 229.92403952 -152.9375 223.59375 C-155.25382221 219.54018613 -157.62675171 215.5204138 -160 211.5 C-164.00246275 204.71590875 -167.94095114 197.8984141 -171.83398438 191.05078125 C-174.26108713 186.78200755 -176.69249039 182.51569439 -179.125 178.25 C-179.61597168 177.38665039 -180.10694336 176.52330078 -180.61279297 175.63378906 C-183.03145788 171.39282017 -185.48214387 167.17668442 -188.00390625 162.99609375 C-191.02685457 157.98302144 -193.9264078 152.90523824 -196.8125 147.8125 C-201.75043095 139.13082385 -206.8095388 130.53280364 -212 122 C-208.83359273 118.47216659 -205.31361681 116.28764659 -201.1875 114.0625 C-199.74968874 113.27009576 -198.31220865 112.47709043 -196.875 111.68359375 C-195.70517578 111.04139893 -195.70517578 111.04139893 -194.51171875 110.38623047 C-189.88483578 107.83263001 -185.28738092 105.22682917 -180.6875 102.625 C-179.70217285 102.068125 -178.7168457 101.51125 -177.70166016 100.9375 C-166.57053516 94.6384488 -155.50848 88.22325712 -144.46875 81.765625 C-133.0885277 75.11088639 -121.6780286 68.51377129 -110.22354126 61.98791504 C-100.85821733 56.65122299 -91.53644133 51.24316254 -82.234375 45.796875 C-76.24072304 42.29252204 -70.21802531 38.85047286 -64.15332031 35.47094727 C-56.99860582 31.4686756 -49.93762919 27.30581337 -42.86352539 23.16333008 C-36.46307951 19.42072658 -30.03449393 15.73926913 -23.55200195 12.14086914 C-20.26117563 10.30490701 -17.01317837 8.41716701 -13.796875 6.453125 C-13.10795166 6.03264893 -12.41902832 5.61217285 -11.70922852 5.17895508 C-10.39596546 4.37253766 -9.08631748 3.56019234 -7.78100586 2.7409668 C-3.32624327 0 -3.32624327 0 0 0 Z " fill="#000000" transform="translate(529,242)"/>
<path d="M0 0 C0.2902002 0.51046875 0.58040039 1.0209375 0.87939453 1.546875 C6.78014628 11.9185898 12.72215658 22.26407402 18.75 32.5625 C23.9252333 41.40905881 29.04482674 50.28613258 34.125 59.1875 C34.63294601 60.07736099 34.63294601 60.07736099 35.15115356 60.98519897 C38.51336757 66.87658584 41.87022496 72.77100954 45.22265625 78.66796875 C50.22000114 87.44923793 55.27683157 96.18856659 60.4375 104.875 C66.58200745 115.22011951 72.50682525 125.68139956 78.40478516 136.16845703 C84.38465045 146.78285521 90.3786212 157.38943718 96.6875 167.8125 C99.88857789 173.10336295 103.00938571 178.43475281 106.0625 183.8125 C106.45719482 184.50126221 106.85188965 185.19002441 107.25854492 185.8996582 C110 190.76372835 110 190.76372835 110 193 C17.27 193 -75.46 193 -171 193 C-175 186 -175 186 -175 184 C-175.66 184 -176.32 184 -177 184 C-177.36061523 183.33500488 -177.72123047 182.67000977 -178.09277344 181.98486328 C-181.75496844 175.24882978 -185.47570269 168.54881065 -189.25 161.875 C-190.09208008 160.38492432 -190.09208008 160.38492432 -190.95117188 158.86474609 C-194.41445202 152.75290181 -197.92582345 146.67260536 -201.5 140.625 C-201.90621582 139.93623779 -202.31243164 139.24747559 -202.73095703 138.5378418 C-204.39196656 135.72190615 -206.05508661 132.90739965 -207.7265625 130.09765625 C-208.41878906 128.90462891 -208.41878906 128.90462891 -209.125 127.6875 C-209.49882812 127.05199219 -209.87265625 126.41648437 -210.2578125 125.76171875 C-211 124 -211 124 -211 120 C-209.92363281 119.443125 -208.84726563 118.88625 -207.73828125 118.3125 C-199.84758324 114.20086844 -192.14795509 109.94989717 -184.609375 105.21484375 C-180.1423263 102.44020783 -175.56954739 99.85105005 -171 97.25 C-170.10748535 96.74194824 -169.2149707 96.23389648 -168.29541016 95.71044922 C-165.53105949 94.13891119 -162.76561193 92.5693172 -160 91 C-156.37351039 88.94010765 -152.74839896 86.8778242 -149.125 84.8125 C-147.79903809 84.05670654 -147.79903809 84.05670654 -146.44628906 83.28564453 C-141.50748958 80.46149376 -136.60953219 77.58309576 -131.75 74.625 C-124.06836822 69.95280119 -116.20381595 65.61250626 -108.34985352 61.23852539 C-100.20648904 56.69609819 -92.14830937 52.02909211 -84.13476562 47.26245117 C-80.48080763 45.10158466 -76.81076 42.96832118 -73.14282227 40.83129883 C-70.1172439 39.06831714 -67.09349147 37.30224859 -64.0703125 35.53515625 C-51.51058112 28.19710847 -38.93490736 20.89633158 -26.25390625 13.76953125 C-25.22467041 13.19017822 -24.19543457 12.6108252 -23.13500977 12.01391602 C-21.0885517 10.86247458 -19.04091392 9.71312664 -16.99194336 8.56616211 C-11.12881456 5.27640045 -11.12881456 5.27640045 -5.5 1.609375 C-3 0 -3 0 0 0 Z " fill="#000000" transform="translate(283,457)"/>
</svg>
