<?xml version="1.0" standalone="no"?>
<!DOCTYPE svg PUBLIC "-//W3C//DTD SVG 20010904//EN"
 "http://www.w3.org/TR/2001/REC-SVG-20010904/DTD/svg10.dtd">
<svg version="1.0" xmlns="http://www.w3.org/2000/svg"
 width="1000.000000pt" height="460.000000pt" viewBox="0 0 1000.000000 460.000000"
 preserveAspectRatio="xMidYMid meet">

<g transform="translate(0.000000,460.000000) scale(0.100000,-0.100000)"
fill="#000000" stroke="none">
<path d="M0 2300 l0 -2300 5000 0 5000 0 0 2300 0 2300 -5000 0 -5000 0 0
-2300z m8902 1104 c37 -3 70 -9 73 -14 6 -10 -83 -411 -94 -423 -4 -4 -27 0
-52 8 -189 67 -343 -17 -314 -172 7 -41 37 -72 139 -147 209 -153 251 -386
119 -655 -50 -101 -169 -222 -268 -273 -152 -78 -326 -108 -512 -88 -59 6
-109 13 -111 15 -3 3 64 373 75 409 5 17 13 18 84 13 205 -14 329 38 300 126
-11 34 -71 96 -173 181 -32 26 -70 68 -87 92 l-29 44 -27 -88 c-119 -385 -409
-688 -776 -812 -158 -54 -427 -84 -530 -60 -159 36 -313 158 -384 302 l-38 78
-38 -78 c-89 -181 -241 -308 -427 -356 -33 -9 -247 -32 -474 -51 -227 -20
-451 -40 -498 -45 -47 -5 -101 -10 -120 -10 l-36 0 -28 318 c-16 174 -32 320
-36 325 -5 5 -320 -352 -400 -454 -15 -19 -23 -8 -139 196 -68 118 -127 215
-130 215 -3 0 -70 -145 -149 -323 -79 -177 -149 -333 -157 -347 l-13 -25 -724
-66 c-397 -36 -724 -65 -725 -64 -2 1 13 80 32 175 19 95 35 176 35 178 0 3
-23 -28 -51 -69 -132 -193 -295 -296 -502 -319 -178 -20 -690 -61 -695 -56 -3
3 71 369 165 813 l170 807 209 23 c289 31 501 34 573 9 69 -24 132 -85 155
-152 69 -199 -14 -408 -198 -501 l-39 -20 48 -12 c116 -29 177 -86 210 -194
10 -35 18 -6 119 455 60 271 112 497 116 502 6 6 1059 97 1067 91 6 -4 -79
-410 -87 -415 -5 -3 -150 -18 -322 -34 -172 -16 -316 -32 -321 -36 -8 -7 -50
-191 -44 -197 3 -2 119 7 258 21 140 13 256 23 258 21 2 -2 -14 -86 -35 -187
l-39 -183 -253 -16 c-140 -9 -257 -20 -261 -25 -10 -11 -45 -193 -39 -199 8
-9 629 42 639 52 5 5 131 283 280 619 149 335 272 610 274 612 1 1 83 -141
181 -317 99 -176 182 -320 185 -321 3 0 143 167 310 371 l303 372 96 -607 c52
-333 97 -606 100 -606 3 0 62 273 132 607 70 333 130 608 132 611 11 10 460
52 586 54 199 3 278 -31 338 -146 25 -47 27 -60 27 -166 0 -106 -2 -119 -28
-173 -35 -71 -109 -146 -176 -180 l-50 -25 46 -11 c66 -17 115 -45 150 -85
l31 -34 32 101 c127 404 399 698 767 830 281 101 502 93 701 -25 77 -46 172
-141 213 -215 l34 -61 45 86 c77 146 224 284 374 351 95 42 263 73 351 64 17
-1 60 -5 97 -9z m-1102 -2076 c0 -41 -55 -278 -64 -278 -6 0 -397 -30 -869
-66 -472 -36 -861 -64 -864 -61 -3 3 7 64 22 136 l28 130 46 5 c41 6 239 23
1266 111 160 14 299 27 310 29 54 9 125 5 125 -6z"/>
<path d="M7196 2835 c-228 -58 -405 -252 -454 -497 -14 -70 -14 -83 1 -143 9
-36 29 -83 44 -105 33 -46 103 -95 156 -109 50 -13 179 1 263 29 171 57 323
222 378 409 24 83 21 195 -8 256 -64 135 -219 200 -380 160z"/>
<path d="M5715 2738 c-11 -30 -55 -251 -51 -255 9 -9 167 20 197 36 44 24 69
74 69 138 0 80 -18 93 -125 93 -59 0 -87 -4 -90 -12z"/>
<path d="M1768 2403 c-43 -3 -58 -8 -62 -21 -11 -39 -49 -243 -45 -246 10 -9
183 24 206 39 31 21 62 89 63 138 0 47 -44 98 -82 95 -13 -1 -49 -3 -80 -5z"/>
<path d="M5650 2121 l-65 -6 -27 -125 c-39 -179 -42 -168 45 -158 92 9 150 32
181 69 49 58 58 161 18 201 -22 22 -64 28 -152 19z"/>
<path d="M1633 1773 c-29 -2 -53 -5 -53 -6 0 -1 -13 -65 -30 -142 -16 -77 -30
-142 -30 -144 0 -2 35 -1 78 3 152 13 222 74 222 195 0 42 -5 57 -25 76 -25
26 -32 27 -162 18z"/>
</g>
</svg>
