<?xml version="1.0" encoding="UTF-8"?>
<svg version="1.1" xmlns="http://www.w3.org/2000/svg" width="900" height="900">
<path d="M0 0 C297 0 594 0 900 0 C900 297 900 594 900 900 C603 900 306 900 0 900 C0 603 0 306 0 0 Z " fill="#1200CF" transform="translate(0,0)"/>
<path d="M0 0 C0.74667938 -0.00701431 1.49335876 -0.01402863 2.26266479 -0.02125549 C4.67647348 -0.03873645 7.09003648 -0.04511299 9.50390625 -0.046875 C10.3290976 -0.04754974 11.15428894 -0.04822449 12.00448608 -0.04891968 C43.00969909 -0.00870734 72.58202138 3.78850203 95.94921875 25.9921875 C111.61730994 42.50340467 113.96185274 62.16224311 113.45703125 84.015625 C112.918705 96.8945694 110.5997388 108.56570937 105.06640625 120.203125 C104.53660156 121.36457031 104.00679687 122.52601563 103.4609375 123.72265625 C99.53912179 131.88584303 95.15791355 139.42926963 89.06640625 146.203125 C88.40640625 146.203125 87.74640625 146.203125 87.06640625 146.203125 C86.67775391 147.09064453 86.67775391 147.09064453 86.28125 147.99609375 C80.75987184 158.02689329 67.11623165 163.90396384 57.06640625 168.203125 C57.7305957 168.40357422 58.39478516 168.60402344 59.07910156 168.81054688 C83.92955434 176.41307874 83.92955434 176.41307874 93.06640625 184.203125 C93.80503906 184.82832031 94.54367187 185.45351563 95.3046875 186.09765625 C108.3364606 198.14775153 113.47150879 214.17380909 114.20507812 231.47338867 C114.66619467 247.81703188 114.20958269 263.32220187 110.06640625 279.203125 C109.80085938 280.2859375 109.5353125 281.36875 109.26171875 282.484375 C105.24781598 296.39923792 97.04502389 309.9706911 88.06640625 321.203125 C87.45539063 322.00363281 86.844375 322.80414062 86.21484375 323.62890625 C80.59733891 330.87618102 74.3649439 337.55000301 68.06640625 344.203125 C67.49535156 344.82316406 66.92429687 345.44320313 66.3359375 346.08203125 C65.06640625 347.203125 65.06640625 347.203125 63.06640625 347.203125 C63.06640625 347.863125 63.06640625 348.523125 63.06640625 349.203125 C61.02135471 351.00010816 58.97264042 352.67346424 56.81640625 354.328125 C56.18250977 354.81949951 55.54861328 355.31087402 54.89550781 355.81713867 C49.1375874 360.23485347 43.19773645 364.31937511 37.06640625 368.203125 C36.27234375 368.71230469 35.47828125 369.22148438 34.66015625 369.74609375 C15.88731085 381.41654598 -4.45814849 389.22641159 -25.93359375 394.203125 C-26.92504395 394.43491455 -26.92504395 394.43491455 -27.93652344 394.67138672 C-34.75318888 396.23244174 -41.57142742 397.36597801 -48.51953125 398.12890625 C-49.65369728 398.2539856 -49.65369728 398.2539856 -50.81077576 398.3815918 C-64.18198484 399.80655551 -77.59924878 400.78578667 -91.00177002 401.86456299 C-109.33144354 403.2653023 -109.33144354 403.2653023 -127.60546875 405.23046875 C-139.40123144 406.70188903 -151.2674743 407.41819202 -163.12109375 408.265625 C-165.52671772 408.44041128 -167.93231688 408.61553949 -170.33789062 408.79101562 C-176.86945448 409.266465 -183.40143175 409.73597374 -189.93359375 410.203125 C-191.53076196 410.31754219 -193.12792996 410.43196238 -194.72509766 410.54638672 C-197.7945516 410.7659366 -200.86403776 410.98500729 -203.93359375 411.203125 C-203.51159714 402.27066065 -201.6740569 393.80905943 -199.6678772 385.13143921 C-198.73944909 381.11433076 -197.83400454 377.09202795 -196.92578125 373.0703125 C-196.74841934 372.28768539 -196.57105743 371.50505829 -196.38832092 370.69871521 C-195.08838742 364.94553051 -193.87052105 359.18087739 -192.74609375 353.390625 C-190.64860353 342.62350853 -188.28825921 331.9164917 -185.93359375 321.203125 C-185.11898958 317.49524917 -184.30621213 313.78698362 -183.49609375 310.078125 C-183.29395264 309.15306152 -183.09181152 308.22799805 -182.88354492 307.27490234 C-180.86859256 297.9996749 -178.96019436 288.70258899 -177.07641602 279.39990234 C-175.98662253 274.06696567 -174.85075891 268.76744184 -173.4921875 263.49609375 C-171.61161906 256.12647933 -170.13402099 248.67963054 -168.63015747 241.22607422 C-167.76033861 236.91520168 -166.88244855 232.60597699 -166.00390625 228.296875 C-165.82906204 227.43876221 -165.65421783 226.58064941 -165.47407532 225.6965332 C-163.63845371 216.71351977 -161.71252924 207.75080203 -159.7487793 198.79492188 C-158.84939438 194.66114273 -157.98673953 190.5817402 -157.3984375 186.390625 C-156.93359375 183.203125 -156.93359375 183.203125 -156.01733398 180.07421875 C-154.76822059 175.79310873 -153.94789504 171.45864417 -153.12890625 167.078125 C-152.78918019 165.30075875 -152.44933243 163.52341576 -152.109375 161.74609375 C-151.58540847 158.98686164 -151.06315048 156.22732535 -150.54345703 153.46728516 C-148.63329081 143.3483207 -146.56689282 133.37477626 -143.80859375 123.45166016 C-142.60114981 118.96888975 -141.7125414 114.45362748 -140.87109375 109.890625 C-138.95344618 99.85471663 -138.95344618 99.85471663 -137.37109375 95.140625 C-135.97167957 90.83131783 -135.32432209 86.4870104 -134.68359375 82.015625 C-133.31961799 72.61021403 -131.24319059 63.39953822 -129.09597778 54.1472168 C-126.63955026 43.55133273 -124.44943407 32.93375087 -122.53173828 22.22436523 C-122.34853027 21.22348877 -122.16532227 20.2226123 -121.9765625 19.19140625 C-121.8221167 18.32040283 -121.6676709 17.44939941 -121.50854492 16.55200195 C-121.31881104 15.77687256 -121.12907715 15.00174316 -120.93359375 14.203125 C-120.75691162 13.46416992 -120.58022949 12.72521484 -120.39819336 11.96386719 C-118.30768785 9.45066069 -116.09931681 9.50645866 -112.96807861 9.21669006 C-112.13943298 9.15936203 -111.31078735 9.102034 -110.45703125 9.04296875 C-109.59229187 8.96795639 -108.72755249 8.89294403 -107.83660889 8.81565857 C-104.9950992 8.57307949 -102.15221655 8.35689285 -99.30859375 8.140625 C-97.33952316 7.9773151 -95.37060974 7.8120995 -93.40185547 7.64501953 C-89.43843035 7.31025059 -85.47443599 6.98421801 -81.50976562 6.66455078 C-76.66230684 6.26940669 -71.82074002 5.83011211 -66.98046875 5.35546875 C-66.30536758 5.28932877 -65.63026642 5.22318878 -64.93470764 5.15504456 C-64.27506516 5.09026413 -63.61542267 5.0254837 -62.93579102 4.95874023 C-50.04509765 3.69329152 -37.15512874 2.66187784 -24.22900391 1.84912109 C-23.10929199 1.77773926 -21.98958008 1.70635742 -20.8359375 1.6328125 C-19.86132568 1.57335449 -18.88671387 1.51389648 -17.88256836 1.45263672 C-15.76746614 1.27367865 -13.65896744 1.00883121 -11.56054688 0.68896484 C-7.69222436 0.17079294 -3.89485346 0.02456265 0 0 Z " fill="#FDFDFE" transform="translate(465.93359375,239.796875)"/>
<path d="M0 0 C-0.19498678 9.39481759 -1.9938547 18.11506682 -4.18432617 27.21923828 C-5.13133274 31.15662582 -6.05695283 35.01377731 -6.53125 39.0390625 C-7 42 -7 42 -9 44 C-11.34057617 44.48657227 -11.34057617 44.48657227 -14.29296875 44.81640625 C-15.38810791 44.94031738 -16.48324707 45.06422852 -17.61157227 45.19189453 C-18.79162842 45.31419434 -19.97168457 45.43649414 -21.1875 45.5625 C-22.38882568 45.69253418 -23.59015137 45.82256836 -24.82788086 45.95654297 C-33.88174923 46.89165075 -42.91711229 47.44964984 -52.0144043 47.70922852 C-52.90812744 47.73557373 -53.80185059 47.76191895 -54.72265625 47.7890625 C-55.50390869 47.80662598 -56.28516113 47.82418945 -57.09008789 47.84228516 C-59.08573186 47.88782926 -59.08573186 47.88782926 -61 49 C-62.78396023 49.21902196 -64.57457079 49.38477591 -66.36645508 49.52490234 C-67.49396683 49.6152475 -68.62147858 49.70559265 -69.78315735 49.79867554 C-71.01616074 49.89347198 -72.24916412 49.98826843 -73.51953125 50.0859375 C-75.48177267 50.242706 -77.44401375 50.39947882 -79.4062376 50.55646706 C-82.87471985 50.83277627 -86.34363189 51.10358596 -89.8125 51.375 C-95.17353505 51.79504152 -100.53426329 52.21871198 -105.89453125 52.6484375 C-106.55998837 52.70160503 -107.22544548 52.75477257 -107.91106796 52.80955124 C-119.05821524 53.70515352 -130.17675155 54.78878411 -141.29316711 56.0118103 C-149.27855962 56.87826596 -157.23911755 57.44184627 -165.26689148 57.70864868 C-168.93805101 57.49422046 -168.93805101 57.49422046 -172 59 C-174.94303309 59.29151786 -177.87039348 59.52431816 -180.8203125 59.71875 C-181.71233368 59.78155151 -182.60435486 59.84435303 -183.52340698 59.90905762 C-186.39032154 60.1103851 -189.25760741 60.30560864 -192.125 60.5 C-194.9709115 60.69509041 -197.81671015 60.89154159 -200.662323 61.09094238 C-202.43518849 61.21496043 -204.20823504 61.33642486 -205.98147583 61.45495605 C-210.69679538 61.78250324 -215.31943099 62.32471967 -220 63 C-222.27164877 63.15945195 -224.54548807 63.28971309 -226.8203125 63.39453125 C-228.15709592 63.46110957 -229.49384594 63.528361 -230.83056641 63.59619141 C-231.87969208 63.6485495 -231.87969208 63.6485495 -232.95001221 63.70196533 C-252.38914492 64.68987804 -271.67392035 66.73081239 -291 69 C-289.96907779 60.39338336 -288.77512922 52.06411211 -286.5 43.6875 C-286.07048297 42.06704937 -285.64339674 40.44595247 -285.21875 38.82421875 C-285.01378906 38.04224121 -284.80882812 37.26026367 -284.59765625 36.45458984 C-283.75049522 32.97527734 -283.09068148 29.46659738 -282.44726562 25.94458008 C-282 24 -282 24 -281 23 C-278.22066149 22.71988342 -275.45814632 22.49914239 -272.671875 22.31640625 C-271.39255348 22.22671318 -271.39255348 22.22671318 -270.08738708 22.13520813 C-268.25739254 22.00712065 -266.42726196 21.88096509 -264.59701538 21.75653076 C-259.88813603 21.43560961 -255.18040833 21.0987158 -250.47265625 20.76171875 C-249.09506889 20.66343781 -249.09506889 20.66343781 -247.68965149 20.56317139 C-240.84882142 20.07120247 -234.01518082 19.52680268 -227.1875 18.875 C-226.37958008 18.79967041 -225.57166016 18.72434082 -224.73925781 18.64672852 C-220.97116202 18.30107537 -220.97116202 18.30107537 -217.27905273 17.51586914 C-213.88609444 16.74786476 -210.45373873 16.56616674 -206.9921875 16.31640625 C-206.20220367 16.25665619 -205.41221985 16.19690613 -204.59829712 16.13534546 C-202.90378111 16.00763123 -201.20914502 15.88150226 -199.5144043 15.75680542 C-196.85895297 15.56131866 -194.2038649 15.36143379 -191.54882812 15.16040039 C-183.75476603 14.57161244 -175.9597805 13.99608709 -168.1640625 13.4296875 C-166.44920654 13.30291626 -166.44920654 13.30291626 -164.69970703 13.17358398 C-162.66191464 13.02322955 -160.62384832 12.87651139 -158.58544922 12.73461914 C-153.31992824 12.34541251 -148.12942754 11.75335616 -142.90234375 11.00390625 C-134.30828483 9.8217731 -125.72315681 9.3927902 -117.0625 9 C-106.96054709 8.54077155 -97.00670102 7.84735065 -86.98120117 6.50830078 C-80.05261062 5.59600553 -73.08612659 5.03795294 -66.125 4.4375 C-65.38763611 4.37274475 -64.65027222 4.3079895 -63.89056396 4.24127197 C-53.97911676 3.37155489 -44.0753964 2.61953684 -34.1328125 2.2109375 C-31.17586538 2.10737317 -31.17586538 2.10737317 -29.07080078 1.5065918 C-26.91976552 0.98037178 -24.94418586 0.79546112 -22.734375 0.68359375 C-21.92613281 0.64169922 -21.11789062 0.59980469 -20.28515625 0.55664062 C-19.44855469 0.51732422 -18.61195313 0.47800781 -17.75 0.4375 C-16.92886719 0.39431641 -16.10773438 0.35113281 -15.26171875 0.30664062 C-10.16782811 0.05234973 -5.10001226 -0.04112913 0 0 Z " fill="#FD433E" transform="translate(543,147)"/>
<path d="M0 0 C0.70189453 0.00451172 1.40378906 0.00902344 2.12695312 0.01367188 C3.85550538 0.02543073 5.58401365 0.04336546 7.3125 0.0625 C6.73243763 7.81701806 5.68809416 15.40992277 4.3125 23.0625 C3.6525 23.0625 2.9925 23.0625 2.3125 23.0625 C2.26351563 23.74054687 2.21453125 24.41859375 2.1640625 25.1171875 C0.75828313 42.61671687 0.75828313 42.61671687 -1.6875 45.0625 C-3.29633428 45.30719256 -4.91518995 45.48592729 -6.53515625 45.640625 C-7.64568359 45.74697266 -8.75621094 45.85332031 -9.90039062 45.96289062 C-11.17076172 46.07826172 -12.44113281 46.19363281 -13.75 46.3125 C-14.41265869 46.37397217 -15.07531738 46.43544434 -15.75805664 46.4987793 C-33.81014446 48.16883316 -51.89204125 49.4991111 -69.96710205 50.89239502 C-88.74640892 52.34055002 -107.50770675 53.87506875 -126.25244141 55.72412109 C-142.92907597 57.36689405 -159.60703711 58.85795312 -176.3203125 60.0703125 C-177.52007721 60.15755081 -178.71984192 60.24478912 -179.95596313 60.33467102 C-185.97673634 60.77081381 -191.99794637 61.19913851 -198.02001953 61.61694336 C-212.30783682 62.62336034 -212.30783682 62.62336034 -226.48828125 64.5871582 C-233.96070391 65.69741514 -241.53171608 66.08040663 -249.0625 66.625 C-250.75524218 66.75150097 -252.44795079 66.87845204 -254.140625 67.00585938 C-263.98624858 67.74225846 -273.83512675 68.42294044 -283.6875 69.0625 C-283.04014657 63.46644539 -282.17119902 57.96955142 -281.09375 52.44140625 C-280.94216431 51.65603989 -280.79057861 50.87067352 -280.63439941 50.06150818 C-280.31637416 48.41842886 -279.99698158 46.77561364 -279.67626953 45.13305664 C-279.18428378 42.60849641 -278.69936297 40.0826432 -278.21484375 37.55664062 C-277.90407017 35.95564674 -277.59288721 34.35473225 -277.28125 32.75390625 C-277.13643188 31.99670792 -276.99161377 31.23950958 -276.84240723 30.45936584 C-275.80213843 25.17713843 -275.80213843 25.17713843 -274.6875 24.0625 C-271.54547404 23.71851109 -268.41578249 23.43598554 -265.265625 23.1875 C-263.14905817 23.01208483 -261.03252366 22.83627943 -258.91601562 22.66015625 C-257.75658447 22.56492676 -256.59715332 22.46969727 -255.40258789 22.37158203 C-249.39835491 21.87205131 -243.39671929 21.34315672 -237.39494324 20.81509399 C-235.21632521 20.62341192 -233.03767222 20.43213206 -230.85900879 20.2409668 C-227.8871071 19.98019113 -224.91522717 19.71916941 -221.94335938 19.45800781 C-218.93236264 19.19351844 -215.92129181 18.92989617 -212.91015625 18.66699219 C-208.4764045 18.27978296 -204.04280839 17.89083772 -199.609375 17.5 C-198.89409575 17.43695742 -198.17881649 17.37391483 -197.44186211 17.30896187 C-189.51178406 16.60786939 -181.58883848 15.87037602 -173.67578125 14.99609375 C-163.32832015 13.85852118 -152.95191077 13.12183987 -142.57019043 12.37347412 C-139.04818608 12.11946002 -135.52651637 11.86115139 -132.00488281 11.60205078 C-120.73039948 10.77526489 -109.45459238 9.97250322 -98.17578125 9.20703125 C-96.25007444 9.07488956 -94.32437437 8.94264946 -92.39868164 8.81030273 C-88.85274339 8.56663016 -85.30638434 8.33158065 -81.75952148 8.10180664 C-80.15736797 7.99266321 -78.55523455 7.88322432 -76.953125 7.7734375 C-76.25749954 7.73084305 -75.56187408 7.6882486 -74.84516907 7.6443634 C-71.10928327 7.38058655 -67.54622388 6.86370852 -63.8815918 6.08276367 C-58.3830882 4.93051605 -52.91246146 4.44629351 -47.31640625 4.02734375 C-46.27226059 3.94376114 -45.22811493 3.86017853 -44.15232849 3.77406311 C-40.85196725 3.51042785 -37.55107267 3.25455973 -34.25 3 C-30.92400806 2.74108469 -27.59818762 2.48041452 -24.27268982 2.21522522 C-22.21184531 2.05109265 -20.15070117 1.89067072 -18.08924866 1.73435974 C-17.16075607 1.66080765 -16.23226349 1.58725555 -15.27563477 1.51147461 C-14.05179832 1.41726479 -14.05179832 1.41726479 -12.80323792 1.32115173 C-1.81607109 -0.02204381 -1.81607109 -0.02204381 0 0 Z " fill="#FCD31C" transform="translate(639.6875,660.9375)"/>
<path d="M0 0 C3.26270796 -0.08038701 6.52465898 -0.13065377 9.78808594 -0.171875 C10.84455322 -0.1934668 11.90102051 -0.21505859 12.98950195 -0.23730469 C22.47139957 -0.275852 30.98953069 1.18106117 38.47167969 7.36328125 C42.74071069 11.85753691 43.27324455 16.87485989 43.47558594 22.890625 C42.97996077 38.10250503 35.88501352 49.91649494 25.17871094 60.46875 C23.0842555 62.09077188 21.6921215 62.68122316 19.10058594 63.078125 C19.10058594 63.738125 19.10058594 64.398125 19.10058594 65.078125 C9.18292255 69.26467963 -0.33697507 72.01903058 -11.17285156 72.39453125 C-12.3265625 72.43642578 -13.48027344 72.47832031 -14.66894531 72.52148438 C-15.85875 72.56080078 -17.04855469 72.60011719 -18.27441406 72.640625 C-20.09392578 72.70540039 -20.09392578 72.70540039 -21.95019531 72.77148438 C-24.93316438 72.87718013 -27.91621148 72.97927821 -30.89941406 73.078125 C-30.3787991 67.52928339 -29.81729782 62.01575659 -28.89941406 56.515625 C-28.65191406 54.99775391 -28.65191406 54.99775391 -28.39941406 53.44921875 C-27.89941406 51.078125 -27.89941406 51.078125 -26.89941406 50.078125 C-26.6743163 48.21302927 -26.45206966 46.34714056 -26.27832031 44.4765625 C-25.89941406 42.078125 -25.89941406 42.078125 -24.96557617 38.87231445 C-23.94765762 35.24981107 -23.16751425 31.66734029 -22.46191406 27.97265625 C-22.20425361 26.64645483 -21.94643655 25.32028382 -21.68847656 23.99414062 C-21.2913941 21.93409058 -20.89619493 19.87371263 -20.50390625 17.81274414 C-20.1200094 15.80252497 -19.72890484 13.79381042 -19.33691406 11.78515625 C-19.10875 10.5938208 -18.88058594 9.40248535 -18.64550781 8.17504883 C-17.99715167 5.48381922 -17.39545303 3.39539536 -15.89941406 1.078125 C-10.86703993 -0.34149591 -5.21542997 0.14053028 0 0 Z " fill="#1303CD" transform="translate(416.8994140625,478.921875)"/>
<path d="M0 0 C0.91410645 -0.02578125 1.82821289 -0.0515625 2.77001953 -0.078125 C11.21904388 -0.10265492 18.46734387 2.40393951 24.625 8.375 C28.43293437 13.99237836 27.35181388 22.86942 26.625 29.375 C23.76801596 40.70090103 16.98415981 49.52008809 7.3046875 55.875 C2.92873513 58.32451269 -1.58192434 59.94142148 -6.375 61.375 C-7.06335938 61.58898437 -7.75171875 61.80296875 -8.4609375 62.0234375 C-18.17562374 64.75941036 -28.37200191 64.51812716 -38.375 64.375 C-37.836545 55.69716089 -36.30834828 47.36982633 -34.5 38.875 C-34.24347656 37.63363281 -33.98695313 36.39226562 -33.72265625 35.11328125 C-32.35212724 28.57744188 -30.81693226 22.13457498 -29.00878906 15.70654297 C-28.24286274 12.88890185 -27.67347155 10.06594689 -27.1875 7.1875 C-27.02894531 6.26582031 -26.87039063 5.34414063 -26.70703125 4.39453125 C-26.59746094 3.72808594 -26.48789062 3.06164062 -26.375 2.375 C-17.58609929 0.84173383 -8.91921058 0.12050952 0 0 Z " fill="#1403CC" transform="translate(458.375,327.625)"/>
<path d="M0 0 C0 0.66 0 1.32 0 2 C-1.18078125 2.06058594 -2.3615625 2.12117187 -3.578125 2.18359375 C-5.1354277 2.26802582 -6.69271879 2.35267249 -8.25 2.4375 C-9.02730469 2.47681641 -9.80460938 2.51613281 -10.60546875 2.55664062 C-11.73662109 2.61948242 -11.73662109 2.61948242 -12.890625 2.68359375 C-13.92751465 2.73858032 -13.92751465 2.73858032 -14.98535156 2.79467773 C-16.9734889 2.94096776 -16.9734889 2.94096776 -18.73828125 3.4780426 C-21.56108029 4.1294856 -24.31275202 4.33786278 -27.20214844 4.55664062 C-29.08495514 4.70184143 -29.08495514 4.70184143 -31.00579834 4.84997559 C-32.37365619 4.95208091 -33.74151511 5.05417203 -35.109375 5.15625 C-36.51941597 5.26417242 -37.92942946 5.37245436 -39.3394165 5.4810791 C-43.05150101 5.76633934 -46.76386092 6.04782543 -50.47631836 6.32818604 C-56.40352943 6.77608411 -62.33041556 7.22818174 -68.25708771 7.68315125 C-70.31740075 7.84054349 -72.37789282 7.99540464 -74.43841553 8.15002441 C-80.65399638 8.62459875 -86.820197 9.18854217 -93 10 C-94.63259198 10.11731562 -96.26688372 10.21499281 -97.90234375 10.28125 C-99.14274414 10.33732422 -99.14274414 10.33732422 -100.40820312 10.39453125 C-102.12169771 10.46598199 -103.83524157 10.53625882 -105.54882812 10.60546875 C-109.60160602 10.39255954 -109.60160602 10.39255954 -113 12 C-114.58020992 12.12175759 -116.16541334 12.17973809 -117.75 12.2109375 C-119.23802124 12.25057617 -119.23802124 12.25057617 -120.75610352 12.29101562 C-121.82658936 12.31873047 -122.8970752 12.34644531 -124 12.375 C-131.31791645 12.61177353 -138.3890799 13.00427319 -145.5625 14.5 C-153.3745402 16.12242619 -161.10735217 16.48203049 -169.07250977 16.70898438 C-174.13874439 16.85334411 -178.97862077 17.27314842 -184 18 C-187.80978234 18.25637257 -191.62227818 18.41108261 -195.4375 18.5625 C-196.45521484 18.60568359 -197.47292969 18.64886719 -198.52148438 18.69335938 C-201.01421028 18.79868582 -203.50702338 18.90081672 -206 19 C-206.99 21.475 -206.99 21.475 -208 24 C-208.625 22.1875 -208.625 22.1875 -209 20 C-208.01 18.515 -208.01 18.515 -207 17 C-204.13715799 16.54270203 -201.45703985 16.27506019 -198.57421875 16.12109375 C-197.29701965 16.03564552 -197.29701965 16.03564552 -195.99401855 15.94847107 C-193.22583093 15.76560957 -190.45684453 15.6018112 -187.6875 15.4375 C-184.86624065 15.2541594 -182.04535374 15.06567214 -179.22444153 14.8770752 C-177.37102494 14.75359865 -175.5174982 14.63176427 -173.66386414 14.51159668 C-166.82823493 14.06731 -160.00586273 13.53681031 -153.1875 12.875 C-152.37949951 12.79950928 -151.57149902 12.72401855 -150.73901367 12.64624023 C-146.97101785 12.30109122 -146.97101785 12.30109122 -143.27905273 11.51586914 C-139.88609444 10.74786476 -136.45373873 10.56616674 -132.9921875 10.31640625 C-132.20220367 10.25665619 -131.41221985 10.19690613 -130.59829712 10.13534546 C-128.90378111 10.00763123 -127.20914502 9.88150226 -125.5144043 9.75680542 C-122.85895297 9.56131866 -120.2038649 9.36143379 -117.54882812 9.16040039 C-109.75476603 8.57161244 -101.9597805 7.99608709 -94.1640625 7.4296875 C-92.44920654 7.30291626 -92.44920654 7.30291626 -90.69970703 7.17358398 C-88.66191464 7.02322955 -86.62384832 6.87651139 -84.58544922 6.73461914 C-79.31992824 6.34541251 -74.12942754 5.75335616 -68.90234375 5.00390625 C-60.30828483 3.8217731 -51.72315681 3.3927902 -43.0625 3 C-32.76472638 2.53186966 -22.6169376 1.83653053 -12.40209961 0.41455078 C-8.21434785 -0.09573286 -4.21092377 -0.15039013 0 0 Z " fill="#CD3F6B" transform="translate(469,153)"/>
<path d="M0 0 C1 1 1 1 1.0625 4.0625 C1.041875 5.031875 1.02125 6.00125 1 7 C0.34 7.33 -0.32 7.66 -1 8 C-1 6.02 -1 4.04 -1 2 C-3.25043922 2.11682608 -5.5003416 2.2439958 -7.75 2.375 C-9.00296875 2.44460938 -10.2559375 2.51421875 -11.546875 2.5859375 C-14.84730637 2.8352262 -18.03474077 3.34635758 -21.2890625 3.9453125 C-30.85525671 5.60343275 -40.56685526 6.02199505 -50.2421875 6.67724609 C-52.79987963 6.85246337 -55.35694282 7.03539458 -57.9140625 7.21875 C-58.67788239 7.26777466 -59.44170227 7.31679932 -60.22866821 7.36730957 C-64.17715106 7.65202988 -67.95309019 8.15365288 -71.82568359 8.98413086 C-77.48143546 10.17451789 -83.11664744 10.62836304 -88.875 11.03515625 C-89.99777344 11.11873886 -91.12054687 11.20232147 -92.27734375 11.28843689 C-94.65049493 11.46362474 -97.02387506 11.63573542 -99.39746094 11.80493164 C-102.93489032 12.0578449 -106.47133495 12.32203654 -110.0078125 12.58789062 C-125.66288357 13.7416248 -141.31058825 14.5068711 -157 15 C-157 14.67 -157 14.34 -157 14 C-155.73446289 13.89453857 -154.46892578 13.78907715 -153.16503906 13.68041992 C-152.3190062 13.60991425 -151.47297333 13.53940857 -150.6013031 13.46676636 C-148.67736503 13.30644422 -146.75342494 13.14614636 -144.82948303 12.98587036 C-139.44901933 12.53760743 -134.06859299 12.08890353 -128.68823242 11.6394043 C-118.45041916 10.78451792 -108.21237164 9.93338112 -97.97265625 9.1015625 C-95.5228102 8.90146192 -93.07298471 8.70111189 -90.62316895 8.50064087 C-89.09078359 8.37586994 -87.55831305 8.25214049 -86.02575684 8.12948608 C-83.90887817 7.96001114 -81.79231345 7.78702151 -79.67578125 7.61328125 C-77.9110144 7.47079956 -77.9110144 7.47079956 -76.1105957 7.32543945 C-73.34812362 7.03642169 -70.71918209 6.54543812 -68 6 C-65.66698014 5.96175377 -63.33288492 5.95425716 -61 6 C-61 5.34 -61 4.68 -61 4 C-60.1843457 3.98018066 -59.36869141 3.96036133 -58.52832031 3.93994141 C-55.44167015 3.86087494 -52.35534632 3.77416326 -49.26904297 3.68261719 C-47.30061057 3.62644427 -45.33194238 3.57873529 -43.36328125 3.53125 C-36.32764326 3.31696661 -29.56367658 2.78975813 -22.64428711 1.4765625 C-15.16916578 0.12937047 -7.58132361 -0.24455883 0 0 Z " fill="#715876" transform="translate(648,659)"/>
<path d="M0 0 C1.20914063 0.00902344 2.41828125 0.01804687 3.6640625 0.02734375 C4.55867187 0.03894531 5.45328125 0.05054688 6.375 0.0625 C6.375 0.3925 6.375 0.7225 6.375 1.0625 C5.68462646 1.14290527 4.99425293 1.22331055 4.28295898 1.30615234 C1.12540725 1.67731756 -2.03101991 2.05733332 -5.1875 2.4375 C-6.27353516 2.56382812 -7.35957031 2.69015625 -8.47851562 2.8203125 C-12.89635325 3.35743562 -17.04843832 3.89001907 -21.3203125 5.16796875 C-25.62816031 6.33404103 -29.50548649 6.14597323 -33.9375 6 C-47.56047237 5.76387323 -61.00599688 7.20165855 -74.54626465 8.50610352 C-85.56643334 9.55054395 -96.54939003 10.24812475 -107.625 10.0625 C-107.625 9.7325 -107.625 9.4025 -107.625 9.0625 C-107.06584396 9.01682892 -106.50668793 8.97115784 -105.93058777 8.92410278 C-100.00713538 8.43984087 -94.08394649 7.95244271 -88.16088867 7.46337891 C-85.96271002 7.28226758 -83.76446955 7.10190467 -81.56616211 6.92236328 C-69.26998578 5.91756275 -56.99361413 4.83044976 -44.72827148 3.5 C-39.34660447 2.9183572 -33.95676695 2.44789942 -28.5625 2 C-26.69655962 1.84310022 -24.83067351 1.68555356 -22.96484375 1.52734375 C-21.63114746 1.41483276 -21.63114746 1.41483276 -20.27050781 1.30004883 C-17.64928815 1.06468091 -15.03461972 0.78902043 -12.41796875 0.5078125 C-8.2501169 0.0838165 -4.18907702 -0.04106938 0 0 Z " fill="#36217C" transform="translate(559.625,711.9375)"/>
<path d="M0 0 C0.74507813 0.00451172 1.49015625 0.00902344 2.2578125 0.01367188 C4.0885764 0.02540754 5.91929873 0.0433415 7.75 0.0625 C7.75 0.3925 7.75 0.7225 7.75 1.0625 C1.667613 1.71743527 -4.41573034 2.36278824 -10.5 3 C-11.83723114 3.14014023 -11.83723114 3.14014023 -13.20147705 3.28311157 C-24.13388628 4.42120797 -35.03538449 5.49259076 -46.02832031 5.82202148 C-49.42982752 5.6213115 -49.42982752 5.6213115 -52.25 7.0625 C-54.15210802 7.2917627 -56.06187597 7.45803167 -57.97265625 7.59765625 C-59.74092773 7.72817383 -59.74092773 7.72817383 -61.54492188 7.86132812 C-62.78822266 7.94833984 -64.03152344 8.03535156 -65.3125 8.125 C-67.1368457 8.26131836 -67.1368457 8.26131836 -68.99804688 8.40039062 C-75.09806675 8.84059824 -81.13426411 9.17702689 -87.25 9.0625 C-87.25 8.7325 -87.25 8.4025 -87.25 8.0625 C-86.115625 7.918125 -84.98125 7.77375 -83.8125 7.625 C-80.44222799 7.45078522 -80.44222799 7.45078522 -79.25 6.0625 C-76.43369776 5.85105708 -73.63282201 5.68621843 -70.8125 5.5625 C-65.36495857 5.55312339 -65.36495857 5.55312339 -60.25 4.0625 C-58.38038229 3.9316378 -56.506504 3.85971258 -54.6328125 3.81640625 C-53.47716797 3.78482422 -52.32152344 3.75324219 -51.13085938 3.72070312 C-49.89142578 3.68912109 -48.65199219 3.65753906 -47.375 3.625 C-38.46904019 3.35567574 -29.61516221 2.97521371 -20.75 2.0625 C-19.93934082 1.97943604 -19.12868164 1.89637207 -18.29345703 1.81079102 C-14.24040731 1.37374858 -14.24040731 1.37374858 -10.25683594 0.53735352 C-6.8854281 -0.26038228 -3.44507224 -0.03956355 0 0 Z " fill="#C53C70" transform="translate(423.25,198.9375)"/>
<path d="M0 0 C0 0.33 0 0.66 0 1 C-5.28 1.66 -10.56 2.32 -16 3 C-16 3.33 -16 3.66 -16 4 C-17.22976563 4.06058594 -18.45953125 4.12117187 -19.7265625 4.18359375 C-21.35938427 4.26805005 -22.99219627 4.35269547 -24.625 4.4375 C-25.43324219 4.47681641 -26.24148438 4.51613281 -27.07421875 4.55664062 C-27.86699219 4.59853516 -28.65976562 4.64042969 -29.4765625 4.68359375 C-30.19924316 4.72025146 -30.92192383 4.75690918 -31.66650391 4.79467773 C-34.09215666 4.97199576 -34.09215666 4.97199576 -36.82226562 5.51367188 C-40.38401838 6.0587711 -43.76429981 6.11254422 -47.3671875 6.09765625 C-48.38656906 6.09553383 -48.38656906 6.09553383 -49.42654419 6.09336853 C-51.57607612 6.08781518 -53.72550008 6.07527169 -55.875 6.0625 C-57.34114432 6.05747896 -58.80729029 6.05291711 -60.2734375 6.04882812 C-63.84899283 6.03786111 -67.42448586 6.02062919 -71 6 C-71 5.67 -71 5.34 -71 5 C-59.23419755 3.97082935 -47.48044359 2.96766073 -35.68261719 2.39697266 C-28.850914 2.04254129 -22.05529546 1.37970278 -15.25317383 0.66015625 C-10.13535735 0.1346906 -5.14521416 -0.08912034 0 0 Z " fill="#460B9C" transform="translate(352,207)"/>
<path d="M0 0 C0.495 1.98 0.495 1.98 1 4 C-11.02659202 5.50881727 -22.95595002 6.24725372 -35.07080078 6.60302734 C-42.38503905 6.83990481 -49.55380356 7.40180325 -56.80834961 8.33544922 C-64.20631284 9.24438421 -71.55924078 9.18247093 -79 9 C-79 8.67 -79 8.34 -79 8 C-78.22285645 7.94465088 -77.44571289 7.88930176 -76.64501953 7.83227539 C-73.13801626 7.58005041 -69.63151963 7.32135826 -66.125 7.0625 C-64.90167969 6.97548828 -63.67835938 6.88847656 -62.41796875 6.79882812 C-61.25136719 6.71181641 -60.08476562 6.62480469 -58.8828125 6.53515625 C-57.80402832 6.456604 -56.72524414 6.37805176 -55.61376953 6.29711914 C-53.02185388 6.15398063 -53.02185388 6.15398063 -51 5 C-49.5773284 4.88252002 -48.14980958 4.82114659 -46.72265625 4.7890625 C-45.82885254 4.76263672 -44.93504883 4.73621094 -44.01416016 4.70898438 C-43.0401123 4.68126953 -42.06606445 4.65355469 -41.0625 4.625 C-31.70092935 4.29393658 -22.43422224 3.53871191 -13.125 2.5 C-11.34234741 2.30398193 -11.34234741 2.30398193 -9.52368164 2.10400391 C-4.38965277 1.96620538 -4.38965277 1.96620538 0 0 Z " fill="#3505A2" transform="translate(535,189)"/>
<path d="M0 0 C0 0.33 0 0.66 0 1 C-13.66518357 2.34875097 -27.33174776 3.68270215 -41 5 C-41.69252869 5.06699097 -42.38505737 5.13398193 -43.09857178 5.20300293 C-65.72655119 7.38948576 -65.72655119 7.38948576 -77 7 C-77 6.67 -77 6.34 -77 6 C-70.30386804 5.202163 -63.74233419 4.87089147 -57 5 C-57 4.34 -57 3.68 -57 3 C-56.27820557 2.97494385 -55.55641113 2.9498877 -54.81274414 2.92407227 C-51.562465 2.80848698 -48.31250312 2.68559226 -45.0625 2.5625 C-43.92619141 2.52318359 -42.78988281 2.48386719 -41.61914062 2.44335938 C-39.99975586 2.38051758 -39.99975586 2.38051758 -38.34765625 2.31640625 C-37.34742432 2.27974854 -36.34719238 2.24309082 -35.31665039 2.20532227 C-33.03930812 2.25328159 -33.03930812 2.25328159 -32 1 C-29.45200805 0.75488438 -26.92948733 0.57238402 -24.375 0.4375 C-23.61968994 0.3950415 -22.86437988 0.35258301 -22.08618164 0.30883789 C-14.72027605 -0.07309796 -7.37413238 -0.09660435 0 0 Z " fill="#432E7E" transform="translate(465,676)"/>
<path d="M0 0 C3.33331439 -0.02937438 6.66659483 -0.04692334 10 -0.0625 C10.93457031 -0.07087891 11.86914062 -0.07925781 12.83203125 -0.08789062 C18.32274401 -0.10708892 23.56866481 0.1865807 29 1 C29 1.66 29 2.32 29 3 C29.55945313 2.97679687 30.11890625 2.95359375 30.6953125 2.9296875 C43.00082907 2.65271446 54.39589363 5.02915961 66 9 C62.62604783 10.14917282 60.74213794 9.83081933 57.41015625 8.6640625 C52.11332587 6.96451371 46.95124762 6.04895548 41.4375 5.375 C40.44041016 5.25020264 39.44332031 5.12540527 38.41601562 4.99682617 C24.013113 3.35746256 9.48108605 3.24161842 -5 3 C-5 2.67 -5 2.34 -5 2 C-3.35 1.67 -1.7 1.34 0 1 C0 0.67 0 0.34 0 0 Z " fill="#3228C3" transform="translate(467,237)"/>
<path d="M0 0 C0 0.33 0 0.66 0 1 C-12.09425856 2.7342772 -24.10122301 4.29046198 -36.3215332 4.70874023 C-39.96365867 4.49901935 -39.96365867 4.49901935 -43 6 C-45.37338639 6.15971977 -47.72118272 6.2592433 -50.09765625 6.31640625 C-50.80651474 6.33718735 -51.51537323 6.35796844 -52.24571228 6.37937927 C-54.51787305 6.44494598 -56.79015264 6.5037923 -59.0625 6.5625 C-60.59962183 6.60567849 -62.1367315 6.64929255 -63.67382812 6.69335938 C-67.4490959 6.80063449 -71.2244836 6.90188137 -75 7 C-71.23636278 4.61264562 -67.31960592 4.5012439 -62.9921875 4.21875 C-61.80659996 4.13111137 -61.80659996 4.13111137 -60.59706116 4.04170227 C-58.02354242 3.85323279 -55.44936307 3.67652622 -52.875 3.5 C-51.10614239 3.37280377 -49.33734347 3.24478879 -47.56860352 3.1159668 C-44.03540177 2.85936555 -40.50195049 2.60673335 -36.96826172 2.35693359 C-29.23982255 1.80690037 -21.51722189 1.18246355 -13.79443359 0.55859375 C-9.18270834 0.19731728 -4.63066858 -0.1015155 0 0 Z " fill="#BF3A76" transform="translate(399,159)"/>
<path d="M0 0 C0.91644287 0.00523682 1.83288574 0.01047363 2.77709961 0.01586914 C4.26113281 0.02070312 4.26113281 0.02070312 5.77514648 0.02563477 C6.81606445 0.03401367 7.85698242 0.04239258 8.92944336 0.05102539 C10.49662109 0.05779297 10.49662109 0.05779297 12.09545898 0.06469727 C14.68600996 0.07652627 17.27644895 0.0930085 19.86694336 0.11352539 C19.86694336 0.44352539 19.86694336 0.77352539 19.86694336 1.11352539 C-25.32283731 5.68267199 -25.32283731 5.68267199 -46.13305664 6.11352539 C-43.74985928 3.73032803 -43.14032483 3.84097839 -39.88696289 3.73461914 C-38.63109375 3.68337891 -38.63109375 3.68337891 -37.34985352 3.63110352 C-36.47393555 3.60467773 -35.59801758 3.57825195 -34.69555664 3.55102539 C-32.96755678 3.49099879 -31.23967806 3.42734664 -29.51196289 3.35961914 C-28.36062866 3.32372681 -28.36062866 3.32372681 -27.18603516 3.28710938 C-24.93364692 3.17770843 -24.93364692 3.17770843 -22.13305664 2.11352539 C-20.66486194 1.9790766 -19.19220388 1.88994006 -17.71899414 1.83227539 C-16.87594727 1.79489258 -16.03290039 1.75750977 -15.16430664 1.71899414 C-13.38567308 1.64837193 -11.60702708 1.57806213 -9.82836914 1.50805664 C-8.98790039 1.47067383 -8.14743164 1.43329102 -7.28149414 1.39477539 C-6.5098291 1.36448242 -5.73816406 1.33418945 -4.94311523 1.30297852 C-2.62051016 1.05987877 -2.43630706 0.12966496 0 0 Z " fill="#D2B264" transform="translate(499.133056640625,714.886474609375)"/>
<path d="M0 0 C1.27544437 3.8263331 0.47671116 6.72665932 -0.3125 10.5625 C-0.52507446 11.63298584 -0.52507446 11.63298584 -0.74194336 12.72509766 C-1.02634459 14.15501728 -1.31349258 15.5843936 -1.60351562 17.01318359 C-1.94823925 18.74062253 -2.26562018 20.4734741 -2.578125 22.20703125 C-2.73796875 23.08746094 -2.8978125 23.96789062 -3.0625 24.875 C-3.19785156 25.63554687 -3.33320312 26.39609375 -3.47265625 27.1796875 C-4 29 -4 29 -6 31 C-7.96777344 31.41064453 -7.96777344 31.41064453 -10.359375 31.6328125 C-11.66261719 31.75849609 -11.66261719 31.75849609 -12.9921875 31.88671875 C-13.90226563 31.96535156 -14.81234375 32.04398438 -15.75 32.125 C-16.64460937 32.21136719 -17.53921875 32.29773438 -18.4609375 32.38671875 C-22.98925869 32.80749196 -27.44691533 33.10553508 -32 33 C-28.90580952 31.22263942 -26.4204741 30.68621236 -22.875 30.4375 C-19.30201227 30.21950935 -19.30201227 30.21950935 -16 29 C-14.29297265 28.93003986 -12.58331997 28.91559846 -10.875 28.9375 C-9.26625 28.958125 -7.6575 28.97875 -6 29 C-5.67 24.71 -5.34 20.42 -5 16 C-4.34 16 -3.68 16 -3 16 C-3 12.7 -3 9.4 -3 6 C-2.34 6 -1.68 6 -1 6 C-0.67 4.02 -0.34 2.04 0 0 Z " fill="#CD3F6C" transform="translate(540,160)"/>
<path d="M0 0 C7.92 0 15.84 0 24 0 C24 0.33 24 0.66 24 1 C22.89140625 1.06058594 21.7828125 1.12117187 20.640625 1.18359375 C19.1770718 1.26802951 17.71353075 1.35267599 16.25 1.4375 C15.52039063 1.47681641 14.79078125 1.51613281 14.0390625 1.55664062 C10.11409563 1.74405666 10.11409563 1.74405666 6.26733398 2.47265625 C2.82994894 3.2721342 -0.65793799 3.4748395 -4.16796875 3.75390625 C-4.96221756 3.81907944 -5.75646637 3.88425262 -6.57478333 3.95140076 C-8.25488053 4.0883206 -9.93511706 4.22354003 -11.61547852 4.35717773 C-14.16142071 4.56041811 -16.70667596 4.77103487 -19.25195312 4.98242188 C-20.89058877 5.11503176 -22.52925968 5.24720684 -24.16796875 5.37890625 C-25.29346382 5.47263268 -25.29346382 5.47263268 -26.44169617 5.56825256 C-31.64196172 5.97469379 -36.78372447 6.05128859 -42 6 C-39.1589836 4.51354397 -37.14298475 3.7387917 -33.92578125 3.62109375 C-33.17619141 3.58693359 -32.42660156 3.55277344 -31.65429688 3.51757812 C-30.88150391 3.49115234 -30.10871094 3.46472656 -29.3125 3.4375 C-24.25467362 3.69933622 -24.25467362 3.69933622 -20 2 C-18.5112814 1.91330568 -17.018555 1.89296506 -15.52734375 1.90234375 C-14.62822266 1.90556641 -13.72910156 1.90878906 -12.80273438 1.91210938 C-11.85720703 1.92048828 -10.91167969 1.92886719 -9.9375 1.9375 C-8.98810547 1.94201172 -8.03871094 1.94652344 -7.06054688 1.95117188 C-4.70696935 1.9629989 -2.35351523 1.97947975 0 2 C0 1.34 0 0.68 0 0 Z " fill="#40089D" transform="translate(320,163)"/>
<path d="M0 0 C0 3.96 0 7.92 0 12 C-0.66 12 -1.32 12 -2 12 C-2 13.98 -2 15.96 -2 18 C-2.66 18 -3.32 18 -4 18 C-3.94779297 19.051875 -3.94779297 19.051875 -3.89453125 20.125 C-3.67162571 27.9373084 -4.5861775 33.37926625 -9 40 C-8.29530038 34.55129157 -7.2379087 29.23983908 -6.0625 23.875 C-4.426032 16.27785269 -3.05101914 8.70286397 -2 1 C-3.6396875 1.2475 -3.6396875 1.2475 -5.3125 1.5 C-10.53905159 2.16622112 -15.7404008 2.08701543 -21 2 C-21 1.67 -21 1.34 -21 1 C-13.95957136 0.14476355 -7.09209896 -0.09092435 0 0 Z " fill="#631590" transform="translate(545,146)"/>
<path d="M0 0 C0 0.33 0 0.66 0 1 C-16.05796433 3.89721429 -32.67736198 5.56392991 -49 5 C-44.57659252 0.57659252 -37.62691941 1.45111287 -31.7253418 1.07006836 C-29.73248728 0.94042657 -27.74025191 0.80137606 -25.74804688 0.66210938 C-17.14256045 0.09240818 -8.62218528 -0.11317404 0 0 Z " fill="#D7B858" transform="translate(423,723)"/>
<path d="M0 0 C5.94 0 11.88 0 18 0 C18 0.33 18 0.66 18 1 C5.72487159 2.86019357 -6.55650621 3.79262878 -18.9375 4.625 C-20.89260829 4.75998051 -22.84768671 4.89539435 -24.80273438 5.03125 C-29.53482758 5.3591517 -34.26728341 5.68122757 -39 6 C-39 5.34 -39 4.68 -39 4 C-34.05 4 -29.1 4 -24 4 C-24 3.34 -24 2.68 -24 2 C-16.08 2 -8.16 2 0 2 C0 1.34 0 0.68 0 0 Z " fill="#1A089B" transform="translate(562,665)"/>
<path d="M0 0 C1.02158203 0.00322266 2.04316406 0.00644531 3.09570312 0.00976562 C4.15080078 0.01814453 5.20589844 0.02652344 6.29296875 0.03515625 C7.36740234 0.03966797 8.44183594 0.04417969 9.54882812 0.04882812 C12.19276558 0.06057896 14.83658827 0.07700838 17.48046875 0.09765625 C17.48046875 0.42765625 17.48046875 0.75765625 17.48046875 1.09765625 C0.24275434 3.64133044 -17.1056326 4.36510521 -34.51953125 4.09765625 C-32.02433798 1.60246298 -31.13755846 1.81705217 -27.6875 1.71875 C-26.72392578 1.68458984 -25.76035156 1.65042969 -24.76757812 1.61523438 C-23.75759766 1.58880859 -22.74761719 1.56238281 -21.70703125 1.53515625 C-19.72124331 1.47490316 -17.73555604 1.41121393 -15.75 1.34375 C-14.86723389 1.31982178 -13.98446777 1.29589355 -13.07495117 1.27124023 C-10.51640002 1.15484437 -10.51640002 1.15484437 -8.03759766 0.58837891 C-5.29693955 0.05427741 -2.79065304 -0.01559024 0 0 Z " fill="#40099E" transform="translate(442.51953125,152.90234375)"/>
<path d="M0 0 C0.33 0 0.66 0 1 0 C0.56685586 9.03769823 -0.9818892 17.6137708 -2.95629883 26.41235352 C-3.44330068 28.58841911 -3.91473013 30.76747907 -4.38476562 32.94726562 C-4.69180168 34.34134583 -4.99971161 35.73523392 -5.30859375 37.12890625 C-5.58501709 38.37744385 -5.86144043 39.62598145 -6.14624023 40.91235352 C-7 44 -7 44 -9 47 C-8.38665606 38.20168697 -6.69944381 29.63666057 -5 21 C-4.70029297 19.40865234 -4.70029297 19.40865234 -4.39453125 17.78515625 C-4.13736328 16.43744141 -4.13736328 16.43744141 -3.875 15.0625 C-3.72804688 14.29035156 -3.58109375 13.51820313 -3.4296875 12.72265625 C-3 11 -3 11 -2 10 C-1.79300437 8.50503158 -1.63320741 7.0033408 -1.5 5.5 C-1.11111111 1.11111111 -1.11111111 1.11111111 0 0 Z " fill="#2319B7" transform="translate(272,592)"/>
<path d="M0 0 C0.33 0 0.66 0 1 0 C0.27510048 9.13373399 -1.35555826 17.99131914 -3 27 C2.61 27 8.22 27 14 27 C14 27.33 14 27.66 14 28 C7.4 28.66 0.8 29.32 -6 30 C-4.81425304 19.62471413 -2.92935117 10.02520668 0 0 Z " fill="#C43B70" transform="translate(258,186)"/>
<path d="M0 0 C0 0.33 0 0.66 0 1 C-0.69037354 1.08040527 -1.38074707 1.16081055 -2.09204102 1.24365234 C-5.24959275 1.61481756 -8.40601991 1.99483332 -11.5625 2.375 C-12.64853516 2.50132812 -13.73457031 2.62765625 -14.85351562 2.7578125 C-21.47759585 3.53623148 -21.47759585 3.53623148 -27.9375 5.125 C-31.10235878 6.02924537 -33.20277684 6.06811276 -36.4375 5.625 C-37.30246094 5.51414062 -38.16742187 5.40328125 -39.05859375 5.2890625 C-40.01958984 5.14597656 -40.01958984 5.14597656 -41 5 C-40.67 4.34 -40.34 3.68 -40 3 C-37.72192383 2.49755859 -37.72192383 2.49755859 -34.70703125 2.1484375 C-33.6072998 2.01928955 -32.50756836 1.8901416 -31.37451172 1.75708008 C-30.19904785 1.63099365 -29.02358398 1.50490723 -27.8125 1.375 C-26.63187988 1.24311279 -25.45125977 1.11122559 -24.23486328 0.9753418 C-16.11630002 0.11191423 -8.16610905 -0.40088172 0 0 Z " fill="#2F1C91" transform="translate(566,712)"/>
<path d="M0 0 C0 0.33 0 0.66 0 1 C-0.68626465 1.05534912 -1.3725293 1.11069824 -2.07958984 1.16772461 C-5.17842435 1.42005303 -8.27669984 1.67869649 -11.375 1.9375 C-12.99535156 2.06801758 -12.99535156 2.06801758 -14.6484375 2.20117188 C-15.6796875 2.28818359 -16.7109375 2.37519531 -17.7734375 2.46484375 C-18.72653809 2.543396 -19.67963867 2.62194824 -20.66162109 2.70288086 C-23.01831795 2.87128174 -23.01831795 2.87128174 -25 4 C-27.24974161 4.15495763 -29.50371536 4.25010928 -31.7578125 4.31640625 C-32.75238968 4.3475779 -32.75238968 4.3475779 -33.76705933 4.37937927 C-35.88626694 4.44479231 -38.005599 4.50372105 -40.125 4.5625 C-41.56121081 4.60569309 -42.99740902 4.64930764 -44.43359375 4.69335938 C-47.95559594 4.80046499 -51.47773825 4.90175575 -55 5 C-55 4.67 -55 4.34 -55 4 C-49.73990854 3.4193205 -44.47872224 2.85026002 -39.21630859 2.29101562 C-37.43375438 2.10003912 -35.65151182 1.90612605 -33.86962891 1.70898438 C-22.52259093 0.45601568 -11.42170072 -0.28895378 0 0 Z " fill="#4B0A93" transform="translate(447,199)"/>
<path d="M0 0 C0 0.33 0 0.66 0 1 C-0.68626465 1.02505615 -1.3725293 1.0501123 -2.07958984 1.07592773 C-5.17825817 1.19171427 -8.27660923 1.31451885 -11.375 1.4375 C-12.45523438 1.47681641 -13.53546875 1.51613281 -14.6484375 1.55664062 C-15.6796875 1.59853516 -16.7109375 1.64042969 -17.7734375 1.68359375 C-18.72653809 1.72025146 -19.67963867 1.75690918 -20.66162109 1.79467773 C-23.02132349 1.85763465 -23.02132349 1.85763465 -25 3 C-33.30900794 4.00452186 -41.64156498 4.13554219 -50 4 C-50 3.67 -50 3.34 -50 3 C-33.25512702 0.12945035 -16.96960439 -0.36371432 0 0 Z " fill="#CA3D6C" transform="translate(507,193)"/>
<path d="M0 0 C1.67128932 2.94381488 2.27731759 5.17383394 2.4140625 8.546875 C2.45273437 9.39121094 2.49140625 10.23554688 2.53125 11.10546875 C2.57765625 12.41451172 2.57765625 12.41451172 2.625 13.75 C2.66367187 14.63816406 2.70234375 15.52632813 2.7421875 16.44140625 C2.83620873 18.6273998 2.92186143 20.81339062 3 23 C3.33 23 3.66 23 4 23 C3.76669209 25.65573896 3.52735501 28.31061462 3.27734375 30.96484375 C3.10496972 32.85124692 2.94837358 34.7392464 2.81640625 36.62890625 C2.75324219 37.41136719 2.69007813 38.19382812 2.625 39 C2.57601562 39.70125 2.52703125 40.4025 2.4765625 41.125 C1.87859158 43.47767248 0.74072012 44.36276341 -1 46 C-0.75443359 44.10121094 -0.75443359 44.10121094 -0.50390625 42.1640625 C0.32011975 33.92380248 0.10548588 25.64613258 0.0625 17.375 C0.05747477 15.68619924 0.05291368 13.99739704 0.04882812 12.30859375 C0.03790399 8.20569289 0.0206958 4.10286273 0 0 Z " fill="#524AD1" transform="translate(579,462)"/>
<path d="M0 0 C1.02577148 0.00676758 1.02577148 0.00676758 2.07226562 0.01367188 C3.73571604 0.0253044 5.3991205 0.04323306 7.0625 0.0625 C7.0625 0.3925 7.0625 0.7225 7.0625 1.0625 C-8.78294607 3.80549318 -24.87928757 4.33063342 -40.9375 4.0625 C-40.9375 3.7325 -40.9375 3.4025 -40.9375 3.0625 C-39.81106079 2.97947632 -39.81106079 2.97947632 -38.66186523 2.89477539 C-35.23272322 2.64063754 -31.80386475 2.38285063 -28.375 2.125 C-27.19357422 2.03798828 -26.01214844 1.95097656 -24.79492188 1.86132812 C-20.20192392 1.51395853 -15.65264729 1.1671557 -11.09375 0.5 C-7.36481719 -0.01688178 -3.76274322 -0.03329861 0 0 Z " fill="#311D82" transform="translate(401.9375,725.9375)"/>
<path d="M0 0 C1.07174763 3.65188082 0.76411467 6.26432828 0 10 C-0.66 10 -1.32 10 -2 10 C-2.04898438 10.67804687 -2.09796875 11.35609375 -2.1484375 12.0546875 C-2.66564213 18.49299341 -3.59181121 24.69732977 -5 31 C-7.31 31 -9.62 31 -12 31 C-12 30.67 -12 30.34 -12 30 C-10.35 30 -8.7 30 -7 30 C-7.020625 29.195625 -7.04125 28.39125 -7.0625 27.5625 C-7 25 -7 25 -6 24 C-5.81475208 22.62975346 -5.6769414 21.2529679 -5.5625 19.875 C-4.84052161 12.84404117 -2.52880775 6.55191099 0 0 Z " fill="#E7C75A" transform="translate(644,674)"/>
<path d="M0 0 C1.86398437 0.01353516 1.86398437 0.01353516 3.765625 0.02734375 C6.80229004 0.05070271 9.83853853 0.08345717 12.875 0.125 C12.875 0.455 12.875 0.785 12.875 1.125 C12.1543335 1.18034912 11.43366699 1.23569824 10.69116211 1.29272461 C7.39808909 1.54697408 4.10529747 1.80470742 0.8125 2.0625 C-0.8880957 2.19301758 -0.8880957 2.19301758 -2.62304688 2.32617188 C-9.39200598 2.84271088 -9.39200598 2.84271088 -16.125 3.6875 C-18.82704114 4.08154767 -21.3376552 4.22942069 -24.0625 4.1875 C-24.83464844 4.17847656 -25.60679687 4.16945313 -26.40234375 4.16015625 C-26.97082031 4.14855469 -27.53929687 4.13695312 -28.125 4.125 C-19.39867588 -0.5749286 -9.65698441 -0.13441199 0 0 Z " fill="#D6B660" transform="translate(554.125,710.875)"/>
<path d="M0 0 C-3.63002273 2.25280305 -6.91194458 2.35580521 -11.125 2.5625 C-15.72633179 2.63762616 -15.72633179 2.63762616 -20 4 C-21.53668865 4.22467831 -23.07968054 4.40796805 -24.625 4.5625 C-25.85089844 4.68818359 -25.85089844 4.68818359 -27.1015625 4.81640625 C-28.04128906 4.90728516 -28.04128906 4.90728516 -29 5 C-29.12375 6.134375 -29.2475 7.26875 -29.375 8.4375 C-29.58125 9.613125 -29.7875 10.78875 -30 12 C-30.99 12.495 -30.99 12.495 -32 13 C-31.85957123 11.35369672 -31.71250671 9.70795821 -31.5625 8.0625 C-31.48128906 7.14597656 -31.40007812 6.22945312 -31.31640625 5.28515625 C-31 3 -31 3 -30 2 C-28.37858917 1.77208859 -26.74852152 1.60507922 -25.1171875 1.46484375 C-24.11429687 1.37783203 -23.11140625 1.29082031 -22.078125 1.20117188 C-21.02109375 1.11416016 -19.9640625 1.02714844 -18.875 0.9375 C-17.32425781 0.80118164 -17.32425781 0.80118164 -15.7421875 0.66210938 C-10.47518778 0.21535493 -5.28564873 -0.11230132 0 0 Z " fill="#D2B267" transform="translate(395,683)"/>
<path d="M0 0 C0.33 0 0.66 0 1 0 C1.25909505 4.08199488 1.47660278 8.16525392 1.6875 12.25 C1.76033203 13.38953125 1.83316406 14.5290625 1.90820312 15.703125 C2.285744 23.52044186 1.73048081 30.60227504 -1 38 C-1.66 38.66 -2.32 39.32 -3 40 C-2.85737588 38.4372038 -2.71074489 36.87477304 -2.5625 35.3125 C-2.48128906 34.44238281 -2.40007813 33.57226562 -2.31640625 32.67578125 C-2 30 -2 30 -1.5 27.70507812 C-0.96100785 24.78904637 -0.78995735 22.00595471 -0.68359375 19.04296875 C-0.62075195 17.37524414 -0.62075195 17.37524414 -0.55664062 15.67382812 C-0.51732422 14.52333984 -0.47800781 13.37285156 -0.4375 12.1875 C-0.39431641 11.01767578 -0.35113281 9.84785156 -0.30664062 8.64257812 C-0.20081721 5.76182969 -0.09873175 2.88099877 0 0 Z " fill="#433AC0" transform="translate(579,306)"/>
<path d="M0 0 C-0.33 3.63 -0.66 7.26 -1 11 C-1.33 11 -1.66 11 -2 11 C-2 8.03 -2 5.06 -2 2 C-14.375 2.495 -14.375 2.495 -27 3 C-27 2.67 -27 2.34 -27 2 C-17.86970027 0.09572892 -9.28145408 -0.22823248 0 0 Z " fill="#D0B26A" transform="translate(647,661)"/>
<path d="M0 0 C0.33 0.66 0.66 1.32 1 2 C0.07421875 3.9453125 0.07421875 3.9453125 -1.3125 6.125 C-1.76238281 6.84945312 -2.21226562 7.57390625 -2.67578125 8.3203125 C-3.11277344 8.87460937 -3.54976562 9.42890625 -4 10 C-4.66 10 -5.32 10 -6 10 C-6 11.32 -6 12.64 -6 14 C-6.99 14 -7.98 14 -9 14 C-8.67 15.32 -8.34 16.64 -8 18 C-9.12073862 18.83905565 -10.24674547 19.67107831 -11.375 20.5 C-12.00148438 20.9640625 -12.62796875 21.428125 -13.2734375 21.90625 C-15 23 -15 23 -17 23 C-15.6466535 20.01081234 -14.10289617 17.83637425 -11.875 15.4375 C-7.51443699 10.58120983 -3.76667917 5.32226874 0 0 Z " fill="#2A20B7" transform="translate(559,553)"/>
<path d="M0 0 C-4.25572032 2.83714688 -7.36484417 3.12575087 -12.421875 3.09765625 C-13.44667969 3.09443359 -14.47148437 3.09121094 -15.52734375 3.08789062 C-16.59082031 3.07951172 -17.65429688 3.07113281 -18.75 3.0625 C-19.82894531 3.05798828 -20.90789062 3.05347656 -22.01953125 3.04882812 C-24.67974383 3.03705727 -27.33984365 3.02061399 -30 3 C-30 2.67 -30 2.34 -30 2 C-9.46808511 -0.38297872 -9.46808511 -0.38297872 0 0 Z " fill="#533E7F" transform="translate(446,722)"/>
<path d="M0 0 C1 1 1 1 1.0625 4.0625 C1.041875 5.031875 1.02125 6.00125 1 7 C0.01 7.495 0.01 7.495 -1 8 C-1 6.02 -1 4.04 -1 2 C-2.43279297 2.10828125 -2.43279297 2.10828125 -3.89453125 2.21875 C-11.61440154 2.77291816 -19.25465097 3.14492337 -27 3 C-27 2.67 -27 2.34 -27 2 C-24.18814406 1.66027199 -21.37571764 1.32809788 -18.5625 1 C-17.3878418 0.85691406 -17.3878418 0.85691406 -16.18945312 0.7109375 C-10.75660571 0.08493039 -5.47017479 -0.17245871 0 0 Z " fill="#2B1790" transform="translate(648,659)"/>
<path d="M0 0 C0.66 0.33 1.32 0.66 2 1 C-1.44615385 6.78461538 -1.44615385 6.78461538 -4.25 7.875 C-4.8275 7.91625 -5.405 7.9575 -6 8 C-6 8.99 -6 9.98 -6 11 C-9 13 -9 13 -12.1875 12.625 C-13.5796875 12.315625 -13.5796875 12.315625 -15 12 C-10 8 -5 4 0 0 Z " fill="#2316BA" transform="translate(521,594)"/>
<path d="M0 0 C-3.54082916 2.1244975 -6.94991891 2.46508363 -11 3 C-11.33 3.33 -11.66 3.66 -12 4 C-14.69654854 4.07319621 -17.36691458 4.09242537 -20.0625 4.0625 C-20.82111328 4.05798828 -21.57972656 4.05347656 -22.36132812 4.04882812 C-24.24091871 4.0370068 -26.12046899 4.01907078 -28 4 C-25.00052887 1.00052887 -21.42094269 1.26988401 -17.375 0.875 C-16.59253906 0.78863281 -15.81007813 0.70226562 -15.00390625 0.61328125 C-9.97634481 0.08801364 -5.05387842 -0.08095457 0 0 Z " fill="#3D069D" transform="translate(280,213)"/>
<path d="M0 0 C-0.33 0.66 -0.66 1.32 -1 2 C-5.29 2 -9.58 2 -14 2 C-14 2.66 -14 3.32 -14 4 C-19.94 4 -25.88 4 -32 4 C-32 3.67 -32 3.34 -32 3 C-27.79232825 2.49432626 -23.58376747 1.9964646 -19.375 1.5 C-17.59029297 1.28537109 -17.59029297 1.28537109 -15.76953125 1.06640625 C-14.61582031 0.93105469 -13.46210938 0.79570313 -12.2734375 0.65625 C-11.21560059 0.53056641 -10.15776367 0.40488281 -9.06787109 0.27539062 C-6.02677773 0.00240373 -3.05147488 -0.04799174 0 0 Z " fill="#2F24BA" transform="translate(398,639)"/>
<path d="M0 0 C1.50433594 0.01353516 1.50433594 0.01353516 3.0390625 0.02734375 C3.80992187 0.03894531 4.58078125 0.05054688 5.375 0.0625 C5.375 0.3925 5.375 0.7225 5.375 1.0625 C-7.54049113 4.06542457 -20.44096221 4.21481879 -33.625 4.0625 C-33.625 3.7325 -33.625 3.4025 -33.625 3.0625 C-32.84785645 3.00715088 -32.07071289 2.95180176 -31.27001953 2.89477539 C-27.76301626 2.64255041 -24.25651963 2.38385826 -20.75 2.125 C-19.52667969 2.03798828 -18.30335938 1.95097656 -17.04296875 1.86132812 C-15.87636719 1.77431641 -14.70976562 1.68730469 -13.5078125 1.59765625 C-12.42902832 1.519104 -11.35024414 1.44055176 -10.23876953 1.35961914 C-6.55497051 0.94086485 -3.86443149 -0.04493525 0 0 Z " fill="#570F92" transform="translate(489.625,193.9375)"/>
<path d="M0 0 C0.66 0.33 1.32 0.66 2 1 C0.02 11.23 -1.96 21.46 -4 32 C-6.23332348 27.53335305 -6.04645297 26.45964853 -5.125 21.75 C-4.92132813 20.67234375 -4.71765625 19.5946875 -4.5078125 18.484375 C-4.34023438 17.66453125 -4.17265625 16.8446875 -4 16 C-3.34 16 -2.68 16 -2 16 C-1.93941406 15.26394531 -1.87882812 14.52789062 -1.81640625 13.76953125 C-1.73261719 12.79371094 -1.64882813 11.81789063 -1.5625 10.8125 C-1.48128906 9.84957031 -1.40007812 8.88664062 -1.31640625 7.89453125 C-1.02333849 5.21350398 -0.57296246 2.6337014 0 0 Z " fill="#3329BC" transform="translate(297,475)"/>
<path d="M0 0 C1.05960937 0.00676758 1.05960937 0.00676758 2.140625 0.01367188 C3.88545275 0.02546125 5.630237 0.04339676 7.375 0.0625 C7.375 0.3925 7.375 0.7225 7.375 1.0625 C2.755 1.3925 -1.865 1.7225 -6.625 2.0625 C-6.91375 3.5475 -7.2025 5.0325 -7.5 6.5625 C-8.40580087 11.10444437 -9.46283134 15.57984947 -10.625 20.0625 C-10.955 20.0625 -11.285 20.0625 -11.625 20.0625 C-11.86704069 13.62152835 -11.8864721 7.19081018 -9.625 1.0625 C-6.55966836 -0.47016582 -3.35745728 -0.04026471 0 0 Z " fill="#3B05A0" transform="translate(268.625,168.9375)"/>
<path d="M0 0 C0 0.33 0 0.66 0 1 C-6.91383514 3.13120646 -13.29881576 3.23698014 -20.5 3.125 C-21.60859375 3.11597656 -22.7171875 3.10695313 -23.859375 3.09765625 C-26.57314592 3.07426167 -29.28645545 3.04148175 -32 3 C-32 2.67 -32 2.34 -32 2 C-28.35475481 1.66002426 -24.70872831 1.32925063 -21.0625 1 C-19.53012695 0.85691406 -19.53012695 0.85691406 -17.96679688 0.7109375 C-11.94822031 0.17253448 -6.04236648 -0.10081112 0 0 Z " fill="#1D0B9B" transform="translate(638,706)"/>
<path d="M0 0 C0.33 0 0.66 0 1 0 C0.28621973 8.13709505 -1.32773882 16.01731928 -3 24 C-3.33 24 -3.66 24 -4 24 C-4 20.37 -4 16.74 -4 13 C-3.34 13 -2.68 13 -2 13 C-2 9.37 -2 5.74 -2 2 C-1.34 2 -0.68 2 0 2 C0 1.34 0 0.68 0 0 Z " fill="#251292" transform="translate(363,687)"/>
<path d="M0 0 C1.49828872 3.88235819 0.43110582 6.43449288 -0.9375 10.25 C-1.31777344 11.32765625 -1.69804688 12.4053125 -2.08984375 13.515625 C-2.39019531 14.33546875 -2.69054687 15.1553125 -3 16 C-3.66 16 -4.32 16 -5 16 C-5 17.32 -5 18.64 -5 20 C-5.99 20.33 -6.98 20.66 -8 21 C-6.75060914 16.10655245 -5.05595133 11.67996839 -2.953125 7.08984375 C-1.88880631 4.75619417 -0.92583281 2.39173476 0 0 Z " fill="#2217B7" transform="translate(576,346)"/>
<path d="M0 0 C0 0.33 0 0.66 0 1 C-10.395 1.99 -10.395 1.99 -21 3 C-21.66 4.65 -22.32 6.3 -23 8 C-23.625 6.1875 -23.625 6.1875 -24 4 C-23.34 3.01 -22.68 2.02 -22 1 C-19.0234375 0.48828125 -19.0234375 0.48828125 -15.375 0.3125 C-13.49554688 0.21582031 -13.49554688 0.21582031 -11.578125 0.1171875 C-7.71041878 -0.0094841 -3.86873105 -0.07737462 0 0 Z " fill="#B1367D" transform="translate(284,169)"/>
<path d="M0 0 C1.09371715 3.41990662 0.96287446 6.25568644 0.625 9.8125 C0.52574219 10.86566406 0.42648437 11.91882813 0.32421875 13.00390625 C-0.03825107 16.35347678 -0.47070705 19.67301575 -1 23 C-1.99 23 -2.98 23 -4 23 C-3.32545897 15.1753241 -1.73123042 7.65443386 0 0 Z " fill="#B0ACEF" transform="translate(320,372)"/>
<path d="M0 0 C4.95 0.33 9.9 0.66 15 1 C15 1.33 15 1.66 15 2 C12.29215006 2.33772739 9.58383004 2.67030687 6.875 3 C6.11445313 3.09539063 5.35390625 3.19078125 4.5703125 3.2890625 C0.35090048 3.79830188 -3.74004344 4.10888068 -8 4 C-5.08235 2.0549 -3.37462715 1.54723683 0 1 C0 0.67 0 0.34 0 0 Z " fill="#C5C0F5" transform="translate(332,642)"/>
<path d="M0 0 C0 3.69834896 -0.81364222 4.27081428 -3.25 6.9375 C-3.88550781 7.63746094 -4.52101563 8.33742188 -5.17578125 9.05859375 C-7.07727446 11.08223855 -8.99660415 13.07673998 -11 15 C-11.99 14.34 -12.98 13.68 -14 13 C-13.34 13 -12.68 13 -12 13 C-12 12.34 -12 11.68 -12 11 C-10.390625 9.4140625 -10.390625 9.4140625 -8.25 7.625 C-5.3756268 5.18382134 -2.61456008 2.72350008 0 0 Z " fill="#2013B5" transform="translate(541,576)"/>
<path d="M0 0 C0.33 0.66 0.66 1.32 1 2 C1.66 2 2.32 2 3 2 C3 2.99 3 3.98 3 5 C2.01 5.495 2.01 5.495 1 6 C1 8.64 1 11.28 1 14 C0.34 14 -0.32 14 -1 14 C-1.66 15.32 -2.32 16.64 -3 18 C-2.41509121 11.85845775 -1.45933748 5.99320151 0 0 Z " fill="#CFCCF8" transform="translate(291,509)"/>
<path d="M0 0 C5.61 0 11.22 0 17 0 C17 0.33 17 0.66 17 1 C16.08476562 1.06058594 15.16953125 1.12117187 14.2265625 1.18359375 C13.03804688 1.26738281 11.84953125 1.35117188 10.625 1.4375 C9.44164062 1.51871094 8.25828125 1.59992188 7.0390625 1.68359375 C4.08481099 1.81084936 4.08481099 1.81084936 2 3 C-0.2072923 3.07092842 -2.41667452 3.08415025 -4.625 3.0625 C-5.81351562 3.05347656 -7.00203125 3.04445312 -8.2265625 3.03515625 C-9.14179688 3.02355469 -10.05703125 3.01195312 -11 3 C-11 2.67 -11 2.34 -11 2 C-7.37 2 -3.74 2 0 2 C0 1.34 0 0.68 0 0 Z " fill="#2A01AB" transform="translate(447,198)"/>
<path d="M0 0 C0.33 0 0.66 0 1 0 C0.67 3.3 0.34 6.6 0 10 C4.29 10 8.58 10 13 10 C13 10.33 13 10.66 13 11 C8.05 11.33 3.1 11.66 -2 12 C-1 3.42857143 -1 3.42857143 0 0 Z " fill="#D0B170" transform="translate(358,718)"/>
<path d="M0 0 C6.27 0.33 12.54 0.66 19 1 C19 1.33 19 1.66 19 2 C12.62694402 2.74507544 6.41688675 3.10349817 0 3 C0 2.01 0 1.02 0 0 Z " fill="#E0DEFD" transform="translate(305,644)"/>
<path d="M0 0 C0.33 0 0.66 0 1 0 C0.51679152 6.2054142 -0.33318124 11.99945246 -2 18 C-2.33 18 -2.66 18 -3 18 C-2.88566637 15.74943278 -2.75813564 13.49953326 -2.625 11.25 C-2.55539062 9.99703125 -2.48578125 8.7440625 -2.4140625 7.453125 C-2.04676696 4.39001879 -1.60288714 2.58025734 0 0 Z " fill="#382684" transform="translate(358,712)"/>
<path d="M0 0 C0 0.66 0 1.32 0 2 C-1.32 2.33 -2.64 2.66 -4 3 C-4 3.66 -4 4.32 -4 5 C-6.64 5.99 -9.28 6.98 -12 8 C-12.66 7.34 -13.32 6.68 -14 6 C-12.04414675 4.99515796 -10.08523763 3.99626195 -8.125 3 C-6.48917969 2.1646875 -6.48917969 2.1646875 -4.8203125 1.3125 C-2 0 -2 0 0 0 Z " fill="#3027BE" transform="translate(495,613)"/>
<path d="M0 0 C0.33 0 0.66 0 1 0 C2.25316456 7.24050633 2.25316456 7.24050633 1 11 C1 11.66 1 12.32 1 13 C0.34 13 -0.32 13 -1 13 C-1.33 14.32 -1.66 15.64 -2 17 C-3.44715727 13.12813552 -2.5441918 10.1767672 -1.5625 6.25 C-1.27503906 5.07953125 -0.98757813 3.9090625 -0.69140625 2.703125 C-0.46324219 1.81109375 -0.23507812 0.9190625 0 0 Z " fill="#B5B0F1" transform="translate(275,584)"/>
<path d="M0 0 C0.66 0.33 1.32 0.66 2 1 C1.67 1.99 1.34 2.98 1 4 C3.31 4.66 5.62 5.32 8 6 C4.45332822 7.25127906 2.27746562 6.72285053 -1.25 5.5625 C-2.14203125 5.27503906 -3.0340625 4.98757813 -3.953125 4.69140625 C-4.62859375 4.46324219 -5.3040625 4.23507812 -6 4 C-3.94766315 1.7522025 -2.99332739 0.9977758 0 0 Z " fill="#4137BD" transform="translate(528,405)"/>
<path d="M0 0 C1.13583456 3.71727674 0.66670026 5.47051709 -1 9 C-1.66 9 -2.32 9 -3 9 C-3.66 10.65 -4.32 12.3 -5 14 C-5.66 14 -6.32 14 -7 14 C-5.23570801 9.02790438 -2.6060834 4.56561939 0 0 Z " fill="#2418BA" transform="translate(567,539)"/>
<path d="M0 0 C1.07174763 3.65188082 0.76411467 6.26432828 0 10 C-0.66 10 -1.32 10 -2 10 C-2 11.98 -2 13.96 -2 16 C-2.33 16 -2.66 16 -3 16 C-3.33266291 9.79029227 -2.45029331 5.71735105 0 0 Z " fill="#CDAF60" transform="translate(644,674)"/>
<path d="M0 0 C0.66 0 1.32 0 2 0 C1.719172 1.98073365 1.42503386 3.95958448 1.125 5.9375 C0.88136719 7.59072266 0.88136719 7.59072266 0.6328125 9.27734375 C0.42398437 10.17582031 0.21515625 11.07429688 0 12 C-0.99 12.495 -0.99 12.495 -2 13 C-2.19294408 8.17639811 -1.75747614 4.50353262 0 0 Z " fill="#2D22B9" transform="translate(341,268)"/>
<path d="M0 0 C0.598125 0.226875 1.19625 0.45375 1.8125 0.6875 C-0.96030706 3.76839673 -3.25076356 5.37525452 -7.1875 6.6875 C-3.9375 -0.5625 -3.9375 -0.5625 0 0 Z " fill="#2618C0" transform="translate(549.1875,569.3125)"/>
<path d="M0 0 C0.66 0 1.32 0 2 0 C3.21380846 5.34075724 3.21380846 5.34075724 2.25 8.3125 C1 10 1 10 -2 11 C-1.34 7.37 -0.68 3.74 0 0 Z " fill="#2418B9" transform="translate(577,510)"/>
<path d="M0 0 C5.28 0.33 10.56 0.66 16 1 C16 1.33 16 1.66 16 2 C8.08 2.495 8.08 2.495 0 3 C0 2.01 0 1.02 0 0 Z " fill="#F7D13B" transform="translate(561,708)"/>
<path d="M0 0 C0.33 0 0.66 0 1 0 C0.8858134 1.93816735 0.75826577 3.87555099 0.625 5.8125 C0.55539062 6.89144531 0.48578125 7.97039063 0.4140625 9.08203125 C0 12 0 12 -2 15 C-2.5625 13.0625 -2.5625 13.0625 -3 11 C-2.67 10.67 -2.34 10.34 -2 10 C-1.79300437 8.50503158 -1.63320741 7.0033408 -1.5 5.5 C-1.11111111 1.11111111 -1.11111111 1.11111111 0 0 Z " fill="#180BB4" transform="translate(272,592)"/>
<path d="M0 0 C0.33 0 0.66 0 1 0 C1 3.96 1 7.92 1 12 C0.34 12 -0.32 12 -1 12 C-1 13.98 -1 15.96 -1 18 C-1.33 18 -1.66 18 -2 18 C-2.23268915 11.71739294 -1.40454548 6.11980533 0 0 Z " fill="#2A03AE" transform="translate(544,146)"/>
<path d="M0 0 C-1.625 2.0625 -1.625 2.0625 -4 4 C-7.25 3.75 -7.25 3.75 -10 3 C-7.29536552 -0.8183075 -4.37912428 -0.24787496 0 0 Z " fill="#1D0EC6" transform="translate(516,603)"/>
<path d="M0 0 C-1.20703125 1.51953125 -1.20703125 1.51953125 -3 3 C-5.26171875 3.07421875 -5.26171875 3.07421875 -7.6875 2.6875 C-8.89986328 2.50767578 -8.89986328 2.50767578 -10.13671875 2.32421875 C-10.75160156 2.21722656 -11.36648438 2.11023438 -12 2 C-7.66032699 -0.21504143 -4.80574417 -1.54470348 0 0 Z " fill="#CDC9F7" transform="translate(456,389)"/>
<path d="M0 0 C0.33 0 0.66 0 1 0 C1 2.31 1 4.62 1 7 C3.97 7 6.94 7 10 7 C10 7.33 10 7.66 10 8 C6.37 8.33 2.74 8.66 -1 9 C-0.67 6.03 -0.34 3.06 0 0 Z " fill="#A5378E" transform="translate(253,207)"/>
<path d="M0 0 C0.33 0 0.66 0 1 0 C0.47462276 5.0302076 -0.10594786 10.01885239 -1 15 C-1.33 15 -1.66 15 -2 15 C-2.3690205 4.44191344 -2.3690205 4.44191344 0 0 Z " fill="#2A01A7" transform="translate(255,192)"/>
<path d="M0 0 C4.62 0 9.24 0 14 0 C14 0.33 14 0.66 14 1 C12.8553125 1.2165625 12.8553125 1.2165625 11.6875 1.4375 C8.91827092 1.9632594 8.91827092 1.9632594 6 3 C3.99124558 2.72428861 1.98821313 2.39764263 0 2 C0 1.34 0 0.68 0 0 Z " fill="#3B31C7" transform="translate(261,650)"/>
<path d="M0 0 C-1.29299694 2.88437779 -2.65941363 4.87219421 -5 7 C-5.99 6.67 -6.98 6.34 -8 6 C-6.68 5.34 -5.36 4.68 -4 4 C-4 3.01 -4 2.02 -4 1 C-2 0 -2 0 0 0 Z " fill="#1808C2" transform="translate(499,611)"/>
<path d="M0 0 C0.66 0.33 1.32 0.66 2 1 C0.125 5.75 0.125 5.75 -1 8 C-1.99 8 -2.98 8 -4 8 C-2.66666667 5.33333333 -1.33333333 2.66666667 0 0 Z " fill="#2D1FC0" transform="translate(565,370)"/>
<path d="M0 0 C1.3271261 3.9813783 1.06915913 7.85045227 1 12 C0.01 12.33 -0.98 12.66 -2 13 C-1.85851011 11.3954444 -1.71164314 9.79136233 -1.5625 8.1875 C-1.48128906 7.29417969 -1.40007812 6.40085937 -1.31640625 5.48046875 C-1 3 -1 3 0 0 Z " fill="#C1BDF6" transform="translate(338,289)"/>
<path d="M0 0 C0.96516243 3.00272755 1.22393475 5.04215769 0 8 C-0.99 8.33 -1.98 8.66 -3 9 C-2.30058404 5.85262818 -1.23921302 2.97411124 0 0 Z " fill="#261CBF" transform="translate(573,526)"/>
<path d="M0 0 C0.94875 0.04125 1.8975 0.0825 2.875 0.125 C-1.75 4.125 -1.75 4.125 -5.125 4.125 C-5.125 0.41389311 -3.38352144 0.13534086 0 0 Z " fill="#1C12B7" transform="translate(431.125,542.875)"/>
<path d="M0 0 C2.0625 0.4375 2.0625 0.4375 4 1 C3.34 1 2.68 1 2 1 C1.67 1.99 1.34 2.98 1 4 C0.03126968 5.35622245 -0.96434215 6.69417053 -2 8 C-1.125 1.125 -1.125 1.125 0 0 Z " fill="#BDBBF8" transform="translate(347,250)"/>
</svg>
