<?xml version="1.0" encoding="UTF-8" standalone="no"?>
<svg
   version="1.1"
   width="595.27557pt"
   height="841.88977pt"
   id="svg21"
   viewBox="0 0 595.27557 841.88977"
   sodipodi:docname="britanico-380.cdr"
   xmlns:inkscape="http://www.inkscape.org/namespaces/inkscape"
   xmlns:sodipodi="http://sodipodi.sourceforge.net/DTD/sodipodi-0.dtd"
   xmlns="http://www.w3.org/2000/svg"
   xmlns:svg="http://www.w3.org/2000/svg">
  <defs
     id="defs21" />
  <sodipodi:namedview
     id="namedview21"
     pagecolor="#ffffff"
     bordercolor="#000000"
     borderopacity="0.25"
     inkscape:showpageshadow="2"
     inkscape:pageopacity="0.0"
     inkscape:pagecheckerboard="0"
     inkscape:deskcolor="#d1d1d1"
     inkscape:document-units="pt" />
  <g
     id="Layer1000">
    <path
       d="m 374.542,533.0312 c 0,9.5916 6.5107,15.1111 15.7996,15.1111 9.3375,0 15.8485,-5.5195 15.8485,-15.1111 0,-9.5927 -6.511,-15.1161 -15.8485,-15.1161 -9.2889,0 -15.7996,5.5234 -15.7996,15.1161 z m -178.8615,-0.038 h 1.9066 c 5.6101,0 9.2781,1.1326 9.2781,5.9505 0,4.56 -3.1543,7.0939 -6.7951,7.0939 -1.5212,0 -3.0845,-0.0878 -4.1336,-0.2122 -0.0911,-2.8198 -0.256,-5.7002 -0.256,-8.5266 z m 206.3668,0.038 c 0,9.3683 -5.0682,13.5501 -11.7057,13.5501 -6.5889,0 -11.6496,-4.1818 -11.6496,-13.5501 0,-9.3769 5.0607,-13.559 11.6496,-13.559 6.6375,0 11.7057,4.1821 11.7057,13.559 z m -31.1063,10.2118 -0.1528,-0.1523 c -1.6102,1.225 -4.5661,3.4906 -8.5867,3.4906 -6.6282,0 -11.6981,-4.1818 -11.6981,-13.5501 0,-9.3793 5.0699,-13.559 11.6981,-13.559 3.966,0 6.8426,2.4514 8.0325,3.7637 l 0.2515,-0.0837 c 0.172,-0.898 0.4555,-2.539 0.8961,-3.3012 -2.2908,-1.0553 -5.5465,-1.938 -9.1801,-1.938 -9.3386,0 -15.8422,5.5255 -15.8422,15.1182 0,9.5898 6.5036,15.1111 15.4181,15.1111 4.2334,0 7.7369,-1.561 8.7878,-2.3906 z m -33.9575,-6.5812 c 0,3.6255 -0.1727,7.3149 -0.3315,10.9401 0.7077,-0.1241 1.3913,-0.2074 2.066,-0.2074 0.6798,0 1.3566,0.0833 2.0766,0.2074 -0.1733,-3.6252 -0.3471,-7.3146 -0.3471,-10.9401 v -7.2606 c 0,-3.6258 0.1738,-7.3085 0.3471,-10.9364 -0.72,0.1211 -1.3968,0.2086 -2.0766,0.2086 -0.6747,0 -1.3583,-0.0875 -2.066,-0.2086 0.1588,3.6279 0.3315,7.3106 0.3315,10.9364 z m -8.4982,11.4805 c -0.0387,-1.8988 -0.1232,-11.232 -0.1232,-15.5358 0,-3.2922 0.4166,-11.6555 0.6795,-14.1417 -0.4613,0.1211 -0.889,0.2086 -1.3512,0.2086 -0.4682,0 -0.9828,-0.0875 -1.4429,-0.2086 0.3312,6.4987 0.3312,14.734 0.3312,22.2922 -5.1425,-5.1994 -14.4692,-15.3697 -21.3563,-22.844 h -0.6732 c 0.1199,1.8991 0.1199,5.9936 0.1199,11.3216 0,5.5683 -0.5414,16.3756 -0.8866,18.3673 0.5524,-0.1241 1.0637,-0.2074 1.5654,-0.2074 0.4985,0 1.0089,0.0833 1.4699,0.2074 -0.2092,-1.6914 -0.3755,-10.6074 -0.3755,-14.2365 0,-4.474 0.0836,-7.0043 0.1214,-8.5716 7.2228,7.691 14.9124,15.796 21.3317,23.3485 z m -38.6654,-13.8069 c -1.5481,0.0467 -3.1577,0.0926 -4.7181,0.0926 -1.4797,0 -3.0863,-0.0926 -4.5646,-0.0926 l 4.6132,-10.7294 z m -4.0844,-16.4224 c -4.3066,9.9596 -8.6937,19.8021 -13.2193,29.6889 0.547,-0.1241 1.055,-0.2074 1.5721,-0.2074 0.4957,0 1.0116,0.0833 1.5499,0.2074 0.7268,-2.664 2.3259,-6.9669 4.094,-11.3186 1.736,-0.0468 3.4274,-0.089 5.1601,-0.089 1.8634,0 3.7164,0.0422 5.5279,0.089 1.5205,3.7583 3.5404,8.4013 4.3524,11.3186 0.7652,-0.1241 1.4819,-0.2074 2.23,-0.2074 0.7688,0 1.4824,0.0833 2.25,0.2074 -2.25,-4.5112 -8.5845,-19.9025 -12.7172,-29.6889 z m -24.2958,18.7488 c 0,3.6255 -0.1637,7.3149 -0.3342,10.9401 0.7169,-0.1241 1.3988,-0.2074 2.0678,-0.2074 0.6783,0 1.3608,0.0833 2.0673,0.2074 -0.1592,-3.6252 -0.3313,-7.3146 -0.3313,-10.9401 v -7.2606 c 0,-2.9199 0.0384,-5.8237 0.1196,-8.7478 2.9203,0 6.6852,0.1672 9.0501,0.4682 -0.1316,-0.4154 -0.2251,-0.8944 -0.2251,-1.3095 0,-0.4703 0.0935,-0.886 0.2251,-1.3473 -3.6384,0.1211 -7.2718,0.2086 -10.9057,0.2086 -3.6219,0 -7.2648,-0.0875 -10.8877,-0.2086 0.1136,0.4613 0.2057,0.877 0.2057,1.3095 0,0.4529 -0.0921,0.9319 -0.2057,1.3473 2.358,-0.301 6.1217,-0.4682 9.0342,-0.4682 0.0812,2.9241 0.119,5.8279 0.119,8.7478 z m -17.6067,0 c 0,3.6255 -0.1655,7.3149 -0.3411,10.9401 0.7277,-0.1241 1.403,-0.2074 2.0639,-0.2074 0.6933,0 1.3692,0.0833 2.0691,0.2074 -0.1541,-3.6252 -0.3205,-7.3146 -0.3205,-10.9401 v -7.2606 c 0,-3.6258 0.1664,-7.3085 0.3205,-10.9364 -0.6999,0.1211 -1.3758,0.2086 -2.0691,0.2086 -0.6609,0 -1.3362,-0.0875 -2.0639,-0.2086 0.1756,3.6279 0.3411,7.3106 0.3411,10.9364 z m -25.8157,0 c 0,3.6255 -0.1598,7.3149 -0.3315,10.9401 0.722,-0.1241 1.3895,-0.2074 2.0831,-0.2074 0.6693,0 1.3413,0.0833 2.0531,0.2074 -0.1681,-3.6252 -0.3357,-7.3146 -0.3357,-10.9401 v -3.1003 h 1.6084 c 3.6306,3.6977 9.2463,11.4729 10.9422,14.0404 0.8024,-0.1241 1.6476,-0.2074 2.4392,-0.2074 0.8372,0 1.7025,0.0833 2.5435,0.2074 -2.4434,-2.7392 -9.5047,-11.8261 -11.5698,-14.4031 3.2008,-0.4226 8.6448,-2.6109 8.6448,-8.0633 0,-5.0132 -4.0026,-6.6707 -8.7674,-6.6707 -1.6207,0 -3.2158,0.2086 -4.823,0.2086 -1.6119,0 -3.2098,-0.0875 -4.8184,-0.2086 0.1717,3.6279 0.3315,7.3106 0.3315,10.9364 z m 3.469,-7.2606 c 0,-3.0401 0.1316,-6.079 0.2491,-9.174 0.886,-0.0737 2.1584,-0.2119 4.1072,-0.2119 2.8741,0 6.535,1.1063 6.535,5.5321 0,5.0405 -4.5975,6.4681 -8.0558,6.4681 -1.0994,0 -2.0789,-0.0402 -2.8355,-0.2176 z m -25.8058,2.0262 v -3.1717 c 0,-2.6595 0.164,-5.3681 0.256,-8.0312 0.8006,-0.1022 1.7735,-0.2068 3.2122,-0.2068 3.2056,0 6.8749,0.7661 6.8749,5.3219 3e-4,4.6917 -4.0994,6.0878 -8.0678,6.0878 z m -3.4666,5.1907 c 0,3.6216 -0.1637,7.3007 -0.3447,10.9838 1.3584,-0.1241 2.741,-0.2074 4.1051,-0.2074 1.3524,0 2.7536,0.2074 4.0958,0.2074 4.8967,0 10.6859,-2.2375 10.6859,-8.4916 0,-4.8112 -3.0731,-6.8428 -8.1083,-7.0921 v -0.0912 c 4.2175,-0.9357 7.0907,-3.249 7.0907,-7.3855 0,-4.7672 -4.0916,-6.0812 -8.904,-6.0812 -1.4807,0 -3.0042,0.2131 -4.4837,0.2131 -1.4803,0 -2.9955,-0.0929 -4.4815,-0.2131 0.181,3.5982 0.3447,7.2618 0.3447,10.8993 z"
       style="fill:#1b1918;fill-rule:evenodd"
       id="path1" />
    <path
       d="m 188.9594,511.1629 217.275,0.0812 0.0815,-217.2674 c -1.7185,-0.4194 -51.1128,-0.1344 -54.2376,-0.1347 l -149.4115,2e-4 c -2.3903,-10e-5 -12.0996,-0.2924 -13.6618,0.1515 z"
       style="fill:#8899b3;fill-rule:evenodd"
       id="path2" />
    <path
       d="m 189.1732,511.0223 216.916,-3e-4 0.008,-216.9742 -216.9426,0.0126 z"
       style="fill:#183980;fill-rule:evenodd"
       id="path3" />
    <path
       d="m 401.0271,298.9148 -206.8057,-0.003 -0.1005,207.1301 207.0083,0.002 c 0.2055,-17.1926 0.0106,-34.5083 0.004,-51.697 l -2e-4,-142.3461 c 0,-3.1255 0.3785,-10.4497 -0.1061,-13.0863 z"
       style="fill:#ffffff;fill-rule:evenodd"
       id="path4" />
    <path
       d="m 198.9029,493.3645 58.2149,-57.887 c -0.4853,-0.7844 -1.6889,-1.3601 -2.4483,-1.9639 -0.7766,-0.6174 -1.5943,-1.4494 -2.3342,-2.2317 -8.7459,-9.2482 -3.9329,-18.2909 -3.7432,-20.7815 -1.1314,-1.1628 -5.2315,-5.3746 -6.2346,-6.0702 -1.1791,0.4741 -3.7258,3.4188 -5.4496,4.3595 -5.1505,2.8105 -11.5901,-2.6395 -8.9173,-8.5007 0.8128,-1.7823 3.1243,-4.8556 3.5467,-6.4129 l -16.2396,-15.9556 c -0.9839,-0.9397 -15.6306,-15.4994 -16.3624,-15.832 z"
       style="fill:#d9242b;fill-rule:evenodd"
       id="path5" />
    <path
       d="m 348.1445,380.161 c -1.6848,1.6871 -11.1011,9.0495 -13.184,10.7274 -2.1384,1.7225 -4.3921,3.4003 -6.7972,5.0449 -1.0599,0.7247 -2.5781,2.1101 -4.0398,1.3861 -0.8421,-0.4171 -2.9652,-1.7571 -3.5706,-2.4043 l 4.0865,-3.1243 c 1.7456,-1.3733 12.0308,-9.1009 12.622,-10.0645 l -41.0826,-0.005 c -0.7772,0.6042 -7.6133,14.0416 -8.75,16.0817 l -8.7418,16.1954 c -0.7351,1.4031 -6.0115,10.8901 -6.9428,11.7594 -2.1271,1.9854 -10.0432,0.7023 -12.1835,-5.0282 -1.455,-3.8956 0.7832,-7.1025 2.3139,-9.4191 1.6418,-2.4849 3.1337,-4.8849 4.785,-7.473 1.4769,-2.3147 3.599,-5.1188 4.3865,-8.092 3.005,-11.3454 -9.8532,-17.4773 -19.1294,-17.5111 -0.5826,-0.002 -2.4788,0.0251 -2.9262,0.202 -0.8882,0.3513 -3.1886,4.9972 -3.6293,5.7693 -0.7095,1.2427 -8.6134,14.8027 -8.9363,15.7863 l 13.8254,-12.1419 c 2.1595,-1.9002 4.2777,-4.2383 6.9022,-4.5171 4.6423,-0.4932 11.5896,4.5847 8.6662,12.5922 -1.7606,4.8223 -9.7631,14.0237 -11.1144,19.0132 -1.4576,5.382 0.1167,8.2143 2.6866,11.2802 2.0083,2.3957 5.4659,4.7253 10.1315,5.0675 0.7947,1.9782 10.8588,17.8004 11.1683,19.1123 l -5.1539,4.9306 5.6457,20.1864 c -2.1646,0.4225 -3.6773,1.7379 -3.1214,4.3427 0.556,2.605 2.3627,2.4959 4.948,2.1192 0.7144,1.0031 1.2639,3.6235 4.5685,3.1669 2.8666,-0.396 2.8485,-2.3865 2.5787,-5.0298 1.1313,-0.5088 1.5993,-0.174 2.4647,-1.1973 0.585,-0.6917 0.8476,-1.8728 0.5888,-2.976 -0.6071,-2.5871 -2.6064,-2.26 -5.1486,-2.2831 l -4.0067,-14.3136 c 1.0336,-0.6351 2.1622,-1.6456 3.1964,-2.4177 l 6.4964,-4.9325 c 5.5086,-4.2575 5.6933,-3.7994 5.2663,-11.5713 -0.1957,-3.5616 -0.5804,-7.4904 -0.5816,-11.0097 4.7684,-3.372 11.1002,-8.5281 16.1541,-12.2718 1.8119,-1.3421 3.8383,-2.8058 5.3898,-4.1093 -0.3936,-0.7196 -1.6097,-1.6949 -2.2733,-2.3157 -2.2263,-2.0828 -4.3861,-4.4698 -7.0467,-6.8373 0.3591,-0.5747 3.993,-3.2669 4.8385,-3.5985 1.1176,1.4386 2.9968,3.1146 4.1236,4.1575 6.3429,5.8703 8.1548,2.4976 16.1503,-3.5197 l 19.349,-14.559 c 1.1688,0.5223 3.0034,2.6099 5.9593,0.594 1.8232,-1.2433 2.1982,-3.1675 0.693,-4.9195 -0.3252,-0.3785 -0.2007,-0.1248 -0.5022,-0.6266 0.031,-0.0459 0.0851,-0.1661 0.1016,-0.1314 0,2e-4 1.2143,-1.3106 1.3821,-2.6237 0.3125,-2.4447 -2.292,-4.0625 -4.3068,-3.9379 -1.6174,0.0999 -1.7215,0.7721 -2.7036,1.4093 -0.57,-0.6105 -1.7872,-3.6282 -4.9392,-1.318 -2.8334,2.0766 -1.3579,3.7942 -0.657,5.3549 z"
       style="fill:#4d4948;fill-rule:evenodd"
       id="path6" />
    <path
       d="m 282.4638,332.9524 c 0.6312,-0.9703 0.9866,-2.1121 1.5731,-3.1714 1.6719,-3.0198 3.7947,-5.9453 6.1866,-8.1505 3.335,-3.0749 6.6888,-5.3809 12.0911,-7.2259 5.0253,-1.7163 11.4782,-2.3252 16.385,-0.1829 6.2851,2.744 6.5831,6.6282 7.0377,7.2984 0.3679,0.5425 0.8683,0.49 2.2755,2.6666 4.8253,0.0817 10.2531,-0.7209 13.5616,4.3441 1.2485,1.9113 1.888,4.2299 1.6558,7.0678 -0.2691,3.289 -1.2756,4.4822 -2.6488,6.5341 1.8913,2.8485 2.3099,0.4665 2.8623,6.9758 1.1732,-0.7182 21.0888,-20.8966 22.6633,-22.4554 1.6027,-1.5869 21.7688,-21.3601 22.6033,-22.7838 l -136.9755,-0.0208 c 0.8103,1.0803 2.7199,2.7783 3.7653,3.7389 8.2176,7.5506 16.6238,15.989 24.9717,23.6557 0.5622,0.5163 1.3145,1.5009 1.992,1.7093 z"
       style="fill:#d9242b;fill-rule:evenodd"
       id="path7" />
    <path
       d="m 203.2426,501.3072 77.9289,-0.004 0.0167,-9.71 c -3.7632,-1.5834 -1.8932,-1.8876 -5.2269,-2.7052 -5.9087,-1.4492 -9.2742,-9.2796 -5.4408,-15.5322 0.76,-1.2397 -0.3965,-3.8285 -1.0671,-6.203 -0.595,-2.1068 -1.2027,-4.192 -1.7954,-6.3112 -0.5565,-1.9896 -1.6165,-4.6006 -1.156,-6.8686 0.5541,-2.7288 2.2268,-3.382 3.2749,-4.8211 l -5.2281,-8.9185 c -0.8588,0.452 -49.1914,48.8613 -53.6964,53.262 -1.1639,1.137 -6.9151,6.5167 -7.6098,7.8116 z"
       style="fill:#183980;fill-rule:evenodd"
       id="path8" />
    <path
       d="m 344.3828,360.391 c 0.2755,0.8308 1.4048,2.3166 1.9378,3.2896 0.5574,1.0176 1.2671,2.8 1.8094,3.5718 3.841,-0.2496 2.1962,-0.8886 6.3361,0.3516 1.259,0.3771 5.5288,-0.7951 9.6496,2.8086 1.6522,1.4449 3.2089,3.4298 3.6432,6.3213 0.3414,2.2729 -0.2396,2.7374 -0.356,4.4786 -0.0524,0.7837 0.2516,1.4483 0.3396,2.2652 0.1067,0.9897 -0.0471,1.7033 -0.0418,2.6491 l 28.5968,0.005 c 0.2924,-3.6415 0.0664,-41.8688 0.0655,-48.3627 -10e-4,-9.4304 0.154,-19.5253 -0.0158,-28.8975 -0.8171,0.3826 -25.9331,25.7215 -25.9869,25.7752 l -22.6161,22.4779 c -0.9764,0.9744 -2.3602,2.5257 -3.3614,3.2666 z"
       style="fill:#183980;fill-rule:evenodd"
       id="path9" />
    <path
       d="m 322.1275,418.8126 c 0.3398,1.4038 6.1913,5.3524 5.899,14.5489 -0.1089,3.426 -1.4526,7.1849 -2.3433,10.4185 -0.2736,0.9931 -0.1922,1.0739 0.3892,1.6541 1.5319,1.5288 0.8363,1.4226 3.3134,0.9942 6.1019,-1.0553 10.9501,3.2026 12.1425,7.8601 0.8912,3.4811 0.0355,0.8224 1.3794,3.6142 0.5847,1.2145 0.9592,2.5794 0.9983,4.1365 0.0475,1.8867 0.8808,2.0832 1.9247,3.1272 l 33.1354,33.1536 c 3.6827,3.7055 1.9794,2.9921 7.1921,2.9922 3.2981,1e-4 6.904,0.1374 10.1639,-0.0243 l 0.0335,-13.0685 c -0.002,-1.131 -1.2189,-1.8999 -1.848,-2.5302 l -51.6312,-51.6485 c -1.5674,-1.5784 -3.2856,-2.372 -4.673,-4.2602 -1.4533,-1.9778 -11.427,-12.1041 -13.3475,-13.6887 -0.5554,0.3815 -0.7879,0.9918 -1.2417,1.4788 -0.5032,0.5401 -0.8474,0.6238 -1.4867,1.2421 z"
       style="fill:#d9242b;fill-rule:evenodd"
       id="path10" />
    <path
       d="m 353.0363,434.8935 c 2.1845,1.511 42.0257,42.4458 43.322,42.9823 l 0.004,-58.8288 -32.8041,-0.0227 c -0.1604,1.2836 -0.4534,1.7417 -0.2046,3.04 0.9297,4.852 -1.1969,8.669 -5.2447,11.0906 -1.1364,0.6798 -2.3556,1.0806 -3.6928,1.2803 -0.4833,0.0721 -0.9972,0.1332 -1.3802,0.4583 z"
       style="fill:#183980;fill-rule:evenodd"
       id="path11" />
    <path
       d="m 314.0826,501.2644 58.9014,0.0385 c -2.6338,-2.5447 -5.2037,-5.2676 -7.8124,-7.8902 -2.5858,-2.5995 -22.9912,-23.2645 -23.8992,-23.73 -3.0235,2.9744 -3.3299,2.6265 -6.856,3.5362 -1.5773,0.4069 -8.9045,5.4068 -14.9352,-1.6491 -1.9282,-2.256 -0.1918,-3.6752 -5.3579,-5.0978 z"
       style="fill:#183980;fill-rule:evenodd"
       id="path12" />
    <path
       d="m 301.5944,431.0228 0.3449,8.1572 c 0.8199,0.3863 1.7212,0.5182 2.4999,0.8806 2.1423,0.9969 3.8812,2.7039 4.9287,5.0449 0.6806,1.5212 0.9733,3.7532 0.8497,5.6696 -0.1645,2.553 -0.9369,3.5268 -1.3588,5.4423 l 15.5856,7.0261 c -0.3036,2.5835 -0.1334,4.2997 2.2254,4.8581 2.2746,0.5384 3.8634,-0.4196 4.8545,-2.2631 2.4534,0.744 4.0674,0.2806 4.8949,-1.7936 1.1531,-2.89 -0.3393,-3.8797 -1.8662,-5.126 0.3775,-2.6991 0.2811,-4.2642 -1.9366,-5.2766 -2.4519,-1.1192 -4.1121,0.5857 -5.2669,1.7624 l -11.2523,-4.1037 c 0.2003,-1.6137 1.8249,-6.0622 2.3643,-7.9281 0.7518,-2.601 1.6188,-5.5094 2.2219,-8.1837 1.4747,-6.54 -2.9602,-11.5321 -6.6334,-13.4708 -1.3965,0.5182 -10.6716,8.3288 -12.4556,9.3044 z"
       style="fill:#4d4948;fill-rule:evenodd"
       id="path13" />
    <path
       d="m 293.6852,377.4435 8.7597,-0.0106 c -0.3375,-0.9066 -1.389,-2.3416 -1.9662,-3.4384 -1.9265,-3.6604 -3.2894,-7.8948 -4.124,-12.0645 -1.3672,-6.8297 -1.2734,-12.7972 0.4353,-19.3804 1.4123,-5.4409 4.3361,-11.1322 7.4022,-14.222 0.4054,-0.4085 1.0283,-0.9592 1.3601,-1.3394 0.66,-0.756 0.2374,-1.035 0.5485,-2.1451 0.3299,-1.1771 1.6444,-2.2389 2.6812,-2.7298 3.2511,-1.5392 2.8001,0.555 6.7295,0.2576 l 2.3432,-0.3578 c 0.0361,-0.0179 0.1029,-0.054 0.1463,-0.0918 -5.1213,-4.1733 -14.1429,-1.2501 -19.0084,1.6226 -11.2625,6.6496 -14.652,23.0704 -12.35,36.0135 0.6084,3.4207 1.5407,6.7642 2.7003,9.7714 0.675,1.7505 3.1785,7.5943 4.3423,8.1147 z"
       style="fill:#4d4948;fill-rule:evenodd"
       id="path14" />
    <path
       d="m 308.1037,377.3639 18.0964,0.0259 c -1.1671,-2.5115 -3.0198,-5.2858 -4.5482,-7.5292 -2.9808,-4.375 -8.4501,-10.57 -10.3228,-14.4022 -1.5017,-3.073 -2.2794,-6.5638 -2.2689,-10.4164 0.003,-1.2468 0.2198,-2.1829 0.2796,-3.3275 0.068,-1.2988 -1.6924,-4.7281 -2.0857,-9.2333 -0.7088,0.5781 -0.9997,1.3708 -1.4684,2.2208 -1.262,2.2888 -2.5274,5.1708 -3.3395,7.6767 -1.344,4.1476 -1.9381,8.329 -1.6488,13.0547 0.4467,7.2972 3.8337,17.1835 7.3063,21.9305 z"
       style="fill:#4d4948;fill-rule:evenodd"
       id="path15" />
    <path
       d="m 344.8217,401.7123 51.4862,0.0151 0.049,-8.9153 -32.226,-0.041 c -2.087,0 -3.9515,2.5627 -8.4807,2.0572 -1.7786,-0.1985 -1.6772,-0.3358 -2.8559,0.5949 -1.1784,0.9304 -7.6681,5.5381 -7.9726,6.2891 z"
       style="fill:#d9242b;fill-rule:evenodd"
       id="path16" />
    <path
       d="m 298.4898,470.7637 0.0111,30.5061 8.9083,0.0243 c 0.3276,-5.7295 0.0302,-21.6541 0.048,-28.8679 l -0.005,-8.9357 c -1.5346,-1.0421 -4.1916,-1.2187 -5.514,-4.5057 -1.5917,-3.956 0.9661,-5.3426 1.1018,-8.3837 -0.9531,1.087 -1.6114,2.3958 -2.6017,3.4369 -1.9036,2.0013 -1.9568,0.6807 -1.9491,4.2573 0.009,4.1557 0.001,8.3127 0.001,12.4684 z"
       style="fill:#d9242b;fill-rule:evenodd"
       id="path17" />
    <path
       d="m 311.462,329.0921 c 0.1701,7.4864 2.4853,14.32 6.7767,17.7884 3.4197,2.764 12.1048,6.4836 18.0232,6.4417 l 0.0688,-4.9767 c -7.2454,1.1568 -14.2712,-6.0667 -10.9467,-10.2569 2.2527,-2.8393 6.9601,0.7641 9.5186,-0.4511 1.2735,-0.6048 1.5669,-3.0189 1.0769,-4.5514 -0.5406,-1.6908 -1.981,-1.8079 -4.0583,-1.8079 -2.865,0 -7.1552,-0.3452 -9.3778,0.6458 -1.3473,0.6007 -1.3697,1.2921 -2.2592,1.7329 -1.8682,-0.1255 -3.0783,-2.6304 -3.2217,-4.4955 l 4.4493,-0.4755 c -0.002,-1.3222 0.366,-1.7349 -0.9898,-1.8323 -1.5053,-0.1082 -4.2326,0.7604 -7.5951,0.8169 -0.2793,-1.4006 -1.1566,-2.5542 -2.4972,-1.4271 -1.5755,1.3247 0.3187,2.2618 1.0323,2.8487 z"
       style="fill:#4d4948;fill-rule:evenodd"
       id="path18" />
    <path
       d="m 332.0469,377.3281 11.4759,0.0667 c 0.2187,-3.0834 -2.2908,-8.6554 -3.5976,-10.8463 -1.9431,-3.2575 -3.9598,-5.356 -7.2202,-7.3302 -5.9211,-3.5853 -10.51,-4.3495 -16.2681,-9.2876 -0.6238,-0.535 -1.393,-1.2958 -1.9648,-1.7156 -0.6449,5.9912 7.3162,13.3411 10.9638,18.0659 0.8612,1.1156 1.7012,2.2323 2.5286,3.2908 1.9256,2.4634 2.9993,3.9712 4.0824,7.7563 z"
       style="fill:#4d4948;fill-rule:evenodd"
       id="path19" />
    <path
       d="m 332.3719,407.5968 13.1788,12.8314 c -1.0445,0.8915 -3.1475,3.1963 -1.5871,5.2511 0.4627,0.6093 1.536,1.4804 2.7126,1.5199 1.6848,0.0566 1.8798,-0.8714 2.9921,-1.3715 2.1095,3.1987 6.9086,1.2673 6.8587,-1.8183 -0.024,-1.483 -0.816,-2.0659 -1.2382,-2.9109 3.2441,-4.1274 -0.7572,-6.2257 -2.588,-6.2595 -1.7074,-0.0315 -1.9409,0.6891 -2.9084,0.9739 l -12.8839,-11.7293 c -0.6427,0.2813 -4.1532,2.9875 -4.5366,3.5132 z"
       style="fill:#4d4948;fill-rule:evenodd"
       id="path20" />
    <path
       d="m 401.0271,298.9148 c 0.4846,2.6366 0.1061,9.9608 0.1061,13.0863 l 2e-4,142.3461 c 0.006,17.1887 0.2013,34.5044 -0.004,51.697 l -207.0083,-0.002 0.1005,-207.1301 c -0.6201,0.6824 -0.2991,5.2181 -0.2991,6.2318 l -0.003,188.0631 c 2e-4,3.1474 -0.3769,10.3514 0.0932,13.0264 l 207.2374,0.0557 c 0.3709,-1.9273 0.0926,-48.4437 0.0955,-51.7337 l -0.0175,-155.0126 c -0.1311,-0.5895 0.0153,-0.3005 -0.3005,-0.6276 z"
       style="fill:#acbbd4;fill-rule:evenodd"
       id="path21" />
  </g>
</svg>
