<?xml version="1.0" encoding="UTF-8"?>
<svg version="1.1" xmlns="http://www.w3.org/2000/svg" width="225" height="225">
<path d="M0 0 C74.25 0 148.5 0 225 0 C225 74.25 225 148.5 225 225 C150.75 225 76.5 225 0 225 C0 150.75 0 76.5 0 0 Z " fill="#FBFAFA" transform="translate(0,0)"/>
<path d="M0 0 C4.55894856 3.90767019 8.90707408 7.76426916 13.11889648 12.00537109 C13.68562576 12.57195435 14.25235504 13.1385376 14.83625793 13.72229004 C16.68358747 15.57030868 18.52736301 17.42182903 20.37109375 19.2734375 C21.66124403 20.56545552 22.95161724 21.85725096 24.24220276 23.14883423 C27.61944189 26.52987043 30.99366562 29.91390014 34.36724854 33.29858398 C37.81786929 36.75947959 41.27136338 40.21750543 44.72460938 43.67578125 C51.48587186 50.44773144 58.24394899 57.22285083 65 64 C62.60905766 65.19806438 60.21388584 66.38535008 57.8125 67.5625 C53.53625604 69.97191058 50.48251858 73.46603095 47.2109375 77.07421875 C44.68298995 79.27612359 43.34321356 79.92652278 40 80 C37.83203125 78.85546875 37.83203125 78.85546875 35.8125 77.1875 C34.80123047 76.37345703 34.80123047 76.37345703 33.76953125 75.54296875 C32.469835 74.40967952 31.21933482 73.21933482 30 72 C29.13582851 84.6711963 29.13582851 84.6711963 34 96 C37.09289717 98.91096205 39.82559761 99.23406255 43.9375 99.4375 C49.5827278 99.26108663 52.72059651 97.27940349 56.6875 93.3125 C57.99092903 91.01598219 58.67142236 88.95577649 59.4375 86.4375 C60.31244112 83.70947845 60.87961924 82.14187732 62.75 79.9375 C66.01806153 78.5758077 68.49381032 78.6309274 72 79 C74.9375 80.5 74.9375 80.5 77 82 C72.83396568 86.96755144 68.49918967 91.64492074 63.90893555 96.22045898 C63.22691574 96.90423111 62.54489594 97.58800323 61.84220886 98.29249573 C59.60953748 100.52953368 57.37327009 102.76293542 55.13671875 104.99609375 C53.5781263 106.55536026 52.01968229 108.11477516 50.46138 109.67433167 C47.20756508 112.92961611 43.95195986 116.18309648 40.69506836 119.43530273 C36.51053475 123.61411097 32.3305445 127.79743068 28.15185833 131.98208523 C24.94105523 135.19648984 21.72788916 138.40852382 18.51398659 141.61982918 C16.97059434 143.16255249 15.42794969 144.70602408 13.88605309 146.25024223 C11.74113472 148.39768345 9.59306622 150.54192155 7.4440918 152.68530273 C6.80256165 153.32885712 6.16103149 153.9724115 5.50006104 154.63546753 C1.11426798 159 1.11426798 159 0 159 C0 106.53 0 54.06 0 0 Z " fill="#EB0028" transform="translate(0,1)"/>
<path d="M0 0 C4.63389134 3.87600736 9.03956561 7.89406825 13.30249023 12.1730957 C14.18184486 13.04982185 14.18184486 13.04982185 15.07896423 13.94425964 C16.99134219 15.85228103 18.90009239 17.76388291 20.80859375 19.67578125 C22.1436579 21.01017113 23.47887041 22.34441258 24.81422424 23.67851257 C27.5987239 26.46154415 30.38142193 29.24636122 33.1628418 32.0324707 C36.73630698 35.61166604 40.31428766 39.18630861 43.89359951 42.75965595 C46.64477282 45.50722796 49.39357515 48.257162 52.14164925 51.00783348 C53.46108571 52.32793869 54.78126999 53.64729689 56.10220146 54.96590614 C57.93831422 56.79949587 59.77121918 58.63623143 61.60327148 60.47387695 C62.15331848 61.02189972 62.70336548 61.56992249 63.27008057 62.134552 C67 65.88573081 67 65.88573081 67 67 C15.19 67 -36.62 67 -90 67 C-85.91553343 62.234789 -82.70002863 58.8256047 -78 55 C-77.67 54.34 -77.34 53.68 -77 53 C-68.09 53 -59.18 53 -50 53 C-50.50580634 41.4858113 -50.50580634 41.4858113 -57 34 C-55.88121617 32.82737096 -54.75476949 31.66204862 -53.625 30.5 C-52.99851563 29.8503125 -52.37203125 29.200625 -51.7265625 28.53125 C-50 27 -50 27 -48 27 C-45.69 35.25 -43.38 43.5 -41 52 C-27.14 52.33 -13.28 52.66 1 53 C1.49569724 40.52454843 1.49569724 40.52454843 -4.25 35.9375 C-10.10703032 32.52514321 -16.45835319 30.65079175 -23 29 C-19.91109728 18.85074822 -13.20330278 13.9214036 -4 9 C-1.6640625 8.3046875 -1.6640625 8.3046875 0 8 C0 5.36 0 2.72 0 0 Z " fill="#EB0128" transform="translate(157,158)"/>
<path d="M0 0 C3.59484015 -0.86187766 6.43703377 -1.08571074 10 0 C12.50893518 2.98131019 14.30679893 6.18731726 16.1484375 9.59765625 C20.95690028 18.43346021 27.0149105 22.71055402 36 27 C33.60195856 29.65129994 31.01217283 31.2619362 27.9375 33.0625 C17.65794027 39.56200999 10.1869546 47.45234941 6 59 C5.40793462 61.82058477 4.96501502 64.55930136 4.71484375 67.4296875 C3.70075519 71.07597314 1.81514409 73.55827126 -1 76 C-4.24616722 77.82094728 -7.71478088 79.01103718 -11.20507812 80.27734375 C-16.12231244 82.2073005 -18.63175752 84.02976643 -21 89 C-21.33594133 92.25177852 -21.33594133 92.25177852 -21 95 C-19.91460937 95.31453125 -18.82921875 95.6290625 -17.7109375 95.953125 C-16.26546723 96.38488885 -14.82016343 96.81721025 -13.375 97.25 C-12.66214844 97.45496094 -11.94929688 97.65992188 -11.21484375 97.87109375 C-5.65713329 99.55370334 -1.16799689 101.83200311 3 106 C3.125 109.625 3.125 109.625 3 113 C1.68 113 0.36 113 -1 113 C-1.495 109.535 -1.495 109.535 -2 106 C-3.32 106 -4.64 106 -6 106 C-5.34 108.31 -4.68 110.62 -4 113 C-5.65 113 -7.3 113 -9 113 C-9.66 110.69 -10.32 108.38 -11 106 C-12.32 106 -13.64 106 -15 106 C-14.01 109.465 -14.01 109.465 -13 113 C-14.98 113 -16.96 113 -19 113 C-19.33 110.69 -19.66 108.38 -20 106 C-21.32 106 -22.64 106 -24 106 C-23.01 109.465 -23.01 109.465 -22 113 C-25.63 113 -29.26 113 -33 113 C-35.97 102.44 -38.94 91.88 -42 81 C-40.35 79.35 -38.7 77.7 -37 76 C-35.90417615 74.6939165 -34.83719735 73.36260023 -33.8125 72 C-33.07966797 71.0409375 -33.07966797 71.0409375 -32.33203125 70.0625 C-29.7036118 65.99268923 -28.71029996 62.03754966 -28.1484375 57.26171875 C-28.01953125 56.19501953 -27.890625 55.12832031 -27.7578125 54.02929688 C-27.63148437 52.92650391 -27.50515625 51.82371094 -27.375 50.6875 C-27.17390625 49.00430664 -27.17390625 49.00430664 -26.96875 47.28710938 C-26.63969583 44.52540472 -26.31700007 41.76310984 -26 39 C-24.78828125 38.59136719 -23.5765625 38.18273437 -22.328125 37.76171875 C-15.36721533 35.14141156 -9.19039696 29.79689452 -5.5625 23.25 C-2.45322837 15.94614494 -1.25205851 7.7931866 0 0 Z " fill="#435363" transform="translate(100,94)"/>
<path d="M0 0 C12.54 0 25.08 0 38 0 C38 13.53 38 27.06 38 41 C16.77798333 41.16043524 16.77798333 41.16043524 7.72265625 41.1953125 C1.5468977 41.2192117 -4.62862333 41.24746596 -10.80419922 41.30175781 C-15.78385392 41.34526124 -20.76325386 41.36914681 -25.74308395 41.37950897 C-27.64168686 41.38689224 -29.54027602 41.40131014 -31.43877029 41.42292023 C-34.10092403 41.45201408 -36.76202893 41.45595352 -39.42431641 41.45410156 C-40.20690826 41.46848267 -40.98950012 41.48286377 -41.79580688 41.49768066 C-47.10486487 41.4577926 -49.84541612 40.32434632 -54 37 C-49.66672833 31.95684082 -42.36362636 29.53361499 -35.90771484 28.74414062 C-29.21946068 28.32412739 -23.25816332 28.47053302 -17 31 C-13.87420806 31.24012919 -13.87420806 31.24012919 -10.6875 31.125 C-9.61886719 31.10695313 -8.55023438 31.08890625 -7.44921875 31.0703125 C-6.23685547 31.03550781 -6.23685547 31.03550781 -5 31 C-4.89042969 30.1028125 -4.78085938 29.205625 -4.66796875 28.28125 C-4.50941406 27.0334375 -4.35085937 25.785625 -4.1875 24.5 C-4.03667969 23.2934375 -3.88585937 22.086875 -3.73046875 20.84375 C-2.67793072 13.86435346 -1.30076655 6.93742162 0 0 Z " fill="#EA0026" transform="translate(187,92)"/>
<path d="M0 0 C11.27130413 5.01203483 18.38458888 10.8857607 24 22 C25.26783868 25.80351603 26.26906918 29.12638768 25 33 C22.69925531 34.90671952 20.31217007 36.19120536 17.671875 37.5859375 C9.97984605 41.6568651 6.2044702 46.97558288 3 55 C2.63609939 56.32531703 2.2909286 57.65677647 2 59 C3.0725 59.061875 4.145 59.12375 5.25 59.1875 C12.27208869 60.05272164 20.83805463 63.02067062 26 68 C26.52799676 70.76142303 26.18598981 73.16365545 26 76 C25.01 76 24.02 76 23 76 C22.34 73.69 21.68 71.38 21 69 C19.68 69 18.36 69 17 69 C17.66 71.31 18.32 73.62 19 76 C17.35 76 15.7 76 14 76 C13.7525 75.030625 13.505 74.06125 13.25 73.0625 C12.63125 71.5465625 12.63125 71.5465625 12 70 C9.96756452 69.03122943 9.96756452 69.03122943 8 69 C8.33 69.598125 8.66 70.19625 9 70.8125 C10 73 10 73 10 76 C8.35 76 6.7 76 5 76 C4.34 73.69 3.68 71.38 3 69 C1.68 69 0.36 69 -1 69 C-0.01 72.465 -0.01 72.465 1 76 C-2.3 76 -5.6 76 -9 76 C-10.13111302 72.3768091 -11.25501129 68.75163012 -12.375 65.125 C-12.69210938 64.11179687 -13.00921875 63.09859375 -13.3359375 62.0546875 C-15.27526684 55.75186715 -16.85647829 49.4955635 -18 43 C-17.30132812 42.74605469 -16.60265625 42.49210937 -15.8828125 42.23046875 C-14.97273438 41.88628906 -14.06265625 41.54210937 -13.125 41.1875 C-12.22007813 40.85105469 -11.31515625 40.51460937 -10.3828125 40.16796875 C-7.70574151 39.10350976 -7.70574151 39.10350976 -6 36 C-5.92791394 32.7561275 -6.28562193 30.79105215 -8.4921875 28.34765625 C-11.48469999 25.72118069 -14.38647812 23.69109633 -18 22 C-14.25303679 12.73119627 -8.35108437 5.56738958 0 0 Z " fill="#425263" transform="translate(128,131)"/>
<path d="M0 0 C4.7687841 -0.12375079 9.53663077 -0.21440646 14.30664062 -0.2746582 C15.92855105 -0.29977772 17.55034854 -0.33388028 19.171875 -0.37719727 C21.50549171 -0.43796853 23.83761048 -0.46623294 26.171875 -0.48828125 C26.89493835 -0.51408768 27.61800171 -0.5398941 28.36297607 -0.56648254 C30.42480469 -0.56762695 30.42480469 -0.56762695 34 0 C36.36425781 2.46801758 36.36425781 2.46801758 38 5 C41.45300692 6.72650346 45.21722274 6.36360591 49 6 C52.12910131 4.76016741 54.35561947 3.59994049 56.8125 1.3125 C60.3163149 -0.78978894 64.01280674 -0.23003038 68 0 C68 1.32 68 2.64 68 4 C65.69 4 63.38 4 61 4 C61 4.99 61 5.98 61 7 C62.98 7 64.96 7 67 7 C67 8.32 67 9.64 67 11 C64.69 11 62.38 11 60 11 C60 11.99 60 12.98 60 14 C61.98 14 63.96 14 66 14 C65.67 15.65 65.34 17.3 65 19 C62.69 19 60.38 19 58 19 C58 19.99 58 20.98 58 22 C60.31 22 62.62 22 65 22 C64.67 23.32 64.34 24.64 64 26 C62.14375 26.061875 62.14375 26.061875 60.25 26.125 C59.55390625 26.14820312 58.8578125 26.17140625 58.140625 26.1953125 C56 26 56 26 54.265625 25.00390625 C50.7794779 23.45918245 47.24202433 23.75214477 43.5 23.8125 C42.36111328 23.8134668 42.36111328 23.8134668 41.19921875 23.81445312 C37.6260407 23.84261302 34.4400169 24.08694637 31 25 C23.92954864 25.98986319 19.49100408 23.08262441 14 19 C8.35578423 14.14293318 3.23768699 8.78449986 0 2 C0 1.34 0 0.68 0 0 Z " fill="#435363" transform="translate(115,94)"/>
<path d="M0 0 C15.84 0 31.68 0 48 0 C48 15.84 48 31.68 48 48 C40.12300025 41.24828593 40.12300025 41.24828593 36.44165039 37.57104492 C35.62132828 36.75387497 34.80100616 35.93670502 33.95582581 35.09477234 C33.09512985 34.23205215 32.2344339 33.36933197 31.34765625 32.48046875 C29.99745644 31.13170403 29.99745644 31.13170403 28.61997986 29.75569153 C26.73035658 27.86674561 24.84176184 25.97683692 22.95483398 24.08520508 C20.53152267 21.65614791 18.10368257 19.23167426 15.67452335 16.80846691 C13.35481276 14.49322039 11.038895 12.17418782 8.72265625 9.85546875 C7.84779068 8.98262741 6.97292511 8.10978607 6.07154846 7.210495 C5.27329147 6.40908585 4.47503448 5.6076767 3.65258789 4.78198242 C2.94534073 4.07393967 2.23809357 3.36589691 1.50941467 2.63639832 C0 1 0 1 0 0 Z " fill="#01329F" transform="translate(177,147)"/>
<path d="M0 0 C15.84 0 31.68 0 48 0 C48 15.84 48 31.68 48 48 C40.12300025 41.24828593 40.12300025 41.24828593 36.44165039 37.57104492 C35.62132828 36.75387497 34.80100616 35.93670502 33.95582581 35.09477234 C33.09512985 34.23205215 32.2344339 33.36933197 31.34765625 32.48046875 C29.99745644 31.13170403 29.99745644 31.13170403 28.61997986 29.75569153 C26.73035658 27.86674561 24.84176184 25.97683692 22.95483398 24.08520508 C20.53152267 21.65614791 18.10368257 19.23167426 15.67452335 16.80846691 C13.35481276 14.49322039 11.038895 12.17418782 8.72265625 9.85546875 C7.84779068 8.98262741 6.97292511 8.10978607 6.07154846 7.210495 C5.27329147 6.40908585 4.47503448 5.6076767 3.65258789 4.78198242 C2.94534073 4.07393967 2.23809357 3.36589691 1.50941467 2.63639832 C0 1 0 1 0 0 Z " fill="#00319F" transform="translate(30,0)"/>
<path d="M0 0 C6.60673774 4.37681549 11.30274477 10.38600192 13.609375 18.015625 C15.31658386 26.68824599 13.21312676 34.56780758 8.75 42.11328125 C4.87464086 47.25473784 -0.00574851 49.07639904 -6 51 C-7.175625 51.391875 -8.35125 51.78375 -9.5625 52.1875 C-10.366875 52.455625 -11.17125 52.72375 -12 53 C-13.26472065 54.05429686 -13.26472065 54.05429686 -13.25 56.4375 C-13.1675 57.283125 -13.085 58.12875 -13 59 C-12.01 59.66 -11.02 60.32 -10 61 C-9.70703125 63.3828125 -9.70703125 63.3828125 -9.8125 66.125 C-9.85310547 67.49011719 -9.85310547 67.49011719 -9.89453125 68.8828125 C-9.92933594 69.58148438 -9.96414062 70.28015625 -10 71 C-12.83842501 70.91651691 -14.54049314 70.4276272 -16.6328125 68.48046875 C-20.89993442 63.58461631 -22.41542904 59.88050071 -22.3515625 53.35546875 C-21.77145475 49.46874679 -19.81921079 46.67825025 -17 44 C-14.0752325 42.21570788 -11.42816409 41.63322046 -8.0625 41.125 C-2.47994301 40.0659561 0.4600513 38.19992671 3.75 33.5 C6.02935268 28.94129464 6.49514887 25.11653835 6 20 C3.6976647 13.55941547 1.1811887 9.09059435 -5 6 C-9.8768202 4.37439327 -14.2272107 4.19068314 -18.875 6.3125 C-22.23883451 8.98378034 -23.16357077 11.28395796 -23.75 15.375 C-24.52012437 18.97871175 -25.08058326 20.09630683 -27.5625 23.0625 C-31.88095853 25.49654026 -35.14933726 26.11869528 -40 25 C-43.72446104 22.22646518 -45.79657598 19.48548954 -47 15 C-47.125 11.6875 -47.125 11.6875 -47 9 C-46.154375 9.515625 -45.30875 10.03125 -44.4375 10.5625 C-40.07352192 12.38743629 -38.51130865 12.50376955 -34 11 C-31.31860629 8.9112027 -28.87331175 6.68586839 -26.4296875 4.32421875 C-18.15357193 -3.59264422 -10.46525374 -5.06150826 0 0 Z " fill="#445464" transform="translate(80,72)"/>
<path d="M0 0 C0 15.84 0 31.68 0 48 C-15.84 48 -31.68 48 -48 48 C-44 42 -44 42 -41.421875 41.4140625 C-40.54015625 41.48367187 -39.6584375 41.55328125 -38.75 41.625 C-37.91114258 41.69122559 -37.07228516 41.75745117 -36.20800781 41.82568359 C-35.47936523 41.88320801 -34.75072266 41.94073242 -34 42 C-34.00974854 41.37066559 -34.01949707 40.74133118 -34.02954102 40.09292603 C-33.77121343 32.48863133 -31.37494575 29.12036994 -25.9375 24.0234375 C-25.23101318 23.32731354 -24.52452637 22.63118958 -23.79663086 21.91397095 C-21.55142238 19.71224711 -19.27661117 17.54418749 -17 15.375 C-15.46935425 13.88095242 -13.94068524 12.38487682 -12.4140625 10.88671875 C-9.6326698 8.17186599 -6.84665643 5.46250119 -4.03515625 2.77880859 C-3.4719165 2.24049408 -2.90867676 1.70217957 -2.32836914 1.14755249 C-1 0 -1 0 0 0 Z " fill="#0232A0" transform="translate(225,30)"/>
<path d="M0 0 C1.0626709 0.28858887 2.1253418 0.57717773 3.22021484 0.87451172 C-2.86478397 8.10342524 -9.3971951 14.82058016 -16.03759766 21.53735352 C-17.45178185 22.97322665 -18.85966195 24.41533539 -20.26123047 25.86352539 C-22.30244447 27.97177786 -24.3627933 30.05954072 -26.42822266 32.14404297 C-27.35518448 33.11275078 -27.35518448 33.11275078 -28.3008728 34.10102844 C-32.62597734 38.40615535 -35.78921335 39.7704405 -41.77978516 40.87451172 C-44.86640193 43.14408288 -46.55271428 46.06435509 -48.59228516 49.24951172 C-52.61455535 55.35330675 -56.41280276 59.58940208 -63.71728516 61.24951172 C-65.07037073 61.46475474 -66.42440037 61.67425635 -67.77978516 61.87451172 C-68.2124063 56.90861996 -67.66213681 53.18238561 -64.84112549 49.00091553 C-62.06092293 45.7981801 -59.17807881 42.75282708 -56.19384766 39.74169922 C-55.09678916 38.61311483 -54.00031294 37.48396415 -52.90438843 36.35427856 C-50.6050418 33.99670921 -48.28775417 31.65856791 -45.95849609 29.33056641 C-43.58754741 26.95588126 -41.25361344 24.55266827 -38.94775391 22.11474609 C-15.37857827 -2.78641886 -15.37857827 -2.78641886 0 0 Z " fill="#EA0025" transform="translate(220.77978515625,-0.87451171875)"/>
<path d="M0 0 C15.84 0 31.68 0 48 0 C41.25 7.875 41.25 7.875 38.56494141 10.54858398 C37.96477203 11.14867783 37.36460266 11.74877167 36.74624634 12.36705017 C35.80837784 13.29717674 35.80837784 13.29717674 34.8515625 14.24609375 C34.19417084 14.90207047 33.53677917 15.55804718 32.85946655 16.23390198 C30.78367138 18.30415268 28.70440573 20.37087651 26.625 22.4375 C25.2067992 23.85067862 23.78882824 25.26408794 22.37109375 26.67773438 C18.91671223 30.12116065 15.4592163 33.56143099 12 37 C11.34 36.67 10.68 36.34 10 36 C10 33.03 10 30.06 10 27 C6.7 27 3.4 27 0 27 C0 18.09 0 9.18 0 0 Z " fill="#01329F" transform="translate(147,0)"/>
<path d="M0 0 C1.20527344 -0.00515625 2.41054687 -0.0103125 3.65234375 -0.015625 C6.90373725 0.2376336 9.14216971 0.85356123 12.0625 2.25 C12.0625 2.58 12.0625 2.91 12.0625 3.25 C6.4525 3.25 0.8425 3.25 -4.9375 3.25 C-4.9375 7.21 -4.9375 11.17 -4.9375 15.25 C-5.9275 15.58 -6.9175 15.91 -7.9375 16.25 C-9.06811289 18.04074935 -9.06811289 18.04074935 -9.9375 20.25 C-10.46730469 21.39082031 -10.46730469 21.39082031 -11.0078125 22.5546875 C-17.50178903 38.38074883 -13.19770801 55.64812089 -7.9375 71.25 C-10.9075 71.25 -13.8775 71.25 -16.9375 71.25 C-19.58387366 65.07512813 -21.73642057 58.87637334 -23.625 52.4375 C-23.83922607 51.70861572 -24.05345215 50.97973145 -24.27416992 50.22875977 C-28.39289807 35.95192488 -27.44523848 23.7929697 -20.4609375 10.48046875 C-17.95503987 6.8115776 -14.73280504 4.48342007 -10.9375 2.25 C-10.339375 1.87359375 -9.74125 1.4971875 -9.125 1.109375 C-6.03732022 -0.10364206 -3.30613489 -0.0141137 0 0 Z " fill="#435363" transform="translate(115.9375,17.75)"/>
<path d="M0 0 C0.91007812 0.00902344 1.82015625 0.01804688 2.7578125 0.02734375 C3.80582031 0.04474609 3.80582031 0.04474609 4.875 0.0625 C4.875 1.3825 4.875 2.7025 4.875 4.0625 C2.235 4.0625 -0.405 4.0625 -3.125 4.0625 C-3.125 5.0525 -3.125 6.0425 -3.125 7.0625 C-0.815 7.0625 1.495 7.0625 3.875 7.0625 C3.545 8.3825 3.215 9.7025 2.875 11.0625 C0.565 11.0625 -1.745 11.0625 -4.125 11.0625 C-4.125 12.3825 -4.125 13.7025 -4.125 15.0625 C-2.145 15.0625 -0.165 15.0625 1.875 15.0625 C1.875 16.3825 1.875 17.7025 1.875 19.0625 C-0.435 19.0625 -2.745 19.0625 -5.125 19.0625 C-5.125 20.0525 -5.125 21.0425 -5.125 22.0625 C-3.145 22.0625 -1.165 22.0625 0.875 22.0625 C0.875 23.3825 0.875 24.7025 0.875 26.0625 C0.19953125 26.11148438 -0.4759375 26.16046875 -1.171875 26.2109375 C-2.06390625 26.28570312 -2.9559375 26.36046875 -3.875 26.4375 C-4.75671875 26.50710937 -5.6384375 26.57671875 -6.546875 26.6484375 C-9.29582245 27.08993512 -10.86456439 27.43386317 -13.125 29.0625 C-15.04747372 32.25372035 -16.61689876 35.54932669 -18.24609375 38.8984375 C-20.27687193 42.31825107 -21.71080676 44.03607307 -25.125 46.0625 C-27.82721868 46.65768574 -30.34889347 46.87428939 -33.125 47.0625 C-33.15005615 46.44205811 -33.1751123 45.82161621 -33.20092773 45.18237305 C-33.31696721 42.37137603 -33.43965759 39.56070759 -33.5625 36.75 C-33.60181641 35.77353516 -33.64113281 34.79707031 -33.68164062 33.79101562 C-33.72353516 32.85322266 -33.76542969 31.91542969 -33.80859375 30.94921875 C-33.84525146 30.08514404 -33.88190918 29.22106934 -33.91967773 28.33081055 C-34.05247354 25.8977174 -34.05247354 25.8977174 -35.125 23.0625 C-34.40054688 22.89234375 -33.67609375 22.7221875 -32.9296875 22.546875 C-21.58281065 19.7025912 -15.39614201 14.54027783 -9.375 4.6875 C-8.98828125 4.01976562 -8.6015625 3.35203125 -8.203125 2.6640625 C-6.06927338 -0.50578954 -3.53309138 -0.04529604 0 0 Z " fill="#425363" transform="translate(187.125,41.9375)"/>
<path d="M0 0 C3.31390989 -0.13618808 6.62211587 -0.23467408 9.9375 -0.3125 C10.86369141 -0.35439453 11.78988281 -0.39628906 12.74414062 -0.43945312 C18.89898491 -0.54743285 22.78384608 0.40503676 27.92578125 3.83789062 C31.48137228 5.82995905 34.97911535 5.8085293 39 6 C39.05422947 7.4370809 39.09289723 8.87475462 39.125 10.3125 C39.14820313 11.11300781 39.17140625 11.91351563 39.1953125 12.73828125 C39 15 39 15 37 18 C36.34 18 35.68 18 35 18 C34.505 17.01 34.505 17.01 34 16 C29.08121703 15.71065983 25.84199691 15.72300264 22 19 C20.83789781 21.39351495 20.83789781 21.39351495 21 24 C22.06397005 26.24388267 22.06397005 26.24388267 24 28 C26.7386225 28.48340432 26.7386225 28.48340432 29.6875 28.25 C30.68136719 28.21390625 31.67523438 28.1778125 32.69921875 28.140625 C33.83810547 28.07101563 33.83810547 28.07101563 35 28 C34.67 30.31 34.34 32.62 34 35 C31.43408475 34.77084658 28.87445648 34.51756726 26.3125 34.25 C25.2306543 34.1571875 25.2306543 34.1571875 24.12695312 34.0625 C19.35164135 33.53917816 16.32197781 32.73722504 13 29 C12.06239024 26.45465699 11.33578018 24.10987296 10.6875 21.5 C9.24070116 16.28760495 9.24070116 16.28760495 5.90625 12.12890625 C3.50528802 10.89903081 3.50528802 10.89903081 0 10 C0 6.7 0 3.4 0 0 Z " fill="#435364" transform="translate(115,25)"/>
<path d="M0 0 C13.53 0 27.06 0 41 0 C41 6.27 41 12.54 41 19 C38.958125 18.01 38.958125 18.01 36.875 17 C29.50472071 14.08738255 21.66052908 13.48981528 14.05859375 15.953125 C9.17190509 18.25445677 5.57018289 20.98354424 2 25 C1.34 25.33 0.68 25.66 0 26 C0 17.42 0 8.84 0 0 Z " fill="#EA0126" transform="translate(92,0)"/>
<path d="M0 0 C3.10776828 3.10776828 4.62168321 6.86504962 6 11 C10.11623359 12.57642989 13.73850656 13.06989872 18.125 13.3125 C22.00183635 13.63114408 22.86176346 13.889975 26.0625 16.4375 C28.56903654 19.75259671 29.12478878 21.28168319 29.09765625 25.3515625 C29.09443359 26.20234375 29.09121094 27.053125 29.08789062 27.9296875 C29.07951172 28.81914063 29.07113281 29.70859375 29.0625 30.625 C29.05798828 31.5221875 29.05347656 32.419375 29.04882812 33.34375 C29.03702591 35.56256648 29.02056155 37.78125018 29 40 C23.65562402 40.48499568 19.37010415 40.81263669 14.8125 37.625 C7.40212737 31.23261795 2.08319582 22.57007536 0 13 C-0.28966349 8.64080197 -0.24952888 4.35982406 0 0 Z " fill="#435363" transform="translate(121,49)"/>
<path d="M0 0 C5.75 1.875 5.75 1.875 8 3 C7.67 4.2375 7.34 5.475 7 6.75 C4.51868732 18.23955655 5.61957692 28.97157527 11.90625 39.05859375 C15.02032893 43.43340986 18.19116952 47.19116952 22 51 C15.4 51 8.8 51 2 51 C-4.33348523 36.74965823 -8.49008841 20.31445713 -3 5 C-1.375 2 -1.375 2 0 0 Z " fill="#425262" transform="translate(111,38)"/>
<path d="M0 0 C1.81274414 0.01450195 1.81274414 0.01450195 3.66210938 0.02929688 C5.55606445 0.06700195 5.55606445 0.06700195 7.48828125 0.10546875 C9.39963867 0.12577148 9.39963867 0.12577148 11.34960938 0.14648438 C14.50042182 0.18188676 17.6503917 0.23127085 20.80078125 0.29296875 C20.80078125 0.62296875 20.80078125 0.95296875 20.80078125 1.29296875 C20.10629883 1.26041992 19.41181641 1.22787109 18.69628906 1.19433594 C4.36117958 0.12030715 4.36117958 0.12030715 -8.53125 5.03125 C-11.49842456 7.83648666 -13.9200446 10.9124487 -16.19921875 14.29296875 C-17.18921875 13.96296875 -18.17921875 13.63296875 -19.19921875 13.29296875 C-15.86588542 9.95963542 -12.53255208 6.62630208 -9.19921875 3.29296875 C-8.57176758 2.48279297 -8.57176758 2.48279297 -7.93164062 1.65625 C-5.34107812 -0.38232117 -3.25426575 -0.04583473 0 0 Z " fill="#EC243C" transform="translate(86.19921875,210.70703125)"/>
<path d="M0 0 C3.3125 -0.25 3.3125 -0.25 7 0 C8.9375 2 8.9375 2 10 4 C9 5 9 5 6.125 5.375 C4.578125 5.189375 4.578125 5.189375 3 5 C1.125 2.5 1.125 2.5 0 0 Z " fill="#F4F5F6" transform="translate(128,28)"/>
<path d="M0 0 C-0.33645789 3.14027363 -1.05236086 4.05098295 -3.375 6.3125 C-4.674375 7.1478125 -4.674375 7.1478125 -6 8 C-6.99 7.67 -7.98 7.34 -9 7 C-7.88121617 5.82737096 -6.75476949 4.66204862 -5.625 3.5 C-4.68527344 2.52546875 -4.68527344 2.52546875 -3.7265625 1.53125 C-2 0 -2 0 0 0 Z " fill="#EC2339" transform="translate(109,185)"/>
<path d="M0 0 C0 3 0 3 -1.75 5.04296875 C-2.4925 5.75066406 -3.235 6.45835937 -4 7.1875 C-4.7425 7.90292969 -5.485 8.61835938 -6.25 9.35546875 C-6.8275 9.89816406 -7.405 10.44085938 -8 11 C-8 6.67750434 -5.85084926 5.11604454 -3 2 C-2.01 1.34 -1.02 0.68 0 0 Z " fill="#EB112A" transform="translate(145,172)"/>
<path d="M0 0 C0 3 0 3 -1.53125 4.60546875 C-2.1809375 5.12753906 -2.830625 5.64960938 -3.5 6.1875 C-4.1496875 6.71730469 -4.799375 7.24710938 -5.46875 7.79296875 C-5.9740625 8.19128906 -6.479375 8.58960938 -7 9 C-5.64978174 4.58110387 -3.73884332 2.65654657 0 0 Z " fill="#4A5969" transform="translate(103,21)"/>
</svg>
