<?xml version="1.0" encoding="UTF-8"?>
<!DOCTYPE svg PUBLIC "-//W3C//DTD SVG 1.1//EN" "http://www.w3.org/Graphics/SVG/1.1/DTD/svg11.dtd">
<svg version="1.2" width="210mm" height="297mm" viewBox="0 0 21000 29700" preserveAspectRatio="xMidYMid" fill-rule="evenodd" stroke-width="28.222" stroke-linejoin="round" xmlns="http://www.w3.org/2000/svg" xmlns:ooo="http://xml.openoffice.org/svg/export" xmlns:xlink="http://www.w3.org/1999/xlink" xmlns:presentation="http://sun.com/xmlns/staroffice/presentation" xmlns:smil="http://www.w3.org/2001/SMIL20/" xmlns:anim="urn:oasis:names:tc:opendocument:xmlns:animation:1.0" xmlns:svg="urn:oasis:names:tc:opendocument:xmlns:svg-compatible:1.0" xml:space="preserve">
 <defs class="ClipPathGroup">
  <clipPath id="presentation_clip_path" clipPathUnits="userSpaceOnUse">
   <rect x="0" y="0" width="21000" height="29700"/>
  </clipPath>
  <clipPath id="presentation_clip_path_shrink" clipPathUnits="userSpaceOnUse">
   <rect x="21" y="29" width="20958" height="29641"/>
  </clipPath>
 </defs>
 <defs class="TextShapeIndex">
  <g ooo:slide="id1" ooo:id-list="id3 id4 id5 id6 id7 id8 id9 id10 id11 id12 id13 id14 id15 id16 id17 id18"/>
 </defs>
 <defs class="EmbeddedBulletChars">
  <g id="bullet-char-template-57356" transform="scale(0.00048828125,-0.00048828125)">
   <path d="M 580,1141 L 1163,571 580,0 -4,571 580,1141 Z"/>
  </g>
  <g id="bullet-char-template-57354" transform="scale(0.00048828125,-0.00048828125)">
   <path d="M 8,1128 L 1137,1128 1137,0 8,0 8,1128 Z"/>
  </g>
  <g id="bullet-char-template-10146" transform="scale(0.00048828125,-0.00048828125)">
   <path d="M 174,0 L 602,739 174,1481 1456,739 174,0 Z M 1358,739 L 309,1346 659,739 1358,739 Z"/>
  </g>
  <g id="bullet-char-template-10132" transform="scale(0.00048828125,-0.00048828125)">
   <path d="M 2015,739 L 1276,0 717,0 1260,543 174,543 174,936 1260,936 717,1481 1274,1481 2015,739 Z"/>
  </g>
  <g id="bullet-char-template-10007" transform="scale(0.00048828125,-0.00048828125)">
   <path d="M 0,-2 C -7,14 -16,27 -25,37 L 356,567 C 262,823 215,952 215,954 215,979 228,992 255,992 264,992 276,990 289,987 310,991 331,999 354,1012 L 381,999 492,748 772,1049 836,1024 860,1049 C 881,1039 901,1025 922,1006 886,937 835,863 770,784 769,783 710,716 594,584 L 774,223 C 774,196 753,168 711,139 L 727,119 C 717,90 699,76 672,76 641,76 570,178 457,381 L 164,-76 C 142,-110 111,-127 72,-127 30,-127 9,-110 8,-76 1,-67 -2,-52 -2,-32 -2,-23 -1,-13 0,-2 Z"/>
  </g>
  <g id="bullet-char-template-10004" transform="scale(0.00048828125,-0.00048828125)">
   <path d="M 285,-33 C 182,-33 111,30 74,156 52,228 41,333 41,471 41,549 55,616 82,672 116,743 169,778 240,778 293,778 328,747 346,684 L 369,508 C 377,444 397,411 428,410 L 1163,1116 C 1174,1127 1196,1133 1229,1133 1271,1133 1292,1118 1292,1087 L 1292,965 C 1292,929 1282,901 1262,881 L 442,47 C 390,-6 338,-33 285,-33 Z"/>
  </g>
  <g id="bullet-char-template-9679" transform="scale(0.00048828125,-0.00048828125)">
   <path d="M 813,0 C 632,0 489,54 383,161 276,268 223,411 223,592 223,773 276,916 383,1023 489,1130 632,1184 813,1184 992,1184 1136,1130 1245,1023 1353,916 1407,772 1407,592 1407,412 1353,268 1245,161 1136,54 992,0 813,0 Z"/>
  </g>
  <g id="bullet-char-template-8226" transform="scale(0.00048828125,-0.00048828125)">
   <path d="M 346,457 C 273,457 209,483 155,535 101,586 74,649 74,723 74,796 101,859 155,911 209,963 273,989 346,989 419,989 480,963 531,910 582,859 608,796 608,723 608,648 583,586 532,535 482,483 420,457 346,457 Z"/>
  </g>
  <g id="bullet-char-template-8211" transform="scale(0.00048828125,-0.00048828125)">
   <path d="M -4,459 L 1135,459 1135,606 -4,606 -4,459 Z"/>
  </g>
  <g id="bullet-char-template-61548" transform="scale(0.00048828125,-0.00048828125)">
   <path d="M 173,740 C 173,903 231,1043 346,1159 462,1274 601,1332 765,1332 928,1332 1067,1274 1183,1159 1299,1043 1357,903 1357,740 1357,577 1299,437 1183,322 1067,206 928,148 765,148 601,148 462,206 346,322 231,437 173,577 173,740 Z"/>
  </g>
 </defs>
 <g>
  <g id="id2" class="Master_Slide">
   <g id="bg-id2" class="Background"/>
   <g id="bo-id2" class="BackgroundObjects"/>
  </g>
 </g>
 <g class="SlideGroup">
  <g>
   <g id="container-id1">
    <g id="id1" class="Slide" clip-path="url(#presentation_clip_path)">
     <g class="Page">
      <g class="Group">
       <g class="Group">
        <g class="com.sun.star.drawing.ClosedBezierShape">
         <g id="id3">
          <rect class="BoundingBox" stroke="none" fill="none" x="5155" y="9505" width="10692" height="10692"/>
          <path fill="rgb(255,255,255)" stroke="none" d="M 10500,20196 C 13453,20196 15846,17803 15846,14850 15846,11898 13453,9505 10500,9505 7548,9505 5155,11898 5155,14850 5155,17803 7548,20196 10500,20196 Z"/>
         </g>
        </g>
        <g class="com.sun.star.drawing.PolyPolygonShape">
         <g id="id4">
          <rect class="BoundingBox" stroke="none" fill="none" x="14444" y="15850" width="347" height="416"/>
          <path fill="rgb(227,0,34)" stroke="none" d="M 14444,15917 L 14578,15917 14578,16265 14657,16265 14657,15917 14790,15917 14790,15850 14444,15850 14444,15917 Z"/>
         </g>
        </g>
        <g class="com.sun.star.drawing.PolyPolygonShape">
         <g id="id5">
          <rect class="BoundingBox" stroke="none" fill="none" x="14860" y="15850" width="525" height="416"/>
          <path fill="rgb(227,0,34)" stroke="none" d="M 15253,15850 L 15123,16188 14990,15850 14860,15850 14860,16265 14930,16265 14930,15908 14931,15908 15071,16265 15168,16265 15305,15908 15306,15908 15306,16265 15384,16265 15384,15850 15253,15850 Z"/>
         </g>
        </g>
        <g class="com.sun.star.drawing.ClosedBezierShape">
         <g id="id6">
          <rect class="BoundingBox" stroke="none" fill="none" x="12436" y="13301" width="2216" height="2593"/>
          <path fill="rgb(227,0,34)" stroke="none" d="M 14646,15055 C 14652,14848 14646,14193 14646,14193 L 13572,14425 C 13572,14425 13572,14506 13572,14677 13574,14842 13654,14932 13828,14901 13882,14892 13966,14865 13966,14865 L 13967,15069 C 13967,15064 13983,15184 13713,15238 13359,15293 13199,15075 13194,14691 13201,14277 13434,14040 13717,13975 14035,13902 14216,13977 14322,13994 14677,14047 14778,13514 14454,13389 14216,13294 13905,13277 13609,13334 13215,13413 12438,13744 12436,14818 12438,15670 13067,15948 13632,15884 14037,15837 14319,15674 14473,15523 14613,15385 14646,15196 14646,15055 Z"/>
         </g>
        </g>
        <g class="com.sun.star.drawing.ClosedBezierShape">
         <g id="id7">
          <rect class="BoundingBox" stroke="none" fill="none" x="10144" y="13701" width="2180" height="3097"/>
          <path fill="rgb(227,0,34)" stroke="none" d="M 11960,13789 C 11770,13842 11624,13963 11624,14281 11624,14393 11624,15039 11624,15039 11624,15039 11194,14499 10912,14217 10761,14067 10511,14157 10511,14157 L 10144,14268 10144,16797 C 10144,16797 10474,16684 10502,16674 10768,16583 10864,16425 10863,16153 10859,15858 10859,15281 10859,15281 L 11624,16163 C 11748,16291 11905,16302 12048,16260 12195,16217 12318,16083 12322,15892 12323,15255 12321,13701 12321,13701 12321,13701 12124,13742 11960,13789 Z"/>
         </g>
        </g>
        <g class="com.sun.star.drawing.ClosedBezierShape">
         <g id="id8">
          <rect class="BoundingBox" stroke="none" fill="none" x="9110" y="14326" width="805" height="2836"/>
          <path fill="rgb(227,0,34)" stroke="none" d="M 9110,15059 C 9110,15398 9110,17161 9110,17161 9110,17161 9324,17088 9523,17013 9807,16907 9913,16761 9913,16464 9913,16208 9914,14326 9914,14326 9914,14326 9683,14393 9495,14460 9251,14549 9110,14690 9110,15059 Z"/>
         </g>
        </g>
        <g class="com.sun.star.drawing.ClosedBezierShape">
         <g id="id9">
          <rect class="BoundingBox" stroke="none" fill="none" x="6879" y="14789" width="2105" height="3223"/>
          <path fill="rgb(227,0,34)" stroke="none" d="M 8348,16183 C 8348,16183 8831,15419 8910,15291 9015,15122 8962,14913 8770,14826 8559,14730 8377,14837 8300,14955 L 7649,16062 7648,15169 6881,15483 6879,18010 7419,17784 C 7419,17784 7525,17754 7588,17653 7647,17561 7645,17405 7645,17405 L 7646,16605 8250,17246 C 8383,17384 8626,17454 8841,17281 9035,17123 9005,16856 8897,16736 L 8348,16183 Z"/>
         </g>
        </g>
        <g class="com.sun.star.drawing.ClosedBezierShape">
         <g id="id10">
          <rect class="BoundingBox" stroke="none" fill="none" x="6483" y="13251" width="1262" height="2105"/>
          <path fill="rgb(227,0,34)" stroke="none" d="M 7743,14399 C 7740,14216 7602,14083 7440,14056 7604,13925 7680,13773 7680,13597 7680,13332 7447,13159 7050,13303 6911,13353 6483,13528 6483,13528 L 6484,15354 7163,15078 C 7495,14940 7749,14752 7743,14399 Z M 7743,14399 L 7743,14399 Z M 6952,13670 L 6952,13670 C 7101,13592 7212,13627 7211,13762 7210,13881 7138,13972 7037,14022 7009,14035 6985,14046 6952,14060 L 6952,13670 Z M 6952,13670 L 6952,13670 Z M 6955,14789 L 6955,14789 6955,14342 C 7142,14248 7250,14324 7252,14463 7254,14600 7168,14691 7059,14741 7015,14762 6955,14789 6955,14789 Z"/>
         </g>
        </g>
        <g class="com.sun.star.drawing.ClosedBezierShape">
         <g id="id11">
          <rect class="BoundingBox" stroke="none" fill="none" x="7779" y="12677" width="1252" height="1974"/>
          <path fill="rgb(227,0,34)" stroke="none" d="M 8793,12689 C 8689,12719 8568,12767 8568,12767 L 8567,13909 C 8566,14023 8549,14166 8408,14201 8300,14228 8249,14157 8249,14042 L 8247,13107 C 8247,12951 8139,12905 8011,12947 7867,12996 7780,13030 7780,13030 7780,13030 7781,13840 7780,14164 7779,14543 8039,14732 8439,14614 8790,14510 9024,14314 9029,13808 L 9028,12849 C 9028,12693 8922,12653 8793,12689 Z"/>
         </g>
        </g>
        <g class="com.sun.star.drawing.ClosedBezierShape">
         <g id="id12">
          <rect class="BoundingBox" stroke="none" fill="none" x="11944" y="11640" width="1017" height="1877"/>
          <path fill="rgb(227,0,34)" stroke="none" d="M 12960,13105 C 12960,12993 12960,12908 12960,12908 L 12410,13028 12410,12705 C 12410,12705 12680,12648 12756,12631 12850,12611 12899,12558 12899,12451 12899,12351 12899,12264 12899,12264 L 12410,12367 12410,12111 C 12410,12111 12663,12059 12801,12029 12907,12007 12942,11934 12942,11834 12942,11769 12944,11640 12944,11640 12700,11682 12237,11775 11948,11841 L 11945,13516 C 11945,13516 12493,13387 12796,13322 12897,13299 12960,13228 12960,13105 Z"/>
         </g>
        </g>
        <g class="com.sun.star.drawing.ClosedBezierShape">
         <g id="id13">
          <rect class="BoundingBox" stroke="none" fill="none" x="9154" y="12373" width="1291" height="1935"/>
          <path fill="rgb(227,0,34)" stroke="none" d="M 10368,13936 C 10471,13839 10465,13678 10373,13589 L 10075,13303 C 10211,13191 10362,13027 10364,12756 10368,12472 10117,12313 9766,12394 9540,12446 9154,12580 9154,12580 L 9154,14306 C 9154,14306 9340,14242 9427,14212 9533,14172 9616,14084 9617,13963 9617,13834 9619,13512 9619,13512 L 10015,13922 C 10144,14053 10307,13993 10368,13936 Z M 10368,13936 L 10368,13936 Z M 9618,13254 L 9618,13254 9618,12774 C 9709,12741 9884,12700 9887,12891 9890,13113 9618,13253 9618,13254 Z"/>
         </g>
        </g>
        <g class="com.sun.star.drawing.ClosedBezierShape">
         <g id="id14">
          <rect class="BoundingBox" stroke="none" fill="none" x="13060" y="11510" width="1258" height="1763"/>
          <path fill="rgb(227,0,34)" stroke="none" d="M 13510,12984 C 13511,12862 13509,12582 13509,12582 L 13899,13038 C 13969,13116 14091,13157 14215,13079 14340,13000 14344,12838 14259,12743 14196,12673 13961,12408 13961,12408 14089,12321 14239,12176 14242,11936 14246,11664 14014,11473 13667,11516 13542,11532 13060,11617 13060,11617 L 13060,13271 13312,13221 C 13439,13195 13509,13106 13510,12984 Z M 13510,12984 L 13510,12984 Z M 13775,12009 L 13775,12009 C 13778,12224 13509,12325 13508,12326 L 13508,11879 C 13592,11860 13772,11827 13775,12009 Z"/>
         </g>
        </g>
        <g class="com.sun.star.drawing.ClosedBezierShape">
         <g id="id15">
          <rect class="BoundingBox" stroke="none" fill="none" x="10422" y="11957" width="1417" height="1791"/>
          <path fill="rgb(227,0,34)" stroke="none" d="M 11244,13732 C 11499,13680 11625,13598 11713,13520 11801,13443 11838,13328 11838,13230 L 11838,12578 11153,12733 C 11153,12733 11152,12805 11152,12925 11153,13013 11215,13070 11304,13052 11361,13041 11406,13031 11406,13031 L 11407,13220 C 11408,13295 11295,13345 11178,13342 11013,13337 10921,13210 10919,12967 10924,12647 11074,12460 11280,12407 11382,12381 11475,12394 11547,12403 11724,12432 11825,12346 11829,12201 11832,12044 11694,11949 11397,11958 10751,11981 10422,12444 10422,12997 10422,13563 10791,13813 11244,13732 Z"/>
         </g>
        </g>
        <g class="com.sun.star.drawing.ClosedBezierShape">
         <g id="id16">
          <rect class="BoundingBox" stroke="none" fill="none" x="7423" y="10337" width="5590" height="2413"/>
          <path fill="rgb(253,191,0)" stroke="none" d="M 12904,11326 C 12948,11319 12988,11305 13005,11264 13028,11206 12980,11148 12980,11148 12980,11148 12600,10501 11253,10357 10533,10281 9552,10427 8864,10797 7617,11469 7431,12575 7431,12575 7424,12602 7413,12684 7440,12720 7468,12755 7510,12755 7562,12737 8001,12589 9313,12155 10139,11935 11316,11623 12284,11432 12904,11326 Z M 12904,11326 L 12904,11326 Z M 12278,11057 L 12278,11057 C 12274,11238 11978,11293 11570,11393 11730,11346 11893,11180 11892,11043 11889,10825 11400,10551 10578,10472 11439,10391 12285,10752 12278,11057 Z M 12278,11057 L 12278,11057 Z M 8030,12259 L 8030,12259 C 8013,12401 7836,12382 7847,12248 7875,11912 8402,11063 9224,10742 8763,11063 8189,11646 8030,12259 Z"/>
         </g>
        </g>
        <g class="com.sun.star.drawing.ClosedBezierShape">
         <g id="id17">
          <rect class="BoundingBox" stroke="none" fill="none" x="8450" y="16099" width="5453" height="2450"/>
          <path fill="rgb(253,191,0)" stroke="none" d="M 13873,16127 C 13840,16094 13794,16094 13730,16108 12304,16443 9929,17168 8561,17755 8502,17780 8475,17789 8457,17832 8429,17898 8494,17963 8494,17963 8772,18313 10013,18763 11357,18432 13287,17956 13844,16482 13893,16276 13903,16235 13911,16167 13873,16127 Z M 13873,16127 L 13873,16127 Z M 13473,16643 L 13473,16643 C 13149,17332 12431,17877 11820,18087 12508,17696 13004,17065 13194,16576 13270,16342 13567,16445 13473,16643 Z"/>
         </g>
        </g>
        <g class="com.sun.star.drawing.ClosedBezierShape">
         <g id="id18">
          <rect class="BoundingBox" stroke="none" fill="none" x="5379" y="9728" width="9827" height="10240"/>
          <path fill="rgb(0,90,162)" stroke="none" d="M 14347,16382 C 13642,17964 12291,19064 10520,19090 9229,19108 8120,18677 7367,17979 L 6713,18258 6713,17246 C 6217,16558 5917,15656 5917,14633 5917,11944 7977,9825 10850,9825 11319,9825 11742,9898 12062,9970 11570,9813 11081,9728 10536,9728 7453,9728 5379,12227 5379,14804 5379,17614 7582,19967 10475,19967 13238,19967 14728,18019 15205,16848 L 14347,16382 Z"/>
         </g>
        </g>
       </g>
      </g>
     </g>
    </g>
   </g>
  </g>
 </g>
</svg>