<?xml version="1.0" encoding="UTF-8"?>
<svg version="1.1" xmlns="http://www.w3.org/2000/svg" width="334" height="334">
<path d="M0 0 C110.22 0 220.44 0 334 0 C334 110.22 334 220.44 334 334 C223.78 334 113.56 334 0 334 C0 223.78 0 113.56 0 0 Z " fill="#E2F5FC" transform="translate(0,0)"/>
<path d="M0 0 C12.02461355 5.40662009 21.83098338 19.46048171 28.88085938 30.28222656 C30.02114617 32.03245734 31.18823252 33.76248531 32.359375 35.4921875 C37.01543084 42.45787171 40.97046718 49.58137711 44.58984375 57.13671875 C45.97042868 60.09648359 45.97042868 60.09648359 48 63 C48.52207031 62.15695313 49.04414063 61.31390625 49.58203125 60.4453125 C58.14072989 47.65783016 71.24665826 38.21417089 84 30 C84.94311035 29.38584229 84.94311035 29.38584229 85.90527344 28.75927734 C102.2888954 18.18962011 121.57154711 8.02452274 141 5 C141.43467055 27.31866072 141.79698817 49.06852141 137 71 C136.8345166 71.76505859 136.6690332 72.53011719 136.49853516 73.31835938 C133.32789919 87.44885933 128.06812427 101.89781359 120 114 C120.90878906 113.97679687 121.81757813 113.95359375 122.75390625 113.9296875 C144.85281232 113.61236987 166.98257845 118.48707675 187 128 C189.08304309 128.93814472 191.16637216 129.87565474 193.25 130.8125 C194.83422706 131.53972287 196.41791454 132.26812976 198 133 C197.41929352 136.16819065 196.55925255 137.82382944 194.296875 140.1015625 C193.73556885 140.66907227 193.1742627 141.23658203 192.59594727 141.82128906 C191.98678467 142.41651367 191.37762207 143.01173828 190.75 143.625 C190.11956787 144.24600586 189.48913574 144.86701172 188.83959961 145.50683594 C182.9425375 151.2188546 176.69169884 156.25249779 170 161 C169.4323291 161.4120166 168.8646582 161.8240332 168.27978516 162.24853516 C148.51296999 176.52121751 126.7933911 186.40513261 102 184 C85.79870005 181.14492211 74.24111043 171.24111043 63 160 C63.30504913 153.5939683 66.51856445 148.22215333 70 143 C62.41 143 54.82 143 47 143 C43.8001786 136.06705364 40.76378331 129.11790004 38 122 C36.86111328 123.28197266 36.86111328 123.28197266 35.69921875 124.58984375 C34.69561498 125.70600122 33.69169204 126.82187176 32.6875 127.9375 C32.18798828 128.50146484 31.68847656 129.06542969 31.17382812 129.64648438 C27.33984375 133.88671875 27.33984375 133.88671875 24 135 C21.35321024 133.92938841 18.90235847 132.80584534 16.375 131.5 C15.65368896 131.13052246 14.93237793 130.76104492 14.18920898 130.38037109 C1.42146343 123.68258446 -8.72729245 114.11566124 -15 101 C-15.556875 99.9275 -16.11375 98.855 -16.6875 97.75 C-26.82777412 68.77778822 -16.81097529 34.00173469 -4.61328125 7.1875 C-3.26018295 4.51406608 -1.9022873 2.29883662 0 0 Z " fill="#4DAAE7" transform="translate(126,20)"/>
<path d="M0 0 C12.02461355 5.40662009 21.83098338 19.46048171 28.88085938 30.28222656 C30.02114617 32.03245734 31.18823252 33.76248531 32.359375 35.4921875 C38.7334285 45.02410195 44.57116222 55.00121602 48 66 C47.01 66.66 46.02 67.32 45 68 C41.19579489 75.22567007 38.91401893 83.09494622 37 91 C36.34 91 35.68 91 35 91 C35.14008671 94.5210863 35.28810982 98.04179712 35.4375 101.5625 C35.47681641 102.55314453 35.51613281 103.54378906 35.55664062 104.56445312 C35.78172346 109.77598637 36.14105239 114.85353238 37 120 C37.99 120 38.98 120 40 120 C39.505 121.485 39.505 121.485 39 123 C38.34 123 37.68 123 37 123 C34.65547707 125.45314947 32.48927278 128.03433195 30.2890625 130.6171875 C26.61068131 134.44621912 26.61068131 134.44621912 24 135 C21.23747361 133.98858323 18.88444224 132.93846074 16.3125 131.5625 C15.59570068 131.18851074 14.87890137 130.81452148 14.14038086 130.42919922 C1.43293539 123.64019144 -8.72913604 114.11180646 -15 101 C-15.556875 99.9275 -16.11375 98.855 -16.6875 97.75 C-26.82777412 68.77778822 -16.81097529 34.00173469 -4.61328125 7.1875 C-3.26018295 4.51406608 -1.9022873 2.29883662 0 0 Z " fill="#4EABE7" transform="translate(126,20)"/>
<path d="M0 0 C14.68947894 12.6286385 30.56226386 33.74266793 35 53 C34.67 53.99 34.34 54.98 34 56 C8.32230676 56.59074448 -18.52250831 56.2329879 -40 40 C-46.91595114 33.33707146 -50.89773276 26.00700277 -54 17 C-54.433125 15.865625 -54.86625 14.73125 -55.3125 13.5625 C-56.35803444 8.14473065 -57.05276492 2.44787442 -56 -3 C-40.65144117 -15.354376 -14.28706584 -11.40938733 0 0 Z " fill="#4EACE7" transform="translate(248,219)"/>
<path d="M0 0 C14.88139568 -0.49674706 28.63270427 -0.08653383 43 4 C44.18795166 4.33741211 44.18795166 4.33741211 45.39990234 4.68164062 C54.57380504 7.36452214 63.20143267 10.3160442 71 16 C71.6290625 16.43699219 72.258125 16.87398437 72.90625 17.32421875 C81.43838312 23.85429432 86.77897397 34.33985802 88.6875 44.75 C88.81407619 46.16484049 88.91516505 47.58204437 89 49 C89.07605469 50.01191406 89.15210937 51.02382812 89.23046875 52.06640625 C89.30201172 53.67322266 89.30201172 53.67322266 89.375 55.3125 C89.42398438 56.31925781 89.47296875 57.32601562 89.5234375 58.36328125 C89 61 89 61 86.9453125 62.71875 C74.80862935 67.99836813 61.06606491 70.40973398 48.375 66 C23.71398777 55.39279353 10.22041463 29.75033261 0.59375 6.015625 C0 4 0 4 0 0 Z " fill="#4EACE8" transform="translate(26,102)"/>
<path d="M0 0 C2.85347328 2.51366325 5.47530848 5.15795899 8 8 C6.2708332 17.03009327 0.48759272 23.297238 -6.71484375 28.7109375 C-13.43809097 32.5035385 -19.15215506 33.50108414 -26.75 33.375 C-27.63179932 33.36557373 -28.51359863 33.35614746 -29.42211914 33.34643555 C-42.33166906 33.04902416 -54.57089439 28.96181711 -66 23 C-65.57154931 18.64408461 -62.71535143 16.4358589 -59.625 13.6875 C-59.08697754 13.2032959 -58.54895508 12.7190918 -57.99462891 12.22021484 C-53.0288901 7.85100487 -47.765585 4.24738096 -42 1 C-41.1440625 0.51660156 -40.288125 0.03320312 -39.40625 -0.46484375 C-26.7102179 -7.22430529 -12.31513365 -8.61432099 0 0 Z " fill="#4FACE7" transform="translate(85,190)"/>
<path d="M0 0 C7.70159845 0.49159139 14.09303366 3.55263437 19.3125 9.3125 C27.58267566 19.85697397 27.80110924 31.10472542 27 44 C25.67475539 52.96366238 22.16409629 61.5457348 19 70 C14.21017975 70 13.43758717 69.14978917 10 66 C-0.1509889 55.08358645 -10.80077683 40.92661126 -11.5 25.5 C-11.04592892 15.21748711 -6.67091039 7.5890975 0 0 Z " fill="#4FACE7" transform="translate(166,251)"/>
<path d="M0 0 C110.22 0 220.44 0 334 0 C334 0.66 334 1.32 334 2 C224.44 2 114.88 2 2 2 C2 111.56 2 221.12 2 334 C1.34 334 0.68 334 0 334 C0 223.78 0 113.56 0 0 Z " fill="#0A0B0D" transform="translate(0,0)"/>
<path d="M0 0 C1.06863281 0.01804688 2.13726562 0.03609375 3.23828125 0.0546875 C4.04652344 0.07789063 4.85476562 0.10109375 5.6875 0.125 C8.37859118 4.73932435 9.26757785 8.66100644 9.25 13.9375 C9.2490332 14.64237549 9.24806641 15.34725098 9.24707031 16.07348633 C9.02777004 22.60067358 6.94538976 26.38858593 2.6875 31.125 C2.09839844 31.93453125 1.50929688 32.7440625 0.90234375 33.578125 C-1.71445056 36.5872077 -4.64370136 38.60641416 -8 40.6875 C-8.6192334 41.07736084 -9.2384668 41.46722168 -9.87646484 41.86889648 C-21.59657323 49.125 -21.59657323 49.125 -28.3125 49.125 C-28.87365122 34.28566763 -27.96804567 18.90086943 -17.75 7.1875 C-11.94525275 2.27579079 -7.81791823 -0.17182238 0 0 Z " fill="#50ACE7" transform="translate(107.3125,248.875)"/>
<path d="M0 0 C0.66 0 1.32 0 2 0 C3.87920741 5.59252127 4.38634037 10.61434876 4.375 16.5 C4.37338867 17.37495117 4.37177734 18.24990234 4.37011719 19.15136719 C4.14082744 31.47456741 0.87572478 42.68641283 -6 53 C-6.66 53 -7.32 53 -8 53 C-9.28734746 47.30948566 -9.22267002 41.74853651 -9.25 35.9375 C-9.270625 34.86822266 -9.29125 33.79894531 -9.3125 32.69726562 C-9.35881684 23.11546946 -7.97449155 13.84836622 -3.375 5.3125 C-2.94960937 4.50425781 -2.52421875 3.69601563 -2.0859375 2.86328125 C-1 1 -1 1 0 0 Z " fill="#1D3586" transform="translate(172,86)"/>
<path d="M0 0 C0.99386719 0.00902344 1.98773438 0.01804688 3.01171875 0.02734375 C4.15060547 0.04474609 4.15060547 0.04474609 5.3125 0.0625 C-0.44045324 11.56840648 -12.64374467 18.95547299 -24.33203125 23.28515625 C-29.15839744 24.87793713 -33.55476404 26.0625 -38.6875 26.0625 C-37.59937541 19.28854126 -31.12681491 14.00917628 -26 9.875 C-18.52398336 4.54349809 -9.25433252 -0.1088745 0 0 Z " fill="#1D3486" transform="translate(237.6875,134.9375)"/>
<path d="M0 0 C8.58 0.66 17.16 1.32 26 2 C26 2.33 26 2.66 26 3 C17.05238395 5.0584497 8.33826012 4.92388711 0 1 C0 0.67 0 0.34 0 0 Z " fill="#68BADF" transform="translate(73,166)"/>
<path d="M0 0 C0.66 0.33 1.32 0.66 2 1 C1.0925 1.721875 0.185 2.44375 -0.75 3.1875 C-3.5701994 5.52652794 -5.80906658 8.05066655 -8 11 C-7.01 11.99 -6.02 12.98 -5 14 C-7.31 14.33 -9.62 14.66 -12 15 C-11.42357255 11.17461786 -9.6992642 9.19443221 -7.125 6.375 C-6.42632812 5.59898437 -5.72765625 4.82296875 -5.0078125 4.0234375 C-3 2 -3 2 0 0 Z " fill="#204C97" transform="translate(211,146)"/>
<path d="M0 0 C-1.80412643 3.26460973 -2.83394693 4.88929795 -6 7 C-5.67 5.35 -5.34 3.7 -5 2 C-9.69023454 2.56606279 -14.34500026 3.18537505 -19 4 C-13.86397674 -1.13602326 -6.74750628 -0.2161123 0 0 Z " fill="#204998" transform="translate(243,135)"/>
<path d="M0 0 C0.66 0 1.32 0 2 0 C1.86722656 0.76441406 1.73445313 1.52882813 1.59765625 2.31640625 C0.18497525 10.88529609 -0.54468416 19.33701706 -1 28 C-1.33 28 -1.66 28 -2 28 C-2.19144603 8.28105906 -2.19144603 8.28105906 -1 1 C-0.67 0.67 -0.34 0.34 0 0 Z " fill="#C0F1FB" transform="translate(80,270)"/>
<path d="M0 0 C-5.5963939 3.73092927 -14.37901376 3.82587355 -21 3 C-21.66 2.34 -22.32 1.68 -23 1 C-21.44539062 0.90912109 -21.44539062 0.90912109 -19.859375 0.81640625 C-18.48957127 0.73196629 -17.11978025 0.64732003 -15.75 0.5625 C-15.06808594 0.52318359 -14.38617188 0.48386719 -13.68359375 0.44335938 C-1.09266513 -0.35121379 -1.09266513 -0.35121379 0 0 Z " fill="#C2F3FB" transform="translate(256,203)"/>
<path d="M0 0 C2.00720923 0.28674418 4.0085944 0.61866701 6 1 C6 4.96 6 8.92 6 13 C5.67 13 5.34 13 5 13 C4.67 9.37 4.34 5.74 4 2 C1.8653125 2.7425 1.8653125 2.7425 -0.3125 3.5 C-3.13135886 4.48047265 -4.98509443 5 -8 5 C-8 4.34 -8 3.68 -8 3 C-6.865625 2.690625 -5.73125 2.38125 -4.5625 2.0625 C-1.21224901 1.37075469 -1.21224901 1.37075469 0 0 Z " fill="#D0F8FD" transform="translate(263,23)"/>
<path d="M0 0 C0.33 0.99 0.66 1.98 1 3 C-1.14615196 7.29230391 -4.61112726 8.51091818 -9 10 C-9.99 9.67 -10.98 9.34 -12 9 C-11.21753906 8.43410156 -10.43507813 7.86820313 -9.62890625 7.28515625 C-8.61699219 6.55167969 -7.60507812 5.81820312 -6.5625 5.0625 C-5.55316406 4.33160156 -4.54382813 3.60070312 -3.50390625 2.84765625 C-1.17707392 1.22678115 -1.17707392 1.22678115 0 0 Z " fill="#C9F2FA" transform="translate(306,172)"/>
<path d="M0 0 C-1.32 1.65 -2.64 3.3 -4 5 C-4.33 4.01 -4.66 3.02 -5 2 C-10.94 1.67 -16.88 1.34 -23 1 C-23 0.67 -23 0.34 -23 0 C-19.91722144 -0.1974877 -16.8337715 -0.38123332 -13.75 -0.5625 C-12.87730469 -0.61857422 -12.00460938 -0.67464844 -11.10546875 -0.73242188 C-10.26113281 -0.78076172 -9.41679687 -0.82910156 -8.546875 -0.87890625 C-7.77182617 -0.9260376 -6.99677734 -0.97316895 -6.19824219 -1.02172852 C-3.96887415 -0.99969234 -2.13101433 -0.6303897 0 0 Z " fill="#C7F8FD" transform="translate(197,163)"/>
<path d="M0 0 C13.6332574 0.59453303 13.6332574 0.59453303 20 4 C17.39094027 4.96631842 16.31396825 5.12728443 13.6875 4.0625 C10.92932792 2.77322022 10.92932792 2.77322022 7.4375 3.0625 C3.61866387 2.99306662 2.81430561 2.35859748 0 0 Z " fill="#61B5E0" transform="translate(62,184)"/>
<path d="M0 0 C0.66 0.99 1.32 1.98 2 3 C1.67 3.33 1.34 3.66 1 4 C4.3 4.66 7.6 5.32 11 6 C11 6.33 11 6.66 11 7 C6.38 7 1.76 7 -3 7 C-1 2 -1 2 0 0 Z " fill="#C0F5FC" transform="translate(249,127)"/>
<path d="M0 0 C-0.33 0.99 -0.66 1.98 -1 3 C-1.99 3 -2.98 3 -4 3 C-4 4.65 -4 6.3 -4 8 C-4.33 8 -4.66 8 -5 8 C-5.33 10.64 -5.66 13.28 -6 16 C-6.33 16 -6.66 16 -7 16 C-7.13496251 13.89758397 -7.23197307 11.7927039 -7.3125 9.6875 C-7.37050781 8.51574219 -7.42851562 7.34398437 -7.48828125 6.13671875 C-7 3 -7 3 -4.60546875 1.08203125 C-2 0 -2 0 0 0 Z " fill="#68BBDE" transform="translate(199,213)"/>
<path d="M0 0 C0.66 0.33 1.32 0.66 2 1 C-4.29781636 8.3315005 -4.29781636 8.3315005 -8.9375 8.9375 C-9.948125 8.958125 -10.95875 8.97875 -12 9 C-8.11327187 5.81994972 -4.10047867 2.89445553 0 0 Z " fill="#C8F4FC" transform="translate(104,285)"/>
<path d="M0 0 C1.48854809 2.36416462 2.05764708 3.56188219 1.6875 6.375 C1.460625 7.24125 1.23375 8.1075 1 9 C0.66055205 10.99897128 0.32578384 12.99875639 0 15 C-0.33 15 -0.66 15 -1 15 C-1.02715383 13.25008666 -1.04646551 11.50005055 -1.0625 9.75 C-1.07410156 8.77546875 -1.08570313 7.8009375 -1.09765625 6.796875 C-1.01195577 4.34241322 -0.70706066 2.33831086 0 0 Z " fill="#61B5DA" transform="translate(156,267)"/>
<path d="M0 0 C2.97 0 5.94 0 9 0 C7.95206337 4.19174654 7.08236365 5.21592961 4 8 C3.34 7.67 2.68 7.34 2 7 C3.32 5.35 4.64 3.7 6 2 C3.03 1.505 3.03 1.505 0 1 C0 0.67 0 0.34 0 0 Z " fill="#4187C9" transform="translate(236,134)"/>
<path d="M0 0 C-0.66 0 -1.32 0 -2 0 C-2.66 1.32 -3.32 2.64 -4 4 C-5.98 3.34 -7.96 2.68 -10 2 C-6.19832777 -0.53444815 -4.31588991 -1.33941411 0 0 Z " fill="#5FB5DB" transform="translate(60,186)"/>
<path d="M0 0 C2.475 0.495 2.475 0.495 5 1 C4.6875 2.875 4.6875 2.875 4 5 C3.01 5.66 2.02 6.32 1 7 C0.67 4.69 0.34 2.38 0 0 Z " fill="#5EB1DB" transform="translate(319,152)"/>
<path d="M0 0 C0.33 0.66 0.66 1.32 1 2 C0.04882866 3.1725131 -0.91117009 4.33787015 -1.875 5.5 C-2.40867187 6.1496875 -2.94234375 6.799375 -3.4921875 7.46875 C-3.98976563 7.9740625 -4.48734375 8.479375 -5 9 C-5.66 9 -6.32 9 -7 9 C-5.44499019 5.18315774 -2.96404505 2.80804268 0 0 Z " fill="#D0F5FC" transform="translate(317,162)"/>
<path d="M0 0 C0 3 0 3 -1.1875 4.5 C-3.3539419 6.29291744 -5.496528 7.71616821 -8 9 C-8.66 8.67 -9.32 8.34 -10 8 C-6.7 5.36 -3.4 2.72 0 0 Z " fill="#5FB6DD" transform="translate(200,57)"/>
<path d="M0 0 C1.60156595 4.00391487 0.4087561 7.07031192 -1 11 C-1.99 11.495 -1.99 11.495 -3 12 C-2.49202991 7.6822542 -1.80317221 3.96697886 0 0 Z " fill="#C0F1F9" transform="translate(259,103)"/>
<path d="M0 0 C0.33 0 0.66 0 1 0 C1.0270043 1.45823212 1.04639787 2.91660675 1.0625 4.375 C1.07410156 5.18710938 1.08570313 5.99921875 1.09765625 6.8359375 C1 9 1 9 0 11 C-0.66 11 -1.32 11 -2 11 C-1.125 3.375 -1.125 3.375 0 0 Z " fill="#C0F0FA" transform="translate(262,91)"/>
<path d="M0 0 C5.94 0.99 5.94 0.99 12 2 C12 2.33 12 2.66 12 3 C9.03 2.67 6.06 2.34 3 2 C3 2.66 3 3.32 3 4 C2.01 3.67 1.02 3.34 0 3 C0 2.01 0 1.02 0 0 Z " fill="#58B0DF" transform="translate(279,138)"/>
<path d="M0 0 C0.66 0 1.32 0 2 0 C2.33 1.98 2.66 3.96 3 6 C1.35 5.67 -0.3 5.34 -2 5 C-1.125 1.125 -1.125 1.125 0 0 Z " fill="#24529D" transform="translate(172,86)"/>
<path d="M0 0 C0.66 0.66 1.32 1.32 2 2 C1.625 4.125 1.625 4.125 1 6 C1 5.34 1 4.68 1 4 C0.01 4 -0.98 4 -2 4 C-2.33 4.99 -2.66 5.98 -3 7 C-3.66 6.67 -4.32 6.34 -5 6 C-3.35 4.02 -1.7 2.04 0 0 Z " fill="#BAEFFA" transform="translate(164,141)"/>
<path d="M0 0 C1.32 0.33 2.64 0.66 4 1 C4 2.32 4 3.64 4 5 C5.32 5.33 6.64 5.66 8 6 C6.02 6 4.04 6 2 6 C1.34 4.02 0.68 2.04 0 0 Z " fill="#56ADD5" transform="translate(170,156)"/>
<path d="M0 0 C0.66 1.32 1.32 2.64 2 4 C0.625 6 0.625 6 -1 8 C-1.66 8 -2.32 8 -3 8 C-1.125 2.25 -1.125 2.25 0 0 Z " fill="#5EB3DE" transform="translate(86,260)"/>
<path d="M0 0 C1.09658936 3.28976808 0.79953138 4.71303767 0 8 C-1.32 8 -2.64 8 -4 8 C-2.87548273 5.0280615 -1.77706209 2.66559313 0 0 Z " fill="#60B5DF" transform="translate(196,163)"/>
<path d="M0 0 C0.66 0.99 1.32 1.98 2 3 C2.99387334 4.33790641 3.9926892 5.67218122 5 7 C4.67 7.66 4.34 8.32 4 9 C2.02 6.69 0.04 4.38 -2 2 C-1.34 2 -0.68 2 0 2 C0 1.34 0 0.68 0 0 Z " fill="#C3F2F9" transform="translate(134,22)"/>
</svg>
