<?xml version="1.0" encoding="UTF-8"?>
<svg version="1.1" xmlns="http://www.w3.org/2000/svg" width="225" height="225">
<path d="M0 0 C74.25 0 148.5 0 225 0 C225 74.25 225 148.5 225 225 C150.75 225 76.5 225 0 225 C0 150.75 0 76.5 0 0 Z " fill="#FEFEFE" transform="translate(0,0)"/>
<path d="M0 0 C2.95384899 0.26629023 4.60182351 0.660598 6.87890625 2.6015625 C16 13.5638051 16 13.5638051 16 18 C25.02876843 18.61247591 25.02876843 18.61247591 32.7578125 14.625 C35.07764456 11.74076172 35.07764456 11.74076172 37.03515625 8.76171875 C39.08876813 5.87523048 41.0935675 4.00738873 44 2 C46.125 1.9375 46.125 1.9375 48 3 C55.92578522 14.06349967 56.27712401 35.65541303 56 49 C58.0632984 48.93958131 60.12577414 48.85068362 62.1875 48.75 C63.33605469 48.70359375 64.48460937 48.6571875 65.66796875 48.609375 C69.51848693 47.90517707 71.2206446 46.70313907 74 44 C75.52491998 40.95016004 75.23562548 38.3576631 75 35 C73.64570159 33.05630262 73.64570159 33.05630262 72 32 C71.67 32.33 71.34 32.66 71 33 C71.20625 33.763125 71.4125 34.52625 71.625 35.3125 C72 38 72 38 70.875 40.3125 C69 42 69 42 66.5625 42.5 C63.04286508 41.81324197 62.03072125 40.97355611 60 38 C59.05752495 34.93838409 58.64142596 32.19301649 59 29 C61.375 26 61.375 26 64 24 C64.495 23.505 64.495 23.505 65 23 C69.91077532 22.43586197 73.88636453 22.46380515 78.375 24.625 C82.28994785 28.16709568 84.66406073 30.591912 85.41796875 35.99609375 C85.73376874 43.37898536 84.95317072 48.42270321 80 54 C79.195625 54.9075 78.39125 55.815 77.5625 56.75 C66.08858661 65.34087423 49.19661794 63.88261862 35.8125 62.3125 C30.44029155 61.34429222 27.44047515 60.30059394 24 56 C23.125 52.1875 23.125 52.1875 23 49 C26.3 47.35 29.6 45.7 33 44 C26.80968826 38.95000884 22.96242799 38.31160565 15 39 C11.91003167 40.29262369 11.91003167 40.29262369 10 42 C12.97 43.98 15.94 45.96 19 48 C18.90463292 52.0054172 18.03249171 54.50465699 15.3125 57.375 C9.31611897 62.09792279 1.35002142 60.51610424 -5.765625 59.671875 C-9.20470254 59.05694061 -11.64262566 58.22123174 -14.625 56.375 C-19.3204276 48.26471596 -11.63882158 28.16289242 -9.34130859 19.52294922 C-5.18327834 5.18327834 -5.18327834 5.18327834 0 0 Z " fill="#0488F9" transform="translate(102,121)"/>
<path d="M0 0 C3.63289285 3.3425592 6.74198906 6.72950374 7.3125 11.75 C6.85437901 16.51445831 4.68663956 19.44902493 1.203125 22.65234375 C-1.53693693 24.32844546 -3.30620947 24.40132245 -6.5 24.375 C-7.90765625 24.38660156 -7.90765625 24.38660156 -9.34375 24.3984375 C-12.40017578 23.93997363 -13.62717368 22.90222402 -16 21 C-20.98731848 20.45592889 -23.99386861 20.93648776 -28 24 C-29.96752105 27.9350421 -29.46422595 32.7105522 -29 37 C-27.19881522 40.00197464 -26.09667268 41.45166366 -23 43 C-17.15876562 43.66376112 -17.15876562 43.66376112 -12.25 40.875 C-9.95056269 38.0163898 -9.95056269 38.0163898 -7.9375 34.875 C-4.94318182 30.43181818 -4.94318182 30.43181818 -2 29 C2.31417705 28.41612641 5.86114786 28.5048469 9.875 30.25 C12.84613246 32.69681497 14.74918895 34.65398071 15.46875 38.515625 C15.56132381 46.61583361 13.7464835 51.10173998 8.16796875 56.90625 C-1.73591459 66.1264333 -12.68112555 68.63143187 -25.89453125 68.30859375 C-34.74097775 67.82635136 -41.06118033 63.3522818 -47 57 C-55.01985676 47.07497364 -57.02312901 37.6522151 -56 25 C-54.67167198 16.40775206 -50.54850887 9.68059551 -43.7890625 4.2109375 C-31.47850213 -4.31822207 -13.46416793 -8.66630212 0 0 Z " fill="#02D30A" transform="translate(92,48)"/>
<path d="M0 0 C2.9375 0.9375 2.9375 0.9375 4.875 2.6875 C6.88627502 6.94667063 4.47813124 11.76051304 3.125 16.0625 C2.80917969 17.09632812 2.49335938 18.13015625 2.16796875 19.1953125 C0.81622862 22.20776194 -0.18344449 23.36958932 -3.0625 24.9375 C-6.73543796 24.71712372 -8.43216546 24.56783454 -11.0625 21.9375 C-11.80608054 15.12134504 -10.2438679 9.01548374 -7.0625 2.9375 C-4.4343761 0.47264632 -3.67059404 -0.07491008 0 0 Z " fill="#088AF9" transform="translate(158.0625,90.0625)"/>
<path d="M0 0 C3.625 0.4375 3.625 0.4375 5.75 2.375 C6.36875 3.385625 6.9875 4.39625 7.625 5.4375 C8.07101563 6.13875 8.51703125 6.84 8.9765625 7.5625 C11.57750371 11.86349776 13.6098984 15.26678339 12.625 20.4375 C11.5 22.3125 11.5 22.3125 9.625 23.4375 C6.6875 23.875 6.6875 23.875 3.625 23.4375 C0.42612731 20.71090182 -1.63070676 17.70654559 -3.6875 14.0625 C-4.48607422 12.68964844 -4.48607422 12.68964844 -5.30078125 11.2890625 C-6.59786143 7.84590419 -6.37782373 5.94491305 -5.375 2.4375 C-3.375 0.4375 -3.375 0.4375 0 0 Z " fill="#0688F9" transform="translate(126.375,91.5625)"/>
<path d="M0 0 C1.9375 1.125 1.9375 1.125 3 3 C3.375 6 3.375 6 3 9 C0.72857155 11.83742374 -2.17059092 13.42750944 -5.3125 15.1875 C-6.23675781 15.71730469 -7.16101563 16.24710938 -8.11328125 16.79296875 C-11.33178022 18.13872813 -13.54494798 18.302989 -17 18 C-18.875 16.9375 -18.875 16.9375 -20 15 C-20.75 11.6875 -20.75 11.6875 -20 8 C-17.27241364 5.4997125 -14.25282524 3.73950754 -11 2 C-10.31550781 1.62101562 -9.63101563 1.24203125 -8.92578125 0.8515625 C-5.88069748 -0.49494513 -3.27195854 -0.29745078 0 0 Z " fill="#0488F9" transform="translate(182,111)"/>
</svg>
