<?xml version="1.0" encoding="UTF-8"?>
<svg version="1.1" xmlns="http://www.w3.org/2000/svg" width="225" height="225">
<path d="M0 0 C74.25 0 148.5 0 225 0 C225 74.25 225 148.5 225 225 C150.75 225 76.5 225 0 225 C0 150.75 0 76.5 0 0 Z " fill="#0064AF" transform="translate(0,0)"/>
<path d="M0 0 C16.3713607 0 29.9311265 4.34127862 42.01171875 15.84765625 C48.60794235 22.9881655 52.89719103 31.25335231 57 40 C57.29132813 39.2265625 57.58265625 38.453125 57.8828125 37.65625 C60.52201919 30.95034118 63.37533596 25.50732842 68 20 C68.7425 18.989375 69.485 17.97875 70.25 16.9375 C78.25386144 7.49242879 91.00189805 1.86323466 103 0 C106.3 0 109.6 0 113 0 C113 8.91 113 17.82 113 27 C108.71 27.66 104.42 28.32 100 29 C92.2450372 32.8774814 87.06422195 38.2237864 83.734375 46.31640625 C81.72125359 53.67286588 81.85663639 61.44751176 85 68.4375 C89.81737644 76.65537745 96.8595598 81.52889262 106 84 C108.64 84.33 111.28 84.66 114 85 C114 93.58 114 102.16 114 111 C96.34198517 111 84.04100922 107.24056943 71.09765625 95.1875 C64.29976236 88.09844865 60.40570316 80.13419005 57 71 C54.93557246 74.09664131 53.50425025 77.18824591 51.9375 80.5625 C44.91495664 94.97072539 33.86501087 103.57949661 18.98046875 109.0546875 C11.85786225 111.31375798 6.95723628 111 -1 111 C-1 102.42 -1 93.84 -1 85 C4.94 84.01 4.94 84.01 11 83 C19.66697206 79.45996916 24.5590105 74.16458838 29 66 C31.59773056 58.20680831 30.91221709 48.68272438 27.4609375 41.25390625 C23.31168315 34.85251652 17.24756857 30.28870586 10 28 C6.7 27.34 3.4 26.68 0 26 C0 17.42 0 8.84 0 0 Z " fill="#FBFCFC" transform="translate(56,73)"/>
<path d="M0 0 C5.70816793 3.24582098 10.13102421 6.41457533 12.1875 12.8125 C13.0426719 19.3515417 13.20920642 25.09118655 9.625 30.8125 C5.34930813 36.23435635 1.32451031 39.75481289 -5.625 40.875 C-12.05711476 41.19807426 -17.81970684 39.42810228 -22.703125 35.16015625 C-27.84008233 29.46212348 -29.30123239 24.20093887 -29.1171875 16.59375 C-28.53834545 11.30996102 -26.78769807 7.6003275 -22.8359375 4.0234375 C-15.50585444 -1.60073532 -9.04937718 -2.81865847 0 0 Z " fill="#FBFCFC" transform="translate(120.8125,42.1875)"/>
<path d="M0 0 C0.66 0 1.32 0 2 0 C1.91621094 0.90363281 1.83242187 1.80726562 1.74609375 2.73828125 C1.64425781 3.91777344 1.54242188 5.09726563 1.4375 6.3125 C1.33308594 7.48425781 1.22867188 8.65601562 1.12109375 9.86328125 C0.81422566 13.03032575 0.81422566 13.03032575 2 16 C2.66 15.01 3.32 14.02 4 13 C5.98586835 12.59080811 7.99042871 12.26969306 10 12 C12.21444539 11.33244927 14.422603 10.64378593 16.625 9.9375 C23.23738569 7.98895656 29.14802245 7.54822126 36 8 C36 8.33 36 8.66 36 9 C34.54980469 9.16435547 34.54980469 9.16435547 33.0703125 9.33203125 C20.24708847 10.8936714 10.73489575 13.38551628 0 21 C-0.59941406 21.42410156 -1.19882813 21.84820312 -1.81640625 22.28515625 C-11.14162577 29.46776658 -16.54995197 41.03145108 -20 52 C-21.27422498 49.4965984 -22.47808623 46.97312466 -23.6640625 44.42578125 C-31.17466533 28.50948959 -40.35356569 18.89035428 -57.19921875 12.62890625 C-58.09060547 12.31759766 -58.09060547 12.31759766 -59 12 C-57 11 -55 10 -53 9 C-52.443125 9.639375 -51.88625 10.27875 -51.3125 10.9375 C-48.72793878 13.24264919 -47.34460827 13.48544488 -44 14 C-43.01 14.66 -42.02 15.32 -41 16 C-41.09539062 15.37351562 -41.19078125 14.74703125 -41.2890625 14.1015625 C-41.39992188 13.28429687 -41.51078125 12.46703125 -41.625 11.625 C-41.79902344 10.40683594 -41.79902344 10.40683594 -41.9765625 9.1640625 C-41.98429687 8.44992188 -41.99203125 7.73578125 -42 7 C-41.34 6.34 -40.68 5.68 -40 5 C-39.41605469 5.90492187 -39.41605469 5.90492187 -38.8203125 6.828125 C-34.47993485 13.02866451 -30.51997495 16.47127565 -23 18 C-16.41158663 18.55817118 -11.73741119 16.99068294 -6.69140625 12.75 C-3.23101613 9.16973494 -0.79706689 4.98166807 0 0 Z " fill="#0465AF" transform="translate(133,64)"/>
<path d="M0 0 C2.15580019 2.07880733 3.9869159 3.97987061 5.625 6.5 C9.17682347 10.23876154 12.99180177 11.87349471 18 13 C22.06975791 13.0287277 25.98334815 12.63493466 30 12 C29 14 29 14 27.3828125 14.609375 C24.19790396 15.13149115 21.10177658 15.20958109 17.875 15.25 C16.63492188 15.27578125 15.39484375 15.3015625 14.1171875 15.328125 C13.08851562 15.21984375 12.05984375 15.1115625 11 15 C10.34 14.01 9.68 13.02 9 12 C6.02096037 10.84682337 5.13440869 10.9551971 2 12 C2 13.65 2 15.3 2 17 C1.05898437 16.44570312 0.11796875 15.89140625 -0.8515625 15.3203125 C-2.10920604 14.58825133 -3.36702808 13.85649675 -4.625 13.125 C-5.24246094 12.76019531 -5.85992187 12.39539063 -6.49609375 12.01953125 C-10.24106836 9.85138806 -13.81827217 8.22235121 -18 7 C-16 6 -14 5 -12 4 C-11.1646875 4.9590625 -11.1646875 4.9590625 -10.3125 5.9375 C-7.72793878 8.24264919 -6.34460827 8.48544488 -3 9 C-2.01 9.66 -1.02 10.32 0 11 C-0.12568359 10.06027344 -0.12568359 10.06027344 -0.25390625 9.1015625 C-0.35574219 8.28429687 -0.45757812 7.46703125 -0.5625 6.625 C-0.66691406 5.81289062 -0.77132812 5.00078125 -0.87890625 4.1640625 C-1 2 -1 2 0 0 Z " fill="#0E65A3" transform="translate(92,69)"/>
<path d="M0 0 C0.66 0 1.32 0 2 0 C1.91621094 0.90363281 1.83242187 1.80726562 1.74609375 2.73828125 C1.64425781 3.91777344 1.54242188 5.09726563 1.4375 6.3125 C1.33308594 7.48425781 1.22867188 8.65601562 1.12109375 9.86328125 C0.81422566 13.03032575 0.81422566 13.03032575 2 16 C2.66 15.01 3.32 14.02 4 13 C5.98586835 12.59080811 7.99042871 12.26969306 10 12 C12.21444539 11.33244927 14.422603 10.64378593 16.625 9.9375 C23.23738569 7.98895656 29.14802245 7.54822126 36 8 C36 8.33 36 8.66 36 9 C34.54980469 9.16435547 34.54980469 9.16435547 33.0703125 9.33203125 C20.62870232 10.84719764 10.92894131 13.57976642 0 20 C0 18.68 0 17.36 0 16 C-0.721875 16.185625 -1.44375 16.37125 -2.1875 16.5625 C-5.12826973 17.01995307 -7.14103058 16.73516357 -10 16 C-9.60167969 15.55269531 -9.20335938 15.10539062 -8.79296875 14.64453125 C-2.9929766 8.0949242 -2.9929766 8.0949242 0 0 Z " fill="#12639D" transform="translate(133,64)"/>
<path d="M0 0 C0 0.66 0 1.32 0 2 C-5.94 2.495 -5.94 2.495 -12 3 C-12 11.58 -12 20.16 -12 29 C-9.03 29 -6.06 29 -3 29 C-3 29.66 -3 30.32 -3 31 C-4.45823212 31.0270043 -5.91660675 31.04639787 -7.375 31.0625 C-8.18710937 31.07410156 -8.99921875 31.08570313 -9.8359375 31.09765625 C-12 31 -12 31 -14 30 C-14 24.39 -14 18.78 -14 13 C-14.66 13 -15.32 13 -16 13 C-16.33 9.7 -16.66 6.4 -17 3 C-16.01 3 -15.02 3 -14 3 C-13.67 2.34 -13.34 1.68 -13 1 C-8.62669456 0.27111576 -4.4383722 -0.13869913 0 0 Z " fill="#206EA2" transform="translate(67,155)"/>
<path d="M0 0 C0.763125 0.33 1.52625 0.66 2.3125 1 C1.3125 4 1.3125 4 -0.6875 5 C-2.5625 5.16796875 -2.5625 5.16796875 -4.6875 5.1875 C-5.739375 5.20876953 -5.739375 5.20876953 -6.8125 5.23046875 C-8.6875 5 -8.6875 5 -10.6875 3 C-13.14799235 3.19985661 -13.14799235 3.19985661 -15.8125 3.875 C-16.72257812 4.07867187 -17.63265625 4.28234375 -18.5703125 4.4921875 C-19.61832031 4.74355469 -19.61832031 4.74355469 -20.6875 5 C-21.3475 6.98 -22.0075 8.96 -22.6875 11 C-24.0075 11 -25.3275 11 -26.6875 11 C-25.36665553 5.38641099 -21.25062373 3.00405646 -16.6875 0 C-11.85454501 -2.41647749 -5.03282779 -1.36483465 0 0 Z " fill="#F8FBF6" transform="translate(120.6875,42)"/>
<path d="M0 0 C0.33 0 0.66 0 1 0 C1 8.58 1 17.16 1 26 C1.66 26 2.32 26 3 26 C3 18.08 3 10.16 3 2 C3.66 2 4.32 2 5 2 C5.33 10.25 5.66 18.5 6 27 C2.30786078 27.9230348 -0.48149954 28.10346196 -4.25 28.0625 C-5.32765625 28.05347656 -6.4053125 28.04445312 -7.515625 28.03515625 C-8.33546875 28.02355469 -9.1553125 28.01195312 -10 28 C-10 27.34 -10 26.68 -10 26 C-6.7 26 -3.4 26 0 26 C0 17.42 0 8.84 0 0 Z " fill="#2B78AE" transform="translate(170,158)"/>
<path d="M0 0 C1.96630396 2.94945594 3.25740853 5.73697474 4.625 9 C5.07101563 10.051875 5.51703125 11.10375 5.9765625 12.1875 C7 15 7 15 7 18 C6.34 18 5.68 18 5 18 C4.34 16.68 3.68 15.36 3 14 C1.68 14 0.36 14 -1 14 C-1.33 14.33 -1.66 14.66 -2 15 C-2 16.32 -2 17.64 -2 19 C-3.32 18.67 -4.64 18.34 -6 18 C-6 14.41884838 -4.98117166 12.27942231 -3.5625 9 C-2.27614071 6.0094895 -1.02958882 3.08876646 0 0 Z " fill="#1465A2" transform="translate(112,141)"/>
<path d="M0 0 C0.99 0 1.98 0 3 0 C4.60355101 3.50776784 5.22036864 6.14354879 5 10 C5.66 10 6.32 10 7 10 C7.33 8.35 7.66 6.7 8 5 C8.66 5.66 9.32 6.32 10 7 C8.35 11.29 6.7 15.58 5 20 C3.23947882 16.47895763 1.54139469 12.94124564 -0.125 9.375 C-0.66382812 8.22773437 -1.20265625 7.08046875 -1.7578125 5.8984375 C-3 3 -3 3 -3 1 C-2.34 1 -1.68 1 -1 1 C-0.34 1.66 0.32 2.32 1 3 C1.33 2.34 1.66 1.68 2 1 C1.34 0.67 0.68 0.34 0 0 Z " fill="#0F63A2" transform="translate(108,96)"/>
<path d="M0 0 C3.27498603 2.97726003 4.79003161 5.49186167 5.40625 9.91796875 C5.63531888 17.90674594 4.56581815 23.0820863 -1 29 C-1.99 29.66 -2.98 30.32 -4 31 C-4 30.01 -4 29.02 -4 28 C-3.34 27.67 -2.68 27.34 -2 27 C-2.33 26.34 -2.66 25.68 -3 25 C-1.625 23.5 -1.625 23.5 0 22 C0.66 22 1.32 22 2 22 C2.05454409 19.64551325 2.0939279 17.29232125 2.125 14.9375 C2.14820313 13.62652344 2.17140625 12.31554687 2.1953125 10.96484375 C1.99417522 6.88175701 1.27165462 3.85000947 0 0 Z " fill="#E1F4F1" transform="translate(128,48)"/>
<path d="M0 0 C0 0.33 0 0.66 0 1 C-0.62648437 1.04898438 -1.25296875 1.09796875 -1.8984375 1.1484375 C-3.12433594 1.26058594 -3.12433594 1.26058594 -4.375 1.375 C-5.18710938 1.44460937 -5.99921875 1.51421875 -6.8359375 1.5859375 C-9.20334191 1.82892588 -9.20334191 1.82892588 -11 4 C-11.680625 4.165 -12.36125 4.33 -13.0625 4.5 C-13.701875 4.665 -14.34125 4.83 -15 5 C-15.33 5.66 -15.66 6.32 -16 7 C-22.625 7.25 -22.625 7.25 -26 5 C-17.35954829 0.95553324 -9.5300969 -0.35812473 0 0 Z " fill="#DDF1F1" transform="translate(169,73)"/>
<path d="M0 0 C0.5534764 2.07553648 1 3.84365964 1 6 C0.01 6.495 0.01 6.495 -1 7 C-1 7.66 -1 8.32 -1 9 C-1.99 9 -2.98 9 -4 9 C-4 10.32 -4 11.64 -4 13 C-5.03125 13.268125 -6.0625 13.53625 -7.125 13.8125 C-9.76270795 14.5449018 -11.61251767 15.33750974 -14.0625 16.6875 C-17.55037073 18.24591033 -19.36243442 17.95269575 -23 17 C-23 16.67 -23 16.34 -23 16 C-21.824375 15.7525 -20.64875 15.505 -19.4375 15.25 C-11.57389901 13.26325982 -5.62319065 9.07046824 -1.1875 2.1875 C-0.795625 1.465625 -0.40375 0.74375 0 0 Z " fill="#D8ECF0" transform="translate(84,141)"/>
<path d="M0 0 C5.56890517 0.47986031 10.67067568 1.29915181 16 3 C16 3.33 16 3.66 16 4 C14.69675781 4.18175781 14.69675781 4.18175781 13.3671875 4.3671875 C12.21476563 4.53476563 11.06234375 4.70234375 9.875 4.875 C8.73804688 5.03742188 7.60109375 5.19984375 6.4296875 5.3671875 C3.13921085 5.97431417 0.14220897 6.86345633 -3 8 C-3 7.01 -3 6.02 -3 5 C-1.35 4.67 0.3 4.34 2 4 C2 3.34 2 2.68 2 2 C1.34 1.34 0.68 0.68 0 0 Z " fill="#F2F7F4" transform="translate(153,96)"/>
<path d="M0 0 C1.52519276 0.08937803 3.04681929 0.24537146 4.5625 0.4375 C5.80193359 0.59025391 5.80193359 0.59025391 7.06640625 0.74609375 C7.70449219 0.82988281 8.34257812 0.91367188 9 1 C9 2.66666667 9 4.33333333 9 6 C9.598125 6.103125 10.19625 6.20625 10.8125 6.3125 C13.28243264 7.08876455 14.32251235 8.07088921 16 10 C9.76986087 10 5.00408735 6.80856663 0.4375 2.6875 C-0.036875 2.130625 -0.51125 1.57375 -1 1 C-0.67 0.67 -0.34 0.34 0 0 Z " fill="#E4F1F2" transform="translate(131,169)"/>
<path d="M0 0 C1.98 0 3.96 0 6 0 C5.29875 0.680625 4.5975 1.36125 3.875 2.0625 C0.72065663 5.20780513 -2.13934304 8.5888386 -5 12 C-6.06546953 8.8035914 -6.07427838 6.34252724 -6 3 C-4.68 3.33 -3.36 3.66 -2 4 C-2 3.34 -2 2.68 -2 2 C-1.34 2 -0.68 2 0 2 C0 1.34 0 0.68 0 0 Z " fill="#1066A2" transform="translate(127,84)"/>
<path d="M0 0 C0.84830498 2.90659535 1.05927111 5.35719421 0.9375 8.375 C0.89873699 12.29006366 1.29266436 15.40560917 3 19 C3.99 19.33 4.98 19.66 6 20 C6.6875 22.0625 6.6875 22.0625 7 24 C7.99 24 8.98 24 10 24 C10.33 24.99 10.66 25.98 11 27 C5.43738316 25.69114898 2.8853868 21.61114029 0 17 C-1.02835363 13.91493912 -1.13368434 11.7305728 -1.125 8.5 C-1.12757812 7.5409375 -1.13015625 6.581875 -1.1328125 5.59375 C-1 3 -1 3 0 0 Z " fill="#DCF2F5" transform="translate(93,53)"/>
<path d="M0 0 C7.88571493 4.69387793 12.31707867 10.20598009 15 19 C15 19.66 15 20.32 15 21 C14.34 21 13.68 21 13 21 C12.67128906 19.84371094 12.67128906 19.84371094 12.3359375 18.6640625 C11.38249919 15.64871694 10.4134216 12.83112629 9 10 C5.94704146 8.16884601 5.94704146 8.16884601 3 8 C3 6.68 3 5.36 3 4 C2.01 3.34 1.02 2.68 0 2 C0 1.34 0 0.68 0 0 Z " fill="#1A6599" transform="translate(72,103)"/>
<path d="M0 0 C-4.82646677 3.21764451 -10.19821824 4.36261136 -16 4 C-16 3.34 -16 2.68 -16 2 C-10.08247923 -1.30280229 -6.49305046 -1.48412582 0 0 Z " fill="#E6F4F4" transform="translate(78,180)"/>
<path d="M0 0 C0 0.66 0 1.32 0 2 C-2.33468142 3.38351492 -3.56670878 4.04684229 -6.3125 3.75 C-10.58682306 4.14761145 -13.00464711 7.09960066 -16 10 C-16.66 9.67 -17.32 9.34 -18 9 C-16.21024844 7.51851668 -14.41813943 6.03988094 -12.625 4.5625 C-11.62726563 3.73878906 -10.62953125 2.91507812 -9.6015625 2.06640625 C-5.79388543 -0.95800993 -4.6552055 -1.10254867 0 0 Z " fill="#DBECEF" transform="translate(144,81)"/>
<path d="M0 0 C5.44693314 -0.09688221 10.63904667 -0.12862175 16 1 C16 1.33 16 1.66 16 2 C11.38 2 6.76 2 2 2 C2 2.66 2 3.32 2 4 C3.32 4 4.64 4 6 4 C6 4.66 6 5.32 6 6 C4.02 6 2.04 6 0 6 C0 4.02 0 2.04 0 0 Z " fill="#DDF4F1" transform="translate(56,73)"/>
<path d="M0 0 C0.99 0.33 1.98 0.66 3 1 C-0.25892809 3.57998473 -3.72837719 5.69352333 -7.29296875 7.81640625 C-9.15143452 8.90269671 -9.15143452 8.90269671 -10 11 C-11.98 11 -13.96 11 -16 11 C-16.33 10.34 -16.66 9.68 -17 9 C-16.35933594 8.76925781 -15.71867187 8.53851563 -15.05859375 8.30078125 C-10.67810352 6.649121 -6.79247379 5.05301635 -3.0625 2.1875 C-1.5465625 1.1046875 -1.5465625 1.1046875 0 0 Z " fill="#1A679C" transform="translate(92,172)"/>
<path d="M0 0 C1.65 0 3.3 0 5 0 C5.66 1.32 6.32 2.64 7 4 C8.32 4 9.64 4 11 4 C11 5.32 11 6.64 11 8 C11.99 8.66 12.98 9.32 14 10 C13.01 10.33 12.02 10.66 11 11 C10.37351562 10.43410156 9.74703125 9.86820313 9.1015625 9.28515625 C8.28429687 8.55167969 7.46703125 7.81820312 6.625 7.0625 C5.40683594 5.96615234 5.40683594 5.96615234 4.1640625 4.84765625 C2.14075833 2.97010529 2.14075833 2.97010529 0 2 C0 1.34 0 0.68 0 0 Z " fill="#D9EDF4" transform="translate(71,101)"/>
<path d="M0 0 C-0.7425 0.804375 -1.485 1.60875 -2.25 2.4375 C-5.42779516 6.21282929 -7.18937887 10.44815916 -9 15 C-9.68707555 12.50935112 -10 10.62113708 -10 8 C-9.34 8 -8.68 8 -8 8 C-7.89042969 7.43410156 -7.78085938 6.86820312 -7.66796875 6.28515625 C-7.50941406 5.55167969 -7.35085937 4.81820312 -7.1875 4.0625 C-7.03667969 3.33160156 -6.88585937 2.60070312 -6.73046875 1.84765625 C-6.48941406 1.23792969 -6.24835938 0.62820312 -6 0 C-3 -1 -3 -1 0 0 Z " fill="#DBF0F2" transform="translate(148,107)"/>
<path d="M0 0 C0.99 0.33 1.98 0.66 3 1 C3 4.66666667 3 8.33333333 3 12 C1.96704564 10.90716423 0.94892165 9.80029421 -0.0625 8.6875 C-0.63097656 8.07261719 -1.19945313 7.45773438 -1.78515625 6.82421875 C-2.38650391 5.92123047 -2.38650391 5.92123047 -3 5 C-2.67 4.01 -2.34 3.02 -2 2 C-1.34 2 -0.68 2 0 2 C0 1.34 0 0.68 0 0 Z " fill="#055FA5" transform="translate(96,79)"/>
<path d="M0 0 C0.33 0.66 0.66 1.32 1 2 C0.67 2.99 0.34 3.98 0 5 C-0.66 5 -1.32 5 -2 5 C-1.95875 6.175625 -1.9175 7.35125 -1.875 8.5625 C-1.86016365 12.72409674 -2.68829222 16.06487667 -4 20 C-4.33 20 -4.66 20 -5 20 C-5.54768905 12.71269294 -4.624279 7.3897931 -1 1 C-0.67 0.67 -0.34 0.34 0 0 Z " fill="#146694" transform="translate(143,112)"/>
<path d="M0 0 C0 0.66 0 1.32 0 2 C-0.99 2.33 -1.98 2.66 -3 3 C-3.33 3.66 -3.66 4.32 -4 5 C-4.66 5 -5.32 5 -6 5 C-6.66 6.98 -7.32 8.96 -8 11 C-9.32 11 -10.64 11 -12 11 C-10.82612037 6.01101158 -7.81687611 4.01341878 -3.875 1.13671875 C-2 0 -2 0 0 0 Z " fill="#D8EFF0" transform="translate(106,42)"/>
<path d="M0 0 C1.11375 0.9590625 1.11375 0.9590625 2.25 1.9375 C4.7111121 3.78333407 6.03466926 4.56069174 9 5 C9 5.99 9 6.98 9 8 C4.27775484 6.46527032 -0.35855331 4.76054874 -5 3 C-4.360625 2.690625 -3.72125 2.38125 -3.0625 2.0625 C-1.06389179 1.1654837 -1.06389179 1.1654837 0 0 Z " fill="#1E6BA3" transform="translate(79,73)"/>
<path d="M0 0 C0.99 0 1.98 0 3 0 C3 0.99 3 1.98 3 3 C4.32 2.67 5.64 2.34 7 2 C7.33 4.64 7.66 7.28 8 10 C4.71211176 6.88983545 2.16264012 3.98381075 0 0 Z " fill="#DFF0F4" transform="translate(120,158)"/>
<path d="M0 0 C0 0.66 0 1.32 0 2 C0.66 2.33 1.32 2.66 2 3 C1.01 3.33 0.02 3.66 -1 4 C-1.73323796 6.01508358 -1.73323796 6.01508358 -2 8 C-2.99 7.67 -3.98 7.34 -5 7 C-5.1875 4.625 -5.1875 4.625 -5 2 C-2 0 -2 0 0 0 Z " fill="#F5F8F5" transform="translate(125,72)"/>
<path d="M0 0 C1.32 0.33 2.64 0.66 4 1 C4 1.66 4 2.32 4 3 C3.38125 3.0825 2.7625 3.165 2.125 3.25 C-0.18437567 3.81258459 -0.18437567 3.81258459 -1.25 6.0625 C-1.4975 6.701875 -1.745 7.34125 -2 8 C-2 7.34 -2 6.68 -2 6 C-2.66 6 -3.32 6 -4 6 C-4 4.35 -4 2.7 -4 1 C-3.34 1 -2.68 1 -2 1 C-1.67 1.66 -1.34 2.32 -1 3 C-0.67 2.01 -0.34 1.02 0 0 Z " fill="#0569B9" transform="translate(54,152)"/>
<path d="M0 0 C0.89203125 0.00902344 1.7840625 0.01804687 2.703125 0.02734375 C3.37859375 0.03894531 4.0540625 0.05054687 4.75 0.0625 C4.75 0.3925 4.75 0.7225 4.75 1.0625 C3.1 1.0625 1.45 1.0625 -0.25 1.0625 C-0.25 1.7225 -0.25 2.3825 -0.25 3.0625 C-3.88 3.0625 -7.51 3.0625 -11.25 3.0625 C-7.92392552 -0.26357448 -4.54621004 -0.05981855 0 0 Z " fill="#0F609A" transform="translate(165.25,99.9375)"/>
<path d="M0 0 C4.17660573 -0.26518132 7.04340734 -0.31886422 11 1 C10.67 1.66 10.34 2.32 10 3 C6.04 3 2.08 3 -2 3 C-1.34 2.01 -0.68 1.02 0 0 Z " fill="#0D629E" transform="translate(58,100)"/>
<path d="M0 0 C1.52519276 0.08937803 3.04681929 0.24537146 4.5625 0.4375 C5.80193359 0.59025391 5.80193359 0.59025391 7.06640625 0.74609375 C7.70449219 0.82988281 8.34257812 0.91367188 9 1 C8.01 2.485 8.01 2.485 7 4 C6.34 4 5.68 4 5 4 C4.67 4.66 4.34 5.32 4 6 C2.35 4.35 0.7 2.7 -1 1 C-0.67 0.67 -0.34 0.34 0 0 Z " fill="#DEECEB" transform="translate(131,169)"/>
<path d="M0 0 C0.99 1.32 1.98 2.64 3 4 C3.66 3.01 4.32 2.02 5 1 C4.67 3.64 4.34 6.28 4 9 C2.0625 8.625 2.0625 8.625 0 8 C-1.43088528 5.13822943 -0.59991697 3.06624227 0 0 Z " fill="#D3E7EE" transform="translate(110,109)"/>
<path d="M0 0 C0.66 0.66 1.32 1.32 2 2 C1.625 5.125 1.625 5.125 1 8 C-0.32 8 -1.64 8 -3 8 C-1.125 2.25 -1.125 2.25 0 0 Z " fill="#DBEFEC" transform="translate(118,101)"/>
<path d="M0 0 C4.875 4.75 4.875 4.75 6 7 C4.34385343 7.38218767 2.67542976 7.71395102 1 8 C0 7 0 7 -0.0625 3.4375 C-0.041875 2.303125 -0.02125 1.16875 0 0 Z " fill="#E2F2F1" transform="translate(96,88)"/>
<path d="M0 0 C1.04005702 3.38018531 1.08004482 6.4780279 1 10 C-0.32 9.67 -1.64 9.34 -3 9 C-3 5.30581799 -1.71820705 3.22163822 0 0 Z " fill="#1B6EA5" transform="translate(109,150)"/>
<path d="M0 0 C2.97 0.495 2.97 0.495 6 1 C4.25 2.5625 4.25 2.5625 2 4 C-0.25 3.6875 -0.25 3.6875 -2 3 C-2.66 4.32 -3.32 5.64 -4 7 C-4 5.35 -4 3.7 -4 2 C-2.68 2 -1.36 2 0 2 C0 1.34 0 0.68 0 0 Z " fill="#0668BB" transform="translate(139,74)"/>
<path d="M0 0 C-0.33 2.64 -0.66 5.28 -1 8 C-1.99 7.01 -2.98 6.02 -4 5 C-4.66 5.99 -5.32 6.98 -6 8 C-5.67 5.69 -5.34 3.38 -5 1 C-2 0 -2 0 0 0 Z " fill="#DDEFEF" transform="translate(116,139)"/>
<path d="M0 0 C0.99 0 1.98 0 3 0 C3.33 1.65 3.66 3.3 4 5 C3.01 5.66 2.02 6.32 1 7 C0.34 6.67 -0.32 6.34 -1 6 C-1.042721 4.33388095 -1.04063832 2.66617115 -1 1 C-0.67 0.67 -0.34 0.34 0 0 Z " fill="#EFF7F4" transform="translate(137,138)"/>
<path d="M0 0 C6.15234375 0.5859375 6.15234375 0.5859375 8 1 C8.33 1.66 8.66 2.32 9 3 C5.37 3.33 1.74 3.66 -2 4 C-1.34 2.68 -0.68 1.36 0 0 Z " fill="#C2E0E5" transform="translate(160,97)"/>
<path d="M0 0 C2.31 0.66 4.62 1.32 7 2 C5.375 3.625 5.375 3.625 3 5 C-0.25 4.1875 -0.25 4.1875 -3 3 C-2.01 2.01 -1.02 1.02 0 0 Z " fill="#E8F6F6" transform="translate(155,155)"/>
<path d="M0 0 C11.52164009 -0.3690205 11.52164009 -0.3690205 17 2 C16.34 2.66 15.68 3.32 15 4 C14.195625 3.690625 13.39125 3.38125 12.5625 3.0625 C8.37750913 1.81434483 4.33693899 1.3662304 0 1 C0 0.67 0 0.34 0 0 Z " fill="#CEEBF0" transform="translate(106,41)"/>
<path d="M0 0 C0.33 0 0.66 0 1 0 C1 1.98 1 3.96 1 6 C-1.3431213 5.74438677 -3.67843403 5.40729228 -6 5 C-6.33 4.34 -6.66 3.68 -7 3 C-3.25 1.875 -3.25 1.875 -1 3 C-0.67 2.01 -0.34 1.02 0 0 Z " fill="#0568BA" transform="translate(88,72)"/>
<path d="M0 0 C2.95929119 2.75520215 5.03681826 5.46627288 7 9 C1.00274725 6.89285714 1.00274725 6.89285714 -1 4 C-0.6875 1.8125 -0.6875 1.8125 0 0 Z " fill="#186699" transform="translate(92,69)"/>
<path d="M0 0 C0.66 0 1.32 0 2 0 C0.125 7.625 0.125 7.625 -1 11 C-1.99 11 -2.98 11 -4 11 C-3.71125 10.29875 -3.4225 9.5975 -3.125 8.875 C-1.97866412 5.94547497 -0.97374346 2.99078347 0 0 Z " fill="#236D9C" transform="translate(133,64)"/>
<path d="M0 0 C1.32 0.66 2.64 1.32 4 2 C4 3.98 4 5.96 4 8 C3.34 8 2.68 8 2 8 C2 7.01 2 6.02 2 5 C1.01 5 0.02 5 -1 5 C-0.67 3.35 -0.34 1.7 0 0 Z " fill="#F5F8F3" transform="translate(121,153)"/>
<path d="M0 0 C0.66 0.33 1.32 0.66 2 1 C1.67 2.98 1.34 4.96 1 7 C-0.98 6.34 -2.96 5.68 -5 5 C-4.67 4.34 -4.34 3.68 -4 3 C-2.68 3 -1.36 3 0 3 C0 2.01 0 1.02 0 0 Z " fill="#0D69AD" transform="translate(132,72)"/>
<path d="M0 0 C1.32 0 2.64 0 4 0 C4.33 2.97 4.66 5.94 5 9 C4.34 9 3.68 9 3 9 C2.01 6.03 1.02 3.06 0 0 Z " fill="#1865A1" transform="translate(130,50)"/>
<path d="M0 0 C1.32 0.99 2.64 1.98 4 3 C3.67 4.98 3.34 6.96 3 9 C0.86928411 6.40608501 -0.53582673 4.36525621 -1 1 C-0.67 0.67 -0.34 0.34 0 0 Z " fill="#DAF1F0" transform="translate(116,147)"/>
<path d="M0 0 C0.66 0 1.32 0 2 0 C2.125 2.875 2.125 2.875 2 6 C1.34 6.66 0.68 7.32 0 8 C-0.38063221 5.6739143 -0.71269945 3.33944736 -1 1 C-0.67 0.67 -0.34 0.34 0 0 Z " fill="#ECF8F4" transform="translate(108,144)"/>
<path d="M0 0 C2 3.875 2 3.875 2 5 C0.35 5 -1.3 5 -3 5 C-3 5.66 -3 6.32 -3 7 C-3.66 6.67 -4.32 6.34 -5 6 C-3.35 4.02 -1.7 2.04 0 0 Z " fill="#D8EDEF" transform="translate(125,92)"/>
<path d="M0 0 C1.32 0.66 2.64 1.32 4 2 C-0.75 6 -0.75 6 -3 6 C-2.67 5.01 -2.34 4.02 -2 3 C-1.34 3 -0.68 3 0 3 C0 2.01 0 1.02 0 0 Z " fill="#D6EDF1" transform="translate(91,169)"/>
<path d="M0 0 C1.98 0.66 3.96 1.32 6 2 C6 2.66 6 3.32 6 4 C3.36 4 0.72 4 -2 4 C-1.34 3.67 -0.68 3.34 0 3 C0 2.01 0 1.02 0 0 Z " fill="#E0F3F5" transform="translate(76,76)"/>
</svg>
