<?xml version="1.0" encoding="UTF-8"?>
<svg version="1.1" xmlns="http://www.w3.org/2000/svg" width="2000" height="1475">
<path d="M0 0 C4.87776878 0.01132273 9.75535481 0.0072081 14.63311696 -0.00540674 C49.72489085 -0.0937143 84.64563067 0.55279071 119.64288259 3.38570654 C120.35614453 3.44320075 121.06940648 3.50069495 121.80428243 3.5599314 C129.63905715 4.19826002 137.45462936 4.96360027 145.26788259 5.82320654 C147.32155054 6.04187231 149.37526271 6.26012322 151.4290154 6.4779917 C157.16943992 7.09257637 162.90677153 7.7321788 168.64288259 8.38570654 C169.77868764 8.51462286 169.77868764 8.51462286 170.93743825 8.64614356 C203.21649973 12.33134412 235.59096089 17.17434101 267.41680837 23.72896826 C270.96576666 24.45143669 274.52057712 25.139648 278.07647634 25.82711279 C321.30119632 34.27379134 364.30969303 45.40600948 406.13165212 59.22555029 C408.66529832 60.06269998 411.19995573 60.89618092 413.7361443 61.72555029 C444.52532287 71.79922974 474.8082672 82.73959255 504.64288259 95.38570654 C506.52302237 96.17623417 508.4032259 96.96661023 510.28350759 97.75680029 C537.40319537 109.21002783 564.50910722 121.49385571 590.35772634 135.62008154 C593.2384133 137.16832234 596.14655046 138.63289223 599.08550954 140.06661475 C660.59577715 170.11844101 718.08943381 210.60724711 770.03204274 255.01314795 C771.68182942 256.41889223 773.33943003 257.81497763 774.99835134 259.20992529 C789.99696523 271.87068858 803.99230484 285.56720922 817.84625173 299.45870459 C820.23108514 301.84896761 822.62131364 304.23374412 825.01202321 306.61812842 C826.5572663 308.16403136 828.10219968 309.71024397 829.64678884 311.25680029 C830.69849011 312.30546523 830.69849011 312.30546523 831.77143788 313.37531531 C835.71178071 317.33423583 839.47952114 321.39142211 843.12190175 325.62661231 C845.35698502 328.21160352 847.68869753 330.69765502 850.01788259 333.19820654 C855.13343079 338.74223657 859.91721383 344.50521198 864.64288259 350.38570654 C865.63908104 351.60283339 866.63655523 352.81891681 867.63507009 354.03414404 C896.79550431 389.57716306 924.69621416 428.44407457 944.53399587 470.06490576 C945.84791419 472.81481938 947.18110612 475.55508606 948.51397634 478.29586279 C956.47114468 494.70274433 964.34377331 510.9931176 970.22100759 528.27242529 C971.3307072 531.52779752 972.53512401 534.7368615 973.78668141 537.94088233 C987.54113942 573.34885267 995.79555812 611.26730954 1000.89288259 648.82320654 C1001.0439446 649.93292822 1001.19500661 651.0426499 1001.35064626 652.18599951 C1001.82772205 655.9148863 1002.25103213 659.64711146 1002.64288259 663.38570654 C1002.73008565 664.20638617 1002.81728871 665.0270658 1002.90713429 665.8726145 C1004.62199916 682.51791178 1005.0077283 699.07789177 1004.9609406 715.80386984 C1004.9552926 717.8558993 1004.95247686 719.90792046 1004.9498589 721.95995581 C1004.91226382 742.23997523 1004.46511292 762.26939941 1001.64288259 782.38570654 C1001.47127614 783.64544287 1001.29966969 784.9051792 1001.12286305 786.20308936 C997.33964533 813.27050766 991.84292434 840.11323502 983.37579274 866.11617529 C982.41621122 869.08761762 981.53108853 872.07976353 980.64288259 875.07320654 C974.76088569 893.96912157 967.35966056 912.18152837 959.64288259 930.38570654 C959.28130055 931.24309424 958.91971852 932.10048193 958.54717946 932.98385108 C951.91128528 948.67767268 944.08285474 963.59265874 935.73565602 978.43062842 C934.3433532 980.92159379 932.99169427 983.43347289 931.64288259 985.94820654 C924.68018183 998.71207279 917.08863821 1011.04153805 908.98345876 1023.10811865 C907.57142248 1025.21155393 906.16824458 1027.320703 904.76592946 1029.43062842 C899.30297895 1037.61876136 893.63536377 1045.57364901 887.64288259 1053.38570654 C886.56509529 1054.81596992 885.48817609 1056.24688818 884.41241384 1057.67867529 C876.74651431 1067.80020736 868.80017823 1077.65684381 860.64288259 1087.38570654 C859.88757253 1088.29183692 859.88757253 1088.29183692 859.11700368 1089.21627295 C851.87116664 1097.89434221 844.24149151 1106.15963044 836.45538259 1114.35445654 C833.28103462 1117.69785263 830.17053698 1121.08946418 827.08038259 1124.51070654 C822.81322565 1129.18395243 818.4210149 1133.71435617 813.95538259 1138.19820654 C813.34944264 1138.80873877 812.7435027 1139.419271 812.11920094 1140.0483042 C808.42723498 1143.72775502 804.61001752 1147.20309442 800.66705251 1150.61104834 C797.24244163 1153.61352048 793.94894711 1156.75398527 790.64288259 1159.88570654 C772.9772393 1176.61976317 754.00904699 1191.86867496 734.76885915 1206.74019873 C732.91864072 1208.1722695 731.07266359 1209.60950885 729.22882009 1211.04976904 C716.9791135 1220.57042708 704.42575664 1229.70479028 691.44171071 1238.19967139 C689.25549566 1239.64112534 687.08203022 1241.10096582 684.90850759 1242.56148779 C667.04796083 1254.55409311 648.92275647 1265.96215023 630.3430779 1276.80855811 C627.70827838 1278.34750972 625.07773235 1279.89353424 622.44757009 1281.44039404 C615.00774742 1285.8006657 607.5786332 1290.05532192 599.81475759 1293.81930029 C595.79726661 1295.80330754 591.84957211 1297.90872797 587.89288259 1300.01070654 C572.98113161 1307.89304036 557.94297503 1315.54132129 542.58038259 1322.51070654 C541.77802175 1322.87688086 540.97566091 1323.24305518 540.1489861 1323.62032568 C530.35094211 1327.99577612 521.6277485 1330.19140659 511.14288259 1326.94820654 C500.75346068 1322.7073267 494.63942541 1315.25313019 490.05303884 1305.20211279 C485.51561703 1293.62583148 483.73979404 1280.41499046 488.20538259 1268.57320654 C494.04501402 1257.12092582 507.17621417 1252.76603629 518.28741384 1247.90914404 C531.9419142 1241.93873383 545.37586186 1235.67410498 558.70538259 1229.01070654 C559.47714833 1228.626435 560.24891408 1228.24216345 561.04406667 1227.84624732 C569.44786007 1223.65510775 577.6539193 1219.33463957 585.64288259 1214.38570654 C587.34242478 1213.43236224 589.04887261 1212.49098306 590.76788259 1211.57320654 C610.08785542 1201.10372406 628.82831262 1189.81551802 647.01983571 1177.47945654 C649.48246526 1175.81992279 651.97208531 1174.2015982 654.45538259 1172.57320654 C673.53213503 1159.82993591 691.78736429 1145.77449996 709.64288259 1131.38570654 C710.58518727 1130.62902686 711.52749196 1129.87234717 712.49835134 1129.09273779 C723.38045594 1120.25216705 733.95054497 1111.06011422 744.20294118 1101.49727881 C747.13032209 1098.76813936 750.09709802 1096.10673974 753.14288259 1093.51070654 C756.35760299 1090.738933 758.9306773 1087.65426163 761.64288259 1084.38570654 C762.75024438 1083.4070454 763.87657767 1082.44956269 765.01788259 1081.51070654 C768.26386325 1078.81501016 770.91115816 1075.85602504 773.63507009 1072.64351904 C775.98722459 1069.99848927 778.48706568 1067.54762642 781.01788259 1065.07320654 C785.53690208 1060.63442916 789.59072241 1055.94374914 793.53741384 1050.99117529 C795.4624272 1048.6090159 797.45555696 1046.33632655 799.51788259 1044.07320654 C804.33049483 1038.71003905 808.73157099 1033.03580455 813.13360524 1027.33639014 C814.67549397 1025.34355757 816.22730812 1023.35872263 817.77960134 1021.37398779 C832.82562063 1002.03301805 846.28574029 981.53703052 858.64288259 960.38570654 C859.1330486 959.54894385 859.62321462 958.71218115 860.12823415 957.85006201 C868.38447563 943.69032809 875.85637933 929.30479635 882.64288259 914.38570654 C883.06666188 913.45822608 883.49044118 912.53074561 883.92706227 911.57515967 C901.67906067 872.46891262 913.66715026 831.73502673 920.64288259 789.38570654 C920.80643239 788.41028906 920.96998219 787.43487158 921.13848805 786.429896 C930.62739934 727.71895351 927.02384762 665.97176809 912.64288259 608.38570654 C912.33866384 607.13144873 912.03444509 605.87719092 911.72100759 604.58492529 C904.17373643 574.82616753 893.82289568 544.65255992 879.64288259 517.38570654 C878.67699585 515.45544384 877.7204412 513.52072455 876.76422048 511.58565772 C869.62948049 497.17456688 862.13831996 483.04382708 853.64288259 469.38570654 C853.13096364 468.55909522 852.61904469 467.73248389 852.09161305 466.88082373 C844.09425769 454.00748804 835.73128591 441.5136912 826.64288259 429.38570654 C826.10808278 428.67076025 825.57328298 427.95581397 825.02227712 427.21920264 C810.66319312 408.08957287 795.61777391 389.41438058 779.01031423 372.1823374 C774.64288259 367.59878798 774.64288259 367.59878798 774.64288259 365.38570654 C773.98288259 365.38570654 773.32288259 365.38570654 772.64288259 365.38570654 C772.64288259 364.72570654 772.64288259 364.06570654 772.64288259 363.38570654 C771.98288259 363.38570654 771.32288259 363.38570654 770.64288259 363.38570654 C769.30303884 362.02242529 769.30303884 362.02242529 767.70538259 360.07320654 C764.55961346 356.36995935 761.26212341 352.88332562 757.83038259 349.44820654 C757.35028737 348.96376074 756.87019216 348.47931494 756.3755486 347.98018897 C753.75817135 345.35238001 753.75817135 345.35238001 750.64288259 343.38570654 C750.64288259 342.72570654 750.64288259 342.06570654 750.64288259 341.38570654 C749.98288259 341.38570654 749.32288259 341.38570654 748.64288259 341.38570654 C748.64288259 340.72570654 748.64288259 340.06570654 748.64288259 339.38570654 C748.06022634 339.13176123 747.47757009 338.87781592 746.87725759 338.61617529 C744.40100226 337.25250322 742.83767633 335.74345451 740.89288259 333.69820654 C737.73618268 330.46648452 734.50982767 327.42624253 731.08428884 324.48336279 C729.14320111 322.81558022 727.21637303 321.13484533 725.29522634 319.44430029 C718.0793539 313.11245074 710.74949744 307.00026705 703.15850759 301.12398779 C700.77027396 299.27423828 698.40869666 297.39673922 696.06475759 295.49117529 C687.27821298 288.34968083 678.25583083 281.61691279 669.01837087 275.06978858 C667.42607607 273.94094484 665.8359242 272.80907267 664.24786305 271.67428076 C630.87216617 247.82872842 595.38642151 227.1745117 559.26934743 207.79879248 C557.04101131 206.59990705 554.81867774 205.3912342 552.59991384 204.17476904 C519.97839343 186.36626328 485.19381186 171.97841709 450.64288259 158.38570654 C449.83721852 158.06634131 449.03155446 157.74697608 448.20147634 157.41793311 C425.02089706 148.25546497 401.20305102 140.8003203 377.45147634 133.27633154 C374.75361249 132.42081978 372.05742802 131.56021051 369.36163259 130.69820654 C356.11456981 126.47091701 342.85611834 122.61647672 329.31109548 119.45626318 C321.74297441 117.67944678 314.2243434 115.73417484 306.70538259 113.76070654 C297.71387968 111.41042897 288.75502782 109.21584142 279.64288259 107.38570654 C277.78576536 106.99411656 275.92903087 106.60070938 274.07257009 106.20601904 C263.85305278 104.0392509 253.63760305 101.94659228 243.33819509 100.19430029 C239.66103053 99.56841726 235.99155538 98.90552263 232.32257009 98.23336279 C216.13931279 95.27675135 199.93780504 92.64705204 183.64288259 90.38570654 C181.89177175 90.14038184 181.89177175 90.14038184 180.10528493 89.89010108 C148.87731529 85.55699306 117.54689033 82.60877061 86.08038259 80.69820654 C85.08073476 80.6374494 84.08108693 80.57669226 83.05114675 80.514094 C76.24995922 80.10614622 69.44732114 79.73495646 62.64288259 79.38570654 C61.7038207 79.33624884 60.76475881 79.28679114 59.7972405 79.23583472 C42.9522697 78.3675689 26.11824031 78.18577767 9.25357747 78.19682562 C7.10939886 78.19822845 4.96522322 78.19812137 2.82104421 78.19802344 C-18.81045 78.20536208 -40.35526692 78.69647641 -61.94403148 80.10787451 C-66.48337809 80.40096757 -71.0248975 80.63335047 -75.56805491 80.85836279 C-92.56209064 81.71429822 -109.40605897 83.08367991 -126.31463695 85.04635108 C-129.93365117 85.45001259 -133.55581878 85.78395409 -137.18304515 86.10372412 C-168.99714238 88.91186093 -200.80865098 93.79909131 -232.17547679 99.78170264 C-235.19536902 100.35500016 -238.21727584 100.9167771 -241.23957896 101.47719824 C-329.19727078 117.83820095 -414.81859619 144.83948384 -553.0685432 209.16939795 C-555.34215681 210.37775543 -557.6263599 211.5629408 -559.91571116 212.74117529 C-588.87808314 227.68593115 -616.37645848 245.15302618 -643.35711741 263.38570654 C-644.84929285 264.38702661 -646.34147919 265.38833042 -647.83367991 266.38961279 C-656.95628377 272.54797534 -665.71477452 279.12352487 -674.40545726 285.87496436 C-676.16952513 287.240495 -677.94185481 288.59380515 -679.72039866 289.94039404 C-688.80500511 296.84152721 -697.60693886 304.06722426 -706.35711741 311.38570654 C-706.97763988 311.90423193 -707.59816234 312.42275733 -708.23748851 312.95699561 C-715.71035678 319.22350902 -722.95038992 325.69853389 -730.03338695 332.40328467 C-733.02588249 335.23328045 -736.04900966 337.99854838 -739.17352366 340.68258154 C-744.14536464 345.00474784 -748.77366084 349.65624339 -753.41961741 354.32320654 C-754.27877757 355.17849951 -755.13793773 356.03379248 -756.02313304 356.91500342 C-760.46185694 361.36050917 -764.76425012 365.86020655 -768.83343577 370.64766943 C-770.43636178 372.47609922 -772.12138919 374.18353861 -773.85711741 375.88570654 C-777.56907446 379.54838982 -780.97324396 383.42022984 -784.35711741 387.38570654 C-785.18211741 388.34476904 -786.00711741 389.30383154 -786.85711741 390.29195654 C-793.11366977 397.59747788 -799.1355206 405.06313702 -805.02508616 412.66695654 C-806.31922463 414.33681263 -807.61898949 416.0021528 -808.91961741 417.66695654 C-827.92451905 442.07807461 -844.70155682 468.14804087 -859.35711741 495.38570654 C-859.78121898 496.16687842 -860.20532054 496.94805029 -860.64227366 497.75289404 C-866.07054113 507.76683222 -871.05713107 517.83222893 -875.46868968 528.33541358 C-876.51769994 530.75629519 -877.63484765 533.14197274 -878.74774241 535.53414404 C-881.58288723 541.74643883 -883.95816822 548.09713064 -886.29461741 554.51070654 C-886.95083079 556.30544409 -886.95083079 556.30544409 -887.62030101 558.13643897 C-888.48446066 560.50351975 -889.34683176 562.87125443 -890.20721507 565.23971045 C-891.13913222 567.78932498 -892.08896693 570.32990469 -893.05633616 572.86617529 C-900.91407961 593.75908275 -905.81848952 615.8911168 -909.86639476 637.79390967 C-910.2851324 640.00551104 -910.73774785 642.20303006 -911.22039866 644.40133154 C-915.46983661 664.53712983 -916.74086035 685.84893986 -917.35711741 706.38570654 C-917.39836741 707.53941748 -917.43961741 708.69312842 -917.48211741 709.88180029 C-918.03164357 740.14008402 -913.8439323 770.90208665 -907.35711741 800.38570654 C-907.1856721 801.1829917 -907.01422679 801.98027686 -906.83758616 802.80172217 C-895.64839539 854.60858515 -872.34822597 904.38644955 -845.02899241 949.60201514 C-843.31224377 952.46042169 -841.62766892 955.3357352 -839.95086741 958.21773779 C-834.18700334 968.11251055 -828.2862018 977.84092676 -821.79998851 987.27877295 C-820.09484992 989.76867922 -818.40770751 992.27040348 -816.72039866 994.77242529 C-810.15312912 1004.49033725 -803.5402462 1014.11027494 -796.35711741 1023.38570654 C-795.53989341 1024.45800047 -794.72352459 1025.53094656 -793.90789866 1026.60445654 C-789.34400512 1032.59747467 -784.69186052 1038.50848649 -779.89227366 1044.31539404 C-777.95121336 1046.66620051 -776.02344859 1049.0257992 -774.10321116 1051.39351904 C-767.68841096 1059.27939921 -761.15362125 1066.96678298 -754.17352366 1074.35836279 C-752.10917298 1076.54863366 -750.130479 1078.7971873 -748.16839671 1081.07931006 C-744.45932014 1085.32627102 -740.55216277 1089.33542199 -736.56024241 1093.31539404 C-735.84479259 1094.0318006 -735.12934276 1094.74820715 -734.39221263 1095.486323 C-732.89427423 1096.98493657 -731.39509371 1098.48230953 -729.89471507 1099.97847998 C-727.59585725 1102.27194027 -725.30243887 1104.57074397 -723.00946116 1106.87008154 C-721.54754245 1108.33134013 -720.08531393 1109.79228885 -718.62274241 1111.25289404 C-717.93835093 1111.93930975 -717.25395946 1112.62572546 -716.54882884 1113.33294165 C-715.91096446 1113.96765387 -715.27310008 1114.60236609 -714.61590648 1115.25631201 C-714.05744029 1115.81398261 -713.4989741 1116.3716532 -712.9235847 1116.9462229 C-711.2096641 1118.59563149 -711.2096641 1118.59563149 -708.35711741 1120.38570654 C-708.35711741 1121.04570654 -708.35711741 1121.70570654 -708.35711741 1122.38570654 C-707.82215648 1122.60097998 -707.28719554 1122.81625342 -706.73602366 1123.03805029 C-703.48762479 1124.87827626 -700.97335735 1127.38448505 -698.29461741 1129.94820654 C-692.52000749 1135.37171242 -686.55389886 1140.44648288 -680.35711741 1145.38570654 C-679.20419101 1146.31858066 -678.05188034 1147.2522161 -676.90008616 1148.18648779 C-661.53833075 1160.61374619 -645.63124459 1172.18407944 -629.35711741 1183.38570654 C-628.4016804 1184.04602881 -628.4016804 1184.04602881 -627.42694163 1184.71969092 C-607.15654383 1198.67912207 -585.88215223 1211.06088193 -564.27020335 1222.80221045 C-561.79616007 1224.14705161 -559.32940406 1225.50392894 -556.86492991 1226.86617529 C-522.68061154 1245.57080233 -485.93051434 1260.61318955 -449.08856273 1273.15816748 C-427.92587594 1280.40721253 -427.92587594 1280.40721253 -422.23211741 1289.82320654 C-417.31044942 1301.38299614 -420.27956967 1315.02682355 -424.35711741 1326.38570654 C-429.21826494 1337.40220321 -437.09866374 1345.30429863 -448.10711741 1350.32320654 C-464.62895089 1355.50267021 -482.43379232 1347.131094 -497.59124827 1341.05221045 C-502.10879303 1339.2404791 -506.64611032 1337.57169605 -511.2572639 1336.01388037 C-549.41389089 1323.11222155 -586.99040382 1305.55213477 -622.35711741 1286.38570654 C-623.08962718 1285.98915869 -623.82213695 1285.59261084 -624.57684398 1285.18404639 C-651.36817129 1270.61991363 -677.31410144 1254.67125366 -702.14276195 1236.96383154 C-704.17686439 1235.51416912 -706.21678178 1234.07324546 -708.25946116 1232.63570654 C-721.10794527 1223.56936224 -733.36629243 1213.83742191 -745.52801585 1203.87838233 C-747.1444395 1202.55926671 -748.76966262 1201.25094979 -750.39617991 1199.94430029 C-756.34098875 1195.1559024 -761.99387436 1190.12778736 -767.58758616 1184.94039404 C-769.81630134 1182.88456932 -772.0647966 1180.86953698 -774.35711741 1178.88570654 C-783.92071517 1170.57529702 -793.047426 1161.85966287 -801.98626781 1152.88692725 C-803.68231468 1151.18546877 -805.38371562 1149.48949392 -807.08563304 1147.79390967 C-812.72400913 1142.15901994 -818.19790693 1136.46849613 -823.35711741 1130.38570654 C-824.85281969 1128.71518193 -826.35216008 1127.04789823 -827.85711741 1125.38570654 C-840.93165382 1110.9451738 -853.14024289 1095.86340997 -864.88153148 1080.32564795 C-866.24257006 1078.53630106 -867.61877356 1076.76060753 -869.00555491 1074.99117529 C-874.93897811 1067.4147215 -880.46073738 1059.61880079 -885.83709788 1051.64010108 C-886.88255782 1050.08954261 -887.93124547 1048.5411571 -888.9826057 1046.99459326 C-906.47944784 1021.25205479 -922.99143992 994.53298978 -936.35711741 966.38570654 C-937.06022044 964.9156919 -937.06022044 964.9156919 -937.77752757 963.41597998 C-962.25744655 912.07752642 -979.46417231 858.96678713 -989.15808177 802.86889136 C-989.40546742 801.43963671 -989.65602206 800.01092469 -989.91064525 798.58294165 C-994.52489963 772.49484022 -995.87126637 746.26064568 -995.7482307 719.82222998 C-995.73114009 716.12557242 -995.74133558 712.42956351 -995.75855327 708.73292792 C-996.03974648 637.32830373 -979.06665516 567.56047111 -950.35711741 502.38570654 C-950.03928294 501.65867529 -949.72144847 500.93164404 -949.39398265 500.18258154 C-925.45439095 445.75613013 -893.64945935 394.42977066 -854.84930491 349.31148779 C-852.56342752 346.62791073 -850.36241473 343.89532128 -848.16961741 341.13570654 C-842.88810066 334.64265907 -837.09577805 328.63829367 -831.32977366 322.57711279 C-828.47444957 319.57546604 -825.65860226 316.5437434 -822.87298656 313.47750342 C-817.43790916 307.50149415 -811.80930462 301.73208324 -806.10711741 296.01070654 C-805.36220042 295.26119727 -804.61728343 294.51168799 -803.8497932 293.73946631 C-799.7972967 289.69823425 -795.65313161 285.83601506 -791.31756663 282.10103858 C-787.96736542 279.16971682 -784.76898557 276.0788453 -781.54461741 273.01070654 C-776.24757148 268.00777109 -770.87776342 263.21435776 -765.17352366 258.67476904 C-762.42768587 256.44306176 -759.77142243 254.13599491 -757.1178596 251.79659522 C-749.20722927 244.82921845 -740.97904714 238.40230907 -732.56170726 232.06246436 C-729.55416799 229.7750026 -726.58744374 227.43724851 -723.61810374 225.10055029 C-714.98763799 218.31620836 -706.16682241 211.87580712 -697.14325023 205.62545264 C-694.82879606 204.01900126 -692.53156783 202.38853531 -690.23211741 200.76070654 C-683.68283243 196.18939353 -677.02372984 191.78312109 -670.35711741 187.38570654 C-669.59576488 186.88232764 -668.83441234 186.37894873 -668.04998851 185.86031592 C-656.43827583 178.1963493 -644.6781092 170.84353593 -632.69744945 163.77047217 C-630.51485059 162.47903667 -628.33929584 161.17661351 -626.16571116 159.87008154 C-614.10803095 152.65401701 -601.75079658 146.00338413 -589.35711741 139.38570654 C-588.51890452 138.93695166 -587.68069163 138.48819678 -586.81707835 138.02584326 C-581.35164651 135.10427655 -575.86218874 132.23179888 -570.35711741 129.38570654 C-569.08505443 128.72417578 -569.08505443 128.72417578 -567.7872932 128.04928076 C-550.35080125 119.01768057 -532.47440831 111.06460934 -514.49188304 103.1967417 C-510.90604137 101.62780748 -507.32604408 100.0459924 -503.74774241 98.45992529 C-485.93711764 90.59456812 -467.86785997 83.44886024 -449.45721507 77.11275733 C-447.30933656 76.36916488 -445.16678842 75.61173765 -443.02508616 74.85055029 C-411.05524315 63.51191264 -378.81873853 52.9060058 -345.98944163 44.33492529 C-343.45348486 43.67221526 -340.91866573 43.00607192 -338.38494945 42.33492529 C-274.11096384 25.32190631 -208.76873717 13.67434636 -142.66095042 6.63314307 C-140.53918259 6.40526073 -138.41824641 6.17115119 -136.2975471 5.93355811 C-90.98487321 0.89090652 -45.54855673 -0.11802355 0 0 Z " fill="#5D9841" transform="translate(995.3571174144745,-0.3857065439224243)"/>
<path d="M0 0 C18.44819068 14.33572117 27.51539657 36.87463705 34.65234375 58.453125 C42.80991539 82.73161203 57.99377741 101.64617299 78.22265625 117.2734375 C87.51101051 124.62316736 93.96209409 135.11189173 98.48828125 145.93359375 C98.88998535 146.86751953 98.88998535 146.86751953 99.29980469 147.8203125 C101.93990385 154.65129439 102.027242 161.29923157 101.98828125 168.55859375 C101.98183594 169.80463379 101.97539063 171.05067383 101.96875 172.33447266 C101.45761256 198.08974646 85.80284014 218.24624137 68.08422852 235.67382812 C66.54580777 237.18849042 65.02133071 238.71622406 63.49804688 240.24609375 C57.14866618 246.57732627 50.51505298 252.35220011 43.48828125 257.93359375 C42.14782431 259.04169237 40.81026297 260.15330975 39.4765625 261.26953125 C30.49204502 268.72326436 21.22445762 275.49955528 11.48828125 281.93359375 C10.46565186 282.61784424 10.46565186 282.61784424 9.42236328 283.31591797 C-0.55796484 289.98893398 -10.76466537 296.06909763 -21.33691406 301.75585938 C-23.38299578 302.86388567 -25.41329399 303.99622554 -27.44140625 305.13671875 C-48.04554962 316.57460381 -70.3479185 325.04820874 -92.51171875 332.93359375 C-93.38812012 333.24635254 -94.26452148 333.55911133 -95.16748047 333.88134766 C-125.04943727 344.44283097 -155.99224864 351.54153469 -187.51171875 354.93359375 C-188.4030249 355.03003174 -189.29433105 355.12646973 -190.21264648 355.22583008 C-201.43126989 356.26112584 -212.69356971 356.13152452 -223.94921875 356.12109375 C-225.59985825 356.12068588 -225.59985825 356.12068588 -227.28384399 356.12026978 C-247.74625152 356.09714548 -268.10667185 355.46004131 -288.51171875 353.93359375 C-289.54307953 353.8572168 -289.54307953 353.8572168 -290.59527588 353.77929688 C-338.18122903 350.20741857 -384.20675439 340.29055446 -427.51171875 319.93359375 C-428.6114502 319.41998291 -428.6114502 319.41998291 -429.73339844 318.89599609 C-452.35579822 308.23175653 -473.31761423 294.96904362 -491.97753906 278.29589844 C-493.39771146 277.03482874 -494.84054892 275.79940912 -496.28515625 274.56640625 C-502.44811447 269.23781775 -507.59583712 263.42519944 -512.51171875 256.93359375 C-513.37990234 255.78890625 -513.37990234 255.78890625 -514.265625 254.62109375 C-520.29647209 246.15674696 -524.34096187 235.98363083 -523.2578125 225.46875 C-520.66944729 210.33497503 -511.93620412 200.77159336 -499.671875 191.96484375 C-479.49630648 178.99661677 -456.63693231 175.70858161 -433.19921875 175.74609375 C-432.06398773 175.74749863 -432.06398773 175.74749863 -430.90582275 175.74893188 C-411.50679376 175.80083376 -392.82446641 178.03680251 -373.69873047 181.16870117 C-330.61816287 188.20832377 -285.29270139 177.60115662 -249.26171875 152.49609375 C-247.67702815 151.3104056 -246.09389364 150.12263677 -244.51171875 148.93359375 C-243.22314797 148.02683449 -241.93113898 147.12495178 -240.63671875 146.2265625 C-218.52688499 130.8730686 -198.21115765 113.66527748 -179.13671875 94.68359375 C-178.48276123 94.03430908 -177.82880371 93.38502441 -177.1550293 92.71606445 C-172.73916688 88.28557811 -168.57880925 83.68487917 -164.51171875 78.93359375 C-164.04910645 78.39798828 -163.58649414 77.86238281 -163.10986328 77.31054688 C-158.44912369 71.90303963 -153.87724533 66.45192204 -149.52929688 60.78979492 C-143.03943898 52.34273502 -135.92968143 44.57266775 -128.51171875 36.93359375 C-127.93494385 36.33635498 -127.35816895 35.73911621 -126.76391602 35.1237793 C-123.03203101 31.31648181 -119.17296745 27.87102691 -114.94921875 24.62109375 C-114.34625977 24.15453369 -113.74330078 23.68797363 -113.12207031 23.20727539 C-111.25832636 21.7741289 -109.3864071 20.35238408 -107.51171875 18.93359375 C-106.94533691 18.50111328 -106.37895508 18.06863281 -105.79541016 17.62304688 C-92.96382063 7.88589212 -78.76364866 -0.73228715 -63.51171875 -6.06640625 C-62.45984375 -6.45699219 -61.40796875 -6.84757812 -60.32421875 -7.25 C-40.24219512 -13.72734914 -17.53255505 -12.07798237 0 0 Z " fill="#ED3126" transform="translate(1129.51171875,1117.06640625)"/>
<path d="M0 0 C9.03903089 7.75165376 15.13823609 16.76366423 19.328125 27.8984375 C19.57642972 28.52271574 19.82473444 29.14699398 20.08056355 29.79018974 C22.97218812 37.99100672 22.7698141 46.16024692 22.76049805 54.73095703 C22.76952782 56.41714694 22.779858 58.1033303 22.79138184 59.789505 C22.81883533 64.3404382 22.82822044 68.89124645 22.83423591 73.44225168 C22.84365004 78.20820421 22.86985581 82.97406452 22.89424133 87.73995972 C22.93782662 96.75297198 22.96642248 105.76596625 22.98956472 114.77905166 C23.01665921 125.04516333 23.06056804 135.31118185 23.10585344 145.57722688 C23.19858551 166.6842469 23.27031852 187.79129481 23.328125 208.8984375 C26.38540161 207.47213481 28.39539618 205.92552562 30.75 203.5 C53.49808315 180.41407403 83.02598557 168.27985901 115.265625 167.6484375 C147.49388203 168.27530291 177.36017924 178.96402159 200.328125 201.8984375 C201.05644531 202.61515625 201.78476562 203.331875 202.53515625 204.0703125 C229.14262167 231.98978311 233.98594109 272.66885914 233.83636463 309.26546121 C233.82507542 313.12482392 233.83725478 316.98413146 233.84620667 320.8434906 C233.86001492 328.36592223 233.85267907 335.88818405 233.83753108 343.41060734 C233.82054368 352.18456221 233.82389652 360.9584763 233.82762516 369.73244256 C233.83347949 385.38367417 233.81942055 401.03482486 233.79467773 416.68603516 C233.77069818 431.85631329 233.7637021 447.02648364 233.77416992 462.19677734 C233.78557981 478.76179795 233.7875134 495.32676895 233.77307183 511.89178896 C233.77154609 513.65725485 233.77002574 515.42272075 233.76851082 517.18818665 C233.767753 518.0566399 233.76699519 518.92509315 233.76621441 519.81986317 C233.76147729 525.93132317 233.76331848 532.04276093 233.76757622 538.15422058 C233.77250245 545.59237383 233.76651846 553.03042528 233.74668192 560.46855521 C233.7368163 564.26093019 233.73169732 568.05315015 233.73957443 571.84553337 C233.74793816 575.95612906 233.73304298 580.06631191 233.71580505 584.17687988 C233.72482012 585.97290783 233.72482012 585.97290783 233.73401731 587.80521917 C233.68720536 593.92847434 233.39811989 598.53569907 230.328125 603.8984375 C226.54036828 607.10475471 223.30345405 607.29270581 218.4375 607.33203125 C217.45133698 607.34261314 217.45133698 607.34261314 216.44525146 607.35340881 C214.32234496 607.36752463 212.20097851 607.35506446 210.078125 607.3359375 C209.3550415 607.33223145 208.63195801 607.32852539 207.88696289 607.32470703 C186.74378979 607.16967432 167.388299 602.43984253 151.328125 587.8984375 C150.65652344 587.31835938 149.98492188 586.73828125 149.29296875 586.140625 C137.89312102 575.64134328 130.87539547 561.06992592 130.23320115 545.61384785 C130.19246971 543.06793247 130.18226638 540.52367461 130.18336487 537.97743225 C130.17983802 537.00662246 130.17631118 536.03581266 130.17267746 535.03558439 C130.16204181 531.79723688 130.15831838 528.55891885 130.15454102 525.32055664 C130.14823154 522.99230832 130.1414653 520.6640612 130.13427734 518.33581543 C130.11963135 513.32733982 130.10789666 508.31886879 130.09832954 503.31038094 C130.08415059 496.05054085 130.06320386 488.79073481 130.03990101 481.53091877 C130.00202495 469.72626838 129.96705659 457.92161179 129.93530273 446.11694336 C129.93340224 445.41116972 129.93150175 444.70539608 129.92954367 443.97823536 C129.90275687 433.98006539 129.87886806 423.98189059 129.85615867 413.98371064 C129.85456137 413.28066572 129.85296406 412.5776208 129.85131836 411.85327148 C129.84972489 411.15109318 129.84813143 410.44891488 129.84648968 409.72545845 C129.81962568 397.97409894 129.78518596 386.2227758 129.74466461 374.47145551 C129.71784779 366.60001021 129.70003521 358.72859859 129.68862736 350.85711586 C129.67944424 345.93967094 129.66205563 341.02227939 129.64244843 336.10486603 C129.6350305 333.83991531 129.63089538 331.57495084 129.63045311 329.30998802 C129.70471744 305.89473587 129.70471744 305.89473587 125.140625 283.0234375 C124.92631836 282.32275146 124.71201172 281.62206543 124.49121094 280.90014648 C122.41993612 274.53178208 119.44364932 269.19457687 115.328125 263.8984375 C114.65910156 263.02574219 113.99007812 262.15304687 113.30078125 261.25390625 C103.34602578 249.24699504 90.26778316 244.16892108 75.09765625 242.5546875 C60.65013966 242.09664206 46.92025013 246.81757024 35.953125 256.2109375 C30.00225443 261.8843559 23.86374029 269.09369029 23.07906932 277.59758615 C23.07950136 278.58025005 23.0799334 279.56291394 23.08037853 280.57535553 C23.07380554 282.2838185 23.07380554 282.2838185 23.06709975 284.02679586 C23.07511775 285.89667095 23.07511775 285.89667095 23.08329773 287.80432129 C23.08187505 289.14563442 23.07956198 290.48694685 23.07643539 291.82825708 C23.07033468 295.51285727 23.07657758 299.19734967 23.084746 302.88194203 C23.09133408 306.85608787 23.08632652 310.83021999 23.08251953 314.80436707 C23.07729647 321.69056646 23.07879109 328.57673771 23.08429527 335.4629364 C23.09250584 346.34433291 23.08128347 357.22566867 23.0670929 368.10705566 C23.06249187 371.82955156 23.05804152 375.55204761 23.05365467 379.27454376 C23.05200746 380.6699265 23.05200746 380.6699265 23.05032697 382.0934988 C23.0381543 392.6809825 23.03060097 403.26846816 23.0246582 413.85595703 C23.02411014 414.82376777 23.02356208 415.79157851 23.02299742 416.78871685 C23.01453287 432.4825198 23.017879 448.17630561 23.02381255 463.87010866 C23.02942568 479.97865552 23.01591824 496.08711586 22.98625976 512.19563627 C22.96869907 522.1343881 22.96710816 532.07289015 22.98590491 542.01164091 C22.99749127 548.81905049 22.99109496 555.62629116 22.9704357 562.43367875 C22.95909142 566.363501 22.95599338 570.29288834 22.97461128 574.22269249 C22.99149214 577.81902578 22.98547485 581.41456076 22.96111272 585.01084441 C22.95412858 586.9306014 22.97184328 588.85039894 22.99038047 590.77007914 C22.90086484 599.12354781 22.90086484 599.12354781 19.97651386 603.08005524 C8.82701129 610.73529726 -4.34459774 609.59445135 -17.15527344 607.31323242 C-24.00776812 605.97478402 -30.29700821 603.7478746 -36.671875 600.8984375 C-37.51878906 600.54136719 -38.36570312 600.18429687 -39.23828125 599.81640625 C-53.54251968 593.31865428 -65.7804911 582.0851105 -73.046875 568.2109375 C-73.36889893 567.61265137 -73.69092285 567.01436523 -74.02270508 566.39794922 C-80.73041324 552.68433364 -80.10054509 537.19816536 -80.0460968 522.34425354 C-80.04884105 520.07661676 -80.05289624 517.80898125 -80.05814046 515.54134887 C-80.0686821 509.34257112 -80.06062771 503.14393852 -80.04938996 496.94516718 C-80.04143369 490.93671381 -80.04762798 484.92828493 -80.05336653 478.9198331 C-80.06526224 465.88219505 -80.06023141 452.84460552 -80.04808826 439.80697017 C-80.03753805 428.40165866 -80.03301457 416.99636364 -80.03438377 405.59104729 C-80.0344678 404.83352134 -80.03455183 404.0759954 -80.03463841 403.29551413 C-80.03499067 400.22028666 -80.03537469 397.14505919 -80.03580399 394.06983174 C-80.03976505 365.24958298 -80.02706851 336.42936341 -80.00627743 307.609123 C-79.98789624 282.00902061 -79.98209879 256.40894617 -79.98754883 230.80883789 C-79.98789526 229.16397981 -79.98824136 227.51912173 -79.98858712 225.87426365 C-79.98875811 225.0610713 -79.98892911 224.24787895 -79.98910529 223.4100444 C-79.98995884 219.31645917 -79.99078263 215.22287392 -79.99157429 211.12928867 C-79.99173137 210.32166683 -79.99188845 209.51404498 -79.99205029 208.68194974 C-79.99603976 187.27834834 -79.99056584 165.87474963 -79.982063 144.47114986 C-79.98115597 142.16844332 -79.98025032 139.86573677 -79.97934776 137.56303023 C-79.97874666 136.03553444 -79.97813804 134.50803867 -79.97752186 132.98054289 C-79.97330112 122.33347801 -79.97272193 111.68641842 -79.97462735 101.03935298 C-79.97706973 87.32379162 -79.97300247 73.60825858 -79.95741735 59.89270497 C-79.95007542 53.27910625 -79.94610263 46.66553783 -79.95066071 40.05193329 C-79.95472992 34.00058239 -79.94959209 27.94931249 -79.93703463 21.89797389 C-79.93410113 19.70650626 -79.93454776 17.51503101 -79.93867771 15.32356531 C-79.94377598 12.34869307 -79.93660775 9.37409276 -79.92635059 6.39923954 C-79.93074708 5.54536206 -79.93514356 4.69148458 -79.93967327 3.81173202 C-79.89729514 -2.62677968 -79.48619961 -8.64688803 -75.546875 -13.9765625 C-55.92448854 -28.48006554 -16.87797303 -13.27536475 0 0 Z " fill="#ED3126" transform="translate(653.671875,343.1015625)"/>
<path d="M0 0 C1.53696533 -0.01250038 1.53696533 -0.01250038 3.10498047 -0.0252533 C6.39175604 -0.04455013 9.67802105 -0.04472721 12.96484375 -0.0390625 C14.64500076 -0.03874527 14.64500076 -0.03874527 16.35910034 -0.03842163 C32.84201041 -0.00726245 48.8029845 0.45130565 64.90234375 4.3359375 C65.70172363 4.52317383 66.50110352 4.71041016 67.32470703 4.90332031 C87.03035611 9.68219814 105.02448735 18.82045069 120.90234375 31.3359375 C121.51078125 31.8 122.11921875 32.2640625 122.74609375 32.7421875 C136.09179378 43.24837689 147.10110985 60.91016346 149.6953125 77.84375 C150.80626218 91.21706876 149.65273764 102.10035578 141.90234375 113.3359375 C135.26121517 120.8151435 126.90441632 126.099868 116.90234375 127.3359375 C101.21764983 128.17271397 90.24598419 124.6404076 78.421875 114.10546875 C71.16698821 106.13071723 66.01391853 96.60336888 60.70898438 87.28320312 C58.22631992 82.9960509 55.78286353 79.00907332 52.5 75.28515625 C49.90234375 72.3359375 49.90234375 72.3359375 49.90234375 70.3359375 C49.020625 69.92794922 49.020625 69.92794922 48.12109375 69.51171875 C45.94941376 68.36088129 44.28720206 67.0900193 42.40234375 65.5234375 C30.52564353 56.43207973 16.35002499 54.95172852 1.90234375 56.3359375 C-6.10185139 58.21736939 -13.07556182 61.73757253 -19.09765625 67.3359375 C-19.77441406 67.95984375 -20.45117188 68.58375 -21.1484375 69.2265625 C-30.67418854 78.91376695 -34.39959346 91.27639889 -34.41235352 104.56103516 C-34.20007961 116.44586169 -30.05069425 125.81963824 -23.09765625 135.3359375 C-22.64777344 135.97015625 -22.19789062 136.604375 -21.734375 137.2578125 C-8.34298064 154.48096277 16.4906474 162.73578764 35.734375 171.171875 C91.96334379 195.87514045 91.96334379 195.87514045 109.90234375 209.3359375 C110.4432666 209.73458008 110.98418945 210.13322266 111.54150391 210.54394531 C136.36912923 228.92812851 154.24269835 252.77213445 160.90234375 283.3359375 C161.10730469 284.26019531 161.31226563 285.18445313 161.5234375 286.13671875 C167.50977299 319.28863184 161.16490519 354.23947824 143.08984375 382.6484375 C129.16836356 402.52461333 110.27678 417.23025514 87.90234375 426.3359375 C87.25410645 426.60003418 86.60586914 426.86413086 85.93798828 427.13623047 C66.821249 434.68120665 45.40840675 438.12511437 24.90234375 438.3359375 C24.08749512 438.34963379 23.27264648 438.36333008 22.43310547 438.37744141 C16.25339413 438.47272583 10.08167929 438.43925055 3.90234375 438.3359375 C3.18111328 438.32868652 2.45988281 438.32143555 1.71679688 438.31396484 C-33.83918918 437.81401175 -71.60087058 424.98616742 -99.09765625 402.3359375 C-100.17273437 401.48128906 -100.17273437 401.48128906 -101.26953125 400.609375 C-114.3434793 389.71441829 -124.62705043 374.39317865 -130.09765625 358.3359375 C-130.39671875 357.49804688 -130.69578125 356.66015625 -131.00390625 355.796875 C-135.29392944 342.33096888 -133.85259941 328.93411188 -127.625 316.36328125 C-121.55796835 305.93601881 -112.70569198 299.46760325 -101.3359375 295.76171875 C-89.67482402 293.54346156 -77.44524638 294.78247819 -67.45800781 301.42675781 C-54.78578793 310.5462967 -46.3852896 323.42688667 -37.58886719 336.06640625 C-32.82152516 342.85653862 -27.61929614 349.15063897 -22.09765625 355.3359375 C-21.52015625 356.02042969 -20.94265625 356.70492188 -20.34765625 357.41015625 C-11.69132268 367.04032735 1.60189178 372.89517809 14.3515625 373.64453125 C30.13776675 374.22967534 42.8048384 370.78006255 54.90234375 360.3359375 C64.61686878 349.4815295 68.42271192 336.62552831 68.22265625 322.29296875 C66.87150714 305.60133396 58.53612013 291.10838402 45.90234375 280.3359375 C31.32636982 269.28867252 15.26667043 261.42503367 -1.22314453 253.68652344 C-3.93360773 252.4130155 -6.63962173 251.13064511 -9.34375 249.84375 C-16.13866639 246.61107389 -22.93967487 243.39800078 -29.78515625 240.2734375 C-46.84791466 232.41330894 -63.33036629 224.07763616 -78.09765625 212.3359375 C-79.05800781 211.58054687 -80.01835938 210.82515625 -81.0078125 210.046875 C-97.06430215 197.1928489 -108.79849911 182.15004617 -117.09765625 163.3359375 C-117.505 162.44132813 -117.91234375 161.54671875 -118.33203125 160.625 C-129.00008859 134.61135249 -128.51298535 101.6416868 -118.41015625 75.5859375 C-112.97383694 63.01957125 -106.37356026 51.4809637 -97.09765625 41.3359375 C-96.35128906 40.50835938 -95.60492187 39.68078125 -94.8359375 38.828125 C-75.81685192 18.77163475 -51.25173876 7.99873901 -24.49179077 2.8031311 C-22.87598383 2.48782106 -21.26220551 2.16195754 -19.65049744 1.82632446 C-13.0452388 0.5151025 -6.72535381 0.01699504 0 0 Z " fill="#ED3126" transform="translate(1625.09765625,512.6640625)"/>
<path d="M0 0 C0.6899707 0.25120605 1.37994141 0.50241211 2.09082031 0.76123047 C12.62431074 4.63711823 21.86831502 9.48225984 31 16 C31.845625 16.60199219 32.69125 17.20398438 33.5625 17.82421875 C46.45227798 27.5975537 57.16759287 39.51986019 66 53 C66.50917969 53.72445312 67.01835937 54.44890625 67.54296875 55.1953125 C71.47299571 60.97547523 73.70937153 67.43510603 76 74 C76.32355469 74.82757812 76.64710938 75.65515625 76.98046875 76.5078125 C81.02550115 88.32006675 81.07187506 104.90550686 76.3203125 116.46875 C69.92674519 128.72623999 61.13788873 137.37188011 48 142 C36.80165088 145.4994841 25.50008618 144.06341096 15 139 C4.65802522 132.93172141 -1.81112101 123.41242937 -7 112.875 C-8.03353776 110.83968305 -9.06739236 108.80452695 -10.1015625 106.76953125 C-10.5955957 105.78549316 -11.08962891 104.80145508 -11.59863281 103.78759766 C-17.87030957 91.03581743 -17.87030957 91.03581743 -25.96875 79.41796875 C-27 78 -27 78 -27 76 C-27.66 76 -28.32 76 -29 76 C-29.804375 74.989375 -30.60875 73.97875 -31.4375 72.9375 C-39.13209576 63.71145557 -51.25511883 58.50759477 -63 57 C-80.65101425 56.25661742 -96.05929814 58.9445611 -109.89038086 70.88232422 C-131.43705675 90.73176976 -142.90904463 116.49640242 -148 145 C-148.13680176 145.71140137 -148.27360352 146.42280273 -148.41455078 147.15576172 C-153.54308048 174.49828365 -152.63281456 203.8356708 -147 231 C-146.81808105 231.87736816 -146.63616211 232.75473633 -146.44873047 233.65869141 C-140.50180598 261.05493425 -127.77562283 286.45265889 -110 308 C-109.3915625 308.80953125 -108.783125 309.6190625 -108.15625 310.453125 C-96.65528947 324.03759287 -77.5919315 334.0032441 -60 336 C-35.53626067 337.87552735 -14.66458028 334.39022568 4.59765625 318.15625 C15.41132013 308.4503273 23.29984001 297.59424447 31.2824707 285.56787109 C46.22733038 263.08873086 46.22733038 263.08873086 55 261 C61.52586405 260.19526917 66.6354926 261.1074611 72 265 C77.87754364 270.33375516 80.61584271 275.23193016 81.265625 283.296875 C81.1130365 317.01893426 72.45736721 349.1479145 50 375 C49.31421875 375.80695313 48.6284375 376.61390625 47.921875 377.4453125 C26.05245339 402.54008046 -4.4575708 420.82024609 -37 428 C-38.16764893 428.25894043 -39.33529785 428.51788086 -40.53833008 428.78466797 C-50.21516601 430.82299872 -59.56068496 431.56569065 -69.4375 431.5 C-70.53559998 431.49685791 -70.53559998 431.49685791 -71.65588379 431.49365234 C-109.2211003 431.27405595 -143.65609913 417.48244247 -172 393 C-172.9796875 392.15566406 -173.959375 391.31132813 -174.96875 390.44140625 C-185.45846091 381.21276273 -194.36466218 370.71228635 -202 359 C-202.62261719 358.06285156 -203.24523437 357.12570312 -203.88671875 356.16015625 C-220.07962527 330.93230778 -229.80018219 301.38631215 -235 272 C-235.18481934 271.02095703 -235.36963867 270.04191406 -235.56005859 269.03320312 C-239.06963375 249.71716713 -239.42983096 230.36659418 -239.491745 210.7890358 C-239.49984719 208.78774594 -239.51553674 206.78649141 -239.53137207 204.7852478 C-239.88938894 147.31049743 -223.76007819 89.36775268 -186 45 C-185.5477002 44.46793945 -185.09540039 43.93587891 -184.62939453 43.38769531 C-178.37778799 36.12189488 -171.64056904 29.81513982 -164 24 C-163.15050781 23.33484375 -162.30101562 22.6696875 -161.42578125 21.984375 C-153.74739472 16.15385129 -145.50031656 11.50313026 -137 7 C-136.12214844 6.52691406 -135.24429688 6.05382812 -134.33984375 5.56640625 C-119.14345984 -1.97001179 -101.74747333 -5.90349177 -85 -8 C-84.36481445 -8.0920874 -83.72962891 -8.1841748 -83.07519531 -8.27905273 C-55.75322727 -11.89749043 -25.80898519 -9.6998 0 0 Z " fill="#ED3126" transform="translate(433,523)"/>
<path d="M0 0 C1.00417969 0.17144531 2.00835938 0.34289062 3.04296875 0.51953125 C21.65823601 4.41341307 38.55128408 16.17665251 48.9765625 32 C57.96485156 47.60519973 58.58450772 62.41431852 58.50793457 79.94728088 C58.51254944 82.25759315 58.51890627 84.56790248 58.52684355 86.87820572 C58.54347815 93.1948907 58.53531721 99.51133267 58.52289867 105.82801831 C58.51279396 111.95023736 58.52545051 118.07243301 58.53548814 124.19464531 C58.5564995 137.47893286 58.55474686 150.76314325 58.54317249 164.04743806 C58.53309818 175.66732941 58.53048913 187.28719251 58.53526306 198.90708733 C58.5355686 199.67876699 58.53587414 200.45044665 58.53618894 201.24551054 C58.53743434 204.37814997 58.53870794 207.51078938 58.540028 210.64342878 C58.55225174 240.0015479 58.54118762 269.35961792 58.51964041 298.71772946 C58.50064229 324.80118508 58.50237214 350.88456262 58.52148438 376.96801758 C58.54289576 406.28706893 58.55140172 435.606077 58.53903532 464.92513508 C58.53775246 468.0491749 58.5365011 471.17321473 58.53526306 474.29725456 C58.53494675 475.06645049 58.53463044 475.83564641 58.53430455 476.6281513 C58.52975339 488.24703729 58.53507776 499.86589198 58.54518127 511.48477364 C58.55660542 524.68802688 58.55378573 537.89119107 58.5320583 551.0944332 C58.52133467 557.83339834 58.51746452 564.57219495 58.53065491 571.31116104 C58.54253706 577.47474674 58.53608517 583.6380257 58.5147447 589.8015834 C58.51026112 592.0360826 58.51258397 594.2706075 58.52224785 596.5050903 C58.53434498 599.53347291 58.52200426 602.5607935 58.50336456 605.58911991 C58.51272923 606.46429487 58.52209389 607.33946984 58.53174233 608.24116525 C58.46499258 613.63687822 57.57985918 616.71058782 54 621 C48.91771544 624.74171647 41.34289714 623.39150943 35.3125 623.375 C34.61225708 623.37478851 33.91201416 623.37457703 33.19055176 623.37435913 C12.31213256 623.31115473 -8.49700589 618.68642271 -23.875 603.375 C-24.91883502 602.25201162 -25.960748 601.127231 -27 600 C-27.825 599.2575 -28.65 598.515 -29.5 597.75 C-40.49926516 585.65080832 -45.33621346 570.33866315 -45.25447559 554.22607136 C-45.25768207 553.27874857 -45.26088855 552.33142578 -45.26419219 551.35539624 C-45.27248132 548.18692663 -45.26657167 545.01864659 -45.26069641 541.85017395 C-45.26371756 539.55329234 -45.26760686 537.25641174 -45.27228898 534.95953292 C-45.28258192 528.65215839 -45.28038386 522.34484061 -45.27610838 516.0374614 C-45.27292197 509.93263551 -45.28105069 503.82781903 -45.28786864 497.72299783 C-45.30310149 483.69818887 -45.30481457 469.67339799 -45.30234561 455.6485825 C-45.30051273 444.82123283 -45.30227245 433.99388907 -45.30657005 423.16654015 C-45.30717245 421.61083398 -45.30777365 420.05512782 -45.30837366 418.49942165 C-45.30928091 416.15514409 -45.31018957 413.81086652 -45.31110601 411.46658896 C-45.31953405 389.67489119 -45.32387212 367.88319564 -45.31969929 346.09149647 C-45.31954291 345.27017162 -45.31938654 344.44884677 -45.31922542 343.60263328 C-45.31841964 339.43983709 -45.31757387 335.27704091 -45.31671212 331.11424474 C-45.31645549 329.87412542 -45.31645549 329.87412542 -45.31619367 328.60895319 C-45.31584702 326.93707403 -45.31549849 325.26519487 -45.31514808 323.59331571 C-45.30978795 297.56455711 -45.31773022 271.53583237 -45.33618164 245.50708008 C-45.35688667 216.26498932 -45.36762748 187.02291953 -45.36360615 157.78082103 C-45.3632108 154.66455154 -45.36284926 151.54828205 -45.36250877 148.43201256 C-45.36241804 147.66470393 -45.36232731 146.89739531 -45.36223383 146.1068349 C-45.36106692 134.51395648 -45.36772303 122.92109922 -45.37832069 111.32822609 C-45.39035488 98.15046391 -45.39195201 84.97274842 -45.37953053 71.79498557 C-45.37347395 65.06823568 -45.37259821 58.34158267 -45.38453293 51.61483765 C-45.39532262 45.46216783 -45.39237131 39.30966639 -45.37827124 33.15700468 C-45.37560521 30.9263608 -45.37805001 28.69570401 -45.38600711 26.46507273 C-45.3960461 23.4419778 -45.38774851 20.41947582 -45.37473011 17.39640522 C-45.38203946 16.52272386 -45.3893488 15.64904251 -45.39687964 14.74888596 C-45.35208835 9.75897987 -44.77332402 6.3213787 -42 2 C-31.71785096 -6.05898168 -11.88182974 -2.07502477 0 0 Z " fill="#ED3126" transform="translate(1189,327)"/>
<path d="M0 0 C0.79874039 -0.0049649 1.59748077 -0.00992981 2.42042542 -0.01504517 C5.06512309 -0.02965947 7.70976075 -0.03646826 10.35449219 -0.04199219 C12.19431561 -0.04774511 14.03413901 -0.05350283 15.8739624 -0.05926514 C19.73417439 -0.06977364 23.59436556 -0.07561701 27.45458984 -0.07910156 C32.39195281 -0.08457997 37.32903913 -0.10859464 42.26631546 -0.13707352 C46.0685302 -0.15573431 49.87067883 -0.16090737 53.67293549 -0.16243744 C55.492536 -0.16545772 57.31213553 -0.17346512 59.13169098 -0.18662262 C61.68305741 -0.203752 64.23375503 -0.20178599 66.78515625 -0.1953125 C67.53138748 -0.20452728 68.27761871 -0.21374207 69.04646301 -0.22323608 C74.21133689 -0.18235854 77.64837175 0.81170913 82.15136719 3.16113281 C88.39888768 10.44990672 86.29485489 23.08962375 86.28507996 32.13426208 C86.28694945 33.77229857 86.28925071 35.41033461 86.29194528 37.04836994 C86.29805238 41.53934954 86.29793097 46.03031049 86.2967509 50.52129328 C86.29654663 55.36868045 86.30206817 60.21606166 86.30680847 65.06344604 C86.31510915 74.55573498 86.31786303 84.0480177 86.31842085 93.54030996 C86.3188962 101.25552779 86.32095189 108.97074358 86.32412148 116.68596077 C86.33292575 138.56210443 86.3375411 160.43824318 86.336791 182.31438863 C86.33675105 183.49333813 86.33671109 184.67228764 86.33666992 185.88696289 C86.33662904 187.06735215 86.33658816 188.24774141 86.33654604 189.46390004 C86.33613943 208.60147137 86.34571332 227.73902305 86.35980829 246.87658869 C86.37416819 266.52893248 86.38107871 286.18126667 86.38021451 305.83361584 C86.37988245 316.86618668 86.38263357 327.8987369 86.39339256 338.93130302 C86.40249238 348.32258888 86.404677 357.71384476 86.39788314 367.10513311 C86.39461558 371.89608007 86.39456983 376.68696949 86.40323639 381.477911 C86.41109161 385.86545072 86.40967995 390.2528872 86.40095226 394.64042438 C86.39941514 396.22579968 86.4012414 397.81118266 86.40681233 399.39654892 C86.4716729 419.16718996 86.4716729 419.16718996 82.21386719 424.66113281 C73.68592759 430.8632707 52.35531984 428.03724186 42.14013672 426.79492188 C36.91361177 425.8311655 32.03631527 424.23577901 27.15136719 422.16113281 C26.45140625 421.8664209 25.75144531 421.57170898 25.03027344 421.26806641 C7.45840805 413.63002456 -6.12405536 402.02805997 -13.84863281 384.16113281 C-17.58876842 372.21461908 -17.99761907 360.24935988 -17.98234558 347.83859253 C-17.98421614 346.39213315 -17.98651782 344.94567428 -17.9892109 343.4992162 C-17.99530453 339.54250798 -17.99519821 335.58582098 -17.99401653 331.62910914 C-17.99381192 327.35506159 -17.99933691 323.08102073 -18.0040741 318.80697632 C-18.01236675 310.44179946 -18.01512827 302.07662964 -18.01568647 293.71144901 C-18.01616209 286.91299995 -18.0182191 280.11455321 -18.0213871 273.31610489 C-18.03018823 254.03660175 -18.03480707 234.75710417 -18.03405663 215.47759901 C-18.03401667 214.43907825 -18.03397671 213.40055749 -18.03393555 212.33056641 C-18.03389467 211.29077692 -18.03385379 210.25098744 -18.03381167 209.17968918 C-18.03340487 192.31381321 -18.04298422 175.44795953 -18.05707391 158.58209001 C-18.0714307 141.2598096 -18.07834455 123.93754008 -18.07748014 106.61525357 C-18.07714803 96.89173574 -18.07990142 87.16824132 -18.09065819 77.44472885 C-18.09975378 69.17000776 -18.10194602 60.89532068 -18.09514876 52.62059675 C-18.09187941 48.3989877 -18.09184195 44.17744394 -18.10050201 39.95584106 C-18.10834907 36.09087716 -18.10695403 32.22603055 -18.09821788 28.36106957 C-18.09667899 26.9635108 -18.0985137 25.56594334 -18.10407796 24.16839479 C-18.15386474 10.7760377 -18.15386474 10.7760377 -15.84863281 5.16113281 C-10.89286281 0.33243383 -6.63303414 0.00982967 0 0 Z " fill="#ED3126" transform="translate(1341.8486328125,522.8388671875)"/>
<path d="M0 0 C0.79874039 -0.0049649 1.59748077 -0.00992981 2.42042542 -0.01504517 C5.06512309 -0.02965947 7.70976075 -0.03646826 10.35449219 -0.04199219 C12.19431561 -0.04774511 14.03413901 -0.05350283 15.8739624 -0.05926514 C19.73417439 -0.06977364 23.59436556 -0.07561701 27.45458984 -0.07910156 C32.39195281 -0.08457997 37.32903913 -0.10859464 42.26631546 -0.13707352 C46.0685302 -0.15573431 49.87067883 -0.16090737 53.67293549 -0.16243744 C55.492536 -0.16545772 57.31213553 -0.17346512 59.13169098 -0.18662262 C61.68305741 -0.203752 64.23375503 -0.20178599 66.78515625 -0.1953125 C67.53138748 -0.20452728 68.27761871 -0.21374207 69.04646301 -0.22323608 C74.21146918 -0.18235749 77.64288252 0.82591971 82.15136719 3.16113281 C86.1086173 7.3821996 86.27748171 11.28964144 86.28558826 16.901021 C86.28794049 17.59322979 86.29029272 18.28543859 86.29271623 18.9986234 C86.2994125 21.3353456 86.29894783 23.67201228 86.29853821 26.00874329 C86.30183643 27.69410051 86.30556191 29.37945694 86.30967969 31.06481236 C86.31971231 35.70969551 86.3234185 40.35456574 86.326069 44.99945819 C86.32996824 50.00366255 86.33954674 55.00785663 86.34828186 60.01205444 C86.36805565 72.10288888 86.37811303 84.19372416 86.38700965 96.28457072 C86.39139051 101.97457244 86.39675779 107.66457323 86.40199852 113.3545742 C86.41901069 132.26224353 86.43350617 151.16991227 86.44074726 170.07758808 C86.44265723 174.98556329 86.44457756 179.89353849 86.4465332 184.80151367 C86.44701694 186.02140475 86.44750068 187.24129582 86.44799908 188.49815329 C86.45630431 208.27180927 86.48164959 228.04540485 86.51411388 247.81903443 C86.54715253 268.10740225 86.56519307 288.39573932 86.5683915 308.68413419 C86.57055942 320.08056615 86.5793493 331.47691001 86.60485268 342.87331581 C86.62651595 352.57627615 86.63463164 362.27912697 86.62488589 371.98210875 C86.62032866 376.93473521 86.62230985 381.8871355 86.64164734 386.83973122 C86.65919025 391.37174082 86.65835388 395.9033578 86.64275005 400.43537106 C86.64036044 402.076701 86.64476714 403.71805749 86.6565787 405.35934667 C86.67162615 407.58795133 86.66207654 409.81515186 86.64635181 412.0437212 C86.64732862 413.28226158 86.64830543 414.52080196 86.64931184 415.79687387 C86.05375558 419.82062523 84.65199023 421.99290786 82.15136719 425.16113281 C77.06417758 428.9193408 69.18321117 427.6012905 63.08886719 427.59863281 C62.36717346 427.59936798 61.64547974 427.60010315 60.9019165 427.6008606 C38.9114891 427.54186323 19.79793485 422.1280468 3.15136719 407.16113281 C2.52875 406.63132812 1.90613281 406.10152344 1.26464844 405.55566406 C-11.39962023 394.02975662 -16.03714985 378.6759627 -16.84863281 362.16113281 C-16.97582437 357.2281498 -16.98814114 352.2987494 -16.98234558 347.36430359 C-16.98421835 345.91510469 -16.9865209 344.46590629 -16.9892109 343.01670867 C-16.99527694 339.07096843 -16.99520153 335.12524954 -16.99401653 331.17950571 C-16.99381121 326.91028102 -16.99934341 322.64106297 -17.0040741 318.37184143 C-17.01235078 310.02425645 -17.01512751 301.67667853 -17.01568647 293.32908978 C-17.01616271 286.54457032 -17.01822277 279.76005317 -17.0213871 272.97553444 C-17.03018268 253.72472956 -17.03480777 234.47393024 -17.03405663 215.22312333 C-17.03401667 214.18712691 -17.03397671 213.15113049 -17.03393555 212.08374023 C-17.03389467 211.04647507 -17.03385379 210.0092099 -17.03381167 208.94051246 C-17.03340469 192.10789897 -17.0429901 175.27530779 -17.05707391 158.44270077 C-17.07143327 141.14401916 -17.07834446 123.84534844 -17.07748014 106.54666072 C-17.07714819 96.84049683 -17.07989465 87.13435638 -17.09065819 77.42819786 C-17.09975699 69.17080327 -17.10194324 60.91344277 -17.09514876 52.65604534 C-17.09188148 48.44441085 -17.09183461 44.23284181 -17.10050201 40.02121353 C-17.10835778 36.16437535 -17.10694509 32.30765463 -17.09821788 28.45081935 C-17.09668096 27.0574 -17.09850632 25.66397191 -17.10407796 24.27056285 C-17.13020627 17.27146017 -17.12616889 10.82699072 -14.84863281 4.16113281 C-10.55249193 -0.13500807 -5.74982706 0.00852082 0 0 Z " fill="#ED3126" transform="translate(980.8486328125,522.8388671875)"/>
<path d="M0 0 C10.35884106 9.10495108 18.06914018 20.51006464 19.0546875 34.55859375 C19.32878476 44.031395 18.29162739 50.83630195 12.27734375 58.30859375 C6.61279372 64.25325889 -0.59347681 67.01294388 -8.7421875 67.58984375 C-17.39254379 67.25445029 -25.0754107 64.7289467 -31.16015625 58.49609375 C-37.21522083 51.45507175 -41.85849121 43.86457364 -46.23828125 35.72265625 C-51.21862452 27.36134823 -58.6123732 20.85655381 -68.09765625 18.05859375 C-78.26675604 16.18314502 -87.32184261 17.29074509 -96.34765625 22.24609375 C-102.8439152 27.44310091 -107.25900446 33.28269078 -109.16015625 41.49609375 C-110.36871593 53.64335178 -108.83212896 63.85898383 -100.95703125 73.56640625 C-93.10047494 82.00366454 -83.4487928 86.72799734 -73.16015625 91.49609375 C-72.18353027 91.95032715 -71.2069043 92.40456055 -70.20068359 92.87255859 C-64.67071535 95.44043746 -59.1339851 97.99341861 -53.59375 100.5390625 C-21.74950926 115.17300067 10.75253398 131.04147132 23.9921875 165.87695312 C32.18977141 189.09540403 30.17961493 213.29430731 19.83984375 235.49609375 C15.71653875 243.55068709 10.77573626 250.67816099 4.83984375 257.49609375 C4.32164062 258.1096875 3.8034375 258.72328125 3.26953125 259.35546875 C-12.48985163 276.61951633 -39.54548172 283.92162716 -62.16015625 285.49609375 C-66.74440353 285.65508499 -71.32343818 285.68113306 -75.91015625 285.68359375 C-77.09609375 285.69583984 -78.28203125 285.70808594 -79.50390625 285.72070312 C-90.80109502 285.73920289 -101.5775486 284.19317022 -112.47265625 281.24609375 C-113.27606445 281.02920898 -114.07947266 280.81232422 -114.90722656 280.58886719 C-137.88032616 274.21802339 -159.59002423 263.79454801 -172.16015625 242.49609375 C-174.00142516 239.22721087 -175.6423385 235.92647305 -177.16015625 232.49609375 C-177.64162109 231.47322266 -177.64162109 231.47322266 -178.1328125 230.4296875 C-181.59694257 221.93854077 -181.66351416 210.63241628 -178.66015625 201.99609375 C-175.29463118 194.95693217 -169.50372877 189.36242742 -162.34375 186.25 C-153.43444082 183.17397733 -145.99932198 182.8828271 -137.16015625 186.49609375 C-127.51452376 192.08284409 -120.53153674 201.39099598 -114.22265625 210.37109375 C-105.99159165 222.06569364 -98.35614468 232.07141953 -84.84765625 237.93359375 C-73.53694401 239.65895663 -61.69871143 239.59241678 -52.0078125 232.96484375 C-44.10576757 226.68330275 -40.44315346 218.55386357 -39.22265625 208.62109375 C-38.72480321 198.92540581 -41.13095374 190.97284453 -46.953125 183.23828125 C-48.16015625 181.49609375 -48.16015625 181.49609375 -48.16015625 179.49609375 C-48.82015625 179.49609375 -49.48015625 179.49609375 -50.16015625 179.49609375 C-51.84949547 177.85241235 -53.51275549 176.18180615 -55.16015625 174.49609375 C-59.03286211 171.15304748 -63.1973216 168.58649732 -67.66015625 166.12109375 C-68.42207275 165.69900635 -69.18398926 165.27691895 -69.96899414 164.84204102 C-77.3939112 160.79885524 -84.98122691 157.09794226 -92.59765625 153.43359375 C-93.2245636 153.13193298 -93.85147095 152.83027222 -94.49737549 152.51947021 C-100.54793456 149.6131213 -106.60878516 146.73305169 -112.71875 143.953125 C-128.12349937 136.92349321 -141.15422079 128.4838384 -153.16015625 116.49609375 C-153.8253125 115.84253906 -154.49046875 115.18898438 -155.17578125 114.515625 C-169.64819386 99.2283243 -175.71088001 77.99512514 -175.58374023 57.36279297 C-174.90079999 35.80966197 -166.39781042 15.98476129 -151.07592773 0.80053711 C-137.77645277 -11.65832038 -120.64974599 -17.70866528 -103.16015625 -21.50390625 C-102.15984375 -21.73207031 -101.15953125 -21.96023438 -100.12890625 -22.1953125 C-66.59251502 -28.64115114 -26.69773167 -22.13989087 0 0 Z " fill="#5D9841" transform="translate(1432.16015625,1187.50390625)"/>
<path d="M0 0 C7.7431966 8.04523619 12.84007004 18.10643563 15.375 28.9375 C15.74625 30.13375 16.1175 31.33 16.5 32.5625 C24.36396114 67.00122638 8.53713202 106.03137144 -8.84765625 135.203125 C-11.78510013 139.72226944 -15.17843298 143.80294264 -18.625 147.9375 C-19.95870653 149.66637884 -21.29204118 151.39554462 -22.625 153.125 C-25.63169444 156.87898937 -28.75732565 160.04656262 -32.45703125 163.109375 C-34.94444634 165.20687097 -37.26692571 167.44574328 -39.625 169.6875 C-53.02010658 181.87834388 -73.52184374 198.05476607 -92.4609375 197.28515625 C-97.69269391 196.44467553 -101.93277937 194.01556519 -105.5 190.125 C-109.11782941 184.69825588 -110.23150061 179.76724402 -109.21484375 173.37744141 C-107.24611062 165.23360082 -101.66355711 159.46248246 -95.75 153.875 C-84.61344756 143.17001529 -74.6457898 131.81890949 -67.625 117.9375 C-67.0475 116.865 -66.47 115.7925 -65.875 114.6875 C-61.82320892 102.53212676 -63.56646991 91.61749504 -69.0625 80.375 C-72.09427436 74.37918847 -75.59304865 68.77671941 -79.3125 63.1875 C-83.62652346 56.70472198 -87.17064626 50.37830092 -89.625 42.9375 C-89.87894531 42.19757813 -90.13289063 41.45765625 -90.39453125 40.6953125 C-93.43513038 29.98455685 -91.17000005 17.88400468 -86.625 7.9375 C-81.12434697 -1.8922384 -73.16502277 -9.87090793 -62.625 -14.0625 C-61.91601562 -14.34867187 -61.20703125 -14.63484375 -60.4765625 -14.9296875 C-38.96209951 -22.8560686 -16.25551038 -14.95174077 0 0 Z " fill="#5D9841" transform="translate(1575.625,315.0625)"/>
<path d="M0 0 C11.36489727 10.25781443 17.3913389 25.4698845 18.36279297 40.53710938 C19.98005151 74.95421284 7.47734433 106.17132346 -15.62109375 131.56640625 C-28.17123365 144.97503793 -48.7293695 164.66184706 -67.4921875 166.08203125 C-77.3502772 166.24982852 -77.3502772 166.24982852 -81.80859375 162.87890625 C-85.47044482 157.93045886 -87.33122373 153.09922778 -86.80859375 146.87890625 C-84.42899347 137.68290257 -76.91646269 131.64541947 -70.30908203 125.33740234 C-67.2560693 122.36983025 -64.49613298 119.17628288 -61.80859375 115.87890625 C-61.28910156 115.24855469 -60.76960938 114.61820313 -60.234375 113.96875 C-53.25907425 105.13102638 -48.32799948 95.32906469 -48.80859375 83.87890625 C-51.05882361 73.16234193 -56.03953443 64.76400599 -62.1875 55.8515625 C-69.58478341 44.9808537 -73.51744185 33.57523718 -71.12109375 20.44140625 C-68.38181208 9.52232516 -62.35559767 0.5015688 -52.80859375 -5.49609375 C-35.54233077 -15.13490017 -15.26511325 -11.52845131 0 0 Z " fill="#5D9841" transform="translate(1283.80859375,1024.12109375)"/>
<path d="M0 0 C4.83506103 4.59065135 8.15869674 10.00380483 11 16 C11.39574219 16.80308594 11.79148437 17.60617187 12.19921875 18.43359375 C17.05329739 30.16854177 17.23528898 46.26197864 13 58.25 C5.45094873 74.29966363 -6.64113762 83.86542661 -23 90 C-39.87994786 94.72288696 -59.80152971 93.12137471 -75.18359375 84.78515625 C-87.43174657 77.02176396 -95.12252604 65.90470502 -99 52 C-101.9192525 37.36455291 -99.8742394 22.81352313 -91.62109375 10.23828125 C-83.0734905 -1.56359022 -71.92425572 -9.67465954 -57.4765625 -12.75 C-36.83804957 -15.97336861 -16.52018727 -13.71264203 0 0 Z " fill="#ED3126" transform="translate(1416,378)"/>
<path d="M0 0 C1.28293945 0.00499512 2.56587891 0.00999023 3.88769531 0.01513672 C13.06379083 0.18454515 20.54582233 0.9755193 28.6875 5.5 C29.52539062 5.95761719 30.36328125 6.41523438 31.2265625 6.88671875 C42.50254159 13.76921435 50.83119349 24.24618057 54.3828125 36.99609375 C57.38484352 51.22402949 57.0520029 67.6299505 49.25390625 80.31640625 C39.29333191 94.20159591 26.55860743 102.70736795 9.6875 105.5 C6.28602791 105.78516746 2.91226674 105.83458587 -0.5 105.8125 C-1.41837646 105.80686035 -2.33675293 105.8012207 -3.28295898 105.79541016 C-20.94246285 105.48296207 -34.77909069 100.17215554 -47.3125 87.5 C-48.240625 86.5925 -49.16875 85.685 -50.125 84.75 C-58.74080129 71.94938093 -60.77560811 55.61317399 -58.0703125 40.6484375 C-55.23142708 28.85389292 -48.96168114 18.03219069 -39.3125 10.5 C-26.67261789 2.89167531 -14.76389276 -0.07510981 0 0 Z " fill="#ED3126" transform="translate(1017.3125,364.5)"/>
<path d="M0 0 C4.54978654 2.82527068 7.53476068 6.47796076 9.9375 11.203125 C11.21358429 19.3047764 10.5671837 26.10677022 5.8046875 32.85546875 C5.18851563 33.63019531 4.57234375 34.40492187 3.9375 35.203125 C3.04417969 36.38068359 3.04417969 36.38068359 2.1328125 37.58203125 C-4.11633647 45.15638885 -11.94016275 50.6879385 -19.77441406 56.49121094 C-23.52090151 59.29428072 -27.19375387 62.19026837 -30.875 65.078125 C-38.04490455 70.67924726 -45.3030282 76.15381276 -52.59643555 81.59277344 C-58.18345561 85.76802252 -63.70079221 90.02219221 -69.1875 94.328125 C-77.97143469 101.20301019 -86.96445007 107.75171224 -96.0625 114.203125 C-96.8963623 114.79689941 -97.73022461 115.39067383 -98.58935547 116.00244141 C-137.5464014 143.71158437 -137.5464014 143.71158437 -150.1640625 142.7265625 C-154.64494937 141.49109163 -157.11474305 138.40361713 -159.9375 134.828125 C-161.43539289 131.33304158 -161.52594169 128.97686451 -161.0625 125.203125 C-158.38584648 120.45238214 -155.39057943 117.63269406 -151 114.453125 C-145.5501994 110.41911712 -140.50637283 106.11291543 -135.53515625 101.4921875 C-133.45782394 99.56909629 -131.34625015 97.72037982 -129.1875 95.890625 C-125.36403622 92.56899084 -121.7753777 89.02480571 -118.1875 85.453125 C-117.61531738 84.88553467 -117.04313477 84.31794434 -116.45361328 83.7331543 C-114.04969697 81.32025474 -111.95750232 79.04562848 -110.0625 76.203125 C-109.4025 76.203125 -108.7425 76.203125 -108.0625 76.203125 C-107.68158203 75.32914063 -107.68158203 75.32914063 -107.29296875 74.4375 C-105.92929667 71.96124467 -104.42024797 70.39791874 -102.375 68.453125 C-99.78328619 65.92608854 -97.29163949 63.39011616 -94.9375 60.640625 C-85.76316043 50.04548063 -75.99140787 39.99970233 -66.13397217 30.04342651 C-65.06320931 28.96032454 -63.99495497 27.87473557 -62.92950439 26.78640747 C-47.7321994 11.2842674 -23.28234263 -11.80747376 0 0 Z " fill="#FEFCFC" transform="translate(1102.0625,1158.796875)"/>
<path d="M0 0 C3.13681952 1.65095764 5.23481988 3.99135348 7.375 6.8125 C8.7477613 11.61716454 8.71380187 15.47505965 6.625 19.9375 C-3.12999091 32.36833911 -17.00680857 38.87929275 -32.55712891 40.78466797 C-37.84441091 41.25072661 -43.13214558 41.3702407 -48.4375 41.4375 C-49.55157227 41.45989746 -50.66564453 41.48229492 -51.81347656 41.50537109 C-59.45160281 41.48353474 -65.36747574 40.63252426 -71 35 C-71.3125 31.5 -71.3125 31.5 -71 28 C-67.51445045 25.6763003 -64.9893697 25.33150793 -60.875 24.625 C-55.66201842 23.66274713 -50.92043578 22.478579 -46.17358398 20.07397461 C-44.1468153 19.0725419 -42.10437706 18.19246015 -40.01953125 17.3203125 C-33.92905505 14.62933168 -28.2801505 11.20833254 -22.5625 7.8125 C-20.41820108 6.54778309 -18.27368137 5.28344042 -16.12890625 4.01953125 C-15.19119385 3.46370361 -14.25348145 2.90787598 -13.28735352 2.33520508 C-8.79156028 -0.28914045 -5.182365 -0.78388714 0 0 Z " fill="#FEFAFA" transform="translate(920,1300)"/>
<path d="M0 0 C5.48247709 4.41193423 8.25057402 9.68365019 9.2890625 16.62109375 C9.66944675 25.11967873 7.88944137 31.86667737 2.16796875 38.28125 C-3.82223637 43.79818835 -11.0342714 46.66324086 -19.1875 46.4375 C-28.68539877 44.70147923 -35.60442215 40.29195424 -41.1875 32.4375 C-44.2731573 26.40644256 -44.04065063 18.67457582 -42.72265625 12.12890625 C-40.51701647 5.43368016 -36.32431317 0.30418354 -30.0625 -2.9375 C-19.63460655 -7.75359537 -9.39429645 -6.19847971 0 0 Z M-28.1875 4.4375 C-33.30958005 9.8050828 -35.56537186 14.6077095 -35.46875 22.0234375 C-34.85576855 27.28486165 -32.49463892 31.16387747 -28.75 34.8125 C-23.66254134 38.0386933 -19.24340963 39.22591088 -13.1875 38.4375 C-10.69883742 37.62516297 -8.54013404 36.61381702 -6.1875 35.4375 C-6.1875 35.1075 -6.1875 34.7775 -6.1875 34.4375 C-9.6525 33.9425 -9.6525 33.9425 -13.1875 33.4375 C-13.35026042 31.41927083 -13.51302083 29.40104167 -13.67578125 27.3828125 C-14.06143036 25.04230784 -14.06143036 25.04230784 -17.1875 23.4375 C-18.1775 23.4375 -19.1675 23.4375 -20.1875 23.4375 C-20.5175 26.7375 -20.8475 30.0375 -21.1875 33.4375 C-23.4975 33.4375 -25.8075 33.4375 -28.1875 33.4375 C-28.1875 24.8575 -28.1875 16.2775 -28.1875 7.4375 C-24.660625 7.4065625 -24.660625 7.4065625 -21.0625 7.375 C-19.96977783 7.36134399 -19.96977783 7.36134399 -18.85498047 7.34741211 C-14.85335856 7.33058945 -11.11079411 7.66139665 -7.1875 8.4375 C-5.80974449 15.82727956 -5.80974449 15.82727956 -7.8125 19.0625 C-8.26625 19.84625 -8.72 20.63 -9.1875 21.4375 C-8.0630742 24.52039958 -8.0630742 24.52039958 -6.1875 27.4375 C-5.50221955 29.09660004 -4.82858137 30.76082564 -4.1875 32.4375 C-0.51029896 27.92457145 1.06402119 24.48373813 0.75 18.625 C-0.05204545 12.30299473 -2.62076028 7.71089803 -7.375 3.5 C-14.25720344 0.90005648 -21.84815698 0.18864697 -28.1875 4.4375 Z M-20.1875 12.4375 C-20.1875 14.0875 -20.1875 15.7375 -20.1875 17.4375 C-18.5375 17.4375 -16.8875 17.4375 -15.1875 17.4375 C-14.8575 16.1175 -14.5275 14.7975 -14.1875 13.4375 C-17.1575 12.9425 -17.1575 12.9425 -20.1875 12.4375 Z " fill="#ED3126" transform="translate(1821.1875,903.5625)"/>
<path d="M0 0 C6.01556455 4.5568547 9.48834122 10.54612907 10.61328125 18 C10.94307387 25.56740364 9.7439163 31.70144126 5.1328125 37.81640625 C2.65251146 40.17883159 0.08185081 42.08098808 -2.8671875 43.81640625 C-3.42921875 44.18894531 -3.99125 44.56148437 -4.5703125 44.9453125 C-11.30671745 47.50010553 -21.00010015 46.90894736 -27.83984375 44.9765625 C-34.23235561 41.71999985 -38.09249126 36.36579873 -41.2421875 30.06640625 C-42.71230858 22.42177665 -42.88798903 14.89461627 -39.2578125 7.8515625 C-30.34516289 -5.19194999 -13.29701792 -8.42886282 0 0 Z M-29.6171875 8.62890625 C-33.34770192 13.91380168 -34.43278234 18.36862511 -33.8671875 24.81640625 C-32.50913201 28.52019394 -31.05353095 31.53689108 -28.8671875 34.81640625 C-28.2071875 34.81640625 -27.5471875 34.81640625 -26.8671875 34.81640625 C-26.8671875 26.23640625 -26.8671875 17.65640625 -26.8671875 8.81640625 C-24.1446875 8.77515625 -21.4221875 8.73390625 -18.6171875 8.69140625 C-17.76608398 8.67319824 -16.91498047 8.65499023 -16.03808594 8.63623047 C-8.67634874 8.58217697 -8.67634874 8.58217697 -5.8671875 10.81640625 C-4.92099318 14.3984276 -4.33806851 16.72877277 -5.9921875 20.12890625 C-7.44014334 24.5761992 -5.41065447 28.54282835 -3.8671875 32.81640625 C-0.79935824 32.17049292 -0.79935824 32.17049292 0.1171875 30.03125 C2.19817554 23.8413723 2.92594556 19.14465847 0.33984375 12.90234375 C-2.28818047 7.8608279 -5.47149951 4.61496891 -10.8671875 2.81640625 C-18.69540122 2.11577438 -23.92861618 2.81104921 -29.6171875 8.62890625 Z M-18.8671875 13.81640625 C-18.8671875 15.46640625 -18.8671875 17.11640625 -18.8671875 18.81640625 C-17.2171875 18.81640625 -15.5671875 18.81640625 -13.8671875 18.81640625 C-13.27648736 16.87037351 -13.27648736 16.87037351 -12.8671875 14.81640625 C-13.93363865 13.52007004 -13.93363865 13.52007004 -16.4296875 13.75390625 C-17.2340625 13.77453125 -18.0384375 13.79515625 -18.8671875 13.81640625 Z M-18.8671875 24.81640625 C-18.8671875 28.11640625 -18.8671875 31.41640625 -18.8671875 34.81640625 C-21.5071875 34.81640625 -24.1471875 34.81640625 -26.8671875 34.81640625 C-24.47352723 37.58801287 -22.42209789 38.88903832 -18.8671875 39.81640625 C-13.55310454 39.82606822 -9.16864498 39.14656688 -4.8671875 35.81640625 C-4.8671875 35.48640625 -4.8671875 35.15640625 -4.8671875 34.81640625 C-5.7953125 34.81640625 -6.7234375 34.81640625 -7.6796875 34.81640625 C-9.2575 34.32140625 -9.2575 34.32140625 -10.8671875 33.81640625 C-11.85906123 31.79785621 -12.43960027 29.78296559 -13.078125 27.62890625 C-13.33851562 27.03078125 -13.59890625 26.43265625 -13.8671875 25.81640625 C-16.43798885 24.68199847 -16.43798885 24.68199847 -18.8671875 24.81640625 Z " fill="#5D9841" transform="translate(1507.8671875,1429.18359375)"/>
</svg>
