<?xml version="1.0" encoding="UTF-8"?>
<svg version="1.1" xmlns="http://www.w3.org/2000/svg" width="866" height="650">
<path d="M0 0 C285.78 0 571.56 0 866 0 C866 214.5 866 429 866 650 C580.22 650 294.44 650 0 650 C0 435.5 0 221 0 0 Z " fill="#E60000" transform="translate(0,0)"/>
<path d="M0 0 C0.66 0 1.32 0 2 0 C1.08042741 7.65385401 -0.13650053 15.24310559 -1.41918945 22.84301758 C-1.67978958 24.39642724 -1.93667373 25.95046522 -2.18969727 27.50512695 C-4.42882009 41.25640442 -7.6300646 54.01661695 -13.75 66.625 C-14.18465576 67.52943848 -14.61931152 68.43387695 -15.06713867 69.36572266 C-18.42670936 76.19052251 -22.23732574 82.06391324 -27 88 C-28.6890688 90.3180886 -30.34443222 92.65769928 -32 95 C9.84895958 86.00177929 56.31774716 69.44349574 81.7734375 32.46875 C82.17820312 31.9840625 82.58296875 31.499375 83 31 C83.66 31 84.32 31 85 31 C85.09498779 31.61294922 85.18997559 32.22589844 85.2878418 32.85742188 C90.7040487 67.23828185 103.03369252 95.54351822 126 122 C126.74894531 122.87785156 127.49789062 123.75570312 128.26953125 124.66015625 C130.75622908 127.54472573 133.28665982 130.32679799 136 133 C133.75727188 139.0013618 130.41750597 144.27591889 127.125 149.75 C126.45315674 150.86729492 125.78131348 151.98458984 125.08911133 153.13574219 C119.46175209 162.40339314 113.48273224 171.31295278 107 180 C106.56880859 180.58136719 106.13761719 181.16273438 105.69335938 181.76171875 C97.45857595 192.81732661 88.55204113 203.30612813 79.265625 213.48828125 C77.39257512 215.5647831 75.55213174 217.66215314 73.71875 219.7734375 C69.98956692 224.04326244 66.14145738 228.19062738 62.25 232.3125 C61.55261719 233.05161621 60.85523438 233.79073242 60.13671875 234.55224609 C52.66173996 242.44881093 45.1667157 250.27226759 36.8828125 257.33203125 C34.88804361 259.09918128 33.04328609 260.96286412 31.1875 262.875 C27.27916744 266.84463973 23.05173028 270.30453569 18.7109375 273.7890625 C16.30014145 275.75521605 13.986744 277.78089301 11.6875 279.875 C-19.86097779 308.14065558 -57.22863839 331.16800983 -95 350 C-95.88107422 350.44182617 -96.76214844 350.88365234 -97.66992188 351.33886719 C-135.73851328 370.31655532 -176.79019467 383.60621993 -219 389 C-219.80493896 389.1045752 -220.60987793 389.20915039 -221.43920898 389.31689453 C-249.16850152 392.52183085 -276.54766724 389.5993067 -303 381 C-303.70431152 380.77473633 -304.40862305 380.54947266 -305.13427734 380.31738281 C-328.09562418 372.82597046 -349.69915455 359.83251047 -367 343 C-368.0464076 342.02684093 -369.09331499 341.05421908 -370.140625 340.08203125 C-384.42611493 326.58228506 -397.7584132 308.34736453 -398.375 288 C-398.4134775 283.58791332 -398.4134775 283.58791332 -396.75 281.22265625 C-393.15059637 278.70789434 -389.17055351 279.33650285 -385 280 C-373.4542773 283.85361164 -363.02373887 291.26879488 -352.99609375 298.0234375 C-334.93016435 310.06739044 -314.10927419 312.37093616 -293 308.9375 C-253.80482475 300.51895587 -214.10702922 271.4918258 -188.64453125 240.94921875 C-187.49331259 239.58471018 -186.29878648 238.25611628 -185.07421875 236.95703125 C-148.04394482 197.6250584 -126.31276565 145.57044393 -117 93 C-116.85884766 92.20460815 -116.71769531 91.40921631 -116.57226562 90.58972168 C-115.17405752 82.69415854 -113.783034 74.79738156 -112.4465332 66.89111328 C-108.06076813 41.06076813 -108.06076813 41.06076813 -106 39 C-104.11866763 38.62994217 -102.22672147 38.31364562 -100.33203125 38.01953125 C-67.86285604 32.81086586 -24.34171164 24.34171164 0 0 Z " fill="#FEFDFD" transform="translate(553,223)"/>
<path d="M0 0 C6.88861147 2.74518223 13.9796281 8.00597108 17.09765625 14.8359375 C17.78515625 17.8359375 17.78515625 17.8359375 17.09765625 20.8359375 C13.0922647 25.22279492 8.44945517 27.81088016 3.28515625 30.6484375 C-3.27318874 34.25791447 -8.63141649 38.47953575 -13.90234375 43.8359375 C-14.83626953 44.77179688 -14.83626953 44.77179688 -15.7890625 45.7265625 C-21.12831858 51.43776676 -25.07284255 58.05472082 -28.90234375 64.8359375 C-29.23379395 65.41811035 -29.56524414 66.0002832 -29.90673828 66.60009766 C-39.28705564 83.36735766 -44.72858368 102.16385296 -48.90234375 120.8359375 C-48.01546875 121.114375 -47.12859375 121.3928125 -46.21484375 121.6796875 C-16.36106917 132.10034467 4.18297035 159.87665841 18.09765625 186.8359375 C18.58274658 187.77518066 18.58274658 187.77518066 19.07763672 188.73339844 C33.13495361 216.38737257 36.12674377 246.80437927 28.09765625 276.8359375 C27.9157373 277.53332031 27.73381836 278.23070312 27.54638672 278.94921875 C24.5707222 290.07538528 19.95625714 300.41948298 15.09765625 310.8359375 C-2.02160084 303.71588285 -15.07260749 275.33408211 -21.94580078 259.41992188 C-29.28542909 241.56774863 -33.10915483 223.89189182 -33.02734375 204.5859375 C-33.02541016 203.48580322 -33.02347656 202.38566895 -33.02148438 201.25219727 C-32.98149404 193.73790137 -32.73439165 186.30951064 -31.90234375 178.8359375 C-32.32644531 179.91230469 -32.75054688 180.98867187 -33.1875 182.09765625 C-38.96526668 196.5778821 -44.91831185 208.47744996 -55.90234375 219.8359375 C-57.07793772 221.20331269 -58.24551317 222.57765188 -59.40234375 223.9609375 C-76.44729594 243.37324416 -101.38671754 256.05384931 -125.33984375 264.7109375 C-126.21737305 265.03400879 -127.09490234 265.35708008 -127.99902344 265.68994141 C-128.83208008 265.98304199 -129.66513672 266.27614258 -130.5234375 266.578125 C-131.27036865 266.8447998 -132.0172998 267.11147461 -132.78686523 267.38623047 C-135.17567324 267.8940417 -136.60913519 267.60455641 -138.90234375 266.8359375 C-138.40605469 265.88976562 -137.90976562 264.94359375 -137.3984375 263.96875 C-127.46599167 244.75339158 -121.88697618 226.6306842 -119.09228516 205.16137695 C-116.28319597 184.2334827 -109.86959974 165.40711642 -97.90234375 147.8359375 C-105.88794854 156.39259337 -105.88794854 156.39259337 -113.65234375 165.1484375 C-114.73253323 166.38036789 -115.81579399 167.60961314 -116.90234375 168.8359375 C-117.4540625 169.46628906 -118.00578125 170.09664062 -118.57421875 170.74609375 C-133.89719188 187.21501573 -157.85217663 197.92164903 -178.90234375 204.8359375 C-179.54155762 205.0529834 -180.18077148 205.2700293 -180.83935547 205.49365234 C-196.08191103 210.66286684 -213.71709766 216.18463221 -229.90234375 215.8359375 C-224.88078848 198.39264026 -216.8809155 182.29206789 -205.90234375 167.8359375 C-205.31582031 167.02769531 -204.72929687 166.21945313 -204.125 165.38671875 C-194.17311158 152.21189928 -181.87708207 140.61345909 -167.90234375 131.8359375 C-167.33306152 131.47564453 -166.7637793 131.11535156 -166.17724609 130.74414062 C-157.4837824 125.32267412 -148.49670663 121.35092298 -138.90234375 117.8359375 C-137.68804688 117.37574219 -137.68804688 117.37574219 -136.44921875 116.90625 C-123.637151 112.30339603 -110.30476509 110.65617061 -96.77734375 110.7109375 C-95.33294922 110.70513672 -95.33294922 110.70513672 -93.859375 110.69921875 C-89.09463601 110.70577272 -84.58656437 110.84231494 -79.90234375 111.8359375 C-79.80953125 110.58554688 -79.71671875 109.33515625 -79.62109375 108.046875 C-78.97007096 102.25774529 -77.27273875 96.95948029 -75.40234375 91.4609375 C-75.047771 90.41309082 -74.69319824 89.36524414 -74.32788086 88.28564453 C-66.60699949 66.05963194 -29.84608842 -5.90362188 0 0 Z " fill="#FEFCFC" transform="translate(678.90234375,37.1640625)"/>
<path d="M0 0 C0 3.71529124 -1.04233005 4.83664601 -3.125 7.875 C-15.35841325 26.65761428 -18.68731766 47.06313423 -21.671875 68.84765625 C-24.17773604 86.51416963 -30.61746417 102.33896965 -39 118 C-39.33 118.66 -39.66 119.32 -40 120 C-7.42552338 114.02410681 26.59500717 92.97472302 47 67 C47.5465625 66.32582031 48.093125 65.65164062 48.65625 64.95703125 C56.46522231 54.64563827 61.62318546 42.10549339 66 30 C66.33 30 66.66 30 67 30 C66.9278125 30.79277344 66.855625 31.58554688 66.78125 32.40234375 C64.23751812 64.37564033 66.90859307 92.95179177 81.59838867 121.84814453 C82.4507428 123.54030895 83.2328585 125.26753878 84 127 C83.67 127.66 83.34 128.32 83 129 C82.67 128.67 82.34 128.34 82 128 C81.67 128.66 81.34 129.32 81 130 C80.01 130 79.02 130 78 130 C78 130.99 78 131.98 78 133 C78.66 133 79.32 133 80 133 C79.67 134.32 79.34 135.64 79 137 C66.88604286 116.09983284 57.50153373 94.57515281 57 70 C56.34 70 55.68 70 55 70 C54.77183594 70.54398437 54.54367187 71.08796875 54.30859375 71.6484375 C52.61972822 74.68335407 50.41439657 77.09932599 48.0625 79.625 C47.32833862 80.41559814 47.32833862 80.41559814 46.5793457 81.22216797 C25.56547935 103.57190381 -1.70153145 119.21045943 -31 128 C-32.82917969 128.55494141 -32.82917969 128.55494141 -34.6953125 129.12109375 C-51.82880154 134.17232756 -51.82880154 134.17232756 -60 134 C-58.63889132 130.91531348 -56.8285139 128.40024504 -54.77587891 125.73803711 C-49.90683119 119.34380165 -46.08792131 112.68652249 -42.625 105.4375 C-42.22087891 104.60033447 -41.81675781 103.76316895 -41.40039062 102.90063477 C-35.61389197 90.431019 -33.0224797 77.6525098 -30.875 64.1875 C-30.49740471 61.8601267 -30.11715229 59.53323427 -29.73342896 57.2068634 C-29.49788272 55.77496956 -29.26603007 54.34246061 -29.03878784 52.90922546 C-28.27102169 48.18942441 -27.20724422 43.6217537 -26 39 C-26.83917969 39.59425781 -27.67835938 40.18851563 -28.54296875 40.80078125 C-36.06460973 46.02290044 -43.76985101 50.67220044 -51.875 54.9375 C-52.7414917 55.39745361 -53.6079834 55.85740723 -54.50073242 56.33129883 C-59.86717914 59.10711789 -65.20697663 61.28208707 -71 63 C-71 62.01 -71 61.02 -71 60 C-71.90492188 59.90912109 -71.90492188 59.90912109 -72.828125 59.81640625 C-73.62734375 59.73261719 -74.4265625 59.64882812 -75.25 59.5625 C-76.03890625 59.48128906 -76.8278125 59.40007812 -77.640625 59.31640625 C-79.82364639 59.02365007 -81.8773182 58.57935581 -84 58 C-83.02804687 57.69449219 -82.05609375 57.38898438 -81.0546875 57.07421875 C-47.6875175 46.16840967 -22.0712888 27.03207371 0 0 Z " fill="#DF080A" transform="translate(581,184)"/>
<path d="M0 0 C2.81288705 0.14019692 5.62516885 0.28687955 8.4375 0.4375 C9.23994141 0.47681641 10.04238281 0.51613281 10.86914062 0.55664062 C16.88671875 0.88671875 16.88671875 0.88671875 18 2 C19.42566011 2.09817575 20.85612048 2.12798322 22.28515625 2.12939453 C23.19700684 2.13254669 24.10885742 2.13569885 25.04833984 2.13894653 C26.0430127 2.1369223 27.03768555 2.13489807 28.0625 2.1328125 C29.0829541 2.13376923 30.1034082 2.13472595 31.15478516 2.13571167 C33.32373109 2.13639412 35.49267905 2.13453536 37.66162109 2.13037109 C40.95805565 2.12506748 44.25435121 2.13029103 47.55078125 2.13671875 C49.65885446 2.13605712 51.76692759 2.13477421 53.875 2.1328125 C55.34271851 2.13584885 55.34271851 2.13584885 56.84008789 2.13894653 C61.96078743 2.12172124 66.94700803 1.89130132 72.02563477 1.22018433 C75.02983046 0.88515168 77.9802326 0.93574963 81 1 C81 1.33 81 1.66 81 2 C19.41515002 12.00399061 19.41515002 12.00399061 0 0 Z " fill="#FED5D5" transform="translate(267,608)"/>
<path d="M0 0 C0 3.71529124 -1.04233005 4.83664601 -3.125 7.875 C-7.14041829 13.98399687 -10.09159007 20.29893828 -13 27 C-13.33 27 -13.66 27 -14 27 C-14.33 25.35 -14.66 23.7 -15 22 C-18.70114955 23.84849161 -18.70114955 23.84849161 -21 27.125 C-21.33 27.74375 -21.66 28.3625 -22 29 C-24.625 29.75 -24.625 29.75 -27 30 C-23.96997286 26.37874805 -20.93217419 22.87118461 -17.5625 19.5625 C-13.82736111 15.88482479 -10.4163791 11.97200999 -7 8 C-5.68877212 6.49888785 -4.37630954 4.99885314 -3.0625 3.5 C-2.47597656 2.8296875 -1.88945313 2.159375 -1.28515625 1.46875 C-0.86105469 0.9840625 -0.43695312 0.499375 0 0 Z " fill="#D21414" transform="translate(581,184)"/>
<path d="M0 0 C0.33 0 0.66 0 1 0 C0.9278125 0.79277344 0.855625 1.58554688 0.78125 2.40234375 C-0.55126339 19.15129683 -0.86123329 36.28213667 1 53 C-2.3613192 47.9580212 -2.12298723 42.77901167 -2.09765625 36.8515625 C-2.0962413 36.19417084 -2.09482635 35.53677917 -2.09336853 34.85946655 C-2.08781762 32.78126269 -2.07527465 30.70317073 -2.0625 28.625 C-2.05747864 27.20703282 -2.05291685 25.78906393 -2.04882812 24.37109375 C-2.03786437 20.91402678 -2.02063421 17.45702433 -2 14 C-2.66 14 -3.32 14 -4 14 C-4.10957031 14.56589844 -4.21914063 15.13179687 -4.33203125 15.71484375 C-4.49058594 16.44832031 -4.64914062 17.18179688 -4.8125 17.9375 C-4.96332031 18.66839844 -5.11414063 19.39929688 -5.26953125 20.15234375 C-5.51058594 20.76207031 -5.75164063 21.37179688 -6 22 C-6.99 22.33 -7.98 22.66 -9 23 C-7.39306847 17.91949932 -5.42353736 13.03815871 -3.375 8.125 C-3.05015625 7.34125 -2.7253125 6.5575 -2.390625 5.75 C-1.59559238 3.83256838 -0.79805149 1.9161771 0 0 Z " fill="#CA1514" transform="translate(647,214)"/>
<path d="M0 0 C0.33 0 0.66 0 1 0 C1.27785719 7.84174744 0.7565641 15.33266179 -1 23 C-1.33 23.33 -1.66 23.66 -2 24 C-2.20931897 26.16296273 -2.36797069 28.3309471 -2.5 30.5 C-2.88888889 36.88888889 -2.88888889 36.88888889 -4 38 C-4.2165625 39.7325 -4.2165625 39.7325 -4.4375 41.5 C-4.623125 42.655 -4.80875 43.81 -5 45 C-5.99 45.495 -5.99 45.495 -7 46 C-5.34808735 30.56571163 -2.61365986 15.29364396 0 0 Z " fill="#FBCBCA" transform="translate(442,280)"/>
<path d="M0 0 C0.33 0 0.66 0 1 0 C1.58036349 3.00905852 2.05492644 5.92961186 2 9 C0.125 10.75 0.125 10.75 -2 12 C-2.38218767 13.65614657 -2.71395102 15.32457024 -3 17 C-4.4375 19.3125 -4.4375 19.3125 -6 21 C-6.66 21 -7.32 21 -8 21 C-5.72564796 13.81783567 -2.96415819 6.9241798 0 0 Z " fill="#DC1419" transform="translate(702,327)"/>
<path d="M0 0 C1.33332095 2.6666419 0.67102033 4.16680303 0 7 C-1.32 6.67 -2.64 6.34 -4 6 C-4.40798828 6.87591797 -4.40798828 6.87591797 -4.82421875 7.76953125 C-7.15765397 12.19608112 -10.02172596 16.35491064 -14.875 17.9375 C-15.57625 17.958125 -16.2775 17.97875 -17 18 C-16.30519531 17.31550781 -15.61039063 16.63101562 -14.89453125 15.92578125 C-11.73300237 12.76425237 -8.70978136 9.48152962 -5.6875 6.1875 C-4.86282227 5.2912793 -4.86282227 5.2912793 -4.02148438 4.37695312 C-2.68003022 2.91885078 -1.33987935 1.4595496 0 0 Z " fill="#D41719" transform="translate(628,251)"/>
<path d="M0 0 C0 5.61 0 11.22 0 17 C-0.66 17 -1.32 17 -2 17 C-2 13.04 -2 9.08 -2 5 C-2.99 7.64 -3.98 10.28 -5 13 C-5.91597879 9.33608482 -6.09793752 8.23636894 -5.25 4.8125 C-5.09015625 4.11769531 -4.9303125 3.42289063 -4.765625 2.70703125 C-4.51296875 2.14371094 -4.2603125 1.58039063 -4 1 C-1 0 -1 0 0 0 Z " fill="#F7D1D0" transform="translate(649,211)"/>
<path d="M0 0 C0.66 0.33 1.32 0.66 2 1 C2 2.65 2 4.3 2 6 C-8.23 6 -18.46 6 -29 6 C-29 5.34 -29 4.68 -29 4 C-19.43 4 -9.86 4 0 4 C0 2.68 0 1.36 0 0 Z " fill="#C51816" transform="translate(597,143)"/>
<path d="M0 0 C0 0.66 0 1.32 0 2 C-0.99 2 -1.98 2 -3 2 C-3.33 2.99 -3.66 3.98 -4 5 C-8.53492633 7.26746317 -13.10972685 8.70258059 -18 10 C-18.66 9.34 -19.32 8.68 -20 8 C-17.04435292 6.66065284 -14.0850622 5.32955753 -11.125 4 C-10.28324219 3.6184375 -9.44148438 3.236875 -8.57421875 2.84375 C-7.76855469 2.4828125 -6.96289062 2.121875 -6.1328125 1.75 C-5.38918457 1.41484375 -4.64555664 1.0796875 -3.87939453 0.734375 C-2 0 -2 0 0 0 Z " fill="#D51E1F" transform="translate(454,575)"/>
<path d="M0 0 C0.33 0.66 0.66 1.32 1 2 C-1.40983607 6.70491803 -1.40983607 6.70491803 -4 8 C-4.33 8.99 -4.66 9.98 -5 11 C-5.99 11 -6.98 11 -8 11 C-8.226875 11.556875 -8.45375 12.11375 -8.6875 12.6875 C-10.35896766 15.63246684 -12.55276352 17.68156544 -15 20 C-15.66 19.67 -16.32 19.34 -17 19 C-16.59910156 18.62230469 -16.19820312 18.24460937 -15.78515625 17.85546875 C-11.06933577 13.28935686 -6.93099577 8.37178117 -2.8203125 3.2578125 C-1 1 -1 1 0 0 Z " fill="#CF2324" transform="translate(646,420)"/>
<path d="M0 0 C1 2 1 2 0.1875 4.875 C-1.83573962 10.19931479 -3.93710953 12.93710953 -8 17 C-9.05287814 18.63377642 -10.0727001 20.29181597 -11 22 C-11.66 21.67 -12.32 21.34 -13 21 C-8.71 14.07 -4.42 7.14 0 0 Z " fill="#D01D1E" transform="translate(682,368)"/>
<path d="M0 0 C0.66 0 1.32 0 2 0 C2.33 3.63 2.66 7.26 3 11 C1.25372522 8.38058783 0.61277612 6.96175123 0 4 C-1.15147661 5.26572233 -2.29599314 6.53777906 -3.4375 7.8125 C-4.07558594 8.52019531 -4.71367188 9.22789062 -5.37109375 9.95703125 C-7.19086012 11.99896152 -7.19086012 11.99896152 -8 15 C-9.32 14.67 -10.64 14.34 -12 14 C-11.21753906 13.15695312 -10.43507813 12.31390625 -9.62890625 11.4453125 C-8.60665175 10.33865166 -7.58452284 9.23187479 -6.5625 8.125 C-6.04623047 7.56941406 -5.52996094 7.01382812 -4.99804688 6.44140625 C-2.17895264 3.45250685 -2.17895264 3.45250685 0 0 Z " fill="#FED5D4" transform="translate(636,254)"/>
<path d="M0 0 C-3.15287487 1.73745124 -6.19295245 2.65948137 -9.6875 3.5 C-10.73808594 3.75394531 -11.78867187 4.00789062 -12.87109375 4.26953125 C-16.90767996 5.21190531 -20.94885554 6.12225203 -25 7 C-24.67 6.34 -24.34 5.68 -24 5 C-22.68 5 -21.36 5 -20 5 C-20 4.34 -20 3.68 -20 3 C-13.37918509 0.93099534 -6.98706888 -0.2183459 0 0 Z " fill="#D01D1C" transform="translate(559,150)"/>
<path d="M0 0 C0.33 0.99 0.66 1.98 1 3 C-4.625 7 -4.625 7 -8 7 C-8 7.66 -8 8.32 -8 9 C-8.99 9.495 -8.99 9.495 -10 10 C-10.99 11.485 -10.99 11.485 -12 13 C-12 12.34 -12 11.68 -12 11 C-12.66 10.67 -13.32 10.34 -14 10 C-4.58997722 2.51708428 -4.58997722 2.51708428 0 0 Z " fill="#D01B17" transform="translate(683,66)"/>
<path d="M0 0 C0.33 0.66 0.66 1.32 1 2 C-0.07335699 4.76674582 -1.20260061 7.43194258 -2.4375 10.125 C-2.77587891 10.87910156 -3.11425781 11.63320313 -3.46289062 12.41015625 C-4.30160601 14.27659331 -5.14991393 16.1387143 -6 18 C-7.0625 16.1875 -7.0625 16.1875 -8 14 C-7.67 13.01 -7.34 12.02 -7 11 C-6.34 10.67 -5.68 10.34 -5 10 C-4.690625 8.88625 -4.38125 7.7725 -4.0625 6.625 C-3.08795066 3.30006694 -2.6501887 2.04787309 0 0 Z " fill="#D40D0D" transform="translate(416,382)"/>
<path d="M0 0 C0 3.59857954 -0.95830515 5.09451118 -3 8 C-3.66 8 -4.32 8 -5 8 C-5.226875 8.639375 -5.45375 9.27875 -5.6875 9.9375 C-7 12 -7 12 -9.625 12.75 C-10.40875 12.8325 -11.1925 12.915 -12 13 C-8.19524578 8.43969176 -4.25030379 4.14910608 0 0 Z " fill="#D71E1E" transform="translate(628,441)"/>
<path d="M0 0 C0.33 0.99 0.66 1.98 1 3 C1.88042969 2.855625 2.76085937 2.71125 3.66796875 2.5625 C4.82941406 2.376875 5.99085938 2.19125 7.1875 2 C8.33605469 1.814375 9.48460937 1.62875 10.66796875 1.4375 C13.50415393 1.06510523 16.14719564 0.91403979 19 1 C15.6338436 2.89294858 12.31729781 3.76552027 8.5625 4.625 C7.45003906 4.88539063 6.33757813 5.14578125 5.19140625 5.4140625 C2.3616884 5.93359454 -0.13549955 6.11779254 -3 6 C-2 4 -1 2 0 0 Z " fill="#CC2626" transform="translate(524,312)"/>
<path d="M0 0 C0.66 0.33 1.32 0.66 2 1 C-0.97 6.61 -3.94 12.22 -7 18 C-7.33 18 -7.66 18 -8 18 C-8.08886184 14.80097361 -7.91058531 12.07322544 -7 9 C-6.01 9 -5.02 9 -4 9 C-4 7.68 -4 6.36 -4 5 C-3.34 5 -2.68 5 -2 5 C-2 4.01 -2 3.02 -2 2 C-1.34 2 -0.68 2 0 2 C0 1.34 0 0.68 0 0 Z " fill="#CD1A19" transform="translate(619,91)"/>
<path d="M0 0 C0.33 0 0.66 0 1 0 C1.09510042 4.85012159 0.95241562 9.23792191 0 14 C-0.08664364 17.00194738 -0.05886908 19.99767699 0 23 C-0.99 23.33 -1.98 23.66 -3 24 C-2.45423097 15.89963866 -1.45852964 7.98651182 0 0 Z " fill="#CD2323" transform="translate(552,238)"/>
<path d="M0 0 C1.01320313 0.00451172 2.02640625 0.00902344 3.0703125 0.01367188 C5.54693827 0.02535407 8.02343657 0.04173418 10.5 0.0625 C10.5 0.3925 10.5 0.7225 10.5 1.0625 C9.33082031 1.12308594 8.16164063 1.18367187 6.95703125 1.24609375 C5.40884386 1.33054034 3.86066732 1.41518625 2.3125 1.5 C1.54357422 1.53931641 0.77464844 1.57863281 -0.01757812 1.61914062 C-3.17393075 1.79524614 -6.1779514 1.99736658 -9.28125 2.625 C-12.83018555 3.32479011 -15.94354111 2.60501068 -19.5 2.0625 C-19.5 1.7325 -19.5 1.4025 -19.5 1.0625 C-12.96313616 0.07418844 -6.60422885 -0.05633529 0 0 Z " fill="#F6B2B0" transform="translate(582.5,147.9375)"/>
<path d="M0 0 C1.04449911 3.13349732 0.93423645 3.98968256 0 7 C-1.32 7.33 -2.64 7.66 -4 8 C-4.0825 8.7425 -4.165 9.485 -4.25 10.25 C-5.1396946 13.51221354 -6.48503749 14.80954878 -9 17 C-7.68925635 12.53817564 -5.92933989 9.00381243 -3.375 5.125 C-2.74335937 4.15820312 -2.11171875 3.19140625 -1.4609375 2.1953125 C-0.73777344 1.10863281 -0.73777344 1.10863281 0 0 Z " fill="#FEDCDC" transform="translate(580,187)"/>
<path d="M0 0 C0.93979382 3.03856659 0.99875808 5.20695472 0.44140625 8.328125 C0.30283203 9.12734375 0.16425781 9.9265625 0.02148438 10.75 C-0.12998047 11.575 -0.28144531 12.4 -0.4375 13.25 C-0.58509766 14.09046875 -0.73269531 14.9309375 -0.88476562 15.796875 C-1.2491936 17.86588544 -1.62362541 19.93312939 -2 22 C-2.33 22 -2.66 22 -3 22 C-3.02685938 19.85423363 -3.04633088 17.70837355 -3.0625 15.5625 C-3.07410156 14.36753906 -3.08570313 13.17257812 -3.09765625 11.94140625 C-3 9 -3 9 -2 8 C-1.835 6.845 -1.67 5.69 -1.5 4.5 C-1 1 -1 1 0 0 Z " fill="#CC1A1C" transform="translate(440,288)"/>
<path d="M0 0 C0.66 0.33 1.32 0.66 2 1 C0.75 3 0.75 3 -1 5 C-2.32 5 -3.64 5 -5 5 C-5.66 6.98 -6.32 8.96 -7 11 C-8.32 9.68 -9.64 8.36 -11 7 C-9.21475351 5.80286983 -7.4215972 4.61752721 -5.625 3.4375 C-4.62726562 2.77621094 -3.62953125 2.11492187 -2.6015625 1.43359375 C-1.74304688 0.96050781 -0.88453125 0.48742187 0 0 Z " fill="#FEE2DC" transform="translate(549,226)"/>
<path d="M0 0 C0 3.88291746 -1.37860494 5.46752535 -3.5 8.6875 C-4.1496875 9.68136719 -4.799375 10.67523438 -5.46875 11.69921875 C-5.9740625 12.45847656 -6.479375 13.21773437 -7 14 C-7.99 13.67 -8.98 13.34 -10 13 C-7.37288552 8.05484333 -3.73354706 4.12224511 0 0 Z " fill="#C13137" transform="translate(581,184)"/>
<path d="M0 0 C2.68826864 0.11490912 5.37513469 0.24163199 8.0625 0.375 C8.81466797 0.4059375 9.56683594 0.436875 10.34179688 0.46875 C15.18961281 0.72058459 19.38308043 1.49168365 24 3 C24 3.33 24 3.66 24 4 C18.26861756 4.15490223 13.10650794 3.65244885 7.5 2.5 C6.77296875 2.35691406 6.0459375 2.21382812 5.296875 2.06640625 C3.52990929 1.71766302 1.76474691 1.35980277 0 1 C0 0.67 0 0.34 0 0 Z " fill="#FBCACC" transform="translate(267,608)"/>
<path d="M0 0 C-2.86973884 1.61635488 -5.04464203 2.2733418 -8.328125 2.4140625 C-9.12734375 2.45273437 -9.9265625 2.49140625 -10.75 2.53125 C-11.9875 2.57765625 -11.9875 2.57765625 -13.25 2.625 C-14.51070313 2.68300781 -14.51070313 2.68300781 -15.796875 2.7421875 C-17.86423382 2.83615836 -19.93208627 2.91915564 -22 3 C-22 2.67 -22 2.34 -22 2 C-19.08483516 1.46915208 -16.16839443 0.95000945 -13.25 0.4375 C-12.425 0.28603516 -11.6 0.13457031 -10.75 -0.02148438 C-9.95078125 -0.16005859 -9.1515625 -0.29863281 -8.328125 -0.44140625 C-7.5949707 -0.57232666 -6.86181641 -0.70324707 -6.10644531 -0.83813477 C-3.83766713 -1.01247412 -2.16221421 -0.66874807 0 0 Z " fill="#FBBFC1" transform="translate(480,258)"/>
<path d="M0 0 C0.66 0.33 1.32 0.66 2 1 C-1.53737969 5.84752032 -4.9974723 8.8884208 -11 10 C-7.50640535 6.40365256 -3.88901869 3.16548033 0 0 Z " fill="#FEDDDA" transform="translate(666,42)"/>
<path d="M0 0 C0 0.66 0 1.32 0 2 C-1.91595482 2.33740085 -3.83279722 2.66976412 -5.75 3 C-7.35101563 3.2784375 -7.35101563 3.2784375 -8.984375 3.5625 C-12 4 -12 4 -16 4 C-16 3.34 -16 2.68 -16 2 C-14.08404518 1.66259915 -12.16720278 1.33023588 -10.25 1 C-9.18265625 0.814375 -8.1153125 0.62875 -7.015625 0.4375 C-4 0 -4 0 0 0 Z " fill="#D51719" transform="translate(464,251)"/>
<path d="M0 0 C0.66 0.99 1.32 1.98 2 3 C1.15955106 6.43183318 0.51471866 8.48528134 -2 11 C-2.96891192 5.62694301 -2.96891192 5.62694301 -3 3 C-1.5625 1 -1.5625 1 0 0 Z " fill="#D62424" transform="translate(571,195)"/>
<path d="M0 0 C0 3 0 3 -1.4375 4.5 C-1.953125 4.995 -2.46875 5.49 -3 6 C-3.33 6.99 -3.66 7.98 -4 9 C-5.62332967 10.38576923 -7.28724465 11.72641268 -9 13 C-9.66 12.67 -10.32 12.34 -11 12 C-7.37 8.04 -3.74 4.08 0 0 Z " fill="#FEDDDC" transform="translate(643,63)"/>
<path d="M0 0 C0.66 0.33 1.32 0.66 2 1 C0.35 2.98 -1.3 4.96 -3 7 C-4.65 6.67 -6.3 6.34 -8 6 C-5.63404067 3.38499232 -3.13950774 1.61000397 0 0 Z " fill="#D11715" transform="translate(486,557)"/>
<path d="M0 0 C0.66 0.33 1.32 0.66 2 1 C-3.0940919 7.70459519 -3.0940919 7.70459519 -6.875 8.9375 C-7.57625 8.958125 -8.2775 8.97875 -9 9 C-6 6 -3 3 0 0 Z " fill="#FED9DC" transform="translate(340,487)"/>
<path d="M0 0 C0.66 0 1.32 0 2 0 C0.41078475 5.36095277 -1.18972938 10.70843973 -3 16 C-4.29302919 12.37089807 -3.68677944 9.96054037 -2.625 6.3125 C-2.34914063 5.33925781 -2.07328125 4.36601562 -1.7890625 3.36328125 C-1 1 -1 1 0 0 Z " fill="#CF1210" transform="translate(453,236)"/>
<path d="M0 0 C0.66 0.33 1.32 0.66 2 1 C1.21625 1.598125 0.4325 2.19625 -0.375 2.8125 C-3.14574323 4.91085249 -3.14574323 4.91085249 -5 8 C-8.125 8.6875 -8.125 8.6875 -11 9 C-7.67149253 5.40521193 -4.01028669 2.77635232 0 0 Z " fill="#D21D1B" transform="translate(522,534)"/>
<path d="M0 0 C0.33 0.99 0.66 1.98 1 3 C0.01 3.33 -0.98 3.66 -2 4 C-3.20882096 6.00016466 -3.20882096 6.00016466 -4 8 C-5.32 7.67 -6.64 7.34 -8 7 C-5.36 4.69 -2.72 2.38 0 0 Z " fill="#D81319" transform="translate(582,487)"/>
<path d="M0 0 C0.33 0 0.66 0 1 0 C1.3690205 10.55808656 1.3690205 10.55808656 -1 15 C-1.66 15 -2.32 15 -3 15 C-2.01 10.05 -1.02 5.1 0 0 Z " fill="#CD181A" transform="translate(710,297)"/>
<path d="M0 0 C1.63800475 4.5500132 0.83757562 9.07850298 -1.0625 13.4375 C-1.5265625 14.2109375 -1.5265625 14.2109375 -2 15 C-2.66 15 -3.32 15 -4 15 C-3.52229477 13.06213915 -3.04278429 11.12472326 -2.5625 9.1875 C-2.29566406 8.10855469 -2.02882813 7.02960938 -1.75390625 5.91796875 C-1.23922588 3.9259157 -0.65062825 1.95188476 0 0 Z " fill="#D12525" transform="translate(637,129)"/>
<path d="M0 0 C0.33 0 0.66 0 1 0 C0.22095672 10.55808656 0.22095672 10.55808656 -2 15 C-2.33 15 -2.66 15 -3 15 C-3.36263859 9.1977825 -2.25684543 5.36000789 0 0 Z " fill="#D11A19" transform="translate(556,260)"/>
<path d="M0 0 C0.33 1.32 0.66 2.64 1 4 C-0.21484375 5.921875 -0.21484375 5.921875 -1.9375 7.75 C-2.50339844 8.36359375 -3.06929687 8.9771875 -3.65234375 9.609375 C-4.31943359 10.29773438 -4.31943359 10.29773438 -5 11 C-5.66 10.67 -6.32 10.34 -7 10 C-3.535 5.05 -3.535 5.05 0 0 Z " fill="#CF2123" transform="translate(661,400)"/>
<path d="M0 0 C0 0.99 0 1.98 0 3 C-2.5 5.1875 -2.5 5.1875 -5 7 C-5.66 6.67 -6.32 6.34 -7 6 C-7 6.66 -7 7.32 -7 8 C-8.32 7.67 -9.64 7.34 -11 7 C-7.37 4.69 -3.74 2.38 0 0 Z " fill="#D01A23" transform="translate(545,219)"/>
<path d="M0 0 C0 2.33333333 0 4.66666667 0 7 C-2.31 7.66 -4.62 8.32 -7 9 C-6.02180976 7.68677212 -5.0424189 6.37443848 -4.0625 5.0625 C-3.51722656 4.33160156 -2.97195313 3.60070312 -2.41015625 2.84765625 C-1 1 -1 1 0 0 Z " fill="#D41D20" transform="translate(664,81)"/>
<path d="M0 0 C0.66 0.33 1.32 0.66 2 1 C0.75 3 0.75 3 -1 5 C-2.32 5 -3.64 5 -5 5 C-5 5.66 -5 6.32 -5 7 C-6.32 6.67 -7.64 6.34 -9 6 C-6.03 4.02 -3.06 2.04 0 0 Z " fill="#D01E20" transform="translate(504,546)"/>
<path d="M0 0 C6.52307692 -0.36923077 6.52307692 -0.36923077 8.9375 1.5 C9.288125 1.995 9.63875 2.49 10 3 C9.67 3.99 9.34 4.98 9 6 C2.25 2.25 2.25 2.25 0 0 Z " fill="#D3201C" transform="translate(175,506)"/>
<path d="M0 0 C0.33 0.66 0.66 1.32 1 2 C-0.1875 5.0625 -0.1875 5.0625 -2 8 C-4.1875 8.875 -4.1875 8.875 -6 9 C-4.47291037 5.56404834 -2.40072955 2.88087546 0 0 Z " fill="#D3201C" transform="translate(653,411)"/>
<path d="M0 0 C-1.65 0.33 -3.3 0.66 -5 1 C-5 1.66 -5 2.32 -5 3 C-7.64 2.67 -10.28 2.34 -13 2 C-12.67 1.34 -12.34 0.68 -12 0 C-3.89667897 -1.46125461 -3.89667897 -1.46125461 0 0 Z " fill="#F8D7D2" transform="translate(533,317)"/>
<path d="M0 0 C0.75 1.625 0.75 1.625 1 4 C-0.9375 7.25 -0.9375 7.25 -3 10 C-3.66 9.67 -4.32 9.34 -5 9 C-3.7508258 5.54074837 -2.32472205 2.85306797 0 0 Z " fill="#D51014" transform="translate(529,306)"/>
<path d="M0 0 C0.33 0 0.66 0 1 0 C0.67 4.95 0.34 9.9 0 15 C-0.33 15 -0.66 15 -1 15 C-1.22304441 13.25181409 -1.4278645 11.50129677 -1.625 9.75 C-1.74101563 8.77546875 -1.85703125 7.8009375 -1.9765625 6.796875 C-2.00112537 3.86570607 -1.5312717 2.45471036 0 0 Z " fill="#C3292F" transform="translate(647,214)"/>
<path d="M0 0 C0.33 0 0.66 0 1 0 C1.43200679 4.75207471 -0.01510917 7.78210698 -2 12 C-2.66 12 -3.32 12 -4 12 C-3.52309796 10.37433394 -3.04340334 8.74948689 -2.5625 7.125 C-2.29566406 6.22007813 -2.02882813 5.31515625 -1.75390625 4.3828125 C-1 2 -1 2 0 0 Z " fill="#D61D1F" transform="translate(642,116)"/>
<path d="M0 0 C3.3 0 6.6 0 10 0 C10 0.33 10 0.66 10 1 C8.9275 1.28875 7.855 1.5775 6.75 1.875 C3.90599636 2.72820109 1.56491017 3.5636503 -1 5 C-0.67 3.35 -0.34 1.7 0 0 Z " fill="#CC120E" transform="translate(669,36)"/>
<path d="M0 0 C0.33 1.32 0.66 2.64 1 4 C-0.96466413 5.06775224 -2.96855359 6.06553465 -5 7 C-5.66 6.67 -6.32 6.34 -7 6 C-4.69 4.02 -2.38 2.04 0 0 Z " fill="#D91B1C" transform="translate(558,507)"/>
<path d="M0 0 C0.99 0.33 1.98 0.66 3 1 C-0.96 4.465 -0.96 4.465 -5 8 C-5.33 7.01 -5.66 6.02 -6 5 C-1.60546875 0.99609375 -1.60546875 0.99609375 0 0 Z " fill="#FED8DC" transform="translate(579,487)"/>
<path d="M0 0 C2 1 2 1 4 3 C4.36933645 5.75372909 4.18336678 8.20365661 4 11 C1.6870518 8.6870518 1.50419025 7.52095125 0.875 4.375 C0.70742188 3.55773437 0.53984375 2.74046875 0.3671875 1.8984375 C0.24601563 1.27195312 0.12484375 0.64546875 0 0 Z " fill="#D01618" transform="translate(643,282)"/>
<path d="M0 0 C-1 1 -1 1 -4.875 1.375 C-7.66720951 1.68024154 -8.74292999 1.79916406 -11 3.5625 C-11.33 4.036875 -11.66 4.51125 -12 5 C-11.67 3.35 -11.34 1.7 -11 0 C-3.57142857 -1.28571429 -3.57142857 -1.28571429 0 0 Z " fill="#FEE1E0" transform="translate(458,262)"/>
<path d="M0 0 C1.33332095 2.6666419 0.67102033 4.16680303 0 7 C-1.98 7 -3.96 7 -6 7 C-4.02 4.69 -2.04 2.38 0 0 Z " fill="#D92322" transform="translate(628,251)"/>
<path d="M0 0 C0.99 0.33 1.98 0.66 3 1 C3 1.99 3 2.98 3 4 C3.66 4 4.32 4 5 4 C6.0625 5.8125 6.0625 5.8125 7 8 C6.67 8.99 6.34 9.98 6 11 C4.9944239 9.54550599 3.99569565 8.08627557 3 6.625 C2.443125 5.81289062 1.88625 5.00078125 1.3125 4.1640625 C0 2 0 2 0 0 Z " fill="#CF1A19" transform="translate(686,205)"/>
<path d="M0 0 C0.99 0 1.98 0 3 0 C3 0.66 3 1.32 3 2 C4.32 2 5.64 2 7 2 C7 3.65 7 5.3 7 7 C5.83040013 6.02433888 4.66438823 5.044375 3.5 4.0625 C2.8503125 3.51722656 2.200625 2.97195313 1.53125 2.41015625 C1.0259375 1.94480469 0.520625 1.47945313 0 1 C0 0.67 0 0.34 0 0 Z " fill="#FDDFE0" transform="translate(680,334)"/>
<path d="M0 0 C0.33 0 0.66 0 1 0 C1 1.98 1 3.96 1 6 C0.34 6 -0.32 6 -1 6 C-1.33 7.65 -1.66 9.3 -2 11 C-2.66 11 -3.32 11 -4 11 C-2.7874262 7.27566618 -1.49140021 3.62197194 0 0 Z " fill="#D22629" transform="translate(702,327)"/>
<path d="M0 0 C0.33 0.99 0.66 1.98 1 3 C-0.98 4.98 -2.96 6.96 -5 9 C-5.66 8.67 -6.32 8.34 -7 8 C-4.69 5.36 -2.38 2.72 0 0 Z " fill="#FEDEDC" transform="translate(482,194)"/>
<path d="M0 0 C1.65 0 3.3 0 5 0 C5 1.65 5 3.3 5 5 C2.525 4.01 2.525 4.01 0 3 C0 2.01 0 1.02 0 0 Z " fill="#DE121D" transform="translate(195,516)"/>
<path d="M0 0 C0.66 0 1.32 0 2 0 C1.49396008 2.16874252 1.00016187 3.99967627 0 6 C-2.5625 6.625 -2.5625 6.625 -5 7 C-4.21654285 5.82780457 -3.42297164 4.66236332 -2.625 3.5 C-2.18414062 2.8503125 -1.74328125 2.200625 -1.2890625 1.53125 C-0.65097656 0.77328125 -0.65097656 0.77328125 0 0 Z " fill="#FDEAEB" transform="translate(360,468)"/>
<path d="M0 0 C0.33 0.99 0.66 1.98 1 3 C-0.8125 5.6875 -0.8125 5.6875 -3 8 C-3.66 8 -4.32 8 -5 8 C-3.62845496 5.04590299 -2.01136276 2.55991624 0 0 Z " fill="#FEDFDD" transform="translate(388,435)"/>
<path d="M0 0 C-3.20380017 2.13586678 -4.01939967 2.23132175 -7.6875 2.125 C-8.89986328 2.09792969 -8.89986328 2.09792969 -10.13671875 2.0703125 C-11.05904297 2.03550781 -11.05904297 2.03550781 -12 2 C-7.66032699 -0.21504143 -4.80574417 -1.54470348 0 0 Z " fill="#FBCCC9" transform="translate(492,255)"/>
<path d="M0 0 C1.3921875 0.2784375 1.3921875 0.2784375 2.8125 0.5625 C6.01343771 1.24123881 6.01343771 1.24123881 9 0 C9 0.66 9 1.32 9 2 C8.360625 2.12375 7.72125 2.2475 7.0625 2.375 C6.381875 2.58125 5.70125 2.7875 5 3 C4.67 3.66 4.34 4.32 4 5 C2.68 3.35 1.36 1.7 0 0 Z " fill="#F9D6D4" transform="translate(189,568)"/>
<path d="M0 0 C0.66 0.33 1.32 0.66 2 1 C0.515 4.465 0.515 4.465 -1 8 C-2.0625 6.1875 -2.0625 6.1875 -3 4 C-2.67 3.01 -2.34 2.02 -2 1 C-1.34 0.67 -0.68 0.34 0 0 Z " fill="#D61A1D" transform="translate(411,392)"/>
<path d="M0 0 C0.33 0 0.66 0 1 0 C1.25 3.25 1.25 3.25 1 7 C-0.32 8.32 -1.64 9.64 -3 11 C-2.01 7.37 -1.02 3.74 0 0 Z " fill="#FCCCCE" transform="translate(428,352)"/>
<path d="M0 0 C0.66 0.99 1.32 1.98 2 3 C1.67 3.33 1.34 3.66 1 4 C0.855625 5.155 0.71125 6.31 0.5625 7.5 C0.376875 8.655 0.19125 9.81 0 11 C-0.99 11.495 -0.99 11.495 -2 12 C-1.85904936 10.3745692 -1.71207913 8.74965949 -1.5625 7.125 C-1.48128906 6.22007812 -1.40007812 5.31515625 -1.31640625 4.3828125 C-1 2 -1 2 0 0 Z " fill="#FCD2D5" transform="translate(437,314)"/>
<path d="M0 0 C2.64 0 5.28 0 8 0 C4.99382731 3.00617269 2.17618402 2.59585316 -2 3 C-1.34 2.67 -0.68 2.34 0 2 C0 1.34 0 0.68 0 0 Z " fill="#CC1512" transform="translate(548,309)"/>
<path d="M0 0 C0 0.99 0 1.98 0 3 C-3 5.1875 -3 5.1875 -6 7 C-6.33 6.01 -6.66 5.02 -7 4 C-2.25 1.125 -2.25 1.125 0 0 Z " fill="#EED5D6" transform="translate(583,181)"/>
<path d="M0 0 C1 2 1 2 0.44140625 3.9453125 C0.15136719 4.66460937 -0.13867188 5.38390625 -0.4375 6.125 C-0.72496094 6.84945312 -1.01242187 7.57390625 -1.30859375 8.3203125 C-1.53675781 8.87460938 -1.76492188 9.42890625 -2 10 C-2.33 10 -2.66 10 -3 10 C-3.36923077 3.47692308 -3.36923077 3.47692308 -1.5 1.0625 C-1.005 0.711875 -0.51 0.36125 0 0 Z " fill="#CC1510" transform="translate(608,114)"/>
<path d="M0 0 C0.99 0 1.98 0 3 0 C2.46930939 3.82097239 1.50298434 6.06171403 -1 9 C-1.08886184 5.80097361 -0.91058531 3.07322544 0 0 Z " fill="#D6131C" transform="translate(612,100)"/>
<path d="M0 0 C0 2 0 4 0 6 C-1.32 6.33 -2.64 6.66 -4 7 C-3.43628586 3.73045798 -2.50037734 2.17424117 0 0 Z M-5 7 C-4.67 7.66 -4.34 8.32 -4 9 C-4.66 8.67 -5.32 8.34 -6 8 C-5.67 7.67 -5.34 7.34 -5 7 Z " fill="#FDEEEE" transform="translate(648,58)"/>
<path d="M0 0 C1.32 0.33 2.64 0.66 4 1 C1.69 2.65 -0.62 4.3 -3 6 C-3 4.68 -3 3.36 -3 2 C-2.01 2 -1.02 2 0 2 C0 1.34 0 0.68 0 0 Z " fill="#D61B1B" transform="translate(656,47)"/>
<path d="M0 0 C1.093125 0.226875 2.18625 0.45375 3.3125 0.6875 C1.3125 2.6875 1.3125 2.6875 -0.6328125 2.8828125 C-2.65104167 2.81770833 -4.66927083 2.75260417 -6.6875 2.6875 C-4.58035839 -0.41123767 -3.86755884 -0.32775922 0 0 Z " fill="#FFD7D3" transform="translate(677.6875,37.3125)"/>
<path d="M0 0 C0.66 0.99 1.32 1.98 2 3 C0.02 4.32 -1.96 5.64 -4 7 C-4.66 6.67 -5.32 6.34 -6 6 C-4.02 4.02 -2.04 2.04 0 0 Z " fill="#D71B22" transform="translate(589,480)"/>
<path d="M0 0 C0.66 0.33 1.32 0.66 2 1 C2 1.99 2 2.98 2 4 C-0.31 4.66 -2.62 5.32 -5 6 C-3.35 4.02 -1.7 2.04 0 0 Z " fill="#D30D11" transform="translate(614,456)"/>
<path d="M0 0 C0.98120464 3.05263664 0.98120464 4.94736336 0 8 C-0.99 8 -1.98 8 -3 8 C-1.125 2.25 -1.125 2.25 0 0 Z " fill="#FCD5D2" transform="translate(415,387)"/>
<path d="M0 0 C0.33 0.99 0.66 1.98 1 3 C2.98 2.67 4.96 2.34 7 2 C3.81237635 4.12508244 1.73487777 4.5020163 -2 5 C-1.34 3.35 -0.68 1.7 0 0 Z " fill="#FDC1B9" transform="translate(542,300)"/>
<path d="M0 0 C3 3.75 3 3.75 3 6 C1.68 6 0.36 6 -1 6 C-1.042721 4.33388095 -1.04063832 2.66617115 -1 1 C-0.67 0.67 -0.34 0.34 0 0 Z " fill="#E80200" transform="translate(613,270)"/>
<path d="M0 0 C0.99 0 1.98 0 3 0 C1.25 5.75 1.25 5.75 -1 8 C-0.67 5.36 -0.34 2.72 0 0 Z " fill="#D61E20" transform="translate(458,224)"/>
<path d="M0 0 C0 0.99 0 1.98 0 3 C-2.5 4.6875 -2.5 4.6875 -5 6 C-4.75 4.125 -4.75 4.125 -4 2 C-1.9375 0.75 -1.9375 0.75 0 0 Z " fill="#D50C0A" transform="translate(567,202)"/>
<path d="M0 0 C0.33 0.99 0.66 1.98 1 3 C-0.98 4.32 -2.96 5.64 -5 7 C-5.66 6.67 -6.32 6.34 -7 6 C-4.69 4.02 -2.38 2.04 0 0 Z " fill="#DA1114" transform="translate(683,66)"/>
</svg>
