<?xml version="1.0" encoding="UTF-8" standalone="no"?>
<svg
   version="1.1"
   width="595.27557pt"
   height="841.88977pt"
   id="svg42"
   viewBox="0 0 595.27557 841.88977"
   sodipodi:docname="chinawok-353.cdr"
   xmlns:inkscape="http://www.inkscape.org/namespaces/inkscape"
   xmlns:sodipodi="http://sodipodi.sourceforge.net/DTD/sodipodi-0.dtd"
   xmlns="http://www.w3.org/2000/svg"
   xmlns:svg="http://www.w3.org/2000/svg">
  <defs
     id="defs42" />
  <sodipodi:namedview
     id="namedview42"
     pagecolor="#ffffff"
     bordercolor="#000000"
     borderopacity="0.25"
     inkscape:showpageshadow="2"
     inkscape:pageopacity="0.0"
     inkscape:pagecheckerboard="0"
     inkscape:deskcolor="#d1d1d1"
     inkscape:document-units="pt" />
  <g
     id="Layer1000">
    <path
       d="m 349.8948,419.1574 c 0,0 -11.9032,0 -11.9032,0 0,0 0,42.0773 0,42.0773 0,0 11.9032,0 11.9032,0 0,0 0,-21.6557 0,-21.6557 0,0 0.1587,-0.1655 0.1587,-0.1655 0,0 11.973,21.8212 11.973,21.8212 0,0 13.8878,0 13.8878,0 0,0 -14.6006,-22.8391 -14.6006,-22.8391 0,0 13.7225,-17.4568 13.7225,-17.4568 0,0 -13.2514,0 -13.2514,0 0,0 -11.7313,16.738 -11.7313,16.738 0,0 -0.1587,-0.1592 -0.1587,-0.1592 z"
       style="fill:#000000;fill-rule:evenodd"
       id="path1" />
    <path
       d="m 375.9276,363.9234 c -1.1264,0.9927 -2.2842,1.7944 -3.9132,1.5778 -1.2463,-0.1652 -2.0354,-0.6233 -2.8118,-1.6159 -4.4722,-3.677 -8.2637,-10.7195 -14.7405,-8.4994 -7.583,2.6023 -24.8555,8.3913 -25.0021,8.3913 0,0 -1.6096,10.9487 -1.6096,10.9487 0,0 20.3332,-6.7943 20.3332,-6.7943 -0.0644,0.1274 3.5365,-1.4441 6.9472,-0.9288 1.8318,0.2671 2.5191,0.9799 3.7146,2.1378 4.5431,4.663 5.0008,5.2102 7.9015,7.4178 5.1657,3.9187 6.6168,2.341 16.0638,-3.7475 0,0 27.2482,-17.5902 27.2482,-17.5902 -0.1652,0 -16.4391,-0.0255 -20.5935,0.0508 z"
       style="fill:#e20a17;fill-rule:evenodd"
       id="path2" />
    <path
       d="m 349.0609,385.2042 c 3.6014,-2.9074 8.6521,-5.3757 12.5713,-5.9546 8.4419,-1.2282 15.8664,2.2328 18.5957,8.2129 5.9546,9.7846 1.1579,13.3537 -3.8424,31.0716 -0.9604,3.4291 -12.8893,-0.0259 -13.1823,0 0,0 6.1079,-18.9076 6.1079,-18.9076 0.4893,-1.4762 1.858,-9.1863 -5.2928,-8.5505 -3.7473,0.3436 -7.3106,3.4736 -8.6908,4.7714 -0.1338,-0.1781 -26.0963,19.0092 -32.1019,22.5974 0,0 -1.9851,-13.4107 -1.9851,-13.7922 z"
       style="fill:#e20a17;fill-rule:evenodd"
       id="path3" />
    <path
       d="m 363.4073,348.3116 c 0,-6.1074 4.9494,-11.0568 11.0633,-11.0568 6.1006,0 11.0506,4.9494 11.0506,11.0568 0,6.1012 -4.95,11.0566 -11.0506,11.0566 -6.1139,0 -11.0633,-4.9554 -11.0633,-11.0566 z"
       style="fill:#e20a17;fill-rule:evenodd"
       id="path4" />
    <path
       d="m 392.2579,336.8538 c 0,0 -8.5497,6.9534 -18.2646,9.6509 -10.8726,3.0282 -18.7233,1.0305 -18.7233,1.0305 0,0 13.8944,-23.0298 13.8944,-23.0298 z"
       style="fill:#e20a17;fill-rule:evenodd"
       id="path5" />
    <path
       d="m 389.7834,350.1309 c 0,0 29.6905,0 29.6905,0 0,0 0,3.1681 0,3.1681 0,0 -29.6905,0 -29.6905,0 z"
       style="fill:#e20a17;fill-rule:evenodd"
       id="path6" />
    <path
       d="m 400.039,350.5445 c 3.3652,0.2099 7.3413,0.388 9.3581,0 4.0076,-0.6428 5.3762,-5.0192 5.0832,-8.5057 -0.6425,-7.66 -10.1533,-6.6419 -10.3252,-10.2109 -0.1847,-3.9317 2.4047,-4.2879 7.6212,-4.6125 -8.1111,-0.6807 -9.7336,0.7316 -11.1906,3.0795 -4.1154,6.6544 10.8473,8.6391 5.2105,16.4705 -2.182,3.0285 -8.919,3.5313 -8.6519,3.5754 1.6029,0.2037 0.9537,0.0956 2.8947,0.2037 z"
       style="fill:#e20a17;fill-rule:evenodd"
       id="path7" />
    <path
       d="m 390.681,425.7546 c 0.9664,0 1.9207,-0.0314 1.9207,-1.0875 0,-0.8721 -0.7442,-1.0816 -1.5205,-1.0816 0,0 -1.4377,0 -1.4377,0 0,0 0,2.1691 0,2.1691 z m -1.0375,3.4288 c 0,0 -0.7891,0 -0.7891,0 0,0 0,-6.2471 0,-6.2471 0,0 2.4497,0 2.4497,0 1.4563,0 2.0928,0.6103 2.0928,1.7308 0,1.1004 -0.7504,1.5903 -1.6091,1.7367 0,0 1.9016,2.7796 1.9016,2.7796 0,0 -0.9223,0 -0.9223,0 0,0 -1.7944,-2.7796 -1.7944,-2.7796 0,0 -1.3292,0 -1.3292,0 z m -3.461,-3.1168 c 0,2.5828 2.0046,4.6315 4.6825,4.6315 2.6784,0 4.6696,-2.0487 4.6696,-4.6315 0,-2.5962 -1.9912,-4.6443 -4.6696,-4.6443 -2.6779,0 -4.6825,2.0481 -4.6825,4.6443 z m 10.2175,0 c 0,3.0279 -2.4175,5.3944 -5.535,5.3944 -3.1296,0 -5.5412,-2.3665 -5.5412,-5.3944 0,-3.0413 2.4116,-5.4079 5.5412,-5.4079 3.1175,0 5.535,2.3666 5.535,5.4079 z"
       style="fill:#000000;fill-rule:evenodd;stroke:#000000;stroke-width:0.216;stroke-linecap:butt;stroke-linejoin:miter;stroke-dasharray:none"
       id="path8" />
    <path
       d="m 326.0372,389.1928 c -0.1719,-1.8574 1.2156,-5.8398 5.4528,-5.8398 4.3003,0 5.604,3.3334 5.604,5.0385 0,0 0,3.8297 0,3.8297 -4.8791,-0.1717 -11.0568,0.0763 -15.9426,2.1885 -7.3923,3.1684 -8.6901,10.0772 -8.6901,12.9275 0,7.9651 5.5411,11.6931 13.1883,11.6931 5.5218,0 9.899,-1.279 12.6665,-5.9996 0,0 0.1654,0 0.1654,0 0,1.6988 -0.6305,4.8417 -0.3688,5.4461 0,0 11.7373,0 11.7373,0 -0.1526,-1.2154 -0.4771,-2.4369 -0.5534,-4.4789 0,0 0,-22.2794 0,-22.2794 0,-12.2782 -9.1995,-15.2874 -17.3997,-15.2874 -4.3965,0 -8.7094,0.6613 -12.0433,2.6083 -3.2507,1.8703 -5.452,5.0451 -5.5283,10.1534 z m 11.0568,10.0964 c 0,4.8032 -0.2476,12.2848 -6.9848,12.2848 -3.4228,0 -5.9419,-2.4556 -5.9419,-5.8656 0,-6.5909 8.6901,-6.5018 12.9267,-6.4192 z"
       style="fill:#000000;fill-rule:evenodd"
       id="path9" />
    <path
       d="m 214.9082,391.2541 c 0.0828,-9.5998 -7.6469,-15.5291 -18.0551,-15.5291 -12.1129,0 -18.2077,10.8085 -18.2077,21.6239 0,10.8278 6.0948,21.6366 18.2077,21.6366 11.2288,0 17.648,-5.6938 18.0551,-16.1019 0,0 -11.8776,0 -11.8776,0 -0.0829,3.3338 -1.4634,7.9653 -6.1775,7.9653 -5.2041,0 -5.2868,-10.3252 -5.6111,-14.0662 0.1654,-3.1809 0.2544,-12.9338 5.4457,-12.9338 4.7143,0 6.0947,4.0716 6.19,7.4052 z"
       style="fill:#000000;fill-rule:evenodd"
       id="path10" />
    <path
       d="m 228.4015,418.4768 c 0,0 0,-24.5507 0,-24.5507 0.1721,-5.9419 3.4991,-9.3456 7.3227,-9.3456 6.0184,0 7.2462,4.9433 7.3225,9.3456 0,0 0,24.5507 0,24.5507 0,0 12.1959,0 12.1959,0 0,0 0,-26.5862 0,-26.5862 0,-1.3936 -0.1654,-3.9827 -0.8209,-6.5022 -1.4504,-5.9481 -9.3454,-8.9573 -13.4107,-8.9573 -6.1838,0 -9.9946,2.443 -12.5266,6.1963 0,0 -0.1592,-0.1779 -0.1592,-0.1779 0,0 0,-22.6803 0,-22.6803 0,0 -12.1192,0 -12.1192,0 0,0 0,58.7076 0,58.7076 z"
       style="fill:#000000;fill-rule:evenodd"
       id="path11" />
    <path
       d="m 257.0048,359.7692 c 0,0 0,10.4844 0,10.4844 0,0 13.0036,0 13.0036,0 0,0 0,-10.4844 0,-10.4844 z m 0.4073,17.8894 c 0,0 0,40.8182 0,40.8182 0,0 12.2018,0 12.2018,0 0,0 0,-40.8182 0,-40.8182 z"
       style="fill:#000000;fill-rule:evenodd"
       id="path12" />
    <path
       d="m 283.9789,377.6586 c 0,0 -12.1192,0 -12.1192,0 0,0 0,40.8182 0,40.8182 0,0 12.1962,0 12.1962,0 0,0 0,-24.5507 0,-24.5507 0.1647,-5.9419 3.4984,-9.3456 7.322,-9.3456 6.0184,0 7.2338,4.9433 7.316,9.3456 0,0 0,24.5507 0,24.5507 0,0 12.2087,0 12.2087,0 0,0 0,-26.5862 0,-26.5862 0,-1.3936 -0.1654,-3.9827 -0.8207,-6.5022 -1.4635,-5.9481 -9.3519,-8.9573 -13.4239,-8.9573 -6.1836,0 -9.9879,2.443 -12.5198,6.1963 0,0 -0.1593,-0.2543 -0.1593,-0.2543 z"
       style="fill:#000000;fill-rule:evenodd"
       id="path13" />
    <path
       d="m 384.8527,418.4829 c -2.888,37.7072 -48.2929,67.5503 -104.2959,67.5503 -55.9786,0 -101.7014,-29.9322 -104.6088,-67.6072 0,0 -0.1462,0.0508 -0.1462,0.0508 z"
       style="fill:#000000;fill-rule:evenodd"
       id="path14" />
    <path
       d="m 270.6574,421.4223 c 0,0 -12.9275,0 -12.9275,0 0,0 -8.404,29.9771 -8.404,29.9771 0,0 -0.1652,0 -0.1652,0 0,0 -7.291,-29.9771 -7.291,-29.9771 0,0 -12.4501,0 -12.4501,0 0,0 13.0862,39.8124 13.0862,39.8124 0,0 12.9338,0 12.9338,0 0,0 8.3213,-29.6652 8.3213,-29.6652 0,0 0.1656,0 0.1656,0 0,0 8.1684,29.6652 8.1684,29.6652 0,0 12.7621,0 12.7621,0 0,0 13.7292,-39.8124 13.7292,-39.8124 0,0 -11.6617,0 -11.6617,0 0,0 -7.7806,29.9771 -7.7806,29.9771 0,0 -0.1526,0 -0.1526,0 z"
       style="fill:#ffffff;fill-rule:evenodd"
       id="path15" />
    <path
       d="m 306.8881,441.3285 c 0,-6.349 1.1834,-13.1623 8.4801,-13.1623 7.2972,0 8.4872,6.8133 8.4872,13.1623 0,6.3496 -1.19,13.1629 -8.4872,13.1629 -7.2967,0 -8.4801,-6.8133 -8.4801,-13.1629 z m 29.271,0 c 0,-12.5392 -7.7745,-21.1022 -20.7909,-21.1022 -13.0164,0 -20.7777,8.563 -20.7777,21.1022 0,12.5332 7.7613,21.096 20.7777,21.096 13.0164,0 20.7909,-8.5628 20.7909,-21.096 z"
       style="fill:#ffffff;fill-rule:evenodd"
       id="path16" />
    <path
       d="m 337.9916,418.4819 v 42.7528 c 0,0 11.9032,0 11.9032,0 0,0 0,-21.6557 0,-21.6557 0,0 0.1587,-0.1655 0.1587,-0.1655 l 11.285,20.5679 c 3.1129,-2.5912 5.962,-5.3362 8.5226,-8.2152 l -8.5474,-13.3706 c 0,0 13.7225,-17.4568 13.7225,-17.4568 0,0 -13.2514,0 -13.2514,0 0,0 -11.7313,16.738 -11.7313,16.738 0,0 -0.1587,-0.1592 -0.1587,-0.1592 V 418.482 Z"
       style="fill:#ffffff;fill-rule:evenodd"
       id="path17" />
    <path
       d="m 218.4709,457.6083 c 0,0 159.8354,22.4708 159.8354,22.4708 0,0 -2.2769,8.8937 -2.2769,8.8937 0,0 -158.0103,-28.9591 -158.0103,-28.9591 z"
       style="fill:#008131;fill-rule:evenodd"
       id="path18" />
    <path
       d="m 215.4172,470.0144 c 0,0 161.1844,-8.4486 161.1844,-8.4486 0,0 -0.5407,9.1741 -0.5407,9.1741 0,0 -160.631,1.7235 -160.631,1.7235 z"
       style="fill:#008131;fill-rule:evenodd"
       id="path19" />
    <path
       d="m 190.8158,422.0581 c 0,0 -7.0364,0.1407 -7.0364,0.1407 0.4328,16.3367 21.2615,35.3399 21.2488,35.3206 -3.6135,-5.3819 -10.2363,-13.22 -12.7113,-23.2526 -1.1385,-4.6502 -1.4822,-7.3991 -1.5011,-12.2087 z"
       style="fill:#ffffff;fill-rule:evenodd"
       id="path20" />
    <path
       d="m 178.7982,514.541 c 0,0.5724 -0.0957,0.929 -0.276,1.069 -0.0675,0.0448 -0.27,0.1464 -0.6077,0.3118 -2.0148,0.9476 -4.1646,1.4249 -6.427,1.4249 -1.8572,0 -3.0616,-0.9095 -3.6187,-2.7165 -0.1971,-0.6046 -0.2815,-1.247 -0.2815,-1.915 0,-1.8578 0.5572,-3.5373 1.6774,-5.0511 1.3729,-1.8387 3.1289,-2.7488 5.2901,-2.7488 0.6076,0 1.2211,0.0762 1.8627,0.2355 0.1405,0.0703 0.2702,0.1018 0.3939,0.1018 0.2026,0 0.3884,-0.1204 0.5515,-0.3755 0.394,-0.5407 0.7035,-0.8139 0.9343,-0.8139 0.0674,0 0.1351,0.0127 0.2026,0.0255 0.0224,0.1908 0.0561,0.5341 0.1236,1.0435 0.051,0.3941 0.0791,0.6994 0.0791,0.9283 0,0.5025 -0.0959,1.0434 -0.259,1.6289 0,0 -0.8386,-0.2925 -0.8386,-0.2925 -0.3207,-0.1016 -0.7822,-0.344 -1.3787,-0.7193 -0.4222,-0.1587 -0.8837,-0.2223 -1.3845,-0.2223 -1.3,0 -2.4652,0.4579 -3.4947,1.3674 -1.5028,1.3426 -2.2569,2.8819 -2.2569,4.6 0,0.496 0.073,1.0048 0.1914,1.5013 0.2981,1.279 1.2325,1.9087 2.7632,1.9087 0.5683,0 1.3,-0.0957 2.2342,-0.2931 0.2533,-0.0508 1.0355,-0.2543 2.3581,-0.5723 0.9284,-0.2289 1.6546,-0.3688 2.1612,-0.4263 z"
       style="fill:#000000;fill-rule:evenodd;stroke:#1b1918;stroke-width:0.216;stroke-linecap:butt;stroke-linejoin:miter;stroke-dasharray:none"
       id="path21" />
    <path
       d="m 190.1042,513.1476 c 0.1972,-0.496 0.2928,-1.1071 0.2928,-1.8446 0,-0.7128 -0.0956,-1.4256 -0.2928,-2.1122 -0.2306,-0.8019 -0.5514,-1.3936 -0.9736,-1.8071 -1.3,-1.2529 -2.7069,-1.8894 -4.2153,-1.8894 -0.979,0 -1.9188,0.3058 -2.8307,0.9228 -0.4333,0.2799 -0.8218,0.8782 -1.176,1.7684 -0.4166,1.0179 -0.6134,2.0165 -0.6134,3.003 0,0.5342 0.0562,0.9927 0.1687,1.4123 0.394,1.4248 1.283,2.3412 2.6676,2.7736 0.5008,0.1593 1.0354,0.2415 1.6151,0.2415 0,0 0.7203,0 0.7203,0 0.7318,0 1.3001,-0.0374 1.7391,-0.1204 1.4127,-0.2484 2.3805,-1.0308 2.8982,-2.3479 z m 1.2214,0.5602 c -0.5234,1.9336 -1.7728,3.0219 -3.748,3.3082 -0.5291,0.0637 -1.4071,0.1078 -2.6285,0.1078 -1.9189,0 -3.326,-0.4771 -4.2377,-1.4316 -0.5853,-0.6043 -1.0074,-1.4182 -1.2662,-2.4296 -0.1068,-0.3948 -0.1575,-0.9289 -0.1575,-1.578 0,-1.0181 0.1182,-2.0039 0.3376,-2.9772 0.2702,-1.1579 0.6473,-1.9851 1.1199,-2.507 1.2889,-1.3996 2.6621,-2.099 4.1308,-2.099 1.1933,0 2.572,0.4894 4.1534,1.4758 0.8218,0.5088 1.4688,1.3741 1.9415,2.6083 0.4222,1.0816 0.6247,2.214 0.6247,3.3912 0,0.763 -0.0955,1.4691 -0.27,2.1311 z"
       style="fill:#000000;fill-rule:evenodd;stroke:#1b1918;stroke-width:0.216;stroke-linecap:butt;stroke-linejoin:miter;stroke-dasharray:none"
       id="path22" />
    <path
       d="m 205.7721,516.9652 c -0.0619,0.0951 -0.1519,0.1586 -0.2643,0.1586 -0.1238,0 -0.3547,-0.089 -0.7037,-0.2544 -0.2869,-0.6678 -0.5571,-1.6289 -0.8159,-2.9007 -0.3547,-1.6798 -0.5853,-2.7165 -0.6865,-3.086 -0.3321,-1.1191 -0.7655,-1.9973 -1.3001,-2.6271 -0.1857,0.3113 -0.5178,0.9605 -0.9961,1.9464 -0.4278,0.8976 -0.8048,1.5842 -1.1257,2.0676 -0.5009,0.7507 -1.0523,1.3553 -1.6432,1.8264 -0.4672,-0.3374 -0.9344,-0.8842 -1.3901,-1.6733 -0.2813,-0.4644 -0.6135,-1.1646 -1.0019,-2.0681 -0.4105,-0.9919 -0.7203,-1.6725 -0.9453,-2.099 -0.1577,0.5469 -0.3545,1.3548 -0.608,2.4618 -0.2531,1.1069 -0.4559,1.9215 -0.6133,2.4496 -0.2982,1.0241 -0.6246,1.858 -0.9625,2.5192 0,0 -0.4558,-0.0824 -0.4558,-0.0824 -0.1126,-0.0253 -0.2306,-0.1083 -0.3262,-0.2167 0.1799,-1.0053 0.4446,-2.1632 0.7877,-3.4288 0.0787,-0.3247 0.4109,-1.5207 0.9962,-3.6136 0.422,-1.5078 0.7261,-2.6978 0.923,-3.5694 0.1012,-0.273 0.2418,-0.4196 0.439,-0.4196 0.2306,0 0.3489,0.1466 0.3489,0.4196 0,1.1707 0.2645,2.4304 0.7935,3.7663 0.3883,0.9798 0.878,1.9282 1.4745,2.8505 0.4784,0.7502 0.7428,1.1197 0.7933,1.1197 0.6419,-0.5983 1.1765,-1.3807 1.6322,-2.3352 0.304,-0.6299 0.6417,-1.552 1.0298,-2.7609 0.4334,-1.3297 0.7374,-2.2461 0.94,-2.7293 0.0561,-0.0255 0.1124,-0.0315 0.1802,-0.0315 0.2362,0 0.3712,0.1333 0.4331,0.4263 0,0 1.2045,4.1604 1.2045,4.1604 0.4615,1.6036 0.8273,2.9141 1.0638,3.8872 0.3543,1.4249 0.6189,2.7039 0.7989,3.8364 z"
       style="fill:#000000;fill-rule:evenodd;stroke:#1b1918;stroke-width:0.216;stroke-linecap:butt;stroke-linejoin:miter;stroke-dasharray:none"
       id="path23" />
    <path
       d="m 207.5619,504.5974 c 0,0.8969 -0.0225,1.8579 -0.09,2.882 0,0 -0.1746,3.378 -0.1746,3.378 -0.0506,1.1197 -0.0787,2.074 -0.0787,2.8249 0,1.2215 0.0505,2.265 0.1687,3.1363 -0.0619,0.0315 -0.225,0.1078 -0.5234,0.2289 -0.2081,0.083 -0.3825,0.1974 -0.5065,0.3373 -0.1631,-0.929 -0.2362,-2.2394 -0.2362,-3.9508 0,-1.7113 0.0731,-3.811 0.2362,-6.2665 0.0338,-0.5342 0.1128,-1.5206 0.2365,-2.9898 0.0787,-0.007 0.135,-0.007 0.1799,0 0.3098,0.0381 0.5685,0.178 0.7881,0.4197 z"
       style="fill:#000000;fill-rule:evenodd;stroke:#1b1918;stroke-width:0.216;stroke-linecap:butt;stroke-linejoin:miter;stroke-dasharray:none"
       id="path24" />
    <path
       d="m 217.0223,512.7152 c 0.1799,-0.3052 0.2644,-0.6237 0.2644,-0.9543 0,-0.5281 -0.2588,-1.1579 -0.7878,-1.9088 -0.0731,-0.1018 -0.304,-0.3943 -0.698,-0.8775 -1.1255,-1.3934 -2.4367,-2.2717 -3.9732,-2.6404 -0.2589,0.7952 -0.4502,1.7877 -0.5965,2.9455 -0.1746,1.4504 -0.2589,3.467 -0.2589,6.0819 0.0899,0.178 0.2703,0.2677 0.557,0.2677 0,0 0.1185,0 0.1185,0 0.0393,0 0.0675,0 0.1124,-0.0134 1.0413,0 2.0092,-0.2415 2.9376,-0.7442 0.9567,-0.5154 1.728,-1.253 2.3245,-2.1565 z m 1.0017,0.8654 c -0.9961,1.6029 -2.5382,2.6845 -4.5811,3.2187 -0.8442,0.2289 -1.7051,0.3312 -2.5944,0.3312 -0.2082,0 -0.3603,0 -0.4615,-0.032 -0.18,-0.051 -0.3603,-0.1654 -0.5571,-0.3307 -0.1238,-0.8653 -0.1743,-1.7938 -0.1743,-2.787 0,-1.5581 0.1461,-3.3651 0.4164,-5.4327 0.0675,-0.4196 0.1968,-1.3357 0.3993,-2.7227 -0.253,-0.1277 -0.6584,-0.1974 -1.2042,-0.21 -0.5515,-0.0255 -0.9568,-0.0891 -1.1987,-0.2162 -0.1914,-0.0508 -0.2759,-0.2296 -0.2759,-0.5347 0,-0.3307 0.1294,-0.585 0.3829,-0.7505 3.5173,0 6.6012,1.565 9.2466,4.6698 0.754,0.8969 1.1311,1.864 1.1311,2.9134 0,0.6873 -0.1747,1.3105 -0.5291,1.8834 z"
       style="fill:#000000;fill-rule:evenodd;stroke:#1b1918;stroke-width:0.216;stroke-linecap:butt;stroke-linejoin:miter;stroke-dasharray:none"
       id="path25" />
    <path
       d="m 226.0829,509.2416 c -0.377,-1.3486 -0.7314,-2.3098 -1.0692,-2.9074 -0.8893,1.2723 -1.7839,2.653 -2.6901,4.1289 -0.3827,0.617 -0.6921,1.279 -0.9398,1.9596 0.2928,-0.1018 0.788,-0.267 1.4802,-0.5026 0,0 3.6299,-1.2155 3.6299,-1.2155 z m 3.0898,7.9077 c -0.0787,0 -0.1294,-0.006 -0.1857,-0.0188 -0.3096,-0.4008 -0.5795,-0.9477 -0.7823,-1.6545 0,0 -0.5403,-1.8573 -0.5403,-1.8573 -0.18,-0.5984 -0.4616,-1.1069 -0.8383,-1.5272 -1.2778,0.2992 -2.6398,0.7128 -4.0691,1.2221 -0.6133,0.2162 -1.272,0.4705 -1.9585,0.7375 -0.1969,1.018 -0.456,1.7308 -0.7993,2.1122 -0.0112,0.0195 -0.0393,0.0195 -0.09,0.0195 -0.1462,0 -0.529,-0.0829 -1.1649,-0.261 0,0 1.4858,-3.7153 1.4858,-3.7153 1.0187,-2.5446 2.7181,-5.2425 5.1102,-8.0925 1.4573,3.346 2.5606,6.1329 3.3315,8.3468 0.5121,1.5014 0.9061,2.9008 1.2268,4.1986 -0.1294,0.3433 -0.377,0.4899 -0.7259,0.4899 z"
       style="fill:#000000;fill-rule:evenodd;stroke:#1b1918;stroke-width:0.216;stroke-linecap:butt;stroke-linejoin:miter;stroke-dasharray:none"
       id="path26" />
    <path
       d="m 246.4895,514.541 c 0,0.5724 -0.1012,0.929 -0.2813,1.069 -0.0564,0.0448 -0.259,0.1464 -0.5968,0.3118 -2.0256,0.9476 -4.1645,1.4249 -6.4325,1.4249 -1.8514,0 -3.0616,-0.9095 -3.6244,-2.7165 -0.1799,-0.6046 -0.2811,-1.247 -0.2811,-1.915 0,-1.8578 0.5627,-3.5373 1.6882,-5.0511 1.3618,-1.8387 3.1292,-2.7488 5.2789,-2.7488 0.6135,0 1.2268,0.0762 1.8685,0.2355 0.1351,0.0703 0.2701,0.1018 0.3881,0.1018 0.2028,0 0.3885,-0.1204 0.5685,-0.3755 0.3827,-0.5407 0.6867,-0.8139 0.9287,-0.8139 0.0619,0 0.1294,0.0127 0.1914,0.0255 0.0225,0.1908 0.0619,0.5341 0.1238,1.0435 0.0563,0.3941 0.0731,0.6994 0.0731,0.9283 0,0.5025 -0.0787,1.0434 -0.2478,1.6289 0,0 -0.844,-0.2925 -0.844,-0.2925 -0.3152,-0.1016 -0.7711,-0.344 -1.3732,-0.7193 -0.4278,-0.1587 -0.8893,-0.2223 -1.3843,-0.2223 -1.3058,0 -2.4651,0.4579 -3.5006,1.3674 -1.5027,1.3426 -2.2454,2.8819 -2.2454,4.6 0,0.496 0.0618,1.0048 0.1855,1.5013 0.3095,1.279 1.2269,1.9087 2.7689,1.9087 0.5571,0 1.3001,-0.0957 2.223,-0.2931 0.2533,-0.0508 1.041,-0.2543 2.3581,-0.5723 0.9343,-0.2289 1.6601,-0.3688 2.1667,-0.4263 z"
       style="fill:#000000;fill-rule:evenodd;stroke:#1b1918;stroke-width:0.216;stroke-linecap:butt;stroke-linejoin:miter;stroke-dasharray:none"
       id="path27" />
    <path
       d="m 258.2177,510.3613 c -0.0393,0.1399 -0.1293,0.267 -0.2813,0.3688 -0.4445,0.3185 -0.6695,0.4711 -0.6863,0.4966 -0.017,0.1206 -0.0338,0.3113 -0.0338,0.5723 0,0.3312 0.028,0.7314 0.0955,1.2468 0.1294,1.1391 0.1913,1.8071 0.1913,1.998 0,0.528 -0.1237,0.7757 -0.3602,0.7757 0,0 -0.9115,0 -0.9115,0 -0.1804,-0.2858 -0.2703,-0.7945 -0.2703,-1.5202 0,-0.1082 0,-0.2608 0,-0.4711 0,-0.2095 0,-0.3621 0,-0.4638 0,-0.6431 -0.0674,-1.1391 -0.2026,-1.5019 -0.1124,-0.0253 -0.2421,-0.0382 -0.3939,-0.0382 -0.4896,0 -1.1312,0.1654 -1.9305,0.484 0,0 -1.9807,0.7885 -1.9807,0.7885 -0.0678,0.2797 -0.0904,0.611 -0.0904,0.9798 0,0.2544 0.0226,0.611 0.0792,1.1069 0.0505,0.4966 0.0787,0.8587 0.0787,1.1131 0,0.312 -0.0226,0.5857 -0.0731,0.7831 0,0 -1.2834,0 -1.2834,0 -0.0506,-0.1466 -0.09,-0.3695 -0.09,-0.662 0,-0.2096 0.006,-0.4704 0.0394,-0.7763 0.0562,-0.7442 0.09,-1.2341 0.09,-1.4565 0,-0.3245 -0.0112,-0.5788 -0.0563,-0.7696 -0.2867,0 -0.6808,0.1016 -1.1648,0.3052 0,0 -1.4351,0.6105 -1.4351,0.6105 -0.5235,0.2167 -0.9682,0.3306 -1.345,0.3306 -0.2478,-0.1394 -0.3772,-0.4324 -0.3772,-0.903 0,-0.2543 0.0676,-0.445 0.1801,-0.5916 0,0 4.1196,-1.4249 4.1196,-1.4249 0.0675,-0.484 0.1294,-1.196 0.1969,-2.1572 0,0 0.1634,-2.4937 0.1634,-2.4937 0.0505,-0.8145 0.118,-1.4443 0.1969,-1.8961 0.006,-0.0629 0.1968,-0.1526 0.5514,-0.2732 0.0844,-0.0253 0.2702,-0.0889 0.5459,-0.1907 0.0901,0.4518 0.1294,0.9986 0.1294,1.5841 0,0.4961 -0.0112,1.0053 -0.0619,1.5522 0,0 -0.1519,1.8258 -0.1519,1.8258 -0.045,0.6105 -0.0731,1.1259 -0.0731,1.5395 0.5346,0 1.3,-0.1721 2.2961,-0.5663 0,0 1.2438,-0.4704 1.2438,-0.4704 0.152,-0.5409 0.2306,-1.2344 0.2306,-2.0809 0,-0.1392 0,-0.4706 -0.006,-0.9858 0,0 -0.0224,-0.7443 -0.0224,-0.7443 -0.0113,-0.6874 0.028,-1.2851 0.1237,-1.8005 0.0732,-0.3433 0.3153,-0.5214 0.7431,-0.5214 0.1799,0 0.3825,0.0508 0.6077,0.1781 -0.1068,1.4564 -0.1575,2.71 -0.1575,3.7661 0,0.5984 0.0225,1.1071 0.0619,1.5393 0.0507,0.0255 0.2475,0.0382 0.5683,0.0382 0.4447,0 0.6923,0.007 0.754,0.0255 0.0226,0.2295 0.0845,0.4711 0.1519,0.7509 z"
       style="fill:#000000;fill-rule:evenodd;stroke:#1b1918;stroke-width:0.216;stroke-linecap:butt;stroke-linejoin:miter;stroke-dasharray:none"
       id="path28" />
    <path
       d="m 260.0131,504.5974 c 0,0.8969 -0.0224,1.8579 -0.0898,2.882 0,0 -0.1691,3.378 -0.1691,3.378 -0.0619,1.1197 -0.09,2.074 -0.09,2.8249 0,1.2215 0.0563,2.265 0.1746,3.1363 -0.0564,0.0315 -0.2253,0.1078 -0.529,0.2289 -0.2028,0.083 -0.3828,0.1974 -0.5064,0.3373 -0.1579,-0.929 -0.2366,-2.2394 -0.2366,-3.9508 0,-1.7113 0.0787,-3.811 0.2366,-6.2665 0.0393,-0.5342 0.118,-1.5206 0.2306,-2.9898 0.09,-0.007 0.1461,-0.007 0.1912,0 0.3096,0.0381 0.5687,0.178 0.7879,0.4197 z"
       style="fill:#000000;fill-rule:evenodd;stroke:#1b1918;stroke-width:0.216;stroke-linecap:butt;stroke-linejoin:miter;stroke-dasharray:none"
       id="path29" />
    <path
       d="m 271.6684,504.7882 c -0.4897,0.9798 -0.7259,2.1503 -0.7259,3.4991 0,0.6618 0.0618,1.406 0.1856,2.2776 0,0 0.3602,2.5319 0.3602,2.5319 0.1238,0.8654 0.1801,1.5908 0.1801,2.1885 0,0.611 -0.0395,1.1324 -0.1351,1.5841 -0.3771,0.0384 -0.6752,0.0637 -0.9061,0.0637 -1.7446,-0.5154 -3.8268,-2.4684 -6.2131,-5.8335 -0.1913,-0.2544 -1.0131,-1.4189 -2.4704,-3.5184 -0.1523,0.5595 -0.231,1.2916 -0.2479,2.2078 -0.006,0.2543 -0.006,0.6486 0,1.17 0,0 0,1.1833 0,1.1833 0.006,0.8654 -0.0561,1.6418 -0.1799,2.3036 -0.0338,0.006 -0.1068,0.0255 -0.2197,0.0696 0,0 -0.1069,0.0255 -0.1069,0.0255 -0.1293,0.0575 -0.2531,0.0696 -0.3603,0.0696 -0.2194,0 -0.3767,-0.1137 -0.478,-0.3366 0.1237,-0.7571 0.2418,-1.7877 0.3431,-3.1048 0.0281,-0.35 0.1012,-1.4818 0.2197,-3.4035 0.0787,-1.3359 0.1631,-2.3792 0.2699,-3.1616 0.5346,0.6485 1.4183,1.8573 2.6395,3.6262 1.1704,1.6859 2.1442,2.9964 2.9153,3.8999 1.2043,1.3867 2.431,2.5 3.703,3.3077 0,0 -0.1799,-2.22 -0.1799,-2.22 -0.1297,-1.5969 -0.1972,-2.9455 -0.1972,-4.0271 0,-1.5648 0.1294,-2.9904 0.3829,-4.2689 0.1294,-0.1719 0.3545,-0.2543 0.6808,-0.2543 0.2083,0 0.3996,0.0443 0.5403,0.1206 z"
       style="fill:#000000;fill-rule:evenodd;stroke:#1b1918;stroke-width:0.216;stroke-linecap:butt;stroke-linejoin:miter;stroke-dasharray:none"
       id="path30" />
    <path
       d="m 279.2266,509.2416 c -0.3715,-1.3486 -0.7374,-2.3098 -1.0748,-2.9074 -0.8837,1.2723 -1.7842,2.653 -2.6791,4.1289 -0.3937,0.617 -0.7033,1.279 -0.9565,1.9596 0.3037,-0.1018 0.7934,-0.267 1.497,-0.5026 0,0 3.6185,-1.2155 3.6185,-1.2155 z m 3.0898,7.9077 c -0.0734,0 -0.1297,-0.006 -0.1803,-0.0188 -0.3206,-0.4008 -0.5853,-0.9477 -0.7877,-1.6545 0,0 -0.546,-1.8573 -0.546,-1.8573 -0.1802,-0.5984 -0.4615,-1.1069 -0.8386,-1.5272 -1.2774,0.2992 -2.6282,0.7128 -4.0689,1.2221 -0.6135,0.2162 -1.2607,0.4705 -1.9584,0.7375 -0.1858,1.018 -0.4501,1.7308 -0.7992,2.1122 -0.006,0.0195 -0.0394,0.0195 -0.0901,0.0195 -0.135,0 -0.5234,-0.0829 -1.1592,-0.261 0,0 1.4743,-3.7153 1.4743,-3.7153 1.0242,-2.5446 2.7296,-5.2425 5.1101,-8.0925 1.4633,3.346 2.5776,6.1329 3.3375,8.3468 0.5121,1.5014 0.9171,2.9008 1.2211,4.1986 -0.1237,0.3433 -0.3715,0.4899 -0.7146,0.4899 z"
       style="fill:#000000;fill-rule:evenodd;stroke:#1b1918;stroke-width:0.216;stroke-linecap:butt;stroke-linejoin:miter;stroke-dasharray:none"
       id="path31" />
    <path
       d="m 297.4834,512.7152 c 0.1911,-0.3052 0.2759,-0.6237 0.2759,-0.9543 0,-0.5281 -0.2703,-1.1579 -0.7937,-1.9088 -0.0734,-0.1018 -0.304,-0.3943 -0.7036,-0.8775 -1.1199,-1.3934 -2.4423,-2.2717 -3.9676,-2.6404 -0.2533,0.7952 -0.4557,1.7877 -0.591,2.9455 -0.1801,1.4504 -0.2701,3.467 -0.2701,6.0819 0.0956,0.178 0.2816,0.2677 0.5627,0.2677 0,0 0.1238,0 0.1238,0 0.0281,0 0.0675,0 0.1012,-0.0134 1.0413,0 2.0206,-0.2415 2.9435,-0.7442 0.9625,-0.5154 1.7277,-1.253 2.3189,-2.1565 z m 1.007,0.8654 c -1.0014,1.6029 -2.5323,2.6845 -4.5751,3.2187 -0.8555,0.2289 -1.7167,0.3312 -2.6114,0.3312 -0.1914,0 -0.3545,0 -0.4446,-0.032 -0.1856,-0.051 -0.3715,-0.1654 -0.5571,-0.3307 -0.1182,-0.8653 -0.1747,-1.7938 -0.1747,-2.787 0,-1.5581 0.1353,-3.3651 0.4166,-5.4327 0.0618,-0.4196 0.1914,-1.3357 0.3997,-2.7227 -0.2532,-0.1277 -0.6584,-0.1974 -1.2156,-0.21 -0.5459,-0.0255 -0.9512,-0.0891 -1.1989,-0.2162 -0.18,-0.0508 -0.2813,-0.2296 -0.2813,-0.5347 0,-0.3307 0.135,-0.585 0.3997,-0.7505 3.5172,0 6.6012,1.565 9.2406,4.6698 0.7603,0.8969 1.1255,1.864 1.1255,2.9134 0,0.6873 -0.1687,1.3105 -0.5234,1.8834 z"
       style="fill:#000000;fill-rule:evenodd;stroke:#1b1918;stroke-width:0.216;stroke-linecap:butt;stroke-linejoin:miter;stroke-dasharray:none"
       id="path32" />
    <path
       d="m 311.1874,515.8007 c -0.8165,0 -1.7957,0.0956 -2.9154,0.2737 0,0 -3.242,0.5213 -3.242,0.5213 -1.1873,0.2036 -2.2002,0.2992 -3.0446,0.2992 -0.3937,0 -0.7204,-0.0448 -0.9905,-0.1399 -0.6921,-0.2289 -1.1818,-0.9355 -1.4636,-2.0934 0,-0.3306 -0.0225,-0.8393 -0.039,-1.5328 0,0 -0.0616,-1.864 -0.0616,-1.864 -0.0396,-0.8205 -0.051,-1.3619 -0.051,-1.6544 0,-2.0292 0.2084,-3.6262 0.6247,-4.7586 0.608,0 1.3849,-0.057 2.3073,-0.1654 0,0 2.7803,-0.3561 2.7803,-0.3561 0.9289,-0.1145 1.7501,-0.1653 2.4595,-0.1653 0.518,0 0.9509,0.0127 1.3054,0.0637 0.4222,0 0.636,0.3051 0.636,0.9156 0,0.115 -0.0113,0.2294 -0.051,0.3185 -0.7537,0.1016 -1.7329,0.1652 -2.9035,0.1841 -1.3735,0.0133 -2.3469,0.0641 -2.9266,0.127 -1.0977,0.1278 -2.0768,0.3634 -2.9094,0.7195 -0.1692,0.5978 -0.2421,1.4632 -0.2421,2.6211 0,0.4832 0.0225,0.9162 0.0563,1.3043 0.3659,0.0824 0.7484,0.1206 1.1597,0.1206 0.5679,0 1.1759,-0.0891 1.8064,-0.267 0.135,-0.0382 0.7373,-0.2163 1.7839,-0.5409 0.6526,-0.1907 1.2215,-0.2864 1.7219,-0.2864 -0.0279,0.0449 -0.1297,0.2101 -0.2813,0.5093 -0.1291,0.2417 -0.231,0.4002 -0.3208,0.4644 -0.3655,0.2858 -0.9285,0.5535 -1.6827,0.7697 -0.501,0.1526 -1.1651,0.2925 -2.0095,0.4451 -0.45,0.0891 -1.1196,0.2162 -2.0089,0.4203 0,0.1018 0,0.2544 -0.005,0.4451 0,0.2035 0,0.3561 0,0.4517 0,1.2785 0.2304,2.0233 0.7146,2.239 0.6922,0.1404 1.3961,0.204 2.1049,0.204 0.6358,0 1.3676,-0.0574 2.2119,-0.1787 0,0 2.5264,-0.3688 2.5264,-0.3688 0.839,-0.1333 1.7057,-0.1846 2.5666,-0.1846 0.2931,0 0.4388,0.2422 0.4388,0.7255 0,0.1271 -0.0226,0.2677 -0.0557,0.4136 z"
       style="fill:#000000;fill-rule:evenodd;stroke:#1b1918;stroke-width:0.216;stroke-linecap:butt;stroke-linejoin:miter;stroke-dasharray:none"
       id="path33" />
    <path
       d="m 328.391,512.3397 c -0.0898,0.3755 -0.1295,0.8079 -0.1295,1.33 0,0.184 0,0.4517 0.0224,0.8392 0.0173,0.3628 0.0225,0.6493 0.0225,0.8274 0,0.5981 -0.0556,1.0814 -0.18,1.463 -0.1065,0.2549 -0.2025,0.3948 -0.2978,0.3948 -0.3096,-0.0508 -0.5464,-0.3561 -0.7147,-0.8909 -0.0846,-0.2863 -0.1633,-0.5535 -0.2592,-0.8398 -0.7425,-0.3052 -1.7786,-0.4706 -3.0954,-0.4706 -0.2646,0 -0.675,0.007 -1.2096,0.0255 -0.5517,0.0255 -0.9513,0.0255 -1.2267,0.0255 -0.6869,0 -1.2718,-0.0384 -1.7615,-0.1146 -1.3172,-0.2163 -2.4031,-0.7891 -3.2758,-1.7174 -0.1967,-0.484 -0.2984,-1.0187 -0.2984,-1.6163 0,-1.5334 0.5743,-3.0915 1.7164,-4.6697 1.3286,-1.8325 3.0337,-2.7481 5.1273,-2.7481 0.1124,0.1272 0.2362,0.2543 0.3605,0.3876 0.1457,0.1719 0.225,0.3566 0.225,0.5159 0,0.1206 -0.0509,0.2417 -0.1692,0.3621 -0.0675,-0.0186 -0.1351,-0.0253 -0.2026,-0.0253 -0.0504,0.007 -0.197,0.0253 -0.4558,0.0896 -0.1351,0.0253 -0.2813,0.0375 -0.4388,0.0375 -2.0148,0.6298 -3.5571,2.0554 -4.6039,4.2307 -0.1682,0.5788 -0.2475,1.0306 -0.2475,1.3746 0,0.6868 0.2197,1.2341 0.6531,1.5774 1.0466,0.8656 2.3747,1.2978 4.0011,1.2978 0.8615,0 1.8965,-0.1399 3.1066,-0.4069 0.3772,-0.0889 0.9118,-0.2167 1.5927,-0.3948 0.5175,-0.3113 0.788,-0.8012 0.788,-1.4759 0,-0.21 -0.045,-0.4007 -0.1184,-0.5788 -0.9568,-0.2544 -2.0367,-0.3755 -3.2529,-0.3755 -0.7933,0 -1.7442,0.0515 -2.8478,0.1786 -0.0782,-0.0956 -0.129,-0.2041 -0.129,-0.3312 0,-0.1339 0.039,-0.2798 0.1124,-0.4645 0.0166,-0.0696 0.0788,-0.1841 0.1575,-0.3367 0.6023,-0.3313 1.379,-0.4899 2.3417,-0.4899 0.354,0 1.1925,0.057 2.5376,0.1781 0.4896,0.0441 0.8781,0.0696 1.1765,0.0696 0.5629,0.2034 0.8661,0.7128 0.923,1.5272 0.0171,0.4069 0.0395,0.814 0.0502,1.2148 z"
       style="fill:#000000;fill-rule:evenodd;stroke:#1b1918;stroke-width:0.216;stroke-linecap:butt;stroke-linejoin:miter;stroke-dasharray:none"
       id="path34" />
    <path
       d="m 334.7226,509.006 c 0,-0.4391 -0.1634,-0.9349 -0.4896,-1.4444 -0.1238,-0.1779 -0.4334,-0.5976 -0.9343,-1.2208 -0.3036,-0.3566 -0.608,-0.5473 -0.9177,-0.5473 -0.1799,0 -0.3653,0.0634 -0.557,0.1907 -0.1404,0.1018 -0.4051,0.3626 -0.7876,0.8084 -0.8271,1.2403 -1.2386,2.6974 -1.2386,4.3385 0,0.1847 0.006,0.3754 0.0285,0.611 0.1354,0.1714 0.3037,0.2603 0.4897,0.2603 0.1236,0 0.3155,-0.0441 0.5909,-0.1399 0.7263,-0.2544 1.2326,-0.4384 1.5251,-0.5467 0.5631,-0.2162 0.9905,-0.4453 1.3227,-0.662 0.647,-0.4196 0.9679,-0.9731 0.9679,-1.6478 z m 6.5845,8.1688 c -0.2588,0.0508 -0.585,0.0701 -0.9622,0.0701 -1.0692,0 -2.2736,-0.2797 -3.6359,-0.8272 -0.3937,-0.1719 -1.5755,-0.7376 -3.5228,-1.7048 -1.4299,-0.7066 -2.5606,-1.1578 -3.3884,-1.3485 -0.039,0.1139 -0.0556,0.2417 -0.0556,0.4197 0,0.3052 0.0727,0.7636 0.2195,1.3741 0.1516,0.5982 0.225,1.0499 0.225,1.3553 0,0.2603 -0.0508,0.4517 -0.1468,0.6103 -0.0278,0.1084 -0.1236,0.1592 -0.2646,0.1592 -0.2925,0 -0.5513,-0.127 -0.782,-0.3752 0,0 -0.2588,-2.7356 -0.2588,-2.7356 -0.0959,-0.9349 -0.1463,-1.7688 -0.1463,-2.5004 0,-2.1759 0.4051,-3.9254 1.2155,-5.2292 0.4838,-0.7957 1.1427,-1.4764 1.9526,-2.0361 0.1972,-0.127 0.3998,-0.2033 0.6141,-0.2033 0.2925,0 0.6247,0.1525 0.9958,0.4391 1.8402,1.4308 2.7692,2.9072 2.7692,4.4274 0,0.3566 -0.0622,0.7314 -0.1523,1.1264 -0.1521,0.5467 -0.4783,0.9984 -0.9846,1.3674 -0.3267,0.2227 -0.833,0.4649 -1.5085,0.694 -0.7259,0.2415 -1.193,0.4069 -1.3956,0.5087 0,0 2.6673,1.2723 2.6673,1.2723 2.4536,1.145 4.4631,1.8833 6.0279,2.1884 0.0331,-0.0126 0.0557,-0.0126 0.0841,-0.0126 0.1462,0 0.2704,0.0823 0.3605,0.267 0.0729,0.1466 0.1178,0.2992 0.1178,0.4773 0,0.0889 -0.0171,0.1652 -0.0449,0.2162 z"
       style="fill:#000000;fill-rule:evenodd;stroke:#1b1918;stroke-width:0.216;stroke-linecap:butt;stroke-linejoin:miter;stroke-dasharray:none"
       id="path35" />
    <path
       d="m 348.3591,509.2416 c -0.3718,-1.3486 -0.7317,-2.3098 -1.0751,-2.9074 -0.8893,1.2723 -1.7845,2.653 -2.6898,4.1289 -0.3832,0.617 -0.6928,1.279 -0.9461,1.9596 0.2984,-0.1018 0.7939,-0.267 1.4914,-0.5026 0,0 3.6246,-1.2155 3.6246,-1.2155 z m 3.0836,7.9077 c -0.0675,0 -0.135,-0.006 -0.1854,-0.0188 -0.315,-0.4008 -0.5742,-0.9477 -0.788,-1.6545 0,0 -0.5346,-1.8573 -0.5346,-1.8573 -0.1806,-0.5984 -0.4613,-1.1069 -0.8385,-1.5272 -1.2776,0.2992 -2.6281,0.7128 -4.0745,1.2221 -0.608,0.2162 -1.2664,0.4705 -1.9586,0.7375 -0.1859,1.018 -0.4447,1.7308 -0.7939,2.1122 -0.005,0.0195 -0.0333,0.0195 -0.0954,0.0195 -0.1349,0 -0.5175,-0.0829 -1.1539,-0.261 0,0 1.4747,-3.7153 1.4747,-3.7153 1.0186,-2.5446 2.7242,-5.2425 5.1102,-8.0925 1.4631,3.346 2.5715,6.1329 3.3316,8.3468 0.5181,1.5014 0.9171,2.9008 1.2326,4.1986 -0.1295,0.3433 -0.3663,0.4899 -0.7263,0.4899 z"
       style="fill:#000000;fill-rule:evenodd;stroke:#1b1918;stroke-width:0.216;stroke-linecap:butt;stroke-linejoin:miter;stroke-dasharray:none"
       id="path36" />
    <path
       d="m 363.7339,504.7882 c -0.4949,0.9798 -0.7317,2.1503 -0.7317,3.4991 0,0.6618 0.0567,1.406 0.1917,2.2776 0,0 0.3601,2.5319 0.3601,2.5319 0.1125,0.8654 0.1799,1.5908 0.1799,2.1885 0,0.611 -0.0503,1.1324 -0.1461,1.5841 -0.3659,0.0384 -0.6638,0.0637 -0.8952,0.0637 -1.7556,-0.5154 -3.8379,-2.4684 -6.2239,-5.8335 -0.18,-0.2544 -0.9964,-1.4189 -2.4536,-3.5184 -0.1639,0.5595 -0.248,1.2916 -0.2539,2.2078 -0.0108,0.2543 -0.0108,0.6486 0,1.17 0,0 0,1.1833 0,1.1833 0,0.8654 -0.0616,1.6418 -0.1907,2.3036 -0.0343,0.006 -0.1071,0.0255 -0.2142,0.0696 0,0 -0.0955,0.0255 -0.0955,0.0255 -0.1467,0.0575 -0.2645,0.0696 -0.3771,0.0696 -0.2084,0 -0.3718,-0.1137 -0.4671,-0.3366 0.1237,-0.7571 0.2362,-1.7877 0.3374,-3.1048 0.028,-0.35 0.1014,-1.4818 0.2197,-3.4035 0.0787,-1.3359 0.1746,-2.3792 0.2647,-3.1616 0.5346,0.6485 1.4239,1.8573 2.6561,3.6262 1.1592,1.6859 2.1384,2.9964 2.9098,3.8999 1.1925,1.3867 2.4311,2.5 3.6916,3.3077 0,0 -0.1747,-2.22 -0.1747,-2.22 -0.129,-1.5969 -0.1912,-2.9455 -0.1912,-4.0271 0,-1.5648 0.1238,-2.9904 0.3825,-4.2689 0.1244,-0.1719 0.3547,-0.2543 0.6697,-0.2543 0.2196,0 0.3997,0.0443 0.5517,0.1206 z"
       style="fill:#000000;fill-rule:evenodd;stroke:#1b1918;stroke-width:0.216;stroke-linecap:butt;stroke-linejoin:miter;stroke-dasharray:none"
       id="path37" />
    <path
       d="m 379.7281,515.8074 c -0.5004,0.6739 -1.3671,1.0937 -2.6057,1.2401 -0.4612,0.0703 -1.0297,0.083 -1.7111,0.083 -0.225,0 -0.6128,0 -1.1645,-0.007 0,0 -0.8218,-0.0186 -0.8218,-0.0186 -0.5401,-0.007 -1.193,-0.1655 -1.9469,-0.4585 0,0 -2.0153,-0.8019 -2.0153,-0.8019 -0.5287,-0.1271 -0.7928,-0.324 -0.7928,-0.585 0,-0.1652 0.0841,-0.3306 0.2865,-0.5085 0.1576,-0.1528 0.3263,-0.2544 0.4956,-0.3187 0.0782,-0.0253 0.135,-0.0508 0.2079,-0.0508 0.2025,0 0.5399,0.1337 1.0129,0.3754 0.7377,0.401 1.1824,0.6299 1.3282,0.6935 0.563,0.2609 1.0301,0.382 1.4239,0.382 0.2592,0 0.5854,0.0121 0.9793,0.0316 0.8838,0.0575 1.4185,0.0763 1.6156,0.0763 0.7596,0 1.3221,-0.1018 1.7105,-0.2992 0.4897,-0.267 0.7934,-0.7249 0.8893,-1.3741 0.0226,-0.0636 0.0226,-0.1144 0.0226,-0.1654 0,-0.5468 -0.6194,-1.1512 -1.8799,-1.8444 0,0 -2.2172,-1.2342 -2.2172,-1.2342 -2.2457,-1.2222 -3.5288,-2.443 -3.8385,-3.6264 -0.005,-0.0829 -0.0171,-0.1278 -0.0171,-0.1786 0,-0.4765 0.3665,-0.9671 1.0864,-1.4444 0.6021,-0.3874 1.3168,-0.7061 2.1557,-0.9028 0.3322,-0.0891 0.72,-0.1847 1.1593,-0.2865 1.3167,-0.3051 2.3298,-0.4706 3.039,-0.4706 0.456,0 0.681,0.2544 0.681,0.7505 -0.4275,0.3185 -1.2215,0.5983 -2.3862,0.8465 0,0 -2.7128,0.5535 -2.7128,0.5535 -0.8608,0.1781 -1.283,0.5281 -1.283,1.0308 0,0 0,0.1016 0,0.1016 0,0.0188 0.006,0.0696 0.0337,0.1461 0.0789,0.4389 0.5572,0.9355 1.4294,1.4697 0.0793,0.0382 1.0071,0.5977 2.7974,1.6919 1.2096,0.745 2.0877,1.3681 2.6335,1.915 0.2305,0.1659 0.4169,0.4584 0.5626,0.8973 0.1296,0.3688 0.1859,0.7504 0.1859,1.1004 0,0.4773 -0.1125,0.8715 -0.3434,1.1901 z"
       style="fill:#000000;fill-rule:evenodd;stroke:#1b1918;stroke-width:0.216;stroke-linecap:butt;stroke-linejoin:miter;stroke-dasharray:none"
       id="path38" />
    <path
       d="m 387.5735,509.2416 c -0.3771,-1.3486 -0.7318,-2.3098 -1.0692,-2.9074 -0.8781,1.2723 -1.7845,2.653 -2.6903,4.1289 -0.3825,0.617 -0.698,1.279 -0.9456,1.9596 0.2984,-0.1018 0.7993,-0.267 1.4914,-0.5026 0,0 3.6188,-1.2155 3.6188,-1.2155 z m 3.0842,7.9077 c -0.0675,0 -0.135,-0.006 -0.1801,-0.0188 -0.315,-0.4008 -0.5743,-0.9477 -0.7881,-1.6545 0,0 -0.5405,-1.8573 -0.5405,-1.8573 -0.1799,-0.5984 -0.4553,-1.1069 -0.8383,-1.5272 -1.2777,0.2992 -2.6282,0.7128 -4.0688,1.2221 -0.6139,0.2162 -1.2609,0.4705 -1.9585,0.7375 -0.18,1.018 -0.4559,1.7308 -0.7992,2.1122 0,0.0195 -0.0397,0.0195 -0.0789,0.0195 -0.1409,0 -0.5405,-0.0829 -1.1651,-0.261 0,0 1.469,-3.7153 1.469,-3.7153 1.0295,-2.5446 2.724,-5.2425 5.1159,-8.0925 1.4631,3.346 2.5607,6.1329 3.3317,8.3468 0.5121,1.5014 0.9229,2.9008 1.2267,4.1986 -0.129,0.3433 -0.3606,0.4899 -0.7258,0.4899 z"
       style="fill:#000000;fill-rule:evenodd;stroke:#1b1918;stroke-width:0.216;stroke-linecap:butt;stroke-linejoin:miter;stroke-dasharray:none"
       id="path39" />
    <path
       d="m 397.715,505.9587 c 0,-0.4644 -0.6021,-0.6994 -1.7957,-0.6994 -1.1255,0 -2.116,0.1654 -2.9602,0.5087 -0.005,0.1084 -0.0167,0.2417 -0.0167,0.3948 0,0.2925 0.0226,0.7061 0.0675,1.2911 0.0285,0.5662 0.0509,1.0053 0.0509,1.2851 0.0558,0.0448 0.1516,0.0702 0.2813,0.0702 0.0959,0 0.2362,-0.0254 0.4162,-0.0702 0.1918,-0.0448 0.3322,-0.0763 0.4222,-0.0763 0.9621,-0.1842 1.936,-0.7825 2.9324,-1.8132 0.3996,-0.4069 0.6021,-0.7122 0.6021,-0.8908 z m 3.7651,8.1179 c -1.604,1.1832 -3.4897,2.0166 -5.6785,2.532 -0.8893,0.21 -1.8687,0.3941 -2.9379,0.5219 -0.3376,0 -0.6075,-0.1145 -0.8165,-0.3374 -0.2077,-0.2355 -0.3091,-0.5473 -0.3091,-0.9288 0.18,-0.0569 0.3766,-0.0891 0.5797,-0.0891 0.129,0 0.2699,0.007 0.4388,0.0443 0.3824,0.0448 0.6417,0.083 0.7714,0.083 0.2529,0 0.4612,-0.0129 0.6352,-0.083 0,0 2.7354,-0.8334 2.7354,-0.8334 0.7265,-0.2289 1.3002,-0.4196 1.7111,-0.5657 1.4689,-0.5667 2.2061,-1.0372 2.2061,-1.4315 0,-0.0194 -0.0114,-0.0575 -0.028,-0.1016 -0.3996,-1.0756 -2.0093,-1.8266 -4.8009,-2.259 -0.6412,-0.1016 -1.7052,-0.2288 -3.202,-0.3688 -0.0283,0.3054 -0.0509,0.6487 -0.0509,1.0749 0,0.3247 0,0.6427 0.0226,0.9739 0,0 0.0449,1.6725 0.0449,1.6725 0,0.0448 0,0.0577 0,0.0703 0,0 0,0.0449 0,0.0449 0,0.4009 -0.2528,0.5976 -0.7596,0.5976 -0.0953,0 -0.1912,-0.006 -0.2813,-0.0188 -0.1634,-0.9798 -0.2421,-2.214 -0.2421,-3.6903 0,-0.6995 0.0112,-1.3615 0.0285,-1.9846 0,0 0.0675,-2.163 0.0675,-2.163 0.0278,-0.7824 0.0331,-1.4251 0.0331,-1.915 0.9568,-0.528 2.2124,-0.8079 3.7881,-0.8079 1.0692,0 1.9751,0.14 2.7181,0.3943 0.5738,0.1848 0.8556,0.6613 0.8556,1.4122 0,0.2356 -0.0451,0.4391 -0.1468,0.6172 -0.2583,0.5026 -0.5626,0.9162 -0.9001,1.2535 -0.2368,0.2356 -0.5464,0.4706 -0.9513,0.7383 -0.5851,0.3688 -0.9285,0.5976 -1.0468,0.6866 0.3545,0.1144 0.923,0.2357 1.7335,0.3816 0.7596,0.1338 1.3227,0.2797 1.7164,0.433 0.6921,0.2731 1.3227,0.6486 1.8798,1.1385 0.4612,0.4136 0.6981,0.9865 0.6981,1.7241 0,0.5595 -0.1747,0.9416 -0.5121,1.1833 z"
       style="fill:#000000;fill-rule:evenodd;stroke:#1b1918;stroke-width:0.216;stroke-linecap:butt;stroke-linejoin:miter;stroke-dasharray:none"
       id="path40" />
    <path
       d="m 413.2817,513.1476 c 0.1853,-0.496 0.2925,-1.1071 0.2925,-1.8446 0,-0.7128 -0.1072,-1.4256 -0.2925,-2.1122 -0.2255,-0.8019 -0.5572,-1.3936 -0.9793,-1.8071 -1.3006,-1.2529 -2.7129,-1.8894 -4.2155,-1.8894 -0.9793,0 -1.9247,0.3058 -2.8311,0.9228 -0.4217,0.2799 -0.8155,0.8782 -1.1759,1.7684 -0.4056,1.0179 -0.6135,2.0165 -0.6135,3.003 0,0.5342 0.0675,0.9927 0.1747,1.4123 0.3937,1.4248 1.2771,2.3412 2.6672,2.7736 0.4956,0.1593 1.0409,0.2415 1.6152,0.2415 0,0 0.7147,0 0.7147,0 0.7263,0 1.3115,-0.0374 1.7506,-0.1204 1.4015,-0.2484 2.369,-1.0308 2.8929,-2.3479 z m 1.2208,0.5602 c -0.5234,1.9336 -1.778,3.0219 -3.7536,3.3082 -0.5347,0.0637 -1.4015,0.1078 -2.6282,0.1078 -1.9136,0 -3.315,-0.4771 -4.2375,-1.4316 -0.5855,-0.6043 -1.0077,-1.4182 -1.2611,-2.4296 -0.1124,-0.3948 -0.1574,-0.9289 -0.1574,-1.578 0,-1.0181 0.1124,-2.0039 0.3374,-2.9772 0.2647,-1.1579 0.6418,-1.9851 1.1144,-2.507 1.3001,-1.3996 2.6731,-2.099 4.1255,-2.099 1.1983,0 2.5891,0.4894 4.1646,1.4758 0.8212,0.5088 1.4629,1.3741 1.9414,2.6083 0.4108,1.0816 0.6192,2.214 0.6192,3.3912 0,0.763 -0.0905,1.4691 -0.2647,2.1311 z"
       style="fill:#000000;fill-rule:evenodd;stroke:#1b1918;stroke-width:0.216;stroke-linecap:butt;stroke-linejoin:miter;stroke-dasharray:none"
       id="path41" />
    <path
       d="m 421.0479,509.006 c 0,-0.4391 -0.1581,-0.9349 -0.4837,-1.4444 -0.1244,-0.1779 -0.434,-0.5976 -0.929,-1.2208 -0.3043,-0.3566 -0.6075,-0.5473 -0.9118,-0.5473 -0.1913,0 -0.3771,0.0634 -0.5572,0.1907 -0.1521,0.1018 -0.4108,0.3626 -0.7933,0.8084 -0.833,1.2403 -1.2498,2.6974 -1.2498,4.3385 0,0.1847 0.0118,0.3754 0.0342,0.611 0.1464,0.1714 0.3039,0.2603 0.4838,0.2603 0.1238,0 0.3262,-0.0441 0.608,-0.1399 0.7147,-0.2544 1.2269,-0.4384 1.5247,-0.5467 0.5464,-0.2162 0.9911,-0.4453 1.3173,-0.662 0.6412,-0.4196 0.9568,-0.9731 0.9568,-1.6478 z m 6.5898,8.1688 c -0.2642,0.0508 -0.585,0.0701 -0.9568,0.0701 -1.0694,0 -2.2843,-0.2797 -3.63,-0.8272 -0.4103,-0.1719 -1.5868,-0.7376 -3.5283,-1.7048 -1.4291,-0.7066 -2.5606,-1.1578 -3.3936,-1.3485 -0.0392,0.1139 -0.051,0.2417 -0.051,0.4197 0,0.3052 0.0793,0.7636 0.2143,1.3741 0.1463,0.5982 0.225,1.0499 0.225,1.3553 0,0.2603 -0.0502,0.4517 -0.135,0.6103 -0.0396,0.1084 -0.1296,0.1592 -0.2699,0.1592 -0.2925,0 -0.5631,-0.127 -0.7769,-0.3752 0,0 -0.2699,-2.7356 -0.2699,-2.7356 -0.096,-0.9349 -0.1468,-1.7688 -0.1468,-2.5004 0,-2.1759 0.4167,-3.9254 1.2161,-5.2292 0.4896,-0.7957 1.1422,-1.4764 1.9586,-2.0361 0.1965,-0.127 0.3996,-0.2033 0.6128,-0.2033 0.2929,0 0.6246,0.1525 0.991,0.4391 1.8461,1.4308 2.7686,2.9072 2.7686,4.4274 0,0.3566 -0.0563,0.7314 -0.1575,1.1264 -0.1463,0.5467 -0.4726,0.9984 -0.9793,1.3674 -0.3322,0.2227 -0.8271,0.4649 -1.5085,0.694 -0.72,0.2415 -1.1873,0.4069 -1.395,0.5087 0,0 2.6673,1.2723 2.6673,1.2723 2.4593,1.145 4.4682,1.8833 6.0326,2.1884 0.0284,-0.0126 0.0622,-0.0126 0.0793,-0.0126 0.152,0 0.2646,0.0823 0.3654,0.267 0.0791,0.1466 0.1183,0.2992 0.1183,0.4773 0,0.0889 -0.0166,0.1652 -0.0508,0.2162 z"
       style="fill:#000000;fill-rule:evenodd;stroke:#1b1918;stroke-width:0.216;stroke-linecap:butt;stroke-linejoin:miter;stroke-dasharray:none"
       id="path42" />
  </g>
</svg>
