<?xml version="1.0" encoding="UTF-8"?>
<svg version="1.1" xmlns="http://www.w3.org/2000/svg" width="800" height="604">
<path d="M0 0 C264 0 528 0 800 0 C800 199.32 800 398.64 800 604 C536 604 272 604 0 604 C0 404.68 0 205.36 0 0 Z " fill="#FEFEFE" transform="translate(0,0)"/>
<path d="M0 0 C201.3 0 402.6 0 610 0 C610 20.21812302 610 20.21812302 609.3125 27.875 C609.22782471 28.82205811 609.14314941 29.76911621 609.0559082 30.74487305 C607.23451025 49.13040108 603.54631797 67.37971853 598 85 C597.72317383 85.8971875 597.44634766 86.794375 597.16113281 87.71875 C586.71201554 121.33666676 571.05296153 151.22824098 551 180 C551.85991295 179.99000725 551.85991295 179.99000725 552.73719788 179.97981262 C558.72342297 179.91325498 564.7095423 179.86811483 570.69604492 179.83520508 C572.92785922 179.82015259 575.1596441 179.79970602 577.39135742 179.77368164 C580.60603104 179.73714312 583.82031228 179.72023785 587.03515625 179.70703125 C588.02709488 179.69154739 589.01903351 179.67606354 590.04103088 179.66011047 C595.81978013 179.65871813 599.91363453 180.1816917 605 183 C608.89302202 187.20036586 610.38554415 189.97279255 610.26953125 195.7734375 C609.79848414 199.66469624 608.61780119 203.06114772 606 206 C598.96231659 210.72232721 592.60242238 210.5116183 584.3125 210.3125 C582.38071899 210.28929687 582.38071899 210.28929687 580.40991211 210.265625 C572.95288344 210.15431914 565.51002072 209.8799829 558.0625 209.5 C557.23226318 209.46720947 556.40202637 209.43441895 555.54663086 209.40063477 C551.14635308 209.21827318 546.8530001 208.86112626 542.48828125 208.265625 C532.49935271 207.17558225 532.49935271 207.17558225 523.36279297 210.72412109 C518.03035684 215.24888701 513.48478461 220.44579011 508.9609375 225.76171875 C505.13174738 230.13248755 500.63320577 233.51369186 496 237 C494.7924374 237.93551245 493.58544939 238.87176685 492.37890625 239.80859375 C432.38436846 286 432.38436846 286 406 286 C406 286.66 406 287.32 406 288 C406.58963531 288.17015625 407.17927063 288.3403125 407.78677368 288.515625 C414.40792652 290.45994782 420.90401013 292.67040593 427.3984375 295 C428.48726227 295.38840561 429.57608704 295.77681122 430.69790649 296.17698669 C434.25805758 297.4482179 437.81668506 298.72363885 441.375 300 C443.20466309 300.65562424 443.20466309 300.65562424 445.07128906 301.32449341 C452.11117456 303.84771885 459.1491475 306.37621181 466.18568039 308.90877056 C470.65023531 310.51535057 475.11629687 312.11768709 479.58300781 313.71826172 C485.58979278 315.87167461 491.59280167 318.03530857 497.59307861 320.20678711 C499.85004747 321.02209229 502.10813482 321.83430831 504.36737061 322.64331055 C507.51904025 323.77285881 510.66619295 324.9142076 513.8125 326.05859375 C514.73092682 326.38492294 515.64935364 326.71125214 516.59561157 327.04747009 C523.15358152 329.45362759 529.77535533 332.03380711 534.0625 337.75 C535.7099827 343.46127335 534.99549817 348.04587397 532.3125 353.3125 C529.17783375 356.95549051 526.65650713 359.62607902 521.70863342 360.32252502 C513.69579457 360.53731657 507.51799406 358.39595213 500.18359375 355.33984375 C498.94619993 354.84056631 497.70810032 354.34303508 496.46936035 353.84710693 C493.82767648 352.78541344 491.19111943 351.71218211 488.55807495 350.62924194 C484.38215679 348.91178406 480.19608104 347.22015281 476.00805664 345.5324707 C470.93849511 343.48773429 465.87140109 341.43710728 460.80737972 339.37868786 C451.88915162 335.75453671 442.95156657 332.18156158 434 328.640625 C433.36336363 328.38865419 432.72672726 328.13668339 432.07079887 327.8770771 C426.46806125 325.6598795 420.86380003 323.44656526 415.25784302 321.23751831 C392.63315809 312.32193682 392.63315809 312.32193682 382.27734375 307.86328125 C380.88896954 307.27398561 379.50038996 306.68517353 378.11157227 306.09692383 C375.760173 305.10076912 373.43957717 304.07122657 371.11694336 303.0065918 C362.59938349 299.3875722 354.97271304 299.88587269 346 301 C343.11759086 301.35242344 340.23505084 301.70337713 337.3515625 302.046875 C336.60795471 302.13559875 335.86434692 302.22432251 335.09820557 302.31573486 C325.54292619 303.37951361 315.97762374 303.3059338 306.375 303.25 C305.40822327 303.24656586 304.44144653 303.24313171 303.44537354 303.23959351 C220.50598075 302.89459056 144.90452734 270.18318477 86 212 C73.721076 199.442152 73.721076 199.442152 72 196 C63.07073627 194.30416042 53.44246771 194.75629669 44.36300659 194.55499268 C40.26254527 194.46202433 36.16255393 194.3514608 32.0625 194.2421875 C31.26782822 194.22110931 30.47315643 194.20003113 29.65440369 194.17831421 C27.43625765 194.1192959 25.21812834 194.05967883 23 194 C21.2675 193.95407715 21.2675 193.95407715 19.5 193.90722656 C16.81155967 193.82933881 14.12487992 193.73274808 11.4375 193.625 C10.70845459 193.60630859 9.97940918 193.58761719 9.22827148 193.56835938 C5.2947822 193.38619507 2.73802679 192.9433788 0 190 C-0.74355764 184.05153886 -0.74355764 184.05153886 1.19624329 181.30827332 C3.64259796 179.53392065 5.28843556 179.60269889 8.29760742 179.56762695 C9.37850143 179.54783279 10.45939545 179.52803864 11.57304382 179.50764465 C12.73874405 179.50125473 13.90444427 179.49486481 15.10546875 179.48828125 C16.89698112 179.46135445 16.89698112 179.46135445 18.72468567 179.43388367 C22.54558768 179.37962967 26.36636371 179.34583571 30.1875 179.3125 C32.77540822 179.27934035 35.36329977 179.24485198 37.95117188 179.20898438 C44.30066828 179.12389443 50.65018069 179.05560847 57 179 C48.53140965 175.63436353 40.06255293 172.26939835 31.59338284 168.90522099 C26.89040984 167.03704913 22.18763016 165.1683918 17.48500633 163.2993412 C14.44757141 162.09230588 11.40987588 160.88592712 8.37218094 159.67954636 C6.12798105 158.78789267 3.88421224 157.89516049 1.64047241 157.00234985 C-4.97396829 154.37280893 -11.59332462 151.76095957 -18.24169922 149.21826172 C-19.31693344 148.80539413 -20.39216766 148.39252655 -21.49998474 147.96714783 C-23.45145701 147.22032984 -25.40544776 146.48004378 -27.36244202 145.74781799 C-28.20697433 145.42425827 -29.05150665 145.10069855 -29.92163086 144.76733398 C-30.64394394 144.49549789 -31.36625702 144.2236618 -32.11045837 143.94358826 C-34.24378626 142.87825944 -35.52044736 141.87006185 -37 140 C-37.75 134 -37.75 134 -35.5 131 C-27.84868661 127.93947464 -18.28037493 133.18633482 -11.0859375 135.83984375 C-9.7443844 136.32762374 -8.40255175 136.81463552 -7.06045532 137.30091858 C-3.54530537 138.57675934 -0.03384076 139.86244793 3.47686768 141.15045166 C7.04242962 142.45682817 10.61110503 143.75463641 14.1796875 145.05273438 C18.19590859 146.51372782 22.21185891 147.9753892 26.2250061 149.44480896 C27.41999725 149.88188675 28.6149884 150.31896454 29.84619141 150.76928711 C30.89239655 151.15265732 31.93860168 151.53602753 33.01651001 151.93101501 C35.99723457 152.99900915 38.99244312 154.01037794 42 155 C41.65332275 154.38294189 41.30664551 153.76588379 40.94946289 153.13012695 C27.77213069 129.5573196 17.97434598 105.75272995 10 80 C9.72140137 79.10522949 9.44280273 78.21045898 9.15576172 77.28857422 C5.68883412 65.8329453 3.93103826 54.06527206 2.1875 42.25 C2.07586517 41.5241571 1.96423035 40.79831421 1.84921265 40.05047607 C-0.20473583 26.49307428 0 13.95253219 0 0 Z " fill="#040405" transform="translate(80,201)"/>
<path d="M0 0 C1.83581131 0.66554146 1.83581131 0.66554146 3.70870972 1.3445282 C7.01505155 2.54333608 10.31759034 3.75230604 13.61948395 4.96330261 C17.06428458 6.22471397 20.51252377 7.47665323 23.96044922 8.72949219 C29.50829976 10.74658374 35.05421759 12.76889587 40.59863281 14.79541016 C47.49151372 17.31458074 54.38906021 19.82070686 61.2890625 22.3203125 C76.11634153 27.69503271 76.11634153 27.69503271 79.76286912 29.02724117 C81.36735046 29.60922446 82.97447012 30.18403048 84.58512855 30.74869353 C89.10676264 32.35342707 93.46473206 34.10773441 97.80170059 36.16212368 C118.09592079 45.3315346 137.51657394 45.03295543 159.403759 44.79834092 C164.7375416 44.75248223 170.07125002 44.7657151 175.40518188 44.77128601 C184.62609963 44.77310771 193.84629202 44.73875744 203.06700897 44.67907906 C216.44914466 44.59263562 229.83094472 44.56377282 243.21332839 44.54825377 C265.00049021 44.52155933 286.78727505 44.45107263 308.57421875 44.35180664 C329.60348762 44.25610321 350.63268402 44.1780334 371.66210938 44.1262207 C372.95466793 44.12302807 374.24722648 44.11983543 375.57895347 44.11654604 C384.6463836 44.09436834 393.71381626 44.07337431 402.78125 44.05273438 C412.91685057 44.02962584 423.0524505 44.00627344 433.18804932 43.98240662 C434.42136436 43.97953608 435.6546794 43.97666555 436.92536762 43.97370803 C453.82304433 43.93398417 470.7205931 43.8782088 487.61817521 43.80939735 C494.43662715 43.78223356 501.25509052 43.75807795 508.07355389 43.73397435 C513.32502524 43.71509738 518.5764687 43.69421544 523.82790756 43.66772079 C544.61564085 43.56394768 565.40097517 43.57486112 586.18680075 43.91296881 C588.26588266 43.94532761 590.3450424 43.97306161 592.42425105 43.99586702 C595.30409461 44.02926432 598.1829922 44.08155024 601.06244278 44.13903713 C601.90924737 44.14557665 602.75605196 44.15211617 603.6285173 44.15885385 C608.93679627 44.29195265 612.71176387 45.14916769 617.421875 47.65234375 C621.31489702 51.85270961 622.80741915 54.6251363 622.69140625 60.42578125 C622.22035914 64.31703999 621.03967619 67.71349147 618.421875 70.65234375 C611.38419159 75.37467096 605.02429738 75.16396205 596.734375 74.96484375 C594.80259399 74.94164062 594.80259399 74.94164062 592.83178711 74.91796875 C585.37475844 74.80666289 577.93189572 74.53232665 570.484375 74.15234375 C569.65413818 74.11955322 568.82390137 74.0867627 567.96850586 74.05297852 C563.56822808 73.87061693 559.2748751 73.51347001 554.91015625 72.91796875 C544.92122771 71.827926 544.92122771 71.827926 535.78466797 75.37646484 C530.45223184 79.90123076 525.90665961 85.09813386 521.3828125 90.4140625 C517.55362238 94.7848313 513.05508077 98.16603561 508.421875 101.65234375 C507.2143124 102.5878562 506.00732439 103.5241106 504.80078125 104.4609375 C444.80624346 150.65234375 444.80624346 150.65234375 418.421875 150.65234375 C418.421875 151.31234375 418.421875 151.97234375 418.421875 152.65234375 C419.01151031 152.8225 419.60114563 152.99265625 420.20864868 153.16796875 C426.82980152 155.11229157 433.32588513 157.32274968 439.8203125 159.65234375 C440.90913727 160.04074936 441.99796204 160.42915497 443.11978149 160.82933044 C446.67993258 162.10056165 450.23856006 163.3759826 453.796875 164.65234375 C455.62653809 165.30796799 455.62653809 165.30796799 457.49316406 165.97683716 C464.53304956 168.5000626 471.5710225 171.02855556 478.60755539 173.56111431 C483.07211031 175.16769432 487.53817187 176.77003084 492.00488281 178.37060547 C498.01166778 180.52401836 504.01467667 182.68765232 510.01495361 184.85913086 C512.27192247 185.67443604 514.53000982 186.48665206 516.78924561 187.2956543 C519.94091525 188.42520256 523.08806795 189.56655135 526.234375 190.7109375 C527.15280182 191.03726669 528.07122864 191.36359589 529.01748657 191.69981384 C535.57545652 194.10597134 542.19723033 196.68615086 546.484375 202.40234375 C548.1318577 208.1136171 547.41737317 212.69821772 544.734375 217.96484375 C541.59970875 221.60783426 539.07838213 224.27842277 534.13050842 224.97486877 C526.11766957 225.18966032 519.93986906 223.04829588 512.60546875 219.9921875 C511.36807493 219.49291006 510.12997532 218.99537883 508.89123535 218.49945068 C506.24955148 217.43775719 503.61299443 216.36452586 500.97994995 215.28158569 C496.80403179 213.56412781 492.61795604 211.87249656 488.42993164 210.18481445 C483.36037011 208.14007804 478.29327609 206.08945103 473.22925472 204.03103161 C464.31102662 200.40688046 455.37344157 196.83390533 446.421875 193.29296875 C445.78523863 193.04099794 445.14860226 192.78902714 444.49267387 192.52942085 C438.88993625 190.31222325 433.28567503 188.09890901 427.67971802 185.88986206 C405.05503309 176.97428057 405.05503309 176.97428057 394.69921875 172.515625 C393.31084454 171.92632936 391.92226496 171.33751728 390.53344727 170.74926758 C388.182048 169.75311287 385.86145217 168.72357032 383.53881836 167.65893555 C375.02125849 164.03991595 367.39458804 164.53821644 358.421875 165.65234375 C355.53946586 166.00476719 352.65692584 166.35572088 349.7734375 166.69921875 C348.65802582 166.83230438 348.65802582 166.83230438 347.52008057 166.96807861 C337.96480119 168.03185736 328.39949874 167.95827755 318.796875 167.90234375 C317.83009827 167.89890961 316.86332153 167.89547546 315.86724854 167.89193726 C232.92785575 167.54693431 157.32640234 134.83552852 98.421875 76.65234375 C86.142951 64.09449575 86.142951 64.09449575 84.421875 60.65234375 C75.49261127 58.95650417 65.86434271 59.40864044 56.78488159 59.20733643 C52.68442027 59.11436808 48.58442893 59.00380455 44.484375 58.89453125 C43.68970322 58.87345306 42.89503143 58.85237488 42.07627869 58.83065796 C39.85813265 58.77163965 37.64000334 58.71202258 35.421875 58.65234375 C34.266875 58.62172852 33.111875 58.59111328 31.921875 58.55957031 C29.23343467 58.48168256 26.54675492 58.38509183 23.859375 58.27734375 C23.13032959 58.25865234 22.40128418 58.23996094 21.65014648 58.22070312 C17.7166572 58.03853882 15.15990179 57.59572255 12.421875 54.65234375 C11.67831736 48.70388261 11.67831736 48.70388261 13.61811829 45.96061707 C16.06447296 44.1862644 17.71031056 44.25504264 20.71948242 44.2199707 C22.34082344 44.19027946 22.34082344 44.19027946 23.99491882 44.1599884 C25.16061905 44.15359848 26.32631927 44.14720856 27.52734375 44.140625 C28.72168533 44.1226738 29.91602692 44.1047226 31.14656067 44.08622742 C34.96746268 44.03197342 38.78823871 43.99817946 42.609375 43.96484375 C45.19728322 43.9316841 47.78517477 43.89719573 50.37304688 43.86132812 C56.72254328 43.77623818 63.07205569 43.70795222 69.421875 43.65234375 C60.95328465 40.28670728 52.48442793 36.9217421 44.01525784 33.55756474 C39.31228484 31.68939288 34.60950516 29.82073555 29.90688133 27.95168495 C26.86944641 26.74464963 23.83175088 25.53827087 20.79405594 24.33189011 C18.54985605 23.44023642 16.30608724 22.54750424 14.06234741 21.6546936 C7.44790671 19.02515268 0.82855038 16.41330332 -5.81982422 13.87060547 C-6.89505844 13.45773788 -7.97029266 13.0448703 -9.07810974 12.61949158 C-11.02958201 11.87267359 -12.98357276 11.13238753 -14.94056702 10.40016174 C-15.78509933 10.07660202 -16.62963165 9.7530423 -17.49975586 9.41967773 C-18.22206894 9.14784164 -18.94438202 8.87600555 -19.68858337 8.59593201 C-21.82191126 7.53060319 -23.09857236 6.5224056 -24.578125 4.65234375 C-25.328125 -1.34765625 -25.328125 -1.34765625 -23.078125 -4.34765625 C-15.82334601 -7.24956784 -6.82414471 -2.51626445 0 0 Z " fill="#2EA637" transform="translate(67.578125,336.34765625)"/>
<path d="M0 0 C21.55626372 -0.12865433 43.06134309 0.17437851 64.60561752 0.86721802 C71.49979041 1.08677486 78.39444913 1.29092979 85.2890625 1.49609375 C86.42911901 1.53023188 86.42911901 1.53023188 87.59220695 1.56505966 C97.58934826 1.86314191 107.5856783 2.11294609 117.5859375 2.28515625 C119.28024147 2.31451515 119.28024147 2.31451515 121.0087738 2.34446716 C126.10122014 2.43011491 131.19360608 2.50678905 136.28637695 2.57006836 C145.31479841 2.69939355 154.32952934 2.94408022 163.34716797 3.40405273 C164.11161382 3.44296725 164.87605967 3.48188177 165.66367054 3.52197552 C166.45855224 3.56246423 167.25343393 3.60295294 168.07240295 3.64466858 C190.34862198 4.77708372 212.62564037 5.46238117 234.921875 6.03515625 C236.15447316 6.06691019 236.15447316 6.06691019 237.41197228 6.09930563 C248.45438672 6.38344351 259.49699435 6.65963054 270.53967285 6.93328857 C283.50805953 7.25468766 296.4763543 7.5796579 309.44448781 7.91112036 C314.2698416 8.03424052 319.09525893 8.15423538 323.92075682 8.27156651 C326.91954796 8.3450748 329.91827 8.42116186 332.91698074 8.49787331 C334.93301533 8.54867312 336.94912696 8.5963872 338.96524048 8.64395142 C347.66646023 8.86995666 356.3208192 9.36055065 365 10 C356.18753441 20.82674343 346.05052327 30.49181934 335 39 C334.41911621 39.45197754 333.83823242 39.90395508 333.23974609 40.36962891 C311.52244919 57.22459242 288.11536497 70.84281124 263 82 C262.14100098 82.38446289 261.28200195 82.76892578 260.39697266 83.16503906 C257.90511692 84.25703447 255.39754754 85.293696 252.875 86.3125 C252.14224854 86.63307373 251.40949707 86.95364746 250.65454102 87.28393555 C241.15874632 90.92593787 231.0641995 85.44171675 222.0390625 82.10546875 C221.00063202 81.72594559 219.96220154 81.34642242 218.89230347 80.95539856 C216.64632712 80.13406052 214.40107917 79.3107284 212.15649414 78.4855957 C206.64743782 76.46059381 201.13389816 74.44786468 195.62076569 72.43399429 C193.67971226 71.72476871 191.73885981 71.01499528 189.79803467 70.30514526 C176.98761319 65.62144412 164.15658995 60.99543034 151.32284546 56.37609863 C144.90596122 54.0664087 138.48989894 51.75443841 132.07421875 49.44140625 C131.44167238 49.21335674 130.80912601 48.98530724 130.15741158 48.75034714 C114.30747833 43.03502152 98.4728024 37.27777866 82.64331055 31.50610352 C71.06198446 27.28502557 59.47313719 23.0862987 47.8699894 18.92564201 C43.81935088 17.47244061 39.76995026 16.01579178 35.72049236 14.55930424 C32.46139372 13.38757233 29.20136377 12.21857576 25.93911743 11.05563354 C22.33870583 9.77103788 18.74136173 8.47817605 15.14453125 7.18359375 C14.07126587 6.80328003 12.99800049 6.42296631 11.89221191 6.03112793 C10.90660278 5.67466187 9.92099365 5.3181958 8.90551758 4.95092773 C8.04992752 4.64485092 7.19433746 4.33877411 6.31282043 4.02342224 C3.90135504 2.95634964 2.0396594 1.65984339 0 0 Z " fill="#030404" transform="translate(241,399)"/>
<path d="M0 0 C16.93447195 11.47661029 28.20317715 28.21606804 32.41015625 48.19921875 C34.94920615 63.20681726 31.65895281 77.5141499 25.06640625 91.078125 C24.6590625 91.91859375 24.25171875 92.7590625 23.83203125 93.625 C14.79665919 110.31386369 -1.40294685 120.21490078 -18.93359375 126.078125 C-37.01239302 130.38383616 -57.25897815 127.46382853 -73.17236328 118.18945312 C-89.92489284 107.61868593 -100.15478003 91.44299364 -104.79980469 72.30419922 C-108.70654054 54.0365112 -104.97942078 36.82342124 -94.93359375 21.078125 C-83.67778091 4.90650818 -68.89360626 -4.49453699 -49.93359375 -8.921875 C-49.29397705 -9.09549561 -48.65436035 -9.26911621 -47.99536133 -9.44799805 C-31.71650954 -13.18953165 -14.09362938 -8.11397937 0 0 Z " fill="#FCFCFC" transform="translate(447.93359375,239.921875)"/>
<path d="M0 0 C5.00862763 1.76775093 8.0954881 4.62881207 11 9 C12.31669769 11.91135799 13.24205318 14.89853188 14.15625 17.95703125 C14.42586548 18.81826096 14.69548096 19.67949066 14.9732666 20.56681824 C15.82886378 23.31144627 16.66456965 26.06167504 17.5 28.8125 C18.05992359 30.61693238 18.6211115 32.42097295 19.18359375 34.22460938 C22.00066852 43.29304752 24.7344506 52.38554971 27.37731934 61.50630188 C28.23065127 64.44198147 29.11969897 67.33869368 30.13867188 70.22192383 C31 73 31 73 31 77 C31.66 77 32.32 77 33 77 C33.2671582 75.70956787 33.53431641 74.41913574 33.80957031 73.08959961 C34.9139358 68.13065989 36.41418357 63.3732447 38.046875 58.56640625 C38.48740204 57.2511924 38.48740204 57.2511924 38.93682861 55.90940857 C39.87029009 53.12565228 40.80997727 50.34404664 41.75 47.5625 C42.67070148 44.82297606 43.5901387 42.08303049 44.50933838 39.34300232 C45.11591478 37.53890308 45.72474841 35.73556114 46.33587646 33.93299866 C47.81427403 29.56804804 49.26256172 25.19798559 50.64160156 20.80053711 C50.90289856 19.97984238 51.16419556 19.15914764 51.43341064 18.31358337 C51.92002922 16.78028192 52.3969628 15.24385704 52.86199951 13.70387268 C54.76552251 7.75630188 57.60457085 4.0987262 63 1 C66.71204487 -0.85602244 70.9487305 -0.44875601 75 0 C81.92639644 3.46319822 85.13247011 8.54078682 87.56542969 15.71801758 C87.79034592 16.37223694 88.01526215 17.0264563 88.24699402 17.70050049 C88.98169803 19.84532795 89.70184 21.9947397 90.421875 24.14453125 C90.93092926 25.63984643 91.44089157 27.13485277 91.95172119 28.62956238 C93.28908315 32.55066696 94.61411835 36.47582822 95.93658447 40.40197754 C97.29011174 44.41309827 98.65531792 48.42023827 100.01953125 52.42773438 C102.69109983 60.28131854 105.34965227 68.1392292 108 76 C109.60249835 71.24745193 111.19443343 66.50155599 112.578125 61.6796875 C112.84850586 60.74334473 113.11888672 59.80700195 113.39746094 58.84228516 C113.67879883 57.86308105 113.96013672 56.88387695 114.25 55.875 C117.47045863 44.74552482 120.80978192 33.65537185 124.21630859 22.58154297 C124.7563398 20.80263642 125.28463231 19.02013813 125.80322266 17.23486328 C126.06151855 16.34782715 126.31981445 15.46079102 126.5859375 14.546875 C126.9269751 13.35723145 126.9269751 13.35723145 127.27490234 12.14355469 C129.03642551 6.93608891 132.23012818 2.69601451 137 0 C142.909949 -0.88104767 148.00666513 -0.483722 153 3 C156.09210756 5.68878918 157.74165278 7.23312944 158.33729553 11.30680847 C158.4136187 18.95231199 156.74634792 25.34350661 154.30859375 32.55078125 C153.92566666 33.72601852 153.54273956 34.9012558 153.14820862 36.11210632 C151.92639813 39.85072788 150.68259282 43.58157585 149.4375 47.3125 C148.62805128 49.77359373 147.82009626 52.23517926 147.01367188 54.69726562 C145.4347197 59.5131852 143.84852986 64.32662472 142.25708008 69.13842773 C140.14610715 75.53597445 138.07912239 81.94670326 136.0390625 88.3671875 C135.7588475 89.24889114 135.47863251 90.13059479 135.18992615 91.03901672 C133.73914083 95.62047504 132.32077598 100.21010024 130.9375 104.8125 C129.37458597 109.87527281 127.75441622 114.91648507 126.0625 119.9375 C125.71916626 121.0035144 125.71916626 121.0035144 125.36889648 122.09106445 C123.45798037 127.64871681 120.90280132 132.27401003 115.6875 135.375 C110.26466572 136.63612425 106.57732409 136.83330329 101.6875 134.25 C97.37847037 130.64244031 95.54949676 127.28312481 93.70336914 121.99731445 C93.27604996 120.78537918 92.84873077 119.57344391 92.40846252 118.32478333 C91.95065893 117.00429471 91.49289108 115.6837937 91.03515625 114.36328125 C90.5565032 113.00024973 90.07711601 111.63747581 89.59703064 110.27494812 C88.33497662 106.68840311 87.08074672 103.09917692 85.82879639 99.50909424 C83.83055937 93.78113311 81.82318735 88.05639278 79.81069756 82.33342552 C79.11379961 80.34680062 78.42188851 78.35849161 77.73048401 76.36994934 C75.41489715 69.76593971 72.95773137 63.34364021 70 57 C69.68505836 57.93269463 69.68505836 57.93269463 69.36375427 58.88423157 C67.1436511 65.45732554 64.91986217 72.02916474 62.6940918 78.6003418 C61.86798346 81.04078813 61.04276198 83.48153488 60.21850586 85.92260742 C57.8645962 92.89275572 55.49539385 99.85729432 53.09783936 106.81256104 C52.38969259 108.86857642 51.68489141 110.92574862 50.98419189 112.98431396 C50.07862249 115.63436933 49.15417319 118.2769423 48.22265625 120.91796875 C47.96705429 121.67572098 47.71145233 122.43347321 47.44810486 123.21418762 C45.49770281 128.63852927 42.85936165 132.33203904 37.75 135.3125 C33.22036676 136.44490831 28.59962796 137.54918895 24.38825989 135.03952026 C18.43070173 130.49110607 16.67045639 125.13453648 14.41015625 118.1640625 C13.99798355 116.9536026 13.58581085 115.7431427 13.16114807 114.4960022 C12.00022443 111.0834331 10.86831062 107.66181104 9.74051666 104.23817444 C8.4367386 100.2975707 7.10653996 96.36586093 5.78076172 92.43261719 C2.59957574 82.97613646 -0.54412756 73.50739919 -3.68096924 64.03613281 C-6.02962008 56.94611159 -8.38286412 49.85761621 -10.7377758 42.76967239 C-11.5529964 40.31383445 -12.36616205 37.85732317 -13.17909241 35.40072632 C-13.67214418 33.91475251 -14.16525886 32.42879956 -14.65844727 30.94287109 C-14.88226074 30.2646933 -15.10607422 29.5865155 -15.33666992 28.88778687 C-16.50339379 25.37764009 -16.50339379 25.37764009 -18 22 C-18.50502343 16.46957948 -18.73807257 11.58969476 -16.375 6.5 C-11.34264899 1.20278841 -7.25388887 -1.17748497 0 0 Z " fill="#FCFCFC" transform="translate(177,231)"/>
<path d="M0 0 C9.73971319 4.37293245 16.60568581 15.93090639 23.046875 24.2265625 C26.13930688 28.19927613 29.31468717 32.10162053 32.5 36 C36.98076822 41.48846482 41.38967387 47.02488881 45.74365234 52.61425781 C50.21750712 58.33021529 54.84637773 63.91674222 59.49389648 69.49194336 C60.06567627 70.1803833 60.63745605 70.86882324 61.2265625 71.578125 C61.99347412 72.49706543 61.99347412 72.49706543 62.77587891 73.43457031 C64 75 64 75 65 77 C65.00364563 76.18869125 65.00729126 75.37738251 65.01104736 74.54148865 C65.04899538 66.8762916 65.10592459 59.21157693 65.18390274 51.54669094 C65.2233253 47.6065504 65.25553907 43.66663158 65.27099609 39.72631836 C65.28619756 35.91996929 65.32070362 32.11423 65.36830902 28.30815315 C65.38308713 26.85983661 65.39103896 25.41143299 65.39188385 23.96304131 C65.4027445 14.67608525 65.91504563 8.82767335 72.0625 1.5625 C77.11718337 -1.12616137 82.67095964 -0.97733295 88.12890625 0.625 C92.42007715 2.70107404 94.23632796 5.52222639 96.182724 9.63206482 C97.69447791 14.01214605 97.55487751 18.37974704 97.51757812 22.97070312 C97.5245874 24.04166733 97.53159668 25.11263153 97.53881836 26.21604919 C97.55634946 29.73805057 97.54479225 33.25924118 97.53125 36.78125 C97.5339463 39.23930006 97.53782987 41.69734909 97.54284668 44.15539551 C97.54873515 49.2998269 97.54019935 54.44397994 97.52148438 59.58837891 C97.49869575 66.17235726 97.51182226 72.75568331 97.53577423 79.33963776 C97.55024951 84.41323738 97.54561816 89.48668314 97.53526306 94.56028748 C97.53260059 96.98750384 97.5358486 99.41473432 97.54518127 101.8419342 C97.55537485 105.23809653 97.53980492 108.63321221 97.51757812 112.02929688 C97.52567505 113.02589828 97.53377197 114.02249969 97.54211426 115.04930115 C97.46849669 121.14145051 96.60041273 125.96327337 93 131 C88.0007204 135.16606633 83.55321189 135.52306539 77.16015625 135.82421875 C69.15429805 133.73616426 63.93095094 125.77511766 59.1875 119.4375 C57.96781616 117.83826076 56.74775993 116.23930545 55.52734375 114.640625 C54.93163574 113.85494141 54.33592773 113.06925781 53.72216797 112.25976562 C51.26818638 109.03974102 48.76162151 105.86261987 46.25 102.6875 C42.38717472 97.78562584 38.56745428 92.85260693 34.77294922 87.89770508 C32.60427705 85.07036418 30.42030973 82.25662551 28.2109375 79.4609375 C27.73785156 78.86216797 27.26476562 78.26339844 26.77734375 77.64648438 C25.88865019 76.52385895 24.99823394 75.40259332 24.10546875 74.28320312 C21.25103601 70.67783501 18.52296238 66.99250644 15.82275391 63.27001953 C15.10584381 62.28228546 14.38893372 61.29455139 13.65029907 60.27688599 C13.10570038 59.52551361 12.56110168 58.77414124 12 58 C11.99635437 58.79656006 11.99270874 59.59312012 11.98895264 60.41381836 C11.95097641 67.94626242 11.89401557 75.47821714 11.81609726 83.01034546 C11.77670472 86.88207616 11.74447637 90.75358224 11.72900391 94.62548828 C11.71378248 98.36700741 11.67924163 102.10790865 11.63169098 105.84915161 C11.61693328 107.27152108 11.60896222 108.69397879 11.60811615 110.11642456 C11.59857494 118.11910765 11.4710102 124.2183849 7 131 C3.41940533 134.49326309 0.42856406 135.31837131 -4.4375 135.625 C-9.29075105 135.42690812 -11.9823378 134.31589598 -15.5625 131.09375 C-20.08699482 124.50372493 -20.43962801 117.94096179 -20.40405273 110.21289062 C-20.41091599 109.16143356 -20.41777924 108.1099765 -20.42485046 107.0266571 C-20.44307119 103.56971529 -20.43928799 100.11322928 -20.43359375 96.65625 C-20.43815737 94.2430405 -20.44346348 91.8298323 -20.44947815 89.41662598 C-20.45839967 84.36640126 -20.4559964 79.31633477 -20.44604492 74.26611328 C-20.43454892 67.8032228 -20.45478199 61.34087818 -20.48396206 54.87805939 C-20.50232997 49.89712065 -20.50203049 44.91631263 -20.49632454 39.93534851 C-20.49617144 37.55278253 -20.50220629 35.17020762 -20.51461601 32.78767395 C-20.52953701 29.45380625 -20.51884013 26.12094612 -20.50170898 22.78710938 C-20.51621094 21.32025948 -20.51621094 21.32025948 -20.53100586 19.82377625 C-20.46563878 13.73131648 -19.49983033 9.07484074 -16 4 C-11.1919769 -0.57906962 -6.33892761 -0.97842232 0 0 Z " fill="#E20B18" transform="translate(447,44)"/>
<path d="M0 0 C3.92837703 -0.12530401 7.85595202 -0.21512093 11.78588867 -0.2746582 C13.76587911 -0.31162947 15.74531571 -0.37522243 17.72460938 -0.43945312 C25.10924883 -0.53292957 30.48937999 0.0673408 37.04321289 3.4909668 C40.57837603 5.29518142 44.19056876 6.71314897 47.89453125 8.12890625 C48.97348412 8.54579964 48.97348412 8.54579964 50.07423401 8.97111511 C52.31917165 9.83793319 54.565675 10.70058721 56.8125 11.5625 C69.16647925 16.31057364 81.47212597 21.17229226 93.75688171 26.09655762 C103.69881618 30.08157269 113.64789656 34.04828621 123.6015625 38.00390625 C124.3595237 38.30515348 125.11748489 38.60640072 125.89841461 38.91677666 C130.64986131 40.80513575 135.40152228 42.69295517 140.15326309 44.58057404 C143.52496582 45.92002179 146.8965816 47.25968836 150.26820087 48.59934616 C158.96070539 52.05315782 167.65341068 55.50646387 176.34621143 58.95952988 C182.1324544 61.25804494 187.91856521 63.5568924 193.70458984 65.85595703 C201.31423889 68.87962841 208.92410027 71.90276487 216.53411865 74.92550659 C219.32394751 76.03365627 222.11370104 77.14199521 224.90338135 78.2505188 C228.17890116 79.55209558 231.45468531 80.8530056 234.73054504 82.15372658 C236.62031318 82.90444181 238.50969898 83.65611301 240.39904785 84.40788269 C246.55152252 86.85366722 252.71040955 89.28126103 258.88336277 91.67495918 C261.97074017 92.8723785 265.05628615 94.07448198 268.14185143 95.27656174 C269.62963458 95.85439637 271.11840823 96.42968764 272.60819435 97.00233841 C274.66790504 97.79411124 276.72421936 98.59416065 278.7800293 99.39599609 C279.95881149 99.85138763 281.13759369 100.30677917 282.35209656 100.77597046 C285 102 285 102 286 104 C283.06321053 104.48388552 280.12567724 104.96217411 277.1875 105.4375 C276.37345703 105.57220703 275.55941406 105.70691406 274.72070312 105.84570312 C261.40264337 107.98703822 248.27357319 108.20393204 234.8125 108.1875 C233.33611053 108.18609512 233.33611053 108.18609512 231.82989502 108.18466187 C148.67448981 108.01290562 73.0997109 75.23739099 14 17 C11.50585301 14.47020415 9.05339973 11.90539328 6.625 9.3125 C6.07134766 8.72428467 5.51769531 8.13606934 4.94726562 7.5300293 C2.65688255 5.04014948 1.08221023 3.24663069 0 0 Z " fill="#040405" transform="translate(152,396)"/>
<path d="M0 0 C5.2322277 1.7440759 7.32310953 4.2410836 10 9 C10.90208123 11.7062437 11.12227599 13.23850986 11.11352539 16.01245117 C11.11340454 16.824198 11.11328369 17.63594482 11.11315918 18.47229004 C11.10548523 19.744776 11.10548523 19.744776 11.09765625 21.04296875 C11.09664917 21.82627563 11.09564209 22.60958252 11.09460449 23.41662598 C11.08937588 26.34026556 11.07541461 29.26388426 11.0625 32.1875 C11.041875 38.725625 11.02125 45.26375 11 52 C27.17 52 43.34 52 60 52 C59.80274348 38.86666123 59.80274348 38.86666123 59.54956055 25.734375 C59.53494074 24.07293311 59.52220361 22.41147313 59.51171875 20.75 C59.48613892 19.90566406 59.46055908 19.06132813 59.4342041 18.19140625 C59.42964203 11.91398965 61.07503525 7.89828885 65 3 C68.23498916 -0.04469568 71.1393929 -0.24556829 75.4375 -0.4375 C80.41762684 -0.27015703 83.32632044 0.41592238 87 4 C91.18625355 10.08229005 91.57617528 15.75833403 91.51757812 22.97070312 C91.5245874 24.04166733 91.53159668 25.11263153 91.53881836 26.21604919 C91.55634946 29.73805057 91.54479225 33.25924118 91.53125 36.78125 C91.5339463 39.23930006 91.53782987 41.69734909 91.54284668 44.15539551 C91.54873515 49.2998269 91.54019935 54.44397994 91.52148438 59.58837891 C91.49869575 66.17235726 91.51182226 72.75568331 91.53577423 79.33963776 C91.55024951 84.41323738 91.54561816 89.48668314 91.53526306 94.56028748 C91.53260059 96.98750384 91.5358486 99.41473432 91.54518127 101.8419342 C91.55537485 105.23809653 91.53980492 108.63321221 91.51757812 112.02929688 C91.52567505 113.02589828 91.53377197 114.02249969 91.54211426 115.04930115 C91.46803791 121.1794162 90.5430684 125.89985912 87 131 C82.41877682 135.25399295 79.43553393 136.36574206 73.31640625 136.27734375 C69.68836842 135.84295811 67.70542072 134.39083691 65 132 C61.6776294 127.6001038 59.87030143 124.22721141 59.88647461 118.7121582 C59.88659546 117.83950317 59.88671631 116.96684814 59.88684082 116.06774902 C59.89195679 115.15464966 59.89707275 114.24155029 59.90234375 113.30078125 C59.90335083 112.45849976 59.90435791 111.61621826 59.90539551 110.74841309 C59.91062616 107.60309487 59.92458743 104.45779606 59.9375 101.3125 C59.958125 94.279375 59.97875 87.24625 60 80 C43.5 80 27 80 10 80 C10.11852171 94.53947587 10.11852171 94.53947587 10.27026367 109.07861328 C10.27903027 110.90917434 10.2866738 112.73974127 10.29296875 114.5703125 C10.30831665 115.51124756 10.32366455 116.45218262 10.33947754 117.42163086 C10.34158296 122.72308265 9.97583117 126.41393381 7 131 C3.5717552 134.26861478 -0.36596613 136.29760176 -5.125 136.5625 C-10.71577788 135.75093547 -13.57980587 133.57372863 -17.3125 129.4375 C-19.67963221 126.01830903 -20.12578347 123.44397142 -20.14044189 119.38969421 C-20.14615204 118.44344177 -20.15186218 117.49718933 -20.15774536 116.52226257 C-20.15886322 115.48584122 -20.15998108 114.44941986 -20.16113281 113.3815918 C-20.16609772 112.288638 -20.17106262 111.1956842 -20.17617798 110.0696106 C-20.19080877 106.44614029 -20.19760315 102.82271377 -20.203125 99.19921875 C-20.20887568 96.68439228 -20.21463342 94.16956582 -20.22039795 91.65473938 C-20.22956637 87.05267715 -20.23586563 82.4506275 -20.2388947 77.84855717 C-20.24337348 71.08162867 -20.26091425 64.31490236 -20.2898953 57.54803532 C-20.31414482 51.68168792 -20.3218404 45.81540781 -20.32357025 39.94901466 C-20.3265985 37.45593986 -20.3346328 34.96286594 -20.34775543 32.46982384 C-20.36480412 28.98192391 -20.36293825 25.49451645 -20.35644531 22.0065918 C-20.3656601 20.97624313 -20.37487488 19.94589447 -20.3843689 18.88432312 C-20.35299203 13.50543109 -20.080149 9.61985046 -17 5 C-11.37204762 -0.07888386 -7.41234994 -0.61579523 0 0 Z " fill="#E20A18" transform="translate(250,44)"/>
<path d="M0 0 C6.97367761 3.36230885 10.33592517 9.17725256 13.46875 16.01171875 C13.78532562 16.68799316 14.10190125 17.36426758 14.42807007 18.06103516 C15.45863211 20.26685574 16.4794012 22.47705424 17.5 24.6875 C18.22226601 26.23894572 18.94509139 27.79013114 19.66845703 29.34106445 C21.46398907 33.19537192 23.2514413 37.05335376 25.03527832 40.91308594 C26.38304396 43.82861185 27.73482906 46.742272 29.0859375 49.65625 C30.96590109 53.71719264 32.83856866 57.7814102 34.70703125 61.84765625 C36.93202931 66.68796561 39.16836562 71.5228662 41.41107178 76.35499573 C43.05433374 79.89599573 44.69533582 83.4380412 46.33624268 86.98013306 C47.14592346 88.72650219 47.95657339 90.47242236 48.76824951 92.21786499 C49.91198899 94.67786149 51.05205053 97.1395332 52.19140625 99.6015625 C52.70159554 100.69536476 52.70159554 100.69536476 53.22209167 101.81126404 C60.44578004 117.45997093 60.44578004 117.45997093 58 125 C55.83209061 128.59722504 53.28137715 131.18134238 49.75 133.4375 C43.94262884 134.62537137 39.10125338 135.38448342 33.98828125 132.015625 C30.33109945 128.71730087 28.29872553 124.67104151 26.125 120.3125 C25.7228125 119.54099609 25.320625 118.76949219 24.90625 117.97460938 C22 112.31533004 22 112.31533004 22 110 C4.18 110.33 -13.64 110.66 -32 111 C-34.64 116.28 -37.28 121.56 -40 127 C-44.82352941 133.02941176 -44.82352941 133.02941176 -48 134 C-53.65390549 134.45596012 -57.11230277 134.14984932 -62 131 C-66.30695995 127.17159115 -67.86641263 125.08537918 -68.23950195 119.26123047 C-68.17559965 114.95961914 -66.96768822 111.74807685 -65.16796875 107.8203125 C-64.71298508 106.81048561 -64.71298508 106.81048561 -64.24880981 105.78025818 C-63.24228211 103.5552149 -62.21497984 101.340436 -61.1875 99.125 C-60.46691888 97.54223291 -59.74779425 95.95880203 -59.0300293 94.37475586 C-57.49884873 91.00158474 -55.95921219 87.63245946 -54.41308594 84.26611328 C-51.97612719 78.95620342 -49.56699223 73.63397452 -47.1640625 68.30859375 C-44.74436846 62.9462571 -42.3239955 57.58428596 -39.89086914 52.22802734 C-36.24708797 44.20467334 -32.62151527 36.17545522 -29.08203125 28.10546875 C-28.48604394 26.75246872 -27.88993788 25.399521 -27.29370117 24.04663086 C-26.21676004 21.6025012 -25.15250083 19.15413667 -24.0949707 16.70141602 C-18.75024381 4.56840266 -14.07642958 -1.51018648 0 0 Z " fill="#E20A17" transform="translate(626,45)"/>
<path d="M0 0 C5.35755096 1.92063148 8.45837216 4.91674432 11 10 C11.15745826 13.0604194 11.25866877 16.101419 11.31640625 19.1640625 C11.33718735 20.07127045 11.35796844 20.97847839 11.37937927 21.91317749 C11.44487135 24.8170398 11.50375814 27.72099405 11.5625 30.625 C11.60568555 32.59115542 11.64929985 34.55730147 11.69335938 36.5234375 C11.80055239 41.34886362 11.90182081 46.1743824 12 51 C12.90748993 50.08584824 12.90748993 50.08584824 13.83331299 49.15322876 C19.53691433 43.40954603 25.24532097 37.67069217 30.9591713 31.93720436 C33.89651545 28.989425 36.83197093 26.03981497 39.76318359 23.0859375 C42.59226002 20.23512354 45.42620024 17.38922915 48.26357269 14.54667282 C49.34498333 13.46156808 50.4246327 12.3747051 51.50247955 11.28606033 C53.01297208 9.76104095 54.52961769 8.24240489 56.04785156 6.72509766 C56.90944885 5.85905914 57.77104614 4.99302063 58.65875244 4.10073853 C62.94142936 0.2580076 66.13924281 -0.39751168 71.75390625 -0.25 C76.44086194 0.27167855 79.20756732 2.12189892 82.3125 5.5625 C85.42637837 10.06032432 85.61311447 13.61525556 85 19 C82.13058772 25.81485416 76.9630645 30.62309871 71.390625 35.37133789 C64.7459481 41.04613422 58.64974204 47.23931321 52.5 53.4375 C51.38044368 54.5620833 50.26065371 55.68643405 49.140625 56.81054688 C46.42438466 59.53769344 43.71131708 62.26795907 41 65 C42.63837569 68.49956684 44.37190562 70.45886443 47.3125 73 C51.38463664 76.57410554 55.40309997 80.19066103 59.375 83.875 C60.48421053 84.90121947 61.59358613 85.92726054 62.703125 86.953125 C63.25162109 87.46037109 63.80011719 87.96761719 64.36523438 88.49023438 C66.946587 90.87420759 69.53523716 93.250171 72.125 95.625 C73.09566406 96.51703125 74.06632813 97.4090625 75.06640625 98.328125 C77.062574 100.14620588 79.06561593 101.94840435 81.08984375 103.734375 C82.07082031 104.60578125 83.05179688 105.4771875 84.0625 106.375 C85.37927734 107.53128906 85.37927734 107.53128906 86.72265625 108.7109375 C90.2478651 112.25428637 91.86479935 114.82182293 92.4375 119.8125 C92.21681638 124.48216538 90.9031953 128.31392057 88 132 C83.96197642 135.18039025 79.24899025 136.82958011 74.0546875 136.49609375 C65.98795814 134.54842335 60.19295907 127.41169613 54.6328125 121.671875 C51.84049824 118.83813175 48.91771606 116.25564772 45.89453125 113.67578125 C43.13202151 111.23224171 40.58273342 108.59182088 37.99609375 105.96484375 C36.07892823 104.07769256 34.10424678 102.31314625 32.0625 100.5625 C28.29858954 97.32996513 24.82567555 93.86766196 21.37109375 90.30859375 C19.41437778 88.40345514 17.42854742 86.6250797 15.35180664 84.85571289 C14.72351456 84.31966934 14.09522247 83.78362579 13.44789124 83.2313385 C12.97008713 82.8249968 12.49228302 82.41865509 12 82 C11.99383667 83.89105469 11.99383667 83.89105469 11.98754883 85.8203125 C11.96567804 90.52465982 11.91130596 95.22818019 11.84741211 99.93212891 C11.82430129 101.9629724 11.80985272 103.99393456 11.80444336 106.02490234 C11.79510317 108.9548479 11.75400211 111.88294457 11.70703125 114.8125 C11.71293022 116.16142334 11.71293022 116.16142334 11.71894836 117.53759766 C11.57676972 123.76444639 10.1613906 128.25647713 6 133 C0.8974156 136.08080567 -3.20481082 136.64390991 -9 136 C-14.06859446 133.56317574 -17.00319925 130.21759886 -19 125 C-19.5653493 121.24327727 -19.54709197 117.53747201 -19.51757812 113.74389648 C-19.5245874 112.63085144 -19.53159668 111.5178064 -19.53881836 110.37103271 C-19.55637566 106.70413014 -19.54478361 103.03800372 -19.53125 99.37109375 C-19.53394535 96.81714226 -19.53782813 94.26319176 -19.54284668 91.70924377 C-19.54873854 86.36212425 -19.54057119 81.01528126 -19.52148438 75.66821289 C-19.49970683 69.4962813 -19.50677845 63.32487814 -19.52879 57.15295929 C-19.54916251 51.20113652 -19.5469643 45.24947722 -19.53526306 39.29762459 C-19.53259592 36.77106718 -19.53586506 34.24449627 -19.54518127 31.71795464 C-19.55534463 28.18717632 -19.53984739 24.65741183 -19.51757812 21.12670898 C-19.52567505 20.08394302 -19.53377197 19.04117706 -19.54211426 17.96681213 C-19.47221925 11.98223939 -18.97313229 8.56362333 -15 4 C-10.21212087 -0.231149 -6.14411195 -0.90451917 0 0 Z " fill="#FDFDFD" transform="translate(519,231)"/>
<path d="M0 0 C5.90964254 4.58847747 11.6215937 9.261338 13.3828125 16.82421875 C13.83466612 22.4778994 11.4466185 26.56433988 7.91796875 30.828125 C4.14276288 34.2797418 0.25062896 34.34908677 -4.67578125 34.16796875 C-8.33736634 33.6508293 -10.22212196 32.16274483 -13.08203125 29.828125 C-24.86400207 20.55457377 -34.77396789 16.00918582 -50.08203125 17.828125 C-60.11406856 20.39831638 -68.18376033 26.16567841 -73.95703125 34.765625 C-79.75271806 45.09357901 -80.6202823 55.06155754 -77.51953125 66.515625 C-73.95458456 76.97280197 -67.30867333 83.57949477 -57.94921875 89.08203125 C-49.32544207 93.27698703 -39.02894051 93.17808051 -29.8125 91.0859375 C-22.85476532 88.53383669 -17.72313422 84.24257725 -12.09448242 79.59033203 C-8.2715719 76.51856932 -5.20614993 74.35153034 -0.109375 74.41796875 C5.10542322 75.47298573 8.74774229 77.56788112 12.35546875 81.453125 C15.03379535 85.52418144 15.31580383 87.89497003 14.91796875 92.828125 C11.48801907 104.23039014 1.18244507 110.68239315 -8.65234375 116.1015625 C-25.15361145 124.40857881 -43.58656662 126.46685581 -61.3828125 121.1484375 C-80.81228418 114.21373694 -94.90082887 101.93656209 -104.22460938 83.66699219 C-106.43879676 78.91834201 -107.84589093 73.90537932 -109.08203125 68.828125 C-109.27152344 68.08433594 -109.46101563 67.34054688 -109.65625 66.57421875 C-112.63313036 47.37470598 -108.43191022 30.10019897 -97.23828125 14.2109375 C-73.3157489 -17.02125752 -31.88571605 -22.46952867 0 0 Z " fill="#E20A18" transform="translate(195.08203125,56.171875)"/>
<path d="M0 0 C10.57171616 6.45880065 16.61534797 14.98708505 20.375 26.73046875 C22.12111235 36.74015929 20.43924358 46.45528497 15.203125 55.1640625 C8.08780681 64.92694095 -0.40879917 70.37674124 -12.2890625 72.65625 C-23.20421395 73.93896181 -32.16430092 72.16201866 -41.08203125 65.6015625 C-46.19753292 61.23411794 -50.37088299 56.74172191 -53.2890625 50.65625 C-53.60617187 50.00527344 -53.92328125 49.35429687 -54.25 48.68359375 C-57.69096952 40.23901258 -57.81102647 29.7511042 -54.6640625 21.21875 C-49.48141019 10.27356821 -41.14183444 1.87345525 -29.76171875 -2.45703125 C-19.79925206 -5.0008782 -9.29450911 -4.58359353 0 0 Z " fill="#040405" transform="translate(429.2890625,264.34375)"/>
<path d="M0 0 C4.58695129 4.36319757 6.7432824 8.23759477 7.0771637 14.5153656 C7.10381611 16.50283206 7.10867755 18.4906671 7.09594727 20.47827148 C7.10456284 21.5685968 7.11317841 22.65892212 7.12205505 23.7822876 C7.14469639 27.37463341 7.13797891 30.96619796 7.12890625 34.55859375 C7.13414269 37.06291434 7.14041925 39.56723295 7.14768982 42.07154846 C7.15809073 47.31608373 7.1538676 52.56041719 7.13891602 57.80493164 C7.12199859 63.85194184 7.13783052 69.89822993 7.1701389 75.94516128 C7.2001319 81.7816758 7.20200366 87.61791214 7.1926403 93.45448494 C7.19182137 95.92915854 7.19867354 98.40384724 7.21341133 100.8784771 C7.23087628 104.34196103 7.2162959 107.80391108 7.19360352 111.26733398 C7.20529572 112.28420792 7.21698792 113.30108185 7.22903442 114.34877014 C7.14112175 120.96051677 5.80767787 125.3047569 1.5625 130.4375 C-2.36164934 134.01540087 -6.07078244 134.80250084 -11.37890625 134.71484375 C-14.84836966 134.24742079 -16.82845288 132.69076797 -19.4375 130.4375 C-22.84665481 125.92267335 -24.55273831 122.51779651 -24.59140015 116.87861633 C-24.60000061 115.94366837 -24.60860107 115.0087204 -24.61746216 114.04544067 C-24.62172211 113.02151215 -24.62598206 111.99758362 -24.63037109 110.94262695 C-24.64263733 109.32264549 -24.64263733 109.32264549 -24.65515137 107.66993713 C-24.68000487 104.08855749 -24.69652195 100.5072175 -24.7109375 96.92578125 C-24.71626118 95.70287069 -24.72158485 94.47996014 -24.72706985 93.21999168 C-24.75380206 86.74635825 -24.77317622 80.2727441 -24.78759766 73.79907227 C-24.79995123 68.4418157 -24.82811437 63.08489113 -24.86962891 57.7277832 C-24.91893879 51.25982931 -24.94371707 44.79222099 -24.95082474 38.32408714 C-24.95753842 35.86054909 -24.97276335 33.39701878 -24.99671555 30.93358803 C-25.02836125 27.48176588 -25.02840384 24.03127505 -25.02099609 20.5793457 C-25.03740143 19.56553833 -25.05380676 18.55173096 -25.07070923 17.50720215 C-25.01268271 10.88701562 -23.67656929 6.57965642 -19.4375 1.4375 C-14.28684893 -3.4101716 -6.07503539 -2.76137972 0 0 Z " fill="#E20B19" transform="translate(394.4375,45.5625)"/>
<path d="M0 0 C6.36861088 4.47365611 10.02527052 11.01642071 11.51953125 18.65625 C11.85046056 26.40244724 9.01670227 32.94613656 4.8125 39.3125 C-1.95103067 45.77542931 -7.84486542 47.71030706 -17.18457031 47.51904297 C-25.2010172 47.0964265 -29.43819575 44.92125376 -34.8125 39.125 C-40.60499345 32.32810745 -41.60799937 26.47703719 -41.41015625 17.703125 C-40.6449769 10.79464858 -37.66816573 6.3200771 -32.6875 1.625 C-23.02717476 -5.8379122 -10.42091631 -6.48056983 0 0 Z " fill="#F7F7F7" transform="translate(747,215)"/>
<path d="M0 0 C2.77250576 3.34151722 4.38511641 6.83656938 6.1015625 10.8125 C6.38349457 11.46323486 6.66542664 12.11396973 6.9559021 12.78442383 C7.54834403 14.15498894 8.13819163 15.52667807 8.72558594 16.89941406 C9.62314467 18.99566686 10.52964097 21.0878781 11.4375 23.1796875 C15.85657589 33.42630357 15.85657589 33.42630357 17 38 C6.44 38 -4.12 38 -15 38 C-13.14449265 32.43347794 -11.32512177 27.15593715 -9.08203125 21.77734375 C-8.81992355 21.14639297 -8.55781586 20.5154422 -8.2877655 19.8653717 C-7.46562257 17.88817223 -6.63915696 15.91281579 -5.8125 13.9375 C-5.24775709 12.58150086 -4.68330172 11.22538193 -4.11914062 9.86914062 C-2.74940424 6.57804015 -1.37579019 3.28857516 0 0 Z " fill="#FDF6F6" transform="translate(620,91)"/>
<path d="M0 0 C6.36861088 4.47365611 10.02527052 11.01642071 11.51953125 18.65625 C11.85046056 26.40244724 9.01670227 32.94613656 4.8125 39.3125 C-1.95103067 45.77542931 -7.84486542 47.71030706 -17.18457031 47.51904297 C-25.2010172 47.0964265 -29.43819575 44.92125376 -34.8125 39.125 C-40.60499345 32.32810745 -41.60799937 26.47703719 -41.41015625 17.703125 C-40.6449769 10.79464858 -37.66816573 6.3200771 -32.6875 1.625 C-23.02717476 -5.8379122 -10.42091631 -6.48056983 0 0 Z M-33.73828125 9.12109375 C-37.52744063 14.76377382 -37.72356498 20.40442696 -37 27 C-34.92395827 34.55521515 -29.14249165 39.49270242 -22.625 43.4375 C-15.21764486 45.02479039 -9.46002093 44.55476136 -2.9765625 40.48828125 C1.76062207 36.92134979 4.7976052 32.90266541 6 27 C6.94244168 19.16524388 6.19566867 13.65431815 1.72265625 7.06640625 C-1.36064012 3.36784893 -4.40539 1.53153667 -9 0 C-20.26117961 -0.92828643 -26.3572669 0.40543023 -33.73828125 9.12109375 Z " fill="#141415" transform="translate(747,215)"/>
<path d="M0 0 C14 0 14 0 20 3 C22 5 22 5 22.375 7.8125 C21.9175983 11.70041449 20.69507803 13.22565497 18 16 C17.34 16.33 16.68 16.66 16 17 C17.35571097 21.06713292 19.39673943 24.08650139 21.9765625 27.44921875 C23 29 23 29 23 31 C20.74609375 30.875 20.74609375 30.875 18 30 C15.75971425 27.03021851 14.01162107 23.91140589 12.16015625 20.6875 C9.93172204 17.30429435 9.93172204 17.30429435 4 17 C4 21.62 4 26.24 4 31 C2.68 31 1.36 31 0 31 C0 20.77 0 10.54 0 0 Z " fill="#181819" transform="translate(723,221)"/>
<path d="M0 0 C9.10714286 -0.26785714 9.10714286 -0.26785714 13 2 C13.47792208 7.37662338 13.47792208 7.37662338 11.5625 9.875 C7.65825344 11.58905947 4.24192127 11.18714359 0 11 C0 7.37 0 3.74 0 0 Z " fill="#F5F5F5" transform="translate(727,225)"/>
</svg>
