<?xml version="1.0" encoding="UTF-8"?>
<svg version="1.1" xmlns="http://www.w3.org/2000/svg" width="240" height="240">
<path d="M0 0 C79.2 0 158.4 0 240 0 C240 79.2 240 158.4 240 240 C160.8 240 81.6 240 0 240 C0 160.8 0 81.6 0 0 Z " fill="#003061" transform="translate(0,0)"/>
<path d="M0 0 C8.94338815 6.70447242 16.83900003 14.80964584 22.16552734 24.72021484 C22.16552734 25.71021484 22.16552734 26.70021484 22.16552734 27.72021484 C22.62443359 27.34767578 23.08333984 26.97513672 23.55615234 26.59130859 C24.47654297 25.88167969 24.47654297 25.88167969 25.41552734 25.15771484 C26.01880859 24.68205078 26.62208984 24.20638672 27.24365234 23.71630859 C29.16552734 22.72021484 29.16552734 22.72021484 31.25537109 22.86474609 C34.57865739 24.35308904 35.91436186 27.4713321 37.16552734 30.72021484 C37.29052734 33.34521484 37.29052734 33.34521484 36.16552734 35.72021484 C34.18595792 37.41109706 32.18607538 39.07851956 30.16552734 40.72021484 C29.44579792 42.79875988 29.44579792 42.79875988 29.16552734 44.72021484 C29.97957031 43.94484375 29.97957031 43.94484375 30.81005859 43.15380859 C31.52548828 42.49509766 32.24091797 41.83638672 32.97802734 41.15771484 C33.68572266 40.49642578 34.39341797 39.83513672 35.12255859 39.15380859 C35.79673828 38.68072266 36.47091797 38.20763672 37.16552734 37.72021484 C40.16552734 38.72021484 40.16552734 38.72021484 41.35302734 40.97021484 C42.20854529 43.86581404 42.49507787 45.72308638 42.16552734 48.72021484 C40.52099609 51.17724609 40.52099609 51.17724609 38.35302734 53.53271484 C37.64533203 54.32291016 36.93763672 55.11310547 36.20849609 55.92724609 C34.16552734 57.72021484 34.16552734 57.72021484 31.16552734 57.72021484 C31.28018156 59.94993757 31.40767501 62.17900237 31.54052734 64.40771484 C31.64494141 66.26976563 31.64494141 66.26976563 31.75146484 68.16943359 C32.13305607 71.44175836 32.89259259 73.7241611 34.16552734 76.72021484 C34.16552734 80.22021484 34.16552734 80.22021484 33.16552734 83.72021484 C31.74522735 84.87627298 30.31652614 86.02471691 28.83349609 87.09912109 C26.61252665 89.25767454 25.60519978 91.54658339 24.29052734 94.34521484 C15.63328762 112.67157946 0.06669582 126.99196258 -19.07666016 133.88818359 C-27.48935067 136.24916448 -35.40112387 137.11235396 -44.14697266 137.15771484 C-45.63076416 137.17257935 -45.63076416 137.17257935 -47.14453125 137.18774414 C-54.11179266 137.10699966 -60.21198669 135.83313878 -66.83447266 133.72021484 C-67.85541016 133.41599609 -68.87634766 133.11177734 -69.92822266 132.79833984 C-86.67760991 127.03394033 -86.67760991 127.03394033 -89.83447266 120.72021484 C-86.53447266 121.05021484 -83.23447266 121.38021484 -79.83447266 121.72021484 C-81.36003232 116.90898637 -81.36003232 116.90898637 -84.83447266 113.72021484 C-84.83447266 113.06021484 -84.83447266 112.40021484 -84.83447266 111.72021484 C-85.72650391 111.73181641 -86.61853516 111.74341797 -87.53759766 111.75537109 C-89.29330078 111.76890625 -89.29330078 111.76890625 -91.08447266 111.78271484 C-92.82470703 111.80011719 -92.82470703 111.80011719 -94.60009766 111.81787109 C-99.77910588 111.66150007 -99.77910588 111.66150007 -101.83447266 110.72021484 C-102.82447266 109.07021484 -103.81447266 107.42021484 -104.83447266 105.72021484 C-100.54447266 105.72021484 -96.25447266 105.72021484 -91.83447266 105.72021484 C-93.00138404 101.0525693 -94.0888021 99.66574216 -97.83447266 96.72021484 C-100.63019125 96.19583654 -102.85903941 95.93172575 -105.64697266 95.90771484 C-106.33984375 95.88257813 -107.03271484 95.85744141 -107.74658203 95.83154297 C-109.44194387 95.77308222 -111.13826553 95.74368438 -112.83447266 95.72021484 C-112.83447266 94.07021484 -112.83447266 92.42021484 -112.83447266 90.72021484 C-106.39947266 90.22521484 -106.39947266 90.22521484 -99.83447266 89.72021484 C-101.70774678 84.31726481 -101.70774678 84.31726481 -104.83447266 79.72021484 C-108.87210645 78.52835155 -112.65003739 78.49330767 -116.83447266 78.72021484 C-121.85562768 61.20642611 -119.37847858 41.70395761 -110.71337891 25.72021484 C-97.82432768 5.14060707 -80.79543347 -6.81471616 -57.46728516 -12.89697266 C-37.18193437 -15.8464747 -16.87236158 -11.77068397 0 0 Z " fill="#024788" transform="translate(163.83447265625,58.27978515625)"/>
<path d="M0 0 C0.99 0.99 0.99 0.99 2 2 C0.75863281 1.93039063 0.75863281 1.93039063 -0.5078125 1.859375 C-23.00845203 1.17901009 -43.38488531 6.50443244 -60.51171875 21.578125 C-75.63449491 36.29731059 -82.72559349 53.4332529 -83.375 74.5 C-83.2241315 80.87617944 -82.05661594 86.95172385 -80.75390625 93.17578125 C-79.97644388 97.11948934 -79.45630666 101.00842424 -79 105 C-84.28 105 -89.56 105 -95 105 C-95 103.35 -95 101.7 -95 100 C-88.565 99.505 -88.565 99.505 -82 99 C-83.87327412 93.59704997 -83.87327412 93.59704997 -87 89 C-91.03763379 87.80813671 -94.81556473 87.77309282 -99 88 C-104.02115503 70.48621127 -101.54400593 50.98374276 -92.87890625 35 C-79.98985503 14.42039223 -62.96096082 2.46506899 -39.6328125 -3.6171875 C-26.41105895 -5.53963831 -12.57131766 -4.55025236 0 0 Z " fill="#3A75B6" transform="translate(146,49)"/>
<path d="M0 0 C1.9609375 1.79296875 1.9609375 1.79296875 3.375 4.1875 C3.85710937 4.96480469 4.33921875 5.74210937 4.8359375 6.54296875 C6.08124988 9.17149723 6.89759843 11.08155534 7 14 C4.04256403 18.47700252 -0.46563452 19.4087816 -5.375 20.75 C-6.1175 20.97042969 -6.86 21.19085938 -7.625 21.41796875 C-17.52940245 24.23529878 -17.52940245 24.23529878 -22 22 C-23.2890625 19.890625 -23.2890625 19.890625 -24.625 17.25 C-25.07101563 16.38890625 -25.51703125 15.5278125 -25.9765625 14.640625 C-27.08429645 11.78250229 -27.5110326 10.02611461 -27 7 C-23.90079866 3.56445122 -19.53446536 2.84405134 -15.1875 1.8125 C-14.50107422 1.63525391 -13.81464844 1.45800781 -13.10742188 1.27539062 C-8.68883195 0.19268978 -4.56768172 -0.53540592 0 0 Z " fill="#F6E910" transform="translate(121,121)"/>
<path d="M0 0 C3.32972018 2.75563049 4.95820463 7.84759575 6 12 C6.05034376 13.99936628 6.05980231 16.00089428 6 18 C3.17138187 19.01540138 0.33831286 20.0123739 -2.5 21 C-3.29148437 21.28617188 -4.08296875 21.57234375 -4.8984375 21.8671875 C-10.16350731 23.67975252 -14.43382634 24.30639488 -20 24 C-21.03801555 22.11351956 -22.05483167 20.21536344 -23.0625 18.3125 C-23.63097656 17.25675781 -24.19945313 16.20101562 -24.78515625 15.11328125 C-26.10068536 11.74197353 -26.34411378 10.33410042 -25 7 C-22.64978159 5.06946345 -19.81682987 4.1134091 -17 3 C-16.2575 2.69835937 -15.515 2.39671875 -14.75 2.0859375 C-9.67028131 0.1986809 -5.41086603 -0.65303556 0 0 Z " fill="#DB9C0B" transform="translate(111,98)"/>
<path d="M0 0 C3.52160166 3.43757212 5.73391425 7.56313693 6.625 12.375 C6 15 6 15 4.30859375 16.59375 C1.6346093 18.22257302 -0.47563972 18.66302091 -3.5625 19.125 C-6.53097995 19.58416786 -9.14337338 20.04779113 -12 21 C-15.20361581 21.70174441 -17.83027985 21.94017123 -21 21 C-23.81708273 18.04482498 -25.78698789 14.90530728 -27 11 C-26.3203125 8.765625 -26.3203125 8.765625 -25 7 C-18.19841802 3.37248961 -7.72917188 -1.24242188 0 0 Z " fill="#D7930E" transform="translate(131,141)"/>
<path d="M0 0 C2.75184524 3.04151316 3.85805615 5.51206801 5 9.4375 C3.73061361 13.95968901 2.33247584 14.44587053 -1.625 16.8125 C-7.37385906 19.91404495 -13.33217737 23.01466866 -20 22 C-22.25 19.75 -22.25 19.75 -24 17 C-24.433125 16.360625 -24.86625 15.72125 -25.3125 15.0625 C-26.4176752 11.7469744 -26.33662468 10.27473046 -25 7 C-21.87936643 4.81309931 -18.52769325 3.41008078 -15 2 C-14.19046875 1.66613281 -13.3809375 1.33226563 -12.546875 0.98828125 C-8.12857313 -0.67233901 -4.57448751 -1.80851832 0 0 Z " fill="#A0B938" transform="translate(155,109)"/>
<path d="M0 0 C2.77108528 3.71908813 4 5.6182697 4 10.25 C2.80421362 13.53841255 2.03903898 14.32053109 -1 16 C-3.32671865 17.01529541 -5.6603447 18.01488198 -8 19 C-8.825 19.556875 -9.65 20.11375 -10.5 20.6875 C-14.03692269 22.54438441 -16.07041555 22.77188266 -20 22 C-22.33473797 19.63092765 -23.94275146 17.15522611 -25 14 C-24.80175781 11.52954102 -24.80175781 11.52954102 -24 9 C-22.22167969 7.49853516 -22.22167969 7.49853516 -19.921875 6.2890625 C-18.67470703 5.62970703 -18.67470703 5.62970703 -17.40234375 4.95703125 C-16.52707031 4.51746094 -15.65179688 4.07789063 -14.75 3.625 C-13.89019531 3.16222656 -13.03039062 2.69945312 -12.14453125 2.22265625 C-4.68788021 -1.62630846 -4.68788021 -1.62630846 0 0 Z " fill="#D4CC22" transform="translate(164,128)"/>
<path d="M0 0 C3.11416229 2.64703795 3.91378388 4.1205956 4.3125 8.1875 C4 11 4 11 3 13 C0.48828125 13.78125 0.48828125 13.78125 -2.6875 14.5 C-6.01842734 15.27170421 -9.10983413 16.04144684 -12.3125 17.25 C-16.03527479 18.28891389 -18.30021232 18.14357074 -22 17 C-24.19729476 14.9376742 -25.88337687 12.80900507 -27 10 C-26.875 7.8671875 -26.875 7.8671875 -26 6 C-24.25 5.05859375 -24.25 5.05859375 -22 4.4375 C-21.18660156 4.20289063 -20.37320313 3.96828125 -19.53515625 3.7265625 C-18.69855469 3.48679688 -17.86195312 3.24703125 -17 3 C-15.47806007 2.440501 -13.9571876 1.87808808 -12.4375 1.3125 C-8.02845044 -0.12892005 -4.62804755 -0.62753187 0 0 Z " fill="#C85F0F" transform="translate(142,161)"/>
<path d="M0 0 C2.25 2.25 2.25 2.25 4 5 C4.4125 5.639375 4.825 6.27875 5.25 6.9375 C6.24713635 9.67962495 6.13144145 12.10828807 6 15 C-0.74141197 17.56815694 -7.86968885 18.00464484 -15 17 C-19.08374779 13.27925202 -19.56869676 9.39129047 -20 4 C-14.79023408 0.52682272 -6.19824693 -1.05823728 0 0 Z " fill="#D7940D" transform="translate(85,131)"/>
<path d="M0 0 C8.87102645 -0.88851298 14.05888433 -0.04293598 21.30078125 5.1796875 C33.06471284 13.11310591 48.73192692 13.38348872 62.375 11.4375 C71.35137204 9.5462949 82.98716274 6.11519409 90 0 C90.99 0.495 90.99 0.495 92 1 C77.32649553 11.70444179 63.92474643 16.33035477 45.6875 16.4375 C44.69814453 16.44749023 43.70878906 16.45748047 42.68945312 16.46777344 C35.72239894 16.38643691 29.62234315 15.11287837 23 13 C21.9790625 12.69578125 20.958125 12.3915625 19.90625 12.078125 C3.15686275 6.31372549 3.15686275 6.31372549 0 0 Z " fill="#3874B5" transform="translate(74,179)"/>
<path d="M0 0 C2.50013422 1.0943648 3.27935264 1.83557136 4.5703125 4.2109375 C5.07691406 5.08492188 5.07691406 5.08492188 5.59375 5.9765625 C6.44010367 8.76843045 6.21408257 10.22167191 5.1953125 12.9609375 C2.76171875 15.1640625 2.76171875 15.1640625 -0.2421875 17.2109375 C-1.23089844 17.89671875 -2.21960938 18.5825 -3.23828125 19.2890625 C-7.11286977 21.81314756 -9.18002402 22.06147366 -13.8046875 21.9609375 C-14.50961643 20.74168275 -15.19294651 19.5099269 -15.8671875 18.2734375 C-16.25003906 17.58894531 -16.63289062 16.90445313 -17.02734375 16.19921875 C-18.06999643 13.19700777 -18.0210527 11.91757051 -16.8046875 8.9609375 C-14.5577355 7.08455612 -12.52013073 5.60313334 -10.0546875 4.0859375 C-9.43335938 3.67085938 -8.81203125 3.25578125 -8.171875 2.828125 C-5.35844002 1.04746995 -3.36806632 -0.046909 0 0 Z " fill="#069277" transform="translate(178.8046875,93.0390625)"/>
<path d="M0 0 C3.46446845 3.54320637 4.75 5.87520827 4.75 10.8125 C1.23495709 12.57002146 -2.75233252 12.08203401 -6.625 12.125 C-7.48867187 12.15400391 -8.35234375 12.18300781 -9.2421875 12.21289062 C-15.62845606 12.27695042 -15.62845606 12.27695042 -18.73828125 9.953125 C-19.23714844 9.24671875 -19.73601562 8.5403125 -20.25 7.8125 C-20.848125 6.966875 -21.44625 6.12125 -22.0625 5.25 C-23.25 2.8125 -23.25 2.8125 -22.25 -0.1875 C-20.20928485 -0.52660994 -18.16737379 -0.85852704 -16.125 -1.1875 C-14.98804687 -1.373125 -13.85109375 -1.55875 -12.6796875 -1.75 C-4.20595557 -2.83093164 -4.20595557 -2.83093164 0 0 Z " fill="#C95F0D" transform="translate(97.25,153.1875)"/>
<path d="M0 0 C2.16015625 0.94921875 2.16015625 0.94921875 3.53515625 3.07421875 C4.34357466 6.79294345 4.07592449 9.24632977 3.16015625 12.94921875 C0.61328125 15.63671875 0.61328125 15.63671875 -2.58984375 17.94921875 C-3.6365625 18.73296875 -4.68328125 19.51671875 -5.76171875 20.32421875 C-8.83984375 21.94921875 -8.83984375 21.94921875 -11.6484375 21.8046875 C-13.83984375 20.94921875 -13.83984375 20.94921875 -15.15234375 19.26171875 C-16.06869716 16.17943909 -16.26864572 14.16913172 -15.83984375 10.94921875 C-14.08313507 8.58801883 -11.93972717 6.84508 -9.65234375 5.01171875 C-9.07419922 4.50576172 -8.49605469 3.99980469 -7.90039062 3.47851562 C-5.20783552 1.24841066 -3.56439473 -0.06373746 0 0 Z " fill="#0595B0" transform="translate(193.83984375,129.05078125)"/>
<path d="M0 0 C3.33585867 0.07707969 5.51764744 0.21205725 8.19726562 2.28442383 C10.21504535 5.52474069 11.02539062 7.77023378 11.02539062 11.60473633 C5.81633996 13.34108655 0.44430353 13.3245418 -4.97460938 12.60473633 C-8.44840238 10.50920937 -9.65761199 7.6236565 -10.84960938 3.79223633 C-10.89085937 3.07036133 -10.93210938 2.34848633 -10.97460938 1.60473633 C-8.66566351 -0.70420953 -3.19079392 0.06058026 0 0 Z " fill="#C95F0C" transform="translate(52.974609375,136.395263671875)"/>
<path d="M0 0 C3.2828512 1.56650576 4.61623081 4.65238935 5.8828125 7.8984375 C6.1328125 10.4609375 6.1328125 10.4609375 4.8828125 12.8984375 C1.67370086 16.08526365 -1.3326621 18.73981302 -5.9296875 19.1484375 C-9.14651754 17.3102489 -9.9211907 15.35353937 -11.1171875 11.8984375 C-10.785902 7.63905254 -9.50078499 5.78666836 -6.3046875 3.0234375 C-5.61761719 2.40726562 -4.93054688 1.79109375 -4.22265625 1.15625 C-2.1171875 -0.1015625 -2.1171875 -0.1015625 0 0 Z " fill="#057398" transform="translate(195.1171875,81.1015625)"/>
<path d="M0 0 C2.39706123 -0.10854617 4.78915838 -0.18753157 7.1875 -0.25 C7.86103516 -0.28351563 8.53457031 -0.31703125 9.22851562 -0.3515625 C12.83057254 -0.42184654 14.80148945 -0.12674344 17.86328125 1.828125 C20 4 20 4 22 7 C21.625 9.1875 21.625 9.1875 21 11 C14.53219351 11.30799079 8.84059864 11.05936119 3 8 C0.56843446 5.05264783 0 3.81180777 0 0 Z " fill="#BF0946" transform="translate(51,154)"/>
<path d="M0 0 C3 1 3 1 4.1875 3.25 C5.03484255 6.11792862 5.28578192 8.03054729 5 11 C3.64453125 13.23828125 3.64453125 13.23828125 1.8125 15.3125 C1.22082031 16.00988281 0.62914062 16.70726563 0.01953125 17.42578125 C-2.48649153 19.37921874 -3.89881022 19.3160107 -7 19 C-10.04232804 13.64550265 -10.04232804 13.64550265 -9.875 11.09375 C-8.64370397 8.14743451 -6.73355571 6.44903927 -4.4375 4.25 C-3.61121094 3.45078125 -2.78492188 2.6515625 -1.93359375 1.828125 C-1.29550781 1.22484375 -0.65742188 0.6215625 0 0 Z " fill="#0582A4" transform="translate(201,96)"/>
<path d="M0 0 C5.94 0.33 11.88 0.66 18 1 C18 1.66 18 2.32 18 3 C18.99 3.33 19.98 3.66 21 4 C23 7 23 7 23 11 C20.95775363 10.88485851 18.91619841 10.75742674 16.875 10.625 C15.73804687 10.55539063 14.60109375 10.48578125 13.4296875 10.4140625 C8.55457034 9.82549482 5.09638076 9.12523289 1.625 5.5625 C0 3 0 3 0 0 Z " fill="#A20C54" transform="translate(61,169)"/>
<path d="M0 0 C6.46341868 -0.3511314 11.30977257 -0.25155853 17 3 C18.9375 4.9375 18.9375 4.9375 20 7 C20 8.32 20 9.64 20 11 C8.97951659 10.05038918 8.97951659 10.05038918 4 8 C0 3.07692308 0 3.07692308 0 0 Z " fill="#AA0A78" transform="translate(31,152)"/>
<path d="M0 0 C15.20689655 1.20689655 15.20689655 1.20689655 20.5625 6.5625 C22 9 22 9 22 11 C5.78163545 9.73709456 5.78163545 9.73709456 1.5 5.5625 C0 3 0 3 0 0 Z " fill="#7B0C78" transform="translate(39,165)"/>
<path d="M0 0 C4.85794252 -0.34699589 7.87651904 0.37596666 12 3 C14.10831259 5.97080411 14 7.19114823 14 11 C9.35312297 11.32420072 6.66062697 10.96807592 3 8 C0 2.93103448 0 2.93103448 0 0 Z " fill="#6B0A54" transform="translate(11,135)"/>
<path d="M0 0 C9.08906646 2.13350224 9.08906646 2.13350224 12.5625 5.4375 C13.84796982 7.72898968 14.43696306 9.47437717 15 12 C6.3153457 11.17369309 6.3153457 11.17369309 3.22265625 8.4140625 C1.03830681 5.41295632 0 3.78222279 0 0 Z " fill="#640751" transform="translate(17,147)"/>
<path d="M0 0 C0.66 0.33 1.32 0.66 2 1 C-7.4876884 7.92134645 -17.74345659 15 -30 15 C-30 14.34 -30 13.68 -30 13 C-30.99 12.67 -31.98 12.34 -33 12 C-32.41476563 11.93683594 -31.82953125 11.87367188 -31.2265625 11.80859375 C-24.65535071 10.87125874 -18.72252126 8.95309506 -12.5625 6.5625 C-11.78148926 6.26206787 -11.00047852 5.96163574 -10.19580078 5.65209961 C-6.41317992 4.14503202 -3.10719793 2.70947659 0 0 Z " fill="#336CAC" transform="translate(164,179)"/>
<path d="M0 0 C0.66 0 1.32 0 2 0 C3.7987144 3.82226811 4.4491436 6.77805018 4 11 C2.625 13.375 2.625 13.375 1 15 C0.34 15 -0.32 15 -1 15 C-4.03881512 8.67926456 -4.03881512 8.67926456 -3.875 5.8125 C-2.80960749 3.60561552 -1.6332227 1.82920942 0 0 Z " fill="#055BA2" transform="translate(208,88)"/>
<path d="M0 0 C2.27145346 0.03300659 4.54240126 0.10240005 6.8125 0.1875 C8.70935547 0.23970703 8.70935547 0.23970703 10.64453125 0.29296875 C14 1 14 1 15.94921875 3.55078125 C16.29597656 4.35902344 16.64273438 5.16726562 17 6 C15.41676312 6.027193 13.83338938 6.04648306 12.25 6.0625 C10.92742187 6.07990234 10.92742187 6.07990234 9.578125 6.09765625 C5.13726748 5.92944195 5.13726748 5.92944195 3 5 C1.25 2.4375 1.25 2.4375 0 0 Z " fill="#3D74B4" transform="translate(59,164)"/>
<path d="M0 0 C-0.75 2.4375 -0.75 2.4375 -2 5 C-3.875 5.9375 -3.875 5.9375 -6 6 C-6.60585937 5.67386719 -7.21171875 5.34773437 -7.8359375 5.01171875 C-10.33704719 3.8424274 -12.00816532 3.7943578 -14.75 3.875 C-15.94882813 3.90207031 -15.94882813 3.90207031 -17.171875 3.9296875 C-18.07679687 3.96449219 -18.07679687 3.96449219 -19 4 C-19 3.67 -19 3.34 -19 3 C-18.24074219 2.86722656 -17.48148437 2.73445312 -16.69921875 2.59765625 C-15.70535156 2.42105469 -14.71148437 2.24445313 -13.6875 2.0625 C-12.70136719 1.88847656 -11.71523437 1.71445313 -10.69921875 1.53515625 C-2.6015625 -0.0703125 -2.6015625 -0.0703125 0 0 Z " fill="#44577C" transform="translate(130,159)"/>
<path d="M0 0 C-0.99 1.485 -0.99 1.485 -2 3 C-1.01 3.33 -0.02 3.66 1 4 C-3.455 4.495 -3.455 4.495 -8 5 C-8.33 4.34 -8.66 3.68 -9 3 C-8 1 -8 1 -5.0625 -0.1875 C-2 -1 -2 -1 0 0 Z " fill="#1D4C87" transform="translate(110,119)"/>
<path d="M0 0 C-0.78375 0.0825 -1.5675 0.165 -2.375 0.25 C-5.11631339 0.70995268 -5.11631339 0.70995268 -6.125 2.875 C-6.41375 3.57625 -6.7025 4.2775 -7 5 C-8.625 6.75 -8.625 6.75 -10 8 C-10.25 5.6875 -10.25 5.6875 -10 3 C-6.83285315 -0.05793489 -4.3162829 -1.43876097 0 0 Z " fill="#B5B651" transform="translate(104,125)"/>
</svg>
