<?xml version="1.0" encoding="UTF-8"?>
<svg version="1.1" xmlns="http://www.w3.org/2000/svg" width="400" height="400">
<path d="M0 0 C132 0 264 0 400 0 C400 132 400 264 400 400 C268 400 136 400 0 400 C0 268 0 136 0 0 Z " fill="#132169" transform="translate(0,0)"/>
<path d="M0 0 C6.47321573 2.24658664 10.90669867 4.81339734 14 11 C16.19980405 17.59941216 16.34039894 27.21432429 13.375 33.625 C10.56985382 38.20077036 6.1522081 42.33310915 1 44 C-6.79295959 44.63876718 -11.66784357 42.74911732 -18 38 C-18 43.94 -18 49.88 -18 56 C-21.63 56 -25.26 56 -29 56 C-29 37.85 -29 19.7 -29 1 C-25.04 1 -21.08 1 -17 1 C-16.67 2.32 -16.34 3.64 -16 5 C-15.030625 4.175 -14.06125 3.35 -13.0625 2.5 C-8.71227449 -0.55738741 -5.18455569 -1.04364433 0 0 Z " fill="#F4F6F7" transform="translate(217,180)"/>
<path d="M0 0 C3.0625 0.3125 3.0625 0.3125 4.9375 1.4375 C6.59104531 4.19340884 6.45615568 6.16325452 6.0625 9.3125 C5 11.1875 5 11.1875 3.0625 12.3125 C-0.625 12.5 -0.625 12.5 -3.9375 12.3125 C-4.2675 13.6325 -4.5975 14.9525 -4.9375 16.3125 C-6.2575 16.6425 -7.5775 16.9725 -8.9375 17.3125 C-8.9375 17.9725 -8.9375 18.6325 -8.9375 19.3125 C-8.2775 19.3125 -7.6175 19.3125 -6.9375 19.3125 C-7.2675 20.6325 -7.5975 21.9525 -7.9375 23.3125 C-8.5975 23.3125 -9.2575 23.3125 -9.9375 23.3125 C-9.9375 24.3025 -9.9375 25.2925 -9.9375 26.3125 C-9.2775 25.6525 -8.6175 24.9925 -7.9375 24.3125 C-7.73870128 28.33205718 -7.59411559 32.3496892 -7.49804688 36.37304688 C-7.45798247 37.739114 -7.40350759 39.10484156 -7.33398438 40.46972656 C-6.77073085 51.8176284 -6.77073085 51.8176284 -9.67041016 55.53271484 C-11.70288446 57.06757223 -13.63719243 58.23067501 -15.9375 59.3125 C-16.72125 59.76625 -17.505 60.22 -18.3125 60.6875 C-24.87658965 62.25037849 -31.12809147 62.12778238 -37.046875 58.69921875 C-41.30932044 55.57283831 -45.27413432 52.1251705 -46.5234375 46.828125 C-46.75 44.375 -46.75 44.375 -46.76953125 42.09765625 C-46.82496094 41.50855469 -46.88039062 40.91945312 -46.9375 40.3125 C-47.5975 39.9825 -48.2575 39.6525 -48.9375 39.3125 C-47.9475 39.3125 -46.9575 39.3125 -45.9375 39.3125 C-45.9375 39.9725 -45.9375 40.6325 -45.9375 41.3125 C-45.2775 41.3125 -44.6175 41.3125 -43.9375 41.3125 C-44.4325 39.8275 -44.4325 39.8275 -44.9375 38.3125 C-44.2775 38.3125 -43.6175 38.3125 -42.9375 38.3125 C-43.2675 37.6525 -43.5975 36.9925 -43.9375 36.3125 C-44.9275 35.9825 -45.9175 35.6525 -46.9375 35.3125 C-46.80092829 29.84963169 -44.55214163 26.96309731 -40.9453125 23.14453125 C-34.48983163 17.25421894 -27.4988122 16.34862368 -18.9375 16.3125 C-16.9295923 16.59431161 -14.9237302 16.90506816 -12.9375 17.3125 C-11.9475 16.9825 -10.9575 16.6525 -9.9375 16.3125 C-8.76278213 13.96306426 -8.01299694 11.55006919 -7.21875 9.05078125 C-6.9609375 8.25027344 -6.703125 7.44976562 -6.4375 6.625 C-6.2003125 5.85800781 -5.963125 5.09101563 -5.71875 4.30078125 C-4.43814284 1.04163602 -3.48681222 0.37093747 0 0 Z " fill="#172367" transform="translate(80.9375,162.6875)"/>
<path d="M0 0 C5.66806235 4.90605765 8.51304729 9.77974318 9.375 17.25 C8.7137778 23.86222197 6.73607506 29.85076733 1.75 34.4375 C-3.49323072 38.38389754 -9.1976245 40.65847837 -15.859375 40.34375 C-22.82510471 39.22516567 -28.53395725 36.60768144 -32.81640625 30.91796875 C-36.25142435 25.3516523 -38.122119 19.55419504 -37 13 C-34.80774404 6.08395441 -30.41397904 1.34409709 -24.05078125 -2.03515625 C-15.6082495 -5.60125512 -7.83065446 -4.55833219 0 0 Z " fill="#F4F5F6" transform="translate(274,184)"/>
<path d="M0 0 C5.24644157 2.87069444 7.4116248 6.67449777 9.6875 12.0625 C10.1825 13.0525 10.1825 13.0525 10.6875 14.0625 C10.6875 17.3625 10.6875 20.6625 10.6875 24.0625 C1.1175 24.0625 -8.4525 24.0625 -18.3125 24.0625 C-15.98998574 28.94745525 -15.98998574 28.94745525 -13.3125 30.0625 C-7.78117349 30.34375389 -3.55450843 29.80983614 1.6875 28.0625 C2.615625 29.2690625 2.615625 29.2690625 3.5625 30.5 C5.42914041 33.10124519 5.42914041 33.10124519 7.6875 34.0625 C5.95678877 38.12071943 4.17308025 39.49667411 0.22265625 41.2890625 C-5.91244404 43.16078801 -12.23068401 43.26717238 -18.23046875 40.921875 C-24.55793012 37.37027187 -27.98171848 33.58907101 -30.5625 26.75 C-32.13270464 19.02982721 -31.9611876 13.83092098 -27.734375 7.00390625 C-25.86424351 4.45045749 -23.98537934 2.75749665 -21.3125 1.0625 C-20.425625 0.485 -19.53875 -0.0925 -18.625 -0.6875 C-12.13594828 -3.13619876 -6.35485894 -2.73704059 0 0 Z " fill="#F4F6F7" transform="translate(171.3125,181.9375)"/>
<path d="M0 0 C4.01018525 3.29910085 5.73874836 7.27824266 6.34863281 12.29077148 C6.32768555 13.59473877 6.30673828 14.89870605 6.28515625 16.2421875 C6.27949646 16.9425563 6.27383667 17.64292511 6.26800537 18.36451721 C6.24582345 20.5757732 6.19566931 22.78533748 6.14453125 24.99609375 C6.1244424 26.50583578 6.10619583 28.0156035 6.08984375 29.52539062 C6.04602072 33.20366374 5.97712466 36.88096331 5.89453125 40.55859375 C2.26453125 40.55859375 -1.36546875 40.55859375 -5.10546875 40.55859375 C-5.10957764 39.76686768 -5.11368652 38.9751416 -5.11791992 38.15942383 C-5.15087029 34.56256123 -5.22151918 30.967389 -5.29296875 27.37109375 C-5.29876953 26.12521484 -5.30457031 24.87933594 -5.31054688 23.59570312 C-5.1811294 16.34363627 -5.1811294 16.34363627 -8.46484375 10.23046875 C-11.71579197 8.17217609 -13.32854389 7.83535282 -17.10546875 8.55859375 C-20.00870137 10.76145619 -20.99713389 11.9583915 -21.65136719 15.58300781 C-21.67231445 16.73510742 -21.69326172 17.88720703 -21.71484375 19.07421875 C-21.74707031 20.32460937 -21.77929688 21.575 -21.8125 22.86328125 C-21.83376953 24.81621094 -21.83376953 24.81621094 -21.85546875 26.80859375 C-21.88511719 28.12601563 -21.91476563 29.4434375 -21.9453125 30.80078125 C-22.01601411 34.05305509 -22.06300445 37.30582867 -22.10546875 40.55859375 C-26.06546875 40.55859375 -30.02546875 40.55859375 -34.10546875 40.55859375 C-34.10546875 26.69859375 -34.10546875 12.83859375 -34.10546875 -1.44140625 C-30.14546875 -1.44140625 -26.18546875 -1.44140625 -22.10546875 -1.44140625 C-22.10546875 -0.12140625 -22.10546875 1.19859375 -22.10546875 2.55859375 C-21.36296875 1.91921875 -20.62046875 1.27984375 -19.85546875 0.62109375 C-13.581329 -4.08451107 -6.84193358 -3.13530561 0 0 Z " fill="#F7F8F9" transform="translate(129.10546875,182.44140625)"/>
<path d="M0 0 C0.495 1.485 0.495 1.485 1 3 C-0.9375 6.1875 -0.9375 6.1875 -3 9 C-4.175625 8.67 -5.35125 8.34 -6.5625 8 C-10.5011676 7.0030467 -13.95139129 6.83130797 -18 7 C-18 8.32 -18 9.64 -18 11 C-17.29875 11.15855469 -16.5975 11.31710938 -15.875 11.48046875 C-1.42390061 15.03433966 -1.42390061 15.03433966 2.19140625 20.94921875 C3.44652746 24.13249718 3.35057276 26.61112997 3 30 C0.75224771 34.77647361 -2.00971337 37.21749351 -6.734375 39.30859375 C-14.17014755 41.57778641 -21.97959482 39.99290958 -29 37 C-30.36451081 36.04297962 -31.70810219 35.0529852 -33 34 C-31.62845496 31.04590299 -30.01136276 28.55991624 -28 26 C-27.45472656 26.2165625 -26.90945313 26.433125 -26.34765625 26.65625 C-20.6405803 28.76347804 -16.0737233 29.28922492 -10 29 C-10 27.68 -10 26.36 -10 25 C-11.02480469 24.68546875 -12.04960937 24.3709375 -13.10546875 24.046875 C-14.46632713 23.61515441 -15.82699427 23.18283066 -17.1875 22.75 C-17.86103516 22.54503906 -18.53457031 22.34007812 -19.22851562 22.12890625 C-23.52760072 20.74481056 -26.64926383 19.1551188 -30 16 C-31.76288074 12.47423853 -31.65863023 8.83887334 -31 5 C-28.83424513 1.01321249 -26.16118604 -1.41940698 -22.125 -3.4375 C-14.04509556 -4.8918828 -7.33102743 -3.85233252 0 0 Z " fill="#F6F8F7" transform="translate(357,184)"/>
<path d="M0 0 C3.63 0 7.26 0 11 0 C12.12880057 3.31114834 13.21302675 6.58978257 14 10 C13.34 10 12.68 10 12 10 C12.14086602 12.60452271 12.28748464 15.20850197 12.4375 17.8125 C12.47681641 18.55048828 12.51613281 19.28847656 12.55664062 20.04882812 C12.74381035 23.23071342 12.98720793 25.96162378 14 29 C15.65204456 29.70211894 17.31923769 30.36971413 19 31 C19.33 31.66 19.66 32.32 20 33 C19.01 33 18.02 33 17 33 C17.26676204 34.98491642 17.26676204 34.98491642 18 37 C19.485 37.495 19.485 37.495 21 38 C20.34 38.66 19.68 39.32 19 40 C18.4225 39.525625 17.845 39.05125 17.25 38.5625 C14.87849022 36.71876366 14.87849022 36.71876366 11 36 C11 41.94 11 47.88 11 54 C7.37 54 3.74 54 0 54 C0 36.18 0 18.36 0 0 Z " fill="#F9FBF9" transform="translate(188,182)"/>
<path d="M0 0 C3.96 0 7.92 0 12 0 C12 18.81 12 37.62 12 57 C8.04 57 4.08 57 0 57 C0 38.19 0 19.38 0 0 Z " fill="#F3F4F8" transform="translate(288,166)"/>
<path d="M0 0 C3.96 0 7.92 0 12 0 C12 13.86 12 27.72 12 42 C8.04 42 4.08 42 0 42 C0 28.14 0 14.28 0 0 Z " fill="#F1F3F7" transform="translate(75,181)"/>
<path d="M0 0 C3.63 0 7.26 0 11 0 C11 13.86 11 27.72 11 42 C7.37 42 3.74 42 0 42 C0 28.14 0 14.28 0 0 Z " fill="#FCFCF9" transform="translate(308,181)"/>
<path d="M0 0 C2.70567626 1.82339052 4.53728718 3.07457436 6 6 C6.43032996 10.21226823 6.42629046 13.91059104 4.875 17.875 C2.43593407 20.63927472 0.48994652 21.79194159 -3 23 C-7.5357202 23 -9.39366337 22.51406801 -12.875 19.5625 C-16.11111422 15.66012697 -16.34488988 13.20581314 -16.28125 8.2578125 C-15.85665394 4.8492497 -14.52704082 3.25384722 -12 1 C-7.83579579 -1.47601332 -4.63134568 -1.15783642 0 0 Z " fill="#142167" transform="translate(265,191)"/>
<path d="M0 0 C3.22618733 2.0790985 4.8669302 3.80039529 7 7 C7.60695266 11.20925614 7.43802698 14.93951362 5.8125 18.875 C2.89944927 22.29030086 0.48078796 23.81490151 -4 24.375 C-7.42422442 23.94697195 -9.25223913 23.06082066 -12 21 C-15.10542508 16.34186237 -14.74307763 11.45168836 -14 6 C-9.93112728 0.5391445 -6.69014993 -0.56696186 0 0 Z " fill="#172467" transform="translate(214,190)"/>
<path d="M0 0 C1.03789581 1.64333504 2.03567924 3.31243867 3 5 C6.75758742 7.50505828 9.68112989 7.1492124 14 7 C18.03124183 7 18.70830921 7.10922398 21.75 9.3125 C22.36359375 9.74175781 22.9771875 10.17101562 23.609375 10.61328125 C24.29773438 11.29970703 24.29773438 11.29970703 25 12 C25 12.99 25 13.98 25 15 C18.34997955 18.96171431 12.80244625 21.34524935 5 20 C-1.59549731 18.07979192 -6.26321415 13.67035527 -10 8 C-10.9375 4.5 -10.9375 4.5 -11 2 C-3.375 0 -3.375 0 0 0 Z " fill="#F2F4F5" transform="translate(45,204)"/>
<path d="M0 0 C3.3 0 6.6 0 10 0 C10 1.65 10 3.3 10 5 C10.66 5.33 11.32 5.66 12 6 C11.484375 6.556875 10.96875 7.11375 10.4375 7.6875 C8.56824216 10.69456696 9.26034984 11.61445669 10 15 C10.07869838 16.98438396 10.10784044 18.97111348 10.09765625 20.95703125 C10.09443359 22.06884766 10.09121094 23.18066406 10.08789062 24.32617188 C10.07951172 25.47666016 10.07113281 26.62714844 10.0625 27.8125 C10.05798828 28.98232422 10.05347656 30.15214844 10.04882812 31.35742188 C10.0370693 34.23833358 10.02063426 37.11914044 10 40 C6.7 40 3.4 40 0 40 C0 26.8 0 13.6 0 0 Z " fill="#FBFDFA" transform="translate(96,182)"/>
<path d="M0 0 C1.48889161 0.81583102 2.9717909 1.64321806 4.4375 2.5 C4.4375 5.5 4.4375 5.5 2.1875 8.1875 C-1.81548653 11.42619316 -5.87446935 10.58253122 -10.7734375 10.3515625 C-13.85078924 10.25708092 -13.85078924 10.25708092 -16.75 12.875 C-18.53648734 15.33114589 -18.53648734 15.33114589 -19.5625 17.5 C-23.1925 16.84 -26.8225 16.18 -30.5625 15.5 C-30.42601587 10.04063464 -28.17789795 7.15883448 -24.58203125 3.3359375 C-17.032172 -3.52757091 -9.07765025 -4.49401303 0 0 Z " fill="#F4F6F7" transform="translate(64.5625,182.5)"/>
<path d="M0 0 C0.66 0 1.32 0 2 0 C2.33 3.96 2.66 7.92 3 12 C3.66 12 4.32 12 5 12 C5.185625 11.071875 5.185625 11.071875 5.375 10.125 C6 8 6 8 8 6 C7.94199219 6.80824219 7.88398438 7.61648437 7.82421875 8.44921875 C7.77910156 9.51785156 7.73398437 10.58648437 7.6875 11.6875 C7.62949219 12.74324219 7.57148438 13.79898438 7.51171875 14.88671875 C8.17895245 19.14100081 9.6111857 20.39596375 13 23 C15.53939327 24.19687454 18.12097146 25.02693425 20.8125 25.8125 C21.50537109 26.02841797 22.19824219 26.24433594 22.91210938 26.46679688 C24.60380878 26.99180703 26.30136365 27.49788737 28 28 C28.38218767 29.65614657 28.71395102 31.32457024 29 33 C27.47728009 34.52271991 26.12064841 34.20581982 24 34.25 C18.93089319 34.21745357 14.67615227 32.85719523 10 31 C6.53028623 35.02347588 6.53028623 35.02347588 5 40 C4.34 39.67 3.68 39.34 3 39 C3.33 37.68 3.66 36.36 4 35 C3.34 35 2.68 35 2 35 C2 37.64 2 40.28 2 43 C1.67 43 1.34 43 1 43 C0.67 28.81 0.34 14.62 0 0 Z " fill="#121F5F" transform="translate(319,180)"/>
<path d="M0 0 C1.23046875 2.140625 1.23046875 2.140625 2 4 C1.34 4.33 0.68 4.66 0 5 C-0.66 4.67 -1.32 4.34 -2 4 C-2 3.34 -2 2.68 -2 2 C-3.32 2.33 -4.64 2.66 -6 3 C-5.79375 3.7425 -5.5875 4.485 -5.375 5.25 C-4.95591249 8.32330841 -5.38050989 9.42786866 -7 12 C-7.86625 11.175 -8.7325 10.35 -9.625 9.5 C-12.01340285 7.52280802 -12.95693927 7.00775093 -16.125 6.4375 C-19.73920837 7.14462773 -20.74309684 8.119276 -23 11 C-23.63995961 14.0849946 -23.63995961 14.0849946 -23.609375 17.515625 C-23.64160156 18.76601562 -23.67382812 20.01640625 -23.70703125 21.3046875 C-23.72830078 23.25761719 -23.72830078 23.25761719 -23.75 25.25 C-23.77964844 26.56742188 -23.80929688 27.88484375 -23.83984375 29.2421875 C-23.91054536 32.49446134 -23.9575357 35.74723492 -24 39 C-27.96 39 -31.92 39 -36 39 C-36 25.14 -36 11.28 -36 -3 C-32.04 -3 -28.08 -3 -24 -3 C-24 -1.68 -24 -0.36 -24 1 C-23.2575 0.360625 -22.515 -0.27875 -21.75 -0.9375 C-15.01172527 -5.99120605 -6.61247938 -4.92515706 0 0 Z M-35 -2 C-35 11.2 -35 24.4 -35 38 C-31.7 38 -28.4 38 -25 38 C-25 37.13721436 -25 36.27442871 -25 35.38549805 C-25 6 -25 6 -23 3 C-23.66 3 -24.32 3 -25 3 C-25 1.35 -25 -0.3 -25 -2 C-28.3 -2 -31.6 -2 -35 -2 Z " fill="#F7F8F9" transform="translate(131,184)"/>
<path d="M0 0 C0.495 0.33 0.99 0.66 1.5 1 C7.43541281 3.37416512 13.18449975 1.93850008 19 0 C19.61875 0.804375 20.2375 1.60875 20.875 2.4375 C22.74164041 5.03874519 22.74164041 5.03874519 25 6 C23.26999194 10.05657063 21.48511827 11.4281381 17.54296875 13.23046875 C11.66008123 15.01069738 5.08876078 15.33430772 -0.61328125 12.87109375 C-2.52561913 11.67885468 -4.28087799 10.45424219 -6 9 C-4.66666667 7.66666667 -3.33333333 6.33333333 -2 5 C-2.33 4.34 -2.66 3.68 -3 3 C-2.01 2.01 -1.02 1.02 0 0 Z " fill="#EEF0F3" transform="translate(154,210)"/>
<path d="M0 0 C4.55455232 0.62107532 7.79459373 1.52545315 11.5949707 4.06640625 C13.81794347 7.1256494 13.36677719 10.42752456 13.29296875 14.0625 C13.28872391 14.85019775 13.28447906 15.63789551 13.28010559 16.44946289 C13.26332118 18.96665688 13.22570115 21.48304877 13.1875 24 C13.17245008 25.69530083 13.15876221 27.39061433 13.14648438 29.0859375 C13.12196926 32.19157005 13.08990995 35.29690263 13.04760742 38.40234375 C13.01850717 40.60142722 13 42.800724 13 45 C12.34 45.99 11.68 46.98 11 48 C9.81071605 43.7688986 9.87455642 39.66075948 9.90234375 35.296875 C9.9037587 34.45908508 9.90517365 33.62129517 9.90663147 32.75811768 C9.91221803 30.08870843 9.92476806 27.4193838 9.9375 24.75 C9.94251674 22.93750121 9.94707934 21.12500111 9.95117188 19.3125 C9.96218306 14.87496752 9.97943845 10.43749809 10 6 C6.04 6 2.08 6 -2 6 C-2 19.2 -2 32.4 -2 46 C-5.3 46.66 -8.6 47.32 -12 48 C-12 47.34 -12 46.68 -12 46 C-10.85660156 45.40574219 -9.71320313 44.81148437 -8.53515625 44.19921875 C-5.82256731 42.33589512 -5.09833352 41.45309002 -4.39013672 38.18994141 C-4.23795254 34.70827694 -4.29218737 31.29434154 -4.4375 27.8125 C-4.45232422 26.61173828 -4.46714844 25.41097656 -4.48242188 24.17382812 C-4.19781855 18.00428738 -4.19781855 18.00428738 -7 13 C-6.67 12.34 -6.34 11.68 -6 11 C-5.34 11 -4.68 11 -4 11 C-3.67 9.68 -3.34 8.36 -3 7 C-3.66 7 -4.32 7 -5 7 C-5 6.34 -5 5.68 -5 5 C-4.360625 4.731875 -3.72125 4.46375 -3.0625 4.1875 C-0.66868314 3.11332248 -0.66868314 3.11332248 0 0 Z " fill="#1A245B" transform="translate(77,175)"/>
<path d="M0 0 C0.92556607 2.77669822 1.19295491 4.67696895 1.25 7.5625 C1.27578125 8.34753906 1.3015625 9.13257813 1.328125 9.94140625 C1.21984375 10.62074219 1.1115625 11.30007812 1 12 C-2.14877493 14.09918329 -2.929765 14.25543871 -6.52734375 14.265625 C-7.40197266 14.26820313 -8.27660156 14.27078125 -9.17773438 14.2734375 C-10.54381836 14.26183594 -10.54381836 14.26183594 -11.9375 14.25 C-12.84435547 14.25773438 -13.75121094 14.26546875 -14.68554688 14.2734375 C-15.56146484 14.27085937 -16.43738281 14.26828125 -17.33984375 14.265625 C-18.13769287 14.26336914 -18.93554199 14.26111328 -19.75756836 14.25878906 C-22.22227096 13.9743487 -23.86275824 13.23000569 -26 12 C-26 11.34 -26 10.68 -26 10 C-25.36191406 9.86722656 -24.72382813 9.73445312 -24.06640625 9.59765625 C-23.24011719 9.42105469 -22.41382813 9.24445313 -21.5625 9.0625 C-20.73878906 8.88847656 -19.91507813 8.71445313 -19.06640625 8.53515625 C-17.02338796 8.19247006 -17.02338796 8.19247006 -16 7 C-13.66666667 7 -11.33333333 7 -9 7 C-8.01 6.67 -7.02 6.34 -6 6 C-6.33 4.35 -6.66 2.7 -7 1 C-3.375 -1.125 -3.375 -1.125 0 0 Z " fill="#F9FBF8" transform="translate(180,191)"/>
<path d="M0 0 C3.96 0 7.92 0 12 0 C12.33 0.99 12.66 1.98 13 3 C14.29355827 4.37195574 15.62298702 5.71182656 17 7 C16.01 7 15.02 7 14 7 C14 8.65 14 10.3 14 12 C11.49647356 11.51357508 9.01219267 11.00299503 6.53515625 10.39453125 C1.37960642 9.1809816 -2.01961061 8.64086819 -7 11 C-7.33 10.34 -7.66 9.68 -8 9 C-5.11658466 4.78577758 -2.95696581 3.23924145 2 2 C1.34 1.34 0.68 0.68 0 0 Z " fill="#F9FAF5" transform="translate(157,181)"/>
<path d="M0 0 C2.64 0.33 5.28 0.66 8 1 C5.73675211 2.74095991 3.5698422 4.23795963 1.0625 5.625 C-2.9931848 8.77022494 -4.79737565 12.4388133 -7 17 C-7.66 16.01 -8.32 15.02 -9 14 C-11.32452624 17.48678936 -11.29773734 19.06967571 -11.4140625 23.19921875 C-11.45273438 24.40771484 -11.49140625 25.61621094 -11.53125 26.86132812 C-11.57765625 28.7552832 -11.57765625 28.7552832 -11.625 30.6875 C-11.68300781 32.59885742 -11.68300781 32.59885742 -11.7421875 34.54882812 C-11.83657686 37.69907292 -11.9221583 40.84930991 -12 44 C-12.33 44 -12.66 44 -13 44 C-13.01981934 43.0620459 -13.03963867 42.1240918 -13.06005859 41.15771484 C-13.1384386 37.65746299 -13.22514081 34.15761836 -13.31738281 30.65771484 C-13.35552112 29.146727 -13.39039972 27.63565304 -13.421875 26.12451172 C-13.46785705 23.94467522 -13.52579325 21.7654238 -13.5859375 19.5859375 C-13.6173584 18.2767334 -13.6487793 16.9675293 -13.68115234 15.61865234 C-13.99090088 12.10326736 -14.73487021 9.28045936 -16 6 C-14.02 5.67 -12.04 5.34 -10 5 C-9.67 5.66 -9.34 6.32 -9 7 C-7.05925139 6.72382467 -7.05925139 6.72382467 -5 6 C-4.34 5.01 -3.68 4.02 -3 3 C-2.34 3 -1.68 3 -1 3 C-0.67 2.01 -0.34 1.02 0 0 Z " fill="#232C64" transform="translate(148,179)"/>
<path d="M0 0 C3.96 0 7.92 0 12 0 C12 1.32 12 2.64 12 4 C12.99 4 13.98 4 15 4 C15.33 5.32 15.66 6.64 16 8 C16.763125 7.79375 17.52625 7.5875 18.3125 7.375 C21 7 21 7 24 9 C22.9275 9.0825 21.855 9.165 20.75 9.25 C16.56163 10.087674 15.54074606 10.67515797 13 14 C12.36004039 17.0849946 12.36004039 17.0849946 12.390625 20.515625 C12.35839844 21.76601562 12.32617188 23.01640625 12.29296875 24.3046875 C12.27169922 26.25761719 12.27169922 26.25761719 12.25 28.25 C12.22035156 29.56742188 12.19070312 30.88484375 12.16015625 32.2421875 C12.08945464 35.49446134 12.0424643 38.74723492 12 42 C8.04 42 4.08 42 0 42 C0 28.14 0 14.28 0 0 Z M1 1 C1 14.2 1 27.4 1 41 C4.3 41 7.6 41 11 41 C11 40.13721436 11 39.27442871 11 38.38549805 C11 9 11 9 13 6 C12.34 6 11.68 6 11 6 C11 4.35 11 2.7 11 1 C7.7 1 4.4 1 1 1 Z " fill="#D7DCEE" transform="translate(95,181)"/>
<path d="M0 0 C5.28 1.65 10.56 3.3 16 5 C16.33 6.65 16.66 8.3 17 10 C15.47728009 11.52271991 14.12064841 11.20581982 12 11.25 C6.93089319 11.21745357 2.67615227 9.85719523 -2 8 C-2 5 -2 5 0 0 Z " fill="#1F2B62" transform="translate(331,203)"/>
<path d="M0 0 C3.5625 0.375 3.5625 0.375 5.5 2.0625 C6.75464083 4.79318887 7.01952746 6.40432151 6.5625 9.375 C5.5 11.1875 5.5 11.1875 3.5625 12.375 C0.0625 12.8125 0.0625 12.8125 -3.4375 12.375 C-5.4375 10.75 -5.4375 10.75 -6.4375 8.375 C-6.12289965 3.13166091 -5.59254482 0.6100958 0 0 Z " fill="#EBECF5" transform="translate(313.4375,162.625)"/>
<path d="M0 0 C4.47269291 0.04649369 8.68354536 1.09125755 13 2.1875 C13 2.8475 13 3.5075 13 4.1875 C12.01 4.1875 11.02 4.1875 10 4.1875 C10 4.8475 10 5.5075 10 6.1875 C12.62901288 4.66543991 14.84365964 3.34384036 17 1.1875 C17.125 6.9375 17.125 6.9375 16 9.1875 C10.50415003 10.93008658 7.02159699 9.31968602 2 7.1875 C0.00359361 6.51014783 -1.99504414 5.83911065 -4 5.1875 C-4 0.25 -4 0.25 0 0 Z " fill="#14215D" transform="translate(342,189.8125)"/>
<path d="M0 0 C1.875 1.125 1.875 1.125 3 3 C3.38976435 6.11811483 3.50422245 8.11019567 1.9375 10.875 C-1.09814371 12.63763183 -3.57798172 12.37331109 -7 12 C-9.31282587 8.53076119 -9.42478586 7.07794425 -9 3 C-6.79086995 -0.68188342 -4.01844539 -0.50230567 0 0 Z " fill="#EDF0F4" transform="translate(84,163)"/>
<path d="M0 0 C0 18.15 0 36.3 0 55 C-0.33 55 -0.66 55 -1 55 C-1.33 47.08 -1.66 39.16 -2 31 C-3.06546953 34.1964086 -3.07427838 36.65747276 -3 40 C-4.32 40.66 -5.64 41.32 -7 42 C-6.34 40.35 -5.68 38.7 -5 37 C-5.495 37.495 -5.495 37.495 -6 38 C-6.99 37.34 -7.98 36.68 -9 36 C-8.67 35.34 -8.34 34.68 -8 34 C-7.34 34.33 -6.68 34.66 -6 35 C-6.226875 34.154375 -6.45375 33.30875 -6.6875 32.4375 C-7.09143364 27.99422997 -5.97302401 25.94604801 -4 22 C-3.34 22.66 -2.68 23.32 -2 24 C-1.67 16.74 -1.34 9.48 -1 2 C-1.66 1.67 -2.32 1.34 -3 1 C-1 0 -1 0 0 0 Z " fill="#101B5D" transform="translate(187,180)"/>
<path d="M0 0 C3.63 0 7.26 0 11 0 C11 0.33 11 0.66 11 1 C9.329375 1.309375 9.329375 1.309375 7.625 1.625 C3.81048863 2.58543708 3.81048863 2.58543708 2.78344727 5.67089844 C1.96828009 9.13478737 1.78683642 12.0868515 1.83984375 15.640625 C1.85080078 16.87554687 1.86175781 18.11046875 1.87304688 19.3828125 C1.89431641 20.65898437 1.91558594 21.93515625 1.9375 23.25 C1.97181344 25.79681993 2.00198129 28.34370021 2.02734375 30.890625 C2.04531006 32.01500977 2.06327637 33.13939453 2.08178711 34.29785156 C2 37 2 37 1 39 C2.98 39.33 4.96 39.66 7 40 C7.33 39.01 7.66 38.02 8 37 C9.485 36.505 9.485 36.505 11 36 C11 37.98 11 39.96 11 42 C7.37 42 3.74 42 0 42 C0 28.14 0 14.28 0 0 Z " fill="#F5FBFE" transform="translate(308,181)"/>
<path d="M0 0 C2.97 0.99 5.94 1.98 9 3 C8.34 3.66 7.68 4.32 7 5 C7 5.99 7 6.98 7 8 C7.99 8.33 8.98 8.66 10 9 C9.01 9.66 8.02 10.32 7 11 C6.67 11.66 6.34 12.32 6 13 C1.69159287 11.92289822 -1.63576723 10.96052484 -5 8 C-3.62845496 5.04590299 -2.01136276 2.55991624 0 0 Z " fill="#EAEEF2" transform="translate(329,210)"/>
<path d="M0 0 C0.99 0.66 1.98 1.32 3 2 C3.3125 4.5 3.3125 4.5 3 7 C2.34 7.66 1.68 8.32 1 9 C0.01 9 -0.98 9 -2 9 C-2 9.66 -2 10.32 -2 11 C-1.34 11 -0.68 11 0 11 C-0.33 12.32 -0.66 13.64 -1 15 C-1.66 15 -2.32 15 -3 15 C-2.67 16.65 -2.34 18.3 -2 20 C-3.32 19.34 -4.64 18.68 -6 18 C-5.67 17.01 -5.34 16.02 -5 15 C-8.3 13.35 -11.6 11.7 -15 10 C-14.67 9.34 -14.34 8.68 -14 8 C-12.01432292 8.29296875 -10.02864583 8.5859375 -8.04296875 8.87890625 C-5.7974658 9.13904799 -5.7974658 9.13904799 -3 8 C-1.81608777 5.62374655 -1.81608777 5.62374655 -1 3 C-0.67 2.01 -0.34 1.02 0 0 Z " fill="#202C68" transform="translate(74,171)"/>
<path d="M0 0 C3.96 0 7.92 0 12 0 C11.01 2.64 10.02 5.28 9 8 C5.04 8 1.08 8 -3 8 C-1.125 2.25 -1.125 2.25 0 0 Z " fill="#E8EFF8" transform="translate(159,167)"/>
<path d="M0 0 C0.33 0 0.66 0 1 0 C1.31986304 3.99828799 1.22229924 6.52761413 -0.5 10.1875 C-4.27456894 14.43389006 -8.01045569 16.73596617 -13.7421875 17.2421875 C-16.17611527 17.24908248 -18.57323043 17.17902398 -21 17 C-21 16.67 -21 16.34 -21 16 C-20.37351562 15.89042969 -19.74703125 15.78085938 -19.1015625 15.66796875 C-18.28429687 15.50941406 -17.46703125 15.35085937 -16.625 15.1875 C-15.81289063 15.03667969 -15.00078125 14.88585937 -14.1640625 14.73046875 C-11.64179359 14.12455058 -11.64179359 14.12455058 -10 11 C-9.34 11 -8.68 11 -8 11 C-8 10.34 -8 9.68 -8 9 C-7.34 9 -6.68 9 -6 9 C-6.33 8.01 -6.66 7.02 -7 6 C-5.1875 4.4375 -5.1875 4.4375 -3 3 C-2.01 3.33 -1.02 3.66 0 4 C0 2.68 0 1.36 0 0 Z " fill="#F9FAF6" transform="translate(359,207)"/>
<path d="M0 0 C3.96 0 7.92 0 12 0 C12 0.99 12 1.98 12 3 C12.66 3.33 13.32 3.66 14 4 C10.04 4 6.08 4 2 4 C2 18.19 2 32.38 2 47 C-0.64103866 43.03844201 -0.15246173 39.75182976 0.0234375 35.17578125 C0.04846344 34.31438034 0.07348938 33.45297943 0.09927368 32.56547546 C0.18144859 29.81408183 0.27804745 27.06340871 0.375 24.3125 C0.43324215 22.44729506 0.49054538 20.58206055 0.546875 18.71679688 C0.68702364 14.14411681 0.84011006 9.57203064 1 5 C0.01 4.67 -0.98 4.34 -2 4 C-1.34 3.34 -0.68 2.68 0 2 C0 1.34 0 0.68 0 0 Z " fill="#111C52" transform="translate(93,177)"/>
<path d="M0 0 C0 5.94 0 11.88 0 18 C-0.66 17.01 -1.32 16.02 -2 15 C-2.33 16.32 -2.66 17.64 -3 19 C-2.34 19 -1.68 19 -1 19 C-1 19.66 -1 20.32 -1 21 C-1.66 21 -2.32 21 -3 21 C-3 24.96 -3 28.92 -3 33 C-8.94 33.495 -8.94 33.495 -15 34 C-15 33.34 -15 32.68 -15 32 C-11.37 32 -7.74 32 -4 32 C-4.01571045 31.13721436 -4.0314209 30.27442871 -4.04760742 29.38549805 C-4.09875955 26.18190733 -4.1363616 22.97852485 -4.16479492 19.7746582 C-4.17987397 18.38852081 -4.2003405 17.00243106 -4.22631836 15.61645508 C-4.26273716 13.62341854 -4.27813018 11.63003277 -4.29296875 9.63671875 C-4.31653442 7.83787231 -4.31653442 7.83787231 -4.34057617 6.00268555 C-4 3 -4 3 -2.54418945 1.08520508 C-1 0 -1 0 0 0 Z " fill="#141D57" transform="translate(140,191)"/>
<path d="M0 0 C3 2.4375 3 2.4375 5 5 C5 5.33 5 5.66 5 6 C-0.94 6 -6.88 6 -13 6 C-10.03839838 0.07679676 -6.40054077 -1.27014622 0 0 Z " fill="#162050" transform="translate(166,191)"/>
<path d="M0 0 C5.66153846 2.33846154 5.66153846 2.33846154 7.375 5.6875 C7.58125 6.450625 7.7875 7.21375 8 8 C7.34 8.66 6.68 9.32 6 10 C5.01 10 4.02 10 3 10 C3.33 11.65 3.66 13.3 4 15 C3.34 15 2.68 15 2 15 C1.67 15.66 1.34 16.32 1 17 C-5.27 16.67 -11.54 16.34 -18 16 C-17.67 15.34 -17.34 14.68 -17 14 C-11.39 14 -5.78 14 0 14 C-0.33 13.01 -0.66 12.02 -1 11 C-0.1875 8.375 -0.1875 8.375 1 6 C1.66 5.67 2.32 5.34 3 5 C1.68 3.68 0.36 2.36 -1 1 C-0.67 0.67 -0.34 0.34 0 0 Z " fill="#E0E4EF" transform="translate(170,182)"/>
<path d="M0 0 C0.99 0.33 1.98 0.66 3 1 C3.84098656 5.01804691 4.05404945 8.01803543 3 12 C-1.75 13.125 -1.75 13.125 -4 12 C-3.91253716 10.56138706 -3.80434652 9.12402492 -3.6875 7.6875 C-3.62949219 6.88699219 -3.57148437 6.08648437 -3.51171875 5.26171875 C-2.91793306 2.63727666 -2.04219706 1.69179328 0 0 Z M4 5 C6 6 6 6 6 6 Z " fill="#F9F9F9" transform="translate(41,185)"/>
<path d="M0 0 C0.33 0 0.66 0 1 0 C1.33 4.62 1.66 9.24 2 14 C2.66 14 3.32 14 4 14 C3.67 12.68 3.34 11.36 3 10 C3.99 9.34 4.98 8.68 6 8 C6.99 10.97 7.98 13.94 9 17 C7.68 16.67 6.36 16.34 5 16 C4.34 16.99 3.68 17.98 3 19 C1.68 18.67 0.36 18.34 -1 18 C-1 18.99 -1 19.98 -1 21 C-2.32 20.67 -3.64 20.34 -5 20 C-4.360625 18.9275 -3.72125 17.855 -3.0625 16.75 C-0.33389816 11.38921335 -0.1974507 5.92352087 0 0 Z " fill="#242E68" transform="translate(232,197)"/>
<path d="M0 0 C0.66 0.33 1.32 0.66 2 1 C4.204364 1.22950319 6.41392173 1.41075933 8.625 1.5625 C9.81351563 1.64628906 11.00203125 1.73007813 12.2265625 1.81640625 C13.59941406 1.90728516 13.59941406 1.90728516 15 2 C15 2.33 15 2.66 15 3 C14.3709375 3.01417969 13.741875 3.02835938 13.09375 3.04296875 C6.47826706 3.41160259 2.27174436 5.00937787 -3 9 C-3 7.35 -3 5.7 -3 4 C-6.96 4 -10.92 4 -15 4 C-14.67 3.34 -14.34 2.68 -14 2 C-9.95296627 1.05882937 -6.13407553 1 -2 1 C-1.34 0.67 -0.68 0.34 0 0 Z " fill="#1B245C" transform="translate(203,177)"/>
<path d="M0 0 C0.66 0 1.32 0 2 0 C1.67 1.65 1.34 3.3 1 5 C1.86625 5.28875 2.7325 5.5775 3.625 5.875 C6.75 6.91666667 9.875 7.95833333 13 9 C12.67 9.66 12.34 10.32 12 11 C11.34 10.814375 10.68 10.62875 10 10.4375 C6.10669886 9.86972692 2.88624521 10.40718293 -1 11 C-1.0270043 9.54176788 -1.04639787 8.08339325 -1.0625 6.625 C-1.07410156 5.81289062 -1.08570313 5.00078125 -1.09765625 4.1640625 C-1 2 -1 2 0 0 Z M-2 12 C-2 12.99 -2 13.98 -2 15 C-1.01 15.33 -0.02 15.66 1 16 C-4.53846154 15.38461538 -4.53846154 15.38461538 -6.875 13.4375 C-7.24625 12.963125 -7.6175 12.48875 -8 12 C-5.50907189 10.75453595 -4.58919267 11.2232422 -2 12 Z " fill="#E2E6F0" transform="translate(337,189)"/>
<path d="M0 0 C4.455 0.99 4.455 0.99 9 2 C8.67 3.32 8.34 4.64 8 6 C-0.57142857 6.14285714 -0.57142857 6.14285714 -4 5 C-4 4.34 -4 3.68 -4 3 C-2.68 2.67 -1.36 2.34 0 2 C0 1.34 0 0.68 0 0 Z " fill="#EAECF3" transform="translate(256,218)"/>
<path d="M0 0 C2.97 0.495 2.97 0.495 6 1 C6.36923077 6.53846154 6.36923077 6.53846154 4.5 8.875 C3.7575 9.431875 3.7575 9.431875 3 10 C2.01 9.67 1.02 9.34 0 9 C0.33 8.34 0.66 7.68 1 7 C0.01 6.67 -0.98 6.34 -2 6 C-1.67 5.38125 -1.34 4.7625 -1 4.125 C0.14193235 2.08981656 0.14193235 2.08981656 0 0 Z " fill="#FAFCF4" transform="translate(81,165)"/>
<path d="M0 0 C2.69097695 2.08550714 4.72333049 3.73555173 5.47265625 7.16015625 C5.63396326 11.36115189 5.34411852 13.47306851 3 17.0625 C2.34 17.701875 1.68 18.34125 1 19 C0.375 16.6875 0.375 16.6875 0 14 C0.66 13.01 1.32 12.02 2 11 C2.07905064 8.66800612 2.08798769 6.33167378 2 4 C1.34 4 0.68 4 0 4 C0 2.68 0 1.36 0 0 Z " fill="#1A2358" transform="translate(266,192)"/>
<path d="M0 0 C4 0 4 0 5.66796875 1.390625 C6.16941406 2.00421875 6.67085938 2.6178125 7.1875 3.25 C7.95126953 4.15492188 7.95126953 4.15492188 8.73046875 5.078125 C10.04705475 7.07123366 10.57139611 8.66591615 11 11 C11.66 11 12.32 11 13 11 C13 12.32 13 13.64 13 15 C9.25220883 13.75073628 8.95089806 12.19659477 7.18359375 8.84765625 C5.90757826 6.85572448 4.60101244 5.64653333 2.75 4.1875 C1.8425 3.465625 0.935 2.74375 0 2 C0 1.34 0 0.68 0 0 Z " fill="#1B2458" transform="translate(271,181)"/>
<path d="M0 0 C2.33944736 0.28730055 4.6739143 0.61936779 7 1 C5.68 3.64 4.36 6.28 3 9 C2.01 8.67 1.02 8.34 0 8 C0 7.34 0 6.68 0 6 C-0.66 5.67 -1.32 5.34 -2 5 C-1.125 1.125 -1.125 1.125 0 0 Z " fill="#FBFCFA" transform="translate(334,182)"/>
<path d="M0 0 C1.33333333 0 2.66666667 0 4 0 C4.02705729 1.77074917 4.04642195 3.54161711 4.0625 5.3125 C4.07410156 6.29863281 4.08570313 7.28476563 4.09765625 8.30078125 C4 11 4 11 3 14 C2.34 14 1.68 14 1 14 C-0.04976964 10.85069107 -0.10131595 8.61185544 -0.0625 5.3125 C-0.05347656 4.31863281 -0.04445312 3.32476562 -0.03515625 2.30078125 C-0.02355469 1.54152344 -0.01195312 0.78226563 0 0 Z " fill="#111D58" transform="translate(233,197)"/>
<path d="M0 0 C0.33 0 0.66 0 1 0 C1.125 5.75 1.125 5.75 0 8 C-2.9375 8.75 -2.9375 8.75 -6 9 C-8 7 -8 7 -8.125 3.875 C-8.08375 2.92625 -8.0425 1.9775 -8 1 C-6.35 1 -4.7 1 -3 1 C-3 1.66 -3 2.32 -3 3 C-3.99 3 -4.98 3 -6 3 C-6 3.66 -6 4.32 -6 5 C-2.37206002 3.13433512 -2.37206002 3.13433512 0 0 Z " fill="#14216E" transform="translate(358,191)"/>
<path d="M0 0 C0.33 0 0.66 0 1 0 C1 3.3 1 6.6 1 10 C-8.57 10 -18.14 10 -28 10 C-28 9.67 -28 9.34 -28 9 C-27.25314941 8.97494385 -26.50629883 8.9498877 -25.73681641 8.92407227 C-22.36602733 8.80831787 -18.99553217 8.68549872 -15.625 8.5625 C-14.449375 8.52318359 -13.27375 8.48386719 -12.0625 8.44335938 C-10.94101563 8.40146484 -9.81953125 8.35957031 -8.6640625 8.31640625 C-7.62717285 8.27974854 -6.5902832 8.24309082 -5.52197266 8.20532227 C-3.00574834 8.15835777 -3.00574834 8.15835777 -1 7 C-0.59270772 4.67843403 -0.25561323 2.3431213 0 0 Z " fill="#CBD2EA" transform="translate(181,196)"/>
<path d="M0 0 C1.8125 0.25 1.8125 0.25 4 1 C4.99 2.32 5.98 3.64 7 5 C3.37 5.66 -0.26 6.32 -4 7 C-4 6.01 -4 5.02 -4 4 C-4.66 3.67 -5.32 3.34 -6 3 C-5.01 3 -4.02 3 -3 3 C-3 3.66 -3 4.32 -3 5 C-2.34 5 -1.68 5 -1 5 C-1.33 4.01 -1.66 3.02 -2 2 C-1.34 2 -0.68 2 0 2 C0 1.34 0 0.68 0 0 Z " fill="#202964" transform="translate(38,199)"/>
<path d="M0 0 C3.10633303 0.93189991 5.28790442 2.19193628 8 4 C5.43106162 5.28446919 3.23423663 5.32977144 0.375 5.5625 C-0.62789062 5.64628906 -1.63078125 5.73007813 -2.6640625 5.81640625 C-3.43492187 5.87699219 -4.20578125 5.93757812 -5 6 C-3.63016497 2.83884224 -3.0109362 2.0072908 0 0 Z " fill="#1C2762" transform="translate(158,191)"/>
<path d="M0 0 C3.63 0 7.26 0 11 0 C9.35 1.98 7.7 3.96 6 6 C4.35 5.67 2.7 5.34 1 5 C0.67 3.35 0.34 1.7 0 0 Z " fill="#F9FCF8" transform="translate(160,167)"/>
<path d="M0 0 C-2.31 2.64 -4.62 5.28 -7 8 C-7.99 7.67 -8.98 7.34 -10 7 C-8.1251273 1.21914251 -6.28229222 -1.57057306 0 0 Z " fill="#232B60" transform="translate(259,192)"/>
<path d="M0 0 C6.625 -0.25 6.625 -0.25 10 2 C9.67 2.99 9.34 3.98 9 5 C8.01 4.67 7.02 4.34 6 4 C6.66 4 7.32 4 8 4 C8 3.34 8 2.68 8 2 C6.35 2 4.7 2 3 2 C2.67 3.32 2.34 4.64 2 6 C0.68 5.34 -0.64 4.68 -2 4 C-1.34 2.68 -0.68 1.36 0 0 Z " fill="#2F3765" transform="translate(339,190)"/>
<path d="M0 0 C0.33 0 0.66 0 1 0 C0.67 2.64 0.34 5.28 0 8 C2.64 8.33 5.28 8.66 8 9 C8 9.66 8 10.32 8 11 C4.37 10.34 0.74 9.68 -3 9 C-2.5020163 5.26512223 -2.12508244 3.18762365 0 0 Z " fill="#DCE2F0" transform="translate(37,189)"/>
<path d="M0 0 C3.96 0 7.92 0 12 0 C12.33 1.32 12.66 2.64 13 4 C14.65 3.01 16.3 2.02 18 1 C18.33 2.32 18.66 3.64 19 5 C18.01 4.67 17.02 4.34 16 4 C16 4.66 16 5.32 16 6 C14.35 6 12.7 6 11 6 C11 4.35 11 2.7 11 1 C7.37 1 3.74 1 0 1 C0 0.67 0 0.34 0 0 Z " fill="#D2D6E8" transform="translate(188,181)"/>
<path d="M0 0 C-0.99 0.33 -1.98 0.66 -3 1 C-3 1.66 -3 2.32 -3 3 C-2.34 3 -1.68 3 -1 3 C-0.67 3.99 -0.34 4.98 0 6 C-2.31 5.34 -4.62 4.68 -7 4 C-7 3.67 -7 3.34 -7 3 C-10.3 2.67 -13.6 2.34 -17 2 C-17 1.67 -17 1.34 -17 1 C-11.27959989 0.1679418 -5.77759884 -0.12036664 0 0 Z " fill="#24306D" transform="translate(224,177)"/>
<path d="M0 0 C-0.33 0.99 -0.66 1.98 -1 3 C-3.04660819 3.70572696 -5.05592534 4.0095872 -7.1875 4.375 C-8.0846875 4.684375 -8.0846875 4.684375 -9 5 C-9.33 5.99 -9.66 6.98 -10 8 C-10.33 6.02 -10.66 4.04 -11 2 C-3.375 0 -3.375 0 0 0 Z " fill="#E1E7F3" transform="translate(45,204)"/>
<path d="M0 0 C3.63 0 7.26 0 11 0 C11 0.33 11 0.66 11 1 C9.329375 1.309375 9.329375 1.309375 7.625 1.625 C3.73400805 2.61628301 3.73400805 2.61628301 2.5625 6.125 C2.376875 7.07375 2.19125 8.0225 2 9 C1.34 8.67 0.68 8.34 0 8 C0 5.36 0 2.72 0 0 Z " fill="#E6EBF7" transform="translate(308,181)"/>
<path d="M0 0 C3.36143418 1.12047806 4.57528834 2.49707183 7 5 C7.66 5.33 8.32 5.66 9 6 C9.33 5.34 9.66 4.68 10 4 C11.32 4.99 12.64 5.98 14 7 C13 8 13 8 10.25 8.25 C6.55730019 7.96594617 4.87172063 7.31333051 2 5 C0.6875 2.3125 0.6875 2.3125 0 0 Z " fill="#2D3665" transform="translate(200,206)"/>
<path d="M0 0 C0.99 0.33 1.98 0.66 3 1 C3 1.99 3 2.98 3 4 C3.99 4.33 4.98 4.66 6 5 C6 5.66 6 6.32 6 7 C2.37 6.01 -1.26 5.02 -5 4 C-5 3.34 -5 2.68 -5 2 C-3.35 1.67 -1.7 1.34 0 1 C0 0.67 0 0.34 0 0 Z " fill="#283166" transform="translate(351,177)"/>
<path d="M0 0 C0 1.32 0 2.64 0 4 C0.66 4 1.32 4 2 4 C2 4.99 2 5.98 2 7 C1.34 7 0.68 7 0 7 C-0.33 7.99 -0.66 8.98 -1 10 C-1.20625 9.05125 -1.4125 8.1025 -1.625 7.125 C-2.70833333 3.70833333 -2.70833333 3.70833333 -6.125 2.625 C-7.07375 2.41875 -8.0225 2.2125 -9 2 C-5.5647952 -0.29013653 -4.014669 -0.17842973 0 0 Z " fill="#313A6C" transform="translate(88,161)"/>
<path d="M0 0 C0.33 0 0.66 0 1 0 C1.45543788 5.69297345 0.58764877 8.54261819 -3 13 C-3.33 13 -3.66 13 -4 13 C-4.25 7.375 -4.25 7.375 -2 4 C-1.34 4 -0.68 4 0 4 C0 2.68 0 1.36 0 0 Z " fill="#D9DCEC" transform="translate(359,207)"/>
<path d="M0 0 C1.67542976 0.28604898 3.34385343 0.61781233 5 1 C4.67 2.65 4.34 4.3 4 6 C2.68 5.67 1.36 5.34 0 5 C-0.5625 3.0625 -0.5625 3.0625 -1 1 C-0.67 0.67 -0.34 0.34 0 0 Z " fill="#7F89BA" transform="translate(361,218)"/>
<path d="M0 0 C0.33 0 0.66 0 1 0 C1.91397824 5.68697571 1.91397824 10.31302429 1 16 C0.67 16 0.34 16 0 16 C-0.33 13.69 -0.66 11.38 -1 9 C-1.66 9.99 -2.32 10.98 -3 12 C-3 9.69 -3 7.38 -3 5 C-2.34 4.67 -1.68 4.34 -1 4 C-0.34786708 1.97536745 -0.34786708 1.97536745 0 0 Z " fill="#0E1A5A" transform="translate(286,192)"/>
<path d="M0 0 C0.89203125 0.01804688 1.7840625 0.03609375 2.703125 0.0546875 C3.71632812 0.08949219 3.71632812 0.08949219 4.75 0.125 C4.75 0.455 4.75 0.785 4.75 1.125 C3.780625 1.24875 2.81125 1.3725 1.8125 1.5 C0.2965625 1.809375 0.2965625 1.809375 -1.25 2.125 C-1.58 2.785 -1.91 3.445 -2.25 4.125 C-5.3125 4.75 -5.3125 4.75 -8.25 5.125 C-8.58 4.135 -8.91 3.145 -9.25 2.125 C-6.03817851 0.21891902 -3.71117397 -0.09766247 0 0 Z " fill="#DADDE9" transform="translate(161.25,179.875)"/>
<path d="M0 0 C4.29 0.33 8.58 0.66 13 1 C12.67 1.99 12.34 2.98 12 4 C12.66 4.33 13.32 4.66 14 5 C12.56208484 4.85831863 11.1246763 4.71148957 9.6875 4.5625 C8.88699219 4.48128906 8.08648437 4.40007812 7.26171875 4.31640625 C4.60845596 3.94522441 2.39405235 3.19702617 0 2 C0 1.34 0 0.68 0 0 Z " fill="#0C1A57" transform="translate(154,175)"/>
<path d="M0 0 C0.99 0.33 1.98 0.66 3 1 C3 3.31 3 5.62 3 8 C2.01 8.495 2.01 8.495 1 9 C-0.32 8.01 -1.64 7.02 -3 6 C-2.01 4.02 -1.02 2.04 0 0 Z " fill="#F9F9F1" transform="translate(312,163)"/>
<path d="M0 0 C1.00496852 3.01490557 1.10335303 5.04181692 1.0625 8.1875 C1.05347656 9.08855469 1.04445313 9.98960937 1.03515625 10.91796875 C1.02355469 11.60503906 1.01195312 12.29210937 1 13 C0.34 13 -0.32 13 -1 13 C-1 12.34 -1 11.68 -1 11 C-1.66 11 -2.32 11 -3 11 C-2.25 3.375 -2.25 3.375 0 0 Z " fill="#1B2357" transform="translate(326,186)"/>
<path d="M0 0 C0.66 0 1.32 0 2 0 C0.76075855 4.95696581 -0.78577758 7.11658466 -5 10 C-5.33 9.01 -5.66 8.02 -6 7 C-5.34 7 -4.68 7 -4 7 C-3.71125 6.401875 -3.4225 5.80375 -3.125 5.1875 C-2 3 -2 3 0 0 Z " fill="#DDE3F1" transform="translate(279,209)"/>
<path d="M0 0 C0.66 0.33 1.32 0.66 2 1 C2 2.32 2 3.64 2 5 C0.68 4.67 -0.64 4.34 -2 4 C-2 3.01 -2 2.02 -2 1 C-1.34 0.67 -0.68 0.34 0 0 Z M-4 2 C-3.34 2.99 -2.68 3.98 -2 5 C-3.98 5.99 -3.98 5.99 -6 7 C-5.125 3.125 -5.125 3.125 -4 2 Z " fill="#FCFBFB" transform="translate(357,206)"/>
<path d="M0 0 C0.66 0.33 1.32 0.66 2 1 C1.690625 1.9075 1.38125 2.815 1.0625 3.75 C0.2727737 6.16563338 -0.42949297 8.52780285 -1 11 C-3 8 -3 8 -2.75 4.9375 C-2 2 -2 2 0 0 Z " fill="#DBE2EF" transform="translate(310,163)"/>
<path d="M0 0 C1.75 1.25 1.75 1.25 2.75 3.25 C0.77 3.58 -1.21 3.91 -3.25 4.25 C-3.25 3.59 -3.25 2.93 -3.25 2.25 C-4.57 1.92 -5.89 1.59 -7.25 1.25 C-2.85 -0.95 -2.85 -0.95 0 0 Z " fill="#DBDFEA" transform="translate(173.25,210.75)"/>
<path d="M0 0 C-2.9465385 1.80066242 -5.88801935 3.50163895 -9 5 C-9.99 4.34 -10.98 3.68 -12 3 C-10.75823305 2.29773859 -9.50614401 1.61370891 -8.25 0.9375 C-7.20585938 0.36322266 -7.20585938 0.36322266 -6.140625 -0.22265625 C-3.63859372 -1.1312406 -2.4667645 -0.88336837 0 0 Z " fill="#D7DBEB" transform="translate(54,181)"/>
<path d="M0 0 C0 1.98 0 3.96 0 6 C-3.63 6 -7.26 6 -11 6 C-11 5.67 -11 5.34 -11 5 C-7.535 4.505 -7.535 4.505 -4 4 C-3.67 3.01 -3.34 2.02 -3 1 C-1 0 -1 0 0 0 Z " fill="#DEE1EE" transform="translate(319,217)"/>
<path d="M0 0 C0.763125 0.20625 1.52625 0.4125 2.3125 0.625 C1.6525 2.605 0.9925 4.585 0.3125 6.625 C-1.6675 4.975 -3.6475 3.325 -5.6875 1.625 C-2.6875 -0.375 -2.6875 -0.375 0 0 Z " fill="#E5E8F3" transform="translate(123.6875,189.375)"/>
<path d="M0 0 C0.33 0.66 0.66 1.32 1 2 C-2.96 2 -6.92 2 -11 2 C-10 0 -10 0 -8.3125 -0.6875 C-5.32796893 -1.09081501 -2.9158572 -0.71276509 0 0 Z " fill="#111F56" transform="translate(265,178)"/>
<path d="M0 0 C0.556875 0.7115625 0.556875 0.7115625 1.125 1.4375 C3.62646962 3.52205802 5.81593418 3.64621491 9 4 C9 4.33 9 4.66 9 5 C7.35 5 5.7 5 4 5 C4 5.99 4 6.98 4 8 C3.01 8 2.02 8 1 8 C1 6.35 1 4.7 1 3 C0.34 3 -0.32 3 -1 3 C-0.67 2.01 -0.34 1.02 0 0 Z " fill="#2A336C" transform="translate(307,171)"/>
<path d="M0 0 C2.0625 0.4375 2.0625 0.4375 4 1 C3.34 1 2.68 1 2 1 C2 1.66 2 2.32 2 3 C-0.52475462 4.26237731 -2.31200466 4.09856404 -5.125 4.0625 C-6.03507812 4.05347656 -6.94515625 4.04445312 -7.8828125 4.03515625 C-8.58148438 4.02355469 -9.28015625 4.01195312 -10 4 C-10 3.67 -10 3.34 -10 3 C-9.04287109 2.80083984 -9.04287109 2.80083984 -8.06640625 2.59765625 C-7.24011719 2.42105469 -6.41382813 2.24445313 -5.5625 2.0625 C-4.73878906 1.88847656 -3.91507812 1.71445313 -3.06640625 1.53515625 C-1.02338796 1.19247006 -1.02338796 1.19247006 0 0 Z " fill="#CED3E4" transform="translate(348,220)"/>
<path d="M0 0 C0.99 0 1.98 0 3 0 C2.67 1.98 2.34 3.96 2 6 C1.01 6.33 0.02 6.66 -1 7 C-1.625 4.625 -1.625 4.625 -2 2 C-1.34 1.34 -0.68 0.68 0 0 Z " fill="#FAFBED" transform="translate(41,206)"/>
<path d="M0 0 C0.66 0 1.32 0 2 0 C2 0.66 2 1.32 2 2 C2.66 2 3.32 2 4 2 C4 4.97 4 7.94 4 11 C0.85041169 7.57653445 0.43820891 4.55737263 0 0 Z " fill="#182159" transform="translate(179,187)"/>
<path d="M0 0 C-2.24497221 2.24497221 -2.96027349 2.37003419 -6 2.75 C-7.051875 2.89695313 -7.051875 2.89695313 -8.125 3.046875 C-10 3 -10 3 -12 1 C-8.0186217 -0.3271261 -4.14954773 -0.06915913 0 0 Z " fill="#D7DCEE" transform="translate(346,180)"/>
<path d="M0 0 C0.66 0.33 1.32 0.66 2 1 C1.67 1.99 1.34 2.98 1 4 C-3.29 3.67 -7.58 3.34 -12 3 C-12 2.67 -12 2.34 -12 2 C-8.04 2 -4.08 2 0 2 C0 1.34 0 0.68 0 0 Z M-2 4 C-0.515 4.99 -0.515 4.99 1 6 C0.01 6 -0.98 6 -2 6 C-2 5.34 -2 4.68 -2 4 Z " fill="#4B5481" transform="translate(168,173)"/>
<path d="M0 0 C0.33 0 0.66 0 1 0 C1.13277344 0.61488281 1.26554688 1.22976562 1.40234375 1.86328125 C1.57894531 2.67152344 1.75554687 3.47976562 1.9375 4.3125 C2.19853516 5.51326172 2.19853516 5.51326172 2.46484375 6.73828125 C2.99886159 9.145401 2.99886159 9.145401 4 12 C3.01 12 2.02 12 1 12 C-1.83022097 8.00439392 -0.76210446 4.57262677 0 0 Z " fill="#D4D8EA" transform="translate(248,199)"/>
<path d="M0 0 C2 2 2 2 2.375 4 C2.82123176 6.20265017 2.82123176 6.20265017 5.0625 7.25 C5.701875 7.4975 6.34125 7.745 7 8 C5.35 8.33 3.7 8.66 2 9 C-1.07692308 4.56923077 -1.07692308 4.56923077 -0.6875 1.6875 C-0.460625 1.130625 -0.23375 0.57375 0 0 Z " fill="#202B63" transform="translate(251,203)"/>
<path d="M0 0 C0 0.33 0 0.66 0 1 C-1.258125 1.28875 -2.51625 1.5775 -3.8125 1.875 C-6.8539399 2.57303539 -8.30669878 3.20446585 -11 5 C-11.33 4.01 -11.66 3.02 -12 2 C-8.15820154 -2.0018734 -5.05897886 -0.92747946 0 0 Z " fill="#DCDFEF" transform="translate(164,190)"/>
<path d="M0 0 C2.88437779 1.29299694 4.87219421 2.65941363 7 5 C6.67 5.66 6.34 6.32 6 7 C1.2 4.53846154 1.2 4.53846154 0.1875 1.8125 C0.125625 1.214375 0.06375 0.61625 0 0 Z " fill="#DEE1F0" transform="translate(272,184)"/>
<path d="M0 0 C2.31 0 4.62 0 7 0 C4.11964908 2.24027294 1.15133488 4.16172132 -2 6 C-1.49396008 3.83125748 -1.00016187 2.00032373 0 0 Z " fill="#1F285C" transform="translate(245,181)"/>
<path d="M0 0 C0.33 0 0.66 0 1 0 C1.33 4.62 1.66 9.24 2 14 C1.01 14.33 0.02 14.66 -1 15 C-0.67 10.05 -0.34 5.1 0 0 Z " fill="#525D8A" transform="translate(232,197)"/>
<path d="M0 0 C0 3.59857954 -0.95830515 5.09451118 -3 8 C-3.66 8 -4.32 8 -5 8 C-4.45773019 4.20411134 -2.79872437 2.52788007 0 0 Z " fill="#283462" transform="translate(205,191)"/>
<path d="M0 0 C2 3 2 3 1.75 5.5 C1 8 1 8 -1 11 C-1.0270043 9.54176788 -1.04639787 8.08339325 -1.0625 6.625 C-1.07410156 5.81289062 -1.08570313 5.00078125 -1.09765625 4.1640625 C-1 2 -1 2 0 0 Z " fill="#DEE2EF" transform="translate(327,187)"/>
<path d="M0 0 C1.65 0 3.3 0 5 0 C3.25 5.75 3.25 5.75 1 8 C1 6.68 1 5.36 1 4 C0.7018576 2.65835921 0.37756808 1.32148827 0 0 Z " fill="#182059" transform="translate(32,188)"/>
<path d="M0 0 C-1.70828921 2.10633718 -2.52148416 2.93801608 -5.26171875 3.29296875 C-6.06222656 3.25816406 -6.86273438 3.22335938 -7.6875 3.1875 C-8.89986328 3.14689453 -8.89986328 3.14689453 -10.13671875 3.10546875 C-11.05904297 3.05326172 -11.05904297 3.05326172 -12 3 C-11 1 -11 1 -9.375 0.375 C-6.2339425 -0.12095645 -3.17398169 -0.06103811 0 0 Z " fill="#CDD3E7" transform="translate(123,180)"/>
<path d="M0 0 C1.32 0.33 2.64 0.66 4 1 C3.34 2.32 2.68 3.64 2 5 C0.68 5 -0.64 5 -2 5 C-1.34 3.35 -0.68 1.7 0 0 Z " fill="#E5EBF6" transform="translate(175,215)"/>
<path d="M0 0 C2.5 2.3125 2.5 2.3125 5 5 C5 5.99 5 6.98 5 8 C4.01 7.67 3.02 7.34 2 7 C2 6.01 2 5.02 2 4 C1.34 4 0.68 4 0 4 C0 2.68 0 1.36 0 0 Z " fill="#2C3360" transform="translate(266,192)"/>
<path d="M0 0 C0.66 0.99 1.32 1.98 2 3 C-0.12780579 5.34058637 -2.11562221 6.70700306 -5 8 C-3.8141763 4.62496331 -2.72426311 2.35277269 0 0 Z " fill="#DEDFED" transform="translate(244,186)"/>
<path d="M0 0 C1.98 0.66 3.96 1.32 6 2 C6 2.99 6 3.98 6 5 C3.08482708 3.92598892 1.22189824 3.22189824 -1 1 C-0.67 0.67 -0.34 0.34 0 0 Z " fill="#E0E6F1" transform="translate(43,218)"/>
<path d="M0 0 C2.475 0.495 2.475 0.495 5 1 C5 1.99 5 2.98 5 4 C3.02 4.99 3.02 4.99 1 6 C0.67 4.02 0.34 2.04 0 0 Z " fill="#D6DEED" transform="translate(65,215)"/>
<path d="M0 0 C0.33 0 0.66 0 1 0 C1 2.31 1 4.62 1 7 C0.01 7 -0.98 7 -2 7 C-2.125 4.625 -2.125 4.625 -2 2 C-1.34 1.34 -0.68 0.68 0 0 Z " fill="#1C245D" transform="translate(284,203)"/>
<path d="M0 0 C0.99 0.33 1.98 0.66 3 1 C1.68 2.32 0.36 3.64 -1 5 C-1.99 4.67 -2.98 4.34 -4 4 C-2.68 2.68 -1.36 1.36 0 0 Z " fill="#242D63" transform="translate(51,192)"/>
<path d="M0 0 C1.65 0 3.3 0 5 0 C5 0.66 5 1.32 5 2 C4.01 2 3.02 2 2 2 C2.66 3.98 3.32 5.96 4 8 C2.68 7.34 1.36 6.68 0 6 C0 4.02 0 2.04 0 0 Z " fill="#323E72" transform="translate(350,192)"/>
<path d="M0 0 C0 0.33 0 0.66 0 1 C-1.65 1 -3.3 1 -5 1 C-5.66 2.32 -6.32 3.64 -7 5 C-7.99 5 -8.98 5 -10 5 C-8.20177069 -0.39468792 -5.09771267 -0.22656501 0 0 Z " fill="#3D4671" transform="translate(118,190)"/>
<path d="M0 0 C0.66 0.33 1.32 0.66 2 1 C1.67 2.32 1.34 3.64 1 5 C-0.32 5.33 -1.64 5.66 -3 6 C-3 4.68 -3 3.36 -3 2 C-2.01 2 -1.02 2 0 2 C0 1.34 0 0.68 0 0 Z " fill="#FAFCF2" transform="translate(352,185)"/>
<path d="M0 0 C-0.598125 0.268125 -1.19625 0.53625 -1.8125 0.8125 C-4.04327908 1.8893979 -4.04327908 1.8893979 -5.625 3.625 C-6.07875 4.07875 -6.5325 4.5325 -7 5 C-7.66 5 -8.32 5 -9 5 C-9 3.68 -9 2.36 -9 1 C-5.92677456 0.08941469 -3.19902639 -0.08886184 0 0 Z " fill="#323662" transform="translate(116,180)"/>
<path d="M0 0 C-1.32 1.32 -2.64 2.64 -4 4 C-6 3 -6 3 -7 1 C-3.375 -1.125 -3.375 -1.125 0 0 Z " fill="#1A255B" transform="translate(180,220)"/>
<path d="M0 0 C0.66 0.33 1.32 0.66 2 1 C0.68 3.64 -0.64 6.28 -2 9 C-3 5 -3 5 -1.5625 2.25 C-1.046875 1.5075 -0.53125 0.765 0 0 Z " fill="#EAF2FC" transform="translate(230,208)"/>
<path d="M0 0 C2.475 0.495 2.475 0.495 5 1 C5 1.99 5 2.98 5 4 C3.68 4.33 2.36 4.66 1 5 C0.67 3.35 0.34 1.7 0 0 Z " fill="#232C61" transform="translate(176,211)"/>
<path d="M0 0 C1.32 0.33 2.64 0.66 4 1 C3.67 3.97 3.34 6.94 3 10 C2.67 10 2.34 10 2 10 C1.855625 8.906875 1.71125 7.81375 1.5625 6.6875 C1.11711896 3.06877013 1.11711896 3.06877013 0 0 Z " fill="#E2E4F3" transform="translate(219,194)"/>
<path d="M0 0 C0.99 0 1.98 0 3 0 C2.34 1.98 1.68 3.96 1 6 C0.01 6 -0.98 6 -2 6 C-2 3 -2 3 0 0 Z " fill="#FDFCF1" transform="translate(224,189)"/>
<path d="M0 0 C2.475 0.99 2.475 0.99 5 2 C5 2.33 5 2.66 5 3 C3.576875 3.433125 3.576875 3.433125 2.125 3.875 C-1.05211578 4.76825109 -1.05211578 4.76825109 -3 7 C-3 3 -3 3 -1.5 1.25 C-1.005 0.8375 -0.51 0.425 0 0 Z " fill="#273266" transform="translate(310,160)"/>
<path d="M0 0 C0.99 0.33 1.98 0.66 3 1 C2.67 2.32 2.34 3.64 2 5 C0.68 4.34 -0.64 3.68 -2 3 C-1.34 2.01 -0.68 1.02 0 0 Z " fill="#10215B" transform="translate(357,218)"/>
<path d="M0 0 C1.32 1.32 2.64 2.64 4 4 C2.68 4.33 1.36 4.66 0 5 C-0.66 3.68 -1.32 2.36 -2 1 C-1.34 0.67 -0.68 0.34 0 0 Z " fill="#1A2258" transform="translate(68,211)"/>
<path d="M0 0 C1.32 0.33 2.64 0.66 4 1 C4.33 2.32 4.66 3.64 5 5 C3.35 4.67 1.7 4.34 0 4 C0 2.68 0 1.36 0 0 Z " fill="#E5ECF3" transform="translate(354,202)"/>
<path d="M0 0 C2.91517292 1.07401108 4.77810176 1.77810176 7 4 C6.01 4.495 6.01 4.495 5 5 C2.64018187 4.06421005 0.30368736 3.06652192 -2 2 C-1.34 1.34 -0.68 0.68 0 0 Z " fill="#31346B" transform="translate(168,179)"/>
<path d="M0 0 C0.33 0 0.66 0 1 0 C1.1875 2.875 1.1875 2.875 1 6 C0.01 6.66 -0.98 7.32 -2 8 C-2 4.23312136 -1.76462683 3.08809695 0 0 Z " fill="#ECF1FC" transform="translate(86,166)"/>
</svg>
