<?xml version="1.0" encoding="UTF-8"?>
<svg version="1.1" xmlns="http://www.w3.org/2000/svg" width="512" height="512">
<path d="M0 0 C0 0.99 0 1.98 0 3 C-1.82910156 4.4987793 -1.82910156 4.4987793 -4.390625 6.07421875 C-5.32293945 6.65606934 -6.25525391 7.23791992 -7.21582031 7.83740234 C-8.21709961 8.44793457 -9.21837891 9.0584668 -10.25 9.6875 C-12.27151386 10.94291527 -14.29235217 12.19941901 -16.3125 13.45703125 C-17.78203125 14.36702881 -17.78203125 14.36702881 -19.28125 15.29541016 C-23.58649095 17.99469107 -27.77231373 20.85428608 -31.953125 23.7421875 C-34 25 -34 25 -36 25 C-36 25.66 -36 26.32 -36 27 C-37.4765625 28.12109375 -37.4765625 28.12109375 -39.625 29.4375 C-49.17231277 35.59657086 -58.04830197 42.87049376 -66.328125 50.63671875 C-68 52 -68 52 -70 52 C-70 52.66 -70 53.32 -70 54 C-71.44006959 55.17214966 -72.88255549 56.34151544 -74.33984375 57.4921875 C-76.13580683 59.12334456 -77.39046769 60.80769713 -78.75 62.8125 C-79.4925 63.864375 -80.235 64.91625 -81 66 C-81.66 66 -82.32 66 -83 66 C-83.268125 66.556875 -83.53625 67.11375 -83.8125 67.6875 C-85.10899496 70.21225334 -86.42476323 72.63714484 -88 75 C-88.66 75 -89.32 75 -90 75 C-90.26683594 75.71929687 -90.53367187 76.43859375 -90.80859375 77.1796875 C-92.01048302 80.02481555 -93.43210623 82.5051535 -95.0625 85.125 C-96.72679402 87.80251948 -97.99990801 89.99972402 -99 93 C-99.66 93 -100.32 93 -101 93 C-101.12117187 93.73347656 -101.24234375 94.46695313 -101.3671875 95.22265625 C-101.98828074 97.94856545 -102.86130725 99.95614305 -104.125 102.4375 C-114.20264305 124.11615076 -122.08448149 151.62794638 -114 175 C-109.32409886 185.10278035 -102.25186573 192.55641534 -92 197 C-76.38778693 202.11845763 -62.4566795 200.01921797 -48 193 C-44.78834822 191.18094458 -41.62901895 189.30678604 -38.49609375 187.35546875 C-36 186 -36 186 -33 186 C-33 185.34 -33 184.68 -33 184 C-30.96799472 182.44324633 -28.92969193 180.99523821 -26.8125 179.5625 C-15.93741518 171.99535733 -6.17322393 163.30764868 3.44140625 154.21484375 C5.61199799 152.3358735 7.37370456 151.09377481 10 150 C10 149.34 10 148.68 10 148 C10.66 148 11.32 148 12 148 C12.268125 147.401875 12.53625 146.80375 12.8125 146.1875 C14.00987475 143.98180967 15.04478984 142.56416813 17 141 C17.99 141 18.98 141 20 141 C34.08969973 169.11727164 45.84816303 199.27732033 49.71118164 230.66921997 C49.89177178 232.12659232 50.07759776 233.58333643 50.27124023 235.03903198 C52.11621112 248.95789833 52.37242044 262.81245154 52.37060547 276.84033203 C52.37496917 280.59844647 52.411399 284.35537375 52.44921875 288.11328125 C52.50608668 300.12028532 52.09065031 311.83437877 50.2265625 323.7109375 C50.07109955 324.70622467 49.9156366 325.70151184 49.75546265 326.72695923 C47.86967995 337.45051066 44.8049719 346.20043095 36 353 C29.76712354 357.04109573 23.33501637 358.13545145 16 357 C11.81222195 354.94284587 9.74112164 353.2673632 8 349 C7.6101795 347.06064737 7.29664495 345.10531484 7.03515625 343.14453125 C6.79732422 341.39426636 6.79732422 341.39426636 6.5546875 339.60864258 C6.39226562 338.35591553 6.22984375 337.10318848 6.0625 335.8125 C5.80146484 333.86476685 5.80146484 333.86476685 5.53515625 331.87768555 C4.44445568 323.69855687 3.45454813 315.50856143 2.5 307.3125 C1.00226325 294.4865945 -0.93176256 281.74507668 -3 269 C-3.17176758 267.92218262 -3.34353516 266.84436523 -3.52050781 265.73388672 C-4.02377357 262.59155596 -4.54063418 259.45178977 -5.0625 256.3125 C-5.28764282 254.90556885 -5.28764282 254.90556885 -5.51733398 253.47021484 C-6.40911372 248.24194697 -7.52334318 243.71244177 -10 239 C-12.88461063 236.6656442 -12.88461063 236.6656442 -16.5 237.0625 C-20.00078649 237.70518914 -20.00078649 237.70518914 -22 239.875 C-24.78485293 248.5776654 -21.01905647 259.29601082 -19.125 267.9375 C-16.6510635 279.58647568 -14.45741002 291.18015771 -13 303 C-12.85353027 304.14686279 -12.85353027 304.14686279 -12.70410156 305.31689453 C-11.28449081 316.78610666 -10.72194298 328.29137891 -10.33013916 339.83444214 C-10.27731046 341.38560611 -10.2211941 342.9366621 -10.16156006 344.48757935 C-9.27708856 368.25155969 -9.27708856 368.25155969 -16 376 C-23.73228188 382.58330827 -33.7706327 386.48100473 -44 386 C-47.45846378 385.23024787 -50.27961016 384.29169027 -53 382 C-56.85306732 375.60248017 -57.72359865 370.29078421 -58.125 362.90625 C-58.23545654 361.31061218 -58.23545654 361.31061218 -58.34814453 359.68273926 C-58.58159971 356.28933684 -58.79285761 352.89510253 -59 349.5 C-60.78734844 320.94000935 -63.73728131 291.59734337 -75 265 C-75.33 264.01 -75.66 263.02 -76 262 C-76.66 262 -77.32 262 -78 262 C-78 261.34 -78 260.68 -78 260 C-81.3 260 -84.6 260 -88 260 C-88 260.66 -88 261.32 -88 262 C-88.66 262 -89.32 262 -90 262 C-90.48986864 268.67917044 -88.66522712 274.33090633 -86.75 280.6875 C-83.5460012 291.70906223 -80.97848834 302.69808115 -79 314 C-78.67902344 315.79824219 -78.67902344 315.79824219 -78.3515625 317.6328125 C-76.21810221 330.46449395 -75.83554999 343.32687315 -75.875 356.3125 C-75.87113281 357.60478516 -75.86726562 358.89707031 -75.86328125 360.22851562 C-75.885414 381.885414 -75.885414 381.885414 -82.25 388.25 C-89.52457757 392.87927664 -99.51165951 393.88048243 -107.921875 392.53125 C-112.50026776 391.28506026 -116.22325552 390.04941904 -119 386 C-120.66676333 381.69938685 -121.346659 377.81224217 -121.67578125 373.22265625 C-121.77882568 371.91530518 -121.88187012 370.6079541 -121.98803711 369.26098633 C-122.06657425 368.23299423 -122.06657425 368.23299423 -122.146698 367.18423462 C-123.27000562 352.80949461 -125.32263085 338.97103715 -129 325 C-129.33 323.73285156 -129.66 322.46570313 -130 321.16015625 C-134.6949356 304.70831943 -143.55332849 288.77841722 -155 276 C-155.66 275.67 -156.32 275.34 -157 275 C-157 274.34 -157 273.68 -157 273 C-157.66 273 -158.32 273 -159 273 C-159 272.34 -159 271.68 -159 271 C-159.66 271 -160.32 271 -161 271 C-161 270.34 -161 269.68 -161 269 C-161.55042969 268.7628125 -162.10085937 268.525625 -162.66796875 268.28125 C-165.57311543 266.68512251 -167.81615861 264.68214075 -170.3125 262.5 C-189.18981743 246.43751472 -211.53177198 235.27627596 -236 231 C-236.99 230.79503906 -237.98 230.59007812 -239 230.37890625 C-257.94428543 226.94525452 -277.9742907 228.31329755 -296.82226562 231.63623047 C-300.20287366 232.20092845 -303.59635042 232.59979919 -307 233 C-311.12343543 217.99069502 -312.41207321 203.60100697 -312.375 188.125 C-312.37445618 187.26827698 -312.37391235 186.41155396 -312.37335205 185.52886963 C-312.33212494 171.35960474 -311.34212431 157.81720838 -308 144 C-307.79632813 143.12891602 -307.59265625 142.25783203 -307.3828125 141.36035156 C-304.81204668 130.66072901 -301.18394286 120.48313367 -297 110.3125 C-296.59700684 109.3328125 -296.19401367 108.353125 -295.77880859 107.34375 C-293.36670069 101.68096115 -290.61997235 96.42441994 -287.35644531 91.20483398 C-286.05739059 89.09328553 -284.88932079 86.95092974 -283.75 84.75 C-280.42177261 78.68594815 -276.26164696 73.17543918 -272.17626953 67.60791016 C-271.1371599 66.18749172 -270.11238395 64.75661146 -269.08984375 63.32421875 C-268.56519531 62.59847656 -268.04054688 61.87273437 -267.5 61.125 C-267.0565625 60.50882812 -266.613125 59.89265625 -266.15625 59.2578125 C-265.7746875 58.84273438 -265.393125 58.42765625 -265 58 C-264.34 58 -263.68 58 -263 58 C-262.74927734 57.42475586 -262.49855469 56.84951172 -262.24023438 56.25683594 C-260.83271173 53.69558804 -259.21829975 51.95942608 -257.15625 49.890625 C-256.40472656 49.13652344 -255.65320313 48.38242188 -254.87890625 47.60546875 C-254.09386719 46.82816406 -253.30882812 46.05085938 -252.5 45.25 C-251.71496094 44.45722656 -250.92992187 43.66445312 -250.12109375 42.84765625 C-249.36957031 42.09871094 -248.61804688 41.34976563 -247.84375 40.578125 C-247.15474609 39.89137695 -246.46574219 39.20462891 -245.75585938 38.49707031 C-244 37 -244 37 -242 37 C-242 36.34 -242 35.68 -242 35 C-240.1015625 33.2734375 -240.1015625 33.2734375 -237.625 31.375 C-236.81289062 30.74335937 -236.00078125 30.11171875 -235.1640625 29.4609375 C-233 28 -233 28 -231 28 C-231 27.34 -231 26.68 -231 26 C-228.6640625 24.2734375 -228.6640625 24.2734375 -225.625 22.375 C-224.62726563 21.74335937 -223.62953125 21.11171875 -222.6015625 20.4609375 C-220 19 -220 19 -218 19 C-218 18.34 -218 17.68 -218 17 C-216.57324219 15.90600586 -216.57324219 15.90600586 -214.546875 14.71484375 C-213.792854 14.27108398 -213.03883301 13.82732422 -212.26196289 13.37011719 C-211.43301514 12.89735352 -210.60406738 12.42458984 -209.75 11.9375 C-208.89462646 11.44797852 -208.03925293 10.95845703 -207.15795898 10.45410156 C-144.94092019 -24.51497176 -65.36035356 -29.92235596 0 0 Z " fill="#591060" transform="translate(349,69)"/>
<path d="M0 0 C3.8878772 1.84794163 7.28559311 4.07841679 10.7890625 6.56640625 C11.48257813 7.05230225 12.17609375 7.53819824 12.890625 8.03881836 C14.98944515 9.51672147 17.07829104 11.00765699 19.1640625 12.50390625 C20.10910645 13.17873047 20.10910645 13.17873047 21.07324219 13.8671875 C28.42070232 19.13983639 28.42070232 19.13983639 31.1640625 21.50390625 C31.1640625 22.16390625 31.1640625 22.82390625 31.1640625 23.50390625 C31.73640625 23.76171875 32.30875 24.01953125 32.8984375 24.28515625 C35.37535245 25.61756567 37.2981791 27.15446743 39.4140625 29.00390625 C40.12046875 29.61234375 40.826875 30.22078125 41.5546875 30.84765625 C43.1640625 32.50390625 43.1640625 32.50390625 43.1640625 34.50390625 C43.72609375 34.73078125 44.288125 34.95765625 44.8671875 35.19140625 C47.81033111 36.8732026 49.66450982 38.97499735 51.9140625 41.50390625 C52.71328125 42.39078125 53.5125 43.27765625 54.3359375 44.19140625 C56.1640625 46.50390625 56.1640625 46.50390625 56.1640625 48.50390625 C56.8240625 48.50390625 57.4840625 48.50390625 58.1640625 48.50390625 C59.453125 49.96484375 59.453125 49.96484375 60.7890625 51.87890625 C61.23507812 52.50539062 61.68109375 53.131875 62.140625 53.77734375 C63.1640625 55.50390625 63.1640625 55.50390625 63.1640625 57.50390625 C63.8240625 57.50390625 64.4840625 57.50390625 65.1640625 57.50390625 C68.08190648 61.32864769 70.58672298 65.44411205 73.1640625 69.50390625 C73.68484375 70.31601563 74.205625 71.128125 74.7421875 71.96484375 C82.50828655 84.46740981 88.24033639 97.6768052 93.1640625 111.50390625 C93.53204956 112.43843628 93.53204956 112.43843628 93.9074707 113.3918457 C96.00489218 118.72616931 97.42554337 124.11385105 98.7265625 129.69140625 C98.93474609 130.54798828 99.14292969 131.40457031 99.35742188 132.28710938 C100.00331942 135.01850685 100.59623873 137.75523088 101.1640625 140.50390625 C101.45313477 141.89065552 101.45313477 141.89065552 101.74804688 143.30541992 C103.50684638 152.99851699 103.53630224 162.68264895 103.53466797 172.50219727 C103.53900818 175.40507198 103.57534515 178.30638033 103.61328125 181.20898438 C103.85215592 220.91096355 89.46246611 261.31044009 65.43310547 292.83642578 C64.06847032 294.6295112 62.72739453 296.43894441 61.38671875 298.25 C60.4803754 299.46054135 59.57286048 300.67020659 58.6640625 301.87890625 C58.03165649 302.72859985 58.03165649 302.72859985 57.38647461 303.59545898 C56.36045511 304.93649738 55.26782328 306.22609088 54.1640625 307.50390625 C53.5040625 307.50390625 52.8440625 307.50390625 52.1640625 307.50390625 C51.7928125 308.37015625 51.7928125 308.37015625 51.4140625 309.25390625 C49.98106262 311.83330604 48.37981574 313.56512217 46.1640625 315.50390625 C45.5040625 315.50390625 44.8440625 315.50390625 44.1640625 315.50390625 C44.00481789 310.55929762 44.46634048 305.95279149 45.20909119 301.06600952 C47.33289 286.98338568 47.67830989 273.09945835 47.6015625 258.87890625 C47.59885345 257.69757111 47.59614441 256.51623596 47.59335327 255.29910278 C47.53114275 237.38716446 46.82114417 220.08832424 43.1640625 202.50390625 C42.97682617 201.56047363 42.78958984 200.61704102 42.59667969 199.64501953 C37.66414963 175.27627645 28.35544855 152.59189646 17.8359375 130.1640625 C14.99207165 124.01501668 12.3547045 117.77041151 9.67797852 111.54736328 C7.98544846 107.6256878 6.2891248 103.75158929 4.36328125 99.9375 C3.1640625 97.50390625 3.1640625 97.50390625 3.1640625 95.50390625 C2.1740625 95.50390625 1.1840625 95.50390625 0.1640625 95.50390625 C-0.07183594 96.06851563 -0.30773437 96.633125 -0.55078125 97.21484375 C-2.12828692 100.02462588 -4.07645036 101.90009676 -6.3984375 104.12890625 C-9.52635804 107.01461306 -9.52635804 107.01461306 -11.8359375 110.50390625 C-12.4959375 110.50390625 -13.1559375 110.50390625 -13.8359375 110.50390625 C-13.8359375 111.16390625 -13.8359375 111.82390625 -13.8359375 112.50390625 C-17.32178435 116.31655124 -21.22709221 119.61558064 -25.1640625 122.953125 C-26.93920113 124.41741092 -26.93920113 124.41741092 -27.8359375 126.50390625 C-28.4959375 126.50390625 -29.1559375 126.50390625 -29.8359375 126.50390625 C-29.8359375 127.16390625 -29.8359375 127.82390625 -29.8359375 128.50390625 C-31.234375 129.9140625 -31.234375 129.9140625 -33.2109375 131.56640625 C-36.45747038 134.32051968 -39.63317173 137.12901505 -42.7734375 140.00390625 C-55.53587318 151.50390625 -55.53587318 151.50390625 -58.8359375 151.50390625 C-58.8359375 152.16390625 -58.8359375 152.82390625 -58.8359375 153.50390625 C-61.171875 155.23046875 -61.171875 155.23046875 -64.2109375 157.12890625 C-65.20867187 157.76054687 -66.20640625 158.3921875 -67.234375 159.04296875 C-69.8359375 160.50390625 -69.8359375 160.50390625 -71.8359375 160.50390625 C-71.8359375 161.16390625 -71.8359375 161.82390625 -71.8359375 162.50390625 C-73.37492311 163.30077231 -74.91727534 164.09113766 -76.4609375 164.87890625 C-77.74871094 165.54019531 -77.74871094 165.54019531 -79.0625 166.21484375 C-87.66036499 170.21103452 -98.09948193 171.89775104 -107.4609375 169.75390625 C-113.26623663 167.60379546 -117.58096803 164.92093573 -120.8359375 159.50390625 C-127.68020149 141.72293177 -120.03628716 119.01389397 -112.75488281 102.50683594 C-110.38539627 97.34231214 -107.70636813 92.40418587 -104.8359375 87.50390625 C-104.23136719 86.43785156 -103.62679688 85.37179688 -103.00390625 84.2734375 C-96.89747486 73.86389968 -89.41677228 64.96058104 -80.8359375 56.50390625 C-80.12050781 55.76527344 -79.40507812 55.02664062 -78.66796875 54.265625 C-78.00152344 53.58113281 -77.33507812 52.89664063 -76.6484375 52.19140625 C-75.97425781 51.49402344 -75.30007813 50.79664063 -74.60546875 50.078125 C-72.8359375 48.50390625 -72.8359375 48.50390625 -70.8359375 48.50390625 C-70.8359375 47.84390625 -70.8359375 47.18390625 -70.8359375 46.50390625 C-67.37439904 43.50390625 -67.37439904 43.50390625 -64.8359375 43.50390625 C-64.8359375 42.84390625 -64.8359375 42.18390625 -64.8359375 41.50390625 C-62.91006171 39.87250688 -60.99267033 38.366674 -58.9609375 36.87890625 C-58.40535156 36.45867187 -57.84976563 36.0384375 -57.27734375 35.60546875 C-53.09829038 32.50390625 -53.09829038 32.50390625 -50.8359375 32.50390625 C-50.8359375 31.84390625 -50.8359375 31.18390625 -50.8359375 30.50390625 C-49.20288086 29.1628418 -49.20288086 29.1628418 -46.92578125 27.640625 C-46.10013672 27.08310547 -45.27449219 26.52558594 -44.42382812 25.95117188 C-43.54919922 25.37044922 -42.67457031 24.78972656 -41.7734375 24.19140625 C-40.07378786 23.0501206 -38.37456243 21.90820292 -36.67578125 20.765625 C-35.85319824 20.21696777 -35.03061523 19.66831055 -34.18310547 19.10302734 C-32.04652411 17.64737851 -29.97377471 16.13201739 -27.90234375 14.5859375 C-24.8359375 12.50390625 -24.8359375 12.50390625 -21.8359375 12.50390625 C-21.8359375 11.84390625 -21.8359375 11.18390625 -21.8359375 10.50390625 C-20.88332031 9.96121094 -19.93070312 9.41851562 -18.94921875 8.859375 C-17.68227506 8.13674786 -16.41534891 7.41408998 -15.1484375 6.69140625 C-14.52259766 6.33498047 -13.89675781 5.97855469 -13.25195312 5.61132812 C-12.32866211 5.08442383 -12.32866211 5.08442383 -11.38671875 4.546875 C-10.77650879 4.20446777 -10.16629883 3.86206055 -9.53759766 3.50927734 C-7.64302992 2.42714056 -7.64302992 2.42714056 -5.25390625 0.6171875 C-2.8359375 -0.49609375 -2.8359375 -0.49609375 0 0 Z " fill="#EC6900" transform="translate(371.8359375,80.49609375)"/>
<path d="M0 0 C1.1240625 0.22816406 2.248125 0.45632813 3.40625 0.69140625 C18.16935692 4.02071516 34.32351437 11.25450941 46 21 C46 21.66 46 22.32 46 23 C46.56460938 23.24363281 47.12921875 23.48726563 47.7109375 23.73828125 C65.81569009 33.71752201 75.5354888 59.20138037 81.19702148 77.71191406 C86.74515479 97.21070861 88.70338362 116.78661625 89 137 C82.35228691 136.42923675 76.27058198 135.18943201 69.875 133.3125 C68.95630127 133.0455835 68.03760254 132.77866699 67.09106445 132.50366211 C59.16670866 130.14799679 51.58797597 127.29243733 44 124 C43.27780273 123.68820801 42.55560547 123.37641602 41.81152344 123.05517578 C37.19680699 121.06098013 32.59437167 119.04060135 28 117 C28 116.34 28 115.68 28 115 C27.4121875 114.86722656 26.824375 114.73445313 26.21875 114.59765625 C17.99482879 112.38240987 10.89910996 106.77782059 4 102 C3.37061523 101.56751953 2.74123047 101.13503906 2.09277344 100.68945312 C0.13906313 99.34319896 -1.80661722 97.98611064 -3.75 96.625 C-4.37084473 96.19622559 -4.99168945 95.76745117 -5.63134766 95.32568359 C-7.12475967 94.26776217 -8.56799817 93.1396701 -10 92 C-10 91.34 -10 90.68 -10 90 C-10.66 90 -11.32 90 -12 90 C-12 89.34 -12 88.68 -12 88 C-12.57234375 87.7421875 -13.1446875 87.484375 -13.734375 87.21875 C-16.21128995 85.88634058 -18.1341166 84.34943882 -20.25 82.5 C-20.95640625 81.8915625 -21.6628125 81.283125 -22.390625 80.65625 C-24 79 -24 79 -24 77 C-24.57105469 76.76410156 -25.14210937 76.52820313 -25.73046875 76.28515625 C-33.01599626 72.15961657 -39.36974348 62.90816407 -44 56 C-44 55.34 -44 54.68 -44 54 C-44.66 54 -45.32 54 -46 54 C-47.16992188 52.55737305 -47.16992188 52.55737305 -48.46875 50.51171875 C-49.1946936 49.37222778 -49.1946936 49.37222778 -49.93530273 48.2097168 C-50.45165283 47.37738525 -50.96800293 46.54505371 -51.5 45.6875 C-52.29869507 44.40709839 -52.29869507 44.40709839 -53.11352539 43.10083008 C-61.19122311 29.98584207 -68.42700853 16.75391457 -73 2 C-50.62109915 -6.2884818 -22.96589097 -4.8940867 0 0 Z " fill="#EC6900" transform="translate(121,320)"/>
</svg>
