<?xml version="1.0" encoding="UTF-8"?>
<svg version="1.1" xmlns="http://www.w3.org/2000/svg" width="200" height="200">
<path d="M0 0 C66 0 132 0 200 0 C200 66 200 132 200 200 C134 200 68 200 0 200 C0 134 0 68 0 0 Z " fill="#FDFEFD" transform="translate(0,0)"/>
<path d="M0 0 C2.4375 0.8125 2.4375 0.8125 4.4375 2.8125 C4.5625 5.4375 4.5625 5.4375 4.4375 7.8125 C5.675 7.585625 6.9125 7.35875 8.1875 7.125 C11.30603111 6.71583102 12.11877899 6.62923542 14.9375 8.25 C15.4325 8.765625 15.9275 9.28125 16.4375 9.8125 C16.05181269 12.2569236 15.77340575 13.50673964 13.9140625 15.19921875 C13.30304688 15.62847656 12.69203125 16.05773437 12.0625 16.5 C7.82101358 19.88796349 6.64360256 23.64348902 5.4375 28.8125 C6.71625 28.895 7.995 28.9775 9.3125 29.0625 C14.77800801 29.64467653 19.45565378 31.57638948 24.4375 33.8125 C24.53546875 33.16023438 24.6334375 32.50796875 24.734375 31.8359375 C25.69991795 26.19250545 26.78699706 22.26155046 30.4375 17.8125 C33.49443322 16.28403339 36.06734547 16.58007555 39.4375 16.8125 C41.8125 18.0625 41.8125 18.0625 43.4375 19.8125 C43.6540625 20.8334375 43.6540625 20.8334375 43.875 21.875 C44.1534375 22.8340625 44.1534375 22.8340625 44.4375 23.8125 C46.09188613 24.50908363 47.76004318 25.17346883 49.4375 25.8125 C52.4375 29.12284483 52.4375 29.12284483 52.4375 31.8125 C53.38625 32.080625 54.335 32.34875 55.3125 32.625 C58.4375 33.8125 58.4375 33.8125 60.4375 36.8125 C60.99444511 41.10893372 61.00835815 43.0513558 58.375 46.5625 C53.73437392 50.11702211 49.12417934 51.76085382 43.4375 52.8125 C43.94410156 53.99005859 43.94410156 53.99005859 44.4609375 55.19140625 C46.79008318 60.6776887 48.99096768 66.02637072 50.4375 71.8125 C56.76420347 69.08380728 61.23426607 67.07336632 64.4375 60.8125 C67.30474686 61.38594937 68.2989515 61.6739515 70.4375 63.8125 C70.4140625 65.9765625 70.4140625 65.9765625 70.0625 68.4375 C69.95164063 69.25476563 69.84078125 70.07203125 69.7265625 70.9140625 C69.63117188 71.54054688 69.53578125 72.16703125 69.4375 72.8125 C70.38625 72.93625 71.335 73.06 72.3125 73.1875 C75.4375 73.8125 75.4375 73.8125 77.4375 75.8125 C77.3125 78.8125 77.3125 78.8125 76.4375 81.8125 C73.89035085 83.68040938 72.62881 83.8125 69.4375 83.8125 C69.7675 84.4725 70.0975 85.1325 70.4375 85.8125 C70.73075631 89.18494761 70.778446 91.19555009 69.125 94.1875 C67.4375 95.8125 67.4375 95.8125 64.4375 95.8125 C63.9425 94.94625 63.4475 94.08 62.9375 93.1875 C59.97343592 88.2473932 54.44282644 86.24612423 49.4375 83.8125 C49.30794922 84.70388672 49.30794922 84.70388672 49.17578125 85.61328125 C47.99255525 92.59322914 45.58522338 98.49302483 42.4375 104.8125 C43.4275 104.73 44.4175 104.6475 45.4375 104.5625 C50.94946074 104.5625 55.37131352 107.05937207 59.5 110.5625 C60.96430001 114.07682003 60.56714017 117.2174965 59.4375 120.8125 C57.625 122.8125 57.625 122.8125 55.4375 123.8125 C54.1175 123.8125 52.7975 123.8125 51.4375 123.8125 C51.355 124.575625 51.2725 125.33875 51.1875 126.125 C50.4375 128.8125 50.4375 128.8125 48.5625 130.625 C46.4375 131.8125 46.4375 131.8125 43.4375 131.8125 C43.355 132.575625 43.2725 133.33875 43.1875 134.125 C42.4375 136.8125 42.4375 136.8125 40.75 138.625 C37.65487291 140.21438959 35.87729993 140.37409999 32.4375 139.8125 C26.70890097 135.4161333 24.71307596 129.71005888 23.4375 122.8125 C22.55707031 123.1734375 21.67664063 123.534375 20.76953125 123.90625 C19.60808594 124.3703125 18.44664063 124.834375 17.25 125.3125 C15.52716797 126.00859375 15.52716797 126.00859375 13.76953125 126.71875 C10.71759923 127.72055652 8.60634928 128.05120804 5.4375 127.8125 C7.71849282 134.98133457 10.19163223 139.49653519 16.4375 143.8125 C15.5625 147.6875 15.5625 147.6875 14.4375 148.8125 C12.75141034 148.88455511 11.06249341 148.89636068 9.375 148.875 C8.45589844 148.86597656 7.53679687 148.85695312 6.58984375 148.84765625 C5.87957031 148.83605469 5.16929688 148.82445312 4.4375 148.8125 C4.293125 149.59625 4.14875 150.38 4 151.1875 C3.4375 153.8125 3.4375 153.8125 2.4375 155.8125 C-0.375 156.0625 -0.375 156.0625 -3.5625 155.8125 C-5.4375 154 -5.4375 154 -6.5625 151.8125 C-6.5625 150.8225 -6.5625 149.8325 -6.5625 148.8125 C-7.17738281 148.84730469 -7.79226562 148.88210937 -8.42578125 148.91796875 C-9.23402344 148.94503906 -10.04226562 148.97210938 -10.875 149 C-11.67550781 149.03480469 -12.47601563 149.06960937 -13.30078125 149.10546875 C-16.04101584 148.75051608 -16.85421079 147.91883718 -18.5625 145.8125 C-18.2325 144.8225 -17.9025 143.8325 -17.5625 142.8125 C-16.985 142.565 -16.4075 142.3175 -15.8125 142.0625 C-11.32179905 139.56766614 -9.03523968 135.05062772 -7.25 130.375 C-7.023125 129.529375 -6.79625 128.68375 -6.5625 127.8125 C-7.861875 127.73 -9.16125 127.6475 -10.5 127.5625 C-15.71190922 127.00172496 -19.92453158 125.16580322 -24.5625 122.8125 C-25.5525 122.3175 -25.5525 122.3175 -26.5625 121.8125 C-26.48 122.8025 -26.3975 123.7925 -26.3125 124.8125 C-26.3125 130.29931002 -28.73391283 134.86200702 -32.4375 138.8125 C-35.47698976 140.24284812 -37.24248477 140.42229872 -40.5625 139.8125 C-42.70995711 137.9790314 -43.94448419 136.19193501 -45.5625 133.8125 C-45.5625 133.1525 -45.5625 132.4925 -45.5625 131.8125 C-46.325625 131.73 -47.08875 131.6475 -47.875 131.5625 C-50.5625 130.8125 -50.5625 130.8125 -52.375 128.9375 C-53.5625 126.8125 -53.5625 126.8125 -53.5625 123.8125 C-54.325625 123.709375 -55.08875 123.60625 -55.875 123.5 C-58.85990522 122.73641959 -59.91924426 122.40711433 -61.5625 119.8125 C-62.06045289 116.51356209 -62.28004284 114.06535258 -60.578125 111.09375 C-56.89977074 106.46174834 -53.98146901 104.9347279 -48.3125 104.1875 C-47.075 104.06375 -45.8375 103.94 -44.5625 103.8125 C-45.490625 102.08 -45.490625 102.08 -46.4375 100.3125 C-49.13527296 94.91695407 -50.5625 89.90502569 -50.5625 83.8125 C-57.15735554 86.77011651 -62.20230871 89.09211743 -65.5625 95.8125 C-67.4375 95.5 -67.4375 95.5 -69.5625 94.8125 C-71.86691554 91.35587669 -71.82110135 89.86392119 -71.5625 85.8125 C-71.0675 84.8225 -71.0675 84.8225 -70.5625 83.8125 C-71.325625 83.709375 -72.08875 83.60625 -72.875 83.5 C-75.78367209 82.75592109 -76.94260972 82.33232932 -78.5625 79.8125 C-78.4375 77.25 -78.4375 77.25 -77.5625 74.8125 C-74.5625 72.8125 -74.5625 72.8125 -70.5625 72.8125 C-70.66949219 72.19761719 -70.77648437 71.58273438 -70.88671875 70.94921875 C-71.00660156 70.14097656 -71.12648438 69.33273438 -71.25 68.5 C-71.37761719 67.69949219 -71.50523438 66.89898437 -71.63671875 66.07421875 C-71.5625 63.8125 -71.5625 63.8125 -70.33203125 61.95703125 C-68.5625 60.8125 -68.5625 60.8125 -66.546875 60.9140625 C-64.17358837 61.98858204 -63.32198079 63.0831062 -61.8125 65.1875 C-58.55317066 69.25748305 -55.50994391 70.36238713 -50.5625 71.8125 C-50.4696875 69.9253125 -50.4696875 69.9253125 -50.375 68 C-49.74957939 62.04902816 -47.2391353 57.09663243 -44.5625 51.8125 C-46.109375 51.9053125 -46.109375 51.9053125 -47.6875 52 C-53.20913448 51.73282414 -56.69741232 50.00273428 -60.4375 46 C-62.80310548 42.45159178 -63.37665772 40.97375055 -62.5625 36.8125 C-60.6781882 34.32251655 -59.53101206 33.01189954 -56.4375 32.375 C-55.81875 32.189375 -55.2 32.00375 -54.5625 31.8125 C-53.86591637 30.15811387 -53.20153117 28.48995682 -52.5625 26.8125 C-49.98220421 24.39867491 -49.1559292 23.8125 -45.5625 23.8125 C-45.459375 23.02875 -45.35625 22.245 -45.25 21.4375 C-44.5625 18.8125 -44.5625 18.8125 -41.5625 16.8125 C-38.1875 16.375 -38.1875 16.375 -34.5625 16.8125 C-31.58162425 19.26344228 -29.69898002 21.60777998 -27.5625 24.8125 C-27.3671875 27.29296875 -27.3671875 27.29296875 -27.4375 30 C-27.45554688 30.90105469 -27.47359375 31.80210938 -27.4921875 32.73046875 C-27.51539063 33.41753906 -27.53859375 34.10460938 -27.5625 34.8125 C-26.88445312 34.47476563 -26.20640625 34.13703125 -25.5078125 33.7890625 C-19.24476487 30.7876574 -13.43717859 28.81163984 -6.5625 27.8125 C-9.52011651 21.21764446 -11.84211743 16.17269129 -18.5625 12.8125 C-17.9025 11.1625 -17.2425 9.5125 -16.5625 7.8125 C-9.13392857 6.52678571 -9.13392857 6.52678571 -5.5625 7.8125 C-5.624375 7.049375 -5.68625 6.28625 -5.75 5.5 C-5.5625 2.8125 -5.5625 2.8125 -4.375 0.9375 C-2.5625 -0.1875 -2.5625 -0.1875 0 0 Z " fill="#053460" transform="translate(100.5625,22.1875)"/>
<path d="M0 0 C10.91146489 7.61108354 17.32143807 17.17237723 20.6015625 30.01953125 C21.80185328 44.72309327 18.69688449 57.40549159 9.26171875 69.04296875 C1.79825921 77.08594397 -8.72311611 82.82517336 -19.76171875 83.55078125 C-21.32779319 83.58466188 -22.89454699 83.5945933 -24.4609375 83.58203125 C-25.28835449 83.57703613 -26.11577148 83.57204102 -26.96826172 83.56689453 C-34.17358345 83.36319563 -39.86733156 81.6807804 -46.1484375 78.08203125 C-46.95539063 77.64761719 -47.76234375 77.21320313 -48.59375 76.765625 C-58.31318588 70.98338433 -64.67571679 61.44624311 -68.22265625 50.8828125 C-71.09854665 39.07588695 -69.99275137 26.7818483 -64.1484375 16.08203125 C-57.48636159 5.52296434 -48.34655224 -1.99616955 -36.24902344 -5.4621582 C-24.09389777 -8.09972441 -10.55569577 -6.4303308 0 0 Z " fill="#083662" transform="translate(124.1484375,61.91796875)"/>
<path d="M0 0 C2.98087575 2.45094228 4.86351998 4.79527998 7 8 C7.1953125 10.48046875 7.1953125 10.48046875 7.125 13.1875 C7.10695312 14.08855469 7.08890625 14.98960938 7.0703125 15.91796875 C7.04710937 16.60503906 7.02390625 17.29210937 7 18 C7.73605469 17.65066406 8.47210938 17.30132812 9.23046875 16.94140625 C10.20628906 16.48636719 11.18210938 16.03132813 12.1875 15.5625 C13.63189453 14.88380859 13.63189453 14.88380859 15.10546875 14.19140625 C19.18958977 12.51035779 21.75056157 11.58352052 26 13 C26.495 13.99 26.495 13.99 27 15 C33.6 15 40.2 15 47 15 C47.99 16.98 47.99 16.98 49 19 C48.19949219 18.84144531 47.39898437 18.68289062 46.57421875 18.51953125 C31.82724721 16.37598238 18.43180659 17.45394608 6.05859375 26.3203125 C-1.85236083 32.77517108 -7.85459976 41.92929464 -10 52 C-10.93170565 67.41132792 -8.99529345 79.58336608 1 92 C3.34109865 93.9422172 5.75353403 95.68341201 8.2421875 97.4296875 C10 99 10 99 10.5625 102.4375 C10.2840625 103.7059375 10.2840625 103.7059375 10 105 C9.34 105 8.68 105 8 105 C8.0825 105.99 8.165 106.98 8.25 108 C8.25 113.48681002 5.82858717 118.04950702 2.125 122 C-0.91448976 123.43034812 -2.67998477 123.60979872 -6 123 C-8.14745711 121.1665314 -9.38198419 119.37943501 -11 117 C-11 116.34 -11 115.68 -11 115 C-11.763125 114.9175 -12.52625 114.835 -13.3125 114.75 C-16 114 -16 114 -17.8125 112.125 C-19 110 -19 110 -19 107 C-19.763125 106.896875 -20.52625 106.79375 -21.3125 106.6875 C-24.29740522 105.92391959 -25.35674426 105.59461433 -27 103 C-27.49795289 99.70106209 -27.71754284 97.25285258 -26.015625 94.28125 C-22.33727074 89.64924834 -19.41896901 88.1222279 -13.75 87.375 C-12.5125 87.25125 -11.275 87.1275 -10 87 C-10.928125 85.2675 -10.928125 85.2675 -11.875 83.5 C-14.57277296 78.10445407 -16 73.09252569 -16 67 C-22.59485554 69.95761651 -27.63980871 72.27961743 -31 79 C-32.875 78.6875 -32.875 78.6875 -35 78 C-37.30441554 74.54337669 -37.25860135 73.05142119 -37 69 C-36.505 68.01 -36.505 68.01 -36 67 C-36.763125 66.896875 -37.52625 66.79375 -38.3125 66.6875 C-41.22117209 65.94342109 -42.38010972 65.51982932 -44 63 C-43.875 60.4375 -43.875 60.4375 -43 58 C-40 56 -40 56 -36 56 C-36.10699219 55.38511719 -36.21398437 54.77023438 -36.32421875 54.13671875 C-36.44410156 53.32847656 -36.56398438 52.52023438 -36.6875 51.6875 C-36.81511719 50.88699219 -36.94273438 50.08648437 -37.07421875 49.26171875 C-37 47 -37 47 -35.76953125 45.14453125 C-34 44 -34 44 -31.984375 44.1015625 C-29.61108837 45.17608204 -28.75948079 46.2706062 -27.25 48.375 C-23.99067066 52.44498305 -20.94744391 53.54988713 -16 55 C-15.9071875 53.1128125 -15.9071875 53.1128125 -15.8125 51.1875 C-15.18707939 45.23652816 -12.6766353 40.28413243 -10 35 C-11.546875 35.0928125 -11.546875 35.0928125 -13.125 35.1875 C-18.64663448 34.92032414 -22.13491232 33.19023428 -25.875 29.1875 C-28.24060548 25.63909178 -28.81415772 24.16125055 -28 20 C-26.1156882 17.51001655 -24.96851206 16.19939954 -21.875 15.5625 C-21.25625 15.376875 -20.6375 15.19125 -20 15 C-19.30341637 13.34561387 -18.63903117 11.67745682 -18 10 C-15.41970421 7.58617491 -14.5934292 7 -11 7 C-10.896875 6.21625 -10.79375 5.4325 -10.6875 4.625 C-9.24785081 -0.87184234 -4.86439188 -0.58708178 0 0 Z " fill="#073561" transform="translate(66,39)"/>
<path d="M0 0 C10.91146489 7.61108354 17.32143807 17.17237723 20.6015625 30.01953125 C21.80185328 44.72309327 18.69688449 57.40549159 9.26171875 69.04296875 C1.79825921 77.08594397 -8.72311611 82.82517336 -19.76171875 83.55078125 C-21.32779319 83.58466188 -22.89454699 83.5945933 -24.4609375 83.58203125 C-25.28835449 83.57703613 -26.11577148 83.57204102 -26.96826172 83.56689453 C-34.17358345 83.36319563 -39.86733156 81.6807804 -46.1484375 78.08203125 C-46.95539063 77.64761719 -47.76234375 77.21320313 -48.59375 76.765625 C-58.31318588 70.98338433 -64.67571679 61.44624311 -68.22265625 50.8828125 C-71.09854665 39.07588695 -69.99275137 26.7818483 -64.1484375 16.08203125 C-57.48636159 5.52296434 -48.34655224 -1.99616955 -36.24902344 -5.4621582 C-24.09389777 -8.09972441 -10.55569577 -6.4303308 0 0 Z M-42.1484375 8.08203125 C-42.84195313 8.50613281 -43.53546875 8.93023437 -44.25 9.3671875 C-49.65892591 13.00352533 -53.01270696 17.4162253 -56.1484375 23.08203125 C-56.49003906 23.6853125 -56.83164063 24.28859375 -57.18359375 24.91015625 C-60.66013368 32.3483347 -60.30620229 41.66194257 -58.26953125 49.4375 C-54.0900502 60.32070312 -47.53725675 66.95508149 -37.1484375 72.08203125 C-26.97305639 76.0795024 -16.99786655 74.25384456 -7.1484375 70.08203125 C-0.3354715 66.15694935 4.11043091 60.92878168 7.8515625 54.08203125 C8.191875 53.48003906 8.5321875 52.87804687 8.8828125 52.2578125 C12.37212803 44.81070852 12.05288343 35.41766276 9.90234375 27.65625 C5.45511991 16.39088488 -1.12756049 10.84321536 -11.6484375 5.20703125 C-21.09413697 2.03312418 -33.76629515 2.59087269 -42.1484375 8.08203125 Z " fill="#F4F9FA" transform="translate(124.1484375,61.91796875)"/>
<path d="M0 0 C4.62 0 9.24 0 14 0 C14.33 3.96 14.66 7.92 15 12 C19.29 12.33 23.58 12.66 28 13 C28 17.95 28 22.9 28 28 C23.71 28 19.42 28 15 28 C15 32.29 15 36.58 15 41 C10.05 41 5.1 41 0 41 C0 36.71 0 32.42 0 28 C-4.62 28 -9.24 28 -14 28 C-14 23.05 -14 18.1 -14 13 C-9.38 13 -4.76 13 0 13 C0 8.71 0 4.42 0 0 Z " fill="#F9FCFC" transform="translate(93,80)"/>
<path d="M0 0 C1.70447235 1.63166825 3.09161313 3.35110824 4.51171875 5.234375 C6.09646717 7.303353 6.09646717 7.303353 9.375 9.0625 C10.24125 9.701875 11.1075 10.34125 12 11 C12.375 14.25 12.375 14.25 12 17 C11.34 17 10.68 17 10 17 C10.0825 17.99 10.165 18.98 10.25 20 C10.25 25.48681002 7.82858717 30.04950702 4.125 34 C1.08551024 35.43034812 -0.67998477 35.60979872 -4 35 C-6.14745711 33.1665314 -7.38198419 31.37943501 -9 29 C-9 28.34 -9 27.68 -9 27 C-9.763125 26.9175 -10.52625 26.835 -11.3125 26.75 C-14 26 -14 26 -15.8125 24.125 C-17 22 -17 22 -17 19 C-17.763125 18.896875 -18.52625 18.79375 -19.3125 18.6875 C-22.29740522 17.92391959 -23.35674426 17.59461433 -25 15 C-25.49795289 11.70106209 -25.71754284 9.25285258 -24.015625 6.28125 C-21.13797745 2.65754567 -18.39731272 0.50959512 -13.88671875 -0.44921875 C-9.084855 -0.96949173 -4.68389588 -1.4140063 0 0 Z " fill="#043461" transform="translate(64,127)"/>
<path d="M0 0 C3.89603435 1.26817226 6.94949999 3.10866666 10.0625 5.75 C11.52680001 9.26432003 11.12964017 12.4049965 10 16 C8.1875 18 8.1875 18 6 19 C4.68 19 3.36 19 2 19 C1.87625 20.1446875 1.87625 20.1446875 1.75 21.3125 C1 24 1 24 -0.875 25.8125 C-3 27 -3 27 -6 27 C-6.12375 28.1446875 -6.12375 28.1446875 -6.25 29.3125 C-7 32 -7 32 -8.6875 33.8125 C-11.78262709 35.40188959 -13.56020007 35.56159999 -17 35 C-21.14798799 31.60619165 -23.70195014 28.519561 -24.3359375 23.16015625 C-24.44170265 14.77297964 -24.44170265 14.77297964 -22.25 10.9375 C-16.51612903 6 -16.51612903 6 -14 6 C-13.896875 5.38125 -13.79375 4.7625 -13.6875 4.125 C-11.79866599 -1.71321421 -4.93190138 -0.59824839 0 0 Z " fill="#033461" transform="translate(150,127)"/>
<path d="M0 0 C2.86724686 0.57344937 3.8614515 0.8614515 6 3 C5.9765625 5.1640625 5.9765625 5.1640625 5.625 7.625 C5.45871094 8.85089844 5.45871094 8.85089844 5.2890625 10.1015625 C5.14597656 11.04128906 5.14597656 11.04128906 5 12 C5.94875 12.12375 6.8975 12.2475 7.875 12.375 C11 13 11 13 13 15 C12.875 18 12.875 18 12 21 C9.45285085 22.86790938 8.19131 23 5 23 C5.33 23.66 5.66 24.32 6 25 C6.29325631 28.37244761 6.340946 30.38305009 4.6875 33.375 C3 35 3 35 0 35 C-0.495 34.13375 -0.99 33.2675 -1.5 32.375 C-4.46406408 27.4348932 -9.99467356 25.43362423 -15 23 C-15 19.37 -15 15.74 -15 12 C-14.25234375 11.63648437 -13.5046875 11.27296875 -12.734375 10.8984375 C-6.96983622 7.95580645 -2.9342601 5.8685202 0 0 Z " fill="#9B7E45" transform="translate(165,83)"/>
<path d="M0 0 C2.4375 0.8125 2.4375 0.8125 4.4375 2.8125 C4.5625 5.4375 4.5625 5.4375 4.4375 7.8125 C5.675 7.585625 6.9125 7.35875 8.1875 7.125 C11.30603111 6.71583102 12.11877899 6.62923542 14.9375 8.25 C15.4325 8.765625 15.9275 9.28125 16.4375 9.8125 C16.05018039 12.26203483 15.75475054 13.5163995 13.9140625 15.234375 C12.99753906 15.89179687 12.99753906 15.89179687 12.0625 16.5625 C7.99251695 19.82182934 6.88761287 22.86505609 5.4375 27.8125 C0.4875 28.1425 -4.4625 28.4725 -9.5625 28.8125 C-8.5725 28.4825 -7.5825 28.1525 -6.5625 27.8125 C-9.52011651 21.21764446 -11.84211743 16.17269129 -18.5625 12.8125 C-17.9025 11.1625 -17.2425 9.5125 -16.5625 7.8125 C-9.13392857 6.52678571 -9.13392857 6.52678571 -5.5625 7.8125 C-5.624375 7.049375 -5.68625 6.28625 -5.75 5.5 C-5.5625 2.8125 -5.5625 2.8125 -4.375 0.9375 C-2.5625 -0.1875 -2.5625 -0.1875 0 0 Z " fill="#9A7F49" transform="translate(100.5625,22.1875)"/>
<path d="M0 0 C3.96 0 7.92 0 12 0 C12.515625 1.52625 13.03125 3.0525 13.5625 4.625 C15.64015014 9.90538157 18.38252083 12.80927001 23 16 C22.125 19.875 22.125 19.875 21 21 C19.31391034 21.07205511 17.62499341 21.08386068 15.9375 21.0625 C15.01839844 21.05347656 14.09929687 21.04445312 13.15234375 21.03515625 C12.44207031 21.02355469 11.73179688 21.01195312 11 21 C10.855625 21.78375 10.71125 22.5675 10.5625 23.375 C10 26 10 26 9 28 C6.1875 28.25 6.1875 28.25 3 28 C1.125 26.1875 1.125 26.1875 0 24 C0 23.01 0 22.02 0 21 C-0.92232422 21.05220703 -0.92232422 21.05220703 -1.86328125 21.10546875 C-2.67152344 21.13253906 -3.47976562 21.15960938 -4.3125 21.1875 C-5.51326172 21.23970703 -5.51326172 21.23970703 -6.73828125 21.29296875 C-9.47851584 20.93801608 -10.29171079 20.10633718 -12 18 C-11.505 16.515 -11.505 16.515 -11 15 C-10.4225 14.7525 -9.845 14.505 -9.25 14.25 C-4.75929905 11.75516614 -2.47273968 7.23812772 -0.6875 2.5625 C-0.460625 1.716875 -0.23375 0.87125 0 0 Z " fill="#9B7F49" transform="translate(94,150)"/>
<path d="M0 0 C2.37328663 1.07451954 3.22489421 2.1690437 4.734375 4.2734375 C7.99370434 8.34342055 11.03693109 9.44832463 15.984375 10.8984375 C16.14994929 15.05104071 16.07032796 18.87092264 14.984375 22.8984375 C12.8408217 24.82503197 10.85682292 25.75713616 8.21484375 26.8828125 C4.54714808 28.55286657 2.73878071 31.38962607 0.984375 34.8984375 C-0.890625 34.5859375 -0.890625 34.5859375 -3.015625 33.8984375 C-5.32004054 30.44181419 -5.27422635 28.94985869 -5.015625 24.8984375 C-4.685625 24.2384375 -4.355625 23.5784375 -4.015625 22.8984375 C-4.77875 22.7953125 -5.541875 22.6921875 -6.328125 22.5859375 C-9.23679709 21.84185859 -10.39573472 21.41826682 -12.015625 18.8984375 C-11.890625 16.3359375 -11.890625 16.3359375 -11.015625 13.8984375 C-8.015625 11.8984375 -8.015625 11.8984375 -4.015625 11.8984375 C-4.12261719 11.28355469 -4.22960937 10.66867188 -4.33984375 10.03515625 C-4.45972656 9.22691406 -4.57960938 8.41867188 -4.703125 7.5859375 C-4.83074219 6.78542969 -4.95835938 5.98492187 -5.08984375 5.16015625 C-5.015625 2.8984375 -5.015625 2.8984375 -3.78515625 1.04296875 C-2.015625 -0.1015625 -2.015625 -0.1015625 0 0 Z " fill="#9B7F49" transform="translate(34.015625,83.1015625)"/>
<path d="M0 0 C0.99 0.495 0.99 0.495 2 1 C2 1.66 2 2.32 2 3 C2.99 3 3.98 3 5 3 C4.02472932 8.76772982 2.00461365 13.97902759 -1 19 C-4.25 21 -4.25 21 -7 22 C-7.495 23.485 -7.495 23.485 -8 25 C-9.8125 26.53515625 -9.8125 26.53515625 -12 28.0625 C-15.01628184 30.07953853 -15.01628184 30.07953853 -17 33 C-17.22467831 34.53668865 -17.40796805 36.07968054 -17.5625 37.625 C-17.64628906 38.44226563 -17.73007813 39.25953125 -17.81640625 40.1015625 C-17.87699219 40.72804687 -17.93757813 41.35453125 -18 42 C-18.33 42 -18.66 42 -19 42 C-19.33 40.35 -19.66 38.7 -20 37 C-20.86882812 37.34933594 -21.73765625 37.69867188 -22.6328125 38.05859375 C-24.36144531 38.74115234 -24.36144531 38.74115234 -26.125 39.4375 C-27.26195312 39.88996094 -28.39890625 40.34242188 -29.5703125 40.80859375 C-41.30462801 44.88486508 -54.43086728 43.51462057 -65.75 38.5625 C-68 37 -68 37 -68.9375 34.9375 C-69 33 -69 33 -68 31 C-64.71535621 32.06750923 -61.53883531 33.19524121 -58.35546875 34.54296875 C-53.81070594 36.24425315 -49.63491255 36.53894608 -44.8125 36.5 C-43.98314941 36.49427979 -43.15379883 36.48855957 -42.29931641 36.48266602 C-29.0130516 36.10066983 -18.75258198 30.27678296 -9.75 20.75 C-4.94308589 14.83482514 -2.15271352 7.24094548 0 0 Z " fill="#143B61" transform="translate(144,108)"/>
<path d="M0 0 C3 1 3 1 4.3515625 3.44140625 C6.771042 9.37135754 8.63012862 14.58889602 9 21 C8.34 21.33 7.68 21.66 7 22 C6.67 20.02 6.34 18.04 6 16 C5.38640625 15.93554688 4.7728125 15.87109375 4.140625 15.8046875 C2 15 2 15 0.734375 12.8203125 C0.40953125 11.93085937 0.0846875 11.04140625 -0.25 10.125 C-0.58515625 9.24070312 -0.9203125 8.35640625 -1.265625 7.4453125 C-2 5 -2 5 -2 2 C-1.34 2 -0.68 2 0 2 C0 1.34 0 0.68 0 0 Z " fill="#0F385D" transform="translate(141,74)"/>
<path d="M0 0 C0.33 0.99 0.66 1.98 1 3 C1.66 3 2.32 3 3 3 C3.95465783 5.16967689 4.14401212 6.56328793 3.3984375 8.82421875 C2.64129615 10.5684743 1.82390802 12.28627131 1 14 C0.01 14 -0.98 14 -2 14 C-2.33 19.28 -2.66 24.56 -3 30 C-5.5136321 27.4863679 -5.29736484 26.60608633 -5.3125 23.125 C-5.17397756 15.02676484 -3.11244741 7.44280904 0 0 Z " fill="#1D3F5C" transform="translate(54,78)"/>
<path d="M0 0 C0.33 0.66 0.66 1.32 1 2 C7.6 2 14.2 2 21 2 C21.66 3.32 22.32 4.64 23 6 C22.20464844 5.83757813 21.40929687 5.67515625 20.58984375 5.5078125 C16.21695671 4.88923218 11.97187405 4.8543149 7.5625 4.875 C6.74201172 4.87113281 5.92152344 4.86726563 5.07617188 4.86328125 C0.2787237 4.87093879 -4.26944388 5.19777918 -9 6 C-9.66 4.35 -10.32 2.7 -11 1 C-6.9366946 -0.60642307 -4.21472177 -1.44504746 0 0 Z " fill="#113B63" transform="translate(92,52)"/>
<path d="M0 0 C2.86724686 0.57344937 3.8614515 0.8614515 6 3 C5.9765625 5.1640625 5.9765625 5.1640625 5.625 7.625 C5.51414063 8.44226563 5.40328125 9.25953125 5.2890625 10.1015625 C5.19367188 10.72804688 5.09828125 11.35453125 5 12 C5.94875 12.12375 6.8975 12.2475 7.875 12.375 C11 13 11 13 13 15 C12.875 18 12.875 18 12 21 C9.45285085 22.86790938 8.19131 23 5 23 C5 22.34 5 21.68 5 21 C6.32 20.67 7.64 20.34 9 20 C9 18.02 9 16.04 9 14 C7.35 14 5.7 14 4 14 C3.67 10.04 3.34 6.08 3 2 C1.35 2.66 -0.3 3.32 -2 4 C-1.34 2.68 -0.68 1.36 0 0 Z " fill="#9D895E" transform="translate(165,83)"/>
<path d="M0 0 C0.66 0.33 1.32 0.66 2 1 C2.625 4.0625 2.625 4.0625 3 7 C2.34 7 1.68 7 1 7 C1 7.66 1 8.32 1 9 C-4.625 11 -4.625 11 -8 11 C-10.21168225 13.94236782 -10.21168225 13.94236782 -12 17 C-13.98 16.67 -15.96 16.34 -18 16 C-18 15.67 -18 15.34 -18 15 C-16.35 15 -14.7 15 -13 15 C-12.34 12.69 -11.68 10.38 -11 8 C-7.7 7.67 -4.4 7.34 -1 7 C-0.67 5.68 -0.34 4.36 0 3 C-0.66 2.34 -1.32 1.68 -2 1 C-1.34 0.67 -0.68 0.34 0 0 Z " fill="#F7F3E4" transform="translate(116,163)"/>
<path d="M0 0 C0 0.66 0 1.32 0 2 C0.99 2.33 1.98 2.66 3 3 C1 5 1 5 -2.44140625 5.046875 C-3.81586143 4.95905889 -5.1896123 4.85962706 -6.5625 4.75 C-7.26052734 4.71003906 -7.95855469 4.67007813 -8.67773438 4.62890625 C-10.45958195 4.50101418 -12.23241027 4.25877347 -14 4 C-14.33 3.34 -14.66 2.68 -15 2 C-9.92523206 0.73694665 -5.27203646 -0.27036084 0 0 Z " fill="#04325B" transform="translate(110,145)"/>
<path d="M0 0 C1.32 0 2.64 0 4 0 C4 0.66 4 1.32 4 2 C3.01 2.495 3.01 2.495 2 3 C1.34786708 5.02463255 1.34786708 5.02463255 1 7 C0.01 7 -0.98 7 -2 7 C-2 8.32 -2 9.64 -2 11 C-3.4540625 11.680625 -3.4540625 11.680625 -4.9375 12.375 C-8.07079582 13.65786221 -8.07079582 13.65786221 -9 16 C-8.34 16 -7.68 16 -7 16 C-7.33 16.66 -7.66 17.32 -8 18 C-8.99 17.01 -9.98 16.02 -11 15 C-10.67 14.01 -10.34 13.02 -10 12 C-9.4225 11.7525 -8.845 11.505 -8.25 11.25 C-4.01052757 8.89473754 -1.50421148 4.51263444 0 0 Z " fill="#9D885B" transform="translate(93,153)"/>
<path d="M0 0 C1.0625 1.875 1.0625 1.875 2 4 C1.67 4.66 1.34 5.32 1 6 C-1.33157492 6.34541851 -3.66508361 6.67794257 -6 7 C-6.99 7.66 -7.98 8.32 -9 9 C-8.01 9.66 -7.02 10.32 -6 11 C-6.33 11.99 -6.66 12.98 -7 14 C-8.98 12.68 -10.96 11.36 -13 10 C-12.34 8.35 -11.68 6.7 -11 5 C-3.57142857 3.71428571 -3.57142857 3.71428571 0 5 C0 3.35 0 1.7 0 0 Z " fill="#9D875B" transform="translate(95,25)"/>
<path d="M0 0 C6.07328688 -0.50610724 9.77228537 0.95842058 15 4 C15 7.10551666 14.4606285 8.35261084 13 11 C10.10067643 8.60490662 9.49831724 6.68754757 9 3 C4.545 2.01 4.545 2.01 0 1 C0 0.67 0 0.34 0 0 Z " fill="#0F3456" transform="translate(143,127)"/>
<path d="M0 0 C0.33 0.66 0.66 1.32 1 2 C3.02463255 2.65213292 3.02463255 2.65213292 5 3 C1.25 7.875 1.25 7.875 -1 9 C-2.99960012 9.039992 -5.00047242 9.04346799 -7 9 C-7.33 8.34 -7.66 7.68 -8 7 C-6.35 7 -4.7 7 -3 7 C-3 6.01 -3 5.02 -3 4 C-2.34 3.67 -1.68 3.34 -1 3 C-0.67 2.01 -0.34 1.02 0 0 Z " fill="#193E64" transform="translate(67,153)"/>
<path d="M0 0 C0 0.33 0 0.66 0 1 C-2.64 1.33 -5.28 1.66 -8 2 C-8 2.66 -8 3.32 -8 4 C-4.7 4 -1.4 4 2 4 C2 4.33 2 4.66 2 5 C-2.62 5 -7.24 5 -12 5 C-12.33 4.01 -12.66 3.02 -13 2 C-13.99 2.33 -14.98 2.66 -16 3 C-16 2.34 -16 1.68 -16 1 C-10.63904667 -0.12862175 -5.44693314 -0.09688221 0 0 Z " fill="#093255" transform="translate(105,50)"/>
<path d="M0 0 C2.47598865 1.19805902 2.96367818 2.42179364 3.9375 4.9375 C2.6175 4.9375 1.2975 4.9375 -0.0625 4.9375 C-0.3925 4.2775 -0.7225 3.6175 -1.0625 2.9375 C-2.0525 3.2675 -3.0425 3.5975 -4.0625 3.9375 C-3.7325 6.9075 -3.4025 9.8775 -3.0625 12.9375 C-5.03996603 13.66830266 -7.04322489 14.33171747 -9.0625 14.9375 C-9.7225 14.6075 -10.3825 14.2775 -11.0625 13.9375 C-8.0625 11.9375 -8.0625 11.9375 -4.0625 11.9375 C-4.16949219 11.32261719 -4.27648437 10.70773438 -4.38671875 10.07421875 C-4.50660156 9.26597656 -4.62648438 8.45773438 -4.75 7.625 C-4.87761719 6.82449219 -5.00523438 6.02398437 -5.13671875 5.19921875 C-5.0625 2.9375 -5.0625 2.9375 -3.7109375 1.140625 C-2.0625 -0.0625 -2.0625 -0.0625 0 0 Z " fill="#A48F6A" transform="translate(34.0625,83.0625)"/>
<path d="M0 0 C0.99 0.33 1.98 0.66 3 1 C2.67 4.96 2.34 8.92 2 13 C1.01 12.67 0.02 12.34 -1 12 C-1.02687279 10.18757948 -1.04633715 8.37504767 -1.0625 6.5625 C-1.07410156 5.55316406 -1.08570313 4.54382813 -1.09765625 3.50390625 C-1 1 -1 1 0 0 Z " fill="#06315D" transform="translate(52,91)"/>
<path d="M0 0 C0.99 0 1.98 0 3 0 C3.8125 2.6875 3.8125 2.6875 4 6 C1.75 8.875 1.75 8.875 -1 11 C-1.99 11 -2.98 11 -4 11 C-3.67 13.97 -3.34 16.94 -3 20 C-4.65 20.66 -6.3 21.32 -8 22 C-7.67 21.505 -7.34 21.01 -7 20.5 C-5.56363642 16.90909106 -5.87148538 13.85543873 -6 10 C-4.02 9.34 -2.04 8.68 0 8 C1.01540112 3.89776415 1.01540112 3.89776415 0 0 Z " fill="#FAF7E6" transform="translate(176,96)"/>
<path d="M0 0 C0.33 0 0.66 0 1 0 C1 2.31 1 4.62 1 7 C2.32 7 3.64 7 5 7 C5.33 6.01 5.66 5.02 6 4 C6.99 4.33 7.98 4.66 9 5 C7.02 7.97 7.02 7.97 5 11 C3.125 10.6875 3.125 10.6875 1 10 C-1.29404844 6.55892734 -1.26293056 5.03160191 -1 1 C-0.67 0.67 -0.34 0.34 0 0 Z " fill="#9F8A64" transform="translate(30,107)"/>
<path d="M0 0 C6.75 0.75 6.75 0.75 9 3 C8.79519136 5.62575186 8.32776314 6.70131896 6.37109375 8.484375 C5.73300781 8.90203125 5.09492187 9.3196875 4.4375 9.75 C3.79683594 10.17796875 3.15617187 10.6059375 2.49609375 11.046875 C1.75552734 11.51867187 1.75552734 11.51867187 1 12 C1.33 10.35 1.66 8.7 2 7 C3.65 6.67 5.3 6.34 7 6 C7 5.01 7 4.02 7 3 C4.69 2.34 2.38 1.68 0 1 C0 0.67 0 0.34 0 0 Z " fill="#9A8662" transform="translate(108,29)"/>
<path d="M0 0 C0 2.83967231 -0.40267181 5.23735711 -1 8 C-0.01 8 0.98 8 2 8 C0.89131683 10.21736634 -0.49440461 12.03617993 -2 14 C-4 12 -4 12 -4.375 8.6875 C-3.94805086 4.48916683 -2.88994071 2.98025136 0 0 Z " fill="#0E3458" transform="translate(43,130)"/>
<path d="M0 0 C2.86724686 0.57344937 3.8614515 0.8614515 6 3 C5.9765625 5.1640625 5.9765625 5.1640625 5.625 7.625 C5.51414063 8.44226563 5.40328125 9.25953125 5.2890625 10.1015625 C5.19367188 10.72804688 5.09828125 11.35453125 5 12 C6.32 12.33 7.64 12.66 9 13 C7.35 13.33 5.7 13.66 4 14 C3.67 10.04 3.34 6.08 3 2 C1.35 2.66 -0.3 3.32 -2 4 C-1.34 2.68 -0.68 1.36 0 0 Z " fill="#A08E69" transform="translate(165,83)"/>
<path d="M0 0 C0.66 0.66 1.32 1.32 2 2 C1.9765625 4.6015625 1.9765625 4.6015625 1.625 7.625 C1.45871094 9.12933594 1.45871094 9.12933594 1.2890625 10.6640625 C1.14597656 11.82035156 1.14597656 11.82035156 1 13 C0.34 13 -0.32 13 -1 13 C-0.94199219 12.38511719 -0.88398438 11.77023438 -0.82421875 11.13671875 C-0.68671512 8.67343941 -0.63195953 6.44205675 -1 4 C-3.33749166 1.84397306 -3.33749166 1.84397306 -6 1 C-6.33 1.66 -6.66 2.32 -7 3 C-7 2.01 -7 1.02 -7 0 C-3.85179059 -1.04940314 -3.00659136 -1.066855 0 0 Z " fill="#FAF5E8" transform="translate(171,82)"/>
<path d="M0 0 C2.27467773 2.27467773 2.75132436 3.76650412 3.6875 6.8125 C3.95949219 7.66457031 4.23148438 8.51664063 4.51171875 9.39453125 C5.04831986 12.25783475 4.74719439 14.20679682 4 17 C3.67 17 3.34 17 3 17 C2.9175 16.05125 2.835 15.1025 2.75 14.125 C2.34925077 10.89538209 2.34925077 10.89538209 -0.0625 9.625 C-0.701875 9.41875 -1.34125 9.2125 -2 9 C-1.01 9 -0.02 9 1 9 C0.67 6.03 0.34 3.06 0 0 Z " fill="#26476C" transform="translate(145,79)"/>
<path d="M0 0 C0.33 0 0.66 0 1 0 C1 4.95 1 9.9 1 15 C-2.96 15 -6.92 15 -11 15 C-8 13 -8 13 -2 13 C-1.34 8.71 -0.68 4.42 0 0 Z " fill="#D6E8F4" transform="translate(120,93)"/>
<path d="M0 0 C0.33 0.99 0.66 1.98 1 3 C-0.28965176 4.37562854 -1.62689293 5.70766393 -3 7 C-3.66 7 -4.32 7 -5 7 C-5.33 8.32 -5.66 9.64 -6 11 C-6.66 11 -7.32 11 -8 11 C-8 11.66 -8 12.32 -8 13 C-8.66 13 -9.32 13 -10 13 C-8.75760079 8.30649188 -6.22992078 6.22482324 -2.55859375 3.33203125 C-0.86950777 2.06350705 -0.86950777 2.06350705 0 0 Z " fill="#F8F2E3" transform="translate(117,33)"/>
<path d="M0 0 C0.66 0.33 1.32 0.66 2 1 C2.625 4.0625 2.625 4.0625 3 7 C2.34 7 1.68 7 1 7 C1 7.66 1 8.32 1 9 C-4.94 9.495 -4.94 9.495 -11 10 C-11 9.34 -11 8.68 -11 8 C-7.7 7.67 -4.4 7.34 -1 7 C-0.67 5.68 -0.34 4.36 0 3 C-0.66 2.34 -1.32 1.68 -2 1 C-1.34 0.67 -0.68 0.34 0 0 Z " fill="#F3ECD6" transform="translate(116,163)"/>
<path d="M0 0 C2.32472205 2.85306797 3.7508258 5.54074837 5 9 C2.69 8.67 0.38 8.34 -2 8 C-1.01 7.34 -0.02 6.68 1 6 C0.01 5.01 -0.98 4.02 -2 3 C-1.34 2.01 -0.68 1.02 0 0 Z " fill="#174068" transform="translate(58,118)"/>
<path d="M0 0 C0.66 1.32 1.32 2.64 2 4 C1.18273437 3.84660156 0.36546875 3.69320312 -0.4765625 3.53515625 C-4.44624772 2.9322218 -8.36946033 2.65842036 -12.375 2.4375 C-13.11105469 2.39431641 -13.84710938 2.35113281 -14.60546875 2.30664062 C-16.40348068 2.20156201 -18.20171958 2.10037907 -20 2 C-20 1.67 -20 1.34 -20 1 C-17.04170322 0.832662 -14.08336635 0.66609948 -11.125 0.5 C-9.86236328 0.42845703 -9.86236328 0.42845703 -8.57421875 0.35546875 C-7.76855469 0.31035156 -6.96289062 0.26523437 -6.1328125 0.21875 C-5.38918457 0.17685547 -4.64555664 0.13496094 -3.87939453 0.09179688 C-2.58744125 0.0286929 -1.29349349 0 0 0 Z " fill="#4C6F89" transform="translate(113,54)"/>
<path d="M0 0 C2.475 0.495 2.475 0.495 5 1 C4.67 2.65 4.34 4.3 4 6 C4.99 6.33 5.98 6.66 7 7 C5.68 7.33 4.36 7.66 3 8 C0 3.375 0 3.375 0 0 Z " fill="#08345A" transform="translate(53,117)"/>
<path d="M0 0 C0.66 0.33 1.32 0.66 2 1 C2.22692276 4.32820054 2.32162419 6.41801336 0.6875 9.375 C-1 11 -1 11 -4 11 C-4.33 10.01 -4.66 9.02 -5 8 C-3.68 7.67 -2.36 7.34 -1 7 C-0.67 4.69 -0.34 2.38 0 0 Z " fill="#9F8B64" transform="translate(169,107)"/>
<path d="M0 0 C0.66 0.33 1.32 0.66 2 1 C2 1.66 2 2.32 2 3 C2.99 3 3.98 3 5 3 C4.45276317 6.37462715 3.9451 8.08235 2 11 C2 9.02 2 7.04 2 5 C1.01 5 0.02 5 -1 5 C-0.67 3.35 -0.34 1.7 0 0 Z " fill="#1C4367" transform="translate(144,108)"/>
<path d="M0 0 C0.66 0.33 1.32 0.66 2 1 C1.67 3.97 1.34 6.94 1 10 C-1.475 9.01 -1.475 9.01 -4 8 C-3.625 6.0625 -3.625 6.0625 -3 4 C-2.34 3.67 -1.68 3.34 -1 3 C-0.67 2.01 -0.34 1.02 0 0 Z " fill="#EDF5FC" transform="translate(125,47)"/>
<path d="M0 0 C0.33 0 0.66 0 1 0 C1 2.97 1 5.94 1 9 C3.31 9.66 5.62 10.32 8 11 C6.25 12.125 6.25 12.125 4 13 C2.68 12.34 1.36 11.68 0 11 C0 7.37 0 3.74 0 0 Z " fill="#91815D" transform="translate(150,95)"/>
<path d="M0 0 C0.99 0.33 1.98 0.66 3 1 C2.125 4.875 2.125 4.875 1 6 C-0.68608966 6.07205511 -2.37500659 6.08386068 -4.0625 6.0625 C-4.98160156 6.05347656 -5.90070313 6.04445312 -6.84765625 6.03515625 C-7.55792969 6.02355469 -8.26820312 6.01195312 -9 6 C-9 5.67 -9 5.34 -9 5 C-6.03 5 -3.06 5 0 5 C0 3.35 0 1.7 0 0 Z " fill="#9C8860" transform="translate(114,165)"/>
<path d="M0 0 C1.98 0.495 1.98 0.495 4 1 C4 1.66 4 2.32 4 3 C5.32 3.66 6.64 4.32 8 5 C2.375 5.25 2.375 5.25 -1 3 C-0.67 2.01 -0.34 1.02 0 0 Z " fill="#274B71" transform="translate(131,157)"/>
<path d="M0 0 C0.66 0 1.32 0 2 0 C1.95875 1.2375 1.9175 2.475 1.875 3.75 C1.86341709 7.01637962 2.1431298 9.2146947 4 12 C3.01 12 2.02 12 1 12 C-1.23551759 8.64672361 -1.17283528 8.09256343 -0.625 4.3125 C-0.51414062 3.50425781 -0.40328125 2.69601563 -0.2890625 1.86328125 C-0.19367187 1.24839844 -0.09828125 0.63351563 0 0 Z " fill="#FDF8E6" transform="translate(28,106)"/>
<path d="M0 0 C-0.33 0.99 -0.66 1.98 -1 3 C-2.32 3 -3.64 3 -5 3 C-5.33 3.66 -5.66 4.32 -6 5 C-6.66 5 -7.32 5 -8 5 C-6.19780722 -0.02039417 -5.34443412 -1.60333024 0 0 Z " fill="#173B5C" transform="translate(46,56)"/>
<path d="M0 0 C0.66 0.66 1.32 1.32 2 2 C0.71034824 3.37562854 -0.62689293 4.70766393 -2 6 C-2.66 6 -3.32 6 -4 6 C-4 6.66 -4 7.32 -4 8 C-4.66 7.67 -5.32 7.34 -6 7 C-2.25 1.125 -2.25 1.125 0 0 Z " fill="#1A3F60" transform="translate(133,39)"/>
<path d="M0 0 C3.72433382 1.2125738 7.37802806 2.50859979 11 4 C11 4.33 11 4.66 11 5 C7.14354879 5.22036864 4.50776784 4.60355101 1 3 C0.67 3.66 0.34 4.32 0 5 C0 3.35 0 1.7 0 0 Z " fill="#DAEDF5" transform="translate(74,144)"/>
<path d="M0 0 C0.33 0 0.66 0 1 0 C1.33 3.3 1.66 6.6 2 10 C1.01 10 0.02 10 -1 10 C-0.979375 9.05125 -0.95875 8.1025 -0.9375 7.125 C-0.77448174 4.09333717 -0.77448174 4.09333717 -2 2 C-1.34 2 -0.68 2 0 2 C0 1.34 0 0.68 0 0 Z " fill="#04305C" transform="translate(144,78)"/>
<path d="M0 0 C2.64 0.99 5.28 1.98 8 3 C7.01 3.33 6.02 3.66 5 4 C4.34 3.67 3.68 3.34 3 3 C2.67 3.99 2.34 4.98 2 6 C1.01 6 0.02 6 -1 6 C-1 5.34 -1 4.68 -1 4 C-0.34 3.67 0.32 3.34 1 3 C0.67 2.01 0.34 1.02 0 0 Z " fill="#1F4264" transform="translate(117,53)"/>
<path d="M0 0 C0.66 0 1.32 0 2 0 C2.66 0.99 3.32 1.98 4 3 C4.66 3.66 5.32 4.32 6 5 C4.02 5.66 2.04 6.32 0 7 C0 4.69 0 2.38 0 0 Z " fill="#C5DAE7" transform="translate(73,50)"/>
<path d="M0 0 C0.66 0.66 1.32 1.32 2 2 C-0.31 4.64 -2.62 7.28 -5 10 C-5.33 9.01 -5.66 8.02 -6 7 C-5.071875 6.6596875 -5.071875 6.6596875 -4.125 6.3125 C-1.38589791 4.62070165 -0.94975528 3.00755839 0 0 Z " fill="#1F4363" transform="translate(128,118)"/>
<path d="M0 0 C1.98 0 3.96 0 6 0 C6.66 1.65 7.32 3.3 8 5 C4.62496331 3.8141763 2.35277269 2.72426311 0 0 Z " fill="#9D8757" transform="translate(156,108)"/>
<path d="M0 0 C1.875 0.25 1.875 0.25 4 1 C5.25 3.0625 5.25 3.0625 6 5 C4.68 5 3.36 5 2 5 C1.67 4.34 1.34 3.68 1 3 C0.01 3.33 -0.98 3.66 -2 4 C-1.34 2.68 -0.68 1.36 0 0 Z " fill="#9D865E" transform="translate(32,83)"/>
<path d="M0 0 C0.33 0.66 0.66 1.32 1 2 C1.99 2.33 2.98 2.66 4 3 C7 4 7 4 8 6 C6.35 6 4.7 6 3 6 C2.67 5.01 2.34 4.02 2 3 C1.01 2.67 0.02 2.34 -1 2 C-0.67 1.34 -0.34 0.68 0 0 Z " fill="#284A69" transform="translate(152,52)"/>
<path d="M0 0 C0.99 0.99 1.98 1.98 3 3 C2.34 4.65 1.68 6.3 1 8 C-1 6.625 -1 6.625 -3 5 C-3 4.34 -3 3.68 -3 3 C-2.01 2.67 -1.02 2.34 0 2 C0 1.34 0 0.68 0 0 Z " fill="#144068" transform="translate(156,130)"/>
<path d="M0 0 C1.89213369 2.38573379 3.02391783 4.07175348 4 7 C2.35 7 0.7 7 -1 7 C-0.67 4.69 -0.34 2.38 0 0 Z " fill="#CFE2ED" transform="translate(53,120)"/>
<path d="M0 0 C1.32 0.33 2.64 0.66 4 1 C1.60490662 3.89932357 -0.31245243 4.50168276 -4 5 C-2.68 3.35 -1.36 1.7 0 0 Z " fill="#20466A" transform="translate(77,73)"/>
<path d="M0 0 C0 0.66 0 1.32 0 2 C-0.66 2 -1.32 2 -2 2 C-1.67 2.99 -1.34 3.98 -1 5 C-1.99 5 -2.98 5 -4 5 C-4.33 5.99 -4.66 6.98 -5 8 C-5.1875 5.125 -5.1875 5.125 -5 2 C-2 0 -2 0 0 0 Z " fill="#0B3556" transform="translate(79,55)"/>
<path d="M0 0 C3.48331435 3.01887244 4.79157144 5.56909529 6 10 C5.34 10 4.68 10 4 10 C0 3.375 0 3.375 0 0 Z " fill="#FCF5E0" transform="translate(88,39)"/>
<path d="M0 0 C0 3.62453269 -0.92469613 5.07920195 -3 8 C-3.99 8.33 -4.98 8.66 -6 9 C-4.68775452 5.06326356 -3.08089673 2.77280706 0 0 Z " fill="#F6EDDA" transform="translate(41,109)"/>
<path d="M0 0 C0.66 0 1.32 0 2 0 C3.46726798 3.81489674 2.43336419 6.29011622 1 10 C0.67 10 0.34 10 0 10 C0 6.7 0 3.4 0 0 Z " fill="#0D3863" transform="translate(55,81)"/>
<path d="M0 0 C0.33 0.66 0.66 1.32 1 2 C-0.98 4.31 -2.96 6.62 -5 9 C-5 4.61031544 -2.87194899 3.23094261 0 0 Z " fill="#DFECF5" transform="translate(68,68)"/>
<path d="M0 0 C-2.31 1.65 -4.62 3.3 -7 5 C-6.625 2.5625 -6.625 2.5625 -6 0 C-4 -1 -4 -1 0 0 Z " fill="#A48E69" transform="translate(116,36)"/>
<path d="M0 0 C4 4.625 4 4.625 4 8 C2.68 7.34 1.36 6.68 0 6 C0 4.02 0 2.04 0 0 Z " fill="#9E8A5E" transform="translate(107,156)"/>
<path d="M0 0 C1.98 0 3.96 0 6 0 C6 0.66 6 1.32 6 2 C6.99 2.33 7.98 2.66 9 3 C6.03 2.67 3.06 2.34 0 2 C0 1.34 0 0.68 0 0 Z " fill="#133C69" transform="translate(102,147)"/>
<path d="M0 0 C1.65 0.99 3.3 1.98 5 3 C4.67 4.65 4.34 6.3 4 8 C3.67 7.01 3.34 6.02 3 5 C2.34 5 1.68 5 1 5 C0.67 3.35 0.34 1.7 0 0 Z " fill="#0A3965" transform="translate(144,93)"/>
<path d="M0 0 C0.99 0.33 1.98 0.66 3 1 C2.67 2.65 2.34 4.3 2 6 C0.68 5.67 -0.64 5.34 -2 5 C-1.34 5 -0.68 5 0 5 C-0.2784375 4.0409375 -0.2784375 4.0409375 -0.5625 3.0625 C-0.7790625 2.0415625 -0.7790625 2.0415625 -1 1 C-0.67 0.67 -0.34 0.34 0 0 Z " fill="#F2EBD8" transform="translate(93,24)"/>
</svg>
