<?xml version="1.0" encoding="UTF-8"?>
<svg version="1.1" xmlns="http://www.w3.org/2000/svg" width="331" height="332">
<path d="M0 0 C109.23 0 218.46 0 331 0 C331 109.56 331 219.12 331 332 C221.77 332 112.54 332 0 332 C0 222.44 0 112.88 0 0 Z " fill="#2A628F" transform="translate(0,0)"/>
<path d="M0 0 C6.35694863 2.72440656 10.50204738 6.45102249 14.91870117 11.64111328 C19.0925481 16.37163633 23.6461381 20.74800455 28.125 25.1875 C29.11091377 26.16838194 30.09659221 27.14950049 31.08203125 28.13085938 C32.89455441 29.93530568 34.70865782 31.73810452 36.52392578 33.53979492 C39.02132993 36.02119322 41.51175571 38.50941957 44 41 C44.825 41.825 45.65 42.65 46.5 43.5 C54 51 54 51 56.5625 53.59375 C58.65000635 55.65449345 60.77169223 57.59515626 63 59.5 C68.77950405 64.44054378 73.96326831 69.98644305 79.1875 75.5 C79.81591797 76.15097656 80.44433594 76.80195312 81.09179688 77.47265625 C85.25719069 81.88307323 87.67635565 85.14114161 88.375 91.3125 C87.54487204 99.47542496 82.76651509 104.81963626 77.11222839 110.39570618 C76.41954575 111.09462878 75.72686311 111.79355138 75.01319009 112.51365346 C72.70203138 114.84069896 70.37692101 117.15326416 68.05151367 119.46606445 C66.38659561 121.13640544 64.7225291 122.80759557 63.05924988 124.47956848 C58.54782957 129.00920288 54.02387347 133.52611863 49.4969995 138.04030252 C46.66935043 140.86190253 43.84488009 143.68665509 41.02211952 146.51314354 C40.55287113 146.98300486 40.08362274 147.45286619 39.6001547 147.93696573 C38.64678203 148.89161735 37.69341832 149.84627792 36.74006347 150.80094733 C27.81049852 159.74190496 18.86873803 168.67058482 9.92272673 177.5950826 C2.25230878 185.24762492 -5.40755318 192.91060202 -13.05981445 200.58129883 C-21.95492152 209.49782572 -30.85649908 218.40781019 -39.7684595 227.30749482 C-40.71920543 228.25696661 -41.66994304 229.20644673 -42.62067223 230.15593529 C-43.08840604 230.623052 -43.55613985 231.0901687 -44.03804741 231.57144046 C-47.32867785 234.85862178 -50.61455435 238.15050945 -53.89884377 241.44402504 C-58.32128925 245.8780255 -62.75340609 250.30212567 -67.19317436 254.71877861 C-68.82079189 256.34110762 -70.44501602 257.96684931 -72.06557465 259.59622955 C-74.27835283 261.81993985 -76.50308772 264.03096001 -78.73127747 266.23921204 C-79.36962031 266.88647776 -80.00796315 267.53374349 -80.66564971 268.20062333 C-85.25879964 272.71440397 -90.23869243 276.42292822 -97 276.4375 C-105.03285879 275.9309205 -110.35091951 270.085159 -115.70776367 264.68041992 C-116.44363205 263.9498085 -117.17950043 263.21919708 -117.93766785 262.46644592 C-120.35534274 260.0619181 -122.76194403 257.6466498 -125.16796875 255.23046875 C-126.85188221 253.54857753 -128.53624068 251.86713175 -130.22102356 250.18611145 C-133.74526629 246.66628493 -137.26404294 243.14110668 -140.77905273 239.61206055 C-145.27796674 235.09605549 -149.79021472 230.5936524 -154.30665112 226.09517956 C-157.7856792 222.62700806 -161.25751049 219.15170298 -164.72722816 215.67421913 C-166.38796292 214.01148758 -168.05091683 212.35096939 -169.71614647 210.69273949 C-172.04492079 208.37161009 -174.36381832 206.04103389 -176.68041992 203.70776367 C-177.36569763 203.02855865 -178.05097534 202.34935364 -178.75701904 201.64956665 C-183.63574363 196.70583316 -188.5517512 191.39958826 -188.625 184.0625 C-188.65851563 183.29035156 -188.69203125 182.51820313 -188.7265625 181.72265625 C-186.81234096 174.54947122 -180.07301762 168.78163686 -174.94091797 163.68022156 C-174.25398802 162.98946606 -173.56705807 162.29871056 -172.85931206 161.58702308 C-170.57498178 159.29244084 -168.28363955 157.0049978 -165.9921875 154.7175293 C-164.34547968 153.06647085 -162.69918921 151.41499607 -161.05328369 149.76313782 C-156.5953363 145.29183123 -152.13103711 140.82691884 -147.66513824 136.36355567 C-143.46310667 132.16273091 -139.26479171 127.95819662 -135.06607509 123.75405905 C-126.24642802 114.92355546 -117.42029461 106.09955735 -108.59216571 97.27753452 C-100.51959305 89.2101367 -92.45527765 81.13454186 -84.39479518 73.05506577 C-76.10825091 64.74914558 -67.81616263 56.44879792 -59.51804543 48.15443927 C-54.86329473 43.50150262 -50.21080376 38.84636151 -45.56390381 34.18558311 C-41.19737015 29.80649575 -36.82367197 25.43469395 -32.44432831 21.0684185 C-30.83811392 19.46457427 -29.23445771 17.8581634 -27.63355255 16.24901962 C-25.44892567 14.05396192 -23.2552702 11.8683418 -21.05908203 9.68486023 C-20.11091771 8.72563448 -20.11091771 8.72563448 -19.14359856 7.74703044 C-13.69887457 2.36842357 -8.02991671 -1.71968128 0 0 Z " fill="#2C638F" transform="translate(215,26)"/>
<path d="M0 0 C10.05316461 2.70301602 21.06703229 18.26817062 28.29844666 25.51087952 C29.8286099 27.04036804 31.35892148 28.56970818 32.88937378 30.09890747 C36.07545257 33.28352079 39.25973747 36.46991387 42.44273376 39.65760803 C46.52830899 43.74891884 50.61841002 47.83567129 54.70983219 51.921134 C57.86079254 55.06849059 61.00937951 58.21821275 64.15723991 61.36866951 C65.66564424 62.87774162 67.17479369 64.38606931 68.68469429 65.89364433 C70.78371048 67.99013291 72.87951513 70.08977907 74.97447205 72.19032288 C75.60036728 72.81419388 76.22626251 73.43806488 76.87112427 74.08084106 C82.14527742 79.38120072 82.14527742 79.38120072 82.57579041 83.85853577 C82.21118637 88.23378414 81.04031791 90.25976731 78.26329041 93.60853577 C77.60329041 93.60853577 76.94329041 93.60853577 76.26329041 93.60853577 C75.94811462 94.41049377 75.94811462 94.41049377 75.62657166 95.22865295 C73.73368026 98.53307727 71.13263515 101.0244808 68.45079041 103.68666077 C67.88126648 104.25809814 67.31174255 104.82953552 66.72496033 105.41828918 C65.52372361 106.62088365 64.31997043 107.82096911 63.11387634 109.01869202 C61.26288085 110.85894294 59.42283594 112.70966209 57.58360291 114.56166077 C56.41497317 115.72896961 55.24572356 116.89565828 54.07579041 118.06166077 C53.52366882 118.61783081 52.97154724 119.17400085 52.4026947 119.74702454 C48.49322676 123.60853577 48.49322676 123.60853577 46.26329041 123.60853577 C45.27329041 125.58853577 45.27329041 125.58853577 44.26329041 127.60853577 C43.60329041 127.60853577 42.94329041 127.60853577 42.26329041 127.60853577 C41.60329041 128.92853577 40.94329041 130.24853577 40.26329041 131.60853577 C39.60329041 131.60853577 38.94329041 131.60853577 38.26329041 131.60853577 C38.01490417 132.18289368 37.76651794 132.75725159 37.51060486 133.34901428 C36.07592101 135.94795713 34.42010983 137.67813248 32.30625916 139.76087952 C31.52315369 140.53753967 30.74004822 141.31419983 29.93321228 142.11439514 C29.11401306 142.91683655 28.29481384 143.71927795 27.45079041 144.54603577 C26.64319275 145.34460999 25.83559509 146.1431842 25.00352478 146.96595764 C23.44464574 148.50696255 21.88353805 150.04571707 20.31993103 151.58192444 C18.65740751 153.22017322 17.00883131 154.86980706 15.36875916 156.53041077 C13.26329041 158.60853577 13.26329041 158.60853577 10.38829041 160.92103577 C6.54173116 164.04636516 3.43852785 167.82267573 0.26329041 171.60853577 C-2.84782445 170.22568145 -4.95953238 168.63192035 -7.35527039 166.22375488 C-8.40674507 165.17423645 -8.40674507 165.17423645 -9.47946167 164.10351562 C-10.23804977 163.33616592 -10.99663788 162.56881622 -11.7782135 161.7782135 C-12.58513138 160.96998138 -13.39204926 160.16174927 -14.22341919 159.32902527 C-16.89132625 156.65462336 -19.55219307 153.97332402 -22.21327209 151.29212952 C-24.06313621 149.43599647 -25.91351544 147.58037667 -27.76438904 145.72525024 C-32.1395554 141.33871174 -36.51002094 136.9475239 -40.87845743 132.55428416 C-49.17008212 124.21566726 -57.46883003 115.88415835 -65.77160263 107.55664253 C-68.50280195 104.81518592 -71.23058202 102.07036005 -73.95805359 99.32519531 C-75.623253 97.65317086 -77.28856076 95.9812543 -78.95399475 94.3094635 C-79.71663132 93.54008957 -80.47926788 92.77071564 -81.26501465 91.97802734 C-81.96035812 91.28116821 -82.6557016 90.58430908 -83.37211609 89.86633301 C-84.27966361 88.95350634 -84.27966361 88.95350634 -85.20554543 88.02223873 C-86.69986301 86.51105628 -86.69986301 86.51105628 -88.73670959 85.60853577 C-87.860479 80.91672505 -84.97939788 78.43705422 -81.68812561 75.18763733 C-81.05721008 74.55307114 -80.42629456 73.91850494 -79.77626038 73.26470947 C-77.68838057 71.16872183 -75.58983389 69.08378797 -73.49061584 66.99916077 C-72.03900926 65.54807266 -70.58792034 64.09646652 -69.1373291 62.6443634 C-66.09629535 59.60341938 -63.05015634 56.56771314 -60.00013733 53.53578186 C-56.08278612 49.6411479 -52.17663587 45.7355062 -48.27400303 41.82612991 C-45.27963378 38.82842662 -42.2803132 35.83571906 -39.279356 32.84461212 C-37.83665748 31.40577335 -36.39531772 29.96557087 -34.95533943 28.5240097 C-32.94667483 26.51497605 -30.93166533 24.51253939 -28.91468811 22.51185608 C-28.3156517 21.91034225 -27.7166153 21.30882843 -27.09942627 20.68908691 C-22.96545095 16.60853577 -22.96545095 16.60853577 -20.73670959 16.60853577 C-20.50854553 16.05423889 -20.28038147 15.49994202 -20.04530334 14.92884827 C-18.36476093 11.94902083 -16.2355926 9.88056457 -13.79920959 7.48353577 C-12.92393616 6.61470764 -12.04866272 5.74587952 -11.14686584 4.85072327 C-7.59074842 1.54243899 -4.9891912 -0.1812004 0 0 Z " fill="#D2363C" transform="translate(212.73670959472656,33.39146423339844)"/>
<path d="M0 0 C6.35694863 2.72440656 10.50204738 6.45102249 14.91870117 11.64111328 C19.0925481 16.37163633 23.6461381 20.74800455 28.125 25.1875 C29.11091377 26.16838194 30.09659221 27.14950049 31.08203125 28.13085938 C32.89455441 29.93530568 34.70865782 31.73810452 36.52392578 33.53979492 C39.02132993 36.02119322 41.51175571 38.50941957 44 41 C44.825 41.825 45.65 42.65 46.5 43.5 C54 51 54 51 56.5625 53.59375 C58.65000635 55.65449345 60.77169223 57.59515626 63 59.5 C68.77950405 64.44054378 73.96326831 69.98644305 79.1875 75.5 C79.81591797 76.15097656 80.44433594 76.80195312 81.09179688 77.47265625 C85.25719069 81.88307323 87.67635565 85.14114161 88.375 91.3125 C87.54487204 99.47542496 82.76651509 104.81963626 77.11222839 110.39570618 C76.41954575 111.09462878 75.72686311 111.79355138 75.01319009 112.51365346 C72.70203138 114.84069896 70.37692101 117.15326416 68.05151367 119.46606445 C66.38659561 121.13640544 64.7225291 122.80759557 63.05924988 124.47956848 C58.54782957 129.00920288 54.02387347 133.52611863 49.4969995 138.04030252 C46.66935043 140.86190253 43.84488009 143.68665509 41.02211952 146.51314354 C40.55287113 146.98300486 40.08362274 147.45286619 39.6001547 147.93696573 C38.64678203 148.89161735 37.69341832 149.84627792 36.74006347 150.80094733 C27.81049852 159.74190496 18.86873803 168.67058482 9.92272673 177.5950826 C2.25230878 185.24762492 -5.40755318 192.91060202 -13.05981445 200.58129883 C-21.95492152 209.49782572 -30.85649908 218.40781019 -39.7684595 227.30749482 C-40.71920543 228.25696661 -41.66994304 229.20644673 -42.62067223 230.15593529 C-43.08840604 230.623052 -43.55613985 231.0901687 -44.03804741 231.57144046 C-47.32867785 234.85862178 -50.61455435 238.15050945 -53.89884377 241.44402504 C-58.32128925 245.8780255 -62.75340609 250.30212567 -67.19317436 254.71877861 C-68.82079189 256.34110762 -70.44501602 257.96684931 -72.06557465 259.59622955 C-74.27835283 261.81993985 -76.50308772 264.03096001 -78.73127747 266.23921204 C-79.36962031 266.88647776 -80.00796315 267.53374349 -80.66564971 268.20062333 C-85.25879964 272.71440397 -90.23869243 276.42292822 -97 276.4375 C-105.03285879 275.9309205 -110.35091951 270.085159 -115.70776367 264.68041992 C-116.44363205 263.9498085 -117.17950043 263.21919708 -117.93766785 262.46644592 C-120.35534274 260.0619181 -122.76194403 257.6466498 -125.16796875 255.23046875 C-126.85188221 253.54857753 -128.53624068 251.86713175 -130.22102356 250.18611145 C-133.74526629 246.66628493 -137.26404294 243.14110668 -140.77905273 239.61206055 C-145.27796674 235.09605549 -149.79021472 230.5936524 -154.30665112 226.09517956 C-157.7856792 222.62700806 -161.25751049 219.15170298 -164.72722816 215.67421913 C-166.38796292 214.01148758 -168.05091683 212.35096939 -169.71614647 210.69273949 C-172.04492079 208.37161009 -174.36381832 206.04103389 -176.68041992 203.70776367 C-177.36569763 203.02855865 -178.05097534 202.34935364 -178.75701904 201.64956665 C-183.63574363 196.70583316 -188.5517512 191.39958826 -188.625 184.0625 C-188.65851563 183.29035156 -188.69203125 182.51820313 -188.7265625 181.72265625 C-186.81234096 174.54947122 -180.07301762 168.78163686 -174.94091797 163.68022156 C-174.25398802 162.98946606 -173.56705807 162.29871056 -172.85931206 161.58702308 C-170.57498178 159.29244084 -168.28363955 157.0049978 -165.9921875 154.7175293 C-164.34547968 153.06647085 -162.69918921 151.41499607 -161.05328369 149.76313782 C-156.5953363 145.29183123 -152.13103711 140.82691884 -147.66513824 136.36355567 C-143.46310667 132.16273091 -139.26479171 127.95819662 -135.06607509 123.75405905 C-126.24642802 114.92355546 -117.42029461 106.09955735 -108.59216571 97.27753452 C-100.51959305 89.2101367 -92.45527765 81.13454186 -84.39479518 73.05506577 C-76.10825091 64.74914558 -67.81616263 56.44879792 -59.51804543 48.15443927 C-54.86329473 43.50150262 -50.21080376 38.84636151 -45.56390381 34.18558311 C-41.19737015 29.80649575 -36.82367197 25.43469395 -32.44432831 21.0684185 C-30.83811392 19.46457427 -29.23445771 17.8581634 -27.63355255 16.24901962 C-25.44892567 14.05396192 -23.2552702 11.8683418 -21.05908203 9.68486023 C-20.11091771 8.72563448 -20.11091771 8.72563448 -19.14359856 7.74703044 C-13.69887457 2.36842357 -8.02991671 -1.71968128 0 0 Z M-18 17 C-18.57621094 17.54140625 -19.15242188 18.0828125 -19.74609375 18.640625 C-20.88170871 19.70868213 -21.95132763 20.84646039 -23 22 C-23 22.66 -23 23.32 -23 24 C-23.52946228 24.20512711 -24.05892456 24.41025421 -24.60443115 24.62159729 C-28.00819252 26.58011077 -30.57875991 29.29243566 -33.32910156 32.05444336 C-33.95391418 32.67414505 -34.57872681 33.29384674 -35.22247314 33.93232727 C-37.2837193 35.97968628 -39.33746461 38.03437832 -41.390625 40.08984375 C-42.8195831 41.51491562 -44.24876506 42.93976306 -45.67816162 44.36439514 C-48.67069841 47.34947246 -51.65933219 50.33839371 -54.64550781 53.32983398 C-58.47961017 57.16974311 -62.32498268 60.99814168 -66.17355728 64.82353878 C-69.12634896 67.76163039 -72.0722185 70.70658566 -75.01610565 73.65359688 C-76.43160221 75.06857876 -77.84947549 76.48118708 -79.26972198 77.89140129 C-81.24986202 79.85926114 -83.22029578 81.83635114 -85.18847656 83.81616211 C-85.78063965 84.40068146 -86.37280273 84.98520081 -86.98291016 85.58743286 C-90.2823834 88.69597089 -90.2823834 88.69597089 -91 93 C-89.51261194 94.63367563 -89.51261194 94.63367563 -87.51000977 96.18458557 C-83.0498009 99.92558828 -78.94392671 103.9217642 -74.83984375 108.04663086 C-74.06814346 108.81818512 -73.29644318 109.58973938 -72.50135803 110.38467407 C-69.97769143 112.90903153 -67.45757505 115.43690127 -64.9375 117.96484375 C-63.17795342 119.72625745 -61.4181844 121.48744898 -59.65820312 123.24842834 C-55.04634362 127.86408988 -50.43749625 132.48274759 -45.82928467 137.10205078 C-41.11875967 141.82338714 -36.40482313 146.54131663 -31.69140625 151.25976562 C-22.45814432 160.50372401 -13.22796656 169.75075555 -4 179 C-0.99256061 177.5737837 0.7557517 176.38168947 2.8125 173.75 C5.36454279 170.64372569 8.07234937 168.08284391 11.19140625 165.5546875 C13.02441089 163.97901613 14.72532689 162.30718272 16.4230957 160.58789062 C18.40742172 158.58973976 20.4173133 156.6184102 22.42578125 154.64453125 C24.05480558 153.03397359 25.68370884 151.42329347 27.3125 149.8125 C28.14845703 148.99330078 28.98441406 148.17410156 29.84570312 147.33007812 C31.0300293 146.15541992 31.0300293 146.15541992 32.23828125 144.95703125 C32.96055908 144.24522705 33.68283691 143.53342285 34.42700195 142.80004883 C36.21934001 141.14741682 36.21934001 141.14741682 36 139 C37.32 138.34 38.64 137.68 40 137 C40 136.34 40 135.68 40 135 C41.32 134.34 42.64 133.68 44 133 C44 132.34 44 131.68 44 131 C44.53463867 130.78988281 45.06927734 130.57976562 45.62011719 130.36328125 C48.9245415 128.47038985 51.41594503 125.86934474 54.078125 123.1875 C54.64956238 122.61797607 55.22099976 122.04845215 55.80975342 121.46166992 C57.01234789 120.2604332 58.21243334 119.05668003 59.41015625 117.85058594 C61.25040717 115.99959045 63.10112633 114.15954554 64.953125 112.3203125 C66.12043384 111.15168276 67.28712251 109.98243316 68.453125 108.8125 C69.28738007 107.98431763 69.28738007 107.98431763 70.13848877 107.1394043 C73.06914802 104.55211513 73.06914802 104.55211513 74 101 C74.99 100.67 75.98 100.34 77 100 C79.19106093 97.24088624 79.97039703 95.15689576 80.625 91.6875 C79.96557947 87.79691889 79.45155346 87.01517754 76.90924072 84.22592163 C76.27222481 83.52517895 75.63520889 82.82443626 74.97888947 82.10245895 C71.97873683 78.91496522 68.92734667 75.78790603 65.82714844 72.69775391 C65.14819519 72.01704834 64.46924194 71.33634277 63.76971436 70.63500977 C61.55208899 68.41302615 59.3308775 66.1946693 57.109375 63.9765625 C55.55700321 62.42351633 54.00477982 60.8703218 52.45269775 59.31698608 C49.21325098 56.07607085 45.97201688 52.83695679 42.72949219 49.59912109 C38.57096981 45.44631939 34.41698509 41.28901215 30.26430893 37.13036537 C27.06629769 33.92874581 23.86591505 30.72950531 20.66480255 27.53098679 C19.13143743 25.99828894 17.59881535 24.46484736 16.06694794 22.93065262 C13.93213055 20.79330172 11.79414452 18.65917217 9.65527344 16.52587891 C8.70612061 15.57368973 8.70612061 15.57368973 7.73779297 14.6022644 C7.15479431 14.02208557 6.57179565 13.44190674 5.97113037 12.84414673 C5.46678341 12.34017679 4.96243645 11.83620686 4.44280624 11.3169651 C1.27037884 8.42123589 -1.35832797 7.27183262 -5.6796875 7.3515625 C-10.80827204 8.7848033 -14.37510743 13.29427792 -18 17 Z M-101.30212402 100.04815674 C-101.98352951 100.72392258 -102.664935 101.39968842 -103.36698914 102.09593201 C-104.4876049 103.22262047 -104.4876049 103.22262047 -105.63085938 104.37207031 C-106.41797806 105.15568436 -107.20509674 105.9392984 -108.0160675 106.74665833 C-110.63036789 109.35211861 -113.23724044 111.96487239 -115.84375 114.578125 C-117.65184717 116.38487591 -119.46024123 118.19132976 -121.2689209 119.99749756 C-125.06519741 123.79081948 -128.85791179 127.58765498 -132.64794922 131.38720703 C-137.02830699 135.77843433 -141.41580212 140.16243118 -145.80710554 144.54271054 C-150.0297499 148.75517818 -154.24674799 152.97326323 -158.46138 157.19374847 C-160.25569244 158.98939691 -162.05149679 160.78355579 -163.84880066 162.57621002 C-166.3604486 165.08278677 -168.86560844 167.59567242 -171.36914062 170.11035156 C-172.48975639 171.22489464 -172.48975639 171.22489464 -173.63301086 172.36195374 C-174.31441635 173.04899887 -174.99582184 173.73604401 -175.69787598 174.44390869 C-176.29075661 175.03754337 -176.88363724 175.63117805 -177.49448395 176.24280167 C-180.06666062 179.24497793 -180.98261628 181.27079165 -181.07740784 185.24708557 C-179.56614866 190.51122622 -176.59979409 193.25613891 -172.76147461 197.04663086 C-171.62473297 198.20396225 -171.62473297 198.20396225 -170.46502686 199.38467407 C-167.95930807 201.92695215 -165.4320802 204.44647954 -162.90234375 206.96484375 C-161.15100252 208.72530677 -159.40040748 210.4865124 -157.65052795 212.24842834 C-153.51113322 216.4079763 -149.35577421 220.55111829 -145.19509083 224.68935829 C-141.88162155 227.98845778 -138.58653074 231.30514465 -135.30102539 234.63208008 C-130.76638132 239.22321794 -126.2126166 243.79440864 -121.64245796 248.35019112 C-119.90396174 250.08838049 -118.17166879 251.83279722 -116.4457531 253.58347893 C-114.03062786 256.02834983 -111.59141055 258.44634549 -109.14428711 260.85913086 C-108.43591202 261.58684189 -107.72753693 262.31455292 -106.99769592 263.0643158 C-103.9081265 266.06376335 -101.39532399 268.44011628 -96.99098206 268.88380432 C-91.70862592 268.36743004 -88.53667745 264.63006698 -85 261 C-83.84269795 259.88273973 -82.68537541 258.76550067 -81.5280304 257.64828491 C-80.3563974 256.47948988 -79.1874061 255.30804214 -78.02075195 254.13427734 C-77.37412598 253.48779739 -76.7275 252.84131744 -76.0612793 252.17524719 C-73.9512305 250.0645089 -71.84473511 247.95026291 -69.73828125 245.8359375 C-68.25975658 244.35554416 -66.78100831 242.87537411 -65.30204773 241.39541626 C-61.42696665 237.51653647 -57.55489662 233.63466468 -53.68347168 229.75213623 C-49.74587337 225.80430012 -45.80543954 221.85929649 -41.86523438 217.9140625 C-35.50329678 211.54335894 -29.14307726 205.17094633 -22.78514099 198.79624939 C-21.69081282 197.69909241 -20.59625804 196.60216138 -19.5014286 195.50550461 C-18.06721012 194.06739258 -16.63614907 192.62613373 -15.20524597 191.1847229 C-13 189 -13 189 -11.125 187.4375 C-9.77180617 186.05649441 -9.77180617 186.05649441 -10.22132969 184.14190292 C-11.16696996 181.54071263 -12.37811602 180.24713589 -14.33372498 178.29205322 C-15.04741241 177.57135147 -15.76109985 176.85064972 -16.49641418 176.10810852 C-17.28448959 175.32767685 -18.072565 174.54724518 -18.88452148 173.74316406 C-19.71050842 172.91352646 -20.53649536 172.08388885 -21.38751221 171.22911072 C-24.12468282 168.48382184 -26.87258172 165.74955558 -29.62109375 163.015625 C-31.52183419 161.11685955 -33.42062475 159.21614805 -35.31959534 157.31561279 C-39.30170317 153.33262225 -43.28974848 149.35565433 -47.28149414 145.38232422 C-51.90090853 140.78409887 -56.51140797 136.17708313 -61.11712021 131.56513619 C-65.54462058 127.1319488 -69.97775735 122.70444181 -74.41371346 118.27971649 C-76.30338759 116.39469492 -78.19115425 114.50779273 -80.07745171 112.6193924 C-82.70876534 109.98770989 -85.34645103 107.36259218 -87.98608398 104.73925781 C-88.77213516 103.95072922 -89.55818634 103.16220062 -90.36805725 102.34977722 C-91.08456451 101.64035477 -91.80107178 100.93093231 -92.53929138 100.20001221 C-93.47480662 99.26757627 -93.47480662 99.26757627 -94.42922115 98.31630325 C-97.52841783 95.71919502 -98.84838484 97.59753833 -101.30212402 100.04815674 Z " fill="#F2F6F7" transform="translate(215,26)"/>
<path d="M0 0 C6.16050273 6.50897561 7.48445136 11.47088628 7.40234375 20.375 C6.79920838 25.809074 4.84445906 29.17987296 1 33 C-4.56475335 37.42408552 -9.66683476 39.41623807 -16.85546875 39.26953125 C-23.75645698 38.40219393 -28.35457586 34.24825908 -32.58984375 29 C-36.46269357 23.50720468 -36.68040813 17.51703409 -36 11 C-33.47770947 3.96413693 -28.29298726 -0.25098632 -22 -4 C-14.15877366 -7.13649053 -6.5915137 -4.61075833 0 0 Z " fill="#F8FBFC" transform="translate(101,193)"/>
<path d="M0 0 C4.49353043 2.6091467 7.06504528 6.25765427 9.67578125 10.6484375 C11.29560938 17.61369847 10.83044131 23.86425738 7.64453125 30.29296875 C4.7437932 34.70310247 0.63056018 37.44941821 -3.69921875 40.3359375 C-11.01546656 41.16042569 -18.98817535 41.76490495 -25.046875 36.9921875 C-30.50980415 31.51634362 -33.07371472 27.24712473 -33.44921875 19.3359375 C-33.08348955 11.07580964 -29.98062948 6.45727942 -24.13671875 0.8984375 C-16.1614213 -4.21393266 -8.53114022 -3.7414954 0 0 Z " fill="#F9FBFC" transform="translate(161.69921875,191.6640625)"/>
<path d="M0 0 C4.76486544 3.16908504 8.52251737 6.73073708 10.2890625 12.3515625 C11.52834468 18.83956919 11.34226556 24.81707884 8.01953125 30.6171875 C4.35184323 35.62933594 -0.14737259 39.22865149 -6.3125 40.4375 C-12.62488087 41.01421254 -17.75745212 40.79149117 -23.3125 37.4375 C-29.0782443 31.89532538 -32.58565555 27.34671838 -32.75 19.1875 C-32.628711 11.97484753 -30.75494139 8.03683551 -25.85546875 2.9140625 C-18.4842959 -3.81529319 -8.60031035 -4.80643276 0 0 Z " fill="#FDFAFA" transform="translate(222.3125,98.5625)"/>
<path d="M0 0 C2.70567626 1.82339052 4.53728718 3.07457436 6 6 C6.42950108 14.87635575 6.42950108 14.87635575 4 18 C0.45909791 20.91603701 -2.60975931 21.52769776 -7.0703125 21.359375 C-10.16313871 20.78338307 -11.85086037 19.21234961 -14 17 C-16.53604144 13.19593784 -16.60198813 11.51491096 -16 7 C-11.75883416 0.23018955 -8.00490536 -1.79420293 0 0 Z " fill="#396B8C" transform="translate(169,282)"/>
<path d="M0 0 C2.70567626 1.82339052 4.53728718 3.07457436 6 6 C6.42950108 14.87635575 6.42950108 14.87635575 4 18 C0.45909791 20.91603701 -2.60975931 21.52769776 -7.0703125 21.359375 C-10.16313871 20.78338307 -11.85086037 19.21234961 -14 17 C-16.53604144 13.19593784 -16.60198813 11.51491096 -16 7 C-11.75883416 0.23018955 -8.00490536 -1.79420293 0 0 Z M-11.5 3.5 C-13.59344124 6.98906873 -13.88059943 10.09909901 -13 14 C-11.10350449 17.14658666 -11.10350449 17.14658666 -8 19 C-4.45728358 19.75011367 -4.45728358 19.75011367 -1 19 C2.30748965 16.38882396 3.81680509 14.37396185 4.375 10.1875 C4.23726945 6.85940634 4.23726945 6.85940634 2 4.125 C-2.52240154 0.92163224 -6.52827925 0.51696755 -11.5 3.5 Z " fill="#BFDDE6" transform="translate(169,282)"/>
<path d="M0 0 C2.97 0 5.94 0 9 0 C8.96744792 1.98567708 8.93489583 3.97135417 8.90234375 5.95703125 C8.91736783 8.20305461 8.91736783 8.20305461 10 11 C9.01 11 8.02 11 7 11 C6.67 9.68 6.34 8.36 6 7 C5.01 7 4.02 7 3 7 C3 8.32 3 9.64 3 11 C2.01 11 1.02 11 0 11 C0 7.37 0 3.74 0 0 Z " fill="#C2DCE6" transform="translate(159,287)"/>
<path d="M0 0 C2.70502403 0.87730509 4.68400006 1.71668971 6.8125 3.625 C8.86175028 7.72350056 8.60241073 11.97370936 7.3125 16.3125 C5.4643868 18.68864555 3.74039337 19.75436665 1 21 C-2.3125 21.1875 -2.3125 21.1875 -5 21 C-5 20.34 -5 19.68 -5 19 C-3.72125 18.7525 -2.4425 18.505 -1.125 18.25 C2.1149343 17.47152784 2.1149343 17.47152784 4.5 15.25 C5.166895 12.24897249 5.43875445 10.07128114 5 7 C2.58333229 4.24958334 2.58333229 4.24958334 0 2 C0 1.34 0 0.68 0 0 Z " fill="#D0E8EF" transform="translate(167,282)"/>
<path d="M0 0 C0.33 1.32 0.66 2.64 1 4 C0.01 4.33 -0.98 4.66 -2 5 C-3.60638586 6.94908151 -4.98174585 9.00251191 -6.40234375 11.08984375 C-8.141794 13.16952877 -9.45326103 14.09963774 -12 15 C-12.66 14.67 -13.32 14.34 -14 14 C-9.38 9.38 -4.76 4.76 0 0 Z " fill="#4A7C97" transform="translate(57,183)"/>
<path d="M0 0 C0.66 0 1.32 0 2 0 C3.39935013 2.79870027 3.25265405 4.90498792 3 8 C1.5 9.875 1.5 9.875 0 11 C-1.5 9.625 -1.5 9.625 -3 8 C-3 7.34 -3 6.68 -3 6 C-2.34 6 -1.68 6 -1 6 C-1.0309375 4.7934375 -1.0309375 4.7934375 -1.0625 3.5625 C-1 1 -1 1 0 0 Z " fill="#386B8C" transform="translate(170,287)"/>
<path d="M0 0 C2.64 0 5.28 0 8 0 C7.96744792 1.98567708 7.93489583 3.97135417 7.90234375 5.95703125 C7.91736783 8.20305461 7.91736783 8.20305461 9 11 C8.01 11 7.02 11 6 11 C5.896875 10.360625 5.79375 9.72125 5.6875 9.0625 C5.460625 8.381875 5.23375 7.70125 5 7 C4.01 6.67 3.02 6.34 2 6 C2.99 5.67 3.98 5.34 5 5 C5 4.01 5 3.02 5 2 C3.68 1.67 2.36 1.34 1 1 C0.67 1.99 0.34 2.98 0 4 C0 2.68 0 1.36 0 0 Z " fill="#D7EDF2" transform="translate(160,287)"/>
<path d="M0 0 C2.85434908 0.6083039 4.19602272 2.12594696 5.90625 4.40625 C4.91625 4.90125 4.91625 4.90125 3.90625 5.40625 C3.90625 4.74625 3.90625 4.08625 3.90625 3.40625 C1.92625 3.40625 -0.05375 3.40625 -2.09375 3.40625 C-2.09375 4.06625 -2.09375 4.72625 -2.09375 5.40625 C-2.75375 5.40625 -3.41375 5.40625 -4.09375 5.40625 C-4.09375 4.41625 -4.09375 3.42625 -4.09375 2.40625 C-6.07375 3.06625 -8.05375 3.72625 -10.09375 4.40625 C-7.10598476 0.42256302 -4.75583948 -0.21294804 0 0 Z " fill="#CB4954" transform="translate(213.09375,33.59375)"/>
<path d="M0 0 C0 4.58228538 -2.91611967 6.8183381 -6 10 C-8.375 11.9375 -8.375 11.9375 -10 13 C-10.66 12.67 -11.32 12.34 -12 12 C-8.04 8.04 -4.08 4.08 0 0 Z " fill="#427194" transform="translate(230,197)"/>
<path d="M0 0 C0 3.93235469 -1.54945341 5.02964049 -4 8 C-4.33 8.99 -4.66 9.98 -5 11 C-6.65 11 -8.3 11 -10 11 C-6.79239749 7.19364503 -3.59253891 3.45436433 0 0 Z " fill="#4D7F9A" transform="translate(68,172)"/>
<path d="M0 0 C0.99 0.33 1.98 0.66 3 1 C-0.3 4.3 -3.6 7.6 -7 11 C-7.99 10.67 -8.98 10.34 -10 10 C-9.44570312 9.52949219 -8.89140625 9.05898437 -8.3203125 8.57421875 C-7.59585938 7.95160156 -6.87140625 7.32898438 -6.125 6.6875 C-5.40570313 6.07261719 -4.68640625 5.45773438 -3.9453125 4.82421875 C-1.80820669 2.9587676 -1.80820669 2.9587676 0 0 Z " fill="#F7DEE2" transform="translate(229,187)"/>
<path d="M0 0 C0.33 0.66 0.66 1.32 1 2 C0.67 2.99 0.34 3.98 0 5 C-0.99 5 -1.98 5 -3 5 C-3.33 6.32 -3.66 7.64 -4 9 C-5.65 9.33 -7.3 9.66 -9 10 C-8.06409496 8.8944811 -7.12620142 7.79064547 -6.1875 6.6875 C-5.66542969 6.07261719 -5.14335937 5.45773438 -4.60546875 4.82421875 C-3.12827531 3.14575321 -1.59960869 1.56117966 0 0 Z " fill="#CD5C66" transform="translate(165,75)"/>
<path d="M0 0 C0 3 0 3 -1.6875 5.6875 C-4 8 -4 8 -6.75 8.3125 C-7.86375 8.1578125 -7.86375 8.1578125 -9 8 C-6.35039045 4.36905358 -3.98175544 2.10148204 0 0 Z " fill="#CC4852" transform="translate(180,62)"/>
<path d="M0 0 C0 4.24645065 -1.81750806 6.38524772 -4 10 C-5.65 10 -7.3 10 -9 10 C-7.625 8 -7.625 8 -6 6 C-5.34 6 -4.68 6 -4 6 C-3.71125 5.38125 -3.4225 4.7625 -3.125 4.125 C-2 2 -2 2 0 0 Z " fill="#CE5A64" transform="translate(196,44)"/>
<path d="M0 0 C2.475 0.99 2.475 0.99 5 2 C4.34 4.31 3.68 6.62 3 9 C2.34 8.67 1.68 8.34 1 8 C1.33 6.35 1.66 4.7 2 3 C-0.64 3 -3.28 3 -6 3 C-6 2.67 -6 2.34 -6 2 C-4.02 2 -2.04 2 0 2 C0 1.34 0 0.68 0 0 Z " fill="#5E8AA6" transform="translate(166,284)"/>
<path d="M0 0 C0 3.9765245 -1.38011503 5.0890167 -4 8 C-6.25 9.8125 -6.25 9.8125 -8 11 C-8.66 10.67 -9.32 10.34 -10 10 C-6.7 6.7 -3.4 3.4 0 0 Z " fill="#427298" transform="translate(244,183)"/>
<path d="M0 0 C-1.39332574 3.36720387 -2.9789286 4.9859524 -6 7 C-6.33 6.01 -6.66 5.02 -7 4 C-3.375 0 -3.375 0 0 0 Z " fill="#3B708D" transform="translate(106,123)"/>
<path d="M0 0 C0.33 0.66 0.66 1.32 1 2 C-0.54442235 5.63393495 -1.48567857 6.78822059 -5.1875 8.3125 C-6.5796875 8.6528125 -6.5796875 8.6528125 -8 9 C-7.04270084 7.87411986 -6.08412105 6.7493285 -5.125 5.625 C-4.59132812 4.99851562 -4.05765625 4.37203125 -3.5078125 3.7265625 C-2.38567993 2.44163349 -1.20628025 1.20628025 0 0 Z " fill="#CF5D68" transform="translate(155,85)"/>
<path d="M0 0 C0 4.35251187 -2.06165511 5.92809398 -5 9 C-7.171875 9.6796875 -7.171875 9.6796875 -9 10 C-8.06409496 8.8944811 -7.12620142 7.79064547 -6.1875 6.6875 C-5.66542969 6.07261719 -5.14335937 5.45773438 -4.60546875 4.82421875 C-3.12827531 3.14575321 -1.59960869 1.56117966 0 0 Z " fill="#427093" transform="translate(193,234)"/>
<path d="M0 0 C4.2742558 1.5830577 6.26531794 4.50568404 9 8 C8.01 8.33 7.02 8.66 6 9 C5.566875 8.195625 5.13375 7.39125 4.6875 6.5625 C3.19525998 3.72153646 3.19525998 3.72153646 0 3 C0 2.01 0 1.02 0 0 Z " fill="#356683" transform="translate(45,237)"/>
<path d="M0 0 C0.33 0.66 0.66 1.32 1 2 C-0.125 4.5625 -0.125 4.5625 -2 7 C-4.6875 7.8125 -4.6875 7.8125 -7 8 C-6.02133662 6.85373678 -5.04205413 5.70800212 -4.0625 4.5625 C-3.51722656 3.92441406 -2.97195312 3.28632812 -2.41015625 2.62890625 C-1.63204305 1.73008851 -0.84063472 0.84063472 0 0 Z " fill="#D05A65" transform="translate(146,94)"/>
<path d="M0 0 C0.33 0.66 0.66 1.32 1 2 C2.32 1.67 3.64 1.34 5 1 C5 1.99 5 2.98 5 4 C2.04335481 5.4783226 -0.74229737 5.06032783 -4 5 C-2.68 4.67 -1.36 4.34 0 4 C0 2.68 0 1.36 0 0 Z " fill="#547D9F" transform="translate(165,296)"/>
<path d="M0 0 C0.66 0 1.32 0 2 0 C1.67 1.65 1.34 3.3 1 5 C0.4225 5.12375 -0.155 5.2475 -0.75 5.375 C-3.02612206 6.00725613 -4.90760206 6.91863468 -7 8 C-6.02133662 6.85373678 -5.04205413 5.70800212 -4.0625 4.5625 C-3.51722656 3.92441406 -2.97195312 3.28632813 -2.41015625 2.62890625 C-1.63204305 1.73008851 -0.84063472 0.84063472 0 0 Z " fill="#3E6D90" transform="translate(173,254)"/>
<path d="M0 0 C2.64752004 2.57784846 4.94432065 4.91648098 7 8 C4.03 7.505 4.03 7.505 1 7 C0.67 4.69 0.34 2.38 0 0 Z " fill="#C44E5A" transform="translate(192,128)"/>
<path d="M0 0 C0.33 0.66 0.66 1.32 1 2 C3.02463255 2.65213292 3.02463255 2.65213292 5 3 C5.33 4.98 5.66 6.96 6 9 C3.35247996 6.42215154 1.05567935 4.08351902 -1 1 C-0.67 0.67 -0.34 0.34 0 0 Z " fill="#457596" transform="translate(296,102)"/>
<path d="M0 0 C2.475 0.495 2.475 0.495 5 1 C5 1.99 5 2.98 5 4 C3.35 4 1.7 4 0 4 C0 2.68 0 1.36 0 0 Z " fill="#7396AC" transform="translate(161,288)"/>
<path d="M0 0 C0.99 0.33 1.98 0.66 3 1 C0.03 3.475 0.03 3.475 -3 6 C-3.66 5.67 -4.32 5.34 -5 5 C-3.35 3.35 -1.7 1.7 0 0 Z " fill="#CDE2EC" transform="translate(165,251)"/>
<path d="M0 0 C0.99 0.33 1.98 0.66 3 1 C1.68 2.32 0.36 3.64 -1 5 C-1.66 4.67 -2.32 4.34 -3 4 C-2.67 3.01 -2.34 2.02 -2 1 C-1.34 0.67 -0.68 0.34 0 0 Z " fill="#286083" transform="translate(135,228)"/>
</svg>
