<?xml version="1.0" encoding="UTF-8"?>
<svg version="1.1" xmlns="http://www.w3.org/2000/svg" width="600" height="600">
<path d="M0 0 C198 0 396 0 600 0 C600 198 600 396 600 600 C402 600 204 600 0 600 C0 402 0 204 0 0 Z " fill="#FEFEFE" transform="translate(0,0)"/>
<path d="M0 0 C31.68 0 63.36 0 96 0 C95.27549726 8.69403283 94.2337837 17.36351409 93 26 C71.22 26 49.44 26 27 26 C26.67 29.63 26.34 33.26 26 37 C25.58094068 39.40916756 25.11675131 41.81131853 24.58984375 44.19921875 C24.22814087 45.86343872 24.22814087 45.86343872 23.85913086 47.5612793 C23.55499268 48.92293213 23.25085449 50.28458496 22.9375 51.6875 C21.4834375 58.2771875 21.4834375 58.2771875 20 65 C38.48 65 56.96 65 76 65 C75 77 75 77 72 91 C43.29 91.495 43.29 91.495 14 92 C13.34 96.62 12.68 101.24 12 106 C11.04446209 110.34335413 10.04088923 114.67630628 9 119 C7.68 124.94 6.36 130.88 5 137 C26.12 137 47.24 137 69 137 C67 150 67 150 64 163 C31.66 163 -0.68 163 -34 163 C-33.39254643 158.74782499 -32.77902892 154.66507538 -31.90625 150.484375 C-31.68606201 149.42436279 -31.46587402 148.36435059 -31.23901367 147.2722168 C-30.99513916 146.10988525 -30.75126465 144.94755371 -30.5 143.75 C-30.10035034 141.83344604 -30.10035034 141.83344604 -29.69262695 139.87817383 C-29.10446381 137.05800044 -28.51484518 134.23813599 -27.92431641 131.41845703 C-27.16662139 127.79926805 -26.4128327 124.17928054 -25.66049194 120.55897522 C-20.37535017 95.1327753 -14.98253315 69.72933709 -9.58697891 44.32638931 C-9.00030445 41.56393356 -8.41387104 38.80142672 -7.82748413 36.03890991 C-6.89497643 31.64620214 -5.9616521 27.25366864 -5.02768517 22.8612709 C-4.67822812 21.21733647 -4.3290034 19.57335263 -3.98002052 17.92931747 C-3.49778341 15.65789123 -3.01463838 13.38665999 -2.53125 11.11547852 C-2.25861328 9.83286636 -1.98597656 8.55025421 -1.70507812 7.22877502 C-1.17689522 4.81005899 -0.60044907 2.40179627 0 0 Z " fill="#2C4694" transform="translate(124,404)"/>
<path d="M0 0 C1.24201172 -0.020625 2.48402344 -0.04125 3.76367188 -0.0625 C10.88254245 -0.09268069 16.76707145 0.39269405 23.3125 3.25 C24.23160156 3.61480469 25.15070313 3.97960937 26.09765625 4.35546875 C35.60776016 8.87399154 41.48283252 15.17480236 46.07763672 24.62719727 C48.45160883 31.59188137 47.9693655 38.66480767 47.75 45.9375 C47.72840984 47.49280328 47.70951524 49.0481464 47.69335938 50.60351562 C47.58738469 57.90657927 47.12277596 64.95751633 46.3125 72.25 C17.9325 72.25 -10.4475 72.25 -39.6875 72.25 C-37.85801702 83.22689787 -36.65734132 88.86600524 -29.4375 96.6875 C-25.40456914 98.97893799 -21.16299784 100.10747453 -16.6875 101.25 C-15.76710938 101.5284375 -15.76710938 101.5284375 -14.828125 101.8125 C-2.7019734 104.29083755 12.53093726 102.17828288 23.5546875 96.61328125 C26.3125 95.25 26.3125 95.25 30.3125 95.25 C30.03409206 98.66788271 29.73746793 102.08394735 29.4375 105.5 C29.35886719 106.46808594 29.28023438 107.43617188 29.19921875 108.43359375 C29.07353516 109.83544922 29.07353516 109.83544922 28.9453125 111.265625 C28.87199707 112.12446289 28.79868164 112.98330078 28.72314453 113.86816406 C28.27263402 116.48123218 27.89212146 118.10691511 26.3125 120.25 C23.7565918 121.25488281 23.7565918 121.25488281 20.51171875 121.953125 C18.71963989 122.34105225 18.71963989 122.34105225 16.89135742 122.73681641 C15.60720947 122.98866699 14.32306152 123.24051758 13 123.5 C12.3468985 123.63073914 11.693797 123.76147827 11.02090454 123.8961792 C-10.08553582 128.07382218 -30.66629824 128.44740994 -49.78125 117.28125 C-60.0351146 110.11457044 -66.08971431 99.55515851 -69.0625 87.5 C-72.28945744 67.00715687 -67.71055336 46.2237224 -55.6875 29.25 C-52.83264307 25.76898486 -49.80249722 22.4983447 -46.6875 19.25 C-46.0378125 18.53714844 -45.388125 17.82429688 -44.71875 17.08984375 C-37.11154644 8.99939571 -28.50963895 3.75780403 -17.6875 1.25 C-17.11016113 1.07871582 -16.53282227 0.90743164 -15.93798828 0.73095703 C-10.7532562 -0.377084 -5.27912328 0.02158047 0 0 Z " fill="#2C4794" transform="translate(400.6875,443.75)"/>
<path d="M0 0 C0.7528125 0.4125 1.505625 0.825 2.28125 1.25 C3.0753125 1.6625 3.869375 2.075 4.6875 2.5 C11.65254905 6.58616211 16.15927665 12.52184461 19.4453125 19.84375 C23.26213418 35.39640657 19.97537705 52.00408374 16.03857422 67.16064453 C14.56093622 73.18837867 13.41217793 79.28585707 12.21875 85.375 C11.96706055 86.64706299 11.71537109 87.91912598 11.45605469 89.22973633 C10.96259373 91.7239016 10.47021654 94.21828158 9.97900391 96.71289062 C8.96515947 101.85235118 7.93587439 106.98868267 6.90625 112.125 C6.37 114.80625 5.83375 117.4875 5.28125 120.25 C-5.27875 120.25 -15.83875 120.25 -26.71875 120.25 C-25.59362909 107.87367003 -25.59362909 107.87367003 -24.51953125 102.08203125 C-24.28258545 100.79119629 -24.04563965 99.50036133 -23.80151367 98.17041016 C-23.54493056 96.80107463 -23.28817196 95.43177199 -23.03125 94.0625 C-22.76565692 92.62816183 -22.50044583 91.19375288 -22.2355957 89.75927734 C-21.68389791 86.77692626 -21.12892602 83.79521103 -20.57128906 80.81396484 C-19.8568553 76.99398769 -19.1487887 73.17286498 -18.44288635 69.3513031 C-17.89735552 66.39991164 -17.34951868 63.44895227 -16.8008728 60.49813843 C-16.53885139 59.08841825 -16.27731177 57.67860843 -16.01626587 56.26870728 C-15.65236365 54.3063337 -15.28524187 52.34455798 -14.91796875 50.3828125 C-14.71002686 49.26793457 -14.50208496 48.15305664 -14.2878418 47.00439453 C-13.71875 44.25 -13.71875 44.25 -12.71875 41.25 C-12.20355704 36.34299817 -12.22913899 32.37202524 -14.21875 27.8125 C-18.66100017 23.25919357 -23.39207131 22.10881071 -29.65625 21.875 C-37.57929663 22.17833257 -43.97489735 24.42531517 -49.80078125 29.90234375 C-58.14493511 40.11585998 -61.58156832 53.61892502 -64.05859375 66.28515625 C-64.26682266 67.32208115 -64.47505157 68.35900604 -64.68959045 69.42735291 C-65.35054849 72.72134953 -66.00406557 76.01675598 -66.65625 79.3125 C-69.38296798 93.04802327 -72.17690364 106.69894515 -75.71875 120.25 C-85.94875 120.25 -96.17875 120.25 -106.71875 120.25 C-105.59263464 108.9888464 -105.59263464 108.9888464 -104.51953125 103.4765625 C-104.28331055 102.25598145 -104.04708984 101.03540039 -103.80371094 99.77783203 C-103.54879883 98.48989746 -103.29388672 97.20196289 -103.03125 95.875 C-102.75936316 94.48683147 -102.48755481 93.09864757 -102.21582031 91.71044922 C-100.33726211 82.16155906 -98.33482912 72.64225379 -96.26220703 63.13354492 C-93.04371075 48.29177986 -90.0655979 33.3997307 -87.05761719 18.51416016 C-86.63607737 16.4352194 -86.2145283 14.35628051 -85.79296875 12.27734375 C-85.59843613 11.30988724 -85.4039035 10.34243073 -85.20347595 9.34565735 C-85.02248856 8.45420517 -84.84150116 7.56275299 -84.6550293 6.64428711 C-84.49769821 5.86492294 -84.34036713 5.08555878 -84.17826843 4.28257751 C-83.71875 2.25 -83.71875 2.25 -82.71875 -0.75 C-72.48875 -0.75 -62.25875 -0.75 -51.71875 -0.75 C-52.04875 2.88 -52.37875 6.51 -52.71875 10.25 C-51.831875 9.38375 -50.945 8.5175 -50.03125 7.625 C-37.18710193 -3.47846271 -15.64802905 -7.13074742 0 0 Z " fill="#2C4794" transform="translate(307.71875,446.75)"/>
<path d="M0 0 C10.23 0 20.46 0 31 0 C29.87555682 12.36887499 29.87555682 12.36887499 28.50390625 18.69921875 C28.35509506 19.39586136 28.20628387 20.09250397 28.05296326 20.81025696 C27.7307589 22.31511122 27.40565523 23.81934718 27.07788086 25.32299805 C26.35778351 28.62671327 25.65217295 31.93348501 24.94515991 35.24002075 C24.56377498 37.02263306 24.18161856 38.80508046 23.79873657 40.58737183 C21.70020724 50.3624911 19.66731456 60.15108419 17.63534546 69.94021606 C16.57667633 75.03870029 15.51502714 80.1365633 14.453125 85.234375 C14.14226204 86.72675438 14.14226204 86.72675438 13.82511902 88.24928284 C8.62904487 113.18315007 3.35488986 138.09976214 -2 163 C-12.23 163 -22.46 163 -33 163 C-33 155.12498072 -33 155.12498072 -32.14942932 151.11296082 C-31.96049606 150.20482132 -31.77156281 149.29668182 -31.5769043 148.36102295 C-31.26148682 146.89877289 -31.26148682 146.89877289 -30.93969727 145.40698242 C-30.61025368 143.83878502 -30.61025368 143.83878502 -30.27415466 142.23890686 C-29.5449635 138.77630212 -28.80573552 135.31592176 -28.06640625 131.85546875 C-27.5492812 129.41030845 -27.03276718 126.96501886 -26.51683044 124.51960754 C-25.28970293 118.710952 -24.0562147 112.9036702 -22.81969446 107.097009 C-21.31387918 100.02376628 -19.81826785 92.94837075 -18.32226562 85.87304688 C-12.26365969 57.23826685 -6.14895662 28.61550412 0 0 Z " fill="#2C4794" transform="translate(478,404)"/>
<path d="M0 0 C1.14275391 0.50660156 1.14275391 0.50660156 2.30859375 1.0234375 C3.34113281 1.46945313 4.37367187 1.91546875 5.4375 2.375 C6.44683594 2.81585938 7.45617187 3.25671875 8.49609375 3.7109375 C15.39341612 6.24841396 22.10173255 7.38877989 29.4375 7.375 C30.22592285 7.37556396 31.0143457 7.37612793 31.82666016 7.37670898 C44.14926689 7.16099854 56.5759912 4.95964695 68.62524414 2.45410156 C89.96340261 -1.62618781 111.63817161 5.68310221 129.25 17.3125 C135.24362936 21.71868254 140.62995046 26.86698461 146 32 C146.90878906 32.82177734 146.90878906 32.82177734 147.8359375 33.66015625 C149 35 149 35 149.1875 37.6875 C149.125625 38.450625 149.06375 39.21375 149 40 C145.4950149 41.22288198 143.41991754 40.76386423 139.9375 39.6015625 C138.49503906 39.12976563 138.49503906 39.12976563 137.0234375 38.6484375 C136.02570313 38.31070313 135.02796875 37.97296875 134 37.625 C132.02112003 36.97048673 130.04196381 36.31680794 128.0625 35.6640625 C126.74958984 35.22247803 126.74958984 35.22247803 125.41015625 34.77197266 C115.7100418 31.66502757 106.94941196 33.13198664 97.1875 35.4375 C95.18101118 35.89462604 93.1745015 36.35166055 91.16796875 36.80859375 C90.29422607 37.01282959 89.4204834 37.21706543 88.52026367 37.42749023 C64.87584859 42.79861814 41.34488672 35.06227802 21 23 C12.10855274 17.26995621 5.39498113 11.22204587 0 2 C0 1.34 0 0.68 0 0 Z " fill="#E66A2E" transform="translate(109,178)"/>
<path d="M0 0 C0.66483398 0.21914062 1.32966797 0.43828125 2.01464844 0.6640625 C13.48602387 4.48602387 13.48602387 4.48602387 15 6 C15.04063832 7.66617115 15.042721 9.33388095 15 11 C14.39639648 11.07516846 13.79279297 11.15033691 13.17089844 11.2277832 C-10.56608116 14.12588953 -10.56608116 14.12588953 -31.06396484 25.67016602 C-53.50884009 43.17436122 -77.68146359 50.81330339 -106.31591797 47.75244141 C-116.90109809 46.33843523 -127.48765002 43.7202763 -136 37 C-136 36.34 -136 35.68 -136 35 C-135.44763672 34.97607178 -134.89527344 34.95214355 -134.32617188 34.92749023 C-121.17957452 34.26444209 -110.59211631 32.28769543 -99 26 C-98.00355469 25.4740625 -97.00710937 24.948125 -95.98046875 24.40625 C-90.58434184 21.39445823 -85.47598391 17.99225691 -80.36083984 14.53369141 C-69.72217926 7.34076867 -59.59035457 1.166899 -47 -2 C-45.80890625 -2.34804687 -44.6178125 -2.69609375 -43.390625 -3.0546875 C-29.31166518 -6.53665143 -13.57415982 -4.49590007 0 0 Z " fill="#E66A2E" transform="translate(241,228)"/>
<path d="M0 0 C0.680625 0.680625 1.36125 1.36125 2.0625 2.0625 C2.52527344 2.52011719 2.98804688 2.97773437 3.46484375 3.44921875 C4.49895655 4.49385687 5.51193076 5.55979961 6.50390625 6.64453125 C20.39615795 21.4740915 43.0807375 28.09104552 62.578125 31.91796875 C67.25499223 32.92898988 71.1908774 34.77998562 75.375 37.0625 C76.10960449 37.45808105 76.84420898 37.85366211 77.60107422 38.26123047 C84.0564056 41.84060628 89.55659623 45.99542981 95 51 C95.61746094 51.5259375 96.23492187 52.051875 96.87109375 52.59375 C105.91385888 60.78027178 111.92001956 72.04315364 116.625 83.125 C116.96781006 83.9303418 117.31062012 84.73568359 117.66381836 85.56542969 C120.65569959 92.95906068 120.65569959 92.95906068 120 97 C119.34 97.66 118.68 98.32 118 99 C114.93579926 98.90072784 113.85679439 97.86793519 111.58984375 95.77734375 C110.71457031 94.84019531 109.83929688 93.90304688 108.9375 92.9375 C103.77381528 87.55785703 98.23442892 83.11744215 92 79 C91.24340088 78.49654053 90.48680176 77.99308105 89.70727539 77.47436523 C86.78826116 75.88468835 84.44392723 75.30426151 81.17578125 74.75390625 C80.06396484 74.55603516 78.95214844 74.35816406 77.80664062 74.15429688 C75.49684322 73.76309027 73.18694893 73.37245528 70.87695312 72.98242188 C47.19521841 68.76475269 26.86741461 53.63197537 12.78417969 34.33398438 C5.52824729 23.71524238 -0.25548764 13.02986966 0 0 Z " fill="#E66A2D" transform="translate(148,102)"/>
<path d="M0 0 C-0.38671875 0.47308594 -0.7734375 0.94617187 -1.171875 1.43359375 C-12.74376653 16.12760453 -14.57553343 33.47767819 -14.5625 51.5625 C-14.60296505 77.82431729 -19.91420061 100.89414623 -38 121 C-38.62519531 121.70769531 -39.25039063 122.41539062 -39.89453125 123.14453125 C-46.40466587 130.09324336 -55.28870132 138.08136364 -65 139 C-65.78205295 136.72730578 -66.16337282 135.46308422 -65.35083008 133.15991211 C-64.99400146 132.53866455 -64.63717285 131.91741699 -64.26953125 131.27734375 C-63.87830078 130.57287109 -63.48707031 129.86839844 -63.08398438 129.14257812 C-62.66439453 128.41490234 -62.24480469 127.68722656 -61.8125 126.9375 C-60.13067514 123.99362944 -58.52887302 121.0263459 -57 118 C-56.60965576 117.25572754 -56.21931152 116.51145508 -55.81713867 115.74462891 C-51.22410688 105.46007628 -52.55107272 93.64685546 -52.7355957 82.62792969 C-53.12176027 54.92832148 -41.44856669 31.25959001 -22.46484375 11.33984375 C-7.47808543 -2.88688879 -7.47808543 -2.88688879 0 0 Z " fill="#E66A2D" transform="translate(384,50)"/>
<path d="M0 0 C0 0.33 0 0.66 0 1 C-0.8971875 1.06316406 -1.794375 1.12632812 -2.71875 1.19140625 C-25.18399297 3.39615633 -41.12962308 16.19899383 -57.90625 30.47265625 C-78.0218069 46.90544074 -100.38147098 51.89058427 -126 50 C-131.25257929 49.21141648 -136.41066708 48.02019035 -141.5 46.5 C-142.3146875 46.2628125 -143.129375 46.025625 -143.96875 45.78125 C-146 45 -146 45 -148 43 C-148.125 40.375 -148.125 40.375 -148 38 C-147.44127197 37.89453857 -146.88254395 37.78907715 -146.30688477 37.68041992 C-143.72416641 37.18914632 -141.14337279 36.6883751 -138.5625 36.1875 C-137.68400391 36.02185547 -136.80550781 35.85621094 -135.90039062 35.68554688 C-123.30134432 33.22152675 -113.38346726 29.83172085 -104.421875 20.4375 C-100.25781771 16.24657783 -95.6261042 12.66204351 -91 9 C-90.35675781 8.443125 -89.71351563 7.88625 -89.05078125 7.3125 C-67.47837422 -10.65670672 -23.43325272 -15.62216848 0 0 Z " fill="#E66A2D" transform="translate(491,176)"/>
<path d="M0 0 C0.99 0.99 0.99 0.99 2 2 C1.28714844 2.43570313 0.57429688 2.87140625 -0.16015625 3.3203125 C-15.6005482 12.92120224 -24.13565102 24.35780964 -32.1875 40.5625 C-33.34656355 42.85602129 -34.50670813 45.14899661 -35.66796875 47.44140625 C-36.22436035 48.54194336 -36.78075195 49.64248047 -37.35400391 50.77636719 C-48.75415177 73.10320677 -64.7319218 89.78393979 -89 98 C-105.70201196 103.12515092 -105.70201196 103.12515092 -114 102 C-115.73046875 99.96875 -115.73046875 99.96875 -117 98 C-116.52691406 97.64284912 -116.05382812 97.28569824 -115.56640625 96.91772461 C-113.37524738 95.2607408 -111.18762384 93.59914773 -109 91.9375 C-108.25621094 91.37611328 -107.51242187 90.81472656 -106.74609375 90.23632812 C-93.88791048 80.45292781 -87.84324839 72.18701959 -81.88671875 57.1171875 C-77.61864939 46.56003152 -72.69542796 37.96287668 -64.5 30 C-63.80003906 29.31357422 -63.10007812 28.62714844 -62.37890625 27.91992188 C-46.98419666 13.12374078 -22.62059832 -3.66359973 0 0 Z " fill="#E66A2D" transform="translate(450,100)"/>
<path d="M0 0 C-0.01571045 0.66418945 -0.0314209 1.32837891 -0.04760742 2.01269531 C-0.66361758 19.28267678 -0.66361758 19.28267678 3 36 C3.4021875 37.175625 3.804375 38.35125 4.21875 39.5625 C6.61546034 46.36891701 9.3942356 52.94578891 12.43334961 59.48925781 C23.32937942 83.0180745 25.54435803 105.36031114 16.90234375 130.1484375 C13.77946379 138.21499522 9.41706595 145.59072808 5 153 C3.35 153 1.7 153 0 153 C-0.0093457 152.02240723 -0.01869141 151.04481445 -0.02832031 150.03759766 C-0.0685835 146.36560646 -0.13443666 142.69442157 -0.20751953 139.02294922 C-0.23552079 137.44232645 -0.25683764 135.86156909 -0.27099609 134.28076172 C-0.35717427 125.19758184 -0.63100043 117.18893925 -5 109 C-5.60207275 107.79972168 -5.60207275 107.79972168 -6.21630859 106.57519531 C-7.46247432 104.13323356 -8.75317363 101.72111088 -10.0625 99.3125 C-22.07940863 77.08211182 -23.66048921 51.14988031 -16.62109375 26.765625 C-7.97599224 0 -7.97599224 0 0 0 Z " fill="#E66A2D" transform="translate(299,31)"/>
<path d="M0 0 C1.06798828 -0.00773438 2.13597656 -0.01546875 3.23632812 -0.0234375 C25.72894787 0.03152309 49.1273565 8.80304238 65.57421875 24.171875 C70.5625 29.38555992 70.5625 29.38555992 70.5625 32.25 C69.67433594 31.96125 68.78617188 31.6725 67.87109375 31.375 C44.53400694 24.34639652 22.11053597 29.26844503 -0.70361328 35.90966797 C-19.70977791 41.27458332 -40.57600033 36.71473176 -57.53125 27.53125 C-66.15143813 22.62755017 -75.0090798 16.86520547 -81.4375 9.25 C-81.3125 6.375 -81.3125 6.375 -80.4375 4.25 C-74.61391335 5.24199372 -68.90433608 6.38026343 -63.1875 7.875 C-49.23901338 11.02201461 -39.18825547 9.04818614 -26.1640625 3.9765625 C-17.37371077 0.65614064 -9.37587121 -0.06765511 0 0 Z " fill="#E66A2D" transform="translate(424.4375,229.75)"/>
<path d="M0 0 C2 1 2 1 2.67578125 2.93359375 C2.88589844 3.75988281 3.09601563 4.58617187 3.3125 5.4375 C6.03509902 14.94627867 10.60904047 22.51273552 17 30 C17.75410156 30.88816406 18.50820312 31.77632812 19.28515625 32.69140625 C24.15334002 38.23851264 29.24585278 42.97934153 35.0078125 47.57421875 C45.74170424 56.27623803 54.22157655 64.90104018 61 77 C61.64001953 78.10794922 61.64001953 78.10794922 62.29296875 79.23828125 C67.38824526 88.66747112 70.12229025 99.03415243 70.1328125 109.71875 C70.13410156 110.98074219 70.13539063 112.24273437 70.13671875 113.54296875 C70.13285156 114.84878906 70.12898438 116.15460938 70.125 117.5 C70.12886719 118.80582031 70.13273437 120.11164063 70.13671875 121.45703125 C70.13542969 122.71902344 70.13414062 123.98101562 70.1328125 125.28125 C70.13168457 126.42658203 70.13055664 127.57191406 70.12939453 128.75195312 C70.00333315 131.91633157 69.59227225 134.89218812 69 138 C67.35 138.33 65.7 138.66 64 139 C61.70955599 134.66451669 59.7609624 130.45796041 58.1875 125.8125 C52.97340828 111.56720789 47.24200348 104.79550581 34.94775391 96.35498047 C14.83135479 82.36074443 2.37108914 59.91385665 -2.2734375 36.01171875 C-3.18211205 30.49666117 -3.39746979 25.02006616 -3.4375 19.4375 C-3.4475708 18.53402832 -3.4576416 17.63055664 -3.46801758 16.69970703 C-3.38920717 10.65310419 -2.24422168 5.60927179 0 0 Z " fill="#E66A2D" transform="translate(215,50)"/>
<path d="M0 0 C0.66 0 1.32 0 2 0 C1.89824463 1.09115112 1.89824463 1.09115112 1.79443359 2.2043457 C-1.88786432 45.12799681 1.56878768 88.51444093 30 123 C35.07111308 128.93192387 40.4230148 134.54513856 46 140 C47.33451799 141.33214762 48.66811201 142.66522289 50 144 C32.55741701 144.69667121 17.94897455 140.76303292 4.4375 129.30859375 C-14.62185894 111.25718167 -22.50660666 87.30562715 -23.23828125 61.453125 C-23.26855674 59.05214676 -23.29317791 56.65109137 -23.3125 54.25 C-23.34150391 53.0640625 -23.37050781 51.878125 -23.40039062 50.65625 C-23.52733302 32.76713743 -15.93907606 20.43409638 -5.26953125 6.8828125 C-3.91285745 5.15953322 -2.58589782 3.41118337 -1.32421875 1.6171875 C-0.88722656 1.08351562 -0.45023437 0.54984375 0 0 Z " fill="#E66A2E" transform="translate(331,246)"/>
<path d="M0 0 C0.66 0 1.32 0 2 0 C3.80160566 2.02301511 5.4725188 4.04698901 7.125 6.1875 C7.61419922 6.81736816 8.10339844 7.44723633 8.60742188 8.09619141 C22.21583042 25.89830232 25.37466561 40.0093324 25 62 C24.97486328 63.61841797 24.97486328 63.61841797 24.94921875 65.26953125 C23.72214333 89.21503163 14.79702267 112.65933227 -3.125 129 C-16.52713829 139.87748699 -31.72135769 144.8405826 -49 144 C-46.67694366 140.80579753 -44.16783193 138.18866417 -41.1875 135.625 C-26.2081004 122.71839555 -14.32094162 105.8524154 -8 87 C-7.59136719 85.79988281 -7.18273437 84.59976563 -6.76171875 83.36328125 C-0.95973216 65.84574483 1.19606189 48.69055969 1.125 30.25 C1.12306641 29.03022461 1.12113281 27.81044922 1.11914062 26.55371094 C1.07668349 17.66837566 0.7697967 8.852662 0 0 Z " fill="#E66A2E" transform="translate(268,246)"/>
<path d="M0 0 C0.75369873 0.00942627 1.50739746 0.01885254 2.28393555 0.02856445 C9.02848514 0.2121543 14.17665869 0.80110273 19.0625 5.9375 C24.23829944 14.01174712 21.625 13.3823992 21.625 28.375 C4.135 28.375 -13.355 28.375 -31.375 28.375 C-29.70225637 18.33853823 -24.94570814 10.73516202 -16.68359375 4.77734375 C-10.83670787 1.22568211 -6.76240419 -0.12937033 0 0 Z " fill="#F9FAFC" transform="translate(397.375,466.625)"/>
</svg>
