<?xml version="1.0" encoding="UTF-8"?>
<svg version="1.1" xmlns="http://www.w3.org/2000/svg" width="225" height="225">
<path d="M0 0 C74.25 0 148.5 0 225 0 C225 74.25 225 148.5 225 225 C150.75 225 76.5 225 0 225 C0 150.75 0 76.5 0 0 Z " fill="#0053A2" transform="translate(0,0)"/>
<path d="M0 0 C5.21290837 4.46820717 9.52052993 8.78776147 12.46484375 15.0234375 C12.85542969 15.81363281 13.24601562 16.60382813 13.6484375 17.41796875 C16.54205995 24.41673031 16.85111608 31.17401845 16.90234375 38.6484375 C16.91241455 39.63344238 16.92248535 40.61844727 16.93286133 41.63330078 C16.92150146 42.55868652 16.9101416 43.48407227 16.8984375 44.4375 C16.88868896 45.2723291 16.87894043 46.1071582 16.86889648 46.96728516 C16.73555908 47.64581543 16.60222168 48.3243457 16.46484375 49.0234375 C12.95841668 51.36105554 11.57628425 51.2672973 7.43286133 51.25048828 C6.1918013 51.25033722 4.95074127 51.25018616 3.67207336 51.25003052 C2.31783895 51.2398173 0.96360617 51.22938531 -0.390625 51.21875 C-1.77639054 51.21501917 -3.16215873 51.21217253 -4.54792786 51.21017456 C-8.19269105 51.20254358 -11.83729449 51.1828998 -15.48199463 51.1607666 C-19.20216714 51.14029658 -22.92236551 51.13117038 -26.64257812 51.12109375 C-33.94017695 51.09965331 -41.2376442 51.06552394 -48.53515625 51.0234375 C-48.08277864 52.94151859 -47.62301162 54.85785783 -47.16015625 56.7734375 C-46.90492187 57.84078125 -46.6496875 58.908125 -46.38671875 60.0078125 C-45.6536458 62.60383232 -44.9481088 64.73605393 -43.53515625 67.0234375 C-41.28771869 68.17364275 -41.28771869 68.17364275 -38.53515625 69.0234375 C-37.54515625 69.5596875 -36.55515625 70.0959375 -35.53515625 70.6484375 C-28.48342193 73.64427234 -20.06499834 72.93195775 -13.03515625 70.2734375 C-10.138234 68.96560367 -8.16846483 67.72849005 -5.66015625 65.7109375 C-3.53515625 64.0234375 -3.53515625 64.0234375 -1.6875 64.140625 C1.2478578 65.34460116 2.85487083 67.16348306 5.02734375 69.4609375 C7.46320922 72.02003393 9.51462796 74.05662697 12.46484375 76.0234375 C12.1354445 78.86994418 11.67141799 79.84774911 9.453125 81.734375 C-6.09515906 91.40381881 -21.10857176 96.28182601 -39.59765625 93.4609375 C-51.74528633 90.54063912 -61.38475086 84.26408612 -68.01953125 73.6484375 C-75.81365078 59.34393578 -76.9116347 41.19677478 -73.41015625 25.3984375 C-69.32504501 12.25421384 -62.90419995 2.11666668 -50.53515625 -4.4140625 C-34.38074715 -11.76808732 -14.35618909 -11.19296099 0 0 Z " fill="#FAFBFD" transform="translate(118.53515625,69.9765625)"/>
<path d="M0 0 C8.9627986 3.32466205 14.35216073 14.01132916 18.21875 22.2421875 C24.62115017 37.88468169 24.00110762 55.79578054 17.87890625 71.44140625 C14.12329138 79.5903819 9.38450363 87.19670741 2.28515625 92.84765625 C-0.76171875 93.84375 -0.76171875 93.84375 -3.71484375 93.84765625 C-5.9453125 92.51953125 -5.9453125 92.51953125 -7.90234375 90.59765625 C-8.55589844 89.97375 -9.20945313 89.34984375 -9.8828125 88.70703125 C-10.48738281 88.0934375 -11.09195313 87.47984375 -11.71484375 86.84765625 C-12.29492188 86.33074219 -12.875 85.81382812 -13.47265625 85.28125 C-14.08753906 84.57162109 -14.08753906 84.57162109 -14.71484375 83.84765625 C-14.40234375 81.16015625 -14.40234375 81.16015625 -13.71484375 78.84765625 C-13.05484375 78.84765625 -12.39484375 78.84765625 -11.71484375 78.84765625 C-11.44414062 78.27144531 -11.1734375 77.69523437 -10.89453125 77.1015625 C-9.70457265 74.82803232 -8.34006657 72.86448062 -6.83984375 70.78515625 C0.71229017 59.34589458 2.34014733 46.96453539 -0.375 33.59765625 C-2.81125948 26.17286545 -7.12803166 18.23886431 -13.71484375 13.84765625 C-14.2265625 11.52734375 -14.2265625 11.52734375 -13.71484375 8.84765625 C-11.484375 6.35546875 -11.484375 6.35546875 -8.52734375 3.97265625 C-7.56441406 3.17085938 -6.60148438 2.3690625 -5.609375 1.54296875 C-2.71484375 -0.15234375 -2.71484375 -0.15234375 0 0 Z " fill="#FC6703" transform="translate(158.71484375,67.15234375)"/>
<path d="M0 0 C5.02232137 3.46779333 8.43867492 7.05901295 10.625 12.8125 C10.625 15.1225 10.625 17.4325 10.625 19.8125 C-2.245 19.8125 -15.115 19.8125 -28.375 19.8125 C-27.41224241 11.14768167 -27.03671214 8.10804093 -20.875 2.5625 C-14.34071658 -2.0114984 -7.59921138 -2.6737966 0 0 Z " fill="#0353A3" transform="translate(98.375,83.1875)"/>
</svg>
