<?xml version="1.0" encoding="iso-8859-1"?>
<!-- Generator: Adobe Illustrator 28.5.0, SVG Export Plug-In . SVG Version: 9.03 Build 54727)  -->
<svg version="1.1" id="Capa_1" xmlns="http://www.w3.org/2000/svg" xmlns:xlink="http://www.w3.org/1999/xlink" x="0px" y="0px"
	 viewBox="0 -107.04 323.74 323.74" style="enable-background:new 0 0 323.74 109.66;" xml:space="preserve">
<rect x="0" y="-107.04" width="323.74" height="323.74" fill="#0382c5"/>
<g>
	<polygon style="fill-rule:evenodd;clip-rule:evenodd;fill:#0382C5;" points="57.08,57.34 54.76,74.16 62.04,74.16 62.08,58.93 
		57.08,57.34 	"/>
	<polygon style="fill-rule:evenodd;clip-rule:evenodd;fill:#0382C5;" points="116.54,31.5 144.22,31.5 144.22,38.65 127.66,38.64 
		127.66,49.74 141.27,49.74 141.27,55.99 127.73,55.99 127.73,66.95 145.54,66.95 145.54,74.45 116.54,74.45 116.54,31.5 	"/>
	<path style="fill-rule:evenodd;clip-rule:evenodd;fill:#0382C5;" d="M172.26,43.93v7.33c0,0-7.29-3.11-11.11-2.07
		c-1.91,0.3-4.93,2.59,0.37,4.15c2.5,0.89,13.48,4.06,13.25,11.48c-0.25,7.77-10.31,9.55-14.87,9.63
		c-4.56,0.07-12.76-1.57-12.73-1.56v-7.77c0,0,6.77,2.81,11.26,2.89c2,0.07,3.12-0.4,3.76-0.93c0.76-0.64,0.99-2.77-6.26-5.52
		c-10.08-3.52-8.68-10.37-8.68-10.37S148,42.55,161,42.45C167.77,42.45,172.26,43.93,172.26,43.93L172.26,43.93z"/>
	<path style="fill-rule:evenodd;clip-rule:evenodd;fill:#0382C5;" d="M202.66,32.95v8.03c0,0-8.91-3.35-12.96-1.94
		c-1.84,0.6-4.78,3.8,1.4,7.08c2.36,1.34,14.55,6.71,14.57,16.1c0.03,10.07-11.63,12.15-16.19,12.22
		c-4.56,0.15-12.87-1.26-12.87-1.26l-0.01-8.43c0,0,6.92,2.53,11.34,2.46c2.21-0.07,3.68-0.75,4.66-1.53
		c2.98-2.38,2.03-4.73-7.75-10.32c-14.2-7.77-9.64-23.82,5.67-23.85C198.75,31.71,202.66,32.95,202.66,32.95L202.66,32.95z"/>
	<path style="fill-rule:evenodd;clip-rule:evenodd;fill:#0382C5;" d="M224.27,65.11c0,0-1.66,1.99-3.65,2.21
		c-0.22,0-0.39,0.02-0.59,0c-2.21-0.07-2.94-1.62-3.02-2.87c0-1.1,0.59-3.02,3.61-3.53c0.15-0.03,0.32-0.04,0.51-0.07
		c2.72-0.22,3.14-0.07,3.14-0.07V65.11L224.27,65.11z M235.64,67.25c0,0-0.74-0.22-0.81-1.18c0-0.88,0.14-13.91-0.16-16.12
		c-0.59-2.58-2.13-7.07-13.68-7.29l-0.37,0c-8.98,0.3-11.41,2.14-11.41,2.14v7c0,0,4.79-2.8,9.79-2.65c0.59,0.07,1.1,0.07,1.62,0.15
		c3.46,0.59,3.75,2.58,3.68,5.37c-1.33-0.07-2.57-0.07-3.68-0.07c-3.09,0-14.28,1.91-13.99,10.97c0.29,8.98,9.79,8.91,9.79,8.91
		s1.98,0.15,4.11-0.66c1.32-0.51,2.83-1.57,3.72-2.9c1.77,3.61,6.45,3.56,6.45,3.56s5.67-0.04,6.77-0.7c0-1.03,0-6.51,0-6.51H235.64
		L235.64,67.25z"/>
	<polygon style="fill-rule:evenodd;clip-rule:evenodd;fill:#0382C5;" points="250.73,33.2 250.73,74.42 239.61,74.42 239.61,31.5 
		250.73,31.5 250.73,33.2 	"/>
	<path style="fill-rule:evenodd;clip-rule:evenodd;fill:#0382C5;" d="M254.48,44.07h11.12v20.48c0,0,0.29,2.06,2.28,2.06
		c1.99,0,5.3-2.87,5.23-5.45c0-2.5,0-17.09,0-17.09l10.97,0l-0.01,30.37l-11.13,0c0,0,0.97-4.01,0.6-5.62
		c-0.96,1.25-3.71,5.72-10.48,5.65c-6.77-0.15-8.58-5.58-8.58-7.42C254.48,66.54,254.48,44.08,254.48,44.07L254.48,44.07z"/>
	<path style="fill-rule:evenodd;clip-rule:evenodd;fill:#0382C5;" d="M307.48,62.64c0,0-1.4,3.9-4.71,4.05h-0.29
		c-2.58-0.07-4.49-2.87-4.42-7.8c0.15-4.71,1.77-8.32,4.71-8.61l0.37,0c3.17,0.07,4.35,2.65,4.35,2.65V62.64L307.48,62.64z
		 M307.47,31.5l0.01,15.16c0,0-0.96-1.69-4.71-2.65c-1.1-0.29-2.81-0.59-4.05-0.59c-7.8,0-12.51,7.36-12.51,16.19
		c0,8.91,3.96,14.85,11.76,14.85c5.66,0,10.02-5.73,10.02-5.73l-0.79,5.7h11.54V31.5H307.47L307.47,31.5z"/>
	<path style="fill:#0382C5;" d="M5,93.47l2.26-0.2c0.11,0.92,0.36,1.67,0.75,2.25c0.39,0.58,1,1.06,1.83,1.42
		c0.83,0.36,1.76,0.54,2.79,0.54c0.92,0,1.73-0.14,2.43-0.41c0.7-0.28,1.22-0.65,1.57-1.13c0.34-0.48,0.52-1,0.52-1.56
		c0-0.57-0.17-1.06-0.5-1.49c-0.33-0.42-0.88-0.78-1.64-1.07c-0.49-0.19-1.57-0.48-3.24-0.89c-1.67-0.4-2.84-0.78-3.51-1.14
		c-0.87-0.46-1.51-1.03-1.94-1.7c-0.43-0.67-0.64-1.43-0.64-2.27c0-0.92,0.26-1.78,0.78-2.58c0.52-0.8,1.28-1.41,2.28-1.82
		c1-0.42,2.11-0.62,3.34-0.62c1.35,0,2.54,0.22,3.57,0.65c1.03,0.43,1.82,1.07,2.38,1.92c0.56,0.84,0.85,1.8,0.89,2.87l-2.31,0.18
		c-0.12-1.15-0.54-2.02-1.26-2.6c-0.72-0.59-1.78-0.88-3.17-0.88c-1.46,0-2.52,0.27-3.19,0.8c-0.67,0.53-1,1.18-1,1.93
		c0,0.65,0.24,1.19,0.71,1.61c0.47,0.42,1.67,0.86,3.63,1.3c1.96,0.44,3.3,0.83,4.03,1.16c1.06,0.49,1.84,1.1,2.34,1.85
		c0.5,0.75,0.75,1.61,0.75,2.58c0,0.97-0.28,1.88-0.83,2.73c-0.56,0.86-1.35,1.52-2.39,2c-1.04,0.47-2.2,0.71-3.5,0.71
		c-1.64,0-3.02-0.24-4.13-0.72C7.5,98.43,6.63,97.71,6,96.74C5.36,95.78,5.03,94.69,5,93.47L5,93.47z M31.46,95.05l2.31,0.3
		c-0.36,1.34-1.03,2.39-2.02,3.13c-0.98,0.74-2.24,1.11-3.77,1.11c-1.92,0-3.45-0.59-4.58-1.78c-1.13-1.18-1.69-2.85-1.69-4.99
		c0-2.21,0.57-3.93,1.71-5.15c1.14-1.22,2.62-1.83,4.44-1.83c1.76,0,3.19,0.6,4.31,1.8c1.11,1.2,1.67,2.89,1.67,5.06
		c0,0.13,0,0.33-0.01,0.59h-9.83c0.08,1.45,0.49,2.56,1.23,3.32c0.73,0.77,1.65,1.15,2.75,1.15c0.82,0,1.52-0.22,2.09-0.65
		C30.67,96.69,31.13,96,31.46,95.05L31.46,95.05z M24.14,91.47h7.35c-0.1-1.11-0.38-1.94-0.84-2.5c-0.71-0.86-1.63-1.29-2.76-1.29
		c-1.03,0-1.89,0.34-2.58,1.03C24.6,89.4,24.22,90.31,24.14,91.47L24.14,91.47z M36.19,100.42l2.16,0.31
		c0.09,0.67,0.34,1.16,0.76,1.47c0.55,0.41,1.31,0.62,2.27,0.62c1.03,0,1.83-0.21,2.4-0.62c0.56-0.41,0.95-0.99,1.14-1.73
		c0.11-0.45,0.17-1.41,0.16-2.86c-0.98,1.15-2.19,1.73-3.65,1.73c-1.81,0-3.22-0.65-4.21-1.96c-1-1.31-1.49-2.87-1.49-4.7
		c0-1.26,0.23-2.42,0.68-3.48c0.45-1.06,1.11-1.88,1.98-2.46c0.86-0.58,1.88-0.87,3.05-0.87c1.56,0,2.84,0.64,3.85,1.91v-1.63h2.06
		v11.39c0,2.06-0.21,3.51-0.63,4.36c-0.42,0.86-1.08,1.53-1.98,2.03c-0.91,0.5-2.02,0.75-3.34,0.75c-1.57,0-2.84-0.35-3.8-1.06
		C36.63,102.9,36.16,101.83,36.19,100.42L36.19,100.42z M38.02,92.5c0,1.72,0.34,2.98,1.03,3.78c0.69,0.79,1.55,1.19,2.58,1.19
		c1.03,0,1.89-0.39,2.59-1.18c0.7-0.79,1.04-2.03,1.04-3.71c0-1.61-0.36-2.83-1.08-3.64c-0.72-0.82-1.58-1.22-2.59-1.22
		c-1,0-1.84,0.4-2.54,1.21C38.37,89.72,38.02,90.91,38.02,92.5L38.02,92.5z M59.36,99.32v-1.96c-1.03,1.5-2.42,2.24-4.17,2.24
		c-0.78,0-1.5-0.15-2.17-0.45c-0.67-0.3-1.17-0.67-1.5-1.12c-0.33-0.45-0.56-1-0.69-1.66c-0.09-0.44-0.14-1.14-0.14-2.08v-8.16h2.24
		v7.3c0,1.17,0.05,1.95,0.14,2.36c0.14,0.59,0.44,1.05,0.89,1.38c0.45,0.33,1.01,0.5,1.68,0.5c0.67,0,1.3-0.17,1.88-0.51
		c0.58-0.34,1-0.81,1.25-1.4c0.24-0.59,0.36-1.45,0.36-2.57v-7.05h2.24v13.19H59.36L59.36,99.32z M64.86,99.32V86.13h2.01v2.02
		c0.51-0.94,0.99-1.55,1.42-1.85c0.44-0.3,0.92-0.45,1.44-0.45c0.75,0,1.52,0.24,2.3,0.71l-0.8,2.06c-0.54-0.31-1.08-0.46-1.63-0.46
		c-0.49,0-0.92,0.15-1.31,0.44c-0.39,0.29-0.66,0.7-0.83,1.22c-0.25,0.79-0.37,1.66-0.37,2.61v6.89H64.86L64.86,99.32z M73.35,83.66
		v-2.54h2.24v2.54H73.35L73.35,83.66z M73.35,99.32V86.13h2.24v13.19H73.35L73.35,99.32z M87.51,99.32v-1.67
		c-0.83,1.3-2.06,1.95-3.69,1.95c-1.05,0-2.02-0.29-2.89-0.87c-0.88-0.58-1.56-1.39-2.05-2.42c-0.48-1.04-0.72-2.23-0.72-3.58
		c0-1.31,0.22-2.5,0.66-3.58c0.44-1.07,1.1-1.89,1.97-2.46c0.87-0.57,1.86-0.86,2.94-0.86c0.8,0,1.5,0.17,2.12,0.5
		c0.62,0.33,1.12,0.77,1.51,1.31v-6.55h2.24v18.2H87.51L87.51,99.32z M80.44,92.74c0,1.69,0.36,2.94,1.07,3.78
		c0.71,0.83,1.56,1.25,2.53,1.25c0.98,0,1.81-0.4,2.5-1.19c0.68-0.8,1.03-2.01,1.03-3.65c0-1.8-0.35-3.12-1.05-3.96
		c-0.7-0.84-1.56-1.26-2.58-1.26c-1,0-1.83,0.4-2.5,1.21C80.78,89.73,80.44,91,80.44,92.74L80.44,92.74z M101.75,97.67
		c-0.83,0.71-1.63,1.2-2.4,1.5c-0.77,0.29-1.59,0.44-2.47,0.44c-1.45,0-2.56-0.35-3.34-1.06c-0.78-0.7-1.17-1.61-1.17-2.7
		c0-0.64,0.15-1.23,0.44-1.77c0.3-0.53,0.68-0.96,1.16-1.28c0.48-0.32,1.01-0.57,1.61-0.73c0.44-0.11,1.11-0.22,1.99-0.33
		c1.8-0.21,3.14-0.47,3.99-0.77c0.01-0.3,0.01-0.5,0.01-0.58c0-0.91-0.21-1.55-0.64-1.92c-0.57-0.5-1.42-0.75-2.55-0.75
		c-1.06,0-1.83,0.19-2.33,0.56c-0.5,0.37-0.87,1.02-1.11,1.96l-2.19-0.3c0.2-0.94,0.53-1.69,0.98-2.27
		c0.46-0.58,1.12-1.02,1.98-1.33c0.86-0.31,1.86-0.47,3-0.47c1.13,0,2.05,0.13,2.75,0.4c0.7,0.27,1.22,0.6,1.56,1
		c0.33,0.4,0.56,0.91,0.7,1.53c0.07,0.38,0.11,1.07,0.11,2.05v2.97c0,2.07,0.05,3.38,0.14,3.94c0.09,0.56,0.28,1.08,0.55,1.59h-2.34
		C101.96,98.85,101.82,98.3,101.75,97.67L101.75,97.67z M101.57,92.71c-0.81,0.33-2.03,0.61-3.66,0.84
		c-0.92,0.13-1.58,0.28-1.96,0.44c-0.38,0.17-0.67,0.41-0.88,0.72c-0.21,0.32-0.31,0.67-0.31,1.06c0,0.59,0.22,1.08,0.68,1.48
		c0.45,0.39,1.11,0.59,1.98,0.59c0.86,0,1.63-0.19,2.3-0.56c0.67-0.37,1.17-0.89,1.48-1.53c0.24-0.5,0.36-1.25,0.36-2.22
		L101.57,92.71L101.57,92.71z M115.79,99.32v-1.67c-0.83,1.3-2.06,1.95-3.69,1.95c-1.05,0-2.02-0.29-2.89-0.87
		c-0.88-0.58-1.56-1.39-2.05-2.42c-0.48-1.04-0.72-2.23-0.72-3.58c0-1.31,0.22-2.5,0.66-3.58c0.44-1.07,1.1-1.89,1.97-2.46
		c0.87-0.57,1.86-0.86,2.94-0.86c0.8,0,1.5,0.17,2.12,0.5c0.62,0.33,1.12,0.77,1.51,1.31v-6.55h2.24v18.2H115.79L115.79,99.32z
		 M108.72,92.74c0,1.69,0.36,2.94,1.07,3.78c0.71,0.83,1.55,1.25,2.53,1.25c0.98,0,1.81-0.4,2.5-1.19c0.68-0.8,1.03-2.01,1.03-3.65
		c0-1.8-0.35-3.12-1.05-3.96c-0.7-0.84-1.56-1.26-2.58-1.26c-1,0-1.83,0.4-2.5,1.21C109.06,89.73,108.72,91,108.72,92.74
		L108.72,92.74z M127.59,95.38l2.21-0.36c0.12,0.89,0.47,1.56,1.04,2.04c0.57,0.47,1.36,0.71,2.38,0.71c1.03,0,1.79-0.21,2.29-0.63
		c0.5-0.42,0.75-0.91,0.75-1.47c0-0.5-0.22-0.9-0.67-1.19c-0.31-0.2-1.08-0.45-2.29-0.76c-1.64-0.41-2.77-0.77-3.4-1.07
		c-0.63-0.31-1.11-0.72-1.44-1.25c-0.33-0.53-0.49-1.12-0.49-1.76c0-0.59,0.14-1.13,0.4-1.63c0.27-0.5,0.64-0.92,1.1-1.25
		c0.35-0.25,0.82-0.47,1.42-0.65c0.6-0.18,1.24-0.27,1.93-0.27c1.03,0,1.94,0.15,2.72,0.45c0.78,0.3,1.36,0.7,1.73,1.21
		c0.37,0.51,0.63,1.19,0.77,2.05l-2.19,0.3c-0.1-0.69-0.39-1.22-0.86-1.61c-0.47-0.39-1.14-0.58-2.01-0.58
		c-1.02,0-1.75,0.17-2.19,0.51c-0.44,0.34-0.66,0.74-0.66,1.19c0,0.29,0.09,0.55,0.27,0.78c0.18,0.24,0.47,0.44,0.86,0.59
		c0.22,0.08,0.88,0.28,1.97,0.57c1.58,0.42,2.68,0.77,3.3,1.03c0.63,0.27,1.12,0.66,1.47,1.17c0.36,0.51,0.54,1.15,0.54,1.91
		c0,0.74-0.22,1.44-0.65,2.1c-0.44,0.66-1.06,1.17-1.88,1.53c-0.82,0.36-1.75,0.54-2.78,0.54c-1.71,0-3.02-0.36-3.92-1.06
		C128.41,97.83,127.84,96.78,127.59,95.38L127.59,95.38z M140.35,92.73c0-2.44,0.68-4.24,2.04-5.41c1.13-0.97,2.52-1.46,4.15-1.46
		c1.81,0,3.29,0.59,4.45,1.78c1.15,1.18,1.72,2.82,1.72,4.91c0,1.69-0.25,3.03-0.76,4c-0.51,0.97-1.25,1.72-2.22,2.26
		c-0.97,0.54-2.03,0.81-3.18,0.81c-1.85,0-3.34-0.59-4.48-1.77C140.92,96.65,140.35,94.95,140.35,92.73L140.35,92.73z M142.64,92.73
		c0,1.69,0.37,2.95,1.11,3.78c0.74,0.84,1.67,1.26,2.79,1.26c1.11,0,2.03-0.42,2.78-1.26c0.74-0.84,1.11-2.13,1.11-3.85
		c0-1.63-0.37-2.86-1.11-3.69c-0.74-0.84-1.67-1.26-2.77-1.26c-1.12,0-2.05,0.42-2.79,1.25C143,89.79,142.64,91.05,142.64,92.73
		L142.64,92.73z M163.94,94.49l2.19,0.3c-0.24,1.5-0.85,2.68-1.84,3.53c-0.99,0.85-2.2,1.28-3.64,1.28c-1.8,0-3.25-0.59-4.34-1.77
		c-1.1-1.18-1.64-2.86-1.64-5.06c0-1.42,0.24-2.67,0.71-3.73c0.47-1.06,1.19-1.86,2.15-2.39c0.96-0.53,2.01-0.8,3.14-0.8
		c1.43,0,2.6,0.36,3.51,1.08c0.91,0.72,1.5,1.75,1.75,3.08l-2.16,0.33c-0.21-0.89-0.57-1.55-1.1-2c-0.53-0.45-1.16-0.67-1.91-0.67
		c-1.13,0-2.04,0.4-2.75,1.21c-0.7,0.81-1.06,2.08-1.06,3.83c0,1.77,0.34,3.05,1.02,3.86c0.68,0.8,1.57,1.2,2.66,1.2
		c0.88,0,1.61-0.27,2.2-0.81C163.41,96.43,163.79,95.61,163.94,94.49L163.94,94.49z M168.04,83.66v-2.54h2.24v2.54H168.04
		L168.04,83.66z M168.04,99.32V86.13h2.24v13.19H168.04L168.04,99.32z M182.3,97.67c-0.83,0.71-1.63,1.2-2.4,1.5
		c-0.77,0.29-1.59,0.44-2.47,0.44c-1.45,0-2.56-0.35-3.34-1.06c-0.78-0.7-1.17-1.61-1.17-2.7c0-0.64,0.15-1.23,0.44-1.77
		c0.3-0.53,0.68-0.96,1.16-1.28c0.48-0.32,1.01-0.57,1.61-0.73c0.44-0.11,1.11-0.22,1.99-0.33c1.8-0.21,3.14-0.47,3.99-0.77
		c0.01-0.3,0.01-0.5,0.01-0.58c0-0.91-0.21-1.55-0.64-1.92c-0.57-0.5-1.42-0.75-2.55-0.75c-1.06,0-1.83,0.19-2.33,0.56
		c-0.5,0.37-0.87,1.02-1.11,1.96l-2.19-0.3c0.2-0.94,0.53-1.69,0.98-2.27c0.46-0.58,1.12-1.02,1.98-1.33c0.86-0.31,1.86-0.47,3-0.47
		c1.13,0,2.05,0.13,2.75,0.4c0.7,0.27,1.22,0.6,1.55,1c0.33,0.4,0.56,0.91,0.7,1.53c0.07,0.38,0.11,1.07,0.11,2.05v2.97
		c0,2.07,0.05,3.38,0.14,3.94c0.09,0.56,0.28,1.08,0.55,1.59h-2.34C182.51,98.85,182.37,98.3,182.3,97.67L182.3,97.67z
		 M182.13,92.71c-0.81,0.33-2.03,0.61-3.66,0.84c-0.92,0.13-1.58,0.28-1.96,0.44c-0.38,0.17-0.67,0.41-0.88,0.72
		c-0.21,0.32-0.31,0.67-0.31,1.06c0,0.59,0.22,1.08,0.68,1.48c0.45,0.39,1.11,0.59,1.98,0.59c0.86,0,1.63-0.19,2.3-0.56
		c0.67-0.37,1.17-0.89,1.48-1.53c0.24-0.5,0.36-1.25,0.36-2.22L182.13,92.71L182.13,92.71z M187.77,99.32v-18.2h2.24v18.2H187.77
		L187.77,99.32z M200.54,104.38V86.13h2.03v1.73c0.48-0.67,1.02-1.17,1.63-1.51c0.6-0.33,1.33-0.5,2.19-0.5
		c1.13,0,2.12,0.29,2.98,0.87c0.86,0.58,1.51,1.39,1.95,2.44c0.44,1.05,0.66,2.21,0.66,3.47c0,1.34-0.24,2.55-0.72,3.64
		c-0.48,1.08-1.19,1.9-2.11,2.48c-0.92,0.57-1.89,0.86-2.91,0.86c-0.75,0-1.42-0.16-2-0.47c-0.59-0.31-1.08-0.71-1.46-1.19v6.44
		H200.54L200.54,104.38z M202.57,92.81c0,1.69,0.34,2.94,1.03,3.75c0.69,0.81,1.52,1.22,2.49,1.22c0.99,0,1.84-0.42,2.54-1.26
		c0.71-0.84,1.06-2.14,1.06-3.89c0-1.68-0.34-2.93-1.03-3.77c-0.69-0.83-1.51-1.25-2.47-1.25c-0.95,0-1.79,0.45-2.52,1.33
		C202.93,89.82,202.57,91.11,202.57,92.81L202.57,92.81z M223.29,97.67c-0.83,0.71-1.63,1.2-2.4,1.5c-0.77,0.29-1.59,0.44-2.47,0.44
		c-1.45,0-2.56-0.35-3.34-1.06c-0.78-0.7-1.17-1.61-1.17-2.7c0-0.64,0.15-1.23,0.44-1.77c0.3-0.53,0.68-0.96,1.16-1.28
		c0.48-0.32,1.01-0.57,1.61-0.73c0.44-0.11,1.11-0.22,1.99-0.33c1.8-0.21,3.14-0.47,3.99-0.77c0.01-0.3,0.01-0.5,0.01-0.58
		c0-0.91-0.21-1.55-0.64-1.92c-0.57-0.5-1.42-0.75-2.55-0.75c-1.06,0-1.83,0.19-2.33,0.56c-0.5,0.37-0.87,1.02-1.11,1.96l-2.19-0.3
		c0.2-0.94,0.53-1.69,0.98-2.27c0.46-0.58,1.12-1.02,1.98-1.33c0.86-0.31,1.86-0.47,3-0.47c1.13,0,2.05,0.13,2.75,0.4
		c0.7,0.27,1.22,0.6,1.56,1c0.33,0.4,0.56,0.91,0.7,1.53c0.07,0.38,0.11,1.07,0.11,2.05v2.97c0,2.07,0.05,3.38,0.14,3.94
		c0.09,0.56,0.28,1.08,0.55,1.59h-2.34C223.5,98.85,223.36,98.3,223.29,97.67L223.29,97.67z M223.11,92.71
		c-0.81,0.33-2.03,0.61-3.66,0.84c-0.92,0.13-1.58,0.28-1.96,0.44c-0.38,0.17-0.67,0.41-0.88,0.72c-0.21,0.32-0.31,0.67-0.31,1.06
		c0,0.59,0.22,1.08,0.68,1.48c0.45,0.39,1.11,0.59,1.98,0.59c0.86,0,1.63-0.19,2.3-0.56c0.67-0.37,1.17-0.89,1.48-1.53
		c0.24-0.5,0.36-1.25,0.36-2.22L223.11,92.71L223.11,92.71z M228.79,99.32V86.13h2.01v2.02c0.51-0.94,0.99-1.55,1.42-1.85
		c0.44-0.3,0.92-0.45,1.44-0.45c0.75,0,1.52,0.24,2.3,0.71l-0.8,2.06c-0.54-0.31-1.08-0.46-1.63-0.46c-0.49,0-0.92,0.15-1.31,0.44
		c-0.39,0.29-0.66,0.7-0.83,1.22c-0.25,0.79-0.37,1.66-0.37,2.61v6.89H228.79L228.79,99.32z M245.9,97.67
		c-0.83,0.71-1.63,1.2-2.4,1.5c-0.77,0.29-1.59,0.44-2.47,0.44c-1.45,0-2.56-0.35-3.34-1.06c-0.78-0.7-1.17-1.61-1.17-2.7
		c0-0.64,0.15-1.23,0.44-1.77c0.3-0.53,0.68-0.96,1.16-1.28c0.48-0.32,1.01-0.57,1.61-0.73c0.44-0.11,1.11-0.22,1.99-0.33
		c1.8-0.21,3.14-0.47,3.99-0.77c0.01-0.3,0.01-0.5,0.01-0.58c0-0.91-0.21-1.55-0.64-1.92c-0.57-0.5-1.42-0.75-2.55-0.75
		c-1.06,0-1.83,0.19-2.33,0.56c-0.5,0.37-0.87,1.02-1.11,1.96l-2.19-0.3c0.2-0.94,0.53-1.69,0.98-2.27
		c0.46-0.58,1.12-1.02,1.98-1.33c0.86-0.31,1.86-0.47,3-0.47c1.13,0,2.05,0.13,2.75,0.4c0.7,0.27,1.22,0.6,1.55,1
		c0.33,0.4,0.56,0.91,0.7,1.53c0.07,0.38,0.11,1.07,0.11,2.05v2.97c0,2.07,0.05,3.38,0.14,3.94c0.09,0.56,0.28,1.08,0.55,1.59h-2.34
		C246.1,98.85,245.96,98.3,245.9,97.67L245.9,97.67z M245.72,92.71c-0.81,0.33-2.03,0.61-3.66,0.84c-0.92,0.13-1.58,0.28-1.96,0.44
		c-0.38,0.17-0.67,0.41-0.88,0.72c-0.21,0.32-0.31,0.67-0.31,1.06c0,0.59,0.22,1.08,0.68,1.48c0.45,0.39,1.11,0.59,1.98,0.59
		c0.86,0,1.63-0.19,2.3-0.56c0.67-0.37,1.17-0.89,1.48-1.53c0.24-0.5,0.36-1.25,0.36-2.22L245.72,92.71L245.72,92.71z M263.34,97.33
		l0.31,1.97c-0.63,0.13-1.19,0.2-1.68,0.2c-0.81,0-1.44-0.13-1.89-0.39c-0.45-0.26-0.76-0.59-0.94-1.01
		c-0.18-0.42-0.27-1.3-0.27-2.64v-7.6h-1.65v-1.73h1.65v-3.26l2.24-1.34v4.61h2.24v1.73h-2.24v7.73c0,0.64,0.04,1.05,0.12,1.23
		c0.08,0.18,0.2,0.33,0.38,0.44c0.18,0.11,0.43,0.16,0.76,0.16C262.61,97.42,262.93,97.39,263.34,97.33L263.34,97.33z M264.71,92.73
		c0-2.44,0.68-4.24,2.04-5.41c1.13-0.97,2.52-1.46,4.15-1.46c1.81,0,3.29,0.59,4.45,1.78c1.15,1.18,1.72,2.82,1.72,4.91
		c0,1.69-0.25,3.03-0.76,4c-0.51,0.97-1.25,1.72-2.22,2.26c-0.97,0.54-2.03,0.81-3.18,0.81c-1.85,0-3.34-0.59-4.48-1.77
		C265.27,96.65,264.71,94.95,264.71,92.73L264.71,92.73z M266.99,92.73c0,1.69,0.37,2.95,1.11,3.78c0.74,0.84,1.67,1.26,2.79,1.26
		c1.11,0,2.03-0.42,2.78-1.26c0.74-0.84,1.11-2.13,1.11-3.85c0-1.63-0.37-2.86-1.11-3.69c-0.74-0.84-1.67-1.26-2.77-1.26
		c-1.12,0-2.05,0.42-2.79,1.25C267.36,89.79,266.99,91.05,266.99,92.73L266.99,92.73z M288.2,99.32v-1.67
		c-0.83,1.3-2.06,1.95-3.69,1.95c-1.05,0-2.02-0.29-2.89-0.87c-0.88-0.58-1.56-1.39-2.05-2.42c-0.48-1.04-0.72-2.23-0.72-3.58
		c0-1.31,0.22-2.5,0.66-3.58c0.44-1.07,1.1-1.89,1.97-2.46c0.87-0.57,1.86-0.86,2.94-0.86c0.8,0,1.5,0.17,2.12,0.5
		c0.62,0.33,1.12,0.77,1.51,1.31v-6.55h2.24v18.2H288.2L288.2,99.32z M281.13,92.74c0,1.69,0.36,2.94,1.07,3.78
		c0.71,0.83,1.56,1.25,2.53,1.25c0.98,0,1.81-0.4,2.5-1.19c0.68-0.8,1.03-2.01,1.03-3.65c0-1.8-0.35-3.12-1.05-3.96
		c-0.7-0.84-1.56-1.26-2.58-1.26c-1,0-1.83,0.4-2.5,1.21C281.47,89.73,281.13,91,281.13,92.74L281.13,92.74z M292.98,92.73
		c0-2.44,0.68-4.24,2.04-5.41c1.13-0.97,2.52-1.46,4.15-1.46c1.81,0,3.29,0.59,4.44,1.78c1.15,1.18,1.72,2.82,1.72,4.91
		c0,1.69-0.25,3.03-0.76,4c-0.51,0.97-1.25,1.72-2.22,2.26c-0.97,0.54-2.03,0.81-3.18,0.81c-1.85,0-3.34-0.59-4.48-1.77
		C293.55,96.65,292.98,94.95,292.98,92.73L292.98,92.73z M295.27,92.73c0,1.69,0.37,2.95,1.11,3.78c0.74,0.84,1.67,1.26,2.79,1.26
		c1.11,0,2.03-0.42,2.78-1.26c0.74-0.84,1.11-2.13,1.11-3.85c0-1.63-0.37-2.86-1.11-3.69c-0.74-0.84-1.67-1.26-2.77-1.26
		c-1.12,0-2.05,0.42-2.79,1.25C295.64,89.79,295.27,91.05,295.27,92.73L295.27,92.73z M307.07,95.38l2.21-0.36
		c0.12,0.89,0.47,1.56,1.04,2.04c0.57,0.47,1.36,0.71,2.38,0.71c1.03,0,1.79-0.21,2.29-0.63c0.5-0.42,0.75-0.91,0.75-1.47
		c0-0.5-0.22-0.9-0.67-1.19c-0.31-0.2-1.08-0.45-2.29-0.76c-1.64-0.41-2.77-0.77-3.4-1.07c-0.63-0.31-1.11-0.72-1.44-1.25
		c-0.33-0.53-0.49-1.12-0.49-1.76c0-0.59,0.14-1.13,0.4-1.63c0.27-0.5,0.64-0.92,1.1-1.25c0.35-0.25,0.82-0.47,1.42-0.65
		c0.6-0.18,1.24-0.27,1.93-0.27c1.03,0,1.94,0.15,2.72,0.45c0.78,0.3,1.36,0.7,1.73,1.21c0.37,0.51,0.63,1.19,0.77,2.05l-2.19,0.3
		c-0.1-0.69-0.39-1.22-0.86-1.61c-0.47-0.39-1.14-0.58-2.01-0.58c-1.02,0-1.75,0.17-2.19,0.51c-0.44,0.34-0.66,0.74-0.66,1.19
		c0,0.29,0.09,0.55,0.27,0.78c0.18,0.24,0.47,0.44,0.86,0.59c0.22,0.08,0.88,0.28,1.97,0.57c1.58,0.42,2.68,0.77,3.3,1.03
		c0.63,0.27,1.12,0.66,1.47,1.17c0.36,0.51,0.54,1.15,0.54,1.91c0,0.74-0.22,1.44-0.65,2.1c-0.44,0.66-1.06,1.17-1.88,1.53
		c-0.82,0.36-1.75,0.54-2.78,0.54c-1.71,0-3.02-0.36-3.92-1.06C307.89,97.83,307.32,96.78,307.07,95.38L307.07,95.38z"/>
	<path style="fill-rule:evenodd;clip-rule:evenodd;fill:#0382C5;" d="M57.18,38.06l-0.06-0.04C57.17,38.08,57.19,38.1,57.18,38.06
		L57.18,38.06z"/>
	<polygon style="fill-rule:evenodd;clip-rule:evenodd;fill:#0382C5;" points="76.17,53.48 68.33,49.21 76.3,74.16 83.56,74.16 
		84.18,72.18 78.75,52.23 76.17,53.48 	"/>
	<path style="fill-rule:evenodd;clip-rule:evenodd;fill:#0382C5;" d="M73.55,17.14c1.9-1.15,3.17-3.22,3.17-5.6
		c0-3.61-2.93-6.54-6.54-6.54c-3.61,0-6.54,2.93-6.54,6.54c0,2.44,1.34,4.56,3.32,5.69l-21.59,14.5c0,0-8.73-6.7-11.52-8.86
		c1.37-0.53,2.79-1.48,3.89-3.04c-1.88-0.33-2.39-1.06-2.6-1.98c-0.5-1.97,0.35-6.68-5.56-7.25c-5.91,0.56-5.06,5.27-5.56,7.25
		c-0.22,0.92-0.72,1.65-2.6,1.98c1.1,1.56,2.5,2.5,3.87,3.03L6.06,37.2l3.17,5.15l12.43-9.46l-8.4,25.93l4.52-0.46l-4.57,15.81h7.09
		l4.25-16.49l5.72-0.52l6.01,17.01h7.34l-1.22-3.31l-2.04-0.22l1.19-2.09l-4.49-12.14l4.53-0.46l-6.04-24.07l6.98,4.58l2.76,1.8
		l6.56-3.9l9.12-5.81l-0.92,15.26c11.28-5.02,12.04,8.89,17.75,5.26l-0.76-3.87V29.16c2.75,1.97,6.88,4.89,9.69,6.87
		c0.21-2.43,1.82-4.5,4.11-5.33C85.52,26.51,78.87,21.39,73.55,17.14L73.55,17.14z"/>
	<path style="fill-rule:evenodd;clip-rule:evenodd;fill:#0382C5;" d="M29.5,10.59c0.02,0,0.05,0.01,0.07,0.01
		c0.02,0,0.05-0.01,0.07-0.01H29.5L29.5,10.59z"/>
	<path style="fill-rule:evenodd;clip-rule:evenodd;fill:#32B8E9;" d="M99.66,44.92l7.98-2.11l-2.18-6c-2.97,0.58-5.94,1.1-8.92,1.68
		c0.49-0.84,0.79-1.81,0.79-2.85c0-1.38-0.51-2.63-1.33-3.62c-0.06-0.08-0.13-0.15-0.19-0.23c-0.08-0.09-0.16-0.18-0.25-0.27
		c-0.47-0.48-1.04-0.88-1.72-1.15c-0.02-0.01-0.05-0.02-0.07-0.03c-0.23-0.09-0.47-0.17-0.73-0.23c-0.46-0.12-0.93-0.2-1.43-0.2
		c-0.52,0-1.02,0.09-1.5,0.22c-0.01,0-0.02,0-0.02,0c-0.03,0.01-0.06,0.02-0.09,0.03l0,0c-2.37,0.7-4.1,2.87-4.1,5.46
		c0,2.02,1.05,3.78,2.62,4.8l-13.2,8.38c-3.36-2.7-6.66-5.41-10.03-8.11c0,0,2.51-0.46,3.3-1.91c-0.92-0.26-1.5-0.93-1.25-2.18
		c0.4-1.51,0.66-6-3.83-6.33c-1.14-0.12-2,0.08-2.67,0.46c-1.97,1.12-2.2,3.85-2.34,4.88c-0.16,0.65-1.12,1.39-2.24,0.53
		c-0.11,0.54,0.63,1.63,0.86,1.88l0.06,0.04c0.01,0.03-0.01,0.02-0.06-0.04l-10.49-6.1l-3.65,4.8l12.12,7.98l-10.38,9.78l0.01,0
		l-0.15,0.14l4.43,1.88l-7.8,13.68l5.41,0.59l8.8-11.55l0.78,0.33l0.1-0.7l4.63,2l0.32,13.3h4.01l0.73-10.43l3.45,1.46l-1.78-14.53
		l8.64,3.83l10.29-5.21l-3.87,24.89h6.4l3.01-12.62l5.48-1.72l8.18,10.29l5.15-4.22L99.66,44.92L99.66,44.92z"/>
</g>
</svg>
