<?xml version="1.0" encoding="UTF-8"?>
<svg version="1.1" xmlns="http://www.w3.org/2000/svg" width="400" height="220">
<path d="M0 0 C132 0 264 0 400 0 C400 72.6 400 145.2 400 220 C268 220 136 220 0 220 C0 147.4 0 74.8 0 0 Z " fill="#EFEFEF" transform="translate(0,0)"/>
<path d="M0 0 C58.41 0 116.82 0 177 0 C174.75893257 2.24106743 173.79314289 2.46562778 170.7734375 3.1484375 C169.90460938 3.34953125 169.03578125 3.550625 168.140625 3.7578125 C167.22796875 3.96148437 166.3153125 4.16515625 165.375 4.375 C163.61170223 4.77743433 161.84868954 5.18111944 160.0859375 5.5859375 C159.12937256 5.80483643 158.17280762 6.02373535 157.18725586 6.24926758 C153.58246941 7.09834597 149.99246168 8.00162912 146.40234375 8.91015625 C136.94061358 11.29792305 127.42498457 13.43636856 117.90454102 15.57543945 C115.65854537 16.08078245 113.41318804 16.58887621 111.16796875 17.09765625 C110.45148163 17.25843658 109.73499451 17.41921692 108.99679565 17.58486938 C104.93689001 18.5088593 100.97165634 19.58842963 96.98828125 20.80859375 C91.99590779 22.19675158 88.03971761 22.04484613 83 21 C82.22527344 20.84708496 81.45054687 20.69416992 80.65234375 20.53662109 C77.92366868 19.96280934 75.21301662 19.33129709 72.5 18.6875 C71.43990723 18.43967773 70.37981445 18.19185547 69.28759766 17.93652344 C46.14772154 12.48259586 23.06017967 6.78106596 0 1 C0 0.67 0 0.34 0 0 Z " fill="#A52543" transform="translate(108,111)"/>
<path d="M0 0 C7.92 0 15.84 0 24 0 C24 1.65 24 3.3 24 5 C19.38 5 14.76 5 10 5 C10 10.28 10 15.56 10 21 C13.96 21 17.92 21 22 21 C22 22.32 22 23.64 22 25 C18.04 25 14.08 25 10 25 C10 30.94 10 36.88 10 43 C14.95 43 19.9 43 25 43 C25 44.65 25 46.3 25 48 C16.75 48 8.5 48 0 48 C0 32.16 0 16.32 0 0 Z " fill="#343F4B" transform="translate(99,51)"/>
<path d="M0 0 C3.17894604 1.64810112 5.2131523 3.96279167 7.375 6.8125 C8 9 8 9 8 17 C1.73 17 -4.54 17 -11 17 C-10.01 19.97 -9.02 22.94 -8 26 C-7.67 26.99 -7.34 27.98 -7 29 C-2.48382401 29.07654536 1.59085217 29.10228696 6 28 C6 29.32 6 30.64 6 32 C0.79829144 35.15908642 -5.1300782 34.70818708 -11 34 C-14.71640295 32.37232728 -16.54146945 29.64194277 -18.875 26.375 C-20.96246463 20.11260611 -21.09870422 13.65949479 -18.375 7.5625 C-14.13638826 0.3951253 -7.95128627 -1.51022807 0 0 Z " fill="#2D3842" transform="translate(210,65)"/>
<path d="M0 0 C2.64 0 5.28 0 8 0 C8.02505615 0.71655762 8.0501123 1.43311523 8.07592773 2.17138672 C8.19169751 5.40611514 8.31450969 8.64053841 8.4375 11.875 C8.47681641 13.00292969 8.51613281 14.13085938 8.55664062 15.29296875 C8.61948242 16.90751953 8.61948242 16.90751953 8.68359375 18.5546875 C8.72025146 19.54968262 8.75690918 20.54467773 8.79467773 21.56982422 C8.84959532 24.00779501 8.84959532 24.00779501 10 26 C11.98 26 13.96 26 16 26 C17.83315508 22.84825969 18.28752252 20.42435429 18.4140625 16.796875 C18.45273438 15.8171875 18.49140625 14.8375 18.53125 13.828125 C18.5621875 12.81234375 18.593125 11.7965625 18.625 10.75 C18.66367188 9.71875 18.70234375 8.6875 18.7421875 7.625 C18.83631674 5.0835106 18.92194979 2.54202567 19 0 C21.64 0 24.28 0 27 0 C27 10.89 27 21.78 27 33 C24.03 33 21.06 33 18 33 C18 32.34 18 31.68 18 31 C17.34 31.33 16.68 31.66 16 32 C12.34094745 33.21968418 8.78239709 34.02439921 5 33 C1.83025076 30.41190258 0.17216178 28.95173994 -0.56762695 24.86206055 C-0.54144287 23.71519775 -0.51525879 22.56833496 -0.48828125 21.38671875 C-0.47216797 20.13955078 -0.45605469 18.89238281 -0.43945312 17.60742188 C-0.39755859 16.31384766 -0.35566406 15.02027344 -0.3125 13.6875 C-0.28994141 12.37458984 -0.26738281 11.06167969 -0.24414062 9.70898438 C-0.18527725 6.4714987 -0.10308804 3.23633 0 0 Z " fill="#2B3644" transform="translate(129,66)"/>
<path d="M0 0 C3.34308675 0.94760029 4.33928783 2.76445407 6.21875 5.62890625 C6.67285156 8.7668457 6.67285156 8.7668457 6.609375 12.2421875 C6.59003906 14.11293945 6.59003906 14.11293945 6.5703125 16.02148438 C6.53679687 17.31505859 6.50328125 18.60863281 6.46875 19.94140625 C6.44167969 21.91077148 6.44167969 21.91077148 6.4140625 23.91992188 C6.36697786 27.15699113 6.30122042 30.39257678 6.21875 33.62890625 C3.57875 33.62890625 0.93875 33.62890625 -1.78125 33.62890625 C-1.80630615 32.91234863 -1.8313623 32.19579102 -1.85717773 31.45751953 C-1.97294751 28.22279111 -2.09575969 24.98836784 -2.21875 21.75390625 C-2.25806641 20.62597656 -2.29738281 19.49804688 -2.33789062 18.3359375 C-2.37978516 17.25957031 -2.42167969 16.18320313 -2.46484375 15.07421875 C-2.50150146 14.07922363 -2.53815918 13.08422852 -2.57592773 12.05908203 C-2.63084532 9.62111124 -2.63084532 9.62111124 -3.78125 7.62890625 C-6.19770782 7.46203177 -6.19770782 7.46203177 -8.78125 7.62890625 C-11.42116268 10.26881893 -11.08365797 11.60836921 -11.1953125 15.29296875 C-11.25332031 16.97519531 -11.25332031 16.97519531 -11.3125 18.69140625 C-11.35890625 20.45484375 -11.35890625 20.45484375 -11.40625 22.25390625 C-11.46425781 24.02894531 -11.46425781 24.02894531 -11.5234375 25.83984375 C-11.61793845 28.76937316 -11.70349558 31.69889222 -11.78125 34.62890625 C-14.42125 34.62890625 -17.06125 34.62890625 -19.78125 34.62890625 C-19.78125 23.73890625 -19.78125 12.84890625 -19.78125 1.62890625 C-17.14125 1.62890625 -14.50125 1.62890625 -11.78125 1.62890625 C-11.45125 2.61890625 -11.12125 3.60890625 -10.78125 4.62890625 C-10.0696875 3.63890625 -10.0696875 3.63890625 -9.34375 2.62890625 C-6.0892405 0.08880128 -4.01341943 0.11682899 0 0 Z " fill="#2F3946" transform="translate(285.78125,64.37109375)"/>
<path d="M0 0 C1.0725 0.103125 2.145 0.20625 3.25 0.3125 C3.58 1.3025 3.91 2.2925 4.25 3.3125 C5.57 2.9825 6.89 2.6525 8.25 2.3125 C8.25 4.9525 8.25 7.5925 8.25 10.3125 C8.58 10.3125 8.91 10.3125 9.25 10.3125 C9.33636719 10.869375 9.42273438 11.42625 9.51171875 12 C10.78606345 18.9212116 13.15271974 24.63377113 18.5625 29.3125 C19.119375 29.6425 19.67625 29.9725 20.25 30.3125 C19.92 30.9725 19.59 31.6325 19.25 32.3125 C18.198125 32.003125 18.198125 32.003125 17.125 31.6875 C14.21847242 31.09578341 14.21847242 31.09578341 11.4375 32.25 C7.47710225 33.57013258 4.40660871 33.45583133 0.25 33.3125 C-0.08 32.6525 -0.41 31.9925 -0.75 31.3125 C1.56 30.6525 3.87 29.9925 6.25 29.3125 C6.25 27.9925 6.25 26.6725 6.25 25.3125 C5.59 25.6425 4.93 25.9725 4.25 26.3125 C0.37015747 26.56553321 -2.52364205 26.61704139 -5.75 24.3125 C-8.19769604 20.67617459 -8.08245218 17.16807524 -8.125 12.875 C-8.15335938 11.57691406 -8.18171875 10.27882813 -8.2109375 8.94140625 C-7.495746 3.31078843 -5.7913539 0.48261282 0 0 Z " fill="#F4F6F6" transform="translate(179.75,68.6875)"/>
<path d="M0 0 C1.26293855 2.5258771 1.19181172 4.40945736 1.28125 7.234375 C1.31863281 8.28367187 1.35601562 9.33296875 1.39453125 10.4140625 C1.44673828 12.06535156 1.44673828 12.06535156 1.5 13.75 C1.56931422 15.91157686 1.64212583 18.07304492 1.71875 20.234375 C1.74904297 21.19569336 1.77933594 22.15701172 1.81054688 23.14746094 C2.00991927 26.14935151 2.45941542 29.04210502 3 32 C2.34 32 1.68 32 1 32 C2.32 33.32 3.64 34.64 5 36 C4.34 37.32 3.68 38.64 3 40 C0.03 40 -2.94 40 -6 40 C-5.505 39.29875 -5.01 38.5975 -4.5 37.875 C-2.53743399 34.65387856 -2.53743399 34.65387856 -3 29 C-7.95 29 -12.9 29 -18 29 C-18 23.06 -18 17.12 -18 11 C-14.04 11 -10.08 11 -6 11 C-6.268125 9.9275 -6.53625 8.855 -6.8125 7.75 C-6.874375 6.5125 -6.93625 5.275 -7 4 C-3.20512821 0 -3.20512821 0 0 0 Z M1 36 C0.67 36.66 0.34 37.32 0 38 C0.66 38 1.32 38 2 38 C1.67 37.34 1.34 36.68 1 36 Z " fill="#EFF1F3" transform="translate(127,65)"/>
<path d="M0 0 C58.41 0 116.82 0 177 0 C174.29392339 2.70607661 172.19213278 2.63934834 168.4375 3.1875 C167.26058594 3.36667969 166.08367187 3.54585938 164.87109375 3.73046875 C163.44990234 3.86388672 163.44990234 3.86388672 162 4 C161.67 3.67 161.34 3.34 161 3 C159.30672943 2.90162959 157.60933345 2.87367985 155.91320801 2.87301636 C154.81102432 2.87019653 153.70884064 2.86737671 152.57325745 2.86447144 C150.74358681 2.86750778 150.74358681 2.86750778 148.87695312 2.87060547 C147.60069565 2.86885315 146.32443817 2.86710083 145.00950623 2.86529541 C141.49927008 2.86072151 137.9890632 2.86251045 134.47882652 2.8656745 C130.81307265 2.86819832 127.14732135 2.8658605 123.48156738 2.86428833 C117.32445829 2.8624667 111.16736118 2.86487277 105.01025391 2.86962891 C97.88194395 2.87507152 90.7536626 2.87330885 83.62535334 2.8678025 C77.51581149 2.86327118 71.40627827 2.86262091 65.29673529 2.86524117 C61.64309565 2.86680384 57.98946947 2.86699798 54.33583069 2.86370468 C50.26488539 2.86029185 46.19398975 2.86501601 42.12304688 2.87060547 C40.90326645 2.86858124 39.68348602 2.86655701 38.42674255 2.86447144 C37.32455887 2.86729126 36.22237518 2.87011108 35.08679199 2.87301636 C33.64106434 2.8735819 33.64106434 2.8735819 32.16613007 2.87415886 C30.02040579 2.75795875 30.02040579 2.75795875 29 4 C29.66 4.66 30.32 5.32 31 6 C24.46920426 7.50710671 19.1261475 6.24748748 12.6875 4.6875 C11.68654297 4.46126953 10.68558594 4.23503906 9.65429688 4.00195312 C2.27235588 2.27235588 2.27235588 2.27235588 0 0 Z " fill="#A65F70" transform="translate(108,111)"/>
<path d="M0 0 C2.97 0 5.94 0 9 0 C9.33 1.65 9.66 3.3 10 5 C10.556875 4.175 11.11375 3.35 11.6875 2.5 C14 0 14 0 16.75 -0.3125 C17.86375 -0.1578125 17.86375 -0.1578125 19 0 C19 2.97 19 5.94 19 9 C17.88625 9.12375 16.7725 9.2475 15.625 9.375 C11.96896323 9.6465813 11.96896323 9.6465813 10 12 C9.62948007 14.3245339 9.62948007 14.3245339 9.5859375 17.0078125 C9.52792969 18.48701172 9.52792969 18.48701172 9.46875 19.99609375 C9.42234375 21.54490234 9.42234375 21.54490234 9.375 23.125 C9.31699219 24.68541016 9.31699219 24.68541016 9.2578125 26.27734375 C9.16335234 28.85138311 9.07778786 31.42541155 9 34 C6.03 34 3.06 34 0 34 C0 22.78 0 11.56 0 0 Z " fill="#3D4855" transform="translate(224,65)"/>
<path d="M0 0 C0.85464844 -0.01417969 1.70929688 -0.02835937 2.58984375 -0.04296875 C5.20159303 0.20046444 6.81750652 0.8696732 9.0625 2.1875 C8.4025 3.5075 7.7425 4.8275 7.0625 6.1875 C6.4025 5.8575 5.7425 5.5275 5.0625 5.1875 C1.60449641 4.77076793 1.60449641 4.77076793 -1.9375 5.1875 C-4.61799206 7.62263809 -4.92774149 9.08247989 -5.265625 12.71875 C-5.22695312 14.68328125 -5.22695312 14.68328125 -5.1875 16.6875 C-5.17203125 17.9971875 -5.1565625 19.306875 -5.140625 20.65625 C-4.98418972 23.37581715 -4.75193136 25.61284603 -3.9375 28.1875 C-2.31262529 28.35538373 -0.68759558 28.52176787 0.9375 28.6875 C2.29488281 28.82671875 2.29488281 28.82671875 3.6796875 28.96875 C5.99563211 29.21797295 5.99563211 29.21797295 8.0625 29.1875 C8.0625 30.5075 8.0625 31.8275 8.0625 33.1875 C3.87392223 35.28178889 -1.37609126 34.60543012 -5.9375 34.1875 C-10.33430064 32.22464257 -13.01659986 29.64088981 -15.24609375 25.3125 C-17.03097062 19.82677673 -16.64182162 14.18925618 -14.75 8.8125 C-10.60698343 2.81226911 -7.32739187 0.05509317 0 0 Z " fill="#37404B" transform="translate(177.9375,64.8125)"/>
<path d="M0 0 C9 0 9 0 12 2 C11.35279552 5.49490421 9.88736706 8.01166882 8 11 C6.46733418 14.06533164 6.89723529 17.26754272 6.9375 20.625 C6.94201172 21.33140625 6.94652344 22.0378125 6.95117188 22.765625 C6.96296125 24.51045275 6.98089676 26.255237 7 28 C6.34 28.33 5.68 28.66 5 29 C4.87625 29.969375 4.7525 30.93875 4.625 31.9375 C4.41875 32.948125 4.2125 33.95875 4 35 C2.0625 36.1875 2.0625 36.1875 0 37 C-0.66 37.99 -1.32 38.98 -2 40 C-2 39.34 -2 38.68 -2 38 C-2.66 38 -3.32 38 -4 38 C-4.33 38.66 -4.66 39.32 -5 40 C-6.32 39.67 -7.64 39.34 -9 39 C-9 38.34 -9 37.68 -9 37 C-10.32 37.66 -11.64 38.32 -13 39 C-13.99 38.34 -14.98 37.68 -16 37 C-16 37.66 -16 38.32 -16 39 C-16.99 39.495 -16.99 39.495 -18 40 C-17.67 40.66 -17.34 41.32 -17 42 C-18.98 42 -20.96 42 -23 42 C-24 39 -24 39 -23 36 C-19.04 36 -15.08 36 -11 36 C-11 35.01 -11 34.02 -11 33 C-10.34 33 -9.68 33 -9 33 C-9 33.66 -9 34.32 -9 35 C-6.03 35 -3.06 35 0 35 C0 23.45 0 11.9 0 0 Z " fill="#F5F6F8" transform="translate(156,64)"/>
<path d="M0 0 C2.97 0 5.94 0 9 0 C9 11.22 9 22.44 9 34 C6.03 34 3.06 34 0 34 C0 22.78 0 11.56 0 0 Z " fill="#3B4450" transform="translate(248,65)"/>
<path d="M0 0 C3.19057334 1.62122629 5.21621057 3.96682303 7.375 6.8125 C8 9 8 9 8 17 C1.73 17 -4.54 17 -11 17 C-11 16.67 -11 16.34 -11 16 C-8.36 16 -5.72 16 -3 16 C-3 15.34 -3 14.68 -3 14 C-5.64 14 -8.28 14 -11 14 C-10.67 11.36 -10.34 8.72 -10 6 C-12.97 5.505 -12.97 5.505 -16 5 C-10.95940299 -0.20861691 -7.19888827 -0.99371157 0 0 Z " fill="#2F3944" transform="translate(210,65)"/>
<path d="M0 0 C1.65 0.33 3.3 0.66 5 1 C5.33 12.55 5.66 24.1 6 36 C4.68 35.67 3.36 35.34 2 35 C0.35405861 36.39588754 0.35405861 36.39588754 -1 38 C-1.66 38 -2.32 38 -3 38 C-2.90658639 32.90933774 -2.80052089 27.81915796 -2.68261719 22.72900391 C-2.64428659 20.99665593 -2.60944094 19.26422726 -2.578125 17.53173828 C-2.53256235 15.04430251 -2.47455497 12.55742434 -2.4140625 10.0703125 C-2.40251129 9.29317902 -2.39096008 8.51604553 -2.37905884 7.71536255 C-2.22774341 2.22774341 -2.22774341 2.22774341 0 0 Z " fill="#F7F8F8" transform="translate(260,64)"/>
<path d="M0 0 C3 0 3 0 5.1875 2 C5.785625 2.66 6.38375 3.32 7 4 C7.33 3.34 7.66 2.68 8 2 C8.05785647 5.95827235 8.09354717 9.9164367 8.125 13.875 C8.14175781 15.00292969 8.15851563 16.13085938 8.17578125 17.29296875 C8.18222656 18.36933594 8.18867188 19.44570312 8.1953125 20.5546875 C8.20578613 21.54968262 8.21625977 22.54467773 8.22705078 23.56982422 C8 26 8 26 6 28 C2.9375 28.1875 2.9375 28.1875 0 28 C-1.77449594 26.22550406 -1.13030072 23.64982739 -1.1328125 21.25 C-1.13410156 20.0846875 -1.13539063 18.919375 -1.13671875 17.71875 C-1.13285156 16.4915625 -1.12898437 15.264375 -1.125 14 C-1.12886719 12.7728125 -1.13273438 11.545625 -1.13671875 10.28125 C-1.13542969 9.1159375 -1.13414062 7.950625 -1.1328125 6.75 C-1.13168457 5.67234375 -1.13055664 4.5946875 -1.12939453 3.484375 C-1 1 -1 1 0 0 Z " fill="#F5F6F7" transform="translate(139,65)"/>
<path d="M0 0 C2.31 0 4.62 0 7 0 C7 10.56 7 21.12 7 32 C4.69 32 2.38 32 0 32 C0.50603992 29.83125748 0.99983813 28.00032373 2 26 C1.01 26.33 0.02 26.66 -1 27 C-0.67 18.09 -0.34 9.18 0 0 Z " fill="#2A3442" transform="translate(148,66)"/>
<path d="M0 0 C6.6 0 13.2 0 20 0 C20 0.99 20 1.98 20 3 C19.44763672 3.13051758 18.89527344 3.26103516 18.32617188 3.39550781 C15.71719933 4.01262601 13.10860175 4.63131637 10.5 5.25 C9.19869141 5.55744141 9.19869141 5.55744141 7.87109375 5.87109375 C-2.51298485 8.3363786 -12.87407965 10.89622266 -23.19039917 13.63168335 C-25.91968794 14.35406707 -28.65190784 15.06496901 -31.38452148 15.7746582 C-32.76710623 16.13686943 -34.1482829 16.50449356 -35.52807617 16.87719727 C-43.29516519 18.96955965 -49.98568909 20.63625514 -58 19 C-59.175625 18.814375 -60.35125 18.62875 -61.5625 18.4375 C-62.366875 18.293125 -63.17125 18.14875 -64 18 C-64 17.67 -64 17.34 -64 17 C-63.02160156 17.04640625 -62.04320312 17.0928125 -61.03515625 17.140625 C-59.72417969 17.17671875 -58.41320312 17.2128125 -57.0625 17.25 C-55.13083984 17.31960937 -55.13083984 17.31960937 -53.16015625 17.390625 C-49.92228961 17.28201812 -47.67849514 16.53554993 -44.7734375 15.12109375 C-39.23395277 12.44136875 -33.61260587 11.67472194 -27.5625 10.8125 C-26.49451172 10.64814453 -25.42652344 10.48378906 -24.32617188 10.31445312 C-17.89996894 9.34483057 -11.4732056 8.57481269 -5 8 C-4.67 7.01 -4.34 6.02 -4 5 C-3.30132812 4.95101562 -2.60265625 4.90203125 -1.8828125 4.8515625 C-0.97273438 4.77679688 -0.06265625 4.70203125 0.875 4.625 C2.23238281 4.52058594 2.23238281 4.52058594 3.6171875 4.4140625 C6.17941903 4.20431868 6.17941903 4.20431868 8 2 C5.36 1.67 2.72 1.34 0 1 C0 0.67 0 0.34 0 0 Z " fill="#9C3D54" transform="translate(249,113)"/>
<path d="M0 0 C2.475 0.99 2.475 0.99 5 2 C5 10.25 5 18.5 5 27 C2.69 27 0.38 27 -2 27 C-2.05797565 23.06256167 -2.09358789 19.12523281 -2.125 15.1875 C-2.14175781 14.06794922 -2.15851563 12.94839844 -2.17578125 11.79492188 C-2.18222656 10.72177734 -2.18867188 9.64863281 -2.1953125 8.54296875 C-2.20578613 7.55321045 -2.21625977 6.56345215 -2.22705078 5.54370117 C-2 3 -2 3 0 0 Z " fill="#293443" transform="translate(287,71)"/>
<path d="M0 0 C0.33 0 0.66 0 1 0 C1.02505615 0.71655762 1.0501123 1.43311523 1.07592773 2.17138672 C1.19169751 5.40611514 1.31450969 8.64053841 1.4375 11.875 C1.47681641 13.00292969 1.51613281 14.13085938 1.55664062 15.29296875 C1.59853516 16.36933594 1.64042969 17.44570312 1.68359375 18.5546875 C1.72025146 19.54968262 1.75690918 20.54467773 1.79467773 21.56982422 C1.84959532 24.00779501 1.84959532 24.00779501 3 26 C3.928125 26 4.85625 26 5.8125 26 C8.54166667 26 11.27083333 26 14 26 C14.33 26.99 14.66 27.98 15 29 C14.34 29 13.68 29 13 29 C12.67 29.99 12.34 30.98 12 32 C14.31 32 16.62 32 19 32 C19 21.44 19 10.88 19 0 C19.33 0 19.66 0 20 0 C20 10.89 20 21.78 20 33 C17.03 33 14.06 33 11 33 C11 32.34 11 31.68 11 31 C10.34 31.33 9.68 31.66 9 32 C4.97014368 33.34328544 2.25578945 33.40531328 -2 33 C-4.5 31 -4.5 31 -6 29 C-5.02727325 27.64664105 -4.0260734 26.31337396 -3 25 C-2.67 25 -2.34 25 -2 25 C-2 24.01 -2 23.02 -2 22 C-1.67 22 -1.34 22 -1 22 C-0.67 14.74 -0.34 7.48 0 0 Z " fill="#444D58" transform="translate(136,66)"/>
<path d="M0 0 C2.12890625 0.4609375 2.12890625 0.4609375 4.69140625 2.7734375 C6.12890625 5.4609375 6.12890625 5.4609375 6.12890625 8.4609375 C3.65390625 7.9659375 3.65390625 7.9659375 1.12890625 7.4609375 C-0.15715036 10.03305072 -0.08153316 12.03000716 -0.1875 14.90625 C-0.22939453 15.98261719 -0.27128906 17.05898437 -0.31445312 18.16796875 C-0.37342773 19.85986328 -0.37342773 19.85986328 -0.43359375 21.5859375 C-0.47677734 22.72160156 -0.51996094 23.85726562 -0.56445312 25.02734375 C-0.67075415 27.83841518 -0.7727878 30.64957695 -0.87109375 33.4609375 C-1.20109375 33.4609375 -1.53109375 33.4609375 -1.87109375 33.4609375 C-1.8961499 32.74437988 -1.92120605 32.02782227 -1.94702148 31.28955078 C-2.06279126 28.05482236 -2.18560344 24.82039909 -2.30859375 21.5859375 C-2.34791016 20.45800781 -2.38722656 19.33007812 -2.42773438 18.16796875 C-2.49057617 16.55341797 -2.49057617 16.55341797 -2.5546875 14.90625 C-2.59134521 13.91125488 -2.62800293 12.91625977 -2.66577148 11.89111328 C-2.72068907 9.45314249 -2.72068907 9.45314249 -3.87109375 7.4609375 C-4.63421875 7.4609375 -5.39734375 7.4609375 -6.18359375 7.4609375 C-8.07942708 7.4609375 -9.97526042 7.4609375 -11.87109375 7.4609375 C-12.53109375 6.8009375 -13.19109375 6.1409375 -13.87109375 5.4609375 C-13.21109375 4.1409375 -12.55109375 2.8209375 -11.87109375 1.4609375 C-11.54109375 2.4509375 -11.21109375 3.4409375 -10.87109375 4.4609375 C-10.39671875 3.8009375 -9.92234375 3.1409375 -9.43359375 2.4609375 C-6.16566493 -0.08964109 -4.05903674 -0.17386319 0 0 Z " fill="#404854" transform="translate(285.87109375,64.5390625)"/>
<path d="M0 0 C4 4.75 4 4.75 4 7 C8.51617599 7.07654536 12.59085217 7.10228696 17 6 C17 7.32 17 8.64 17 10 C11.80723162 13.15365689 5.8602642 12.72707993 0 12 C-2.86217982 10.64696954 -3.91438241 9.49115434 -6 7 C-6.33 6.01 -6.66 5.02 -7 4 C-5.68 4 -4.36 4 -3 4 C-2.67 3.34 -2.34 2.68 -2 2 C-1.34 2 -0.68 2 0 2 C0 1.34 0 0.68 0 0 Z " fill="#39424B" transform="translate(199,87)"/>
<path d="M0 0 C0.33 0 0.66 0 1 0 C1 5.61 1 11.22 1 17 C0.01 17 -0.98 17 -2 17 C-2.33 17.66 -2.66 18.32 -3 19 C-6 18 -6 18 -7.1796875 16.296875 C-8.1819244 13.49061169 -8.19578721 11.22306264 -8.125 8.25 C-8.09792969 6.77273437 -8.09792969 6.77273437 -8.0703125 5.265625 C-8.04710937 4.51796875 -8.02390625 3.7703125 -8 3 C-7.01 3.33 -6.02 3.66 -5 4 C-4.01 3.01 -3.02 2.02 -2 1 C-1.67 1.33 -1.34 1.66 -1 2 C-0.67 1.34 -0.34 0.68 0 0 Z " fill="#313B4A" transform="translate(170,74)"/>
<path d="M0 0 C2.31 0 4.62 0 7 0 C7 0.66 7 1.32 7 2 C5.35 2 3.7 2 2 2 C2 2.66 2 3.32 2 4 C4.31 4 6.62 4 9 4 C9 2.68 9 1.36 9 0 C12.375 -0.125 12.375 -0.125 16 0 C16.66 0.66 17.32 1.32 18 2 C17.625 4.125 17.625 4.125 17 6 C15.35 6.33 13.7 6.66 12 7 C12 7.99 12 8.98 12 10 C11.01 10 10.02 10 9 10 C9 8.35 9 6.7 9 5 C6.69 5.33 4.38 5.66 2 6 C2 6.66 2 7.32 2 8 C3.65 8 5.3 8 7 8 C7 8.66 7 9.32 7 10 C4.69 10 2.38 10 0 10 C0 6.7 0 3.4 0 0 Z " fill="#8C8C8C" transform="translate(202,164)"/>
<path d="M0 0 C1.64481759 0.12813758 3.29270766 0.22094154 4.94140625 0.28125 C6.31135742 0.33732422 6.31135742 0.33732422 7.70898438 0.39453125 C9.61522905 0.46498793 11.52147908 0.53529984 13.42773438 0.60546875 C14.33974609 0.64285156 15.25175781 0.68023437 16.19140625 0.71875 C17.01842041 0.74904297 17.84543457 0.77933594 18.69750977 0.81054688 C20.90211589 0.99194592 22.87589093 1.39703498 25 2 C25 2.66 25 3.32 25 4 C12.46 4 -0.08 4 -13 4 C-10.46489757 -1.07020486 -4.84056283 -1.12739899 0 0 Z " fill="#FEEAF0" transform="translate(119,107)"/>
<path d="M0 0 C2.625 -0.1875 2.625 -0.1875 5 0 C7.34552782 4.20240402 8 6.01112101 8 11 C4.37 11 0.74 11 -3 11 C-2.25 3.375 -2.25 3.375 0 0 Z " fill="#E1E4EA" transform="translate(202,68)"/>
<path d="M0 0 C0.33 0.66 0.66 1.32 1 2 C2.32 1.67 3.64 1.34 5 1 C5.05386629 3.12472576 5.09273071 5.24983652 5.125 7.375 C5.14820313 8.55835937 5.17140625 9.74171875 5.1953125 10.9609375 C5 14 5 14 3 16 C0.875 16.625 0.875 16.625 -1 17 C-1.06058594 16.34773438 -1.12117187 15.69546875 -1.18359375 15.0234375 C-1.63519991 10.31283783 -2.14195039 5.65798362 -3 1 C-2.01 0.67 -1.02 0.34 0 0 Z " fill="#F8F8FA" transform="translate(219,67)"/>
<path d="M0 0 C6.6 0 13.2 0 20 0 C20 0.99 20 1.98 20 3 C16.58511508 3.84075218 13.16782787 4.67129993 9.75 5.5 C8.29787109 5.85771484 8.29787109 5.85771484 6.81640625 6.22265625 C5.88183594 6.44824219 4.94726562 6.67382812 3.984375 6.90625 C3.12553711 7.11572266 2.26669922 7.32519531 1.38183594 7.54101562 C-1 8 -1 8 -5 8 C-4.67 7.01 -4.34 6.02 -4 5 C-2.95199219 4.92652344 -2.95199219 4.92652344 -1.8828125 4.8515625 C-0.97273437 4.77679688 -0.06265625 4.70203125 0.875 4.625 C2.23238281 4.52058594 2.23238281 4.52058594 3.6171875 4.4140625 C6.17941903 4.20431868 6.17941903 4.20431868 8 2 C5.36 1.67 2.72 1.34 0 1 C0 0.67 0 0.34 0 0 Z " fill="#9D334D" transform="translate(249,113)"/>
<path d="M0 0 C2.97 0 5.94 0 9 0 C9 2.97 9 5.94 9 9 C6.03 9 3.06 9 0 9 C0 6.03 0 3.06 0 0 Z " fill="#454B56" transform="translate(248,51)"/>
<path d="M0 0 C2.4375 0.875 2.4375 0.875 4.4375 3.875 C3.89695946 8.41554054 3.89695946 8.41554054 2.4375 9.875 C-0.5 10.0625 -0.5 10.0625 -3.5625 9.875 C-5.5625 7.875 -5.5625 7.875 -5.875 5.4375 C-5.5625 2.875 -5.5625 2.875 -4.375 1 C-2.5625 -0.125 -2.5625 -0.125 0 0 Z " fill="#9EA2A8" transform="translate(296.5625,51.125)"/>
<path d="M0 0 C6.93 0.495 6.93 0.495 14 1 C14 2.32 14 3.64 14 5 C10.04 5 6.08 5 2 5 C2 10.94 2 16.88 2 23 C1.67 23 1.34 23 1 23 C0.67 15.41 0.34 7.82 0 0 Z " fill="#3A424D" transform="translate(107,71)"/>
<path d="M0 0 C2.31243792 -0.02685412 4.6249627 -0.04632841 6.9375 -0.0625 C8.22527344 -0.07410156 9.51304688 -0.08570312 10.83984375 -0.09765625 C14 0 14 0 15 1 C16.85287502 1.07226502 18.70833878 1.0838122 20.5625 1.0625 C21.57441406 1.05347656 22.58632812 1.04445313 23.62890625 1.03515625 C24.41136719 1.02355469 25.19382813 1.01195313 26 1 C25.67 1.66 25.34 2.32 25 3 C25.66 3.66 26.32 4.32 27 5 C20.64677275 6.45540322 15.77393711 5.27522888 9.5625 3.5625 C8.17901367 3.19801758 8.17901367 3.19801758 6.76757812 2.82617188 C4.50830391 2.22916159 2.25298382 1.6202482 0 1 C0 0.67 0 0.34 0 0 Z " fill="#95374D" transform="translate(112,112)"/>
<path d="M0 0 C0.8353125 0.2784375 0.8353125 0.2784375 1.6875 0.5625 C4.39820835 1.07533672 6.32383562 0.56340303 9 0 C9.66 0.33 10.32 0.66 11 1 C11 3.64 11 6.28 11 9 C10.34 9 9.68 9 9 9 C9 7.02 9 5.04 9 3 C8.01 3 7.02 3 6 3 C6 5.64 6 8.28 6 11 C4.68 11 3.36 11 2 11 C2 8.36 2 5.72 2 3 C0.68 2.67 -0.64 2.34 -2 2 C-1.34 2 -0.68 2 0 2 C0 1.34 0 0.68 0 0 Z " fill="#F3F3F3" transform="translate(150,161)"/>
<path d="M0 0 C6.875 0.875 6.875 0.875 8 2 C8.04092937 4.33297433 8.04241723 6.66705225 8 9 C7.34 9 6.68 9 6 9 C5.67 9.99 5.34 10.98 5 12 C3.68 11.34 2.36 10.68 1 10 C1.33 8.35 1.66 6.7 2 5 C1.34 5 0.68 5 0 5 C0 3.35 0 1.7 0 0 Z " fill="#283541" transform="translate(191,80)"/>
<path d="M0 0 C0.99 0.66 1.98 1.32 3 2 C2.67 3.32 2.34 4.64 2 6 C1.01 6 0.02 6 -1 6 C-1.33 6.66 -1.66 7.32 -2 8 C-3.32 7.67 -4.64 7.34 -6 7 C-6.33 7.66 -6.66 8.32 -7 9 C-7.99 9 -8.98 9 -10 9 C-11.6875 7 -11.6875 7 -13 5 C-12.34 4.67 -11.68 4.34 -11 4 C-11 3.34 -11 2.68 -11 2 C-11.66 1.67 -12.32 1.34 -13 1 C-12.01 1 -11.02 1 -10 1 C-10 1.66 -10 2.32 -10 3 C-6.7 3 -3.4 3 0 3 C0 2.01 0 1.02 0 0 Z " fill="#F3F6F8" transform="translate(293,96)"/>
<path d="M0 0 C5.75 -0.125 5.75 -0.125 8 1 C7.67 3.64 7.34 6.28 7 9 C4.525 8.01 4.525 8.01 2 7 C2 7.99 2 8.98 2 10 C1.34 10 0.68 10 0 10 C0 6.7 0 3.4 0 0 Z " fill="#747474" transform="translate(237,164)"/>
<path d="M0 0 C2.875 -0.125 2.875 -0.125 6 0 C6.66 0.66 7.32 1.32 8 2 C7.625 5.625 7.625 5.625 7 9 C6.34 9 5.68 9 5 9 C5 8.34 5 7.68 5 7 C4.01 7 3.02 7 2 7 C2 7.66 2 8.32 2 9 C1.34 9 0.68 9 0 9 C0 6.03 0 3.06 0 0 Z " fill="#949494" transform="translate(161,164)"/>
<path d="M0 0 C2.875 -0.125 2.875 -0.125 6 0 C6.66 0.66 7.32 1.32 8 2 C7.625 5.625 7.625 5.625 7 9 C6.34 9 5.68 9 5 9 C5 8.34 5 7.68 5 7 C3.68 7 2.36 7 1 7 C0.67 7.66 0.34 8.32 0 9 C0 6.03 0 3.06 0 0 Z " fill="#717171" transform="translate(192,164)"/>
<path d="M0 0 C1.69157394 0.13918537 3.38630373 0.2435836 5.08203125 0.31640625 C6.01337891 0.35830078 6.94472656 0.40019531 7.90429688 0.44335938 C8.86400391 0.48267578 9.82371094 0.52199219 10.8125 0.5625 C11.79154297 0.60568359 12.77058594 0.64886719 13.77929688 0.69335938 C16.18607027 0.7990226 18.59293983 0.90112327 21 1 C21 1.33 21 1.66 21 2 C4.17 2.99 4.17 2.99 -13 4 C-10.46478472 -1.07043056 -4.84051107 -1.12766844 0 0 Z " fill="#FBF2F6" transform="translate(119,107)"/>
<path d="M0 0 C1.58294782 -0.05437607 3.16644256 -0.09296271 4.75 -0.125 C5.63171875 -0.14820312 6.5134375 -0.17140625 7.421875 -0.1953125 C10.1135858 0.00860498 11.69904974 0.63448279 14 2 C13.34 3.32 12.68 4.64 12 6 C11.34 5.67 10.68 5.34 10 5 C4.67032792 4.65907959 4.67032792 4.65907959 0 7 C0.185625 6.21625 0.37125 5.4325 0.5625 4.625 C1.25962266 2.02910225 1.25962266 2.02910225 0 0 Z " fill="#3C434D" transform="translate(173,65)"/>
<path d="M0 0 C2.64 0 5.28 0 8 0 C8 0.66 8 1.32 8 2 C6.02 2 4.04 2 2 2 C2 2.66 2 3.32 2 4 C3.65 4 5.3 4 7 4 C6.360625 4.28875 5.72125 4.5775 5.0625 4.875 C2.84793921 5.82823451 2.84793921 5.82823451 2 8 C3.98 8 5.96 8 8 8 C8 8.66 8 9.32 8 10 C5.36 10 2.72 10 0 10 C0 6.7 0 3.4 0 0 Z " fill="#6C6C6C" transform="translate(171,164)"/>
<path d="M0 0 C2 2 2 2 2.125 5.625 C2.08375 6.73875 2.0425 7.8525 2 9 C0.35 9.33 -1.3 9.66 -3 10 C-4.32 8.35 -5.64 6.7 -7 5 C-6.360625 4.87625 -5.72125 4.7525 -5.0625 4.625 C-4.381875 4.41875 -3.70125 4.2125 -3 4 C-2.67 3.34 -2.34 2.68 -2 2 C-1.34 2 -0.68 2 0 2 C0 1.34 0 0.68 0 0 Z " fill="#39434F" transform="translate(199,87)"/>
<path d="M0 0 C3.83736322 0.95934081 4.59660228 1.23609263 7 4 C6.34 5.32 5.68 6.64 5 8 C2.03 8 -0.94 8 -4 8 C-2.68 5.36 -1.36 2.72 0 0 Z M3 4 C2.67 4.66 2.34 5.32 2 6 C2.66 6 3.32 6 4 6 C3.67 5.34 3.34 4.68 3 4 Z " fill="#F8F6F4" transform="translate(125,97)"/>
<path d="M0 0 C2.0625 0.4375 2.0625 0.4375 4 1 C4 1.66 4 2.32 4 3 C5.60407328 3.02708567 7.2082785 3.04643483 8.8125 3.0625 C10.15248047 3.07990234 10.15248047 3.07990234 11.51953125 3.09765625 C14.13413791 3.11009967 14.13413791 3.11009967 17 2 C17 2.99 17 3.98 17 5 C16.30132812 5.02578125 15.60265625 5.0515625 14.8828125 5.078125 C13.97273437 5.13484375 13.06265625 5.1915625 12.125 5.25 C11.22007812 5.29640625 10.31515625 5.3428125 9.3828125 5.390625 C6.82889456 5.75611148 6.82889456 5.75611148 5.6796875 8.046875 C5.45539063 8.69140625 5.23109375 9.3359375 5 10 C4.01 9.67 3.02 9.34 2 9 C2.33 8.34 2.66 7.68 3 7 C2.34 6.34 1.68 5.68 1 5 C0.30251417 3.68252676 -0.36959957 2.35085807 -1 1 C-0.67 0.67 -0.34 0.34 0 0 Z M0 6 C0.33 6.66 0.66 7.32 1 8 C0.34 7.67 -0.32 7.34 -1 7 C-0.67 6.67 -0.34 6.34 0 6 Z " fill="#E5E4E7" transform="translate(128,95)"/>
<path d="M0 0 C-0.3125 2.375 -0.3125 2.375 -1 5 C-1.99 5.66 -2.98 6.32 -4 7 C-4.66 6.67 -5.32 6.34 -6 6 C-6 7.65 -6 9.3 -6 11 C-5.01 10.67 -4.02 10.34 -3 10 C-3.33 11.98 -3.66 13.96 -4 16 C-4.66 16 -5.32 16 -6 16 C-7.96776595 12.0644681 -7.59659885 7.2799483 -7 3 C-4.54305747 0.73702662 -3.3203746 0 0 0 Z " fill="#283443" transform="translate(197,74)"/>
<path d="M0 0 C0.99 0.33 1.98 0.66 3 1 C3.94921875 3.06640625 3.94921875 3.06640625 4.6875 5.5625 C5.06455078 6.80193359 5.06455078 6.80193359 5.44921875 8.06640625 C5.63097656 8.70449219 5.81273437 9.34257812 6 10 C5.34 10 4.68 10 4 10 C3.67 9.34 3.34 8.68 3 8 C1.68 8 0.36 8 -1 8 C-1.33 8.66 -1.66 9.32 -2 10 C-2.66 10 -3.32 10 -4 10 C-3.52449439 8.51965236 -3.04448784 7.04074979 -2.5625 5.5625 C-2.29566406 4.73878906 -2.02882812 3.91507813 -1.75390625 3.06640625 C-1 1 -1 1 0 0 Z " fill="#555555" transform="translate(184,164)"/>
<path d="M0 0 C0.886875 -0.01417969 1.77375 -0.02835937 2.6875 -0.04296875 C5 0.1875 5 0.1875 7 2.1875 C5.35 2.1875 3.7 2.1875 2 2.1875 C2 2.5175 2 2.8475 2 3.1875 C1.195625 3.31125 0.39125 3.435 -0.4375 3.5625 C-1.7059375 3.871875 -1.7059375 3.871875 -3 4.1875 C-3.33 4.8475 -3.66 5.5075 -4 6.1875 C-6.31 5.8575 -8.62 5.5275 -11 5.1875 C-7.20940502 1.27055185 -5.46083455 0.0396863 0 0 Z " fill="#353C44" transform="translate(205,64.8125)"/>
<path d="M0 0 C2.31 0 4.62 0 7 0 C7 0.66 7 1.32 7 2 C5.35 2 3.7 2 2 2 C2 2.66 2 3.32 2 4 C3.32 4.33 4.64 4.66 6 5 C4.68 5 3.36 5 2 5 C2 5.99 2 6.98 2 8 C3.65 8 5.3 8 7 8 C7 8.66 7 9.32 7 10 C4.69 10 2.38 10 0 10 C0 6.7 0 3.4 0 0 Z " fill="#5A5A5A" transform="translate(202,164)"/>
<path d="M0 0 C0.99 0 1.98 0 3 0 C6.125 6.625 6.125 6.625 5 10 C4.67 9.01 4.34 8.02 4 7 C2.35 7 0.7 7 -1 7 C-1.33 7.99 -1.66 8.98 -2 10 C-3.39195915 5.82412255 -1.82323219 3.86525224 0 0 Z " fill="#656565" transform="translate(224,164)"/>
<path d="M0 0 C1.2065625 0.0309375 1.2065625 0.0309375 2.4375 0.0625 C2.4375 3.0325 2.4375 6.0025 2.4375 9.0625 C1.7775 9.0625 1.1175 9.0625 0.4375 9.0625 C0.4375 7.7425 0.4375 6.4225 0.4375 5.0625 C-0.2225 5.0625 -0.8825 5.0625 -1.5625 5.0625 C-1.8925 6.0525 -2.2225 7.0425 -2.5625 8.0625 C-2.8925 8.0625 -3.2225 8.0625 -3.5625 8.0625 C-3.60491723 5.72955225 -3.60342937 3.39547433 -3.5625 1.0625 C-2.5625 0.0625 -2.5625 0.0625 0 0 Z " fill="#38434C" transform="translate(240.5625,64.9375)"/>
<path d="M0 0 C9.24 0 18.48 0 28 0 C24.08262477 1.95868762 21.30996812 2.59339923 17 3 C16.67 2.67 16.34 2.34 16 2 C13.30764224 1.76321284 10.63501844 1.57801975 7.9375 1.4375 C7.17888672 1.39431641 6.42027344 1.35113281 5.63867188 1.30664062 C3.75934562 1.20026367 1.87969756 1.09960066 0 1 C0 0.67 0 0.34 0 0 Z " fill="#8A3449" transform="translate(253,112)"/>
<path d="M0 0 C1 3 1 3 1 5 C-2.3 5 -5.6 5 -9 5 C-8.34 4.34 -7.68 3.68 -7 3 C-7.66 2.34 -8.32 1.68 -9 1 C-4.545 0.505 -4.545 0.505 0 0 Z " fill="#F6F7FA" transform="translate(257,60)"/>
<path d="M0 0 C2.375 -0.1875 2.375 -0.1875 5 0 C7 3 7 3 7 6 C5.02 6 3.04 6 1 6 C0 3 0 3 0 0 Z M2 2 C3 4 3 4 3 4 Z " fill="#E9ECF0" transform="translate(202,68)"/>
<path d="M0 0 C1.32 0 2.64 0 4 0 C4.125 2.875 4.125 2.875 4 6 C3.34 6.66 2.68 7.32 2 8 C1.01 7.34 0.02 6.68 -1 6 C-0.67 4.02 -0.34 2.04 0 0 Z " fill="#F7F8FA" transform="translate(244,65)"/>
<path d="M0 0 C3.49234244 -0.09978121 6.59437148 0.22157062 10 1 C10 2.65 10 4.3 10 6 C6.7 5.01 3.4 4.02 0 3 C0 2.01 0 1.02 0 0 Z " fill="#F7F7F7" transform="translate(213,161)"/>
<path d="M0 0 C0.66 0.33 1.32 0.66 2 1 C1.67 3.31 1.34 5.62 1 8 C0.34 8 -0.32 8 -1 8 C-1 7.34 -1 6.68 -1 6 C-1.99 6 -2.98 6 -4 6 C-4 6.66 -4 7.32 -4 8 C-4.66 8 -5.32 8 -6 8 C-6 6.68 -6 5.36 -6 4 C-4.02 4 -2.04 4 0 4 C0 2.68 0 1.36 0 0 Z " fill="#4B4B4B" transform="translate(167,165)"/>
<path d="M0 0 C0.33 0 0.66 0 1 0 C1.144375 1.0725 1.28875 2.145 1.4375 3.25 C1.83749442 5.91662949 2.27591924 8.41399729 3 11 C1.68 11.33 0.36 11.66 -1 12 C-1.02712066 10.56260487 -1.04645067 9.12506137 -1.0625 7.6875 C-1.07410156 6.88699219 -1.08570313 6.08648437 -1.09765625 5.26171875 C-1 3 -1 3 0 0 Z " fill="#F7F7F9" transform="translate(259,48)"/>
<path d="M0 0 C2.97 0.495 2.97 0.495 6 1 C4.68 3.31 3.36 5.62 2 8 C1.34 8 0.68 8 0 8 C0 5.36 0 2.72 0 0 Z " fill="#E8ECEF" transform="translate(162,67)"/>
<path d="M0 0 C0.66 0 1.32 0 2 0 C2 1.32 2 2.64 2 4 C3.32 4.33 4.64 4.66 6 5 C2.17907588 6.37553268 -1.08234111 5.81309902 -5 5 C-5.33 4.34 -5.66 3.68 -6 3 C-3.03 3.495 -3.03 3.495 0 4 C-0.33 3.01 -0.66 2.02 -1 1 C-0.67 0.67 -0.34 0.34 0 0 Z " fill="#F9F9F9" transform="translate(200,170)"/>
<path d="M0 0 C-0.33 0.66 -0.66 1.32 -1 2 C-4.16015625 2.4140625 -4.16015625 2.4140625 -8.0625 2.625 C-9.35285156 2.69976562 -10.64320313 2.77453125 -11.97265625 2.8515625 C-12.97167969 2.90054688 -13.97070312 2.94953125 -15 3 C-12.41464321 1.27642881 -10.96188386 0.55264982 -8.0625 -0.1875 C-7.39347656 -0.36667969 -6.72445313 -0.54585938 -6.03515625 -0.73046875 C-3.75319112 -1.03268678 -2.17973341 -0.68756692 0 0 Z " fill="#F2C9D3" transform="translate(281,114)"/>
<path d="M0 0 C0.66 0.99 1.32 1.98 2 3 C2.33 2.34 2.66 1.68 3 1 C3.66 1 4.32 1 5 1 C5.33 1.66 5.66 2.32 6 3 C6.66 3 7.32 3 8 3 C8 3.66 8 4.32 8 5 C6.02 5.66 4.04 6.32 2 7 C0.4375 5.75 0.4375 5.75 -1 4 C-0.6875 1.8125 -0.6875 1.8125 0 0 Z " fill="#424A59" transform="translate(273,66)"/>
<path d="M0 0 C1.32 0 2.64 0 4 0 C4.33 1.32 4.66 2.64 5 4 C4.34 4 3.68 4 3 4 C2.34 4.66 1.68 5.32 1 6 C1 5.34 1 4.68 1 4 C0.236875 4.20625 -0.52625 4.4125 -1.3125 4.625 C-4 5 -4 5 -7 3 C-4.69 3 -2.38 3 0 3 C0 2.01 0 1.02 0 0 Z " fill="#E2E6EB" transform="translate(243,71)"/>
<path d="M0 0 C-1.32 1.32 -2.64 2.64 -4 4 C-4.66 3.67 -5.32 3.34 -6 3 C-6 2.34 -6 1.68 -6 1 C-6.99 1.495 -6.99 1.495 -8 2 C-9.99960012 2.039992 -12.00047242 2.04346799 -14 2 C-14 1.67 -14 1.34 -14 1 C-12.04310963 0.63794536 -10.08442332 0.28558579 -8.125 -0.0625 C-7.03445312 -0.25972656 -5.94390625 -0.45695313 -4.8203125 -0.66015625 C-2 -1 -2 -1 0 0 Z " fill="#FAFAF8" transform="translate(218,131)"/>
<path d="M0 0 C0.66 0.33 1.32 0.66 2 1 C2 1.66 2 2.32 2 3 C2.66 3.33 3.32 3.66 4 4 C3.34 4.66 2.68 5.32 2 6 C2 6.66 2 7.32 2 8 C-0.97 7.505 -0.97 7.505 -4 7 C-3.01 6.34 -2.02 5.68 -1 5 C-0.27034634 2.43717258 -0.27034634 2.43717258 0 0 Z " fill="#474F5B" transform="translate(201,91)"/>
<path d="M0 0 C0.33 0 0.66 0 1 0 C1 2.64 1 5.28 1 8 C1.99 7.67 2.98 7.34 4 7 C3.67 8.98 3.34 10.96 3 13 C2.34 13 1.68 13 1 13 C-0.32229189 10.35541621 -0.09677194 8.32238699 -0.0625 5.375 C-0.05347656 4.37210937 -0.04445312 3.36921875 -0.03515625 2.3359375 C-0.02355469 1.56507812 -0.01195312 0.79421875 0 0 Z " fill="#4B545C" transform="translate(190,77)"/>
<path d="M0 0 C2.0625 0.4375 2.0625 0.4375 4 1 C4 3.64 4 6.28 4 9 C3.34 9 2.68 9 2 9 C1.814375 7.576875 1.814375 7.576875 1.625 6.125 C1.28312823 2.91332809 1.28312823 2.91332809 -1 1 C-0.67 0.67 -0.34 0.34 0 0 Z " fill="#F9F9F9" transform="translate(157,161)"/>
<path d="M0 0 C1.65 0 3.3 0 5 0 C4.67 0.66 4.34 1.32 4 2 C4.66 2.66 5.32 3.32 6 4 C3.69 4.33 1.38 4.66 -1 5 C-0.67 3.35 -0.34 1.7 0 0 Z " fill="#9E314B" transform="translate(133,113)"/>
<path d="M0 0 C2.64 0 5.28 0 8 0 C7.67 0.99 7.34 1.98 7 3 C5.35 3.33 3.7 3.66 2 4 C2 3.34 2 2.68 2 2 C1.34 2 0.68 2 0 2 C0 1.34 0 0.68 0 0 Z " fill="#F7F9FB" transform="translate(236,75)"/>
<path d="M0 0 C1.65 0 3.3 0 5 0 C5.33 0.99 5.66 1.98 6 3 C3.23735711 3.59732819 0.83967231 4 -2 4 C-1.34 2.68 -0.68 1.36 0 0 Z " fill="#E3EBEF" transform="translate(277,71)"/>
<path d="M0 0 C0.66 0 1.32 0 2 0 C3.09658936 3.28976808 2.79953138 4.71303767 2 8 C0.68 7.34 -0.64 6.68 -2 6 C-1.34 4.02 -0.68 2.04 0 0 Z " fill="#F8F8F8" transform="translate(230,161)"/>
<path d="M0 0 C1.65 0 3.3 0 5 0 C5.66 1.98 6.32 3.96 7 6 C6.01 6.33 5.02 6.66 4 7 C3.896875 6.360625 3.79375 5.72125 3.6875 5.0625 C3.460625 4.381875 3.23375 3.70125 3 3 C2.01 2.67 1.02 2.34 0 2 C0 1.34 0 0.68 0 0 Z " fill="#F6F6F6" transform="translate(145,169)"/>
<path d="M0 0 C0.33 0.99 0.66 1.98 1 3 C-1 5 -1 5 -4.125 5.125 C-5.548125 5.063125 -5.548125 5.063125 -7 5 C-7.33 4.34 -7.66 3.68 -8 3 C-7.236875 2.87625 -6.47375 2.7525 -5.6875 2.625 C-2.79732864 2.11897208 -2.79732864 2.11897208 0 0 Z " fill="#DFE7ED" transform="translate(146,88)"/>
<path d="M0 0 C1.32 0.33 2.64 0.66 4 1 C3.67 4.3 3.34 7.6 3 11 C2.67 11 2.34 11 2 11 C1.34 7.37 0.68 3.74 0 0 Z " fill="#E5EAF0" transform="translate(216,71)"/>
<path d="M0 0 C-0.66 1.32 -1.32 2.64 -2 4 C-4.64 3.34 -7.28 2.68 -10 2 C-10 1.67 -10 1.34 -10 1 C-3.375 -1.125 -3.375 -1.125 0 0 Z " fill="#4F575C" transform="translate(187,67)"/>
<path d="M0 0 C1.62463842 -0.05395478 3.24978541 -0.09277195 4.875 -0.125 C5.77992188 -0.14820312 6.68484375 -0.17140625 7.6171875 -0.1953125 C10 0 10 0 12 2 C11.2575 1.979375 10.515 1.95875 9.75 1.9375 C7.06404644 1.86733711 7.06404644 1.86733711 4.875 2.6875 C3.946875 2.8421875 3.946875 2.8421875 3 3 C1.3828125 1.51953125 1.3828125 1.51953125 0 0 Z " fill="#464F57" transform="translate(200,65)"/>
<path d="M0 0 C3.63 0 7.26 0 11 0 C11.33 0.66 11.66 1.32 12 2 C11.34 2 10.68 2 10 2 C9.67 2.99 9.34 3.98 9 5 C8.67 3.68 8.34 2.36 8 1 C5.36 1 2.72 1 0 1 C0 0.67 0 0.34 0 0 Z " fill="#BCC3CD" transform="translate(266,65)"/>
<path d="M0 0 C0 1.65 0 3.3 0 5 C-0.33 4.34 -0.66 3.68 -1 3 C-2.98 3 -4.96 3 -7 3 C-7 2.34 -7 1.68 -7 1 C-2.25 0 -2.25 0 0 0 Z " fill="#F7F7F7" transform="translate(211,169)"/>
<path d="M0 0 C0.99 0.33 1.98 0.66 3 1 C3 2.65 3 4.3 3 6 C1.68 5.67 0.36 5.34 -1 5 C-0.67 3.35 -0.34 1.7 0 0 Z " fill="#8E8E8E" transform="translate(184,164)"/>
<path d="M0 0 C-0.99 0.495 -0.99 0.495 -2 1 C-2 1.66 -2 2.32 -2 3 C-3.98 3 -5.96 3 -8 3 C-8 2.01 -8 1.02 -8 0 C-4.71023192 -1.09658936 -3.28696233 -0.79953138 0 0 Z " fill="#27303F" transform="translate(286,67)"/>
<path d="M0 0 C0.66 0 1.32 0 2 0 C2 2.97 2 5.94 2 9 C1.34 8.67 0.68 8.34 0 8 C-1.27536232 2.55072464 -1.27536232 2.55072464 0 0 Z " fill="#F9F9F9" transform="translate(235,161)"/>
<path d="M0 0 C0.99 0 1.98 0 3 0 C3 1.65 3 3.3 3 5 C1.68 5.33 0.36 5.66 -1 6 C-0.67 4.02 -0.34 2.04 0 0 Z " fill="#293543" transform="translate(198,91)"/>
</svg>
