<?xml version="1.0" encoding="UTF-8"?>
<svg version="1.1" xmlns="http://www.w3.org/2000/svg" width="225" height="225">
<path d="M0 0 C74.25 0 148.5 0 225 0 C225 74.25 225 148.5 225 225 C150.75 225 76.5 225 0 225 C0 150.75 0 76.5 0 0 Z " fill="#6023D3" transform="translate(0,0)"/>
<path d="M0 0 C6.42438474 5.43786873 9.50500427 11.61575209 10.4375 19.875 C10.08968578 26.95649743 7.43249102 33.10186862 2.25 37.9375 C-3.47504233 42.42440933 -9.30362008 44.6930283 -16.6328125 44.4140625 C-22.70325285 43.3522363 -28.15608175 40.40759769 -32.125 35.6875 C-32.74375 34.800625 -33.3625 33.91375 -34 33 C-34.35191406 33.54269531 -34.70382813 34.08539063 -35.06640625 34.64453125 C-35.56011719 35.35996094 -36.05382812 36.07539062 -36.5625 36.8125 C-37.03816406 37.52019531 -37.51382813 38.22789063 -38.00390625 38.95703125 C-40 41 -40 41 -47 44 C-54.26 44 -61.52 44 -69 44 C-69 28.49 -69 12.98 -69 -3 C-64.99875 -3.0825 -60.9975 -3.165 -56.875 -3.25 C-55.62444824 -3.28641602 -54.37389648 -3.32283203 -53.08544922 -3.36035156 C-46.78128868 -3.42332207 -42.68466284 -3.43143782 -38 1 C-36.125 4.25 -36.125 4.25 -35 7 C-33.948125 5.88625 -33.948125 5.88625 -32.875 4.75 C-23.0460236 -4.6516296 -11.90691662 -6.90368456 0 0 Z " fill="#FCFCFB" transform="translate(165,68)"/>
<path d="M0 0 C0.66 0.721875 1.32 1.44375 2 2.1875 C6.91333511 7.11487321 12.98269169 11.06836868 20.0625 11.3125 C25.60591654 11.27620922 30.01882811 9.23882996 35 7 C35.99 6.67 36.98 6.34 38 6 C38 7.98 38 9.96 38 12 C40.84191143 12.92840426 40.84191143 12.92840426 43.71875 12.4375 C46.98787204 11.81054509 49.53986675 12.63496669 52.75 13.4375 C53.92046875 13.72496094 55.0909375 14.01242188 56.296875 14.30859375 C57.18890625 14.53675781 58.0809375 14.76492187 59 15 C58.67 15.99 58.34 16.98 58 18 C59.98 18.495 59.98 18.495 62 19 C59.78071806 21.90802461 58.07030857 23.95312762 55 26 C55 26.99 55 27.98 55 29 C54.68330179 31.33564933 54.35179197 33.6693782 54 36 C50.535 36.495 50.535 36.495 47 37 C46.67 38.65 46.34 40.3 46 42 C44.515 41.01 44.515 41.01 43 40 C43.55017415 35.52470281 45.26104283 32.74057462 47.8125 29.0625 C48.49957031 28.06347656 49.18664062 27.06445312 49.89453125 26.03515625 C50.58933594 25.03355469 51.28414063 24.03195313 52 23 C53.34165664 21.0054 54.67140182 19.00334692 56 17 C52.74285996 16.16838978 50.23410239 16.00338839 47 17 C44.24658544 19.98942152 42.22358918 22.94320391 40.04296875 26.375 C39.36878906 27.24125 38.69460937 28.1075 38 29 C36.68 29 35.36 29 34 29 C31.66682565 26.00211632 29.71701591 22.84694202 27.70703125 19.625 C24.69108951 16.70045044 24.17404579 16.625 20.19921875 16.625 C18.79718183 16.72085602 17.39575404 16.83639513 16 17 C17.60273174 19.41762912 19.20712697 21.8341257 20.8125 24.25 C21.26431641 24.93191406 21.71613281 25.61382812 22.18164062 26.31640625 C22.62314453 26.98027344 23.06464844 27.64414063 23.51953125 28.328125 C23.94572754 28.97330078 24.37192383 29.61847656 24.81103516 30.28320312 C26.04473893 32.1314344 26.04473893 32.1314344 27.88671875 34.171875 C29 36 29 36 28.9921875 38.28125 C27.59848411 42.10021677 25.44464505 45.18152762 23.125 48.5 C22.23077225 49.80139774 21.33752128 51.10346727 20.4453125 52.40625 C20.02411133 53.01855469 19.60291016 53.63085938 19.16894531 54.26171875 C17.69210057 56.45786214 16.32891352 58.71180454 15 61 C17.31 61 19.62 61 22 61 C22.33 61.66 22.66 62.32 23 63 C22.3125 65.0625 22.3125 65.0625 21 67 C17.7648948 68.15906263 14.65852238 68.10307765 11.25 68.0625 C10.26515625 68.05347656 9.2803125 68.04445313 8.265625 68.03515625 C7.51796875 68.02355469 6.7703125 68.01195312 6 68 C6 66.02 6 64.04 6 62 C8.31 61.67 10.62 61.34 13 61 C13 46.15 13 31.3 13 16 C8.99407259 17.30730421 8.99407259 17.30730421 5.0625 18.8125 C2.26129262 19.06715522 0.41048587 17.86604244 -2.0859375 16.71875 C-7.15845586 14.81396759 -11.78058517 15.66906163 -16.6875 17.5 C-21.55985986 19.83940594 -23.69421436 23.24431713 -26 28 C-26.33 28.66 -26.66 29.32 -27 30 C-27.70414179 38.0473347 -27.96161246 45.82273496 -23.73828125 52.97265625 C-19.18894312 58.27851353 -13.13597946 60.08365682 -6.375 60.8125 C-4.91768711 60.89545473 -3.45927239 60.96584682 -2 61 C-2 63.31 -2 65.62 -2 68 C-3.258125 68.020625 -4.51625 68.04125 -5.8125 68.0625 C-6.52019531 68.07410156 -7.22789063 68.08570313 -7.95703125 68.09765625 C-10 68 -10 68 -13 67 C-14.66621616 66.96125079 -16.33394172 66.9549714 -18 67 C-18 65.02 -18 63.04 -18 61 C-20.64 61 -23.28 61 -26 61 C-27.33332095 63.6666419 -26.67102033 65.16680303 -26 68 C-26.66 68 -27.32 68 -28 68 C-28.66 67.01 -29.32 66.02 -30 65 C-31.32 65 -32.64 65 -34 65 C-34 64.34 -34 63.68 -34 63 C-34.66 62.67 -35.32 62.34 -36 62 C-33.03 61.505 -33.03 61.505 -30 61 C-30.01953034 56.30352778 -30.07157598 51.60890081 -30.15258789 46.91308594 C-30.17565393 45.31878741 -30.19013667 43.72433897 -30.19555664 42.12988281 C-30.00161239 30.61795611 -30.00161239 30.61795611 -34.55029297 20.32397461 C-38.73385698 16.50324918 -44.55828298 15.68021463 -50 15 C-49.67 13.68 -49.34 12.36 -49 11 C-44.71 11.33 -40.42 11.66 -36 12 C-36.99 12.33 -37.98 12.66 -39 13 C-39 13.66 -39 14.32 -39 15 C-38.39929688 14.5153125 -37.79859375 14.030625 -37.1796875 13.53125 C-32.55680656 11.30499775 -28.19430968 11.54687605 -23.125 11.5 C-13.65900971 11.42961026 -13.65900971 11.42961026 -5 8 C-3.17067512 6.04739502 -3.17067512 6.04739502 -2.0625 3.8125 C-1.66160156 3.09707031 -1.26070312 2.38164063 -0.84765625 1.64453125 C-0.56792969 1.10183594 -0.28820312 0.55914062 0 0 Z " fill="#4D07C6" transform="translate(130,100)"/>
<path d="M0 0 C3.02497174 1.66050495 3.02497174 1.66050495 5.625 1.1875 C7.25308665 0.54964846 7.25308665 0.54964846 8.25 -0.5625 C9.9 -0.5625 11.55 -0.5625 13.25 -0.5625 C13.25 13.9575 13.25 28.4775 13.25 43.4375 C10.94 43.4375 8.63 43.4375 6.25 43.4375 C5.92 42.4475 5.59 41.4575 5.25 40.4375 C4.40179688 40.9221875 3.55359375 41.406875 2.6796875 41.90625 C-3.51315058 44.67116176 -10.77748784 44.66076191 -17.26171875 42.6640625 C-22.02063982 40.10784204 -24.74856832 36.34126801 -26.8984375 31.44921875 C-29.05666519 23.81622081 -29.27892949 15.39970245 -25.5625 8.25 C-19.78740941 -0.38019156 -9.80266565 -4.57597669 0 0 Z " fill="#F8F6F9" transform="translate(129.75,116.5625)"/>
<path d="M0 0 C0.886875 0.4125 1.77375 0.825 2.6875 1.25 C4.38655634 0.30607981 6.04771682 -0.70650161 7.6875 -1.75 C14.10891457 -3.28579759 19.94263364 -3.22085676 25.6875 0.25 C28.0625 2.6875 28.0625 2.6875 29.6875 5.25 C30.0469873 5.8059082 30.40647461 6.36181641 30.77685547 6.93457031 C32.06829324 10.2182153 31.9339411 13.3863214 31.8828125 16.859375 C31.8799826 17.58618469 31.87715271 18.31299438 31.87423706 19.06182861 C31.86307523 21.37472251 31.83797851 23.68722388 31.8125 26 C31.80246501 27.57160898 31.79334006 29.14322404 31.78515625 30.71484375 C31.76314904 34.56004622 31.72864715 38.40495664 31.6875 42.25 C28.3125 42.375 28.3125 42.375 24.6875 42.25 C21.86703067 39.42953067 22.38875869 37.50939897 22.30859375 33.5625 C22.29159927 32.90419189 22.2746048 32.24588379 22.25709534 31.56762695 C22.20391739 29.46184909 22.16365488 27.35609065 22.125 25.25 C22.08106521 23.14401117 22.03434198 21.03817485 21.98219299 18.93237305 C21.93563924 17.02146226 21.89815309 15.11033705 21.86108398 13.19921875 C21.88580517 10.31837028 21.88580517 10.31837028 20.6875 8.25 C17.13396071 7.0654869 14.41736522 6.98358106 10.6875 7.25 C8.8562083 8.24259966 8.8562083 8.24259966 7.6875 10.25 C7.3567937 12.75728032 7.1992282 15.03137387 7.17578125 17.54296875 C7.15783005 18.24899734 7.13987885 18.95502594 7.12138367 19.68244934 C7.06726822 21.93407241 7.03338278 24.18548343 7 26.4375 C6.96682781 27.96552431 6.93233823 29.49352063 6.89648438 31.02148438 C6.81154175 34.76416989 6.74473752 38.50679241 6.6875 42.25 C3.3125 42.375 3.3125 42.375 -0.3125 42.25 C-3.1370584 39.4254416 -2.56674844 37.54775044 -2.5859375 33.59765625 C-2.60622569 32.25064272 -2.62707646 30.90363757 -2.6484375 29.55664062 C-2.67104993 27.43230115 -2.68751158 25.30829223 -2.69335938 23.18383789 C-2.70287623 21.13366913 -2.73663773 19.08499134 -2.7734375 17.03515625 C-2.78165527 15.80676025 -2.78987305 14.57836426 -2.79833984 13.31274414 C-3.02260269 10.17611331 -3.02260269 10.17611331 -5.203125 8.33935547 C-7.73031008 7.03422817 -9.12958105 6.97911832 -11.9375 7.3125 C-12.71351562 7.38597656 -13.48953125 7.45945312 -14.2890625 7.53515625 C-16.41715381 8.06300142 -16.41715381 8.06300142 -17.41308594 9.86010742 C-18.60724317 13.03318156 -18.64042849 15.81518715 -18.7265625 19.203125 C-18.74592865 19.86334656 -18.7652948 20.52356812 -18.7852478 21.20379639 C-18.84479349 23.30240153 -18.89132722 25.40106228 -18.9375 27.5 C-18.97570294 28.9271066 -19.01475602 30.35419072 -19.0546875 31.78125 C-19.1504733 35.27062691 -19.23459642 38.76017286 -19.3125 42.25 C-21.64544775 42.29241723 -23.97952567 42.29092937 -26.3125 42.25 C-29.01144399 39.55105601 -27.58692881 31.77310489 -27.60766602 27.88720703 C-27.62477294 25.6546334 -27.66862301 23.42358226 -27.71289062 21.19140625 C-27.72302697 19.76042754 -27.73154012 18.32943623 -27.73828125 16.8984375 C-27.75286377 15.60083496 -27.76744629 14.30323242 -27.7824707 12.96630859 C-27.05511347 7.21470764 -24.93131784 3.53156412 -20.3125 -0.125 C-13.74235496 -3.68382856 -6.61698339 -3.49576481 0 0 Z " fill="#F9F7F9" transform="translate(68.3125,117.75)"/>
<path d="M0 0 C4.29 0 8.58 0 13 0 C13 5.61 13 11.22 13 17 C15.64 17 18.28 17 21 17 C21 11.39 21 5.78 21 0 C25.29 0 29.58 0 34 0 C34 15.51 34 31.02 34 47 C29.71 47 25.42 47 21 47 C21 41.06 21 35.12 21 29 C18.36 29 15.72 29 13 29 C13 34.94 13 40.88 13 47 C8.71 47 4.42 47 0 47 C0 31.49 0 15.98 0 0 Z " fill="#FCFAFC" transform="translate(60,65)"/>
<path d="M0 0 C3.48184422 -0.56746355 6.53686354 -0.75219728 10 0 C12.9706084 2.61435463 14.91630086 5.66165973 17 9 C17.98827574 10.34204651 18.984548 11.6783968 20 13 C23.86655814 11.50629652 25.42660449 9.34600841 27.6875 5.9375 C30.98695652 1.01304348 30.98695652 1.01304348 32 0 C33.68608966 -0.07205511 35.37500659 -0.08386068 37.0625 -0.0625 C37.98160156 -0.05347656 38.90070313 -0.04445313 39.84765625 -0.03515625 C40.55792969 -0.02355469 41.26820313 -0.01195313 42 0 C39.98097366 3.62496453 37.93156101 7.16866037 35.60546875 10.60546875 C35.20779297 11.19650391 34.81011719 11.78753906 34.40039062 12.39648438 C33.58019745 13.60762309 32.75181671 14.81325096 31.91601562 16.01367188 C29.62890575 19.19482919 29.62890575 19.19482919 29.22167969 22.93212891 C30.11974492 25.31814288 31.28229785 27.18876257 32.72265625 29.29296875 C33.52993164 30.4850293 33.52993164 30.4850293 34.35351562 31.70117188 C34.91748047 32.52166016 35.48144531 33.34214844 36.0625 34.1875 C37.18030744 35.82551295 38.29629809 37.46476771 39.41015625 39.10546875 C39.90652588 39.82887451 40.40289551 40.55228027 40.91430664 41.29760742 C42 43 42 43 42 44 C38.48539664 44.64818505 35.49483159 44.82902965 32 44 C28.71330637 41.06467987 26.37322026 37.69361487 24 34 C23.34 33.01 22.68 32.02 22 31 C18.2331227 32.25562577 17.60455354 33.67521854 15.4375 36.9375 C12.15217391 41.84782609 12.15217391 41.84782609 10 44 C7.6171875 44.1953125 7.6171875 44.1953125 4.875 44.125 C3.96492187 44.10695312 3.05484375 44.08890625 2.1171875 44.0703125 C1.41851562 44.04710937 0.71984375 44.02390625 0 44 C2.90961724 38.5602808 6.34045379 33.60127786 10.08959961 28.70825195 C12.47941677 25.46875515 12.47941677 25.46875515 12.77832031 21.58154297 C11.95214393 18.84127036 10.89832466 16.96038796 9.27734375 14.609375 C8.73916016 13.81789062 8.20097656 13.02640625 7.64648438 12.2109375 C6.80053711 10.99277344 6.80053711 10.99277344 5.9375 9.75 C4.81980469 8.12103203 3.70381986 6.49088862 2.58984375 4.859375 C2.09347412 4.14233398 1.59710449 3.42529297 1.08569336 2.68652344 C0 1 0 1 0 0 Z " fill="#F8F7F8" transform="translate(145,116)"/>
<path d="M0 0 C7.49405257 1.63135838 11.7568482 4.59502561 16 11 C19.24417691 16.9688237 20.03057826 22.88416858 18.37890625 29.48046875 C15.88309269 36.81261438 11.78197785 41.35906548 5.01953125 45.09375 C-0.8131883 47.60845543 -6.62900431 48.20640935 -12.65234375 46.05078125 C-17.50839553 43.79032837 -21.0787112 41.64750491 -24 37 C-23.34 37 -22.68 37 -22 37 C-22 36.01 -22 35.02 -22 34 C-21.34 34 -20.68 34 -20 34 C-19.566875 33.0409375 -19.566875 33.0409375 -19.125 32.0625 C-18 30 -18 30 -16 29 C-14.265625 29.99609375 -14.265625 29.99609375 -12.25 31.4375 C-8.63170895 33.77567364 -6.38962241 34.85883917 -2 34 C1.06471302 32.34976991 3.30778907 30.943924 5.375 28.125 C6.23855538 25.18891172 6.36658209 23.05485074 6 20 C3.8669997 16.11489231 1.73506748 13.40111481 -2 11 C-0.68 10.67 0.64 10.34 2 10 C1.67 9.01 1.34 8.02 1 7 C1.66 6.34 2.32 5.68 3 5 C3.99 5 4.98 5 6 5 C3.69 4.34 1.38 3.68 -1 3 C-0.67 2.01 -0.34 1.02 0 0 Z " fill="#F9F7F9" transform="translate(156,65)"/>
<path d="M0 0 C0.33 0.99 0.66 1.98 1 3 C2.98723268 3.70381157 4.98777953 4.3711811 7 5 C7.33 5.66 7.66 6.32 8 7 C7.195625 7.12375 6.39125 7.2475 5.5625 7.375 C4.716875 7.58125 3.87125 7.7875 3 8 C2.67 8.66 2.34 9.32 2 10 C2.66 10.33 3.32 10.66 4 11 C3.01 11.66 2.02 12.32 1 13 C1.78375 13.5775 2.5675 14.155 3.375 14.75 C6.8288131 17.71041123 7.79118748 19.399104 8.375 23.875 C7.77890258 28.84247847 5.50345952 31.81305828 1.625 34.875 C-1.60164126 36.25784626 -3.51686382 36.49759088 -7 36 C-10.96407074 33.82364744 -13.39817751 31.64255149 -16 28 C-16.66 28 -17.32 28 -18 28 C-18.04898438 27.30132812 -18.09796875 26.60265625 -18.1484375 25.8828125 C-18.22320312 24.97273438 -18.29796875 24.06265625 -18.375 23.125 C-18.47941406 21.76761719 -18.47941406 21.76761719 -18.5859375 20.3828125 C-18.79568132 17.82058097 -18.79568132 17.82058097 -21 16 C-22.01241685 14.67607028 -23.01439389 13.34400833 -24 12 C-20.66800925 6.36124643 -17.24531082 3.4110047 -11.125 0.75 C-7.27064474 -0.17504526 -3.95723018 -0.13645621 0 0 Z " fill="#FAF8F9" transform="translate(155,64)"/>
<path d="M0 0 C4.04313039 2.09643798 6.36283801 3.75826212 8 8 C8.62660358 13.23141131 9.15378955 19.0063741 6.25 23.625 C2.77347138 27.29466909 1.19626145 27.86493822 -3.875 28.4375 C-7.35368683 28.34014869 -8.22064105 27.86107786 -11.375 25.875 C-15.05744835 21.84184228 -15.83343972 18.86547513 -16.3125 13.5 C-15.85685813 8.3968111 -14.26222475 5.37041544 -10.8125 1.625 C-7.16267597 -0.48378722 -4.06812015 -0.79610962 0 0 Z " fill="#440BC2" transform="translate(126,124)"/>
<path d="M0 0 C4.00125 -0.0825 8.0025 -0.165 12.125 -0.25 C13.37555176 -0.28641602 14.62610352 -0.32283203 15.91455078 -0.36035156 C22.2356274 -0.42349104 26.21958337 -0.32108834 31 4 C30.67 4.66 30.34 5.32 30 6 C26.36040647 7.04466454 23.02227858 7.05989576 19.26171875 6.87890625 C18.29967529 6.83580322 17.33763184 6.7927002 16.34643555 6.74829102 C14.53526245 6.65632446 14.53526245 6.65632446 12.6875 6.5625 C6.9021875 6.2840625 6.9021875 6.2840625 1 6 C1 19.2 1 32.4 1 46 C10.9 45.505 10.9 45.505 21 45 C19.515 44.505 19.515 44.505 18 44 C18.65900754 40.92463146 19.53867783 38.92264434 21 36 C18.03 36 15.06 36 12 36 C12 33.03 12 30.06 12 27 C12.99 27 13.98 27 15 27 C15 26.34 15 25.68 15 25 C15.99 25.33 16.98 25.66 18 26 C19.66362417 26.34820041 21.32995171 26.68404492 23 27 C22.93039063 27.90492187 22.93039063 27.90492187 22.859375 28.828125 C22.54183982 33.9615061 22.54183982 33.9615061 24.75 38.4375 C26.78543556 39.85099692 28.72380488 41.02448781 31 42 C21.38256647 50.28167888 14.73526461 47 0 47 C0 31.49 0 15.98 0 0 Z M12 11 C13.45823212 10.9729957 14.91660675 10.95360213 16.375 10.9375 C17.18710938 10.92589844 17.99921875 10.91429688 18.8359375 10.90234375 C21 11 21 11 23 12 C23.38749213 14.32495277 23.71758117 16.6599583 24 19 C24.33 19.99 24.66 20.98 25 22 C28.465 21.505 28.465 21.505 32 21 C32 22.65 32 24.3 32 26 C30.88625 25.690625 30.88625 25.690625 29.75 25.375 C26.67669159 24.95591249 25.57213134 25.38050989 23 27 C22.34 26.01 21.68 25.02 21 24 C20.01 24.495 20.01 24.495 19 25 C19.875 21.125 19.875 21.125 21 20 C18.03 19.67 15.06 19.34 12 19 C12 16.36 12 13.72 12 11 Z " fill="#F6F4F9" transform="translate(96,65)"/>
<path d="M0 0 C3.28753748 1.09584583 3.60078861 1.47761131 5.375 4.23828125 C6.01695312 5.22151367 6.01695312 5.22151367 6.671875 6.22460938 C7.11015625 6.91361328 7.5484375 7.60261719 8 8.3125 C8.8740291 9.66338909 9.74900393 11.01366683 10.625 12.36328125 C11.03234375 13.00217285 11.4396875 13.64106445 11.859375 14.29931641 C13.0428347 16.13860504 13.0428347 16.13860504 14.875 18.16796875 C16 20 16 20 15.9921875 22.28125 C14.59848411 26.10021677 12.44464505 29.18152762 10.125 32.5 C9.23077225 33.80139774 8.33752128 35.10346727 7.4453125 36.40625 C7.02411133 37.01855469 6.60291016 37.63085938 6.16894531 38.26171875 C4.69210057 40.45786214 3.32891352 42.71180454 2 45 C4.31 45 6.62 45 9 45 C9.33 45.66 9.66 46.32 10 47 C9.3125 49.0625 9.3125 49.0625 8 51 C4.7648948 52.15906263 1.65852238 52.10307765 -1.75 52.0625 C-2.73484375 52.05347656 -3.7196875 52.04445312 -4.734375 52.03515625 C-5.48203125 52.02355469 -6.2296875 52.01195312 -7 52 C-7 50.02 -7 48.04 -7 46 C-3.535 45.505 -3.535 45.505 0 45 C0 30.15 0 15.3 0 0 Z " fill="#431FC5" transform="translate(143,116)"/>
<path d="M0 0 C4.29 0 8.58 0 13 0 C13 15.51 13 31.02 13 47 C8.71 47 4.42 47 0 47 C0.33 44.69 0.66 42.38 1 40 C1.99 40.99 2.98 41.98 4 43 C5.29246898 39.27842266 4.79108594 36.22231757 4.1875 32.375 C4.01605469 31.22773437 3.84460938 30.08046875 3.66796875 28.8984375 C3.24467359 25.89117403 3.24467359 25.89117403 1 24 C0.67 24.66 0.34 25.32 0 26 C-0.33 26 -0.66 26 -1 26 C-1.125 20.25 -1.125 20.25 0 18 C0.2275015 16.12943209 0.40962811 14.25314042 0.5625 12.375 C0.64628906 11.37210938 0.73007813 10.36921875 0.81640625 9.3359375 C0.87699219 8.56507812 0.93757813 7.79421875 1 7 C1.33 7 1.66 7 2 7 C2 10.96 2 14.92 2 19 C2.66 19 3.32 19 4 19 C4.24900646 17.06494977 4.47356242 15.12674066 4.6875 13.1875 C4.81511719 12.10855469 4.94273438 11.02960938 5.07421875 9.91796875 C5.30322906 6.98903276 5.30322906 6.98903276 3.51953125 5.23828125 C3.01808594 4.82964844 2.51664062 4.42101562 2 4 C2 3.34 2 2.68 2 2 C1.34 1.34 0.68 0.68 0 0 Z M6 28 C6 31.63 6 35.26 6 39 C6.33 39 6.66 39 7 39 C7 35.37 7 31.74 7 28 C6.67 28 6.34 28 6 28 Z " fill="#F4F0F7" transform="translate(81,65)"/>
<path d="M0 0 C0.66 0 1.32 0 2 0 C2 1.98 2 3.96 2 6 C4.84191143 6.92840426 4.84191143 6.92840426 7.71875 6.4375 C10.98787204 5.81054509 13.53986675 6.63496669 16.75 7.4375 C17.92046875 7.72496094 19.0909375 8.01242188 20.296875 8.30859375 C21.18890625 8.53675781 22.0809375 8.76492187 23 9 C22.67 9.99 22.34 10.98 22 12 C23.32 12.33 24.64 12.66 26 13 C23.78071806 15.90802461 22.07030857 17.95312762 19 20 C19 20.99 19 21.98 19 23 C18.68330179 25.33564933 18.35179197 27.6693782 18 30 C15.69 30.33 13.38 30.66 11 31 C10.67 32.65 10.34 34.3 10 36 C9.01 35.34 8.02 34.68 7 34 C7.55017415 29.52470281 9.26104283 26.74057462 11.8125 23.0625 C12.49957031 22.06347656 13.18664062 21.06445312 13.89453125 20.03515625 C14.58933594 19.03355469 15.28414062 18.03195313 16 17 C17.34165664 15.0054 18.67140182 13.00334692 20 11 C16.74285996 10.16838978 14.23410239 10.00338839 11 11 C8.24658544 13.98942152 6.22358918 16.94320391 4.04296875 20.375 C3.36878906 21.24125 2.69460937 22.1075 2 23 C0.68 23 -0.64 23 -2 23 C-3.77067426 21.10731289 -5.2066092 19.34813194 -6.6875 17.25 C-7.09033203 16.71117188 -7.49316406 16.17234375 -7.90820312 15.6171875 C-9.91382413 12.86239818 -11.66612121 10.44749265 -12 7 C-10.58982699 4.17965397 -8.91174979 4.02527016 -6 2.9375 C-2.74402427 1.88571928 -2.74402427 1.88571928 0 0 Z " fill="#471DC6" transform="translate(166,106)"/>
<path d="M0 0 C2.64 0 5.28 0 8 0 C8.02690104 2.79173055 8.04679053 5.58320348 8.0625 8.375 C8.07087891 9.1690625 8.07925781 9.963125 8.08789062 10.78125 C8.11328125 16.7734375 8.11328125 16.7734375 7 19 C7.99 19.33 8.98 19.66 10 20 C9.01 20 8.02 20 7 20 C7 20.66 7 21.32 7 22 C6.44570312 22.20496094 5.89140625 22.40992187 5.3203125 22.62109375 C4.59585938 22.89050781 3.87140625 23.15992187 3.125 23.4375 C2.40570313 23.70433594 1.68640625 23.97117187 0.9453125 24.24609375 C-1.03648845 24.97916854 -1.03648845 24.97916854 -3 26 C-3.66 25.54625 -4.32 25.0925 -5 24.625 C-9.80353482 22.0230853 -14.90206628 21.40689132 -20.28515625 22.4375 C-24.83210416 23.93331838 -27.40787454 25.85259927 -30 30 C-31.15839043 33.47517129 -31.22801218 36.6727002 -31.31640625 40.29296875 C-31.33718735 40.99899734 -31.35796844 41.70502594 -31.37937927 42.43244934 C-31.44467491 44.68403551 -31.50366647 46.93573662 -31.5625 49.1875 C-31.60570425 50.7155066 -31.64931916 52.24350164 -31.69335938 53.77148438 C-31.80033574 57.51420562 -31.90165922 61.2570423 -32 65 C-32.33 65 -32.66 65 -33 65 C-33 49.49 -33 33.98 -33 18 C-27.72 17.67 -22.44 17.34 -17 17 C-17 14.69 -17 12.38 -17 10 C-16.67 9.67 -16.34 9.34 -16 9 C-15.63239269 6.67182036 -15.29758419 4.3381615 -15 2 C-14.67 2 -14.34 2 -14 2 C-14 7.28 -14 12.56 -14 18 C-9.38 18 -4.76 18 0 18 C0 12.06 0 6.12 0 0 Z " fill="#650ED1" transform="translate(73,94)"/>
<path d="M0 0 C7.92 0 15.84 0 24 0 C24 2.64 24 5.28 24 8 C23.195625 7.814375 22.39125 7.62875 21.5625 7.4375 C20.2940625 7.2209375 20.2940625 7.2209375 19 7 C18.67 7.33 18.34 7.66 18 8 C14.99668982 8.14193337 12.00782866 8.04236378 9 8 C8.67 13.28 8.34 18.56 8 24 C5.36 24 2.72 24 0 24 C0 16.08 0 8.16 0 0 Z " fill="#AE49F6" transform="translate(0,0)"/>
<path d="M0 0 C2.9838283 1.98921886 4.60276841 3.38502568 5.4765625 6.9375 C5.75890933 10.86063492 5.21925086 12.67112371 3 16 C-1.15562097 18.77041398 -3.06667872 18.70476018 -8 18 C-10.43119623 16.12984906 -11.64069173 14.71861655 -13 12 C-13.41314256 7.3521462 -12.78987316 4.75559848 -10 1 C-6.76823243 -0.61588379 -3.49384717 -0.57451407 0 0 Z " fill="#F9F9F8" transform="translate(155,79)"/>
<path d="M0 0 C2.76142665 1.01736771 3.68085371 1.36170741 5 4 C5.13109516 6.20335752 5.20284256 8.41035728 5.24609375 10.6171875 C5.27903608 11.95964184 5.31224766 13.3020896 5.34570312 14.64453125 C5.39307637 16.75988174 5.43750383 18.87520625 5.47680664 20.99072266 C5.51662537 23.03316139 5.56814766 25.07505274 5.62109375 27.1171875 C5.6461499 28.34034668 5.67120605 29.56350586 5.69702148 30.82373047 C5.97993348 33.78963302 6.44585514 35.50108741 8 38 C7.34 38 6.68 38 6 38 C6 37.34 6 36.68 6 36 C4.68 35.67 3.36 35.34 2 35 C2 24.77 2 14.54 2 4 C-0.31 4 -2.62 4 -5 4 C-5.06058594 4.969375 -5.12117188 5.93875 -5.18359375 6.9375 C-5.7890625 16.625 -6.39453125 26.3125 -7 36 C-8.32 36 -9.64 36 -11 36 C-11.09903473 31.51601216 -11.17154483 27.03260708 -11.21972656 22.54785156 C-11.23981599 21.02299915 -11.26709316 19.49822352 -11.30175781 17.97363281 C-11.35039796 15.77910402 -11.37299396 13.58559531 -11.390625 11.390625 C-11.41157227 10.07094727 -11.43251953 8.75126953 -11.45410156 7.39160156 C-11 4 -11 4 -9.19433594 1.56152344 C-6.03583664 -0.68611358 -3.78745739 -0.40579901 0 0 Z " fill="#5402C5" transform="translate(86,124)"/>
<path d="M0 0 C0 0.66 0 1.32 0 2 C-0.6290625 2.09796875 -1.258125 2.1959375 -1.90625 2.296875 C-9.60451314 3.6417523 -16.24947387 5.16313604 -21 11.75 C-21.66 12.8225 -22.32 13.895 -23 15 C-25 13 -25 13 -26.3125 10.0625 C-28.24446627 6.55633899 -29.44727603 5.72134539 -33 4 C-35.89033449 3.50294226 -35.89033449 3.50294226 -38.95703125 3.48828125 C-40.06884766 3.45283203 -41.18066406 3.41738281 -42.32617188 3.38085938 C-43.47666016 3.35830078 -44.62714844 3.33574219 -45.8125 3.3125 C-46.98232422 3.27833984 -48.15214844 3.24417969 -49.35742188 3.20898438 C-52.23818554 3.12667684 -55.11865138 3.05746822 -58 3 C-57.99555878 3.59690643 -57.99111755 4.19381287 -57.98654175 4.80880737 C-57.94239419 11.00516371 -57.91216941 17.20147558 -57.89013672 23.39794922 C-57.88006108 25.71242079 -57.86640025 28.02687959 -57.84912109 30.34130859 C-57.82494135 33.66246693 -57.8135327 36.9834574 -57.8046875 40.3046875 C-57.79436493 41.34430634 -57.78404236 42.38392517 -57.77340698 43.45504761 C-57.77325592 44.41589264 -57.77310486 45.37673767 -57.77294922 46.36669922 C-57.768508 47.21497284 -57.76406677 48.06324646 -57.75949097 48.93722534 C-58 51 -58 51 -60 53 C-60.99 53 -61.98 53 -63 53 C-63 52.34 -63 51.68 -63 51 C-62.01 51 -61.02 51 -60 51 C-60 34.83 -60 18.66 -60 2 C-37.75 2.125 -37.75 2.125 -30.80371094 2.18017578 C-20.43760832 2.22716819 -10.1392171 0 0 0 Z " fill="#5D0BD1" transform="translate(154,62)"/>
<path d="M0 0 C1.56699111 3.13398223 2.5329476 5.62080786 3.4375 8.9375 C5.32665628 15.19189118 6.68085046 18.50590268 12.5625 21.75 C17.6606881 24.14517232 22.40568675 24.86906926 28 25 C28 27.31 28 29.62 28 32 C26.741875 32.020625 25.48375 32.04125 24.1875 32.0625 C23.12595703 32.07990234 23.12595703 32.07990234 22.04296875 32.09765625 C20 32 20 32 17 31 C15.33378384 30.96125079 13.66605828 30.9549714 12 31 C12 29.02 12 27.04 12 25 C9.36 25 6.72 25 4 25 C2.66667905 27.6666419 3.32897967 29.16680303 4 32 C3.34 32 2.68 32 2 32 C1.34 31.01 0.68 30.02 0 29 C-1.32 29 -2.64 29 -4 29 C-4 28.34 -4 27.68 -4 27 C-4.66 26.67 -5.32 26.34 -6 26 C-4.02 25.67 -2.04 25.34 0 25 C0 16.75 0 8.5 0 0 Z " fill="#3E0FC0" transform="translate(100,136)"/>
<path d="M0 0 C0.33 10.56 0.66 21.12 1 32 C-1.31 32 -3.62 32 -6 32 C-7 31 -7 31 -7.11352539 28.04077148 C-7.10828857 26.74727783 -7.10305176 25.45378418 -7.09765625 24.12109375 C-7.0962413 23.4344313 -7.09482635 22.74776886 -7.09336853 22.04029846 C-7.08775479 19.83932199 -7.07520007 17.63844591 -7.0625 15.4375 C-7.05748676 13.94856917 -7.05292355 12.45963676 -7.04882812 10.97070312 C-7.03778093 7.31376925 -7.02050713 3.65689442 -7 0 C-4 -1 -4 -1 0 0 Z " fill="#FCFCFB" transform="translate(99,128)"/>
<path d="M0 0 C1.45823212 -0.0270043 2.91660675 -0.04639787 4.375 -0.0625 C5.18710938 -0.07410156 5.99921875 -0.08570312 6.8359375 -0.09765625 C9 0 9 0 11 1 C11.38749213 3.32495277 11.71758117 5.6599583 12 8 C12.33 8.99 12.66 9.98 13 11 C16.465 10.505 16.465 10.505 20 10 C20 11.65 20 13.3 20 15 C18.88625 14.690625 18.88625 14.690625 17.75 14.375 C14.67669159 13.95591249 13.57213134 14.38050989 11 16 C10.34 15.01 9.68 14.02 9 13 C8.01 13.495 8.01 13.495 7 14 C7.875 10.125 7.875 10.125 9 9 C6.03 8.67 3.06 8.34 0 8 C0 5.36 0 2.72 0 0 Z M3 14 C3.99 14.33 4.98 14.66 6 15 C7.66362417 15.34820041 9.32995171 15.68404492 11 16 C10.71848913 17.31471568 10.42446661 18.62675767 10.125 19.9375 C9.96257812 20.66839844 9.80015625 21.39929688 9.6328125 22.15234375 C9 24 9 24 7 25 C4.6670134 25.04022391 2.33293334 25.04320247 0 25 C0 22.03 0 19.06 0 16 C0.99 16 1.98 16 3 16 C3 15.34 3 14.68 3 14 Z " fill="#F3ECF8" transform="translate(108,76)"/>
<path d="M0 0 C3.97814596 3.59927492 6.33786227 6.84468098 6.94482422 12.19335938 C7.0179001 15.40869835 6.9742027 18.59795113 6.875 21.8125 C6.85695313 22.92560547 6.83890625 24.03871094 6.8203125 25.18554688 C6.77343319 27.91626646 6.70782819 30.64517386 6.625 33.375 C6.295 33.375 5.965 33.375 5.625 33.375 C5.4275123 30.29222144 5.24376668 27.2087715 5.0625 24.125 C5.00642578 23.25230469 4.95035156 22.37960938 4.89257812 21.48046875 C4.84423828 20.63613281 4.79589844 19.79179687 4.74609375 18.921875 C4.67539673 17.75930176 4.67539673 17.75930176 4.60327148 16.57324219 C4.62530766 14.34387415 4.9946103 12.50601433 5.625 10.375 C3.315 10.375 1.005 10.375 -1.375 10.375 C-1.375 20.275 -1.375 30.175 -1.375 40.375 C-1.705 40.375 -2.035 40.375 -2.375 40.375 C-2.40005615 39.47668457 -2.4251123 38.57836914 -2.45092773 37.65283203 C-2.54598693 34.32425131 -2.64522421 30.99585006 -2.74731445 27.66748047 C-2.79066231 26.2261238 -2.83233752 24.78471582 -2.87231445 23.34326172 C-2.93002088 21.27295459 -2.99371371 19.20290568 -3.05859375 17.1328125 C-3.09525146 15.8864502 -3.13190918 14.64008789 -3.16967773 13.35595703 C-3.17789479 10.44863058 -3.17789479 10.44863058 -4.375 8.375 C-5.365 7.715 -6.355 7.055 -7.375 6.375 C-6.715 6.375 -6.055 6.375 -5.375 6.375 C-5.045 5.055 -4.715 3.735 -4.375 2.375 C-6.81257413 2.34801578 -9.24984915 2.32816901 -11.6875 2.3125 C-12.37779297 2.30412109 -13.06808594 2.29574219 -13.77929688 2.28710938 C-16.9233025 2.27192094 -19.36920019 2.37306673 -22.375 3.375 C-22.705 4.365 -23.035 5.355 -23.375 6.375 C-23.705 5.715 -24.035 5.055 -24.375 4.375 C-17.46632054 -3.34646528 -9.27319035 -4.46486943 0 0 Z " fill="#EAE0F7" transform="translate(93.375,117.625)"/>
<path d="M0 0 C0.99 0.66 1.98 1.32 3 2 C3 2.66 3 3.32 3 4 C1.68 4 0.36 4 -1 4 C-2.34164079 4.2981424 -3.67851173 4.62243192 -5 5 C-4.938125 5.94875 -4.87625 6.8975 -4.8125 7.875 C-4.874375 8.90625 -4.93625 9.9375 -5 11 C-5.99 11.66 -6.98 12.32 -8 13 C-7.51515724 17.64586892 -7.51515724 17.64586892 -6 22 C-6.28112064 24.00800456 -6.61067967 26.01014051 -7 28 C-6.34 28.33 -5.68 28.66 -5 29 C-5.33 30.98 -5.66 32.96 -6 35 C-6.66 35 -7.32 35 -8 35 C-8.33 35.66 -8.66 36.32 -9 37 C-9.66 36.67 -10.32 36.34 -11 36 C-11.04944705 31.49765627 -11.08574161 26.9954707 -11.10986328 22.49291992 C-11.11991935 20.96131639 -11.133566 19.42973205 -11.15087891 17.89819336 C-11.17514498 15.69640364 -11.18648688 13.49486781 -11.1953125 11.29296875 C-11.20563507 10.60849167 -11.21595764 9.92401459 -11.22659302 9.21879578 C-11.22745382 5.56938339 -11.08567666 4.12851498 -9 1 C-5.74531799 -0.084894 -3.4103976 -0.21314985 0 0 Z " fill="#5303C6" transform="translate(61,124)"/>
<path d="M0 0 C4.50545697 1.95012317 6.60635152 4.80661582 9 9 C9.8125 11.9375 9.8125 11.9375 10 14 C6.66666667 14 3.33333333 14 0 14 C-1.11375 14.33 -2.2275 14.66 -3.375 15 C-7 16 -7 16 -10 16 C-10 11.97660301 -8.58855707 11.06539653 -6 8 C-4.90895894 6.56834125 -3.82591925 5.13055757 -2.75 3.6875 C-1.96882812 2.64142578 -1.96882812 2.64142578 -1.171875 1.57421875 C-0.78515625 1.05472656 -0.3984375 0.53523437 0 0 Z " fill="#4032C7" transform="translate(165,146)"/>
<path d="M0 0 C4.32036821 2.28725376 7.05893629 4.47085134 9 9 C9.58496307 12.92760919 9.18285914 14.65459941 7.3125 18.1875 C4.20635319 21.96524611 1.93140988 23.71234321 -2.9375 24.4375 C-6.83530088 23.8806713 -8.93989651 22.43417323 -12 20 C-14.8288298 15.7567553 -14.65268001 11.98265471 -14 7 C-10.62437586 1.21321576 -6.63336797 -0.79600416 0 0 Z M-9.4375 4.875 C-12.05028531 8.42838802 -12.34646971 10.58251124 -12 15 C-10.23526445 18.71156874 -10.23526445 18.71156874 -7 21 C-1.12435706 21.59420843 -1.12435706 21.59420843 4 19 C6.21925086 15.67112371 6.75890933 13.86063492 6.4765625 9.9375 C5.60276841 6.38502568 3.9838283 4.98921886 1 3 C-3.03208612 2.09777083 -6.07139579 2.28568907 -9.4375 4.875 Z " fill="#5A26C8" transform="translate(154,76)"/>
<path d="M0 0 C2.97 0 5.94 0 9 0 C8.67 5.94 8.34 11.88 8 18 C5.36 18 2.72 18 0 18 C0 12.06 0 6.12 0 0 Z " fill="#801DE1" transform="translate(73,64)"/>
<path d="M0 0 C2.31 0 4.62 0 7 0 C7 5.28 7 10.56 7 16 C9.64 16 12.28 16 15 16 C15 18.31 15 20.62 15 23 C9.84983559 21.92704908 5.83198994 19.45155505 2.66015625 15.20703125 C-0.16724734 10.16600208 -0.47432864 5.69194371 0 0 Z " fill="#4605C0" transform="translate(1,200)"/>
<path d="M0 0 C0.33 0 0.66 0 1 0 C1 13.2 1 26.4 1 40 C10.9 39.505 10.9 39.505 21 39 C19.515 38.505 19.515 38.505 18 38 C18.62759865 35.07120629 19.58622659 32.63904371 21 30 C20.34 29.67 19.68 29.34 19 29 C19.66 29 20.32 29 21 29 C21.33 28.01 21.66 27.02 22 26 C22.12375 26.86625 22.12375 26.86625 22.25 27.75 C23.48080747 31.44242241 25.90673592 33.39263106 29.25 35.25 C29.8275 35.4975 30.405 35.745 31 36 C26.1335728 40.19053454 23.12797843 41.13446499 16.796875 41.09765625 C15.91354492 41.09515869 15.03021484 41.09266113 14.12011719 41.09008789 C13.00797852 41.08098389 11.89583984 41.07187988 10.75 41.0625 C7.2025 41.041875 3.655 41.02125 0 41 C0 27.47 0 13.94 0 0 Z " fill="#EBE5F5" transform="translate(96,71)"/>
<path d="M0 0 C2.97 0.495 2.97 0.495 6 1 C2.375 6.75 2.375 6.75 -1 9 C-1 9.99 -1 10.98 -1 12 C-1.31669821 14.33564933 -1.64820803 16.6693782 -2 19 C-4.31 19.33 -6.62 19.66 -9 20 C-9.33 21.65 -9.66 23.3 -10 25 C-10.99 24.34 -11.98 23.68 -13 23 C-12.44982585 18.52470281 -10.73895717 15.74057462 -8.1875 12.0625 C-7.15689453 10.56396484 -7.15689453 10.56396484 -6.10546875 9.03515625 C-5.06326172 7.53275391 -5.06326172 7.53275391 -4 6 C-2.65834336 4.0054 -1.32859818 2.00334692 0 0 Z " fill="#452DC7" transform="translate(186,117)"/>
<path d="M0 0 C1.32 0 2.64 0 4 0 C4 15.84 4 31.68 4 48 C3.67 48 3.34 48 3 48 C3 42.72 3 37.44 3 32 C2.01 32 1.02 32 0 32 C-0.3690205 15.1070615 -0.3690205 15.1070615 2 8 C1.34 8 0.68 8 0 8 C0 5.36 0 2.72 0 0 Z " fill="#8633DF" transform="translate(56,64)"/>
<path d="M0 0 C2 4 2 4 2.75390625 5.9296875 C5.26422003 11.96899312 9.15982338 15.15377565 15 18 C17.67701298 18.67393789 17.67701298 18.67393789 20 19 C20 19.33 20 19.66 20 20 C13.4 20 6.8 20 0 20 C0 13.4 0 6.8 0 0 Z " fill="#F1ECF8" transform="translate(0,205)"/>
<path d="M0 0 C6.27 0 12.54 0 19 0 C11.5 5 11.5 5 8 5 C7.67 5.99 7.34 6.98 7 8 C6.34 8 5.68 8 5 8 C3.50859979 11.62197194 2.2125738 15.27566618 1 19 C0.67 19 0.34 19 0 19 C0 12.73 0 6.46 0 0 Z " fill="#F8F3FA" transform="translate(0,0)"/>
<path d="M0 0 C0.33 0 0.66 0 1 0 C1 6.6 1 13.2 1 20 C-5.27 20 -11.54 20 -18 20 C-16.68 19.34 -15.36 18.68 -14 18 C-13.13375 17.46375 -12.2675 16.9275 -11.375 16.375 C-9 15 -9 15 -7 15 C-7 14.34 -7 13.68 -7 13 C-6.34 13 -5.68 13 -5 13 C-3.49439503 10.14589666 -2.36783204 7.31875358 -1.375 4.25 C-1.11460937 3.45078125 -0.85421875 2.6515625 -0.5859375 1.828125 C-0.39257812 1.22484375 -0.19921875 0.6215625 0 0 Z " fill="#F3F7FA" transform="translate(224,205)"/>
<path d="M0 0 C2.64 0 5.28 0 8 0 C8 3.3 8 6.6 8 10 C3.126739 11.5912689 -0.80790596 12.21192221 -6 12 C-5.67 13.32 -5.34 14.64 -5 16 C-5.99 16 -6.98 16 -8 16 C-8 13.36 -8 10.72 -8 8 C-4.7 7.67 -1.4 7.34 2 7 C1.01 5.68 0.02 4.36 -1 3 C-0.67 2.01 -0.34 1.02 0 0 Z " fill="#474FCE" transform="translate(184,152)"/>
<path d="M0 0 C5.94 0.33 11.88 0.66 18 1 C16.68 1.33 15.36 1.66 14 2 C14.99 2.99 15.98 3.98 17 5 C16.01 5.495 16.01 5.495 15 6 C14.67 6.99 14.34 7.98 14 9 C11.03 9 8.06 9 5 9 C5 8.01 5 7.02 5 6 C2.69 5.67 0.38 5.34 -2 5 C-2.33 4.01 -2.66 3.02 -3 2 C-2.01 2 -1.02 2 0 2 C0 1.34 0 0.68 0 0 Z " fill="#FDFDFB" transform="translate(114,151)"/>
<path d="M0 0 C6.27 0 12.54 0 19 0 C19 5.94 19 11.88 19 18 C17.88083812 16.32125718 16.78343947 14.62550202 15.7734375 12.87890625 C12.75261699 7.8751449 10.28759097 4.98132412 4.83203125 2.75390625 C3 2 3 2 0 0 Z " fill="#F9F6FA" transform="translate(206,0)"/>
<path d="M0 0 C0.66 0.66 1.32 1.32 2 2 C1.01 4.64 0.02 7.28 -1 10 C-0.34 10 0.32 10 1 10 C1.3403125 9.0409375 1.3403125 9.0409375 1.6875 8.0625 C3 6 3 6 5.58203125 5.37109375 C6.37996094 5.24863281 7.17789063 5.12617188 8 5 C7.04454634 6.46022163 6.08553322 7.91811468 5.125 9.375 C4.59132812 10.18710938 4.05765625 10.99921875 3.5078125 11.8359375 C2 14 2 14 0 16 C-2.3828125 16.1953125 -2.3828125 16.1953125 -5.125 16.125 C-6.49011719 16.09792969 -6.49011719 16.09792969 -7.8828125 16.0703125 C-8.58148438 16.04710937 -9.28015625 16.02390625 -10 16 C-6.93978541 10.46807362 -3.5552157 5.22616707 0 0 Z " fill="#F5F5F6" transform="translate(155,144)"/>
<path d="M0 0 C2.64 0 5.28 0 8 0 C6.85569823 3.87302138 5.76679902 7.00263439 3 10 C2.34 10 1.68 10 1 10 C1 10.66 1 11.32 1 12 C-5.75 16 -5.75 16 -8 16 C-8 13.36 -8 10.72 -8 8 C-3.545 7.505 -3.545 7.505 1 7 C0.835 6.21625 0.67 5.4325 0.5 4.625 C0 2 0 2 0 0 Z " fill="#447CD5" transform="translate(216,208)"/>
<path d="M0 0 C3.96 0.33 7.92 0.66 12 1 C12 1.33 12 1.66 12 2 C9.36 2 6.72 2 4 2 C4 4.64 4 7.28 4 10 C6.97 10 9.94 10 13 10 C13.33 10.66 13.66 11.32 14 12 C12.8125 13.5 12.8125 13.5 11 15 C8.3125 15.1875 8.3125 15.1875 6 15 C6 15.66 6 16.32 6 17 C5.34 17 4.68 17 4 17 C3.67 15.68 3.34 14.36 3 13 C2.34 13.99 1.68 14.98 1 16 C1.020625 15.05125 1.04125 14.1025 1.0625 13.125 C1.22551826 10.09333717 1.22551826 10.09333717 0 8 C0.66 8 1.32 8 2 8 C2 5.69 2 3.38 2 1 C1.34 0.67 0.68 0.34 0 0 Z " fill="#F6F4F5" transform="translate(104,74)"/>
<path d="M0 0 C0.99 0.33 1.98 0.66 3 1 C3 1.99 3 2.98 3 4 C3.66 4 4.32 4 5 4 C5.01981934 4.82725586 5.03963867 5.65451172 5.06005859 6.50683594 C5.15531212 10.25487806 5.26499109 14.00236317 5.375 17.75 C5.4059375 19.05195313 5.436875 20.35390625 5.46875 21.6953125 C5.50742188 22.94570312 5.54609375 24.19609375 5.5859375 25.484375 C5.6173584 26.63647461 5.6487793 27.78857422 5.68115234 28.97558594 C5.98401175 31.84834422 6.5088238 33.56179611 8 36 C7.34 36 6.68 36 6 36 C6 35.34 6 34.68 6 34 C4.68 33.67 3.36 33.34 2 33 C2 22.77 2 12.54 2 2 C1.34 2 0.68 2 0 2 C0 1.34 0 0.68 0 0 Z " fill="#4801C2" transform="translate(86,126)"/>
<path d="M0 0 C1.64767247 0.28109113 3.29313145 0.57518526 4.9375 0.875 C5.85402344 1.03742188 6.77054688 1.19984375 7.71484375 1.3671875 C8.46894531 1.57601562 9.22304688 1.78484375 10 2 C11 4 11 4 12 7 C8.68629 9.20914 7.6553979 9.22481553 3.8125 9.125 C2.91144531 9.10695312 2.01039062 9.08890625 1.08203125 9.0703125 C0.39496094 9.04710937 -0.29210938 9.02390625 -1 9 C-1 7.68 -1 6.36 -1 5 C-0.01 4.67 0.98 4.34 2 4 C1.01 3.67 0.02 3.34 -1 3 C-0.67 2.01 -0.34 1.02 0 0 Z " fill="#4F03C3" transform="translate(41,159)"/>
<path d="M0 0 C0.99 0.66 1.98 1.32 3 2 C3 2.66 3 3.32 3 4 C1.68 4 0.36 4 -1 4 C-2.34164079 4.2981424 -3.67851173 4.62243192 -5 5 C-5 6.98 -5 8.96 -5 11 C-5.99 11.33 -6.98 11.66 -8 12 C-10.60691842 9.39308158 -10.70416963 7.62392206 -11 4 C-8.0167091 -0.47493635 -5.10001107 -0.31875069 0 0 Z " fill="#5D0DCB" transform="translate(61,124)"/>
<path d="M0 0 C4.29 0 8.58 0 13 0 C13 5.61 13 11.22 13 17 C12.67 17 12.34 17 12 17 C12 13.04 12 9.08 12 5 C8.37 5 4.74 5 1 5 C0.67 3.35 0.34 1.7 0 0 Z " fill="#F4EDFA" transform="translate(60,65)"/>
<path d="M0 0 C6.0546875 -0.1953125 6.0546875 -0.1953125 8 0 C8.66 0.66 9.32 1.32 10 2 C9.75 4.5625 9.75 4.5625 9 7 C6.04335481 8.4783226 3.25770263 8.06032783 0 8 C0 5.36 0 2.72 0 0 Z " fill="#621FCB" transform="translate(108,93)"/>
<path d="M0 0 C6.38453501 0.36833856 6.38453501 0.36833856 9.375 3.4375 C11.82670597 7.30365172 12.44509305 9.37103229 12 14 C9.96006092 17.6578218 8.49580738 19.66946174 5 22 C2.3125 22.125 2.3125 22.125 0 22 C0.5775 21.5875 1.155 21.175 1.75 20.75 C2.4925 20.1725 3.235 19.595 4 19 C4.7425 18.443125 5.485 17.88625 6.25 17.3125 C8.46593312 14.38430266 8.57768921 12.4955173 8.390625 8.89453125 C7.78554376 5.95988726 6.35075576 4.76306682 4 3 C3.2575 2.4225 2.515 1.845 1.75 1.25 C1.1725 0.8375 0.595 0.425 0 0 Z " fill="#571EC7" transform="translate(151,77)"/>
<path d="M0 0 C0.33 0 0.66 0 1 0 C1 7.26 1 14.52 1 22 C1.66 22 2.32 22 3 22 C3 19.36 3 16.72 3 14 C3.66 14 4.32 14 5 14 C4.67 19.28 4.34 24.56 4 30 C2.68 30 1.36 30 0 30 C0 20.1 0 10.2 0 0 Z " fill="#4401C7" transform="translate(75,130)"/>
<path d="M0 0 C0 0.66 0 1.32 0 2 C-1.26457031 2.06058594 -2.52914062 2.12117188 -3.83203125 2.18359375 C-5.49219871 2.26800904 -7.15235437 2.35265655 -8.8125 2.4375 C-9.64587891 2.47681641 -10.47925781 2.51613281 -11.33789062 2.55664062 C-12.14033203 2.59853516 -12.94277344 2.64042969 -13.76953125 2.68359375 C-14.50792236 2.72025146 -15.24631348 2.75690918 -16.00708008 2.79467773 C-18.207495 2.94842141 -18.207495 2.94842141 -21 4 C-21.33 4.99 -21.66 5.98 -22 7 C-22.33 6.34 -22.66 5.68 -23 5 C-16.90335219 -1.8139005 -8.57289238 -4.28644619 0 0 Z " fill="#F1EAF5" transform="translate(92,117)"/>
<path d="M0 0 C1.92753182 3.85506365 2.2330787 4.7639723 1.9765625 8.765625 C1.89921875 10.09980469 1.89921875 10.09980469 1.8203125 11.4609375 C1.75585938 12.38132813 1.69140625 13.30171875 1.625 14.25 C1.56828125 15.18585938 1.5115625 16.12171875 1.453125 17.0859375 C1.31197212 19.39143448 1.1605965 21.69578928 1 24 C1.99 24.33 2.98 24.66 4 25 C3.67 25.66 3.34 26.32 3 27 C3.27942455 28.67654729 3.60828247 30.34608154 4 32 C3.34 32 2.68 32 2 32 C1.34 31.01 0.68 30.02 0 29 C-1.32 29 -2.64 29 -4 29 C-4 28.34 -4 27.68 -4 27 C-4.66 26.67 -5.32 26.34 -6 26 C-4.02 25.67 -2.04 25.34 0 25 C0 16.75 0 8.5 0 0 Z " fill="#3604B3" transform="translate(100,136)"/>
<path d="M0 0 C0.66 0 1.32 0 2 0 C2 5.28 2 10.56 2 16 C-0.64 16 -3.28 16 -6 16 C-6 11.05 -6 6.1 -6 1 C-5.67 1 -5.34 1 -5 1 C-5 5.62 -5 10.24 -5 15 C-3.68 15 -2.36 15 -1 15 C-1.09539062 14.25234375 -1.19078125 13.5046875 -1.2890625 12.734375 C-1.39992188 11.74953125 -1.51078125 10.7646875 -1.625 9.75 C-1.74101563 8.77546875 -1.85703125 7.8009375 -1.9765625 6.796875 C-2.00112537 3.86570607 -1.5312717 2.45471036 0 0 Z " fill="#7617D6" transform="translate(79,66)"/>
<path d="M0 0 C0.33 0 0.66 0 1 0 C1.01981934 0.83772949 1.03963867 1.67545898 1.06005859 2.53857422 C1.13810612 5.64365834 1.22479635 8.74834539 1.31738281 11.85302734 C1.37454036 13.85886971 1.42168596 15.86498918 1.46875 17.87109375 C1.50742188 19.12792969 1.54609375 20.38476562 1.5859375 21.6796875 C1.6173584 22.84226074 1.6487793 24.00483398 1.68115234 25.20263672 C1.72157869 28.13656482 1.72157869 28.13656482 4 30 C5.98821313 30.39764263 7.98944339 30.73775349 10 31 C9.67 31.66 9.34 32.32 9 33 C5.45134864 33.08065117 2.41610225 32.94314127 -1 32 C-1.0247345 27.92489562 -1.04287637 23.84982036 -1.05493164 19.7746582 C-1.05995777 18.38858275 -1.06677966 17.00251259 -1.07543945 15.61645508 C-1.08758018 13.62323285 -1.09271021 11.62997181 -1.09765625 9.63671875 C-1.10289307 8.43748779 -1.10812988 7.23825684 -1.11352539 6.00268555 C-1 3 -1 3 0 0 Z " fill="#4501C1" transform="translate(65,130)"/>
<path d="M0 0 C2.97 0 5.94 0 9 0 C9.625 2.375 9.625 2.375 10 5 C8 7 8 7 6.0546875 7.1953125 C4.03645833 7.13020833 2.01822917 7.06510417 0 7 C0 4.69 0 2.38 0 0 Z " fill="#6315CD" transform="translate(108,76)"/>
<path d="M0 0 C2.875 -0.1875 2.875 -0.1875 6 0 C6.66 0.99 7.32 1.98 8 3 C7.195625 3.12375 6.39125 3.2475 5.5625 3.375 C4.2940625 3.684375 4.2940625 3.684375 3 4 C2.67 4.66 2.34 5.32 2 6 C2.66 6.33 3.32 6.66 4 7 C1.24921116 7.91692961 -0.35948913 8.10886083 -3.1875 8.0625 C-5.0746875 8.0315625 -5.0746875 8.0315625 -7 8 C-7.33 7.01 -7.66 6.02 -8 5 C-7.34 5 -6.68 5 -6 5 C-6 4.34 -6 3.68 -6 3 C-2.535 2.505 -2.535 2.505 1 2 C0.67 1.34 0.34 0.68 0 0 Z " fill="#FAFCF5" transform="translate(155,68)"/>
<path d="M0 0 C2.64 0 5.28 0 8 0 C7.01 0.66 6.02 1.32 5 2 C5.185625 2.7425 5.37125 3.485 5.5625 4.25 C5.99203108 6.94990963 5.85122974 8.44631077 5 11 C5.99 11.33 6.98 11.66 8 12 C5.36 12 2.72 12 0 12 C0 8 0 4 0 0 Z " fill="#ECE5F4" transform="translate(73,82)"/>
<path d="M0 0 C4.29 0 8.58 0 13 0 C12.34 1.32 11.68 2.64 11 4 C13.64 3.67 16.28 3.34 19 3 C18.01 3.66 17.02 4.32 16 5 C15.0925 5.61875 14.185 6.2375 13.25 6.875 C10 8 10 8 8.0546875 7.30078125 C6.31164166 6.29517788 4.64855987 5.15399191 3 4 C3.99 3.34 4.98 2.68 6 2 C3.03 1.505 3.03 1.505 0 1 C0 0.67 0 0.34 0 0 Z " fill="#5A11C8" transform="translate(60,112)"/>
<path d="M0 0 C0.33 0 0.66 0 1 0 C1 6.93 1 13.86 1 21 C-0.98 21 -2.96 21 -5 21 C-3 15 -3 15 -1.9375 12.1875 C-0.75057735 8.15196299 -0.35299238 4.18017288 0 0 Z " fill="#4917CA" transform="translate(175,83)"/>
<path d="M0 0 C2.475 0.495 2.475 0.495 5 1 C5.33 3.97 5.66 6.94 6 10 C5.01 10.33 4.02 10.66 3 11 C3 10.34 3 9.68 3 9 C2.01 9.33 1.02 9.66 0 10 C0 6.7 0 3.4 0 0 Z " fill="#FDFDFA" transform="translate(104,127)"/>
<path d="M0 0 C5.16287879 0.35606061 5.16287879 0.35606061 7.625 2.25 C8.375 4.375 8.375 4.375 8.625 6.25 C7.965 6.25 7.305 6.25 6.625 6.25 C6.295 5.26 5.965 4.27 5.625 3.25 C4.635 2.92 3.645 2.59 2.625 2.25 C2.625 2.91 2.625 3.57 2.625 4.25 C1.490625 4.37375 0.35625 4.4975 -0.8125 4.625 C-2.5759375 4.934375 -2.5759375 4.934375 -4.375 5.25 C-4.705 5.91 -5.035 6.57 -5.375 7.25 C-6.035 6.92 -6.695 6.59 -7.375 6.25 C-4.61796675 0.34207161 -4.61796675 0.34207161 0 0 Z " fill="#5711C3" transform="translate(82.375,123.75)"/>
<path d="M0 0 C9.41002278 -0.3690205 9.41002278 -0.3690205 14 2 C14 2.99 14 3.98 14 5 C11.6875 5.625 11.6875 5.625 9 6 C8.01 5.34 7.02 4.68 6 4 C4.0103005 3.60986284 2.00980131 3.26797351 0 3 C0 2.01 0 1.02 0 0 Z " fill="#5A11CA" transform="translate(200,1)"/>
<path d="M0 0 C0.33 0 0.66 0 1 0 C1 2.64 1 5.28 1 8 C1.99 8 2.98 8 4 8 C4 10.97 4 13.94 4 17 C4.99 17.33 5.98 17.66 7 18 C4.125 18.125 4.125 18.125 1 18 C0.34 17.34 -0.32 16.68 -1 16 C-0.34 14.68 0.32 13.36 1 12 C0.67 11.67 0.34 11.34 0 11 C-0.07226502 9.14712498 -0.0838122 7.29166122 -0.0625 5.4375 C-0.05347656 4.42558594 -0.04445313 3.41367188 -0.03515625 2.37109375 C-0.02355469 1.58863281 -0.01195313 0.80617188 0 0 Z " fill="#6209CD" transform="translate(76,96)"/>
<path d="M0 0 C2.64 0 5.28 0 8 0 C8.66 2.31 9.32 4.62 10 7 C4.58461538 7.36923077 4.58461538 7.36923077 1.625 5.5 C1.08875 5.005 0.5525 4.51 0 4 C1.32 4 2.64 4 4 4 C4 3.34 4 2.68 4 2 C2.68 1.67 1.36 1.34 0 1 C0 0.67 0 0.34 0 0 Z " fill="#EEE8F5" transform="translate(147,64)"/>
<path d="M0 0 C0.495 0.33 0.99 0.66 1.5 1 C-0.5 3 -0.5 3 -3.125 3.125 C-3.90875 3.08375 -4.6925 3.0425 -5.5 3 C-5.5 2.34 -5.5 1.68 -5.5 1 C-7.48 1 -9.46 1 -11.5 1 C-11.5 1.66 -11.5 2.32 -11.5 3 C-13.15 2.67 -14.8 2.34 -16.5 2 C-11.4157221 -1.3895186 -5.72327161 -2.28930864 0 0 Z " fill="#E7DCF3" transform="translate(128.5,116)"/>
<path d="M0 0 C0.33 0 0.66 0 1 0 C1.01981934 0.73637695 1.03963867 1.47275391 1.06005859 2.23144531 C1.15537828 5.57132056 1.26502996 8.91057639 1.375 12.25 C1.4059375 13.40886719 1.436875 14.56773437 1.46875 15.76171875 C1.50742188 16.87675781 1.54609375 17.99179688 1.5859375 19.140625 C1.6173584 20.16704102 1.6487793 21.19345703 1.68115234 22.25097656 C1.99636625 24.96867073 2.61032351 26.66924435 4 29 C3.34 29 2.68 29 2 29 C2 28.34 2 27.68 2 27 C0.68 26.67 -0.64 26.34 -2 26 C-2 25.01 -2 24.02 -2 23 C-1.34 23 -0.68 23 0 23 C0 15.41 0 7.82 0 0 Z " fill="#3B03BB" transform="translate(90,133)"/>
<path d="M0 0 C2.31 0 4.62 0 7 0 C6.67 2.97 6.34 5.94 6 9 C2.91910327 6.22719294 1.31224548 3.93673644 0 0 Z " fill="#4239C7" transform="translate(177,144)"/>
<path d="M0 0 C-0.33 0.99 -0.66 1.98 -1 3 C-3.0154697 3.45510606 -5.03172383 3.90758058 -7.0546875 4.328125 C-9.31200124 4.90671487 -9.31200124 4.90671487 -11 7.625 C-11.33 8.40875 -11.66 9.1925 -12 10 C-12.66 9.01 -13.32 8.02 -14 7 C-9.72556521 1.19898136 -7.23234831 -0.32874311 0 0 Z " fill="#5C24C7" transform="translate(154,76)"/>
<path d="M0 0 C1.66611905 -0.042721 3.33382885 -0.04063832 5 0 C6 1 6 1 6.09765625 3.06640625 C6.08605469 3.89011719 6.07445312 4.71382813 6.0625 5.5625 C6.05347656 6.38878906 6.04445312 7.21507813 6.03515625 8.06640625 C6.01775391 9.02353516 6.01775391 9.02353516 6 10 C5.34 10 4.68 10 4 10 C3.32845067 8.71086513 2.66291141 7.41859796 2 6.125 C1.62875 5.40570313 1.2575 4.68640625 0.875 3.9453125 C0 2 0 2 0 0 Z " fill="#5315CA" transform="translate(170,72)"/>
<path d="M0 0 C4.95 0.99 4.95 0.99 10 2 C9.67 2.66 9.34 3.32 9 4 C6.69 4 4.38 4 2 4 C2.33 5.32 2.66 6.64 3 8 C2.01 8 1.02 8 0 8 C0 5.36 0 2.72 0 0 Z " fill="#3C41C9" transform="translate(176,160)"/>
<path d="M0 0 C5.51745357 0.48398716 10.6555011 1.5684378 16 3 C15.01 4.485 15.01 4.485 14 6 C14 5.34 14 4.68 14 4 C13.21753906 4 12.43507812 4 11.62890625 4 C7.75260417 4 3.87630208 4 0 4 C-0.33 3.01 -0.66 2.02 -1 1 C-0.67 0.67 -0.34 0.34 0 0 Z " fill="#3A15C1" transform="translate(173,112)"/>
<path d="M0 0 C0.97608217 2.92824652 1.08226668 4.95613276 1 8 C-0.66611905 8.042721 -2.33382885 8.04063832 -4 8 C-5 7 -5 7 -5.0625 4.4375 C-5.041875 3.633125 -5.02125 2.82875 -5 2 C-3.35 1.34 -1.7 0.68 0 0 Z " fill="#F5EFF7" transform="translate(46,152)"/>
<path d="M0 0 C1.33998047 0.06960937 1.33998047 0.06960937 2.70703125 0.140625 C3.60808594 0.17671875 4.50914062 0.2128125 5.4375 0.25 C6.46810547 0.31960937 6.46810547 0.31960937 7.51953125 0.390625 C6.19953125 2.700625 4.87953125 5.010625 3.51953125 7.390625 C2.19953125 6.070625 0.87953125 4.750625 -0.48046875 3.390625 C0.83953125 3.060625 2.15953125 2.730625 3.51953125 2.390625 C-0.10575443 2.18922024 -2.34548583 2.53285735 -5.48046875 4.390625 C-3.17521711 0.50003419 -3.17521711 0.50003419 0 0 Z " fill="#EFEAF9" transform="translate(179.48046875,115.609375)"/>
<path d="M0 0 C4.62 0.66 9.24 1.32 14 2 C13.01 2.495 13.01 2.495 12 3 C12 3.66 12 4.32 12 5 C3.42857143 5.28571429 3.42857143 5.28571429 0 3 C0 2.01 0 1.02 0 0 Z " fill="#440EC9" transform="translate(142,110)"/>
<path d="M0 0 C6.6 0 13.2 0 20 0 C18.35 1.65 16.7 3.3 15 5 C14.195625 4.525625 13.39125 4.05125 12.5625 3.5625 C8.33060071 1.70640382 4.56827922 1.29440022 0 1 C0 0.67 0 0.34 0 0 Z " fill="#600DCB" transform="translate(112,64)"/>
<path d="M0 0 C0.28875 0.639375 0.5775 1.27875 0.875 1.9375 C1.82823451 4.15206079 1.82823451 4.15206079 4 5 C4 7.31 4 9.62 4 12 C4.66 12 5.32 12 6 12 C6 12.99 6 13.98 6 15 C4.68 14.67 3.36 14.34 2 14 C2 13.01 2 12.02 2 11 C1.67958603 8.39719432 1.67958603 8.39719432 1 6 C0.34 5.67 -0.32 5.34 -1 5 C-0.67 3.35 -0.34 1.7 0 0 Z " fill="#4F0DBB" transform="translate(4,204)"/>
<path d="M0 0 C2.68276017 2.40760528 4.7038277 4.22254772 6 7.625 C6 10 6 10 4.5625 11.8125 C4.046875 12.204375 3.53125 12.59625 3 13 C1.875 8.25 1.875 8.25 3 6 C2.34 6 1.68 6 1 6 C0.67 4.02 0.34 2.04 0 0 Z " fill="#4524CB" transform="translate(153,130)"/>
<path d="M0 0 C-3 2 -3 2 -6 2 C-6.33 2.99 -6.66 3.98 -7 5 C-9.64 5 -12.28 5 -15 5 C-11.10278277 0.2367345 -5.84721872 -0.27843899 0 0 Z " fill="#ECDEF4" transform="translate(61,115)"/>
<path d="M0 0 C2.475 0.99 2.475 0.99 5 2 C5 3.32 5 4.64 5 6 C3.02 6 1.04 6 -1 6 C-1.33 5.01 -1.66 4.02 -2 3 C-1.34 2.34 -0.68 1.68 0 1 C0 0.67 0 0.34 0 0 Z " fill="#FCFDF9" transform="translate(4,219)"/>
<path d="M0 0 C2 1 2 1 2 1 Z M-8 1 C-5.36 1 -2.72 1 0 1 C0.66 2.98 1.32 4.96 2 7 C1.34 7 0.68 7 0 7 C-0.66 6.01 -1.32 5.02 -2 4 C-3.32 4 -4.64 4 -6 4 C-6 3.34 -6 2.68 -6 2 C-6.66 1.67 -7.32 1.34 -8 1 Z " fill="#4308C2" transform="translate(102,161)"/>
<path d="M0 0 C0.66 0.33 1.32 0.66 2 1 C1.67 5.95 1.34 10.9 1 16 C-0.90521123 12.18957754 -1.25371444 10.90806147 -1.1875 6.875 C-1.17783203 5.57175781 -1.17783203 5.57175781 -1.16796875 4.2421875 C-1 2 -1 2 0 0 Z " fill="#4006C0" transform="translate(101,124)"/>
<path d="M0 0 C3.96 0 7.92 0 12 0 C12 0.33 12 0.66 12 1 C10.35 1.33 8.7 1.66 7 2 C7 3.32 7 4.64 7 6 C5.68 6 4.36 6 3 6 C2.814375 5.071875 2.814375 5.071875 2.625 4.125 C2.12802644 1.80879168 2.12802644 1.80879168 0 0 Z " fill="#F7EBF6" transform="translate(81,65)"/>
<path d="M0 0 C2.93200474 2.85276137 5.64315404 5.65079784 8 9 C4.125 7.125 4.125 7.125 3 6 C2.01 6.99 1.02 7.98 0 9 C-1.125 2.25 -1.125 2.25 0 0 Z " fill="#460EBF" transform="translate(130,100)"/>
<path d="M0 0 C2.0625 0.4375 2.0625 0.4375 4 1 C4 2.98 4 4.96 4 7 C2.35 7 0.7 7 -1 7 C-1.04254356 5.00045254 -1.04080783 2.99958364 -1 1 C-0.67 0.67 -0.34 0.34 0 0 Z " fill="#5610CB" transform="translate(217,9)"/>
<path d="M0 0 C2.31 0 4.62 0 7 0 C6.67 1.65 6.34 3.3 6 5 C4.68 5.33 3.36 5.66 2 6 C1.34 4.02 0.68 2.04 0 0 Z " fill="#4041D2" transform="translate(185,152)"/>
<path d="M0 0 C2.64 0 5.28 0 8 0 C8 0.66 8 1.32 8 2 C8.66 2 9.32 2 10 2 C10 2.66 10 3.32 10 4 C6.37 3.34 2.74 2.68 -1 2 C-0.67 1.34 -0.34 0.68 0 0 Z " fill="#4623CE" transform="translate(182,112)"/>
<path d="M0 0 C-1.25573244 3.8718417 -2.36808079 6.02838671 -6 8 C-8.75 8.1875 -8.75 8.1875 -11 8 C-10.443125 7.608125 -9.88625 7.21625 -9.3125 6.8125 C-6.84937133 4.96406897 -6.84937133 4.96406897 -4.375 2.3125 C-2 0 -2 0 0 0 Z " fill="#410FC1" transform="translate(162,91)"/>
<path d="M0 0 C0.99 0.33 1.98 0.66 3 1 C3 3.64 3 6.28 3 9 C2.01 9.33 1.02 9.66 0 10 C0 6.7 0 3.4 0 0 Z " fill="#ECE7F0" transform="translate(137,82)"/>
<path d="M0 0 C1.98 0.66 3.96 1.32 6 2 C0.85714286 7.57142857 0.85714286 7.57142857 -3 8 C-3 7.34 -3 6.68 -3 6 C-2.360625 5.71125 -1.72125 5.4225 -1.0625 5.125 C1.15206079 4.17176549 1.15206079 4.17176549 2 2 C0.68 2.33 -0.64 2.66 -2 3 C-1.34 2.01 -0.68 1.02 0 0 Z " fill="#4805B8" transform="translate(106,115)"/>
<path d="M0 0 C1.41750563 0.11509661 2.83401169 0.24253658 4.25 0.375 C5.03890625 0.44460937 5.8278125 0.51421875 6.640625 0.5859375 C9.085877 1.01507113 10.84836903 1.78600638 13 3 C11.20909747 3.19466332 9.41723495 3.38051213 7.625 3.5625 C6.12839844 3.71912109 6.12839844 3.71912109 4.6015625 3.87890625 C2 4 2 4 0 3 C0 2.01 0 1.02 0 0 Z " fill="#660AD8" transform="translate(47,112)"/>
<path d="M0 0 C0 1.65 0 3.3 0 5 C-0.763125 4.79375 -1.52625 4.5875 -2.3125 4.375 C-5.21885944 3.66608797 -5.21885944 3.66608797 -8 6 C-7.67 4.35 -7.34 2.7 -7 1 C-2.25 0 -2.25 0 0 0 Z " fill="#BAA4DD" transform="translate(128,86)"/>
<path d="M0 0 C1.60080151 4.00200378 0.29279692 7.04556236 -1 11 C-1.66 11 -2.32 11 -3 11 C-3.32613618 6.32538149 -2.70582788 3.83325617 0 0 Z " fill="#F0EBF6" transform="translate(145,80)"/>
<path d="M0 0 C0.33 0 0.66 0 1 0 C1.36923077 6.4 1.36923077 6.4 -0.5 9.4375 C-0.995 9.953125 -1.49 10.46875 -2 11 C-2.05399736 9.54207116 -2.09279177 8.08357288 -2.125 6.625 C-2.15980469 5.40683594 -2.15980469 5.40683594 -2.1953125 4.1640625 C-2 2 -2 2 0 0 Z " fill="#ECE7F3" transform="translate(136,130)"/>
<path d="M0 0 C0.804375 1.2065625 0.804375 1.2065625 1.625 2.4375 C4.43105369 5.46508424 5.96825194 5.72510809 10 6 C9.67 6.66 9.34 7.32 9 8 C6.1875 8.25 6.1875 8.25 3 8 C1.125 6.25 1.125 6.25 0 4 C0 2.68 0 1.36 0 0 Z " fill="#4709B7" transform="translate(65,155)"/>
<path d="M0 0 C4.29 0 8.58 0 13 0 C11.515 1.98 11.515 1.98 10 4 C9.46375 3.690625 8.9275 3.38125 8.375 3.0625 C5.6015043 1.82172561 2.99957163 1.4090325 0 1 C0 0.67 0 0.34 0 0 Z " fill="#5D03CA" transform="translate(60,112)"/>
<path d="M0 0 C2.31 0 4.62 0 7 0 C7 0.99 7 1.98 7 3 C5.68 2.67 4.36 2.34 3 2 C3 2.66 3 3.32 3 4 C2.01 4 1.02 4 0 4 C0 2.68 0 1.36 0 0 Z " fill="#540ACB" transform="translate(109,93)"/>
<path d="M0 0 C0.66 0.66 1.32 1.32 2 2 C1.01 4.31 0.02 6.62 -1 9 C-1.33 8.34 -1.66 7.68 -2 7 C-2.66 6.67 -3.32 6.34 -4 6 C-2.68 4.02 -1.36 2.04 0 0 Z " fill="#EAE6F6" transform="translate(155,144)"/>
<path d="M0 0 C1.9375 0.8125 1.9375 0.8125 4 2 C4.33 2.99 4.66 3.98 5 5 C4.01 4.67 3.02 4.34 2 4 C1.67 4.33 1.34 4.66 1 5 C0.01 4.67 -0.98 4.34 -2 4 C-1.34 2.68 -0.68 1.36 0 0 Z " fill="#4331BC" transform="translate(165,146)"/>
<path d="M0 0 C0.66 0.33 1.32 0.66 2 1 C-0.57404971 4.86107457 -2.61020259 4.94319692 -7 6 C-7.33 5.34 -7.66 4.68 -8 4 C-6.71349294 3.30289269 -5.42059335 2.61757124 -4.125 1.9375 C-3.40570313 1.55464844 -2.68640625 1.17179687 -1.9453125 0.77734375 C-1.30335938 0.52082031 -0.66140625 0.26429687 0 0 Z " fill="#F0E4F9" transform="translate(144,65)"/>
<path d="M0 0 C0.66 0.66 1.32 1.32 2 2 C1.01 3.32 0.02 4.64 -1 6 C-1.33 5.01 -1.66 4.02 -2 3 C-2.99 3.66 -3.98 4.32 -5 5 C-5.33 4.01 -5.66 3.02 -6 2 C-4.02 1.34 -2.04 0.68 0 0 Z " fill="#5516C7" transform="translate(104,122)"/>
<path d="M0 0 C6.625 -0.125 6.625 -0.125 10 1 C9.67 2.32 9.34 3.64 9 5 C8.2575 4.54625 7.515 4.0925 6.75 3.625 C4.53069422 2.31359204 2.32032178 1.11719197 0 0 Z " fill="#5714C2" transform="translate(86,115)"/>
<path d="M0 0 C2.97 0.495 2.97 0.495 6 1 C6 1.66 6 2.32 6 3 C4.02 3.66 2.04 4.32 0 5 C0 3.35 0 1.7 0 0 Z " fill="#4B7DDB" transform="translate(208,219)"/>
<path d="M0 0 C0.99 0.33 1.98 0.66 3 1 C1.68 3.31 0.36 5.62 -1 8 C-1.93065133 5.39417629 -2.14917407 4.35801776 -1.0625 1.75 C-0.711875 1.1725 -0.36125 0.595 0 0 Z " fill="#EEE9F2" transform="translate(43,123)"/>
<path d="M0 0 C1.32 1.32 2.64 2.64 4 4 C3.67 4.99 3.34 5.98 3 7 C2.01 7 1.02 7 0 7 C0 4.69 0 2.38 0 0 Z " fill="#EFEAF5" transform="translate(156,80)"/>
<path d="M0 0 C1.45792884 -0.05399736 2.91642712 -0.09279177 4.375 -0.125 C5.18710938 -0.14820313 5.99921875 -0.17140625 6.8359375 -0.1953125 C9 0 9 0 11 2 C9.68 2.99 8.36 3.98 7 5 C7 4.01 7 3.02 7 2 C4.69 1.67 2.38 1.34 0 1 C0 0.67 0 0.34 0 0 Z " fill="#5442D2" transform="translate(145,160)"/>
<path d="M0 0 C3 2 3 2 4 5 C4.33 5.66 4.66 6.32 5 7 C3.125 6.8125 3.125 6.8125 1 6 C-0.25 3.4375 -0.25 3.4375 -1 1 C-0.67 0.67 -0.34 0.34 0 0 Z " fill="#4545BF" transform="translate(184,152)"/>
<path d="M0 0 C0.33 0.66 0.66 1.32 1 2 C4.02934491 2.65772428 4.02934491 2.65772428 7 3 C4.42786866 4.61949011 3.32330841 5.04408751 0.25 4.625 C-0.4925 4.41875 -1.235 4.2125 -2 4 C-1.34 2.68 -0.68 1.36 0 0 Z " fill="#FEFDFB" transform="translate(158,129)"/>
<path d="M0 0 C-0.33 0.99 -0.66 1.98 -1 3 C-3.31 3 -5.62 3 -8 3 C-8 2.34 -8 1.68 -8 1 C-5.29120665 -0.35439668 -2.99066732 -0.06501451 0 0 Z " fill="#723BD6" transform="translate(154,76)"/>
<path d="M0 0 C1.32 0.33 2.64 0.66 4 1 C2.515 4.465 2.515 4.465 1 8 C0.67 8 0.34 8 0 8 C0 5.36 0 2.72 0 0 Z " fill="#8C27E7" transform="translate(56,64)"/>
<path d="M0 0 C0 0.66 0 1.32 0 2 C-1.2065625 2.433125 -1.2065625 2.433125 -2.4375 2.875 C-5.1326468 3.73262568 -5.1326468 3.73262568 -6 6 C-5.625 3.5625 -5.625 3.5625 -5 1 C-3 0 -3 0 0 0 Z " fill="#3D1DB9" transform="translate(151,145)"/>
<path d="M0 0 C-0.66 1.32 -1.32 2.64 -2 4 C-3.32 3.67 -4.64 3.34 -6 3 C-6 2.34 -6 1.68 -6 1 C-3 0 -3 0 0 0 Z " fill="#4D1EC1" transform="translate(138,115)"/>
<path d="M0 0 C0.66 1.32 1.32 2.64 2 4 C1.01 4.66 0.02 5.32 -1 6 C-1.99 4.68 -2.98 3.36 -4 2 C-2.68 1.34 -1.36 0.68 0 0 Z " fill="#F1ECF8" transform="translate(158,97)"/>
<path d="M0 0 C1.98 0.99 1.98 0.99 4 2 C2.515 4.475 2.515 4.475 1 7 C0 4 0 4 0 0 Z " fill="#EFEAF1" transform="translate(156,89)"/>
<path d="M0 0 C2.60018816 3.90028225 2.15085514 7.47434569 2 12 C1.67 12 1.34 12 1 12 C1 9.69 1 7.38 1 5 C0.01 4.67 -0.98 4.34 -2 4 C-1.34 2.68 -0.68 1.36 0 0 Z " fill="#E3D6F0" transform="translate(173,80)"/>
</svg>
