<?xml version="1.0" encoding="UTF-8"?>
<svg version="1.1" xmlns="http://www.w3.org/2000/svg" width="221" height="228">
<path d="M0 0 C72.93 0 145.86 0 221 0 C221 75.24 221 150.48 221 228 C148.07 228 75.14 228 0 228 C0 152.76 0 77.52 0 0 Z " fill="#572B05" transform="translate(0,0)"/>
<path d="M0 0 C13.0579905 7.24224683 20.81317698 20.0521261 24.93041992 34.15209961 C29.95963801 53.8665446 27.25185661 75.39634006 16.96484375 92.85546875 C11.326542 101.34755468 4.15662932 107.91136005 -5.625 111.25 C-14.32833981 112.88909052 -21.82444169 112.66606644 -29.625 108.25 C-33.30394018 105.54346691 -36.48293302 102.55885479 -39.625 99.25 C-40.2746875 98.57066406 -40.924375 97.89132813 -41.59375 97.19140625 C-53.85298803 82.96961476 -55.59591169 63.81337852 -54.8203125 45.83886719 C-53.64295792 30.23303221 -47.13725263 15.90879074 -35.625 5.25 C-24.91903851 -3.14068852 -12.82262037 -6.29214085 0 0 Z " fill="#5E330D" transform="translate(120.625,36.75)"/>
<path d="M0 0 C10.84360579 7.85289895 17.88587617 18.7678363 21.30859375 31.671875 C21.57292673 34.12761362 21.52824773 36.20076777 21.30859375 38.671875 C19.30859375 37.671875 19.30859375 37.671875 18.08984375 34.21484375 C17.6551118 32.76529275 17.22837006 31.31332748 16.80859375 29.859375 C15.03047676 23.58108378 15.03047676 23.58108378 12.30859375 17.671875 C13.30586649 20.67710943 14.31092988 23.67864538 15.34375 26.671875 C15.68277344 27.661875 16.02179688 28.651875 16.37109375 29.671875 C16.88349609 31.156875 16.88349609 31.156875 17.40625 32.671875 C21.62487719 46.69744071 20.61091762 65.44496359 14.12109375 78.609375 C13.52296875 79.62 12.92484375 80.630625 12.30859375 81.671875 C11.30859375 81.671875 10.30859375 81.671875 9.30859375 81.671875 C8.64859375 83.321875 7.98859375 84.971875 7.30859375 86.671875 C6.97859375 86.011875 6.64859375 85.351875 6.30859375 84.671875 C5.87546875 85.331875 5.44234375 85.991875 4.99609375 86.671875 C4.16078125 87.661875 4.16078125 87.661875 3.30859375 88.671875 C2.31859375 88.671875 1.32859375 88.671875 0.30859375 88.671875 C0.2828125 88.06859375 0.25703125 87.4653125 0.23046875 86.84375 C-0.09472608 81.56652161 -0.09472608 81.56652161 -2.75390625 77.109375 C-3.39328125 76.635 -4.03265625 76.160625 -4.69140625 75.671875 C-3.1236514 71.82374945 -0.82085466 69.37458044 2.30859375 66.671875 C4.29084821 65.95416218 6.28993359 65.27970361 8.30859375 64.671875 C8.39947266 63.35123047 8.39947266 63.35123047 8.4921875 62.00390625 C8.57597656 60.84246094 8.65976563 59.68101563 8.74609375 58.484375 C8.82730469 57.33582031 8.90851563 56.18726563 8.9921875 55.00390625 C9.26263187 52.15589329 9.68381122 49.45977018 10.30859375 46.671875 C9.31859375 46.011875 8.32859375 45.351875 7.30859375 44.671875 C8.29859375 45.661875 9.28859375 46.651875 10.30859375 47.671875 C8.55859375 54.421875 8.55859375 54.421875 6.30859375 56.671875 C6.96859375 57.331875 7.62859375 57.991875 8.30859375 58.671875 C8.43359375 61.296875 8.43359375 61.296875 8.30859375 63.671875 C6.49609375 64.734375 6.49609375 64.734375 4.30859375 65.671875 C3.31859375 65.341875 2.32859375 65.011875 1.30859375 64.671875 C1.30859375 63.681875 1.30859375 62.691875 1.30859375 61.671875 C0.64859375 61.671875 -0.01140625 61.671875 -0.69140625 61.671875 C-0.69140625 62.331875 -0.69140625 62.991875 -0.69140625 63.671875 C-1.49578125 63.341875 -2.30015625 63.011875 -3.12890625 62.671875 C-5.3882175 61.61128459 -5.3882175 61.61128459 -6.69140625 61.671875 C-4.71140625 62.661875 -2.73140625 63.651875 -0.69140625 64.671875 C-0.69140625 65.331875 -0.69140625 65.991875 -0.69140625 66.671875 C-1.68140625 66.671875 -2.67140625 66.671875 -3.69140625 66.671875 C-3.36140625 67.991875 -3.03140625 69.311875 -2.69140625 70.671875 C-5.69140625 70.671875 -5.69140625 70.671875 -7.69140625 69.671875 C-7.03140625 68.021875 -6.37140625 66.371875 -5.69140625 64.671875 C-6.68140625 65.001875 -7.67140625 65.331875 -8.69140625 65.671875 C-9.95167423 63.15133905 -9.6101507 61.8176652 -9.25390625 59.046875 C-9.10115234 57.82097656 -9.10115234 57.82097656 -8.9453125 56.5703125 C-8.86152344 55.94382813 -8.77773437 55.31734375 -8.69140625 54.671875 C-9.68140625 54.671875 -10.67140625 54.671875 -11.69140625 54.671875 C-11.69140625 55.331875 -11.69140625 55.991875 -11.69140625 56.671875 C-13.01140625 56.341875 -14.33140625 56.011875 -15.69140625 55.671875 C-16.18640625 53.691875 -16.18640625 53.691875 -16.69140625 51.671875 C-15.43328125 51.48625 -14.17515625 51.300625 -12.87890625 51.109375 C-10.66119612 50.62755691 -10.66119612 50.62755691 -8.69140625 49.671875 C-6.67001995 46.45564623 -6.67001995 46.45564623 -5.69140625 42.671875 C-5.29953125 41.5375 -4.90765625 40.403125 -4.50390625 39.234375 C-4.23578125 38.38875 -3.96765625 37.543125 -3.69140625 36.671875 C-2.37140625 37.001875 -1.05140625 37.331875 0.30859375 37.671875 C0.80359375 41.136875 0.80359375 41.136875 1.30859375 44.671875 C2.29859375 44.671875 3.28859375 44.671875 4.30859375 44.671875 C3.97859375 43.021875 3.64859375 41.371875 3.30859375 39.671875 C4.29859375 39.671875 5.28859375 39.671875 6.30859375 39.671875 C5.71127153 34.29597503 4.83314478 29.06501343 3.7109375 23.7734375 C3.30859375 21.671875 3.30859375 21.671875 3.30859375 19.671875 C1.98859375 20.001875 0.66859375 20.331875 -0.69140625 20.671875 C-1.18640625 18.691875 -1.18640625 18.691875 -1.69140625 16.671875 C-9.44619805 14.41593557 -16.09601533 12.97504787 -23.50390625 16.921875 C-25.94564903 18.41475401 -27.78456533 19.76503408 -29.81640625 21.796875 C-32.39593496 24.37640371 -35.34282135 25.30763671 -38.69140625 26.671875 C-41.09590803 29.07637678 -40.98749764 29.75421442 -41.00390625 33.046875 C-41.02066406 33.81773438 -41.03742188 34.58859375 -41.0546875 35.3828125 C-40.86474307 37.76075449 -40.86474307 37.76075449 -39.2265625 39.5703125 C-37.20060721 42.34375765 -37.14645054 44.52483381 -36.81640625 47.921875 C-35.99974376 53.74304526 -35.01926447 58.47861524 -30.69140625 62.671875 C-28.39729351 63.99356971 -26.16954356 64.98730125 -23.6796875 65.8828125 C-21.69140625 66.671875 -21.69140625 66.671875 -19.69140625 68.671875 C-20.59890625 69.208125 -21.50640625 69.744375 -22.44140625 70.296875 C-25.04502252 72.002274 -25.87665616 72.96468937 -27.62890625 75.734375 C-29.70353412 78.68914803 -30.22952622 79.143151 -33.37890625 80.359375 C-34.47203125 80.7925 -35.56515625 81.225625 -36.69140625 81.671875 C-37.02140625 82.661875 -37.35140625 83.651875 -37.69140625 84.671875 C-38.35140625 83.681875 -39.01140625 82.691875 -39.69140625 81.671875 C-40.68140625 82.661875 -40.68140625 82.661875 -41.69140625 83.671875 C-50.77426166 68.10126572 -51.75093804 49.7954505 -47.86328125 32.484375 C-44.69927318 22.19080208 -40.06209638 12.6474501 -31.69140625 5.671875 C-41.38132451 12.13182051 -46.94668348 25.05494777 -49.29296875 36.22265625 C-50.92639742 50.36302408 -50.86766925 65.66866058 -44.94140625 78.859375 C-43.69140625 81.671875 -43.69140625 81.671875 -44.69140625 84.671875 C-45.47616903 83.24193176 -46.24319538 81.80225727 -47.00390625 80.359375 C-47.43316406 79.55886719 -47.86242187 78.75835937 -48.3046875 77.93359375 C-51.94042909 69.38191987 -53.2253074 61.23737936 -53.12890625 51.984375 C-53.11988281 50.93781738 -53.11085938 49.89125977 -53.1015625 48.81298828 C-52.7365043 32.3219909 -48.20131444 17.22599197 -36.62890625 5.046875 C-26.59347513 -4.16048519 -12.22182721 -7.14445072 0 0 Z " fill="#562B05" transform="translate(121.69140625,40.328125)"/>
<path d="M0 0 C1.84765625 0.94921875 1.84765625 0.94921875 3.84765625 3.94921875 C4.50765625 3.94921875 5.16765625 3.94921875 5.84765625 3.94921875 C9.50282866 17.7423222 9.50282866 17.7423222 9.84765625 23.94921875 C9.18765625 24.60921875 8.52765625 25.26921875 7.84765625 25.94921875 C7.51765625 25.61921875 7.18765625 25.28921875 6.84765625 24.94921875 C6.84765625 26.26921875 6.84765625 27.58921875 6.84765625 28.94921875 C5.85765625 28.94921875 4.86765625 28.94921875 3.84765625 28.94921875 C3.35265625 25.48421875 3.35265625 25.48421875 2.84765625 21.94921875 C1.52765625 21.94921875 0.20765625 21.94921875 -1.15234375 21.94921875 C-1.33410156 22.83673828 -1.33410156 22.83673828 -1.51953125 23.7421875 C-2.41979018 27.9872546 -3.35690996 31.97361536 -5.15234375 35.94921875 C-6.14234375 35.45421875 -6.14234375 35.45421875 -7.15234375 34.94921875 C-9.17161886 35.55500128 -11.17487772 36.21841609 -13.15234375 36.94921875 C-12.82234375 37.93921875 -12.49234375 38.92921875 -12.15234375 39.94921875 C-10.66734375 40.44421875 -10.66734375 40.44421875 -9.15234375 40.94921875 C-9.15234375 40.28921875 -9.15234375 39.62921875 -9.15234375 38.94921875 C-8.16234375 38.94921875 -7.17234375 38.94921875 -6.15234375 38.94921875 C-6.48234375 41.58921875 -6.81234375 44.22921875 -7.15234375 46.94921875 C-7.81234375 46.94921875 -8.47234375 46.94921875 -9.15234375 46.94921875 C-9.25546875 46.30984375 -9.35859375 45.67046875 -9.46484375 45.01171875 C-9.69171875 44.33109375 -9.91859375 43.65046875 -10.15234375 42.94921875 C-11.63734375 42.45421875 -11.63734375 42.45421875 -13.15234375 41.94921875 C-13.54421875 42.83609375 -13.93609375 43.72296875 -14.33984375 44.63671875 C-16.2187133 48.07051483 -18.2852983 50.31463644 -21.15234375 52.94921875 C-21.15234375 51.95921875 -21.15234375 50.96921875 -21.15234375 49.94921875 C-22.03921875 49.90796875 -22.92609375 49.86671875 -23.83984375 49.82421875 C-28.10403475 48.69782867 -29.87271419 46.53497059 -32.15234375 42.94921875 C-34.81446335 38.00528235 -35.53766787 33.79585139 -35.74609375 28.28125 C-36.23601761 25.46889859 -37.44313947 24.19560152 -39.15234375 21.94921875 C-39.86794239 18.84829133 -39.8403836 16.0564955 -39.15234375 12.94921875 C-35.81003495 9.2959975 -32.64707191 7.74711001 -28.15234375 5.94921875 C-26.14885409 4.28674861 -24.14899973 2.61989008 -22.15234375 0.94921875 C-14.83941682 -3.76355638 -7.89411022 -2.63137007 0 0 Z " fill="#9B7315" transform="translate(119.15234375,56.05078125)"/>
<path d="M0 0 C1.32 0.33 2.64 0.66 4 1 C4.0825 1.721875 4.165 2.44375 4.25 3.1875 C5.92401657 9.46506213 11.73461317 14.48974211 17 18 C16.85923685 16.0412957 16.7122324 14.08303907 16.5625 12.125 C16.48128906 11.03445312 16.40007812 9.94390625 16.31640625 8.8203125 C16.16998297 6.05271029 16.16998297 6.05271029 15 4 C17.64 4 20.28 4 23 4 C22.01 4.66 21.02 5.32 20 6 C19.58519893 8.02887311 19.58519893 8.02887311 19.70703125 10.3515625 C19.7215332 11.62773437 19.7215332 11.62773437 19.73632812 12.9296875 C19.76146484 13.81914062 19.78660156 14.70859375 19.8125 15.625 C19.82603516 16.5221875 19.83957031 17.419375 19.85351562 18.34375 C19.88893075 20.56309789 19.93831539 22.78125188 20 25 C20.99 25.33 21.98 25.66 23 26 C23.99 24.35 24.98 22.7 26 21 C27.24546405 23.49092811 26.7767578 24.41080733 26 27 C26.99 27 27.98 27 29 27 C29 27.66 29 28.32 29 29 C28.01 29.33 27.02 29.66 26 30 C26 30.66 26 31.32 26 32 C33.92 32 41.84 32 50 32 C50 32.66 50 33.32 50 34 C-5.11 34 -60.22 34 -117 34 C-117 33.34 -117 32.68 -117 32 C-71.13 31.67 -25.26 31.34 22 31 C21.67 30.34 21.34 29.68 21 29 C20.38382813 28.86464844 19.76765625 28.72929687 19.1328125 28.58984375 C16.4082534 27.83634847 15.62937667 26.75326684 13.875 24.5625 C9.55924743 19.38171642 4.79942094 14.73367544 0 10 C-0.33 15.28 -0.66 20.56 -1 26 C0.32 26.66 1.64 27.32 3 28 C2.28972656 28.04898438 1.57945312 28.09796875 0.84765625 28.1484375 C-0.07144531 28.22320312 -0.99054688 28.29796875 -1.9375 28.375 C-3.31228516 28.47941406 -3.31228516 28.47941406 -4.71484375 28.5859375 C-5.46894531 28.72257812 -6.22304687 28.85921875 -7 29 C-7.33 29.66 -7.66 30.32 -8 31 C-13.28 31 -18.56 31 -24 31 C-24 30.34 -24 29.68 -24 29 C-26.97 29 -29.94 29 -33 29 C-33 28.34 -33 27.68 -33 27 C-32.01 27 -31.02 27 -30 27 C-30 19.74 -30 12.48 -30 5 C-30.99 4.67 -31.98 4.34 -33 4 C-32.24904053 3.97494385 -31.49808105 3.9498877 -30.72436523 3.92407227 C-27.29526467 3.80745058 -23.86639447 3.68502583 -20.4375 3.5625 C-19.25607422 3.52318359 -18.07464844 3.48386719 -16.85742188 3.44335938 C-11.16986877 3.2362496 -5.61004186 2.98031568 0 2 C0 1.34 0 0.68 0 0 Z " fill="#562B04" transform="translate(145,161)"/>
<path d="M0 0 C13.0579905 7.24224683 20.81317698 20.0521261 24.93041992 34.15209961 C29.95963801 53.8665446 27.25185661 75.39634006 16.96484375 92.85546875 C11.326542 101.34755468 4.15662932 107.91136005 -5.625 111.25 C-14.32833981 112.88909052 -21.82444169 112.66606644 -29.625 108.25 C-33.30394018 105.54346691 -36.48293302 102.55885479 -39.625 99.25 C-40.2746875 98.57066406 -40.924375 97.89132813 -41.59375 97.19140625 C-53.85298803 82.96961476 -55.59591169 63.81337852 -54.8203125 45.83886719 C-53.64295792 30.23303221 -47.13725263 15.90879074 -35.625 5.25 C-24.91903851 -3.14068852 -12.82262037 -6.29214085 0 0 Z M-38.625 12.25 C-51.53276933 27.85743351 -53.24968257 47.8093818 -51.625 67.25 C-49.38713821 81.05964165 -42.46850406 95.31168347 -31.3125 104 C-23.04981993 109.43644746 -15.29322466 110.01902713 -5.625 108.25 C-2.5788769 107.336682 -0.21947302 106.07792417 2.375 104.25 C3.10203125 103.73824219 3.8290625 103.22648437 4.578125 102.69921875 C15.25206777 94.22178461 21.69162093 80.65156782 23.375 67.25 C23.75856786 61.24522092 23.62273114 55.25748011 23.375 49.25 C23.045 49.25 22.715 49.25 22.375 49.25 C22.19324219 51.09464844 22.19324219 51.09464844 22.0078125 52.9765625 C21.83889705 54.6094118 21.66960636 56.24222232 21.5 57.875 C21.42136719 58.68324219 21.34273438 59.49148437 21.26171875 60.32421875 C20.77968596 64.88499049 20.0365882 68.93545585 18.375 73.25 C18.519375 72.65316406 18.66375 72.05632812 18.8125 71.44140625 C22.35404997 54.88957894 21.12807841 38.42292995 13.375 23.25 C13.375 22.59 13.375 21.93 13.375 21.25 C16.33915819 28.1741798 19.10064796 35.06783567 21.375 42.25 C21.705 42.25 22.035 42.25 22.375 42.25 C23.48460095 32.7074318 18.56450013 22.97096821 13.09765625 15.37890625 C7.68395947 8.68851 2.05838298 2.21753391 -6.625 0.25 C-21.0062895 -1.17159873 -28.75507855 1.84925924 -38.625 12.25 Z M-31.625 8.25 C-30.965 8.58 -30.305 8.91 -29.625 9.25 C-30.615 10.075 -31.605 10.9 -32.625 11.75 C-43.86927812 23.08569501 -47.51106473 39.59022469 -48.125 55 C-47.92168185 66.49877115 -44.31946327 77.44283175 -40.625 88.25 C-41.285 88.25 -41.945 88.25 -42.625 88.25 C-50.6002789 69.10324265 -53.27333768 48.04569754 -45.625 28.25 C-42.15062326 20.40685252 -38.25048574 13.78802 -31.625 8.25 Z " fill="#AF894E" transform="translate(120.625,36.75)"/>
<path d="M0 0 C10.84360579 7.85289895 17.88587617 18.7678363 21.30859375 31.671875 C21.57292673 34.12761362 21.52824773 36.20076777 21.30859375 38.671875 C19.30859375 37.671875 19.30859375 37.671875 18.08984375 34.21484375 C17.6551118 32.76529275 17.22837006 31.31332748 16.80859375 29.859375 C15.10440593 23.54031301 15.10440593 23.54031301 12.30859375 17.671875 C10.4200902 16.59544791 10.4200902 16.59544791 8.30859375 16.671875 C6.53668466 18.02631801 6.53668466 18.02631801 5.30859375 19.671875 C5.30859375 18.021875 5.30859375 16.371875 5.30859375 14.671875 C3.32859375 17.641875 3.32859375 17.641875 1.30859375 20.671875 C-0.69140625 19.671875 -0.69140625 19.671875 -1.69140625 16.671875 C-5.20331434 15.44217622 -5.20331434 15.44217622 -8.69140625 14.671875 C-8.69140625 14.011875 -8.69140625 13.351875 -8.69140625 12.671875 C-9.35140625 12.341875 -10.01140625 12.011875 -10.69140625 11.671875 C-10.03140625 11.011875 -9.37140625 10.351875 -8.69140625 9.671875 C-8.69140625 8.681875 -8.69140625 7.691875 -8.69140625 6.671875 C-10.01140625 6.011875 -11.33140625 5.351875 -12.69140625 4.671875 C-10.71140625 4.011875 -8.73140625 3.351875 -6.69140625 2.671875 C-10.86878099 1.08049415 -14.2230141 0.45909442 -18.69140625 0.671875 C-18.69140625 1.001875 -18.69140625 1.331875 -18.69140625 1.671875 C-18.03140625 2.331875 -17.37140625 2.991875 -16.69140625 3.671875 C-18.01140625 3.671875 -19.33140625 3.671875 -20.69140625 3.671875 C-20.69140625 4.331875 -20.69140625 4.991875 -20.69140625 5.671875 C-19.70140625 6.001875 -18.71140625 6.331875 -17.69140625 6.671875 C-17.69140625 7.661875 -17.69140625 8.651875 -17.69140625 9.671875 C-20.16640625 9.176875 -20.16640625 9.176875 -22.69140625 8.671875 C-22.69140625 8.011875 -22.69140625 7.351875 -22.69140625 6.671875 C-23.35140625 6.671875 -24.01140625 6.671875 -24.69140625 6.671875 C-25.02140625 7.331875 -25.35140625 7.991875 -25.69140625 8.671875 C-26.68140625 7.351875 -27.67140625 6.031875 -28.69140625 4.671875 C-34.36429334 6.04712035 -37.47551956 10.07876531 -40.69140625 14.671875 C-50.63785222 32.45491477 -52.44145604 52.16060958 -47.5625 71.83984375 C-46.81483664 74.27058784 -45.9822213 76.54272214 -44.94140625 78.859375 C-43.69140625 81.671875 -43.69140625 81.671875 -44.69140625 84.671875 C-45.47616903 83.24193176 -46.24319538 81.80225727 -47.00390625 80.359375 C-47.43316406 79.55886719 -47.86242187 78.75835937 -48.3046875 77.93359375 C-51.94042909 69.38191987 -53.2253074 61.23737936 -53.12890625 51.984375 C-53.11988281 50.93781738 -53.11085938 49.89125977 -53.1015625 48.81298828 C-52.7365043 32.3219909 -48.20131444 17.22599197 -36.62890625 5.046875 C-26.59347513 -4.16048519 -12.22182721 -7.14445072 0 0 Z " fill="#572F02" transform="translate(121.69140625,40.328125)"/>
<path d="M0 0 C3.09895418 -0.42534665 5.91605333 -0.59286665 9 0 C10.72838945 1.55686989 11.7079602 3.11588737 12.8828125 5.1171875 C15.14590123 8.93120417 18.35535716 11.57023811 22 14 C21.85923685 12.0412957 21.7122324 10.08303907 21.5625 8.125 C21.48128906 7.03445312 21.40007812 5.94390625 21.31640625 4.8203125 C21.16998297 2.05271029 21.16998297 2.05271029 20 0 C22.64 0 25.28 0 28 0 C27.01 0.66 26.02 1.32 25 2 C24.58519893 4.02887311 24.58519893 4.02887311 24.70703125 6.3515625 C24.7215332 7.62773437 24.7215332 7.62773437 24.73632812 8.9296875 C24.76146484 9.81914062 24.78660156 10.70859375 24.8125 11.625 C24.82603516 12.5221875 24.83957031 13.419375 24.85351562 14.34375 C24.88893075 16.56309789 24.93831539 18.78125188 25 21 C25.99 21.33 26.98 21.66 28 22 C28.99 20.35 29.98 18.7 31 17 C32.24546405 19.49092811 31.7767578 20.41080733 31 23 C31.99 23 32.98 23 34 23 C34 23.66 34 24.32 34 25 C33.01 25.33 32.02 25.66 31 26 C31 26.66 31 27.32 31 28 C38.92 28 46.84 28 55 28 C55 28.66 55 29.32 55 30 C-0.11 30 -55.22 30 -112 30 C-112 29.34 -112 28.68 -112 28 C-66.13 27.67 -20.26 27.34 27 27 C26.67 26.34 26.34 25.68 26 25 C25.38382813 24.86464844 24.76765625 24.72929687 24.1328125 24.58984375 C21.4082534 23.83634847 20.62937667 22.75326684 18.875 20.5625 C14.55924743 15.38171642 9.79942094 10.73367544 5 6 C4.67 11.28 4.34 16.56 4 22 C5.32 22.66 6.64 23.32 8 24 C4.7 24 1.4 24 -2 24 C-1.01 23.34 -0.02 22.68 1 22 C1.43150903 19.90714944 1.43150903 19.90714944 1.328125 17.5 C1.32039063 16.1696875 1.32039063 16.1696875 1.3125 14.8125 C1.291875 13.884375 1.27125 12.95625 1.25 12 C1.24226563 10.6078125 1.24226563 10.6078125 1.234375 9.1875 C1.34530212 4.43579453 1.34530212 4.43579453 0 0 Z " fill="#BC945B" transform="translate(140,165)"/>
<path d="M0 0 C7.26 0 14.52 0 22 0 C22 1.65 22 3.3 22 5 C21.34 5 20.68 5 20 5 C19.67 4.34 19.34 3.68 19 3 C16.64400765 2.53248212 16.64400765 2.53248212 13.9375 2.375 C13.01839844 2.30023438 12.09929687 2.22546875 11.15234375 2.1484375 C10.44207031 2.09945312 9.73179688 2.05046875 9 2 C9 4.97 9 7.94 9 11 C10.32 11 11.64 11 13 11 C13.33 10.01 13.66 9.02 14 8 C15.88391785 11.26545761 16.49287967 14.28111761 17 18 C20.37088267 15.72584713 20.37088267 15.72584713 22 12 C22.66 12 23.32 12 24 12 C24 12.66 24 13.32 24 14 C24.99 13.67 25.98 13.34 27 13 C27.33 13.33 27.66 13.66 28 14 C28 9.38 28 4.76 28 0 C31.3 0 34.6 0 38 0 C37.01 0.33 36.02 0.66 35 1 C34.67 8.26 34.34 15.52 34 23 C43.30480306 22.41028348 43.30480306 22.41028348 50 18 C49.125 23.875 49.125 23.875 48 25 C45.83748305 25.2138753 43.66918861 25.37021948 41.5 25.5 C37.2486887 25.76868634 33.03726949 26.08031897 28.8125 26.625 C25 27 25 27 22 26 C20.22833025 25.85164052 18.45232388 25.75229982 16.67578125 25.68359375 C15.64775391 25.64169922 14.61972656 25.59980469 13.56054688 25.55664062 C11.95276367 25.49766602 11.95276367 25.49766602 10.3125 25.4375 C9.22904297 25.39431641 8.14558594 25.35113281 7.02929688 25.30664062 C4.35299209 25.20053162 1.67659474 25.09847639 -1 25 C-1 24.34 -1 23.68 -1 23 C-0.01 23 0.98 23 2 23 C2.33 16.4 2.66 9.8 3 3 C3.33 3 3.66 3 4 3 C4 9.27 4 15.54 4 22 C4.66 22 5.32 22 6 22 C6 15.4 6 8.8 6 2 C3.03 1.505 3.03 1.505 0 1 C0 0.67 0 0.34 0 0 Z " fill="#61350A" transform="translate(60,165)"/>
<path d="M0 0 C0 0.66 0 1.32 0 2 C-0.78375 2.226875 -1.5675 2.45375 -2.375 2.6875 C-5.15589403 3.74707123 -5.15589403 3.74707123 -6.1015625 6.23828125 C-7.00047459 9.00145886 -7.54882557 11.6318197 -8 14.5 C-8.59229501 18.26530402 -9.47833148 21.5001624 -11 25 C-11.66 24.67 -12.32 24.34 -13 24 C-15.01927511 24.60578253 -17.02253397 25.26919734 -19 26 C-18.67 26.99 -18.34 27.98 -18 29 C-17.01 29.33 -16.02 29.66 -15 30 C-15 29.34 -15 28.68 -15 28 C-14.01 28 -13.02 28 -12 28 C-12.33 30.64 -12.66 33.28 -13 36 C-13.66 36 -14.32 36 -15 36 C-15.103125 35.360625 -15.20625 34.72125 -15.3125 34.0625 C-15.539375 33.381875 -15.76625 32.70125 -16 32 C-16.99 31.67 -17.98 31.34 -19 31 C-19.391875 31.886875 -19.78375 32.77375 -20.1875 33.6875 C-22.06636955 37.12129608 -24.13295455 39.36541769 -27 42 C-27 41.01 -27 40.02 -27 39 C-27.94875 38.9175 -28.8975 38.835 -29.875 38.75 C-33 38 -33 38 -34.375 35.9375 C-34.58125 35.298125 -34.7875 34.65875 -35 34 C-34.01 34.33 -33.02 34.66 -32 35 C-33.2684375 33.6078125 -33.2684375 33.6078125 -34.5625 32.1875 C-36.00390625 30.60546875 -36.00390625 30.60546875 -37 29 C-36.505 27.515 -36.505 27.515 -36 26 C-34.68 26.33 -33.36 26.66 -32 27 C-32 26.34 -32 25.68 -32 25 C-31.01 24.67 -30.02 24.34 -29 24 C-29.33 25.65 -29.66 27.3 -30 29 C-30.99 29 -31.98 29 -33 29 C-32.67 29.99 -32.34 30.98 -32 32 C-31.01 32.33 -30.02 32.66 -29 33 C-29 32.34 -29 31.68 -29 31 C-26.69 31 -24.38 31 -22 31 C-22.33 28.36 -22.66 25.72 -23 23 C-20.36 22.34 -17.72 21.68 -15 21 C-17.31 21.33 -19.62 21.66 -22 22 C-22 21.01 -22 20.02 -22 19 C-24.475 18.01 -24.475 18.01 -27 17 C-27 16.34 -27 15.68 -27 15 C-23.7 15 -20.4 15 -17 15 C-16.67 14.01 -16.34 13.02 -16 12 C-15.195625 11.731875 -14.39125 11.46375 -13.5625 11.1875 C-10.68534251 10.21157118 -10.68534251 10.21157118 -9.8125 7 C-9.544375 6.01 -9.27625 5.02 -9 4 C-5.83923989 0.83923989 -4.57252889 0 0 0 Z " fill="#BB973F" transform="translate(125,67)"/>
<path d="M0 0 C4.29 0 8.58 0 13 0 C12.01 0.66 11.02 1.32 10 2 C9.42006301 4.19454681 9.42006301 4.19454681 9.3125 6.625 C9.1578125 8.790625 9.1578125 8.790625 9 11 C12.3 11 15.6 11 19 11 C18.896875 9.55625 18.79375 8.1125 18.6875 6.625 C18.62949219 5.81289062 18.57148437 5.00078125 18.51171875 4.1640625 C18.17009472 1.62078662 18.17009472 1.62078662 15 0 C19.29 0 23.58 0 28 0 C27.01 0.33 26.02 0.66 25 1 C25 8.26 25 15.52 25 23 C25.99 23.33 26.98 23.66 28 24 C24.04 24 20.08 24 16 24 C16.66 23.34 17.32 22.68 18 22 C18.46006346 19.79749008 18.46006346 19.79749008 18.625 17.375 C18.74875 15.93125 18.8725 14.4875 19 13 C15.7 13 12.4 13 9 13 C9 16.3 9 19.6 9 23 C9.99 23.33 10.98 23.66 12 24 C8.37 24 4.74 24 1 24 C1.66 23.67 2.32 23.34 3 23 C3 15.74 3 8.48 3 1 C2.01 0.67 1.02 0.34 0 0 Z " fill="#C79E54" transform="translate(29,165)"/>
<path d="M0 0 C12.50647999 6.789232 19.50800206 19.78877472 23.60644531 32.94702148 C25.43675273 39.9268843 25.22410365 46.89273208 25.125 54.0625 C25.11597656 55.30966797 25.10695312 56.55683594 25.09765625 57.84179688 C25.07426209 60.89473504 25.04148174 63.94726306 25 67 C23 66 23 66 22.3671875 64.15234375 C22.20476562 63.42144531 22.04234375 62.69054687 21.875 61.9375 C21.70742187 61.20402344 21.53984375 60.47054687 21.3671875 59.71484375 C21.24601562 59.14894531 21.12484375 58.58304688 21 58 C20.80664062 59.09699219 20.61328125 60.19398437 20.4140625 61.32421875 C20.15131825 62.77869582 19.88828199 64.23312017 19.625 65.6875 C19.49867188 66.40873047 19.37234375 67.12996094 19.2421875 67.87304688 C18.52507241 71.799252 17.660678 75.33928805 16 79 C14.72790747 75.18372241 15.49844141 73.27313657 16.4375 69.375 C19.63013928 54.61739039 19.40698718 38.40378913 12.30078125 24.73046875 C11 22 11 22 12 19 C15.74139138 25.81731788 18.22962267 32.4291181 20 40 C19.36313292 27.26265844 13.99334129 16.62527069 4.7734375 7.890625 C2.87954192 6.21757237 0.96558419 4.58778359 -1 3 C-0.67 2.01 -0.34 1.02 0 0 Z " fill="#9C7540" transform="translate(122,38)"/>
<path d="M0 0 C5.6070702 3.5121209 10.24436649 7.98932423 14.1328125 13.3359375 C13.8028125 13.9959375 13.4728125 14.6559375 13.1328125 15.3359375 C12.4728125 15.3359375 11.8128125 15.3359375 11.1328125 15.3359375 C9.50766782 16.79427108 9.50766782 16.79427108 8.1328125 18.3359375 C8.1328125 16.6859375 8.1328125 15.0359375 8.1328125 13.3359375 C6.1528125 16.3059375 6.1528125 16.3059375 4.1328125 19.3359375 C2.1328125 18.3359375 2.1328125 18.3359375 1.1328125 15.3359375 C-2.37909559 14.10623872 -2.37909559 14.10623872 -5.8671875 13.3359375 C-5.8671875 12.6759375 -5.8671875 12.0159375 -5.8671875 11.3359375 C-6.5271875 11.0059375 -7.1871875 10.6759375 -7.8671875 10.3359375 C-7.2071875 9.6759375 -6.5471875 9.0159375 -5.8671875 8.3359375 C-5.8671875 7.3459375 -5.8671875 6.3559375 -5.8671875 5.3359375 C-7.1871875 4.6759375 -8.5071875 4.0159375 -9.8671875 3.3359375 C-7.8871875 2.6759375 -5.9071875 2.0159375 -3.8671875 1.3359375 C-8.04456224 -0.25544335 -11.39879535 -0.87684308 -15.8671875 -0.6640625 C-15.8671875 -0.3340625 -15.8671875 -0.0040625 -15.8671875 0.3359375 C-15.2071875 0.9959375 -14.5471875 1.6559375 -13.8671875 2.3359375 C-15.1871875 2.3359375 -16.5071875 2.3359375 -17.8671875 2.3359375 C-17.8671875 2.9959375 -17.8671875 3.6559375 -17.8671875 4.3359375 C-16.8771875 4.6659375 -15.8871875 4.9959375 -14.8671875 5.3359375 C-14.8671875 6.3259375 -14.8671875 7.3159375 -14.8671875 8.3359375 C-16.5171875 8.0059375 -18.1671875 7.6759375 -19.8671875 7.3359375 C-19.8671875 6.6759375 -19.8671875 6.0159375 -19.8671875 5.3359375 C-20.5271875 5.3359375 -21.1871875 5.3359375 -21.8671875 5.3359375 C-22.1971875 5.9959375 -22.5271875 6.6559375 -22.8671875 7.3359375 C-23.3209375 6.6965625 -23.7746875 6.0571875 -24.2421875 5.3984375 C-25.70640476 3.23891344 -25.70640476 3.23891344 -27.8671875 2.3359375 C-19.9637431 -4.35159238 -9.03162509 -4.56436967 0 0 Z " fill="#582C06" transform="translate(118.8671875,41.6640625)"/>
<path d="M0 0 C-0.33 0.66 -0.66 1.32 -1 2 C-2.32 1.67 -3.64 1.34 -5 1 C-5.2475 1.804375 -5.495 2.60875 -5.75 3.4375 C-6.36875 4.7059375 -6.36875 4.7059375 -7 6 C-8.9375 6.625 -8.9375 6.625 -11 7 C-12.58333333 8.41666667 -12.58333333 8.41666667 -14 10 C-17.98275862 12.65517241 -17.98275862 12.65517241 -21 13 C-21.886875 12.608125 -22.77375 12.21625 -23.6875 11.8125 C-28.00721759 10.75294663 -30.23366483 11.72248318 -34.14453125 13.6484375 C-36.32541198 14.95758638 -36.32541198 14.95758638 -37 18.125 C-37 19.07375 -37 20.0225 -37 21 C-37.33 21.66 -37.66 22.32 -38 23 C-39.55929968 21.44070032 -39.31941003 19.91140432 -39.4375 17.75 C-39.39915842 13.73052487 -39.19849457 13.21695918 -36.3125 10.0625 C-33.51523262 8.32080521 -31.02934199 7.2117368 -28 6 C-25.99651034 4.33752986 -23.99665598 2.67067133 -22 1 C-14.83327677 -3.61855497 -7.7305856 -2.63168871 0 0 Z " fill="#966D16" transform="translate(119,56)"/>
<path d="M0 0 C7.59 0 15.18 0 23 0 C23 1.65 23 3.3 23 5 C22.34 5 21.68 5 21 5 C20.67 4.34 20.34 3.68 20 3 C17.41394668 2.5316735 17.41394668 2.5316735 14.4375 2.375 C12.91962891 2.26285156 12.91962891 2.26285156 11.37109375 2.1484375 C10.19740234 2.07496094 10.19740234 2.07496094 9 2 C9 4.97 9 7.94 9 11 C10.32 10.67 11.64 10.34 13 10 C13.33 9.34 13.66 8.68 14 8 C14.66 8 15.32 8 16 8 C16 10.64 16 13.28 16 16 C15.34 16 14.68 16 14 16 C13.67 15.34 13.34 14.68 13 14 C11.68 13.67 10.36 13.34 9 13 C9 16.3 9 19.6 9 23 C10.75128818 22.71617054 12.50100003 22.42260471 14.25 22.125 C15.22453125 21.96257812 16.1990625 21.80015625 17.203125 21.6328125 C19.77264117 21.05144152 21.72071056 20.29159735 24 19 C23.67 20.65 23.34 22.3 23 24 C15.41 24 7.82 24 0 24 C0.99 23.67 1.98 23.34 3 23 C3 15.74 3 8.48 3 1 C2.01 0.67 1.02 0.34 0 0 Z " fill="#9B7523" transform="translate(112,165)"/>
<path d="M0 0 C0.66 0 1.32 0 2 0 C2.33 1.32 2.66 2.64 3 4 C6.63 4 10.26 4 14 4 C14 4.33 14 4.66 14 5 C12.35 5.33 10.7 5.66 9 6 C9.33 6.66 9.66 7.32 10 8 C12.64 7.67 15.28 7.34 18 7 C17.67 7.66 17.34 8.32 17 9 C14.93359375 9.4140625 14.93359375 9.4140625 12.4375 9.625 C11.19806641 9.73714844 11.19806641 9.73714844 9.93359375 9.8515625 C8.97646484 9.92503906 8.97646484 9.92503906 8 10 C8.33 12.64 8.66 15.28 9 18 C6.69 18 4.38 18 2 18 C2 18.66 2 19.32 2 20 C0.68 19.67 -0.64 19.34 -2 19 C-2 18.01 -2 17.02 -2 16 C-1.01 15.67 -0.02 15.34 1 15 C1 14.01 1 13.02 1 12 C0.34 12 -0.32 12 -1 12 C-1 12.66 -1 13.32 -1 14 C-1.99 14.33 -2.98 14.66 -4 15 C-4.22298824 17.31280295 -4.22298824 17.31280295 -1.75 19.5 C0.5264965 21.56954228 2.19566446 22.85749293 5 24 C-2.89127973 23.08946772 -2.89127973 23.08946772 -6 21 C-7.265625 18.6171875 -7.265625 18.6171875 -8.25 15.875 C-8.58515625 14.96492188 -8.9203125 14.05484375 -9.265625 13.1171875 C-9.50796875 12.41851562 -9.7503125 11.71984375 -10 11 C-9.34 10.34 -8.68 9.68 -8 9 C-7.01 10.485 -7.01 10.485 -6 12 C-5.34 12 -4.68 12 -4 12 C-3.67 9.69 -3.34 7.38 -3 5 C-3.99 4.67 -4.98 4.34 -6 4 C-5.67 3.34 -5.34 2.68 -5 2 C-3.68 2 -2.36 2 -1 2 C-0.67 1.34 -0.34 0.68 0 0 Z " fill="#9A7512" transform="translate(94,80)"/>
<path d="M0 0 C1.010625 0.66 2.02125 1.32 3.0625 2 C2.7325 2.66 2.4025 3.32 2.0625 4 C1.19625 3.67 0.33 3.34 -0.5625 3 C-7.98777124 0.89793747 -17.89285319 0.47119016 -25.015625 3.7890625 C-37.21755221 11.47726867 -44.07897629 22.87071732 -47.3125 36.625 C-47.59432866 37.94984776 -47.87316724 39.27533655 -48.1484375 40.6015625 C-48.80274213 43.41960717 -49.49279701 45.52516096 -50.9375 48 C-54.06538397 38.61634809 -49.63574935 29.44253763 -45.75 20.875 C-37.42791804 5.04522942 -18.25340584 -9.22483951 0 0 Z " fill="#D9B25A" transform="translate(118.9375,36)"/>
<path d="M0 0 C4.29 0 8.58 0 13 0 C12.67 6.93 12.34 13.86 12 21 C10.35 20.67 8.7 20.34 7 20 C4.69 20.66 2.38 21.32 0 22 C0 14.74 0 7.48 0 0 Z " fill="#572B03" transform="translate(54,166)"/>
<path d="M0 0 C4.52134218 3.71754802 8.77415761 7.64047364 12.9375 11.75 C13.43419189 12.23380127 13.93088379 12.71760254 14.44262695 13.21606445 C15.66847329 14.43848364 16.83934827 15.71551743 18 17 C18 17.66 18 18.32 18 19 C18.94875 19.103125 19.8975 19.20625 20.875 19.3125 C24 20 24 20 26 23 C19.90218999 23.22084624 14.78357065 23.01167675 9 21 C9 19.68 9 18.36 9 17 C8.1646875 17.556875 8.1646875 17.556875 7.3125 18.125 C5 19 5 19 0 17 C0 11.39 0 5.78 0 0 Z " fill="#582C06" transform="translate(144,170)"/>
<path d="M0 0 C3.54144791 4.04850086 5.77412917 8.25207114 8.0625 13.0625 C8.73701335 14.47191171 9.41529847 15.87952561 10.09765625 17.28515625 C10.39164307 17.90269775 10.68562988 18.52023926 10.98852539 19.15649414 C12.19057632 21.4502223 12.19057632 21.4502223 15 25 C11.7 25 8.4 25 5 25 C5.66 24.67 6.32 24.34 7 24 C6.34 22.35 5.68 20.7 5 19 C0.71 18.67 -3.58 18.34 -8 18 C-7.04805076 13.24025378 -5.76344557 10.37420203 -3.4375 6.1875 C-2.9434668 5.2912793 -2.9434668 5.2912793 -2.43945312 4.37695312 C-1.63226733 2.91466002 -0.81695083 1.4568601 0 0 Z " fill="#926C21" transform="translate(180,164)"/>
<path d="M0 0 C2.63277 4.58942008 2.15642688 7.95377363 1 13 C-1.56890928 20.72727912 -5.14792284 27.48286687 -10 34 C-10.763125 35.051875 -11.52625 36.10375 -12.3125 37.1875 C-19.89884457 45.12669781 -28.01730232 48.31140822 -38.81640625 49.046875 C-42.99407053 48.98536338 -45.42276811 48.07978598 -49 46 C-49 45.34 -49 44.68 -49 44 C-48.09378906 44.09539062 -47.18757813 44.19078125 -46.25390625 44.2890625 C-34.87579273 45.32453103 -27.64105883 45.02515664 -18.35546875 38.04296875 C-6.81062318 28.02977765 -3.21824376 14.32927529 0 0 Z " fill="#CDA85E" transform="translate(144,100)"/>
<path d="M0 0 C0.33 0 0.66 0 1 0 C1.75605077 18.33423119 -0.66116941 34.31419805 -12.875 48.875 C-20.09718661 56.53572545 -27.12934675 59.25047419 -37.4375 60.375 C-43.49360008 59.73751578 -48.98177047 57.72991102 -53.625 53.75 C-54.07875 53.1725 -54.5325 52.595 -55 52 C-50.85326256 52.60981433 -47.71444984 54.10325966 -44 56 C-37.31942172 58.37052778 -31.07837737 56.82749803 -24.70703125 54.30859375 C-14.10147894 49.18181161 -8.64516932 39.13605995 -4.83740234 28.35913086 C-1.79726868 19.07770101 -0.7523906 9.70246986 0 0 Z " fill="#542D05" transform="translate(143,86)"/>
<path d="M0 0 C1.65 0.33 3.3 0.66 5 1 C5 1.66 5 2.32 5 3 C6.32 3 7.64 3 9 3 C9.33 2.34 9.66 1.68 10 1 C10.66 1.33 11.32 1.66 12 2 C12 1.34 12 0.68 12 0 C13.98 0 15.96 0 18 0 C17.67 0.66 17.34 1.32 17 2 C16.01 2.33 15.02 2.66 14 3 C14.66 3.33 15.32 3.66 16 4 C16.6837045 5.32467746 17.34964186 6.65863633 18 8 C18.66 8.66 19.32 9.32 20 10 C19.01 10 18.02 10 17 10 C16.67 11.32 16.34 12.64 16 14 C10.72 14 5.44 14 0 14 C0 13.34 0 12.68 0 12 C-2.97 12 -5.94 12 -9 12 C-9 11.67 -9 11.34 -9 11 C-1.41 10.67 6.18 10.34 14 10 C14 9.01 14 8.02 14 7 C13.175 7.495 12.35 7.99 11.5 8.5 C7.24511812 10.32352081 4.57691329 10.23673689 0 10 C0 6.7 0 3.4 0 0 Z " fill="#673A12" transform="translate(121,178)"/>
<path d="M0 0 C0.66 0.66 1.32 1.32 2 2 C1.34 2 0.68 2 0 2 C0 2.66 0 3.32 0 4 C-0.66 4 -1.32 4 -2 4 C-2.33 6.31 -2.66 8.62 -3 11 C-12 11 -12 11 -14 10.4375 C-14.66 10.293125 -15.32 10.14875 -16 10 C-16.33 10.33 -16.66 10.66 -17 11 C-19.4375 11.1875 -19.4375 11.1875 -22 11 C-22.66 10.34 -23.32 9.68 -24 9 C-24 7.68 -24 6.36 -24 5 C-20.5647952 2.70986347 -19.014669 2.82157027 -15 3 C-14.67 2.34 -14.34 1.68 -14 1 C-13.32453125 1.01160156 -12.6490625 1.02320313 -11.953125 1.03515625 C-11.06109375 1.04417969 -10.1690625 1.05320313 -9.25 1.0625 C-8.36828125 1.07410156 -7.4865625 1.08570313 -6.578125 1.09765625 C-4.03189719 1.10357821 -4.03189719 1.10357821 -1.796875 0.37109375 C-0.90742188 0.18740234 -0.90742188 0.18740234 0 0 Z " fill="#6F4419" transform="translate(166,195)"/>
<path d="M0 0 C7.26 0 14.52 0 22 0 C22 1.65 22 3.3 22 5 C21.34 5 20.68 5 20 5 C19.67 4.34 19.34 3.68 19 3 C16.64400765 2.53248212 16.64400765 2.53248212 13.9375 2.375 C13.01839844 2.30023438 12.09929687 2.22546875 11.15234375 2.1484375 C10.44207031 2.09945312 9.73179688 2.05046875 9 2 C9 4.97 9 7.94 9 11 C10.32 11 11.64 11 13 11 C13.33 10.01 13.66 9.02 14 8 C14.33 8 14.66 8 15 8 C15 10.64 15 13.28 15 16 C14.34 15.67 13.68 15.34 13 15 C13 14.34 13 13.68 13 13 C11.35 13 9.7 13 8 13 C8 16.3 8 19.6 8 23 C9.93884889 22.71743908 11.87605961 22.4236207 13.8125 22.125 C14.89144531 21.96257812 15.97039062 21.80015625 17.08203125 21.6328125 C20.17321793 21.14867662 20.17321793 21.14867662 23 19 C23 20.65 23 22.3 23 24 C15.41 24 7.82 24 0 24 C0.66 23.67 1.32 23.34 2 23 C2.33 16.4 2.66 9.8 3 3 C3.33 3 3.66 3 4 3 C4 9.27 4 15.54 4 22 C4.66 22 5.32 22 6 22 C6 15.4 6 8.8 6 2 C3.03 1.505 3.03 1.505 0 1 C0 0.67 0 0.34 0 0 Z " fill="#B79046" transform="translate(60,165)"/>
<path d="M0 0 C3.25340695 3.25340695 3.25799523 7.57378024 4 12 C4.13792969 12.78117187 4.27585938 13.56234375 4.41796875 14.3671875 C4.7083286 16.23232251 4.865514 18.11719598 5 20 C4.34 20.66 3.68 21.32 3 22 C2.67 21.67 2.34 21.34 2 21 C2 22.32 2 23.64 2 25 C1.01 25 0.02 25 -1 25 C-1.33 22.69 -1.66 20.38 -2 18 C-3.65 18 -5.3 18 -7 18 C-5.25 11.25 -5.25 11.25 -3 9 C-1.68 9 -0.36 9 1 9 C1 8.34 1 7.68 1 7 C-3.83083522 8.61027841 -6.75784318 10.76411772 -9.25 15.25 C-9.4975 15.8275 -9.745 16.405 -10 17 C-10.66 16.67 -11.32 16.34 -12 16 C-9.69 11.38 -7.38 6.76 -5 2 C-3.33333333 2 -1.66666667 2 0 2 C0 1.34 0 0.68 0 0 Z " fill="#673C12" transform="translate(124,60)"/>
<path d="M0 0 C3.3 0 6.6 0 10 0 C9.01 0.33 8.02 0.66 7 1 C6.67 8.26 6.34 15.52 6 23 C15.30480306 22.41028348 15.30480306 22.41028348 22 18 C21.67 19.98 21.34 21.96 21 24 C13.41 24 5.82 24 -2 24 C-1.34 23.34 -0.68 22.68 0 22 C0.27765416 19.67182795 0.27765416 19.67182795 0.1953125 16.9921875 C0.18886719 16.00605469 0.18242188 15.01992187 0.17578125 14.00390625 C0.15064453 12.45509766 0.15064453 12.45509766 0.125 10.875 C0.11597656 9.83472656 0.10695313 8.79445312 0.09765625 7.72265625 C0.07403867 5.14834003 0.03816684 2.57414162 0 0 Z " fill="#A57D28" transform="translate(88,165)"/>
<path d="M0 0 C0.33 1.32 0.66 2.64 1 4 C-0.32 4.33 -1.64 4.66 -3 5 C-2.67 5.99 -2.34 6.98 -2 8 C-1.01 8.33 -0.02 8.66 1 9 C1 8.34 1 7.68 1 7 C3.31 7 5.62 7 8 7 C8 5.35 8 3.7 8 2 C8.99 2 9.98 2 11 2 C11.33 2.99 11.66 3.98 12 5 C12.99 5.33 13.98 5.66 15 6 C15 5.34 15 4.68 15 4 C15.99 4 16.98 4 18 4 C17.67 6.64 17.34 9.28 17 12 C16.34 12 15.68 12 15 12 C14.896875 11.360625 14.79375 10.72125 14.6875 10.0625 C14.460625 9.381875 14.23375 8.70125 14 8 C13.01 7.67 12.02 7.34 11 7 C10.608125 7.886875 10.21625 8.77375 9.8125 9.6875 C7.93363045 13.12129608 5.86704545 15.36541769 3 18 C3 17.01 3 16.02 3 15 C2.05125 14.9175 1.1025 14.835 0.125 14.75 C-3 14 -3 14 -4.375 11.9375 C-4.58125 11.298125 -4.7875 10.65875 -5 10 C-4.01 10.33 -3.02 10.66 -2 11 C-2.845625 10.071875 -3.69125 9.14375 -4.5625 8.1875 C-6.00390625 6.60546875 -6.00390625 6.60546875 -7 5 C-6.67 4.01 -6.34 3.02 -6 2 C-4.02 2.495 -4.02 2.495 -2 3 C-2 2.34 -2 1.68 -2 1 C-1.34 0.67 -0.68 0.34 0 0 Z " fill="#A7823E" transform="translate(95,91)"/>
<path d="M0 0 C3.3 0 6.6 0 10 0 C10.09765625 6.93359375 10.09765625 6.93359375 10 9 C9.67 9.33 9.34 9.66 9 10 C12.63 10 16.26 10 20 10 C20 10.66 20 11.32 20 12 C17.72926348 12.16798051 15.45840707 12.33434113 13.1875 12.5 C11.29064453 12.63921875 11.29064453 12.63921875 9.35546875 12.78125 C3.34603502 13.17301751 3.34603502 13.17301751 1 12 C1 12.66 1 13.32 1 14 C0.01 14 -0.98 14 -2 14 C-2 13.34 -2 12.68 -2 12 C-4.31 12 -6.62 12 -9 12 C-8.67 11.34 -8.34 10.68 -8 10 C-5.36 10 -2.72 10 0 10 C0 6.7 0 3.4 0 0 Z " fill="#552607" transform="translate(38,178)"/>
<path d="M0 0 C12.75022678 6.92155168 19.78510193 20.27854567 23.81640625 33.72265625 C24.71689569 37.49463649 25.25013859 41.12285183 25 45 C24.01 45 23.02 45 22 45 C21.84144531 44.12859375 21.68289062 43.2571875 21.51953125 42.359375 C18.22910224 25.56182577 12.37437487 13.8037158 -1 3 C-0.67 2.01 -0.34 1.02 0 0 Z " fill="#997232" transform="translate(122,38)"/>
<path d="M0 0 C2.42704396 0.51281803 4.64511366 1.19833656 7 2 C6.67 2.66 6.34 3.32 6 4 C4.68 3.67 3.36 3.34 2 3 C1.7525 3.804375 1.505 4.60875 1.25 5.4375 C0.8375 6.283125 0.425 7.12875 0 8 C-1.9375 8.625 -1.9375 8.625 -4 9 C-5.58333333 10.41666667 -5.58333333 10.41666667 -7 12 C-10.31727407 14.21151604 -12.292651 15.33198453 -16.25 14.5625 C-16.8275 14.376875 -17.405 14.19125 -18 14 C-17.67 13.01 -17.34 12.02 -17 11 C-13.535 10.505 -13.535 10.505 -10 10 C-10.33 9.01 -10.66 8.02 -11 7 C-10.01 6.34 -9.02 5.68 -8 5 C-9.84188612 2.94729537 -9.84188612 2.94729537 -12 2 C-7.93261417 -0.71159055 -4.77012858 -0.40999452 0 0 Z " fill="#AA822A" transform="translate(112,54)"/>
<path d="M0 0 C2.97 0 5.94 0 9 0 C10.25664978 2.90600261 11 4.79604584 11 8 C11.99 8.66 12.98 9.32 14 10 C14 10.66 14 11.32 14 12 C14.66 12.33 15.32 12.66 16 13 C15.34 13.66 14.68 14.32 14 15 C11.03 12.03 8.06 9.06 5 6 C4.67 11.28 4.34 16.56 4 22 C5.32 22.66 6.64 23.32 8 24 C4.7 24 1.4 24 -2 24 C-1.01 23.34 -0.02 22.68 1 22 C1.43150903 19.90714944 1.43150903 19.90714944 1.328125 17.5 C1.32296875 16.613125 1.3178125 15.72625 1.3125 14.8125 C1.291875 13.884375 1.27125 12.95625 1.25 12 C1.24484375 11.071875 1.2396875 10.14375 1.234375 9.1875 C1.34530212 4.43579453 1.34530212 4.43579453 0 0 Z " fill="#A37D2F" transform="translate(140,165)"/>
<path d="M0 0 C0.66 0 1.32 0 2 0 C2.33 1.32 2.66 2.64 3 4 C6.63 4 10.26 4 14 4 C14 4.33 14 4.66 14 5 C12.35 5.33 10.7 5.66 9 6 C9 6.33 9 6.66 9 7 C3.555 7.495 3.555 7.495 -2 8 C-1.67 8.99 -1.34 9.98 -1 11 C-1 11.99 -1 12.98 -1 14 C-1.99 14.33 -2.98 14.66 -4 15 C-4.22298824 17.31280295 -4.22298824 17.31280295 -1.75 19.5 C0.5264965 21.56954228 2.19566446 22.85749293 5 24 C-2.89127973 23.08946772 -2.89127973 23.08946772 -6 21 C-7.265625 18.6171875 -7.265625 18.6171875 -8.25 15.875 C-8.58515625 14.96492188 -8.9203125 14.05484375 -9.265625 13.1171875 C-9.50796875 12.41851562 -9.7503125 11.71984375 -10 11 C-9.34 10.34 -8.68 9.68 -8 9 C-7.01 10.485 -7.01 10.485 -6 12 C-5.34 12 -4.68 12 -4 12 C-3.67 9.69 -3.34 7.38 -3 5 C-3.99 4.67 -4.98 4.34 -6 4 C-5.67 3.34 -5.34 2.68 -5 2 C-3.68 2 -2.36 2 -1 2 C-0.67 1.34 -0.34 0.68 0 0 Z " fill="#8E690C" transform="translate(94,80)"/>
<path d="M0 0 C7.59 0 15.18 0 23 0 C23 1.65 23 3.3 23 5 C22.34 5 21.68 5 21 5 C20.67 4.34 20.34 3.68 20 3 C17.41394668 2.5316735 17.41394668 2.5316735 14.4375 2.375 C12.91962891 2.26285156 12.91962891 2.26285156 11.37109375 2.1484375 C10.19740234 2.07496094 10.19740234 2.07496094 9 2 C9 4.97 9 7.94 9 11 C10.32 10.67 11.64 10.34 13 10 C13.33 9.34 13.66 8.68 14 8 C14.66 8 15.32 8 16 8 C16 10.64 16 13.28 16 16 C15.34 16 14.68 16 14 16 C13.67 15.34 13.34 14.68 13 14 C10.97536745 13.34786708 10.97536745 13.34786708 9 13 C9 15.64 9 18.28 9 21 C8.34 21 7.68 21 7 21 C7 14.4 7 7.8 7 1 C4.69 1 2.38 1 0 1 C0 0.67 0 0.34 0 0 Z " fill="#BB9543" transform="translate(112,165)"/>
<path d="M0 0 C1.670625 0.061875 1.670625 0.061875 3.375 0.125 C3.375 1.445 3.375 2.765 3.375 4.125 C5.025 3.795 6.675 3.465 8.375 3.125 C7.715 5.435 7.055 7.745 6.375 10.125 C5.385 9.795 4.395 9.465 3.375 9.125 C3.705 8.795 4.035 8.465 4.375 8.125 C3.715 7.795 3.055 7.465 2.375 7.125 C2.1275 7.764375 1.88 8.40375 1.625 9.0625 C0.375 11.125 0.375 11.125 -1.5 12.0625 C-4.39320282 12.1475942 -5.51667237 11.00743538 -7.625 9.125 C-5.30670103 0.18298969 -5.30670103 0.18298969 0 0 Z " fill="#592E05" transform="translate(183.625,195.875)"/>
<path d="M0 0 C0.33 0.99 0.66 1.98 1 3 C0.38125 3.165 -0.2375 3.33 -0.875 3.5 C-4.27756949 5.90181375 -4.22612026 9.00162134 -5 13 C-6.32 12.67 -7.64 12.34 -9 12 C-9.33 12.66 -9.66 13.32 -10 14 C-11.32 13.67 -12.64 13.34 -14 13 C-14.33 13.66 -14.66 14.32 -15 15 C-17.97 14.67 -20.94 14.34 -24 14 C-20.62738888 11.16700666 -17.02617625 9.72550411 -13 8 C-11.65368175 7.01755155 -10.31558703 6.02323436 -9 5 C-8.34 5 -7.68 5 -7 5 C-6.773125 4.360625 -6.54625 3.72125 -6.3125 3.0625 C-5 1 -5 1 -2.375 0.25 C-1.199375 0.12625 -1.199375 0.12625 0 0 Z " fill="#997014" transform="translate(119,56)"/>
<path d="M0 0 C0.66 0.33 1.32 0.66 2 1 C2.66 0.67 3.32 0.34 4 0 C4.45375 0.474375 4.9075 0.94875 5.375 1.4375 C6.93258204 3.09027808 6.93258204 3.09027808 9 4 C8.34 5.32 7.68 6.64 7 8 C5.68 7.34 4.36 6.68 3 6 C2.84188612 9.05270463 2.84188612 9.05270463 4 12 C4.66 12 5.32 12 6 12 C6 12.66 6 13.32 6 14 C6.639375 14.28875 7.27875 14.5775 7.9375 14.875 C10 16 10 16 11 18 C7.14014702 18 5.013415 17.85214464 2.01171875 15.328125 C-1.25863296 11.72599847 -3.61355653 9.00732067 -4 4 C-2.0625 1.6875 -2.0625 1.6875 0 0 Z " fill="#764A24" transform="translate(82,121)"/>
<path d="M0 0 C-2 1 -2 1 -4.171875 0.44140625 C-5.02265625 0.15136719 -5.8734375 -0.13867188 -6.75 -0.4375 C-10.64402401 -1.67907287 -13.87495401 -2.32566153 -18 -2 C-18 -1.67 -18 -1.34 -18 -1 C-17.34 -0.34 -16.68 0.32 -16 1 C-17.32 1 -18.64 1 -20 1 C-20 1.66 -20 2.32 -20 3 C-19.01 3.33 -18.02 3.66 -17 4 C-17 4.99 -17 5.98 -17 7 C-18.65 6.67 -20.3 6.34 -22 6 C-22 5.34 -22 4.68 -22 4 C-22.66 4 -23.32 4 -24 4 C-24.33 4.66 -24.66 5.32 -25 6 C-25.45375 5.360625 -25.9075 4.72125 -26.375 4.0625 C-27.83921726 1.90297594 -27.83921726 1.90297594 -30 1 C-21.02668098 -6.5928084 -9.7165466 -5.37408997 0 0 Z " fill="#8E6236" transform="translate(121,43)"/>
<path d="M0 0 C1 3 1 3 0.22265625 4.82421875 C-0.8515625 6.54947917 -1.92578125 8.27473958 -3 10 C-0.03 10 2.94 10 6 10 C6.33 9.01 6.66 8.02 7 7 C7.99 8.485 7.99 8.485 9 10 C9.9590625 10.1546875 9.9590625 10.1546875 10.9375 10.3125 C13 11 13 11 14.625 13.9375 C15.07875 14.948125 15.5325 15.95875 16 17 C16.66 17.66 17.32 18.32 18 19 C14.7 19 11.4 19 8 19 C8.66 18.67 9.32 18.34 10 18 C9.34 16.35 8.68 14.7 8 13 C3.71 12.67 -0.58 12.34 -5 12 C-3.97038242 6.85191212 -2.65675751 4.37079462 0 0 Z " fill="#B28B47" transform="translate(177,170)"/>
<path d="M0 0 C2.51171875 1.4375 2.51171875 1.4375 5 4 C5.55636998 7.06962747 5.19844399 9.92228106 4.8125 13 C4.76158203 13.80695313 4.71066406 14.61390625 4.65820312 15.4453125 C4.38558334 17.89283236 4.04929799 19.76835505 3 22 C0.52733517 23.95284706 -2.02550451 25.01376047 -5 26 C-8.11332248 26.66868314 -8.11332248 26.66868314 -9.1875 29.0625 C-9.455625 29.701875 -9.72375 30.34125 -10 31 C-10 28.66666667 -10 26.33333333 -10 24 C-9.01 24 -8.02 24 -7 24 C-7 23.34 -7 22.68 -7 22 C-7.763125 21.896875 -8.52625 21.79375 -9.3125 21.6875 C-12.17059424 20.95635961 -13.15742885 20.23048087 -15 18 C-14.67 17.34 -14.34 16.68 -14 16 C-13.21625 16.639375 -12.4325 17.27875 -11.625 17.9375 C-9.20460719 19.98142313 -9.20460719 19.98142313 -7 21 C-7 20.34 -7 19.68 -7 19 C-6.34 19 -5.68 19 -5 19 C-4.67 19.99 -4.34 20.98 -4 22 C-2.35 21.67 -0.7 21.34 1 21 C1.16687448 18.58354218 1.16687448 18.58354218 1 16 C0.34 15.34 -0.32 14.68 -1 14 C-0.34 13.34 0.32 12.68 1 12 C1.71927295 9.68234271 2.3909893 7.34904126 3 5 C2.505 4.54625 2.01 4.0925 1.5 3.625 C0 2 0 2 0 0 Z " fill="#A37A4D" transform="translate(128,83)"/>
<path d="M0 0 C1.1640625 1.67578125 1.1640625 1.67578125 2 4 C1.0234375 6.41796875 1.0234375 6.41796875 -0.625 9.1875 C-4.71373667 16.75541398 -6.31208302 24.61998866 -8 33 C-10.38951187 29.4157322 -10.59127378 27.1316168 -10 23 C-5.41904762 5.41904762 -5.41904762 5.41904762 0 0 Z " fill="#C49E50" transform="translate(77,51)"/>
<path d="M0 0 C0.99 0 1.98 0 3 0 C3.7795458 2.80747455 4.1710149 5.42029808 4.31640625 8.328125 C4.35830078 9.12734375 4.40019531 9.9265625 4.44335938 10.75 C4.48267578 11.575 4.52199219 12.4 4.5625 13.25 C4.60568359 14.09046875 4.64886719 14.9309375 4.69335938 15.796875 C4.79908543 17.86440671 4.90001295 19.93218281 5 22 C3.35 21.67 1.7 21.34 0 21 C0 14.07 0 7.14 0 0 Z " fill="#A07A20" transform="translate(49,166)"/>
<path d="M0 0 C1.98 0.495 1.98 0.495 4 1 C3.67 7.6 3.34 14.2 3 21 C1.68 21 0.36 21 -1 21 C-1.02888146 17.68751813 -1.04675799 14.37506833 -1.0625 11.0625 C-1.07087891 10.11697266 -1.07925781 9.17144531 -1.08789062 8.19726562 C-1.09111328 7.29814453 -1.09433594 6.39902344 -1.09765625 5.47265625 C-1.10289307 4.64000244 -1.10812988 3.80734863 -1.11352539 2.94946289 C-1 1 -1 1 0 0 Z " fill="#99721D" transform="translate(33,166)"/>
<path d="M0 0 C3.3 0 6.6 0 10 0 C9.01 0.33 8.02 0.66 7 1 C6.67 8.26 6.34 15.52 6 23 C15.30480306 22.41028348 15.30480306 22.41028348 22 18 C21.67 19.98 21.34 21.96 21 24 C13.41 24 5.82 24 -2 24 C-2 23.67 -2 23.34 -2 23 C1.465 22.505 1.465 22.505 5 22 C5 15.07 5 8.14 5 1 C3.35 1 1.7 1 0 1 C0 0.67 0 0.34 0 0 Z " fill="#D4AB68" transform="translate(88,165)"/>
<path d="M0 0 C2.52845528 1.26422764 2.76422764 2.52845528 4 5 C2.02 5.99 2.02 5.99 0 7 C-0.33 6.67 -0.66 6.34 -1 6 C-1.43570313 6.97582031 -1.87140625 7.95164062 -2.3203125 8.95703125 C-2.92089216 10.24264709 -3.52250986 11.52777837 -4.125 12.8125 C-4.40859375 13.45509766 -4.6921875 14.09769531 -4.984375 14.75976562 C-6.6044087 18.15831459 -7.88778296 19.92609747 -11.0546875 22.01171875 C-14 23 -14 23 -17 22 C-16.05125 21.7525 -15.1025 21.505 -14.125 21.25 C-10.98439027 20.35414819 -10.98439027 20.35414819 -9.953125 18.296875 C-8.38253078 14.5120004 -6.89464082 10.69584728 -5.4140625 6.875 C-3.96588411 3.93063731 -2.44104075 2.16058075 0 0 Z " fill="#CEA352" transform="translate(120,57)"/>
<path d="M0 0 C1 3 1 3 -0.2578125 5.7421875 C-6.45940988 16.14737808 -6.45940988 16.14737808 -11 20 C-11.66 19.67 -12.32 19.34 -13 19 C-11.68 17.68 -10.36 16.36 -9 15 C-9.66 12.69 -10.32 10.38 -11 8 C-9.68 8.33 -8.36 8.66 -7 9 C-6.67 6.36 -6.34 3.72 -6 1 C-5.34 2.32 -4.68 3.64 -4 5 C-2.29159719 3.36587557 -1.06546953 2.13093906 0 0 Z " fill="#996F44" transform="translate(136,117)"/>
<path d="M0 0 C3.5874696 2.6906022 6.27142941 5.45285824 9 9 C9.8971875 9.7115625 9.8971875 9.7115625 10.8125 10.4375 C12 12 12 12 11.6875 15.1875 C11.460625 16.115625 11.23375 17.04375 11 18 C9.84481082 17.09515208 8.70114594 16.1755794 7.5625 15.25 C6.92441406 14.73953125 6.28632813 14.2290625 5.62890625 13.703125 C3.78607226 11.77632495 3.45685579 10.58359828 3 8 C2.04134491 5.66924071 2.04134491 5.66924071 -1 4 C-0.67 2.68 -0.34 1.36 0 0 Z " fill="#9B7628" transform="translate(151,169)"/>
<path d="M0 0 C1.65 0 3.3 0 5 0 C4.67 6.93 4.34 13.86 4 21 C2.68 20.67 1.36 20.34 0 20 C0 13.4 0 6.8 0 0 Z " fill="#906A19" transform="translate(62,166)"/>
<path d="M0 0 C2 2 2 2 2.1953125 3.9453125 C2.13020833 5.96354167 2.06510417 7.98177083 2 10 C1.67 9.01 1.34 8.02 1 7 C-3.83083522 8.61027841 -6.75784318 10.76411772 -9.25 15.25 C-9.4975 15.8275 -9.745 16.405 -10 17 C-10.66 16.67 -11.32 16.34 -12 16 C-9.69 11.38 -7.38 6.76 -5 2 C-3.33333333 2 -1.66666667 2 0 2 C0 1.34 0 0.68 0 0 Z " fill="#A37B26" transform="translate(124,60)"/>
<path d="M0 0 C0.928125 0.2784375 0.928125 0.2784375 1.875 0.5625 C4.04160178 1.23686176 4.04160178 1.23686176 6 0 C6 1.65 6 3.3 6 5 C6.99 5.33 7.98 5.66 9 6 C8.67 8.31 8.34 10.62 8 13 C7.34 13 6.68 13 6 13 C5.67 13.66 5.34 14.32 5 15 C3.01297464 13.34237456 2.09011076 12.40771424 1.5234375 9.84375 C1.47445312 9.0703125 1.42546875 8.296875 1.375 7.5 C1.17885852 4.69797885 0.90041818 2.70125455 0 0 Z " fill="#9F7929" transform="translate(82,79)"/>
<path d="M0 0 C3.66786393 1.50349377 5.68910393 3.63728792 8.25 6.625 C8.95640625 7.44226562 9.6628125 8.25953125 10.390625 9.1015625 C10.92171875 9.72804688 11.4528125 10.35453125 12 11 C11.67 11.66 11.34 12.32 11 13 C10.34 13 9.68 13 9 13 C7.37485532 14.45833358 7.37485532 14.45833358 6 16 C6 14.35 6 12.7 6 11 C3.03 10.505 3.03 10.505 0 10 C0 9.01 0 8.02 0 7 C1.65 7 3.3 7 5 7 C5 7.66 5 8.32 5 9 C5 8.01 5 7.02 5 6 C3.9227279 4.34496905 3.9227279 4.34496905 2.5 2.8125 C1.675 1.884375 0.85 0.95625 0 0 Z " fill="#764A20" transform="translate(121,44)"/>
<path d="M0 0 C0.33 0.99 0.66 1.98 1 3 C0.67 3.66 0.34 4.32 0 5 C-5.28 5 -10.56 5 -16 5 C-16 4.34 -16 3.68 -16 3 C-18.97 3 -21.94 3 -25 3 C-25 2.67 -25 2.34 -25 2 C-24.31373535 1.97494385 -23.6274707 1.9498877 -22.92041016 1.92407227 C-19.82174183 1.80828573 -16.72339077 1.68548115 -13.625 1.5625 C-12.54476562 1.52318359 -11.46453125 1.48386719 -10.3515625 1.44335938 C-8.8046875 1.38051758 -8.8046875 1.38051758 -7.2265625 1.31640625 C-6.27346191 1.27974854 -5.32036133 1.24309082 -4.33837891 1.20532227 C-1.97867651 1.14236535 -1.97867651 1.14236535 0 0 Z " fill="#633906" transform="translate(137,187)"/>
<path d="M0 0 C0.61875 0.165 1.2375 0.33 1.875 0.5 C3.96063386 1.07634644 3.96063386 1.07634644 6 1 C6.99 1 7.98 1 9 1 C9.33 2.65 9.66 4.3 10 6 C9.34 6 8.68 6 8 6 C8 6.66 8 7.32 8 8 C6.68 8.33 5.36 8.66 4 9 C4 8.34 4 7.68 4 7 C3.34 7 2.68 7 2 7 C0.3125 5.1875 0.3125 5.1875 -1 3 C-0.67 2.01 -0.34 1.02 0 0 Z " fill="#562B06" transform="translate(84,126)"/>
<path d="M0 0 C2.64 0 5.28 0 8 0 C7.01 0.66 6.02 1.32 5 2 C4.49156938 4.31753588 4.49156938 4.31753588 4.48828125 7.0078125 C4.43510742 8.48701172 4.43510742 8.48701172 4.38085938 9.99609375 C4.35830078 11.02863281 4.33574219 12.06117188 4.3125 13.125 C4.27833984 14.16527344 4.24417969 15.20554688 4.20898438 16.27734375 C4.12632942 18.85145507 4.05723845 21.42521829 4 24 C3.34 24 2.68 24 2 24 C1.375 21.6875 1.375 21.6875 1 19 C1.66 18.01 2.32 17.02 3 16 C2.01 15.67 1.02 15.34 0 15 C0.66 15 1.32 15 2 15 C1.85930804 12.87465341 1.71229079 10.74972471 1.5625 8.625 C1.48128906 7.44164062 1.40007812 6.25828125 1.31640625 5.0390625 C1.18915064 2.08481099 1.18915064 2.08481099 0 0 Z " fill="#BD9746" transform="translate(160,165)"/>
<path d="M0 0 C7.59 0 15.18 0 23 0 C23 1.65 23 3.3 23 5 C22.34 5 21.68 5 21 5 C20.67 4.34 20.34 3.68 20 3 C17.41394668 2.5316735 17.41394668 2.5316735 14.4375 2.375 C12.91962891 2.26285156 12.91962891 2.26285156 11.37109375 2.1484375 C10.19740234 2.07496094 10.19740234 2.07496094 9 2 C9 4.64 9 7.28 9 10 C8.67 10 8.34 10 8 10 C8 7.03 8 4.06 8 1 C5.36 1 2.72 1 0 1 C0 0.67 0 0.34 0 0 Z " fill="#C1985A" transform="translate(112,165)"/>
<path d="M0 0 C2.63693476 4.52045959 2.02428986 8.01674855 1 13 C0.13575599 15.75193489 -0.885017 18.33373631 -2 21 C-2.66 21 -3.32 21 -4 21 C-3.29843593 13.84404654 -1.69214979 6.98144819 0 0 Z " fill="#C8A257" transform="translate(144,100)"/>
<path d="M0 0 C0.33 0 0.66 0 1 0 C1.07427838 3.34252724 1.06546953 5.8035914 0 9 C-1.32 8.67 -2.64 8.34 -4 8 C-4.33 8.66 -4.66 9.32 -5 10 C-7.97 9.67 -10.94 9.34 -14 9 C-11.54274343 6.93590449 -9.43010463 5.76004405 -6.4375 4.5 C-3.45418284 3.19818887 -2.04876437 2.3902251 0 0 Z " fill="#946A1D" transform="translate(109,61)"/>
<path d="M0 0 C3.2542015 2.83430453 4.5206753 4.68607774 5 9 C2.03 9 -0.94 9 -4 9 C-2.80100302 5.9168649 -1.52299523 2.93720508 0 0 Z " fill="#613808" transform="translate(178,171)"/>
<path d="M0 0 C2.60557491 0.28184585 5.20900398 0.57502711 7.8125 0.875 C8.55048828 0.95363281 9.28847656 1.03226563 10.04882812 1.11328125 C13.71506181 1.54460286 15.87951745 1.9196783 19 4 C11.76751173 5.75333049 6.57793349 5.22184497 0 2 C0 1.34 0 0.68 0 0 Z " fill="#CDA952" transform="translate(95,144)"/>
<path d="M0 0 C2.625 0.375 2.625 0.375 5 1 C5.33 3.64 5.66 6.28 6 9 C3.03 8.505 3.03 8.505 0 8 C-0.66 6.02 -1.32 4.04 -2 2 C-1.34 1.34 -0.68 0.68 0 0 Z " fill="#552A08" transform="translate(121,69)"/>
<path d="M0 0 C0.66 0.33 1.32 0.66 2 1 C2 2.98 2 4.96 2 7 C2.99 6.67 3.98 6.34 5 6 C5 7.32 5 8.64 5 10 C3.25 10.6875 3.25 10.6875 1 11 C-1.25 9.5625 -1.25 9.5625 -3 8 C-1.125 1.125 -1.125 1.125 0 0 Z " fill="#73481F" transform="translate(179,197)"/>
<path d="M0 0 C1.1640625 1.68359375 1.1640625 1.68359375 2 4 C1.0234375 6.47265625 1.0234375 6.47265625 -0.625 9.0625 C-1.41777344 10.34833984 -1.41777344 10.34833984 -2.2265625 11.66015625 C-3.96618616 13.95538659 -5.61558598 15.41212603 -8 17 C-8 12.90540797 -6.03072724 10.23249165 -4 6.8125 C-3.6184375 6.15830078 -3.236875 5.50410156 -2.84375 4.83007812 C-1.90161068 3.21666455 -0.95155734 1.60787702 0 0 Z " fill="#D2AC61" transform="translate(139,119)"/>
<path d="M0 0 C0.66 0 1.32 0 2 0 C2 7.26 2 14.52 2 22 C1.34 21.67 0.68 21.34 0 21 C-1.49076862 13.95273016 -0.70538421 7.11895448 0 0 Z " fill="#AF8C40" transform="translate(145,83)"/>
<path d="M0 0 C0 0.99 0 1.98 0 3 C-1.65 3.66 -3.3 4.32 -5 5 C-4.34 5.66 -3.68 6.32 -3 7 C-4.2065625 7.309375 -4.2065625 7.309375 -5.4375 7.625 C-6.283125 8.07875 -7.12875 8.5325 -8 9 C-8.82888749 11.97314468 -8.82888749 11.97314468 -9 15 C-9.33 15.66 -9.66 16.32 -10 17 C-11.55929968 15.44070032 -11.31941003 13.91140432 -11.4375 11.75 C-11.39915842 7.73052487 -11.19849457 7.21695918 -8.3125 4.0625 C-5.54790538 2.34114863 -3.08760573 0.99893127 0 0 Z " fill="#B08840" transform="translate(91,62)"/>
<path d="M0 0 C9.57 0 19.14 0 29 0 C29 0.66 29 1.32 29 2 C26.72926348 2.16798051 24.45840707 2.33434113 22.1875 2.5 C20.29064453 2.63921875 20.29064453 2.63921875 18.35546875 2.78125 C12.34603502 3.17301751 12.34603502 3.17301751 10 2 C10 2.66 10 3.32 10 4 C9.01 4 8.02 4 7 4 C7 3.34 7 2.68 7 2 C4.69 2 2.38 2 0 2 C0 1.34 0 0.68 0 0 Z " fill="#6B4012" transform="translate(29,188)"/>
<path d="M0 0 C0.5625 1.9375 0.5625 1.9375 1 4 C0 5 0 5 -2.22485352 5.11352539 C-3.18319092 5.10828857 -4.14152832 5.10305176 -5.12890625 5.09765625 C-6.68061523 5.09282227 -6.68061523 5.09282227 -8.26367188 5.08789062 C-9.35228516 5.07951172 -10.44089844 5.07113281 -11.5625 5.0625 C-13.2012207 5.05573242 -13.2012207 5.05573242 -14.87304688 5.04882812 C-17.58208495 5.03699826 -20.29101599 5.02051543 -23 5 C-22.01 4.67 -21.02 4.34 -20 4 C-19.67 3.01 -19.34 2.02 -19 1 C-19 1.66 -19 2.32 -19 3 C-8.9859945 3.66124398 -8.9859945 3.66124398 0 0 Z " fill="#DFB773" transform="translate(135,184)"/>
<path d="M0 0 C3.3 0 6.6 0 10 0 C10.33 1.32 10.66 2.64 11 4 C9.68 3.01 8.36 2.02 7 1 C6.34 2.32 5.68 3.64 5 5 C4.67 4.67 4.34 4.34 4 4 C3.34 5.65 2.68 7.3 2 9 C1.34 9 0.68 9 0 9 C0 6.03 0 3.06 0 0 Z " fill="#522700" transform="translate(69,167)"/>
<path d="M0 0 C2.64 1.65 5.28 3.3 8 5 C8 4.34 8 3.68 8 3 C8.66 3 9.32 3 10 3 C10.33 4.98 10.66 6.96 11 9 C10.38125 9.2475 9.7625 9.495 9.125 9.75 C6.64931313 11.20628639 6.04874998 12.37812506 5 15 C5 12.66666667 5 10.33333333 5 8 C5.99 8 6.98 8 8 8 C8 7.34 8 6.68 8 6 C7.236875 5.896875 6.47375 5.79375 5.6875 5.6875 C2.81583516 4.95288806 1.76957906 4.3283935 0 2 C0 1.34 0 0.68 0 0 Z " fill="#7D512A" transform="translate(113,99)"/>
<path d="M0 0 C2.97 0 5.94 0 9 0 C8.360625 0.45375 7.72125 0.9075 7.0625 1.375 C4.90297594 2.83921726 4.90297594 2.83921726 4 5 C4 6.32 4 7.64 4 9 C2.68 9.33 1.36 9.66 0 10 C0 6.7 0 3.4 0 0 Z " fill="#623605" transform="translate(38,178)"/>
<path d="M0 0 C0.66 0.33 1.32 0.66 2 1 C0.5039904 4.80802445 -1.66063151 6.69424557 -5 9 C-8.01939626 10.18945913 -9.93248434 9.98598718 -13 9 C-12.67 8.01 -12.34 7.02 -12 6 C-10.0390625 5.41015625 -10.0390625 5.41015625 -7.625 5.0625 C-3.83423458 4.38795155 -3.83423458 4.38795155 -0.9375 1.875 C-0.628125 1.25625 -0.31875 0.6375 0 0 Z " fill="#D6AC53" transform="translate(107,59)"/>
<path d="M0 0 C3.31750585 0.33449233 6.21013707 1.16487047 9.36328125 2.23828125 C9.03328125 2.89828125 8.70328125 3.55828125 8.36328125 4.23828125 C7.04328125 3.90828125 5.72328125 3.57828125 4.36328125 3.23828125 C4.03328125 3.89828125 3.70328125 4.55828125 3.36328125 5.23828125 C2.04328125 4.90828125 0.72328125 4.57828125 -0.63671875 4.23828125 C-0.63671875 3.57828125 -0.63671875 2.91828125 -0.63671875 2.23828125 C-1.29671875 2.23828125 -1.95671875 2.23828125 -2.63671875 2.23828125 C-3.29671875 2.89828125 -3.95671875 3.55828125 -4.63671875 4.23828125 C-4.63671875 3.57828125 -4.63671875 2.91828125 -4.63671875 2.23828125 C-6.28671875 2.56828125 -7.93671875 2.89828125 -9.63671875 3.23828125 C-6.64375109 -0.35138565 -4.44953904 -0.13836537 0 0 Z " fill="#B99246" transform="translate(109.63671875,53.76171875)"/>
<path d="M0 0 C3.3 0 6.6 0 10 0 C9.01 0.33 8.02 0.66 7 1 C6.26676204 3.01508358 6.26676204 3.01508358 6 5 C5.34 4.67 4.68 4.34 4 4 C0.57176596 5.05484124 -1.65361044 6.28312788 -4 9 C-3.67 7.35 -3.34 5.7 -3 4 C-2.34 4 -1.68 4 -1 4 C-0.67 2.68 -0.34 1.36 0 0 Z " fill="#502502" transform="translate(167,195)"/>
<path d="M0 0 C-0.3125 2.875 -0.3125 2.875 -1 6 C-1.99 6.66 -2.98 7.32 -4 8 C-4.33 7.01 -4.66 6.02 -5 5 C-7.01508358 4.26676204 -7.01508358 4.26676204 -9 4 C-8.67 3.01 -8.34 2.02 -8 1 C-5.17884816 -0.07009208 -3.09455459 0 0 0 Z " fill="#5B2F0B" transform="translate(197,166)"/>
<path d="M0 0 C0 0.99 0 1.98 0 3 C-0.928125 2.690625 -1.85625 2.38125 -2.8125 2.0625 C-7.77871546 0.6216844 -12.86205306 0.35305964 -18 0 C-18 -0.33 -18 -0.66 -18 -1 C-11.10952386 -3.2642463 -6.62578284 -2.9134648 0 0 Z " fill="#CEA652" transform="translate(121,37)"/>
<path d="M0 0 C1.24546405 2.49092811 0.7767578 3.41080733 0 6 C0.99 6 1.98 6 3 6 C3 6.66 3 7.32 3 8 C2.01 8.33 1.02 8.66 0 9 C-0.33 9.66 -0.66 10.32 -1 11 C-3 9.66666667 -5 8.33333333 -7 7 C-6.67 6.01 -6.34 5.02 -6 4 C-5.01 4.33 -4.02 4.66 -3 5 C-2.01 3.35 -1.02 1.7 0 0 Z " fill="#653A0E" transform="translate(171,182)"/>
<path d="M0 0 C2.31 0 4.62 0 7 0 C5.515 1.98 5.515 1.98 4 4 C4.99 3.67 5.98 3.34 7 3 C7.66 3.33 8.32 3.66 9 4 C9 4.66 9 5.32 9 6 C7.68 5.67 6.36 5.34 5 5 C5 5.66 5 6.32 5 7 C3.35 7.33 1.7 7.66 0 8 C0 5.36 0 2.72 0 0 Z " fill="#522502" transform="translate(128,173)"/>
<path d="M0 0 C0.99 0 1.98 0 3 0 C3 0.66 3 1.32 3 2 C2.34 2 1.68 2 1 2 C1 7.61 1 13.22 1 19 C2.32 19.66 3.64 20.32 5 21 C1.7 21 -1.6 21 -5 21 C-4.01 20.34 -3.02 19.68 -2 19 C-0.76240177 15.28720531 -0.64391103 11.68693654 -0.4375 7.8125 C-0.37272461 6.68811523 -0.37272461 6.68811523 -0.30664062 5.54101562 C-0.20077315 3.69421625 -0.0999024 1.84713166 0 0 Z " fill="#C69E58" transform="translate(143,168)"/>
<path d="M0 0 C0.68359375 1.734375 0.68359375 1.734375 1 4 C-0.21484375 6.140625 -0.21484375 6.140625 -1.9375 8.25 C-2.50339844 8.95640625 -3.06929687 9.6628125 -3.65234375 10.390625 C-4.09707031 10.92171875 -4.54179688 11.4528125 -5 12 C-5.33 11.01 -5.66 10.02 -6 9 C-6.94875 8.9175 -7.8975 8.835 -8.875 8.75 C-12 8 -12 8 -13.375 5.9375 C-13.58125 5.298125 -13.7875 4.65875 -14 4 C-13.195625 4.495 -13.195625 4.495 -12.375 5 C-9.38358852 6.25954167 -7.21567216 6.34952958 -4 6 C-3.34 5.01 -2.68 4.02 -2 3 C-1.34 3 -0.68 3 0 3 C0 2.01 0 1.02 0 0 Z " fill="#D1AB66" transform="translate(104,97)"/>
<path d="M0 0 C1.13709908 1.70564862 2.25284805 3.42725228 3.296875 5.19140625 C6.40006625 10.35826704 6.40006625 10.35826704 11.375 13.5625 C12.674375 13.7790625 12.674375 13.7790625 14 14 C14 14.33 14 14.66 14 15 C6.13953488 14.09302326 6.13953488 14.09302326 3 12 C1.69921875 9.6875 1.69921875 9.6875 0.6875 7 C0.34074219 6.113125 -0.00601563 5.22625 -0.36328125 4.3125 C-1 2 -1 2 0 0 Z " fill="#744D18" transform="translate(85,89)"/>
<path d="M0 0 C0.33 0 0.66 0 1 0 C1.33 6.93 1.66 13.86 2 21 C2.99 21.33 3.98 21.66 5 22 C1.37 22 -2.26 22 -6 22 C-5.34 21.34 -4.68 20.68 -4 20 C-2.68 20 -1.36 20 0 20 C0 13.4 0 6.8 0 0 Z " fill="#C49E50" transform="translate(36,167)"/>
<path d="M0 0 C0 3.63 0 7.26 0 11 C-1.32 10.34 -2.64 9.68 -4 9 C-4.6875 6.5 -4.6875 6.5 -5 4 C-5.33 3.34 -5.66 2.68 -6 2 C-2.25 0 -2.25 0 0 0 Z " fill="#542B00" transform="translate(162,168)"/>
<path d="M0 0 C0.33 1.32 0.66 2.64 1 4 C-0.32 4.33 -1.64 4.66 -3 5 C-2.67 5.99 -2.34 6.98 -2 8 C-1.01 8.33 -0.02 8.66 1 9 C1.33 8.34 1.66 7.68 2 7 C2 7.99 2 8.98 2 10 C0.68 10.33 -0.64 10.66 -2 11 C-6.00390625 6.60546875 -6.00390625 6.60546875 -7 5 C-6.67 4.01 -6.34 3.02 -6 2 C-4.02 2.495 -4.02 2.495 -2 3 C-2 2.34 -2 1.68 -2 1 C-1.34 0.67 -0.68 0.34 0 0 Z " fill="#AB8732" transform="translate(95,91)"/>
<path d="M0 0 C0.66 0 1.32 0 2 0 C1.67 1.65 1.34 3.3 1 5 C3.51083114 3.74458443 3.87125446 2.49936512 5 0 C8 0 8 0 10 1 C9.67 2.65 9.34 4.3 9 6 C8.360625 5.814375 7.72125 5.62875 7.0625 5.4375 C6.0415625 5.2209375 6.0415625 5.2209375 5 5 C4.67 5.33 4.34 5.66 4 6 C2.33382885 6.04063832 0.66611905 6.042721 -1 6 C-0.67 4.02 -0.34 2.04 0 0 Z " fill="#A47B46" transform="translate(145,200)"/>
<path d="M0 0 C6.875 5.75 6.875 5.75 8 8 C6.35 8.33 4.7 8.66 3 9 C2.67 7.68 2.34 6.36 2 5 C1.67 8.96 1.34 12.92 1 17 C0.67 17 0.34 17 0 17 C0 11.39 0 5.78 0 0 Z " fill="#643B08" transform="translate(144,170)"/>
<path d="M0 0 C0.99 0.495 0.99 0.495 2 1 C3.63138808 7.2536543 2.36207066 12.77499937 1 19 C0.67 19 0.34 19 0 19 C0 12.73 0 6.46 0 0 Z " fill="#AD8A38" transform="translate(66,80)"/>
<path d="M0 0 C2.475 0.495 2.475 0.495 5 1 C4.34 2.98 3.68 4.96 3 7 C3.66 7 4.32 7 5 7 C5 7.66 5 8.32 5 9 C3.35 9 1.7 9 0 9 C0 6.03 0 3.06 0 0 Z " fill="#502700" transform="translate(121,178)"/>
<path d="M0 0 C0.33 0 0.66 0 1 0 C1 1.65 1 3.3 1 5 C-6.59 5 -14.18 5 -22 5 C-22 4.67 -22 4.34 -22 4 C-20.35451172 3.92652344 -20.35451172 3.92652344 -18.67578125 3.8515625 C-17.22133075 3.77649409 -15.76690484 3.70094803 -14.3125 3.625 C-13.2306543 3.57859375 -13.2306543 3.57859375 -12.12695312 3.53125 C-5.53942613 3.24767785 -5.53942613 3.24767785 0 0 Z " fill="#DCB374" transform="translate(82,184)"/>
<path d="M0 0 C0 0.66 0 1.32 0 2 C-1.1446875 2.185625 -1.1446875 2.185625 -2.3125 2.375 C-6.19461823 4.7223273 -6.42971619 7.63193166 -7.51953125 11.8828125 C-7.67808594 12.58148438 -7.83664063 13.28015625 -8 14 C-9.54296875 12.1953125 -9.54296875 12.1953125 -11 10 C-9.59818699 3.62812269 -6.84511014 0 0 0 Z " fill="#DAB260" transform="translate(125,67)"/>
<path d="M0 0 C0.99 0.33 1.98 0.66 3 1 C3 2.32 3 3.64 3 5 C0.36 5.66 -2.28 6.32 -5 7 C-4 3 -4 3 -2.125 1.1875 C-1.42375 0.795625 -0.7225 0.40375 0 0 Z " fill="#A9822E" transform="translate(97,57)"/>
<path d="M0 0 C0.66 0.33 1.32 0.66 2 1 C1.67 2.32 1.34 3.64 1 5 C-0.32 5 -1.64 5 -3 5 C-5.33634657 5.31151288 -7.67038557 5.64159778 -10 6 C-10 5.01 -10 4.02 -10 3 C-9.04287109 2.80083984 -9.04287109 2.80083984 -8.06640625 2.59765625 C-7.24011719 2.42105469 -6.41382812 2.24445313 -5.5625 2.0625 C-4.73878906 1.88847656 -3.91507812 1.71445313 -3.06640625 1.53515625 C-1.02338796 1.19247006 -1.02338796 1.19247006 0 0 Z " fill="#D0AA5A" transform="translate(112,87)"/>
<path d="M0 0 C1 3 1 3 -0.5625 6.5 C-2.74055026 10.06958237 -4.98772464 11.63411903 -9 13 C-9.99 12.67 -10.98 12.34 -12 12 C-11.05125 11.7525 -10.1025 11.505 -9.125 11.25 C-5.98140441 10.34308856 -5.98140441 10.34308856 -4.875 8.25 C-4.58625 7.5075 -4.2975 6.765 -4 6 C-2.68457624 3.98817543 -1.3540932 1.98600337 0 0 Z " fill="#DFB561" transform="translate(115,67)"/>
<path d="M0 0 C0.763125 0.20625 1.52625 0.4125 2.3125 0.625 C1.6525 2.605 0.9925 4.585 0.3125 6.625 C-0.3475 6.625 -1.0075 6.625 -1.6875 6.625 C-1.3575 4.975 -1.0275 3.325 -0.6875 1.625 C-1.3475 1.625 -2.0075 1.625 -2.6875 1.625 C-3.0175 3.275 -3.3475 4.925 -3.6875 6.625 C-4.3475 6.295 -5.0075 5.965 -5.6875 5.625 C-5.6875 4.305 -5.6875 2.985 -5.6875 1.625 C-2.6875 -0.375 -2.6875 -0.375 0 0 Z " fill="#633811" transform="translate(147.6875,198.375)"/>
<path d="M0 0 C2.31 0 4.62 0 7 0 C7 0.66 7 1.32 7 2 C5 4 5 4 2 6 C-0.6875 5.125 -0.6875 5.125 -3 4 C-2.01 3.67 -1.02 3.34 0 3 C0 2.01 0 1.02 0 0 Z " fill="#C39F3D" transform="translate(97,98)"/>
<path d="M0 0 C0.66 0.66 1.32 1.32 2 2 C-0.34877419 4.50535913 -2.0911787 5.90564909 -5.55859375 6.265625 C-8.04963675 6.25149142 -10.51524028 6.17369194 -13 6 C-13 5.34 -13 4.68 -13 4 C-9.7 4 -6.4 4 -3 4 C-2.67 3.01 -2.34 2.02 -2 1 C-1.34 0.67 -0.68 0.34 0 0 Z " fill="#D8B259" transform="translate(111,78)"/>
<path d="M0 0 C5.28 0 10.56 0 16 0 C16 0.66 16 1.32 16 2 C12.125 3 12.125 3 11 3 C11 3.66 11 4.32 11 5 C10.34 5 9.68 5 9 5 C9 3.68 9 2.36 9 1 C7.3603125 1.2475 7.3603125 1.2475 5.6875 1.5 C2 2 2 2 -1 2 C-0.67 1.34 -0.34 0.68 0 0 Z " fill="#4F2400" transform="translate(178,195)"/>
<path d="M0 0 C1.35544922 0.10828125 1.35544922 0.10828125 2.73828125 0.21875 C3.91777344 0.3115625 5.09726563 0.404375 6.3125 0.5 C7.48425781 0.5928125 8.65601563 0.685625 9.86328125 0.78125 C11.905194 0.92364989 13.9531279 1 16 1 C15.34 2.32 14.68 3.64 14 5 C13.67 4.34 13.34 3.68 13 3 C10.69 3.33 8.38 3.66 6 4 C6 3.34 6 2.68 6 2 C4.02 2 2.04 2 0 2 C0 1.34 0 0.68 0 0 Z " fill="#62370D" transform="translate(184,188)"/>
<path d="M0 0 C2.70272533 2.87164566 3.94791837 4.30991841 4.25 8.3125 C4.1675 9.199375 4.085 10.08625 4 11 C0.91910327 8.22719294 -0.68775452 5.93673644 -2 2 C-1.34 1.34 -0.68 0.68 0 0 Z M4 3 C4.66 3 5.32 3 6 3 C6 3.66 6 4.32 6 5 C5.34 5 4.68 5 4 5 C4 4.34 4 3.68 4 3 Z " fill="#8F6A36" transform="translate(74,120)"/>
<path d="M0 0 C1.1484375 1.703125 1.1484375 1.703125 2 4 C1.1015625 6.359375 1.1015625 6.359375 -0.375 8.75 C-1.09816406 9.94882812 -1.09816406 9.94882812 -1.8359375 11.171875 C-2.22007813 11.77515625 -2.60421875 12.3784375 -3 13 C-4.1484375 11.296875 -4.1484375 11.296875 -5 9 C-4.1015625 6.640625 -4.1015625 6.640625 -2.625 4.25 C-2.14289063 3.45078125 -1.66078125 2.6515625 -1.1640625 1.828125 C-0.77992187 1.22484375 -0.39578125 0.6215625 0 0 Z " fill="#CFA555" transform="translate(77,51)"/>
<path d="M0 0 C0 0.66 0 1.32 0 2 C3.465 1.505 3.465 1.505 7 1 C7.33 2.32 7.66 3.64 8 5 C7.34 4.67 6.68 4.34 6 4 C3.45384991 3.76827173 0.92603775 3.58105471 -1.625 3.4375 C-2.33140625 3.39431641 -3.0378125 3.35113281 -3.765625 3.30664062 C-5.51018537 3.20055249 -7.25506697 3.09977111 -9 3 C-5.79678245 0.39225238 -4.1747899 -0.34789916 0 0 Z " fill="#4F2400" transform="translate(190,190)"/>
<path d="M0 0 C7.59 0.33 15.18 0.66 23 1 C23 1.33 23 1.66 23 2 C21.58847656 2.09087891 21.58847656 2.09087891 20.1484375 2.18359375 C18.90320313 2.26738281 17.65796875 2.35117188 16.375 2.4375 C15.14523438 2.51871094 13.91546875 2.59992188 12.6484375 2.68359375 C9.04383396 2.92742473 9.04383396 2.92742473 5.7265625 3.66015625 C3 4 3 4 0 2 C0 1.34 0 0.68 0 0 Z " fill="#6B410C" transform="translate(85,188)"/>
<path d="M0 0 C1.98 0.495 1.98 0.495 4 1 C4.625 3.375 4.625 3.375 5 6 C4.34 6.66 3.68 7.32 3 8 C3 8.66 3 9.32 3 10 C1.68 9.34 0.36 8.68 -1 8 C-0.649375 7.236875 -0.29875 6.47375 0.0625 5.6875 C1.32360884 2.95240621 1.32360884 2.95240621 0 0 Z " fill="#5F330F" transform="translate(83,162)"/>
<path d="M0 0 C0 0.66 0 1.32 0 2 C0.639375 2.28875 1.27875 2.5775 1.9375 2.875 C4 4 4 4 5 6 C-1.4 5.63076923 -1.4 5.63076923 -4.4375 2.4375 C-4.953125 1.633125 -5.46875 0.82875 -6 0 C-3.50907189 -1.24546405 -2.58919267 -0.7767578 0 0 Z " fill="#7F5824" transform="translate(88,133)"/>
<path d="M0 0 C0.33 0 0.66 0 1 0 C1.8125 2.6875 1.8125 2.6875 2 6 C-0.3125 8.625 -0.3125 8.625 -3 11 C-4.29519995 13.16620544 -4.29519995 13.16620544 -5 15 C-5.66 14.67 -6.32 14.34 -7 14 C-4.69 9.38 -2.38 4.76 0 0 Z " fill="#8B611F" transform="translate(119,62)"/>
<path d="M0 0 C2.97 0 5.94 0 9 0 C8.34 2.31 7.68 4.62 7 7 C6.01 6.67 5.02 6.34 4 6 C4.33 5.67 4.66 5.34 5 5 C3.0745356 3.8509288 3.0745356 3.8509288 1 4 C0.67 2.68 0.34 1.36 0 0 Z " fill="#926838" transform="translate(183,199)"/>
<path d="M0 0 C2.64 0.33 5.28 0.66 8 1 C8 1.99 8 2.98 8 4 C6.02 4.33 4.04 4.66 2 5 C1.34 3.35 0.68 1.7 0 0 Z " fill="#562A04" transform="translate(126,182)"/>
<path d="M0 0 C3.02990095 1.71967351 5.76327296 3.29238306 8 6 C8 6.66 8 7.32 8 8 C4.12867972 7.42647107 1.91827204 5.51295648 -1 3 C-0.67 2.01 -0.34 1.02 0 0 Z " fill="#A47C34" transform="translate(122,38)"/>
<path d="M0 0 C0.58394531 0.36480469 1.16789062 0.72960938 1.76953125 1.10546875 C0.52217558 1.75639465 -0.72848707 2.40098544 -1.98046875 3.04296875 C-2.6765625 3.40261719 -3.37265625 3.76226562 -4.08984375 4.1328125 C-6.13271308 5.06105057 -8.04162251 5.63713453 -10.23046875 6.10546875 C-9.13457267 2.8177805 -8.75319566 2.46253492 -5.91796875 0.79296875 C-5.32371094 0.42558594 -4.72945313 0.05820312 -4.1171875 -0.3203125 C-2.23046875 -0.89453125 -2.23046875 -0.89453125 0 0 Z " fill="#5F3508" transform="translate(98.23046875,38.89453125)"/>
<path d="M0 0 C7.75 1.625 7.75 1.625 10 5 C7.03 5 4.06 5 1 5 C0.67 3.35 0.34 1.7 0 0 Z " fill="#512603" transform="translate(160,188)"/>
<path d="M0 0 C0.66 0.33 1.32 0.66 2 1 C0.5625 3 0.5625 3 -2 5 C-5.02824418 5.35442445 -7.96485939 5.23347235 -11 5 C-10.34 4.67 -9.68 4.34 -9 4 C-8.67 3.01 -8.34 2.02 -8 1 C-7.13375 1.309375 -7.13375 1.309375 -6.25 1.625 C-3.46120465 2.08979923 -2.43530833 1.29883111 0 0 Z " fill="#A77F2B" transform="translate(110,77)"/>
<path d="M0 0 C2.475 0.99 2.475 0.99 5 2 C4.01 2.495 4.01 2.495 3 3 C2.67 3.66 2.34 4.32 2 5 C-0.70879335 6.35439668 -3.00933268 6.06501451 -6 6 C-6 5.01 -6 4.02 -6 3 C-5.67 3.66 -5.34 4.32 -5 5 C-3.68 4.67 -2.36 4.34 -1 4 C-0.67 2.68 -0.34 1.36 0 0 Z " fill="#5E320C" transform="translate(195,193)"/>
<path d="M0 0 C0.33 0.99 0.66 1.98 1 3 C0.67 3.66 0.34 4.32 0 5 C0.66 5.33 1.32 5.66 2 6 C2 6.99 2 7.98 2 9 C0.35 9.33 -1.3 9.66 -3 10 C-3 5.66905042 -2.03435531 3.72965139 0 0 Z " fill="#5D320B" transform="translate(133,134)"/>
<path d="M0 0 C1.09570312 0.00902344 2.19140625 0.01804688 3.3203125 0.02734375 C4.16335937 0.03894531 5.00640625 0.05054688 5.875 0.0625 C5.875 0.7225 5.875 1.3825 5.875 2.0625 C3.91810341 2.28392255 1.95938048 2.4892568 0 2.6875 C-1.63582031 2.86152344 -1.63582031 2.86152344 -3.3046875 3.0390625 C-4.70074219 3.05066406 -4.70074219 3.05066406 -6.125 3.0625 C-6.785 2.4025 -7.445 1.7425 -8.125 1.0625 C-5.36047967 -0.31976016 -3.0788637 -0.03275387 0 0 Z " fill="#502201" transform="translate(106.125,36.9375)"/>
<path d="M0 0 C0.66 0.33 1.32 0.66 2 1 C-0.10515339 4.72450216 -1.24267224 6.6795921 -5.25 8.375 C-6.61125 8.684375 -6.61125 8.684375 -8 9 C-8 8.01 -8 7.02 -8 6 C-6.36935236 4.94228261 -4.69719127 3.94726954 -3 3 C-1.24850835 1.41754725 -1.24850835 1.41754725 0 0 Z " fill="#754924" transform="translate(94,112)"/>
<path d="M0 0 C0.86625 0.556875 0.86625 0.556875 1.75 1.125 C0 3.1875 0 3.1875 -2.25 5.125 C-4.5 4.875 -4.5 4.875 -6.25 4.125 C-6.25 3.135 -6.25 2.145 -6.25 1.125 C-2.80384615 -1.09038462 -2.80384615 -1.09038462 0 0 Z " fill="#926E0A" transform="translate(98.25,94.875)"/>
<path d="M0 0 C2.24497221 2.24497221 2.37003419 2.96027349 2.75 6 C2.84796875 6.70125 2.9459375 7.4025 3.046875 8.125 C3 10 3 10 1 12 C1 11.34 1 10.68 1 10 C-0.32 9.67 -1.64 9.34 -3 9 C-1.68 8.67 -0.36 8.34 1 8 C1 6.35 1 4.7 1 3 C0.01 2.67 -0.98 2.34 -2 2 C-1.34 2 -0.68 2 0 2 C0 1.34 0 0.68 0 0 Z " fill="#946C3B" transform="translate(126,70)"/>
<path d="M0 0 C2.52588702 2.36292656 3.88820837 3.66462511 5 7 C3.35 7 1.7 7 0 7 C-1.125 2.25 -1.125 2.25 0 0 Z " fill="#552B07" transform="translate(178,171)"/>
<path d="M0 0 C0.66 0 1.32 0 2 0 C2 2.31 2 4.62 2 7 C0.68 7 -0.64 7 -2 7 C-2.33 6.01 -2.66 5.02 -3 4 C-1.6875 1.8125 -1.6875 1.8125 0 0 Z " fill="#58290D" transform="translate(44,168)"/>
<path d="M0 0 C0.66 0.33 1.32 0.66 2 1 C2 2.98 2 4.96 2 7 C1.01 7.495 1.01 7.495 0 8 C0 7.34 0 6.68 0 6 C-0.66 6 -1.32 6 -2 6 C-1.125 1.125 -1.125 1.125 0 0 Z " fill="#926839" transform="translate(179,197)"/>
<path d="M0 0 C2.64 0 5.28 0 8 0 C7.01 0.66 6.02 1.32 5 2 C3.78715124 5.05429073 3.78715124 5.05429073 3 8 C2.67 8 2.34 8 2 8 C1.34 5.36 0.68 2.72 0 0 Z " fill="#C69F5C" transform="translate(160,165)"/>
<path d="M0 0 C0.33 0.99 0.66 1.98 1 3 C2.65 2.67 4.3 2.34 6 2 C6.33 2.99 6.66 3.98 7 5 C2.71 4.67 -1.58 4.34 -6 4 C-5.34 3.34 -4.68 2.68 -4 2 C-3.01 2 -2.02 2 -1 2 C-0.67 1.34 -0.34 0.68 0 0 Z " fill="#643807" transform="translate(53,161)"/>
<path d="M0 0 C3.45925163 1.2491742 6.14693203 2.67527795 9 5 C8.67 5.66 8.34 6.32 8 7 C4.59679258 5.98823563 3.24274669 5.35156418 1.1875 2.375 C0.795625 1.59125 0.40375 0.8075 0 0 Z " fill="#AC8642" transform="translate(87,139)"/>
<path d="M0 0 C0.66 0.99 1.32 1.98 2 3 C0.35 4.98 -1.3 6.96 -3 9 C-3.66 8.34 -4.32 7.68 -5 7 C-3.35 4.69 -1.7 2.38 0 0 Z " fill="#D6AE6F" transform="translate(135,127)"/>
<path d="M0 0 C2.5 0.3125 2.5 0.3125 5 1 C5.33 1.66 5.66 2.32 6 3 C5.01 3.66 4.02 4.32 3 5 C2.01 4.67 1.02 4.34 0 4 C-0.33 3.01 -0.66 2.02 -1 1 C-0.67 0.67 -0.34 0.34 0 0 Z " fill="#60340C" transform="translate(156,165)"/>
<path d="M0 0 C2 2 2 2 2.125 4.625 C2.08375 5.40875 2.0425 6.1925 2 7 C0.68 7 -0.64 7 -2 7 C-1.125 1.125 -1.125 1.125 0 0 Z " fill="#A88239" transform="translate(180,164)"/>
<path d="M0 0 C1.32 0.33 2.64 0.66 4 1 C3.67 1.99 3.34 2.98 3 4 C-0.3 4.33 -3.6 4.66 -7 5 C-7 4.34 -7 3.68 -7 3 C-3.535 2.505 -3.535 2.505 0 2 C0 1.34 0 0.68 0 0 Z " fill="#633A07" transform="translate(145,161)"/>
<path d="M0 0 C0.928125 0.2784375 0.928125 0.2784375 1.875 0.5625 C4.04160178 1.23686176 4.04160178 1.23686176 6 0 C6 1.32 6 2.64 6 4 C5.34 4 4.68 4 4 4 C4 4.66 4 5.32 4 6 C3.34 6 2.68 6 2 6 C0 3 0 3 0 0 Z " fill="#60330C" transform="translate(74,72)"/>
<path d="M0 0 C2.64 0.33 5.28 0.66 8 1 C7.67 1.66 7.34 2.32 7 3 C5.68 2.67 4.36 2.34 3 2 C2.67 2.66 2.34 3.32 2 4 C0.68 3.67 -0.64 3.34 -2 3 C-1.34 2.01 -0.68 1.02 0 0 Z " fill="#D3AB57" transform="translate(111,55)"/>
<path d="M0 0 C1.67542976 0.28604898 3.34385343 0.61781233 5 1 C3.515 3.475 3.515 3.475 2 6 C0 5 0 5 -0.6875 3 C-0.790625 2.34 -0.89375 1.68 -1 1 C-0.67 0.67 -0.34 0.34 0 0 Z " fill="#653806" transform="translate(121,55)"/>
<path d="M0 0 C0.33 0.66 0.66 1.32 1 2 C2.89533342 2.46523063 2.89533342 2.46523063 5.0625 2.625 C6.361875 2.74875 7.66125 2.8725 9 3 C9 3.33 9 3.66 9 4 C5.04 4 1.08 4 -3 4 C-2.01 2.68 -1.02 1.36 0 0 Z " fill="#DAB16F" transform="translate(48,185)"/>
<path d="M0 0 C0.33 0 0.66 0 1 0 C1 2.64 1 5.28 1 8 C0.34 7.67 -0.32 7.34 -1 7 C-1 6.34 -1 5.68 -1 5 C-1.99 5 -2.98 5 -4 5 C-4 4.34 -4 3.68 -4 3 C-3.01 3 -2.02 3 -1 3 C-0.67 2.01 -0.34 1.02 0 0 Z " fill="#C69D5D" transform="translate(74,173)"/>
<path d="M0 0 C2.5 2.3125 2.5 2.3125 5 5 C5 5.99 5 6.98 5 8 C4.34 8 3.68 8 3 8 C2.67 7.34 2.34 6.68 2 6 C1.01 5.34 0.02 4.68 -1 4 C-0.67 2.68 -0.34 1.36 0 0 Z " fill="#8F6A1C" transform="translate(151,169)"/>
<path d="M0 0 C0.66 0 1.32 0 2 0 C6 5.41176471 6 5.41176471 6 8 C2.83884224 6.63016497 2.0072908 6.0109362 0 3 C0 2.01 0 1.02 0 0 Z " fill="#563003" transform="translate(78,125)"/>
<path d="M0 0 C1.98 0 3.96 0 6 0 C5.01 1.485 5.01 1.485 4 3 C3.34 3 2.68 3 2 3 C1.34 4.32 0.68 5.64 0 7 C0 4.66666667 0 2.33333333 0 0 Z " fill="#976B46" transform="translate(118,107)"/>
<path d="M0 0 C0.99 0 1.98 0 3 0 C2.67 1.98 2.34 3.96 2 6 C1.34 6 0.68 6 0 6 C-0.33 6.66 -0.66 7.32 -1 8 C-1.33 6.35 -1.66 4.7 -2 3 C-1.67 3.66 -1.34 4.32 -1 5 C-0.67 3.35 -0.34 1.7 0 0 Z " fill="#B49039" transform="translate(88,86)"/>
<path d="M0 0 C1.32 0.66 2.64 1.32 4 2 C3.67 4.31 3.34 6.62 3 9 C2.34 8.67 1.68 8.34 1 8 C1.33 6.68 1.66 5.36 2 4 C0.68 3.34 -0.64 2.68 -2 2 C-1.34 2 -0.68 2 0 2 C0 1.34 0 0.68 0 0 Z " fill="#90653B" transform="translate(171,197)"/>
<path d="M0 0 C0.33 1.32 0.66 2.64 1 4 C-0.65 4.33 -2.3 4.66 -4 5 C-4 3.68 -4 2.36 -4 1 C-2.68 0.67 -1.36 0.34 0 0 Z " fill="#926838" transform="translate(193,166)"/>
<path d="M0 0 C1.98 0 3.96 0 6 0 C5.67 1.65 5.34 3.3 5 5 C4.67 4.34 4.34 3.68 4 3 C2.68 3 1.36 3 0 3 C0 2.01 0 1.02 0 0 Z " fill="#734819" transform="translate(188,164)"/>
<path d="M0 0 C2.475 0.495 2.475 0.495 5 1 C5 2.98 5 4.96 5 7 C4.34 6.67 3.68 6.34 3 6 C3 5.34 3 4.68 3 4 C2.01 4 1.02 4 0 4 C0 2.68 0 1.36 0 0 Z " fill="#4A2200" transform="translate(105,97)"/>
<path d="M0 0 C2.31 0 4.62 0 7 0 C7.33 0.99 7.66 1.98 8 3 C6.02 3.33 4.04 3.66 2 4 C2 3.01 2 2.02 2 1 C1.34 0.67 0.68 0.34 0 0 Z " fill="#D4AF52" transform="translate(101,85)"/>
<path d="M0 0 C0.66 0.66 1.32 1.32 2 2 C-1.465 4.97 -1.465 4.97 -5 8 C-3.95206337 3.80825346 -3.08236365 2.78407039 0 0 Z " fill="#512800" transform="translate(87,44)"/>
<path d="M0 0 C2.31 0.33 4.62 0.66 7 1 C7 1.66 7 2.32 7 3 C5.1875 3.625 5.1875 3.625 3 4 C2.01 3.34 1.02 2.68 0 2 C0 1.34 0 0.68 0 0 Z " fill="#C49F4E" transform="translate(95,144)"/>
<path d="M0 0 C0 0.99 0 1.98 0 3 C-3.465 4.485 -3.465 4.485 -7 6 C-7 5.01 -7 4.02 -7 3 C-4.69 2.01 -2.38 1.02 0 0 Z " fill="#CFA65B" transform="translate(91,62)"/>
<path d="M0 0 C1.32 0.33 2.64 0.66 4 1 C4 5 4 5 2 8 C-0.1519437 4.77208445 -0.20086443 3.71599191 0 0 Z " fill="#60300C" transform="translate(72,48)"/>
<path d="M0 0 C1.98 0.99 3.96 1.98 6 3 C5.67 3.66 5.34 4.32 5 5 C3.35 4.67 1.7 4.34 0 4 C-0.33 3.01 -0.66 2.02 -1 1 C-0.67 0.67 -0.34 0.34 0 0 Z " fill="#BD9647" transform="translate(116,35)"/>
<path d="M0 0 C1.24546405 2.49092811 0.7767578 3.41080733 0 6 C0.66 6.33 1.32 6.66 2 7 C0.02 7 -1.96 7 -4 7 C-2.68 4.69 -1.36 2.38 0 0 Z " fill="#D4A971" transform="translate(171,182)"/>
<path d="M0 0 C0.33 1.32 0.66 2.64 1 4 C-0.8125 4.625 -0.8125 4.625 -3 5 C-3.99 4.34 -4.98 3.68 -6 3 C-4.02 2.01 -2.04 1.02 0 0 Z " fill="#D3AA69" transform="translate(135,184)"/>
<path d="M0 0 C0.66 0.33 1.32 0.66 2 1 C1.67 2.65 1.34 4.3 1 6 C0.34 6 -0.32 6 -1 6 C-1 5.01 -1 4.02 -1 3 C-1.99 2.67 -2.98 2.34 -4 2 C-2.125 0.9375 -2.125 0.9375 0 0 Z " fill="#522305" transform="translate(138,179)"/>
<path d="M0 0 C4.8 3.44615385 4.8 3.44615385 5.8125 6.25 C5.874375 6.8275 5.93625 7.405 6 8 C1.3125 4.38671875 1.3125 4.38671875 0 3 C0 2.01 0 1.02 0 0 Z " fill="#A07A3B" transform="translate(83,135)"/>
<path d="M0 0 C0.66 0.33 1.32 0.66 2 1 C0.63016497 4.16115776 0.0109362 4.9927092 -3 7 C-3.66 6.34 -4.32 5.68 -5 5 C-3.35 3.35 -1.7 1.7 0 0 Z " fill="#DCB263" transform="translate(107,59)"/>
</svg>
