<?xml version="1.0" encoding="UTF-8"?>
<svg version="1.1" xmlns="http://www.w3.org/2000/svg" width="225" height="225">
<path d="M0 0 C74.25 0 148.5 0 225 0 C225 74.25 225 148.5 225 225 C150.75 225 76.5 225 0 225 C0 150.75 0 76.5 0 0 Z " fill="#FD0002" transform="translate(0,0)"/>
<path d="M0 0 C3.361875 -0.0825 6.72375 -0.165 10.1875 -0.25 C11.23832764 -0.28641602 12.28915527 -0.32283203 13.37182617 -0.36035156 C17.69730431 -0.41178116 20.32795641 -0.3822404 24.15234375 1.79296875 C26 4 26 4 26.375 7.5625 C26 11 26 11 25 14 C25.99 14.66 26.98 15.32 28 16 C28.26554687 15.25234375 28.53109375 14.5046875 28.8046875 13.734375 C29.15789062 12.74953125 29.51109375 11.7646875 29.875 10.75 C30.22304687 9.77546875 30.57109375 8.8009375 30.9296875 7.796875 C32 5 32 5 34 1 C38.62 1 43.24 1 48 1 C49.23022705 3.9591948 50.46011295 6.91853237 51.6875 9.87890625 C52.6940729 12.27251264 53.73714717 14.63732576 54.8125 17 C56 20 56 20 56 24 C52.7 24 49.4 24 46 24 C46 23.01 46 22.02 46 21 C43.03 21 40.06 21 37 21 C37 21.99 37 22.98 37 24 C30.4 24 23.8 24 17 24 C16.34 22.35 15.68 20.7 15 19 C14.01 18.67 13.02 18.34 12 18 C12 20.31 12 22.62 12 25 C8.04 25 4.08 25 0 25 C0 16.75 0 8.5 0 0 Z " fill="#FBF1F1" transform="translate(67,100)"/>
<path d="M0 0 C3.96 0 7.92 0 12 0 C11.09677419 7.61290323 11.09677419 7.61290323 10.3125 10.75 C9.93255586 13.48559781 10.55130563 14.69913247 12 17 C12.66 17 13.32 17 14 17 C14.16822266 15.95779297 14.16822266 15.95779297 14.33984375 14.89453125 C15.52968399 9.67753942 17.89701479 4.9069655 20 0 C24.29 0 28.58 0 33 0 C42 19.66666667 42 19.66666667 42 24 C38.7 24 35.4 24 32 24 C31.505 22.515 31.505 22.515 31 21 C28.36 21 25.72 21 23 21 C22.505 22.485 22.505 22.485 22 24 C15.4 24 8.8 24 2 24 C1.34 21.69 0.68 19.38 0 17 C-1.32 17 -2.64 17 -4 17 C-4 19.64 -4 22.28 -4 25 C-7.63 25 -11.26 25 -15 25 C-15 17.08 -15 9.16 -15 1 C-11.37 1 -7.74 1 -4 1 C-4 3.31 -4 5.62 -4 8 C-0.78253679 5.34209561 -0.91766992 4.58834962 0 0 Z " fill="#FBF1F1" transform="translate(165,100)"/>
<path d="M0 0 C3.96 0 7.92 0 12 0 C12 2.97 12 5.94 12 9 C13.32 9 14.64 9 16 9 C16 6.36 16 3.72 16 1 C19.63 1 23.26 1 27 1 C27 8.59 27 16.18 27 24 C23.37 24 19.74 24 16 24 C16 21.69 16 19.38 16 17 C14.68 17 13.36 17 12 17 C12 19.64 12 22.28 12 25 C8.04 25 4.08 25 0 25 C0 16.75 0 8.5 0 0 Z " fill="#F9EFEE" transform="translate(21,100)"/>
<path d="M0 0 C4.63586669 1.69387437 7.51483632 3.69875516 10 8 C10.61617063 12.85234374 10.53237687 14.95496392 8.3125 19.3125 C4.76842345 23.43129166 2.04274898 25.1485803 -3.375 25.5625 C-8.00398271 25.42316607 -10.37880357 23.70737165 -13.6875 20.60546875 C-16.20102077 17.53089424 -16.44728202 14.01402369 -16.42578125 10.13671875 C-15.64365115 6.21171725 -12.91214543 3.60282428 -10 1 C-6.79821961 -0.60089019 -3.48231013 -0.3573266 0 0 Z " fill="#FCF8F7" transform="translate(138,100)"/>
<path d="M0 0 C3.3 0 6.6 0 10 0 C10 8.25 10 16.5 10 25 C6.7 25 3.4 25 0 25 C0 16.75 0 8.5 0 0 Z " fill="#FAECEB" transform="translate(53,100)"/>
<path d="M0 0 C0.99 0 1.98 0 3 0 C3.19335938 0.61488281 3.38671875 1.22976562 3.5859375 1.86328125 C3.84632812 2.67152344 4.10671875 3.47976562 4.375 4.3125 C4.63023438 5.11300781 4.88546875 5.91351563 5.1484375 6.73828125 C5.98831811 9.22724528 5.98831811 9.22724528 8 12 C4.57905758 14.28062828 3.31812778 14.21925007 -0.6875 14.125 C-2.17830078 14.09792969 -2.17830078 14.09792969 -3.69921875 14.0703125 C-4.45847656 14.04710938 -5.21773438 14.02390625 -6 14 C-6 13.67 -6 13.34 -6 13 C-2.7 13 0.6 13 4 13 C3.566875 11.84371094 3.566875 11.84371094 3.125 10.6640625 C2.75375 9.66117188 2.3825 8.65828125 2 7.625 C1.62875 6.62726563 1.2575 5.62953125 0.875 4.6015625 C0 2 0 2 0 0 Z " fill="#DA3231" transform="translate(119,111)"/>
<path d="M0 0 C1.98 0.495 1.98 0.495 4 1 C3.67 2.32 3.34 3.64 3 5 C1.68 4.67 0.36 4.34 -1 4 C-0.67 2.68 -0.34 1.36 0 0 Z " fill="#DE2F30" transform="translate(133,110)"/>
<path d="M0 0 C0.625 1.8125 0.625 1.8125 1 4 C0.01 5.485 0.01 5.485 -1 7 C-1.66 7 -2.32 7 -3 7 C-3 5.02 -3 3.04 -3 1 C-2.01 0.67 -1.02 0.34 0 0 Z " fill="#E30606" transform="translate(164,101)"/>
<path d="M0 0 C1.32 0 2.64 0 4 0 C3.67 1.65 3.34 3.3 3 5 C2.01 5 1.02 5 0 5 C0 3.35 0 1.7 0 0 Z " fill="#DA302E" transform="translate(78,106)"/>
</svg>
