<?xml version="1.0" encoding="UTF-8"?>
<svg version="1.1" xmlns="http://www.w3.org/2000/svg" width="720" height="720">
<path d="M0 0 C237.6 0 475.2 0 720 0 C720 237.6 720 475.2 720 720 C482.4 720 244.8 720 0 720 C0 482.4 0 244.8 0 0 Z " fill="#186CAD" transform="translate(0,0)"/>
<path d="M0 0 C0.69867188 -0.01933594 1.39734375 -0.03867187 2.1171875 -0.05859375 C5.84593778 -0.02341686 7.74786771 0.42395574 10.6796875 2.76171875 C11.44539063 3.70660156 12.21109375 4.65148437 13 5.625 C13.82757813 6.63433594 14.65515625 7.64367187 15.5078125 8.68359375 C16.38361485 9.807249 17.25587447 10.93367243 18.125 12.0625 C19.08449345 13.29698536 20.04413343 14.53135683 21.00390625 15.765625 C21.49391113 16.39791016 21.98391602 17.03019531 22.48876953 17.68164062 C24.01424562 19.64331909 25.55004145 21.59642628 27.08984375 23.546875 C27.83693604 24.49348999 27.83693604 24.49348999 28.59912109 25.45922852 C29.55599035 26.67103941 30.51332783 27.88248077 31.47119141 29.09350586 C33.41131467 31.55669097 35.25950417 34.01425626 37 36.625 C37.00410889 35.71210205 37.00821777 34.7992041 37.01245117 33.85864258 C37.03949402 30.45665222 37.08863862 27.05644939 37.15258789 23.6550293 C37.17571993 22.18574053 37.1901524 20.71628708 37.19555664 19.24682617 C37.20488279 17.12835655 37.24594127 15.01245935 37.29296875 12.89453125 C37.31653442 10.98571167 37.31653442 10.98571167 37.34057617 9.03833008 C38.1616236 4.78839889 39.66783749 3.29874498 43 0.625 C45.28125 -0.00390625 45.28125 -0.00390625 47.5 0.0625 C48.2321875 0.06121094 48.964375 0.05992187 49.71875 0.05859375 C52.97603261 0.86733686 54.61845274 2.27245625 57 4.625 C57.62818909 7.5847168 57.62818909 7.5847168 57.63110352 11.07421875 C57.64363663 12.38237549 57.65616974 13.69053223 57.66908264 15.03833008 C57.65681436 16.46306351 57.64339434 17.88778742 57.62890625 19.3125 C57.62973514 20.77693864 57.63219527 22.24137719 57.63621521 23.70581055 C57.63907193 26.7725836 57.62438592 29.8386258 57.59692383 32.90527344 C57.56283984 36.83317328 57.56885963 40.75976648 57.5875864 44.68772888 C57.59816322 47.71100728 57.58921267 50.73398245 57.57420158 53.75723267 C57.56902422 55.20528258 57.5694962 56.65336423 57.57574654 58.10140991 C57.58120583 60.12624209 57.55795785 62.15109007 57.53344727 64.17578125 C57.52724869 65.32731689 57.52105011 66.47885254 57.5146637 67.6652832 C56.89109671 71.25127868 55.85425318 72.43430106 53 74.625 C47.23797638 75.84182486 41.08048316 75.16383007 35.9609375 72.20703125 C31.58961757 68.68036876 28.37248641 64.07431541 25 59.625 C23.62945402 57.91309127 22.25464674 56.20458284 20.875 54.5 C17.20179765 49.9125784 13.60320979 45.26742745 10 40.625 C10.00112793 41.47731201 10.00225586 42.32962402 10.00341797 43.20776367 C9.9934621 46.38606667 9.95681431 49.56265071 9.90234375 52.74047852 C9.88423402 54.11277528 9.87660619 55.48525367 9.87988281 56.85766602 C9.89621438 68.11420208 9.89621438 68.11420208 7.80200195 71.64453125 C4.71075118 74.44521145 1.51455469 75.30799509 -2.5625 75.25 C-3.92568359 75.26933594 -3.92568359 75.26933594 -5.31640625 75.2890625 C-9.09141592 74.35492619 -10.5354039 72.59180958 -13 69.625 C-13.63491821 66.62768555 -13.63491821 66.62768555 -13.64697266 63.26171875 C-13.67061386 61.36450073 -13.67061386 61.36450073 -13.69473267 59.42895508 C-13.68578256 58.05679449 -13.67552749 56.68464188 -13.6640625 55.3125 C-13.66743342 53.89672428 -13.67228834 52.48095139 -13.67855835 51.06518555 C-13.68591695 48.10274615 -13.67525858 45.14106226 -13.65185547 42.17871094 C-13.62336623 38.38862474 -13.63977594 34.60030877 -13.66971779 30.81028748 C-13.68781941 27.88817092 -13.68202008 24.96647143 -13.66907883 22.04434204 C-13.66575262 20.64734689 -13.66980432 19.25031339 -13.68147659 17.85336304 C-13.69422848 15.89834353 -13.67133275 13.94319057 -13.64697266 11.98828125 C-13.64299469 10.87751221 -13.63901672 9.76674316 -13.63491821 8.62231445 C-12.07527352 1.25956209 -6.74535718 -0.18667963 0 0 Z " fill="#F8FCFD" transform="translate(384,322.375)"/>
<path d="M0 0 C2.44140625 0.83984375 2.44140625 0.83984375 4.6875 2.625 C6.41201925 6.6518186 7.44911829 10.58505294 8.421875 14.83984375 C9.54763935 19.54036886 11.35142362 23.82093017 13.25634766 28.25415039 C15.71062143 34.03479829 17.95716917 39.8941953 20.19165039 45.76269531 C20.73408811 47.18014357 21.28201777 48.59550139 21.83520508 50.00878906 C22.64914652 52.08968549 23.44537944 54.1766352 24.23828125 56.265625 C24.70919189 57.48797852 25.18010254 58.71033203 25.6652832 59.96972656 C26.85437618 64.22172085 27.04783311 67.23187398 26.6875 71.625 C24.25 74.5625 24.25 74.5625 21.6875 76.625 C21.3575 76.955 21.0275 77.285 20.6875 77.625 C19.02132885 77.66563832 17.35361905 77.667721 15.6875 77.625 C15.6875 75.975 15.6875 74.325 15.6875 72.625 C15.0275 72.625 14.3675 72.625 13.6875 72.625 C13.6875 74.275 13.6875 75.925 13.6875 77.625 C10.0575 77.625 6.4275 77.625 2.6875 77.625 C2.6875 76.965 2.6875 76.305 2.6875 75.625 C2.06875 75.33625 1.45 75.0475 0.8125 74.75 C-1.3125 73.625 -1.3125 73.625 -3.3125 71.625 C-3.92306087 69.60286722 -4.45613995 67.55672022 -4.9375 65.5 C-5.19789063 64.40429688 -5.45828125 63.30859375 -5.7265625 62.1796875 C-5.91992188 61.33664062 -6.11328125 60.49359375 -6.3125 59.625 C-7.3025 59.625 -8.2925 59.625 -9.3125 59.625 C-9.3125 58.305 -9.3125 56.985 -9.3125 55.625 C-9.9725 55.625 -10.6325 55.625 -11.3125 55.625 C-11.8075 52.655 -11.8075 52.655 -12.3125 49.625 C-13.3025 49.625 -14.2925 49.625 -15.3125 49.625 C-15.58191406 50.77355469 -15.85132813 51.92210937 -16.12890625 53.10546875 C-17.22887309 57.49662924 -18.6620879 61.70173448 -20.25 65.9375 C-20.50201172 66.63939453 -20.75402344 67.34128906 -21.01367188 68.06445312 C-23.35161072 74.33682613 -23.35161072 74.33682613 -26.3125 76.625 C-28.44140625 77.01318359 -28.44140625 77.01318359 -30.875 77.0234375 C-32.19371094 77.02923828 -32.19371094 77.02923828 -33.5390625 77.03515625 C-34.91191406 77.01775391 -34.91191406 77.01775391 -36.3125 77 C-37.68535156 77.01740234 -37.68535156 77.01740234 -39.0859375 77.03515625 C-39.96507812 77.03128906 -40.84421875 77.02742188 -41.75 77.0234375 C-42.95462891 77.01836182 -42.95462891 77.01836182 -44.18359375 77.01318359 C-46.85225949 76.52658055 -47.75794697 75.83237137 -49.3125 73.625 C-49.22981455 66.04800619 -46.73791342 59.61653571 -44 52.625 C-43.60876953 51.59632813 -43.21753906 50.56765625 -42.81445312 49.5078125 C-40.74564393 44.11449897 -38.53525425 38.81773268 -36.15454102 33.55566406 C-35.0765628 31.0840341 -34.23497416 28.5747023 -33.4375 26 C-31.84808823 21.13790179 -30.14831006 16.3360677 -28.3125 11.5625 C-28.07547363 10.91909668 -27.83844727 10.27569336 -27.59423828 9.61279297 C-26.1289176 5.87339009 -24.98735357 3.39971598 -21.3125 1.625 C-18.7070424 1.28024314 -16.29693751 1.06998491 -13.6875 1 C-8.98635437 0.8219263 -4.53231376 -0.80743741 0 0 Z " fill="#F2F8FB" transform="translate(498.3125,320.375)"/>
<path d="M0 0 C0.81927475 -0.00807175 1.6385495 -0.01614349 2.48265076 -0.02445984 C4.22189212 -0.03830702 5.96116072 -0.04902634 7.70043945 -0.05688477 C10.33664177 -0.07399514 12.97155589 -0.11786104 15.60742188 -0.16210938 C32.09771296 -0.31622883 32.09771296 -0.31622883 38.80859375 4.23828125 C39.62972656 4.7796875 40.45085937 5.32109375 41.296875 5.87890625 C46.77723401 10.71382684 50.28222114 14.91215635 51.18359375 22.3203125 C51.51824776 31.303681 49.52208452 37.08823655 44.68359375 44.48828125 C38.23464457 50.65684133 31.58922813 52.81932607 22.75390625 52.67773438 C21.23410156 52.61489258 21.23410156 52.61489258 19.68359375 52.55078125 C18.63171875 52.52822266 17.57984375 52.50566406 16.49609375 52.48242188 C13.93204132 52.42414796 11.37112299 52.34241003 8.80859375 52.23828125 C8.87820313 53.40746094 8.9478125 54.57664062 9.01953125 55.78125 C9.0758265 57.32936946 9.13042477 58.87755127 9.18359375 60.42578125 C9.25900391 61.57916992 9.25900391 61.57916992 9.3359375 62.75585938 C9.45125815 67.23414451 9.24628237 68.73385983 6.1953125 72.25 C2.50636996 74.41571136 0.48555424 74.91333391 -3.75390625 74.86328125 C-4.84832031 74.87617188 -5.94273437 74.8890625 -7.0703125 74.90234375 C-10.18417984 74.23981878 -11.95437814 73.50904573 -14.14360046 71.18048096 C-16.66757786 66.50206801 -15.89535045 60.56649037 -15.85546875 55.3984375 C-15.85884025 54.02989776 -15.86369566 52.66136095 -15.8699646 51.29283142 C-15.87732298 48.42873544 -15.86666747 45.56542089 -15.84326172 42.70141602 C-15.81479921 39.04144211 -15.83116491 35.38330358 -15.86112404 31.72339725 C-15.87924953 28.89817137 -15.87341504 26.07337584 -15.86048508 23.24813652 C-15.85555585 21.24630916 -15.87066741 19.24446468 -15.88613892 17.24269104 C-15.75593625 7.12527808 -15.75593625 7.12527808 -12.77490234 3.42749023 C-8.56637657 -0.13874021 -5.32391487 0.04961524 0 0 Z " fill="#FAFCFD" transform="translate(314.19140625,322.76171875)"/>
<path d="M0 0 C2.38498719 2.27364872 3.27154581 3.95664623 3.5625 7.25 C3.27995324 10.52754244 2.36054335 12.00154815 -0.125 14.125 C-4.29522016 16.87734531 -6.22682226 17.66138469 -11.25 17.1875 C-12.260625 16.5275 -13.27125 15.8675 -14.3125 15.1875 C-19.46460734 11.96743291 -25.40852597 12.43570154 -31.25 13.1875 C-35.29349725 14.68565777 -38.01304954 17.53773872 -40.25 21.1875 C-42.09008815 26.70776444 -42.40784866 33.16075868 -40.30859375 38.6484375 C-37.88974539 42.72787455 -35.58569287 45.09740989 -31.25 47.1875 C-23.30384191 48.3039855 -17.88962303 47.43685874 -11.25 43.1875 C-7.43599249 42.4246985 -5.36716924 42.50107031 -2.03125 44.55078125 C3.56580611 48.99492264 3.56580611 48.99492264 4.2109375 53.171875 C3.49582531 57.85040561 0.99169316 59.4401218 -2.53125 62.35546875 C-6.80786952 65.23727127 -11.3091276 66.81028045 -16.25 68.1875 C-16.90484375 68.37699219 -17.5596875 68.56648438 -18.234375 68.76171875 C-27.85734411 70.79447773 -36.69909777 68.79018137 -45.25 64.1875 C-55.56693913 56.83045513 -62.08663719 47.71318886 -64.25 35.1875 C-65.39207482 24.29246875 -62.57981773 14.09853439 -56.25 5.1875 C-41.25888234 -10.94742047 -18.00969658 -13.04273661 0 0 Z " fill="#F7FAFC" transform="translate(288.25,329.8125)"/>
<path d="M0 0 C2.44140625 0.83984375 2.44140625 0.83984375 4.6875 2.625 C6.41201925 6.6518186 7.44911829 10.58505294 8.421875 14.83984375 C9.54763935 19.54036886 11.35142362 23.82093017 13.25634766 28.25415039 C15.71062143 34.03479829 17.95716917 39.8941953 20.19165039 45.76269531 C20.73408811 47.18014357 21.28201777 48.59550139 21.83520508 50.00878906 C22.64914652 52.08968549 23.44537944 54.1766352 24.23828125 56.265625 C24.94464722 58.09915527 24.94464722 58.09915527 25.6652832 59.96972656 C26.85437618 64.22172085 27.04783311 67.23187398 26.6875 71.625 C24.25 74.5625 24.25 74.5625 21.6875 76.625 C21.3575 76.955 21.0275 77.285 20.6875 77.625 C19.02132885 77.66563832 17.35361905 77.667721 15.6875 77.625 C15.6875 75.975 15.6875 74.325 15.6875 72.625 C15.0275 72.625 14.3675 72.625 13.6875 72.625 C13.6875 74.275 13.6875 75.925 13.6875 77.625 C10.0575 77.625 6.4275 77.625 2.6875 77.625 C2.6875 76.965 2.6875 76.305 2.6875 75.625 C2.06875 75.33625 1.45 75.0475 0.8125 74.75 C-1.3125 73.625 -1.3125 73.625 -3.3125 71.625 C-3.92306087 69.60286722 -4.45613995 67.55672022 -4.9375 65.5 C-5.32808594 63.85644531 -5.32808594 63.85644531 -5.7265625 62.1796875 C-5.91992188 61.33664062 -6.11328125 60.49359375 -6.3125 59.625 C-7.3025 59.625 -8.2925 59.625 -9.3125 59.625 C-9.3125 58.305 -9.3125 56.985 -9.3125 55.625 C-9.9725 55.625 -10.6325 55.625 -11.3125 55.625 C-11.6425 53.645 -11.9725 51.665 -12.3125 49.625 C-12.9725 49.625 -13.6325 49.625 -14.3125 49.625 C-12.98307348 43.8292243 -11.21367577 38.45038677 -9 32.9375 C-8.69312256 32.15802002 -8.38624512 31.37854004 -8.07006836 30.57543945 C-6.64521523 26.95707709 -5.20103715 23.34695792 -3.7421875 19.7421875 C-3.06542969 18.04449219 -3.06542969 18.04449219 -2.375 16.3125 C-1.97410156 15.32636719 -1.57320313 14.34023438 -1.16015625 13.32421875 C-0.28824864 10.54777563 0.01054205 8.51249896 -0.3125 5.625 C-2.7093665 3.2281335 -3.38278314 3.34218867 -6.6640625 3.2109375 C-7.51484375 3.17226563 -8.365625 3.13359375 -9.2421875 3.09375 C-10.13164062 3.0628125 -11.02109375 3.031875 -11.9375 3 C-12.8346875 2.96132813 -13.731875 2.92265625 -14.65625 2.8828125 C-16.8747927 2.78840643 -19.09332403 2.70283252 -21.3125 2.625 C-21.3125 2.295 -21.3125 1.965 -21.3125 1.625 C-19.72308594 1.53412109 -19.72308594 1.53412109 -18.1015625 1.44140625 C-16.71352779 1.35699873 -15.32550768 1.27235083 -13.9375 1.1875 C-13.23882812 1.14818359 -12.54015625 1.10886719 -11.8203125 1.06835938 C-7.5907659 0.80401271 -4.15318866 -0.73989579 0 0 Z " fill="#3277A8" transform="translate(498.3125,320.375)"/>
<path d="M0 0 C3.36088728 0.60705682 5.13400802 1.89512498 7.37890625 4.4296875 C8.43462947 7.59685717 8.51828139 9.87150753 8.54003906 13.19873047 C8.54964661 14.38361053 8.55925415 15.5684906 8.56915283 16.78927612 C8.57340271 18.07053375 8.57765259 19.35179138 8.58203125 20.671875 C8.58773132 21.98753448 8.5934314 23.30319397 8.5993042 24.65872192 C8.60980344 27.44452297 8.61565317 30.23029524 8.61914062 33.01611328 C8.62462381 36.57937008 8.64865207 40.14224447 8.67711258 43.70538139 C8.70025668 47.11087192 8.70218962 50.5163099 8.70703125 53.921875 C8.71937805 55.19908417 8.73172485 56.47629333 8.7444458 57.79220581 C8.7414447 58.9833902 8.7384436 60.17457458 8.73535156 61.40185547 C8.73899719 62.44759735 8.74264282 63.49333923 8.74639893 64.57077026 C8.31815142 67.90233105 7.3688534 69.74300721 5.37890625 72.4296875 C2.22796492 74.53031505 1.15646965 74.77282036 -2.49609375 74.8671875 C-3.33914062 74.90714844 -4.1821875 74.94710937 -5.05078125 74.98828125 C-8.79378532 74.17483204 -10.2004518 72.3416222 -12.62109375 69.4296875 C-13.25601196 66.43237305 -13.25601196 66.43237305 -13.26806641 63.06640625 C-13.29170761 61.16918823 -13.29170761 61.16918823 -13.31582642 59.23364258 C-13.30687631 57.86148199 -13.29662124 56.48932938 -13.28515625 55.1171875 C-13.28852717 53.70141178 -13.29338209 52.28563889 -13.2996521 50.86987305 C-13.3070107 47.90743365 -13.29635233 44.94574976 -13.27294922 41.98339844 C-13.24445998 38.19331224 -13.26086969 34.40499627 -13.29081154 30.61497498 C-13.30891316 27.69285842 -13.30311383 24.77115893 -13.29017258 21.84902954 C-13.28684637 20.45203439 -13.29089807 19.05500089 -13.30257034 17.65805054 C-13.31532223 15.70303103 -13.2924265 13.74787807 -13.26806641 11.79296875 C-13.26408844 10.68219971 -13.26011047 9.57143066 -13.25601196 8.42700195 C-11.6989084 1.07624574 -6.62775069 -0.33583237 0 0 Z " fill="#F8FBFC" transform="translate(207.62109375,322.5703125)"/>
<path d="M0 0 C2 1 2 1 2.67578125 2.86328125 C2.88589844 3.67152344 3.09601563 4.47976563 3.3125 5.3125 C4.37844147 9.12098002 5.64904293 12.70787061 7.2109375 16.33984375 C10.11498059 23.22085225 12.84672487 30.15840117 15.50415039 37.13769531 C16.04658811 38.55514357 16.59451777 39.97050139 17.14770508 41.38378906 C17.96164652 43.46468549 18.75787944 45.5516352 19.55078125 47.640625 C20.02169189 48.86297852 20.49260254 50.08533203 20.9777832 51.34472656 C22.16558506 55.59210402 22.34580044 58.61123767 22 63 C19.75 66 19.75 66 17 68 C15.68 68 14.36 68 13 68 C10.22386365 61.05700716 7.48548671 54.09997362 4.77246094 47.13208008 C3.84580823 44.76510084 2.91066704 42.40142609 1.96679688 40.04125977 C0.60885307 36.64138675 -0.71777678 33.23066534 -2.0390625 29.81640625 C-2.46498688 28.76916885 -2.89091125 27.72193146 -3.32974243 26.64295959 C-6.35847053 18.68119671 -5.86220412 13.95455037 -2.9296875 6.15234375 C-2.58164062 5.42144531 -2.23359375 4.69054687 -1.875 3.9375 C-1.34519531 2.80634766 -1.34519531 2.80634766 -0.8046875 1.65234375 C-0.53914063 1.10707031 -0.27359375 0.56179688 0 0 Z " fill="#F2F8FB" transform="translate(503,329)"/>
<path d="M0 0 C3.08610492 3.47969511 4.18997354 7.30667491 5.4375 11.6875 C6.98517053 16.89478469 8.6862207 21.78888727 11.01953125 26.703125 C16 38.37051793 16 38.37051793 16 44 C11.27221797 44.4727782 7.95941957 44.50686317 3.6875 42.25 C0.23826135 38.90557247 -0.80195253 34.5077571 -2.1171875 30.00390625 C-2.87129271 27.4379465 -3.7630894 25.0783518 -4.8125 22.625 C-6.69429717 16.88056654 -4.8926884 12.27510582 -3 6.6875 C-2.649375 5.63949219 -2.29875 4.59148437 -1.9375 3.51171875 C-1 1 -1 1 0 0 Z " fill="#F0F7FB" transform="translate(494,353)"/>
<path d="M0 0 C14.19642857 -0.66964286 14.19642857 -0.66964286 17.875 2 C20.82360163 6.16273171 20.7975483 7.97544571 20 13 C18.12984906 15.43119623 16.71861655 16.64069173 14 18 C9.33091139 18.13996069 4.67201378 18.04247285 0 18 C0 12.06 0 6.12 0 0 Z " fill="#2470AC" transform="translate(323,340)"/>
<path d="M0 0 C1.23191826 -0.00956978 1.23191826 -0.00956978 2.48872375 -0.01933289 C3.3731163 -0.02044571 4.25750885 -0.02155853 5.16870117 -0.02270508 C6.53933968 -0.02769768 6.53933968 -0.02769768 7.93766785 -0.03279114 C9.87185157 -0.03785458 11.80604403 -0.04019964 13.74023438 -0.04003906 C16.68984517 -0.04222019 19.63907869 -0.06036727 22.58862305 -0.0793457 C24.46948115 -0.08228087 26.35034102 -0.08426484 28.23120117 -0.08520508 C29.10952103 -0.09239059 29.98784088 -0.09957611 30.89277649 -0.10697937 C35.63279367 -0.08942471 39.44314447 0.31208577 43.89916992 2.14526367 C43.89916992 2.80526367 43.89916992 3.46526367 43.89916992 4.14526367 C42.19506958 3.66065674 42.19506958 3.66065674 40.45654297 3.16625977 C35.92689033 2.03889668 31.63282818 1.82269805 26.98120117 1.80932617 C25.75079353 1.79934097 25.75079353 1.79934097 24.49552917 1.78915405 C22.77536237 1.77909801 21.05515711 1.77433483 19.33496094 1.7746582 C16.70793108 1.77025741 14.08254713 1.73379032 11.45581055 1.69604492 C9.77677979 1.69018066 8.09774112 1.68620865 6.41870117 1.68432617 C5.63840042 1.66995514 4.85809967 1.65558411 4.05415344 1.64077759 C0.29043248 1.67230425 -1.87126522 1.99810816 -5.07080078 4.04907227 C-8.31692625 7.40099449 -8.23632205 9.42548329 -8.27783203 14.00024414 C-8.29066727 15.22846893 -8.3035025 16.45669373 -8.31672668 17.72213745 C-8.32489349 19.0689046 -8.33233734 20.4156763 -8.33911133 21.76245117 C-8.34318686 22.43964329 -8.34726238 23.1168354 -8.35146141 23.81454849 C-8.37231826 27.39825384 -8.38662208 30.98192092 -8.39599609 34.56567383 C-8.40706527 38.26704479 -8.441471 41.96781533 -8.48116779 45.66897392 C-8.50731145 48.5154431 -8.51568581 51.36176864 -8.51927757 54.20834732 C-8.52414877 55.57271509 -8.53577813 56.93707622 -8.55431557 58.30132675 C-8.57865601 60.21123536 -8.57532721 62.1214358 -8.57080078 64.03149414 C-8.57666702 65.11800262 -8.58253326 66.20451111 -8.58857727 67.32394409 C-7.98082398 70.83942564 -6.90830086 72.0055567 -4.10083008 74.14526367 C-0.83829588 74.84128647 -0.83829588 74.84128647 2.64916992 74.89526367 C4.40487305 74.9803418 4.40487305 74.9803418 6.19604492 75.06713867 C7.08807617 75.09291992 7.98010742 75.11870117 8.89916992 75.14526367 C8.89916992 75.47526367 8.89916992 75.80526367 8.89916992 76.14526367 C3.94916992 76.14526367 -1.00083008 76.14526367 -6.10083008 76.14526367 C-6.76083008 74.82526367 -7.42083008 73.50526367 -8.10083008 72.14526367 C-8.76083008 72.14526367 -9.42083008 72.14526367 -10.10083008 72.14526367 C-11.44534903 69.45622577 -11.25028135 67.34889136 -11.27783203 64.33789062 C-11.29066727 63.11934891 -11.3035025 61.90080719 -11.31672668 60.64533997 C-11.32489625 59.30807909 -11.33233956 57.97081361 -11.33911133 56.63354492 C-11.34318686 55.96009726 -11.34726238 55.28664959 -11.35146141 54.59279442 C-11.37232761 51.02508221 -11.38662426 47.45740848 -11.39599609 43.88964844 C-11.40703391 40.21547313 -11.44140063 36.54190793 -11.48116779 32.86794758 C-11.50740198 30.03422472 -11.51569411 27.20064535 -11.51927757 24.36681175 C-11.52647971 22.35775991 -11.55289454 20.34880641 -11.57966614 18.33992004 C-11.56339184 11.4737621 -11.50363485 6.59865297 -7.10083008 1.14526367 C-4.38696116 0.2406407 -2.78990422 0.01474223 0 0 Z " fill="#3870A0" transform="translate(308.100830078125,321.854736328125)"/>
<path d="M0 0 C1.83203125 1.51953125 1.83203125 1.51953125 3 3 C2.01 3.495 2.01 3.495 1 4 C0.34 3.67 -0.32 3.34 -1 3 C-3.30305289 2.72591879 -3.30305289 2.72591879 -5.875 2.6875 C-6.73867187 2.65011719 -7.60234375 2.61273438 -8.4921875 2.57421875 C-11.88501675 3.15025985 -12.87905435 4.32028952 -15 7 C-15.58434605 9.95925359 -15.58434605 9.95925359 -15.4699707 13.28149414 C-15.47289627 14.55283707 -15.47582184 15.82417999 -15.47883606 17.13404846 C-15.46172254 18.51775824 -15.44402355 19.90146089 -15.42578125 21.28515625 C-15.4208556 22.70714358 -15.41755786 24.1291374 -15.41581726 25.5511322 C-15.40818423 28.52787055 -15.38764512 31.50412687 -15.35668945 34.48071289 C-15.31707909 38.29623995 -15.29907378 42.11145388 -15.28938007 45.92716312 C-15.27940642 49.56736989 -15.25952527 53.20750037 -15.23828125 56.84765625 C-15.2348855 57.54226519 -15.23148975 58.23687412 -15.2279911 58.95253181 C-15.2164105 60.91769405 -15.1968905 62.88280467 -15.17700195 64.84790039 C-15.16715775 65.96612686 -15.15731354 67.08435333 -15.14717102 68.23646545 C-15.11782951 71.08872815 -15.11782951 71.08872815 -14 74 C-10.71480525 75.09506492 -8.26336585 75.09960608 -4.8125 75.0625 C-3.72582031 75.05347656 -2.63914063 75.04445313 -1.51953125 75.03515625 C-0.68808594 75.02355469 0.14335937 75.01195312 1 75 C1 75.66 1 76.32 1 77 C-1.08304538 77.05418326 -3.16649768 77.09287551 -5.25 77.125 C-6.41015625 77.14820313 -7.5703125 77.17140625 -8.765625 77.1953125 C-11.85071231 77.00901496 -13.45824821 76.68248346 -16 75 C-20.36056876 69.03290591 -19.16007627 58.96367926 -19.16796875 51.921875 C-19.17129715 50.87404846 -19.17462555 49.82622192 -19.17805481 48.74664307 C-19.18309702 46.5379683 -19.18546398 44.32928598 -19.18530273 42.12060547 C-19.18748417 38.77428368 -19.20565526 35.42829464 -19.22460938 32.08203125 C-19.22754502 29.92448028 -19.22952867 27.76692776 -19.23046875 25.609375 C-19.23765427 24.62459167 -19.24483978 23.63980835 -19.25224304 22.62518311 C-19.22954503 15.58486308 -18.33802234 8.90782975 -17 2 C-11.58551754 -0.34139782 -5.81956432 -0.84963812 0 0 Z " fill="#3C71A1" transform="translate(211,321)"/>
<path d="M0 0 C0.33 0.66 0.66 1.32 1 2 C0.67 2.66 0.34 3.32 0 4 C-0.11194551 6.01060859 -0.15931014 8.02492934 -0.17700195 10.03857422 C-0.18983719 11.30684052 -0.20267242 12.57510681 -0.21589661 13.88180542 C-0.22406334 15.27276215 -0.2315072 16.66372329 -0.23828125 18.0546875 C-0.24235678 18.75394474 -0.2464323 19.45320198 -0.25063133 20.17364883 C-0.27148921 23.87406367 -0.28579263 27.57444144 -0.29516602 31.27490234 C-0.30623581 35.09733301 -0.3406421 38.91918236 -0.38033772 42.74140739 C-0.40647785 45.68052251 -0.41485542 48.61949849 -0.41844749 51.55871964 C-0.42331953 52.96774348 -0.43495126 54.37676087 -0.45348549 55.78567123 C-0.47781876 57.75785061 -0.47449785 59.73031243 -0.4699707 61.70263672 C-0.47877007 63.38569412 -0.47877007 63.38569412 -0.48774719 65.10275269 C0.11292933 68.67080696 1.13519736 69.84975332 4 72 C7.27400478 72.48263789 7.27400478 72.48263789 10.75 72.25 C11.92046875 72.21390625 13.0909375 72.1778125 14.296875 72.140625 C15.18890625 72.09421875 16.0809375 72.0478125 17 72 C17 72.66 17 73.32 17 74 C11.63858863 75.50751703 6.31195871 75.885431 1.0625 73.875 C-2.27025586 70.84522194 -2.89517769 67.26164703 -3.26069641 62.86224365 C-3.2653038 61.74464661 -3.26991119 60.62704956 -3.2746582 59.47558594 C-3.28419022 58.20116638 -3.29372223 56.92674683 -3.30354309 55.6137085 C-3.30328178 54.23726371 -3.30234528 52.86081892 -3.30078125 51.484375 C-3.30467126 50.0628446 -3.30900656 48.64131535 -3.31376648 47.2197876 C-3.32120433 44.25097875 -3.32095324 41.28228892 -3.31567383 38.31347656 C-3.30985375 34.50449072 -3.3268823 30.69598714 -3.3500185 26.88708115 C-3.36472059 23.95661564 -3.3656329 21.02626764 -3.36250877 18.09577179 C-3.36302283 16.69070727 -3.3682764 15.28563632 -3.37832069 13.8806076 C-3.39061072 11.92272127 -3.38197942 9.964737 -3.37231445 8.00683594 C-3.37294388 6.89242126 -3.3735733 5.77800659 -3.3742218 4.62982178 C-3.18898201 3.32806 -3.18898201 3.32806 -3 2 C-2.01 1.34 -1.02 0.68 0 0 Z " fill="#2F6C9E" transform="translate(372,324)"/>
<path d="M0 0 C0.99 0.33 1.98 0.66 3 1 C2.60167969 1.64066406 2.20335937 2.28132813 1.79296875 2.94140625 C-4.72575626 13.58389891 -9.29210561 24.17859398 -6.328125 36.87890625 C-5.79535745 38.76621018 -5.23980062 40.64730636 -4.65625 42.51953125 C-4 45 -4 45 -4 49 C-7.79730099 45.81516691 -8.47431684 43.87061543 -9 39 C-9.15933117 35.29053709 -9.18506076 31.58752679 -9.1875 27.875 C-9.19974609 26.88628906 -9.21199219 25.89757812 -9.22460938 24.87890625 C-9.22654297 23.92628906 -9.22847656 22.97367187 -9.23046875 21.9921875 C-9.23457764 21.12964355 -9.23868652 20.26709961 -9.24291992 19.37841797 C-8.98114512 16.81539273 -8.21293982 15.24533786 -7 13 C-6.96868331 10.85492217 -6.96868331 10.85492217 -7.375 8.75 C-7.58125 7.5125 -7.7875 6.275 -8 5 C-6.68 5.99 -5.36 6.98 -4 8 C-2.68 5.36 -1.36 2.72 0 0 Z " fill="#2C699F" transform="translate(232,331)"/>
<path d="M0 0 C0.99 0.66 1.98 1.32 3 2 C3.78762307 8.97609001 3.78762307 8.97609001 1.125 12.4375 C-4.09547114 16.27608172 -9.67867905 15.06197373 -16 15 C-16 10.38 -16 5.76 -16 1 C-15.67 1 -15.34 1 -15 1 C-15 4.3 -15 7.6 -15 11 C-12.91695462 11.05418326 -10.83350232 11.09287551 -8.75 11.125 C-7.58984375 11.14820313 -6.4296875 11.17140625 -5.234375 11.1953125 C-1.73902973 11.19658764 -1.73902973 11.19658764 2 9 C1.34 6.03 0.68 3.06 0 0 Z " fill="#2069A4" transform="translate(340,343)"/>
<path d="M0 0 C0.33 0 0.66 0 1 0 C1.33 21.45 1.66 42.9 2 65 C0.02 65.495 0.02 65.495 -2 66 C-1.83923477 65.4667511 -1.67846954 64.9335022 -1.51283264 64.38409424 C-0.89229714 61.49930298 -0.83667532 58.80632226 -0.79467773 55.85449219 C-0.77473251 54.61350769 -0.75478729 53.37252319 -0.73423767 52.09393311 C-0.71725607 50.744915 -0.70037717 49.39589559 -0.68359375 48.046875 C-0.66301124 46.66253049 -0.64201443 45.27819208 -0.62062073 43.89385986 C-0.56553393 40.257456 -0.51606586 36.62099667 -0.46777344 32.98449707 C-0.41746036 29.27086475 -0.36182558 25.55731256 -0.30664062 21.84375 C-0.19922296 14.56256794 -0.09774192 7.28131906 0 0 Z " fill="#2A6192" transform="translate(216,328)"/>
<path d="M0 0 C0.4125 0.37511719 0.825 0.75023437 1.25 1.13671875 C13.3738706 11.88041658 24.17361276 14.43685248 40 15 C40 15.33 40 15.66 40 16 C32.74 16 25.48 16 18 16 C18 15.34 18 14.68 18 14 C16.02 14 14.04 14 12 14 C12 13.01 12 12.02 12 11 C11.1646875 10.8453125 11.1646875 10.8453125 10.3125 10.6875 C7.49885978 9.85101237 5.37853021 8.71782737 3 7 C3 6.01 3 5.02 3 4 C2.01 3.67 1.02 3.34 0 3 C0 2.01 0 1.02 0 0 Z " fill="#2C659A" transform="translate(232,384)"/>
<path d="M0 0 C0.99 0 1.98 0 3 0 C4.27665042 9.65544349 5.367277 19.27604657 6 29 C5.38640625 28.79503906 4.7728125 28.59007812 4.140625 28.37890625 C3.08101563 28.19134766 3.08101563 28.19134766 2 28 C-0.27144074 29.85432087 -0.27144074 29.85432087 -2 32 C-2.66 31.67 -3.32 31.34 -4 31 C-3.38125 30.13375 -2.7625 29.2675 -2.125 28.375 C1.18276623 23.12148893 2.27945587 18.68573199 2.25 12.5 C2.25515625 11.4171875 2.2603125 10.334375 2.265625 9.21875 C1.98879794 5.86425744 1.19052385 3.13693587 0 0 Z " fill="#3676A5" transform="translate(362,336)"/>
<path d="M0 0 C0.99 0.99 1.98 1.98 3 3 C3.99 2.01 4.98 1.02 6 0 C7.41116678 3.20719724 6.89413879 4.28390052 5.625 7.6875 C4 11 4 11 3 12 C0.66702567 12.04092937 -1.66705225 12.04241723 -4 12 C-3.67 10.68 -3.34 9.36 -3 8 C-2.34 8 -1.68 8 -1 8 C-1.33 7.01 -1.66 6.02 -2 5 C-1.34 5 -0.68 5 0 5 C0 3.35 0 1.7 0 0 Z " fill="#F3F9FC" transform="translate(470,384)"/>
<path d="M0 0 C0.33 0 0.66 0 1 0 C1 9.9 1 19.8 1 30 C-3.9474838 26.04201296 -5.25693814 24.28293396 -8 19 C-6.68 19.33 -5.36 19.66 -4 20 C-3.67 16.37 -3.34 12.74 -3 9 C-2.67 9 -2.34 9 -2 9 C-2 13.95 -2 18.9 -2 24 C-1.34 24 -0.68 24 0 24 C0 16.08 0 8.16 0 0 Z " fill="#2574AD" transform="translate(420,328)"/>
<path d="M0 0 C0.66 0 1.32 0 2 0 C2 1.32 2 2.64 2 4 C3.65 4 5.3 4 7 4 C7 4.66 7 5.32 7 6 C6.01 6.495 6.01 6.495 5 7 C5 8.65 5 10.3 5 12 C4.236875 11.814375 3.47375 11.62875 2.6875 11.4375 C-0.08967375 10.77180827 -0.08967375 10.77180827 -3 12 C-3 10.35 -3 8.7 -3 7 C-3.66 6.67 -4.32 6.34 -5 6 C-5 5.34 -5 4.68 -5 4 C-3.35 4 -1.7 4 0 4 C0 2.68 0 1.36 0 0 Z " fill="#467DA8" transform="translate(473,353)"/>
<path d="M0 0 C0 2.73790466 -0.36541514 4.57920236 -1.0625 7.1875 C-2.1433786 11.79824088 -1.84318664 15.3624735 -1 20 C-0.34 20 0.32 20 1 20 C1 20.66 1 21.32 1 22 C1.99 22 2.98 22 4 22 C4.33 23.32 4.66 24.64 5 26 C6.65 26.33 8.3 26.66 10 27 C8.375 27.75 8.375 27.75 6 28 C1.81181408 25.90590704 -1.12413152 23.40270988 -3.3125 19.19921875 C-4.9203064 14.05606531 -5.07112681 7.74301604 -3.1015625 2.69921875 C-2 1 -2 1 0 0 Z " fill="#2C6699" transform="translate(250,349)"/>
<path d="M0 0 C4.03919345 4.03919345 6.84168113 7.39787822 10 12 C7.83125748 11.49396008 6.00032373 11.00016187 4 10 C3.34 8.68 2.68 7.36 2 6 C1.67 14.58 1.34 23.16 1 32 C0.34 32 -0.32 32 -1 32 C-0.67 21.44 -0.34 10.88 0 0 Z " fill="#366B98" transform="translate(393,362)"/>
<path d="M0 0 C1.32 0 2.64 0 4 0 C4.268125 0.763125 4.53625 1.52625 4.8125 2.3125 C5.76956301 5.00819736 5.76956301 5.00819736 7.625 6.375 C9 8 9 8 9.3125 11.4375 C9.02446077 14.7211472 8.53764007 16.2126445 7 19 C6.34956281 17.27255984 5.70485156 15.5429631 5.0625 13.8125 C4.52302734 12.36810547 4.52302734 12.36810547 3.97265625 10.89453125 C3 8 3 8 2.49609375 5.19921875 C2.25052734 4.11060547 2.25052734 4.11060547 2 3 C1.34 2.67 0.68 2.34 0 2 C0 1.34 0 0.68 0 0 Z " fill="#2B75A6" transform="translate(493,349)"/>
<path d="M0 0 C2 2 2 2 2 5 C2.99 5 3.98 5 5 5 C5 5.66 5 6.32 5 7 C4.34 7 3.68 7 3 7 C3.33 8.65 3.66 10.3 4 12 C3.236875 11.814375 2.47375 11.62875 1.6875 11.4375 C-1.08967375 10.77180827 -1.08967375 10.77180827 -4 12 C-4 10.35 -4 8.7 -4 7 C-4.66 6.67 -5.32 6.34 -6 6 C-6 5.34 -6 4.68 -6 4 C-4.35 4 -2.7 4 -1 4 C-0.67 2.68 -0.34 1.36 0 0 Z " fill="#487EA8" transform="translate(465,376)"/>
<path d="M0 0 C3.25 -0.0625 3.25 -0.0625 7 1 C9.56279714 4.58200752 10.7355624 8.51253851 11.5 12.8125 C10.79707447 15.88779921 9.46333209 17.08407504 7 19 C4.75 19.75 4.75 19.75 3 20 C3.66 18.96875 4.32 17.9375 5 16.875 C6.95283656 13.37117412 7.94818875 11.05135193 7 7 C5.29453618 5.18873817 3.51508398 3.69890277 1.53125 2.19921875 C1.0259375 1.80347656 0.520625 1.40773438 0 1 C0 0.67 0 0.34 0 0 Z " fill="#1D62A2" transform="translate(284,373)"/>
<path d="M0 0 C0.66 0 1.32 0 2 0 C2 1.32 2 2.64 2 4 C3.65 4 5.3 4 7 4 C6.67 4.66 6.34 5.32 6 6 C5.34 6 4.68 6 4 6 C4.33 7.98 4.66 9.96 5 12 C4.236875 11.62875 3.47375 11.2575 2.6875 10.875 C1.800625 10.58625 0.91375 10.2975 0 10 C-0.99 10.66 -1.98 11.32 -3 12 C-2.95875 11.236875 -2.9175 10.47375 -2.875 9.6875 C-2.77919176 6.77281584 -2.77919176 6.77281584 -5 4 C-3.35 4 -1.7 4 0 4 C0 2.68 0 1.36 0 0 Z " fill="#437BA7" transform="translate(482,331)"/>
<path d="M0 0 C6.93 0 13.86 0 21 0 C21 0.33 21 0.66 21 1 C14.4 1 7.8 1 1 1 C1.48565358 6.41685443 1.48565358 6.41685443 2.01855469 11.82910156 C2.43276599 17.39852863 2.43276599 17.39852863 0.15625 20.5625 C-2 22 -2 22 -4.25 21.75 C-4.8275 21.5025 -5.405 21.255 -6 21 C-5.19175781 20.52046875 -4.38351562 20.0409375 -3.55078125 19.546875 C0.03262076 15.96896059 -0.22578096 13.12229033 -0.1875 8.25 C-0.125625 5.5275 -0.06375 2.805 0 0 Z " fill="#4F7FAA" transform="translate(323,375)"/>
<path d="M0 0 C1.25668488 0.00636726 1.25668488 0.00636726 2.53875732 0.01286316 C5.20846002 0.02962467 7.87740137 0.06727164 10.546875 0.10546875 C12.35936408 0.12051888 14.17186502 0.13420672 15.984375 0.14648438 C20.42216731 0.17951986 24.85939217 0.23128432 29.296875 0.29296875 C29.296875 0.62296875 29.296875 0.95296875 29.296875 1.29296875 C28.26280518 1.30755127 27.22873535 1.32213379 26.16333008 1.3371582 C22.31451418 1.39527757 18.46627501 1.47250898 14.61791992 1.55541992 C12.95460392 1.5886053 11.29117704 1.61665709 9.62768555 1.6394043 C7.23178001 1.67306874 4.83688465 1.72538815 2.44140625 1.78125 C1.7016304 1.78763992 0.96185455 1.79402985 0.19966125 1.8006134 C-4.28972324 1.92749819 -7.06451146 2.66519674 -10.703125 5.29296875 C-12.02921322 5.97393297 -13.35999101 6.64627461 -14.703125 7.29296875 C-11.75049401 0.15744385 -7.15591302 -0.13669727 0 0 Z " fill="#C0DBF6" transform="translate(314.703125,322.70703125)"/>
<path d="M0 0 C4.28904235 1.5885342 6.32345526 4.43127368 9 8 C9 8.66 9 9.32 9 10 C9.61875 10.04125 10.2375 10.0825 10.875 10.125 C13 11 13 11 14.3125 13.9375 C15 17 15 17 14 19 C0 2.1328976 0 2.1328976 0 0 Z " fill="#3573A0" transform="translate(397,328)"/>
<path d="M0 0 C0.33 0 0.66 0 1 0 C1 3.96 1 7.92 1 12 C0.01 12.495 0.01 12.495 -1 13 C-1.33 13.99 -1.66 14.98 -2 16 C-2.66 16 -3.32 16 -4 16 C-4 16.66 -4 17.32 -4 18 C-4.66 18 -5.32 18 -6 18 C-4.23536928 11.89262558 -2.30442525 5.92566493 0 0 Z " fill="#3177AA" transform="translate(483,370)"/>
<path d="M0 0 C1.83203125 1.51953125 1.83203125 1.51953125 3 3 C2.01 3.495 2.01 3.495 1 4 C0.34 3.67 -0.32 3.34 -1 3 C-5.12778383 2.48031499 -9.27362678 2.03187698 -12.9921875 4.1171875 C-14.81795118 5.61287463 -14.81795118 5.61287463 -17 8 C-17 6.02 -17 4.04 -17 2 C-11.58551754 -0.34139782 -5.81956432 -0.84963812 0 0 Z " fill="#2B679B" transform="translate(211,321)"/>
<path d="M0 0 C2.125 0.9375 2.125 0.9375 4 2 C4 3.65 4 5.3 4 7 C3.01 7 2.02 7 1 7 C1 6.34 1 5.68 1 5 C-2.46712111 3.84429296 -5.5414956 3.67164707 -9.1875 3.4375 C-10.45980469 3.35371094 -11.73210937 3.26992188 -13.04296875 3.18359375 C-14.01878906 3.12300781 -14.99460937 3.06242187 -16 3 C-16 2.67 -16 2.34 -16 2 C-15.01257813 1.93941406 -14.02515625 1.87882812 -13.0078125 1.81640625 C-11.72648437 1.73261719 -10.44515625 1.64882813 -9.125 1.5625 C-7.84882813 1.48128906 -6.57265625 1.40007812 -5.2578125 1.31640625 C-2.11699848 1.20793973 -2.11699848 1.20793973 0 0 Z " fill="#3174A7" transform="translate(394,320)"/>
<path d="M0 0 C0.99 0 1.98 0 3 0 C3 0.66 3 1.32 3 2 C7.95 2 12.9 2 18 2 C17.67 2.66 17.34 3.32 17 4 C16.26394531 3.95359375 15.52789062 3.9071875 14.76953125 3.859375 C8.46875678 3.53777378 8.46875678 3.53777378 2.8125 6 C2.214375 6.66 1.61625 7.32 1 8 C0.67 5.36 0.34 2.72 0 0 Z " fill="#3074A9" transform="translate(421,320)"/>
<path d="M0 0 C0.66 0.33 1.32 0.66 2 1 C1.04832179 3.62758953 0.08902879 6.25194493 -0.875 8.875 C-1.14441406 9.62136719 -1.41382813 10.36773437 -1.69140625 11.13671875 C-3.7734375 16.7734375 -3.7734375 16.7734375 -6 19 C-5.505 14.545 -5.505 14.545 -5 10 C-4.34 10 -3.68 10 -3 10 C-3 8.68 -3 7.36 -3 6 C-2.34 6 -1.68 6 -1 6 C-0.67 4.02 -0.34 2.04 0 0 Z " fill="#3270A3" transform="translate(456,365)"/>
<path d="M0 0 C1.11503906 -0.00773437 2.23007812 -0.01546875 3.37890625 -0.0234375 C6.66595597 0.40476055 8.03605171 1.15556857 10.4375 3.375 C9.74785156 3.27960938 9.05820312 3.18421875 8.34765625 3.0859375 C2.54885357 2.40185378 -2.15905289 2.37219433 -7.78515625 4 C-9.5625 4.375 -9.5625 4.375 -11.5625 3.375 C-7.59746282 0.57353448 -4.83069411 -0.03358536 0 0 Z " fill="#3A6FA0" transform="translate(263.5625,341.625)"/>
<path d="M0 0 C0.33 0 0.66 0 1 0 C1 9.9 1 19.8 1 30 C0.01 29.34 -0.98 28.68 -2 28 C-2 27.34 -2 26.68 -2 26 C-1.34 26 -0.68 26 0 26 C0 17.42 0 8.84 0 0 Z " fill="#266799" transform="translate(420,328)"/>
<path d="M0 0 C0.33 0 0.66 0 1 0 C1.33 3.96 1.66 7.92 2 12 C5.63 12.33 9.26 12.66 13 13 C13 13.33 13 13.66 13 14 C8.71 14 4.42 14 0 14 C0 9.38 0 4.76 0 0 Z " fill="#2C6799" transform="translate(324,344)"/>
<path d="M0 0 C5.75 1.875 5.75 1.875 8 3 C9.0317435 5.93300669 9.10790988 8.66212836 9.0625 11.75 C9.05347656 12.54921875 9.04445313 13.3484375 9.03515625 14.171875 C9.02355469 14.77515625 9.01195312 15.3784375 9 16 C8.34 16.33 7.68 16.66 7 17 C6 14 6 14 6.3125 10.125 C6.37479142 7.52313521 6.35442807 6.42510581 4.66796875 4.40234375 C3.16685647 3.19653224 1.58664334 2.0908173 0 1 C0 0.67 0 0.34 0 0 Z " fill="#3C77A8" transform="translate(284,327)"/>
<path d="M0 0 C3.375 0.3125 3.375 0.3125 7 1 C9.67927341 5.01891012 9.15601248 7.24161923 9 12 C8.67 12 8.34 12 8 12 C7.79375 11.113125 7.5875 10.22625 7.375 9.3125 C5.61821033 5.08023397 3.60491711 3.74287171 0 1 C0 0.67 0 0.34 0 0 Z " fill="#386FA4" transform="translate(284,373)"/>
<path d="M0 0 C1.8871875 0.0309375 1.8871875 0.0309375 3.8125 0.0625 C3.8125 0.3925 3.8125 0.7225 3.8125 1.0625 C2.575 1.289375 1.3375 1.51625 0.0625 1.75 C-4.1425281 2.78268358 -5.79988121 4.38924032 -8.1875 8.0625 C-8.8475 8.7225 -9.5075 9.3825 -10.1875 10.0625 C-9.6895163 6.32762223 -9.31258244 4.25012365 -7.1875 1.0625 C-4.43671116 0.14557039 -2.82801087 -0.04636083 0 0 Z " fill="#2D6A9D" transform="translate(308.1875,321.9375)"/>
<path d="M0 0 C0.33 0.99 0.66 1.98 1 3 C1.66 3 2.32 3 3 3 C2.34 5.64 1.68 8.28 1 11 C-0.32 10.34 -1.64 9.68 -3 9 C-2.01 6.03 -1.02 3.06 0 0 Z " fill="#4080AD" transform="translate(497,333)"/>
<path d="M0 0 C0.33 0 0.66 0 1 0 C1 1.65 1 3.3 1 5 C1.66 5.33 2.32 5.66 3 6 C2.67 7.32 2.34 8.64 2 10 C1.34 10 0.68 10 0 10 C-0.33 10.66 -0.66 11.32 -1 12 C-2.32 11.67 -3.64 11.34 -5 11 C-4.01 10.67 -3.02 10.34 -2 10 C-1.34 6.7 -0.68 3.4 0 0 Z " fill="#387CAF" transform="translate(525,385)"/>
<path d="M0 0 C9.01531729 -0.63019694 9.01531729 -0.63019694 13.125 2 C13.74375 2.66 14.3625 3.32 15 4 C14.67 4.66 14.34 5.32 14 6 C9.125 3.125 9.125 3.125 8 2 C6.65252916 1.76924918 5.29622435 1.58846937 3.9375 1.4375 C2.638125 1.293125 1.33875 1.14875 0 1 C0 0.67 0 0.34 0 0 Z " fill="#CDE5F7" transform="translate(200,323)"/>
<path d="M0 0 C0.66 0.33 1.32 0.66 2 1 C2.625 4.0625 2.625 4.0625 3 7 C2.38125 7.144375 1.7625 7.28875 1.125 7.4375 C-1.03258322 7.93152225 -1.03258322 7.93152225 -3 9 C-2.01 6.03 -1.02 3.06 0 0 Z " fill="#CAE4F4" transform="translate(503,329)"/>
<path d="M0 0 C1.9451 2.91765 2.45276317 4.62537285 3 8 C2.01 7.67 1.02 7.34 0 7 C-0.33 7.99 -0.66 8.98 -1 10 C-1.66 8.68 -2.32 7.36 -3 6 C-2.34 6 -1.68 6 -1 6 C-0.67 4.02 -0.34 2.04 0 0 Z " fill="#417FB0" transform="translate(506,370)"/>
<path d="M0 0 C0.99 0 1.98 0 3 0 C3.33 3.63 3.66 7.26 4 11 C1 9 1 9 0.48828125 6.8359375 C0.43027344 6.02382813 0.37226563 5.21171875 0.3125 4.375 C0.24675781 3.55773437 0.18101562 2.74046875 0.11328125 1.8984375 C0.07589844 1.27195312 0.03851563 0.64546875 0 0 Z " fill="#C9DEED" transform="translate(243,357)"/>
<path d="M0 0 C1.32 0 2.64 0 4 0 C5.23921302 2.97411124 6.30058404 5.85262818 7 9 C5.0625 8.25 5.0625 8.25 3 7 C2.375 4.9375 2.375 4.9375 2 3 C1.34 2.67 0.68 2.34 0 2 C0 1.34 0 0.68 0 0 Z " fill="#1972AA" transform="translate(493,349)"/>
<path d="M0 0 C0.33 0.99 0.66 1.98 1 3 C-5.27692308 7.06153846 -5.27692308 7.06153846 -8.9375 6.75 C-9.618125 6.5025 -10.29875 6.255 -11 6 C-11 5.67 -11 5.34 -11 5 C-10.37351562 4.80664062 -9.74703125 4.61328125 -9.1015625 4.4140625 C-8.28429687 4.15367187 -7.46703125 3.89328125 -6.625 3.625 C-5.81289063 3.36976563 -5.00078125 3.11453125 -4.1640625 2.8515625 C-1.83540815 2.10145717 -1.83540815 2.10145717 0 0 Z " fill="#3972A3" transform="translate(289,342)"/>
<path d="M0 0 C0.99 0 1.98 0 3 0 C4.13480527 3.60993172 4.10015767 6.9842327 4.0625 10.75 C4.05347656 11.92046875 4.04445313 13.0909375 4.03515625 14.296875 C4.02355469 15.18890625 4.01195312 16.0809375 4 17 C3.67 17 3.34 17 3 17 C2.92652344 15.91332031 2.92652344 15.91332031 2.8515625 14.8046875 C2.44793848 9.58541133 1.98724193 4.90186342 0 0 Z " fill="#4B7DAA" transform="translate(362,336)"/>
<path d="M0 0 C0.99 0.33 1.98 0.66 3 1 C2.04532436 2.62715156 1.08613152 4.25165346 0.125 5.875 C-0.40867188 6.77992188 -0.94234375 7.68484375 -1.4921875 8.6171875 C-3 11 -3 11 -5 13 C-4.39254603 8.14036821 -2.27241033 4.2594482 0 0 Z " fill="#336C9C" transform="translate(232,331)"/>
<path d="M0 0 C0.2475 0.61875 0.495 1.2375 0.75 1.875 C2.20628639 4.35068687 3.37812506 4.95125002 6 6 C3.69 6.66 1.38 7.32 -1 8 C-1 7.34 -1 6.68 -1 6 C-0.34 6 0.32 6 1 6 C0.34 4.35 -0.32 2.7 -1 1 C-0.67 0.67 -0.34 0.34 0 0 Z " fill="#1C62A5" transform="translate(193,392)"/>
<path d="M0 0 C1.0625 1.875 1.0625 1.875 2 4 C1.67 4.66 1.34 5.32 1 6 C-0.32 6 -1.64 6 -3 6 C-4.7511573 7.4166747 -4.7511573 7.4166747 -6 9 C-6.66 8.67 -7.32 8.34 -8 8 C-3.375 3.125 -3.375 3.125 0 2 C0 1.34 0 0.68 0 0 Z " fill="#286DA4" transform="translate(366,359)"/>
<path d="M0 0 C0.99 0.66 1.98 1.32 3 2 C3.33957665 5.00767886 3.54493987 7.09747814 3 10 C1 12.5 1 12.5 -1 14 C-1.33 12.68 -1.66 11.36 -2 10 C-0.68 9.67 0.64 9.34 2 9 C1.34 6.03 0.68 3.06 0 0 Z " fill="#487BA3" transform="translate(340,343)"/>
<path d="M0 0 C0.66 0.33 1.32 0.66 2 1 C1.34 2.65 0.68 4.3 0 6 C-4.29 5.67 -8.58 5.34 -13 5 C-13 4.67 -13 4.34 -13 4 C-9.04 4 -5.08 4 -1 4 C-0.67 2.68 -0.34 1.36 0 0 Z " fill="#1F619F" transform="translate(213,394)"/>
<path d="M0 0 C4.95 0.99 4.95 0.99 10 2 C9.01 3.485 9.01 3.485 8 5 C2.25 3.375 2.25 3.375 0 0 Z " fill="#3272A5" transform="translate(276,322)"/>
<path d="M0 0 C1.60156595 4.00391487 0.4087561 7.07031192 -1 11 C-1.99 11.495 -1.99 11.495 -3 12 C-2.49202991 7.6822542 -1.80317221 3.96697886 0 0 Z " fill="#CBE4F0" transform="translate(467,340)"/>
<path d="M0 0 C1.9375 0.5625 1.9375 0.5625 4 2 C4.75 5.625 4.75 5.625 5 9 C3.0625 7.875 3.0625 7.875 1 6 C0.25 2.8125 0.25 2.8125 0 0 Z " fill="#2A75AA" transform="translate(407,338)"/>
<path d="M0 0 C-1.70828921 2.10633718 -2.52148416 2.93801608 -5.26171875 3.29296875 C-6.06222656 3.25816406 -6.86273438 3.22335937 -7.6875 3.1875 C-8.49574219 3.16042969 -9.30398438 3.13335937 -10.13671875 3.10546875 C-10.75160156 3.07066406 -11.36648438 3.03585937 -12 3 C-3.11538462 -1.55769231 -3.11538462 -1.55769231 0 0 Z " fill="#4677A7" transform="translate(280,396)"/>
<path d="M0 0 C0.66 1.32 1.32 2.64 2 4 C0.68 5.32 -0.64 6.64 -2 8 C-2.6875 6.25 -2.6875 6.25 -3 4 C-1.5625 1.75 -1.5625 1.75 0 0 Z " fill="#FCFAF2" transform="translate(474,380)"/>
<path d="M0 0 C0.99 0.99 1.98 1.98 3 3 C2.01 3.99 1.02 4.98 0 6 C-0.99 5.67 -1.98 5.34 -3 5 C-3 4.01 -3 3.02 -3 2 C-2.01 2 -1.02 2 0 2 C0 1.34 0 0.68 0 0 Z " fill="#2877B2" transform="translate(403,374)"/>
<path d="M0 0 C2.18975773 3.28463659 2.99806563 6.20696275 4 10 C3.01 10.495 3.01 10.495 2 11 C1.67 9.02 1.34 7.04 1 5 C0.34 5 -0.32 5 -1 5 C-0.67 3.35 -0.34 1.7 0 0 Z " fill="#3A7AAA" transform="translate(496,344)"/>
<path d="M0 0 C2.64 0 5.28 0 8 0 C7.34 1.65 6.68 3.3 6 5 C3.98079663 3.69593116 1.98075027 2.36176581 0 1 C0 0.67 0 0.34 0 0 Z " fill="#377AAF" transform="translate(352,326)"/>
<path d="M0 0 C0.99 0.33 1.98 0.66 3 1 C2.67 2.65 2.34 4.3 2 6 C1.34 6 0.68 6 0 6 C-0.38218767 4.34385343 -0.71395102 2.67542976 -1 1 C-0.67 0.67 -0.34 0.34 0 0 Z " fill="#2070A7" transform="translate(508,384)"/>
<path d="M0 0 C0.78375 0.04125 1.5675 0.0825 2.375 0.125 C-0.50587546 2.52572955 -3.18904834 4.59791037 -6.625 6.125 C-3.85227273 0.18344156 -3.85227273 0.18344156 0 0 Z " fill="#D5E9F4" transform="translate(306.625,323.875)"/>
<path d="M0 0 C2.0625 0.75 2.0625 0.75 4 2 C4.33 2.99 4.66 3.98 5 5 C2.625 4.6875 2.625 4.6875 0 4 C-0.66 3.01 -1.32 2.02 -2 1 C-1.34 0.67 -0.68 0.34 0 0 Z " fill="#2B77B1" transform="translate(440,323)"/>
<path d="M0 0 C0.99 0.99 1.98 1.98 3 3 C2.01 3.66 1.02 4.32 0 5 C0 3.35 0 1.7 0 0 Z M-3 4 C-2.01 4.66 -1.02 5.32 0 6 C-1.65 6.33 -3.3 6.66 -5 7 C-4.34 6.01 -3.68 5.02 -3 4 Z " fill="#2D76B0" transform="translate(394,389)"/>
<path d="M0 0 C0.66 0.66 1.32 1.32 2 2 C2.66 1.67 3.32 1.34 4 1 C4 2.32 4 3.64 4 5 C3.01 5 2.02 5 1 5 C0.67 5.66 0.34 6.32 0 7 C-1.04449911 3.86650268 -0.93423645 3.01031744 0 0 Z " fill="#2C76AE" transform="translate(476,388)"/>
<path d="M0 0 C0.66 0 1.32 0 2 0 C1.67 1.98 1.34 3.96 1 6 C0.34 6 -0.32 6 -1 6 C-1.33 6.99 -1.66 7.98 -2 9 C-2.33 7.35 -2.66 5.7 -3 4 C-2.34 3.67 -1.68 3.34 -1 3 C-0.67 2.01 -0.34 1.02 0 0 Z " fill="#4483AF" transform="translate(511,386)"/>
<path d="M0 0 C0.99 0.33 1.98 0.66 3 1 C2.42655063 3.86724686 2.1385485 4.8614515 0 7 C-1.125 2.25 -1.125 2.25 0 0 Z " fill="#216FA8" transform="translate(506,377)"/>
<path d="M0 0 C3.73639216 1.24546405 4.18756513 2.63404953 6 6 C3.83125748 5.49396008 2.00032373 5.00016187 0 4 C0 2.68 0 1.36 0 0 Z " fill="#2F71A7" transform="translate(397,368)"/>
<path d="M0 0 C0.33 0 0.66 0 1 0 C1 2.97 1 5.94 1 9 C-0.32 9.33 -1.64 9.66 -3 10 C-2.690625 9.46375 -2.38125 8.9275 -2.0625 8.375 C-0.82172561 5.6015043 -0.4090325 2.99957163 0 0 Z " fill="#2868A2" transform="translate(217,384)"/>
<path d="M0 0 C0.66 0.33 1.32 0.66 2 1 C2.1875 3.875 2.1875 3.875 2 7 C1.01 7.66 0.02 8.32 -1 9 C-0.67 6.03 -0.34 3.06 0 0 Z " fill="#C9E2F5" transform="translate(290,379)"/>
<path d="M0 0 C1.65 1.65 3.3 3.3 5 5 C4.34 5.66 3.68 6.32 3 7 C1.33333333 5.33333333 -0.33333333 3.66666667 -2 2 C-1.34 2 -0.68 2 0 2 C0 1.34 0 0.68 0 0 Z " fill="#3774AA" transform="translate(406,378)"/>
<path d="M0 0 C0.33 0.66 0.66 1.32 1 2 C1.66 2 2.32 2 3 2 C2.42655063 4.86724686 2.1385485 5.8614515 0 8 C-0.79953138 4.71303767 -1.09658936 3.28976808 0 0 Z " fill="#3A83BA" transform="translate(501,365)"/>
<path d="M0 0 C0.66 0 1.32 0 2 0 C1.125 4.75 1.125 4.75 0 7 C-0.66 7 -1.32 7 -2 7 C-1.125 1.125 -1.125 1.125 0 0 Z " fill="#3679A4" transform="translate(471,325)"/>
<path d="M0 0 C0 0.99 0 1.98 0 3 C0.66 3.33 1.32 3.66 2 4 C-1.90838866 4 -3.11594107 2.49432124 -6 0 C-3.50907189 -1.24546405 -2.58919267 -0.7767578 0 0 Z " fill="#2B78AE" transform="translate(498,321)"/>
</svg>
