<?xml version="1.0" standalone="no"?>
<!DOCTYPE svg PUBLIC "-//W3C//DTD SVG 20010904//EN"
 "http://www.w3.org/TR/2001/REC-SVG-20010904/DTD/svg10.dtd">
<svg version="1.0" xmlns="http://www.w3.org/2000/svg"
 width="409.000000pt" height="307.000000pt" viewBox="0 0 409.000000 307.000000"
 preserveAspectRatio="xMidYMid meet">

<g transform="translate(0.000000,307.000000) scale(0.100000,-0.100000)"
fill="#000000" stroke="none">
<path d="M2 1538 l-2 -1538 2045 0 2045 0 0 1535 c0 1528 0 1535 -20 1535 -20
0 -20 -7 -20 -1530 l0 -1530 -2020 0 -2020 0 -3 1533 -2 1532 -3 -1537z"/>
<path d="M448 1809 c-49 -14 -117 -74 -139 -123 -23 -51 -25 -143 -3 -194 64
-153 282 -187 389 -60 40 47 55 89 55 153 0 94 -42 165 -124 207 -46 23 -127
31 -178 17z m132 -84 c0 -20 5 -25 25 -25 21 0 25 -5 25 -30 0 -26 4 -30 28
-30 28 0 29 -1 26 -52 -2 -49 -4 -53 -28 -56 -22 -3 -26 -8 -26 -34 0 -27 -3
-30 -25 -26 -22 5 -25 2 -25 -23 0 -29 -1 -29 -60 -29 -59 0 -60 0 -60 29 0
25 -3 28 -25 23 -22 -4 -25 -1 -25 27 0 28 -3 31 -30 31 -30 0 -30 1 -30 55 0
54 0 55 30 55 27 0 30 3 30 30 0 25 4 30 25 30 20 0 25 5 25 25 0 24 3 25 60
25 57 0 60 -1 60 -25z"/>
<path d="M492 1638 c2 -19 -2 -24 -24 -26 -22 -3 -28 -9 -28 -27 0 -18 6 -24
28 -27 22 -2 26 -7 24 -25 -3 -19 2 -23 22 -23 21 0 26 5 26 25 0 21 5 25 30
25 25 0 30 4 30 24 0 19 -6 25 -27 28 -20 2 -29 9 -31 26 -3 16 -10 22 -28 22
-20 0 -25 -4 -22 -22z"/>
<path d="M875 1800 c-1 -3 -3 -101 -4 -217 l-2 -213 55 0 56 0 0 214 0 214
-51 4 c-28 1 -52 1 -54 -2z"/>
<path d="M1410 1588 l0 -218 45 0 45 0 0 43 c1 41 18 77 37 77 5 0 24 -27 43
-60 l34 -60 53 0 c62 0 64 -9 -17 117 l-50 78 57 57 57 58 -56 0 c-56 0 -56 0
-99 -55 -24 -30 -47 -54 -51 -55 -5 0 -8 53 -8 118 l0 117 -45 0 -45 0 0 -217z"/>
<path d="M2167 1780 c-16 -13 -28 -35 -32 -60 -5 -30 -11 -40 -26 -40 -14 0
-19 -7 -19 -30 0 -23 4 -30 20 -30 19 0 20 -7 20 -125 l0 -125 50 0 50 0 0
125 0 125 30 0 c27 0 30 3 30 30 0 27 -3 30 -30 30 -25 0 -30 4 -30 25 0 20 6
27 30 32 25 4 30 10 30 34 0 28 -2 29 -49 29 -33 0 -56 -6 -74 -20z"/>
<path d="M1195 1680 c-12 -4 -27 -15 -34 -24 -18 -22 -31 -20 -31 4 0 17 -7
20 -45 20 l-45 0 0 -155 0 -155 48 0 47 0 0 99 c0 108 14 141 61 141 45 0 54
-23 54 -136 l0 -104 48 0 47 0 -5 127 c-3 74 -10 137 -17 149 -20 35 -85 52
-128 34z"/>
<path d="M1835 1675 c-22 -8 -41 -15 -42 -15 -4 0 -33 -59 -33 -67 0 -16 82
-1 101 18 31 31 89 17 89 -21 0 -25 -3 -26 -90 -44 -90 -19 -113 -38 -113 -97
0 -34 6 -47 27 -66 36 -30 112 -32 149 -3 21 17 26 18 31 5 3 -10 19 -15 48
-15 l43 0 -5 128 c-6 161 -14 174 -115 186 -33 4 -64 1 -90 -9z m115 -189 c0
-58 -51 -91 -95 -62 -43 28 -30 54 41 80 54 20 54 20 54 -18z"/>
<path d="M2425 1681 c-60 -15 -95 -46 -95 -83 0 -20 78 -10 101 13 23 23 52
24 73 3 33 -33 15 -50 -74 -68 -91 -19 -115 -40 -114 -98 1 -33 8 -47 30 -66
24 -21 35 -24 82 -20 39 4 59 11 69 24 13 18 15 18 24 2 7 -13 22 -18 49 -18
l40 0 0 114 c0 126 -8 158 -42 179 -29 18 -103 28 -143 18z m95 -195 c0 -25
-7 -40 -26 -55 -33 -26 -45 -26 -75 -2 -32 26 -18 50 42 73 59 23 59 23 59
-16z"/>
<path d="M3083 1683 c-13 -2 -31 -15 -42 -29 -24 -30 -31 -30 -31 1 0 23 -4
25 -42 25 l-43 0 0 -155 0 -155 48 0 47 0 0 103 c0 88 3 106 18 120 22 20 53
22 70 5 8 -8 12 -49 12 -120 l0 -108 50 0 50 0 0 103 c0 88 3 106 18 120 22
20 53 22 70 5 8 -8 12 -49 12 -120 l0 -108 51 0 51 0 -3 124 c-4 107 -7 128
-25 152 -38 51 -133 52 -168 2 -15 -21 -15 -20 -38 6 -23 26 -64 38 -105 29z"/>
<path d="M3572 1680 c-38 -9 -78 -42 -85 -71 -4 -16 0 -19 37 -19 29 0 47 6
59 20 19 22 39 25 68 10 41 -23 12 -70 -43 -70 -39 0 -98 -20 -119 -41 -19
-19 -25 -71 -13 -104 17 -44 122 -60 167 -25 30 24 37 25 37 5 0 -11 11 -15
43 -15 l42 0 -3 122 c-4 159 -17 180 -112 191 -25 3 -60 2 -78 -3z m108 -179
c0 -61 -50 -103 -98 -82 -18 9 -23 18 -20 39 2 23 11 30 53 44 65 21 65 21 65
-1z"/>
<path d="M2675 1525 l0 -155 48 0 47 0 0 89 c0 103 19 141 71 141 27 0 29 2
29 40 0 36 -2 40 -25 40 -14 0 -37 -11 -51 -25 -14 -14 -27 -25 -29 -25 -3 0
-5 11 -5 25 0 23 -4 25 -42 25 l-43 0 0 -155z"/>
</g>
</svg>
