<?xml version="1.0" encoding="UTF-8"?>
<svg version="1.1" xmlns="http://www.w3.org/2000/svg" width="400" height="400">
<path d="M0 0 C132 0 264 0 400 0 C400 132 400 264 400 400 C268 400 136 400 0 400 C0 268 0 136 0 0 Z " fill="#000000" transform="translate(0,0)"/>
<path d="M0 0 C10.58410914 7.99763874 16.97436765 18.79526034 19.4296875 31.8359375 C19.7917682 36.79776811 19.85039021 41.73187293 19.84037781 46.70527077 C19.83584214 49.15701774 19.85005565 51.60806468 19.86877441 54.05973816 C19.91146416 60.13911549 19.92281335 66.21847265 19.93499756 72.29797363 C19.94654538 77.45925233 19.97013353 82.62020495 20.00968933 87.78134727 C20.02320376 90.18883076 20.01910172 92.59586606 20.01428223 95.00337219 C20.02362419 96.48378058 20.03379335 97.96418405 20.04492188 99.44458008 C20.04697632 100.7304451 20.04903076 102.01631012 20.05114746 103.34114075 C20.61893902 108.5831651 22.19940761 111.77342305 26.1796875 115.2109375 C30.02075726 117.13147238 32.18348503 117.36671281 36.4296875 116.8359375 C41.65389397 114.99209992 43.86217859 112.70410671 46.4296875 107.8359375 C46.9849651 104.46303574 46.9430923 101.14666052 46.89624023 97.73486328 C46.89854645 96.73246613 46.90085266 95.73006897 46.90322876 94.69729614 C46.90585354 92.52675825 46.89943671 90.3561946 46.88497734 88.18570328 C46.8630607 84.74664216 46.86681825 81.30845923 46.87745667 77.86935425 C46.89910921 69.32815359 46.8817773 60.7871486 46.85595703 52.24597168 C46.83453509 45.02654107 46.83263861 37.80767428 46.85887337 30.58825302 C46.86321638 27.2067546 46.83860658 23.82624189 46.81333923 20.44485474 C46.81861203 18.36183232 46.82533586 16.27881291 46.83374023 14.19580078 C46.81883041 13.26151245 46.80392059 12.32722412 46.78855896 11.36462402 C46.85777035 4.97701357 48.36793144 0.79820024 52.4296875 -4.1640625 C57.30017995 -8.68666263 61.30329517 -9.60030749 67.79296875 -9.49609375 C72.27498446 -8.93169177 75.17247559 -7.22813214 78.4296875 -4.1640625 C82.4459717 2.10941941 83.00527473 8.24296336 82.93139648 15.52124023 C82.93950096 17.06456528 82.93950096 17.06456528 82.94776917 18.6390686 C82.96020374 22.01618855 82.94379865 25.3924471 82.92578125 28.76953125 C82.92593637 31.13167872 82.92742753 33.49382644 82.93019104 35.85597229 C82.93157273 40.79773258 82.91905605 45.73920183 82.89624023 50.6809082 C82.8678724 56.99666496 82.87059204 63.3119379 82.88333035 69.62773037 C82.89030557 74.50324085 82.88247687 79.37864069 82.87007332 84.25413704 C82.86557566 86.58200722 82.86520719 88.90988934 82.86913872 91.23776054 C82.87206859 94.4991655 82.85545816 97.759918 82.83374023 101.02124023 C82.84049271 102.44689552 82.84049271 102.44689552 82.84738159 103.90135193 C82.69688326 117.59264512 77.32924513 129.62733302 67.94140625 139.51171875 C57.42647216 149.24171219 45.38122662 153.49633111 31.22460938 153.37915039 C17.62190681 152.82671996 5.35899284 146.66116168 -3.9453125 136.796875 C-13.82423639 124.87567358 -16.16545957 111.56640369 -16.0561676 96.5699482 C-16.03864064 94.09271936 -16.04655017 91.6166301 -16.0604248 89.13938904 C-16.08552739 83.89232342 -16.08029095 78.6455385 -16.0703125 73.3984375 C-16.05874973 67.28702422 -16.05996651 61.17617497 -16.09437561 55.06483269 C-16.10143781 52.63278392 -16.08484632 50.20164527 -16.06726074 47.76966858 C-16.0729686 46.27555864 -16.07978589 44.78145238 -16.08789062 43.28735352 C-16.08470825 41.98975601 -16.08152588 40.69215851 -16.07824707 39.35523987 C-16.78237933 34.31921383 -18.948775 31.18721875 -22.8203125 27.9609375 C-27.50046046 26.04633152 -31.64016454 26.04633152 -36.3203125 27.9609375 C-40.19185 31.18721875 -42.35824567 34.31921383 -43.06237793 39.35523987 C-43.05919556 40.65283737 -43.05601318 41.95043488 -43.05273438 43.28735352 C-43.05860313 44.36925209 -43.05860313 44.36925209 -43.06459045 45.4730072 C-43.07054344 47.03128248 -43.06743525 48.58961366 -43.0561676 50.14785957 C-43.03880604 52.62645678 -43.04646934 55.10389741 -43.0604248 57.58250427 C-43.08998208 63.7425051 -43.07696116 69.90228173 -43.06524658 76.06231689 C-43.0569837 81.26518124 -43.06523558 86.46753874 -43.09437561 91.67033195 C-43.10138319 94.09041807 -43.08489744 96.5095685 -43.06726074 98.92958069 C-43.06908162 114.63954529 -46.95845485 127.87383503 -57.8828125 139.6484375 C-68.35827553 149.33592322 -81.61943775 153.51061543 -95.73754883 153.30639648 C-108.9131935 152.70582924 -120.33742775 146.57197379 -129.3828125 137.1484375 C-138.26145647 126.69455025 -142.14510507 115.43935378 -141.87890625 101.89453125 C-141.301346 96.17010494 -138.86734418 92.69117207 -134.5703125 88.8984375 C-129.63889745 85.70627421 -124.20613654 85.91534473 -118.5703125 86.8359375 C-113.34968495 88.75665461 -109.73047219 91.91136695 -107.23046875 96.87890625 C-106.25191832 99.77981609 -106.12613186 102.65375644 -105.8984375 105.69140625 C-105.21743917 110.14221676 -102.671885 112.91796042 -99.3203125 115.7109375 C-95.66917781 117.20458351 -92.42038132 117.50781225 -88.5703125 116.8359375 C-83.56688674 114.38142675 -81.65364838 111.92715743 -79.5703125 106.8359375 C-79.12941932 103.29539662 -79.12941932 103.29539662 -79.20141602 99.47631836 C-79.19764954 98.76480621 -79.19388306 98.05329407 -79.19000244 97.32022095 C-79.18359465 95.7832311 -79.18387674 94.24620159 -79.19018745 92.70921135 C-79.19935542 90.26433587 -79.18900655 87.82021817 -79.17356873 85.37538147 C-79.13364673 78.42710484 -79.13225141 71.47888991 -79.13452148 64.53051758 C-79.13457303 60.26995956 -79.11518205 56.00980738 -79.08518791 51.74936104 C-79.07449554 49.36256729 -79.0864169 46.97659432 -79.09901428 44.58982849 C-79.06336292 28.97505086 -75.11599603 15.86626089 -64.3828125 4.0859375 C-46.25309256 -12.78646405 -20.06248225 -13.78205302 0 0 Z " fill="#03E3B5" transform="translate(229.5703125,128.1640625)"/>
<path d="M0 0 C0.85464844 -0.02578125 1.70929688 -0.0515625 2.58984375 -0.078125 C5.52394478 0.31123438 6.86950201 1.31649829 9.0625 3.25 C7.38220703 3.23259766 7.38220703 3.23259766 5.66796875 3.21484375 C4.19531417 3.20546378 2.72265778 3.1963638 1.25 3.1875 C0.51201172 3.17912109 -0.22597656 3.17074219 -0.98632812 3.16210938 C-4.23672068 3.14740172 -6.83154895 3.21468298 -9.9375 4.25 C-11.05430706 7.09979639 -11.05430706 7.09979639 -11.9375 10.25 C-12.4634375 11.24 -12.4634375 11.24 -13 12.25 C-15.51316792 17.61142489 -15.09880855 23.80324997 -15.12695312 29.60083008 C-15.13524643 30.52359238 -15.14353973 31.44635468 -15.15208435 32.39707947 C-15.16943262 34.39406978 -15.1846135 36.39107985 -15.19786072 38.38810158 C-15.21898108 41.55417141 -15.24599799 44.72014306 -15.27453613 47.88615417 C-15.33410516 54.61156453 -15.38629595 61.33702145 -15.4375 68.0625 C-15.49687966 75.84846658 -15.55932228 83.63438487 -15.62937927 91.42026329 C-15.65580211 94.52933045 -15.67670958 97.63840293 -15.6973877 100.74751282 C-15.71400525 102.668673 -15.73087835 104.58983099 -15.74804688 106.51098633 C-15.75223129 107.36687347 -15.75641571 108.22276062 -15.76072693 109.10458374 C-15.91623774 124.22873774 -15.91623774 124.22873774 -18.9375 127.25 C-21.26567964 127.61760731 -23.5993385 127.95241581 -25.9375 128.25 C-26.2675 128.58 -26.5975 128.91 -26.9375 129.25 C-28.79037502 129.32226502 -30.64583878 129.3338122 -32.5 129.3125 C-33.51191406 129.30347656 -34.52382813 129.29445312 -35.56640625 129.28515625 C-36.74009766 129.26775391 -36.74009766 129.26775391 -37.9375 129.25 C-37.9375 128.59 -37.9375 127.93 -37.9375 127.25 C-39.9175 127.25 -41.8975 127.25 -43.9375 127.25 C-45.59243515 124.27111672 -46.32240879 121.58906657 -46.9375 118.25 C-47.4325 117.26 -47.4325 117.26 -47.9375 116.25 C-48.04340543 113.89819927 -48.08361735 111.54336449 -48.09521484 109.18920898 C-48.10283592 108.09854881 -48.10283592 108.09854881 -48.11061096 106.9858551 C-48.12132468 105.40349475 -48.12994092 103.82111916 -48.13673019 102.23873711 C-48.14852128 99.72825613 -48.16797816 97.21794702 -48.18984985 94.70753479 C-48.25143349 87.5683471 -48.30536417 80.42917386 -48.33886719 73.28979492 C-48.35990803 68.92365167 -48.39529409 64.55781678 -48.43962479 60.19185066 C-48.45371967 58.53304763 -48.46249241 56.87418998 -48.46567917 55.21533012 C-48.48366583 46.74306768 -48.55839181 39.17755501 -51.9375 31.25 C-52.9375 28.25 -53.9375 25.25 -54.9375 22.25 C-55.9275 22.58 -56.9175 22.91 -57.9375 23.25 C-58.06125 22.38375 -58.06125 22.38375 -58.1875 21.5 C-59.1401631 18.64201069 -60.79803074 17.32045412 -62.9375 15.25 C-62.9375 14.59 -62.9375 13.93 -62.9375 13.25 C-63.5975 13.25 -64.2575 13.25 -64.9375 13.25 C-64.9375 12.59 -64.9375 11.93 -64.9375 11.25 C-65.5975 11.25 -66.2575 11.25 -66.9375 11.25 C-66.6075 10.59 -66.2775 9.93 -65.9375 9.25 C-56.24182082 16.85544185 -50.4469884 25.43849603 -46.9375 37.25 C-46.76076752 37.81103424 -46.58403503 38.37206848 -46.40194702 38.95010376 C-45.75571921 42.15016072 -45.79602863 45.22931921 -45.77978516 48.49365234 C-45.77216408 49.57734856 -45.77216408 49.57734856 -45.76438904 50.68293762 C-45.75370846 52.24835381 -45.74507926 53.81378505 -45.73826981 55.37922287 C-45.72644957 57.85963582 -45.7069891 60.3398771 -45.68515015 62.82022095 C-45.62363674 69.87129994 -45.5695038 76.92235992 -45.53613281 83.97363281 C-45.51515645 88.29020078 -45.47983193 92.60645293 -45.43537521 96.92284012 C-45.42124124 98.56458437 -45.41249866 100.20638447 -45.40932083 101.84818649 C-45.40439707 104.14831218 -45.38120334 106.44760331 -45.35400391 108.74755859 C-45.34591705 110.05453705 -45.3378302 111.3615155 -45.32949829 112.70809937 C-44.74691547 117.9720266 -43.18747852 121.17047309 -39.1875 124.625 C-35.34643024 126.54553488 -33.18370247 126.78077531 -28.9375 126.25 C-23.71329353 124.40616242 -21.50500891 122.11816921 -18.9375 117.25 C-18.3822224 113.87709824 -18.4240952 110.56072302 -18.47094727 107.14892578 C-18.46864105 106.14652863 -18.46633484 105.14413147 -18.46395874 104.11135864 C-18.46133396 101.94082075 -18.46775079 99.7702571 -18.48221016 97.59976578 C-18.5041268 94.16070466 -18.50036925 90.72252173 -18.48973083 87.28341675 C-18.46807829 78.74221609 -18.4854102 70.2012111 -18.51123047 61.66003418 C-18.53265241 54.44060357 -18.53454889 47.22173678 -18.50831413 40.00231552 C-18.50397112 36.6208171 -18.52858092 33.24030439 -18.55384827 29.85891724 C-18.54857547 27.77589482 -18.54185164 25.69287541 -18.53344727 23.60986328 C-18.555812 22.20843079 -18.555812 22.20843079 -18.57862854 20.77868652 C-18.50941715 14.39107607 -16.99925606 10.21226274 -12.9375 5.25 C-8.7751126 1.38492599 -5.63289025 0.10164614 0 0 Z " fill="#47C6AB" transform="translate(294.9375,118.75)"/>
<path d="M0 0 C3.41478144 1.3808517 4.71683781 2.60164821 6.21864319 5.95716858 C8.36690957 11.23392442 8.55896536 16.04456532 8.50170898 21.68530273 C8.50981346 23.22862778 8.50981346 23.22862778 8.51808167 24.8031311 C8.53051624 28.18025105 8.51411115 31.5565096 8.49609375 34.93359375 C8.49624887 37.29574122 8.49774003 39.65788894 8.50050354 42.02003479 C8.50188523 46.96179508 8.48936855 51.90326433 8.46655273 56.8449707 C8.4381849 63.16072746 8.44090454 69.4760004 8.45364285 75.79179287 C8.46061807 80.66730335 8.45278937 85.54270319 8.44038582 90.41819954 C8.43588816 92.74606972 8.43551969 95.07395184 8.43945122 97.40182304 C8.44238109 100.663228 8.42577066 103.9239805 8.40405273 107.18530273 C8.40855438 108.13573959 8.41305603 109.08617645 8.41769409 110.06541443 C8.26719576 123.75670762 2.89955763 135.79139552 -6.48828125 145.67578125 C-17.00321534 155.40577469 -29.04846088 159.66039361 -43.20507812 159.54321289 C-57.04087494 158.98131608 -69.01966802 152.67341214 -78.4921875 142.73828125 C-84 136.38860104 -84 136.38860104 -84 133 C-82.35 133.33 -80.7 133.66 -79 134 C-79 135.32 -79 136.64 -79 138 C-78.01 137.67 -77.02 137.34 -76 137 C-75.81566406 137.58007812 -75.63132813 138.16015625 -75.44140625 138.7578125 C-72.89695232 145.61087509 -69.62668914 148.95079619 -63 152 C-49.03990185 157.26579495 -34.14379808 158.13209088 -20 153 C-20 152.34 -20 151.68 -20 151 C-19.236875 150.7525 -18.47375 150.505 -17.6875 150.25 C-14.89404116 149.2125943 -14.89404116 149.2125943 -13.4375 146.875 C-12.963125 146.25625 -12.48875 145.6375 -12 145 C-10.68 145 -9.36 145 -8 145 C-7.67 143.68 -7.34 142.36 -7 141 C-6.01 141 -5.02 141 -4 141 C-4 139.35 -4 137.7 -4 136 C-3.195625 135.79375 -2.39125 135.5875 -1.5625 135.375 C-0.716875 134.92125 0.12875 134.4675 1 134 C1.77426109 131.19235272 1.77426109 131.19235272 2 128 C2.32381653 127.06656265 2.64763306 126.13312531 2.98126221 125.17140198 C6.83669907 113.16915747 5.17997451 98.37397868 5.203125 85.87890625 C5.20595238 84.84135633 5.20877975 83.80380642 5.21169281 82.7348156 C5.226572 77.26078928 5.23587668 71.78678863 5.24023438 66.31274414 C5.24575137 60.67508739 5.26987897 55.0376682 5.29820633 49.4000864 C5.31683398 45.04287517 5.32203804 40.68572173 5.32357025 36.32847404 C5.32658902 34.24930437 5.33459126 32.17013552 5.34775543 30.09100533 C5.364844 27.18882032 5.36293057 24.28722491 5.35644531 21.38500977 C5.3656601 20.53450043 5.37487488 19.68399109 5.3843689 18.80770874 C5.34160367 12.68644271 4.51482961 7.51482961 0 3 C0 2.01 0 1.02 0 0 Z " fill="#36CFAE" transform="translate(304,122)"/>
<path d="M0 0 C0 0.33 0 0.66 0 1 C-0.58007812 1.03738281 -1.16015625 1.07476562 -1.7578125 1.11328125 C-6.85091878 1.54190901 -10.47453194 2.4613228 -15 5 C-15.66 5 -16.32 5 -17 5 C-20.9045003 19.51008587 -20.9045003 19.51008587 -17.51953125 33.67578125 C-16.76736328 34.82626953 -16.76736328 34.82626953 -16 36 C-14.65028525 38.98357998 -14 40.70334304 -14 44 C-13.34 44 -12.68 44 -12 44 C-10.484375 45.609375 -10.484375 45.609375 -8.75 47.75 C-5.12552796 52.00612277 -1.56771616 54.9848564 3.6875 57.0625 C6 58 6 58 7.5 59.5625 C12.42186924 64.27929135 24.20711345 62.28547057 30.53125 62.19140625 C43.97867713 61.81051746 51.76306618 57.50902954 61 48 C61.33 47.01 61.66 46.02 62 45 C62.99 45 63.98 45 65 45 C65 44.34 65 43.68 65 43 C65.66 43 66.32 43 67 43 C64.15410388 51.2104103 57.22919743 56.54171302 49.8125 60.6796875 C37.51337038 66.45344557 23.82830303 68.36444114 10.6875 64.4375 C-3.5057515 58.9179022 -13.49602003 49.64770009 -19.84765625 35.80078125 C-23.17801486 27.70631642 -24.88270629 18.39218242 -22.34765625 9.78515625 C-17.39563535 0.07239423 -10.00501259 -0.73928664 0 0 Z " fill="#3AC2A5" transform="translate(111,215)"/>
<path d="M0 0 C1.2459471 3.73784129 0.46654559 4.45296005 -1 8 C-2.8773533 17.62371222 -3.2764915 27.24321772 -3.24382973 37.02825165 C-3.23809928 39.24217762 -3.24760896 41.45560569 -3.2610321 43.66949463 C-3.29762251 49.95107788 -3.31669214 56.23247243 -3.30541992 62.51416016 C-3.29952693 66.3896873 -3.31800811 70.2644904 -3.35130882 74.13986969 C-3.35917894 75.59886906 -3.35810175 77.05794913 -3.34728432 78.51692963 C-3.28465623 87.33036302 -3.70041259 95.5627783 -9 103 C-13.86319864 106.10670142 -19.4330568 105.38597473 -25 105 C-28.75 104 -28.75 104 -31 103 C-31 102.34 -31 101.68 -31 101 C-31.66 101 -32.32 101 -33 101 C-33.50404808 98.89679937 -34.00310508 96.79240209 -34.5 94.6875 C-34.7784375 93.51574219 -35.056875 92.34398437 -35.34375 91.13671875 C-36 88 -36 88 -36 85 C-36.66 85 -37.32 85 -38 85 C-38.103125 84.38125 -38.20625 83.7625 -38.3125 83.125 C-38.87525373 80.63473516 -38.87525373 80.63473516 -42 79 C-42.33 78.01 -42.66 77.02 -43 76 C-43.66 75.67 -44.32 75.34 -45 75 C-44.505 74.01 -44.505 74.01 -44 73 C-39.14709744 75.757331 -35.97570795 78.61170559 -34 84 C-33.66954536 86.28531279 -33.50067466 88.55349944 -33.328125 90.85546875 C-32.64712667 95.30627926 -30.1015725 98.08202292 -26.75 100.875 C-23.09886531 102.36864601 -19.85006882 102.67187475 -16 102 C-10.99657424 99.54548925 -9.08333588 97.09121993 -7 92 C-6.55910682 88.45945912 -6.55910682 88.45945912 -6.63110352 84.64038086 C-6.62733704 83.92886871 -6.62357056 83.21735657 -6.61968994 82.48428345 C-6.61328215 80.9472936 -6.61356424 79.41026409 -6.61987495 77.87327385 C-6.62904292 75.42839837 -6.61869405 72.98428067 -6.60325623 70.53944397 C-6.56333423 63.59116734 -6.56193891 56.64295241 -6.56420898 49.69458008 C-6.56426053 45.43402206 -6.54486955 41.17386988 -6.51487541 36.91342354 C-6.50418304 34.52662979 -6.5161044 32.14065682 -6.52870178 29.75389099 C-6.50287907 19.09958045 -5.06012903 9.58484966 0 0 Z " fill="#3BCAA9" transform="translate(157,143)"/>
<path d="M0 0 C1.32 0.33 2.64 0.66 4 1 C3.360625 1.78375 2.72125 2.5675 2.0625 3.375 C-1.19435435 7.52008735 -1.12782856 9.73411033 -1.1418457 14.99731445 C-1.14532013 15.71799606 -1.14879456 16.43867767 -1.15237427 17.18119812 C-1.15973685 18.75045815 -1.16507955 20.31972864 -1.16866493 21.88900185 C-1.17584022 24.38378383 -1.19151994 26.87837023 -1.21000671 29.37309265 C-1.26238826 36.46818156 -1.31032908 43.56316969 -1.32592773 50.65844727 C-1.33609475 54.99873693 -1.36564831 59.33854304 -1.40724754 63.67864037 C-1.41945173 65.32297265 -1.42469844 66.96737362 -1.42244911 68.61174965 C-1.41004262 80.65555479 -2.33626272 91.53807172 -9 102 C-10.53995173 98.92009655 -10.22377524 96.41257239 -10 93 C-9.0355414 90.65175298 -8.03485877 88.31808364 -7 86 C-5.56739573 79.11737325 -5.89231534 72.14040902 -5.9375 65.140625 C-5.94191511 63.78692807 -5.94572914 62.43322905 -5.94897461 61.07952881 C-5.9622583 56.08236221 -5.98639204 51.08525944 -6.01037598 46.08813477 C-6.03026386 41.86088145 -6.04584123 37.63365282 -6.05593872 33.40636444 C-6.06232597 31.44408899 -6.07489961 29.48183673 -6.08764648 27.51959229 C-6.14480762 6.44490807 -6.14480762 6.44490807 -2 2 C-1.34 2 -0.68 2 0 2 C0 1.34 0 0.68 0 0 Z " fill="#18DAAC" transform="translate(188,156)"/>
<path d="M0 0 C0.66 0 1.32 0 2 0 C1.16659423 10.55647309 -5.48121453 19.04249245 -13 26 C-24.71597062 35.18658566 -37.14606915 38.39369726 -51.80322266 37.27490234 C-64.55835445 35.67873893 -75.69998156 28.56867411 -84 19 C-88 13.82840237 -88 13.82840237 -88 11 C-85.525 11.495 -85.525 11.495 -83 12 C-83 13.32 -83 14.64 -83 16 C-82.01 15.67 -81.02 15.34 -80 15 C-79.81566406 15.58007812 -79.63132813 16.16015625 -79.44140625 16.7578125 C-76.89695232 23.61087509 -73.62668914 26.95079619 -67 30 C-53.03990185 35.26579495 -38.14379808 36.13209088 -24 31 C-24 30.34 -24 29.68 -24 29 C-23.236875 28.7525 -22.47375 28.505 -21.6875 28.25 C-18.89404116 27.2125943 -18.89404116 27.2125943 -17.4375 24.875 C-16.963125 24.25625 -16.48875 23.6375 -16 23 C-14.68 23 -13.36 23 -12 23 C-11.67 21.68 -11.34 20.36 -11 19 C-10.01 19 -9.02 19 -8 19 C-8 17.35 -8 15.7 -8 14 C-7.195625 13.79375 -6.39125 13.5875 -5.5625 13.375 C-4.2940625 12.694375 -4.2940625 12.694375 -3 12 C-2.22573891 9.19235272 -2.22573891 9.19235272 -2 6 C-1.36694179 3.98910922 -0.70905938 1.98536627 0 0 Z " fill="#39BB9E" transform="translate(308,244)"/>
<path d="M0 0 C0 0.33 0 0.66 0 1 C-5.49542802 1.467696 -8.86736908 0.37694253 -13.81640625 -1.9765625 C-20.09409977 -4.91888039 -26.15637209 -5.56374713 -33 -5 C-33.33 -4.67 -33.66 -4.34 -34 -4 C-37.07068226 -3.79649381 -40.13932606 -3.68052389 -43.21484375 -3.57421875 C-44.13394531 -3.38472656 -45.05304688 -3.19523437 -46 -3 C-47.15471586 -1.06037891 -47.15471586 -1.06037891 -48 1 C-49.9453125 1.828125 -49.9453125 1.828125 -52.125 2.25 C-53.40375 2.4975 -54.6825 2.745 -56 3 C-56 3.66 -56 4.32 -56 5 C-56.763125 5.20625 -57.52625 5.4125 -58.3125 5.625 C-61.82618362 7.4226986 -62.30175458 9.52967241 -64 13 C-66.1875 13.875 -66.1875 13.875 -68 14 C-68 14.66 -68 15.32 -68 16 C-68.66 15.67 -69.32 15.34 -70 15 C-62.41068331 3.9322465 -51.95293416 -5.03927925 -38.37109375 -7.75 C-24.52590206 -9.20978957 -11.92875444 -7.76756103 0 0 Z " fill="#35BFA0" transform="translate(228,127)"/>
<path d="M0 0 C1.28197266 -0.03867188 1.28197266 -0.03867188 2.58984375 -0.078125 C5.52394478 0.31123438 6.86950201 1.31649829 9.0625 3.25 C7.38220703 3.23259766 7.38220703 3.23259766 5.66796875 3.21484375 C4.19531417 3.20546378 2.72265778 3.1963638 1.25 3.1875 C0.51201172 3.17912109 -0.22597656 3.17074219 -0.98632812 3.16210938 C-4.23672068 3.14740172 -6.83154895 3.21468298 -9.9375 4.25 C-11.05430706 7.09979639 -11.05430706 7.09979639 -11.9375 10.25 C-12.288125 10.91 -12.63875 11.57 -13 12.25 C-15.53024997 17.64786659 -15.10447298 23.90610587 -15.14282227 29.74365234 C-15.15272186 30.68087128 -15.16262146 31.61809021 -15.17282104 32.58370972 C-15.20429578 35.66776034 -15.22913782 38.75182634 -15.25390625 41.8359375 C-15.2744879 43.97970978 -15.29548468 46.12347811 -15.31687927 48.26724243 C-15.37197489 53.8994425 -15.4214392 59.53167843 -15.46972656 65.16394043 C-15.52003309 70.91531553 -15.57567132 76.66663879 -15.63085938 82.41796875 C-15.73828788 93.69526817 -15.83976665 104.97261268 -15.9375 116.25 C-16.2675 116.25 -16.5975 116.25 -16.9375 116.25 C-17.03018116 102.6633832 -17.10125576 89.07684161 -17.14474869 75.48997307 C-17.16562315 69.18102731 -17.1939389 62.87229784 -17.23925781 56.56347656 C-17.28271956 50.47508747 -17.30663817 44.38690642 -17.31700897 38.29837418 C-17.32439966 35.97553355 -17.33883188 33.6527043 -17.36042023 31.32995224 C-17.38945768 28.07632594 -17.39345573 24.82355925 -17.39160156 21.56982422 C-17.40598267 20.60956833 -17.42036377 19.64931244 -17.43518066 18.65995789 C-17.40030111 13.00343354 -16.74968603 9.71985278 -12.9375 5.25 C-8.71984502 1.44382356 -5.64715678 0.10190358 0 0 Z " fill="#2ED1AC" transform="translate(294.9375,118.75)"/>
<path d="M0 0 C0.92554688 0.19722656 1.85109375 0.39445313 2.8046875 0.59765625 C5.125 1.9375 5.125 1.9375 6.25306702 5.05891418 C7.12855066 8.95329425 7.3827479 12.34904335 7.39624023 16.3347168 C7.40146698 17.03822769 7.40669373 17.74173859 7.41207886 18.46656799 C7.42225844 19.98279806 7.42808863 21.49906247 7.42996025 23.01532555 C7.43365439 25.42629794 7.45046554 27.83687003 7.47071838 30.24775696 C7.52582399 37.09860738 7.55668807 43.94951641 7.58129883 50.80053711 C7.5973013 55.00386018 7.62765267 59.20689948 7.66606331 63.41007423 C7.67760441 64.9994178 7.68364269 66.58881239 7.68374443 68.17819786 C7.68447632 76.57185706 8.03589309 84.36718703 10.41712952 92.49909973 C11.32785604 95.63627785 11.75680242 98.69736131 12.125 101.9375 C5.33840411 95.15090411 5.62424097 83.02621168 5.62194824 74.03114319 C5.62762314 73.25246447 5.63329803 72.47378574 5.6391449 71.6715107 C5.65667186 69.19428186 5.64876233 66.7181926 5.6348877 64.24095154 C5.60978511 58.99388592 5.61502155 53.747101 5.625 48.5 C5.63656277 42.38858672 5.63534599 36.27773747 5.60093689 30.16639519 C5.59387469 27.73434642 5.61046618 25.30320777 5.62805176 22.87123108 C5.6223439 21.37712114 5.61552661 19.88301488 5.60742188 18.38891602 C5.61060425 17.09131851 5.61378662 15.79372101 5.61706543 14.45680237 C4.91293317 9.42077633 2.7465375 6.28878125 -1.125 3.0625 C-5.88527697 1.11511397 -10.97290461 1.3034682 -15.875 2.9375 C-15.875 1.9475 -15.875 0.9575 -15.875 -0.0625 C-11.07133427 -2.46433287 -5.0437475 -1.08032962 0 0 Z " fill="#4BC6AB" transform="translate(207.875,153.0625)"/>
<path d="M0 0 C0.66 0 1.32 0 2 0 C2.98873569 8.61318928 3.11716743 17.12226001 3.0625 25.78515625 C3.05808381 27.17711719 3.05427008 28.56908015 3.05102539 29.96104431 C3.03971661 34.32822625 3.02041733 38.69535244 3 43.0625 C2.97636143 48.15869677 2.95603765 53.25486423 2.94406128 58.35110283 C2.93758277 60.38418026 2.92508731 62.41716409 2.91235352 64.45021057 C2.90905029 65.67586227 2.90574707 66.90151398 2.90234375 68.16430664 C2.89710693 69.2458754 2.89187012 70.32744415 2.88647461 71.44178772 C2.82565647 73.99058049 2.82565647 73.99058049 4 76 C4.13415472 78.6723621 4.04318541 81.32250488 4 84 C3.67 84 3.34 84 3 84 C-0.08596751 74.30143241 -0.39792202 65.12656337 -0.29296875 55.078125 C-0.28735946 53.48102216 -0.28309568 51.88391409 -0.28010559 50.2868042 C-0.26876151 46.12423949 -0.23938702 41.96199895 -0.20599365 37.79956055 C-0.17506497 33.53568911 -0.16155201 29.27176426 -0.14648438 25.0078125 C-0.11450498 16.67172779 -0.06343849 8.33590445 0 0 Z " fill="#1ED8AF" transform="translate(215,164)"/>
<path d="M0 0 C0.66 0 1.32 0 2 0 C6.58043509 9.4964302 6.57157456 18.67997241 6.5390625 28.9609375 C6.54898683 30.68202962 6.56093462 32.40311113 6.57479858 34.12417603 C6.60695792 38.62339861 6.61753583 43.12237792 6.62164307 47.6217041 C6.63044697 54.84250364 6.66595325 62.06310575 6.7138176 69.283741 C6.72636813 71.79701481 6.72564883 74.31003506 6.72354126 76.82333374 C6.73012152 78.36448359 6.73712776 79.9056317 6.74462891 81.44677734 C6.74050491 82.14087708 6.73638092 82.83497681 6.73213196 83.55010986 C6.76452172 87.4449411 7.08462871 90.569555 9 94 C11.97503122 95.15835673 11.97503122 95.15835673 15 96 C15.66 96.99 16.32 97.98 17 99 C19.56282742 99.72965366 19.56282742 99.72965366 22 100 C22 100.33 22 100.66 22 101 C16.2799241 101.45760607 13.44703273 100.63848132 9 97 C5.0799179 92.53921692 4.8738797 88.79525897 4.8581543 82.98095703 C4.85467987 82.26988297 4.85120544 81.5588089 4.84762573 80.82618713 C4.84027426 79.28095404 4.83492563 77.73571043 4.83133507 76.19046402 C4.82414735 73.73340673 4.80845906 71.2765466 4.78999329 68.81954956 C4.73766537 61.83285399 4.68966473 54.84626185 4.67407227 47.859375 C4.66390395 43.58276778 4.63434995 39.30665116 4.59275246 35.03023911 C4.58055291 33.41102715 4.57530069 31.79174551 4.57755089 30.17248917 C4.58719425 20.95915128 3.98086419 13.172787 0.85481262 4.4213562 C0 2 0 2 0 0 Z " fill="#003528" transform="translate(244,145)"/>
<path d="M0 0 C1.32 0.33 2.64 0.66 4 1 C3.360625 1.78375 2.72125 2.5675 2.0625 3.375 C-1.19435435 7.52008735 -1.12782856 9.73411033 -1.1418457 14.99731445 C-1.14532013 15.71799606 -1.14879456 16.43867767 -1.15237427 17.18119812 C-1.15973685 18.75045815 -1.16507955 20.31972864 -1.16866493 21.88900185 C-1.17584022 24.38378383 -1.19151994 26.87837023 -1.21000671 29.37309265 C-1.26238826 36.46818156 -1.31032908 43.56316969 -1.32592773 50.65844727 C-1.33609475 54.99873693 -1.36564831 59.33854304 -1.40724754 63.67864037 C-1.41945173 65.32297265 -1.42469844 66.96737362 -1.42244911 68.61174965 C-1.41004262 80.65555479 -2.33626272 91.53807172 -9 102 C-10.56374525 98.87250951 -9.16043785 96.69020303 -8.125 93.4375 C-7.75632813 92.26058594 -7.38765625 91.08367187 -7.0078125 89.87109375 C-6 87 -6 87 -5 86 C-3.59943003 78.1525412 -3.81289827 70.04560907 -3.73963928 62.10124588 C-3.71832453 59.80574167 -3.6913369 57.51036251 -3.66296387 55.2149353 C-3.59371384 49.52372653 -3.53365373 43.83242884 -3.47393799 38.14111328 C-3.42294244 33.30830468 -3.36814813 28.47556937 -3.30812073 23.64286423 C-3.28164248 21.38502957 -3.26078373 19.12718739 -3.2401123 16.86929321 C-3.22351001 15.48658917 -3.20663823 14.10388833 -3.18945312 12.72119141 C-3.17692505 11.51669342 -3.16439697 10.31219543 -3.15148926 9.07119751 C-3.02593414 6.52577243 -2.74793234 4.4206805 -2 2 C-1.34 2 -0.68 2 0 2 C0 1.34 0 0.68 0 0 Z " fill="#4DCDAC" transform="translate(188,156)"/>
<path d="M0 0 C0.33 0 0.66 0 1 0 C1.07004827 14.55113854 1.12276823 29.10225098 1.15543652 43.65352345 C1.17091241 50.40977931 1.19201557 57.16593047 1.22631836 63.92211914 C1.25938735 70.43840329 1.27683794 76.95461939 1.28463173 83.47098351 C1.29018814 85.96096195 1.30103796 88.45093422 1.31719017 90.94086647 C1.33886869 94.42010147 1.3419709 97.89888251 1.34057617 101.37817383 C1.35675491 102.93291916 1.35675491 102.93291916 1.3732605 104.51907349 C1.36913651 105.46558273 1.36501251 106.41209198 1.36076355 107.38728333 C1.36352893 108.21044446 1.36629431 109.03360559 1.36914349 109.88171101 C0.91732075 112.47444569 0.00210249 113.3580126 -2 115 C-1.83923477 113.90131592 -1.67846954 112.80263184 -1.51283264 111.6706543 C-0.87491403 106.53599267 -0.82529062 101.43828845 -0.79467773 96.26953125 C-0.78477814 95.22473099 -0.77487854 94.17993073 -0.76467896 93.10346985 C-0.73326119 89.67316909 -0.70838499 86.24285451 -0.68359375 82.8125 C-0.66300717 80.42496393 -0.64201026 78.03743136 -0.62062073 75.64990234 C-0.56557604 69.38314666 -0.51608948 63.11635904 -0.46777344 56.84954834 C-0.41742948 50.44784726 -0.36181088 44.04619223 -0.30664062 37.64453125 C-0.19927451 25.09639381 -0.09760289 12.54821699 0 0 Z " fill="#00372C" transform="translate(312,133)"/>
<path d="M0 0 C0.33 0 0.66 0 1 0 C1.06948378 13.34314507 1.12280316 26.68624716 1.15543652 40.02953625 C1.17109819 46.22524082 1.19234593 52.4208217 1.22631836 58.61645508 C1.25889345 64.5946048 1.27684923 70.57263546 1.28463173 76.55086708 C1.29017853 78.83265368 1.30100992 81.11443369 1.31719017 83.39616966 C1.33893946 86.59002179 1.34196792 89.78338076 1.34057617 92.97729492 C1.351362 93.92244461 1.36214783 94.8675943 1.3732605 95.84138489 C1.35014573 100.73748152 1.16109806 103.99478121 -2 108 C-2.625 106.125 -2.625 106.125 -3 104 C-2.01 103.01 -2.01 103.01 -1 102 C-0.68717669 100.09533385 -0.68717669 100.09533385 -0.7215271 97.88717651 C-0.71036362 97.02618347 -0.69920013 96.16519043 -0.68769836 95.27810669 C-0.68553818 94.33152191 -0.68337799 93.38493713 -0.68115234 92.40966797 C-0.67110672 91.41451172 -0.6610611 90.41935547 -0.65071106 89.39404297 C-0.61973557 86.09343055 -0.60280406 82.79289974 -0.5859375 79.4921875 C-0.56723741 77.20817353 -0.54766488 74.92416654 -0.5272522 72.64016724 C-0.47580259 66.61993522 -0.43624564 60.59968076 -0.39910889 54.5793457 C-0.35914949 48.43955885 -0.30802047 42.29986634 -0.2578125 36.16015625 C-0.16090138 24.10683698 -0.07654537 12.0534646 0 0 Z " fill="#003124" transform="translate(276,133)"/>
<path d="M0 0 C0.66 0 1.32 0 2 0 C-1.19294201 9.21163771 -9.52945092 14.83110908 -18 19 C-22.57727994 20.82202405 -26.92783915 21.43687038 -31.8125 21.6875 C-32.51375 21.7280249 -33.215 21.7685498 -33.9375 21.81030273 C-39.09830065 22.06369232 -43.9087581 21.81823531 -49 21 C-49 20.67 -49 20.34 -49 20 C-47.69546875 19.96261719 -46.3909375 19.92523438 -45.046875 19.88671875 C-27.80594611 19.29545019 -16.35000034 17.7137988 -4 5 C-3.67 4.01 -3.34 3.02 -3 2 C-2.01 2 -1.02 2 0 2 C0 1.34 0 0.68 0 0 Z " fill="#39BFA1" transform="translate(176,258)"/>
<path d="M0 0 C0.33 0 0.66 0 1 0 C1.125 5.75 1.125 5.75 0 8 C-0.11092498 10.29573897 -0.15658467 12.59471204 -0.17358398 14.89306641 C-0.180271 15.60227234 -0.18695801 16.31147827 -0.19384766 17.04217529 C-0.20791228 18.58524473 -0.21980183 20.12833514 -0.22979546 21.67143631 C-0.24620822 24.11862968 -0.26944994 26.56566961 -0.29469299 29.01278687 C-0.36543412 35.97182546 -0.42537915 42.93092924 -0.47680664 49.89013672 C-0.50873713 54.14599229 -0.55005595 58.40167549 -0.59700203 62.65739059 C-0.61294806 64.27515918 -0.62530349 65.8929675 -0.63390923 67.51079178 C-0.6461693 69.78422605 -0.67036504 72.0572615 -0.69702148 74.33056641 C-0.70732895 75.62137115 -0.71763641 76.9121759 -0.72825623 78.24209595 C-1.02938774 82.40639873 -1.88136575 85.98565237 -3 90 C-3.66 90 -4.32 90 -5 90 C-4.85961304 89.48069916 -4.71922607 88.96139832 -4.57458496 88.42636108 C-2.73149203 80.64528322 -2.69027035 72.93523358 -2.66447449 64.99007034 C-2.65609494 62.49285384 -2.63551417 59.99598745 -2.61193848 57.49887085 C-2.5559054 51.30681829 -2.52025494 45.11468137 -2.48431396 38.92248535 C-2.45306025 33.66686946 -2.41390027 28.41142979 -2.36405945 23.15595627 C-2.34403184 20.69864276 -2.33568455 18.24146609 -2.32775879 15.78408813 C-2.31478913 14.28004453 -2.30126923 12.77600553 -2.28710938 11.27197266 C-2.27981812 9.96088531 -2.27252686 8.64979797 -2.26501465 7.29898071 C-2.01988879 4.24758155 -1.61965705 2.54892144 0 0 Z " fill="#002F22" transform="translate(188,160)"/>
<path d="M0 0 C2.9323615 2.80486752 3.95569701 4.08222861 4.15821838 8.27761841 C4.17894356 9.70861526 4.19420469 11.13969704 4.20532227 12.57080078 C4.21522186 13.35137848 4.22512146 14.13195618 4.23532104 14.93618774 C4.26696978 17.52253155 4.29170676 20.10889375 4.31640625 22.6953125 C4.33697287 24.48607874 4.35796926 26.27684008 4.37937927 28.06759644 C4.43463013 32.78578743 4.4840261 37.50402245 4.53222656 42.22229004 C4.5824196 47.03495207 4.63811712 51.84755 4.69335938 56.66015625 C4.80097781 66.1067161 4.90241459 75.55333156 5 85 C2.56959764 82.56959764 2.75284783 81.26807471 2.70991516 77.95031738 C2.71089706 77.2499939 2.71187897 76.54967041 2.71289062 75.828125 C2.70605759 75.08977417 2.69922455 74.35142334 2.69218445 73.59069824 C2.67858095 71.98542332 2.66953763 70.38010485 2.66447449 68.77478027 C2.65620681 66.2367429 2.63572293 63.69906908 2.61193848 61.16113281 C2.55543508 54.85798769 2.52028717 48.55475437 2.48431396 42.25146484 C2.45311646 36.92677416 2.41395886 31.60225921 2.36405945 26.27770996 C2.34393224 23.77268161 2.33565977 21.26778784 2.32775879 18.76269531 C2.31479083 17.23241683 2.30127118 15.7021429 2.28710938 14.171875 C2.28809128 13.47155151 2.28907318 12.77122803 2.29008484 12.04968262 C2.33877726 8.08116383 2.33877726 8.08116383 0 5 C-0.125 2.375 -0.125 2.375 0 0 Z " fill="#002E23" transform="translate(210,159)"/>
<path d="M0 0 C0.33 0 0.66 0 1 0 C2.00059918 4.16161488 2.15730061 8.19176638 2.17358398 12.44897461 C2.180271 13.18133835 2.18695801 13.91370209 2.19384766 14.66825867 C2.20785122 16.25220548 2.21976002 17.83617192 2.22979546 19.42014885 C2.2462756 21.93003883 2.26951522 24.43978329 2.29469299 26.94960022 C2.36528156 34.08343192 2.42557217 41.21732178 2.47680664 48.35131836 C2.50866027 52.72084749 2.54994708 57.09020606 2.59700203 61.45959663 C2.61297782 63.1208851 2.62531972 64.78221275 2.63390923 66.44355583 C2.64611217 68.76975642 2.67028117 71.09555828 2.69702148 73.42163086 C2.69761063 74.10286011 2.69819977 74.78408936 2.69880676 75.48596191 C2.76238416 79.6761078 3.48479206 83.09816574 5 87 C4.01 86.67 3.02 86.34 2 86 C0.40070318 82.29334974 0.82509437 77.9947515 0.79467773 74.01855469 C0.78477814 73.2181778 0.77487854 72.4178009 0.76467896 71.59317017 C0.73314058 68.95276834 0.70833687 66.31234853 0.68359375 63.671875 C0.6630176 61.83912697 0.64202096 60.00638361 0.62062073 58.17364502 C0.56546829 53.35355418 0.51602892 48.533421 0.46777344 43.71325684 C0.41750854 38.79317463 0.36184852 33.87315379 0.30664062 28.953125 C0.19914257 19.30213578 0.09767907 9.65109324 0 0 Z " fill="#12DBB0" transform="translate(245,154)"/>
<path d="M0 0 C2.13923746 2.13923746 2.85019254 3.75384117 4.0625 6.5 C9.74510735 17.99814118 18.77891774 25.3413142 30.625 29.875 C31.73875 30.24625 32.8525 30.6175 34 31 C30.75136475 32.08287842 30.12655906 31.85269793 27 31 C25.68 31 24.36 31 23 31 C22.67 30.01 22.34 29.02 22 28 C19.98491642 27.26676204 19.98491642 27.26676204 18 27 C18 26.34 18 25.68 18 25 C17.401875 24.896875 16.80375 24.79375 16.1875 24.6875 C13.65360186 23.89113201 12.74154109 22.96869862 11 21 C10.53851563 20.55011719 10.07703125 20.10023438 9.6015625 19.63671875 C4.00738918 13.9197465 0 8.21840607 0 0 Z " fill="#03211B" transform="translate(216,248)"/>
<path d="M0 0 C0 0.66 0 1.32 0 2 C0.99 2.33 1.98 2.66 3 3 C2.67 4.65 2.34 6.3 2 8 C1.34 8 0.68 8 0 8 C-0.33 7.34 -0.66 6.68 -1 6 C-2.5778125 6.0309375 -2.5778125 6.0309375 -4.1875 6.0625 C-8 6 -8 6 -10.625 5.4375 C-13.35999827 4.93368453 -15.32689811 5.31263094 -18 6 C-18 5.34 -18 4.68 -18 4 C-11.72912263 0.28392452 -7.24539726 -0.53449652 0 0 Z " fill="#12DEB4" transform="translate(112,216)"/>
<path d="M0 0 C10.66443757 5.93290201 17.06693564 16.79454496 20.4375 28.3125 C21.05032409 32.32990239 20.82102264 35.05909133 20 39 C19.67 39 19.34 39 19 39 C18.91363281 38.18917969 18.82726562 37.37835938 18.73828125 36.54296875 C17.83228254 29.40303399 16.27923505 23.57143798 13.0234375 17.14453125 C12 15 12 15 12 13 C11.01 13.33 10.02 13.66 9 14 C8.87625 13.13375 8.87625 13.13375 8.75 12.25 C7.7973369 9.39201069 6.13946926 8.07045412 4 6 C4 5.34 4 4.68 4 4 C3.34 4 2.68 4 2 4 C2 3.34 2 2.68 2 2 C1.34 2 0.68 2 0 2 C0 1.34 0 0.68 0 0 Z " fill="#33C19F" transform="translate(228,128)"/>
<path d="M0 0 C0.33 0 0.66 0 1 0 C1.125 3.375 1.125 3.375 1 7 C-1.75927344 9.75927344 -4.21154052 9.51783243 -8 10 C-8.33 10.33 -8.66 10.66 -9 11 C-10.85287502 11.07226502 -12.70833878 11.0838122 -14.5625 11.0625 C-15.57441406 11.05347656 -16.58632813 11.04445312 -17.62890625 11.03515625 C-18.80259766 11.01775391 -18.80259766 11.01775391 -20 11 C-20 10.34 -20 9.68 -20 9 C-21.98 9 -23.96 9 -26 9 C-26.66 7.68 -27.32 6.36 -28 5 C-27.03900391 5.32484375 -27.03900391 5.32484375 -26.05859375 5.65625 C-16.94661249 8.59203781 -16.94661249 8.59203781 -7.8125 6.5625 C-6.4203125 5.7890625 -6.4203125 5.7890625 -5 5 C-2.625 4.3125 -2.625 4.3125 -1 4 C-0.67 2.68 -0.34 1.36 0 0 Z " fill="#2BCBA7" transform="translate(277,237)"/>
<path d="M0 0 C0.66 0.99 1.32 1.98 2 3 C1.46375 2.855625 0.9275 2.71125 0.375 2.5625 C-10.85017816 -0.09609483 -22.8526894 -0.00119901 -34 3 C-33 1 -33 1 -30.41015625 -0.0703125 C-19.85507906 -3.39571605 -10.37991253 -4.85061297 0 0 Z " fill="#012319" transform="translate(216,119)"/>
<path d="M0 0 C1.65 0 3.3 0 5 0 C5 0.66 5 1.32 5 2 C5.78375 2.268125 6.5675 2.53625 7.375 2.8125 C10 4 10 4 12 7 C12.37890625 9.70703125 12.37890625 9.70703125 12.5625 12.8125 C12.84226982 16.93410893 13.21016509 20.93799187 14 25 C10.83179511 21.96954315 9.96229327 20.22701199 9.75 15.875 C9.1209861 9.68470451 6.36872532 5.04862731 1.6875 1 C1.130625 0.67 0.57375 0.34 0 0 Z " fill="#041D19" transform="translate(113,216)"/>
<path d="M0 0 C0.68707031 0.0721875 1.37414062 0.144375 2.08203125 0.21875 C2.98308594 0.3115625 3.88414062 0.404375 4.8125 0.5 C5.70582031 0.5928125 6.59914062 0.685625 7.51953125 0.78125 C10.08305099 1.04392401 10.08305099 1.04392401 13 1 C13 1.66 13 2.32 13 3 C14.33289654 4.50014391 14.33289654 4.50014391 16 6 C17.6875 7.5625 17.6875 7.5625 19 9 C19 9.66 19 10.32 19 11 C19.66 11.66 20.32 12.32 21 13 C17.31610951 13 16.9880817 12.30983364 14.4375 9.8125 C10.0741128 5.81475977 5.37685256 3.39093649 0 1 C0 0.67 0 0.34 0 0 Z " fill="#05150F" transform="translate(218,122)"/>
<path d="M0 0 C0 3 0 3 -1.375 4.6875 C-3 6 -3 6 -5 6 C-5 6.66 -5 7.32 -5 8 C-5.763125 8.20625 -6.52625 8.4125 -7.3125 8.625 C-10.82618362 10.4226986 -11.30175458 12.52967241 -13 16 C-15.1875 16.875 -15.1875 16.875 -17 17 C-17 17.66 -17 18.32 -17 19 C-17.66 18.67 -18.32 18.34 -19 18 C-13.90409732 10.56847525 -8.0453777 4.2741069 0 0 Z " fill="#38BC9E" transform="translate(177,124)"/>
<path d="M0 0 C2.22265625 0.75390625 2.22265625 0.75390625 3.22265625 1.75390625 C3.26329457 3.4200774 3.26537725 5.0877872 3.22265625 6.75390625 C0.68127925 5.58096302 -1.29173144 4.35642485 -3.52734375 2.62890625 C-8.24448778 -0.092523 -11.92492695 0.18342289 -17.27734375 1.25390625 C-17.77234375 1.41890625 -18.26734375 1.58390625 -18.77734375 1.75390625 C-18.77734375 0.76390625 -18.77734375 -0.22609375 -18.77734375 -1.24609375 C-12.93200209 -4.16876458 -5.88634981 -1.67603083 0 0 Z " fill="#33CBA9" transform="translate(210.77734375,154.24609375)"/>
<path d="M0 0 C2.0625 0.4375 2.0625 0.4375 4 1 C3.21496094 1.43570313 2.42992187 1.87140625 1.62109375 2.3203125 C-4.4720532 5.77434182 -9.87353413 9.22306589 -15 14 C-15.33 13.34 -15.66 12.68 -16 12 C-15.34 11.67 -14.68 11.34 -14 11 C-14.33 9.68 -14.66 8.36 -15 7 C-14.030625 6.71125 -13.06125 6.4225 -12.0625 6.125 C-8.89335797 5.35785318 -8.89335797 5.35785318 -8 3 C-5.67793475 2.29508733 -3.34406932 1.62787571 -1 1 C-0.67 0.67 -0.34 0.34 0 0 Z " fill="#02221A" transform="translate(177,122)"/>
<path d="M0 0 C-1.98 0.33 -3.96 0.66 -6 1 C-6.33 1.99 -6.66 2.98 -7 4 C-9.54250021 3.88525534 -12.08347338 3.7585303 -14.625 3.625 C-15.33785156 3.5940625 -16.05070312 3.563125 -16.78515625 3.53125 C-21.17152608 3.28979845 -24.8594834 2.60657269 -29 1 C-26.17550715 0.19288856 -23.71062831 -0.11015801 -20.77734375 -0.0625 C-19.99166016 -0.05476563 -19.20597656 -0.04703125 -18.39648438 -0.0390625 C-17.17928711 -0.01972656 -17.17928711 -0.01972656 -15.9375 0 C-14.32168222 0.02554653 -12.70578491 0.04656632 -11.08984375 0.0625 C-10.37691162 0.07410156 -9.66397949 0.08570313 -8.92944336 0.09765625 C-0.9815417 -0.30461639 -0.9815417 -0.30461639 0 0 Z " fill="#002118" transform="translate(279,280)"/>
<path d="M0 0 C1.45880109 0.14107747 2.91703551 0.28802415 4.375 0.4375 C5.59316406 0.55931641 5.59316406 0.55931641 6.8359375 0.68359375 C9 1 9 1 11 2 C18.31157323 2.77721448 25.64949999 3.14701 33 3 C33 3.33 33 3.66 33 4 C21.62799841 6.69509864 10.6600461 5.5224438 0 1 C0 0.67 0 0.34 0 0 Z " fill="#3BBA9F" transform="translate(116,276)"/>
<path d="M0 0 C3.59392602 3.49124242 6.79621606 7.13902961 10 11 C11.31543863 12.35099103 12.64175118 13.69205669 14 15 C11.76182479 14.52039103 10.00642765 14.00361555 8 12.875 C5.56061193 11.80776772 4.45901654 12.12177981 2 13 C2 12.01 2 11.02 2 10 C1.69208308 8.328451 1.35613097 6.66194453 1 5 C0.66666667 3.33333333 0.33333333 1.66666667 0 0 Z " fill="#042D24" transform="translate(95,258)"/>
<path d="M0 0 C1.43269493 0.96307047 2.79651566 2.02705628 4.14453125 3.10546875 C3.48453125 3.76546875 2.82453125 4.42546875 2.14453125 5.10546875 C1.48453125 4.77546875 0.82453125 4.44546875 0.14453125 4.10546875 C0.14453125 3.44546875 0.14453125 2.78546875 0.14453125 2.10546875 C-3.81546875 2.10546875 -7.77546875 2.10546875 -11.85546875 2.10546875 C-12.18546875 3.09546875 -12.51546875 4.08546875 -12.85546875 5.10546875 C-14.17546875 4.77546875 -15.49546875 4.44546875 -16.85546875 4.10546875 C-12.35141867 -0.70920548 -6.3395109 -3.05631157 0 0 Z " fill="#03201B" transform="translate(205.85546875,154.89453125)"/>
<path d="M0 0 C1.28197266 -0.03867188 1.28197266 -0.03867188 2.58984375 -0.078125 C5.52394478 0.31123438 6.86950201 1.31649829 9.0625 3.25 C7.38220703 3.23259766 7.38220703 3.23259766 5.66796875 3.21484375 C4.19531417 3.20546378 2.72265778 3.1963638 1.25 3.1875 C0.51201172 3.17912109 -0.22597656 3.17074219 -0.98632812 3.16210938 C-4.23672068 3.14740172 -6.83154895 3.21468298 -9.9375 4.25 C-9.9375 4.91 -9.9375 5.57 -9.9375 6.25 C-11.89677063 7.9643618 -13.89630212 9.63405168 -15.9375 11.25 C-14.49929187 6.21627156 -12.03504485 4.26044111 -7.9375 1.25 C-5.04829306 0.28693102 -3.01502119 0.0544064 0 0 Z " fill="#39C3A3" transform="translate(294.9375,118.75)"/>
<path d="M0 0 C1.25142847 3.75428542 0.44835293 4.41907225 -1 8 C-1.43887039 10.61425882 -1.81817728 13.18438733 -2.125 15.8125 C-2.21136719 16.50537109 -2.29773438 17.19824219 -2.38671875 17.91210938 C-2.59716081 19.60733706 -2.79941672 21.30357755 -3 23 C-3.99 22.34 -4.98 21.68 -6 21 C-5.43782262 13.55114977 -3.34717368 6.69434736 0 0 Z " fill="#30C1A0" transform="translate(157,143)"/>
<path d="M0 0 C-0.66 0 -1.32 0 -2 0 C-2 0.66 -2 1.32 -2 2 C-5.53991602 3.17997201 -8.93134464 3.39817429 -12.625 3.625 C-13.69717773 3.69255493 -13.69717773 3.69255493 -14.79101562 3.76147461 C-19.98629502 4.0446715 -24.85032494 3.82762635 -30 3 C-30 2.67 -30 2.34 -30 2 C-29.43079834 1.98018066 -28.86159668 1.96036133 -28.27514648 1.93994141 C-25.66218288 1.84388242 -23.04993198 1.73453593 -20.4375 1.625 C-19.09461914 1.57859375 -19.09461914 1.57859375 -17.72460938 1.53125 C-13.66307122 1.35272085 -9.92899635 1.11750346 -6.03515625 -0.1015625 C-3 -1 -3 -1 0 0 Z " fill="#1ED8AF" transform="translate(157,276)"/>
<path d="M0 0 C0.33 0 0.66 0 1 0 C2.98553503 8.43852388 0.59224901 16.4265321 -3.640625 23.89453125 C-4.08921875 24.58933594 -4.5378125 25.28414063 -5 26 C-6.56374525 22.87250951 -5.16043785 20.69020303 -4.125 17.4375 C-3.75632813 16.26058594 -3.38765625 15.08367187 -3.0078125 13.87109375 C-2 11 -2 11 -1 10 C-0.76712992 8.31816052 -0.58735834 6.6287584 -0.4375 4.9375 C-0.35371094 4.01839844 -0.26992187 3.09929687 -0.18359375 2.15234375 C-0.12300781 1.44207031 -0.06242188 0.73179687 0 0 Z " fill="#36BC9D" transform="translate(184,232)"/>
<path d="M0 0 C0.79921875 0.00902344 1.5984375 0.01804687 2.421875 0.02734375 C3.02515625 0.03894531 3.6284375 0.05054687 4.25 0.0625 C3.92 0.7225 3.59 1.3825 3.25 2.0625 C1.21943316 2.40681351 -0.82642197 2.66267585 -2.875 2.875 C-8.93411227 3.69487988 -12.20051659 5.04202629 -16.75 9.0625 C-16.6875 6.75 -16.6875 6.75 -15.75 4.0625 C-10.54279651 1.31152457 -5.84716596 -0.08598773 0 0 Z " fill="#02221A" transform="translate(296.75,116.9375)"/>
<path d="M0 0 C0.33 0 0.66 0 1 0 C0.979375 0.9075 0.95875 1.815 0.9375 2.75 C0.84491187 5.86525255 0.84491187 5.86525255 1.6875 8.1875 C2 10 2 10 0.875 11.8125 C-1 13 -1 13 -6 12 C-4.02 8.04 -2.04 4.08 0 0 Z " fill="#061714" transform="translate(182,250)"/>
<path d="M0 0 C7.45104563 0.61074144 7.45104563 0.61074144 9.71875 2.21875 C11.40680145 4.56555324 11.50138607 6.32134549 11.6875 9.1875 C11.78611328 10.53908203 11.78611328 10.53908203 11.88671875 11.91796875 C11.92410156 12.60503906 11.96148437 13.29210937 12 14 C10 11 10 11 8.8125 8.0625 C6.42406823 4.02687391 4.1632076 3.04232826 0 1 C0 0.67 0 0.34 0 0 Z " fill="#062721" transform="translate(300,119)"/>
<path d="M0 0 C2 2 2 2 3 5 C4.99571323 5.67939174 6.99594773 6.34561559 9 7 C9.99 8.485 9.99 8.485 11 10 C13.56282742 10.72965366 13.56282742 10.72965366 16 11 C16 11.33 16 11.66 16 12 C10.2799241 12.45760607 7.44703273 11.63848132 3 8 C0.14898525 4.9589176 0 4.3743888 0 0 Z " fill="#022920" transform="translate(250,234)"/>
<path d="M0 0 C2.27474277 3.41211416 2.56629644 5.6568529 3.125 9.6875 C3.29257813 10.86699219 3.46015625 12.04648438 3.6328125 13.26171875 C3.75398438 14.16535156 3.87515625 15.06898438 4 16 C3.01 15.34 2.02 14.68 1 14 C1 13.34 1 12.68 1 12 C0.01 11.67 -0.98 11.34 -2 11 C-1.34 7.37 -0.68 3.74 0 0 Z " fill="#15DCB1" transform="translate(120,228)"/>
<path d="M0 0 C7.65832917 0.29455112 13.34261178 3.37172342 20 7 C20 7.33 20 7.66 20 8 C17.69 8 15.38 8 13 8 C12.67 6.68 12.34 5.36 12 4 C11.319375 3.87625 10.63875 3.7525 9.9375 3.625 C6.5722588 2.90899123 3.29986575 1.97054875 0 1 C0 0.67 0 0.34 0 0 Z " fill="#38C3A2" transform="translate(208,120)"/>
<path d="M0 0 C8.83250989 -0.56377723 15.78527339 0.73741354 24 4 C23.67 4.99 23.34 5.98 23 7 C21.989375 6.54625 20.97875 6.0925 19.9375 5.625 C13.39501169 2.84542581 7.04120319 1.60672499 0 1 C0 0.67 0 0.34 0 0 Z " fill="#20D6AB" transform="translate(196,120)"/>
<path d="M0 0 C0 0.33 0 0.66 0 1 C-0.58007812 1.03738281 -1.16015625 1.07476562 -1.7578125 1.11328125 C-6.85091878 1.54190901 -10.47453194 2.4613228 -15 5 C-15.66 5 -16.32 5 -17 5 C-17.103125 5.639375 -17.20625 6.27875 -17.3125 6.9375 C-17.539375 7.618125 -17.76625 8.29875 -18 9 C-18.99 9.33 -19.98 9.66 -21 10 C-19.88864743 5.67807333 -17.8817691 3.38105862 -14.28515625 0.9375 C-9.73371505 -0.92975793 -4.82231498 -0.35632869 0 0 Z " fill="#41BDA2" transform="translate(111,215)"/>
<path d="M0 0 C0.99 0 1.98 0 3 0 C4.125 4.75 4.125 4.75 3 7 C1.35 7 -0.3 7 -2 7 C-2.33 5.68 -2.66 4.36 -3 3 C-2.01 2.34 -1.02 1.68 0 1 C0 0.67 0 0.34 0 0 Z " fill="#070708" transform="translate(107,273)"/>
<path d="M0 0 C0.33 0 0.66 0 1 0 C2.64681249 6.30760257 4.26309887 12.51527007 5 19 C2.4156782 16.4156782 1.89598837 14.10624423 0.8125 10.625 C0.44769531 9.48289063 0.08289063 8.34078125 -0.29296875 7.1640625 C-0.95860385 4.18525347 -1.07938697 2.79128097 0 0 Z " fill="#35B799" transform="translate(215,236)"/>
<path d="M0 0 C3.93229576 5.24306101 5.30486579 8.44538555 5 15 C4.01 14.67 3.02 14.34 2 14 C1.34 9.38 0.68 4.76 0 0 Z " fill="#0FDEAF" transform="translate(239,141)"/>
<path d="M0 0 C1.32 0 2.64 0 4 0 C4 0.66 4 1.32 4 2 C4.66 2 5.32 2 6 2 C6 2.66 6 3.32 6 4 C6.66 4 7.32 4 8 4 C8.33 4.99 8.66 5.98 9 7 C5.30581799 7 3.22163822 5.71820705 0 4 C0 2.68 0 1.36 0 0 Z " fill="#13DCB1" transform="translate(224,128)"/>
<path d="M0 0 C0.66 0.33 1.32 0.66 2 1 C-0.51884651 3.51884651 -2.43644242 3.8257588 -5.875 4.6875 C-6.92429688 4.95949219 -7.97359375 5.23148437 -9.0546875 5.51171875 C-11.85166838 5.97540921 -13.372192 5.94575698 -16 5 C-15.67 4.34 -15.34 3.68 -15 3 C-13.14453125 2.65625 -13.14453125 2.65625 -10.8125 2.5 C-6.94084394 2.1670869 -3.68356947 1.25780421 0 0 Z " fill="#0EDFB0" transform="translate(159,272)"/>
<path d="M0 0 C2.475 0.495 2.475 0.495 5 1 C5 2.32 5 3.64 5 5 C5.99 4.67 6.98 4.34 8 4 C8.33 5.65 8.66 7.3 9 9 C4.99819288 7.22141906 2.23540288 5.84986051 0 2 C0 1.34 0 0.68 0 0 Z " fill="#26CEAA" transform="translate(220,255)"/>
<path d="M0 0 C0.556875 0.28875 1.11375 0.5775 1.6875 0.875 C4.02189686 2.06635767 4.02189686 2.06635767 6.6875 2.9375 C7.450625 3.288125 8.21375 3.63875 9 4 C9.33 4.99 9.66 5.98 10 7 C5.85463326 6.5289356 3.0080208 6.0080208 0 3 C0 2.01 0 1.02 0 0 Z " fill="#32C9A8" transform="translate(108,269)"/>
<path d="M0 0 C0.33 0.66 0.66 1.32 1 2 C0.01 3.485 0.01 3.485 -1 5 C-1.103125 5.845625 -1.20625 6.69125 -1.3125 7.5625 C-2 10 -2 10 -4.4375 11.375 C-7 12 -7 12 -9 11 C-8.51789063 10.45730469 -8.03578125 9.91460937 -7.5390625 9.35546875 C-6.90742188 8.64003906 -6.27578125 7.92460937 -5.625 7.1875 C-4.68527344 6.12595703 -4.68527344 6.12595703 -3.7265625 5.04296875 C-1.859401 2.91196181 -1.859401 2.91196181 0 0 Z " fill="#05251B" transform="translate(305,257)"/>
<path d="M0 0 C0.66 0 1.32 0 2 0 C2 1.98 2 3.96 2 6 C1.34 6 0.68 6 0 6 C-0.12375 7.299375 -0.2475 8.59875 -0.375 9.9375 C-0.5859375 12.15234375 -0.5859375 12.15234375 -1 14 C-1.99 14.495 -1.99 14.495 -3 15 C-3.36263859 9.1977825 -2.25684543 5.36000789 0 0 Z " fill="#1AD9AD" transform="translate(158,143)"/>
<path d="M0 0 C0.33 0.99 0.66 1.98 1 3 C0.67 3.66 0.34 4.32 0 5 C-0.66 5 -1.32 5 -2 5 C-2 5.66 -2 6.32 -2 7 C-2.99 7 -3.98 7 -5 7 C-5.33 8.32 -5.66 9.64 -6 11 C-6.33 11 -6.66 11 -7 11 C-7.25 8.6875 -7.25 8.6875 -7 6 C-4.95575462 4.02389614 -3.8823175 3 -1 3 C-0.67 2.01 -0.34 1.02 0 0 Z " fill="#13DCB1" transform="translate(178,253)"/>
<path d="M0 0 C4.95 0.33 9.9 0.66 15 1 C14.67 1.66 14.34 2.32 14 3 C8.78020872 3.1799928 4.92737019 2.97094808 0 1 C0 0.67 0 0.34 0 0 Z " fill="#31D2AC" transform="translate(126,245)"/>
<path d="M0 0 C1.98073365 0.280828 3.95958448 0.57496614 5.9375 0.875 C7.59072266 1.11863281 7.59072266 1.11863281 9.27734375 1.3671875 C10.17582031 1.57601562 11.07429688 1.78484375 12 2 C12.33 2.66 12.66 3.32 13 4 C6.07 3.505 6.07 3.505 -1 3 C-0.67 2.01 -0.34 1.02 0 0 Z " fill="#063428" transform="translate(100,212)"/>
<path d="M0 0 C7.75 0.875 7.75 0.875 10 2 C10 2.66 10 3.32 10 4 C10.66 4 11.32 4 12 4 C11.67 4.99 11.34 5.98 11 7 C9.72881136 6.20890398 8.45806377 5.41709922 7.1875 4.625 C6.47980469 4.18414062 5.77210938 3.74328125 5.04296875 3.2890625 C3.34567961 2.21811524 1.66985642 1.11323761 0 0 Z " fill="#042F20" transform="translate(218,122)"/>
<path d="M0 0 C1.2065625 0.0309375 1.2065625 0.0309375 2.4375 0.0625 C2.08870368 3.31793229 1.41616739 4.08123107 -1.125 6.3125 C-1.929375 6.89 -2.73375 7.4675 -3.5625 8.0625 C-3.8925 7.4025 -4.2225 6.7425 -4.5625 6.0625 C-3.9025 5.7325 -3.2425 5.4025 -2.5625 5.0625 C-2.8409375 4.1034375 -2.8409375 4.1034375 -3.125 3.125 C-3.3415625 2.1040625 -3.3415625 2.1040625 -3.5625 1.0625 C-2.5625 0.0625 -2.5625 0.0625 0 0 Z " fill="#031711" transform="translate(165.5625,127.9375)"/>
<path d="M0 0 C-1 2 -1 2 -2.77734375 2.6328125 C-3.49019531 2.79523438 -4.20304688 2.95765625 -4.9375 3.125 C-5.64777344 3.29257813 -6.35804688 3.46015625 -7.08984375 3.6328125 C-9 4 -9 4 -11 4 C-11.33 4.66 -11.66 5.32 -12 6 C-11.66411682 3.48087612 -11.42645046 2.32803881 -9.375 0.75 C-6.1989627 -0.25295915 -3.30771122 -0.12721966 0 0 Z " fill="#050607" transform="translate(183,120)"/>
<path d="M0 0 C0.99 0.33 1.98 0.66 3 1 C1.25 3.5 1.25 3.5 -1 6 C-2.32 6 -3.64 6 -5 6 C-5 6.66 -5 7.32 -5 8 C-5.99 7.67 -6.98 7.34 -8 7 C-4.375 4 -4.375 4 -1 4 C-0.67 2.68 -0.34 1.36 0 0 Z " fill="#14DDB3" transform="translate(289,267)"/>
<path d="M0 0 C1.32 0.33 2.64 0.66 4 1 C3.01 4.96 2.02 8.92 1 13 C0.67 13 0.34 13 0 13 C0 8.71 0 4.42 0 0 Z " fill="#29CEAD" transform="translate(89,224)"/>
<path d="M0 0 C6.26079448 -0.43177893 9.09075703 0.07260562 14 4 C13.34 4.66 12.68 5.32 12 6 C11.34 5.67 10.68 5.34 10 5 C10 4.34 10 3.68 10 3 C9.01 3 8.02 3 7 3 C7 2.34 7 1.68 7 1 C4.69 1 2.38 1 0 1 C0 0.67 0 0.34 0 0 Z " fill="#033128" transform="translate(196,154)"/>
<path d="M0 0 C0.33 0.66 0.66 1.32 1 2 C-0.3125 4 -0.3125 4 -2 6 C-2.99 6 -3.98 6 -5 6 C-5 6.66 -5 7.32 -5 8 C-5.66 7.67 -6.32 7.34 -7 7 C-3.375 1.125 -3.375 1.125 0 0 Z " fill="#2DC4A1" transform="translate(165,135)"/>
<path d="M0 0 C3.17119503 1.09351553 4.00783543 2.0126988 5.8125 4.9375 C7 8 7 8 6 11 C5.9175 10.21625 5.835 9.4325 5.75 8.625 C5.5025 7.75875 5.255 6.8925 5 6 C3.68352881 5.30062468 2.34977849 4.63270867 1 4 C0.25 1.875 0.25 1.875 0 0 Z " fill="#3EBFA5" transform="translate(304,122)"/>
<path d="M0 0 C3.80984844 2.77079887 4.06840752 6.62868145 5 11 C4.01 11.66 3.02 12.32 2 13 C2 12.01 2 11.02 2 10 C1.69208308 8.328451 1.35613097 6.66194453 1 5 C0.66666667 3.33333333 0.33333333 1.66666667 0 0 Z " fill="#061813" transform="translate(95,258)"/>
<path d="M0 0 C1.0625 1.8125 1.0625 1.8125 2 4 C1.67 4.99 1.34 5.98 1 7 C-0.32 6.67 -1.64 6.34 -3 6 C-3 3 -3 3 -1.5 1.3125 C-0.7575 0.6628125 -0.7575 0.6628125 0 0 Z " fill="#021610" transform="translate(174,264)"/>
<path d="M0 0 C0.66 0 1.32 0 2 0 C1.5206753 4.31392226 0.2542015 6.16569547 -3 9 C-3.66 8.67 -4.32 8.34 -5 8 C-4.34 6.68 -3.68 5.36 -3 4 C-2.34 4 -1.68 4 -1 4 C-0.67 2.68 -0.34 1.36 0 0 Z " fill="#00281C" transform="translate(148,235)"/>
<path d="M0 0 C-0.928125 0.598125 -1.85625 1.19625 -2.8125 1.8125 C-5.20254718 3.45272845 -7.08470253 4.8718917 -9 7 C-9 5.35 -9 3.7 -9 2 C-3.375 -1.125 -3.375 -1.125 0 0 Z " fill="#042B22" transform="translate(99,216)"/>
<path d="M0 0 C1.32 0.33 2.64 0.66 4 1 C3.360625 1.78375 2.72125 2.5675 2.0625 3.375 C0.01857687 5.79539281 0.01857687 5.79539281 -1 8 C-1.66 8 -2.32 8 -3 8 C-2.67 6.02 -2.34 4.04 -2 2 C-1.34 2 -0.68 2 0 2 C0 1.34 0 0.68 0 0 Z " fill="#31C29F" transform="translate(188,156)"/>
<path d="M0 0 C0.33 0.99 0.66 1.98 1 3 C0.00664799 4.67063747 -0.99431758 6.33675599 -2 8 C-2.71401232 11.19395026 -2.71401232 11.19395026 -3 14 C-3.33 14 -3.66 14 -4 14 C-4.63019694 5.96498906 -4.63019694 5.96498906 -2 1.9375 C-1.34 1.298125 -0.68 0.65875 0 0 Z " fill="#1BD9AD" transform="translate(283,125)"/>
<path d="M0 0 C-0.66 0 -1.32 0 -2 0 C-2 0.66 -2 1.32 -2 2 C-6.455 2.495 -6.455 2.495 -11 3 C-10 1 -10 1 -6.625 -0.1875 C-3 -1 -3 -1 0 0 Z " fill="#2ED0A9" transform="translate(157,276)"/>
<path d="M0 0 C0.33 0 0.66 0 1 0 C1.1953125 6.0546875 1.1953125 6.0546875 1 8 C0.34 8.66 -0.32 9.32 -1 10 C-1.66 9.67 -2.32 9.34 -3 9 C-2.01 6.03 -1.02 3.06 0 0 Z " fill="#042F27" transform="translate(309,248)"/>
<path d="M0 0 C1.58246707 -0.08153933 3.16616273 -0.13943557 4.75 -0.1875 C6.07257813 -0.23970703 6.07257813 -0.23970703 7.421875 -0.29296875 C10.44671583 0.05076316 11.75583602 1.00227459 14 3 C12.02 3 10.04 3 8 3 C8 2.34 8 1.68 8 1 C5.36 1 2.72 1 0 1 C0 0.67 0 0.34 0 0 Z " fill="#40B39B" transform="translate(290,119)"/>
<path d="M0 0 C-0.33 0.66 -0.66 1.32 -1 2 C-3.64860427 2.59355614 -6.29197322 2.74209269 -9 3 C-9 2.34 -9 1.68 -9 1 C-5.8035914 -0.06546953 -3.34252724 -0.07427838 0 0 Z " fill="#15DDAF" transform="translate(282,275)"/>
<path d="M0 0 C2.31 0.33 4.62 0.66 7 1 C7 1.99 7 2.98 7 4 C4.03 3.505 4.03 3.505 1 3 C0.67 2.01 0.34 1.02 0 0 Z " fill="#0EE2B1" transform="translate(117,273)"/>
<path d="M0 0 C0.66 0.66 1.32 1.32 2 2 C1.34 2 0.68 2 0 2 C0 2.66 0 3.32 0 4 C-1.8125 5.0625 -1.8125 5.0625 -4 6 C-4.99 5.67 -5.98 5.34 -7 5 C-4.69 3.35 -2.38 1.7 0 0 Z " fill="#042A1E" transform="translate(295,269)"/>
<path d="M0 0 C2 3 4 6 6 9 C4.35 8.67 2.7 8.34 1 8 C0.67 5.36 0.34 2.72 0 0 Z " fill="#3ABFA1" transform="translate(249,235)"/>
<path d="M0 0 C0.33 0 0.66 0 1 0 C0.125 6.75 0.125 6.75 -1 9 C-2.32 8.67 -3.64 8.34 -5 8 C-4.360625 7.236875 -3.72125 6.47375 -3.0625 5.6875 C-0.85767219 3.11753287 -0.85767219 3.11753287 0 0 Z " fill="#37BB9D" transform="translate(150,235)"/>
<path d="M0 0 C3.98175544 2.10148204 6.35039045 4.36905358 9 8 C6.525 7.01 6.525 7.01 4 6 C4 5.34 4 4.68 4 4 C3.34 4 2.68 4 2 4 C2 3.34 2 2.68 2 2 C1.34 2 0.68 2 0 2 C0 1.34 0 0.68 0 0 Z " fill="#3EBB9D" transform="translate(228,128)"/>
<path d="M0 0 C1.32 0 2.64 0 4 0 C3.375 1.9375 3.375 1.9375 2 4 C-1.125 4.75 -1.125 4.75 -4 5 C-2.25 2.5 -2.25 2.5 0 0 Z " fill="#24D6B1" transform="translate(178,124)"/>
<path d="M0 0 C3.71888239 0.50712033 6.73454239 1.11608215 10 3 C2.25 3.125 2.25 3.125 0 2 C0 1.34 0 0.68 0 0 Z " fill="#2ED3AE" transform="translate(246,276)"/>
<path d="M0 0 C1.65 0.33 3.3 0.66 5 1 C4.67 1.99 4.34 2.98 4 4 C2.35 3.67 0.7 3.34 -1 3 C-0.67 2.01 -0.34 1.02 0 0 Z " fill="#0B0307" transform="translate(233,275)"/>
<path d="M0 0 C3.16115776 1.36983503 3.9927092 1.9890638 6 5 C4.68 5.33 3.36 5.66 2 6 C1.34 4.02 0.68 2.04 0 0 Z " fill="#0B0407" transform="translate(216,257)"/>
<path d="M0 0 C-0.66 1.32 -1.32 2.64 -2 4 C-4.64 4 -7.28 4 -10 4 C-10 3.67 -10 3.34 -10 3 C-8.35 3 -6.7 3 -5 3 C-5 2.34 -5 1.68 -5 1 C-2 0 -2 0 0 0 Z " fill="#1CD8AF" transform="translate(278,242)"/>
<path d="M0 0 C2.375 0.25 2.375 0.25 5 1 C6.3125 3.0625 6.3125 3.0625 7 5 C3.34683329 3.75023244 2.21934164 3.32901247 0 0 Z " fill="#21D6B0" transform="translate(231,267)"/>
<path d="M0 0 C1.32 0 2.64 0 4 0 C3.67 0.99 3.34 1.98 3 3 C1.35 3.33 -0.3 3.66 -2 4 C-1.34 2.68 -0.68 1.36 0 0 Z " fill="#32CCAA" transform="translate(292,267)"/>
<path d="M0 0 C0.99 0 1.98 0 3 0 C3.625 1.875 3.625 1.875 4 4 C3.34 4.66 2.68 5.32 2 6 C1.67 5.01 1.34 4.02 1 3 C0.34 3 -0.32 3 -1 3 C-0.67 2.01 -0.34 1.02 0 0 Z " fill="#14D8AF" transform="translate(98,256)"/>
<path d="M0 0 C2.83374881 3.20336822 3.5205537 5.78087253 4 10 C1.2027092 7.93243723 0.97307727 6.85559629 0.3125 3.3125 C0.209375 2.219375 0.10625 1.12625 0 0 Z " fill="#003327" transform="translate(123,231)"/>
<path d="M0 0 C1.175625 0.5259375 1.175625 0.5259375 2.375 1.0625 C3.674375 1.5265625 3.674375 1.5265625 5 2 C5.66 1.67 6.32 1.34 7 1 C5.25 4.875 5.25 4.875 3 6 C2.01 4.02 1.02 2.04 0 0 Z " fill="#042219" transform="translate(240,139)"/>
</svg>
