<?xml version="1.0" encoding="UTF-8"?>
<svg version="1.1" xmlns="http://www.w3.org/2000/svg" width="512" height="512">
<path d="M0 0 C168.96 0 337.92 0 512 0 C512 168.96 512 337.92 512 512 C343.04 512 174.08 512 0 512 C0 343.04 0 174.08 0 0 Z " fill="#FBD603" transform="translate(0,0)"/>
<path d="M0 0 C1.83470178 2.48314746 3.32257977 4.81802813 4.8125 7.5 C5.24900879 8.26666992 5.68551758 9.03333984 6.13525391 9.82324219 C12.11919708 20.53412688 16.85936158 31.503063 20.17578125 43.328125 C20.90067837 45.96651058 20.90067837 45.96651058 22.10546875 48.109375 C23 50 23 50 23 54 C-21.55 54 -66.1 54 -112 54 C-112.33 52.68 -112.66 51.36 -113 50 C-109.92274141 48.48729764 -106.83728731 46.99211419 -103.75 45.5 C-102.87730469 45.07074219 -102.00460937 44.64148438 -101.10546875 44.19921875 C-100.26113281 43.79316406 -99.41679687 43.38710938 -98.546875 42.96875 C-97.38430176 42.40317383 -97.38430176 42.40317383 -96.19824219 41.82617188 C-94 41 -94 41 -90 41 C-90 40.34 -90 39.68 -90 39 C-88.25 38.27083333 -86.5 37.54166667 -84.75 36.8125 C-83.6465625 36.35101563 -82.543125 35.88953125 -81.40625 35.4140625 C-79.30705711 34.54260857 -77.20368681 33.6810466 -75.09375 32.8359375 C-68.45402826 30.15451141 -62.06366714 27.11615076 -55.69433594 23.85424805 C-52.17616298 22.05738432 -48.64864065 20.38749818 -45.00317383 18.85791016 C-40.46204661 16.91305689 -35.9886951 14.8121925 -31.5 12.75 C-30.44006836 12.26490967 -29.38013672 11.77981934 -28.28808594 11.2800293 C-23.58807616 9.12556026 -18.89430138 6.96269458 -14.234375 4.72265625 C-13.54923828 4.39491211 -12.86410156 4.06716797 -12.15820312 3.72949219 C-10.37843077 2.87421776 -8.60309509 2.00972786 -6.828125 1.14453125 C-4 0 -4 0 0 0 Z " fill="#050300" transform="translate(399,235)"/>
<path d="M0 0 C2.27203067 0.93002925 3.59868572 1.97930705 5.3737793 3.66992188 C5.99188477 4.25233643 6.60999023 4.83475098 7.24682617 5.43481445 C7.89329102 6.0589624 8.53975586 6.68311035 9.20581055 7.32617188 C10.20837891 8.28076294 10.20837891 8.28076294 11.23120117 9.25463867 C13.16771571 11.10421627 15.09376193 12.96415936 17.01831055 14.82617188 C17.92194336 15.68855469 18.82557617 16.5509375 19.7565918 17.43945312 C24.59560209 22.14474293 29.42765673 27.07650757 33.01831055 32.82617188 C33.01831055 33.81617188 33.01831055 34.80617187 33.01831055 35.82617188 C32.16619995 36.18014038 32.16619995 36.18014038 31.296875 36.54125977 C21.22358712 40.74346931 11.38311184 44.99234022 1.86206055 50.34179688 C-1.74873331 52.22655191 -5.44764062 53.49671487 -9.2980957 54.79882812 C-13.08272641 56.24767511 -16.49908196 58.21081258 -19.9855957 60.26367188 C-23.31115825 61.99799393 -26.69820208 63.33102708 -30.1875 64.69726562 C-35.2363904 66.7371144 -40.16366361 69.04429705 -45.10668945 71.32617188 C-46.13922852 71.79925781 -47.17176758 72.27234375 -48.2355957 72.75976562 C-53.29546443 75.08666067 -58.31365514 77.46881466 -63.28344727 79.98193359 C-65.5849146 81.12605004 -67.91900369 82.15753453 -70.29418945 83.13867188 C-71.11532227 83.48542969 -71.93645508 83.8321875 -72.7824707 84.18945312 C-74.98168945 84.82617188 -74.98168945 84.82617188 -77.98168945 83.82617188 C-79.8059082 81.64648438 -79.8059082 81.64648438 -81.66918945 78.95117188 C-82.29180664 78.066875 -82.91442383 77.18257813 -83.5559082 76.27148438 C-84.98168945 73.82617188 -84.98168945 73.82617188 -84.98168945 70.82617188 C-82.92700195 68.88085938 -82.92700195 68.88085938 -80.10668945 66.70117188 C-76.28379955 63.68001336 -72.57415509 60.61830276 -68.98168945 57.32617188 C-65.58570264 54.23061991 -62.11997415 51.2746598 -58.54418945 48.38867188 C-53.77028645 44.5279205 -49.24780518 40.45180112 -44.73168945 36.29492188 C-41.16984717 33.09735891 -37.45603112 30.11228845 -33.73168945 27.10742188 C-30.90069367 24.75898219 -28.18785348 22.31707285 -25.48168945 19.82617188 C-20.95497198 15.6615918 -16.2919853 11.72793545 -11.4934082 7.88085938 C-9.26392651 6.0570532 -7.15716935 4.15646671 -5.04418945 2.20117188 C-1.98168945 -0.17382812 -1.98168945 -0.17382812 0 0 Z " fill="#060300" transform="translate(359.981689453125,193.173828125)"/>
<path d="M0 0 C13.25872464 1.0199019 27.58274284 10.29263744 38 18 C39.8125 20.2109375 39.8125 20.2109375 41 22 C35.95452653 27.30569846 30.6291363 32.00203289 24.921875 36.58203125 C21.84776341 39.12598189 18.91830335 41.78121861 16 44.5 C11.39025806 48.78985806 6.62214231 52.80412936 1.71484375 56.75390625 C-1.10673495 59.0883059 -3.80590712 61.51990598 -6.5 64 C-10.07792463 67.29331699 -13.71539666 70.44651321 -17.5 73.5 C-22.3490909 77.4125712 -26.95409609 81.5406944 -31.5390625 85.7578125 C-34.29174324 88.26581051 -37.10812552 90.65523691 -40 93 C-45.40489519 91.47987323 -48.98492628 87.72614782 -53 84 C-51.34788703 79.12960917 -48.62906599 75.13005345 -45.8125 70.875 C-44.80827913 69.3413518 -43.80437221 67.80749797 -42.80078125 66.2734375 C-42.0730249 65.16500488 -42.0730249 65.16500488 -41.33056641 64.03417969 C-39.69728611 61.53720878 -38.09457653 59.02183636 -36.5 56.5 C-33.09270387 51.1269561 -29.63424632 45.78755417 -26.16992188 40.45117188 C-21.15503683 32.71835208 -16.22475375 24.93194221 -11.2890625 17.1484375 C-10.06770833 15.22395833 -8.84635417 13.29947917 -7.625 11.375 C-6.99722656 10.38371094 -6.36945313 9.39242187 -5.72265625 8.37109375 C-5.12582031 7.43136719 -4.52898437 6.49164063 -3.9140625 5.5234375 C-3.3773291 4.67700684 -2.8405957 3.83057617 -2.28759766 2.95849609 C-1 1 -1 1 0 0 Z " fill="#060400" transform="translate(311,166)"/>
<path d="M0 0 C5.78006815 0.06518874 11.18531824 1.32802138 16.7890625 2.65234375 C25.91725338 4.75876078 25.91725338 4.75876078 35.1640625 6.21484375 C34.6029208 10.69572525 32.90133523 13.54189584 30.4140625 17.27734375 C29.59240982 18.52471449 28.77079765 19.77211191 27.94921875 21.01953125 C27.27850342 22.02838379 27.27850342 22.02838379 26.59423828 23.05761719 C23.98775919 26.98913806 21.42228297 30.94738918 18.8515625 34.90234375 C18.30040771 35.74829102 17.74925293 36.59423828 17.18139648 37.46582031 C13.39455448 43.28767063 9.67003108 49.14590626 5.9765625 55.02734375 C0.84841445 63.18885481 -4.44996039 71.22182453 -9.8359375 79.21484375 C-11.04538702 81.02659913 -12.25390609 82.83897647 -13.4609375 84.65234375 C-14.25260417 85.83984375 -15.04427083 87.02734375 -15.8359375 88.21484375 C-20.2332313 87.43259632 -23.78153195 86.04330116 -27.8359375 84.21484375 C-27.26553178 78.12124113 -25.90494783 72.75452414 -23.9609375 66.96484375 C-22.27700693 61.80635534 -20.62296812 56.69324022 -19.3984375 51.40234375 C-18.02450048 45.5692818 -16.17952661 39.91239168 -14.3359375 34.21484375 C-12.14499665 27.44258722 -10.08328461 20.70664718 -8.453125 13.7734375 C-5.20094412 0.29129524 -5.20094412 0.29129524 0 0 Z " fill="#060300" transform="translate(265.8359375,154.78515625)"/>
<path d="M0 0 C0.81146484 0.01353516 1.62292969 0.02707031 2.45898438 0.04101562 C4.36881289 0.07491791 6.27827933 0.1285869 8.1875 0.1875 C6.91496366 6.43677816 5.24030895 12.44448502 3.25 18.5 C1.57161761 23.69977319 -0.05894086 28.86550343 -1.3125 34.1875 C-2.53423433 39.3636052 -4.1149661 44.38097843 -5.75 49.4375 C-7.72332792 55.54068235 -9.50559096 61.636823 -11 67.875 C-12.27300307 73.17474082 -13.71706238 78.15844971 -15.8125 83.1875 C-17.72947937 83.04583643 -19.64607723 82.89900416 -21.5625 82.75 C-23.16351563 82.62818359 -23.16351563 82.62818359 -24.796875 82.50390625 C-27.8125 82.1875 -27.8125 82.1875 -31.8125 81.1875 C-31.8125 55.4475 -31.8125 29.7075 -31.8125 3.1875 C-7.65540541 -0.26351351 -7.65540541 -0.26351351 0 0 Z " fill="#060300" transform="translate(246.8125,153.8125)"/>
<path d="M0 0 C0 25.08 0 50.16 0 76 C-5.61 76 -11.22 76 -17 76 C-17.53625 73.916875 -18.0725 71.83375 -18.625 69.6875 C-20.46675926 62.66249271 -22.63001946 55.76072906 -24.85571289 48.84936523 C-26.5321341 43.60197 -27.95637807 38.35081412 -29.20703125 32.984375 C-30.53852604 27.97323206 -32.34313435 23.122388 -34.109375 18.25 C-34.99191628 15.02949849 -35.26488596 13.97657995 -34 11 C-32.17749023 9.85913086 -32.17749023 9.85913086 -29.80859375 8.96484375 C-28.94556641 8.63033203 -28.08253906 8.29582031 -27.19335938 7.95117188 C-25.82920898 7.4494043 -25.82920898 7.4494043 -24.4375 6.9375 C-23.55513672 6.59912109 -22.67277344 6.26074219 -21.76367188 5.91210938 C-20.01140038 5.24254222 -18.25536195 4.5827459 -16.49560547 3.93310547 C-14.91264991 3.34123928 -13.33737092 2.728059 -11.77392578 2.08642578 C-7.36127219 0.29552496 -4.98689861 0 0 0 Z " fill="#0A0700" transform="translate(208,160)"/>
<path d="M0 0 C4.96327516 2.14605721 8.1074874 5.43162968 10.5 10.25 C13.97643695 20.44754837 13.51238611 34.22316344 9 44 C6.64178735 48.32338985 4.64236816 51.18342116 0 53 C-5.01756206 53.68077475 -8.80599537 53.59700231 -13.375 51.3125 C-19.3002135 46.09266906 -22.44385007 40.91502097 -23.18896484 32.99023438 C-23.81291743 22.72767852 -23.86059144 13.30161384 -17.33984375 4.84765625 C-12.2477363 -0.43266051 -7.12410564 -1.60733097 0 0 Z " fill="#0B0800" transform="translate(411,304)"/>
<path d="M0 0 C1.9453125 0.96484375 1.9453125 0.96484375 3.140625 3.3359375 C3.44742188 4.34785156 3.75421875 5.35976562 4.0703125 6.40234375 C4.38226563 7.39105469 4.69421875 8.37976563 5.015625 9.3984375 C5.74176675 12.18401488 6.32296618 14.90194856 6.84765625 17.7265625 C7.8934036 23.11185738 9.57110448 28.17037306 11.3828125 33.33984375 C17.9453125 52.56137744 17.9453125 52.56137744 17.9453125 60.96484375 C11.5103125 63.93484375 11.5103125 63.93484375 4.9453125 66.96484375 C1.98520477 64.00473602 0.17867508 61.07939212 -1.8046875 57.46484375 C-4.84221827 52.02074638 -8.04961536 46.75154333 -11.51171875 41.5625 C-13.0546875 38.96484375 -13.0546875 38.96484375 -14.4921875 35.6015625 C-16.42159863 31.1108581 -18.84025497 27.04239549 -21.35742188 22.86328125 C-24.0546875 18.27943095 -24.0546875 18.27943095 -24.0546875 14.96484375 C-22.3581543 13.46264648 -22.3581543 13.46264648 -20.00390625 11.8984375 C-19.16021484 11.33060547 -18.31652344 10.76277344 -17.44726562 10.17773438 C-16.55458984 9.59185547 -15.66191406 9.00597656 -14.7421875 8.40234375 C-13.86111328 7.81259766 -12.98003906 7.22285156 -12.07226562 6.61523438 C-9.73913778 5.05567591 -7.39850472 3.50826619 -5.0546875 1.96484375 C-2.0546875 -0.03515625 -2.0546875 -0.03515625 0 0 Z " fill="#090600" transform="translate(166.0546875,177.03515625)"/>
<path d="M0 0 C21 0 21 0 28 6 C30.80122608 11.00825268 30.55684781 16.40695505 30 22 C28.02857143 26.97142857 28.02857143 26.97142857 26 29 C26.44767584 36.6104892 28.8081861 43.74152791 31 51 C26.71 51 22.42 51 18 51 C17.32678716 48.75194998 16.66165877 46.50147776 16 44.25 C15.62875 42.99703125 15.2575 41.7440625 14.875 40.453125 C14 37 14 37 14 33 C13.01 33 12.02 33 11 33 C11 38.94 11 44.88 11 51 C7.37 51 3.74 51 0 51 C0 34.17 0 17.34 0 0 Z " fill="#060300" transform="translate(238,304)"/>
<path d="M0 0 C1.09399414 1.43017578 1.09399414 1.43017578 2.28515625 3.4453125 C2.72875488 4.18555664 3.17235352 4.92580078 3.62939453 5.68847656 C4.10231934 6.4925293 4.57524414 7.29658203 5.0625 8.125 C6.05989905 9.78984134 7.0586119 11.45389623 8.05859375 13.1171875 C8.80471924 14.36193848 8.80471924 14.36193848 9.56591797 15.63183594 C11.52975007 18.87480008 13.5637959 22.06831576 15.625 25.25 C16.33785156 26.35472656 17.05070312 27.45945313 17.78515625 28.59765625 C19.36368476 31.03059803 20.95864088 33.45219625 22.55859375 35.87109375 C22.97737793 36.50950195 23.39616211 37.14791016 23.82763672 37.80566406 C24.63203753 39.03150855 25.44199948 40.25372749 26.25830078 41.47167969 C29 45.66226433 29 45.66226433 29 49 C27.3203125 50.60546875 27.3203125 50.60546875 25.125 52.1875 C24.40570313 52.71730469 23.68640625 53.24710938 22.9453125 53.79296875 C21 55 21 55 19 55 C19 55.66 19 56.32 19 57 C15.08670547 56.45354896 13.41281015 54.70064387 10.75 51.875 C8.03732798 49.0701498 5.3427894 46.3461368 2.375 43.8125 C-1.76968142 40.25512161 -5.75896563 36.54004768 -9.75 32.8125 C-10.40049316 32.20575439 -11.05098633 31.59900879 -11.72119141 30.97387695 C-14.86584922 28.0313002 -17.98087456 25.07249382 -21 22 C-19.3717432 18.04295732 -16.63923808 15.19749091 -13.75 12.125 C-13.25636963 11.59487305 -12.76273926 11.06474609 -12.25415039 10.51855469 C-10.84172693 9.00695267 -9.42213792 7.50245801 -8 6 C-7.34386719 5.30132812 -6.68773438 4.60265625 -6.01171875 3.8828125 C-2.26824163 0 -2.26824163 0 0 0 Z " fill="#0A0700" transform="translate(134,200)"/>
<path d="M0 0 C4.95 0 9.9 0 15 0 C18.74752828 16.94534528 22.21579955 33.86645875 25 51 C21.04 51 17.08 51 13 51 C12.67 48.36 12.34 45.72 12 43 C9.03 43 6.06 43 3 43 C2.67 45.64 2.34 48.28 2 51 C-1.96 51 -5.92 51 -10 51 C-8.39974987 40.34467598 -6.35411292 29.90920065 -3.77783203 19.44580078 C-2.19771015 12.98364717 -0.9660536 6.58672908 0 0 Z " fill="#0A0700" transform="translate(360,304)"/>
<path d="M0 0 C4.62 0 9.24 0 14 0 C16.33118786 6.49166477 17.81903416 12.76631672 18.9375 19.5625 C20.35182064 27.79140095 22.08753945 35.82389595 24.265625 43.8828125 C25 47 25 47 25 51 C21.04 51 17.08 51 13 51 C11.64560332 48.29120665 11.93498549 45.99066732 12 43 C9.03 43 6.06 43 3 43 C2.67 45.64 2.34 48.28 2 51 C-1.96 51 -5.92 51 -10 51 C-9.41601801 42.60025899 -7.63348672 34.77397423 -5.5625 26.625 C-3.32756818 17.77743488 -1.37927478 9.02419979 0 0 Z " fill="#0B0800" transform="translate(286,304)"/>
<path d="M0 0 C3.63 0 7.26 0 11 0 C11.02505615 1.17095215 11.0501123 2.3419043 11.07592773 3.54833984 C11.16993703 7.88325378 11.27017341 12.21800504 11.37231445 16.55273438 C11.41568789 18.43062542 11.45736118 20.30855652 11.49731445 22.18652344 C11.55495876 24.8822844 11.61866981 27.57784327 11.68359375 30.2734375 C11.70030624 31.11619232 11.71701874 31.95894714 11.73423767 32.82723999 C11.73236144 37.0486661 11.73236144 37.0486661 13 41 C14.66611905 41.042721 16.33382885 41.04063832 18 41 C20.13086442 38.86913558 19.25960872 34.10833065 19.31640625 31.15234375 C19.33718735 30.2659169 19.35796844 29.37949005 19.37937927 28.46620178 C19.444974 25.623383 19.50380552 22.78046883 19.5625 19.9375 C19.6056758 18.01496394 19.64928978 16.09243766 19.69335938 14.16992188 C19.80066543 9.44671332 19.90190451 4.72340847 20 0 C23.63 0 27.26 0 31 0 C31.07434992 5.72913803 31.12869672 11.45799301 31.16479492 17.1875 C31.17984899 19.13514094 31.2002968 21.08274816 31.22631836 23.03027344 C31.26285053 25.83537128 31.27976033 28.64001954 31.29296875 31.4453125 C31.30845261 32.31116974 31.32393646 33.17702698 31.33988953 34.06912231 C31.34129045 39.14125842 30.82891718 42.61086664 28 47 C22.823167 51.67177612 19.60412302 52.35280455 12.76171875 52.28125 C7.84551528 51.78058996 5.31183691 49.24450554 1.86425781 45.97387695 C-0.81903459 41.69347036 -0.50235941 38.0563115 -0.390625 33.10546875 C-0.38496521 32.15811356 -0.37930542 31.21075836 -0.37347412 30.23469543 C-0.35114084 27.21844265 -0.3009498 24.20339178 -0.25 21.1875 C-0.22993107 19.13868907 -0.21168099 17.08985946 -0.1953125 15.04101562 C-0.15128594 10.02688291 -0.0822791 5.01364501 0 0 Z " fill="#060300" transform="translate(199,304)"/>
<path d="M0 0 C4.62 0 9.24 0 14 0 C16.8217216 11.40956995 19.44293948 22.77591831 21.375 34.37109375 C21.89364536 37.38247839 22.49118291 40.33864577 23.1875 43.3125 C24 47 24 47 24 51 C20.37 51 16.74 51 13 51 C12.67 48.36 12.34 45.72 12 43 C8.7 43 5.4 43 2 43 C1.67 45.64 1.34 48.28 1 51 C-2.63 51 -6.26 51 -10 51 C-10.09765625 44.84765625 -10.09765625 44.84765625 -10 43 C-9.505 42.505 -9.505 42.505 -9 42 C-8.57146397 39.48119469 -8.18450781 36.96478262 -7.8125 34.4375 C-6.00151849 22.77048387 -2.98340451 11.41224636 0 0 Z " fill="#090600" transform="translate(122,304)"/>
<path d="M0 0 C4.09591957 1.69659414 7.2001544 4.55765944 10.5 7.4375 C11.11512451 7.96883545 11.73024902 8.5001709 12.36401367 9.04760742 C16.4145659 12.56454773 20.3813758 16.16308502 24.3125 19.8125 C29.01062435 24.16378296 33.85324458 28.19192087 39 32 C38.37606349 35.76119476 36.65226285 38.18960042 34.4375 41.25 C33.79683594 42.14203125 33.15617187 43.0340625 32.49609375 43.953125 C32.00238281 44.62859375 31.50867188 45.3040625 31 46 C26.2916619 44.56576778 21.99196279 42.61475948 17.625 40.375 C16.21360108 39.66003896 14.80214088 38.94519887 13.390625 38.23046875 C12.3087793 37.68011963 12.3087793 37.68011963 11.20507812 37.11865234 C7.60342834 35.29150893 3.9887474 33.49056263 0.375 31.6875 C-0.9089178 31.0457002 -2.19277498 30.40377911 -3.4765625 29.76171875 C-5.22066406 28.88966797 -5.22066406 28.88966797 -7 28 C-9 27 -11 26 -13 25 C-12.60588513 18.90107231 -9.69299435 14.70219012 -6.5 9.6875 C-5.98824219 8.86443359 -5.47648437 8.04136719 -4.94921875 7.19335938 C-1.21062843 1.21062843 -1.21062843 1.21062843 0 0 Z " fill="#0A0700" transform="translate(106,230)"/>
<path d="M0 0 C3.93932621 1.86222694 5.58119612 3.35152947 7.9375 7 C9 10 9 10 9 12.25 C7.52156886 14.8372545 5.80029426 15.19991593 3 16 C2.01 16 1.02 16 0 16 C-0.66 14.02 -1.32 12.04 -2 10 C-5.77235603 11.07315113 -5.77235603 11.07315113 -8.1484375 14.0234375 C-9.29821444 18.0423826 -9.29073662 21.77897005 -9.25 25.9375 C-9.25773438 26.72318359 -9.26546875 27.50886719 -9.2734375 28.31835938 C-9.25797772 32.93696757 -8.75728008 36.65561314 -7 41 C-5.35 41 -3.7 41 -2 41 C-1.34 39.35 -0.68 37.7 0 36 C2.97 36.66 5.94 37.32 9 38 C8.53629326 42.72980877 8.02063186 46.25025011 5 50 C0.50526664 53.0313318 -3.70487682 53.95312217 -9 53 C-15.09793631 49.83376384 -18.73427793 45.42247879 -21.36499023 39.11157227 C-22.5974747 35.01324156 -22.47086842 30.87188934 -22.4375 26.625 C-22.45748047 25.73039062 -22.47746094 24.83578125 -22.49804688 23.9140625 C-22.49190189 15.45855904 -19.97420773 8.16090173 -14 2 C-9.52323259 -0.71872356 -5.09409642 -0.64380366 0 0 Z " fill="#0D0A00" transform="translate(182,304)"/>
<path d="M0 0 C3.99388487 1.85430369 5.5601759 3.31898203 7.9375 7 C9 10 9 10 9 12.25 C7.52156886 14.8372545 5.80029426 15.19991593 3 16 C2.01 16 1.02 16 0 16 C-0.474375 15.195625 -0.94875 14.39125 -1.4375 13.5625 C-2.73355856 10.8421105 -2.73355856 10.8421105 -5.1875 10.1875 C-5.785625 10.125625 -6.38375 10.06375 -7 10 C-9.24861849 15.41631518 -9.30056953 20.30178798 -9.25 26.0625 C-9.25773437 26.94744141 -9.26546875 27.83238281 -9.2734375 28.74414062 C-9.29411429 35.12736918 -9.29411429 35.12736918 -7 41 C-4.45224694 41.89386164 -4.45224694 41.89386164 -2 42 C-1.34 40.02 -0.68 38.04 0 36 C2.97 36.66 5.94 37.32 9 38 C8.43048055 43.97995423 6.39467224 47.94742379 1.8125 51.875 C-2.20401441 53.48160576 -5.73400119 53.67080193 -10 53 C-15.70554193 50.2010549 -18.61884437 46.22764685 -21.08984375 40.453125 C-22.3160803 35.80079404 -22.32936845 31.41563936 -22.3125 26.625 C-22.32861328 25.7175 -22.34472656 24.81 -22.36132812 23.875 C-22.36673935 16.36421882 -21.21822366 9.80241702 -15.9375 4.0625 C-15.43089844 3.49660156 -14.92429687 2.93070312 -14.40234375 2.34765625 C-10.56043436 -1.34442937 -4.96518692 -0.49792129 0 0 Z " fill="#0B0800" transform="translate(336,304)"/>
<path d="M0 0 C3.96 0 7.92 0 12 0 C12 13.53 12 27.06 12 41 C15.96 41 19.92 41 24 41 C24 44.3 24 47.6 24 51 C16.08 51 8.16 51 0 51 C0 34.17 0 17.34 0 0 Z " fill="#0A0700" transform="translate(80,304)"/>
<path d="M0 0 C7.11984915 0.87436744 12.76542675 3.71862588 19.05175781 6.96777344 C23.4922667 9.26200163 27.92924142 11.28210534 32.60546875 13.05859375 C37.15324901 14.84654651 41.56833572 16.94424699 46 19 C46 19.99 46 20.98 46 22 C28.51 22 11.02 22 -7 22 C-6.2291387 16.60397092 -5.33641881 12.6324443 -3.5 7.625 C-3.0565625 6.40039062 -2.613125 5.17578125 -2.15625 3.9140625 C-1 1 -1 1 0 0 Z " fill="#0D0900" transform="translate(87,264)"/>
<path d="M0 0 C2.375 -0.125 2.375 -0.125 5 0 C9.19792213 4.19792213 8.21793136 10.35354816 8.25 15.9375 C8.270625 16.83146484 8.29125 17.72542969 8.3125 18.64648438 C8.34196738 23.60805422 8.21537248 26.94693837 5 31 C2.6875 30.9375 2.6875 30.9375 0 30 C-2.86866748 24.72601275 -3.47001552 20.37596993 -3.375 14.4375 C-3.38660156 13.70853516 -3.39820313 12.97957031 -3.41015625 12.22851562 C-3.38421822 7.42565757 -2.51727096 4.21542994 0 0 Z " fill="#EFCC03" transform="translate(403,315)"/>
<path d="M0 0 C1.65 0 3.3 0 5 0 C7 2 7 2 7.265625 4.09375 C7.26046875 4.8878125 7.2553125 5.681875 7.25 6.5 C7.25515625 7.2940625 7.2603125 8.088125 7.265625 8.90625 C7 11 7 11 5 13 C3.35 13 1.7 13 0 13 C0 8.71 0 4.42 0 0 Z " fill="#E8C503" transform="translate(249,314)"/>
<path d="M0 0 C2.90527612 2.90527612 2.71264319 6.21099025 3.125 10.125 C3.21136719 10.87910156 3.29773438 11.63320313 3.38671875 12.41015625 C3.59889261 14.27257127 3.80045763 16.13618931 4 18 C2.02 18 0.04 18 -2 18 C-1.85805236 15.93722893 -1.71127784 13.87478969 -1.5625 11.8125 C-1.48128906 10.66394531 -1.40007812 9.51539063 -1.31640625 8.33203125 C-1.04596188 5.48401829 -0.62478253 2.78789518 0 0 Z " fill="#AB9102" transform="translate(367,319)"/>
<path d="M0 0 C0.66 0 1.32 0 2 0 C2.66 5.61 3.32 11.22 4 17 C2.02 17 0.04 17 -2 17 C-1.85786703 15.10388566 -1.71113093 13.20811606 -1.5625 11.3125 C-1.48128906 10.25675781 -1.40007812 9.20101563 -1.31640625 8.11328125 C-1.03548319 5.34913703 -0.59843148 2.71054259 0 0 Z " fill="#C6A903" transform="translate(128,320)"/>
<path d="M0 0 C0.33 0 0.66 0 1 0 C1.66 5.28 2.32 10.56 3 16 C1.35 16 -0.3 16 -2 16 C-1.85833643 14.08302063 -1.71150416 12.16642277 -1.5625 10.25 C-1.48128906 9.18265625 -1.40007812 8.1153125 -1.31640625 7.015625 C-1.05909227 4.56320038 -0.68187782 2.36078709 0 0 Z " fill="#F0CC03" transform="translate(293,320)"/>
<path d="M0 0 C0.33 2.31 0.66 4.62 1 7 C-0.65 7 -2.3 7 -4 7 C-4 5.02 -4 3.04 -4 1 C-2 0 -2 0 0 0 Z " fill="#F2CE03" transform="translate(369,329)"/>
<path d="M0 0 C2.1519437 3.22791555 2.20086443 4.28400809 2 8 C0.68 8 -0.64 8 -2 8 C-1.125 2.25 -1.125 2.25 0 0 Z " fill="#F7D203" transform="translate(129,328)"/>
</svg>
