<?xml version="1.0" encoding="UTF-8"?>
<svg version="1.1" xmlns="http://www.w3.org/2000/svg" width="200" height="200">
<path d="M0 0 C66 0 132 0 200 0 C200 66 200 132 200 200 C134 200 68 200 0 200 C0 134 0 68 0 0 Z " fill="#D90C20" transform="translate(0,0)"/>
<path d="M0 0 C1 1 1 1 1.0625 4.125 C0.33653271 8.59107727 -2.25970086 10.7425368 -5.6640625 13.5078125 C-8.6864949 15.43853019 -11.62567942 16.35946496 -15.1171875 17.1015625 C-17.23247563 17.86559964 -17.23247563 17.86559964 -18.0625 20.28515625 C-18.371875 21.18105469 -18.68125 22.07695313 -19 23 C-20.00041576 24.63021117 -21.04239953 26.23566888 -22.125 27.8125 C-22.66382812 28.60269531 -23.20265625 29.39289063 -23.7578125 30.20703125 C-24.16773437 30.79871094 -24.57765625 31.39039062 -25 32 C-14.8162471 40.63405137 3.23583825 41.95432985 16 41 C22.15928165 39.86725855 25.98855348 37.78785552 30 33 C29.78320856 36.79385021 29.0563797 37.9436203 26.3125 40.6875 C19.65277669 46.19837616 11.12528942 45.52793759 3 45 C-6.15059369 43.78119043 -14.4535949 41.34749298 -22.9765625 37.890625 C-26.213597 36.93707995 -27.8281607 36.95568163 -31 38 C-32.34789347 38.98028616 -33.68212715 39.97971135 -35 41 C-38.5894328 42.36150899 -42.20450205 42.271107 -46 42 C-48.4375 40.875 -48.4375 40.875 -50 39 C-50.5625 36.0625 -50.5625 36.0625 -50 33 C-47.87736675 30.39806247 -46.28688479 29.17078284 -42.91015625 28.72265625 C-38.20778489 28.65031208 -33.62817832 29.21222497 -29 30 C-26.36 26.37 -23.72 22.74 -21 19 C-23.47395833 19.09765625 -25.94791667 19.1953125 -28.421875 19.29296875 C-31.48947165 18.94437822 -32.79193617 18.12216661 -35 16 C-35.5625 13.5625 -35.5625 13.5625 -35 11 C-32.75 8.625 -32.75 8.625 -30 7 C-27.6875 7.25 -27.6875 7.25 -26 8 C-27.2065625 8.61875 -27.2065625 8.61875 -28.4375 9.25 C-31.14973801 10.71418298 -31.14973801 10.71418298 -31.66015625 13.109375 C-31.82837891 14.04523438 -31.82837891 14.04523438 -32 15 C-30.22925083 15.02705729 -28.45838289 15.04642195 -26.6875 15.0625 C-25.70136719 15.07410156 -24.71523438 15.08570312 -23.69921875 15.09765625 C-20.90036151 15.12329862 -20.90036151 15.12329862 -18 14 C-16.31006117 11.81142892 -16.31006117 11.81142892 -14.6875 9.1875 C-10.93040957 3.65864481 -7.36885534 -1.05269362 0 0 Z " fill="#FCCBC4" transform="translate(64,78)"/>
<path d="M0 0 C0.99 0.33 1.98 0.66 3 1 C2.42288905 4.56616931 1.49300071 7.31094016 -0.25 10.46875 C-0.6934375 11.28730469 -1.136875 12.10585937 -1.59375 12.94921875 C-2.53125 14.64973958 -3.46875 16.35026042 -4.40625 18.05078125 C-4.8496875 18.86933594 -5.293125 19.68789062 -5.75 20.53125 C-6.15734375 21.26923828 -6.5646875 22.00722656 -6.984375 22.76757812 C-8.07721012 25.16971379 -8.57958732 27.40212384 -9 30 C-5.36309749 28.24449062 -5.36309749 28.24449062 -3.125 25.0625 C-2.98914408 22.82087733 -3.31533824 21.13005882 -4 19 C-2.68 18.67 -1.36 18.34 0 18 C0.66 19.65 1.32 21.3 2 23 C3.98 22.67 5.96 22.34 8 22 C8 22.66 8 23.32 8 24 C11.465 23.505 11.465 23.505 15 23 C13.8125 24.5 13.8125 24.5 12 26 C9.3125 26.1875 9.3125 26.1875 7 26 C7.33 26.99 7.66 27.98 8 29 C11.75431122 28.71120683 14.30384286 28.51295789 17.375 26.25 C20.05485524 22.53943121 20 19.50813298 20 15 C20.99 15.33 21.98 15.66 23 16 C23 16.66 23 17.32 23 18 C24.98 18.33 26.96 18.66 29 19 C28.125 26.625 28.125 26.625 27 30 C31.91970564 26.39221586 33.96940865 23.75334215 36 18 C36.99 18 37.98 18 39 18 C38.68950274 19.43793392 38.3765224 20.8753318 38.0625 22.3125 C37.88847656 23.11300781 37.71445313 23.91351563 37.53515625 24.73828125 C37 27 37 27 36 30 C40.60027973 27.76202608 41.83135443 25.52586902 44 21 C45.875 19.0625 45.875 19.0625 48 18 C50.75 18.3125 50.75 18.3125 53 19 C53 20.32 53 21.64 53 23 C52.34 23.33 51.68 23.66 51 24 C51 23.01 51 22.02 51 21 C49.68 21.33 48.36 21.66 47 22 C46.67 24.31 46.34 26.62 46 29 C49.38499571 28.69227312 51.46526916 28.44036657 54.125 26.25 C56.07292794 23.98966254 56.07292794 23.98966254 57.8125 21.3125 C60 19 60 19 63.5625 18.0625 C67 18 67 18 70 20 C69.34 23.3 68.68 26.6 68 30 C69.98 29.67 71.96 29.34 74 29 C74.495 27.515 74.495 27.515 75 26 C75.495 27.98 75.495 27.98 76 30 C74.3125 31.5625 74.3125 31.5625 72 33 C69.11099395 32.71814575 66.75652997 31.91884332 64 31 C63.360625 31.33 62.72125 31.66 62.0625 32 C60 33 60 33 57.75 32.625 C57.1725 32.41875 56.595 32.2125 56 32 C56 31.34 56 30.68 56 30 C54.6696875 30.7425 54.6696875 30.7425 53.3125 31.5 C50.06182976 32.97200162 48.4769842 33.45749792 45 33 C42.6875 32 42.6875 32 41 31 C40.01 31.66 39.02 32.32 38 33 C35.3125 32.625 35.3125 32.625 33 32 C33 31.34 33 30.68 33 30 C32.443125 30.515625 31.88625 31.03125 31.3125 31.5625 C29 33 29 33 26.25 32.6875 C25.5075 32.460625 24.765 32.23375 24 32 C23.91087781 28.16774573 24.12132271 24.73437848 25 21 C24.34 20.67 23.68 20.34 23 20 C22.835 20.845625 22.67 21.69125 22.5 22.5625 C20.41774936 27.33432438 17.34702107 30.18293606 13 33 C9.51299471 33.65792553 8.06361129 33.70907419 5.125 31.75 C4 30 4 30 4 26 C2.12946603 26.13034494 2.12946603 26.13034494 0 27 C-0.598125 27.825 -1.19625 28.65 -1.8125 29.5 C-4 32 -4 32 -7.625 32.9375 C-8.73875 32.958125 -9.8525 32.97875 -11 33 C-11.66 32.34 -12.32 31.68 -13 31 C-12.80599311 25.02309555 -10.64513529 21.0180068 -7.625 16.0625 C-4.47375757 10.82228881 -2.00517399 5.78913135 0 0 Z " fill="#FCCAC5" transform="translate(110,79)"/>
<path d="M0 0 C0 0.99 0 1.98 0 3 C-0.99 3.66 -1.98 4.32 -3 5 C-2.195625 5.4125 -1.39125 5.825 -0.5625 6.25 C2 8 2 8 2.71875 9.84375 C3.19419221 13.48880692 1.99433797 16.49057187 1 20 C4.26011642 19.30621489 5.79038253 18.54106009 8 16 C7.25 20.75 7.25 20.75 5 23 C1.38245897 23.38079379 -0.88401212 22.84651134 -4 21 C-4.66 21.99 -5.32 22.98 -6 24 C-8.125 24.6875 -8.125 24.6875 -10 25 C-7.36 25 -4.72 25 -2 25 C-2 25.66 -2 26.32 -2 27 C5.31839056 28.45801591 12.55769906 29.45298368 20 30 C20 30.33 20 30.66 20 31 C5.44756018 31.8422634 -9.39269783 29.72909982 -22 22 C-21.07099327 20.34843248 -20.13611206 18.69995866 -19.17578125 17.06640625 C-17.98325453 15.03280131 -17.98325453 15.03280131 -17.04296875 12.96484375 C-13.51181224 6.1009103 -7.82238666 4.02403335 -1 1 C-0.67 0.67 -0.34 0.34 0 0 Z " fill="#D11629" transform="translate(60,89)"/>
<path d="M0 0 C0.68707555 2.49064888 1 4.37886292 1 7 C1.66 5.68 2.32 4.36 3 3 C5.91703734 3.69928977 8.77030099 4.51616738 11.625 5.4375 C12.40101562 5.68371094 13.17703125 5.92992188 13.9765625 6.18359375 C16 7 16 7 18 9 C20.06874034 9.6425235 20.06874034 9.6425235 22 10 C21.34 10.66 20.68 11.32 20 12 C19.34 12 18.68 12 18 12 C18.226875 12.721875 18.45375 13.44375 18.6875 14.1875 C19.09750589 17.87755298 18.24158382 19.08594103 16 22 C13.32397466 24.60560362 11.94305321 25.91617305 8.1875 26.25 C7.465625 26.1675 6.74375 26.085 6 26 C5.67 24.68 5.34 23.36 5 22 C7.31 21.34 9.62 20.68 12 20 C11.0925 20 10.185 20 9.25 20 C2 20 2 20 -1 19 C-1.33 17.35 -1.66 15.7 -2 14 C-2.99 14.33 -3.98 14.66 -5 15 C-4.7525 16.0725 -4.505 17.145 -4.25 18.25 C-4 22 -4 22 -5.75 24.4375 C-8 26 -8 26 -11 26 C-10.58320024 19.46422496 -8.07483563 14.73732305 -4.9375 9.0625 C-4.46505859 8.18787109 -3.99261719 7.31324219 -3.50585938 6.41210938 C-2.34667254 4.26937008 -1.17796683 2.13245471 0 0 Z " fill="#D60F22" transform="translate(112,83)"/>
<path d="M0 0 C1.26328125 0.02707031 2.5265625 0.05414063 3.828125 0.08203125 C4.79234375 0.11683594 5.7565625 0.15164062 6.75 0.1875 C-6.05653951 28.93409401 -6.05653951 28.93409401 -15.25 34.1875 C-18.30746932 34.60675165 -21.19497512 34.63771419 -24.25 34.1875 C-25.25 33.1875 -25.25 33.1875 -25.4375 30.3125 C-25.25 27.1875 -25.25 27.1875 -23.25 24.1875 C-21.93 24.5175 -20.61 24.8475 -19.25 25.1875 C-19.91 25.8475 -20.57 26.5075 -21.25 27.1875 C-21.25 28.1775 -21.25 29.1675 -21.25 30.1875 C-17.57035422 30.53545612 -17.57035422 30.53545612 -14.43920898 28.7890625 C-10.11890704 23.55217605 -6.60609778 18.11870927 -3.3125 12.1875 C-2.81943359 11.31738281 -2.32636719 10.44726562 -1.81835938 9.55078125 C-0.62060634 7.43436326 0.56590555 5.31158987 1.75 3.1875 C-1.55 3.8475 -4.85 4.5075 -8.25 5.1875 C-8.25 6.5075 -8.25 7.8275 -8.25 9.1875 C-9.57 8.5275 -10.89 7.8675 -12.25 7.1875 C-11.89950928 4.64644226 -11.47179664 3.4136456 -9.65625 1.5625 C-6.33726474 -0.334063 -3.79268455 -0.10535235 0 0 Z " fill="#FDD0C7" transform="translate(100.25,78.8125)"/>
<path d="M0 0 C0.99 0.66 1.98 1.32 3 2 C2.34 5.3 1.68 8.6 1 12 C4.83736322 11.04065919 5.59660228 10.76390737 8 8 C7.25 12.75 7.25 12.75 5 15 C1.38245897 15.38079379 -0.88401212 14.84651134 -4 13 C-4.99 13.66 -5.98 14.32 -7 15 C-9.6875 14.625 -9.6875 14.625 -12 14 C-12.98629017 10.86180401 -13.21925401 9.47312707 -11.8125 6.4375 C-6.4165421 -0.81913303 -6.4165421 -0.81913303 0 0 Z " fill="#F9BBB9" transform="translate(60,97)"/>
<path d="M0 0 C12.66970387 -0.18451025 12.66970387 -0.18451025 18 1 C17.34 1.33 16.68 1.66 16 2 C15.6575891 3.66482542 15.32616186 5.33191507 15 7 C14.14216213 8.94370859 13.22009552 10.85981388 12.25 12.75 C11.71632813 13.7915625 11.18265625 14.833125 10.6328125 15.90625 C8.4857252 19.9744154 6.28003712 24.0048907 4 28 C3.67 27.34 3.34 26.68 3 26 C2.34 26 1.68 26 1 26 C0.01 29.63 -0.98 33.26 -2 37 C-2.495 35.515 -2.495 35.515 -3 34 C-5.5 35 -5.5 35 -7 39 C-9.97 38.34 -12.94 37.68 -16 37 C-16 36.67 -16 36.34 -16 36 C-15.41992188 35.93683594 -14.83984375 35.87367187 -14.2421875 35.80859375 C-9.08359906 34.99990414 -5.87513508 33.86295855 -2.6015625 29.51953125 C2.82169362 20.98782345 7.52657767 12.05817417 12 3 C7.71 2.67 3.42 2.34 -1 2 C-0.67 1.34 -0.34 0.68 0 0 Z " fill="#C72431" transform="translate(94,77)"/>
<path d="M0 0 C0.66 0.66 1.32 1.32 2 2 C4.06874034 2.6425235 4.06874034 2.6425235 6 3 C5.34 3.66 4.68 4.32 4 5 C3.34 5 2.68 5 2 5 C2.3403125 6.0828125 2.3403125 6.0828125 2.6875 7.1875 C3.09750589 10.87755298 2.24158382 12.08594103 0 15 C-2.67602534 17.60560362 -4.05694679 18.91617305 -7.8125 19.25 C-8.534375 19.1675 -9.25625 19.085 -10 19 C-10.33 17.68 -10.66 16.36 -11 15 C-8.69 14.34 -6.38 13.68 -4 13 C-4.928125 13.020625 -5.85625 13.04125 -6.8125 13.0625 C-10 13 -10 13 -13 12 C-13 11.34 -13 10.68 -13 10 C-12.360625 9.525625 -11.72125 9.05125 -11.0625 8.5625 C-8.71627037 7.0908635 -8.71627037 7.0908635 -8 4 C-3.65714286 0 -3.65714286 0 0 0 Z " fill="#C92B38" transform="translate(128,90)"/>
<path d="M0 0 C1.60080151 4.00200378 0.29279692 7.04556236 -1 11 C0.98 10.67 2.96 10.34 5 10 C5.33 9.01 5.66 8.02 6 7 C6.33 8.32 6.66 9.64 7 11 C5.3125 12.5625 5.3125 12.5625 3 14 C0.11099395 13.71814575 -2.24347003 12.91884332 -5 12 C-5.9590625 12.495 -5.9590625 12.495 -6.9375 13 C-9 14 -9 14 -11.25 13.625 C-11.8275 13.41875 -12.405 13.2125 -13 13 C-12.34 12.67 -11.68 12.34 -11 12 C-10.61067967 10.01014051 -10.28112064 8.00800456 -10 6 C-9.67 5.01 -9.34 4.02 -9 3 C-9.66 2.67 -10.32 2.34 -11 2 C-7.374967 -1.625033 -4.81746234 -1.01907857 0 0 Z " fill="#FDCFC8" transform="translate(179,98)"/>
<path d="M0 0 C-0.33 0.99 -0.66 1.98 -1 3 C-1.99 3 -2.98 3 -4 3 C-4 4.65 -4 6.3 -4 8 C-2.35 8 -0.7 8 1 8 C1 7.34 1 6.68 1 6 C2.65 6 4.3 6 6 6 C5.67 6.99 5.34 7.98 5 9 C2.17283905 9.94238698 0.36823877 10.13465647 -2.5625 10.125 C-3.34753906 10.12757812 -4.13257813 10.13015625 -4.94140625 10.1328125 C-7 10 -7 10 -9 9 C-8.6875 6.625 -8.6875 6.625 -8 4 C-7.01 3.34 -6.02 2.68 -5 2 C-8.24983135 3.08784968 -8.24983135 3.08784968 -11 5 C-11.33343551 7.45792029 -11.33343551 7.45792029 -11 10 C-7.83759418 12.10827055 -6.49342531 12.33817465 -2.8125 12.625 C-1.91144531 12.69976562 -1.01039062 12.77453125 -0.08203125 12.8515625 C0.60503906 12.90054688 1.29210937 12.94953125 2 13 C0.6062718 17.43458973 -1.60582235 19.87378374 -5 23 C-4.67 21.02 -4.34 19.04 -4 17 C-4.99 16.67 -5.98 16.34 -7 16 C-7 15.34 -7 14.68 -7 14 C-8.65 13.67 -10.3 13.34 -12 13 C-12.99 10.03 -13.98 7.06 -15 4 C-14.01 4 -13.02 4 -12 4 C-12 3.01 -12 2.02 -12 1 C-7.53763531 -0.80619523 -4.68965706 -1.11658501 0 0 Z " fill="#C12330" transform="translate(41,84)"/>
<path d="M0 0 C0.99 0.66 1.98 1.32 3 2 C2.34 5.3 1.68 8.6 1 12 C4.83736322 11.04065919 5.59660228 10.76390737 8 8 C7.25 12.75 7.25 12.75 5 15 C2.375 15.125 2.375 15.125 0 15 C-0.28875 14.360625 -0.5775 13.72125 -0.875 13.0625 C-1.82823451 10.84793921 -1.82823451 10.84793921 -4 10 C-3.01 7.36 -2.02 4.72 -1 2 C-3.99152582 2.77479736 -3.99152582 2.77479736 -7 4 C-7.33 4.99 -7.66 5.98 -8 7 C-8.6875 5.1875 -8.6875 5.1875 -9 3 C-6.7687135 -0.67506012 -3.99683175 -0.41633664 0 0 Z " fill="#FDCBC8" transform="translate(60,97)"/>
<path d="M0 0 C1.98 0 3.96 0 6 0 C6 0.99 6 1.98 6 3 C5.34 3 4.68 3 4 3 C3.67 4.32 3.34 5.64 3 7 C6.465 6.505 6.465 6.505 10 6 C10.66 7.65 11.32 9.3 12 11 C11.01 11 10.02 11 9 11 C8.87625 11.639375 8.7525 12.27875 8.625 12.9375 C8.41875 13.618125 8.2125 14.29875 8 15 C4.78548731 16.60725635 1.56387464 16.05748185 -2 16 C-2 15.34 -2 14.68 -2 14 C-3.32 13.67 -4.64 13.34 -6 13 C-4.125 12.375 -4.125 12.375 -2 12 C-1.34 12.66 -0.68 13.32 0 14 C3.09926819 13.67801034 3.09926819 13.67801034 6 13 C6 12.34 6 11.68 6 11 C4.02 11.33 2.04 11.66 0 12 C0.08378906 11.30132812 0.16757813 10.60265625 0.25390625 9.8828125 C0.35574219 8.97273438 0.45757812 8.06265625 0.5625 7.125 C0.66691406 6.22007813 0.77132812 5.31515625 0.87890625 4.3828125 C1.19674852 1.98346943 1.19674852 1.98346943 0 0 Z " fill="#C91E2C" transform="translate(178,97)"/>
<path d="M0 0 C0.33 1.32 0.66 2.64 1 4 C-0.03090293 4.96990276 -1.07540012 5.92536201 -2.125 6.875 C-2.70507812 7.40867187 -3.28515625 7.94234375 -3.8828125 8.4921875 C-8.63813695 11.87882078 -13.41496442 12.27466538 -19.125 12.25 C-20.32382813 12.25515625 -21.52265625 12.2603125 -22.7578125 12.265625 C-25.78370687 12.0177204 -27.46325761 11.59019672 -30 10 C-30 9.67 -30 9.34 -30 9 C-28.87722656 8.96261719 -27.75445312 8.92523438 -26.59765625 8.88671875 C-12.84580812 8.8398009 -12.84580812 8.8398009 -1.4375 2.3125 C-0.963125 1.549375 -0.48875 0.78625 0 0 Z " fill="#FDCBC8" transform="translate(93,111)"/>
<path d="M0 0 C0.33 0.66 0.66 1.32 1 2 C0.67 2.66 0.34 3.32 0 4 C2.31 4.33 4.62 4.66 7 5 C7.33 4.34 7.66 3.68 8 3 C12.75 3.875 12.75 3.875 15 5 C13.35 5.66 11.7 6.32 10 7 C12.64 7 15.28 7 18 7 C18 7.66 18 8.32 18 9 C25.31839056 10.45801591 32.55769906 11.45298368 40 12 C40 12.33 40 12.66 40 13 C25.44756018 13.8422634 10.60730217 11.72909982 -2 4 C-1.34 2.68 -0.68 1.36 0 0 Z " fill="#C72935" transform="translate(40,107)"/>
<path d="M0 0 C1.32 0 2.64 0 4 0 C4 0.66 4 1.32 4 2 C3.34 2 2.68 2 2 2 C1.7525 2.598125 1.505 3.19625 1.25 3.8125 C-0.49365583 6.8638977 -2.53226461 8.44327278 -5.8125 9.6875 C-13.68115942 10.8115942 -13.68115942 10.8115942 -17.4375 8.5 C-17.953125 8.005 -18.46875 7.51 -19 7 C-18.67 5.68 -18.34 4.36 -18 3 C-17.34 3 -16.68 3 -16 3 C-15.01 4.485 -15.01 4.485 -14 6 C-7.67332099 5.54347122 -7.67332099 5.54347122 -2 3 C-1.34 2.01 -0.68 1.02 0 0 Z " fill="#FDD1C7" transform="translate(33,110)"/>
<path d="M0 0 C1.65 0.33 3.3 0.66 5 1 C4.2628641 2.29905098 3.50969444 3.58901122 2.75 4.875 C2.33234375 5.59429687 1.9146875 6.31359375 1.484375 7.0546875 C-0.18960046 9.24847639 -1.41821037 10.07216935 -4 11 C-6.75 10.625 -6.75 10.625 -9 10 C-8.62403791 7.21788056 -8.32681541 5.4120716 -6.5625 3.1875 C-5 2 -5 2 -3 2 C-2.67 2.66 -2.34 3.32 -2 4 C-1.34 2.68 -0.68 1.36 0 0 Z " fill="#CA1A28" transform="translate(164,98)"/>
<path d="M0 0 C1.08784335 3.31395986 1.07262544 3.83580335 -0.4375 7.25 C-0.953125 8.1575 -1.46875 9.065 -2 10 C-2.66 10 -3.32 10 -4 10 C-3.34 11.32 -2.68 12.64 -2 14 C-2.99 14.33 -3.98 14.66 -5 15 C-4.7525 16.0725 -4.505 17.145 -4.25 18.25 C-4 22 -4 22 -5.75 24.4375 C-8 26 -8 26 -11 26 C-10.58320024 19.46422496 -8.07483563 14.73732305 -4.9375 9.0625 C-4.46505859 8.18787109 -3.99261719 7.31324219 -3.50585938 6.41210938 C-2.34667254 4.26937008 -1.17796683 2.13245471 0 0 Z " fill="#C51E2E" transform="translate(112,83)"/>
<path d="M0 0 C1.32 0.99 2.64 1.98 4 3 C2.68165408 8.66888747 0.71496162 10.85669225 -4 14 C-6.875 14.3125 -6.875 14.3125 -9 14 C-9.33 12.68 -9.66 11.36 -10 10 C-8.906875 9.835 -7.81375 9.67 -6.6875 9.5 C-2.99455496 8.43130321 -2.99455496 8.43130321 -1.8671875 6.0859375 C-1.13382276 4.07096447 -0.50850828 2.0824625 0 0 Z " fill="#CA1A2A" transform="translate(127,95)"/>
<path d="M0 0 C0.8353125 0.37125 0.8353125 0.37125 1.6875 0.75 C0.4809375 1.36875 0.4809375 1.36875 -0.75 2 C-3.75454417 3.63581247 -3.75454417 3.63581247 -4.3125 7.75 C0.3075 7.75 4.9275 7.75 9.6875 7.75 C9.0275 9.4 8.3675 11.05 7.6875 12.75 C5.93658981 12.66245449 4.18670449 12.55426627 2.4375 12.4375 C1.46296875 12.37949219 0.4884375 12.32148437 -0.515625 12.26171875 C-3.60452186 11.69657142 -5.06262735 10.91071686 -7.3125 8.75 C-7.875 6.3125 -7.875 6.3125 -7.3125 3.75 C-3.41056452 -0.36870968 -3.41056452 -0.36870968 0 0 Z " fill="#FDC6C0" transform="translate(36.3125,85.25)"/>
<path d="M0 0 C0.66 0.66 1.32 1.32 2 2 C-6.261959 6.59225513 -6.261959 6.59225513 -11 6 C-11.66 4.68 -12.32 3.36 -13 2 C-9.28062168 -2.04280252 -4.93851046 -1.26799593 0 0 Z " fill="#CB2937" transform="translate(30,111)"/>
<path d="M0 0 C0.66 0 1.32 0 2 0 C1.875 2.3125 1.875 2.3125 1 5 C-3.58845935 7.96571153 -7.55030293 8.38872402 -12.875 8.1875 C-13.56335938 8.17396484 -14.25171875 8.16042969 -14.9609375 8.14648438 C-16.64097001 8.1114837 -18.3205935 8.05768954 -20 8 C-20 7.67 -20 7.34 -20 7 C-16.7 6.67 -13.4 6.34 -10 6 C-10 5.34 -10 4.68 -10 4 C-11.32 3.67 -12.64 3.34 -14 3 C-13.67 2.34 -13.34 1.68 -13 1 C-12.29875 1.309375 -11.5975 1.61875 -10.875 1.9375 C-7.91063343 3.03302678 -5.12301892 3.56422992 -2 4 C-1.34 2.68 -0.68 1.36 0 0 Z " fill="#CD1423" transform="translate(89,111)"/>
<path d="M0 0 C0 0.99 0 1.98 0 3 C-0.99 3.66 -1.98 4.32 -3 5 C-1.35 5.99 0.3 6.98 2 8 C0 9 0 9 -2.875 8.875 C-6.35577466 9.01423099 -7.49115529 9.68414334 -10 12 C-10 10.68 -10 9.36 -10 8 C-10.66 8 -11.32 8 -12 8 C-12.28875 8.804375 -12.5775 9.60875 -12.875 10.4375 C-14 13 -14 13 -16 14 C-14.37778023 9.38291297 -12.86725961 7.03206362 -8.5546875 4.6484375 C-7.67039062 4.22820312 -6.78609375 3.80796875 -5.875 3.375 C-2.7170292 2.01068523 -2.7170292 2.01068523 0 0 Z " fill="#C52530" transform="translate(60,89)"/>
<path d="M0 0 C1.65 0 3.3 0 5 0 C4.67 0.99 4.34 1.98 4 3 C3.01 3 2.02 3 1 3 C1 4.65 1 6.3 1 8 C2.65 8 4.3 8 6 8 C6 7.34 6 6.68 6 6 C7.65 6 9.3 6 11 6 C10.67 6.99 10.34 7.98 10 9 C7.17283905 9.94238698 5.36823877 10.13465647 2.4375 10.125 C1.25994141 10.12886719 1.25994141 10.12886719 0.05859375 10.1328125 C-2 10 -2 10 -4 9 C-3.49581669 5.26904354 -2.84631029 3.47505242 0 1 C0 0.67 0 0.34 0 0 Z " fill="#D12A37" transform="translate(36,84)"/>
<path d="M0 0 C0.99 0.33 1.98 0.66 3 1 C2.67 4.63 2.34 8.26 2 12 C3.65 12 5.3 12 7 12 C7 12.66 7 13.32 7 14 C5.02 14 3.04 14 1 14 C0.34 12.35 -0.32 10.7 -1 9 C-1.66 9.66 -2.32 10.32 -3 11 C-3.99 11 -4.98 11 -6 11 C-6 11.66 -6 12.32 -6 13 C-7.32 12.67 -8.64 12.34 -10 12 C-9.52949219 11.63648437 -9.05898437 11.27296875 -8.57421875 10.8984375 C-4.52807056 7.63136132 -1.99716574 4.93417419 0 0 Z " fill="#C62933" transform="translate(133,99)"/>
<path d="M0 0 C0 0.66 0 1.32 0 2 C2.64 2 5.28 2 8 2 C8 2.99 8 3.98 8 5 C5.04335481 6.4783226 2.25770263 6.06032783 -1 6 C-0.67 5.01 -0.34 4.02 0 3 C-2.64 3.33 -5.28 3.66 -8 4 C-8.33 3.34 -8.66 2.68 -9 2 C-3.375 0 -3.375 0 0 0 Z " fill="#D80D1F" transform="translate(58,111)"/>
<path d="M0 0 C-1.44950455 3.7910119 -3.15172566 7.3874638 -5 11 C-5.93423645 7.98968256 -6.04449911 7.13349732 -5 4 C-6.89179203 3.3185177 -6.89179203 3.3185177 -9 3 C-9.66 3.66 -10.32 4.32 -11 5 C-10.625 3.0625 -10.625 3.0625 -10 1 C-6.78548731 -0.60725635 -3.56387464 -0.05748185 0 0 Z " fill="#CE1A29" transform="translate(102,82)"/>
<path d="M0 0 C-0.56508523 3.47339053 -1.62643336 4.95006976 -4.3125 7.1875 C-5.20388672 7.95126953 -5.20388672 7.95126953 -6.11328125 8.73046875 C-8.09091784 10.0611766 -9.67100075 10.57327387 -12 11 C-11.06981474 9.53699018 -10.13055973 8.07974421 -9.1875 6.625 C-8.66542969 5.81289062 -8.14335938 5.00078125 -7.60546875 4.1640625 C-5.32439864 1.08933539 -3.86996947 0 0 0 Z " fill="#C2222A" transform="translate(62,81)"/>
<path d="M0 0 C0.33 0.66 0.66 1.32 1 2 C4.465 1.505 4.465 1.505 8 1 C6.8125 2.5 6.8125 2.5 5 4 C2.3125 4.1875 2.3125 4.1875 0 4 C1.36983503 7.16115776 1.9890638 7.9927092 5 10 C2.125 10.125 2.125 10.125 -1 10 C-1.66 9.34 -2.32 8.68 -3 8 C-2.75 4.4375 -2.75 4.4375 -2 1 C-1.34 0.67 -0.68 0.34 0 0 Z " fill="#FED4CF" transform="translate(117,101)"/>
<path d="M0 0 C0.33 1.65 0.66 3.3 1 5 C-0.258125 5.185625 -1.51625 5.37125 -2.8125 5.5625 C-3.87404297 5.71912109 -3.87404297 5.71912109 -4.95703125 5.87890625 C-7 6 -7 6 -10 5 C-10 4.34 -10 3.68 -10 3 C-6.58168085 0.4606772 -4.24223102 -0.3636198 0 0 Z " fill="#E79999" transform="translate(125,97)"/>
<path d="M0 0 C0.33 0 0.66 0 1 0 C1 3.98330067 0.8916326 6.02353977 -1.84765625 9.0234375 C-3.85191803 10.75551558 -5.88048667 12.41157202 -8 14 C-9.32 13.34 -10.64 12.68 -12 12 C-10.6078125 11.1028125 -10.6078125 11.1028125 -9.1875 10.1875 C-4.43233298 6.96831978 -4.43233298 6.96831978 -2 2 C-1.34 2 -0.68 2 0 2 C0 1.34 0 0.68 0 0 Z " fill="#FCC6C5" transform="translate(64,79)"/>
<path d="M0 0 C0 1.32 0 2.64 0 4 C-0.99 4.495 -0.99 4.495 -2 5 C-2 4.01 -2 3.02 -2 2 C-3.94999129 2.19471111 -3.94999129 2.19471111 -6 3 C-6.69937532 4.31647119 -7.36729133 5.65022151 -8 7 C-8.99 7.33 -9.98 7.66 -11 8 C-10.14589713 4.79711425 -9.47392731 2.50661195 -7.1875 0.0625 C-4.38934155 -1.29660553 -2.91979993 -0.89216109 0 0 Z " fill="#FDC8C1" transform="translate(163,98)"/>
<path d="M0 0 C2.97 0.495 2.97 0.495 6 1 C4.80086322 5.39683488 3.5711885 8.09840934 0 11 C-0.66 11 -1.32 11 -2 11 C-1.34 7.37 -0.68 3.74 0 0 Z " fill="#C72631" transform="translate(139,98)"/>
<path d="M0 0 C-0.41317222 4.82034262 -2.38019915 6.90992611 -6 10 C-6.66 10 -7.32 10 -8 10 C-8.3125 7.8125 -8.3125 7.8125 -8 5 C-3.88888889 0 -3.88888889 0 0 0 Z " fill="#C42933" transform="translate(59,99)"/>
<path d="M0 0 C0.66 0.33 1.32 0.66 2 1 C0.93024662 6.48248609 -1.73937361 9.20559305 -5.890625 12.65234375 C-8.69245099 14.44239924 -10.75556675 14.56777582 -14 14 C-11.47642594 10.21463891 -9.12954178 9.73875443 -5 8 C-2.11995248 5.81513637 -1.1861714 3.37602629 0 0 Z " fill="#FDC4BD" transform="translate(131,98)"/>
<path d="M0 0 C0.66 0 1.32 0 2 0 C2.66 1.65 3.32 3.3 4 5 C3.01 5 2.02 5 1 5 C0.87625 5.639375 0.7525 6.27875 0.625 6.9375 C0.41875 7.618125 0.2125 8.29875 0 9 C-3.21451269 10.60725635 -6.43612536 10.05748185 -10 10 C-10 9.34 -10 8.68 -10 8 C-11.32 7.67 -12.64 7.34 -14 7 C-12.125 6.375 -12.125 6.375 -10 6 C-9.34 6.66 -8.68 7.32 -8 8 C-4.90073181 7.67801034 -4.90073181 7.67801034 -2 7 C-1.855625 6.21625 -1.71125 5.4325 -1.5625 4.625 C-1 2 -1 2 0 0 Z " fill="#CE2334" transform="translate(186,103)"/>
<path d="M0 0 C-1.3042328 3.9126984 -2.78934739 6.37310241 -6 9 C-6.99 9 -7.98 9 -9 9 C-8.6507442 5.85669777 -8.16074267 4.20508548 -6.1875 1.6875 C-4 0 -4 0 0 0 Z " fill="#C52635" transform="translate(177,100)"/>
<path d="M0 0 C0.33 0.66 0.66 1.32 1 2 C1.66 2.33 2.32 2.66 3 3 C2.67 4.65 2.34 6.3 2 8 C2.99 8.33 3.98 8.66 5 9 C4.67 9.66 4.34 10.32 4 11 C-0.875 10.125 -0.875 10.125 -2 9 C-1.30232558 2.60465116 -1.30232558 2.60465116 0 0 Z " fill="#F9B9B7" transform="translate(99,101)"/>
<path d="M0 0 C0.33 1.32 0.66 2.64 1 4 C2.32 4 3.64 4 5 4 C5 4.66 5 5.32 5 6 C3.40139351 6.55786268 1.79582095 7.09579568 0.1875 7.625 C-0.70582031 7.92664063 -1.59914063 8.22828125 -2.51953125 8.5390625 C-5 9 -5 9 -8 7 C-7.4225 6.95875 -6.845 6.9175 -6.25 6.875 C-2.86687535 5.55934042 -1.80777315 3.03447636 0 0 Z " fill="#FED6CB" transform="translate(49,88)"/>
<path d="M0 0 C0.70125 0.2475 1.4025 0.495 2.125 0.75 C4.12288438 1.09578768 6.12259451 1.43143549 8.125 1.75 C7.795 2.41 7.465 3.07 7.125 3.75 C5.10677083 3.71744792 3.08854167 3.68489583 1.0703125 3.65234375 C-0.95685404 3.62350758 -0.95685404 3.62350758 -2.875 4.75 C-2.875 6.07 -2.875 7.39 -2.875 8.75 C-4.195 8.09 -5.515 7.43 -6.875 6.75 C-6.49992618 4.03071483 -6.03281339 2.90781339 -4.0625 0.9375 C-1.875 -0.25 -1.875 -0.25 0 0 Z " fill="#FEC6C1" transform="translate(94.875,79.25)"/>
<path d="M0 0 C0.66 0 1.32 0 2 0 C2.144375 1.11375 2.28875 2.2275 2.4375 3.375 C2.78372035 6.82142047 2.78372035 6.82142047 4 9 C2.68 9 1.36 9 0 9 C-0.33 10.65 -0.66 12.3 -1 14 C-1.66 13.67 -2.32 13.34 -3 13 C-2.34 11.35 -1.68 9.7 -1 8 C-1.66 7.67 -2.32 7.34 -3 7 C-2.01 4.69 -1.02 2.38 0 0 Z " fill="#CF1323" transform="translate(95,103)"/>
<path d="M0 0 C0.33 1.32 0.66 2.64 1 4 C-0.07543783 4.98783194 -1.16073217 5.96493943 -2.25 6.9375 C-3.15492187 7.75541016 -3.15492187 7.75541016 -4.078125 8.58984375 C-6.08467305 10.06212799 -7.57002449 10.57529189 -10 11 C-10 10.34 -10 9.68 -10 9 C-10.99 8.67 -11.98 8.34 -13 8 C-12.39671875 7.84144531 -11.7934375 7.68289062 -11.171875 7.51953125 C-5.97557215 6.00254606 -2.9822563 4.79754274 0 0 Z " fill="#FCBAB6" transform="translate(93,111)"/>
<path d="M0 0 C2.97 0.495 2.97 0.495 6 1 C5.67 1.99 5.34 2.98 5 4 C3.68 4 2.36 4 1 4 C0.34 6.64 -0.32 9.28 -1 12 C-1.66 12 -2.32 12 -3 12 C-3.2954439 6.97745369 -2.98514628 4.10457614 0 0 Z " fill="#CE2534" transform="translate(76,100)"/>
<path d="M0 0 C1.32 0.33 2.64 0.66 4 1 C3.34 1.66 2.68 2.32 2 3 C2 3.99 2 4.98 2 6 C2.99 6.66 3.98 7.32 5 8 C3.68 8 2.36 8 1 8 C1 8.66 1 9.32 1 10 C0.01 9.67 -0.98 9.34 -2 9 C-2.25 3.375 -2.25 3.375 0 0 Z " fill="#FAC2BA" transform="translate(77,103)"/>
<path d="M0 0 C1.98 0 3.96 0 6 0 C5.38461538 6.52307692 5.38461538 6.52307692 3.4375 8.9375 C2.963125 9.288125 2.48875 9.63875 2 10 C2.33 8.35 2.66 6.7 3 5 C2.01 5 1.02 5 0 5 C0 3.35 0 1.7 0 0 Z " fill="#D85C62" transform="translate(146,92)"/>
<path d="M0 0 C0.66 0.33 1.32 0.66 2 1 C0.95600254 2.34786992 -0.11102066 3.67792729 -1.1875 5 C-1.77917969 5.7425 -2.37085937 6.485 -2.98046875 7.25 C-5 9 -5 9 -7.73828125 9.25 C-8.48464844 9.1675 -9.23101562 9.085 -10 9 C-10.33 7.68 -10.66 6.36 -11 5 C-10.01 4.34 -9.02 3.68 -8 3 C-8.33 4.65 -8.66 6.3 -9 8 C-8.01 8 -7.02 8 -6 8 C-6 7.01 -6 6.02 -6 5 C-4.68 4.67 -3.36 4.34 -2 4 C-2 3.34 -2 2.68 -2 2 C-1.34 2 -0.68 2 0 2 C0 1.34 0 0.68 0 0 Z " fill="#C21E2F" transform="translate(89,101)"/>
<path d="M0 0 C1.19156292 4.76625167 0.3415946 5.87879351 -2 10 C-2.66 10 -3.32 10 -4 10 C-3.34 11.32 -2.68 12.64 -2 14 C-3.98 14.66 -5.96 15.32 -8 16 C-5.36 10.72 -2.72 5.44 0 0 Z " fill="#C32B36" transform="translate(112,83)"/>
<path d="M0 0 C1 3 1 3 0.00390625 5.26171875 C-0.47175781 6.06222656 -0.94742188 6.86273438 -1.4375 7.6875 C-2.14712891 8.89986328 -2.14712891 8.89986328 -2.87109375 10.13671875 C-3.24363281 10.75160156 -3.61617188 11.36648437 -4 12 C-4.66 12 -5.32 12 -6 12 C-5.52651586 7.8333396 -4.95303159 5.07115285 -2 2 C-1.34 2 -0.68 2 0 2 C0 1.34 0 0.68 0 0 Z " fill="#FDCDC7" transform="translate(106,91)"/>
<path d="M0 0 C0.598125 0.226875 1.19625 0.45375 1.8125 0.6875 C1.1525 1.05875 0.4925 1.43 -0.1875 1.8125 C-2.51541885 3.58385735 -2.51541885 3.58385735 -2.5 6.75 C-2.36825966 9.61771928 -2.36825966 9.61771928 -1.1875 11.6875 C-4.1575 11.1925 -4.1575 11.1925 -7.1875 10.6875 C-5.62123494 3.33810241 -5.62123494 3.33810241 -3.8125 0.625 C-2.1875 -0.3125 -2.1875 -0.3125 0 0 Z " fill="#C81F2D" transform="translate(17.1875,107.3125)"/>
<path d="M0 0 C0 0.66 0 1.32 0 2 C0.66 2.33 1.32 2.66 2 3 C-1.22791555 5.1519437 -2.28400809 5.20086443 -6 5 C-6.33 3.68 -6.66 2.36 -7 1 C-2.25 0 -2.25 0 0 0 Z " fill="#C22931" transform="translate(124,104)"/>
<path d="M0 0 C0.66 1.32 1.32 2.64 2 4 C0.29171079 6.10633718 -0.52148416 6.93801608 -3.26171875 7.29296875 C-4.06222656 7.25816406 -4.86273438 7.22335938 -5.6875 7.1875 C-6.49574219 7.16042969 -7.30398437 7.13335937 -8.13671875 7.10546875 C-8.75160156 7.07066406 -9.36648437 7.03585938 -10 7 C-10 6.34 -10 5.68 -10 5 C-10.99 4.67 -11.98 4.34 -13 4 C-11.68 4 -10.36 4 -9 4 C-8.67 4.33 -8.34 4.66 -8 5 C-5.58517587 5.50059916 -5.58517587 5.50059916 -3 5 C-1.1375562 2.59141286 -1.1375562 2.59141286 0 0 Z " fill="#C61C29" transform="translate(68,106)"/>
<path d="M0 0 C1.89213369 2.38573379 3.02391783 4.07175348 4 7 C1.23723823 6.47731534 -1.3260876 5.89130413 -4 5 C-3.6875 3.0625 -3.6875 3.0625 -3 1 C-2.01 0.67 -1.02 0.34 0 0 Z " fill="#D70D21" transform="translate(44,106)"/>
<path d="M0 0 C-0.99 1.485 -0.99 1.485 -2 3 C-10.57142857 2.14285714 -10.57142857 2.14285714 -14 0 C-9.20699867 -1.39151652 -4.84864218 -0.68662689 0 0 Z " fill="#F9BCB7" transform="translate(66,119)"/>
<path d="M0 0 C0.99 0 1.98 0 3 0 C2.34 2.97 1.68 5.94 1 9 C-0.32 8.34 -1.64 7.68 -3 7 C-2.01 4.69 -1.02 2.38 0 0 Z " fill="#FCC0BC" transform="translate(146,97)"/>
<path d="M0 0 C-0.53109375 0.23074219 -1.0621875 0.46148437 -1.609375 0.69921875 C-6.20167309 2.81938557 -9.11844851 4.67767276 -12 9 C-12.33 7.35 -12.66 5.7 -13 4 C-12.01 4 -11.02 4 -10 4 C-10 3.01 -10 2.02 -10 1 C-6.16112237 -0.48320272 -3.93795909 -1.22419163 0 0 Z " fill="#C71827" transform="translate(39,84)"/>
<path d="M0 0 C1.32 0 2.64 0 4 0 C4 0.66 4 1.32 4 2 C3.34 2 2.68 2 2 2 C1.773125 2.639375 1.54625 3.27875 1.3125 3.9375 C0 6 0 6 -2.625 6.75 C-3.800625 6.87375 -3.800625 6.87375 -5 7 C-4.34 6.67 -3.68 6.34 -3 6 C-2.29788106 4.34795544 -1.63028587 2.68076231 -1 1 C-0.67 0.67 -0.34 0.34 0 0 Z " fill="#FDDDD3" transform="translate(33,110)"/>
<path d="M0 0 C1.32 0 2.64 0 4 0 C4.33 1.65 4.66 3.3 5 5 C4.01 5.495 4.01 5.495 3 6 C3 5.34 3 4.68 3 4 C2.34 4 1.68 4 1 4 C0.67 4.66 0.34 5.32 0 6 C-0.99 5.34 -1.98 4.68 -3 4 C-1.75 2 -1.75 2 0 0 Z " fill="#C72430" transform="translate(110,105)"/>
<path d="M0 0 C0.66 0.33 1.32 0.66 2 1 C1.67 1.33 1.34 1.66 1 2 C1.66 2.33 2.32 2.66 3 3 C3 2.01 3 1.02 3 0 C3.66 0 4.32 0 5 0 C4.3125 2.375 4.3125 2.375 3 5 C0.375 6.3125 0.375 6.3125 -2 7 C-1.125 1.125 -1.125 1.125 0 0 Z " fill="#C1202C" transform="translate(148,102)"/>
<path d="M0 0 C0.598125 0.226875 1.19625 0.45375 1.8125 0.6875 C1.4375 2.625 1.4375 2.625 0.8125 4.6875 C-0.1775 5.1825 -0.1775 5.1825 -1.1875 5.6875 C-1.1875 4.3675 -1.1875 3.0475 -1.1875 1.6875 C-1.8475 1.6875 -2.5075 1.6875 -3.1875 1.6875 C-3.47625 2.491875 -3.765 3.29625 -4.0625 4.125 C-5.1875 6.6875 -5.1875 6.6875 -7.1875 7.6875 C-4.27205882 -0.61029412 -4.27205882 -0.61029412 0 0 Z " fill="#C72D3A" transform="translate(51.1875,95.3125)"/>
<path d="M0 0 C1.65 0 3.3 0 5 0 C4.67 0.99 4.34 1.98 4 3 C1.11788698 3.96070434 -0.69850044 4.10581883 -3.6875 4.0625 C-4.89986328 4.04896484 -4.89986328 4.04896484 -6.13671875 4.03515625 C-7.05904297 4.01775391 -7.05904297 4.01775391 -8 4 C-8 3.67 -8 3.34 -8 3 C-5.36 2.67 -2.72 2.34 0 2 C0 1.34 0 0.68 0 0 Z " fill="#C41E2B" transform="translate(42,90)"/>
<path d="M0 0 C0.66 0.99 1.32 1.98 2 3 C-2.30769231 6.07692308 -2.30769231 6.07692308 -5.8125 5.6875 C-6.534375 5.460625 -7.25625 5.23375 -8 5 C-5.59078295 2.59078295 -3.05665491 1.46187844 0 0 Z " fill="#FABAB7" transform="translate(151,106)"/>
<path d="M0 0 C0.66 1.32 1.32 2.64 2 4 C-3.41538462 7.07692308 -3.41538462 7.07692308 -6.375 6.6875 C-6.91125 6.460625 -7.4475 6.23375 -8 6 C-5.84145761 3.84145761 -3.61978408 2.54500087 -1 1 C-0.67 0.67 -0.34 0.34 0 0 Z " fill="#FBBCB7" transform="translate(174,105)"/>
<path d="M0 0 C-0.33 0.99 -0.66 1.98 -1 3 C-1.804375 3.12375 -2.60875 3.2475 -3.4375 3.375 C-4.7059375 3.684375 -4.7059375 3.684375 -6 4 C-6.33 4.66 -6.66 5.32 -7 6 C-7 5.34 -7 4.68 -7 4 C-7.66 3.67 -8.32 3.34 -9 3 C-5.92807025 0.26939578 -4.09590633 -0.34132553 0 0 Z " fill="#FBBBB8" transform="translate(177,97)"/>
<path d="M0 0 C1.65 0.33 3.3 0.66 5 1 C5 2.32 5 3.64 5 5 C4.01 5.495 4.01 5.495 3 6 C3 5.01 3 4.02 3 3 C2.01 3.33 1.02 3.66 0 4 C-0.33 3.34 -0.66 2.68 -1 2 C-0.67 1.34 -0.34 0.68 0 0 Z " fill="#FBB4B5" transform="translate(158,97)"/>
<path d="M0 0 C2.31 0 4.62 0 7 0 C6.67 0.66 6.34 1.32 6 2 C5.34 2 4.68 2 4 2 C3.67 2.99 3.34 3.98 3 5 C2.01 4.67 1.02 4.34 0 4 C0 2.68 0 1.36 0 0 Z " fill="#C62433" transform="translate(111,98)"/>
<path d="M0 0 C1.4800841 0.11362262 2.95910074 0.24122908 4.4375 0.375 C5.26121094 0.44460937 6.08492187 0.51421875 6.93359375 0.5859375 C7.95646484 0.79089844 7.95646484 0.79089844 9 1 C9.33 1.66 9.66 2.32 10 3 C2.25 3.125 2.25 3.125 0 2 C0 1.34 0 0.68 0 0 Z " fill="#FECECB" transform="translate(47,116)"/>
<path d="M0 0 C0.66 0 1.32 0 2 0 C1.6875 2.375 1.6875 2.375 1 5 C0.01 5.66 -0.98 6.32 -2 7 C-2.99 6.67 -3.98 6.34 -5 6 C-4.67 5.34 -4.34 4.68 -4 4 C-3.34 4 -2.68 4 -2 4 C-1.34 2.68 -0.68 1.36 0 0 Z " fill="#CD1D2C" transform="translate(89,111)"/>
<path d="M0 0 C0.33 1.32 0.66 2.64 1 4 C-0.75 5.5625 -0.75 5.5625 -3 7 C-5.25 6.6875 -5.25 6.6875 -7 6 C-6.67 5.34 -6.34 4.68 -6 4 C-3.4375 3.375 -3.4375 3.375 -1 3 C-0.67 2.01 -0.34 1.02 0 0 Z " fill="#F8B3AF" transform="translate(185,105)"/>
<path d="M0 0 C-0.66 1.32 -1.32 2.64 -2 4 C-2 3.01 -2 2.02 -2 1 C-3.32 1 -4.64 1 -6 1 C-6 1.66 -6 2.32 -6 3 C-6.99 3 -7.98 3 -9 3 C-9.66 3.66 -10.32 4.32 -11 5 C-10.625 3.0625 -10.625 3.0625 -10 1 C-6.78548731 -0.60725635 -3.56387464 -0.05748185 0 0 Z " fill="#BE2938" transform="translate(102,82)"/>
<path d="M0 0 C-0.33 1.32 -0.66 2.64 -1 4 C-5.455 3.01 -5.455 3.01 -10 2 C-10 1.67 -10 1.34 -10 1 C-3.375 0 -3.375 0 0 0 Z " fill="#CD2C39" transform="translate(88,112)"/>
<path d="M0 0 C0.268125 0.598125 0.53625 1.19625 0.8125 1.8125 C1.98493467 3.97224808 3.19369282 5.35790256 5 7 C3.35 7 1.7 7 0 7 C-0.66 5.35 -1.32 3.7 -2 2 C-1.34 1.34 -0.68 0.68 0 0 Z " fill="#FEDED8" transform="translate(154,104)"/>
<path d="M0 0 C-1.32 0.99 -2.64 1.98 -4 3 C-3.67 4.65 -3.34 6.3 -3 8 C-3.99 8 -4.98 8 -6 8 C-6 5.36 -6 2.72 -6 0 C-3 -1 -3 -1 0 0 Z " fill="#C92534" transform="translate(93,80)"/>
<path d="M0 0 C0.6875 1.8125 0.6875 1.8125 1 4 C-0.125 5.75 -0.125 5.75 -2 7 C-4.6875 7.1875 -4.6875 7.1875 -7 7 C-5 4 -5 4 -2 3 C-1.34 2.01 -0.68 1.02 0 0 Z " fill="#FAA3A3" transform="translate(67,105)"/>
<path d="M0 0 C0.66 0.33 1.32 0.66 2 1 C2.34342449 2.33076989 2.67619874 3.66431979 3 5 C3.66 5.66 4.32 6.32 5 7 C3.35 6.67 1.7 6.34 0 6 C0 5.34 0 4.68 0 4 C-0.66 3.67 -1.32 3.34 -2 3 C-1.34 2.01 -0.68 1.02 0 0 Z " fill="#FEDCD3" transform="translate(176,104)"/>
<path d="M0 0 C0.99 0.66 1.98 1.32 3 2 C1.02 2.99 1.02 2.99 -1 4 C-1 4.99 -1 5.98 -1 7 C-1.99 6.67 -2.98 6.34 -4 6 C-2.25 1.125 -2.25 1.125 0 0 Z " fill="#D11324" transform="translate(152,98)"/>
<path d="M0 0 C1.99788438 0.34578768 3.99759451 0.68143549 6 1 C5.67 1.66 5.34 2.32 5 3 C2.03 3 -0.94 3 -4 3 C-4 2.34 -4 1.68 -4 1 C-4.66 0.67 -5.32 0.34 -6 0 C-3.42888996 -1.28555502 -2.73017334 -0.75838148 0 0 Z " fill="#F7B5AF" transform="translate(97,80)"/>
<path d="M0 0 C-0.33 0.99 -0.66 1.98 -1 3 C-3.31 3 -5.62 3 -8 3 C-8 2.34 -8 1.68 -8 1 C-5.10765685 0.17361624 -3.11257569 0 0 0 Z " fill="#FFD5D0" transform="translate(86,110)"/>
<path d="M0 0 C0.66 0 1.32 0 2 0 C4 3 4 3 3.625 5.1875 C3.41875 5.785625 3.2125 6.38375 3 7 C2.34 6.01 1.68 5.02 1 4 C0.01 3.67 -0.98 3.34 -2 3 C-1.34 2.01 -0.68 1.02 0 0 Z " fill="#C81924" transform="translate(43,103)"/>
<path d="M0 0 C0.99 0 1.98 0 3 0 C3.33 0.99 3.66 1.98 4 3 C2.35 4.65 0.7 6.3 -1 8 C-0.67 5.36 -0.34 2.72 0 0 Z " fill="#CF1E31" transform="translate(37,99)"/>
<path d="M0 0 C-1.125 1.5 -1.125 1.5 -3 3 C-6.1875 3.1875 -6.1875 3.1875 -9 3 C-7 0 -7 0 -5.0625 -0.75 C-3 -1 -3 -1 0 0 Z " fill="#FCB4B2" transform="translate(126,109)"/>
<path d="M0 0 C0.66 0 1.32 0 2 0 C2 1.32 2 2.64 2 4 C0.02 4.33 -1.96 4.66 -4 5 C-2.71937515 3.2925002 -1.38232443 1.62626404 0 0 Z " fill="#FCC6BB" transform="translate(125,90)"/>
<path d="M0 0 C0.66 0.33 1.32 0.66 2 1 C1.79375 1.78375 1.5875 2.5675 1.375 3.375 C1.25125 4.24125 1.1275 5.1075 1 6 C1.66 6.66 2.32 7.32 3 8 C1.35 7.67 -0.3 7.34 -2 7 C-1.125 2.25 -1.125 2.25 0 0 Z " fill="#C33742" transform="translate(157,101)"/>
<path d="M0 0 C-0.33 0.66 -0.66 1.32 -1 2 C-3.375 2.75 -3.375 2.75 -6 3 C-6.99 2.34 -7.98 1.68 -9 1 C-5.57367167 -0.61798838 -3.61944899 -1.34053666 0 0 Z " fill="#FDE2D8" transform="translate(50,94)"/>
<path d="M0 0 C2.31 0.33 4.62 0.66 7 1 C7 1.66 7 2.32 7 3 C5.02 3.33 3.04 3.66 1 4 C0.67 2.68 0.34 1.36 0 0 Z " fill="#C91726" transform="translate(155,94)"/>
<path d="M0 0 C0.33 0.66 0.66 1.32 1 2 C1.66 2.33 2.32 2.66 3 3 C0.625 4.5625 0.625 4.5625 -2 6 C-2.66 5.67 -3.32 5.34 -4 5 C-2.68 3.35 -1.36 1.7 0 0 Z " fill="#BB323D" transform="translate(54,86)"/>
<path d="M0 0 C3 1 3 1 4 3 C4.66 3 5.32 3 6 3 C6 3.66 6 4.32 6 5 C4.35 5.33 2.7 5.66 1 6 C0.67 4.02 0.34 2.04 0 0 Z " fill="#CF1122" transform="translate(112,79)"/>
</svg>
