<?xml version="1.0" encoding="UTF-8"?>
<svg version="1.1" xmlns="http://www.w3.org/2000/svg" width="400" height="400">
<path d="M0 0 C3.55793821 3.13673537 7.00458715 6.3796914 10.43798828 9.65185547 C11.26814453 10.41755859 12.09830078 11.18326172 12.95361328 11.97216797 C24.36124099 22.82781369 33.70022144 35.98286653 41.43798828 49.65185547 C41.793125 50.26399902 42.14826172 50.87614258 42.51416016 51.50683594 C52.96824529 69.62936393 59.41420675 89.17145298 63.43798828 109.65185547 C63.80730469 111.50617188 63.80730469 111.50617188 64.18408203 113.39794922 C71.74149608 160.98359771 59.0463307 211.23750767 30.96533203 250.12060547 C25.2978304 257.76307742 18.9962527 264.77043019 12.43798828 271.65185547 C11.67228516 272.48201172 10.90658203 273.31216797 10.11767578 274.16748047 C-17.1870665 302.86059947 -55.8771789 319.84025291 -94.56201172 325.65185547 C-96.35058594 325.93996094 -96.35058594 325.93996094 -98.17529297 326.23388672 C-104.82563679 327.02118829 -111.56113729 326.89633315 -118.24951172 326.90185547 C-118.98333069 326.90253021 -119.71714966 326.90320496 -120.47320557 326.90390015 C-172.00507554 326.82883398 -218.10643625 305.52073087 -254.3190918 269.26782227 C-264.61968729 258.63397644 -273.25960349 246.5053449 -280.56201172 233.65185547 C-281.21556641 232.53037109 -281.86912109 231.40888672 -282.54248047 230.25341797 C-305.88352181 189.18357406 -311.04972888 138.17503071 -298.73974609 92.81274414 C-284.57181553 43.72004813 -252.76072897 4.05048051 -208.56201172 -21.34814453 C-188.72463383 -32.27894459 -166.93572372 -39.11507449 -144.56201172 -42.34814453 C-143.87631104 -42.44981934 -143.19061035 -42.55149414 -142.48413086 -42.65625 C-91.80064988 -49.26176349 -38.62868263 -33.3397289 0 0 Z " fill="#0DADEE" transform="translate(319.56201171875,58.34814453125)"/>
<path d="M0 0 C2.33238757 0.34030473 4.6661216 0.67001719 7 1 C7 1.66 7 2.32 7 3 C7.99 2.67 8.98 2.34 10 2 C10 2.66 10 3.32 10 4 C10.99 3.67 11.98 3.34 13 3 C16.1875 3.9375 16.1875 3.9375 19 5 C19 5.66 19 6.32 19 7 C19.99 6.67 20.98 6.34 22 6 C22 6.66 22 7.32 22 8 C22.70125 8.12375 23.4025 8.2475 24.125 8.375 C27.17656387 9.03838345 30.05340938 9.97211955 33 11 C33 11.66 33 12.32 33 13 C34.98 13.33 36.96 13.66 39 14 C39 14.66 39 15.32 39 16 C39.66 16 40.32 16 41 16 C41 16.66 41 17.32 41 18 C41.763125 18.103125 42.52625 18.20625 43.3125 18.3125 C46.24342658 19.06227192 47.01517162 19.83473267 49 22 C49.99 22.33 50.98 22.66 52 23 C52 23.66 52 24.32 52 25 C52.66 25 53.32 25 54 25 C56.625 27.375 56.625 27.375 59 30 C59 30.66 59 31.32 59 32 C59.66 32 60.32 32 61 32 C61 32.66 61 33.32 61 34 C61.66 34 62.32 34 63 34 C63 34.66 63 35.32 63 36 C63.99 36 64.98 36 66 36 C66.433125 36.9590625 66.433125 36.9590625 66.875 37.9375 C67.82823451 40.15206079 67.82823451 40.15206079 70 41 C70.625 43.5625 70.625 43.5625 71 46 C71.99 46 72.98 46 74 46 C74.33 47.65 74.66 49.3 75 51 C75.66 51 76.32 51 77 51 C77 51.99 77 52.98 77 54 C77.66 54 78.32 54 79 54 C79.33 55.65 79.66 57.3 80 59 C80.99 59.33 81.98 59.66 83 60 C82.67 60.66 82.34 61.32 82 62 C82.66 62.33 83.32 62.66 84 63 C83.67 63.66 83.34 64.32 83 65 C83.66 65.33 84.32 65.66 85 66 C84.67 66.66 84.34 67.32 84 68 C84.66 68 85.32 68 86 68 C87.00736628 70.93502595 88.00460504 73.87339461 89 76.8125 C89.28617188 77.64587891 89.57234375 78.47925781 89.8671875 79.33789062 C90.13789063 80.14033203 90.40859375 80.94277344 90.6875 81.76953125 C91.06455078 82.87711792 91.06455078 82.87711792 91.44921875 84.00708008 C92 86 92 86 92 89 C92.99 89.33 93.98 89.66 95 90 C94.34 90 93.68 90 93 90 C93.12375 91.299375 93.2475 92.59875 93.375 93.9375 C93.47941406 95.03384766 93.47941406 95.03384766 93.5859375 96.15234375 C93.72257813 96.76207031 93.85921875 97.37179688 94 98 C94.66 98.33 95.32 98.66 96 99 C95.34 99 94.68 99 94 99 C94.34227572 101.97065509 94.34227572 101.97065509 95 105 C95.66 105.33 96.32 105.66 97 106 C96.34 106 95.68 106 95 106 C95 107.65 95 109.3 95 111 C95.66 111.33 96.32 111.66 97 112 C96.34 112 95.68 112 95 112 C95.185625 112.94875 95.37125 113.8975 95.5625 114.875 C96 118 96 118 95 120 C95.66 120 96.32 120 97 120 C97 120.66 97 121.32 97 122 C96.34 122 95.68 122 95 122 C94.67 124.64 94.34 127.28 94 130 C94.66 130.33 95.32 130.66 96 131 C95.34 131 94.68 131 94 131 C94 131.66 94 132.32 94 133 C94.66 133.33 95.32 133.66 96 134 C95.34 134 94.68 134 94 134 C93.8453125 135.9490625 93.8453125 135.9490625 93.6875 137.9375 C93.133005 142.92795499 91.71020765 147.30295082 90 152 C89.43288306 153.68595399 88.87023979 155.37342072 88.3125 157.0625 C87.875 158.375 87.4375 159.6875 87 161 C86.34 161 85.68 161 85 161 C85.33 161.99 85.66 162.98 86 164 C85.34 164 84.68 164 84 164 C84.33 164.99 84.66 165.98 85 167 C84.01 167 83.02 167 82 167 C81.67 168.98 81.34 170.96 81 173 C80.34 173 79.68 173 79 173 C78.67 174.65 78.34 176.3 78 178 C77.34 178 76.68 178 76 178 C76 178.99 76 179.98 76 181 C75.34 181 74.68 181 74 181 C73.67 182.65 73.34 184.3 73 186 C72.01 186 71.02 186 70 186 C69.67 187.65 69.34 189.3 69 191 C68.01 191 67.02 191 66 191 C66 191.66 66 192.32 66 193 C65.34 193 64.68 193 64 193 C64 193.66 64 194.32 64 195 C63.34 195 62.68 195 62 195 C62 195.66 62 196.32 62 197 C61.34 197 60.68 197 60 197 C60 197.99 60 198.98 60 200 C59.01 200 58.02 200 57 200 C57 200.66 57 201.32 57 202 C56.34 202 55.68 202 55 202 C55 202.66 55 203.32 55 204 C54.34 204 53.68 204 53 204 C53 204.66 53 205.32 53 206 C52.01 206 51.02 206 50 206 C50 206.66 50 207.32 50 208 C49.34 208 48.68 208 48 208 C48 208.66 48 209.32 48 210 C47.01 210 46.02 210 45 210 C45 210.66 45 211.32 45 212 C43.35 212.33 41.7 212.66 40 213 C40 213.66 40 214.32 40 215 C39.01 215 38.02 215 37 215 C37 215.66 37 216.32 37 217 C34.36 217.66 31.72 218.32 29 219 C29 219.66 29 220.32 29 221 C28.01 221 27.02 221 26 221 C25.67 221.66 25.34 222.32 25 223 C24.34 222.67 23.68 222.34 23 222 C22.67 222.66 22.34 223.32 22 224 C21.34 223.67 20.68 223.34 20 223 C19.67 223.99 19.34 224.98 19 226 C18.34 225.67 17.68 225.34 17 225 C16.67 225.66 16.34 226.32 16 227 C14.35 227 12.7 227 11 227 C10.67 227.66 10.34 228.32 10 229 C10 228.34 10 227.68 10 227 C9.43152344 227.20496094 8.86304688 227.40992188 8.27734375 227.62109375 C3.50036639 229.28785213 -0.94772132 230.58756909 -6 231 C-6.66 230.67 -7.32 230.34 -8 230 C-8.33 230.66 -8.66 231.32 -9 232 C-9 231.34 -9 230.68 -9 230 C-9.66 230 -10.32 230 -11 230 C-11.33 230.99 -11.66 231.98 -12 233 C-12 232.34 -12 231.68 -12 231 C-12.78375 231.165 -13.5675 231.33 -14.375 231.5 C-26.1958951 233.13046829 -38.90044762 231.85412438 -50.0703125 227.66015625 C-52.98300777 226.66370787 -55.95428717 226.36548554 -59 226 C-59.99 225.67 -60.98 225.34 -62 225 C-62 224.34 -62 223.68 -62 223 C-62.62648438 222.86722656 -63.25296875 222.73445312 -63.8984375 222.59765625 C-64.71570313 222.42105469 -65.53296875 222.24445313 -66.375 222.0625 C-67.18710938 221.88847656 -67.99921875 221.71445312 -68.8359375 221.53515625 C-71 221 -71 221 -73 220 C-73 219.34 -73 218.68 -73 218 C-73.66 218 -74.32 218 -75 218 C-75 218.66 -75 219.32 -75 220 C-75.99 219.67 -76.98 219.34 -78 219 C-77.34 219 -76.68 219 -76 219 C-76 218.34 -76 217.68 -76 217 C-76.99 217 -77.98 217 -79 217 C-79 216.34 -79 215.68 -79 215 C-80.65 214.67 -82.3 214.34 -84 214 C-84 213.34 -84 212.68 -84 212 C-84.99 212 -85.98 212 -87 212 C-87 211.34 -87 210.68 -87 210 C-87.66 210 -88.32 210 -89 210 C-89 209.34 -89 208.68 -89 208 C-89.99 208 -90.98 208 -92 208 C-92 207.34 -92 206.68 -92 206 C-92.99 206 -93.98 206 -95 206 C-95 205.34 -95 204.68 -95 204 C-95.66 204 -96.32 204 -97 204 C-97 203.34 -97 202.68 -97 202 C-97.66 202 -98.32 202 -99 202 C-99 201.34 -99 200.68 -99 200 C-99.66 200 -100.32 200 -101 200 C-101 199.34 -101 198.68 -101 198 C-101.99 198 -102.98 198 -104 198 C-104 197.01 -104 196.02 -104 195 C-104.66 195 -105.32 195 -106 195 C-106 194.34 -106 193.68 -106 193 C-106.66 193 -107.32 193 -108 193 C-108 192.34 -108 191.68 -108 191 C-108.66 191 -109.32 191 -110 191 C-110 190.01 -110 189.02 -110 188 C-110.66 188 -111.32 188 -112 188 C-112 187.34 -112 186.68 -112 186 C-112.66 186 -113.32 186 -114 186 C-114 185.01 -114 184.02 -114 183 C-114.66 183 -115.32 183 -116 183 C-116 182.34 -116 181.68 -116 181 C-116.66 181 -117.32 181 -118 181 C-118 180.01 -118 179.02 -118 178 C-118.66 178 -119.32 178 -120 178 C-120.33 176.35 -120.66 174.7 -121 173 C-121.66 173 -122.32 173 -123 173 C-123 172.01 -123 171.02 -123 170 C-123.66 169.67 -124.32 169.34 -125 169 C-124.505 168.01 -124.505 168.01 -124 167 C-124.66 167 -125.32 167 -126 167 C-127.28556666 163.19268645 -128.56721183 159.38407809 -129.84521484 155.57421875 C-130.28065756 154.27795677 -130.71717592 152.98205562 -131.15478516 151.68652344 C-131.78309327 149.82581959 -132.40723259 147.96370969 -133.03125 146.1015625 C-133.40830078 144.98088379 -133.78535156 143.86020508 -134.17382812 142.70556641 C-135 140 -135 140 -135 138 C-135.66 138 -136.32 138 -137 138 C-137 137.34 -137 136.68 -137 136 C-136.34 136 -135.68 136 -135 136 C-135.5259375 134.6696875 -135.5259375 134.6696875 -136.0625 133.3125 C-137.01755602 129.93796874 -136.97151132 128.30313848 -136 125 C-136.66 124.67 -137.32 124.34 -138 124 C-138.38297872 104.76595745 -138.38297872 104.76595745 -136 100 C-136.66 99.67 -137.32 99.34 -138 99 C-137.34 99 -136.68 99 -136 99 C-135.91363281 97.98421875 -135.82726562 96.9684375 -135.73828125 95.921875 C-134.84796848 86.80200445 -132.97329333 79.34806926 -129 71 C-128.67 70.01 -128.34 69.02 -128 68 C-127.34 68 -126.68 68 -126 68 C-125.9175 67.360625 -125.835 66.72125 -125.75 66.0625 C-124.1831979 59.66472476 -121.83245803 54.52068654 -117 50 C-115.93988057 48.03120677 -114.92529151 46.03564133 -114 44 C-113.34 44 -112.68 44 -112 44 C-112 43.01 -112 42.02 -112 41 C-111.34 41 -110.68 41 -110 41 C-110 40.34 -110 39.68 -110 39 C-109.01 38.34 -108.02 37.68 -107 37 C-106.67 36.01 -106.34 35.02 -106 34 C-105.01 34 -104.02 34 -103 34 C-103 33.34 -103 32.68 -103 32 C-102.34 32 -101.68 32 -101 32 C-101 31.34 -101 30.68 -101 30 C-100.34 30 -99.68 30 -99 30 C-99 29.34 -99 28.68 -99 28 C-98.195625 27.731875 -97.39125 27.46375 -96.5625 27.1875 C-95.2940625 26.5996875 -95.2940625 26.5996875 -94 26 C-93.505 24.515 -93.505 24.515 -93 23 C-90.9375 22.3125 -90.9375 22.3125 -89 22 C-89 21.34 -89 20.68 -89 20 C-88.01 20 -87.02 20 -86 20 C-86 19.34 -86 18.68 -86 18 C-83.09451118 15.95830515 -81.59857954 15 -78 15 C-78 14.34 -78 13.68 -78 13 C-76.73308493 12.32591692 -75.46129251 11.66099503 -74.1875 11 C-73.47980469 10.62875 -72.77210938 10.2575 -72.04296875 9.875 C-70 9 -70 9 -67 9 C-66.67 8.34 -66.34 7.68 -66 7 C-65.01 7.495 -65.01 7.495 -64 8 C-64 7.34 -64 6.68 -64 6 C-43.39806665 -1.48989701 -21.54125128 -3.42595064 0 0 Z " fill="#02AAED" transform="translate(221,85)"/>
<path d="M0 0 C3.55793821 3.13673537 7.00458715 6.3796914 10.43798828 9.65185547 C11.26814453 10.41755859 12.09830078 11.18326172 12.95361328 11.97216797 C24.36124099 22.82781369 33.70022144 35.98286653 41.43798828 49.65185547 C41.793125 50.26399902 42.14826172 50.87614258 42.51416016 51.50683594 C52.96824529 69.62936393 59.41420675 89.17145298 63.43798828 109.65185547 C63.80730469 111.50617188 63.80730469 111.50617188 64.18408203 113.39794922 C71.74149608 160.98359771 59.0463307 211.23750767 30.96533203 250.12060547 C25.2978304 257.76307742 18.9962527 264.77043019 12.43798828 271.65185547 C11.67228516 272.48201172 10.90658203 273.31216797 10.11767578 274.16748047 C-17.1870665 302.86059947 -55.8771789 319.84025291 -94.56201172 325.65185547 C-96.35058594 325.93996094 -96.35058594 325.93996094 -98.17529297 326.23388672 C-104.82563679 327.02118829 -111.56113729 326.89633315 -118.24951172 326.90185547 C-118.98333069 326.90253021 -119.71714966 326.90320496 -120.47320557 326.90390015 C-172.00507554 326.82883398 -218.10643625 305.52073087 -254.3190918 269.26782227 C-264.61968729 258.63397644 -273.25960349 246.5053449 -280.56201172 233.65185547 C-281.21556641 232.53037109 -281.86912109 231.40888672 -282.54248047 230.25341797 C-305.88352181 189.18357406 -311.04972888 138.17503071 -298.73974609 92.81274414 C-284.57181553 43.72004813 -252.76072897 4.05048051 -208.56201172 -21.34814453 C-188.72463383 -32.27894459 -166.93572372 -39.11507449 -144.56201172 -42.34814453 C-143.87631104 -42.44981934 -143.19061035 -42.55149414 -142.48413086 -42.65625 C-91.80064988 -49.26176349 -38.62868263 -33.3397289 0 0 Z M-125.56201172 -32.34814453 C-125.56201172 -31.68814453 -125.56201172 -31.02814453 -125.56201172 -30.34814453 C-126.10986328 -30.37134766 -126.65771484 -30.39455078 -127.22216797 -30.41845703 C-135.86903763 -30.61529634 -145.14658948 -30.15827185 -153.39013672 -27.40283203 C-156.0567476 -26.51615107 -158.49085127 -25.95242762 -161.24169922 -25.44970703 C-166.90318644 -24.36496014 -172.2461581 -22.60299002 -177.68701172 -20.72314453 C-178.64349609 -20.39830078 -179.59998047 -20.07345703 -180.58544922 -19.73876953 C-182.91292449 -18.94742794 -185.23831622 -18.15050254 -187.56201172 -17.34814453 C-187.56201172 -16.68814453 -187.56201172 -16.02814453 -187.56201172 -15.34814453 C-190.20201172 -14.68814453 -192.84201172 -14.02814453 -195.56201172 -13.34814453 C-195.56201172 -12.68814453 -195.56201172 -12.02814453 -195.56201172 -11.34814453 C-197.54201172 -11.01814453 -199.52201172 -10.68814453 -201.56201172 -10.34814453 C-201.56201172 -9.68814453 -201.56201172 -9.02814453 -201.56201172 -8.34814453 C-203.21201172 -8.01814453 -204.86201172 -7.68814453 -206.56201172 -7.34814453 C-206.56201172 -6.68814453 -206.56201172 -6.02814453 -206.56201172 -5.34814453 C-207.32513672 -5.22439453 -208.08826172 -5.10064453 -208.87451172 -4.97314453 C-211.76468308 -4.46711661 -211.76468308 -4.46711661 -214.56201172 -2.34814453 C-214.56201172 -1.68814453 -214.56201172 -1.02814453 -214.56201172 -0.34814453 C-215.88201172 -0.01814453 -217.20201172 0.31185547 -218.56201172 0.65185547 C-218.56201172 1.31185547 -218.56201172 1.97185547 -218.56201172 2.65185547 C-219.34576172 2.96123047 -220.12951172 3.27060547 -220.93701172 3.58935547 C-223.485313 4.58060585 -223.485313 4.58060585 -225.56201172 5.65185547 C-225.56201172 6.31185547 -225.56201172 6.97185547 -225.56201172 7.65185547 C-226.16013672 7.94060547 -226.75826172 8.22935547 -227.37451172 8.52685547 C-229.75528964 9.69927573 -229.75528964 9.69927573 -232.56201172 11.65185547 C-232.56201172 12.31185547 -232.56201172 12.97185547 -232.56201172 13.65185547 C-233.22201172 13.65185547 -233.88201172 13.65185547 -234.56201172 13.65185547 C-234.56201172 14.31185547 -234.56201172 14.97185547 -234.56201172 15.65185547 C-235.55201172 15.65185547 -236.54201172 15.65185547 -237.56201172 15.65185547 C-237.56201172 16.31185547 -237.56201172 16.97185547 -237.56201172 17.65185547 C-238.22201172 17.65185547 -238.88201172 17.65185547 -239.56201172 17.65185547 C-239.56201172 18.31185547 -239.56201172 18.97185547 -239.56201172 19.65185547 C-240.22201172 19.65185547 -240.88201172 19.65185547 -241.56201172 19.65185547 C-243.24933449 21.63445973 -244.91567229 23.63508967 -246.56201172 25.65185547 C-247.55201172 26.14685547 -247.55201172 26.14685547 -248.56201172 26.65185547 C-248.56201172 27.64185547 -248.56201172 28.63185547 -248.56201172 29.65185547 C-249.22201172 29.65185547 -249.88201172 29.65185547 -250.56201172 29.65185547 C-250.56201172 30.31185547 -250.56201172 30.97185547 -250.56201172 31.65185547 C-251.22201172 31.65185547 -251.88201172 31.65185547 -252.56201172 31.65185547 C-252.56201172 32.64185547 -252.56201172 33.63185547 -252.56201172 34.65185547 C-253.22201172 34.65185547 -253.88201172 34.65185547 -254.56201172 34.65185547 C-254.56201172 35.31185547 -254.56201172 35.97185547 -254.56201172 36.65185547 C-255.22201172 36.65185547 -255.88201172 36.65185547 -256.56201172 36.65185547 C-257.3547632 38.06791537 -258.14616484 39.484731 -258.93701172 40.90185547 C-259.37787109 41.69076172 -259.81873047 42.47966797 -260.27294922 43.29248047 C-261.41948995 45.39099743 -262.50850724 47.50546316 -263.56201172 49.65185547 C-264.22201172 49.65185547 -264.88201172 49.65185547 -265.56201172 49.65185547 C-266.2360948 50.91877054 -266.90101668 52.19056295 -267.56201172 53.46435547 C-267.93326172 54.17205078 -268.30451172 54.87974609 -268.68701172 55.60888672 C-269.7588653 57.74106276 -269.7588653 57.74106276 -269.56201172 60.65185547 C-270.22201172 60.65185547 -270.88201172 60.65185547 -271.56201172 60.65185547 C-272.56871212 62.91992751 -273.56752938 65.19093301 -274.56201172 67.46435547 C-274.84818359 68.10695313 -275.13435547 68.74955078 -275.42919922 69.41162109 C-276.69912213 72.32942015 -277.56201172 74.43451261 -277.56201172 77.65185547 C-278.22201172 77.65185547 -278.88201172 77.65185547 -279.56201172 77.65185547 C-284.36980627 91.43542389 -284.36980627 91.43542389 -287.56201172 105.65185547 C-287.94451178 107.61267156 -288.32718855 109.57345463 -288.71264648 111.53369141 C-291.75692875 122.76911129 -291.75692875 122.76911129 -290.56201172 133.65185547 C-291.22201172 133.98185547 -291.88201172 134.31185547 -292.56201172 134.65185547 C-291.90201172 134.65185547 -291.24201172 134.65185547 -290.56201172 134.65185547 C-290.80951172 135.82748047 -290.80951172 135.82748047 -291.06201172 137.02685547 C-292.17613782 145.1042697 -291.41933247 152.56751901 -289.99951172 160.57373047 C-289.56304118 163.64461248 -289.48783079 166.55480161 -289.56201172 169.65185547 C-288.90201172 169.65185547 -288.24201172 169.65185547 -287.56201172 169.65185547 C-287.89201172 170.64185547 -288.22201172 171.63185547 -288.56201172 172.65185547 C-288.09341601 175.34111723 -288.09341601 175.34111723 -287.24951172 178.27685547 C-285.89531455 183.38304847 -284.68057048 188.48927657 -283.56201172 193.65185547 C-282.90201172 193.65185547 -282.24201172 193.65185547 -281.56201172 193.65185547 C-281.89201172 194.64185547 -282.22201172 195.63185547 -282.56201172 196.65185547 C-281.90201172 196.65185547 -281.24201172 196.65185547 -280.56201172 196.65185547 C-280.89201172 197.64185547 -281.22201172 198.63185547 -281.56201172 199.65185547 C-280.90201172 199.65185547 -280.24201172 199.65185547 -279.56201172 199.65185547 C-279.42923828 200.26673828 -279.29646484 200.88162109 -279.15966797 201.51513672 C-278.98306641 202.32337891 -278.80646484 203.13162109 -278.62451172 203.96435547 C-278.45048828 204.76486328 -278.27646484 205.56537109 -278.09716797 206.39013672 C-277.56315012 208.79725647 -277.56315012 208.79725647 -276.56201172 211.65185547 C-275.90201172 211.65185547 -275.24201172 211.65185547 -274.56201172 211.65185547 C-274.89201172 212.64185547 -275.22201172 213.63185547 -275.56201172 214.65185547 C-274.90201172 214.65185547 -274.24201172 214.65185547 -273.56201172 214.65185547 C-273.89201172 215.64185547 -274.22201172 216.63185547 -274.56201172 217.65185547 C-273.57201172 217.65185547 -272.58201172 217.65185547 -271.56201172 217.65185547 C-271.56201172 218.31185547 -271.56201172 218.97185547 -271.56201172 219.65185547 C-272.22201172 219.98185547 -272.88201172 220.31185547 -273.56201172 220.65185547 C-272.57201172 220.65185547 -271.58201172 220.65185547 -270.56201172 220.65185547 C-270.23201172 222.30185547 -269.90201172 223.95185547 -269.56201172 225.65185547 C-268.90201172 225.65185547 -268.24201172 225.65185547 -267.56201172 225.65185547 C-267.23201172 227.63185547 -266.90201172 229.61185547 -266.56201172 231.65185547 C-265.90201172 231.65185547 -265.24201172 231.65185547 -264.56201172 231.65185547 C-264.56201172 232.31185547 -264.56201172 232.97185547 -264.56201172 233.65185547 C-263.90201172 233.65185547 -263.24201172 233.65185547 -262.56201172 233.65185547 C-262.56201172 234.64185547 -262.56201172 235.63185547 -262.56201172 236.65185547 C-261.90201172 236.65185547 -261.24201172 236.65185547 -260.56201172 236.65185547 C-259.90201172 238.30185547 -259.24201172 239.95185547 -258.56201172 241.65185547 C-257.90201172 241.65185547 -257.24201172 241.65185547 -256.56201172 241.65185547 C-256.89201172 242.64185547 -257.22201172 243.63185547 -257.56201172 244.65185547 C-256.57201172 244.65185547 -255.58201172 244.65185547 -254.56201172 244.65185547 C-254.23201172 246.30185547 -253.90201172 247.95185547 -253.56201172 249.65185547 C-252.57201172 249.65185547 -251.58201172 249.65185547 -250.56201172 249.65185547 C-250.23201172 251.30185547 -249.90201172 252.95185547 -249.56201172 254.65185547 C-248.57201172 254.65185547 -247.58201172 254.65185547 -246.56201172 254.65185547 C-246.56201172 255.31185547 -246.56201172 255.97185547 -246.56201172 256.65185547 C-245.90201172 256.65185547 -245.24201172 256.65185547 -244.56201172 256.65185547 C-244.56201172 257.31185547 -244.56201172 257.97185547 -244.56201172 258.65185547 C-243.90201172 258.65185547 -243.24201172 258.65185547 -242.56201172 258.65185547 C-242.56201172 259.64185547 -242.56201172 260.63185547 -242.56201172 261.65185547 C-241.90201172 261.65185547 -241.24201172 261.65185547 -240.56201172 261.65185547 C-240.56201172 262.31185547 -240.56201172 262.97185547 -240.56201172 263.65185547 C-239.57201172 263.65185547 -238.58201172 263.65185547 -237.56201172 263.65185547 C-237.56201172 264.31185547 -237.56201172 264.97185547 -237.56201172 265.65185547 C-236.90201172 265.65185547 -236.24201172 265.65185547 -235.56201172 265.65185547 C-235.56201172 266.31185547 -235.56201172 266.97185547 -235.56201172 267.65185547 C-234.90201172 267.65185547 -234.24201172 267.65185547 -233.56201172 267.65185547 C-233.56201172 268.31185547 -233.56201172 268.97185547 -233.56201172 269.65185547 C-232.90201172 269.65185547 -232.24201172 269.65185547 -231.56201172 269.65185547 C-231.56201172 270.64185547 -231.56201172 271.63185547 -231.56201172 272.65185547 C-229.91201172 272.98185547 -228.26201172 273.31185547 -226.56201172 273.65185547 C-226.56201172 274.64185547 -226.56201172 275.63185547 -226.56201172 276.65185547 C-224.91201172 276.98185547 -223.26201172 277.31185547 -221.56201172 277.65185547 C-221.56201172 278.31185547 -221.56201172 278.97185547 -221.56201172 279.65185547 C-220.57201172 279.65185547 -219.58201172 279.65185547 -218.56201172 279.65185547 C-218.56201172 280.31185547 -218.56201172 280.97185547 -218.56201172 281.65185547 C-217.57201172 281.65185547 -216.58201172 281.65185547 -215.56201172 281.65185547 C-215.56201172 282.31185547 -215.56201172 282.97185547 -215.56201172 283.65185547 C-214.90201172 283.65185547 -214.24201172 283.65185547 -213.56201172 283.65185547 C-213.56201172 284.31185547 -213.56201172 284.97185547 -213.56201172 285.65185547 C-212.10575722 286.32305096 -210.64693305 286.98867354 -209.18701172 287.65185547 C-208.37490234 288.02310547 -207.56279297 288.39435547 -206.72607422 288.77685547 C-204.64202739 289.7768056 -204.64202739 289.7768056 -202.56201172 289.65185547 C-202.06701172 291.13685547 -202.06701172 291.13685547 -201.56201172 292.65185547 C-200.90201172 292.32185547 -200.24201172 291.99185547 -199.56201172 291.65185547 C-199.23201172 292.31185547 -198.90201172 292.97185547 -198.56201172 293.65185547 C-197.90201172 293.32185547 -197.24201172 292.99185547 -196.56201172 292.65185547 C-196.56201172 293.31185547 -196.56201172 293.97185547 -196.56201172 294.65185547 C-189.47071623 297.98458217 -182.21358504 300.65658567 -174.81201172 303.21435547 C-173.72146484 303.60042969 -172.63091797 303.98650391 -171.50732422 304.38427734 C-160.45140378 308.21987149 -149.48717506 310.90305822 -137.81201172 311.83935547 C-136.87969727 311.91903564 -135.94738281 311.99871582 -134.98681641 312.08081055 C-120.97473676 313.93746441 -120.97473676 313.93746441 -107.56201172 311.65185547 C-107.23201172 312.31185547 -106.90201172 312.97185547 -106.56201172 313.65185547 C-106.56201172 312.99185547 -106.56201172 312.33185547 -106.56201172 311.65185547 C-104.58201172 311.98185547 -102.60201172 312.31185547 -100.56201172 312.65185547 C-100.56201172 311.99185547 -100.56201172 311.33185547 -100.56201172 310.65185547 C-99.57201172 310.98185547 -98.58201172 311.31185547 -97.56201172 311.65185547 C-95.22528188 311.34323077 -92.89208082 311.00728974 -90.56201172 310.65185547 C-88.56234222 310.61549784 -86.5614171 310.60308948 -84.56201172 310.65185547 C-84.56201172 309.99185547 -84.56201172 309.33185547 -84.56201172 308.65185547 C-82.58201172 308.65185547 -80.60201172 308.65185547 -78.56201172 308.65185547 C-78.56201172 307.99185547 -78.56201172 307.33185547 -78.56201172 306.65185547 C-77.57201172 306.98185547 -76.58201172 307.31185547 -75.56201172 307.65185547 C-72.77589284 306.92017646 -70.10001229 306.12602946 -67.37451172 305.21435547 C-66.62492188 304.97136719 -65.87533203 304.72837891 -65.10302734 304.47802734 C-63.25343671 303.87720491 -61.40736845 303.26555868 -59.56201172 302.65185547 C-59.56201172 301.99185547 -59.56201172 301.33185547 -59.56201172 300.65185547 C-56.92201172 300.32185547 -54.28201172 299.99185547 -51.56201172 299.65185547 C-51.56201172 298.99185547 -51.56201172 298.33185547 -51.56201172 297.65185547 C-49.58201172 297.32185547 -47.60201172 296.99185547 -45.56201172 296.65185547 C-45.56201172 295.99185547 -45.56201172 295.33185547 -45.56201172 294.65185547 C-44.57201172 294.98185547 -43.58201172 295.31185547 -42.56201172 295.65185547 C-42.17013672 295.19810547 -41.77826172 294.74435547 -41.37451172 294.27685547 C-39.25368685 292.37542628 -37.23158937 291.58981518 -34.56201172 290.65185547 C-34.56201172 289.99185547 -34.56201172 289.33185547 -34.56201172 288.65185547 C-33.57201172 288.98185547 -32.58201172 289.31185547 -31.56201172 289.65185547 C-31.56201172 288.99185547 -31.56201172 288.33185547 -31.56201172 287.65185547 C-30.57201172 287.65185547 -29.58201172 287.65185547 -28.56201172 287.65185547 C-28.56201172 286.99185547 -28.56201172 286.33185547 -28.56201172 285.65185547 C-27.90201172 285.65185547 -27.24201172 285.65185547 -26.56201172 285.65185547 C-26.56201172 284.99185547 -26.56201172 284.33185547 -26.56201172 283.65185547 C-24.58201172 283.32185547 -22.60201172 282.99185547 -20.56201172 282.65185547 C-20.56201172 281.99185547 -20.56201172 281.33185547 -20.56201172 280.65185547 C-19.90201172 280.65185547 -19.24201172 280.65185547 -18.56201172 280.65185547 C-18.56201172 279.99185547 -18.56201172 279.33185547 -18.56201172 278.65185547 C-17.57201172 278.65185547 -16.58201172 278.65185547 -15.56201172 278.65185547 C-15.56201172 277.99185547 -15.56201172 277.33185547 -15.56201172 276.65185547 C-14.90201172 276.65185547 -14.24201172 276.65185547 -13.56201172 276.65185547 C-13.56201172 275.99185547 -13.56201172 275.33185547 -13.56201172 274.65185547 C-12.57201172 274.65185547 -11.58201172 274.65185547 -10.56201172 274.65185547 C-10.56201172 273.99185547 -10.56201172 273.33185547 -10.56201172 272.65185547 C-9.90201172 272.65185547 -9.24201172 272.65185547 -8.56201172 272.65185547 C-8.56201172 271.99185547 -8.56201172 271.33185547 -8.56201172 270.65185547 C-7.57201172 270.65185547 -6.58201172 270.65185547 -5.56201172 270.65185547 C-5.56201172 269.99185547 -5.56201172 269.33185547 -5.56201172 268.65185547 C-4.90201172 268.65185547 -4.24201172 268.65185547 -3.56201172 268.65185547 C-3.56201172 267.66185547 -3.56201172 266.67185547 -3.56201172 265.65185547 C-2.24201172 264.99185547 -0.92201172 264.33185547 0.43798828 263.65185547 C0.43798828 262.99185547 0.43798828 262.33185547 0.43798828 261.65185547 C1.42798828 261.65185547 2.41798828 261.65185547 3.43798828 261.65185547 C3.43798828 260.99185547 3.43798828 260.33185547 3.43798828 259.65185547 C4.09798828 259.65185547 4.75798828 259.65185547 5.43798828 259.65185547 C5.43798828 258.66185547 5.43798828 257.67185547 5.43798828 256.65185547 C6.09798828 256.65185547 6.75798828 256.65185547 7.43798828 256.65185547 C7.43798828 255.99185547 7.43798828 255.33185547 7.43798828 254.65185547 C8.09798828 254.65185547 8.75798828 254.65185547 9.43798828 254.65185547 C12.46316738 251.59627124 12.46316738 251.59627124 13.43798828 247.65185547 C14.42798828 247.65185547 15.41798828 247.65185547 16.43798828 247.65185547 C18.63937488 243.84758054 18.63937488 243.84758054 19.43798828 239.65185547 C20.09798828 239.65185547 20.75798828 239.65185547 21.43798828 239.65185547 C21.43798828 238.66185547 21.43798828 237.67185547 21.43798828 236.65185547 C22.09798828 236.65185547 22.75798828 236.65185547 23.43798828 236.65185547 C23.43798828 235.99185547 23.43798828 235.33185547 23.43798828 234.65185547 C24.09798828 234.65185547 24.75798828 234.65185547 25.43798828 234.65185547 C25.76798828 232.67185547 26.09798828 230.69185547 26.43798828 228.65185547 C27.09798828 228.65185547 27.75798828 228.65185547 28.43798828 228.65185547 C28.43798828 227.99185547 28.43798828 227.33185547 28.43798828 226.65185547 C29.09798828 226.65185547 29.75798828 226.65185547 30.43798828 226.65185547 C31.09798828 224.01185547 31.75798828 221.37185547 32.43798828 218.65185547 C33.09798828 218.65185547 33.75798828 218.65185547 34.43798828 218.65185547 C34.94358736 217.21631522 35.44226318 215.77833527 35.93798828 214.33935547 C36.21642578 213.53884766 36.49486328 212.73833984 36.78173828 211.91357422 C37.57731936 209.56416125 37.57731936 209.56416125 37.43798828 206.65185547 C38.42798828 206.32185547 39.41798828 205.99185547 40.43798828 205.65185547 C40.43798828 204.00185547 40.43798828 202.35185547 40.43798828 200.65185547 C41.42798828 200.32185547 42.41798828 199.99185547 43.43798828 199.65185547 C42.77798828 199.65185547 42.11798828 199.65185547 41.43798828 199.65185547 C41.43798828 198.99185547 41.43798828 198.33185547 41.43798828 197.65185547 C42.09798828 197.32185547 42.75798828 196.99185547 43.43798828 196.65185547 C43.10798828 195.99185547 42.77798828 195.33185547 42.43798828 194.65185547 C43.42798828 194.32185547 44.41798828 193.99185547 45.43798828 193.65185547 C44.77798828 193.65185547 44.11798828 193.65185547 43.43798828 193.65185547 C43.76798828 192.88873047 44.09798828 192.12560547 44.43798828 191.33935547 C45.61235514 188.66116412 45.61235514 188.66116412 45.43798828 185.65185547 C46.09798828 185.32185547 46.75798828 184.99185547 47.43798828 184.65185547 C48.07180991 182.24090715 48.57241144 179.9135303 49.00048828 177.46435547 C49.13052246 176.74981201 49.26055664 176.03526855 49.39453125 175.29907227 C50.41453311 169.41879405 50.93277323 163.6027604 51.22705078 157.64013672 C51.43798828 154.65185547 51.43798828 154.65185547 52.02392578 151.88232422 C52.67509949 149.62361712 52.67509949 149.62361712 51.43798828 147.65185547 C52.09798828 147.32185547 52.75798828 146.99185547 53.43798828 146.65185547 C52.77798828 146.65185547 52.11798828 146.65185547 51.43798828 146.65185547 C51.60814453 145.84490234 51.77830078 145.03794922 51.95361328 144.20654297 C52.5293053 139.98170639 52.42567964 136.02294635 52.18798828 131.77685547 C52.12236694 130.53415894 52.12236694 130.53415894 52.05541992 129.26635742 C51.62380392 122.38875017 50.51623806 115.7978413 49.05908203 109.06982422 C48.47222659 105.84027382 48.32272507 102.92432825 48.43798828 99.65185547 C47.77798828 99.65185547 47.11798828 99.65185547 46.43798828 99.65185547 C46.10798828 96.68185547 45.77798828 93.71185547 45.43798828 90.65185547 C44.77798828 90.65185547 44.11798828 90.65185547 43.43798828 90.65185547 C43.76798828 89.66185547 44.09798828 88.67185547 44.43798828 87.65185547 C43.77798828 87.65185547 43.11798828 87.65185547 42.43798828 87.65185547 C42.76798828 86.66185547 43.09798828 85.67185547 43.43798828 84.65185547 C42.77798828 84.65185547 42.11798828 84.65185547 41.43798828 84.65185547 C41.31681641 84.07177734 41.19564453 83.49169922 41.07080078 82.89404297 C40.10063354 78.37157105 39.00401046 74.01434581 37.43798828 69.65185547 C36.77798828 69.65185547 36.11798828 69.65185547 35.43798828 69.65185547 C35.76798828 68.66185547 36.09798828 67.67185547 36.43798828 66.65185547 C35.77798828 66.65185547 35.11798828 66.65185547 34.43798828 66.65185547 C34.76798828 65.66185547 35.09798828 64.67185547 35.43798828 63.65185547 C34.44798828 63.65185547 33.45798828 63.65185547 32.43798828 63.65185547 C32.10798828 62.00185547 31.77798828 60.35185547 31.43798828 58.65185547 C30.77798828 58.65185547 30.11798828 58.65185547 29.43798828 58.65185547 C29.76798828 57.66185547 30.09798828 56.67185547 30.43798828 55.65185547 C29.77798828 55.65185547 29.11798828 55.65185547 28.43798828 55.65185547 C28.43798828 54.66185547 28.43798828 53.67185547 28.43798828 52.65185547 C27.77798828 52.65185547 27.11798828 52.65185547 26.43798828 52.65185547 C26.43798828 51.66185547 26.43798828 50.67185547 26.43798828 49.65185547 C25.77798828 49.65185547 25.11798828 49.65185547 24.43798828 49.65185547 C24.10798828 48.00185547 23.77798828 46.35185547 23.43798828 44.65185547 C22.77798828 44.65185547 22.11798828 44.65185547 21.43798828 44.65185547 C21.43798828 43.99185547 21.43798828 43.33185547 21.43798828 42.65185547 C20.77798828 42.65185547 20.11798828 42.65185547 19.43798828 42.65185547 C19.43798828 41.66185547 19.43798828 40.67185547 19.43798828 39.65185547 C18.77798828 39.65185547 18.11798828 39.65185547 17.43798828 39.65185547 C16.77798828 38.00185547 16.11798828 36.35185547 15.43798828 34.65185547 C14.77798828 34.65185547 14.11798828 34.65185547 13.43798828 34.65185547 C12.77798828 33.00185547 12.11798828 31.35185547 11.43798828 29.65185547 C10.77798828 29.65185547 10.11798828 29.65185547 9.43798828 29.65185547 C9.43798828 28.66185547 9.43798828 27.67185547 9.43798828 26.65185547 C8.77798828 26.65185547 8.11798828 26.65185547 7.43798828 26.65185547 C7.43798828 25.99185547 7.43798828 25.33185547 7.43798828 24.65185547 C6.77798828 24.65185547 6.11798828 24.65185547 5.43798828 24.65185547 C5.43798828 23.99185547 5.43798828 23.33185547 5.43798828 22.65185547 C4.77798828 22.65185547 4.11798828 22.65185547 3.43798828 22.65185547 C3.43798828 21.99185547 3.43798828 21.33185547 3.43798828 20.65185547 C2.77798828 20.65185547 2.11798828 20.65185547 1.43798828 20.65185547 C1.43798828 19.66185547 1.43798828 18.67185547 1.43798828 17.65185547 C0.44798828 17.65185547 -0.54201172 17.65185547 -1.56201172 17.65185547 C-1.56201172 16.99185547 -1.56201172 16.33185547 -1.56201172 15.65185547 C-2.22201172 15.65185547 -2.88201172 15.65185547 -3.56201172 15.65185547 C-3.56201172 14.99185547 -3.56201172 14.33185547 -3.56201172 13.65185547 C-4.55201172 13.65185547 -5.54201172 13.65185547 -6.56201172 13.65185547 C-6.56201172 12.99185547 -6.56201172 12.33185547 -6.56201172 11.65185547 C-7.22201172 11.65185547 -7.88201172 11.65185547 -8.56201172 11.65185547 C-8.56201172 10.99185547 -8.56201172 10.33185547 -8.56201172 9.65185547 C-9.22201172 9.65185547 -9.88201172 9.65185547 -10.56201172 9.65185547 C-10.56201172 8.99185547 -10.56201172 8.33185547 -10.56201172 7.65185547 C-11.55201172 7.65185547 -12.54201172 7.65185547 -13.56201172 7.65185547 C-13.56201172 6.99185547 -13.56201172 6.33185547 -13.56201172 5.65185547 C-14.22201172 5.65185547 -14.88201172 5.65185547 -15.56201172 5.65185547 C-15.56201172 4.99185547 -15.56201172 4.33185547 -15.56201172 3.65185547 C-16.55201172 3.65185547 -17.54201172 3.65185547 -18.56201172 3.65185547 C-18.56201172 2.99185547 -18.56201172 2.33185547 -18.56201172 1.65185547 C-19.55201172 1.65185547 -20.54201172 1.65185547 -21.56201172 1.65185547 C-21.56201172 0.99185547 -21.56201172 0.33185547 -21.56201172 -0.34814453 C-22.22201172 -0.34814453 -22.88201172 -0.34814453 -23.56201172 -0.34814453 C-23.56201172 -1.00814453 -23.56201172 -1.66814453 -23.56201172 -2.34814453 C-25.21201172 -2.67814453 -26.86201172 -3.00814453 -28.56201172 -3.34814453 C-28.56201172 -4.00814453 -28.56201172 -4.66814453 -28.56201172 -5.34814453 C-29.55201172 -5.34814453 -30.54201172 -5.34814453 -31.56201172 -5.34814453 C-31.89201172 -6.33814453 -32.22201172 -7.32814453 -32.56201172 -8.34814453 C-34.21201172 -8.34814453 -35.86201172 -8.34814453 -37.56201172 -8.34814453 C-37.56201172 -9.00814453 -37.56201172 -9.66814453 -37.56201172 -10.34814453 C-39.21201172 -10.67814453 -40.86201172 -11.00814453 -42.56201172 -11.34814453 C-42.56201172 -12.00814453 -42.56201172 -12.66814453 -42.56201172 -13.34814453 C-43.55201172 -13.34814453 -44.54201172 -13.34814453 -45.56201172 -13.34814453 C-45.89201172 -14.33814453 -46.22201172 -15.32814453 -46.56201172 -16.34814453 C-46.56201172 -15.68814453 -46.56201172 -15.02814453 -46.56201172 -14.34814453 C-47.22201172 -14.34814453 -47.88201172 -14.34814453 -48.56201172 -14.34814453 C-48.89201172 -15.33814453 -49.22201172 -16.32814453 -49.56201172 -17.34814453 C-49.56201172 -16.68814453 -49.56201172 -16.02814453 -49.56201172 -15.34814453 C-50.22201172 -15.34814453 -50.88201172 -15.34814453 -51.56201172 -15.34814453 C-51.89201172 -16.00814453 -52.22201172 -16.66814453 -52.56201172 -17.34814453 C-53.22201172 -17.01814453 -53.88201172 -16.68814453 -54.56201172 -16.34814453 C-54.56201172 -17.00814453 -54.56201172 -17.66814453 -54.56201172 -18.34814453 C-57.49703767 -19.35551081 -60.43540633 -20.35274957 -63.37451172 -21.34814453 C-64.62458008 -21.77740234 -64.62458008 -21.77740234 -65.89990234 -22.21533203 C-66.70234375 -22.48603516 -67.50478516 -22.75673828 -68.33154297 -23.03564453 C-69.06993408 -23.28701172 -69.8083252 -23.53837891 -70.5690918 -23.79736328 C-72.69934051 -24.48133604 -72.69934051 -24.48133604 -75.56201172 -24.34814453 C-75.89201172 -25.00814453 -76.22201172 -25.66814453 -76.56201172 -26.34814453 C-77.55201172 -26.67814453 -78.54201172 -27.00814453 -79.56201172 -27.34814453 C-79.56201172 -26.68814453 -79.56201172 -26.02814453 -79.56201172 -25.34814453 C-80.18849609 -25.57630859 -80.81498047 -25.80447266 -81.46044922 -26.03955078 C-82.27771484 -26.32701172 -83.09498047 -26.61447266 -83.93701172 -26.91064453 C-84.74912109 -27.20068359 -85.56123047 -27.49072266 -86.39794922 -27.78955078 C-88.58968921 -28.60787481 -88.58968921 -28.60787481 -90.56201172 -27.34814453 C-90.89201172 -28.00814453 -91.22201172 -28.66814453 -91.56201172 -29.34814453 C-96.21254044 -29.61746974 -96.21254044 -29.61746974 -100.56201172 -28.34814453 C-100.89201172 -29.00814453 -101.22201172 -29.66814453 -101.56201172 -30.34814453 C-102.22201172 -30.01814453 -102.88201172 -29.68814453 -103.56201172 -29.34814453 C-103.89201172 -30.00814453 -104.22201172 -30.66814453 -104.56201172 -31.34814453 C-104.56201172 -30.68814453 -104.56201172 -30.02814453 -104.56201172 -29.34814453 C-105.11888672 -29.50412109 -105.67576172 -29.66009766 -106.24951172 -29.82080078 C-111.78160627 -31.23185868 -115.94620896 -31.36919958 -121.56201172 -30.34814453 C-121.89201172 -31.00814453 -122.22201172 -31.66814453 -122.56201172 -32.34814453 C-122.56201172 -31.68814453 -122.56201172 -31.02814453 -122.56201172 -30.34814453 C-123.22201172 -30.34814453 -123.88201172 -30.34814453 -124.56201172 -30.34814453 C-124.89201172 -31.00814453 -125.22201172 -31.66814453 -125.56201172 -32.34814453 Z " fill="#21B3EF" transform="translate(319.56201171875,58.34814453125)"/>
<path d="M0 0 C0.33 0 0.66 0 1 0 C1.22042969 1.79630859 1.22042969 1.79630859 1.4453125 3.62890625 C5.03986211 30.61032007 18.53256147 50.7899431 35.81933594 71.05761719 C53.68224543 92.03805065 67.96899122 111.16982325 66 140 C64.44036448 155.14853903 57.89074394 167.59473589 48 179 C47.67 178.34 47.34 177.68 47 177 C47.71301287 175.01167955 48.5201827 173.05660372 49.375 171.125 C54.02438182 160.55350056 54.19298107 151.43229618 50.44140625 140.38671875 C43.35899891 123.74594054 29.70288799 111.52626984 17.05078125 99.08666992 C0.50659326 82.75513718 -11.6085546 66.68030584 -12.3125 42.6875 C-12.02473845 28.46869412 -8.06993987 11.96735401 0 0 Z " fill="#FBFDFE" transform="translate(196,96)"/>
<path d="M0 0 C0.556875 0.70125 1.11375 1.4025 1.6875 2.125 C2.8321875 3.548125 2.8321875 3.548125 4 5 C4.73992187 5.97324219 5.47984375 6.94648438 6.2421875 7.94921875 C8.89638132 11.11531721 11.71702433 12.84231611 15.4375 14.6875 C16.52933594 15.24824219 17.62117188 15.80898437 18.74609375 16.38671875 C29.53451521 20.91193574 40.88248001 21.41094891 52.41015625 21.22265625 C53.83547346 21.21194138 55.26080409 21.20289678 56.68614197 21.19541931 C60.39142606 21.17291889 64.09631355 21.13396271 67.8013916 21.0894165 C73.76046657 21.01847897 79.7195416 20.96384408 85.67892265 20.92706108 C87.74693873 20.91046299 89.81448945 20.88093116 91.88233948 20.85035706 C93.76601479 20.83560585 93.76601479 20.83560585 95.68774414 20.82055664 C96.78913223 20.8070668 97.89052032 20.79357697 99.02528381 20.77967834 C102.32993589 21.02443662 105.57023479 21.57023479 108 24 C108.64711954 28.52983678 108.18048136 31.2781117 105.5625 34.9375 C97.43055456 44.76439425 87.93185585 51.83522174 75.109375 53.71875 C55.73949729 55.47079924 38.8490317 51.93847237 23.1875 39.75 C11.09841188 29.20533283 2.52808911 16.01123102 0 0 Z " fill="#FAFDFE" transform="translate(132,240)"/>
<path d="M0 0 C0.94221833 2.826655 1.08687091 4.34382789 0.9921875 7.24609375 C0.7694781 16.94381942 0.72134284 25.73712714 4 35 C4.31710938 35.96808594 4.63421875 36.93617188 4.9609375 37.93359375 C8.87906973 48.61814582 16.00708858 57.53582684 24.25488281 65.28515625 C26.00078113 67.00076758 27.57074276 68.78893889 29.15234375 70.65625 C32.44545588 74.45125239 35.95064245 77.95164572 39.56005859 81.44384766 C49.51569714 91.09290041 58.6890208 100.96396014 64 114 C63.505 115.485 63.505 115.485 63 117 C62.41476563 116.46632813 61.82953125 115.93265625 61.2265625 115.3828125 C53.5560404 108.72581284 45.34508587 104.09847328 36.43652344 99.31787109 C24.73388632 92.98812809 13.26490402 86.5239763 3 78 C2.32839844 77.46503906 1.65679687 76.93007812 0.96484375 76.37890625 C-6.72635471 69.60050936 -11.52875134 58.70563661 -12.23828125 48.609375 C-12.57105982 31.30488945 -7.96197354 15.35523469 0 0 Z " fill="#FAFDFE" transform="translate(178,126)"/>
<path d="M0 0 C0.33 0 0.66 0 1 0 C1.01458252 0.55349121 1.02916504 1.10698242 1.04418945 1.67724609 C1.17327718 16.17783575 1.17327718 16.17783575 5 30 C5.32742187 30.73863281 5.65484375 31.47726563 5.9921875 32.23828125 C15.19840562 50.61897191 33.92050324 59.81760696 51.25488281 69.02783203 C61.62535388 74.57062503 71.81167444 80.42885826 80 89 C79.67 89.66 79.34 90.32 79 91 C78.1020874 90.67386719 77.2041748 90.34773438 76.27905273 90.01171875 C67.63599691 86.95458814 59.15050577 84.86080416 50.1053772 83.34524536 C6.81479447 76.02915563 6.81479447 76.02915563 -4 61 C-11.13803319 48.06368755 -10.57213366 32.6406685 -6.78344727 18.67480469 C-4.91977365 12.30407536 -2.55758545 6.12143403 0 0 Z " fill="#F9FCFE" transform="translate(159,160)"/>
<path d="M0 0 C0.33 0 0.66 0 1 0 C1.00410889 0.57331055 1.00821777 1.14662109 1.01245117 1.73730469 C1.1882464 15.76154461 1.60417575 28.57504463 11.96875 39.203125 C27.72540584 53.14170517 49.72969369 56.04570716 69.73608398 59.69140625 C70.50041748 59.83128464 71.26475098 59.97116302 72.05224609 60.11528015 C73.48996155 60.37648129 74.92848098 60.63331202 76.36791992 60.88484192 C80.38693141 61.60888235 84.15871672 62.6152604 88 64 C88 64.33 88 64.66 88 65 C73.23370562 65.6521939 58.46770938 66.12695976 43.6875 66.25 C41.82436157 66.2819043 41.82436157 66.2819043 39.92358398 66.31445312 C26.10092714 66.36606115 10.98053581 64.59069099 0.03125 55.3359375 C-5.82746197 49.04643789 -7.56559008 41.5980987 -7.5 33.1875 C-7.49790527 32.37724365 -7.49581055 31.5669873 -7.49365234 30.73217773 C-7.2316848 20.34246504 -4.84217605 9.25619367 0 0 Z " fill="#F5FBFE" transform="translate(143,190)"/>
<path d="M0 0 C4.55549486 1.70831057 6.68446945 4.90791704 9.1171875 9.0078125 C10.16111045 11.51137993 10.33416276 13.47999075 10.375 16.1875 C10.40335938 17.04472656 10.43171875 17.90195313 10.4609375 18.78515625 C10 21.125 10 21.125 8.15625 22.92578125 C6 24.125 6 24.125 3.125 24.25 C-2.08281098 22.37518805 -4.76642637 18.36786114 -7.375 13.625 C-8.22114837 10.24040651 -8.44213419 7.59891151 -8 4.125 C-5.40345653 1.07024298 -4.01952678 0.16748028 0 0 Z " fill="#04AAED" transform="translate(130,55.875)"/>
<path d="M0 0 C2.08103694 1.5668984 2.89066237 2.48286256 3.43359375 5.05078125 C3.44459967 11.42320947 1.99540969 14.74375408 -2.390625 19.51171875 C-5.07115985 22.08644302 -6.49551738 23.00970159 -10.25 22.9375 C-13 22 -13 22 -15 20 C-15.83954893 15.65694879 -15.83337426 11.59313817 -13.76171875 7.6328125 C-9.8850086 2.38049553 -6.90766702 -0.71954865 0 0 Z " fill="#04AAED" transform="translate(289,65)"/>
<path d="M0 0 C-0.01160156 1.25296875 -0.02320312 2.5059375 -0.03515625 3.796875 C-0.04453716 5.44791517 -0.05363704 7.09895696 -0.0625 8.75 C-0.07087891 9.575 -0.07925781 10.4 -0.08789062 11.25 C-0.09111328 12.04921875 -0.09433594 12.8484375 -0.09765625 13.671875 C-0.10551147 14.77160645 -0.10551147 14.77160645 -0.11352539 15.89355469 C0.00284121 18.05271818 0.42666582 19.92030113 1 22 C1.39337598 24.66135848 1.6881754 27.32721773 2 30 C1.34 30 0.68 30 0 30 C0 30.66 0 31.32 0 32 C-2.97 32.495 -2.97 32.495 -6 33 C-6 31.68 -6 30.36 -6 29 C-6.1486227 27.24837531 -6.31597267 25.49825963 -6.5 23.75 C-6.5928125 22.85796875 -6.685625 21.9659375 -6.78125 21.046875 C-6.8534375 20.37140625 -6.925625 19.6959375 -7 19 C-6.34 19 -5.68 19 -5 19 C-5 18.34 -5 17.68 -5 17 C-5.66 17 -6.32 17 -7 17 C-7.62457273 13.56484998 -8 10.50935186 -8 7 C-7.34 6.67 -6.68 6.34 -6 6 C-6.66 5.67 -7.32 5.34 -8 5 C-8 4.34 -8 3.68 -8 3 C-5.04518508 0.25624329 -4.22528092 0 0 0 Z M-5 3 C-4 5 -4 5 -4 5 Z " fill="#42BEF1" transform="translate(84,191)"/>
<path d="M0 0 C0.33 0.99 0.66 1.98 1 3 C-0.26342773 5.17651367 -0.26342773 5.17651367 -2.18359375 7.66796875 C-2.86357422 8.56064453 -3.54355469 9.45332031 -4.24414062 10.37304688 C-5.32985352 11.76620117 -5.32985352 11.76620117 -6.4375 13.1875 C-7.15744141 14.12787109 -7.87738281 15.06824219 -8.61914062 16.03710938 C-10.40369054 18.36529701 -12.1975193 20.68568429 -14 23 C-14.66 22.67 -15.32 22.34 -16 22 C-16 21.34 -16 20.68 -16 20 C-15.34 20 -14.68 20 -14 20 C-13.22573891 17.19235272 -13.22573891 17.19235272 -13 14 C-14.3516367 11.75244247 -14.3516367 11.75244247 -16 10 C-16 9.34 -16 8.68 -16 8 C-19.93075644 8.57452746 -19.93075644 8.57452746 -23 11 C-23.66 9.68 -24.32 8.36 -25 7 C-24.27820557 6.823479 -23.55641113 6.64695801 -22.81274414 6.46508789 C-19.56175537 5.6678734 -16.31212325 4.86526165 -13.0625 4.0625 C-11.92619141 3.78470703 -10.78988281 3.50691406 -9.61914062 3.22070312 C-8.53955078 2.95322266 -7.45996094 2.68574219 -6.34765625 2.41015625 C-5.34742432 2.16402588 -4.34719238 1.91789551 -3.31665039 1.66430664 C-1.0574519 1.21905303 -1.0574519 1.21905303 0 0 Z " fill="#17AFEE" transform="translate(333,109)"/>
<path d="M0 0 C0.02715383 1.74991334 0.04646551 3.49994945 0.0625 5.25 C0.07410156 6.22453125 0.08570313 7.1990625 0.09765625 8.203125 C0.01113099 10.68120838 -0.37662333 12.62429678 -1 15 C-1 16.32 -1 17.64 -1 19 C-1 20.32 -1 21.64 -1 23 C-3.64 22.67 -6.28 22.34 -9 22 C-9.125 14.375 -9.125 14.375 -8 11 C-7.34 11 -6.68 11 -6 11 C-6 10.34 -6 9.68 -6 9 C-6.66 9 -7.32 9 -8 9 C-8.25 6.6875 -8.25 6.6875 -8 4 C-5.62295412 1.78142384 -3.3258254 0 0 0 Z " fill="#3FBDF1" transform="translate(324,196)"/>
<path d="M0 0 C2.47960136 0.14024219 4.95852402 0.2869185 7.4375 0.4375 C8.14455078 0.47681641 8.85160156 0.51613281 9.58007812 0.55664062 C14.88671875 0.88671875 14.88671875 0.88671875 16 2 C16.04063832 3.66617115 16.042721 5.33388095 16 7 C14 6 14 6 13 3 C9.7 2.67 6.4 2.34 3 2 C3 4.31 3 6.62 3 9 C5.31 9.33 7.62 9.66 10 10 C10.33 9.01 10.66 8.02 11 7 C11.33 7 11.66 7 12 7 C12 9.31 12 11.62 12 14 C11.34 14 10.68 14 10 14 C10 13.01 10 12.02 10 11 C7.36 11 4.72 11 2 11 C1.67 15.62 1.34 20.24 1 25 C4.63 25.33 8.26 25.66 12 26 C12.66 24.68 13.32 23.36 14 22 C14 23.65 14 25.3 14 27 C11.89611431 27.05402274 9.79183286 27.09280256 7.6875 27.125 C6.51574219 27.14820312 5.34398437 27.17140625 4.13671875 27.1953125 C1 27 1 27 -2 25 C-1.855625 23.78183594 -1.71125 22.56367187 -1.5625 21.30859375 C-1.37479204 19.68491986 -1.1873037 18.06122057 -1 16.4375 C-0.90460938 15.63763672 -0.80921875 14.83777344 -0.7109375 14.01367188 C-0.17285824 9.30547833 0.10176703 4.73852735 0 0 Z " fill="#C0E9FA" transform="translate(208,38)"/>
<path d="M0 0 C4.96283916 2.48141958 8.20943861 5.71834404 10 11 C10.86090327 16.14932797 10.85295277 19.70764732 7.9375 24.125 C4.15123097 26.54176746 2.42043046 26.8383575 -2 26 C-6.8121788 23.09883048 -10.17894235 19.35605191 -12 14 C-12.66912698 9.75940776 -12.49613711 6.77728147 -10.125 3.0625 C-6.76664891 -0.19707606 -4.63575359 -0.44574554 0 0 Z M-7.75 2.5625 C-10.27857693 4.8591663 -10.27857693 4.8591663 -10.5625 8.25 C-9.67195896 14.18694028 -7.51464462 18.89233762 -3.125 23.0625 C-0.15225289 25.29726116 -0.15225289 25.29726116 3.25 24.9375 C6.10378335 24.19029588 6.10378335 24.19029588 8 22 C8.93032001 16.73145088 8.52720941 12.16839498 5.75 7.5625 C3.80824641 4.85498444 2.00812269 2.55257945 -1 1 C-4.9475115 0.67066039 -4.9475115 0.67066039 -7.75 2.5625 Z " fill="#CBEDFB" transform="translate(132,55)"/>
<path d="M0 0 C2 2 2 2 2.5 4.8125 C1.94920901 8.32379258 1.59765431 8.72458335 -1 10.875 C-1.99 11.57625 -2.98 12.2775 -4 13 C-7.73884332 10.34345343 -9.64978174 8.41889613 -11 4 C-7.30497796 0.5223322 -5.10500447 -0.68066726 0 0 Z " fill="#04A9ED" transform="translate(106,74)"/>
<path d="M0 0 C4.84693878 3.87755102 4.84693878 3.87755102 5.375 7.75 C5 10 5 10 4 11 C-0.03199561 11.54981758 -1.55532291 11.32867437 -4.875 8.875 C-7.32150834 5.56501812 -7.46707789 4.01686987 -7 0 C-4.19664415 -1.40167793 -2.9650644 -0.96536981 0 0 Z " fill="#06AAED" transform="translate(309,295)"/>
<path d="M0 0 C0.66 0.66 1.32 1.32 2 2 C1.90849201 5.47730343 1.21809552 6.76944187 -1.1875 9.3125 C-4.44372048 11.26623229 -6.26648162 11.42426345 -10 11 C-11 10 -11 10 -11.4375 7.1875 C-11 4 -11 4 -8.3125 1.625 C-5.08985661 0.0440806 -3.49907526 -0.58317921 0 0 Z " fill="#05AAED" transform="translate(81,274)"/>
<path d="M0 0 C3.47730343 0.09150799 4.76944187 0.78190448 7.3125 3.1875 C9.26623229 6.44372048 9.42426345 8.26648162 9 12 C8 13 8 13 5.75 13.4375 C3 13 3 13 0.1875 10.3125 C-1.98295591 7.02580962 -2.73920864 5.80164443 -2 2 C-1.34 1.34 -0.68 0.68 0 0 Z " fill="#02A9ED" transform="translate(279,315)"/>
<path d="M0 0 C1 1 1 1 1.375 4.25 C1 8 1 8 -1.1875 11 C-4 13 -4 13 -6.8125 12.8125 C-7.534375 12.544375 -8.25625 12.27625 -9 12 C-9.48539326 4.71910112 -9.48539326 4.71910112 -7.3125 1.5 C-4.60255876 -0.25779973 -3.17062465 -0.42846279 0 0 Z " fill="#04A9ED" transform="translate(128,320)"/>
<path d="M0 0 C2.97 0.99 5.94 1.98 9 3 C6 4 6 4 3 4 C2.01 6.97 1.02 9.94 0 13 C1.62324086 13.22162329 3.248721 13.42689803 4.875 13.625 C5.77992188 13.74101563 6.68484375 13.85703125 7.6171875 13.9765625 C8.40351563 13.98429687 9.18984375 13.99203125 10 14 C12.34973818 12.10244856 12.34973818 12.10244856 12.125 8.875 C12.08375 7.92625 12.0425 6.9775 12 6 C12.99 6.66 13.98 7.32 15 8 C15.375 10.4375 15.375 10.4375 15 13 C13.4047247 15.09379884 12.53439102 15.9069319 9.9140625 16.36328125 C9.15867187 16.34652344 8.40328125 16.32976563 7.625 16.3125 C6.87476563 16.30863281 6.12453125 16.30476563 5.3515625 16.30078125 C3 16 3 16 -2 14 C-2.99 17.96 -3.98 21.92 -5 26 C-5.99 25.01 -6.98 24.02 -8 23 C-7.75765625 22.40985107 -7.5153125 21.81970215 -7.265625 21.21166992 C-6.17167669 18.53912264 -5.08575961 15.8633839 -4 13.1875 C-3.42765625 11.7943457 -3.42765625 11.7943457 -2.84375 10.37304688 C-2.30234375 9.0340332 -2.30234375 9.0340332 -1.75 7.66796875 C-1.41484375 6.84578857 -1.0796875 6.0236084 -0.734375 5.17651367 C0.15985056 2.90908534 0.15985056 2.90908534 0 0 Z " fill="#A6E1F8" transform="translate(253,47)"/>
<path d="M0 0 C2.875 1.6875 2.875 1.6875 5 4 C5.375 6.6875 5.375 6.6875 5 9 C4 10 4 10 0.75 10.3125 C-3.58420402 9.95131633 -5.1248258 9.22368016 -8 6 C-8.3125 3.25 -8.3125 3.25 -8 1 C-5.14675563 -0.42662219 -3.16545451 -0.31033868 0 0 Z " fill="#04A9ED" transform="translate(333,260)"/>
<path d="M0 0 C0.66 0 1.32 0 2 0 C1.12478803 5.37454113 -2.66361048 8.87500932 -6 13 C-1.71 13 2.58 13 7 13 C7.33 14.32 7.66 15.64 8 17 C7.43079834 16.98952637 6.86159668 16.97905273 6.27514648 16.96826172 C3.6626437 16.92634282 1.05021201 16.90056112 -1.5625 16.875 C-2.45775391 16.85824219 -3.35300781 16.84148437 -4.27539062 16.82421875 C-9.60089905 16.78520404 -13.96370689 17.24524218 -19 19 C-19 18.34 -19 17.68 -19 17 C-17.5437455 16.32880451 -16.08492133 15.66318193 -14.625 15 C-13.81289063 14.62875 -13.00078125 14.2575 -12.1640625 13.875 C-10 13 -10 13 -8 13 C-7.773125 12.46375 -7.54625 11.9275 -7.3125 11.375 C-6 9 -6 9 -3.4375 5.9375 C-0.86462201 3.19794312 -0.86462201 3.19794312 0 0 Z " fill="#D7F1FC" transform="translate(345,130)"/>
<path d="M0 0 C0.99 0 1.98 0 3 0 C3.99 4.95 4.98 9.9 6 15 C5.34 15 4.68 15 4 15 C3.34 12.36 2.68 9.72 2 7 C0.03177114 8.96822886 0.33751619 12.34808709 0 15 C-2 13 -4 11 -6 9 C-5.67 11.97 -5.34 14.94 -5 18 C-5.66 18 -6.32 18 -7 18 C-7.50636607 16.25183142 -8.00484619 14.50137737 -8.5 12.75 C-8.7784375 11.77546875 -9.056875 10.8009375 -9.34375 9.796875 C-10 7 -10 7 -10 3 C-6.2047869 4.49097658 -4.38957269 6.75700849 -2 10 C-1.34 6.7 -0.68 3.4 0 0 Z " fill="#96DBF7" transform="translate(238,334)"/>
<path d="M0 0 C0.8971875 0.309375 0.8971875 0.309375 1.8125 0.625 C-0.1675 1.615 -0.1675 1.615 -2.1875 2.625 C-2.07240339 4.04250563 -1.94496342 5.45901169 -1.8125 6.875 C-1.74289062 7.66390625 -1.67328125 8.4528125 -1.6015625 9.265625 C-1.17020839 11.72352953 -0.35124446 13.43550449 0.8125 15.625 C1.25 18.125 1.25 18.125 0.8125 20.625 C-1.25 23 -1.25 23 -4.1875 24.625 C-7.89287805 24.56111417 -10.20467965 24.41759706 -13.125 22.0625 C-13.475625 21.588125 -13.82625 21.11375 -14.1875 20.625 C-13.8575 19.965 -13.5275 19.305 -13.1875 18.625 C-12.81625 19.12 -12.445 19.615 -12.0625 20.125 C-9.42048326 22.23861339 -7.47612853 21.9109677 -4.1875 21.625 C-2.89908768 20.54888149 -2.89908768 20.54888149 -2.9375 18 C-3.00475909 14.50296988 -3.00475909 14.50296988 -4.75 11.125 C-6.33130445 7.27486742 -6.46377806 5.54499691 -5.1875 1.625 C-2.1875 -0.375 -2.1875 -0.375 0 0 Z " fill="#BEE9FA" transform="translate(308.1875,82.375)"/>
<path d="M0 0 C1.01578125 0.19335938 2.0315625 0.38671875 3.078125 0.5859375 C11.37034597 2.15689311 19.66686701 3.65849185 28 5 C27.01 6.65 26.02 8.3 25 10 C24.67 9.01 24.34 8.02 24 7 C22.02 7 20.04 7 18 7 C17.67 7.99 17.34 8.98 17 10 C16.67 9.34 16.34 8.68 16 8 C16.33 7.34 16.66 6.68 17 6 C11.06 5.01 11.06 5.01 5 4 C5 4.99 5 5.98 5 7 C3.5 5.625 3.5 5.625 2 4 C2 3.34 2 2.68 2 2 C1.34 2 0.68 2 0 2 C0 1.34 0 0.68 0 0 Z " fill="#CFEEFB" transform="translate(64,112)"/>
<path d="M0 0 C0.33 0.99 0.66 1.98 1 3 C-0.26342773 5.17651367 -0.26342773 5.17651367 -2.18359375 7.66796875 C-2.86357422 8.56064453 -3.54355469 9.45332031 -4.24414062 10.37304688 C-5.32985352 11.76620117 -5.32985352 11.76620117 -6.4375 13.1875 C-7.15744141 14.12787109 -7.87738281 15.06824219 -8.61914062 16.03710938 C-10.40369054 18.36529701 -12.1975193 20.68568429 -14 23 C-14.66 22.67 -15.32 22.34 -16 22 C-16 21.34 -16 20.68 -16 20 C-15.34 20 -14.68 20 -14 20 C-13.773125 19.113125 -13.54625 18.22625 -13.3125 17.3125 C-11.8101365 13.52082069 -9.92977942 11.78686335 -7 9 C-5.94712186 7.36622358 -4.9272999 5.70818403 -4 4 C-6.64 4.33 -9.28 4.66 -12 5 C-9.68789868 2.68789868 -8.58208523 2.53815111 -5.4375 1.9375 C-2.4322803 1.53522134 -2.4322803 1.53522134 0 0 Z " fill="#CBEDFB" transform="translate(333,109)"/>
<path d="M0 0 C2.64 0.33 5.28 0.66 8 1 C8.33 2.65 8.66 4.3 9 6 C8.01 6 7.02 6 6 6 C6 6.66 6 7.32 6 8 C3.03 7.505 3.03 7.505 0 7 C-0.66 9.64 -1.32 12.28 -2 15 C-3.06396981 10.74412077 -2.77540332 9.32535515 -1.5625 5.25 C-1.27503906 4.26515625 -0.98757812 3.2803125 -0.69140625 2.265625 C-0.46324219 1.51796875 -0.23507813 0.7703125 0 0 Z " fill="#5CC7F3" transform="translate(159,334)"/>
<path d="M0 0 C0 1.74542122 -0.03099024 3.49240042 -0.140625 5.234375 C-0.41110785 11.45548056 0.33281824 14.93066051 4 20 C7.04300316 21.52150158 9.654085 21.23899393 13 21 C13.66 20.01 14.32 19.02 15 18 C15.66 18 16.32 18 17 18 C15.63016497 21.16115776 15.0109362 21.9927092 12 24 C8.83530694 24.57539874 6.87124586 24.55904943 4.125 22.796875 C0.18616067 19.54733255 -2.65239776 16.81693241 -3.30078125 11.5625 C-3.30464844 10.716875 -3.30851563 9.87125 -3.3125 9 C-3.32925781 8.154375 -3.34601563 7.30875 -3.36328125 6.4375 C-2.93244007 3.54669465 -1.90529726 2.17173725 0 0 Z " fill="#C1EAFA" transform="translate(153,46)"/>
<path d="M0 0 C3.63 0 7.26 0 11 0 C10.67 1.32 10.34 2.64 10 4 C10.37907282 6.18703385 10.37907282 6.18703385 11 8 C4.57429353 8.36371923 4.57429353 8.36371923 2.125 6.8125 C1 5 1 5 0 0 Z " fill="#42BEF1" transform="translate(195,316)"/>
<path d="M0 0 C5.24099655 0.41105855 8.24039194 1.24039194 12 5 C12 5.66 12 6.32 12 7 C12.99 7.33 13.98 7.66 15 8 C14.34 8 13.68 8 13 8 C12.34 9.65 11.68 11.3 11 13 C6.62294961 14.05049209 4.64494761 14.32833696 0.5625 12.25 C-0.283125 11.5075 -1.12875 10.765 -2 10 C-2 9.01 -2 8.02 -2 7 C-0.9790625 7.99 -0.9790625 7.99 0.0625 9 C3.64457375 11.43885872 5.75519536 11.33292585 10 11 C10.33 10.34 10.66 9.68 11 9 C10.01 8.67 9.02 8.34 8 8 C8.99 8 9.98 8 11 8 C8.11713259 4.29447048 8.11713259 4.29447048 3.88671875 2.66796875 C1.92143786 2.6854224 -0.04166127 2.83403909 -2 3 C-1.34 2.01 -0.68 1.02 0 0 Z " fill="#9CDDF8" transform="translate(327,258)"/>
<path d="M0 0 C1.07378906 0.40992188 2.14757813 0.81984375 3.25390625 1.2421875 C4.69004776 1.78660716 6.12624887 2.33086961 7.5625 2.875 C8.26697266 3.14441406 8.97144531 3.41382813 9.69726562 3.69140625 C14.08799499 5.35057587 18.46893615 6.77345709 23 8 C23.99 6.68 24.98 5.36 26 4 C25.48967606 7.77639718 24.79233071 9.44722581 22 12 C18.91573195 10.71055731 15.83275447 9.41805666 12.75 8.125 C11.87730469 7.76019531 11.00460938 7.39539063 10.10546875 7.01953125 C9.26113281 6.66503906 8.41679688 6.31054688 7.546875 5.9453125 C6.77182617 5.62062988 5.99677734 5.29594727 5.19824219 4.96142578 C3.09316935 4.04074865 1.04481113 3.04684554 -1 2 C-0.67 1.34 -0.34 0.68 0 0 Z " fill="#C7ECFB" transform="translate(48,144)"/>
<path d="M0 0 C1.65 0 3.3 0 5 0 C5.02505615 0.71655762 5.0501123 1.43311523 5.07592773 2.17138672 C5.19169751 5.40611514 5.31450969 8.64053841 5.4375 11.875 C5.47681641 13.00292969 5.51613281 14.13085938 5.55664062 15.29296875 C5.59853516 16.36933594 5.64042969 17.44570313 5.68359375 18.5546875 C5.72025146 19.54968262 5.75690918 20.54467773 5.79467773 21.56982422 C5.84959532 24.00779501 5.84959532 24.00779501 7 26 C5.68 26 4.36 26 3 26 C2.91697632 24.92516357 2.91697632 24.92516357 2.83227539 23.82861328 C2.57998442 20.59372323 2.32132332 17.35937367 2.0625 14.125 C1.93198242 12.43310547 1.93198242 12.43310547 1.79882812 10.70703125 C1.71181641 9.63066406 1.62480469 8.55429687 1.53515625 7.4453125 C1.456604 6.45031738 1.37805176 5.45532227 1.29711914 4.43017578 C1.13725567 1.99504336 1.13725567 1.99504336 0 0 Z " fill="#CBEDFB" transform="translate(190,38)"/>
<path d="M0 0 C4.13621084 3.3810038 7.81316569 6.66590534 11 11 C10.67 11.66 10.34 12.32 10 13 C9.38125 12.649375 8.7625 12.29875 8.125 11.9375 C7.42375 11.628125 6.7225 11.31875 6 11 C5.01 11.495 5.01 11.495 4 12 C3.34786708 14.02463255 3.34786708 14.02463255 3 16 C2.34 16 1.68 16 1 16 C1.01160156 15.09636719 1.02320313 14.19273437 1.03515625 13.26171875 C1.04417969 12.08222656 1.05320313 10.90273438 1.0625 9.6875 C1.07410156 8.51574219 1.08570313 7.34398437 1.09765625 6.13671875 C1.14899898 2.96940805 1.14899898 2.96940805 0 0 Z " fill="#7BD1F5" transform="translate(250,330)"/>
<path d="M0 0 C0.66 0.33 1.32 0.66 2 1 C2 2.32 2 3.64 2 5 C3.57396909 7.42521861 3.57396909 7.42521861 5.6875 9.8125 C8.98845824 13.770132 12.0579415 17.77079091 15 22 C14.01 22.66 13.02 23.32 12 24 C11.18789062 22.48212891 11.18789062 22.48212891 10.359375 20.93359375 C8.06669454 16.92140295 5.28455294 13.53112941 2.25 10.0625 C1.74339844 9.47404297 1.23679687 8.88558594 0.71484375 8.27929688 C-0.51828214 6.84840552 -1.75840699 5.42355061 -3 4 C-2.01 2.68 -1.02 1.36 0 0 Z " fill="#DAF2FC" transform="translate(95,76)"/>
<path d="M0 0 C0.99 0 1.98 0 3 0 C3.05534912 0.61520508 3.11069824 1.23041016 3.16772461 1.86425781 C3.42107482 4.65980996 3.67923694 7.45489762 3.9375 10.25 C4.02451172 11.21808594 4.11152344 12.18617187 4.20117188 13.18359375 C4.28818359 14.11816406 4.37519531 15.05273438 4.46484375 16.015625 C4.543396 16.87446289 4.62194824 17.73330078 4.70288086 18.61816406 C4.97709903 20.81641589 5.41066966 22.86718545 6 25 C4.68 25 3.36 25 2 25 C1.34 16.75 0.68 8.5 0 0 Z " fill="#D3F0FB" transform="translate(177,40)"/>
<path d="M0 0 C0.33 0.66 0.66 1.32 1 2 C-0.216875 1.9175 -1.43375 1.835 -2.6875 1.75 C-5.81949996 1.76657143 -6.93355852 1.96224916 -9.75 3.5625 C-14.41807273 8.61957879 -16.44148902 13.15824049 -17 20 C-17.33 20 -17.66 20 -18 20 C-18.61291801 14.46103721 -18.70624538 10.22103846 -15.375 5.5625 C-10.93673884 0.415784 -6.81619943 -2.06071145 0 0 Z " fill="#BCE8FA" transform="translate(290,64)"/>
<path d="M0 0 C0.33 0 0.66 0 1 0 C1.28948647 5.59673839 1.23291136 9.2027767 -2 14 C-5.22232568 17.54781312 -7.57352114 19.84438412 -12.4375 20.375 C-13.283125 20.25125 -14.12875 20.1275 -15 20 C-14.12021484 19.58814453 -14.12021484 19.58814453 -13.22265625 19.16796875 C-6.88945033 15.83997478 -3.21265969 11.76090462 -1 5 C-0.30859478 2.22111387 -0.30859478 2.22111387 0 0 Z " fill="#D7F1FC" transform="translate(293,69)"/>
<path d="M0 0 C0.33 0.66 0.66 1.32 1 2 C0.10333658 4.24310013 -0.89146683 6.44754321 -1.9375 8.625 C-2.50339844 9.81351562 -3.06929687 11.00203125 -3.65234375 12.2265625 C-4.09707031 13.14179688 -4.54179688 14.05703125 -5 15 C-5.66 15 -6.32 15 -7 15 C-6.71125 14.29875 -6.4225 13.5975 -6.125 12.875 C-4.97866412 9.94547497 -3.97374346 6.99078347 -3 4 C-7.95 6.475 -7.95 6.475 -13 9 C-13.33 8.34 -13.66 7.68 -14 7 C-9.38 4.69 -4.76 2.38 0 0 Z " fill="#B3E5F9" transform="translate(102,300)"/>
<path d="M0 0 C3.3 0 6.6 0 10 0 C9.67 0.99 9.34 1.98 9 3 C8.67 2.67 8.34 2.34 8 2 C6.35 2 4.7 2 3 2 C2.67 6.62 2.34 11.24 2 16 C-0.05279359 11.89441282 -0.2216942 10.19793315 -0.125 5.75 C-0.10695312 4.67234375 -0.08890625 3.5946875 -0.0703125 2.484375 C-0.04710937 1.66453125 -0.02390625 0.8446875 0 0 Z " fill="#92DAF7" transform="translate(198,339)"/>
<path d="M0 0 C0.66 1.32 1.32 2.64 2 4 C-3.94 3.67 -9.88 3.34 -16 3 C-13.14206684 0.14206684 -10.85334416 0.59200059 -6.875 0.375 C-5.59367187 0.30023438 -4.31234375 0.22546875 -2.9921875 0.1484375 C-2.00476563 0.09945312 -1.01734375 0.05046875 0 0 Z " fill="#9ADDF7" transform="translate(351,143)"/>
<path d="M0 0 C0.474375 0.598125 0.94875 1.19625 1.4375 1.8125 C4.92683848 4.79120358 8.6364811 5.7692639 13 7 C11.68 8.32 10.36 9.64 9 11 C8.60167969 10.55011719 8.20335938 10.10023437 7.79296875 9.63671875 C5.74806176 7.77001716 3.85837469 6.88250531 1.3125 5.8125 C0.50425781 5.46832031 -0.30398437 5.12414062 -1.13671875 4.76953125 C-1.75160156 4.51558594 -2.36648437 4.26164062 -3 4 C-2.01 2.68 -1.02 1.36 0 0 Z " fill="#CDEEFB" transform="translate(107,82)"/>
<path d="M0 0 C1.875 1.125 1.875 1.125 3 3 C3.1875 6.1875 3.1875 6.1875 3 9 C2.01 9.495 2.01 9.495 1 10 C0.34 7.69 -0.32 5.38 -1 3 C-1.928125 3 -2.85625 3 -3.8125 3 C-5.875 3 -7.9375 3 -10 3 C-6.70836605 -0.03843134 -4.43945893 -0.56673944 0 0 Z " fill="#BDE8FA" transform="translate(107,72)"/>
<path d="M0 0 C4.29 0.33 8.58 0.66 13 1 C11.68 2.65 10.36 4.3 9 6 C8.01 6 7.02 6 6 6 C5.67 4.68 5.34 3.36 5 2 C3.35 2 1.7 2 0 2 C0 1.34 0 0.68 0 0 Z " fill="#28B6F0" transform="translate(52,246)"/>
<path d="M0 0 C0.99386719 0.10183594 1.98773438 0.20367187 3.01171875 0.30859375 C3.77097656 0.39238281 4.53023437 0.47617188 5.3125 0.5625 C3.8275 3.0375 3.8275 3.0375 2.3125 5.5625 C1.9825 4.5725 1.6525 3.5825 1.3125 2.5625 C-0.6675 2.5625 -2.6475 2.5625 -4.6875 2.5625 C-5.0175 3.5525 -5.3475 4.5425 -5.6875 5.5625 C-6.0175 4.9025 -6.3475 4.2425 -6.6875 3.5625 C-6.3575 2.9025 -6.0275 2.2425 -5.6875 1.5625 C-6.6775 1.2325 -7.6675 0.9025 -8.6875 0.5625 C-5.3763987 -0.54120043 -3.44001051 -0.36423641 0 0 Z " fill="#B3E5F9" transform="translate(86.6875,116.4375)"/>
<path d="M0 0 C1.31225809 3.93677426 0.3393954 5.7794262 -0.9375 9.6875 C-1.31777344 10.86699219 -1.69804687 12.04648438 -2.08984375 13.26171875 C-2.39019531 14.16535156 -2.69054687 15.06898437 -3 16 C-3.99 15.01 -4.98 14.02 -6 13 C-5.1905146 11.01959844 -4.37732831 9.04070923 -3.5625 7.0625 C-3.11003906 5.96035156 -2.65757812 4.85820313 -2.19140625 3.72265625 C-1 1 -1 1 0 0 Z " fill="#D6F1FC" transform="translate(251,57)"/>
<path d="M0 0 C0 2.31 0 4.62 0 7 C-0.99 7 -1.98 7 -3 7 C-3 6.34 -3 5.68 -3 5 C-4.65 5.33 -6.3 5.66 -8 6 C-8 5.34 -8 4.68 -8 4 C-3.2 0 -3.2 0 0 0 Z " fill="#55C5F3" transform="translate(324,196)"/>
<path d="M0 0 C9.9 0 19.8 0 30 0 C30 0.33 30 0.66 30 1 C20.1 1 10.2 1 0 1 C0 0.67 0 0.34 0 0 Z " fill="#00A9ED" transform="translate(185,386)"/>
<path d="M0 0 C4.62 1.65 9.24 3.3 14 5 C13.01 5.66 12.02 6.32 11 7 C8.08203125 6.3203125 8.08203125 6.3203125 4.8125 5.125 C3.18248047 4.54105469 3.18248047 4.54105469 1.51953125 3.9453125 C0.68808594 3.63335937 -0.14335938 3.32140625 -1 3 C-0.67 2.01 -0.34 1.02 0 0 Z " fill="#D7F1FC" transform="translate(48,144)"/>
<path d="M0 0 C4.54709562 3.30697864 8.88409801 7.28744016 12 12 C11.67 12.99 11.34 13.98 11 15 C8.18662344 12.27376342 5.66417643 9.459781 3.25 6.375 C2.32960938 5.21097656 2.32960938 5.21097656 1.390625 4.0234375 C0 2 0 2 0 0 Z " fill="#D5F0FB" transform="translate(70,119)"/>
<path d="M0 0 C0.33 0 0.66 0 1 0 C1 9.57 1 19.14 1 29 C0.67 29 0.34 29 0 29 C0 19.43 0 9.86 0 0 Z " fill="#00A9ED" transform="translate(386,185)"/>
<path d="M0 0 C0.33 0 0.66 0 1 0 C1 9.57 1 19.14 1 29 C0.67 29 0.34 29 0 29 C0 19.43 0 9.86 0 0 Z " fill="#00A9ED" transform="translate(13,185)"/>
<path d="M0 0 C0.598125 0.20625 1.19625 0.4125 1.8125 0.625 C1.173125 0.79 0.53375 0.955 -0.125 1.125 C-2.34869241 2.406786 -2.34869241 2.406786 -2.67578125 4.5390625 C-2.9150978 6.56075155 -3.05643028 8.59341939 -3.1875 10.625 C-4.75 9.5 -4.75 9.5 -6.1875 7.625 C-6.0625 4.5625 -6.0625 4.5625 -5.1875 1.625 C-2.1875 -0.375 -2.1875 -0.375 0 0 Z " fill="#D6F0FB" transform="translate(308.1875,82.375)"/>
<path d="M0 0 C0.33 0 0.66 0 1 0 C1.2475 0.928125 1.495 1.85625 1.75 2.8125 C3.0960884 6.24502542 3.81585875 7.27146618 7 9 C9.64934822 9.71433121 9.64934822 9.71433121 12 10 C12 10.33 12 10.66 12 11 C7.64770828 11.42669527 5.67113339 11.51064497 2.125 8.8125 C0.01510764 6.01999541 -0.80774431 4.46060243 -1 1 C-0.67 0.67 -0.34 0.34 0 0 Z " fill="#A2DFF8" transform="translate(312,282)"/>
<path d="M0 0 C-0.33 0.66 -0.66 1.32 -1 2 C-2.77734375 2.5625 -2.77734375 2.5625 -4.9375 3 C-7.90810715 3.60382577 -8.78691174 3.78691174 -11 6 C-11.66 4.68 -12.32 3.36 -13 2 C-8.46298506 0.54815522 -4.81938524 -0.23509196 0 0 Z " fill="#C1EAFA" transform="translate(321,114)"/>
<path d="M0 0 C0.99 0.66 1.98 1.32 3 2 C3.42552252 4.76589638 3.35833436 6.35051898 2 8.8125 C-1.23988962 10.73618446 -4.2825819 10.18282384 -8 10 C-8 9.67 -8 9.34 -8 9 C-5.69 8.34 -3.38 7.68 -1 7 C-0.25042843 3.52852158 -0.25042843 3.52852158 0 0 Z " fill="#CDEEFB" transform="translate(265,53)"/>
<path d="M0 0 C0.33 0.99 0.66 1.98 1 3 C3.31 3.33 5.62 3.66 8 4 C8.33 3.01 8.66 2.02 9 1 C9.33 1 9.66 1 10 1 C10 3.31 10 5.62 10 8 C9.34 8 8.68 8 8 8 C8 7.01 8 6.02 8 5 C5.36 5 2.72 5 0 5 C0 3.35 0 1.7 0 0 Z " fill="#6ECEF4" transform="translate(210,44)"/>
<path d="M0 0 C9.24 0 18.48 0 28 0 C28 0.33 28 0.66 28 1 C18.76 1 9.52 1 0 1 C0 0.67 0 0.34 0 0 Z " fill="#00A9ED" transform="translate(185,13)"/>
<path d="M0 0 C0.33 0 0.66 0 1 0 C1 4.95 1 9.9 1 15 C0.67 15 0.34 15 0 15 C-0.33 12.69 -0.66 10.38 -1 8 C-1.99 8.495 -1.99 8.495 -3 9 C-2.01 6.03 -1.02 3.06 0 0 Z " fill="#A0DFF8" transform="translate(143,190)"/>
<path d="M0 0 C2.47960136 0.14024219 4.95852402 0.2869185 7.4375 0.4375 C8.14455078 0.47681641 8.85160156 0.51613281 9.58007812 0.55664062 C14.88671875 0.88671875 14.88671875 0.88671875 16 2 C16.04063832 3.66617115 16.042721 5.33388095 16 7 C14 6 14 6 13 3 C8.71 2.67 4.42 2.34 0 2 C0 1.34 0 0.68 0 0 Z " fill="#85D5F6" transform="translate(208,38)"/>
<path d="M0 0 C0.99 0.33 1.98 0.66 3 1 C1.6062718 5.43458973 -0.60582235 7.87378374 -4 11 C-2.7874262 7.27566618 -1.49140021 3.62197194 0 0 Z " fill="#DAF2FC" transform="translate(247,264)"/>
<path d="M0 0 C0.66 0.33 1.32 0.66 2 1 C2 2.32 2 3.64 2 5 C3.42621684 7.71126384 3.42621684 7.71126384 5 10 C4.01 10 3.02 10 2 10 C0.61328125 8.46875 0.61328125 8.46875 -0.6875 6.5 C-1.12449219 5.8503125 -1.56148438 5.200625 -2.01171875 4.53125 C-2.33785156 4.0259375 -2.66398437 3.520625 -3 3 C-2.01 2.01 -1.02 1.02 0 0 Z " fill="#CEEEFB" transform="translate(95,76)"/>
<path d="M0 0 C1.98 0 3.96 0 6 0 C5.34 2.97 4.68 5.94 4 9 C3.34 9 2.68 9 2 9 C2 6.69 2 4.38 2 2 C1.34 2 0.68 2 0 2 C0 1.34 0 0.68 0 0 Z " fill="#4CC2F2" transform="translate(58,193)"/>
<path d="M0 0 C3.28900407 0.54816735 5.29280239 1.58903698 8 3.5 C7.34 4.16 6.68 4.82 6 5.5 C5.46375 4.984375 4.9275 4.46875 4.375 3.9375 C2.03320661 2.21173153 2.03320661 2.21173153 -1 2.6875 C-3.58921478 3.38874567 -5.68709509 4.16563178 -8 5.5 C-3.87378641 0.64563107 -3.87378641 0.64563107 0 0 Z " fill="#AAE2F8" transform="translate(129,54.5)"/>
<path d="M0 0 C0.99 0 1.98 0 3 0 C1.68775452 3.93673644 0.08089673 6.22719294 -3 9 C-3.33 8.01 -3.66 7.02 -4 6 C-3.34 6 -2.68 6 -2 6 C-1.34 4.02 -0.68 2.04 0 0 Z " fill="#D7F1FC" transform="translate(321,123)"/>
<path d="M0 0 C-1.28519565 2.86697492 -2.57129254 4.97607712 -5 7 C-5.66 7 -6.32 7 -7 7 C-7 4 -7 4 -5.1875 1.8125 C-3 0 -3 0 0 0 Z " fill="#60C9F4" transform="translate(323,320)"/>
<path d="M0 0 C0.804375 0.4640625 0.804375 0.4640625 1.625 0.9375 C4.39884729 2.17843168 7.00596221 2.54438555 10 3 C10.66 3.33 11.32 3.66 12 4 C11 5 11 5 7.6875 5.25 C3.91619093 4.99431803 2.57543228 4.67844957 0 2 C0 1.34 0 0.68 0 0 Z " fill="#B1E4F9" transform="translate(126,76)"/>
<path d="M0 0 C0.66 0 1.32 0 2 0 C1.5359375 1.2684375 1.5359375 1.2684375 1.0625 2.5625 C-0.01538821 6.0497854 -0.56581304 9.38177535 -1 13 C-1.33 13 -1.66 13 -2 13 C-2.05416188 11.39620659 -2.09286638 9.79188594 -2.125 8.1875 C-2.14820313 7.29417969 -2.17140625 6.40085937 -2.1953125 5.48046875 C-2 3 -2 3 0 0 Z " fill="#E2F5FC" transform="translate(274,71)"/>
<path d="M0 0 C2.97 0.33 5.94 0.66 9 1 C9 1.66 9 2.32 9 3 C5.65747276 3.07427838 3.1964086 3.06546953 0 2 C0 1.34 0 0.68 0 0 Z " fill="#6DCEF4" transform="translate(159,366)"/>
<path d="M0 0 C0.66 0 1.32 0 2 0 C1.67 1.65 1.34 3.3 1 5 C0.34 5 -0.32 5 -1 5 C-1.33 5.99 -1.66 6.98 -2 8 C-3 5 -3 5 -1.6875 2.3125 C-1.130625 1.549375 -0.57375 0.78625 0 0 Z " fill="#68CCF4" transform="translate(339,298)"/>
<path d="M0 0 C0.66 0 1.32 0 2 0 C1.38722388 2.96175123 0.74627478 4.38058783 -1 7 C-1.66 7 -2.32 7 -3 7 C-2.38722388 4.03824877 -1.74627478 2.61941217 0 0 Z " fill="#66CBF4" transform="translate(333,306)"/>
<path d="M0 0 C0.66 0 1.32 0 2 0 C2 0.66 2 1.32 2 2 C2.66 2 3.32 2 4 2 C4.33 3.65 4.66 5.3 5 7 C4.34 7 3.68 7 3 7 C0 2.61538462 0 2.61538462 0 0 Z " fill="#6BCDF4" transform="translate(334,91)"/>
<path d="M0 0 C0.99 0 1.98 0 3 0 C3 0.99 3 1.98 3 3 C2.34 3 1.68 3 1 3 C1 3.66 1 4.32 1 5 C0.01 5 -0.98 5 -2 5 C-2 4.01 -2 3.02 -2 2 C-1.34 2 -0.68 2 0 2 C0 1.34 0 0.68 0 0 Z " fill="#75D0F5" transform="translate(72,72)"/>
<path d="M0 0 C2.64 0 5.28 0 8 0 C8 0.33 8 0.66 8 1 C5.36 1 2.72 1 0 1 C0 0.67 0 0.34 0 0 Z " fill="#00A9ED" transform="translate(175,385)"/>
<path d="M0 0 C2.64 0 5.28 0 8 0 C8 0.33 8 0.66 8 1 C5.36 1 2.72 1 0 1 C0 0.67 0 0.34 0 0 Z " fill="#00A9ED" transform="translate(216,14)"/>
<path d="M0 0 C2.64 0 5.28 0 8 0 C8 0.33 8 0.66 8 1 C5.36 1 2.72 1 0 1 C0 0.67 0 0.34 0 0 Z " fill="#00A9ED" transform="translate(175,14)"/>
<path d="M0 0 C2.31 0 4.62 0 7 0 C7 0.33 7 0.66 7 1 C4.69 1 2.38 1 0 1 C0 0.67 0 0.34 0 0 Z " fill="#00A9ED" transform="translate(218,385)"/>
<path d="M0 0 C0.33 0 0.66 0 1 0 C1 2.31 1 4.62 1 7 C0.67 7 0.34 7 0 7 C0 4.69 0 2.38 0 0 Z " fill="#00A9ED" transform="translate(385,217)"/>
<path d="M0 0 C0.33 0 0.66 0 1 0 C1 2.31 1 4.62 1 7 C0.67 7 0.34 7 0 7 C0 4.69 0 2.38 0 0 Z " fill="#00A9ED" transform="translate(14,217)"/>
<path d="M0 0 C0.33 0 0.66 0 1 0 C1 2.31 1 4.62 1 7 C0.67 7 0.34 7 0 7 C0 4.69 0 2.38 0 0 Z " fill="#00A9ED" transform="translate(385,176)"/>
<path d="M0 0 C0.33 0 0.66 0 1 0 C1 2.31 1 4.62 1 7 C0.67 7 0.34 7 0 7 C0 4.69 0 2.38 0 0 Z " fill="#00A9ED" transform="translate(14,176)"/>
<path d="M0 0 C0.33 0 0.66 0 1 0 C1 1.98 1 3.96 1 6 C0.67 6 0.34 6 0 6 C0 4.02 0 2.04 0 0 Z " fill="#00A9EC" transform="translate(384,225)"/>
<path d="M0 0 C0.33 0 0.66 0 1 0 C1 1.98 1 3.96 1 6 C0.67 6 0.34 6 0 6 C0 4.02 0 2.04 0 0 Z " fill="#00A9ED" transform="translate(15,225)"/>
<path d="M0 0 C0.33 0 0.66 0 1 0 C1 1.98 1 3.96 1 6 C0.67 6 0.34 6 0 6 C0 4.02 0 2.04 0 0 Z " fill="#00A9ED" transform="translate(384,169)"/>
<path d="M0 0 C0.33 0 0.66 0 1 0 C1 1.98 1 3.96 1 6 C0.67 6 0.34 6 0 6 C0 4.02 0 2.04 0 0 Z " fill="#00A9ED" transform="translate(15,169)"/>
<path d="M0 0 C1.98 0 3.96 0 6 0 C6 0.33 6 0.66 6 1 C4.02 1 2.04 1 0 1 C0 0.67 0 0.34 0 0 Z " fill="#00A9ED" transform="translate(225,15)"/>
<path d="M0 0 C1.65 0 3.3 0 5 0 C5 0.33 5 0.66 5 1 C3.35 1 1.7 1 0 1 C0 0.67 0 0.34 0 0 Z " fill="#00A9ED" transform="translate(226,384)"/>
<path d="M0 0 C1.65 0 3.3 0 5 0 C5 0.33 5 0.66 5 1 C3.35 1 1.7 1 0 1 C0 0.67 0 0.34 0 0 Z " fill="#00A9ED" transform="translate(169,384)"/>
<path d="M0 0 C1.65 0 3.3 0 5 0 C5 0.33 5 0.66 5 1 C3.35 1 1.7 1 0 1 C0 0.67 0 0.34 0 0 Z " fill="#00A9EC" transform="translate(232,383)"/>
<path d="M0 0 C1.65 0 3.3 0 5 0 C5 0.33 5 0.66 5 1 C3.35 1 1.7 1 0 1 C0 0.67 0 0.34 0 0 Z " fill="#00A9ED" transform="translate(163,383)"/>
<path d="M0 0 C1.65 0 3.3 0 5 0 C5 0.33 5 0.66 5 1 C3.35 1 1.7 1 0 1 C0 0.67 0 0.34 0 0 Z " fill="#00A9EC" transform="translate(163,16)"/>
<path d="M0 0 C1.65 0 3.3 0 5 0 C5 0.33 5 0.66 5 1 C3.35 1 1.7 1 0 1 C0 0.67 0 0.34 0 0 Z " fill="#00A9ED" transform="translate(169,15)"/>
<path d="M0 0 C4 1 4 1 4 1 Z " fill="#00A9EC" transform="translate(237,382)"/>
<path d="M0 0 C4 1 4 1 4 1 Z " fill="#00A9ED" transform="translate(159,382)"/>
<path d="M0 0 C4 1 4 1 4 1 Z " fill="#00A9ED" transform="translate(154,381)"/>
<path d="M0 0 C1 4 1 4 1 4 Z " fill="#00A9ED" transform="translate(17,237)"/>
<path d="M0 0 C1 4 1 4 1 4 Z " fill="#00A9ED" transform="translate(382,237)"/>
<path d="M0 0 C1 4 1 4 1 4 Z " fill="#00A9ED" transform="translate(383,232)"/>
<path d="M0 0 C1 4 1 4 1 4 Z " fill="#00A9ED" transform="translate(16,232)"/>
<path d="M0 0 C1 4 1 4 1 4 Z " fill="#00A9ED" transform="translate(383,164)"/>
<path d="M0 0 C1 4 1 4 1 4 Z " fill="#00A9ED" transform="translate(16,164)"/>
<path d="M0 0 C1 4 1 4 1 4 Z " fill="#00A9ED" transform="translate(382,159)"/>
<path d="M0 0 C1 4 1 4 1 4 Z " fill="#00A9ED" transform="translate(17,159)"/>
<path d="M0 0 C4 1 4 1 4 1 Z " fill="#00A9ED" transform="translate(154,18)"/>
<path d="M0 0 C4 1 4 1 4 1 Z " fill="#00A9ED" transform="translate(237,17)"/>
<path d="M0 0 C4 1 4 1 4 1 Z " fill="#00A9ED" transform="translate(159,17)"/>
<path d="M0 0 C4 1 4 1 4 1 Z " fill="#00A9ED" transform="translate(232,16)"/>
<path d="M0 0 C3 1 3 1 3 1 Z " fill="#00A9ED" transform="translate(242,381)"/>
<path d="M0 0 C3 1 3 1 3 1 Z " fill="#00A9ED" transform="translate(246,380)"/>
<path d="M0 0 C3 1 3 1 3 1 Z " fill="#00A9ED" transform="translate(151,380)"/>
<path d="M0 0 C3 1 3 1 3 1 Z " fill="#00A9ED" transform="translate(250,379)"/>
<path d="M0 0 C3 1 3 1 3 1 Z " fill="#00A9ED" transform="translate(147,379)"/>
<path d="M0 0 C3 1 3 1 3 1 Z " fill="#00A9ED" transform="translate(253,378)"/>
<path d="M0 0 C3 1 3 1 3 1 Z " fill="#00A9ED" transform="translate(144,378)"/>
<path d="M0 0 C3 1 3 1 3 1 Z " fill="#00A9ED" transform="translate(141,377)"/>
<path d="M0 0 C3 1 3 1 3 1 Z " fill="#00A9ED" transform="translate(259,376)"/>
<path d="M0 0 C3 1 3 1 3 1 Z " fill="#00AAED" transform="translate(138,376)"/>
<path d="M0 0 C3 1 3 1 3 1 Z " fill="#00A9ED" transform="translate(262,375)"/>
<path d="M0 0 C3 1 3 1 3 1 Z " fill="#00A9ED" transform="translate(135,375)"/>
<path d="" fill="#01A9EE" transform="translate(0,0)"/>
<path d="" fill="#00A9ED" transform="translate(0,0)"/>
<path d="" fill="#00A9ED" transform="translate(0,0)"/>
<path d="" fill="#00A9ED" transform="translate(0,0)"/>
<path d="" fill="#00AAEC" transform="translate(0,0)"/>
<path d="" fill="#00A9ED" transform="translate(0,0)"/>
<path d="" fill="#00A9EE" transform="translate(0,0)"/>
<path d="" fill="#00A9ED" transform="translate(0,0)"/>
<path d="" fill="#00AAED" transform="translate(0,0)"/>
<path d="" fill="#00A9ED" transform="translate(0,0)"/>
<path d="" fill="#00A9ED" transform="translate(0,0)"/>
<path d="" fill="#00A9ED" transform="translate(0,0)"/>
<path d="" fill="#00A9ED" transform="translate(0,0)"/>
<path d="" fill="#00A9ED" transform="translate(0,0)"/>
<path d="" fill="#00A9ED" transform="translate(0,0)"/>
<path d="" fill="#00A9EE" transform="translate(0,0)"/>
<path d="" fill="#00A9ED" transform="translate(0,0)"/>
<path d="" fill="#00A9ED" transform="translate(0,0)"/>
<path d="" fill="#00AAED" transform="translate(0,0)"/>
<path d="" fill="#00A9ED" transform="translate(0,0)"/>
<path d="" fill="#00A9ED" transform="translate(0,0)"/>
<path d="" fill="#00A9ED" transform="translate(0,0)"/>
<path d="" fill="#00A9ED" transform="translate(0,0)"/>
<path d="" fill="#00A9ED" transform="translate(0,0)"/>
<path d="" fill="#00A8ED" transform="translate(0,0)"/>
<path d="" fill="#00A9ED" transform="translate(0,0)"/>
<path d="" fill="#00A9ED" transform="translate(0,0)"/>
<path d="" fill="#01AAED" transform="translate(0,0)"/>
<path d="M0 0 C3 1 3 1 3 1 Z " fill="#00A9ED" transform="translate(267,26)"/>
<path d="M0 0 C3 1 3 1 3 1 Z " fill="#00A9ED" transform="translate(262,24)"/>
<path d="M0 0 C3 1 3 1 3 1 Z " fill="#00A9EE" transform="translate(135,24)"/>
<path d="M0 0 C3 1 3 1 3 1 Z " fill="#00A9ED" transform="translate(259,23)"/>
<path d="M0 0 C3 1 3 1 3 1 Z " fill="#00A9EC" transform="translate(138,23)"/>
<path d="M0 0 C3 1 3 1 3 1 Z " fill="#00A9EE" transform="translate(256,22)"/>
<path d="M0 0 C3 1 3 1 3 1 Z " fill="#00A9EC" transform="translate(141,22)"/>
<path d="M0 0 C3 1 3 1 3 1 Z " fill="#00A9ED" transform="translate(253,21)"/>
<path d="M0 0 C3 1 3 1 3 1 Z " fill="#00A9ED" transform="translate(144,21)"/>
<path d="M0 0 C3 1 3 1 3 1 Z " fill="#01A9EE" transform="translate(249,20)"/>
<path d="M0 0 C3 1 3 1 3 1 Z " fill="#00A9ED" transform="translate(147,20)"/>
<path d="M0 0 C3 1 3 1 3 1 Z " fill="#00A9ED" transform="translate(246,19)"/>
<path d="M0 0 C3 1 3 1 3 1 Z " fill="#00A9ED" transform="translate(151,19)"/>
<path d="M0 0 C3 1 3 1 3 1 Z " fill="#00A9ED" transform="translate(242,18)"/>
<path d="M0 0 C2 1 2 1 2 1 Z " fill="#00A9ED" transform="translate(257,377)"/>
<path d="M0 0 C2 1 2 1 2 1 Z " fill="#00AAED" transform="translate(265,374)"/>
<path d="M0 0 C2 1 2 1 2 1 Z " fill="#00A9ED" transform="translate(133,374)"/>
<path d="M0 0 C2 1 2 1 2 1 Z " fill="#00A9ED" transform="translate(268,373)"/>
<path d="M0 0 C2 1 2 1 2 1 Z " fill="#00A9ED" transform="translate(130,373)"/>
<path d="M0 0 C2 1 2 1 2 1 Z " fill="#00A9ED" transform="translate(270,372)"/>
<path d="M0 0 C2 1 2 1 2 1 Z " fill="#00A9ED" transform="translate(128,372)"/>
<path d="M0 0 C2 1 2 1 2 1 Z " fill="#00A9ED" transform="translate(275,370)"/>
<path d="M0 0 C2 1 2 1 2 1 Z " fill="#00A9ED" transform="translate(123,370)"/>
<path d="M0 0 C2 1 2 1 2 1 Z " fill="#00A9ED" transform="translate(277,369)"/>
<path d="M0 0 C2 1 2 1 2 1 Z " fill="#00A9EC" transform="translate(121,369)"/>
<path d="M0 0 C2 1 2 1 2 1 Z " fill="#00A9ED" transform="translate(279,368)"/>
<path d="M0 0 C2 1 2 1 2 1 Z " fill="#00A9ED" transform="translate(119,368)"/>
<path d="M0 0 C2 1 2 1 2 1 Z " fill="#00A9EE" transform="translate(281,367)"/>
<path d="M0 0 C2 1 2 1 2 1 Z " fill="#00A9ED" transform="translate(117,367)"/>
<path d="M0 0 C2 1 2 1 2 1 Z " fill="#00A9ED" transform="translate(283,366)"/>
<path d="M0 0 C2 1 2 1 2 1 Z " fill="#00A9ED" transform="translate(115,366)"/>
<path d="M0 0 C2 1 2 1 2 1 Z " fill="#00A9ED" transform="translate(285,365)"/>
<path d="M0 0 C2 1 2 1 2 1 Z " fill="#00A9ED" transform="translate(113,365)"/>
<path d="M0 0 C2 1 2 1 2 1 Z " fill="#00A9ED" transform="translate(287,364)"/>
<path d="M0 0 C2 1 2 1 2 1 Z " fill="#00A9ED" transform="translate(111,364)"/>
<path d="M0 0 C2 1 2 1 2 1 Z " fill="#00A8EC" transform="translate(292,361)"/>
<path d="M0 0 C2 1 2 1 2 1 Z " fill="#01A9ED" transform="translate(106,361)"/>
<path d="M0 0 C2 1 2 1 2 1 Z " fill="#00A9ED" transform="translate(294,360)"/>
<path d="M0 0 C2 1 2 1 2 1 Z " fill="#00A9ED" transform="translate(104,360)"/>
<path d="M0 0 C2 1 2 1 2 1 Z " fill="#00A9ED" transform="translate(297,358)"/>
<path d="M0 0 C2 1 2 1 2 1 Z " fill="#01A9EC" transform="translate(101,358)"/>
<path d="M0 0 C2 1 2 1 2 1 Z " fill="#01A9ED" transform="translate(306,352)"/>
<path d="M0 0 C2 1 2 1 2 1 Z " fill="#01A9ED" transform="translate(92,352)"/>
<path d="M0 0 C2 1 2 1 2 1 Z " fill="#00A9ED" transform="translate(309,350)"/>
<path d="M0 0 C2 1 2 1 2 1 Z " fill="#00A9ED" transform="translate(89,350)"/>
<path d="M0 0 C2 1 2 1 2 1 Z " fill="#01A9EC" transform="translate(314,346)"/>
<path d="M0 0 C2 1 2 1 2 1 Z " fill="#01A9EB" transform="translate(319,342)"/>
<path d="M0 0 C2 1 2 1 2 1 Z " fill="#00A9ED" transform="translate(79,342)"/>
<path d="" fill="#01AAED" transform="translate(0,0)"/>
<path d="" fill="#01A9EC" transform="translate(0,0)"/>
<path d="" fill="#00A9ED" transform="translate(0,0)"/>
<path d="" fill="#00A9ED" transform="translate(0,0)"/>
<path d="" fill="#01AAED" transform="translate(0,0)"/>
<path d="" fill="#01AAED" transform="translate(0,0)"/>
<path d="" fill="#00A9ED" transform="translate(0,0)"/>
<path d="" fill="#01A9ED" transform="translate(0,0)"/>
<path d="" fill="#00A9ED" transform="translate(0,0)"/>
<path d="" fill="#00A9ED" transform="translate(0,0)"/>
<path d="" fill="#00A9ED" transform="translate(0,0)"/>
<path d="" fill="#00A9ED" transform="translate(0,0)"/>
<path d="" fill="#00A9ED" transform="translate(0,0)"/>
<path d="" fill="#00A9ED" transform="translate(0,0)"/>
<path d="" fill="#00A9ED" transform="translate(0,0)"/>
<path d="" fill="#00A9ED" transform="translate(0,0)"/>
<path d="" fill="#00A9ED" transform="translate(0,0)"/>
<path d="" fill="#00A9ED" transform="translate(0,0)"/>
<path d="" fill="#00A9ED" transform="translate(0,0)"/>
<path d="" fill="#00A9ED" transform="translate(0,0)"/>
<path d="" fill="#00A9ED" transform="translate(0,0)"/>
<path d="" fill="#00A9ED" transform="translate(0,0)"/>
<path d="" fill="#00A9ED" transform="translate(0,0)"/>
<path d="" fill="#00A9ED" transform="translate(0,0)"/>
<path d="" fill="#00A9ED" transform="translate(0,0)"/>
<path d="" fill="#00A9EE" transform="translate(0,0)"/>
<path d="" fill="#01AAED" transform="translate(0,0)"/>
<path d="" fill="#01A9ED" transform="translate(0,0)"/>
<path d="" fill="#00A9ED" transform="translate(0,0)"/>
<path d="" fill="#00A9ED" transform="translate(0,0)"/>
<path d="" fill="#00A9ED" transform="translate(0,0)"/>
<path d="" fill="#00A9ED" transform="translate(0,0)"/>
<path d="" fill="#00A9ED" transform="translate(0,0)"/>
<path d="" fill="#00A9ED" transform="translate(0,0)"/>
<path d="" fill="#00A9ED" transform="translate(0,0)"/>
<path d="" fill="#00A9ED" transform="translate(0,0)"/>
<path d="" fill="#00A9ED" transform="translate(0,0)"/>
<path d="" fill="#00A9ED" transform="translate(0,0)"/>
<path d="" fill="#00A9EE" transform="translate(0,0)"/>
<path d="" fill="#00A9ED" transform="translate(0,0)"/>
<path d="" fill="#01A9ED" transform="translate(0,0)"/>
<path d="" fill="#01AAED" transform="translate(0,0)"/>
<path d="" fill="#00A9ED" transform="translate(0,0)"/>
<path d="" fill="#00AAED" transform="translate(0,0)"/>
<path d="" fill="#00A9ED" transform="translate(0,0)"/>
<path d="" fill="#00A9ED" transform="translate(0,0)"/>
<path d="" fill="#00A9ED" transform="translate(0,0)"/>
<path d="" fill="#00A9ED" transform="translate(0,0)"/>
<path d="" fill="#00A9ED" transform="translate(0,0)"/>
<path d="" fill="#00A9ED" transform="translate(0,0)"/>
<path d="" fill="#00AAED" transform="translate(0,0)"/>
<path d="" fill="#00A9ED" transform="translate(0,0)"/>
<path d="" fill="#00A9ED" transform="translate(0,0)"/>
<path d="" fill="#00A9ED" transform="translate(0,0)"/>
<path d="" fill="#00A9ED" transform="translate(0,0)"/>
<path d="" fill="#00A9ED" transform="translate(0,0)"/>
<path d="" fill="#00A9EE" transform="translate(0,0)"/>
<path d="" fill="#00A9ED" transform="translate(0,0)"/>
<path d="" fill="#00AAED" transform="translate(0,0)"/>
<path d="" fill="#00A9ED" transform="translate(0,0)"/>
<path d="" fill="#01AAEC" transform="translate(0,0)"/>
<path d="" fill="#01A9EC" transform="translate(0,0)"/>
<path d="" fill="#01AAEC" transform="translate(0,0)"/>
<path d="" fill="#02AAEE" transform="translate(0,0)"/>
<path d="" fill="#00A9EE" transform="translate(0,0)"/>
<path d="" fill="#00A9ED" transform="translate(0,0)"/>
<path d="" fill="#02A8EE" transform="translate(0,0)"/>
<path d="" fill="#00AAED" transform="translate(0,0)"/>
<path d="" fill="#01A9EB" transform="translate(0,0)"/>
<path d="M0 0 C2 1 2 1 2 1 Z " fill="#01A9EC" transform="translate(319,57)"/>
<path d="M0 0 C2 1 2 1 2 1 Z " fill="#02A9EF" transform="translate(79,57)"/>
<path d="M0 0 C2 1 2 1 2 1 Z " fill="#01A9EE" transform="translate(314,53)"/>
<path d="M0 0 C2 1 2 1 2 1 Z " fill="#00A9ED" transform="translate(309,49)"/>
<path d="M0 0 C2 1 2 1 2 1 Z " fill="#00A9ED" transform="translate(89,49)"/>
<path d="M0 0 C2 1 2 1 2 1 Z " fill="#01AAED" transform="translate(306,47)"/>
<path d="M0 0 C2 1 2 1 2 1 Z " fill="#00A9ED" transform="translate(297,41)"/>
<path d="M0 0 C2 1 2 1 2 1 Z " fill="#01A9EC" transform="translate(101,41)"/>
<path d="M0 0 C2 1 2 1 2 1 Z " fill="#00A8ED" transform="translate(294,39)"/>
<path d="M0 0 C2 1 2 1 2 1 Z " fill="#00A9ED" transform="translate(104,39)"/>
<path d="M0 0 C2 1 2 1 2 1 Z " fill="#00A9ED" transform="translate(292,38)"/>
<path d="M0 0 C2 1 2 1 2 1 Z " fill="#00A9ED" transform="translate(287,35)"/>
<path d="M0 0 C2 1 2 1 2 1 Z " fill="#00A9ED" transform="translate(111,35)"/>
<path d="M0 0 C2 1 2 1 2 1 Z " fill="#00AAED" transform="translate(285,34)"/>
<path d="M0 0 C2 1 2 1 2 1 Z " fill="#00A9ED" transform="translate(113,34)"/>
<path d="M0 0 C2 1 2 1 2 1 Z " fill="#00A9ED" transform="translate(283,33)"/>
<path d="M0 0 C2 1 2 1 2 1 Z " fill="#00A9ED" transform="translate(115,33)"/>
<path d="M0 0 C2 1 2 1 2 1 Z " fill="#00A9ED" transform="translate(281,32)"/>
<path d="M0 0 C2 1 2 1 2 1 Z " fill="#00A9ED" transform="translate(117,32)"/>
<path d="M0 0 C2 1 2 1 2 1 Z " fill="#00A9ED" transform="translate(279,31)"/>
<path d="M0 0 C2 1 2 1 2 1 Z " fill="#00A9ED" transform="translate(119,31)"/>
<path d="M0 0 C2 1 2 1 2 1 Z " fill="#00A9ED" transform="translate(277,30)"/>
<path d="M0 0 C2 1 2 1 2 1 Z " fill="#00A8ED" transform="translate(121,30)"/>
<path d="M0 0 C2 1 2 1 2 1 Z " fill="#00A9ED" transform="translate(275,29)"/>
<path d="M0 0 C2 1 2 1 2 1 Z " fill="#00A9ED" transform="translate(123,29)"/>
<path d="M0 0 C2 1 2 1 2 1 Z " fill="#00AAED" transform="translate(272,28)"/>
<path d="M0 0 C2 1 2 1 2 1 Z " fill="#00A9ED" transform="translate(270,27)"/>
<path d="M0 0 C2 1 2 1 2 1 Z " fill="#00A9ED" transform="translate(128,27)"/>
<path d="M0 0 C2 1 2 1 2 1 Z " fill="#00A9ED" transform="translate(130,26)"/>
<path d="M0 0 C2 1 2 1 2 1 Z " fill="#00A9ED" transform="translate(265,25)"/>
<path d="M0 0 C2 1 2 1 2 1 Z " fill="#00AAED" transform="translate(133,25)"/>
<path d="" fill="#00A9ED" transform="translate(0,0)"/>
<path d="" fill="#00A9ED" transform="translate(0,0)"/>
<path d="" fill="#00AAED" transform="translate(0,0)"/>
<path d="" fill="#00A9ED" transform="translate(0,0)"/>
<path d="" fill="#00A9ED" transform="translate(0,0)"/>
<path d="" fill="#00A9ED" transform="translate(0,0)"/>
<path d="" fill="#00A9ED" transform="translate(0,0)"/>
<path d="" fill="#00A9ED" transform="translate(0,0)"/>
<path d="" fill="#00A9ED" transform="translate(0,0)"/>
<path d="" fill="#00A9ED" transform="translate(0,0)"/>
<path d="" fill="#00A9ED" transform="translate(0,0)"/>
<path d="" fill="#00A9ED" transform="translate(0,0)"/>
<path d="" fill="#00A9ED" transform="translate(0,0)"/>
<path d="" fill="#00A9ED" transform="translate(0,0)"/>
<path d="" fill="#00A9EE" transform="translate(0,0)"/>
<path d="" fill="#00AAED" transform="translate(0,0)"/>
<path d="" fill="#00A9EE" transform="translate(0,0)"/>
<path d="" fill="#00A9EE" transform="translate(0,0)"/>
<path d="" fill="#00A9ED" transform="translate(0,0)"/>
<path d="" fill="#00A9ED" transform="translate(0,0)"/>
<path d="" fill="#00A9EE" transform="translate(0,0)"/>
<path d="" fill="#00AAED" transform="translate(0,0)"/>
<path d="" fill="#00A9ED" transform="translate(0,0)"/>
<path d="" fill="#00A9ED" transform="translate(0,0)"/>
<path d="" fill="#00A9ED" transform="translate(0,0)"/>
<path d="" fill="#00A9ED" transform="translate(0,0)"/>
<path d="" fill="#00AAED" transform="translate(0,0)"/>
<path d="" fill="#00A9EE" transform="translate(0,0)"/>
<path d="" fill="#00A9ED" transform="translate(0,0)"/>
<path d="" fill="#00AAED" transform="translate(0,0)"/>
<path d="" fill="#00AAED" transform="translate(0,0)"/>
<path d="" fill="#01AAED" transform="translate(0,0)"/>
<path d="" fill="#01A9ED" transform="translate(0,0)"/>
<path d="" fill="#00A9ED" transform="translate(0,0)"/>
<path d="" fill="#00A9ED" transform="translate(0,0)"/>
<path d="" fill="#00A9ED" transform="translate(0,0)"/>
<path d="" fill="#00AAEE" transform="translate(0,0)"/>
<path d="" fill="#00A9ED" transform="translate(0,0)"/>
<path d="" fill="#00AAED" transform="translate(0,0)"/>
<path d="" fill="#00A9EE" transform="translate(0,0)"/>
<path d="" fill="#00AAED" transform="translate(0,0)"/>
<path d="" fill="#01AAED" transform="translate(0,0)"/>
<path d="" fill="#00A9EE" transform="translate(0,0)"/>
<path d="" fill="#01A9ED" transform="translate(0,0)"/>
<path d="" fill="#00AAEE" transform="translate(0,0)"/>
<path d="" fill="#01A9ED" transform="translate(0,0)"/>
<path d="" fill="#01AAEC" transform="translate(0,0)"/>
<path d="" fill="#01AAED" transform="translate(0,0)"/>
<path d="" fill="#01AAEC" transform="translate(0,0)"/>
<path d="" fill="#01A9EC" transform="translate(0,0)"/>
<path d="" fill="#02ABEC" transform="translate(0,0)"/>
<path d="" fill="#02A7ED" transform="translate(0,0)"/>
<path d="" fill="#02AAED" transform="translate(0,0)"/>
<path d="" fill="#02A9EC" transform="translate(0,0)"/>
<path d="" fill="#02A9EB" transform="translate(0,0)"/>
<path d="" fill="#02AAED" transform="translate(0,0)"/>
<path d="" fill="#02AAED" transform="translate(0,0)"/>
<path d="" fill="#01AAEB" transform="translate(0,0)"/>
<path d="" fill="#01AAEC" transform="translate(0,0)"/>
<path d="" fill="#01A9EC" transform="translate(0,0)"/>
<path d="" fill="#01ABEB" transform="translate(0,0)"/>
<path d="" fill="#01A9ED" transform="translate(0,0)"/>
<path d="" fill="#01AAED" transform="translate(0,0)"/>
<path d="" fill="#00A9ED" transform="translate(0,0)"/>
<path d="" fill="#00AAED" transform="translate(0,0)"/>
<path d="" fill="#00AAED" transform="translate(0,0)"/>
<path d="" fill="#00AAED" transform="translate(0,0)"/>
<path d="" fill="#00A9ED" transform="translate(0,0)"/>
<path d="" fill="#00AAED" transform="translate(0,0)"/>
<path d="" fill="#00A9ED" transform="translate(0,0)"/>
<path d="" fill="#00A9ED" transform="translate(0,0)"/>
<path d="" fill="#00A9ED" transform="translate(0,0)"/>
<path d="" fill="#00A9ED" transform="translate(0,0)"/>
<path d="" fill="#00A9ED" transform="translate(0,0)"/>
<path d="" fill="#00A9ED" transform="translate(0,0)"/>
<path d="" fill="#01AAED" transform="translate(0,0)"/>
<path d="" fill="#01AAEE" transform="translate(0,0)"/>
<path d="" fill="#00AAEE" transform="translate(0,0)"/>
<path d="" fill="#00AAEE" transform="translate(0,0)"/>
<path d="" fill="#00A9ED" transform="translate(0,0)"/>
<path d="" fill="#00A9ED" transform="translate(0,0)"/>
<path d="" fill="#00A9EE" transform="translate(0,0)"/>
<path d="" fill="#00A9EE" transform="translate(0,0)"/>
<path d="" fill="#01A9EC" transform="translate(0,0)"/>
<path d="" fill="#00AAED" transform="translate(0,0)"/>
<path d="" fill="#00A9ED" transform="translate(0,0)"/>
<path d="" fill="#00A9ED" transform="translate(0,0)"/>
<path d="" fill="#00A9ED" transform="translate(0,0)"/>
<path d="" fill="#00A9ED" transform="translate(0,0)"/>
<path d="" fill="#00AAEE" transform="translate(0,0)"/>
<path d="" fill="#00A9ED" transform="translate(0,0)"/>
<path d="" fill="#00AAED" transform="translate(0,0)"/>
<path d="" fill="#00A9ED" transform="translate(0,0)"/>
<path d="" fill="#00AAEE" transform="translate(0,0)"/>
<path d="" fill="#00A9EE" transform="translate(0,0)"/>
<path d="" fill="#00A9ED" transform="translate(0,0)"/>
<path d="" fill="#00AAED" transform="translate(0,0)"/>
<path d="" fill="#00A9EE" transform="translate(0,0)"/>
<path d="" fill="#00A9EE" transform="translate(0,0)"/>
<path d="" fill="#00A9ED" transform="translate(0,0)"/>
<path d="" fill="#00A9ED" transform="translate(0,0)"/>
<path d="" fill="#00A9ED" transform="translate(0,0)"/>
<path d="" fill="#00A9ED" transform="translate(0,0)"/>
<path d="" fill="#00A9ED" transform="translate(0,0)"/>
<path d="" fill="#00AAED" transform="translate(0,0)"/>
<path d="" fill="#00AAEE" transform="translate(0,0)"/>
<path d="" fill="#00AAEE" transform="translate(0,0)"/>
<path d="" fill="#00AAEE" transform="translate(0,0)"/>
<path d="" fill="#00A9ED" transform="translate(0,0)"/>
<path d="" fill="#00A9ED" transform="translate(0,0)"/>
<path d="" fill="#00A9ED" transform="translate(0,0)"/>
<path d="" fill="#00A9ED" transform="translate(0,0)"/>
<path d="" fill="#00A9EE" transform="translate(0,0)"/>
<path d="" fill="#00AAEE" transform="translate(0,0)"/>
<path d="" fill="#00A9ED" transform="translate(0,0)"/>
<path d="" fill="#00A9ED" transform="translate(0,0)"/>
<path d="" fill="#00A9ED" transform="translate(0,0)"/>
<path d="" fill="#00AAED" transform="translate(0,0)"/>
<path d="" fill="#01A9ED" transform="translate(0,0)"/>
<path d="" fill="#00A9EE" transform="translate(0,0)"/>
<path d="" fill="#00AAED" transform="translate(0,0)"/>
<path d="" fill="#00A9EE" transform="translate(0,0)"/>
<path d="" fill="#00AAED" transform="translate(0,0)"/>
<path d="" fill="#00A9ED" transform="translate(0,0)"/>
<path d="" fill="#00A9ED" transform="translate(0,0)"/>
<path d="" fill="#01A9ED" transform="translate(0,0)"/>
<path d="" fill="#00A8EE" transform="translate(0,0)"/>
<path d="" fill="#00A9EE" transform="translate(0,0)"/>
<path d="" fill="#00A9ED" transform="translate(0,0)"/>
<path d="" fill="#00AAED" transform="translate(0,0)"/>
<path d="" fill="#00A9ED" transform="translate(0,0)"/>
<path d="" fill="#00A9ED" transform="translate(0,0)"/>
<path d="" fill="#00A9ED" transform="translate(0,0)"/>
<path d="" fill="#00A9ED" transform="translate(0,0)"/>
<path d="" fill="#00AAED" transform="translate(0,0)"/>
<path d="" fill="#00A9EE" transform="translate(0,0)"/>
<path d="" fill="#01AAED" transform="translate(0,0)"/>
<path d="" fill="#01AAEE" transform="translate(0,0)"/>
<path d="" fill="#00A9ED" transform="translate(0,0)"/>
<path d="" fill="#00A9ED" transform="translate(0,0)"/>
<path d="" fill="#00A9ED" transform="translate(0,0)"/>
<path d="" fill="#00A9ED" transform="translate(0,0)"/>
<path d="" fill="#00A9ED" transform="translate(0,0)"/>
<path d="" fill="#00A9ED" transform="translate(0,0)"/>
<path d="" fill="#00AAED" transform="translate(0,0)"/>
<path d="" fill="#00A9ED" transform="translate(0,0)"/>
<path d="" fill="#00A9ED" transform="translate(0,0)"/>
<path d="" fill="#00A9EE" transform="translate(0,0)"/>
<path d="" fill="#00A9ED" transform="translate(0,0)"/>
<path d="" fill="#01AAED" transform="translate(0,0)"/>
<path d="" fill="#00AAEE" transform="translate(0,0)"/>
<path d="" fill="#01AAEC" transform="translate(0,0)"/>
<path d="" fill="#01ABEC" transform="translate(0,0)"/>
<path d="" fill="#02A9EC" transform="translate(0,0)"/>
<path d="" fill="#01AAEB" transform="translate(0,0)"/>
<path d="" fill="#02AAEC" transform="translate(0,0)"/>
<path d="" fill="#01AAEC" transform="translate(0,0)"/>
<path d="" fill="#02ACEC" transform="translate(0,0)"/>
<path d="" fill="#02AAEC" transform="translate(0,0)"/>
<path d="" fill="#02AAEC" transform="translate(0,0)"/>
<path d="" fill="#02A9EC" transform="translate(0,0)"/>
<path d="" fill="#02A9ED" transform="translate(0,0)"/>
<path d="" fill="#01ABEB" transform="translate(0,0)"/>
<path d="" fill="#02ABED" transform="translate(0,0)"/>
<path d="" fill="#01AAEC" transform="translate(0,0)"/>
<path d="" fill="#01ABEB" transform="translate(0,0)"/>
<path d="" fill="#01AAED" transform="translate(0,0)"/>
<path d="" fill="#01A9EC" transform="translate(0,0)"/>
<path d="" fill="#01A9EE" transform="translate(0,0)"/>
<path d="" fill="#01A9ED" transform="translate(0,0)"/>
<path d="" fill="#00AAED" transform="translate(0,0)"/>
<path d="" fill="#00A9EE" transform="translate(0,0)"/>
<path d="" fill="#00A9ED" transform="translate(0,0)"/>
<path d="" fill="#00A9ED" transform="translate(0,0)"/>
<path d="" fill="#00AAEE" transform="translate(0,0)"/>
<path d="" fill="#00A9ED" transform="translate(0,0)"/>
<path d="" fill="#00AAEE" transform="translate(0,0)"/>
<path d="" fill="#00A9ED" transform="translate(0,0)"/>
<path d="" fill="#00A9ED" transform="translate(0,0)"/>
<path d="" fill="#00A9EE" transform="translate(0,0)"/>
<path d="" fill="#01AAED" transform="translate(0,0)"/>
<path d="" fill="#01A9ED" transform="translate(0,0)"/>
<path d="" fill="#00AAED" transform="translate(0,0)"/>
<path d="" fill="#00A9EC" transform="translate(0,0)"/>
<path d="" fill="#00AAED" transform="translate(0,0)"/>
<path d="" fill="#00AAED" transform="translate(0,0)"/>
<path d="" fill="#00A9ED" transform="translate(0,0)"/>
<path d="" fill="#00AAED" transform="translate(0,0)"/>
<path d="" fill="#01AAED" transform="translate(0,0)"/>
<path d="" fill="#00A9ED" transform="translate(0,0)"/>
<path d="" fill="#00AAEE" transform="translate(0,0)"/>
<path d="" fill="#00A9EE" transform="translate(0,0)"/>
<path d="" fill="#00A9ED" transform="translate(0,0)"/>
<path d="" fill="#00AAED" transform="translate(0,0)"/>
<path d="" fill="#00AAED" transform="translate(0,0)"/>
<path d="" fill="#00A9ED" transform="translate(0,0)"/>
<path d="" fill="#00A9ED" transform="translate(0,0)"/>
<path d="" fill="#00A9ED" transform="translate(0,0)"/>
<path d="" fill="#00A9EE" transform="translate(0,0)"/>
<path d="" fill="#00A9EE" transform="translate(0,0)"/>
<path d="" fill="#00A9ED" transform="translate(0,0)"/>
<path d="" fill="#00A9ED" transform="translate(0,0)"/>
<path d="" fill="#00A9ED" transform="translate(0,0)"/>
<path d="" fill="#00A9ED" transform="translate(0,0)"/>
<path d="" fill="#00A9ED" transform="translate(0,0)"/>
<path d="" fill="#00A9ED" transform="translate(0,0)"/>
<path d="" fill="#00A9EE" transform="translate(0,0)"/>
<path d="" fill="#00A9ED" transform="translate(0,0)"/>
<path d="" fill="#00A9EE" transform="translate(0,0)"/>
<path d="" fill="#00AAED" transform="translate(0,0)"/>
<path d="" fill="#00A9ED" transform="translate(0,0)"/>
<path d="" fill="#00AAEE" transform="translate(0,0)"/>
<path d="" fill="#00A9ED" transform="translate(0,0)"/>
<path d="" fill="#00A9ED" transform="translate(0,0)"/>
</svg>
