<?xml version="1.0" encoding="UTF-8"?>
<svg version="1.1" xmlns="http://www.w3.org/2000/svg" width="300" height="168">
<path d="M0 0 C99 0 198 0 300 0 C300 55.44 300 110.88 300 168 C201 168 102 168 0 168 C0 112.56 0 57.12 0 0 Z " fill="#3B0068" transform="translate(0,0)"/>
<path d="M0 0 C2.908125 -0.061875 5.81625 -0.12375 8.8125 -0.1875 C9.72491455 -0.21481201 10.6373291 -0.24212402 11.57739258 -0.27026367 C12.66250122 -0.28150269 12.66250122 -0.28150269 13.76953125 -0.29296875 C14.87711792 -0.31653442 14.87711792 -0.31653442 16.00708008 -0.34057617 C18.57913896 0.09897083 19.4626959 0.9215161 21 3 C20.979375 3.969375 20.95875 4.93875 20.9375 5.9375 C20.64279129 9.10878124 20.64279129 9.10878124 23 10.9375 C25 13 25 13 25.5 16.5 C24.92936321 20.49445751 24.14975126 21.59136668 21 24 C18.65147472 25.17426264 17.26225935 25.11508173 14.6484375 25.09765625 C13.88192871 25.09515869 13.11541992 25.09266113 12.32568359 25.09008789 C11.35195801 25.08098389 10.37823242 25.07187988 9.375 25.0625 C6.28125 25.041875 3.1875 25.02125 0 25 C0 16.75 0 8.5 0 0 Z " fill="#E8E4EB" transform="translate(124,72)"/>
<path d="M0 0 C7.59 0 15.18 0 23 0 C23 0.66 23 1.32 23 2 C16.4 2 9.8 2 3 2 C3 4.31 3 6.62 3 9 C8.28 9 13.56 9 19 9 C19 9.66 19 10.32 19 11 C13.72 11 8.44 11 3 11 C3 14.63 3 18.26 3 22 C9.6 22 16.2 22 23 22 C23 22.99 23 23.98 23 25 C15.41 25 7.82 25 0 25 C0 16.75 0 8.5 0 0 Z " fill="#E9E6ED" transform="translate(154,72)"/>
<path d="M0 0 C2.60478883 -0.0809313 5.20706653 -0.14045434 7.8125 -0.1875 C8.55048828 -0.21263672 9.28847656 -0.23777344 10.04882812 -0.26367188 C15.50459477 -0.33773206 15.50459477 -0.33773206 17.98828125 1.35546875 C19.44627981 3.72542008 19.40905458 5.27296948 19 8 C17.98828125 9.64453125 17.98828125 9.64453125 16 11 C13.18872957 11.21714241 10.6116655 11.28284276 7.8125 11.1875 C6.68811523 11.16719727 6.68811523 11.16719727 5.54101562 11.14648438 C3.69370233 11.11118539 1.84675934 11.05737917 0 11 C0 7.37 0 3.74 0 0 Z " fill="#3F0B6B" transform="translate(127,83)"/>
<path d="M0 0 C0.99 0 1.98 0 3 0 C3 7.26 3 14.52 3 22 C9.6 22 16.2 22 23 22 C23 22.99 23 23.98 23 25 C15.41 25 7.82 25 0 25 C0 16.75 0 8.5 0 0 Z " fill="#EBE8EE" transform="translate(183,72)"/>
<path d="M0 0 C0.99 0 1.98 0 3 0 C3 7.26 3 14.52 3 22 C9.27 22 15.54 22 22 22 C22 22.99 22 23.98 22 25 C14.74 25 7.48 25 0 25 C0 16.75 0 8.5 0 0 Z " fill="#EBE8EE" transform="translate(95,72)"/>
<path d="M0 0 C4.62 0 9.24 0 14 0 C14.33 1.32 14.66 2.64 15 4 C14 5 14 5 10.83984375 5.09765625 C8.90818359 5.08025391 8.90818359 5.08025391 6.9375 5.0625 C5.64714844 5.05347656 4.35679687 5.04445313 3.02734375 5.03515625 C2.02832031 5.02355469 1.02929688 5.01195313 0 5 C0 3.35 0 1.7 0 0 Z " fill="#330064" transform="translate(127,75)"/>
<path d="M0 0 C0.99 0 1.98 0 3 0 C3 1.98 3 3.96 3 6 C2.01 5.67 1.02 5.34 0 5 C0 3.35 0 1.7 0 0 Z " fill="#DDD6E3" transform="translate(114,72)"/>
</svg>
