<?xml version="1.0" encoding="UTF-8"?>
<svg version="1.1" xmlns="http://www.w3.org/2000/svg" width="225" height="225">
<path d="M0 0 C74.25 0 148.5 0 225 0 C225 74.25 225 148.5 225 225 C150.75 225 76.5 225 0 225 C0 150.75 0 76.5 0 0 Z " fill="#77B750" transform="translate(0,0)"/>
<path d="M0 0 C7.47453553 3.49640435 10.17787048 10.62058007 13 18 C14.00665418 21.32453997 14.60466827 24.55125085 15 28 C15.11859375 28.94746094 15.2371875 29.89492187 15.359375 30.87109375 C16.17873775 42.98820825 8.76581685 51.07225509 1.86328125 60.3203125 C-4.07988688 68.86751027 -6.82833022 76.60445574 -6 87 C-5.23281338 90.10888996 -4.22621116 93.04395523 -3 96 C-11.78585754 93.8743893 -18.07308959 89.30132905 -23.484375 81.99609375 C-28.22579964 74.04218212 -28.1287876 64.53428434 -26.31640625 55.6484375 C-24.65021469 49.96541068 -22.45062592 44.79532262 -19.8125 39.5 C-16.67827098 33.03417236 -16.02333042 27.12744436 -16 20 C-12.65569263 20.72366315 -10.65737657 21.81715496 -8 24 C-2.0903189 16.37962174 -0.72562864 9.49045877 0 0 Z " fill="#1E1EB3" transform="translate(108,36)"/>
<path d="M0 0 C2.26123363 2.26123363 2.72554401 3.81551691 3.75 6.8125 C5.64893949 11.63984067 7.49446135 14.19466461 12 17 C14.95534418 18.18987671 17.92785653 19.16028078 21 20 C19.60897186 30.13166768 16.18507467 36.89874266 8.24609375 43.45703125 C3.43454289 46.76235749 -1.64174116 48.60695686 -7.375 49.5625 C-10 49 -10 49 -12.25 46.8125 C-15.78410487 41.1326886 -16.76953169 36.6283511 -16 30 C-13.73837009 22.5343868 -9.83152929 15.9659863 -5.75 9.375 C-4.91855469 8.01181641 -4.91855469 8.01181641 -4.0703125 6.62109375 C-2.72026827 4.40981441 -1.36348976 2.20300438 0 0 Z " fill="#1E1EB3" transform="translate(123,84)"/>
<path d="M0 0 C1.99990001 0.019999 4.00011814 0.02173785 6 0 C6.08741124 3.56234428 6.14052896 7.12441108 6.1875 10.6875 C6.21263672 11.69490234 6.23777344 12.70230469 6.26367188 13.74023438 C6.35644833 23.11065585 6.35644833 23.11065585 3 27 C-1.73866816 30.46731816 -5.47671349 30.08505257 -11.0234375 29.32421875 C-11.67570312 29.21722656 -12.32796875 29.11023438 -13 29 C-13.33 28.01 -13.66 27.02 -14 26 C-13.34 25.01 -12.68 24.02 -12 23 C-10.125 22.7421875 -10.125 22.7421875 -8 22.875 C-4.88264379 23.0856373 -4.88264379 23.0856373 -2 22 C-2 21.01 -2 20.02 -2 19 C-2.33 19.33 -2.66 19.66 -3 20 C-6.00306148 20.35035717 -8.09209075 20.55753147 -11 20 C-14.24712599 17.36171014 -15.63419615 15.84520524 -16.44140625 11.7734375 C-16.65338056 7.68438461 -16.32854541 5.52567265 -14.125 2 C-9.77138762 -2.09751754 -5.49122031 -1.37280508 0 0 Z " fill="#1E1EB2" transform="translate(138,159)"/>
<path d="M0 0 C3.05448544 0.17967561 4.62545344 0.61085596 7.1875 2.1875 C8.1775 1.5275 9.1675 0.8675 10.1875 0.1875 C13.63843577 -0.25304499 15.45142501 -0.31424896 18.359375 1.66796875 C21.02231161 5.33804164 20.66563338 8.46179053 20.5 12.875 C20.48549805 14.0515918 20.48549805 14.0515918 20.47070312 15.25195312 C20.35606123 21.01893877 20.35606123 21.01893877 19.1875 22.1875 C17.2075 22.1875 15.2275 22.1875 13.1875 22.1875 C13.1875 17.2375 13.1875 12.2875 13.1875 7.1875 C11.5375 7.8475 9.8875 8.5075 8.1875 9.1875 C8.09662109 10.46947266 8.09662109 10.46947266 8.00390625 11.77734375 C7.92011719 12.88207031 7.83632812 13.98679688 7.75 15.125 C7.66878906 16.22714844 7.58757812 17.32929688 7.50390625 18.46484375 C7.1875 21.1875 7.1875 21.1875 6.1875 22.1875 C4.2075 22.1875 2.2275 22.1875 0.1875 22.1875 C0.1875 17.2375 0.1875 12.2875 0.1875 7.1875 C-1.4625 7.8475 -3.1125 8.5075 -4.8125 9.1875 C-4.87308594 10.04214844 -4.93367188 10.89679688 -4.99609375 11.77734375 C-5.07988281 12.88207031 -5.16367188 13.98679688 -5.25 15.125 C-5.33121094 16.22714844 -5.41242188 17.32929688 -5.49609375 18.46484375 C-5.8125 21.1875 -5.8125 21.1875 -6.8125 22.1875 C-8.7925 22.1875 -10.7725 22.1875 -12.8125 22.1875 C-12.8125 15.2575 -12.8125 8.3275 -12.8125 1.1875 C-9.8125 1.1875 -6.8125 1.1875 -3.8125 1.1875 C-2.8125 0.1875 -2.8125 0.1875 0 0 Z " fill="#FCFDFB" transform="translate(75.8125,157.8125)"/>
<path d="M0 0 C1.625 1.1875 1.625 1.1875 3.625 4.1875 C3.79356854 6.93602428 3.8583134 9.56851859 3.8125 12.3125 C3.81185547 13.05371094 3.81121094 13.79492188 3.81054688 14.55859375 C3.76539459 20.04710541 3.76539459 20.04710541 2.625 21.1875 C0.95882885 21.22813832 -0.70888095 21.230221 -2.375 21.1875 C-2.375 20.5275 -2.375 19.8675 -2.375 19.1875 C-3.07625 19.703125 -3.7775 20.21875 -4.5 20.75 C-8.04706143 22.52353072 -9.6244556 22.32897004 -13.375 21.1875 C-15.25 20 -15.25 20 -16.375 18.1875 C-16.875 15.25 -16.875 15.25 -16.375 12.1875 C-14.21246443 9.61948901 -12.6528092 8.33394024 -9.26171875 7.9453125 C-7.29783161 7.93833599 -5.33440162 8.05465921 -3.375 8.1875 C-3.705 7.5275 -4.035 6.8675 -4.375 6.1875 C-7.345 6.1875 -10.315 6.1875 -13.375 6.1875 C-13.705 4.5375 -14.035 2.8875 -14.375 1.1875 C-10.05227268 -1.69431821 -4.80273594 -1.64304124 0 0 Z " fill="#FAFCF8" transform="translate(115.375,158.8125)"/>
<path d="M0 0 C2.1875 1.1875 2.1875 1.1875 4.1875 4.1875 C4.35606854 6.93602428 4.4208134 9.56851859 4.375 12.3125 C4.37435547 13.05371094 4.37371094 13.79492188 4.37304688 14.55859375 C4.32789459 20.04710541 4.32789459 20.04710541 3.1875 21.1875 C1.52132885 21.22813832 -0.14638095 21.230221 -1.8125 21.1875 C-1.8125 20.5275 -1.8125 19.8675 -1.8125 19.1875 C-2.8025 19.8475 -3.7925 20.5075 -4.8125 21.1875 C-7.53294151 21.65918946 -10.08903625 21.64046694 -12.8125 21.1875 C-14.875 19.5625 -14.875 19.5625 -15.8125 17.1875 C-15.8125 14.125 -15.8125 14.125 -14.8125 11.1875 C-11.02862143 7.84878362 -7.71344703 7.899209 -2.8125 8.1875 C-3.1425 7.5275 -3.4725 6.8675 -3.8125 6.1875 C-6.7825 6.1875 -9.7525 6.1875 -12.8125 6.1875 C-13.1425 4.5375 -13.4725 2.8875 -13.8125 1.1875 C-9.40177543 -1.63536372 -4.91935859 -1.42114804 0 0 Z " fill="#1F1FB2" transform="translate(162.8125,158.8125)"/>
<path d="M0 0 C0.66 0 1.32 0 2 0 C2.06316406 0.54785156 2.12632812 1.09570312 2.19140625 1.66015625 C3.20939834 8.25031557 5.49183922 13.63792666 8.61157227 19.46899414 C11.07328862 24.29976419 11.31480571 27.71825983 11 33 C7.58541958 32.93170839 4.95912954 32.80324393 2.26953125 30.55078125 C-3.13238677 24.40193136 -4.43631655 19.14800859 -4.3359375 11.02734375 C-3.84650768 6.61678436 -2.31142572 3.75606679 0 0 Z " fill="#2020B1" transform="translate(133,65)"/>
<path d="M0 0 C0.99 0.66 1.98 1.32 3 2 C2.6875 3.9375 2.6875 3.9375 2 6 C-1.28976808 7.09658936 -2.71303767 6.79953138 -6 6 C-6 6.66 -6 7.32 -6 8 C-4.329375 8.433125 -4.329375 8.433125 -2.625 8.875 C1 10 1 10 3 12 C3.5620985 18.18308351 3.5620985 18.18308351 1.828125 20.703125 C-0.69849665 22.49551472 -2.49288581 22.3656358 -5.5625 22.3125 C-6.53316406 22.30863281 -7.50382813 22.30476563 -8.50390625 22.30078125 C-11 22 -11 22 -13 20 C-12.67 18.68 -12.34 17.36 -12 16 C-9.03 16.33 -6.06 16.66 -3 17 C-4.60838293 13.78323414 -7.78593279 13.35329146 -11 12 C-13 10 -13 10 -13.4375 7.125 C-13 4 -13 4 -11 1.625 C-6.91938255 -0.58533445 -4.61001141 -0.44613014 0 0 Z " fill="#1F1FB2" transform="translate(184,158)"/>
<path d="M0 0 C3 0.125 3 0.125 4 1.125 C4.08713831 2.83272358 4.10700007 4.54398649 4.09765625 6.25390625 C4.09443359 7.28837891 4.09121094 8.32285156 4.08789062 9.38867188 C4.07951172 10.47728516 4.07113281 11.56589844 4.0625 12.6875 C4.05798828 13.77998047 4.05347656 14.87246094 4.04882812 15.99804688 C4.03699826 18.70708495 4.02051543 21.41601599 4 24.125 C4.99 24.455 5.98 24.785 7 25.125 C6.67 26.775 6.34 28.425 6 30.125 C0.48467967 30.49268802 0.48467967 30.49268802 -1.8125 28.75 C-4.09423535 25.62762532 -4.12844622 23.54188981 -4.1328125 19.71484375 C-4.13410156 18.64298828 -4.13539062 17.57113281 -4.13671875 16.46679688 C-4.13285156 15.34337891 -4.12898438 14.21996094 -4.125 13.0625 C-4.12886719 11.93521484 -4.13273437 10.80792969 -4.13671875 9.64648438 C-4.13542969 8.57591797 -4.13414063 7.50535156 -4.1328125 6.40234375 C-4.13168457 5.41484131 -4.13055664 4.42733887 -4.12939453 3.40991211 C-3.93170136 -0.0810509 -3.56375027 0.14848959 0 0 Z " fill="#F3F8F0" transform="translate(41,149.875)"/>
<path d="M0 0 C2.31 0 4.62 0 7 0 C7 6.93 7 13.86 7 21 C5.02 21 3.04 21 1 21 C0 20 0 20 -0.11352539 18.05053711 C-0.10567017 16.8015564 -0.10567017 16.8015564 -0.09765625 15.52734375 C-0.09443359 14.62822266 -0.09121094 13.72910156 -0.08789062 12.80273438 C-0.07951172 11.85720703 -0.07113281 10.91167969 -0.0625 9.9375 C-0.05798828 8.98810547 -0.05347656 8.03871094 -0.04882812 7.06054688 C-0.0370011 4.70696935 -0.02052025 2.35351523 0 0 Z " fill="#FCFDFB" transform="translate(51,159)"/>
<path d="M0 0 C4.55555556 0.55555556 4.55555556 0.55555556 6 2 C6.125 5 6.125 5 6 8 C5 9 5 9 2.5625 9.1875 C0 9 0 9 -2 7 C-2.25 4.5 -2.25 4.5 -2 2 C-1.34 1.34 -0.68 0.68 0 0 Z " fill="#74B254" transform="translate(131,164)"/>
<path d="M0 0 C2.5 0.125 2.5 0.125 3.5 1.125 C3.54063832 2.79117115 3.542721 4.45888095 3.5 6.125 C1.52 6.125 -0.46 6.125 -2.5 6.125 C-2.88218767 4.46885343 -3.21395102 2.80042976 -3.5 1.125 C-2.5 0.125 -2.5 0.125 0 0 Z " fill="#F3F8F0" transform="translate(54.5,149.875)"/>
<path d="M0 0 C-0.66 1.32 -1.32 2.64 -2 4 C-3.32 3.67 -4.64 3.34 -6 3 C-6 2.34 -6 1.68 -6 1 C-4 0 -4 0 0 0 Z " fill="#73B154" transform="translate(160,171)"/>
<path d="M0 0 C-0.66 1.32 -1.32 2.64 -2 4 C-3.32 3.67 -4.64 3.34 -6 3 C-6 2.34 -6 1.68 -6 1 C-4 0 -4 0 0 0 Z " fill="#7CBA55" transform="translate(112,171)"/>
</svg>
