<?xml version="1.0" encoding="UTF-8"?>
<svg version="1.1" xmlns="http://www.w3.org/2000/svg" width="330" height="329">
<path d="M0 0 C108.9 0 217.8 0 330 0 C330 108.57 330 217.14 330 329 C221.1 329 112.2 329 0 329 C0 220.43 0 111.86 0 0 Z " fill="#499E42" transform="translate(0,0)"/>
<path d="M0 0 C1.78302269 0.00636726 1.78302269 0.00636726 3.60206604 0.01286316 C7.38208082 0.02959624 11.1615538 0.06723985 14.94140625 0.10546875 C17.51105998 0.12052247 20.08072211 0.13420967 22.65039062 0.14648438 C28.9350793 0.17948227 35.21945406 0.22962871 41.50390625 0.29296875 C41.56466227 1.95852766 41.56041883 3.62726046 41.50390625 5.29296875 C40.09765625 6.7421875 40.09765625 6.7421875 38.00390625 7.98046875 C37.19824219 8.47160156 36.39257812 8.96273437 35.5625 9.46875 C34.55316406 10.07074219 33.54382813 10.67273438 32.50390625 11.29296875 C31.13818668 12.15761895 29.77508847 13.02641787 28.4140625 13.8984375 C26.9651609 14.82211227 25.51594042 15.745287 24.06640625 16.66796875 C23.35613281 17.12131592 22.64585938 17.57466309 21.9140625 18.04174805 C16.73303276 21.29296875 16.73303276 21.29296875 14.50390625 21.29296875 C14.50390625 21.95296875 14.50390625 22.61296875 14.50390625 23.29296875 C22.93062796 20.88228634 31.32309362 18.40747699 39.62890625 15.60546875 C40.33450684 15.36924805 41.04010742 15.13302734 41.76708984 14.88964844 C45.56831352 13.61694244 49.3676712 12.33927122 53.16308594 11.04931641 C56.57950852 9.88918839 60.00139534 8.74627671 63.4262085 7.61117554 C64.79575354 7.15423808 66.16353448 6.69197378 67.52935791 6.22402954 C76.61193594 3.11609751 84.81622113 0.49186846 94.25390625 3.48046875 C100.96331733 7.2222557 104.89541892 11.12179682 107.50390625 18.29296875 C108.03352086 21.49314024 108.05221888 24.61638915 108.02148438 27.85498047 C108.02849365 28.77642853 108.03550293 29.69787659 108.04272461 30.64724731 C108.06023132 33.67269645 108.0487058 36.69719871 108.03515625 39.72265625 C108.03785372 41.83961159 108.04173827 43.95656572 108.04675293 46.07351685 C108.05263848 50.50339593 108.04411698 54.9329516 108.02539062 59.36279297 C108.0026299 65.02066313 108.01571231 70.67777301 108.03968048 76.33561516 C108.05418773 80.70587816 108.04950941 85.07596325 108.03916931 89.44623184 C108.03651418 91.53128272 108.03972872 93.61635012 108.04908752 95.70138168 C108.05933127 98.62540726 108.04364192 101.54823108 108.02148438 104.47216797 C108.0295813 105.32131775 108.03767822 106.17046753 108.04602051 107.04534912 C107.93613349 114.93612019 105.67033665 123.02440466 99.87890625 128.66796875 C92.92124719 135.00945136 85.81874058 136.73938819 76.55859375 136.7265625 C69.58318089 135.73644635 64.42799703 132.99853174 59.19140625 128.29296875 C58.32394775 127.53367065 58.32394775 127.53367065 57.43896484 126.7590332 C51.11992293 121.12770515 45.17602622 115.09865503 39.25268555 109.05664062 C35.06744127 104.79465578 30.80955528 100.73145384 26.27685547 96.84106445 C23.90277379 94.76807466 21.70195021 92.5504193 19.50390625 90.29296875 C16.58764022 87.3411385 13.6578479 84.48908016 10.50390625 81.79296875 C6.42767406 78.30844768 2.70839752 74.51214894 -1.05859375 70.69921875 C-3.74506148 68.04719291 -6.55298297 65.59834327 -9.421875 63.1484375 C-12.800072 60.12650986 -15.93872907 56.8695868 -19.1015625 53.625 C-21.45206495 51.24658268 -21.45206495 51.24658268 -24.12890625 49.26171875 C-29.31955971 44.94473963 -32.38515905 37.84748347 -33.49609375 31.29296875 C-33.71489746 22.11608374 -31.94662969 15.0793942 -25.6328125 8.2890625 C-17.54872307 0.77007446 -10.74761494 -0.1453332 0 0 Z " fill="#FBFDFB" transform="translate(55.49609375,95.70703125)"/>
<path d="M0 0 C0.96550781 -0.02578125 1.93101562 -0.0515625 2.92578125 -0.078125 C6.17664676 0.30811645 7.34294041 1.0001351 9.6875 3.25 C10.18870544 5.48204041 10.18870544 5.48204041 10.18920898 8.11694336 C10.19858994 9.1048436 10.20797089 10.09274384 10.21763611 11.11058044 C10.20640213 12.17623734 10.19516815 13.24189423 10.18359375 14.33984375 C10.18504898 15.43591446 10.18650421 16.53198517 10.18800354 17.66127014 C10.18634269 19.98050594 10.17476081 22.29975254 10.15405273 24.61889648 C10.12514055 28.17023555 10.13343226 31.72007871 10.14648438 35.27148438 C10.14024587 37.52344476 10.13185406 39.77540043 10.12109375 42.02734375 C10.12402939 43.09097641 10.12696503 44.15460907 10.12998962 45.25047302 C10.11096336 46.73705162 10.11096336 46.73705162 10.09155273 48.25366211 C10.08614975 49.12397568 10.08074677 49.99428925 10.07518005 50.89097595 C9.6875 53.25 9.6875 53.25 6.6875 57.25 C2.0675 57.25 -2.5525 57.25 -7.3125 57.25 C-7.3125 44.71 -7.3125 32.17 -7.3125 19.25 C-10.9425 19.25 -14.5725 19.25 -18.3125 19.25 C-18.3125 16.28 -18.3125 13.31 -18.3125 10.25 C-17.219375 9.940625 -16.12625 9.63125 -15 9.3125 C-12.75842006 8.66662103 -10.5255649 7.9876883 -8.3125 7.25 C-7.15414327 4.27496878 -7.15414327 4.27496878 -6.3125 1.25 C-4.58915979 -0.47334021 -2.3456379 0.03728166 0 0 Z " fill="#4BA046" transform="translate(140.3125,158.75)"/>
<path d="M0 0 C3.55680172 2.10504591 4.69468936 3.08406808 6 7 C6 9.31 6 11.62 6 14 C1.05 14 -3.9 14 -9 14 C-8.34 15.32 -7.68 16.64 -7 18 C-4.35212912 18.70373017 -4.35212912 18.70373017 -1.375 18.75 C-0.37210938 18.80671875 0.63078125 18.8634375 1.6640625 18.921875 C2.82035156 18.96054688 2.82035156 18.96054688 4 19 C4.5625 20.9375 4.5625 20.9375 5 23 C3.07229125 24.92770875 -0.18351486 24.30577945 -2.75 24.375 C-9.33346229 24.34821073 -9.33346229 24.34821073 -12.00390625 22.953125 C-15.19733987 19.71202819 -16.21440886 16.72700042 -16.4375 12.3125 C-16.36071853 7.50318809 -15.38882691 4.64720614 -11.98046875 1.22265625 C-8.15888425 -1.1366257 -4.28492824 -0.91411802 0 0 Z " fill="#5EA357" transform="translate(121,125)"/>
<path d="M0 0 C1.72774308 -0.10892951 3.45750948 -0.18601092 5.1875 -0.25 C6.15042969 -0.29640625 7.11335937 -0.3428125 8.10546875 -0.390625 C12.01826241 0.13741733 13.46389808 0.94932667 16 4 C16.60460961 7.27253945 16.47155966 10.43666483 16.3125 13.75 C16.28994141 14.63816406 16.26738281 15.52632812 16.24414062 16.44140625 C16.18532552 18.62932812 16.10321268 20.81379671 16 23 C12.83800849 24.05399717 10.38539814 24.23445913 7.0625 24.3125 C6.02222656 24.34988281 4.98195312 24.38726562 3.91015625 24.42578125 C0.29211636 23.89643045 -0.82480209 22.88829346 -3 20 C-3.5625 16.5 -3.5625 16.5 -3 13 C-0.83868824 10.36590129 0.67881352 9.14896927 4.11328125 8.76171875 C6.07709981 8.75125435 8.04065135 8.8671628 10 9 C9.67 8.01 9.34 7.02 9 6 C5.7 5.67 2.4 5.34 -1 5 C-0.67 3.35 -0.34 1.7 0 0 Z " fill="#509D4A" transform="translate(133,125)"/>
<path d="M0 0 C1.65 0 3.3 0 5 0 C5.66 0.66 6.32 1.32 7 2 C7.66 1.34 8.32 0.68 9 0 C15.91493384 -0.66918715 15.91493384 -0.66918715 19.2421875 1.3828125 C21.98647327 5.46874908 21.42470597 9.4523052 21.25 14.25 C21.23195313 15.18585938 21.21390625 16.12171875 21.1953125 17.0859375 C21.14825673 19.39167015 21.08253713 21.69530945 21 24 C18.69 24 16.38 24 14 24 C13.67 18.06 13.34 12.12 13 6 C11.35 6.33 9.7 6.66 8 7 C7.67 12.61 7.34 18.22 7 24 C4.69 24 2.38 24 0 24 C0 16.08 0 8.16 0 0 Z " fill="#569F4D" transform="translate(80,125)"/>
<path d="M0 0 C1.98 0 3.96 0 6 0 C7.65 3.96 9.3 7.92 11 12 C13.28459758 9.71540242 13.97129748 7.87462656 15.125 4.875 C15.47820312 3.96492187 15.83140625 3.05484375 16.1953125 2.1171875 C16.46085937 1.41851562 16.72640625 0.71984375 17 0 C18.65 0 20.3 0 22 0 C22.84327749 8.35748222 23.12190678 16.60197746 23 25 C21.35 25 19.7 25 18 25 C17.67 20.38 17.34 15.76 17 11 C16.01 13.64 15.02 16.28 14 19 C12.35 19 10.7 19 9 19 C7.68 16.03 6.36 13.06 5 10 C4.67 14.95 4.34 19.9 4 25 C2.68 25 1.36 25 0 25 C0 16.75 0 8.5 0 0 Z " fill="#EEF9ED" transform="translate(192,159)"/>
<path d="M0 0 C1.32 0 2.64 0 4 0 C4 0.66 4 1.32 4 2 C4.99 1.34 5.98 0.68 7 0 C9.05078125 0.05859375 9.05078125 0.05859375 11.3125 0.4375 C14.37343273 0.87974515 16.210163 0.9603466 19.3125 0.375 C22 0 22 0 24.15234375 0.96484375 C26.94931934 4.04565618 26.42859216 7.25503798 26.25 11.1875 C26.23195313 11.93708984 26.21390625 12.68667969 26.1953125 13.45898438 C26.14824109 15.3065371 26.07649766 17.15343159 26 19 C24.35 19 22.7 19 21 19 C21 14.38 21 9.76 21 5 C19.35 5 17.7 5 16 5 C15.67 9.29 15.34 13.58 15 18 C13.35 18 11.7 18 10 18 C10 13.38 10 8.76 10 4 C8.68 4.33 7.36 4.66 6 5 C5.67 9.29 5.34 13.58 5 18 C3.35 18 1.7 18 0 18 C0 12.06 0 6.12 0 0 Z " fill="#ECF8EA" transform="translate(268,198)"/>
<path d="M0 0 C1.32 0 2.64 0 4 0 C4 8.25 4 16.5 4 25 C-6.33568905 26.14840989 -6.33568905 26.14840989 -11 23 C-12.74330022 19.51339956 -12.5706106 15.80407065 -12 12 C-9.9375 8.9375 -9.9375 8.9375 -7 7 C-3.1875 6.6875 -3.1875 6.6875 0 7 C0 4.69 0 2.38 0 0 Z " fill="#F8FCF8" transform="translate(204,191)"/>
<path d="M0 0 C2.91368224 1.98378365 4.63558769 3.41448681 5.4453125 6.9375 C5.65106793 10.55879549 5.13710396 12.72579208 3.5 16 C0.4449405 18.4440476 -1.27781991 18.63148861 -5.09765625 18.33984375 C-8.00395617 17.82064849 -9.18685583 17.3933503 -11 15 C-11.98054969 11.16496121 -12.59976978 7.61006159 -11.1953125 3.83984375 C-8.31870332 -0.58787822 -4.85372303 -0.58579416 0 0 Z " fill="#E8F6E6" transform="translate(276,166)"/>
<path d="M0 0 C2.31 0 4.62 0 7 0 C7.33 9.24 7.66 18.48 8 28 C9.32 28.33 10.64 28.66 12 29 C12 30.65 12 32.3 12 34 C10.7625 34.12375 9.525 34.2475 8.25 34.375 C7.20585938 34.47941406 7.20585938 34.47941406 6.140625 34.5859375 C3.43103002 33.84426004 2.19565989 32.61725423 0.75878906 30.22412109 C-1.03886347 24.95494009 -0.39322217 19.11701939 -0.25 13.625 C-0.23195312 12.31660156 -0.21390625 11.00820312 -0.1953125 9.66015625 C-0.14829348 6.43935311 -0.08258181 3.22005526 0 0 Z " fill="#55A04F" transform="translate(51,115)"/>
<path d="M0 0 C2.79493035 0.47573282 4.60393888 0.9165121 6.9375 2.5 C8.9375 5.5 8.9375 5.5 8.9375 11.5 C4.9775 11.5 1.0175 11.5 -3.0625 11.5 C-1.45769216 14.62606964 -1.45769216 14.62606964 0.8828125 15.01171875 C1.96175781 15.09873047 1.96175781 15.09873047 3.0625 15.1875 C4.34125 15.290625 5.62 15.39375 6.9375 15.5 C6.6075 16.82 6.2775 18.14 5.9375 19.5 C-1.29436925 19.99029622 -1.29436925 19.99029622 -5 17.625 C-7.61447555 14.93129792 -8.00306139 14.01513465 -8.4375 10.25 C-7.89191444 4.79414444 -5.86553804 0.95763886 0 0 Z " fill="#F6FCF5" transform="translate(220.0625,197.5)"/>
<path d="M0 0 C1.41569064 -0.08167446 2.83276805 -0.13949698 4.25 -0.1875 C5.43335938 -0.23970703 5.43335938 -0.23970703 6.640625 -0.29296875 C9.73540261 0.09131655 10.93644413 0.63629055 13 3 C13.29642569 5.71229503 13.38061189 7.99739732 13.25 10.6875 C13.23195313 11.38939453 13.21390625 12.09128906 13.1953125 12.81445312 C13.14826213 14.54355436 13.07651873 16.27195205 13 18 C8.6599918 18.78479451 5.16652133 19.40471148 0.9375 17.9375 C-1 16 -1 16 -1.5 13 C-1 10 -1 10 0.125 8.1875 C2.66676215 6.57771731 5.0398108 6.32890991 8 6 C6.03177114 4.03177114 2.65191291 4.33751619 0 4 C0 2.68 0 1.36 0 0 Z " fill="#F2FBF2" transform="translate(299,198)"/>
<path d="M0 0 C2.4375 1.625 2.4375 1.625 4 4 C4.25 7.25 4.25 7.25 4 10 C0.37 10 -3.26 10 -7 10 C-7 10.99 -7 11.98 -7 13 C-3.7 13.33 -0.4 13.66 3 14 C3 15.32 3 16.64 3 18 C-6.14166085 18.62805304 -6.14166085 18.62805304 -9.5625 16.125 C-12.18606199 12.24669097 -12.47998152 9.71981833 -12 5 C-8.59008657 0.14345663 -5.84624621 -0.95665847 0 0 Z " fill="#F2F9F1" transform="translate(231,166)"/>
<path d="M0 0 C3.3 0 6.6 0 10 0 C10 7.92 10 15.84 10 24 C7.69 24 5.38 24 3 24 C3 17.73 3 11.46 3 5 C2.01 5 1.02 5 0 5 C0 3.35 0 1.7 0 0 Z " fill="#64A85E" transform="translate(64,125)"/>
<path d="M0 0 C3.54409456 0.50306924 5.19661464 1.5863996 7.44921875 4.34765625 C8.48974825 7.98950949 8.65156159 9.74062773 7.44921875 13.34765625 C5.91201172 13.43853516 5.91201172 13.43853516 4.34375 13.53125 C2.9830618 13.61570651 1.62238532 13.70035192 0.26171875 13.78515625 C-0.41181641 13.82447266 -1.08535156 13.86378906 -1.77929688 13.90429688 C-5.44777227 14.1369319 -8.96772331 14.51972636 -12.55078125 15.34765625 C-12.55078125 13.36765625 -12.55078125 11.38765625 -12.55078125 9.34765625 C-10.90078125 9.01765625 -9.25078125 8.68765625 -7.55078125 8.34765625 C-7.55078125 9.00765625 -7.55078125 9.66765625 -7.55078125 10.34765625 C-4.25078125 10.34765625 -0.95078125 10.34765625 2.44921875 10.34765625 C2.11921875 8.69765625 1.78921875 7.04765625 1.44921875 5.34765625 C-3.47205159 5.18083353 -7.05422021 5.09937573 -11.55078125 7.34765625 C-10.34069793 0.32917302 -6.42483509 -0.21572439 0 0 Z " fill="#509F49" transform="translate(118.55078125,124.65234375)"/>
<path d="M0 0 C0.8353125 0.37125 0.8353125 0.37125 1.6875 0.75 C1.3575 1.08 1.0275 1.41 0.6875 1.75 C2.6675 2.41 4.6475 3.07 6.6875 3.75 C6.6875 6.06 6.6875 8.37 6.6875 10.75 C5.0375 11.08 3.3875 11.41 1.6875 11.75 C1.3575 12.74 1.0275 13.73 0.6875 14.75 C-1.90344622 14.39987213 -3.8899211 14.01229035 -6.125 12.625 C-8.06434222 9.56288071 -7.80668123 7.27104126 -7.3125 3.75 C-3.58836207 -0.38793103 -3.58836207 -0.38793103 0 0 Z " fill="#5BA256" transform="translate(137.3125,134.25)"/>
<path d="M0 0 C0.33 0 0.66 0 1 0 C1.3125 2.1875 1.3125 2.1875 1 5 C-1.4375 7.625 -1.4375 7.625 -4 10 C-4.33 10.99 -4.66 11.98 -5 13 C-4.34 13.33 -3.68 13.66 -3 14 C-3 13.34 -3 12.68 -3 12 C-1.68 12.66 -0.36 13.32 1 14 C-2.91336793 15.34315504 -6.83119282 16.67280672 -10.75 18 C-11.86117187 18.3815625 -12.97234375 18.763125 -14.1171875 19.15625 C-15.18710938 19.5171875 -16.25703125 19.878125 -17.359375 20.25 C-18.34389648 20.58515625 -19.32841797 20.9203125 -20.34277344 21.265625 C-23 22 -23 22 -27 22 C-27 21.34 -27 20.68 -27 20 C-24.75531382 18.51263035 -22.51994929 17.14936437 -20.1875 15.8125 C-18.81333033 15.00340486 -17.4396365 14.19350104 -16.06640625 13.3828125 C-14.71103147 12.58838132 -13.35556692 11.79410328 -12 11 C-9.86634214 9.743757 -7.74000707 8.47489561 -5.625 7.1875 C-4.75101563 6.66542969 -3.87703125 6.14335938 -2.9765625 5.60546875 C-0.74291328 3.79118055 -0.32935326 2.81170098 0 0 Z " fill="#5BA155" transform="translate(97,97)"/>
<path d="M0 0 C0.66 0 1.32 0 2 0 C2 1.98 2 3.96 2 6 C3.32 6 4.64 6 6 6 C6 6.99 6 7.98 6 9 C4.68 9 3.36 9 2 9 C2 12.3 2 15.6 2 19 C3.65 19.33 5.3 19.66 7 20 C7 20.99 7 21.98 7 23 C5.72125 23.061875 4.4425 23.12375 3.125 23.1875 C2.04605469 23.23970703 2.04605469 23.23970703 0.9453125 23.29296875 C0.30335938 23.19628906 -0.33859375 23.09960938 -1 23 C-3.28062828 19.57905758 -3.21925007 18.31812778 -3.125 14.3125 C-3.10695312 13.31863281 -3.08890625 12.32476562 -3.0703125 11.30078125 C-3.04710937 10.54152344 -3.02390625 9.78226563 -3 9 C-3.99 8.67 -4.98 8.34 -6 8 C-5.04956626 6.66102417 -4.08940853 5.32894573 -3.125 4 C-2.59132812 3.2575 -2.05765625 2.515 -1.5078125 1.75 C-1.01023438 1.1725 -0.51265625 0.595 0 0 Z " fill="#E1F1E0" transform="translate(243,161)"/>
<path d="M0 0 C1.32 0 2.64 0 4 0 C4 6.6 4 13.2 4 20 C6.97 20 9.94 20 13 20 C13 21.32 13 22.64 13 24 C8.71 24 4.42 24 0 24 C0 16.08 0 8.16 0 0 Z " fill="#F7FDF7" transform="translate(241,192)"/>
<path d="M0 0 C0.66 0 1.32 0 2 0 C4.52775351 3.79163027 4.22443035 6.80874031 4.125 11.1875 C4.11597656 11.93708984 4.10695313 12.68667969 4.09765625 13.45898438 C4.07412578 15.30612654 4.03825561 17.15310412 4 19 C2.02 19 0.04 19 -2 19 C-2.05380578 16.20807795 -2.09357669 13.4171859 -2.125 10.625 C-2.14175781 9.8309375 -2.15851563 9.036875 -2.17578125 8.21875 C-2.19335473 6.14507985 -2.10335168 4.07116759 -2 2 C-1.34 1.34 -0.68 0.68 0 0 Z " fill="#499944" transform="translate(97,130)"/>
<path d="M0 0 C2.475 0.495 2.475 0.495 5 1 C7.72502965 0.62277985 7.72502965 0.62277985 10 0 C10 1.65 10 3.3 10 5 C9.360625 5.12375 8.72125 5.2475 8.0625 5.375 C7.0415625 5.684375 7.0415625 5.684375 6 6 C4.71553081 8.56893838 4.67022856 10.76576337 4.4375 13.625 C4.31181641 15.12933594 4.31181641 15.12933594 4.18359375 16.6640625 C4.12300781 17.43492187 4.06242187 18.20578125 4 19 C2.68 19 1.36 19 0 19 C0 12.73 0 6.46 0 0 Z " fill="#ECF7EB" transform="translate(253,166)"/>
<path d="M0 0 C3 0 3 0 6 1 C5.34 1.66 4.68 2.32 4 3 C4.66 3.33 5.32 3.66 6 4 C6 7.63 6 11.26 6 15 C5.67 14.34 5.34 13.68 5 13 C4.15308594 13.24363281 4.15308594 13.24363281 3.2890625 13.4921875 C0.91191379 14.01954131 -1.19343118 14.13313234 -3.625 14.125 C-4.40101563 14.12757813 -5.17703125 14.13015625 -5.9765625 14.1328125 C-8 14 -8 14 -10 13 C-10 12.01 -10 11.02 -10 10 C-6.37 10 -2.74 10 1 10 C0.649375 8.535625 0.29875 7.07125 -0.0625 5.5625 C-0.42403223 4.05257128 -0.74804092 2.53202706 -1 1 C-0.67 0.67 -0.34 0.34 0 0 Z " fill="#5AA152" transform="translate(234,166)"/>
<path d="M0 0 C2.31 0 4.62 0 7 0 C7 6.27 7 12.54 7 19 C5.35 19 3.7 19 2 19 C2 14.05 2 9.1 2 4 C1.34 4 0.68 4 0 4 C0 2.68 0 1.36 0 0 Z " fill="#ECF6EB" transform="translate(256,198)"/>
<path d="M0 0 C0.99 0 1.98 0 3 0 C3 7.59 3 15.18 3 23 C0.69 23.33 -1.62 23.66 -4 24 C-4 23.01 -4 22.02 -4 21 C-2.68 21 -1.36 21 0 21 C-0.33 17.37 -0.66 13.74 -1 10 C-2.65 9.67 -4.3 9.34 -6 9 C-4.6875 7.5 -4.6875 7.5 -3 6 C-2.01 6 -1.02 6 0 6 C0 4.02 0 2.04 0 0 Z " fill="#F8FDF8" transform="translate(204,192)"/>
<path d="M0 0 C2.4375 1.625 2.4375 1.625 4 4 C4.25 7.25 4.25 7.25 4 10 C2.35 10 0.7 10 -1 10 C-1 9.67 -1 9.34 -1 9 C-3.97 8.505 -3.97 8.505 -7 8 C-7 6.35 -7 4.7 -7 3 C-7.99 2.67 -8.98 2.34 -10 2 C-6.2794164 -0.48038907 -4.40203429 -0.46337203 0 0 Z " fill="#EBF7E9" transform="translate(231,166)"/>
<path d="M0 0 C7.35678392 -0.48241206 7.35678392 -0.48241206 10 1.5 C11.42756772 5.0689193 11.5592604 8.20945726 11 12 C9.875 14.5 9.875 14.5 8 16 C4.8125 16.25 4.8125 16.25 2 16 C2.33 15.34 2.66 14.68 3 14 C3.99 14 4.98 14 6 14 C5.67 10.37 5.34 6.74 5 3 C3.35 2.67 1.7 2.34 0 2 C0 1.34 0 0.68 0 0 Z " fill="#F2FBF2" transform="translate(270,167)"/>
<path d="M0 0 C0 0.66 0 1.32 0 2 C0.66 2 1.32 2 2 2 C2 4.31 2 6.62 2 9 C1.34 9 0.68 9 0 9 C0 9.66 0 10.32 0 11 C1.32 11.33 2.64 11.66 4 12 C2.54077307 11.88590407 1.08259402 11.75834456 -0.375 11.625 C-1.18710937 11.55539063 -1.99921875 11.48578125 -2.8359375 11.4140625 C-5 11 -5 11 -7 9 C-7.55045872 3.82568807 -7.55045872 3.82568807 -5.75 1.125 C-4 0 -4 0 0 0 Z " fill="#EDF9EA" transform="translate(305,205)"/>
<path d="M0 0 C1 1 1 1 1.0625 3.5625 C1.041875 4.366875 1.02125 5.17125 1 6 C-0.58323688 6.027193 -2.16661062 6.04648306 -3.75 6.0625 C-5.07257813 6.07990234 -5.07257813 6.07990234 -6.421875 6.09765625 C-8.7818838 6.00826198 -10.74498524 5.66912821 -13 5 C-13.33 7.64 -13.66 10.28 -14 13 C-14.33 13 -14.66 13 -15 13 C-15.05395478 11.37536158 -15.09277195 9.75021459 -15.125 8.125 C-15.14820312 7.22007812 -15.17140625 6.31515625 -15.1953125 5.3828125 C-15 3 -15 3 -13 1 C-13 1.66 -13 2.32 -13 3 C-12.34 2.505 -11.68 2.01 -11 1.5 C-7.0017898 -0.4991051 -4.43756528 -0.29583769 0 0 Z " fill="#73B16D" transform="translate(120,129)"/>
<path d="M0 0 C2.5 0.125 2.5 0.125 3.5 1.125 C3.58748207 3.05167507 3.60697334 4.98151861 3.59765625 6.91015625 C3.59443359 8.07998047 3.59121094 9.24980469 3.58789062 10.45507812 C3.57951172 11.68677734 3.57113281 12.91847656 3.5625 14.1875 C3.55798828 15.42306641 3.55347656 16.65863281 3.54882812 17.93164062 C3.53699608 20.99614117 3.52051173 24.06054721 3.5 27.125 C3.17 27.125 2.84 27.125 2.5 27.125 C2.5 20.855 2.5 14.585 2.5 8.125 C0.19 8.125 -2.12 8.125 -4.5 8.125 C-4.83 9.445 -5.16 10.765 -5.5 12.125 C-5.5 10.475 -5.5 8.825 -5.5 7.125 C-4.84 7.125 -4.18 7.125 -3.5 7.125 C-3.520625 6.155625 -3.54125 5.18625 -3.5625 4.1875 C-3.48059244 0.17402962 -3.48059244 0.17402962 0 0 Z " fill="#5C9F5A" transform="translate(260.5,189.875)"/>
<path d="M0 0 C0.33 0 0.66 0 1 0 C1.3125 2.1875 1.3125 2.1875 1 5 C-1.4375 7.625 -1.4375 7.625 -4 10 C-4.33 10.99 -4.66 11.98 -5 13 C-4.34 13.33 -3.68 13.66 -3 14 C-3 13.34 -3 12.68 -3 12 C-1.68 12.66 -0.36 13.32 1 14 C-3.50353262 15.75747614 -7.17639811 16.19294408 -12 16 C-12.33 15.01 -12.66 14.02 -13 13 C-11.68 12.34 -10.36 11.68 -9 11 C-9 10.34 -9 9.68 -9 9 C-7.01429422 7.67016515 -4.9440069 6.56021541 -2.84765625 5.4140625 C-0.64537774 3.72859776 -0.36143906 2.69645014 0 0 Z " fill="#4B9F45" transform="translate(97,97)"/>
<path d="M0 0 C0.886875 0.12375 1.77375 0.2475 2.6875 0.375 C1.6975 0.87 1.6975 0.87 0.6875 1.375 C0.6875 2.035 0.6875 2.695 0.6875 3.375 C1.6775 4.035 2.6675 4.695 3.6875 5.375 C3.6875 6.365 3.6875 7.355 3.6875 8.375 C0.3125 8.5 0.3125 8.5 -3.3125 8.375 C-3.9725 7.715 -4.6325 7.055 -5.3125 6.375 C-6.3025 9.84 -6.3025 9.84 -7.3125 13.375 C-7.6425 13.375 -7.9725 13.375 -8.3125 13.375 C-8.73172086 9.18279138 -8.72063168 6.32849736 -6.1875 2.9375 C-3.3125 0.375 -3.3125 0.375 0 0 Z " fill="#DDEFDB" transform="translate(220.3125,197.625)"/>
<path d="M0 0 C1.2065625 0.0309375 1.2065625 0.0309375 2.4375 0.0625 C3.92856457 3.04462913 3.55691467 5.77859658 3.4375 9.0625 C2.4375 10.0625 2.4375 10.0625 -0.0625 10.1875 C-2.5625 10.0625 -2.5625 10.0625 -3.5625 9.0625 C-3.6953125 7.25 -3.6953125 7.25 -3.6875 5.0625 C-3.69007813 4.340625 -3.69265625 3.61875 -3.6953125 2.875 C-3.48140927 -0.04414996 -2.93781989 0.07165414 0 0 Z " fill="#5AA256" transform="translate(272.5625,169.9375)"/>
<path d="M0 0 C1.65 0 3.3 0 5 0 C5 3.3 5 6.6 5 10 C3.02 10 1.04 10 -1 10 C-2.25 3.375 -2.25 3.375 0 0 Z " fill="#4EA048" transform="translate(199,202)"/>
<path d="M0 0 C0.66 0 1.32 0 2 0 C2.33 2.97 2.66 5.94 3 9 C5.475 9.99 5.475 9.99 8 11 C8 11.99 8 12.98 8 14 C1.84765625 14.09765625 1.84765625 14.09765625 0 14 C-1 13 -1 13 -1.1328125 10.3125 C-1.13023437 9.219375 -1.12765625 8.12625 -1.125 7 C-1.12757813 5.906875 -1.13015625 4.81375 -1.1328125 3.6875 C-1 1 -1 1 0 0 Z " fill="#FBFCFA" transform="translate(242,170)"/>
<path d="M0 0 C1.32 0 2.64 0 4 0 C4 8.25 4 16.5 4 25 C-6.125 26.125 -6.125 26.125 -11 23 C-10.34 22.67 -9.68 22.34 -9 22 C-8.34 22.33 -7.68 22.66 -7 23 C-6.67 21.68 -6.34 20.36 -6 19 C-6 19.66 -6 20.32 -6 21 C-4.02 21 -2.04 21 0 21 C-1.32 21.33 -2.64 21.66 -4 22 C-4 22.99 -4 23.98 -4 25 C-0.535 24.505 -0.535 24.505 3 24 C3 16.41 3 8.82 3 1 C2.01 0.67 1.02 0.34 0 0 Z " fill="#EFFBF0" transform="translate(204,191)"/>
<path d="M0 0 C0.33 0 0.66 0 1 0 C1.144375 0.9075 1.28875 1.815 1.4375 2.75 C1.86409473 5.21476956 2.35074221 7.58847107 3 10 C3.66 10 4.32 10 5 10 C4.67 12.97 4.34 15.94 4 19 C3.34 17.68 2.68 16.36 2 15 C1.67 18.3 1.34 21.6 1 25 C0.67 25 0.34 25 0 25 C0 16.75 0 8.5 0 0 Z " fill="#5DA253" transform="translate(208,191)"/>
<path d="M0 0 C2.9375 0.25 2.9375 0.25 6 1 C8 4 8 4 7.625 6.1875 C7.41875 6.785625 7.2125 7.38375 7 8 C6.67 7.01 6.34 6.02 6 5 C5.01 5.33 4.02 5.66 3 6 C3 4.68 3 3.36 3 2 C1.68 1.67 0.36 1.34 -1 1 C-0.67 0.67 -0.34 0.34 0 0 Z M1 6 C1.99 6.495 1.99 6.495 3 7 C2.67 12.61 2.34 18.22 2 24 C1.67 24 1.34 24 1 24 C1 18.06 1 12.12 1 6 Z " fill="#75AF6D" transform="translate(93,125)"/>
<path d="M0 0 C3.23152107 3.23152107 3.63182354 3.6739266 4 8 C3.77914587 11.34876493 3.42018893 14.67081079 3 18 C2.67 17.34 2.34 16.68 2 16 C1.34 16 0.68 16 0 16 C0 10.72 0 5.44 0 0 Z " fill="#64A95E" transform="translate(196,168)"/>
<path d="M0 0 C2.875 0.3125 2.875 0.3125 6 1 C8 4 8 4 8 10 C4.04 10 0.08 10 -4 10 C-4 9.67 -4 9.34 -4 9 C-0.37 9 3.26 9 7 9 C6.34 7.68 5.68 6.36 5 5 C4.34 5.66 3.68 6.32 3 7 C2.67 6.01 2.34 5.02 2 4 C1.01 3.34 0.02 2.68 -1 2 C-0.67 1.34 -0.34 0.68 0 0 Z " fill="#DCF0D9" transform="translate(221,199)"/>
<path d="M0 0 C2.31 0 4.62 0 7 0 C7 3.63 7 7.26 7 11 C6.01 10.67 5.02 10.34 4 10 C4 8.02 4 6.04 4 4 C2.68 3.67 1.36 3.34 0 3 C0 2.01 0 1.02 0 0 Z " fill="#489F40" transform="translate(65,126)"/>
<path d="M0 0 C3.3 0.33 6.6 0.66 10 1 C10 2.32 10 3.64 10 5 C6.7 5 3.4 5 0 5 C0 3.33333333 0 1.66666667 0 0 Z " fill="#E9F6E7" transform="translate(224,179)"/>
<path d="M0 0 C0.66 0.2475 1.32 0.495 2 0.75 C2.99 1.08 3.98 1.41 5 1.75 C5 3.07 5 4.39 5 5.75 C3.88625 5.729375 2.7725 5.70875 1.625 5.6875 C-1.83215921 5.48619282 -1.83215921 5.48619282 -4 6.75 C-4.6875 4.9375 -4.6875 4.9375 -5 2.75 C-3.48021788 0.43033256 -2.8190907 -0.35238634 0 0 Z " fill="#4F9F4A" transform="translate(91,125.25)"/>
<path d="M0 0 C0.33 0 0.66 0 1 0 C1.12117187 0.71027344 1.24234375 1.42054688 1.3671875 2.15234375 C1.53476563 3.07144531 1.70234375 3.99054688 1.875 4.9375 C2.03742188 5.85402344 2.19984375 6.77054688 2.3671875 7.71484375 C2.57601562 8.46894531 2.78484375 9.22304687 3 10 C3.66 10.33 4.32 10.66 5 11 C2.36 11.33 -0.28 11.66 -3 12 C-2.14285714 3.42857143 -2.14285714 3.42857143 0 0 Z " fill="#55A04E" transform="translate(218,172)"/>
<path d="M0 0 C1.65 0 3.3 0 5 0 C5 1.65 5 3.3 5 5 C5.66 5 6.32 5 7 5 C7 3.35 7 1.7 7 0 C7.33 0 7.66 0 8 0 C8 5.94 8 11.88 8 18 C7.67 18 7.34 18 7 18 C7 15.03 7 12.06 7 9 C6.34 9 5.68 9 5 9 C4.67 8.01 4.34 7.02 4 6 C1.99983534 4.79117904 1.99983534 4.79117904 0 4 C1.32 4 2.64 4 4 4 C4 3.01 4 2.02 4 1 C2.68 0.67 1.36 0.34 0 0 Z " fill="#81B77E" transform="translate(245,166)"/>
<path d="M0 0 C0.99 0 1.98 0 3 0 C3.10826289 2.4178712 3.18739789 4.83087556 3.25 7.25 C3.30027344 8.27287109 3.30027344 8.27287109 3.3515625 9.31640625 C3.4215705 12.92181813 3.29151719 14.64068812 0.984375 17.484375 C0.00210938 18.23460937 0.00210938 18.23460937 -1 19 C-1 17.35 -1 15.7 -1 14 C-2.32 13.67 -3.64 13.34 -5 13 C-4.030625 12.690625 -3.06125 12.38125 -2.0625 12.0625 C1.14945448 10.37918483 1.14945448 10.37918483 1.62109375 7.796875 C1.85372996 5.52061916 1.99040853 3.28756601 2 1 C1.34 0.67 0.68 0.34 0 0 Z " fill="#F1FDEF" transform="translate(64,130)"/>
<path d="M0 0 C1.4540625 0.0309375 1.4540625 0.0309375 2.9375 0.0625 C2.9375 2.0425 2.9375 4.0225 2.9375 6.0625 C0.9575 6.0625 -1.0225 6.0625 -3.0625 6.0625 C-3.44468767 4.40635343 -3.77645102 2.73792976 -4.0625 1.0625 C-3.0625 0.0625 -3.0625 0.0625 0 0 Z " fill="#F1FCEE" transform="translate(140.0625,137.9375)"/>
<path d="M0 0 C2.662062 0.3832143 5.32819962 0.68828996 8 1 C8 1.66 8 2.32 8 3 C4.16907918 4.3791315 0.95258918 3.57492206 -3 3 C-3.99 3.33 -4.98 3.66 -6 4 C-6.33 2.68 -6.66 1.36 -7 0 C-3.64629821 -1.1179006 -3.24364156 -0.87665988 0 0 Z " fill="#55A251" transform="translate(278,196)"/>
<path d="M0 0 C0.8971875 0.309375 0.8971875 0.309375 1.8125 0.625 C0.8225 1.12 0.8225 1.12 -0.1875 1.625 C1.1325 2.285 2.4525 2.945 3.8125 3.625 C3.19375 3.74875 2.575 3.8725 1.9375 4 C-0.37870832 4.49697356 -0.37870832 4.49697356 -2.1875 6.625 C-2.1875 5.965 -2.1875 5.305 -2.1875 4.625 C-3.8375 5.285 -5.4875 5.945 -7.1875 6.625 C-4.6484375 -0.796875 -4.6484375 -0.796875 0 0 Z " fill="#E1F1DC" transform="translate(199.1875,198.375)"/>
<path d="M0 0 C0.33 0.99 0.66 1.98 1 3 C-0.98567708 3.48828125 -2.97135417 3.9765625 -4.95703125 4.46484375 C-6.65683202 4.91010705 -8.33301954 5.44433985 -10 6 C-9.75 4.125 -9.75 4.125 -9 2 C-6.04454879 -0.11103658 -3.56144099 -0.19785783 0 0 Z " fill="#479E44" transform="translate(117,126)"/>
<path d="M0 0 C3.3 0 6.6 0 10 0 C10.33 1.32 10.66 2.64 11 4 C8.69 4 6.38 4 4 4 C3.67 3.34 3.34 2.68 3 2 C2.01 1.34 1.02 0.68 0 0 Z " fill="#E6F4E6" transform="translate(132,130)"/>
<path d="M0 0 C0.33 0.66 0.66 1.32 1 2 C2.98 2 4.96 2 7 2 C5.68 2.33 4.36 2.66 3 3 C3 3.99 3 4.98 3 6 C4.65 6 6.3 6 8 6 C8 6.33 8 6.66 8 7 C6.56138706 6.91253716 5.12402492 6.80434652 3.6875 6.6875 C2.88699219 6.62949219 2.08648437 6.57148438 1.26171875 6.51171875 C-1.36272334 5.91793306 -2.30820672 5.04219706 -4 3 C-2.68 3.33 -1.36 3.66 0 4 C0 2.68 0 1.36 0 0 Z " fill="#D0EACF" transform="translate(197,210)"/>
<path d="M0 0 C1.98 0 3.96 0 6 0 C6.33 1.32 6.66 2.64 7 4 C4.36 4 1.72 4 -1 4 C-0.67 2.68 -0.34 1.36 0 0 Z " fill="#F1FBED" transform="translate(113,130)"/>
<path d="M0 0 C0 0.66 0 1.32 0 2 C0.66 2.66 1.32 3.32 2 4 C-1.87684087 5.19287411 -4.91621923 6 -9 6 C-9 5.34 -9 4.68 -9 4 C-2.25 0 -2.25 0 0 0 Z " fill="#63A35F" transform="translate(79,113)"/>
<path d="M0 0 C1.65 0 3.3 0 5 0 C5 1.65 5 3.3 5 5 C3.02 5 1.04 5 -1 5 C-0.67 3.35 -0.34 1.7 0 0 Z " fill="#DEF3DA" transform="translate(258,190)"/>
<path d="M0 0 C7.75 -0.125 7.75 -0.125 10 1 C10 1.66 10 2.32 10 3 C7.03 3 4.06 3 1 3 C0.67 2.01 0.34 1.02 0 0 Z " fill="#479F3D" transform="translate(115,145)"/>
<path d="M0 0 C0.99 0.33 1.98 0.66 3 1 C3 3.64 3 6.28 3 9 C2.01 9 1.02 9 0 9 C0 6.03 0 3.06 0 0 Z " fill="#FDFAFC" transform="translate(279,207)"/>
<path d="M0 0 C0 0.99 0 1.98 0 3 C0.66 3 1.32 3 2 3 C1.67 4.32 1.34 5.64 1 7 C-0.98 7 -2.96 7 -5 7 C-3.68 6.67 -2.36 6.34 -1 6 C-1 4.35 -1 2.7 -1 1 C-2.98 1.66 -4.96 2.32 -7 3 C-7.33 2.34 -7.66 1.68 -8 1 C-5.07175348 0.02391783 -3.04386724 -0.08226668 0 0 Z " fill="#5C9A59" transform="translate(264,165)"/>
<path d="M0 0 C0.33 0 0.66 0 1 0 C1.3125 2.1875 1.3125 2.1875 1 5 C-1.375 7.625 -1.375 7.625 -4 10 C-4.99 11.485 -4.99 11.485 -6 13 C-6 12.01 -6 11.02 -6 10 C-6.99 9.67 -7.98 9.34 -9 9 C-8.43410156 8.68546875 -7.86820312 8.3709375 -7.28515625 8.046875 C-6.55167969 7.61890625 -5.81820312 7.1909375 -5.0625 6.75 C-4.33160156 6.33234375 -3.60070312 5.9146875 -2.84765625 5.484375 C-0.68142682 3.74406383 -0.36405249 2.70438996 0 0 Z " fill="#68A861" transform="translate(97,97)"/>
<path d="M0 0 C0.598125 0.20625 1.19625 0.4125 1.8125 0.625 C1.4825 0.955 1.1525 1.285 0.8125 1.625 C2.4625 1.955 4.1125 2.285 5.8125 2.625 C5.8125 2.955 5.8125 3.285 5.8125 3.625 C3.5025 3.955 1.1925 4.285 -1.1875 4.625 C-1.1875 3.965 -1.1875 3.305 -1.1875 2.625 C-2.1775 2.625 -3.1675 2.625 -4.1875 2.625 C-4.5175 3.285 -4.8475 3.945 -5.1875 4.625 C-5.1875 3.635 -5.1875 2.645 -5.1875 1.625 C-2.1875 -0.375 -2.1875 -0.375 0 0 Z " fill="#6CA568" transform="translate(137.1875,134.375)"/>
<path d="M0 0 C0.66 0 1.32 0 2 0 C2 2.64 2 5.28 2 8 C1.01 8 0.02 8 -1 8 C-1.625 5.6875 -1.625 5.6875 -2 3 C-1.34 2.01 -0.68 1.02 0 0 Z " fill="#449E3F" transform="translate(123,129)"/>
<path d="M0 0 C0 2 0 2 -2.1875 4.375 C-4.70610834 6.72570111 -7.27358589 8.89676626 -10 11 C-8.73396788 6.69549079 -5.08358566 0 0 0 Z " fill="#E5F6E2" transform="translate(36,100)"/>
<path d="M0 0 C1.32 0 2.64 0 4 0 C4 1.65 4 3.3 4 5 C2.35 4.67 0.7 4.34 -1 4 C-0.67 2.68 -0.34 1.36 0 0 Z " fill="#63A35E" transform="translate(303,208)"/>
<path d="M0 0 C-0.3125 2.375 -0.3125 2.375 -1 5 C-1.99 5.66 -2.98 6.32 -4 7 C-4.33 5.02 -4.66 3.04 -5 1 C-3 0 -3 0 0 0 Z " fill="#459F46" transform="translate(136,137)"/>
<path d="M0 0 C1.65 0 3.3 0 5 0 C5 3.3 5 6.6 5 10 C4.67 10 4.34 10 4 10 C3.67 7.69 3.34 5.38 3 3 C1.68 3 0.36 3 -1 3 C-0.67 2.01 -0.34 1.02 0 0 Z " fill="#64A061" transform="translate(199,202)"/>
<path d="M0 0 C1.32 0.33 2.64 0.66 4 1 C4 1.99 4 2.98 4 4 C1.36 4 -1.28 4 -4 4 C-4.33 3.34 -4.66 2.68 -5 2 C-2.525 2.495 -2.525 2.495 0 3 C0 2.01 0 1.02 0 0 Z " fill="#D1EED2" transform="translate(246,180)"/>
<path d="M0 0 C3 0 3 0 6 1 C5.525625 1.37125 5.05125 1.7425 4.5625 2.125 C2.47794198 4.62646962 2.35378509 6.81593418 2 10 C1.67 10 1.34 10 1 10 C0.63883954 8.5225254 0.28624952 7.04295325 -0.0625 5.5625 C-0.25972656 4.73878906 -0.45695313 3.91507813 -0.66015625 3.06640625 C-0.82837891 2.04353516 -0.82837891 2.04353516 -1 1 C-0.67 0.67 -0.34 0.34 0 0 Z " fill="#66AA62" transform="translate(234,166)"/>
<path d="M0 0 C1.65 0 3.3 0 5 0 C4.67 1.32 4.34 2.64 4 4 C4 3.34 4 2.68 4 2 C2.02 3.32 0.04 4.64 -2 6 C-1.34 4.02 -0.68 2.04 0 0 Z " fill="#D7F2D7" transform="translate(209,159)"/>
<path d="M0 0 C1.98 0 3.96 0 6 0 C6 0.66 6 1.32 6 2 C4.68 2 3.36 2 2 2 C2 4.31 2 6.62 2 9 C1.67 9 1.34 9 1 9 C0.67 6.03 0.34 3.06 0 0 Z " fill="#74AE75" transform="translate(202,189)"/>
<path d="M0 0 C1.32 0 2.64 0 4 0 C4.33 1.32 4.66 2.64 5 4 C3.68 4.33 2.36 4.66 1 5 C0.67 3.35 0.34 1.7 0 0 Z " fill="#3F9C3D" transform="translate(235,179)"/>
<path d="M0 0 C1.53202706 0.25195908 3.05257128 0.57596777 4.5625 0.9375 C5.38878906 1.13214844 6.21507813 1.32679687 7.06640625 1.52734375 C8.02353516 1.76130859 8.02353516 1.76130859 9 2 C9 2.33 9 2.66 9 3 C6.03 3 3.06 3 0 3 C0 4.65 0 6.3 0 8 C-0.33 8 -0.66 8 -1 8 C-1.04241723 5.66705225 -1.04092937 3.33297433 -1 1 C-0.67 0.67 -0.34 0.34 0 0 Z " fill="#E4F9E6" transform="translate(64,122)"/>
<path d="M0 0 C-0.33 1.98 -0.66 3.96 -1 6 C-1.66 5.67 -2.32 5.34 -3 5 C-2.67 4.01 -2.34 3.02 -2 2 C-4.64 2 -7.28 2 -10 2 C-10 1.67 -10 1.34 -10 1 C-2.25 0 -2.25 0 0 0 Z " fill="#77B46F" transform="translate(229,211)"/>
<path d="M0 0 C0.66 0.33 1.32 0.66 2 1 C1.67 2.98 1.34 4.96 1 7 C0.67 5.68 0.34 4.36 0 3 C-2.64 3 -5.28 3 -8 3 C-8 2.67 -8 2.34 -8 2 C-5.36 2 -2.72 2 0 2 C0 1.34 0 0.68 0 0 Z " fill="#5CAA58" transform="translate(254,209)"/>
<path d="M0 0 C1.65 0 3.3 0 5 0 C5.33 0.99 5.66 1.98 6 3 C4.02 3 2.04 3 0 3 C0 2.01 0 1.02 0 0 Z " fill="#5E9C5D" transform="translate(218,202)"/>
<path d="M0 0 C1.65 0 3.3 0 5 0 C5.33 0.99 5.66 1.98 6 3 C4.02 3 2.04 3 0 3 C0 2.01 0 1.02 0 0 Z " fill="#609F5D" transform="translate(225,170)"/>
</svg>
