<?xml version="1.0" encoding="UTF-8"?>
<svg version="1.1" xmlns="http://www.w3.org/2000/svg" width="338" height="332">
<path d="M0 0 C111.54 0 223.08 0 338 0 C338 109.56 338 219.12 338 332 C226.46 332 114.92 332 0 332 C0 222.44 0 112.88 0 0 Z " fill="#F2BE50" transform="translate(0,0)"/>
<path d="M0 0 C1.14710449 0.00008057 2.29420898 0.00016113 3.47607422 0.00024414 C12.65378394 0.06139454 21.49108291 0.83370464 30.5625 2.1875 C31.95943912 2.34935949 33.35657911 2.50949397 34.75390625 2.66796875 C37.71679938 3.07213776 40.10641907 3.53052394 42.875 4.5625 C46.12327713 5.72457529 49.33350402 6.63254096 52.6875 7.4375 C66.69005673 11.21565856 80.55409207 19.18189471 92.5625 27.1875 C92.5625 27.8475 92.5625 28.5075 92.5625 29.1875 C93.12324219 29.43113281 93.68398438 29.67476562 94.26171875 29.92578125 C98.95910822 32.50176902 102.66479958 36.55568922 106.5625 40.1875 C107.19800781 40.74566406 107.83351563 41.30382812 108.48828125 41.87890625 C120.72039907 53.09871087 128.54539226 70.70006237 129.78173828 87.09472656 C130.66210478 109.15914218 126.50723734 128.16222079 111.5625 145.1875 C110.76070312 146.13238281 109.95890625 147.07726562 109.1328125 148.05078125 C99.27037674 159.42253199 87.37731964 168.49234956 73.875 175.1875 C73.16947998 175.53780273 72.46395996 175.88810547 71.73706055 176.24902344 C66.13604645 178.98732535 60.50178641 181.27967689 54.5625 183.1875 C53.5725 183.52394531 52.5825 183.86039063 51.5625 184.20703125 C13.3826563 196.6997007 -30.81550868 194.13743726 -66.875 176.3125 C-84.81386176 167.02525906 -105.72036227 153.15494039 -114.4375 134.1875 C-114.4375 133.1975 -114.4375 132.2075 -114.4375 131.1875 C-90.12244875 125.89467517 -65.78873999 120.71887204 -41.40403748 115.75538635 C-37.20658649 114.90075477 -33.00944606 114.04460756 -28.8125 113.1875 C-27.97290741 113.01606476 -27.13331482 112.84462952 -26.26828003 112.66799927 C-14.98029868 110.35992015 -3.72086853 107.95384997 7.51782227 105.41503906 C16.86506635 103.31447038 26.24034354 101.36245103 35.625 99.4375 C36.35119537 99.28852264 37.07739075 99.13954529 37.82559204 98.98605347 C44.04335477 97.71191958 50.26187948 96.44228796 56.48828125 95.2109375 C63.90278057 93.7334695 71.29294689 92.13614737 78.6875 90.5625 C80.23175927 90.23432058 81.77603002 89.90619517 83.3203125 89.578125 C87.06784086 88.78187214 90.81521343 87.98488995 94.5625 87.1875 C94.5625 86.8575 94.5625 86.5275 94.5625 86.1875 C28.8925 85.8575 -36.7775 85.5275 -104.4375 85.1875 C-105.7575 91.1275 -107.0775 97.0675 -108.4375 103.1875 C-109.51488702 107.89736162 -110.59581149 112.60598575 -111.6875 117.3125 C-111.955625 118.47136719 -112.22375 119.63023437 -112.5 120.82421875 C-113.14513898 123.61214077 -113.7909687 126.3999006 -114.4375 129.1875 C-115.4275 129.1875 -116.4175 129.1875 -117.4375 129.1875 C-118.23530561 127.18994091 -119.02542425 125.18931115 -119.8125 123.1875 C-120.25335938 122.07375 -120.69421875 120.96 -121.1484375 119.8125 C-127.82645588 101.03310285 -126.05026532 80.58470993 -117.828125 62.68359375 C-103.7391635 34.79649793 -77.23102347 17.64327011 -48.4375 7.875 C-39.19231443 4.83861939 -30.08164726 2.51357025 -20.4375 1.1875 C-18.62572266 0.91292969 -18.62572266 0.91292969 -16.77734375 0.6328125 C-11.20117637 -0.04460942 -5.60987734 -0.00367834 0 0 Z " fill="#100399" transform="translate(168.4375,71.8125)"/>
<path d="M0 0 C1.14710449 0.00008057 2.29420898 0.00016113 3.47607422 0.00024414 C12.65378394 0.06139454 21.49108291 0.83370464 30.5625 2.1875 C31.95943912 2.34935949 33.35657911 2.50949397 34.75390625 2.66796875 C37.71679938 3.07213776 40.10641907 3.53052394 42.875 4.5625 C46.12327713 5.72457529 49.33350402 6.63254096 52.6875 7.4375 C66.69005673 11.21565856 80.55409207 19.18189471 92.5625 27.1875 C92.5625 27.8475 92.5625 28.5075 92.5625 29.1875 C93.13484375 29.44789062 93.7071875 29.70828125 94.296875 29.9765625 C96.74360764 31.28429891 98.69789426 32.76900106 100.8125 34.5625 C101.51890625 35.14773437 102.2253125 35.73296875 102.953125 36.3359375 C104.5625 38.1875 104.5625 38.1875 104.5625 42.1875 C66.28781983 42.3442702 28.02257836 42.08782569 -10.25 41.6875 C-11.39356461 41.67554218 -12.53712921 41.66358437 -13.71534729 41.65126419 C-27.9561226 41.50187388 -42.19683638 41.34717071 -56.4375 41.1875 C-56.52749519 42.19349747 -56.52749519 42.19349747 -56.61930847 43.21981812 C-56.74430473 44.55226059 -56.74430473 44.55226059 -56.87182617 45.91162109 C-56.95244797 46.78853607 -57.03306976 47.66545105 -57.11613464 48.56893921 C-57.59228043 52.44868746 -58.60144853 56.08521508 -59.75 59.8125 C-59.97002686 60.54960205 -60.19005371 61.2867041 -60.41674805 62.04614258 C-61.58397443 65.83910215 -62.8590919 69.37006678 -64.75 72.875 C-66.89142578 76.45894482 -66.89142578 76.45894482 -66.4375 82.1875 C-60.0025 81.1975 -60.0025 81.1975 -53.4375 80.1875 C-53.4375 80.5175 -53.4375 80.8475 -53.4375 81.1875 C-47.9925 81.6825 -47.9925 81.6825 -42.4375 82.1875 C-42.4375 82.5175 -42.4375 82.8475 -42.4375 83.1875 C-62.8975 83.1875 -83.3575 83.1875 -104.4375 83.1875 C-104.7675 85.8275 -105.0975 88.4675 -105.4375 91.1875 C-105.72020735 92.65918818 -106.02765173 94.12672412 -106.37719727 95.58398438 C-106.5573085 96.3441687 -106.73741974 97.10435303 -106.92298889 97.88757324 C-107.11469162 98.67748657 -107.30639435 99.4673999 -107.50390625 100.28125 C-107.70225571 101.11338013 -107.90060516 101.94551025 -108.10496521 102.80285645 C-108.73263362 105.43204966 -109.36621225 108.05977596 -110 110.6875 C-110.42942963 112.48167677 -110.85846988 114.27594679 -111.28710938 116.0703125 C-112.33274236 120.4437989 -113.3836743 124.81598079 -114.4375 129.1875 C-115.4275 129.1875 -116.4175 129.1875 -117.4375 129.1875 C-118.23530561 127.18994091 -119.02542425 125.18931115 -119.8125 123.1875 C-120.25335938 122.07375 -120.69421875 120.96 -121.1484375 119.8125 C-127.82645588 101.03310285 -126.05026532 80.58470993 -117.828125 62.68359375 C-103.7391635 34.79649793 -77.23102347 17.64327011 -48.4375 7.875 C-39.19231443 4.83861939 -30.08164726 2.51357025 -20.4375 1.1875 C-18.62572266 0.91292969 -18.62572266 0.91292969 -16.77734375 0.6328125 C-11.20117637 -0.04460942 -5.60987734 -0.00367834 0 0 Z " fill="#0F029A" transform="translate(168.4375,71.8125)"/>
<path d="M0 0 C25.84275145 -0.02335316 51.68550131 -0.04099108 77.52826118 -0.05181217 C89.52730792 -0.05696998 101.5263481 -0.0640029 113.52539062 -0.07543945 C123.98289744 -0.08540199 134.44039952 -0.09185718 144.89791095 -0.09408849 C150.43582361 -0.09539292 155.9737227 -0.09846194 161.51163101 -0.10573006 C166.72358129 -0.11251499 171.93551239 -0.1146119 177.14746666 -0.11310768 C179.06066555 -0.11338289 180.97386509 -0.11537335 182.88706017 -0.11920547 C185.49928479 -0.12418131 188.11143702 -0.12298389 190.72366333 -0.12025452 C191.85889582 -0.12462378 191.85889582 -0.12462378 193.01706231 -0.12908131 C197.11665237 -0.11750565 200.97791626 0.20216331 205 1 C205 1.33 205 1.66 205 2 C199.6289729 3.10302669 194.25787658 4.20571555 188.88671875 5.30810547 C187.06345798 5.68236391 185.24021542 6.05671108 183.41699219 6.43115234 C180.78064806 6.97257022 178.14423634 7.51365794 175.5078125 8.0546875 C174.70634796 8.21935516 173.90488342 8.38402283 173.07913208 8.55368042 C168.17017323 9.56067071 163.25806603 10.55078012 158.34378052 11.53143311 C152.35005255 12.72969484 146.36254254 13.95876852 140.375 15.1875 C139.63523926 15.33928711 138.89547852 15.49107422 138.13330078 15.64746094 C127.40418281 17.8524196 116.69543584 20.13739823 106 22.5 C90.71371237 25.87559262 75.38774704 29.04107036 60.04980469 32.17236328 C53.84396208 33.43980051 47.64047063 34.71858897 41.4375 36 C39.71442627 36.355177 39.71442627 36.355177 37.95654297 36.7175293 C31.29839883 38.09451887 24.64702449 39.500201 18 40.9296875 C16.47599788 41.25653393 14.95199075 41.58335699 13.42797852 41.91015625 C10.48733212 42.54091579 7.54793947 43.17714574 4.60913086 43.81640625 C3.26940904 44.10435542 1.92964862 44.39212501 0.58984375 44.6796875 C-0.58715088 44.93476074 -1.76414551 45.18983398 -2.97680664 45.45263672 C-6 46 -6 46 -10 46 C-10.33 46.66 -10.66 47.32 -11 48 C-12.24217084 44.27348749 -11.23826597 42.57608453 -9.96191406 38.99169922 C-8.77015464 35.28514594 -7.87200487 31.54479055 -6.9921875 27.75390625 C-6.81971497 27.01208099 -6.64724243 26.27025574 -6.46954346 25.50595093 C-5.93481733 23.19219287 -5.40445314 20.87746991 -4.875 18.5625 C-4.33665932 16.21790366 -3.79704724 13.87362333 -3.25442505 11.53001404 C-2.91899692 10.08047891 -2.58611439 8.6303518 -2.256073 7.17958069 C-1.11203862 2.22407724 -1.11203862 2.22407724 0 0 Z " fill="#E8AA3F" transform="translate(64,157)"/>
<path d="M0 0 C16.84019329 -0.02356586 33.68038108 -0.04109366 50.52058697 -0.05181217 C58.34323878 -0.05692558 66.16588024 -0.06387131 73.98852539 -0.07543945 C80.82236722 -0.08554036 87.65620153 -0.09188923 94.49005061 -0.09408849 C98.09430011 -0.09537004 101.69852814 -0.09828711 105.30277061 -0.10573006 C124.22751455 -0.14332221 143.09253235 0.20836687 162 1 C158.29641996 2.96188928 154.6473846 3.84700287 150.5625 4.6640625 C149.82200912 4.81715378 149.08151825 4.97024506 148.31858826 5.12797546 C146.71709133 5.45870124 145.11509561 5.78701885 143.51266479 6.1131897 C139.22595137 6.98635993 134.94319345 7.8785331 130.66015625 8.76953125 C129.77940933 8.95237167 128.89866241 9.1352121 127.9912262 9.32359314 C118.7888383 11.24002983 109.6112884 13.26412813 100.4375 15.3125 C99.32967163 15.55930511 99.32967163 15.55930511 98.19946289 15.81109619 C91.2342063 17.36341238 84.27358327 18.93236745 77.32421875 20.5546875 C70.69741253 22.08977399 64.04059339 23.45752541 57.375 24.8125 C47.66445295 26.80032373 37.9803684 28.87687497 28.3125 31.0625 C15.26417584 34.00690078 2.15049468 36.55713289 -11 39 C-10.44987132 33.56715022 -9.45446468 28.62433064 -7.71484375 23.4375 C-7.3840255 22.42236328 -7.3840255 22.42236328 -7.04652405 21.38671875 C-6.350292 19.25551887 -5.64410463 17.12778039 -4.9375 15 C-4.45962003 13.54318719 -3.9824005 12.08615756 -3.50585938 10.62890625 C-2.34485305 7.08340226 -1.17490336 3.54092661 0 0 Z " fill="#E7A940" transform="translate(96,198)"/>
<path d="M0 0 C35.28266049 -0.14255424 70.55819955 0.03695225 105.83895493 0.40571976 C108.94134094 0.43753939 112.04373994 0.46752601 115.14614868 0.49703979 C120.07677277 0.54428992 125.00731814 0.5965914 129.93784714 0.65287781 C131.77380101 0.67318502 133.60977266 0.69194934 135.44575882 0.70909119 C137.97424875 0.73313153 140.50260008 0.763124 143.03100586 0.79467773 C143.76980641 0.80043288 144.50860697 0.80618803 145.26979542 0.81211758 C148.96339155 0.86484553 152.40643948 1.12551463 156 2 C153.30510918 3.44616109 150.84344235 4.39427346 147.859375 5.04980469 C147.04805618 5.23072159 146.23673737 5.41163849 145.40083313 5.59803772 C144.5260582 5.78740402 143.65128326 5.97677032 142.75 6.171875 C141.83280685 6.37473618 140.91561371 6.57759735 139.97062683 6.78660583 C136.98153478 7.44626764 133.9908268 8.09825268 131 8.75 C128.93261414 9.20445007 126.86531303 9.65928586 124.7980957 10.11450195 C111.78267549 12.97579201 98.75742605 15.79071597 85.72265625 18.5625 C76.53334405 20.52008479 67.35731332 22.53862631 58.18041992 24.5534668 C52.13404121 25.88013286 46.08615565 27.19714185 40.03125 28.484375 C35.10326948 29.53719922 30.18549873 30.62941488 25.2734375 31.75390625 C24.3002507 31.97635262 24.3002507 31.97635262 23.30740356 32.20329285 C20.66473817 32.80784433 18.02222306 33.41297626 15.38085938 34.02319336 C6.96012234 35.96620199 -1.45277253 37.70159826 -10 39 C-9.30189515 33.26778349 -8.05169615 27.77943242 -6.625 22.1875 C-6.40166992 21.30400879 -6.17833984 20.42051758 -5.94824219 19.51025391 C-1.98805043 3.97610087 -1.98805043 3.97610087 0 0 Z " fill="#E6A941" transform="translate(113,114)"/>
<path d="M0 0 C111.54 0 223.08 0 338 0 C338 0.33 338 0.66 338 1 C227.78 1 117.56 1 4 1 C4 110.23 4 219.46 4 332 C2.68 332 1.36 332 0 332 C0 222.44 0 112.88 0 0 Z " fill="#15110E" transform="translate(0,0)"/>
<path d="M0 0 C0 0.66 0 1.32 0 2 C-4.62 2.99 -9.24 3.98 -14 5 C10.88772563 5.8761391 35.76760325 6.27531721 60.66870117 6.53222656 C65.5779882 6.583585 70.48723367 6.63865744 75.39648438 6.69335938 C84.93095364 6.79908 94.46545986 6.90089117 104 7 C104 7.33 104 7.66 104 8 C61.76 8 19.52 8 -24 8 C-25.32 13.28 -26.64 18.56 -28 24 C-28.83084919 26.68075097 -29.69249654 29.35289339 -30.625 32 C-32.33520969 36.97276355 -33.84849057 41.8705489 -35 47 C-34.18015625 46.77183594 -33.3603125 46.54367188 -32.515625 46.30859375 C-31.43796875 46.02113281 -30.3603125 45.73367187 -29.25 45.4375 C-28.18265625 45.14746094 -27.1153125 44.85742188 -26.015625 44.55859375 C-23.15664073 44.02901506 -21.68402617 44.01629138 -19 45 C-20 46 -20 46 -22.5625 46.0625 C-23.366875 46.041875 -24.17125 46.02125 -25 46 C-25 46.99 -25 47.98 -25 49 C-24.01 49.33 -23.02 49.66 -22 50 C-22.99 50.33 -23.98 50.66 -25 51 C-24.34 52.32 -23.68 53.64 -23 55 C-39.81034618 48.86773216 -55.98242632 32.5939993 -65.22265625 17.69140625 C-66 16 -66 16 -66 13 C-30.22835119 5.18887167 -30.22835119 5.18887167 -14.4375 2 C-13.42373291 1.79286377 -12.40996582 1.58572754 -11.36547852 1.37231445 C-10.43920654 1.18757568 -9.51293457 1.00283691 -8.55859375 0.8125 C-7.76767334 0.65394531 -6.97675293 0.49539062 -6.16186523 0.33203125 C-4 0 -4 0 0 0 Z " fill="#110496" transform="translate(120,190)"/>
<path d="M0 0 C43.23 0 86.46 0 131 0 C131 0.33 131 0.66 131 1 C68.135 1.495 68.135 1.495 4 2 C2.02797365 5.9440527 1.75065213 7.34646033 1.75390434 11.56783676 C1.74992225 12.70790452 1.74594015 13.84797227 1.74183738 15.02258754 C1.74766307 16.27549437 1.75348875 17.5284012 1.75949097 18.8192749 C1.75861896 20.16328807 1.75686808 21.5073009 1.75431263 22.85131192 C1.74983403 26.54782943 1.7578498 30.24423137 1.76786876 33.94073415 C1.77649358 37.92570447 1.77358378 41.91066811 1.77206421 45.89564514 C1.77101474 52.80097756 1.77729777 59.70627223 1.78853989 66.61159515 C1.80478359 76.59556754 1.81000173 86.57952163 1.81251587 96.5635058 C1.81689475 112.76126031 1.83020908 128.9589947 1.84912109 145.15673828 C1.8674749 160.89273986 1.88163385 176.62873597 1.89013672 192.36474609 C1.89066217 193.33446876 1.89118761 194.30419143 1.89172898 195.30329964 C1.89433903 200.16804022 1.89686645 205.03278085 1.89935279 209.8975215 C1.92009129 250.26502833 1.95532207 290.63251302 2 331 C1.34 331 0.68 331 0 331 C0 221.77 0 112.54 0 0 Z " fill="#F1E69D" transform="translate(4,1)"/>
<path d="M0 0 C0 0.66 0 1.32 0 2 C-4.62 2.99 -9.24 3.98 -14 5 C10.88772563 5.8761391 35.76760325 6.27531721 60.66870117 6.53222656 C65.5779882 6.583585 70.48723367 6.63865744 75.39648438 6.69335938 C84.93095364 6.79908 94.46545986 6.90089117 104 7 C104 7.33 104 7.66 104 8 C61.76 8 19.52 8 -24 8 C-25.32 13.28 -26.64 18.56 -28 24 C-28.99 26.475 -28.99 26.475 -30 29 C-30.33 29 -30.66 29 -31 29 C-30.855625 28.030625 -30.71125 27.06125 -30.5625 26.0625 C-30.01241862 22.32653064 -29.6787214 18.5839495 -29.37890625 14.8203125 C-29.25386719 14.21960938 -29.12882812 13.61890625 -29 13 C-28.34 12.67 -27.68 12.34 -27 12 C-26.34444881 9.47266765 -26.34444881 9.47266765 -26 7 C-26.66 7.165 -27.32 7.33 -28 7.5 C-31.73099794 8.12183299 -35.21873378 8.06408926 -39 8 C-39 7.67 -39 7.34 -39 7 C-34.08969606 5.99814574 -29.17839768 5.00137561 -24.26611328 4.00927734 C-22.59558346 3.67115147 -20.92533255 3.33164452 -19.25537109 2.99072266 C-16.85326188 2.50058377 -14.45018937 2.01544042 -12.046875 1.53125 C-10.9294693 1.30157532 -10.9294693 1.30157532 -9.78948975 1.06726074 C-6.42792698 0.39465819 -3.44606394 0 0 0 Z " fill="#301961" transform="translate(120,190)"/>
<path d="M0 0 C1.98 1.65 3.96 3.3 6 5 C1.90929581 6.36356806 -2.00397582 6.44423213 -6.22850037 5.50402832 C-9.81168614 4.85238576 -13.3398185 4.83111262 -16.96899414 4.81054688 C-17.76202344 4.80223374 -18.55505274 4.79392061 -19.37211323 4.78535557 C-22.00977231 4.75875247 -24.64743996 4.73881033 -27.28515625 4.71875 C-29.15671222 4.70093742 -31.02826375 4.68265259 -32.89981079 4.66392517 C-36.88447213 4.6248037 -40.86914491 4.58839086 -44.85385132 4.5541687 C-54.17511418 4.47385049 -63.49623843 4.37952869 -72.81736946 4.28530693 C-74.89592387 4.26433606 -76.97447995 4.24353001 -79.05303764 4.22288704 C-97.93261516 4.03502278 -116.80992857 3.76895477 -135.6875 3.4375 C-136.96174835 3.41526367 -138.2359967 3.39302734 -139.54885864 3.37011719 C-146.36597764 3.25055676 -153.18303129 3.12784666 -160 3 C-160.33 3.66 -160.66 4.32 -161 5 C-161 4.01 -161 3.02 -161 2 C-145.60417563 1.96940248 -130.20835061 1.9490246 -114.8125 1.9375 C-113.67699203 1.93664398 -112.54148407 1.93578796 -111.37156677 1.93490601 C-74.23697807 1.91016885 -37.12542235 2.14210303 0 3 C0 2.01 0 1.02 0 0 Z " fill="#2F1963" transform="translate(273,111)"/>
<path d="M0 0 C68.64 0 137.28 0 208 0 C208.33 0.99 208.66 1.98 209 3 C205.78548731 4.60725635 202.56387464 4.05748185 199 4 C199 3.34 199 2.68 199 2 C133.33 1.67 67.66 1.34 0 1 C0 0.67 0 0.34 0 0 Z " fill="#3C245F" transform="translate(64,156)"/>
<path d="M0 0 C-1.19882813 0.87398438 -1.19882813 0.87398438 -2.421875 1.765625 C-21.58034231 15.96100256 -37.47228337 33.74828108 -42 58 C-42.33853197 63.23446423 -42.28721545 68.44648086 -42.1875 73.6875 C-42.17241097 75.08266768 -42.15873009 76.47785134 -42.14648438 77.87304688 C-42.11143868 81.24911584 -42.06230508 84.62434276 -42 88 C-46.61408033 83.38591967 -45.22201761 75.84316586 -45.25 69.75 C-45.270625 68.64269531 -45.29125 67.53539062 -45.3125 66.39453125 C-45.34393294 59.78575464 -44.6210915 55.04972555 -42 49 C-41.76439585 46.59828313 -41.8488356 44.41863034 -42 42 C-40.515 41.505 -40.515 41.505 -39 41 C-38.32741333 38.66836622 -37.66152556 36.3347961 -37 34 C-35.125 31.375 -35.125 31.375 -33 29 C-29.90659742 25.45168527 -28.2693719 22.54858266 -27 18 C-25.35 17.67 -23.7 17.34 -22 17 C-22 16.34 -22 15.68 -22 15 C-21.34 15 -20.68 15 -20 15 C-20 13.35 -20 11.7 -20 10 C-19.360625 9.87625 -18.72125 9.7525 -18.0625 9.625 C-17.381875 9.41875 -16.70125 9.2125 -16 9 C-15.67 8.34 -15.34 7.68 -15 7 C-14.01 6.67 -13.02 6.34 -12 6 C-11.38125 5.38125 -10.7625 4.7625 -10.125 4.125 C-4.5 -1.5 -4.5 -1.5 0 0 Z " fill="#E5D281" transform="translate(87,96)"/>
<path d="M0 0 C42.9 0 85.8 0 130 0 C130 0.33 130 0.66 130 1 C129.34824138 1.00331015 128.69648275 1.00662029 128.02497387 1.01003075 C112.17630319 1.0912025 96.32773919 1.18327567 80.47920513 1.28752708 C72.81501454 1.33767829 65.15083478 1.38412087 57.48657227 1.421875 C50.80747328 1.45478558 44.12845774 1.49461153 37.44945079 1.54279006 C33.9119949 1.56806444 30.37459442 1.58984287 26.83707237 1.60334396 C22.89087409 1.61853422 18.94487898 1.64916162 14.9987793 1.68115234 C13.82202133 1.68331253 12.64526337 1.68547272 11.43284607 1.68769836 C9.82376373 1.70444359 9.82376373 1.70444359 8.18217468 1.7215271 C7.24839839 1.72705786 6.3146221 1.73258862 5.35254955 1.73828697 C2.73101155 1.84760602 2.73101155 1.84760602 0 4 C0 2.68 0 1.36 0 0 Z " fill="#F3D974" transform="translate(5,1)"/>
<path d="M0 0 C2 2 2 2 2.125 4.625 C2.08375 5.40875 2.0425 6.1925 2 7 C2.66 7 3.32 7 4 7 C4.91099367 14.16576676 5.07531684 21.10130999 4.75 28.3125 C4.72292969 29.27478516 4.69585937 30.23707031 4.66796875 31.22851562 C4.44914643 36.32848739 4.14116457 39.78444233 1 44 C0.29329272 46.69254991 0.29329272 46.69254991 0 49 C-0.66 49 -1.32 49 -2 49 C-1.7834375 48.2678125 -1.566875 47.535625 -1.34375 46.78125 C2.57294629 31.54965333 1.63716279 15.52449137 0 0 Z " fill="#B37655" transform="translate(296,145)"/>
<path d="M0 0 C0.66 0 1.32 0 2 0 C1.67 1.98 1.34 3.96 1 6 C1.81984375 5.77183594 2.6396875 5.54367188 3.484375 5.30859375 C5.10085937 4.87740234 5.10085937 4.87740234 6.75 4.4375 C7.81734375 4.14746094 8.8846875 3.85742188 9.984375 3.55859375 C12.84335927 3.02901506 14.31597383 3.01629138 17 4 C16 5 16 5 13.4375 5.0625 C12.2309375 5.0315625 12.2309375 5.0315625 11 5 C11 5.99 11 6.98 11 8 C11.99 8.33 12.98 8.66 14 9 C13.01 9.33 12.02 9.66 11 10 C11.66 11.32 12.32 12.64 13 14 C8.83740241 12.5199653 5.41490692 10.4553071 1.75 8 C0.69296875 7.29875 -0.3640625 6.5975 -1.453125 5.875 C-4 4 -4 4 -5 2 C-2.525 2.99 -2.525 2.99 0 4 C0 2.68 0 1.36 0 0 Z " fill="#221280" transform="translate(84,231)"/>
<path d="M0 0 C-2.92444141 1.94962761 -5.39539777 2.94364337 -8.6875 4.125 C-14.91585862 6.46501325 -20.7926527 9.27784521 -26.70581055 12.32080078 C-29.45032055 13.73257591 -32.06621337 15.02207112 -35 16 C-33.08106237 11.8879908 -31.39344987 9.96962844 -27.125 8.375 C-26.44695312 8.11460938 -25.76890625 7.85421875 -25.0703125 7.5859375 C-23 7 -23 7 -19 7 C-19 6.34 -19 5.68 -19 5 C-16.9635505 4.15399724 -14.92056513 3.3237175 -12.875 2.5 C-11.73804687 2.0359375 -10.60109375 1.571875 -9.4296875 1.09375 C-6.0528355 0.01684959 -3.51385272 -0.21360807 0 0 Z " fill="#D1B77B" transform="translate(122,79)"/>
<path d="M0 0 C1.98 1.65 3.96 3.3 6 5 C1.88965529 6.3701149 -2.02482928 6.4242362 -6.2722168 5.51196289 C-9.62438021 4.88281345 -12.86013635 4.78180677 -16.26953125 4.68359375 C-16.95053391 4.66281265 -17.63153656 4.64203156 -18.33317566 4.62062073 C-20.49285508 4.55562122 -22.65264846 4.49647288 -24.8125 4.4375 C-26.28321456 4.3942675 -27.75391791 4.35065175 -29.22460938 4.30664062 C-32.81628717 4.19999141 -36.40809082 4.09858651 -40 4 C-40 3.67 -40 3.34 -40 3 C-26.8 3 -13.6 3 0 3 C0 2.01 0 1.02 0 0 Z " fill="#13017B" transform="translate(273,111)"/>
<path d="M0 0 C0.33 0.66 0.66 1.32 1 2 C-0.20697532 5.40147591 -1.93504686 7.14245264 -5 9 C-5.99 9 -6.98 9 -8 9 C-8.061875 9.598125 -8.12375 10.19625 -8.1875 10.8125 C-9.35709526 13.96141032 -11.02454817 14.54533466 -14 16 C-17.22498296 17.22549353 -19.54522558 18 -23 18 C-18.520873 14.32830576 -13.83508533 11.01518052 -9.08398438 7.7109375 C-5.75473679 5.36426785 -2.78626321 3.00166011 0 0 Z " fill="#C59154" transform="translate(272,225)"/>
<path d="M0 0 C2.31 0 4.62 0 7 0 C7 0.99 7 1.98 7 3 C7.99 3.66 8.98 4.32 10 5 C10.1875 7.625 10.1875 7.625 10 10 C10.61875 10.061875 11.2375 10.12375 11.875 10.1875 C14 11 14 11 15.125 13.375 C15.558125 14.674375 15.558125 14.674375 16 16 C16.66 16.99 17.32 17.98 18 19 C17.34 19.99 16.68 20.98 16 22 C15.43152344 21.07058594 14.86304688 20.14117187 14.27734375 19.18359375 C10.04093288 12.36537543 5.96585737 6.45812483 0 1 C0 0.67 0 0.34 0 0 Z " fill="#D99848" transform="translate(273,110)"/>
<path d="M0 0 C0.33 0 0.66 0 1 0 C1 12.21 1 24.42 1 37 C-3.64695676 32.35304324 -2.18401017 24.75314867 -2.1875 18.625 C-2.19974609 17.5009375 -2.21199219 16.376875 -2.22460938 15.21875 C-2.24269712 5.01725918 -2.24269712 5.01725918 0 0 Z " fill="#D4C487" transform="translate(44,147)"/>
<path d="M0 0 C4.62 0 9.24 0 14 0 C14 0.33 14 0.66 14 1 C10.93929066 1.67507066 7.8761791 2.33854922 4.8125 3 C3.51602539 3.28617188 3.51602539 3.28617188 2.19335938 3.578125 C1.35224609 3.75859375 0.51113281 3.9390625 -0.35546875 4.125 C-1.12528076 4.29257813 -1.89509277 4.46015625 -2.68823242 4.6328125 C-5.16060247 5.02550915 -7.50075809 5.06185285 -10 5 C-10 4.34 -10 3.68 -10 3 C-10.99 2.34 -11.98 1.68 -13 1 C-8.71 1 -4.42 1 0 1 C0 0.67 0 0.34 0 0 Z " fill="#E2A548" transform="translate(255,158)"/>
<path d="M0 0 C2.03073042 3.04609562 3.07627599 5.75264958 4.3125 9.1875 C6.35879029 14.64427409 8.79999905 19.15428427 12 24 C12 24.66 12 25.32 12 26 C11.34 26 10.68 26 10 26 C8.74609375 24.35546875 8.74609375 24.35546875 7.4375 22.1875 C7.00308594 21.47980469 6.56867187 20.77210938 6.12109375 20.04296875 C5 18 5 18 4 15 C3.32453125 14.57074219 2.6490625 14.14148438 1.953125 13.69921875 C0 12 0 12 -0.390625 9.08203125 C-0.34421875 8.00308594 -0.2978125 6.92414063 -0.25 5.8125 C-0.21390625 4.72582031 -0.1778125 3.63914063 -0.140625 2.51953125 C-0.09421875 1.68808594 -0.0478125 0.85664063 0 0 Z " fill="#DDCB84" transform="translate(45,185)"/>
<path d="M0 0 C-0.85464844 0.20496094 -1.70929688 0.40992188 -2.58984375 0.62109375 C-3.69457031 0.89050781 -4.79929688 1.15992188 -5.9375 1.4375 C-7.03964844 1.70433594 -8.14179688 1.97117188 -9.27734375 2.24609375 C-11.89421254 2.72995725 -11.89421254 2.72995725 -13 4 C-19.35537418 5.53020433 -25.47735909 6.24613739 -32 6 C-27.31543376 2.87695584 -22.03324891 2.3894674 -16.5625 1.3125 C-15.41716797 1.07466797 -14.27183594 0.83683594 -13.09179688 0.59179688 C-11.99029297 0.37201172 -10.88878906 0.15222656 -9.75390625 -0.07421875 C-8.74658447 -0.27619873 -7.7392627 -0.47817871 -6.70141602 -0.6862793 C-4.09533497 -0.98892856 -2.45939808 -0.83639301 0 0 Z " fill="#381F64" transform="translate(192,135)"/>
<path d="M0 0 C1.155 0.391875 2.31 0.78375 3.5 1.1875 C10.63136502 3.56843728 17.82002646 5.77112478 25 8 C25 8.33 25 8.66 25 9 C15.90034157 8.27780489 8.29047748 5.7042559 0 2 C0 1.34 0 0.68 0 0 Z " fill="#DEC279" transform="translate(103,249)"/>
<path d="M0 0 C2 2 2 2 2.125 4.625 C2.08375 5.40875 2.0425 6.1925 2 7 C2.66 7 3.32 7 4 7 C5.36752652 15.7521697 4.70757095 24.22612019 4 33 C3.67 33 3.34 33 3 33 C2.98018066 32.43603516 2.96036133 31.87207031 2.93994141 31.29101562 C2.84368189 28.69360426 2.73441948 26.09688897 2.625 23.5 C2.57859375 22.1696875 2.57859375 22.1696875 2.53125 20.8125 C2.28619311 15.25787711 1.46993001 10.35813199 0 5 C-0.125 2 -0.125 2 0 0 Z " fill="#D28D4C" transform="translate(296,145)"/>
<path d="M0 0 C1.25683594 0.84304687 1.25683594 0.84304687 2.5390625 1.703125 C6.12464362 4.09351241 9.74697237 6.42472968 13.375 8.75 C14.01566406 9.16121094 14.65632813 9.57242188 15.31640625 9.99609375 C16.87730388 10.99786387 18.43860917 11.99899876 20 13 C18.33984375 13.6953125 18.33984375 13.6953125 16 14 C10.02000548 11.1303156 4.24840508 7.12738544 0 2 C0 1.34 0 0.68 0 0 Z " fill="#DEC67F" transform="translate(74,230)"/>
<path d="M0 0 C0.33 0 0.66 0 1 0 C1 2.64 1 5.28 1 8 C1.66386719 7.855625 2.32773437 7.71125 3.01171875 7.5625 C3.89472656 7.376875 4.77773438 7.19125 5.6875 7 C6.55761719 6.814375 7.42773438 6.62875 8.32421875 6.4375 C10.93712964 6.01027953 13.35813038 5.92383799 16 6 C13.06030946 7.95979369 11.44977414 8.48320069 8.0625 9.125 C7.20785156 9.29257813 6.35320313 9.46015625 5.47265625 9.6328125 C3 10 3 10 -1 10 C-1.33 10.66 -1.66 11.32 -2 12 C-3.15957207 8.52128379 -2.77456651 7.65780355 -1.5625 4.3125 C-1.13130859 3.10013672 -1.13130859 3.10013672 -0.69140625 1.86328125 C-0.46324219 1.24839844 -0.23507813 0.63351563 0 0 Z " fill="#C5955A" transform="translate(55,193)"/>
<path d="M0 0 C6.6 0 13.2 0 20 0 C20.33 0.99 20.66 1.98 21 3 C17.78548731 4.60725635 14.56387464 4.05748185 11 4 C11 3.34 11 2.68 11 2 C7.37 1.67 3.74 1.34 0 1 C0 0.67 0 0.34 0 0 Z " fill="#331D6F" transform="translate(252,156)"/>
<path d="M0 0 C0.33 0 0.66 0 1 0 C0.48914188 6.43681228 -0.72942897 11.95942424 -3 18 C-4.5 16.6875 -4.5 16.6875 -6 15 C-6 14.01 -6 13.02 -6 12 C-5.01 11.67 -4.02 11.34 -3 11 C-2.86722656 10.28972656 -2.73445313 9.57945312 -2.59765625 8.84765625 C-2.42105469 7.92855469 -2.24445312 7.00945312 -2.0625 6.0625 C-1.88847656 5.14597656 -1.71445312 4.22945312 -1.53515625 3.28515625 C-1 1 -1 1 0 0 Z " fill="#2C166D" transform="translate(56,184)"/>
<path d="M0 0 C1.45047396 2.90094791 0.45356803 4.55972596 -0.4375 7.625 C-0.86869141 9.12933594 -0.86869141 9.12933594 -1.30859375 10.6640625 C-1.53675781 11.43492187 -1.76492187 12.20578125 -2 13 C-0.7625 12.649375 0.475 12.29875 1.75 11.9375 C4.903292 11.04406727 6.86774164 10.99118706 10 12 C5.46298506 13.45184478 1.81938524 14.23509196 -3 14 C-4.26332183 9.78892722 -4.00441956 7.4543291 -2.0625 3.625 C-1.39025121 2.40811576 -0.70765749 1.1966397 0 0 Z " fill="#28156D" transform="translate(105,140)"/>
<path d="M0 0 C4.66666667 4.66666667 9.33333333 9.33333333 14 14 C13.01 14.33 12.02 14.66 11 15 C8.4058475 12.4058475 5.81488494 9.81067778 3.25 7.1875 C1.40351711 4.88382027 1.40351711 4.88382027 0 5 C0 3.35 0 1.7 0 0 Z " fill="#D5C283" transform="translate(60,215)"/>
<path d="M0 0 C0 0.66 0 1.32 0 2 C-8.08961486 3.95829294 -15.65474478 5.51917486 -24 5 C-24 4.67 -24 4.34 -24 4 C-20.75128084 3.32698711 -17.50083621 2.6627049 -14.25 2 C-12.86941406 1.71382812 -12.86941406 1.71382812 -11.4609375 1.421875 C-10.57148437 1.24140625 -9.68203125 1.0609375 -8.765625 0.875 C-7.94868164 0.70742187 -7.13173828 0.53984375 -6.29003906 0.3671875 C-4 0 -4 0 0 0 Z " fill="#2F1A68" transform="translate(120,190)"/>
<path d="M0 0 C1.5 1.3125 1.5 1.3125 3 3 C3 3.99 3 4.98 3 6 C5.97 6.495 5.97 6.495 9 7 C9 8.65 9 10.3 9 12 C6.33333333 10 3.66666667 8 1 6 C0.25234375 5.48050781 -0.4953125 4.96101563 -1.265625 4.42578125 C-2.12414062 3.72001953 -2.12414062 3.72001953 -3 3 C-3 2.34 -3 1.68 -3 1 C-2.01 0.67 -1.02 0.34 0 0 Z " fill="#C49055" transform="translate(264,98)"/>
<path d="M0 0 C10.56 0 21.12 0 32 0 C32 0.33 32 0.66 32 1 C30.70582153 1.029729 30.70582153 1.029729 29.38549805 1.06005859 C26.18163044 1.13819644 22.97814106 1.22489082 19.7746582 1.31738281 C18.38868093 1.3556435 17.00260535 1.39050156 15.61645508 1.421875 C13.6229836 1.46758699 11.62983086 1.52658925 9.63671875 1.5859375 C8.43748779 1.6173584 7.23825684 1.6487793 6.00268555 1.68115234 C2.82117294 1.78429494 2.82117294 1.78429494 0 4 C0 2.68 0 1.36 0 0 Z " fill="#F8E980" transform="translate(5,1)"/>
<path d="M0 0 C-4.92318581 2.89644843 -8.81723899 3.51162149 -14.375 3.6875 C-15.11105469 3.72166016 -15.84710938 3.75582031 -16.60546875 3.79101562 C-18.40313853 3.87272789 -20.20154046 3.93805781 -22 4 C-18.47921315 1.98434953 -14.94911236 1.17009326 -11 0.3125 C-9.783125 0.04050781 -8.56625 -0.23148438 -7.3125 -0.51171875 C-4.35566123 -0.94757352 -2.74913631 -1.02405328 0 0 Z " fill="#3A2068" transform="translate(142,186)"/>
<path d="M0 0 C1.33201473 2.66402946 0.69751146 3.5586384 -0.21484375 6.3515625 C-0.48876953 7.20234375 -0.76269531 8.053125 -1.04492188 8.9296875 C-1.48674805 10.26386719 -1.48674805 10.26386719 -1.9375 11.625 C-2.22818359 12.5221875 -2.51886719 13.419375 -2.81835938 14.34375 C-3.53899834 16.56473565 -4.26645605 18.78324979 -5 21 C-5.33 21 -5.66 21 -6 21 C-5.855625 20.030625 -5.71125 19.06125 -5.5625 18.0625 C-5.01241862 14.32653064 -4.6787214 10.5839495 -4.37890625 6.8203125 C-4.25386719 6.21960938 -4.12882812 5.61890625 -4 5 C-3.34 4.67 -2.68 4.34 -2 4 C-0.86649466 1.98330173 -0.86649466 1.98330173 0 0 Z " fill="#2E1865" transform="translate(95,198)"/>
<path d="M0 0 C0.33 0 0.66 0 1 0 C1.27312207 5.37140063 1.40444214 8.58683426 -2 13 C-2.99031545 14.00959166 -3.98873348 15.01139491 -5 16 C-4.54762239 14.08191891 -4.08785537 12.16557967 -3.625 10.25 C-3.24214844 8.64898437 -3.24214844 8.64898437 -2.8515625 7.015625 C-2.12466459 4.44147278 -1.2973776 2.32399814 0 0 Z " fill="#2C207A" transform="translate(50,136)"/>
<path d="M0 0 C7.45491562 0.36580804 14.04931961 1.20919651 21 4 C18.02977779 4.91145054 15.93514414 5.01801972 12.890625 4.44140625 C12.13652344 4.30283203 11.38242188 4.16425781 10.60546875 4.02148438 C9.43951172 3.79428711 9.43951172 3.79428711 8.25 3.5625 C7.45722656 3.41490234 6.66445312 3.26730469 5.84765625 3.11523438 C3.89702754 2.75096034 1.9483107 2.37647488 0 2 C0 1.34 0 0.68 0 0 Z " fill="#2E1B6E" transform="translate(195,74)"/>
<path d="M0 0 C1.98 1.65 3.96 3.3 6 5 C0.97560615 6.67479795 -3.90085558 6.23615622 -9 5 C-9 4.67 -9 4.34 -9 4 C-6.36 3.67 -3.72 3.34 -1 3 C-0.67 2.01 -0.34 1.02 0 0 Z " fill="#2C1876" transform="translate(273,111)"/>
<path d="M0 0 C0.66 0 1.32 0 2 0 C1.67 1.98 1.34 3.96 1 6 C2.98 5.67 4.96 5.34 7 5 C6.34 6.32 5.68 7.64 5 9 C0.56541027 7.6062718 -1.87378374 5.39417765 -5 2 C-2.525 2.99 -2.525 2.99 0 4 C0 2.68 0 1.36 0 0 Z " fill="#3F2961" transform="translate(84,231)"/>
<path d="M0 0 C-3.27345993 3.27345993 -7.7972852 3.88053072 -12.3046875 4.125 C-14.20358219 4.125 -16.10231518 4.06777446 -18 4 C-12.20906558 0.75707672 -6.59189297 -0.26905686 0 0 Z " fill="#3D2665" transform="translate(160,141)"/>
<path d="M0 0 C-0.625 2.4375 -0.625 2.4375 -2 5 C-5.73363765 6.1363245 -8.30820424 6.03881699 -12 5 C-10.37750059 4.16180842 -8.75191503 3.3295884 -7.125 2.5 C-6.22007812 2.0359375 -5.31515625 1.571875 -4.3828125 1.09375 C-2 0 -2 0 0 0 Z " fill="#C89858" transform="translate(248,244)"/>
<path d="M0 0 C0.66 0 1.32 0 2 0 C2 0.99 2 1.98 2 3 C2.66 3 3.32 3 4 3 C6.4294516 6.6441774 6.16179575 8.71241272 6 13 C3.19438607 11.59719304 2.99319493 9.9490995 1.875 7.0625 C1.52179688 6.16660156 1.16859375 5.27070313 0.8046875 4.34765625 C0 2 0 2 0 0 Z " fill="#C88A4D" transform="translate(290,132)"/>
<path d="M0 0 C2.97 0 5.94 0 9 0 C8.67 0.99 8.34 1.98 8 3 C8.66 3 9.32 3 10 3 C10.33 3.99 10.66 4.98 11 6 C7.2089881 4.55049545 3.6125362 2.84827434 0 1 C0 0.67 0 0.34 0 0 Z " fill="#D29D53" transform="translate(244,89)"/>
<path d="M0 0 C3.2578125 -0.29296875 3.2578125 -0.29296875 7.125 -0.1875 C9.04699219 -0.14689453 9.04699219 -0.14689453 11.0078125 -0.10546875 C11.99523437 -0.07066406 12.98265625 -0.03585938 14 0 C14 0.33 14 0.66 14 1 C8.61972975 2.19088986 3.54708616 3.2919519 -2 3 C-1.34 2.01 -0.68 1.02 0 0 Z " fill="#CFA161" transform="translate(255,158)"/>
<path d="M0 0 C1.08644535 4.3457814 0.90680911 4.94960548 -0.9375 8.75 C-1.31777344 9.54921875 -1.69804687 10.3484375 -2.08984375 11.171875 C-2.39019531 11.77515625 -2.69054687 12.3784375 -3 13 C-3.99 12.67 -4.98 12.34 -6 12 C-4.02 8.04 -2.04 4.08 0 0 Z " fill="#BB8252" transform="translate(293,194)"/>
<path d="M0 0 C0 3.5747073 -0.55352838 4.46916729 -3 7 C-5.6875 7.75 -5.6875 7.75 -8 8 C-7.04578192 6.85073734 -6.08647955 5.70569459 -5.125 4.5625 C-4.59132813 3.92441406 -4.05765625 3.28632812 -3.5078125 2.62890625 C-2 1 -2 1 0 0 Z " fill="#241678" transform="translate(78,102)"/>
<path d="M0 0 C-4.455 3.465 -4.455 3.465 -9 7 C-9.33 5.68 -9.66 4.36 -10 3 C-3.375 -1.125 -3.375 -1.125 0 0 Z " fill="#DAC480" transform="translate(87,96)"/>
<path d="M0 0 C1.32 0 2.64 0 4 0 C2.74874616 3.75376152 1.4347596 4.24073289 -2 6 C-2.66 6 -3.32 6 -4 6 C-2.84826645 3.53199953 -1.95216435 1.95216435 0 0 Z " fill="#E6CD77" transform="translate(91,89)"/>
<path d="M0 0 C0.33 0 0.66 0 1 0 C2.35384615 6.27692308 2.35384615 6.27692308 0.5625 9.9375 C-0.2109375 10.9584375 -0.2109375 10.9584375 -1 12 C-2.45606519 7.47907032 -1.27032841 4.48351204 0 0 Z " fill="#CA9951" transform="translate(107,134)"/>
<path d="M0 0 C0.99 0 1.98 0 3 0 C1.4169423 4.2742558 -1.50568404 6.26531794 -5 9 C-4.67 7.68 -4.34 6.36 -4 5 C-3.34 5 -2.68 5 -2 5 C-2 4.34 -2 3.68 -2 3 C-1.34 3 -0.68 3 0 3 C0 2.01 0 1.02 0 0 Z " fill="#DCC685" transform="translate(67,108)"/>
<path d="M0 0 C0.33 1.32 0.66 2.64 1 4 C-0.21484375 5.703125 -0.21484375 5.703125 -1.9375 7.25 C-2.50339844 7.77078125 -3.06929688 8.2915625 -3.65234375 8.828125 C-4.09707031 9.21484375 -4.54179687 9.6015625 -5 10 C-5.66 9.67 -6.32 9.34 -7 9 C-4.69 6.03 -2.38 3.06 0 0 Z " fill="#B67F57" transform="translate(286,208)"/>
<path d="M0 0 C0.33 0 0.66 0 1 0 C1.75 3.1875 1.75 3.1875 2 7 C0.0625 9.9375 0.0625 9.9375 -2 12 C-1.85831863 10.56208484 -1.71148957 9.1246763 -1.5625 7.6875 C-1.48128906 6.88699219 -1.40007813 6.08648437 -1.31640625 5.26171875 C-1 3 -1 3 0 0 Z " fill="#BF8F5A" transform="translate(60,172)"/>
<path d="M0 0 C0.33 1.32 0.66 2.64 1 4 C-0.98 5.32 -2.96 6.64 -5 8 C-3.8141763 4.62496331 -2.72426311 2.35277269 0 0 Z " fill="#281C79" transform="translate(64,115)"/>
<path d="M0 0 C2.31 0 4.62 0 7 0 C6.67 1.98 6.34 3.96 6 6 C3.97945196 4.35830472 1.97956942 2.69088222 0 1 C0 0.67 0 0.34 0 0 Z " fill="#CB9152" transform="translate(273,110)"/>
<path d="M0 0 C0.33 0 0.66 0 1 0 C1 1.98 1 3.96 1 6 C2.65 6 4.3 6 6 6 C6 6.33 6 6.66 6 7 C3.69 7.33 1.38 7.66 -1 8 C-0.67 5.36 -0.34 2.72 0 0 Z " fill="#C9995D" transform="translate(86,229)"/>
<path d="M0 0 C0.6875 1.8125 0.6875 1.8125 1 4 C-0.4375 5.75 -0.4375 5.75 -2 7 C-2.99 6.67 -3.98 6.34 -5 6 C-3.35 4.02 -1.7 2.04 0 0 Z " fill="#B27D53" transform="translate(278,218)"/>
<path d="M0 0 C1.5 1.375 1.5 1.375 3 3 C3 3.66 3 4.32 3 5 C0.83125748 4.49396008 -0.99967627 4.00016187 -3 3 C-3 2.34 -3 1.68 -3 1 C-2.01 0.67 -1.02 0.34 0 0 Z " fill="#D09B4F" transform="translate(264,98)"/>
</svg>
