<?xml version="1.0" encoding="UTF-8" standalone="no"?>
<svg
   version="1.1"
   width="612pt"
   height="936pt"
   id="svg14"
   viewBox="0 0 612 936"
   sodipodi:docname="luz-del-sur-4419.cdr"
   xmlns:inkscape="http://www.inkscape.org/namespaces/inkscape"
   xmlns:sodipodi="http://sodipodi.sourceforge.net/DTD/sodipodi-0.dtd"
   xmlns="http://www.w3.org/2000/svg"
   xmlns:svg="http://www.w3.org/2000/svg">
  <defs
     id="defs14" />
  <sodipodi:namedview
     id="namedview14"
     pagecolor="#ffffff"
     bordercolor="#000000"
     borderopacity="0.25"
     inkscape:showpageshadow="2"
     inkscape:pageopacity="0.0"
     inkscape:pagecheckerboard="0"
     inkscape:deskcolor="#d1d1d1"
     inkscape:document-units="pt" />
  <g
     id="Layer1000">
    <path
       d="m 266.3075,110.7748 a 63.7976,48.1875 0 0 1 63.7976,48.1875 63.7976,48.1875 0 1 1 -63.7976,-48.1875 z"
       style="fill:#003766;fill-rule:evenodd"
       id="path1" />
    <defs
       id="defs3">
      <linearGradient
         id="grad1">
        <stop
           offset="0.0000%"
           stop-color="#f39203"
           stop-opacity="1.0000"
           id="stop1" />
        <stop
           offset="37.0000%"
           stop-color="#ee371e"
           stop-opacity="1.0000"
           id="stop2" />
        <stop
           offset="100.0000%"
           stop-color="#e30016"
           stop-opacity="1.0000"
           id="stop3" />
      </linearGradient>
    </defs>
    <path
       d="m 229.7772,174.0867 h 81.6882 l -88.3178,19.4158 c 0,0 6.393,-19.6525 6.6296,-19.4158 z m -16.8111,-20.3628 h 104.6554 l -110.1013,22.9675 c 0,0 5.6826,-22.9675 5.4459,-22.9675 z m 24.8616,-21.3099 h 80.2673 l -85.4764,19.4156 c 0,0 4.9722,-19.4156 5.2091,-19.4156 z"
       style="fill:url(#grad1)"
       id="path3" />
    <path
       d="m 140.0071,223.8869 -4.2568,17.9732 h 19.5273 l -1.3514,5.8785 h -16.8245 -1.8245 c -3.0938,-0.0665 -4.8176,-1.4464 -5.4016,-3.7345 -0.4735,-1.8557 -0.0997,-3.0368 0.2496,-5.0894 l 3.5304,-15.0953 c 0,0 6.3515,0 6.3515,0.0675 z"
       style="fill:#003766;fill-rule:evenodd"
       id="path4" />
    <path
       d="m 167.7478,223.8869 -4.2568,17.9732 h 13.6586 l 4.3295,-18.1599 h 6.103 c 0.1387,-0.1387 -5.333,24.0384 -5.333,24.0384 h -17.4067 -1.8245 c -3.0938,-0.0665 -4.8176,-1.4464 -5.4016,-3.7345 -0.4735,-1.8557 -0.0997,-3.0368 0.2496,-5.0894 l 3.5304,-15.0953 c 0,0 6.3515,0 6.3515,0.0675 z"
       style="fill:#003766;fill-rule:evenodd"
       id="path5" />
    <path
       d="m 293.4678,223.8869 -4.2568,17.9732 h 19.5273 l -1.3514,5.8785 h -16.8245 -1.8245 c -3.0938,-0.0665 -4.8176,-1.4464 -5.4016,-3.7345 -0.4735,-1.8557 -0.0997,-3.0368 0.2496,-5.0894 l 3.5304,-15.0953 c 0,0 6.3515,0 6.3515,0.0675 z"
       style="fill:#003766;fill-rule:evenodd"
       id="path6" />
    <path
       d="m 353.8313,223.8869 -4.2568,17.9732 h 13.6587 l 4.3294,-18.1599 h 6.103 c 0.1387,-0.1387 -5.333,24.0384 -5.333,24.0384 h -17.4067 -1.8245 c -3.0938,-0.0665 -4.8176,-1.4464 -5.4015,-3.7345 -0.4736,-1.8557 -0.0997,-3.0368 0.2495,-5.0894 l 3.5304,-15.0953 c 0,0 6.3515,0 6.3515,0.0675 z"
       style="fill:#003766;fill-rule:evenodd"
       id="path7" />
    <path
       d="m 243.742,241.8604 h -14.1862 l 3.2228,-12.1623 h 13.7124 z m -3.9052,5.8786 h 1.8245 c 3.1227,-0.0666 5.9182,-1.4466 7.4957,-3.7346 0.5552,-0.8053 1.1525,-3.1213 1.4142,-4.1887 1.2668,-5.1618 2.5849,-11.0126 2.2663,-12.2616 -0.5837,-2.2878 -2.7796,-3.668 -5.8734,-3.7345 h -1.8245 -17.6917 l -5.8312,23.919 c 6.0728,0 12.1467,4e-4 18.2201,4e-4 z"
       style="fill:#003766;fill-rule:evenodd"
       id="path8" />
    <path
       d="m 262.9713,229.6981 h 19.8686 l 1.3863,-5.8784 -19.1743,-1e-4 c -3.1227,0.0665 -5.0546,-0.1084 -6.6319,2.1794 -0.555,0.8051 -0.65,1.0446 -0.8956,2.1153 l -3.6487,15.8901 c 0.4951,2.7041 2.7796,3.668 5.8734,3.7346 h 1.8245 17.0118 l 1.3863,-5.8786 h -19.7495 z"
       style="fill:#003766;fill-rule:evenodd"
       id="path9" />
    <path
       d="m 264.9997,233.0407 -1.2632,4.7143 h 17.3327 l 1.1232,-4.7143 c 0,0 -17.1927,-0.0865 -17.1927,0 z"
       style="fill:#003766;fill-rule:evenodd"
       id="path10" />
    <path
       d="m 190.7971,237.6303 c 5.5667,-2.5937 11.1336,-5.1872 16.7003,-7.7809 -5.9464,0 -11.8925,0 -17.8389,0 0.5483,-2.0665 1.0965,-4.1328 1.6447,-6.1994 5.4362,0 10.8725,0 16.3088,0 1.8899,0 3.704,-0.1572 5.4829,0.6467 3.1868,1.4408 4.1996,4.985 1.9346,7.6649 -0.9833,1.1633 -2.1057,1.6956 -3.4249,2.3357 -5.3333,2.5869 -10.6666,5.174 -15.9999,7.7611 5.6722,0 11.3445,0 17.0167,0 -0.4006,1.9399 -0.8013,3.8798 -1.2019,5.8197 h -17.0001 c -2.5884,-0.1022 -4.9097,0.1159 -6.6704,-2.2514 -1.7981,-2.4171 -1.3077,-6.1576 3.0481,-7.9964 z"
       style="fill:#003766;fill-rule:evenodd"
       id="path11" />
    <path
       d="m 324.2343,229.5514 c -0.3173,1.1426 -0.6347,2.285 -0.9521,3.4275 1.0531,-0.01 8.8206,-0.0753 12.7624,0.0145 1.5754,0.0359 2.581,0.02 3.9972,0.7901 2.265,1.2313 1.6563,3.3418 0.8579,6.3133 l -0.9076,3.3769 c -0.213,0.7923 -0.4795,1.4577 -1.4428,2.3563 -1.64,1.5299 -3.2383,2.0305 -4.8573,2.0654 -6.8129,-0.0846 -13.6258,-0.1692 -20.4387,-0.2538 0.5079,-1.9042 1.0155,-3.8084 1.5234,-5.7126 6.284,0 12.5678,0 18.8518,0 0.3174,-1.2695 0.6349,-2.5391 0.9523,-3.8086 -4.7818,0 -9.5636,0 -14.3453,0 -1.4848,-0.2484 -2.8049,-0.9018 -3.2513,-2.9108 -0.1206,-0.5425 -0.1553,-1.2219 -0.1226,-1.9669 0.1079,-2.4596 0.9518,-5.6355 1.8746,-6.9711 1.5795,-2.2856 3.431,-2.8773 6.0253,-2.8773 6.7006,0 13.4014,0 20.102,0 -0.5712,2.0524 -1.1426,4.1047 -1.7138,6.1571 0,0 -19.0423,0 -18.9154,0 z"
       style="fill:#003766;fill-rule:evenodd"
       id="path12" />
    <path
       d="m 383.0428,228.6534 c -1.5703,6.3062 -3.1408,12.6122 -4.7112,18.9184 -2.0611,0 -4.1223,0 -6.1835,0 1.4722,-6.4534 2.9446,-12.9066 4.4168,-19.36 1.0861,-2.7461 2.8148,-4.4926 5.6681,-4.4904 6.2816,0 12.5631,0 18.8448,0 2.1596,0.1408 3.0892,1.9472 3.272,3.6849 0.2165,2.0583 -1.4699,7.6569 -2.0206,9.8598 -0.8134,1.8746 -2.3021,2.6412 -4.3432,2.9445 0.957,2.4538 1.914,4.9075 2.871,7.3612 -2.3065,0 -4.613,0 -6.9196,0 -0.6135,-2.3065 -1.2268,-4.613 -1.8403,-6.9195 -3.1163,0 -6.2324,0 -9.3487,0 0.5397,-1.8895 1.0796,-3.7788 1.6194,-5.6682 3.9506,0 7.901,0 11.8516,0 0.5152,-2.1348 1.0306,-4.2695 1.5458,-6.4043 -4.9074,0.0245 -9.815,0.0491 -14.7224,0.0736 z"
       style="fill:#003766;fill-rule:evenodd"
       id="path13" />
  </g>
  <path
     d="M 77.0105,61.3352 V 297.3351 H 457.0104 V 61.3352 Z"
     style="fill:none;stroke:#1b1918;stroke-width:0.5669;stroke-linecap:butt;stroke-linejoin:miter;stroke-dasharray:none"
     id="path14" />
</svg>
