<?xml version="1.0" encoding="UTF-8"?>
<svg version="1.1" xmlns="http://www.w3.org/2000/svg" width="1200" height="1200" viewBox="0 -381.5 1200 1200">
<rect x="0" y="-381.5" width="1200" height="1200" fill="#fe000d"/>
<path d="M0 0 C396 0 792 0 1200 0 C1200 144.21 1200 288.42 1200 437 C804 437 408 437 0 437 C0 292.79 0 148.58 0 0 Z " fill="#FE000D" transform="translate(0,0)"/>
<path d="M0 0 C303.6 0 607.2 0 920 0 C920 66.66 920 133.32 920 202 C616.4 202 312.8 202 0 202 C0 135.34 0 68.68 0 0 Z " fill="#FBFB00" transform="translate(140,119)"/>
<path d="M0 0 C0.65260285 -0.0030531 1.3052057 -0.00610619 1.97758439 -0.00925181 C4.17197508 -0.01706697 6.3660915 -0.01061376 8.56048363 -0.00426924 C10.15335067 -0.00696172 11.74621643 -0.01052903 13.33907977 -0.01489371 C17.73850019 -0.02438117 22.13783814 -0.02134156 26.53726271 -0.01633817 C31.31509915 -0.01308056 36.09291763 -0.02134653 40.8707484 -0.02815652 C49.25198703 -0.03848114 57.63320255 -0.04129605 66.01444691 -0.03924429 C78.47755327 -0.0362007 90.94063395 -0.04450402 103.40373532 -0.05499355 C126.95527436 -0.07436111 150.50680472 -0.07996279 174.05835078 -0.08110766 C192.24180536 -0.08202582 210.42525652 -0.08613764 228.60870999 -0.09250891 C233.83780519 -0.09430393 239.06690039 -0.09608355 244.29599559 -0.09785867 C245.59586536 -0.09830076 246.89573513 -0.09874286 248.2349949 -0.09919835 C284.81049384 -0.1115111 321.38599119 -0.11941081 357.96149224 -0.1185118 C359.35512248 -0.11848024 360.74875271 -0.11844877 362.14238295 -0.11841738 C368.43463477 -0.11827061 374.72688659 -0.11809427 381.01913842 -0.11790961 C383.8250655 -0.11782736 386.63099258 -0.11774707 389.43691967 -0.11766698 C390.84133739 -0.11762619 392.24575511 -0.11758415 393.65017282 -0.11754086 C438.06345709 -0.11618025 482.47670946 -0.13081649 526.88998479 -0.15862143 C538.08034985 -0.16562333 549.27071494 -0.17256219 560.46108025 -0.17915022 C561.15009296 -0.17955597 561.83910567 -0.17996172 562.54899755 -0.18037976 C583.78099762 -0.19280743 605.01299507 -0.20034043 626.24499863 -0.2028662 C627.24472806 -0.20298605 627.24472806 -0.20298605 628.26465405 -0.20310832 C643.55114641 -0.20489133 658.83763862 -0.20527439 674.12413108 -0.20469499 C679.35416935 -0.20454572 684.58420761 -0.20444831 689.81424588 -0.20438635 C691.10207024 -0.20436304 692.3898946 -0.20433974 693.71674395 -0.20431572 C714.46970613 -0.20425409 735.22264147 -0.21704304 755.97559566 -0.23425088 C776.82107655 -0.25117834 797.66651802 -0.25320388 818.51200197 -0.24003224 C830.90572779 -0.23262386 843.29933408 -0.23635725 855.69304732 -0.25591692 C863.96439155 -0.26787094 872.23564874 -0.26537709 880.50698889 -0.25097592 C885.22461968 -0.24317409 889.94201832 -0.24177213 894.6596332 -0.25789063 C898.94969319 -0.27242047 903.23932715 -0.26860909 907.52936799 -0.25004289 C909.07332023 -0.24659435 910.61730558 -0.2498764 912.16122411 -0.26064531 C928.60635217 -0.36768701 928.60635217 -0.36768701 934.91747187 5.70027397 C939.91695999 11.36769405 940.70699518 15.61939652 940.67962712 23.0322355 C940.68415823 23.9283902 940.68868935 24.82454489 940.69335777 25.74785578 C940.70603941 28.75710949 940.70437896 31.76618309 940.70272893 34.7754606 C940.70871189 36.93053296 940.7155169 39.08560318 940.72308415 41.24067056 C940.74077661 47.10029953 940.74544095 52.95987012 940.74671572 58.81952322 C940.74861358 63.71010214 940.75596995 68.60066742 940.76305991 73.4912411 C940.7793544 85.0306494 940.78422796 96.57002649 940.78280705 108.10944498 C940.78160586 120.01323325 940.80270091 131.91684014 940.83429438 143.82058251 C940.86044847 154.03897132 940.87117468 164.25730088 940.86989623 174.47572291 C940.86938628 180.57931915 940.87508811 186.68275431 940.89625233 192.78631723 C940.91561951 198.52864416 940.91576934 204.27065612 940.90121907 210.01299417 C940.89912789 212.11886687 940.90385023 214.2247592 940.91593999 216.33059824 C940.93139466 219.20937816 940.9220825 222.08707242 940.9066779 224.96582925 C940.92210859 226.21079538 940.92210859 226.21079538 940.93785101 227.48091233 C940.86400158 233.742163 939.32960073 239.09228573 935.00031477 243.78263962 C929.89875581 248.28144287 925.47409881 249.50279118 918.79004169 249.50484866 C918.13371824 249.50777752 917.47739479 249.51070639 916.80118275 249.51372401 C914.59411157 249.52112138 912.38731597 249.51424318 910.18024606 249.50747526 C908.5782468 249.50986435 906.97624865 249.51312905 905.37425277 249.51719186 C900.94948808 249.52584636 896.52480777 249.52197116 892.1000417 249.51613613 C887.29476428 249.51197957 882.48950265 249.51935995 877.68422902 249.52528864 C869.25486662 249.53407053 860.82552852 249.53535571 852.39616269 249.53178537 C839.86160734 249.52649017 827.3270756 249.5325617 814.79252282 249.5408683 C791.10661668 249.55613255 767.42072121 249.5578109 743.73481119 249.55534527 C725.44884151 249.55351474 707.16287534 249.55526717 688.8769061 249.55956972 C686.25255893 249.56017211 683.62821176 249.56077331 681.0038646 249.56137332 C677.04954465 249.56228054 673.0952247 249.56318921 669.14090475 249.56410567 C632.36177944 249.57253885 595.58265557 249.57688703 558.80352944 249.57269895 C557.76333591 249.57258187 557.76333591 249.57258187 556.70212837 249.57246241 C548.96905823 249.57158959 541.23598809 249.57066033 533.50291795 249.56971178 C532.80471813 249.56962627 532.10651831 249.56954076 531.38716091 249.56945266 C525.58523989 249.56874181 525.58523989 249.56874181 522.91641742 249.56841044 C478.25086013 249.56287386 433.5853235 249.57041836 388.91976994 249.5891813 C377.66478577 249.59390338 366.40980158 249.59858384 355.15481728 249.60301816 C354.46183596 249.60329149 353.76885463 249.60356481 353.05487387 249.60384641 C331.7030533 249.6122153 310.35123444 249.61689715 288.99941224 249.61772573 C288.32923921 249.6177521 287.65906619 249.61777846 286.96858489 249.61780563 C271.59814314 249.61837062 256.22770159 249.61785848 240.85725987 249.61660582 C235.59861086 249.61621045 230.33996185 249.61584891 225.08131284 249.61550844 C223.78643787 249.61541771 222.49156291 249.61532697 221.15744932 249.61523349 C201.57907277 249.61406575 182.00070874 249.62072922 162.42233533 249.63132036 C140.16639763 249.64334745 117.91048757 249.64496012 95.65454949 249.63253019 C83.18932631 249.62588062 70.72416912 249.62758075 58.25895116 249.6411187 C49.94250046 249.64932552 41.6260995 249.64671503 33.3096529 249.63514344 C28.56464901 249.62884942 23.81977445 249.62738225 19.07477773 249.63900677 C14.7622515 249.64947512 10.44996527 249.64625895 6.13745222 249.63190224 C4.58310183 249.62916281 3.02873254 249.63150121 1.47439985 249.63940939 C-0.63078997 249.64939327 -2.73513465 249.64096388 -4.84028935 249.62789649 C-6.00746553 249.62791695 -7.17464171 249.62793741 -8.37718686 249.6279585 C-12.67255334 249.126314 -16.05611609 247.68281238 -19.23232967 244.71784341 C-23.33210363 239.35660053 -23.73640373 236.27065769 -23.73496944 229.63834512 C-23.73864613 228.73573218 -23.74232281 227.83311923 -23.74611092 226.90315437 C-23.75717776 223.86009585 -23.76099669 220.81707143 -23.76480037 217.77399576 C-23.77106283 215.59951548 -23.77770943 213.42503628 -23.78471309 211.25055826 C-23.80214477 205.32884452 -23.81268107 199.40713886 -23.82091862 193.4854058 C-23.8260649 189.78705171 -23.83214084 186.08870015 -23.83842975 182.39034784 C-23.85748912 170.8231513 -23.87171785 159.25596117 -23.88004172 147.68875194 C-23.88981347 134.32923209 -23.91612835 120.96989566 -23.95654261 107.61043239 C-23.98669289 97.29018115 -24.00150963 86.96997743 -24.00482273 76.649683 C-24.00717474 70.4834488 -24.01615476 64.31739148 -24.04128391 58.15120447 C-24.06454997 52.34818158 -24.06880357 46.54545222 -24.05852252 40.7423948 C-24.05802668 38.61394275 -24.06436145 36.48547633 -24.07807857 34.35706842 C-24.09577843 31.44754612 -24.08870032 28.5390793 -24.07554561 25.62955606 C-24.08651486 24.79043251 -24.0974841 23.95130896 -24.10878575 23.08675742 C-24.03682037 16.47796341 -22.29566341 11.04161609 -17.62295467 6.22956216 C-16.9719781 5.78354654 -16.32100154 5.33753091 -15.65029842 4.87799966 C-15.00189998 4.41651529 -14.35350154 3.95503091 -13.68545467 3.47956216 C-9.05764415 0.77354261 -5.3632304 0.00269449 0 0 Z M-1.58779842 25.25299966 C-1.58779842 91.91299966 -1.58779842 158.57299966 -1.58779842 227.25299966 C302.01220158 227.25299966 605.61220158 227.25299966 918.41220158 227.25299966 C918.41220158 160.59299966 918.41220158 93.93299966 918.41220158 25.25299966 C614.81220158 25.25299966 311.21220158 25.25299966 -1.58779842 25.25299966 Z " fill="#040200" transform="translate(141.58779841661453,93.74700033664703)"/>
<path d="M0 0 C16.5 0 33 0 50 0 C51.57267002 4.71801007 52.76718301 9.24878882 53.734375 14.09765625 C53.89307068 14.87728729 54.05176636 15.65691833 54.215271 16.46017456 C54.73023669 18.99360899 55.2401076 21.52804012 55.75 24.0625 C56.10440985 25.81005998 56.45923074 27.55753664 56.81445312 29.30493164 C57.53188774 32.83486391 58.24783272 36.36509339 58.96289062 39.89550781 C60.45408127 47.24722312 61.97612245 54.59250371 63.5 61.9375 C63.98958431 64.30078105 64.47916775 66.66406227 64.96875 69.02734375 C65.31244673 70.68490688 65.65617363 72.34246376 66 74 C66.33 74 66.66 74 67 74 C67.15033691 73.29319092 67.30067383 72.58638184 67.45556641 71.8581543 C70.76931132 56.29507491 74.13985484 40.74707712 77.61328125 25.21875 C78.49808415 21.26301726 79.37163845 17.30520148 80.23046875 13.34375 C80.41528809 12.49570801 80.60010742 11.64766602 80.79052734 10.77392578 C81.12845335 9.22085704 81.46359749 7.6671793 81.79541016 6.11279297 C82.88811676 1.11188324 82.88811676 1.11188324 84 0 C99.84 0 115.68 0 132 0 C132 37.62 132 75.24 132 114 C121.11 114 110.22 114 99 114 C98.505 78.36 98.505 78.36 98 42 C95.36 53.22 92.72 64.44 90 76 C88.34297899 82.8775787 86.68208965 89.75361164 85 96.625 C84.60273642 98.25257289 84.20560171 99.88017724 83.80859375 101.5078125 C82.87407406 105.33895544 81.93702748 109.16946637 81 113 C71.76 113 62.52 113 53 113 C50.72410399 104.06500086 48.56470029 95.12507503 46.5625 86.125 C45.04591496 79.33794694 43.39727059 72.6285013 41.5 65.9375 C38.72873746 56.03023644 36.38280868 46.00779647 34 36 C33.67 61.74 33.34 87.48 33 114 C22.11 114 11.22 114 0 114 C0 76.38 0 38.76 0 0 Z " fill="#030300" transform="translate(190,164)"/>
<path d="M0 0 C8.56192746 7.79419127 14.21923308 19.07564048 16.75390625 30.26171875 C16.92374023 30.85927979 17.09357422 31.45684082 17.26855469 32.07250977 C20.76451005 47.841238 17.9408001 66.83909612 10.2890625 80.92578125 C2.07634877 93.42248051 -9.55221087 102.66397545 -24.12109375 106.01171875 C-42.30057067 109.26127768 -59.37889642 107.89305501 -74.921875 97.06640625 C-87.08591164 87.62138956 -94.74795497 74.02969223 -96.9296875 58.796875 C-98.60349352 40.09570893 -96.68702005 21.98578043 -84.96191406 6.57373047 C-63.71206013 -18.38901002 -25.26914906 -19.55612405 0 0 Z " fill="#020200" transform="translate(994.24609375,173.73828125)"/>
<path d="M0 0 C9.77625 -0.061875 19.5525 -0.12375 29.625 -0.1875 C34.21075928 -0.22846802 34.21075928 -0.22846802 38.88916016 -0.27026367 C41.35579027 -0.27903862 43.82242479 -0.28668016 46.2890625 -0.29296875 C48.15727661 -0.3159906 48.15727661 -0.3159906 50.06323242 -0.33947754 C63.96244641 -0.34355196 78.52148072 1.72682756 89.41796875 11.07421875 C96.83380907 18.81424881 98.52964917 26.31382218 98.49267578 36.83398438 C98.15242251 45.85386618 95.13665022 54.87277536 88.82421875 61.5 C85.1837543 64.493444 81.11729448 66.73720299 77 69 C80.90297448 77.21982934 85.45325581 85.01460681 90.125 92.8125 C90.84797722 94.02519933 91.57063526 95.238089 92.29296875 96.45117188 C95.96305548 102.63024361 95.96305548 102.63024361 99.72607422 108.75268555 C101 111 101 111 101 113 C88.79 113 76.58 113 64 113 C62.55625 110.091875 61.1125 107.18375 59.625 104.1875 C58.70334064 102.36121244 57.78039244 100.53557401 56.85546875 98.7109375 C54.97920475 94.99403879 53.17656796 91.25404206 51.42578125 87.4765625 C50.59686788 85.7549609 49.76745986 84.03359735 48.9375 82.3125 C48.57543457 81.49354248 48.21336914 80.67458496 47.84033203 79.83081055 C46.64249778 77.21943553 46.64249778 77.21943553 44 74 C41.03 73.67 38.06 73.34 35 73 C35 86.53 35 100.06 35 114 C23.45 114 11.9 114 0 114 C0 76.38 0 38.76 0 0 Z " fill="#030300" transform="translate(788,164)"/>
<path d="M0 0 C1.47583955 0.0001591 2.95168467 0.00585225 4.42749023 0.01586914 C5.20293686 0.01728409 5.97838348 0.01869904 6.77732849 0.02015686 C9.26361893 0.02577194 11.74982059 0.03832693 14.23608398 0.05102539 C15.91772331 0.05603845 17.59936405 0.06060169 19.28100586 0.06469727 C23.41189965 0.07574626 27.54272674 0.09302094 31.67358398 0.11352539 C34.94241985 7.11936879 37.9433756 14.16204506 40.65014648 21.40258789 C41.01370743 22.36497879 41.37726837 23.32736969 41.75184631 24.31892395 C42.93720531 27.45762652 44.11786045 30.59807647 45.29858398 33.73852539 C46.98204976 38.20180002 48.66881753 42.66381882 50.35717773 47.12524414 C50.78917984 48.26713699 51.22118195 49.40902985 51.66627502 50.58552551 C54.78270809 58.80603906 57.95008954 67.00573448 61.14624023 75.19555664 C61.80665314 76.88917328 61.80665314 76.88917328 62.48040771 78.61700439 C64.6072313 84.06789763 66.74046069 89.51618976 68.88110352 94.96166992 C69.64933939 96.92758678 70.41741467 98.8935664 71.18530273 100.85961914 C71.54060562 101.75727493 71.89590851 102.65493073 72.26197815 103.57978821 C72.7416227 104.81163094 72.7416227 104.81163094 73.23095703 106.06835938 C73.5111821 106.78136703 73.79140717 107.49437469 74.0801239 108.22898865 C74.67358398 110.11352539 74.67358398 110.11352539 74.67358398 113.11352539 C62.46358398 113.11352539 50.25358398 113.11352539 37.67358398 113.11352539 C33.67358398 101.11352539 33.67358398 101.11352539 33.67358398 97.11352539 C20.47358398 97.11352539 7.27358398 97.11352539 -6.32641602 97.11352539 C-6.65641602 99.09352539 -6.98641602 101.07352539 -7.32641602 103.11352539 C-7.79357618 104.89330405 -8.29204114 106.66526016 -8.82641602 108.42602539 C-9.08422852 109.2884082 -9.34204102 110.15079102 -9.60766602 111.03930664 C-10.32641602 113.11352539 -10.32641602 113.11352539 -11.32641602 114.11352539 C-13.99267632 114.202077 -16.63288716 114.22877212 -19.29907227 114.21118164 C-20.09671494 114.20976669 -20.8943576 114.20835175 -21.71617126 114.20689392 C-24.27379037 114.20127856 -26.83132319 114.18872351 -29.38891602 114.17602539 C-31.11873246 114.17101237 -32.84855028 114.16644912 -34.57836914 114.16235352 C-38.82775155 114.15130414 -43.07706913 114.13402925 -47.32641602 114.11352539 C-44.61006384 104.29055442 -40.91307365 94.8679016 -37.26391602 85.36352539 C-36.5608691 83.52526025 -35.85790863 81.68696204 -35.1550293 79.84863281 C-27.30880212 59.35946637 -19.32426475 38.92292625 -11.27307129 18.51348877 C-10.64773322 16.92812975 -10.02312611 15.34248219 -9.39929199 13.75653076 C-8.55743838 11.61791851 -7.71210664 9.48071994 -6.86547852 7.34399414 C-6.39577637 6.15572021 -5.92607422 4.96744629 -5.44213867 3.74316406 C-3.91058754 0.13346225 -3.91058754 0.13346225 0 0 Z " fill="#030300" transform="translate(381.326416015625,163.886474609375)"/>
<path d="M0 0 C28.71 0 57.42 0 87 0 C87 8.58 87 17.16 87 26 C69.84 26 52.68 26 35 26 C35 31.61 35 37.22 35 43 C50.84 43 66.68 43 83 43 C83 51.25 83 59.5 83 68 C67.16 68 51.32 68 35 68 C35 74.27 35 80.54 35 87 C52.82 87 70.64 87 89 87 C89 95.91 89 104.82 89 114 C59.63 114 30.26 114 0 114 C0 76.38 0 38.76 0 0 Z " fill="#040400" transform="translate(466,164)"/>
<path d="M0 0 C1.11785889 0.00491455 2.23571777 0.0098291 3.38745117 0.01489258 C11.30431564 0.12737262 18.35271716 0.68499839 25.875 3.3125 C26.89335938 3.6528125 27.91171875 3.993125 28.9609375 4.34375 C36.06235211 6.99112875 42.75113126 10.61049563 47.875 16.3125 C47.875 17.6325 47.875 18.9525 47.875 20.3125 C45.75 22.42578125 45.75 22.42578125 42.875 24.625 C41.87855469 25.40359375 40.88210938 26.1821875 39.85546875 26.984375 C38.38013672 28.13679688 38.38013672 28.13679688 36.875 29.3125 C34.1774051 31.61153889 31.52111414 33.95450144 28.875 36.3125 C28.30394531 35.92578125 27.73289062 35.5390625 27.14453125 35.140625 C17.02061133 28.63813907 6.04068474 24.71517345 -6.125 26.3125 C-8.39898688 27.01345809 -8.39898688 27.01345809 -10.125 28.3125 C-11.2966367 31.68010187 -11.2966367 31.68010187 -11.125 35.3125 C-8.12081681 39.40427356 -4.56664708 40.30769287 0.1875 41.3125 C1.62651565 41.64621584 3.06531308 41.98087385 4.50390625 42.31640625 C5.2323877 42.48156738 5.96086914 42.64672852 6.71142578 42.81689453 C22.76672307 46.49464825 38.73524737 50.40874829 48.875 64.3125 C53.30586764 71.66087555 52.91161988 81.32700867 51.1875 89.5 C48.21363761 99.241963 43.19342587 107.52722353 34.3125 112.84765625 C15.41454474 122.49348758 -4.06008288 122.31532782 -24.125 116.3125 C-34.78991135 112.8058965 -44.91597986 107.08022719 -52.125 98.3125 C-52.07421875 96.375 -52.07421875 96.375 -51.125 94.3125 C-47.7364036 91.28026891 -43.88976322 88.8552427 -40.125 86.3125 C-39.12339844 85.60480469 -38.12179687 84.89710938 -37.08984375 84.16796875 C-36.13207031 83.51441406 -35.17429687 82.86085938 -34.1875 82.1875 C-33.31222656 81.58679688 -32.43695312 80.98609375 -31.53515625 80.3671875 C-29.125 79.3125 -29.125 79.3125 -27.0078125 79.953125 C-25.18311315 81.27054279 -23.56587841 82.63551465 -21.9375 84.1875 C-14.15151998 91.03581361 -5.30513125 92.61383431 4.7890625 92.5390625 C10.01194877 92.15561009 15.10174669 91.08575331 18.875 87.3125 C19.27314636 83.83809385 19.27314636 83.83809385 17.875 80.3125 C11.70153032 76.03961225 3.78280029 75.1290722 -3.4375 73.875 C-18.85878532 70.97769478 -32.71364696 66.81190952 -42.125 53.3125 C-46.35925666 45.5882896 -47.73081619 36.12006321 -45.37109375 27.5859375 C-41.25191919 16.89223727 -35.01313767 9.38079232 -24.5625 4.5 C-16.13541378 0.83114968 -9.14433784 -0.04696385 0 0 Z " fill="#030300" transform="translate(620.125,160.6875)"/>
<path d="M0 0 C30.03 0 60.06 0 91 0 C91 9.24 91 18.48 91 28 C81.43 28 71.86 28 62 28 C62 56.38 62 84.76 62 114 C50.78 114 39.56 114 28 114 C28 85.62 28 57.24 28 28 C18.76 28 9.52 28 0 28 C0 18.76 0 9.52 0 0 Z " fill="#020200" transform="translate(683,164)"/>
<path d="M0 0 C6.20278762 3.69336109 10.46066709 9.35843953 12.9296875 16.1015625 C15.19473533 26.9687021 15.6861183 40.78112209 9.625 50.4375 C9.18929687 51.17097656 8.75359375 51.90445313 8.3046875 52.66015625 C5.00931543 57.62122185 1.41004979 60.79635112 -4.375 62.4375 C-10.24056263 63.33414652 -15.31772094 62.80948792 -20.4921875 59.82421875 C-28.06193318 54.24899112 -31.18693983 47.59687575 -32.92578125 38.58203125 C-34.63871301 26.59150894 -33.50292275 16.1036181 -26.5625 6 C-19.7770703 -2.19976244 -9.997499 -4.4326723 0 0 Z " fill="#FAFA00" transform="translate(964.375,190.5625)"/>
<path d="M0 0 C3.50625 -0.0825 7.0125 -0.165 10.625 -0.25 C11.71893066 -0.28641602 12.81286133 -0.32283203 13.93994141 -0.36035156 C19.80562707 -0.42706822 23.45202218 -0.10322289 28 4 C30.79927794 6.93510788 31.41226807 8.90633704 31.375 12.9375 C31.2281167 17.10531362 30.83995097 19.7813889 28 23 C22.54362055 27.8009053 17.66240408 27.48426916 10.625 27.25 C7.11875 27.1675 3.6125 27.085 0 27 C0 18.09 0 9.18 0 0 Z " fill="#FAFA00" transform="translate(823,188)"/>
<path d="M0 0 C1.78548275 2.67822413 2.66528974 4.63345086 3.65625 7.640625 C4.10677734 8.99994141 4.10677734 8.99994141 4.56640625 10.38671875 C4.87449219 11.33160156 5.18257813 12.27648437 5.5 13.25 C5.96212891 14.64412109 5.96212891 14.64412109 6.43359375 16.06640625 C7.30366607 18.70649694 8.15673741 21.35123707 9 24 C9.21914063 24.67869141 9.43828125 25.35738281 9.6640625 26.05664062 C10.7713017 29.65516804 11 32.11238659 11 36 C3.74 36 -3.52 36 -11 36 C-9.48311759 29.93247035 -7.86121227 23.98060502 -6.0625 18 C-5.68448242 16.72382813 -5.68448242 16.72382813 -5.29882812 15.421875 C-3.7305759 10.19169366 -1.97399865 5.09114875 0 0 Z " fill="#F4F400" transform="translate(395,199)"/>
<path d="M0 0 C0.33 0 0.66 0 1 0 C1 3.96 1 7.92 1 12 C0.01 11.67 -0.98 11.34 -2 11 C-1.125 3.375 -1.125 3.375 0 0 Z " fill="#E0E000" transform="translate(288,203)"/>
<path d="M0 0 C2.39763185 2.39763185 2.34280586 3.33273498 2.625 6.625 C2.69976562 7.44226563 2.77453125 8.25953125 2.8515625 9.1015625 C2.90054688 9.72804687 2.94953125 10.35453125 3 11 C2.01 10.67 1.02 10.34 0 10 C0 6.7 0 3.4 0 0 Z " fill="#F0F000" transform="translate(224,202)"/>
</svg>
