<?xml version="1.0" encoding="UTF-8"?>
<svg version="1.1" xmlns="http://www.w3.org/2000/svg" width="225" height="225">
<path d="M0 0 C74.25 0 148.5 0 225 0 C225 74.25 225 148.5 225 225 C150.75 225 76.5 225 0 225 C0 150.75 0 76.5 0 0 Z " fill="#D22630" transform="translate(0,0)"/>
<path d="M0 0 C0.76441406 0.09925781 1.52882813 0.19851562 2.31640625 0.30078125 C4.4375 0.6875 4.4375 0.6875 7.4375 1.6875 C8.035625 1.378125 8.63375 1.06875 9.25 0.75 C12.26430206 -0.71408957 14.11474626 -0.77768552 17.4375 -0.3125 C21.1682348 2.2703164 23.74588531 4.47068593 25.4375 8.6875 C25.69628906 10.83813477 25.69628906 10.83813477 25.703125 13.12890625 C25.70699219 14.37510742 25.70699219 14.37510742 25.7109375 15.64648438 C25.70320313 16.50564453 25.69546875 17.36480469 25.6875 18.25 C25.69910156 19.54454102 25.69910156 19.54454102 25.7109375 20.86523438 C25.70835938 21.69474609 25.70578125 22.52425781 25.703125 23.37890625 C25.70086914 24.13373291 25.69861328 24.88855957 25.69628906 25.66625977 C25.4375 27.6875 25.4375 27.6875 23.4375 30.6875 C20.9375 31 20.9375 31 18.4375 30.6875 C16.0406335 28.2906335 16.15468867 27.61721686 16.0234375 24.3359375 C15.96542969 23.05976562 15.96542969 23.05976562 15.90625 21.7578125 C15.8753125 20.86835937 15.844375 19.97890625 15.8125 19.0625 C15.75449219 17.71671875 15.75449219 17.71671875 15.6953125 16.34375 C15.60090643 14.1252073 15.51533252 11.90667597 15.4375 9.6875 C13.4575 9.6875 11.4775 9.6875 9.4375 9.6875 C9.41768066 10.25259277 9.39786133 10.81768555 9.37744141 11.39990234 C9.28231764 13.95457997 9.17258942 16.50842541 9.0625 19.0625 C9.01609375 20.39667969 9.01609375 20.39667969 8.96875 21.7578125 C8.93007812 22.60859375 8.89140625 23.459375 8.8515625 24.3359375 C8.8201416 25.12145996 8.7887207 25.90698242 8.75634766 26.71630859 C8.4375 28.6875 8.4375 28.6875 6.4375 30.6875 C1.88194444 30.13194444 1.88194444 30.13194444 0.4375 28.6875 C0.28129445 27.27422053 0.18693827 25.8539541 0.12109375 24.43359375 C0.07919922 23.57958984 0.03730469 22.72558594 -0.00585938 21.84570312 C-0.04517578 20.94787109 -0.08449219 20.05003906 -0.125 19.125 C-0.16818359 18.22330078 -0.21136719 17.32160156 -0.25585938 16.39257812 C-0.36228142 14.15771515 -0.46429988 11.92273692 -0.5625 9.6875 C-2.5425 9.6875 -4.5225 9.6875 -6.5625 9.6875 C-6.58231934 10.25259277 -6.60213867 10.81768555 -6.62255859 11.39990234 C-6.71768236 13.95457997 -6.82741058 16.50842541 -6.9375 19.0625 C-6.98390625 20.39667969 -6.98390625 20.39667969 -7.03125 21.7578125 C-7.08925781 23.03398438 -7.08925781 23.03398438 -7.1484375 24.3359375 C-7.1798584 25.12145996 -7.2112793 25.90698242 -7.24365234 26.71630859 C-7.5625 28.6875 -7.5625 28.6875 -9.5625 30.6875 C-12.0625 30.9375 -12.0625 30.9375 -14.5625 30.6875 C-17.77147523 27.47852477 -16.85797614 23.74117956 -16.88476562 19.3671875 C-16.88154297 18.15289062 -16.87832031 16.93859375 -16.875 15.6875 C-16.89111328 14.47320312 -16.90722656 13.25890625 -16.92382812 12.0078125 C-16.92447266 10.85023437 -16.92511719 9.69265625 -16.92578125 8.5 C-16.92876221 7.43394531 -16.93174316 6.36789063 -16.93481445 5.26953125 C-16.81195068 4.41746094 -16.68908691 3.56539063 -16.5625 2.6875 C-15.5725 2.0275 -14.5825 1.3675 -13.5625 0.6875 C-12.3559375 0.935 -12.3559375 0.935 -11.125 1.1875 C-8.60072596 1.95804643 -8.60072596 1.95804643 -6.6875 0.69921875 C-4.13785526 -0.51467461 -2.76948491 -0.38894627 0 0 Z " fill="#FCF6F7" transform="translate(57.5625,100.3125)"/>
<path d="M0 0 C3.81790216 3.29727914 6.3796256 5.83906916 7.1328125 10.99609375 C7.31800392 15.54562952 7.08813423 18.65971604 5.125 22.8125 C0.84462844 27.43079563 -2.34214204 29.61754007 -8.6875 30 C-13.71051761 29.82207295 -16.33707337 28.53763801 -19.91015625 25.078125 C-23.96774913 19.92036845 -24.00649156 14.7405997 -23.25 8.375 C-20.98466562 3.84433124 -18.27987095 0.56530644 -13.5 -1.3125 C-8.28425166 -2.03690949 -4.71554146 -2.35777073 0 0 Z " fill="#FDF9F9" transform="translate(180.25,101.625)"/>
<path d="M0 0 C4.97142857 1.97142857 4.97142857 1.97142857 7 4 C7.09971786 5.91458282 7.13080589 7.83282317 7.1328125 9.75 C7.13474609 11.49796875 7.13474609 11.49796875 7.13671875 13.28125 C7.13285156 14.5084375 7.12898438 15.735625 7.125 17 C7.13080078 18.84078125 7.13080078 18.84078125 7.13671875 20.71875 C7.13542969 21.8840625 7.13414063 23.049375 7.1328125 24.25 C7.13168457 25.32765625 7.13055664 26.4053125 7.12939453 27.515625 C7 30 7 30 6 31 C1.46511628 31.23255814 1.46511628 31.23255814 -1 30 C-1.66 30.33 -2.32 30.66 -3 31 C-7.54219954 31.63590794 -11.6887832 31.75283792 -15.5625 29.0625 C-18.41927884 25.47321377 -18.85692816 23.56594132 -18.5 19.08203125 C-18 17 -18 17 -16.1875 14.625 C-11.65046371 12.31200111 -6.94572699 11.14332043 -2 10 C-2 9.01 -2 8.02 -2 7 C-4.33165034 6.66501699 -4.33165034 6.66501699 -7 7 C-7.99 8.0209375 -7.99 8.0209375 -9 9.0625 C-9.66 9.701875 -10.32 10.34125 -11 11 C-13.75 10.75 -13.75 10.75 -16 10 C-16.33 8.35 -16.66 6.7 -17 5 C-11.86416813 -0.55225067 -7.3982103 -1.04277445 0 0 Z " fill="#FDF8F8" transform="translate(103,100)"/>
<path d="M0 0 C4.55555556 0.55555556 4.55555556 0.55555556 6 2 C6.23653523 4.52596259 6.42173692 7.03107207 6.5625 9.5625 C6.60568359 10.27341797 6.64886719 10.98433594 6.69335938 11.71679688 C6.79971777 13.47761912 6.90038846 15.2387832 7 17 C7.59167969 16.36191406 8.18335937 15.72382812 8.79296875 15.06640625 C9.58316406 14.24011719 10.37335938 13.41382812 11.1875 12.5625 C11.96480469 11.73878906 12.74210937 10.91507813 13.54296875 10.06640625 C16.16156875 7.86411786 17.60098777 7.13139039 21 7 C21.66 7.66 22.32 8.32 23 9 C22.6700572 12.39770885 21.1807479 14.2681087 18.9375 16.75 C18.38964844 17.36359375 17.84179688 17.9771875 17.27734375 18.609375 C16.85582031 19.06828125 16.43429688 19.5271875 16 20 C16.58910156 20.81984375 17.17820313 21.6396875 17.78515625 22.484375 C18.53667969 23.56203125 19.28820312 24.6396875 20.0625 25.75 C20.81660156 26.81734375 21.57070312 27.8846875 22.34765625 28.984375 C24 32 24 32 23.74609375 34.390625 C23.37677734 35.18726563 23.37677734 35.18726563 23 36 C20.525 36.495 20.525 36.495 18 37 C15.36 33.7 12.72 30.4 10 27 C8.68 27.33 7.36 27.66 6 28 C6.020625 29.11375 6.04125 30.2275 6.0625 31.375 C6 35 6 35 5 37 C2.625 37.125 2.625 37.125 0 37 C-2.46002787 34.53997213 -2.24552005 33.15206161 -2.27789307 29.79333496 C-2.2738446 29.08809692 -2.26979614 28.38285889 -2.265625 27.65625 C-2.26753845 26.93135376 -2.2694519 26.20645752 -2.27142334 25.45959473 C-2.27278487 23.92634738 -2.26909064 22.3930885 -2.26074219 20.85986328 C-2.25004178 18.50917741 -2.26063808 16.15925577 -2.2734375 13.80859375 C-2.2721159 12.32031081 -2.26955349 10.83202834 -2.265625 9.34375 C-2.26967346 8.63851196 -2.27372192 7.93327393 -2.27789307 7.20666504 C-2.22992486 2.22992486 -2.22992486 2.22992486 0 0 Z " fill="#FDFAFA" transform="translate(115,94)"/>
<path d="M0 0 C1 1 1 1 1.0625 3.5625 C1.041875 4.366875 1.02125 5.17125 1 6 C-2.465 7.485 -2.465 7.485 -6 9 C-6.04898438 10.18078125 -6.09796875 11.3615625 -6.1484375 12.578125 C-6.22348879 14.13543937 -6.29903561 15.69272991 -6.375 17.25 C-6.42140625 18.41595703 -6.42140625 18.41595703 -6.46875 19.60546875 C-6.83381886 26.72431144 -6.83381886 26.72431144 -9 30 C-11.375 30.1875 -11.375 30.1875 -14 30 C-16.27531766 26.58702352 -16.25674679 25.31869095 -16.265625 21.30859375 C-16.26820313 20.19935547 -16.27078125 19.09011719 -16.2734375 17.94726562 C-16.26570312 16.78904297 -16.25796875 15.63082031 -16.25 14.4375 C-16.25773438 13.27541016 -16.26546875 12.11332031 -16.2734375 10.91601562 C-16.27085937 9.80806641 -16.26828125 8.70011719 -16.265625 7.55859375 C-16.26336914 6.54079834 -16.26111328 5.52300293 -16.25878906 4.47436523 C-16 2 -16 2 -14 0 C-11.6670386 -0.04166002 -9.3329614 -0.04166002 -7 0 C-4.31633121 -1.3418344 -2.84719317 -0.73004953 0 0 Z " fill="#FCF5F6" transform="translate(157,101)"/>
<path d="M0 0 C2.875 0.9375 2.875 0.9375 4.875 3.9375 C5.558557 8.25344711 5.57294112 11.81005665 3.25 15.5625 C0.875 16.9375 0.875 16.9375 -2.1875 17 C-5.125 15.9375 -5.125 15.9375 -7.0625 13.8125 C-8.45905279 10.03359244 -8.18010399 7.80621463 -7.125 3.9375 C-4.87862929 0.60954339 -4.05585379 -0.08111708 0 0 Z " fill="#D22732" transform="translate(173.125,107.0625)"/>
<path d="M0 0 C0.04254356 1.99954746 0.04080783 4.00041636 0 6 C-1 7 -1 7 -4.5625 7.0625 C-5.696875 7.041875 -6.83125 7.02125 -8 7 C-8.625 5.125 -8.625 5.125 -9 3 C-6.15236477 0.15236477 -3.96383452 0 0 0 Z " fill="#D11F29" transform="translate(102,117)"/>
<path d="M0 0 C1.2065625 0.0309375 1.2065625 0.0309375 2.4375 0.0625 C2.7675 1.3825 3.0975 2.7025 3.4375 4.0625 C0.86536866 5.68199011 -0.23919159 6.10658751 -3.3125 5.6875 C-4.055 5.48125 -4.7975 5.275 -5.5625 5.0625 C-3.15007962 0.07683121 -3.15007962 0.07683121 0 0 Z " fill="#D32C36" transform="translate(98.5625,105.9375)"/>
</svg>
