<?xml version="1.0" encoding="UTF-8"?>
<svg version="1.1" xmlns="http://www.w3.org/2000/svg" width="1280" height="970">
<path d="M0 0 C422.4 0 844.8 0 1280 0 C1280 320.1 1280 640.2 1280 970 C857.6 970 435.2 970 0 970 C0 649.9 0 329.8 0 0 Z " fill="#D52B1E" transform="translate(0,0)"/>
<path d="M0 0 C5.19316947 3.84294541 9.94328526 8.11801075 14.625 12.5625 C15.56214844 13.43519531 16.49929688 14.30789062 17.46484375 15.20703125 C31.91397234 28.93526017 42.6249345 45.43765865 52.625 62.5625 C53.1288623 63.42439941 53.63272461 64.28629883 54.15185547 65.17431641 C81.70694622 112.83305619 98.35760107 166.69297783 111.9375 219.75 C112.17078003 220.66125641 112.40406006 221.57251282 112.64440918 222.51138306 C119.69317789 250.1637635 125.61373612 278.02204586 130.5625 306.125 C130.70643188 306.93858978 130.85036377 307.75217957 130.99865723 308.59042358 C132.92302214 319.5459733 134.43701625 330.50308353 135.625 341.5625 C135.80039307 340.40766113 135.97578613 339.25282227 136.15649414 338.06298828 C139.85893106 313.79131677 143.900192 289.68050064 149.15887451 265.69598389 C149.64287712 263.48067535 150.12119939 261.26420146 150.59814453 259.04736328 C154.82190335 239.43124263 159.3111777 219.91733817 164.625 200.5625 C164.88571289 199.60682129 165.14642578 198.65114258 165.41503906 197.66650391 C183.2568605 132.8531288 207.61857136 64.06224935 254.625 14.5625 C255.47771484 13.61310547 255.47771484 13.61310547 256.34765625 12.64453125 C270.25963714 -2.33486505 291.78962115 -14.74057672 312.34375 -15.8125 C341.05358754 -16.68153746 361.96570755 -4.47504911 382.45166016 14.59716797 C383.84758723 15.91386045 385.23647736 17.23800146 386.625 18.5625 C387.71941406 19.59503906 387.71941406 19.59503906 388.8359375 20.6484375 C394.25121514 25.89248106 398.97649124 31.63890324 403.625 37.5625 C404.37040039 38.50923584 404.37040039 38.50923584 405.13085938 39.47509766 C412.76921741 49.21377156 419.97253063 59.12605723 426.625 69.5625 C427.11436035 70.32481934 427.6037207 71.08713867 428.10791016 71.87255859 C436.44556035 84.91003653 443.99378304 98.28571311 451.23681641 111.95800781 C452.39276255 114.12677909 453.56692395 116.28219952 454.76171875 118.4296875 C494.57547291 190.71210071 522.2948617 274.57882467 541.625 354.51953125 C542.48720186 358.06459595 543.4668955 361.56285852 544.5 365.0625 C551.41388554 388.92923289 556.51018653 413.26246264 561.625 437.5625 C561.88055664 438.77647461 562.13611328 439.99044922 562.39941406 441.24121094 C563.45197738 446.25515996 564.49561143 451.27078781 565.52734375 456.2890625 C566.26233069 459.85299383 567.02735437 463.40859108 567.81640625 466.9609375 C568.00557617 467.82315918 568.19474609 468.68538086 568.38964844 469.57373047 C568.73888221 471.16022291 569.09434859 472.74536521 569.45800781 474.32861328 C569.61237305 475.0348584 569.76673828 475.74110352 569.92578125 476.46875 C570.06153564 477.07009766 570.19729004 477.67144531 570.3371582 478.29101562 C570.76775153 481.6890142 570.625 485.13732776 570.625 488.5625 C535.315 488.5625 500.005 488.5625 463.625 488.5625 C461.37574058 477.31620292 461.37574058 477.31620292 460.84375 472.6796875 C460.72507568 471.66543701 460.60640137 470.65118652 460.48413086 469.60620117 C460.36561768 468.56052979 460.24710449 467.5148584 460.125 466.4375 C459.86610229 464.22263089 459.60698779 462.00778711 459.34765625 459.79296875 C459.22406738 458.7261084 459.10047852 457.65924805 458.97314453 456.56005859 C458.51573898 452.62175187 458.04585695 448.6851991 457.5625 444.75 C457.42714844 443.62980469 457.29179688 442.50960938 457.15234375 441.35546875 C456.73628535 438.36293022 456.26994546 435.39601135 455.765625 432.41796875 C454.83530061 426.91422609 453.98073842 421.40142494 453.14453125 415.8828125 C446.27980112 370.70962861 438.28865866 325.67570483 427.28125 281.30859375 C425.86885525 275.61198991 424.55031655 269.8981133 423.25854492 264.1730957 C421.27540959 255.3871743 419.2207072 246.67750281 416.57397461 238.06640625 C415.35189987 234.07983234 414.22274382 230.08442369 413.1796875 226.046875 C400.08658248 175.36756391 383.09137441 114.38439408 347.625 74.5625 C347.0784375 73.923125 346.531875 73.28375 345.96875 72.625 C340.5729425 66.72015405 334.14743518 62.22296712 326.12109375 61.05078125 C318.72683989 60.81946155 312.95624977 61.73042777 306.625 65.5625 C305.87734375 65.99820313 305.1296875 66.43390625 304.359375 66.8828125 C261.6305158 93.47934731 248.38190928 165.2990157 237.625 210.5625 C231.73144248 235.93761722 226.93553754 261.52046526 222.97857666 287.26464844 C222.6178216 289.60915153 222.25318031 291.95302884 221.88818359 294.296875 C211.89021449 358.76398179 206.35885785 423.47195457 201.625 488.5625 C158.065 488.5625 114.505 488.5625 69.625 488.5625 C68.635 473.0525 67.645 457.5425 66.625 441.5625 C65.52057987 428.86166849 64.39634377 416.17364034 63.12944794 403.48950577 C62.86823948 400.86969479 62.60980833 398.24962069 62.35186768 395.62948608 C59.50423207 366.76947239 56.20627858 338.00690013 52.02349854 309.30596924 C51.63333734 306.61989852 51.24997605 303.93294363 50.86865234 301.24560547 C44.31417081 255.21336011 35.65991271 208.95182586 21.625 164.5625 C21.26857422 163.41442871 20.91214844 162.26635742 20.54492188 161.08349609 C11.41538278 131.84502718 0.72729343 100.4623962 -20.375 77.5625 C-21.02984375 76.82773438 -21.6846875 76.09296875 -22.359375 75.3359375 C-29.18422854 68.04699392 -37.59496438 62.39795463 -47.671875 61.15625 C-56.35346255 60.92055079 -61.55671538 62.18945861 -68.375 67.5625 C-69.09816406 68.08457031 -69.82132812 68.60664063 -70.56640625 69.14453125 C-82.95262961 78.96044708 -91.23580457 94.70781749 -98.375 108.5625 C-98.81779297 109.41682617 -99.26058594 110.27115234 -99.71679688 111.15136719 C-114.22802845 139.46717915 -125.37785857 170.06809031 -134.375 200.5625 C-134.93960938 202.42455078 -134.93960938 202.42455078 -135.515625 204.32421875 C-138.27872516 213.49319104 -140.75835573 222.72174997 -143.14624023 231.99511719 C-144.44901253 237.04632636 -145.78434479 242.08224041 -147.21704102 247.09814453 C-159.66815825 290.78681255 -168.28134943 335.8156586 -175.70947266 380.59765625 C-176.29145255 384.09141669 -176.90863714 387.57781669 -177.54296875 391.0625 C-179.60332001 402.38868211 -181.26379651 413.73340519 -182.73730469 425.15087891 C-183.68985206 432.51072427 -184.69684693 439.8581398 -185.78515625 447.19921875 C-189.5034854 472.34222077 -192.51808001 497.5071222 -195.09179688 522.7923584 C-195.36770738 525.49116744 -195.64791436 528.18949264 -195.9296875 530.88769531 C-198.12600273 551.9557553 -199.94974871 573.02537893 -201.33642578 594.1628418 C-201.39055634 594.98762527 -201.44468689 595.81240875 -201.50045776 596.66218567 C-201.6098063 598.3291441 -201.71879292 599.99612631 -201.8274231 601.66313171 C-202.20726055 607.37528165 -202.65712158 613.07935705 -203.13290405 618.78427124 C-204.17655616 631.33124617 -204.90936576 643.85658758 -205.375 656.4375 C-205.41413513 657.44881989 -205.45327026 658.46013977 -205.49359131 659.50210571 C-206.10601825 675.44205772 -206.54484874 691.38559111 -206.9453125 707.33203125 C-206.96680233 708.1876383 -206.98829216 709.04324535 -207.0104332 709.92477989 C-207.49792943 729.46991185 -207.92859649 749.01640336 -208.375 768.5625 C-247.315 768.5625 -286.255 768.5625 -326.375 768.5625 C-326.375 719.57860346 -326.375 719.57860346 -325.125 698.375 C-324.98939565 695.95296363 -324.85381687 693.53092584 -324.71826172 691.10888672 C-321.81390515 640.46534621 -316.26580751 590.18924625 -308.74420166 540.0335083 C-308.38753462 537.64639224 -308.03552807 535.25863844 -307.68505859 532.87060547 C-302.32791636 496.47013288 -295.78838985 460.07391356 -287.04296875 424.32763672 C-286.10304338 420.43670297 -285.22215827 416.5330131 -284.33666992 412.62939453 C-281.65043122 400.81731641 -278.82654846 389.03870628 -275.96887207 377.26712036 C-275.53930501 375.4970636 -275.11063968 373.7267877 -274.6829834 371.95626831 C-271.96685557 360.72251073 -269.06546861 349.55998162 -265.90859985 338.4418335 C-265.20659724 335.96938711 -264.51434125 333.49422588 -263.8203125 331.01953125 C-239.45717009 245.0097097 -209.14906241 158.32943488 -99.375 4.5625 C-98.50875 3.87929687 -97.6425 3.19609375 -96.75 2.4921875 C-66.39500027 -20.54508908 -31.57801528 -21.21647902 0 0 Z " fill="#FCC72E" transform="translate(405.375,92.4375)"/>
<path d="M0 0 C37.62 0 75.24 0 114 0 C116.25036709 12.37701899 116.25036709 12.37701899 116.57836914 16.82495117 C116.65507339 17.82777634 116.73177765 18.8306015 116.81080627 19.86381531 C116.88484177 20.91293594 116.95887726 21.96205658 117.03515625 23.04296875 C117.16053017 24.73212151 117.16053017 24.73212151 117.28843689 26.45539856 C117.46343246 28.83098011 117.63555264 31.20677506 117.80493164 33.58276367 C118.058622 37.13322633 118.32247894 40.6828184 118.58789062 44.23242188 C118.75842656 46.56505935 118.92836588 48.89774054 119.09765625 51.23046875 C119.17371597 52.25327438 119.2497757 53.27608002 119.32814026 54.32987976 C121.39138071 83.61004013 121 112.58781123 121 142 C82.06 142 43.12 142 3 142 C2.87625 130.82125 2.7525 119.6425 2.625 108.125 C2.31998774 83.26513182 1.83765078 58.44631743 0.66064453 33.60986328 C0.5954084 32.2057872 0.5954084 32.2057872 0.52885437 30.77334595 C0.45014789 29.10627993 0.36767351 27.43938202 0.27937317 25.77279663 C-0.13611468 17.16219842 0 8.65883131 0 0 Z " fill="#FCC72E" transform="translate(882,719)"/>
<path d="M0 0 C13.53 0 27.06 0 41 0 C46.63806708 19.16942806 46.63806708 19.16942806 48.4375 26.75 C50.42796608 34.93347819 52.66545695 43.02821491 55.03295898 51.11035156 C56.18398522 55.05475469 57.30044164 58.94422713 58 63 C60.32652939 60.67347061 60.55308321 59.4534926 61.296875 56.29296875 C61.53035645 55.32423828 61.76383789 54.35550781 62.00439453 53.35742188 C62.37346924 51.78831055 62.37346924 51.78831055 62.75 50.1875 C64.90524673 41.27825717 67.21489579 32.44559426 69.81933594 23.65698242 C72.12350812 15.81054077 74.00873628 7.96505489 76 0 C89.53 0 103.06 0 117 0 C118.61644417 4.8493325 119.65824561 9.30477507 120.40234375 14.30859375 C120.52457809 15.10363312 120.64681244 15.89867249 120.77275085 16.71780396 C121.16644648 19.29024076 121.55218019 21.86379646 121.9375 24.4375 C122.20795504 26.21674827 122.47862663 27.99596364 122.74951172 29.77514648 C124.28499481 39.9180125 125.69949541 50.06788778 126.95678711 60.24926758 C127.87563357 67.49944549 129.15815509 74.65767398 130.51123047 81.83789062 C131.73722456 88.3939326 132.80112323 94.96066687 133.75 101.5625 C133.94142578 102.87468506 133.94142578 102.87468506 134.13671875 104.21337891 C134.25144531 105.03112793 134.36617187 105.84887695 134.484375 106.69140625 C134.58459961 107.40498291 134.68482422 108.11855957 134.78808594 108.85375977 C135.02225091 111.22535459 135 113.6168728 135 116 C123.78 116 112.56 116 101 116 C100.67386719 113.45152344 100.34773438 110.90304687 100.01171875 108.27734375 C99.34124253 103.03868027 98.67008409 97.80010572 97.99707031 92.56176758 C97.88326019 91.67592484 97.76945007 90.79008209 97.65219116 89.87739563 C97.42306833 88.09409793 97.19392199 86.31080326 96.9647522 84.5275116 C96.31562092 79.47219785 95.67244834 74.41619435 95.03515625 69.359375 C94.77346568 67.30207975 94.5117497 65.24478773 94.25 63.1875 C94.07730591 61.79615845 94.07730591 61.79615845 93.90112305 60.37670898 C93.43503373 56.05544748 93.43503373 56.05544748 92 52 C91.84442627 52.6077124 91.68885254 53.2154248 91.52856445 53.84155273 C88.77997585 64.5504574 86.00032681 75.23724623 82.83422852 85.83105469 C81.258716 91.10357453 79.73531003 96.38883316 78.25 101.6875 C78.03915771 102.43040283 77.82831543 103.17330566 77.61108398 103.9387207 C77.41458252 104.64343506 77.21808105 105.34814941 77.015625 106.07421875 C76.84321289 106.68869873 76.67080078 107.30317871 76.49316406 107.9362793 C75.85780936 110.59501856 75.4494011 113.30359337 75 116 C64.44 116 53.88 116 43 116 C39.555932 103.64187365 36.15636811 91.27252803 32.78808594 78.89355469 C31.96707806 75.87912303 31.14396472 72.86527264 30.3203125 69.8515625 C30.04695068 68.85092773 29.77358887 67.85029297 29.49194336 66.81933594 C28.96700986 64.89803153 28.44179501 62.97680396 27.91625977 61.05566406 C27.67963623 60.1890918 27.4430127 59.32251953 27.19921875 58.4296875 C26.99127686 57.66897949 26.78333496 56.90827148 26.5690918 56.12451172 C26.0236009 54.08810598 25.50488782 52.04681115 25 50 C24.86424561 51.09127197 24.72849121 52.18254395 24.58862305 53.30688477 C23.06627784 65.53882733 21.5366393 77.76984491 20 90 C19.91131653 90.70664795 19.82263306 91.4132959 19.73126221 92.14135742 C19.24264208 96.03240517 18.74854072 99.92271165 18.25 103.8125 C18.07730591 105.18547241 18.07730591 105.18547241 17.90112305 106.58618164 C17.47881455 109.84941652 17.04331171 112.87006487 16 116 C4.78 116 -6.44 116 -18 116 C-17.71125 113.380625 -17.4225 110.76125 -17.125 108.0625 C-16.99569092 106.85412476 -16.99569092 106.85412476 -16.86376953 105.62133789 C-16.45294319 102.0216132 -15.92976289 98.53049649 -15.078125 95.0078125 C-13.55964159 88.48539656 -12.81841022 81.82559849 -11.94085693 75.19345093 C-10.36099465 63.28434218 -8.65988919 51.44018102 -6.38378906 39.64111328 C-4.9489965 32.08131158 -3.94328477 24.48657829 -3.03857422 16.84643555 C-2.87639404 15.50512573 -2.87639404 15.50512573 -2.7109375 14.13671875 C-2.57631104 12.97209106 -2.57631104 12.97209106 -2.43896484 11.78393555 C-1.81420176 7.8216589 -0.87015793 3.91571071 0 0 Z " fill="#FEFBFB" transform="translate(240,592)"/>
<path d="M0 0 C17.386875 -0.12375 17.386875 -0.12375 35.125 -0.25 C40.57217529 -0.30462402 40.57217529 -0.30462402 46.12939453 -0.36035156 C50.63647461 -0.37841797 50.63647461 -0.37841797 52.76046753 -0.3817749 C54.21323581 -0.38783289 55.66598671 -0.40172112 57.11862183 -0.42230225 C75.07498145 -0.66352265 91.23239034 3.47971345 104.8125 15.9375 C117.4041418 29.28390396 120.65327691 45.00924762 120.3125 62.8203125 C119.75821291 75.57353457 114.07532217 88.92467783 105 98 C89.53950815 110.46105889 74.43047647 114.66757892 54.8828125 114.390625 C53.46737299 114.38472267 52.05192465 114.38065506 50.63647461 114.37841797 C45.46584742 114.35769177 40.29540877 114.30184862 35.125 114.25 C23.53375 114.1675 11.9425 114.085 0 114 C0 76.38 0 38.76 0 0 Z " fill="#FEFDFD" transform="translate(488,593)"/>
<path d="M0 0 C39.6 0 79.2 0 120 0 C120 33.37341994 120 33.37341994 119.78125 46.92578125 C119.76119732 48.2663952 119.74134277 49.60701212 119.72167969 50.94763184 C119.65014439 55.73595703 119.57488359 60.524226 119.5 65.3125 C119.335 76.099375 119.17 86.88625 119 98 C80.06 98 41.12 98 1 98 C0.67 65.66 0.34 33.32 0 0 Z " fill="#FCC72E" transform="translate(481,719)"/>
<path d="M0 0 C11.22 0 22.44 0 34 0 C34 36.96 34 73.92 34 112 C22.78 112 11.56 112 0 112 C-0.33 110.68 -0.66 109.36 -1 108 C-1.59941406 108.433125 -2.19882813 108.86625 -2.81640625 109.3125 C-13.87096847 116.1056307 -27.36622654 115.86340434 -39.80078125 113.1796875 C-50.84669328 109.08224153 -59.01104472 100.50654158 -64 90 C-69.76966719 75.91656039 -70.1563991 58.52895345 -65.32421875 44.1171875 C-59.91264922 31.3784486 -51.73008761 23.26478583 -39 18 C-28.64220712 14.31332796 -16.09404209 14.54026868 -6 19 C-4.35 19.99 -2.7 20.98 -1 22 C-0.67 14.74 -0.34 7.48 0 0 Z " fill="#FEFDFD" transform="translate(1065,593)"/>
<path d="M0 0 C9.43829061 7.19577248 17.18640994 18.12703038 19 30 C19.29764194 34.20950741 19.40036477 38.40570136 19.4375 42.625 C19.44789307 43.6862207 19.45828613 44.74744141 19.46899414 45.84082031 C19.31402159 59.56818198 14.73502278 71.33904183 5.25 81.375 C0.61194733 85.75615454 -4.0167171 88.79781949 -10 91 C-10.69359619 91.25676514 -11.38719238 91.51353027 -12.10180664 91.77807617 C-18.93095995 94.08917621 -25.26387835 94.4855279 -32.4375 94.4375 C-33.49259766 94.45748047 -34.54769531 94.47746094 -35.63476562 94.49804688 C-48.81786626 94.4899342 -60.60332624 89.26358818 -70.25 80.3125 C-81.81259423 68.02578371 -83.76602075 53.50765204 -83.34765625 37.3359375 C-82.69012489 23.90721466 -77.02053317 11.99470762 -67.171875 2.8125 C-48.34151131 -12.90204812 -20.4423547 -12.91648781 0 0 Z " fill="#FEFDFD" transform="translate(700,613)"/>
<path d="M0 0 C6.01163096 5.17523013 9.89822847 9.86726387 11.1328125 17.8828125 C11.21927829 20.33511233 11.25051816 22.78958806 11.24633789 25.2434082 C11.24648392 25.96590256 11.24662994 26.68839691 11.2467804 27.43278503 C11.24608672 29.80808572 11.23831995 32.18330685 11.23046875 34.55859375 C11.22860263 36.21054542 11.22717964 37.86249765 11.22618103 39.51445007 C11.22237111 43.85289042 11.21255389 48.19129705 11.20147705 52.52972412 C11.18942707 57.74020949 11.18485343 62.95070615 11.17902374 68.16120148 C11.16934129 76.06842857 11.15017407 83.97558175 11.1328125 91.8828125 C-0.4171875 91.8828125 -11.9671875 91.8828125 -23.8671875 91.8828125 C-24.3621875 87.9228125 -24.3621875 87.9228125 -24.8671875 83.8828125 C-25.5684375 84.35332031 -26.2696875 84.82382812 -26.9921875 85.30859375 C-27.9409375 85.93121094 -28.8896875 86.55382812 -29.8671875 87.1953125 C-31.259375 88.11763672 -31.259375 88.11763672 -32.6796875 89.05859375 C-39.6833476 93.06681589 -45.68023191 94.44414347 -53.7421875 94.3828125 C-55.06718262 94.37314453 -55.06718262 94.37314453 -56.41894531 94.36328125 C-65.70025198 94.10270522 -71.36886051 91.35631287 -78.2421875 85.1953125 C-85.03168125 77.81483043 -86.58508543 70.16099673 -86.2421875 60.28125 C-85.33188919 52.03167153 -82.24123124 46.22321433 -76.12109375 40.6328125 C-65.4039356 32.31169144 -52.42319737 30.54743614 -39.22265625 30.34863281 C-34.20450747 30.21222146 -28.62873395 29.64435895 -24.8671875 25.8828125 C-24.52293388 22.88288813 -24.30412056 20.78260722 -24.8671875 17.8828125 C-27.57304182 14.95756459 -29.62096188 14.02308032 -33.57421875 13.578125 C-40.07690184 13.32257924 -40.07690184 13.32257924 -45.8671875 15.8828125 C-46.5271875 17.5328125 -47.1871875 19.1828125 -47.8671875 20.8828125 C-58.4271875 20.8828125 -68.9871875 20.8828125 -79.8671875 20.8828125 C-79.8671875 12.97364434 -78.3881816 8.19041167 -73.3984375 2.0859375 C-56.26298614 -14.20954075 -18.28522011 -13.50216526 0 0 Z " fill="#FEFCFC" transform="translate(927.8671875,613.1171875)"/>
<path d="M0 0 C5.8607906 5.48140907 9.44609748 9.98331982 9.99050903 18.31942749 C9.99624388 19.70562284 9.99113284 21.09189166 9.97705078 22.47802734 C9.97734283 23.23968201 9.97763489 24.00133667 9.97793579 24.78607178 C9.97655031 27.28588535 9.96102628 29.78539519 9.9453125 32.28515625 C9.94157958 34.02535845 9.93873393 35.76556276 9.93673706 37.50576782 C9.92912254 42.07275251 9.90949287 46.6396088 9.8873291 51.20654297 C9.86321457 56.69319506 9.8540793 62.17989022 9.84242249 67.6665802 C9.82306713 75.99004886 9.78472941 84.3132361 9.75 92.63671875 C-1.47 92.63671875 -12.69 92.63671875 -24.25 92.63671875 C-24.27578125 88.53105469 -24.3015625 84.42539062 -24.328125 80.1953125 C-24.35983257 76.90781401 -24.39548442 73.62041058 -24.43379211 70.33298492 C-24.47306517 66.87032625 -24.50549522 63.40792198 -24.52099609 59.94506836 C-24.53913099 55.96565499 -24.58911689 51.98693924 -24.640625 48.0078125 C-24.64185364 46.7752623 -24.64308228 45.5427121 -24.64434814 44.27281189 C-24.75891278 37.52932572 -25.15111213 33.08961804 -29.25 27.63671875 C-33.88070292 23.42698882 -38.49937721 23.28784922 -44.5234375 23.359375 C-49.55604242 23.87128754 -52.06995062 26.35484735 -55.37207031 29.94189453 C-58.63695879 35.00978972 -57.85371483 41.32616081 -57.859375 47.12890625 C-57.87591125 48.42998322 -57.89244751 49.73106018 -57.90948486 51.07156372 C-57.95301748 54.51400662 -57.97312561 57.95619537 -57.98822021 61.39886475 C-58.00784269 64.91840394 -58.04959242 68.43767748 -58.08984375 71.95703125 C-58.16706932 78.85042956 -58.20757507 85.74266716 -58.25 92.63671875 C-69.47 92.63671875 -80.69 92.63671875 -92.25 92.63671875 C-92.25 60.29671875 -92.25 27.95671875 -92.25 -5.36328125 C-81.03 -5.36328125 -69.81 -5.36328125 -58.25 -5.36328125 C-57.755 -2.39328125 -57.755 -2.39328125 -57.25 0.63671875 C-56.59773437 0.22679687 -55.94546875 -0.183125 -55.2734375 -0.60546875 C-38.90626366 -10.69614524 -15.71449375 -12.99719587 0 0 Z " fill="#FEFDFD" transform="translate(822.25,612.36328125)"/>
<path d="M0 0 C6.2263416 4.89770804 8.93319039 10.70691197 9.8671875 18.46875 C9.8671875 19.12875 9.8671875 19.78875 9.8671875 20.46875 C-1.0228125 20.46875 -11.9128125 20.46875 -23.1328125 20.46875 C-23.7928125 18.15875 -24.4528125 15.84875 -25.1328125 13.46875 C-28.7118971 10.10657962 -32.27232474 10.14365214 -36.94921875 10.16796875 C-39.39815708 10.50530015 -41.03594974 11.17025512 -43.1328125 12.46875 C-44.67868126 15.56048752 -44.42640771 18.06304552 -44.1328125 21.46875 C-41.61090036 25.59551532 -37.73883365 26.53657676 -33.296875 27.76171875 C-30.21156126 28.45115306 -27.13604298 28.98691481 -24.01635742 29.48876953 C-11.46088005 31.51830417 0.33893428 34.28630974 8.8671875 44.46875 C12.82005151 50.41952897 13.88811771 56.43801412 12.8671875 63.46875 C10.8321333 72.09063644 7.0672138 79.23830577 -0.59765625 84 C-11.54752961 89.66429539 -21.73017915 90.67333715 -33.92895508 90.70898438 C-35.92997179 90.7186757 -37.93084635 90.74988037 -39.93164062 90.78125 C-51.66998645 90.82817992 -61.75733971 88.93679902 -71.1328125 81.46875 C-77.43522407 74.20274658 -79.1328125 68.10840291 -79.1328125 58.46875 C-68.2428125 58.46875 -57.3528125 58.46875 -46.1328125 58.46875 C-45.4728125 60.77875 -44.8128125 63.08875 -44.1328125 65.46875 C-43.8028125 66.45875 -43.4728125 67.44875 -43.1328125 68.46875 C-38.06052189 71.0048953 -33.52588934 70.4857302 -28.1328125 69.46875 C-25.13000072 68.778447 -25.13000072 68.778447 -23.8828125 66.84375 C-22.76508778 63.30428838 -23.11728635 61.02309151 -24.1328125 57.46875 C-31.03610013 51.25579113 -40.90851643 50.04783237 -49.6953125 48.2109375 C-66.18348338 44.65099152 -66.18348338 44.65099152 -71.671875 37.44921875 C-75.98717526 30.18071022 -76.1110274 22.71897751 -75.1328125 14.46875 C-73.29058235 7.5549686 -68.16395256 2.18519859 -62.32421875 -1.75 C-60.2998636 -2.86108058 -58.29469505 -3.71913412 -56.1328125 -4.53125 C-54.94365234 -4.97984375 -54.94365234 -4.97984375 -53.73046875 -5.4375 C-37.05230086 -10.60605705 -15.01025231 -9.28936369 0 0 Z " fill="#FEFCFC" transform="translate(1210.1328125,616.53125)"/>
<path d="M0 0 C8.87003415 7.63142578 13.8417151 15.83819568 17.2265625 26.98828125 C17.2265625 27.31828125 17.2265625 27.64828125 17.2265625 27.98828125 C12.7793799 28.18691851 8.33458066 28.33159475 3.88427734 28.42773438 C2.37275196 28.46782617 0.8615342 28.5223203 -0.64892578 28.59179688 C-13.25981205 29.1570838 -13.25981205 29.1570838 -17.03466797 26.2421875 C-18.6171875 24.08203125 -18.6171875 24.08203125 -19.75585938 21.91601562 C-21.39772863 18.80560304 -23.51522027 18.03091076 -26.7734375 16.98828125 C-31.08630923 16.30411084 -33.98301305 16.6163168 -37.9609375 18.48828125 C-42.47406465 22.49994983 -46.43030019 27.89855786 -46.95043945 34.09790039 C-47.99845502 50.4289079 -47.99845502 50.4289079 -41.27734375 64.6484375 C-37.85988114 67.70796139 -35.0081914 68.89509228 -30.4609375 69.23828125 C-25.15791949 68.8787546 -22.08227329 67.44254324 -18.5234375 63.48828125 C-17.25096977 61.67047021 -16.0042735 59.83453525 -14.7734375 57.98828125 C-11.70068359 57.64770508 -11.70068359 57.64770508 -7.796875 57.6953125 C-7.1116275 57.69955734 -6.42638 57.70380219 -5.72036743 57.70817566 C-3.52932621 57.72498372 -1.33920118 57.7626372 0.8515625 57.80078125 C2.33592423 57.81582546 3.82030035 57.82951432 5.3046875 57.84179688 C8.94561083 57.87489335 12.58599728 57.92668918 16.2265625 57.98828125 C14.7409941 69.43757707 9.08853915 77.68851203 0.2265625 84.98828125 C-12.88834761 94.08284689 -26.1321148 95.35610786 -41.7734375 93.98828125 C-54.19467092 91.72593518 -64.51056715 82.96283464 -71.7734375 72.98828125 C-79.52632515 59.19443799 -81.2566797 42.43894149 -78.0859375 26.94921875 C-74.69092904 15.09498088 -68.17893503 4.46869563 -57.5 -1.9921875 C-39.65407482 -11.67815294 -16.98706421 -12.32160292 0 0 Z " fill="#FEFDFD" transform="translate(458.7734375,613.01171875)"/>
<path d="M0 0 C7.33735381 5.48800441 13.12363774 12.8266927 15.38671875 21.78515625 C16.97424568 34.82035447 15.58131436 45.31882785 7.76171875 56.03515625 C3.61225267 60.93907071 -0.84023687 64.03479077 -6.61328125 66.78515625 C-7.65742187 67.29369141 -7.65742187 67.29369141 -8.72265625 67.8125 C-17.17022503 71.25821884 -27.69338986 71.2769161 -36.17578125 68.03515625 C-42.23283156 65.17711099 -47.04980665 61.69966736 -51.61328125 56.78515625 C-52.45890625 55.91890625 -53.30453125 55.05265625 -54.17578125 54.16015625 C-60.98658213 45.60354882 -61.61601442 35.20677913 -60.84082031 24.71484375 C-59.68114648 14.88001334 -53.17966865 6.29837676 -45.67578125 0.16796875 C-30.89070071 -9.7447557 -14.88922745 -9.51321126 0 0 Z " fill="#D52E1E" transform="translate(1095.61328125,776.21484375)"/>
<path d="M0 0 C11.55 0 23.1 0 35 0 C35 37.29 35 74.58 35 113 C23.45 113 11.9 113 0 113 C0 75.71 0 38.42 0 0 Z " fill="#FDF8F8" transform="translate(952,592)"/>
<path d="M0 0 C28.53849085 0 28.53849085 0 35.6171875 6.34375 C43.2038746 15.43062947 43.62058793 25.725986 43 37 C41.8431833 44.34284498 38.99760251 49.53965652 34 55 C25 60 25 60 0 60 C0 40.2 0 20.4 0 0 Z " fill="#D52C1F" transform="translate(527,620)"/>
<path d="M0 0 C7.08245253 3.26984257 10.10135965 8.01395834 12.77734375 15.27734375 C15.33672998 25.74756015 13.9000977 36.05329801 8.91796875 45.515625 C6.57519593 49.13408576 3.79429618 50.93835961 -0.22265625 52.27734375 C-12.42650545 53.43176192 -12.42650545 53.43176192 -17.28515625 50.27734375 C-22.2060697 45.99138687 -24.83450837 39.56662353 -25.41552734 33.14599609 C-26.13896883 12.64848729 -26.13896883 12.64848729 -20.22265625 5.27734375 C-14.38691552 -0.41606184 -7.91695909 -2.57405524 0 0 Z " fill="#D52D21" transform="translate(674.22265625,629.72265625)"/>
<path d="M0 0 C3.5570998 2.09241164 6.05855231 4.36010476 8.1875 7.875 C8.83447266 11.3984375 8.83447266 11.3984375 8.8515625 15.25 C8.85634613 15.93755371 8.86112976 16.62510742 8.86605835 17.33349609 C8.86944239 18.7789948 8.86034469 20.2245716 8.83935547 21.66992188 C8.81255796 23.87024134 8.83914322 26.0654623 8.87109375 28.265625 C8.86778937 29.67709448 8.86138254 31.08856081 8.8515625 32.5 C8.84310303 34.40652344 8.84310303 34.40652344 8.83447266 36.3515625 C7.83945154 41.77048506 5.04888334 44.54544047 0.5625 47.75 C-5.54577262 49.78609087 -11.41645043 50.05124251 -17.25 47.1875 C-23.26856281 41.75611405 -26.73148693 35.66429735 -27.28125 27.5078125 C-27.31546309 26.00556177 -27.32538252 24.50258505 -27.3125 23 C-27.30283203 21.81917847 -27.30283203 21.81917847 -27.29296875 20.61450195 C-27.06037403 13.19212909 -25.51217737 7.45983151 -20.05078125 2.16796875 C-13.76667102 -2.45907387 -7.22655988 -2.1324275 0 0 Z " fill="#D52C1F" transform="translate(1056.8125,635.125)"/>
<path d="M0 0 C4.33125 -0.061875 8.6625 -0.12375 13.125 -0.1875 C14.47996582 -0.21481201 15.83493164 -0.24212402 17.23095703 -0.27026367 C18.85300049 -0.28150269 18.85300049 -0.28150269 20.5078125 -0.29296875 C21.60754395 -0.3086792 22.70727539 -0.32438965 23.84033203 -0.34057617 C28.9954301 0.21508461 32.17095075 2.20699637 35.875 5.75 C38.403992 9.61787012 38.65990371 11.463162 38 16 C36.32375739 19.68773373 34.42746406 21.85783496 31 24 C30.01 24.33 29.02 24.66 28 25 C28.9075 25.495 29.815 25.99 30.75 26.5 C34.6928422 29.15347674 36.59388725 32.5069041 38 37 C38.29197802 39.7690819 38.19966356 42.2047102 38 45 C36.52093108 45.02689216 35.04172517 45.04634621 33.5625 45.0625 C32.73878906 45.07410156 31.91507813 45.08570313 31.06640625 45.09765625 C29 45 29 45 28 44 C27.7573066 42.23096977 27.53079822 40.45970595 27.3125 38.6875 C26.608063 34.83557854 26.30170808 33.33346682 23.625 30.375 C18.3937564 28.39073519 13.58666868 28.24829639 8 28 C8 33.28 8 38.56 8 44 C5.36 44 2.72 44 0 44 C0 29.48 0 14.96 0 0 Z " fill="#FCC42E" transform="translate(1056,785)"/>
<path d="M0 0 C7.33735381 5.48800441 13.12363774 12.8266927 15.38671875 21.78515625 C16.97424568 34.82035447 15.58131436 45.31882785 7.76171875 56.03515625 C3.61225267 60.93907071 -0.84023687 64.03479077 -6.61328125 66.78515625 C-7.65742187 67.29369141 -7.65742187 67.29369141 -8.72265625 67.8125 C-17.17022503 71.25821884 -27.69338986 71.2769161 -36.17578125 68.03515625 C-42.23283156 65.17711099 -47.04980665 61.69966736 -51.61328125 56.78515625 C-52.45890625 55.91890625 -53.30453125 55.05265625 -54.17578125 54.16015625 C-60.98658213 45.60354882 -61.61601442 35.20677913 -60.84082031 24.71484375 C-59.68114648 14.88001334 -53.17966865 6.29837676 -45.67578125 0.16796875 C-30.89070071 -9.7447557 -14.88922745 -9.51321126 0 0 Z M-49.1484375 8.78515625 C-55.85951472 17.94801367 -57.92603997 27.6114425 -56.61328125 38.78515625 C-53.50822305 50.14889623 -47.73033176 57.00154727 -37.61328125 62.78515625 C-28.89659037 67.39378292 -19.47278097 66.64898284 -10.25 63.8203125 C-0.56469361 60.01793295 5.39245285 53.44674928 9.76171875 44.16015625 C12.81135778 35.8789189 12.68901897 26.0237769 9.42578125 17.8046875 C5.12539547 9.44641889 -1.89467877 2.04943739 -10.70703125 -1.51171875 C-24.90276711 -4.94617097 -39.03419402 -2.29352609 -49.1484375 8.78515625 Z " fill="#FABD2D" transform="translate(1095.61328125,776.21484375)"/>
<path d="M0 0 C0.33 0 0.66 0 1 0 C1.21914063 0.88300781 1.43828125 1.76601563 1.6640625 2.67578125 C6.07079931 19.3533096 14.91360868 33.84923805 30 43 C37.72810794 47.46488405 45.25889585 50.23318108 54 52 C54 52.33 54 52.66 54 53 C36.18 53 18.36 53 0 53 C0 35.51 0 18.02 0 0 Z " fill="#000000" transform="translate(0,917)"/>
<path d="M0 0 C0.33 0 0.66 0 1 0 C1 17.49 1 34.98 1 53 C-16.82 53 -34.64 53 -53 53 C-53 52.67 -53 52.34 -53 52 C-52.04480469 51.78085937 -51.08960938 51.56171875 -50.10546875 51.3359375 C-32.36150603 47.07452861 -19.06576927 37.93732015 -8.68359375 22.828125 C-4.43740416 15.69531464 -1.71280291 8.0968865 0 0 Z " fill="#000000" transform="translate(1279,917)"/>
<path d="M0 0 C17.49 0 34.98 0 53 0 C53 17.49 53 34.98 53 53 C52.67 53 52.34 53 52 53 C51.78085938 52.11699219 51.56171875 51.23398437 51.3359375 50.32421875 C48.39680232 39.20090633 44.4199947 29.99137976 36.3203125 21.55859375 C35 20 35 20 35 18 C34.42378906 17.73832031 33.84757812 17.47664063 33.25390625 17.20703125 C30.8599875 15.9250193 29.01170197 14.43603288 26.9375 12.6875 C18.89523428 6.35635464 9.8601966 3.34584948 0 1 C0 0.67 0 0.34 0 0 Z " fill="#000000" transform="translate(1227,0)"/>
<path d="M0 0 C17.49 0 34.98 0 53 0 C53 0.33 53 0.66 53 1 C52.11699219 1.21914063 51.23398437 1.43828125 50.32421875 1.6640625 C39.20090633 4.60319768 29.99137976 8.5800053 21.55859375 16.6796875 C20 18 20 18 18 18 C17.73832031 18.57621094 17.47664063 19.15242188 17.20703125 19.74609375 C15.9250193 22.1400125 14.43603288 23.98829803 12.6875 26.0625 C6.35635464 34.10476572 3.34584948 43.1398034 1 53 C0.67 53 0.34 53 0 53 C0 35.51 0 18.02 0 0 Z " fill="#000000" transform="translate(0,0)"/>
<path d="M0 0 C7.59 0 15.18 0 23 0 C21.875 10.125 21.875 10.125 20.58984375 14.69140625 C20.32236328 15.65498047 20.05488281 16.61855469 19.77929688 17.61132812 C19.36260742 19.0721582 19.36260742 19.0721582 18.9375 20.5625 C18.65583984 21.57119141 18.37417969 22.57988281 18.08398438 23.61914062 C17.39554789 26.08117621 16.69864849 28.54084277 16 31 C10.39 31 4.78 31 -1 31 C-1.10007675 20.59201813 -0.73511382 10.38348277 0 0 Z " fill="#FDF8F8" transform="translate(1112,592)"/>
<path d="M0 0 C0.61834421 10.61490897 0.61834421 10.61490897 -1.5625 15.5 C-6.51119957 20.5755893 -10.11142404 22.24370109 -17.125 22.5625 C-21.10046026 22.40308305 -22.7695657 22.13737429 -26.25 20.0625 C-28.60453695 15.94206033 -29.06055482 12.63782305 -28 8 C-25.10650793 4.22238536 -21.94759131 1.39293565 -17.11914062 0.74926758 C-14.87113045 0.57914102 -12.62758703 0.4657082 -10.375 0.375 C-9.59898437 0.33632813 -8.82296875 0.29765625 -8.0234375 0.2578125 C-5.34860957 0.12778614 -2.6784381 0 0 0 Z " fill="#D52E21" transform="translate(904,659)"/>
<path d="M0 0 C2.56364483 -0.10845031 5.12266279 -0.18749744 7.6875 -0.25 C8.40873047 -0.28351562 9.12996094 -0.31703125 9.87304688 -0.3515625 C13.72921173 -0.42199473 15.61075197 -0.23173132 19.01171875 1.79296875 C21 4 21 4 21.125 7.5625 C20 11 20 11 17.91796875 12.703125 C14.27617135 14.32170162 11.08742087 14.33304729 7.1875 14.1875 C6.14819336 14.16719727 6.14819336 14.16719727 5.08789062 14.14648438 C3.39158735 14.11138845 1.69568864 14.05758943 0 14 C0 9.38 0 4.76 0 0 Z " fill="#D52E1E" transform="translate(1064,792)"/>
</svg>
