<?xml version="1.0" encoding="iso-8859-1"?>
<!-- Generator: Adobe Illustrator 21.0.0, SVG Export Plug-In . SVG Version: 6.00 Build 0)  -->
<svg version="1.1" id="Capa_1" xmlns="http://www.w3.org/2000/svg" xmlns:xlink="http://www.w3.org/1999/xlink" x="0px" y="0px"
	 viewBox="0 -12.825 213.02 213.02" style="enable-background:new 0 0 213.02 187.37;" xml:space="preserve">
<rect x="0" y="-12.825" width="213.02" height="213.02" fill="#ffc72c"/>
<g>
	<path style="fill:#FFCC00;" d="M150.87,17.6c17.48,0,31.65,73.72,31.65,164.77h25.5C208.02,84.35,182.3,5,150.8,5
		c-18,0-33.9,23.78-44.4,61.12C95.9,28.77,80,5,62.15,5C30.65,5,5,84.28,5,182.3h25.5C30.5,91.25,44.53,17.6,62,17.6
		s31.65,68.1,31.65,152.1H119c0-84,14.25-152.1,31.73-152.1H150.87L150.87,17.6z M150.87,17.6L150.87,17.6L150.87,17.6L150.87,17.6z
		"/>
</g>
</svg>
