<?xml version="1.0" encoding="UTF-8"?>
<svg version="1.1" xmlns="http://www.w3.org/2000/svg" width="225" height="225">
<path d="M0 0 C74.25 0 148.5 0 225 0 C225 74.25 225 148.5 225 225 C150.75 225 76.5 225 0 225 C0 150.75 0 76.5 0 0 Z " fill="#FFE600" transform="translate(0,0)"/>
<path d="M0 0 C2.6379885 2.2331707 3.13179271 3.19707658 3.44140625 6.5859375 C3.40466797 7.72095703 3.40466797 7.72095703 3.3671875 8.87890625 C3.29238876 11.9456545 4.41133529 13.63251743 6.31640625 15.9609375 C9.34111207 17.84897043 11.08641877 17.96764498 14.56640625 17.6484375 C16.9375 17.875 16.9375 17.875 19.31640625 18.9609375 C28.7264992 30.96748843 32.7497664 47.98057589 31.31640625 62.9609375 C28.91432945 81.60474894 22.07085661 98.65826524 7.31640625 110.9609375 C-10.80243653 124.47254398 -30.03203132 128.1145607 -52.37109375 125.53515625 C-69.21060283 121.8057541 -84.36965805 111.06591189 -93.97265625 96.84375 C-101.20564531 84.65665884 -105.23086942 72.64496755 -105.05859375 58.4609375 C-105.07019531 57.50574219 -105.08179688 56.55054687 -105.09375 55.56640625 C-105.03394005 40.83322183 -99.6565008 27.48170705 -90.68359375 15.9609375 C-90.09835938 15.1978125 -89.513125 14.4346875 -88.91015625 13.6484375 C-80.72078312 3.6967942 -69.81477218 -2.936343 -57.68359375 -7.0390625 C-56.28753906 -7.51666016 -56.28753906 -7.51666016 -54.86328125 -8.00390625 C-36.38670167 -13.46632828 -16.49837782 -9.45714273 0 0 Z " fill="#FEE400" transform="translate(149.68359375,54.0390625)"/>
<path d="M0 0 C6.05053843 3.26391539 6.05053843 3.26391539 12.73046875 3.5546875 C16.41793892 3.48069144 18.41395027 4.05315483 21.35546875 6.3046875 C23.81686895 8.70911084 24.84555024 10.52598143 25.35546875 13.9296875 C25.35546875 17.8046875 25.35546875 17.8046875 24.66015625 19.73828125 C24.19757426 22.87553601 25.66406211 24.21517826 27.48046875 26.7421875 C38.2218123 42.82204312 41.10311874 63.14834757 37.703125 82.07421875 C34.61401113 94.7356082 28.798504 105.89599087 20.35546875 115.8046875 C19.63359375 116.7946875 18.91171875 117.7846875 18.16796875 118.8046875 C7.04673941 131.79141337 -12.50979491 141.0643011 -29.37890625 142.67578125 C-53.26014542 144.03454141 -73.74337545 137.39628544 -91.75390625 121.5625 C-106.22089916 107.76020676 -114.47053838 88.90824455 -115.16577148 69.05688477 C-115.45462806 47.16360704 -108.37381293 29.12562334 -93.64453125 12.8046875 C-68.27486502 -12.38707083 -31.0797617 -16.95928119 0 0 Z M-91.45703125 23.1171875 C-97.97350101 31.46386433 -102.06870734 40.57551627 -104.64453125 50.8046875 C-104.81509033 51.40893555 -104.98564941 52.01318359 -105.16137695 52.63574219 C-108.91352022 69.47962332 -104.99936084 87.58946836 -96.35546875 102.22265625 C-86.28178039 117.42518594 -71.48263966 129.31733319 -53.375 133.3359375 C-32.15698775 136.00207517 -12.59478266 133.2135816 4.66796875 119.9921875 C18.81965436 107.83239217 28.46324942 91.89449948 30.22265625 73 C30.28839844 71.91332031 30.28839844 71.91332031 30.35546875 70.8046875 C30.45214844 69.40863281 30.45214844 69.40863281 30.55078125 67.984375 C31.07486856 53.76413928 27.26304436 38.17439228 18.35546875 26.8046875 C15.20397099 25.39176601 12.73593089 25.60469833 9.35546875 25.8046875 C5.52031166 24.09110667 3.87910347 22.68749857 2.35546875 18.8046875 C2.45679422 17.38613098 2.58291349 15.96918278 2.73046875 14.5546875 C2.64470529 12.10155511 2.64470529 12.10155511 1.35546875 9.8046875 C-28.29232179 -11.49530343 -68.26876875 -3.74254989 -91.45703125 23.1171875 Z " fill="#FEFDF5" transform="translate(150.64453125,46.1953125)"/>
<path d="M0 0 C1.45823212 -0.0270043 2.91660675 -0.04639787 4.375 -0.0625 C5.18710938 -0.07410156 5.99921875 -0.08570312 6.8359375 -0.09765625 C9 0 9 0 11 1 C11 5.29 11 9.58 11 14 C11.48210937 13.15695313 11.96421875 12.31390625 12.4609375 11.4453125 C13.09257813 10.34960938 13.72421875 9.25390625 14.375 8.125 C15.00148438 7.03445312 15.62796875 5.94390625 16.2734375 4.8203125 C18 2 18 2 20 0 C22.3828125 -0.1953125 22.3828125 -0.1953125 25.125 -0.125 C26.03507812 -0.10695313 26.94515625 -0.08890625 27.8828125 -0.0703125 C28.58148438 -0.04710938 29.28015625 -0.02390625 30 0 C29.20096378 9.74824187 27.57475983 19.353358 26 29 C23.66705225 29.04241723 21.33297433 29.04092937 19 29 C18 28 18 28 17.8125 24.625 C17.86081628 19.31020958 18.93153349 14.18969447 20 9 C19.45730469 10.10859375 18.91460937 11.2171875 18.35546875 12.359375 C17.63302726 13.82302269 16.91035908 15.2865585 16.1875 16.75 C15.65286133 17.84441406 15.65286133 17.84441406 15.10742188 18.9609375 C11.30703404 26.63144505 11.30703404 26.63144505 9 29 C5.375 29.3125 5.375 29.3125 2 29 C1 28 1 28 0.97827148 26.14233398 C1.02540283 25.35157471 1.07253418 24.56081543 1.12109375 23.74609375 C1.16943359 22.89208984 1.21777344 22.03808594 1.26757812 21.15820312 C1.32365234 20.26037109 1.37972656 19.36253906 1.4375 18.4375 C1.48970703 17.53580078 1.54191406 16.63410156 1.59570312 15.70507812 C1.72580249 13.4697345 1.86077936 11.2347911 2 9 C1.79431396 9.57032959 1.58862793 10.14065918 1.37670898 10.72827148 C0.42655444 13.31004711 -0.56707428 15.87285804 -1.5625 18.4375 C-1.88541016 19.33533203 -2.20832031 20.23316406 -2.54101562 21.15820312 C-3.52846439 23.65033571 -4.44365126 25.81515882 -6 28 C-9.77734375 29.09765625 -9.77734375 29.09765625 -13 29 C-11.39858697 25.29047159 -9.79338057 21.58259632 -8.1875 17.875 C-7.73568359 16.82828125 -7.28386719 15.7815625 -6.81835938 14.703125 C-4.66422533 9.73446546 -2.5018102 4.80414051 0 0 Z " fill="#E20600" transform="translate(64,90)"/>
<path d="M0 0 C2.125 1.6875 2.125 1.6875 4.125 4.6875 C4.44411001 10.86759722 3.3352694 16.00942289 -0.875 20.6875 C-5.09322294 23.33895442 -10.0407624 23.33439617 -14.875 22.6875 C-17.9375 21.4375 -17.9375 21.4375 -19.875 18.6875 C-20.69872432 13.93576795 -21.03069979 9.07169956 -18.8828125 4.640625 C-13.94945127 -1.54905803 -7.22092916 -3.29651114 0 0 Z " fill="#E20400" transform="translate(170.875,96.3125)"/>
<path d="M0 0 C0.845625 -0.00773437 1.69125 -0.01546875 2.5625 -0.0234375 C5.49214898 0.45544743 6.87571721 1.32313594 9 3.375 C9.5 6.3125 9.5 6.3125 9 9.375 C6.76793569 12.22280619 5.45007001 13.22497666 2 14.375 C0.60560336 14.44165376 -0.79169875 14.46038199 -2.1875 14.4375 C-4.0746875 14.4065625 -4.0746875 14.4065625 -6 14.375 C-5.51294288 16.43902968 -5.51294288 16.43902968 -4 18.375 C-0.23593762 19.21145831 3.14364222 19.375 7 19.375 C6.6875 21.3125 6.6875 21.3125 6 23.375 C1.66679898 24.81940034 -2.4714847 24.91668843 -7 24.375 C-9.93423195 22.57853146 -11.47205355 21.4308929 -13 18.375 C-13.57425085 13.66802583 -13.45554552 10.25355208 -11.25 6 C-7.76085244 1.92932784 -5.48084647 -0.05012969 0 0 Z " fill="#E10400" transform="translate(107,94.625)"/>
<path d="M0 0 C0.8971875 0.309375 0.8971875 0.309375 1.8125 0.625 C1.4825 2.275 1.1525 3.925 0.8125 5.625 C2.4625 5.625 4.1125 5.625 5.8125 5.625 C5.4825 6.945 5.1525 8.265 4.8125 9.625 C3.1625 9.625 1.5125 9.625 -0.1875 9.625 C-0.5175 14.245 -0.8475 18.865 -1.1875 23.625 C0.7925 23.625 2.7725 23.625 4.8125 23.625 C3.0625 27.5 3.0625 27.5 0.8125 28.625 C-5.65808824 28.97794118 -5.65808824 28.97794118 -9.1875 26.625 C-10.2946037 20.88710768 -8.78613205 15.12029767 -7.1875 9.625 C-8.1775 9.625 -9.1675 9.625 -10.1875 9.625 C-9.8575 8.305 -9.5275 6.985 -9.1875 5.625 C-8.1975 5.625 -7.2075 5.625 -6.1875 5.625 C-6.0328125 4.696875 -6.0328125 4.696875 -5.875 3.75 C-4.85895141 0.60948619 -3.30129273 -0.5659359 0 0 Z " fill="#E10300" transform="translate(127.1875,90.375)"/>
<path d="M0 0 C-0.0625 2.75 -0.0625 2.75 -1 6 C-2.75143861 6.90815335 -4.5051542 7.81294343 -6.28125 8.671875 C-9.74265938 11.34660043 -10.14726419 15.9068681 -11 20 C-11.32908876 21.3343873 -11.66086647 22.66813013 -12 24 C-14.375 24.125 -14.375 24.125 -17 24 C-17.66 23.34 -18.32 22.68 -19 22 C-18.828125 19.2421875 -18.828125 19.2421875 -18.25 15.875 C-18.05148438 14.71355469 -17.85296875 13.55210938 -17.6484375 12.35546875 C-16.90676877 8.51755647 -16.03454558 4.76870175 -15 1 C-12.125 0.875 -12.125 0.875 -9 1 C-8.34 1.66 -7.68 2.32 -7 3 C-6.401875 2.505 -5.80375 2.01 -5.1875 1.5 C-3 0 -3 0 0 0 Z " fill="#E20900" transform="translate(152,95)"/>
<path d="M0 0 C1.875 1.125 1.875 1.125 3 3 C3.39365568 6.14924548 3.52854531 8.11909116 1.875 10.875 C-0.88090884 12.52854531 -2.85075452 12.39365568 -6 12 C-7.875 10.875 -7.875 10.875 -9 9 C-9.39365568 5.85075452 -9.52854531 3.88090884 -7.875 1.125 C-5.11909116 -0.52854531 -3.14924548 -0.39365568 0 0 Z " fill="#E10303" transform="translate(167,55)"/>
<path d="M0 0 C0.86625 0.020625 1.7325 0.04125 2.625 0.0625 C4.47963477 0.0625 6.33506788 0.02786254 8.1875 -0.0625 C10.625 0.0625 10.625 0.0625 12.625 2.0625 C12.25 4.6875 12.25 4.6875 11.625 7.0625 C8.33803767 7.86203138 6.91476808 8.15908936 3.625 7.0625 C1.61624558 7.33821139 -0.38678687 7.66485737 -2.375 8.0625 C-4.375 5.0625 -4.375 5.0625 -4.0625 2.9375 C-3.06753698 0.22396449 -2.97130647 0.07819228 0 0 Z " fill="#F08200" transform="translate(108.375,143.9375)"/>
<path d="M0 0 C0.38543664 4.817958 0.41939551 8.14623056 -1.75 12.5625 C-2.4925 13.366875 -3.235 14.17125 -4 15 C-5.32 15 -6.64 15 -8 15 C-9.22487152 12.55025696 -8.98796191 11.3246727 -8.6875 8.625 C-8.60886719 7.85414062 -8.53023437 7.08328125 -8.44921875 6.2890625 C-7.97408477 3.86794501 -7.28307199 2.10294109 -6 0 C-3.50907189 -1.24546405 -2.58919267 -0.7767578 0 0 Z " fill="#FCDB00" transform="translate(167,100)"/>
<path d="M0 0 C0.86625 0.020625 1.7325 0.04125 2.625 0.0625 C3.615 0.0625 4.605 0.0625 5.625 0.0625 C7.29166667 0.0625 8.95833333 0.0625 10.625 0.0625 C10.625 1.0525 10.625 2.0425 10.625 3.0625 C9.965 3.7225 9.305 4.3825 8.625 5.0625 C9.615 5.0625 10.605 5.0625 11.625 5.0625 C11.295 6.0525 10.965 7.0425 10.625 8.0625 C9.59375 7.876875 8.5625 7.69125 7.5 7.5 C3.86351558 7.08942918 1.17062991 7.284191 -2.375 8.0625 C-4.375 5.0625 -4.375 5.0625 -4.0625 2.9375 C-3.06753698 0.22396449 -2.97130647 0.07819228 0 0 Z " fill="#F08100" transform="translate(82.375,143.9375)"/>
<path d="M0 0 C0.33 0 0.66 0 1 0 C1.05395478 1.62463842 1.09277195 3.24978541 1.125 4.875 C1.14820313 5.77992188 1.17140625 6.68484375 1.1953125 7.6171875 C1 10 1 10 -1 12 C-5.55555556 11.44444444 -5.55555556 11.44444444 -7 10 C-7.125 7.5 -7.125 7.5 -7 5 C-6 4 -6 4 -2.9375 3.9375 C-1.4834375 3.9684375 -1.4834375 3.9684375 0 4 C0 2.68 0 1.36 0 0 Z " fill="#E11500" transform="translate(147,140)"/>
<path d="M0 0 C2.5625 0.1875 2.5625 0.1875 4.5625 2.1875 C4.1875 4.8125 4.1875 4.8125 3.5625 7.1875 C1.1875 7.8125 1.1875 7.8125 -1.4375 8.1875 C-3.4375 6.1875 -3.4375 6.1875 -3.625 3.625 C-3.37291261 0.34786389 -3.27713611 0.25208739 0 0 Z " fill="#E21D00" transform="translate(116.4375,143.8125)"/>
<path d="M0 0 C1.2065625 0.0309375 1.2065625 0.0309375 2.4375 0.0625 C2.4375 1.0525 2.4375 2.0425 2.4375 3.0625 C1.7775 3.7225 1.1175 4.3825 0.4375 5.0625 C1.4275 5.0625 2.4175 5.0625 3.4375 5.0625 C3.1075 6.0525 2.7775 7.0425 2.4375 8.0625 C-2.4375 7.1875 -2.4375 7.1875 -3.5625 6.0625 C-3.6875 3.5625 -3.6875 3.5625 -3.5625 1.0625 C-2.5625 0.0625 -2.5625 0.0625 0 0 Z " fill="#E63600" transform="translate(90.5625,143.9375)"/>
<path d="M0 0 C2.625 0.375 2.625 0.375 5 1 C4.125 4.875 4.125 4.875 3 6 C1.00041636 6.04080783 -1.00045254 6.04254356 -3 6 C-2.42655063 3.13275314 -2.1385485 2.1385485 0 0 Z " fill="#FBD200" transform="translate(105,99)"/>
<path d="M0 0 C0.33 0 0.66 0 1 0 C0.67 4.62 0.34 9.24 0 14 C-0.33 13.01 -0.66 12.02 -1 11 C-2.98 11.99 -2.98 11.99 -5 13 C-4.54554036 11.58208592 -4.08625056 10.16571954 -3.625 8.75 C-3.24214844 7.56664063 -3.24214844 7.56664063 -2.8515625 6.359375 C-2.04826333 4.13372042 -1.10288338 2.09068328 0 0 Z " fill="#F7BE00" transform="translate(66,98)"/>
<path d="M0 0 C2.31 0 4.62 0 7 0 C7 0.33 7 0.66 7 1 C5.02 1 3.04 1 1 1 C1 1.66 1 2.32 1 3 C2.98 3 4.96 3 7 3 C7.5625 4.9375 7.5625 4.9375 8 7 C7 8 7 8 3.4375 8.0625 C2.303125 8.041875 1.16875 8.02125 0 8 C0 7.34 0 6.68 0 6 C1.98 6 3.96 6 6 6 C6 5.34 6 4.68 6 4 C4.02 4 2.04 4 0 4 C0 2.68 0 1.36 0 0 Z " fill="#E22100" transform="translate(122,144)"/>
<path d="M0 0 C2.4375 0.1875 2.4375 0.1875 3.4375 1.1875 C3.47842937 3.52047433 3.47991723 5.85455225 3.4375 8.1875 C3.1075 8.1875 2.7775 8.1875 2.4375 8.1875 C1.7775 6.2075 1.1175 4.2275 0.4375 2.1875 C-0.5525 2.5175 -1.5425 2.8475 -2.5625 3.1875 C-2.8925 4.8375 -3.2225 6.4875 -3.5625 8.1875 C-3.8925 8.1875 -4.2225 8.1875 -4.5625 8.1875 C-4.6875 5.3125 -4.6875 5.3125 -4.5625 2.1875 C-2.5625 0.1875 -2.5625 0.1875 0 0 Z " fill="#E11400" transform="translate(99.5625,143.8125)"/>
<path d="M0 0 C1.32 0 2.64 0 4 0 C4 1.65 4 3.3 4 5 C2.35 4.67 0.7 4.34 -1 4 C-0.67 2.68 -0.34 1.36 0 0 Z " fill="#FBD600" transform="translate(142,145)"/>
<path d="M0 0 C0.99 1.485 0.99 1.485 2 3 C2.66 3 3.32 3 4 3 C3.3405469 6.69293736 2.47070566 7.70572579 0 11 C0 7.37 0 3.74 0 0 Z " fill="#F9C600" transform="translate(74,95)"/>
<path d="M0 0 C1.98 0.495 1.98 0.495 4 1 C4 2.32 4 3.64 4 5 C2.35 4.67 0.7 4.34 -1 4 C-0.67 2.68 -0.34 1.36 0 0 Z " fill="#FBD600" transform="translate(115,145)"/>
<path d="M0 0 C0.99 0.33 1.98 0.66 3 1 C3 2.98 3 4.96 3 7 C2.01 7 1.02 7 0 7 C-0.33 7.99 -0.66 8.98 -1 10 C-0.67 6.7 -0.34 3.4 0 0 Z " fill="#F6B300" transform="translate(91,105)"/>
<path d="M0 0 C0.66 0 1.32 0 2 0 C1.67 2.64 1.34 5.28 1 8 C0.34 7.34 -0.32 6.68 -1 6 C-1.99 5.67 -2.98 5.34 -4 5 C-2.71937515 3.2925002 -1.38232443 1.62626404 0 0 Z " fill="#FBD300" transform="translate(94,144)"/>
<path d="M0 0 C1.32 0 2.64 0 4 0 C3.67 1.65 3.34 3.3 3 5 C1.68 4.67 0.36 4.34 -1 4 C-0.67 2.68 -0.34 1.36 0 0 Z " fill="#FBD500" transform="translate(116,100)"/>
</svg>
