<?xml version="1.0" encoding="UTF-8" standalone="no"?>
<svg
   version="1.1"
   width="612pt"
   height="791.99969pt"
   id="svg10"
   viewBox="0 0 612 791.99969"
   sodipodi:docname="metro-cencosud-4414.cdr"
   xmlns:inkscape="http://www.inkscape.org/namespaces/inkscape"
   xmlns:sodipodi="http://sodipodi.sourceforge.net/DTD/sodipodi-0.dtd"
   xmlns="http://www.w3.org/2000/svg"
   xmlns:svg="http://www.w3.org/2000/svg">
  <defs
     id="defs10" />
  <sodipodi:namedview
     id="namedview10"
     pagecolor="#ffffff"
     bordercolor="#000000"
     borderopacity="0.25"
     inkscape:showpageshadow="2"
     inkscape:pageopacity="0.0"
     inkscape:pagecheckerboard="0"
     inkscape:deskcolor="#d1d1d1"
     inkscape:document-units="pt" />
  <g
     id="Layer1000">
    <path
       d="m 505.8697,250.5019 c 31.3306,42.7589 48.0797,95.8526 47.2809,148.8376 -0.6473,42.8642 -12.4054,85.5134 -34.2299,122.4417 -20.5806,34.8207 -49.8526,64.3587 -84.3775,85.4081 -40.1975,24.5093 -87.4815,37.1545 -134.5494,35.9203 -29.4929,-0.7715 -58.8426,-6.7358 -86.2356,-17.7094 C 170.767,608.1798 132.9785,578.5652 105.8195,541.0608 89.979,519.1881 77.724,494.7339 69.7356,468.9355 58.7762,433.5421 56.1011,395.6871 61.5735,359.0643 c 7.358,-49.2572 29.9753,-95.9554 64.0996,-132.23 29.5004,-31.3571 67.182,-54.8359 108.3593,-67.4137 62.8563,-19.2007 133.1698,-12.173 190.7348,19.6556 6.6672,3.6856 13.2189,7.5767 19.494,11.8948 6.0735,-5.5617 13.6995,-9.2891 21.8296,-10.7447 10.7066,-1.916 21.7989,0.6108 30.8705,6.5408 9.5794,6.2617 16.4154,16.3954 18.3994,27.6958 0.854,4.8582 0.837,9.8128 0.1995,14.6952 -1.0454,7.9945 -4.5446,15.3815 -9.6905,21.3438 z"
       style="fill:#ffffff;fill-rule:evenodd"
       id="path1" />
    <path
       d="m 505.8697,250.5019 c 31.3306,42.7589 48.0797,95.8526 47.2809,148.8376 -0.6473,42.8642 -12.4054,85.5134 -34.2299,122.4417 -20.5806,34.8207 -49.8526,64.3587 -84.3775,85.4081 -40.1975,24.5093 -87.4815,37.1545 -134.5494,35.9203 -29.4929,-0.7715 -58.8426,-6.7358 -86.2356,-17.7094 C 170.767,608.1798 132.9785,578.5652 105.8195,541.0608 89.979,519.1881 77.724,494.7339 69.7356,468.9355 58.7762,433.5421 56.1011,395.6871 61.5735,359.0643 c 7.358,-49.2572 29.9753,-95.9554 64.0996,-132.23 29.5004,-31.3571 67.182,-54.8359 108.3593,-67.4137 62.8563,-19.2007 133.1698,-12.173 190.7348,19.6556 6.6672,3.6856 13.2189,7.5767 19.494,11.8948 6.0735,-5.5617 13.6995,-9.2891 21.8296,-10.7447 10.7066,-1.916 21.7989,0.6108 30.8705,6.5408 9.5794,6.2617 16.4154,16.3954 18.3994,27.6958 0.854,4.8582 0.837,9.8128 0.1995,14.6952 -1.0454,7.9945 -4.5446,15.3815 -9.6905,21.3438 z"
       style="fill:none;stroke:#9a9c9a;stroke-width:0.5568;stroke-linecap:butt;stroke-linejoin:miter;stroke-dasharray:none"
       id="path2" />
    <path
       d="m 240.4627,180.4728 c 57.1611,-17.5919 121.2632,-10.979 173.6539,17.8674 6.8756,3.8165 13.6604,7.8494 20.0531,12.4438 -2.7834,9.8493 -2.0144,20.7575 2.7003,29.8971 4.2469,8.6565 11.7302,15.6458 20.6386,19.3364 9.0627,3.8772 19.4673,4.129 28.8238,1.1004 29.6464,39.2946 45.8111,88.6422 44.807,137.8896 -0.3813,39.0544 -11.2656,77.9667 -31.1702,111.575 -18.7158,31.7311 -45.4122,58.6899 -76.8872,77.8124 -36.5637,22.3691 -79.651,33.967 -122.5124,32.7103 -26.887,-0.6201 -53.673,-6.0913 -78.6264,-16.1406 C 182.7816,589.3639 148.3191,562.3197 123.6485,528.1505 109.1859,508.2397 98.0269,485.9347 90.7628,462.4219 80.7573,430.1835 78.2789,395.6801 83.3443,362.3178 c 6.5884,-44.8384 27.2521,-87.4492 58.3627,-120.3995 26.8209,-28.6144 61.2179,-50.0643 98.7557,-61.4455 z"
       style="fill:#ffec00;fill-rule:evenodd"
       id="path3" />
    <path
       d="m 469.9691,201.8946 c 5.1677,-0.9799 10.5982,0.4365 14.9473,3.2978 4.5331,2.9444 7.5505,7.8728 8.7621,13.0767 0.3173,2.6575 0.2632,5.3693 0.0549,8.034 -1.464,7.9625 -7.958,14.6952 -15.879,16.4093 -1.7311,0.2153 -3.4753,0.1136 -5.2147,0.1434 -7.3299,0.532 -14.3117,-4.3128 -17.683,-10.6324 -4.1691,-7.6043 -2.818,-17.7123 3.1385,-24.003 3.1346,-3.3149 7.3706,-5.5671 11.8739,-6.3258 z"
       style="fill:#e30016;fill-rule:evenodd"
       id="path4" />
    <path
       d="m 196.7414,541.2143 v 0 c -1.0748,4.9827 0.9139,10.3712 4.8265,13.603 5.9862,5.4289 16.6541,4.0839 20.9199,-2.8466 -1.2117,-1.3489 -2.4723,-2.6441 -3.8215,-3.8507 -1.6685,2.0377 -3.682,4.1337 -6.4587,4.4078 -5.1724,0.9982 -10.5375,-3.7093 -10.162,-8.9722 0.0668,-4.5908 4.3794,-8.5897 8.9663,-8.3195 3.1365,-0.0727 5.7963,1.9996 7.4391,4.5259 1.4397,-1.2225 2.7828,-2.545 4.0014,-3.9825 -2.5745,-3.9808 -7.3472,-6.333 -12.0667,-6.1219 -6.5104,-0.0214 -12.5449,5.1638 -13.6443,11.5567 z m 38.528,-11.4673 v 5.6905 c -1.345,0.2838 -2.6149,0.8932 -3.6711,1.8639 -2.6884,2.145 -3.5549,5.7994 -2.88,9.0736 1.7815,-0.6565 3.1187,-2.0537 4.6479,-3.1297 0.6239,-0.4932 1.2615,-0.9737 1.9032,-1.4475 v 7.0759 c -0.9737,0.7565 -1.9338,1.5316 -2.8711,2.3355 0.8913,0.5011 1.8659,0.8835 2.8711,1.1094 v 5.7189 c -3.8184,-0.5524 -7.4324,-2.6177 -9.6158,-5.8437 -2.9497,-3.9669 -3.4402,-9.4841 -1.5161,-13.9944 v 0 c 1.9005,-4.4925 6.3102,-7.8204 11.1319,-8.4521 z m 15.8859,12.5923 v 0 c 0,5.2373 0.0363,10.4745 -0.0178,15.7157 1.8993,0.2574 3.8165,0.2624 5.7169,-0.0214 0.005,-5.2237 -0.0952,-10.4512 0.0234,-15.6718 0.1023,-3.7212 3.6279,-6.78 7.2762,-6.7151 3.8646,-0.1129 7.5917,3.3457 7.3235,7.3009 0.007,5.0298 0.007,10.0579 -0.0295,15.086 1.9288,0.3016 3.8774,0.1924 5.825,0.11 -0.0137,-5.6637 0.232,-11.3442 -0.1073,-16.9942 -0.622,-7.0266 -8.012,-12.0606 -14.8038,-10.957 -5.9556,0.6473 -11.4102,5.9751 -11.2066,12.1469 z m -15.8859,6.5344 c 3.287,-2.5531 6.7339,-4.9014 10.0128,-7.4639 1.5183,-1.2893 3.4903,-2.1912 4.6005,-3.8686 -2.0544,-4.869 -7.3834,-7.9758 -12.6109,-7.8972 -0.671,-0.0179 -1.34,0.0167 -2.0024,0.1033 v 5.6902 c 2.262,-0.4797 4.7362,-0.0513 6.7701,1.0888 -2.0977,1.9553 -4.4658,3.5747 -6.7701,5.2715 z m 0,9.1638 v -5.7189 c 1.8013,0.4108 3.7034,0.3223 5.4092,-0.4548 1.9113,-0.7852 3.2602,-2.4183 4.527,-3.9825 1.3854,1.2645 2.7059,2.599 3.9304,4.0265 -1.8629,2.5391 -4.456,4.5927 -7.4728,5.5676 -2.0517,0.7044 -4.2546,0.8715 -6.3938,0.5621 z m 69.0832,-6.0676 c -1.2016,-1.3286 -2.4486,-2.601 -3.7947,-3.7714 -1.5545,1.6654 -3.1603,3.5285 -5.4674,4.1026 -5.13,1.6723 -11.2116,-2.6885 -11.074,-8.1313 -0.3938,-4.9738 4.4198,-9.5097 9.3663,-8.9181 3.0413,0.0785 5.3465,2.265 7.1642,4.4808 1.2183,-1.2913 2.872,-2.318 3.619,-3.9611 -2.2698,-4.1081 -7.3372,-6.3249 -11.9486,-6.1138 -5.9918,0.0571 -11.5594,4.4248 -13.2376,10.1406 v 0 c -1.242,4.4582 -0.459,9.6069 2.6539,13.1482 3.0452,3.8343 8.1596,5.832 12.9981,5.1008 3.9,-0.4796 7.5521,-2.6884 9.7208,-5.9684 z m 0,-9.0471 v 2.8319 c -0.0423,-0.5295 -0.054,-1.061 -0.0323,-1.5966 -0.01,-0.4147 0,-0.8256 0.0323,-1.2353 z m 0,9.156 0.0412,-0.0638 -0.0412,-0.0451 z m 14.1802,-21.9858 v 5.5812 c -0.749,-0.004 -1.5016,0.0953 -2.2417,0.3145 -3.7975,0.9974 -6.7976,4.7785 -6.4695,8.7797 0.0298,4.5356 4.2432,8.3942 8.7109,8.3234 l 3e-4,5.5735 c -3.5257,0.002 -7.0514,-1.2323 -9.6189,-3.7054 -2.6561,-2.3307 -4.288,-5.7041 -4.5613,-9.205 v -2.8321 c 0.4373,-5.8464 5.0624,-11.0659 10.7626,-12.3964 v 0 c 1.1261,-0.2989 2.2725,-0.4393 3.4173,-0.4334 z m 18.3922,2.5981 c 2.3887,-1.9416 5.5851,-1.7403 8.4702,-1.6921 3.8658,0.0323 7.7368,-0.0365 11.6026,0.0443 0.0827,1.8609 0.0825,3.7377 0,5.6155 -5.0122,0.1591 -10.0375,-0.0679 -15.0439,0.0934 -1.7912,-0.0346 -3.0873,1.9171 -2.2628,3.549 1.2665,1.8573 3.7644,1.3916 5.6921,1.4701 3.6859,0.1552 7.8009,-0.7409 11.0467,1.5161 4.4078,2.7129 4.6173,9.9529 0.442,12.9697 -1.8767,1.5102 -4.344,1.9876 -6.6973,1.965 -4.7724,-0.0303 -9.5401,0.0591 -14.3128,-0.0727 -0.0646,-1.8639 -0.0649,-3.7329 -0.006,-5.591 5.3347,-0.2094 10.6859,0.1749 16.0087,-0.1858 2.426,-0.0824 3.0951,-3.954 0.6869,-4.6406 -5.0476,-1.0654 -10.7874,1.0748 -15.4113,-1.8829 -4.4738,-2.8113 -4.6173,-10.2192 -0.2153,-13.158 z m -18.3922,25.9742 v -5.5735 c 0.1766,-0.004 0.3535,-0.0117 0.5295,-0.0245 4.7323,-0.161 8.7471,-4.7922 8.1438,-9.5055 -0.2683,-4.3856 -4.405,-7.853 -8.6736,-7.8876 l 3e-4,-5.5812 c 5.2459,0.0206 10.381,3.1051 12.7599,7.8471 2.6876,5.4025 1.6665,12.6109 -2.8742,16.7279 -2.5781,2.6639 -6.2316,3.9953 -9.886,3.9973 z m 72.5546,-23.5944 v 17.739 c -1.422,-1.8157 -2.4113,-3.9649 -2.7662,-6.2542 -0.7189,-3.8825 0.2889,-8.3315 2.7662,-11.4848 z M 360.8085,531.06 v 0 c -0.0435,4.9691 -0.1271,9.9507 0.0222,14.9217 0.2223,5.5253 4.4622,10.569 9.839,11.7914 4.4916,1.1624 9.5941,-0.2211 12.7591,-3.6485 2.2945,-2.3129 3.512,-5.5272 3.5925,-8.7588 0.0944,-4.7618 0.004,-9.5264 0.0354,-14.2824 -2.091,-0.1139 -4.1839,-0.108 -6.2681,0.006 -0.006,4.7607 0.066,9.5264 0.0119,14.2882 0.007,3.5304 -3.2357,6.6305 -6.7497,6.5422 -3.5844,0.2396 -7.0659,-2.9154 -6.9893,-6.5352 -0.0467,-4.7805 0.0708,-9.5532 -0.0412,-14.3245 -2.0731,-0.0846 -4.1476,-0.0846 -6.2121,0 z m 41.0336,-0.0936 v 5.7111 c -1.5575,0.0825 -3.0984,0.3056 -4.5888,0.7791 -4.4396,2.5508 -4.3914,9.671 -0.5691,12.7839 1.3994,1.345 3.2781,1.9759 5.1576,1.9514 l 3e-4,6.0085 c -4.2095,0.0699 -8.1883,-2.1143 -10.7547,-5.3905 v -17.739 c 1.3453,-1.7158 3.1257,-3.0471 5.2991,-3.6936 1.804,-0.3273 3.6259,-0.4097 5.4556,-0.4109 z m 0,27.234 v -6.0085 c 2.2993,-0.0265 4.5995,-1.0367 6.0194,-2.9135 3.0227,-3.441 1.5348,-8.2844 1.913,-12.4132 -2.6096,-0.0788 -5.2983,-0.3292 -7.9327,-0.1877 l 3e-4,-5.7111 c 2.6375,-0.006 5.2872,0.1555 7.9196,-0.0156 0,-3.6003 -0.0549,-7.2026 0.0354,-10.7987 h 2e-4 c 1.864,-0.066 3.7396,-0.066 5.6153,0.0108 0.1061,8.2026 0.0345,16.4093 0.0482,24.6172 -0.0961,6.7809 -5.8671,13.0479 -12.7059,13.3693 -0.3067,0.0304 -0.6103,0.0452 -0.9131,0.051 z"
       style="fill:#e30016;fill-rule:evenodd"
       id="path5" />
    <path
       d="m 356.5193,357.1404 3.739,-20.7254 c 0,0 -25.2405,-1.6211 -29.4087,20.7254 h -8.9574 l -3.1238,14.5632 h 10.0011 l -7.5475,42.6531 c -2.9753,23.9216 22.9223,22.9203 22.9223,22.9203 27.5053,0 25.2814,-19.7269 25.2814,-19.7269 0.004,-0.002 -25.8387,13.0599 -21.9485,-10.2791 l 6.4166,-35.5674 h 8.1123 c 0,0 8.8237,0 10.4186,-5.2746 l 2.5007,-9.2886 z"
       style="fill:#e30016;fill-rule:evenodd"
       id="path6" />
    <path
       d="m 479.8975,369.0614 c -7.0865,-1.1712 -15.4673,6.606 -18.9273,23.8105 -2.9909,14.8863 -3.5619,28.4398 6.4088,29.7308 9.0362,1.1693 15.8495,-8.9388 18.9259,-23.8086 3.458,-16.7143 3.4903,-28.0966 -6.4074,-29.7327 z m 33.1444,33.7798 c -5.6846,22.7231 -22.6053,34.0269 -46.9433,34.0269 -19.5105,0 -41.2548,-12.1372 -32.1206,-48.2686 5.6582,-22.3858 22.0067,-34.0266 46.9422,-34.0266 22.5363,0 40.9875,12.817 32.1217,48.2683 z"
       style="fill:#e30016;fill-rule:evenodd"
       id="path7" />
    <path
       d="m 286.3651,368.6163 c -14.5612,-1.2598 -18.5459,20.7341 -18.5459,20.7341 0,-3e-4 22.0881,2.1882 25.5263,-9.6896 0,0 3.8557,-10.1061 -6.9804,-11.0445 z m -19.5865,35.3207 c 0,0 -4.1671,27.5033 44.7323,11.9446 0,0 1.527,20.8383 -28.0623,20.8383 0,-3e-4 -49.0075,5.3796 -42.9252,-42.9252 0,-3e-4 5.1401,-40.1465 46.2593,-40.1465 0,0 30.0067,-1.3883 30.0067,22.5047 0,0 2.2228,29.1726 -50.0108,27.7841 z"
       style="fill:#e30016;fill-rule:evenodd"
       id="path8" />
    <path
       d="m 408.1278,373.8614 c 12.6374,-22.2307 29.5205,-17.9894 29.5205,-17.9894 l -5.5568,24.726 c -24.4492,-5.2793 -28.3395,20.8383 -28.3395,20.8383 l -6.6675,33.1904 h -12.504 c -15.1105,0 -10.279,-15.4071 -10.279,-15.4071 l 11.8374,-62.0792 h 14.7668 c 0,0 10.9726,-0.3576 8.3755,9.6454 z"
       style="fill:#e30016;fill-rule:evenodd"
       id="path9" />
    <path
       d="m 106.188,434.9952 c 0,0 11.9836,1.1339 16.1138,-10.7762 l 27.0662,-63.0599 -6.3667,60.2812 c 0,0 -3.1257,13.5549 9.3769,13.5549 h 12.5023 c 7.8145,0 11.0444,-7.3026 11.0444,-7.3026 l 33.7358,-63.3557 -10.0353,59.0047 c -2.5007,12.477 10.0353,11.6536 10.0353,11.6536 h 16.5973 l 16.8251,-97.5739 h -27.5885 c -11.1085,0 -13.8922,6.0186 -13.8922,6.0186 l -29.1157,52.9722 4.632,-47.6976 c 1.4141,-12.4486 -12.5371,-11.2932 -12.5371,-11.2932 h -25.245 l -42.7252,97.5739 z"
       style="fill:#e30016;fill-rule:evenodd"
       id="path10" />
  </g>
</svg>
