<?xml version="1.0" encoding="UTF-8" standalone="no"?>
<svg
   version="1.1"
   width="595.27557pt"
   height="841.88977pt"
   id="svg13"
   viewBox="0 0 595.27557 841.88977"
   sodipodi:docname="mifarma-37714_logosenvector.com_1.cdr"
   xmlns:inkscape="http://www.inkscape.org/namespaces/inkscape"
   xmlns:sodipodi="http://sodipodi.sourceforge.net/DTD/sodipodi-0.dtd"
   xmlns="http://www.w3.org/2000/svg"
   xmlns:svg="http://www.w3.org/2000/svg">
  <defs
     id="defs13" />
  <sodipodi:namedview
     id="namedview13"
     pagecolor="#ffffff"
     bordercolor="#000000"
     borderopacity="0.25"
     inkscape:showpageshadow="2"
     inkscape:pageopacity="0.0"
     inkscape:pagecheckerboard="0"
     inkscape:deskcolor="#d1d1d1"
     inkscape:document-units="pt" />
  <g
     id="Layer1000">
    <g
       id="Layer1001">
      <g
         id="Layer1002">
        <path
           d="m 226.3855,409.7187 c 0.1028,-0.4569 0.2982,-0.8787 0.5626,-1.2666 0.2638,-0.3879 0.5971,-0.7419 1.0103,-1.0499 0.4137,-0.3195 0.8499,-0.5477 1.3096,-0.7074 0.4592,-0.1598 0.9414,-0.2397 1.4471,-0.2397 0.4476,0 0.8493,0.0684 1.2171,0.1943 0.3672,0.1253 0.7006,0.3195 0.9764,0.5816 0.2753,0.2511 0.4936,0.5476 0.6316,0.8786 0.1379,0.3195 0.2063,0.6735 0.2063,1.0614 0,0.0908 -0.0109,0.1937 -0.023,0.319 -0.0115,0.1144 -0.0345,0.2396 -0.0684,0.377 -0.1149,0.4563 -0.2988,0.8781 -0.5632,1.2666 -0.2638,0.3873 -0.5971,0.7413 -1.0103,1.0493 -0.4137,0.3195 -0.8499,0.5477 -1.3096,0.7074 -0.4592,0.1598 -0.9413,0.2397 -1.4465,0.2397 -0.4482,0 -0.8499,-0.0684 -1.2177,-0.1943 -0.3672,-0.1252 -0.7005,-0.3189 -0.9764,-0.5815 -0.2753,-0.2627 -0.4936,-0.5477 -0.6316,-0.8672 -0.1373,-0.3195 -0.2063,-0.673 -0.2063,-1.0614 0,-0.0908 0.0115,-0.1937 0.023,-0.319 0.023,-0.1143 0.046,-0.2396 0.069,-0.3879 z m -37.6808,0.319 c 0.046,-0.1937 0.0805,-0.3874 0.1379,-0.5586 0.0575,-0.1828 0.115,-0.354 0.1724,-0.5138 0.069,-0.1712 0.1379,-0.331 0.2293,-0.4902 0.0805,-0.1603 0.1724,-0.2971 0.2644,-0.4339 0.0919,-0.1252 0.1839,-0.2396 0.2873,-0.3534 0.1034,-0.1143 0.2063,-0.2287 0.3098,-0.331 0.1034,-0.1029 0.2183,-0.1942 0.3333,-0.2856 l 0.0459,-0.0339 -0.0115,-0.023 0.3213,-0.2052 c 0.1149,-0.0683 0.2414,-0.1373 0.3678,-0.2057 0.1264,-0.0569 0.2638,-0.1138 0.3902,-0.1598 0.1264,-0.0454 0.2528,-0.0908 0.3908,-0.1367 0.1379,-0.0454 0.2752,-0.0799 0.4132,-0.1138 0.1149,-0.023 0.2528,-0.046 0.3907,-0.069 0.1265,-0.0224 0.2638,-0.0339 0.3902,-0.0454 0.138,-0.023 0.2644,-0.0345 0.4023,-0.0345 0.1374,-0.0109 0.2753,-0.0109 0.3902,-0.0109 h 2.0441 c 0.6201,0 1.1718,0.0684 1.6309,0.2167 0.4822,0.1482 0.8845,0.3764 1.2057,0.6844 0.1609,0.1483 0.3103,0.3425 0.4368,0.5477 0.1264,0.2057 0.2293,0.4339 0.3212,0.6844 0.092,0.2397 0.1609,0.5023 0.2184,0.7758 0.0575,0.2741 0.1034,0.5822 0.1379,0.9017 l 1.7798,17.354 9.0844,-17.5822 0.0115,-0.0114 0.0115,-0.0115 c 0.1609,-0.3081 0.3327,-0.5931 0.5051,-0.8557 0.1724,-0.2621 0.3448,-0.5132 0.5282,-0.7304 0.1839,-0.2282 0.3678,-0.4333 0.5631,-0.6161 0.1949,-0.1822 0.3902,-0.3534 0.5856,-0.4902 0.2069,-0.1483 0.4247,-0.2741 0.6546,-0.377 0.2299,-0.1023 0.4706,-0.1936 0.735,-0.262 0.2643,-0.0684 0.5281,-0.1259 0.804,-0.1598 0.2758,-0.0345 0.5626,-0.046 0.8614,-0.046 h 1.9637 c 0.1953,0 0.4246,0.0115 0.6545,0.0345 0.1149,0.0115 0.2184,0.023 0.3218,0.0339 0.1029,0.0115 0.2178,0.0345 0.3213,0.0575 0.1149,0.0224 0.2298,0.0454 0.3448,0.0799 0.1149,0.0339 0.2184,0.0684 0.3212,0.1023 0.1035,0.0344 0.2069,0.0798 0.3103,0.1373 0.1035,0.0454 0.1954,0.1023 0.2983,0.1598 0.1034,0.0684 0.1954,0.1253 0.2873,0.2051 0.092,0.0684 0.1724,0.1483 0.2529,0.2282 0.0804,0.0799 0.1609,0.1712 0.2293,0.2626 0.0689,0.0914 0.1379,0.1937 0.1954,0.285 0.1264,0.2167 0.2184,0.4563 0.2873,0.719 0.0575,0.2511 0.092,0.5361 0.092,0.8327 0,0.0798 0,0.1827 -0.0115,0.2856 -0.0115,0.1023 -0.0115,0.1936 -0.023,0.2965 -0.0115,0.0799 -0.023,0.1828 -0.046,0.2965 -0.023,0.1138 -0.046,0.2052 -0.069,0.3081 l -5.191,24.7477 -0.0115,0.0454 c -0.0459,0.2511 -0.1149,0.4908 -0.1954,0.7304 -0.0804,0.2397 -0.1724,0.4678 -0.2867,0.696 -0.115,0.2281 -0.2414,0.4447 -0.3793,0.6505 -0.1379,0.2051 -0.2983,0.4103 -0.4707,0.6045 -0.1954,0.2167 -0.4022,0.4109 -0.6315,0.5707 -0.2299,0.1597 -0.4828,0.2965 -0.758,0.3994 -0.2644,0.1023 -0.5511,0.1822 -0.8385,0.2391 -0.2988,0.0459 -0.6086,0.0804 -0.9304,0.0804 -0.5511,0 -1.0332,-0.0804 -1.447,-0.2396 -0.4362,-0.1713 -0.781,-0.4109 -1.0448,-0.7534 -0.1264,-0.1483 -0.2298,-0.3195 -0.3218,-0.4793 -0.0919,-0.1707 -0.1724,-0.3534 -0.2298,-0.5362 -0.0575,-0.1827 -0.1035,-0.3764 -0.138,-0.5701 -0.0339,-0.1942 -0.0454,-0.3884 -0.0454,-0.5936 v -0.1144 c 0,-0.0454 0,-0.0908 0,-0.1367 0,-0.0684 0.0115,-0.1138 0.0115,-0.1483 0,-0.0684 0.0109,-0.1029 0.0109,-0.1253 0,-0.0345 0.0121,-0.0799 0.0121,-0.1373 0,-0.0339 0.0109,-0.0793 0.023,-0.1483 0.0109,-0.0569 0.0109,-0.1023 0.0224,-0.1368 0.0121,-0.0568 0.0121,-0.1028 0.023,-0.1252 l 0.0121,-0.046 v -0.0109 l 2.9854,-14.2169 -8.5443,16.088 c -0.2298,0.4218 -0.4821,0.7873 -0.7694,1.0953 -0.2989,0.319 -0.6086,0.5701 -0.9649,0.7529 -0.1718,0.0913 -0.3442,0.1712 -0.5281,0.2396 -0.1724,0.0684 -0.3673,0.1253 -0.5626,0.1713 -0.1954,0.0454 -0.4023,0.0798 -0.5971,0.1022 -0.2069,0.023 -0.4138,0.0345 -0.6201,0.0345 -0.4368,0 -0.8385,-0.0459 -1.1948,-0.1482 -0.3672,-0.1029 -0.7005,-0.2512 -0.9872,-0.4563 -0.3104,-0.2167 -0.5517,-0.5023 -0.735,-0.8563 -0.1725,-0.3419 -0.2874,-0.7413 -0.3449,-1.2091 v -0.023 l -1.8372,-16.1334 -3.1354,14.8099 v 0.023 c -0.046,0.2511 -0.1149,0.4908 -0.1954,0.7304 -0.0919,0.2397 -0.1839,0.4678 -0.2982,0.696 -0.115,0.2281 -0.2414,0.4448 -0.3793,0.6499 -0.138,0.2057 -0.2989,0.4109 -0.4707,0.6051 -0.1954,0.2167 -0.4023,0.4104 -0.6316,0.5701 -0.2298,0.1604 -0.4827,0.2971 -0.758,0.3994 -0.2643,0.1029 -0.5516,0.1828 -0.8384,0.2397 -0.2988,0.0459 -0.6086,0.0798 -0.9304,0.0798 -0.5511,0 -1.0338,-0.0798 -1.447,-0.2396 -0.4247,-0.1713 -0.781,-0.4103 -1.0454,-0.7528 -0.1258,-0.1483 -0.2293,-0.3195 -0.3212,-0.4793 -0.0919,-0.1713 -0.1724,-0.3534 -0.2299,-0.5362 -0.0574,-0.1827 -0.1034,-0.3764 -0.1379,-0.5706 -0.046,-0.1822 -0.0575,-0.3879 -0.0575,-0.5931 0,0 0,-0.046 0,-0.1143 0,-0.0454 0,-0.0914 0,-0.1368 0,-0.0569 0,-0.1144 0.0115,-0.1368 0,-0.0684 0.0115,-0.1144 0.0115,-0.1258 0,-0.034 0.0115,-0.0799 0.0115,-0.1368 0,-0.0339 0.0115,-0.0799 0.023,-0.1483 0.0115,-0.0569 0.0115,-0.1028 0.023,-0.1368 0.0115,-0.0344 0.0115,-0.0798 0.023,-0.1258 l 0.0115,-0.0454 5.1565,-24.565 z m 35.131,8.0781 c 0.0919,-0.4333 0.2298,-0.8556 0.4246,-1.2435 0.1954,-0.388 0.4368,-0.7529 0.735,-1.0839 0.3219,-0.3534 0.7351,-0.6275 1.2293,-0.7988 0.4821,-0.1712 1.0562,-0.2511 1.6993,-0.2511 0.5287,0 0.9878,0.0575 1.3671,0.1712 0.4017,0.1259 0.723,0.3081 0.9528,0.5707 0.2184,0.2396 0.3793,0.5132 0.4828,0.8103 0.1028,0.2965 0.1603,0.616 0.1603,0.9695 0,0.1482 -0.0115,0.3195 -0.0345,0.4907 -0.023,0.1713 -0.0569,0.3535 -0.1034,0.5247 l -3.5825,17.0805 c -0.092,0.4333 -0.2299,0.8556 -0.4253,1.2436 -0.1954,0.3879 -0.4362,0.7528 -0.735,1.0838 -0.3218,0.354 -0.735,0.6275 -1.2287,0.7988 -0.4827,0.1712 -1.0568,0.2511 -1.6998,0.2511 -0.5282,0 -0.9879,-0.0575 -1.3666,-0.1712 -0.4017,-0.1253 -0.7235,-0.3081 -0.9534,-0.5707 -0.2184,-0.2396 -0.3787,-0.5132 -0.4821,-0.8097 -0.1035,-0.2971 -0.161,-0.6161 -0.161,-0.9701 0,-0.1482 0.0115,-0.3195 0.0345,-0.4907 0.023,-0.1713 0.0575,-0.342 0.1035,-0.5247 z"
           style="fill:none"
           id="path1" />
        <path
           d="m 264.295,430.5765 c -0.5511,2.3728 -2.4004,3.9819 -4.8008,3.9819 -1.458,0 -1.9752,-0.9126 -2.0442,-2.1792 -0.1718,-3.1722 4.5825,-4.3928 7.2927,-3.9595 -0.0805,0.4569 -0.2753,1.4149 -0.4477,2.1568 z m 0.0804,-15.6426 c -1.9866,0 -4.2951,0.1482 -5.949,0.8787 -1.2401,0.5476 -2.297,1.1976 -2.5377,2.6923 -0.1035,0.6959 -0.138,1.2666 0.3212,1.8487 0.4367,0.5586 1.2516,0.8781 1.9981,0.8781 1.2982,0 2.274,-0.2735 3.3423,-0.639 0.6891,-0.2282 3.2843,-0.8896 4.1687,0.1258 0.4362,0.5132 0.3563,1.1982 0.1265,2.3729 -12.9543,0.2511 -14.8841,7.4391 -13.8158,11.8434 0.9074,3.6969 4.6399,4.5072 7.1432,4.5072 7.0398,0 9.4172,-4.1423 10.6803,-9.4247 0,0 1.1258,-6.1041 1.6539,-8.808 0.5052,-2.6245 -0.0115,-6.2754 -7.1317,-6.2754 z"
           style="fill:none"
           id="path2" />
        <path
           d="m 335.304,430.4506 c -0.5512,2.3734 -2.4005,3.982 -4.8009,3.982 -1.4585,0 -1.9751,-0.9126 -2.0441,-2.1792 -0.1724,-3.1716 4.5825,-4.3922 7.2932,-3.9589 -0.0804,0.4448 -0.277,1.4033 -0.4482,2.1561 z m 0.0804,-15.5167 c -1.9872,0 -4.2957,0.1482 -5.949,0.8787 -1.2407,0.5476 -2.297,1.1976 -2.5383,2.6923 -0.115,0.6844 -0.1489,1.2666 0.3103,1.8487 0.4362,0.5586 1.2516,0.8781 1.9981,0.8781 1.2976,0 2.274,-0.2735 3.3423,-0.639 0.6891,-0.2282 3.2849,-0.8896 4.1681,0.1258 0.4368,0.5132 0.3563,1.1982 0.1265,2.3729 -12.9543,0.2511 -14.8835,7.4391 -13.8158,11.8434 0.8959,3.6969 4.6399,4.5072 7.1438,4.5072 7.0398,0 9.4057,-4.1423 10.6694,-9.4247 0,0 1.1252,-6.1041 1.6528,-8.808 0.5292,-2.6245 0.0229,-6.2754 -7.1082,-6.2754 z"
           style="fill:none"
           id="path3" />
        <path
           d="m 289.5151,415.4132 h -7.1432 c -5.3174,0.0574 -8.1885,3.4342 -9.0155,7.9414 l -2.5607,13.3835 c -0.4368,2.1907 0.4592,2.5326 1.5505,2.5326 0.1718,0 0.2522,0 0.5396,0 2.1131,0 4.0078,-1.643 4.6163,-4.2554 0.0805,-0.354 2.0447,-10.8849 2.0447,-10.8849 0.3787,-1.8258 1.2861,-3.0923 3.2038,-3.0923 0.0115,0 3.6636,-0.0115 3.7555,-0.0115 2.7102,0 3.4337,-1.9281 3.4337,-1.9281 l 0.4942,-1.0953 c 0.7465,-1.9625 0.1718,-2.59 -0.9189,-2.59 z"
           style="fill:none"
           id="path4" />
        <path
           d="m 258.2891,403.2048 c 0,0 -6.776,-0.0115 -7.0289,-0.0115 -5.7766,0 -9.6809,3.4802 -10.1981,7.8156 l -0.8149,3.7537 -5.7082,0.1598 c -1.562,-0.1253 -2.8711,6.5036 -1.0448,5.8875 2.3768,0 5.6502,0 5.6502,0 l -3.0435,15.8823 c -0.4362,2.1906 0.4598,2.5331 1.5505,2.5331 0.1724,0 0.2528,0 0.5396,0 2.1131,0 3.9969,-1.632 4.6054,-4.2445 0.069,-0.308 1.5965,-8.4891 1.9637,-10.4516 0.2299,-1.1407 0.7235,-3.7193 0.7235,-3.7193 0,0 5.0876,-0.0115 5.237,-0.0115 2.7102,0 3.4222,-1.928 3.4222,-1.928 l 0.4942,-1.0838 c 0.758,-1.9626 0.1839,-3.001 -0.9074,-3.001 l -7.0972,0.023 0.7005,-3.3889 c 0.1264,-1.2211 1.47,-2.5785 2.8481,-2.5785 1.539,0 3.8244,0 5.0071,0 2.7102,0 3.4337,-1.928 3.4337,-1.928 l 0.4942,-1.0845 c 0.735,-1.9849 0.2638,-2.6239 -0.8269,-2.6239 z"
           style="fill:none"
           id="path5" />
        <path
           d="m 313.9083,415.2988 c -2.32,0 -4.7089,0.7528 -6.6036,2.0654 -1.7229,-1.335 -3.9394,-2.0654 -6.2817,-2.0654 -5.6163,0 -9.3368,2.7613 -10.3591,7.8385 l -2.5958,13.6457 c -0.4362,2.1567 0.4597,2.4992 1.5275,2.4992 0.1724,0 0.2528,0 0.5402,0 2.0786,0 3.9503,-1.6206 4.5474,-4.1876 0.0804,-0.3425 2.1475,-11.5125 2.1475,-11.5125 h -0.0115 c 0.3218,-1.3464 1.5275,-2.6923 3.6176,-2.7498 h 0.1034 c 2.228,0 3.0895,1.4608 2.7452,3.5032 0,0 -2.3314,12.1509 -2.3429,12.3222 l -0.023,0.1368 c -0.4367,2.1567 0.4592,2.4986 1.5275,2.4986 0.1718,0 0.2523,0 0.5396,0 2.0786,0 3.9509,-1.62 4.548,-4.187 0.0804,-0.3425 2.182,-11.5579 2.182,-11.5579 0.3328,-1.6544 1.5959,-2.7958 3.7325,-2.7958 3.2728,0 2.7906,2.6476 2.7906,2.6476 l -2.5268,13.4175 c -0.4362,2.1567 0.4592,2.4986 1.5275,2.4986 0.1724,0 0.2413,0 0.5396,0 2.0792,0 3.9509,-1.62 4.548,-4.1876 0.0804,-0.3419 2.2739,-11.8659 2.2739,-11.8659 h -0.0114 c 0.712,-3.9359 -2.3775,-7.9638 -8.6822,-7.9638 z"
           style="fill:none"
           id="path6" />
      </g>
      <g
         id="Layer1003">
        <path
           d="m 350.9374,428.6732 h 0.0121 c -0.0454,0 -0.0805,0 -0.1276,-0.0115 0.0471,0 0.0822,0.0115 0.1155,0.0115 z"
           style="fill:none"
           id="path7" />
        <path
           d="m 398.3905,426.4705 -8.4874,0.1373 c -1.2165,0 -1.9751,-0.993 -1.6073,-2.0654 l 4.0537,-12.9612 h -0.012 l -14.033,-0.0115 c -1.1373,0.0115 -1.8505,-1.255 -1.4821,-2.3964 l 2.7791,-8.4431 c 0,0 1.6999,-4.5525 6.2249,-5.8984 h -0.5747 c 0,0 -7.7408,0.1937 -9.8769,7.0397 -0.3896,1.2321 -3.0078,9.6982 -3.0078,9.6982 0,0 -8.9466,-0.0115 -10.1993,-0.0115 h -0.0104 c -7.2133,0 -9.797,6.9369 -9.797,6.9369 l -0.5046,1.5177 c 2.5378,-4.5525 8.2,-4.6893 8.2,-4.6893 l 8.9448,0.0115 c 1.2183,0 1.8965,0.9695 1.5287,2.0424 l -4.0768,13.0755 13.6888,0.011 c 1.1482,-0.011 1.8613,1.0154 1.4815,2.1567 l -2.778,8.4431 c 0,0 -1.5631,4.3244 -5.6749,5.9215 0.5402,-0.0115 8.1776,-0.2851 10.2453,-6.8915 0.3787,-1.2091 2.9969,-9.5724 2.9969,-9.5724 0,0 8.5678,0.0109 9.8074,0.0109 h 0.012 c 7.2116,0 9.8068,-7.1995 9.8068,-7.1995 l 0.0931,-0.2735 c -2.8371,3.3773 -7.7408,3.4113 -7.7408,3.4113 z"
           style="fill:none"
           id="path8" />
        <path
           d="m 409.2317,413.4409 c 0,0.023 0,0.0574 0,0.0799 0,0.0574 -0.0126,0.1028 -0.023,0.1597 0,0.023 -0.012,0.0454 -0.012,0.0684 -0.011,0.0799 -0.034,0.1598 -0.0684,0.2396 l -2.9866,9.0707 -0.0914,0.2741 c 0,0 -2.5843,7.1995 -9.8085,7.1995 h -0.0104 c -1.2407,0 -9.8091,-0.0115 -9.8091,-0.0115 0,0 -2.6182,8.3633 -2.9969,9.5729 -2.0556,6.6059 -9.7034,6.88 -10.2326,6.891 -0.023,0 -0.0334,0 -0.0334,0 l -9.3953,0.1488 c -1.3424,0 -2.182,-1.0953 -1.7803,-2.282 l 4.4916,-14.3537 -15.5397,-0.0115 h -0.0104 c -0.035,0 -0.0684,0 -0.1034,-0.0114 -0.0351,0 -0.0805,0 -0.1155,-0.011 -0.0334,-0.0115 -0.0684,-0.0115 -0.1144,-0.023 -0.035,-0.0114 -0.0695,-0.0114 -0.1034,-0.0229 -0.0345,-0.0115 -0.0684,-0.0225 -0.1029,-0.0339 -0.0351,-0.0115 -0.069,-0.023 -0.1034,-0.0345 -0.0351,-0.0115 -0.0684,-0.0339 -0.1035,-0.0569 -0.035,-0.0115 -0.058,-0.0345 -0.0931,-0.046 -0.0333,-0.0224 -0.0684,-0.0454 -0.0908,-0.0684 -0.023,-0.0224 -0.058,-0.0339 -0.081,-0.0569 -0.0333,-0.023 -0.0575,-0.0569 -0.0908,-0.0799 -0.023,-0.0229 -0.046,-0.0454 -0.0701,-0.0683 -0.023,-0.0345 -0.0563,-0.0569 -0.0793,-0.0914 -0.0242,-0.023 -0.0471,-0.0454 -0.0575,-0.0684 -0.023,-0.0345 -0.046,-0.0684 -0.0701,-0.1029 -0.0109,-0.0224 -0.0333,-0.0454 -0.0454,-0.0798 -0.023,-0.0339 -0.0339,-0.0684 -0.0563,-0.1138 -0.0121,-0.0345 -0.0351,-0.0569 -0.0471,-0.0914 -0.023,-0.0339 -0.0334,-0.0799 -0.046,-0.1144 -0.0104,-0.0339 -0.0224,-0.0569 -0.0351,-0.0908 -0.0103,-0.0459 -0.0224,-0.0798 -0.0333,-0.1258 -0.0121,-0.0339 -0.0224,-0.0569 -0.0224,-0.0914 -0.0127,-0.0454 -0.0127,-0.0908 -0.023,-0.1368 0,-0.0339 -0.0121,-0.0569 -0.0121,-0.0913 0,-0.0454 -0.012,-0.0914 -0.012,-0.1368 0,-0.0345 0,-0.0684 0,-0.1029 0,-0.0454 0,-0.0913 0,-0.1367 0,-0.0339 0,-0.0684 0.012,-0.1029 0,-0.0454 0.0121,-0.0914 0.0224,-0.1483 0,-0.0339 0.0127,-0.0569 0.0127,-0.0913 0.0103,-0.0794 0.0333,-0.1598 0.0684,-0.2397 l 2.5831,-7.838 0.4943,-1.5177 c 0,0 2.5848,-6.9369 9.7964,-6.9369 h 0.0121 c 1.2516,0 10.1981,0.0115 10.1981,0.0115 0,0 2.6183,-8.4546 3.009,-9.6987 2.1349,-6.8455 9.8752,-7.0398 9.8752,-7.0398 h 0.5753 l 9.3252,0.0115 c 1.3436,0 2.101,1.0729 1.6872,2.2705 l -4.5123,14.4789 h 0.0121 l 15.1472,0.0115 h 0.0121 c 0.0333,0 0.0684,0 0.1034,0.0115 0.0334,0 0.0788,0 0.1138,0.0115 0.0351,0 0.0684,0.0115 0.1035,0.0115 0.035,0.0115 0.0804,0.0115 0.1155,0.0224 0.0333,0.0115 0.0684,0.023 0.0913,0.023 0.0351,0.0115 0.0684,0.023 0.1156,0.0345 0.0333,0.0109 0.0563,0.0224 0.0913,0.0339 0.0345,0.0115 0.0684,0.023 0.1035,0.046 0.0224,0.0115 0.0574,0.0339 0.0804,0.0454 0.0351,0.023 0.0684,0.0345 0.0914,0.0569 0.0224,0.0115 0.0471,0.0344 0.0695,0.0574 0.0334,0.0224 0.0563,0.0454 0.0914,0.0684 0.023,0.0224 0.0454,0.0454 0.0684,0.0684 0.023,0.023 0.0471,0.0454 0.0701,0.0799 0.0224,0.023 0.0333,0.0454 0.0563,0.0799 0.0242,0.0224 0.0471,0.0569 0.0575,0.0798 0.023,0.0225 0.035,0.0569 0.046,0.0914 0.012,0.0339 0.0344,0.0569 0.0471,0.0908 0.0103,0.0345 0.0333,0.069 0.0454,0.0914 0.0103,0.0345 0.023,0.0575 0.035,0.0914 0.0104,0.0344 0.0224,0.0684 0.0334,0.1028 0.012,0.0339 0.023,0.0569 0.023,0.0914 0.012,0.0339 0.012,0.0799 0.0224,0.1138 0,0.0345 0.0126,0.0569 0.0126,0.0914 0.0121,0.0454 0.0104,0.0798 0.0104,0.1252 0,0.0345 0,0.0575 0,0.0914 0,0.0575 0.002,0.1029 -0.0104,0.1598 z m 1.5281,-3.0579 c -0.6098,-1.1068 -1.9298,-1.62 -3.251,-1.62 h -0.012 l -12.0578,-0.0115 3.5946,-10.9647 c 0.4137,-1.2551 0.2402,-2.5556 -0.4943,-3.5826 -0.7465,-1.0384 -1.9751,-1.6429 -3.3526,-1.6429 l -9.8999,-0.0115 h -0.023 -0.0351 c -0.2413,0.0115 -2.4234,0.0913 -4.9491,1.1183 -3.5256,1.4487 -5.9599,4.0388 -7.0397,7.5075 -0.277,0.8902 -1.7349,4.8836 -2.5165,7.3932 -2.6515,0 -7.6024,0 -8.5086,-0.0115 -3.6297,0 -6.845,2.1682 -9.3143,4.929 -1.7809,1.997 -2.5499,3.971 -2.6309,4.1876 l -0.0103,0.0454 -0.0121,0.0345 -3.0774,9.3563 c -0.4488,1.3688 -0.2189,2.8636 0.608,3.9928 0.7586,1.0384 1.9189,1.6321 3.1826,1.6321 h 0.0103 0.0121 12.4376 l -3.5606,11.398 c -0.4138,1.2321 -0.2299,2.5217 0.5045,3.5487 0.7712,1.0723 2.0223,1.6883 3.4349,1.6883 h 0.0229 0.0225 l 9.3832,-0.1482 c 0.3104,0 2.5499,-0.0569 5.1106,-1.027 3.6871,-1.3918 6.2122,-3.9704 7.3041,-7.4615 0.2753,-0.8787 1.7229,-5.4996 2.5027,-7.9759 h 8.1316 c 3.64,0 6.868,-1.5172 9.3483,-4.3922 1.7682,-2.0539 2.5268,-4.0848 2.6073,-4.313 l 0.0109,-0.0345 0.012,-0.0339 3.0774,-9.9039 c 0.3908,-1.2666 -0.1138,-2.8636 -0.5729,-3.6969 z"
           style="fill:none"
           id="path9" />
        <path
           d="m 378.878,441.0637 2.7791,-8.4431 c 0.3788,-1.1522 -0.3327,-2.1677 -1.4809,-2.1562 l -13.6904,-0.0115 4.0778,-13.0755 c 0.3667,-1.0724 -0.3097,-2.0424 -1.528,-2.0424 l -8.9465,-0.0115 c 0,0 -5.6726,0.1368 -8.2001,4.6893 l -2.5831,7.8386 c -0.023,0.0799 -0.0454,0.1598 -0.0684,0.2396 -0.0121,0.0345 -0.0121,0.0684 -0.0121,0.0914 -0.012,0.0454 -0.023,0.1023 -0.023,0.1483 0,0.0339 0,0.0684 0,0.1028 0,0.0454 -0.012,0.0908 -0.012,0.1368 0,0.0339 0,0.0684 0.012,0.0908 0,0.046 0,0.0914 0.011,0.1374 0,0.0339 0.012,0.0683 0.012,0.0913 0.0121,0.0454 0.0121,0.0914 0.0224,0.1368 0.0127,0.0345 0.023,0.0569 0.023,0.0914 0.0121,0.0454 0.023,0.0908 0.0351,0.1253 0.0103,0.0344 0.023,0.0568 0.035,0.0913 0.0104,0.0454 0.0334,0.0799 0.0454,0.1138 0.011,0.0345 0.0334,0.0575 0.046,0.0914 0.0224,0.0345 0.0345,0.0689 0.0575,0.1143 0.0109,0.023 0.0333,0.0454 0.0454,0.0799 0.023,0.0339 0.046,0.0684 0.0689,0.1029 0.0225,0.0224 0.0454,0.0454 0.0575,0.0684 0.023,0.0339 0.0454,0.0684 0.0805,0.0908 0.023,0.023 0.0459,0.0459 0.0683,0.0689 0.0351,0.0224 0.0581,0.0569 0.0931,0.0799 0.0225,0.0224 0.0564,0.0339 0.0805,0.0569 0.0333,0.023 0.0563,0.0454 0.0914,0.0684 0.035,0.023 0.0574,0.0345 0.0913,0.0454 0.0345,0.023 0.0696,0.0345 0.1029,0.0575 0.0351,0.0109 0.0701,0.0224 0.0931,0.0339 0.0333,0.0115 0.0684,0.0344 0.1035,0.0344 0.0333,0.0115 0.0683,0.0115 0.1034,0.023 0.0333,0.011 0.0684,0.011 0.1138,0.0224 0.035,0 0.0804,0 0.1155,0.0115 0.046,0 0.0804,0.0115 0.1264,0.0115 l 15.538,0.0115 -4.4905,14.3531 c -0.4131,1.1867 0.4368,2.282 1.781,2.282 l 9.3936,-0.1483 c 0,0 0.012,0 0.0345,0 4.1347,-1.6085 5.6961,-5.9444 5.6961,-5.9444 z"
           style="fill:none"
           id="path10" />
        <path
           d="m 379.6125,400.7187 -2.7797,8.4432 c -0.3788,1.1413 0.3333,2.4078 1.4826,2.3963 l 14.0341,0.0115 4.5129,-14.4789 c 0.4132,-1.1982 -0.3453,-2.259 -1.6878,-2.2705 l -9.3252,-0.0115 c -4.5371,1.3689 -6.2369,5.9099 -6.2369,5.9099 z"
           style="fill:none"
           id="path11" />
        <path
           d="m 409.2317,413.076 c 0,-0.0339 -0.0126,-0.0569 -0.0126,-0.0914 -0.0104,-0.0339 -0.0104,-0.0799 -0.0224,-0.1138 -0.011,-0.0345 -0.023,-0.0575 -0.023,-0.0914 -0.011,-0.0345 -0.023,-0.0684 -0.0334,-0.1028 -0.012,-0.0339 -0.0247,-0.0569 -0.035,-0.0914 -0.0121,-0.0339 -0.023,-0.0684 -0.0454,-0.0908 -0.0127,-0.0345 -0.0351,-0.0575 -0.0581,-0.0914 -0.012,-0.023 -0.035,-0.0575 -0.0454,-0.0914 -0.0229,-0.0229 -0.0471,-0.0569 -0.058,-0.0798 -0.023,-0.023 -0.0351,-0.0569 -0.0575,-0.0799 -0.023,-0.023 -0.0459,-0.046 -0.0684,-0.0799 -0.0229,-0.023 -0.0459,-0.046 -0.0689,-0.0684 -0.0242,-0.023 -0.0575,-0.046 -0.0925,-0.0684 -0.023,-0.023 -0.0454,-0.0345 -0.0684,-0.0574 -0.0351,-0.0224 -0.0581,-0.0339 -0.0925,-0.0569 -0.023,-0.0115 -0.0564,-0.0345 -0.0811,-0.0454 -0.0333,-0.0115 -0.0684,-0.0345 -0.1017,-0.046 -0.035,-0.0115 -0.0575,-0.0224 -0.0925,-0.0339 -0.0351,-0.0115 -0.0684,-0.023 -0.1144,-0.0345 -0.035,-0.0115 -0.0695,-0.023 -0.0925,-0.023 -0.0351,-0.0109 -0.0805,-0.0109 -0.1144,-0.0224 -0.0344,0 -0.0695,-0.0115 -0.1028,-0.0115 -0.0351,0 -0.0811,0 -0.1161,-0.0115 -0.0345,0 -0.0805,-0.0115 -0.1138,-0.0115 l -15.1484,-0.0115 -4.0537,12.9503 c -0.3684,1.0724 0.3907,2.0654 1.6067,2.0654 l 8.4874,-0.1374 c 0,0 4.9037,-0.0339 7.7518,-3.4112 l 2.986,-9.0592 c 0.023,-0.0799 0.046,-0.1603 0.0684,-0.2396 0,-0.023 0.0126,-0.046 0.0126,-0.0684 0.0121,-0.0575 0.0224,-0.1144 0.0224,-0.1603 0,-0.0339 0,-0.0569 0,-0.0793 0,-0.046 0.0121,-0.0914 0.0121,-0.1483 0,-0.0345 0,-0.0575 0,-0.0914 -0.0345,-0.023 -0.0345,-0.0689 -0.0345,-0.1143 z"
           style="fill:none"
           id="path12" />
        <path
           d="m 348.2157,430.0191 h 0.0104 c -0.0454,0 -0.0805,0 -0.1259,-0.0115 0.0454,0 0.0805,0.0115 0.1155,0.0115 z"
           style="fill:none"
           id="path13" />
      </g>
    </g>
  </g>
</svg>
