<?xml version="1.0" encoding="UTF-8" standalone="no"?>
<svg
   xmlns:dc="http://purl.org/dc/elements/1.1/"
   xmlns:cc="http://creativecommons.org/ns#"
   xmlns:rdf="http://www.w3.org/1999/02/22-rdf-syntax-ns#"
   xmlns:svg="http://www.w3.org/2000/svg"
   xmlns="http://www.w3.org/2000/svg"
   viewBox="0 0 172.66667 172.66667"
   height="172.66667"
   width="172.66667"
   xml:space="preserve"
   id="svg2"
   version="1.1"><metadata
     id="metadata8"><rdf:RDF><cc:Work
         rdf:about=""><dc:format>image/svg+xml</dc:format><dc:type
           rdf:resource="http://purl.org/dc/dcmitype/StillImage" /></cc:Work></rdf:RDF></metadata><defs
     id="defs6" /><g
     transform="matrix(1.3333333,0,0,-1.3333333,0,172.66667)"
     id="g10"><g
       transform="scale(0.1)"
       id="g12"><path
         id="path14"
         style="fill:#f2561c;fill-opacity:1;fill-rule:evenodd;stroke:none"
         d="M 2.83594,2.82813 H 1292.13 V 1292.13 H 2.83594 V 2.82813" /><path
         id="path16"
         style="fill:none;stroke:#f1511c;stroke-width:5.66900015;stroke-linecap:butt;stroke-linejoin:miter;stroke-miterlimit:22.92560005;stroke-dasharray:none;stroke-opacity:1"
         d="M 2.83594,2.82813 H 1292.13 V 1292.13 H 2.83594 Z" /><path
         id="path18"
         style="fill:none;stroke:#ffffff;stroke-width:22.90399933;stroke-linecap:butt;stroke-linejoin:round;stroke-miterlimit:22.92560005;stroke-dasharray:none;stroke-opacity:1"
         d="m 1007.1,529.734 h 5.22 v 0.52 h 2.61 v 0.527 h 3.12 v 0.516 h 1.05 v 0.527 h 2.6 v 0.52 h 2.08 v 0.515 h 1.05 v 0.528 h 1.56 v 0.519 h 1.56 v 0.516 h 1.05 v 0.527 h 1.04 v 0.52 h 1.57 v 0.527 h 1.04 v 0.516 h 1.05 v 0.519 h 0.51 v 0.528 h 1.05 v 0.515 h 1.03 v 0.52 h 0.53 v 0.527 h 1.05 v 0.516 h 0.51 v 0.527 h 1.05 v 0.52 h 0.52 v 0.515 h 0.51 v 0.528 h 1.05 v 0.519 h 0.53 v 0.516 h 0.51 v 0.527 h 0.52 v 0.52 h 0.53 v 0.527 h 0.52 v 0.516 h 0.51 v 0.519 h 0.53 v 0.527 h 0.52 v 0.516 h 0.53 v 0.527 h 0.51 v 0.52 h 0.52 v 0.516 h 0.53 v 0.527 h 0.52 v 1.035 h 0.51 v 0.527 h 0.53 v 0.52 h 0.52 v 1.043 h 0.53 v 0.519 h 0.51 v 1.043 h 0.52 v 1.047 h 0.53 v 1.043 h 0.52 v 1.035 h 0.52 v 1.047 h 0.52 v 1.043 h 0.52 v 1.047 h 0.53 v 1.035 h 0.51 v 1.563 h 0.52 v 2.09 h 0.53 v 1.562 h 0.52 v 1.563 h 0.52 v 1.562 h 0.52 v 1.563 h 0.52 v 2.089 h 0.53 v 2.079 h 0.51 v 1.574 h 0.52 v 1.035 h 0.53 v 2.605 h 0.52 v 1.047 h 0.52 v 2.09 h 0.52 v 1.035 h 0.52 v 1.563 h 0.53 v 2.09 h 0.51 v 1.562 h 0.52 v 1.563 h 0.53 v 2.09 h 0.52 v 1.035 h 0.51 v 2.09 h 0.53 v 2.078 h 0.52 v 1.562 h 0.52 v 1.047 h 0.52 v 2.605 h 0.52 v 1.047 h 0.53 v 2.078 h 0.52 v 1.575 h 0.52 v 1.035 h 51.6 v 0.527 h 3.13 v 0.516 h 3.65 v 0.527 h 2.08 v 0.52 h 1.05 v 0.515 h 1.56 v 0.52 h 1.56 v 0.527 h 1.05 v 0.516 h 1.04 v 0.527 h 1.04 v 0.52 h 1.04 v 0.527 h 1.05 v 0.516 h 1.04 v 0.519 h 1.04 v 0.516 h 0.52 v 0.527 h 1.05 v 0.52 h 0.52 v 0.527 h 0.51 v 0.516 h 1.05 v 0.519 h 0.52 v 0.528 h 0.52 v 0.515 h 0.52 v 0.52 h 1.05 v 0.527 h 0.51 v 0.516 h 0.53 V 622 h 0.52 v 0.52 h 0.52 v 0.515 h 0.52 v 0.528 h 0.52 v 0.519 h 0.53 v 0.516 h 0.52 v 0.527 h 0.51 v 0.52 h 0.53 v 1.043 h 0.52 v 0.519 h 0.52 v 0.527 h 0.52 v 0.516 h 0.52 v 0.527 h 0.53 v 1.036 h 0.52 v 0.527 h 0.51 v 1.047 h 0.53 v 0.515 h 0.52 v 1.047 h 0.52 v 0.516 h 0.52 v 1.047 h 0.52 v 0.515 h 0.53 v 1.047 h 0.52 v 1.043 h 0.51 v 1.035 h 0.53 v 0.528 h 0.52 v 1.035 h 0.52 v 1.574 h 0.52 v 1.039 h 0.52 v 1.039 h 0.53 v 1.563 h 0.52 v 1.566 h 0.51 v 1.567 h 0.53 v 2.082 h 0.52 v 1.562 h 0.53 v 1.563 h 0.51 v 1.57 h 0.52 v 1.039 h 0.53 v 1.562 h 0.52 v 2.09 h 0.51 v 1.039 h 0.53 v 2.61 h 0.52 v 1.562 h 0.52 v 1.563 h 0.52 v 1.566 h 0.52 v 1.039 h 0.52 v 1.563 h 0.53 v 1.566 h 0.51 v 1.563 h 0.53 v 2.086 h 0.52 v 1.562 h 0.53 v 1.566 h 0.51 v 1.559 h 0.52 v 1.047 h 0.53 v 1.566 h 0.52 v 1.559 h 0.51 v 2.09 h 0.53 v 2.078 h 0.52 v 1.566 h 0.53 v 4.696 h -0.53 v 1.039 h -0.52 v 1.043 h -0.53 v 0.519 h -0.51 v 0.524 h -0.52 v 0.519 h -0.53 v 0.524 h -0.52 v 0.515 h -1.04 v 0.524 h -2.09 v 0.523 h -74.01 v 1.039 h 0.51 v 2.609 h 0.53 v 1.567 h 0.52 v 1.039 h 0.53 v 2.086 h 0.51 v 1.047 h 0.52 v 2.601 h 0.53 v 1.043 h 0.52 v 2.082 h 0.52 v 1.043 h 0.52 v 2.61 h 0.52 v 1.562 h 0.52 v 1.043 h 0.52 v 1.563 h 0.52 v 1.562 h 0.53 v 2.61 h 0.52 v 1.042 h 0.52 v 2.083 h 0.52 v 1.042 h 0.52 v 2.61 h 0.52 v 1.039 h 0.52 v 2.09 h 0.52 v 1.039 h 0.53 v 1.562 h 0.51 v 2.61 h 0.53 v 1.039 h 0.52 v 2.086 h 0.52 v 1.039 h 0.52 v 2.09 h 0.52 v 1.562 h 0.52 v 2.086 h 0.53 v 1.043 h 0.51 v 2.605 h 0.53 v 1.043 h 0.52 v 2.086 h 0.53 v 1.043 h 0.51 v 1.563 h 0.52 v 2.609 h 0.52 v 1.039 h 0.53 v 2.086 h 0.51 v 1.043 h 0.53 v 2.082 h 0.52 v 4.692 h -0.52 v 1.566 h -0.53 v 0.52 h -0.51 v 1.043 h -0.53 v 0.519 h -0.52 v 0.524 h -1.03 v 0.519 h -1.05 v 0.523 h -1.57 v 0.524 h -47.95 -6.26 v -0.524 h -3.64 v -0.523 h -2.09 v -0.519 h -2.08 v -0.524 h -1.05 v -0.519 h -2.09 v -0.524 h -1.56 v -0.519 h -1.56 v -0.52 h -1.05 v -0.519 h -1.56 v -0.524 h -1.03 v -0.523 h -1.05 v -0.524 h -1.04 v -0.519 h -1.05 v -0.52 h -1.03 v -0.523 h -1.05 v -0.516 h -0.53 v -0.523 h -1.03 v -0.524 h -0.53 v -0.519 h -1.03 v -0.524 h -0.53 v -0.523 h -0.52 v -0.52 h -1.04 v -0.519 h -0.52 v -0.52 h -0.53 v -0.519 h -0.52 v -0.524 h -0.51 v -0.523 H 1029 v -0.524 h -1.05 v -0.519 h -0.51 v -0.52 h -0.52 v -1.039 h -0.53 v -0.523 h -0.52 v -0.524 h -0.51 v -0.519 h -0.53 v -0.524 h -0.52 v -0.519 h -0.53 v -1.043 h -0.51 v -0.52 h -0.52 v -1.043 h -0.53 v -0.523 h -0.52 v -1.039 h -0.51 v -0.524 h -0.53 v -1.043 h -0.52 v -1.042 h -0.53 v -1.043 h -0.51 v -1.04 h -0.52 v -1.046 h -0.53 v -1.563 h -0.52 v -1.562 h -0.52 v -1.043 h -0.52 v -1.567 h -0.52 v -1.558 h -0.53 v -2.086 h -0.51 v -2.086 h -0.52 v -1.567 h -0.53 v -1.039 h -0.52 v -2.086 h -0.52 v -2.086 h -0.52 v -1.562 h -0.52 v -1.043 h -0.52 v -2.086 h -0.52 v -2.086 h -0.52 v -1.562 h -0.53 v -1.043 h -0.52 v -2.086 h -0.52 v -2.086 h -0.52 v -1.563 h -0.52 v -1.039 h -0.53 v -2.09 h -0.51 v -1.558 h -0.52 v -2.09 h -0.53 v -1.039 h -0.52 v -2.086 h -0.52 v -2.086 h -0.52 v -1.563 h -0.52 v -1.043 h -0.52 v -2.085 h -0.52 v -1.563 h -55.775 v -0.523 h -3.653 v -0.524 h -2.078 v -0.515 h -1.562 v -0.524 h -2.09 v -0.519 h -1.047 v -0.524 h -1.043 v -0.519 h -1.563 v -0.524 h -1.035 v -0.519 h -1.047 v -0.52 h -1.043 v -0.519 h -0.519 v -0.524 h -1.043 v -0.523 h -1.047 v -0.524 h -0.516 v -0.519 h -1.046 v -0.52 h -0.516 v -0.523 h -0.527 v -0.516 h -1.036 v -0.523 h -0.527 v -0.524 h -0.519 v -0.519 h -0.528 v -0.524 h -1.035 v -0.523 h -0.527 v -0.524 h -0.516 v -0.515 h -0.519 v -0.52 h -0.528 v -0.519 h -0.515 v -0.524 h -0.528 v -0.523 h -0.519 v -0.524 h -0.516 v -0.519 h -0.527 v -0.52 h -0.52 v -1.039 h -0.515 v -0.523 h -0.528 v -0.524 h -0.519 v -0.519 h -0.528 v -1.047 h -0.515 v -0.516 h -0.52 v -0.523 h -0.527 v -1.039 h -0.516 v -0.524 h -0.527 v -1.046 h -0.52 v -0.516 h -0.515 v -1.047 h -0.528 v -0.519 h -0.519 v -1.043 h -0.516 v -1.043 h -0.527 v -1.039 h -0.52 v -1.047 h -0.515 v -1.039 h -0.528 v -1.047 h -0.519 v -1.039 h -0.516 v -1.567 h -0.527 v -2.082 h -0.52 v -1.043 h -0.527 v -1.047 -1.039 h -0.516 v -1.039 h -0.527 v -1.566 h -0.52 v -2.606 h -0.515 v -1.043 h -0.527 v -1.562 h -0.52 v -1.563 h -0.516 v -1.57 h -0.527 v -2.082 h -0.52 v -1.562 h -0.527 v -1.563 h -0.515 v -1.566 h -0.52 v -1.559 h -0.527 v -1.047 h -0.516 v -1.562 h -0.52 v -1.563 h -0.527 v -1.57 h -0.515 v -1.563 h -0.528 v -2.597 h -0.519 v -0.528 H 894 v -2.609 h -0.52 v -1.562 h -0.527 v -1.563 h -0.515 v -1.043 h -0.528 v -1.562 h -0.519 v -7.813 h 0.519 v -0.527 h 0.528 v -1.047 h 0.515 v -1.043 h 0.527 v -0.52 H 894 v -0.515 h 1.035 v -0.52 h 0.528 v -0.527 h 1.042 v -0.516 h 2.083 v -0.527 h 75.058 v -1.563 h -0.519 v -1.047 h -0.516 v -1.562 h -0.527 v -1.563 h -0.52 v -1.562 h -0.516 v -2.09 h -0.527 V 597.5 h -0.519 v -1.047 h -0.528 v -2.605 h -0.515 v -1.563 h -0.52 v -1.035 h -0.527 v -2.09 h -0.516 v -1.047 h -0.527 v -1.562 h -0.52 v -2.078 h -0.515 v -2.09 h -0.528 v -1.047 h -0.519 v -1.563 h -0.516 v -2.605 h -0.527 v -1.035 h -0.52 v -2.09 h -0.527 v -1.047 h -0.516 v -1.562 h -0.519 v -2.079 h -0.528 v -2.089 h -0.515 v -1.047 h -0.52 v -1.563 h -0.527 v -2.605 h -0.516 v -1.035 h -0.527 v -2.09 h -0.52 v -1.047 h -0.515 v -1.563 h -0.528 v -2.078 h -0.519 v -1.562 h -0.516 v -1.563 h -0.527 v -1.574 h -0.52 v -1.562 h -0.527 v -2.079 h -0.516 v -2.089 h -0.519 v -1.047 h -0.527 v -1.563 h -0.516 v -2.078 h -0.52 v -4.172 h 0.52 v -1.043 h 0.516 v -1.047 h 0.527 v -0.515 h 0.519 v -0.52 h 0.516 v -0.527 h 0.527 v -0.516 h 0.52 v -0.527 h 0.527 v -0.52 h 1.035 v -0.515 h 43.264 v 0.515 z" /><path
         id="path20"
         style="fill:#62c032;fill-opacity:1;fill-rule:evenodd;stroke:none"
         d="m 904.418,661.609 h 0.527 v 0.524 h 0.52 v 0.523 h 0.527 v 1.043 h 0.516 v 0.52 h 0.519 v 1.043 h 0.516 v 0.519 h 0.527 v 0.524 h 0.52 v 0.519 h 0.527 v 0.524 h 0.516 v 0.523 h 0.519 v 0.516 h 0.528 v 0.523 h 0.515 v 0.524 h 0.528 v 0.515 h 0.519 v 0.524 h 0.516 v 0.523 h 0.527 v 0.524 h 0.52 v 0.519 h 0.515 v 0.52 h 1.047 v 0.519 h 0.528 v 0.524 h 1.035 v 0.523 h 0.527 v 0.52 h 1.035 v 0.519 h 0.528 v 0.524 h 1.043 v 0.523 h 1.035 v 0.516 h 1.047 v 0.523 h 1.043 v 0.523 h 1.046 v 0.524 h 1.036 v 0.519 h 1.562 v 0.52 h 1.57 v 0.523 h 1.563 v 0.516 h 1.562 v 0.523 h 1.563 v 0.524 h 3.125 v 0.519 h 3.125 v 0.524 h 50.039 v -0.524 h 1.047 v -0.519 h 1.043 v -0.524 h 0.519 v -0.523 h 0.528 v -0.516 h 0.515 v -1.043 h 0.528 v -1.043 h 0.519 v -5.214 h -0.519 v -1.039 h -0.528 v -2.086 h -0.515 v -1.563 h -0.528 v -1.566 h -0.519 v -1.563 h -0.516 v -1.562 h -0.527 v -2.09 h -0.52 v -1.559 h -0.527 v -1.566 h -0.516 v -1.563 h -0.519 v -2.086 h -0.516 v -1.046 h -0.527 v -2.079 h -0.52 v -1.57 h -0.527 v -1.558 h -0.516 v -2.086 h -0.527 v -1.563 h -0.52 v -1.566 h -0.515 v -1.559 h -0.528 v -2.09 h -0.519 v -1.562 h -0.516 v -1.563 h -0.527 v -1.562 h -0.52 v -2.09 h -0.527 v -1.035 h -0.516 v -2.09 h -0.519 v -1.563 h -0.516 v -1.562 h -0.527 v -2.09 h -0.52 v -1.562 h -0.527 v -1.563 h -0.516 v -1.562 h -0.519 v -2.09 h -0.527 v -1.563 h -0.516 v -1.562 h -0.52 v -1.563 h -0.527 v -1.562 h -0.516 v -1.563 h 67.767 v -0.527 h 1.56 v -0.52 h 0.52 v -0.515 h 1.04 v -0.528 h 0.52 v -1.047 h 0.53 v -0.515 h 0.51 v -1.563 h 0.52 v -4.699 h -0.52 v -1.562 h -0.51 v -1.563 h -0.53 v -1.562 h -0.52 v -2.078 h -0.53 v -1.563 h -0.51 v -1.574 h -0.52 v -1.563 h -0.53 v -1.035 h -0.52 v -2.09 h -0.51 v -1.562 h -0.53 v -1.563 h -0.52 v -1.57 h -0.53 v -1.555 h -0.51 v -1.57 h -0.52 v -1.563 h -0.53 v -1.562 h -0.52 v -1.563 h -0.51 v -1.562 h -0.53 v -1.563 h -0.52 v -1.562 h -0.53 v -2.09 h -0.51 v -1.562 h -0.52 v -1.563 h -0.53 v -1.562 h -0.52 v -1.563 h -0.51 v -1.574 h -0.53 v -1.035 h -0.52 v -1.563 h -0.53 v -1.043 h -0.51 v -1.047 h -0.52 v -0.515 h -0.53 v -1.047 h -0.52 v -1.043 h -0.51 v -1.047 H 1029 v -0.516 h -0.52 v -1.046 h -0.53 v -0.516 h -0.51 v -1.047 h -0.52 v -0.516 h -0.53 v -0.527 h -0.52 v -1.035 h -0.51 v -0.527 h -0.53 v -0.52 h -0.52 v -0.527 h -0.53 v -1.035 h -0.51 v -0.528 h -0.52 v -0.515 h -0.53 v -0.52 h -0.52 v -0.527 h -0.51 v -0.516 h -0.53 v -0.527 h -0.52 v -0.52 h -0.53 v -0.515 h -1.03 v -0.528 h -0.53 v -0.519 h -0.52 v -0.516 h -0.52 v -0.527 h -0.52 v -0.52 h -1.05 v -0.527 h -0.51 v -0.516 h -1.05 v -0.519 h -0.52 v -0.528 h -1.04 v -0.515 h -1.04 v -0.52 h -0.52 v -0.527 h -1.05 v -0.516 h -1.04 v -0.527 h -1.57 v -0.52 h 5.22 v 0.52 h 2.61 v 0.527 h 3.12 v 0.516 h 1.05 v 0.527 h 2.6 v 0.52 h 2.08 v 0.515 h 1.05 v 0.528 h 1.56 v 0.519 h 1.56 v 0.516 h 1.05 v 0.527 h 1.04 v 0.52 h 1.57 v 0.527 h 1.04 v 0.516 h 1.05 v 0.519 h 0.51 v 0.528 h 1.05 v 0.515 h 1.03 v 0.52 h 0.53 v 0.527 h 1.05 v 0.516 h 0.51 v 0.527 h 1.05 v 0.52 h 0.52 v 0.515 h 0.51 v 0.528 h 1.05 v 0.519 h 0.53 v 0.516 h 0.51 v 0.527 h 0.52 v 0.52 h 0.53 v 0.527 h 0.52 v 0.516 h 0.51 v 0.519 h 0.53 v 0.527 h 0.52 v 0.516 h 0.53 v 0.527 h 0.51 v 0.52 h 0.52 v 0.516 h 0.53 v 0.527 h 0.52 v 1.035 h 0.51 v 0.527 h 0.53 v 0.52 h 0.52 v 1.043 h 0.53 v 0.519 h 0.51 v 1.043 h 0.52 v 1.047 h 0.53 v 1.043 h 0.52 v 1.035 h 0.52 v 1.047 h 0.52 v 1.043 h 0.52 v 1.047 h 0.53 v 1.035 h 0.51 v 1.563 h 0.52 v 2.09 h 0.53 v 1.562 h 0.52 v 1.563 h 0.52 v 1.562 h 0.52 v 1.563 h 0.52 v 2.089 h 0.53 v 2.079 h 0.51 v 1.574 h 0.52 v 1.035 h 0.53 v 2.605 h 0.52 v 1.047 h 0.52 v 2.09 h 0.52 v 1.035 h 0.52 v 1.563 h 0.53 v 2.09 h 0.51 v 1.562 h 0.52 v 1.563 h 0.53 v 2.09 h 0.52 v 1.035 h 0.51 v 2.09 h 0.53 v 2.078 h 0.52 v 1.562 h 0.52 v 1.047 h 0.52 v 2.605 h 0.52 v 1.047 h 0.53 v 2.078 h 0.52 v 1.575 h 0.52 v 1.035 h 51.6 v 0.527 h 3.13 v 0.516 h 3.65 v 0.527 h 2.08 v 0.52 h 1.05 v 0.515 h 1.56 v 0.52 h 1.56 v 0.527 h 1.05 v 0.516 h 1.04 v 0.527 h 1.04 v 0.52 h 1.04 v 0.527 h 1.05 v 0.516 h 1.04 v 0.519 h 1.04 v 0.516 h 0.52 v 0.527 h 1.05 v 0.52 h 0.52 v 0.527 h 0.51 v 0.516 h 1.05 v 0.519 h 0.52 v 0.528 h 0.52 v 0.515 h 0.52 v 0.52 h 1.05 v 0.527 h 0.51 v 0.516 h 0.53 V 622 h 0.52 v 0.52 h 0.52 v 0.515 h 0.52 v 0.528 h 0.52 v 0.519 h 0.53 v 0.516 h 0.52 v 0.527 h 0.51 v 0.52 h 0.53 v 1.043 h 0.52 v 0.519 h 0.52 v 0.527 h 0.52 v 0.516 h 0.52 v 0.527 h 0.53 v 1.036 h 0.52 v 0.527 h 0.51 v 1.047 h 0.53 v 0.515 h 0.52 v 1.047 h 0.52 v 0.516 h 0.52 v 1.047 h 0.52 v 0.515 h 0.53 v 1.047 h 0.52 v 1.043 h 0.51 v 1.035 h 0.53 v 0.528 h 0.52 v 1.035 h 0.53 v 1.574 h 0.51 v 1.039 h 0.52 v 1.563 h -0.52 v -0.524 h -0.51 v -0.519 h -0.53 v -0.52 h -0.52 v -0.523 h -0.53 v -0.516 h -0.51 v -0.527 h -0.52 v -0.52 h -1.05 v -0.527 h -0.52 v -0.516 h -0.52 v -0.519 h -0.52 v -0.528 h -1.04 v -0.515 h -0.52 v -0.52 h -1.05 v -0.527 h -0.52 v -0.516 h -1.04 v -0.527 h -1.04 v -0.52 h -1.05 v -0.515 h -1.04 v -0.528 h -1.04 v -0.519 h -1.56 v -0.516 h -1.05 v -0.527 h -1.56 v -0.52 h -1.56 v -0.515 h -1.05 v -0.528 h -2.09 v -0.519 h -2.08 v -0.527 h -3.12 v -0.516 h -4.18 v -0.52 h -9.9 v -0.527 h -37 v 0.527 h -1.57 v 0.52 h -1.04 v 0.516 h -0.53 v 0.527 h -0.52 v 0.519 h -0.51 v 0.528 h -0.53 v 1.035 h -0.52 v 1.043 H 1078 v 3.652 h 0.52 v 1.563 h 0.52 v 2.082 h 0.53 v 1.043 h 0.51 v 1.562 h 0.52 v 2.086 h 0.53 v 1.563 h 0.52 v 2.086 h 0.52 v 1.043 h 0.52 v 2.085 h 0.52 v 2.086 h 0.53 v 1.563 h 0.51 v 1.562 h 0.53 v 1.043 h 0.52 v 2.086 h 0.52 v 1.563 h 0.51 v 2.086 h 0.53 v 1.562 h 0.52 v 2.09 h 0.53 v 1.039 h 0.51 v 1.563 h 0.52 v 2.086 h 0.53 v 1.566 h 0.52 v 1.563 h 0.51 v 1.562 h 0.53 v 2.086 h 0.52 v 1.039 h 0.53 v 2.613 h 0.51 v 1.559 h 0.53 v 1.043 h 0.52 v 2.086 h 0.52 v 1.039 h 0.51 v 2.09 h 0.53 v 1.562 h 0.52 v 1.563 h 0.53 v 2.086 h 0.51 v 1.562 h 0.53 v 1.567 h 0.52 v 1.562 h -69.33 v 0.523 h -1.04 v 0.516 h -1.05 v 0.524 h -0.52 v 0.523 h -0.51 v 0.523 h -0.53 v 1.039 h -0.52 v 0.524 h -0.53 v 1.562 h -0.51 v 5.731 h 0.51 v 1.047 h 0.53 v 2.601 h 0.52 v 1.043 h 0.53 v 2.086 h 0.51 v 1.039 h 0.52 v 2.09 h 0.53 v 1.039 h 0.52 v 1.567 h 0.51 v 1.566 h 0.53 v 1.563 h 0.52 v 2.085 h 0.53 v 1.563 h 0.51 v 1.566 h 0.52 v 1.563 h 0.53 v 1.562 h 0.52 v 1.567 h 0.51 v 1.558 h 0.53 v 1.567 h 0.52 v 1.039 h 0.53 v 1.562 h 0.51 v 2.09 h 0.52 v 1.559 h 0.53 v 2.09 h 0.52 v 1.039 h 0.51 v 1.562 h 0.53 v 1.57 h 0.52 v 1.559 h 0.53 v 1.047 h 0.51 V 757 h 0.52 v 1.047 h 0.53 v 0.516 h 0.52 v 1.046 h 0.51 v 1.043 h 0.53 v 0.52 h 0.52 v 1.043 h 0.53 v 0.519 h 0.51 v 1.043 h 0.52 v 0.524 h 0.53 v 0.523 h 0.52 v 1.039 h 0.51 v 0.52 h 0.53 v 0.519 h 0.52 v 0.524 h 0.53 v 1.047 h 0.51 v 0.519 h 0.52 v 0.52 h 0.53 v 0.519 h 0.52 v 0.52 h 0.51 v 0.523 h 0.53 v 0.524 h 0.52 v 0.519 h 0.53 v 0.524 h 1.03 v 0.523 h 0.53 v 0.516 h 0.52 v 0.523 h 0.52 v 0.52 h 1.04 v 0.519 h 0.53 v 0.524 h 0.51 v 0.523 h 1.05 v 0.524 h 0.52 v 0.519 h 1.04 v 0.52 h 1.05 v 0.519 h 1.03 v 0.524 h 1.05 v 0.519 h 1.04 v 0.524 h 1.05 v 0.519 h 1.56 v 0.523 h 1.56 v 0.524 h -6.26 v -0.524 h -3.64 v -0.523 h -2.09 v -0.519 h -2.08 v -0.524 h -1.05 v -0.519 h -2.09 v -0.524 h -1.56 v -0.519 h -1.56 v -0.52 h -1.05 v -0.519 h -1.56 v -0.524 h -1.03 v -0.523 h -1.05 v -0.524 h -1.04 v -0.519 h -1.05 v -0.52 h -1.03 v -0.523 h -1.05 v -0.516 h -0.53 v -0.523 h -1.03 v -0.524 h -0.53 v -0.519 h -1.03 v -0.524 h -0.53 v -0.523 h -0.52 v -0.52 h -1.04 v -0.519 h -0.52 v -0.52 h -0.53 v -0.519 h -0.52 v -0.524 h -0.51 v -0.523 H 1029 v -0.524 h -1.05 v -0.519 h -0.51 v -0.52 h -0.52 v -1.039 h -0.53 v -0.523 h -0.52 v -0.524 h -0.51 v -0.519 h -0.53 v -0.524 h -0.52 v -0.519 h -0.53 v -1.043 h -0.51 v -0.52 h -0.52 v -1.043 h -0.53 v -0.523 h -0.52 v -1.039 h -0.51 v -0.524 h -0.53 v -1.043 h -0.52 v -1.042 h -0.53 v -1.043 h -0.51 v -1.04 h -0.52 v -1.046 h -0.53 v -1.563 h -0.52 v -1.562 h -0.52 v -1.043 h -0.52 v -1.567 h -0.52 v -1.558 h -0.53 v -2.086 h -0.51 v -2.086 h -0.52 v -1.567 h -0.53 v -1.039 h -0.52 v -2.086 h -0.52 v -2.086 h -0.52 v -1.562 h -0.52 v -1.043 h -0.52 v -2.086 h -0.52 v -2.086 h -0.52 v -1.562 h -0.53 v -1.043 h -0.52 v -2.086 h -0.52 v -2.086 h -0.52 v -1.563 h -0.52 v -1.039 h -0.53 v -2.09 h -0.51 v -1.558 h -0.52 v -2.09 h -0.53 v -1.039 h -0.52 v -2.086 h -0.52 v -2.086 h -0.52 v -1.563 h -0.52 v -1.043 h -0.52 v -2.085 h -0.52 v -1.563 h -55.775 v -0.523 h -3.653 v -0.524 h -2.078 v -0.515 h -1.574 v -0.524 h -2.078 v -0.519 h -1.047 v -0.524 h -1.043 v -0.519 h -1.563 v -0.524 h -1.035 v -0.519 h -1.047 v -0.52 h -1.043 v -0.519 h -0.519 v -0.524 h -1.043 v -0.523 h -1.047 v -0.524 h -0.516 v -0.519 h -1.046 v -0.52 h -0.516 v -0.523 h -0.527 v -0.516 h -1.036 v -0.523 h -0.527 v -0.524 h -0.519 v -0.519 h -0.528 v -0.524 h -1.035 v -0.523 h -0.527 v -0.524 h -0.516 v -0.515 h -0.519 v -0.52 h -0.528 v -0.519 h -0.515 v -0.524 h -0.528 v -0.523 h -0.519 v -0.524 h -0.516 v -0.519 h -0.527 v -0.52 h -0.52 v -1.039 h -0.515 v -0.523 h -0.528 v -0.524 h -0.519 v -0.519 h -0.528 v -1.047 h -0.515 v -0.516 h -0.52 v -0.523 h -0.527 v -1.039 h -0.516 v -0.524 h -0.519 v -1.046 h -0.528 v -0.516 h -0.515 v -1.047 h -0.528 v -0.519 h -0.519 v -1.043 h -0.516 v -1.043 h -0.527 v -1.039 h -0.52 v -1.047 h -0.527 v -1.039 h -0.516 v -1.047 h -0.519 v -1.039 h -0.516 v -1.567 h -0.527 v -2.082 h -0.52 v -1.043 h -0.527 v -1.047" /><path
         id="path22"
         style="fill:#14743b;fill-opacity:1;fill-rule:evenodd;stroke:none"
         d="m 904.418,661.609 v -1.039 h -0.516 v -1.039 h -0.527 v -1.566 h -0.52 v -2.606 h -0.515 v -1.043 h -0.527 v -1.562 h -0.52 v -1.563 h -0.516 v -1.57 h -0.527 v -2.082 h -0.52 v -1.562 h -0.527 v -1.563 h -0.515 v -1.566 h -0.52 v -1.559 h -0.527 v -1.047 h -0.516 v -1.562 h -0.52 v -1.563 h -0.527 v -1.57 h -0.515 v -1.563 h -0.528 v -2.597 h -0.519 v -0.528 H 894 v -2.609 h -0.52 v -1.562 h -0.527 v -1.563 h -0.515 v -1.043 h -0.528 v -1.562 h -0.519 v -7.813 h 0.519 v -0.527 h 0.528 v -1.047 h 0.515 v -1.043 h 0.527 v -0.52 H 894 v -0.515 h 1.035 v -0.52 h 0.528 v -0.527 h 1.042 v -0.516 h 2.083 v -0.527 h 75.058 v -1.563 h -0.519 v -1.047 h -0.516 v -1.562 h -0.527 v -1.563 h -0.52 v -1.562 h -0.516 v -2.09 h -0.527 V 597.5 h -0.519 v -1.047 h -0.528 v -2.605 h -0.515 v -1.563 h -0.52 v -1.035 h -0.527 v -2.09 h -0.516 v -1.047 h -0.527 v -1.562 h -0.52 v -2.078 h -0.515 v -2.09 h -0.528 v -1.047 h -0.519 v -1.563 h -0.516 v -2.605 h -0.527 v -1.035 h -0.52 v -2.09 h -0.527 v -1.047 h -0.516 v -1.562 h -0.519 v -2.079 h -0.528 v -2.089 h -0.515 v -1.047 h -0.52 v -1.563 h -0.527 v -2.605 h -0.516 v -1.035 h -0.527 v -2.09 h -0.52 v -1.047 h -0.515 v -1.563 h -0.528 v -2.078 h -0.519 v -1.562 h -0.516 v -1.563 h -0.527 v -1.574 h -0.52 v -1.562 h -0.527 v -2.079 h -0.516 v -2.089 h -0.519 v -1.047 h -0.527 v -1.563 h -0.516 v -2.078 h -0.52 v -4.172 h 0.52 v -1.043 h 0.516 v -1.047 h 0.527 v -0.515 h 0.519 v -0.52 h 0.516 v -0.527 h 0.527 v -0.516 h 0.52 v -0.527 h 0.527 v -0.52 h 1.035 v -0.515 h 43.264 v 0.515 h 6.77 v 0.52 h 1.57 v 0.527 h 1.04 v 0.516 h 1.05 v 0.527 h 0.52 v 0.52 h 1.04 v 0.515 h 1.04 v 0.528 h 0.52 v 0.519 h 1.05 v 0.516 h 0.51 v 0.527 h 1.05 v 0.52 h 0.52 v 0.527 h 0.52 v 0.516 h 0.52 v 0.519 h 0.53 v 0.528 h 1.03 v 0.515 h 0.53 v 0.52 h 0.52 v 0.527 h 0.53 v 0.516 h 0.51 v 0.527 h 0.52 v 0.52 h 0.53 v 0.515 h 0.52 v 0.528 h 0.51 v 1.035 h 0.53 v 0.527 h 0.52 v 0.52 h 0.53 v 0.527 h 0.51 v 1.035 h 0.52 v 0.527 h 0.53 v 0.516 h 0.52 v 1.047 h 0.51 v 0.516 h 0.53 v 1.046 h 0.52 v 0.516 h 0.53 v 1.047 h 0.51 v 1.043 h 0.52 v 1.047 h 0.53 v 0.515 h 0.52 v 1.047 h 0.51 v 1.043 h 0.53 v 1.563 h 0.52 v 1.035 h 0.53 v 1.574 h 0.51 v 1.563 h 0.52 v 1.562 h 0.53 v 1.563 h 0.52 v 1.562 h 0.51 v 2.09 h 0.53 v 1.562 h 0.52 v 1.563 h 0.53 v 1.562 h 0.51 v 1.563 h 0.52 v 1.562 h 0.53 v 1.563 h 0.52 v 1.57 h 0.51 v 1.555 h 0.53 v 1.57 h 0.52 v 1.563 h 0.53 v 1.562 h 0.51 v 2.09 h 0.52 v 1.035 h 0.53 v 1.563 h 0.52 v 1.574 h 0.51 v 1.563 h 0.53 v 2.078 h 0.52 v 1.562 h 0.53 v 1.563 h 0.51 v 1.562 h 0.52 v 4.699 h -0.52 v 1.563 h -0.51 v 0.515 h -0.53 v 1.047 h -0.52 v 0.528 h -1.04 v 0.515 h -0.52 v 0.52 h -1.56 v 0.527 h -67.767 v 1.563 h 0.516 v 1.562 h 0.527 v 1.563 h 0.52 v 1.562 h 0.516 v 1.563 h 0.527 v 2.09 h 0.519 v 1.562 h 0.516 v 1.563 h 0.527 v 1.562 h 0.52 v 2.09 h 0.527 v 1.562 h 0.516 v 1.563 h 0.519 v 2.09 h 0.516 v 1.035 h 0.527 v 2.09 h 0.52 v 1.562 h 0.527 v 1.563 h 0.516 v 1.562 h 0.519 v 2.09 h 0.528 v 1.559 h 0.515 v 1.566 h 0.52 v 1.563 h 0.527 v 2.086 h 0.516 v 1.558 h 0.527 v 1.57 h 0.52 v 2.079 h 0.527 v 1.046 h 0.516 v 2.086 h 0.519 v 1.563 h 0.516 v 1.566 h 0.527 v 1.559 h 0.52 v 2.09 h 0.527 v 1.562 h 0.516 v 1.563 h 0.519 v 1.566 h 0.528 v 1.563 h 0.515 v 2.086 h 0.528 v 1.039 h 0.519 v 5.214 h -0.519 v 1.043 h -0.528 v 1.043 h -0.515 v 0.516 h -0.528 v 0.523 h -0.519 v 0.524 h -1.043 v 0.519 h -1.047 v 0.524 H 939.34 v -0.524 h -3.125 v -0.519 h -3.125 v -0.524 h -1.563 v -0.523 h -1.562 v -0.516 h -1.563 v -0.523 h -1.57 v -0.52 h -1.562 v -0.519 h -1.036 v -0.524 h -1.046 v -0.523 h -1.043 v -0.523 h -1.047 v -0.516 h -1.035 v -0.523 h -1.043 v -0.524 h -0.528 v -0.519 h -1.035 v -0.52 h -0.527 v -0.523 h -1.035 v -0.524 h -0.528 v -0.519 h -1.047 v -0.52 h -0.515 v -0.519 h -0.52 v -0.524 h -0.527 v -0.523 h -0.516 v -0.524 h -0.519 v -0.515 h -0.528 v -0.524 h -0.515 v -0.523 h -0.528 v -0.516 h -0.519 v -0.523 h -0.516 v -0.524 h -0.527 v -0.519 h -0.52 v -0.524 h -0.527 v -0.519 h -0.516 v -1.043 h -0.519 v -0.52 h -0.516 v -1.043 h -0.527 v -0.523 h -0.52 v -0.524 h -0.527" /><path
         id="path24"
         style="fill:#c2e013;fill-opacity:1;fill-rule:evenodd;stroke:none"
         d="m 1163.48,643.367 h 0.53 v 1.563 h 0.52 v 1.566 h 0.51 v 1.567 h 0.53 v 2.082 h 0.52 v 1.562 h 0.53 v 1.563 h 0.51 v 1.57 h 0.52 v 1.039 h 0.53 v 1.562 h 0.52 v 2.09 h 0.51 v 1.039 h 0.53 v 2.61 h 0.52 v 1.562 h 0.52 v 1.563 h 0.52 v 1.566 h 0.52 v 1.039 h 0.52 v 1.563 h 0.53 v 1.566 h 0.51 v 1.563 h 0.53 v 2.086 h 0.52 v 1.562 h 0.53 v 1.566 h 0.51 v 1.559 h 0.52 v 1.047 h 0.52 v 1.566 h 0.53 v 1.559 h 0.51 v 2.09 h 0.53 v 2.078 h 0.52 v 1.566 h 0.53 v 4.696 h -0.53 v 1.039 h -0.52 v 1.043 h -0.53 v 0.519 h -0.51 v 0.524 h -0.53 v 0.519 h -0.52 v 0.524 h -0.52 v 0.515 h -1.04 v 0.524 h -2.09 v 0.523 h -74.01 v 1.039 h 0.51 v 2.609 h 0.53 v 1.567 h 0.52 v 1.039 h 0.53 v 2.086 h 0.51 v 1.047 h 0.52 v 2.601 h 0.53 v 1.043 h 0.52 v 2.082 h 0.52 v 1.043 h 0.52 v 2.61 h 0.52 v 1.562 h 0.52 v 1.043 h 0.52 v 1.563 h 0.52 v 1.562 h 0.53 v 2.61 h 0.52 v 1.042 h 0.52 v 2.083 h 0.52 v 1.042 h 0.52 v 2.61 h 0.52 v 1.039 h 0.52 v 2.09 h 0.52 v 1.039 h 0.53 v 1.562 h 0.51 v 2.61 h 0.53 v 1.039 h 0.52 v 2.086 h 0.52 v 1.039 h 0.52 v 2.09 h 0.52 v 1.562 h 0.52 v 2.086 h 0.53 v 1.043 h 0.51 v 2.605 h 0.53 v 1.043 h 0.52 v 2.086 h 0.53 v 1.043 h 0.51 v 1.563 h 0.52 v 2.609 h 0.52 v 1.039 h 0.53 v 2.086 h 0.51 v 1.043 h 0.53 v 2.082 h 0.52 v 4.692 h -0.52 v 1.566 h -0.53 v 0.52 h -0.51 v 1.043 h -0.53 v 0.519 h -0.52 v 0.524 h -1.03 v 0.519 h -1.05 v 0.523 h -1.57 v 0.524 h -47.95 v -0.524 h -1.56 v -0.523 h -1.56 v -0.519 h -1.05 v -0.524 h -1.04 v -0.519 h -1.05 v -0.524 h -1.03 v -0.519 h -1.05 v -0.52 h -1.04 v -0.519 h -0.52 v -0.524 h -1.05 v -0.523 h -0.51 v -0.524 h -0.53 v -0.519 h -1.04 v -0.52 h -0.52 v -0.523 h -0.52 v -0.516 h -0.53 v -0.523 h -1.03 v -0.524 h -0.53 v -0.519 h -0.52 v -0.524 h -0.53 v -0.523 h -0.51 v -0.52 h -0.52 v -0.519 h -0.53 v -0.52 h -0.52 v -0.519 h -0.51 v -1.047 h -0.53 v -0.524 h -0.52 v -0.519 h -0.53 v -0.52 h -0.51 v -1.039 h -0.52 v -0.523 h -0.53 v -0.524 h -0.52 v -1.043 h -0.51 v -0.519 h -0.53 v -1.043 h -0.52 v -0.52 h -0.53 v -1.043 h -0.51 v -1.046 h -0.52 v -0.516 h -0.53 V 757 h -0.52 v -1.039 h -0.51 v -1.047 h -0.53 v -1.559 h -0.52 v -1.57 h -0.53 v -1.562 h -0.51 v -1.039 h -0.52 v -2.09 h -0.53 v -1.559 h -0.52 v -2.09 h -0.51 v -1.562 h -0.53 v -1.039 h -0.52 v -1.567 h -0.53 v -1.558 h -0.51 v -1.567 h -0.52 v -1.562 h -0.53 v -1.563 h -0.52 v -1.566 h -0.51 v -1.563 H 1029 v -2.085 h -0.52 v -1.563 h -0.53 v -1.566 h -0.51 v -1.567 h -0.52 v -1.039 h -0.53 v -2.09 h -0.52 v -1.039 h -0.51 v -2.086 h -0.53 v -1.043 h -0.52 v -2.601 h -0.53 v -1.047 h -0.51 v -5.731 h 0.51 v -1.562 h 0.53 v -0.524 h 0.52 v -1.039 h 0.53 v -0.523 h 0.51 v -0.523 h 0.52 v -0.524 h 1.05 v -0.516 h 1.04 v -0.523 h 69.33 v -1.562 h -0.52 v -1.567 h -0.53 v -1.562 h -0.51 v -2.086 h -0.53 v -1.563 h -0.52 v -1.562 h -0.53 v -2.09 h -0.51 v -1.039 h -0.52 v -2.086 h -0.52 v -1.043 h -0.53 v -1.559 h -0.51 v -2.613 h -0.53 v -1.039 h -0.52 v -2.086 h -0.53 v -1.562 h -0.51 v -1.563 h -0.52 v -1.566 h -0.53 v -2.086 h -0.52 v -1.563 h -0.51 v -1.039 h -0.53 v -2.09 h -0.52 v -1.562 h -0.53 v -2.086 h -0.51 v -1.563 h -0.52 v -2.086 h -0.52 v -1.043 h -0.53 v -1.562 h -0.51 v -1.563 h -0.53 v -2.086 h -0.52 v -2.085 h -0.52 v -1.043 h -0.52 v -2.086 h -0.52 v -1.563 h -0.53 v -2.086 h -0.52 v -1.562 h -0.51 v -1.043 h -0.53 v -2.082 h -0.52 v -1.563 H 1078 v -3.652 h 0.52 v -1.043 h 0.52 v -1.035 h 0.53 v -0.528 h 0.51 v -0.519 h 0.52 v -0.527 h 0.53 v -0.516 h 1.04 v -0.52 h 1.57 v -0.527 h 37 v 0.527 h 9.9 v 0.52 h 4.18 v 0.516 h 3.12 v 0.527 h 2.08 v 0.519 h 2.09 v 0.528 h 1.05 v 0.515 h 1.56 v 0.52 h 1.56 v 0.527 h 1.05 v 0.516 h 1.56 v 0.519 h 1.04 v 0.528 h 1.04 v 0.515 h 1.05 v 0.52 h 1.04 v 0.527 h 1.04 v 0.516 h 0.52 v 0.527 h 1.05 v 0.52 h 0.52 v 0.515 h 1.04 v 0.528 h 0.52 v 0.519 h 0.52 v 0.516 h 0.52 v 0.527 h 1.05 v 0.52 h 0.52 v 0.527 h 0.51 v 0.516 h 0.53 v 0.523 h 0.52 v 0.52 h 0.53 v 0.519 h 0.51 v 0.524 h 0.52 v -0.524" /><path
         id="path26"
         style="fill:#ffffff;fill-opacity:1;fill-rule:evenodd;stroke:none"
         d="m 849.496,537.098 c -1.074,-0.36 -2.605,-0.75 -4.598,-1.153 -1.992,-0.41 -3.378,-0.711 -4.14,-0.898 -0.781,-0.184 -1.563,-0.555 -2.356,-1.113 -0.789,-0.555 -1.308,-1.329 -1.543,-2.325 -0.242,-1.023 -0.058,-1.894 0.547,-2.605 0.606,-0.723 1.535,-1.086 2.793,-1.086 1.34,0 2.649,0.293 3.918,0.879 1.27,0.598 2.285,1.34 3.035,2.277 0.852,1.016 1.563,2.715 2.121,5.059 z m -1.875,-9.793 c -1.941,-1.27 -3.75,-2.219 -5.43,-2.852 -1.679,-0.625 -3.476,-0.949 -5.371,-0.949 -1.738,0 -3.191,0.351 -4.343,1.035 -1.153,0.684 -1.946,1.602 -2.383,2.785 -0.43,1.172 -0.489,2.442 -0.156,3.809 0.437,1.844 1.394,3.418 2.878,4.726 1.485,1.309 3.313,2.176 5.481,2.625 0.449,0.098 1.562,0.325 3.348,0.664 1.789,0.344 3.332,0.665 4.609,0.957 1.281,0.286 2.687,0.637 4.211,1.047 0.332,1.786 0.293,3.094 -0.149,3.926 -0.449,0.828 -1.66,1.25 -3.671,1.25 -1.719,0 -3.075,-0.234 -4.051,-0.723 -0.977,-0.468 -1.895,-1.191 -2.746,-2.148 -0.848,-0.957 -1.434,-1.582 -1.766,-1.894 -0.332,-0.313 -0.918,-0.461 -1.758,-0.461 -0.761,0 -1.367,0.246 -1.797,0.734 -0.441,0.488 -0.566,1.113 -0.39,1.863 0.281,1.192 0.976,2.356 2.09,3.477 1.113,1.125 2.644,2.051 4.597,2.773 1.965,0.723 4.278,1.086 6.953,1.086 2.969,0 5.235,-0.351 6.77,-1.055 1.531,-0.703 2.48,-1.808 2.82,-3.332 0.344,-1.511 0.215,-3.523 -0.379,-6.035 -0.371,-1.59 -0.703,-2.929 -0.968,-4.043 -0.274,-1.101 -0.575,-2.343 -0.907,-3.691 -0.312,-1.27 -0.41,-2.598 -0.312,-3.973 0.097,-1.367 0.086,-2.258 0,-2.648 -0.168,-0.692 -0.637,-1.328 -1.426,-1.895 -0.793,-0.566 -1.602,-0.859 -2.434,-0.859 -0.691,0 -1.308,0.324 -1.824,0.976 -0.527,0.657 -1.027,1.594 -1.496,2.825 z M 826.5,554.129 c -0.937,0 -1.672,0.293 -2.207,0.871 -0.527,0.566 -0.664,1.387 -0.422,2.441 0.227,0.946 4.582,6.082 5.41,6.7 0.832,0.613 1.699,0.925 2.61,0.925 0.879,0 1.589,-0.273 2.129,-0.828 0.546,-0.566 0.691,-1.379 0.437,-2.453 -0.242,-1.035 -4.59,-6.191 -5.391,-6.777 -0.8,-0.574 -1.648,-0.879 -2.566,-0.879 z m 1.699,-6.981 c 0.281,1.211 0.184,2.149 -0.304,2.832 -0.477,0.672 -1.211,1.004 -2.207,1.004 -0.985,0 -1.875,-0.332 -2.657,-1.004 -0.769,-0.683 -1.328,-1.691 -1.648,-3.027 l -4.582,-19.336 c -0.313,-1.32 -0.242,-2.336 0.207,-3.047 0.449,-0.703 1.172,-1.066 2.156,-1.066 0.996,0 1.895,0.351 2.707,1.047 0.801,0.691 1.367,1.707 1.688,3.066 l 4.64,19.531 z m -25.617,-13.886 -1.336,-5.645 c -0.332,-1.367 -0.891,-2.394 -1.699,-3.078 -0.801,-0.684 -1.699,-1.035 -2.695,-1.035 -0.977,0 -1.7,0.351 -2.161,1.047 -0.457,0.691 -0.535,1.707 -0.214,3.066 l 4.464,18.817 c 0.723,3.039 2.188,4.55 4.383,4.55 1.114,0 1.848,-0.351 2.168,-1.062 0.332,-0.703 0.352,-1.77 0.071,-3.145 1.132,1.375 2.214,2.442 3.242,3.145 1.023,0.711 2.246,1.062 3.672,1.062 1.425,0 2.714,-0.351 3.886,-1.062 1.172,-0.703 1.621,-1.652 1.336,-2.832 -0.195,-0.82 -0.633,-1.504 -1.336,-2.043 -0.703,-0.535 -1.379,-0.801 -2.043,-0.801 -0.242,0 -0.808,0.149 -1.687,0.461 -0.879,0.301 -1.692,0.449 -2.414,0.449 -0.996,0 -1.864,-0.265 -2.617,-0.773 -0.75,-0.528 -1.426,-1.297 -2.02,-2.313 -0.586,-1.027 -1.113,-2.246 -1.582,-3.652 -0.461,-1.418 -0.937,-3.125 -1.418,-5.156 z m -29.812,6.172 h 12.285 c 0.39,2.304 0.164,4.023 -0.637,5.175 -0.82,1.141 -2.109,1.719 -3.875,1.719 -1.699,0 -3.215,-0.586 -4.57,-1.75 -1.368,-1.16 -2.434,-2.879 -3.203,-5.144 z m 12.343,-3.86 h -13.254 c -0.351,-1.531 -0.359,-2.89 -0.039,-4.062 0.325,-1.172 0.918,-2.051 1.778,-2.645 0.859,-0.597 1.906,-0.898 3.105,-0.898 0.813,0 1.574,0.097 2.285,0.293 0.723,0.183 1.438,0.476 2.16,0.886 0.731,0.403 1.415,0.832 2.051,1.301 0.645,0.457 1.473,1.082 2.508,1.883 0.422,0.293 0.949,0.441 1.594,0.441 0.691,0 1.211,-0.187 1.562,-0.566 0.332,-0.371 0.418,-0.918 0.262,-1.613 -0.145,-0.606 -0.566,-1.317 -1.23,-2.137 -0.672,-0.812 -1.582,-1.594 -2.735,-2.336 -1.14,-0.75 -2.508,-1.375 -4.09,-1.863 -1.582,-0.5 -3.32,-0.754 -5.226,-0.754 -4.356,0 -7.442,1.25 -9.266,3.723 -1.828,2.48 -2.226,5.828 -1.223,10.078 0.469,1.992 1.211,3.847 2.208,5.554 0.996,1.711 2.218,3.164 3.644,4.395 1.434,1.211 3.066,2.148 4.883,2.805 1.824,0.652 3.758,0.976 5.789,0.976 2.656,0 4.797,-0.547 6.418,-1.672 1.629,-1.113 2.703,-2.547 3.23,-4.324 0.528,-1.769 0.578,-3.566 0.137,-5.402 -0.398,-1.699 -1.152,-2.801 -2.246,-3.309 -1.102,-0.5 -2.527,-0.754 -4.305,-0.754 z m -41.086,1.172 -2.129,-8.973 c -0.339,-1.425 -0.906,-2.492 -1.718,-3.203 -0.809,-0.703 -1.758,-1.066 -2.801,-1.066 -1.027,0 -1.777,0.363 -2.246,1.066 -0.461,0.711 -0.528,1.778 -0.195,3.203 l 2.558,10.762 c 0.399,1.707 0.652,3.028 0.762,3.965 0.105,0.938 -0.02,1.707 -0.391,2.313 -0.383,0.597 -1.113,0.898 -2.226,0.898 -2.227,0 -3.86,-0.762 -4.922,-2.273 -1.067,-1.516 -1.946,-3.692 -2.61,-6.536 l -2.168,-9.129 c -0.332,-1.406 -0.906,-2.472 -1.718,-3.195 -0.801,-0.711 -1.727,-1.074 -2.762,-1.074 -1.027,0 -1.777,0.363 -2.258,1.074 -0.488,0.723 -0.566,1.789 -0.234,3.195 l 4.59,19.325 c 0.304,1.269 0.832,2.238 1.574,2.902 0.742,0.652 1.59,0.984 2.547,0.984 0.929,0 1.621,-0.312 2.101,-0.925 0.469,-0.618 0.586,-1.465 0.321,-2.559 l -0.145,-0.645 c 1.492,1.407 3.008,2.43 4.5,3.094 1.496,0.664 3.066,0.989 4.699,0.989 1.707,0 3.086,-0.344 4.16,-1.016 1.063,-0.676 1.825,-1.699 2.293,-3.067 1.477,1.387 2.942,2.411 4.407,3.075 1.464,0.664 2.996,1.008 4.589,1.008 1.856,0 3.36,-0.364 4.52,-1.094 1.172,-0.723 1.934,-1.758 2.266,-3.117 0.293,-1.211 0.129,-3.145 -0.496,-5.762 l -3.137,-13.192 c -0.332,-1.425 -0.906,-2.492 -1.719,-3.203 -0.809,-0.703 -1.758,-1.066 -2.801,-1.066 -1.027,0 -1.777,0.363 -2.265,1.074 -0.481,0.723 -0.559,1.789 -0.227,3.195 l 2.695,11.356 c 0.344,1.457 0.559,2.617 0.645,3.496 0.078,0.871 -0.078,1.602 -0.488,2.199 -0.399,0.594 -1.16,0.887 -2.266,0.887 -0.906,0 -1.816,-0.254 -2.742,-0.789 -0.918,-0.527 -1.719,-1.231 -2.375,-2.129 -0.77,-1.133 -1.492,-3.156 -2.188,-6.047 z m -37.879,-9.422 0.204,0.867 c -1.055,-1.023 -2.11,-1.882 -3.164,-2.578 -1.055,-0.691 -2.149,-1.211 -3.29,-1.543 -1.144,-0.34 -2.382,-0.515 -3.742,-0.515 -1.64,0 -3.027,0.34 -4.16,1.015 -1.141,0.684 -1.922,1.61 -2.351,2.801 -0.5,1.438 -0.442,3.496 0.203,6.192 l 3.175,13.39 c 0.321,1.356 0.868,2.363 1.629,3.027 0.774,0.672 1.672,1.004 2.676,1.004 1.016,0 1.77,-0.332 2.238,-1.004 0.469,-0.683 0.536,-1.691 0.223,-3.027 l -2.566,-10.82 c -0.371,-1.563 -0.547,-2.883 -0.547,-3.945 0.019,-1.067 0.293,-1.907 0.828,-2.5 0.547,-0.598 1.406,-0.911 2.59,-0.911 1.14,0 2.293,0.344 3.465,1.016 1.171,0.676 2.121,1.562 2.843,2.656 0.606,0.957 1.289,3.047 2.059,6.289 l 1.945,8.215 c 0.321,1.336 0.879,2.344 1.66,3.027 0.801,0.672 1.7,1.004 2.715,1.004 0.996,0 1.739,-0.332 2.188,-1.004 0.457,-0.664 0.527,-1.671 0.203,-3.027 l -4.649,-19.582 c -0.3,-1.289 -0.828,-2.246 -1.562,-2.898 -0.75,-0.645 -1.582,-0.969 -2.508,-0.969 -0.93,0 -1.621,0.344 -2.062,1.008 -0.438,0.672 -0.528,1.609 -0.243,2.812 z m -29.582,23.055 c -2.265,0 -3.593,-0.801 -3.972,-2.422 -0.176,-0.723 -0.039,-1.316 0.398,-1.766 0.442,-0.449 1.164,-0.675 2.168,-0.675 h 1.867 l -4.25,-17.899 c -0.312,-1.34 -0.234,-2.355 0.235,-3.047 0.468,-0.703 1.183,-1.066 2.14,-1.066 0.996,0 1.903,0.363 2.703,1.066 0.801,0.692 1.368,1.707 1.68,3.047 l 4.25,17.899 h 1.66 c 1.211,0 2.196,0.148 2.95,0.441 0.761,0.301 1.269,1.004 1.531,2.098 0.363,1.554 -0.742,2.324 -3.328,2.324 h -1.66 l 0.39,1.613 c 0.313,1.336 0.731,2.371 1.25,3.086 0.527,0.723 1.387,1.082 2.617,1.082 0.45,0 0.977,-0.047 1.602,-0.156 0.613,-0.086 1.062,-0.137 1.328,-0.137 0.566,0 1.102,0.215 1.621,0.664 0.516,0.442 0.859,0.977 1.004,1.614 0.461,1.921 -1.289,2.878 -5.254,2.878 -2.226,0 -4.043,-0.281 -5.457,-0.847 -1.418,-0.578 -2.551,-1.485 -3.379,-2.727 -0.832,-1.25 -1.496,-2.929 -2.004,-5.039 l -0.476,-2.031 h -1.614 z m -19.07,-17.117 -1.34,-5.645 c -0.332,-1.367 -0.886,-2.394 -1.699,-3.078 -0.809,-0.684 -1.699,-1.035 -2.695,-1.035 -0.965,0 -1.688,0.351 -2.157,1.047 -0.46,0.691 -0.527,1.707 -0.214,3.066 l 4.472,18.817 c 0.711,3.039 2.176,4.55 4.375,4.55 1.114,0 1.844,-0.351 2.168,-1.062 0.332,-0.703 0.352,-1.77 0.078,-3.145 1.133,1.375 2.207,2.442 3.231,3.145 1.027,0.711 2.246,1.062 3.672,1.062 1.418,0 2.715,-0.351 3.886,-1.062 1.172,-0.703 1.622,-1.652 1.34,-2.832 -0.195,-0.82 -0.636,-1.504 -1.34,-2.043 -0.691,-0.535 -1.375,-0.801 -2.039,-0.801 -0.246,0 -0.812,0.149 -1.691,0.461 -0.879,0.301 -1.688,0.449 -2.41,0.449 -0.996,0 -1.856,-0.265 -2.617,-0.773 -0.754,-0.528 -1.426,-1.297 -2.012,-2.313 -0.598,-1.027 -1.125,-2.246 -1.594,-3.652 -0.457,-1.418 -0.937,-3.125 -1.414,-5.156 z m -29.808,6.172 c 0.765,2.265 1.832,3.984 3.195,5.144 1.359,1.164 2.879,1.75 4.57,1.75 1.774,0 3.063,-0.578 3.871,-1.719 0.817,-1.152 1.031,-2.871 0.649,-5.175 h -12.285 z m 12.339,-3.86 c 1.774,0 3.203,0.254 4.297,0.754 1.102,0.508 1.852,1.61 2.254,3.309 0.438,1.836 0.391,3.633 -0.129,5.402 -0.531,1.777 -1.605,3.211 -3.242,4.324 -1.621,1.125 -3.758,1.672 -6.414,1.672 -2.031,0 -3.965,-0.324 -5.785,-0.976 -1.828,-0.657 -3.453,-1.594 -4.891,-2.805 -1.426,-1.231 -2.64,-2.684 -3.64,-4.395 -0.997,-1.707 -1.739,-3.562 -2.211,-5.554 -1.008,-4.25 -0.598,-7.598 1.226,-10.078 1.828,-2.473 4.914,-3.723 9.27,-3.723 1.898,0 3.64,0.254 5.23,0.754 1.574,0.488 2.938,1.113 4.082,1.863 1.153,0.742 2.059,1.524 2.735,2.336 0.668,0.82 1.082,1.531 1.222,2.137 0.168,0.695 0.074,1.242 -0.258,1.613 -0.339,0.379 -0.863,0.566 -1.562,0.566 -0.641,0 -1.164,-0.148 -1.586,-0.441 -1.035,-0.801 -1.871,-1.426 -2.516,-1.883 -0.632,-0.469 -1.312,-0.898 -2.046,-1.301 -0.719,-0.41 -1.434,-0.703 -2.157,-0.886 -0.715,-0.196 -1.472,-0.293 -2.289,-0.293 -1.203,0 -2.242,0.301 -3.101,0.898 -0.86,0.594 -1.453,1.473 -1.778,2.645 -0.32,1.172 -0.316,2.531 0.035,4.062 h 13.254 z m -33.488,19.317 h -4.969 l -2.632,-11.102 h 4.964 c 1.739,0 3.239,0.184 4.496,0.547 1.247,0.371 2.278,0.957 3.09,1.785 0.809,0.82 1.367,1.906 1.688,3.242 0.379,1.614 0.215,2.91 -0.485,3.918 -0.804,1.074 -2.855,1.61 -6.152,1.61 z m -2.16,-16.629 h -6.75 l -2.438,-10.274 c -0.351,-1.465 -0.961,-2.578 -1.836,-3.34 -0.875,-0.761 -1.847,-1.144 -2.902,-1.144 -1.105,0 -1.918,0.371 -2.418,1.125 -0.496,0.762 -0.574,1.863 -0.226,3.309 l 6.632,27.98 c 0.387,1.609 1.039,2.773 1.946,3.465 0.91,0.683 2.168,1.035 3.793,1.035 h 9.461 c 2.793,0 4.894,-0.215 6.3,-0.645 1.395,-0.41 2.52,-1.093 3.375,-2.05 0.86,-0.965 1.403,-2.129 1.629,-3.516 0.243,-1.387 0.149,-2.949 -0.261,-4.676 -0.879,-3.703 -2.688,-6.504 -5.414,-8.41 -2.743,-1.902 -6.364,-2.859 -10.891,-2.859 z m -52.305,-15.606 0.989,1.512 -3.368,20.949 c -0.226,1.211 -0.277,2.09 -0.144,2.625 0.137,0.578 0.414,1.113 0.832,1.613 0.414,0.489 0.91,0.887 1.508,1.192 0.586,0.293 1.168,0.437 1.722,0.437 0.989,0 1.645,-0.312 1.992,-0.925 0.352,-0.618 0.571,-1.504 0.684,-2.657 l 1.785,-16.64 9.106,15.468 c 0.73,1.258 1.351,2.235 1.867,2.95 0.516,0.711 0.992,1.191 1.441,1.433 0.45,0.246 1.032,0.371 1.742,0.371 0.504,0 0.969,-0.125 1.379,-0.398 0.399,-0.285 0.672,-0.645 0.829,-1.113 0.148,-0.45 0.156,-0.938 0.035,-1.457 -0.141,-0.313 -0.352,-0.762 -0.641,-1.336 -0.285,-0.578 -0.605,-1.164 -0.961,-1.758 l -14.312,-23.078 c -1.246,-2.039 -2.368,-3.621 -3.36,-4.785 -1.004,-1.153 -2.179,-2.039 -3.535,-2.657 -1.336,-0.625 -3.031,-0.925 -5.062,-0.925 -1.985,0 -3.422,0.203 -4.313,0.632 -0.887,0.43 -1.203,1.223 -0.937,2.356 0.187,0.769 0.566,1.375 1.136,1.785 0.571,0.422 1.325,0.637 2.246,0.637 0.364,0 0.711,-0.051 1.032,-0.149 0.41,-0.097 0.773,-0.144 1.086,-0.144 0.781,0 1.414,0.117 1.914,0.34 0.504,0.234 0.996,0.636 1.484,1.203 0.492,0.574 1.105,1.414 1.824,2.519 z m -22.402,9.676 c -0.438,-1.863 -1.274,-3.457 -2.5,-4.785 -1.219,-1.328 -2.801,-2.332 -4.746,-3.016 -1.942,-0.683 -4.184,-1.027 -6.735,-1.027 -2.429,0 -4.421,0.371 -5.984,1.125 -1.562,0.73 -2.621,1.66 -3.187,2.773 -0.559,1.114 -0.707,2.227 -0.442,3.348 0.176,0.742 0.586,1.379 1.246,1.906 0.656,0.528 1.383,0.789 2.196,0.789 0.714,0 1.21,-0.175 1.511,-0.527 0.297,-0.34 0.547,-0.828 0.746,-1.465 0.411,-1.191 1.028,-2.098 1.852,-2.683 0.82,-0.606 2.074,-0.899 3.742,-0.899 1.359,0 2.539,0.301 3.547,0.906 1.016,0.598 1.609,1.289 1.797,2.063 0.281,1.191 0.035,2.058 -0.735,2.605 -0.773,0.539 -2.132,1.067 -4.085,1.563 -2.192,0.578 -3.946,1.183 -5.258,1.816 -1.309,0.637 -2.278,1.477 -2.91,2.52 -0.625,1.035 -0.766,2.324 -0.407,3.84 0.328,1.355 1.035,2.636 2.125,3.847 1.098,1.199 2.524,2.157 4.278,2.879 1.75,0.715 3.742,1.074 5.976,1.074 1.754,0 3.285,-0.175 4.59,-0.535 1.313,-0.363 2.367,-0.851 3.149,-1.465 0.8,-0.617 1.347,-1.289 1.656,-2.031 0.312,-0.754 0.39,-1.465 0.219,-2.18 -0.184,-0.769 -0.594,-1.414 -1.239,-1.902 -0.636,-0.5 -1.437,-0.754 -2.398,-0.754 -0.696,0 -1.238,0.207 -1.637,0.598 -0.391,0.398 -0.809,0.984 -1.254,1.785 -0.351,0.656 -0.824,1.191 -1.426,1.594 -0.601,0.39 -1.5,0.586 -2.691,0.586 -1.219,0 -2.301,-0.266 -3.234,-0.782 -0.93,-0.519 -1.493,-1.171 -1.676,-1.953 -0.168,-0.703 -0.012,-1.289 0.476,-1.738 0.496,-0.461 1.2,-0.832 2.133,-1.133 0.946,-0.293 2.246,-0.656 3.914,-1.086 1.981,-0.508 3.555,-1.121 4.715,-1.836 1.164,-0.711 1.973,-1.543 2.434,-2.519 0.453,-0.965 0.543,-2.059 0.242,-3.301 z m -34.203,4.766 c -1.078,-0.36 -2.614,-0.75 -4.606,-1.153 -1.98,-0.41 -3.367,-0.711 -4.144,-0.898 -0.774,-0.184 -1.559,-0.555 -2.348,-1.113 -0.793,-0.555 -1.305,-1.329 -1.543,-2.325 -0.238,-1.023 -0.058,-1.894 0.551,-2.605 0.601,-0.723 1.527,-1.086 2.793,-1.086 1.34,0 2.644,0.293 3.91,0.879 1.273,0.598 2.285,1.34 3.039,2.277 0.856,1.016 1.559,2.715 2.117,5.059 l 0.231,0.965 z m -1.879,-9.793 c -1.945,-1.27 -3.75,-2.219 -5.426,-2.852 -1.684,-0.625 -3.48,-0.949 -5.383,-0.949 -1.73,0 -3.179,0.351 -4.336,1.035 -1.144,0.684 -1.945,1.602 -2.382,2.785 -0.426,1.172 -0.489,2.442 -0.161,3.809 0.442,1.844 1.399,3.418 2.883,4.726 1.488,1.309 3.317,2.176 5.477,2.625 0.449,0.098 1.566,0.325 3.355,0.664 1.781,0.344 3.324,0.665 4.61,0.957 1.273,0.286 2.679,0.637 4.203,1.047 0.34,1.786 0.293,3.094 -0.145,3.926 -0.445,0.828 -1.66,1.25 -3.668,1.25 -1.722,0 -3.074,-0.234 -4.054,-0.723 -0.985,-0.468 -1.903,-1.191 -2.747,-2.148 -0.843,-0.957 -1.437,-1.582 -1.761,-1.894 -0.34,-0.313 -0.926,-0.461 -1.766,-0.461 -0.762,0 -1.359,0.246 -1.797,0.734 -0.437,0.488 -0.566,1.113 -0.387,1.863 0.286,1.192 0.985,2.356 2.086,3.477 1.114,1.125 2.649,2.051 4.606,2.773 1.957,0.723 4.277,1.086 6.941,1.086 2.981,0 5.242,-0.351 6.782,-1.055 1.531,-0.703 2.472,-1.808 2.816,-3.332 0.34,-1.511 0.219,-3.523 -0.375,-6.035 -0.379,-1.59 -0.703,-2.929 -0.981,-4.043 -0.265,-1.101 -0.57,-2.343 -0.906,-3.691 -0.304,-1.27 -0.406,-2.598 -0.308,-3.973 0.101,-1.367 0.093,-2.258 0,-2.648 -0.164,-0.692 -0.637,-1.328 -1.426,-1.895 -0.793,-0.566 -1.602,-0.859 -2.43,-0.859 -0.695,0 -1.305,0.324 -1.828,0.976 -0.527,0.657 -1.019,1.594 -1.492,2.825 z m -21.934,4.558 c -0.203,-0.84 -0.672,-1.738 -1.406,-2.695 -0.723,-0.957 -1.711,-1.863 -2.949,-2.723 -1.242,-0.871 -2.711,-1.574 -4.414,-2.09 -1.692,-0.527 -3.528,-0.8 -5.5,-0.8 -4.184,0 -7.168,1.218 -8.934,3.652 -1.777,2.441 -2.183,5.703 -1.207,9.793 0.652,2.773 1.777,5.227 3.359,7.355 1.583,2.129 3.532,3.778 5.84,4.93 2.321,1.172 4.887,1.75 7.719,1.75 1.754,0 3.301,-0.246 4.645,-0.762 1.336,-0.519 2.425,-1.171 3.254,-1.984 0.824,-0.809 1.398,-1.68 1.71,-2.586 0.329,-0.93 0.391,-1.777 0.207,-2.57 -0.191,-0.809 -0.66,-1.492 -1.398,-2.059 -0.742,-0.566 -1.535,-0.84 -2.402,-0.84 -0.555,0 -0.992,0.137 -1.293,0.43 -0.309,0.281 -0.61,0.75 -0.922,1.395 -0.539,1.25 -1.18,2.199 -1.926,2.824 -0.758,0.625 -1.824,0.937 -3.219,0.937 -2,0 -3.8,-0.781 -5.394,-2.343 -1.59,-1.555 -2.707,-3.684 -3.348,-6.387 -0.305,-1.27 -0.422,-2.434 -0.363,-3.496 0.062,-1.067 0.301,-1.985 0.723,-2.727 0.417,-0.75 1,-1.316 1.753,-1.707 0.747,-0.383 1.637,-0.578 2.641,-0.578 1.359,0 2.594,0.305 3.707,0.938 1.121,0.617 2.207,1.582 3.258,2.871 0.586,0.761 1.176,1.347 1.762,1.769 0.57,0.43 1.218,0.653 1.914,0.653 0.832,0 1.441,-0.321 1.836,-0.946 0.39,-0.625 0.511,-1.289 0.347,-2.004 z m -29.39,22.266 c -0.942,0 -1.676,0.293 -2.207,0.871 -0.532,0.566 -0.668,1.387 -0.418,2.441 0.222,0.946 0.75,1.739 1.582,2.352 0.832,0.617 1.703,0.93 2.609,0.93 0.879,0 1.582,-0.274 2.129,-0.832 0.547,-0.567 0.687,-1.375 0.441,-2.45 -0.25,-1.035 -0.773,-1.847 -1.574,-2.433 -0.797,-0.574 -1.644,-0.879 -2.562,-0.879 z m 1.695,-6.981 c 0.281,1.211 0.184,2.149 -0.301,2.832 -0.48,0.672 -1.215,1.004 -2.207,1.004 -0.992,0 -1.879,-0.332 -2.652,-1.004 -0.778,-0.683 -1.336,-1.691 -1.653,-3.027 l -4.589,-19.336 c -0.313,-1.32 -0.239,-2.336 0.211,-3.047 0.453,-0.703 1.171,-1.066 2.164,-1.066 0.988,0 1.882,0.351 2.699,1.047 0.805,0.691 1.367,1.707 1.687,3.066 l 4.641,19.531 z m -23.617,3.231 h 0.742 l 0.965,4.062 c 0.258,1.094 0.484,1.946 0.687,2.559 0.211,0.637 0.5,1.164 0.867,1.602 0.375,0.461 0.844,0.851 1.411,1.132 0.558,0.286 1.144,0.43 1.761,0.43 0.856,0 1.551,-0.32 2.094,-0.965 0.363,-0.429 0.527,-0.949 0.508,-1.574 -0.024,-0.625 -0.168,-1.504 -0.438,-2.637 l -1.093,-4.609 h 2.48 c 0.957,0 1.641,-0.223 2.035,-0.672 0.403,-0.461 0.512,-1.047 0.348,-1.75 -0.215,-0.906 -0.734,-1.543 -1.535,-1.902 -0.809,-0.364 -1.875,-0.539 -3.223,-0.539 h -1.265 l -2.95,-12.422 c -0.246,-1.063 -0.41,-1.875 -0.461,-2.442 -0.062,-0.566 0.024,-1.035 0.262,-1.394 0.246,-0.352 0.731,-0.528 1.457,-0.528 0.391,0 0.945,0.067 1.66,0.215 0.707,0.137 1.258,0.215 1.637,0.215 0.551,0 0.988,-0.226 1.32,-0.664 0.336,-0.441 0.426,-0.988 0.27,-1.621 -0.258,-1.094 -1.043,-1.926 -2.367,-2.5 -1.34,-0.578 -3.118,-0.871 -5.352,-0.871 -2.121,0 -3.633,0.363 -4.551,1.066 -0.929,0.711 -1.402,1.688 -1.445,2.95 -0.047,1.257 0.187,2.929 0.684,5.019 l 3.074,12.977 h -0.887 c -0.98,0 -1.672,0.226 -2.07,0.683 -0.41,0.461 -0.524,1.055 -0.36,1.758 0.172,0.703 0.579,1.289 1.223,1.75 0.648,0.449 1.484,0.672 2.512,0.672 z m -15.649,-13.145 c 0.657,2.754 0.555,4.895 -0.297,6.438 -0.851,1.531 -2.293,2.293 -4.347,2.293 -1.328,0 -2.571,-0.332 -3.742,-1.016 -1.172,-0.683 -2.192,-1.699 -3.051,-3.035 -0.863,-1.34 -1.512,-2.902 -1.93,-4.68 -0.422,-1.765 -0.512,-3.308 -0.293,-4.629 0.231,-1.316 0.75,-2.332 1.582,-3.027 0.836,-0.703 1.938,-1.055 3.297,-1.055 2.051,0 3.856,0.774 5.441,2.317 1.579,1.543 2.7,3.68 3.34,6.394 z m 6.813,0 c -0.477,-2.011 -1.231,-3.867 -2.262,-5.566 -1.031,-1.699 -2.293,-3.152 -3.773,-4.375 -1.481,-1.219 -3.129,-2.156 -4.938,-2.801 -1.805,-0.656 -3.75,-0.988 -5.812,-0.988 -2.063,0 -3.828,0.332 -5.309,0.996 -1.48,0.656 -2.68,1.602 -3.59,2.832 -0.902,1.231 -1.472,2.688 -1.691,4.356 -0.223,1.679 -0.094,3.535 0.387,5.558 0.484,2.051 1.242,3.926 2.273,5.625 1.039,1.699 2.277,3.152 3.742,4.356 1.461,1.199 3.11,2.128 4.934,2.781 1.82,0.644 3.746,0.976 5.769,0.976 2.059,0 3.84,-0.332 5.348,-0.984 1.519,-0.664 2.727,-1.602 3.629,-2.832 0.902,-1.211 1.469,-2.668 1.683,-4.355 0.219,-1.68 0.094,-3.547 -0.39,-5.579 z m -49.961,17.657 -2.223,-9.375 h 6.762 c 1.84,0 3.293,0.175 4.379,0.519 1.09,0.352 2.008,1.004 2.773,1.981 0.575,0.695 0.965,1.464 1.172,2.324 0.43,1.828 0.067,3.047 -1.097,3.652 -1.168,0.598 -3.094,0.899 -5.774,0.899 h -5.992 z m 4.199,-14.649 h -7.676 l -2.511,-10.594 h 7.921 c 4.993,0 7.907,1.786 8.754,5.372 0.438,1.835 0.11,3.152 -0.988,3.984 -1.094,0.82 -2.93,1.238 -5.5,1.238 z m -3.269,-16.121 h -11.125 c -1.61,0 -2.668,0.352 -3.188,1.074 -0.519,0.711 -0.59,1.864 -0.219,3.426 l 6.473,27.297 c 0.383,1.59 1.012,2.742 1.883,3.445 0.867,0.703 2.09,1.055 3.66,1.055 h 11.797 c 1.738,0 3.219,-0.105 4.437,-0.32 1.231,-0.215 2.278,-0.625 3.141,-1.243 0.742,-0.507 1.344,-1.152 1.824,-1.941 0.477,-0.793 0.774,-1.652 0.895,-2.598 0.117,-0.957 0.058,-1.945 -0.192,-3.007 -0.863,-3.633 -3.312,-6.289 -7.355,-7.981 4.422,-1.512 6.113,-4.461 5.07,-8.855 -0.476,-2.032 -1.437,-3.868 -2.863,-5.489 -1.434,-1.632 -3.125,-2.832 -5.078,-3.593 -1.223,-0.469 -2.571,-0.801 -4.055,-0.989 -1.484,-0.195 -3.191,-0.281 -5.105,-0.281 v 0" /><path
         id="path28"
         style="fill:#ffffff;fill-opacity:1;fill-rule:evenodd;stroke:none"
         d="m 255.43,580.535 c 17.008,-0.43 19.238,10.344 22.125,23.254 6.937,31.016 23.035,109.441 23.035,115.246 1.719,9.871 -4.617,18.293 -15.625,20.66 -28.184,6.067 -36.348,-14.066 -46.453,-33.035 -14.961,-28.066 -30.739,-62.121 -34.528,-67.16 -1.425,0 -8.441,78.008 -8.687,78.008 -1.125,17.187 -16.43,20.953 -30.379,20.183 -17.277,-0.957 -24.348,-11.054 -26.922,-28.933 -1.375,-9.57 -16.664,-77.012 -21.441,-103.438 -2.258,-12.468 0.746,-24.734 11.996,-25.593 10.441,-0.801 18.289,5.476 24.008,20.097 0.742,0 12.019,49.219 15.113,65.043 1.668,0 6.269,-41.351 8.297,-64.867 1.14,-13.254 6.828,-17.883 16.386,-19.113 15.208,-3.067 21.743,14.453 27.375,25.058 11.254,21.192 30.098,57.239 32.157,59.246 -0.535,-10.281 -9.871,-47.593 -11.266,-62.925 -1.34,-14.59 3.656,-21.446 14.809,-21.731" /><path
         id="path30"
         style="fill:#ffffff;fill-opacity:1;fill-rule:evenodd;stroke:none"
         d="m 630.543,678.691 c -2.629,-4.726 -12.883,-53.808 -15.363,-69.464 -1.899,-11.993 -1.977,-24.59 8.457,-24.59 12.98,0 21.504,10.793 23.301,23.027 l 7.695,52.453 c 1.711,5.996 6.601,14.727 17.531,15.946 6.785,0.761 14.402,-6.059 14.402,-12.602 -5.515,-38.461 -8.066,-54.438 -8.925,-66.051 -0.477,-6.59 0.011,-12.078 12.422,-12.508 5.011,-0.168 16.593,9.344 18.957,15.86 1.668,2.968 5.574,39.941 8.054,61.367 2.344,9.113 8.399,12.879 16.953,14.129 16.184,0 14.532,-7.606 14.883,-9.809 0,-6.683 -9.57,-65.074 -9.851,-65.074 -0.852,-10.527 2.82,-15.867 9.656,-16.426 10.332,-0.828 19.933,10.774 23.242,20.793 1.016,6.094 4.699,29.258 7.102,49.828 1.961,16.743 3.437,24.723 -11.907,37.223 -14.48,11.805 -47.519,13.238 -61.101,-0.625 -9.016,8.402 -26.582,9.219 -38.223,8.516 -25.519,-1.543 -34.66,-17.266 -37.285,-21.993" /><path
         id="path32"
         style="fill:#ffffff;fill-opacity:1;fill-rule:evenodd;stroke:none"
         d="m 390.305,697.16 c -10.532,0 -19.43,-0.129 -30.133,-0.129 -7.574,-4.312 -10.317,-21.242 -4.328,-26.351 h 27.398 c -4.176,-25.782 -9.226,-54.293 -12.832,-76.813 -1.035,-6.504 2.621,-9.015 6.485,-9.894 5.687,-1.297 11.175,0.226 15.902,3.507 6.441,4.473 10.332,11.708 11.523,17.54 4.504,22.117 8.75,60.636 9.672,65.66 1.551,0 32.332,1.218 33.961,0.965 3.399,0.617 17.938,22.148 8.223,26.601 l -36.391,0.078 c -0.668,10.082 1.945,21.172 7.895,26.77 4.797,4.504 9.758,3.465 15.832,3.504 l 24.617,0.172 c 2.336,-0.231 12.965,12.793 10.75,21.46 -1.379,5.395 -5.473,4.692 -10.031,4.79 -11.114,0.238 -21.879,0.804 -33.953,-0.153 -32.54,-2.574 -44.59,-25.379 -44.59,-57.707" /><path
         id="path34"
         style="fill:#ffffff;fill-opacity:1;fill-rule:evenodd;stroke:none"
         d="m 462.336,672.871 c 7.258,-7.387 21.691,-1.851 29.898,1.285 7.977,2.141 15.09,1.645 16.457,-4.867 0.961,-4.578 -1.191,-8.941 -6.195,-8.738 -26.961,1.09 -56.008,-9 -60.519,-38.735 -7.637,-50.343 53.789,-41.535 65.457,-31.086 10.453,6.418 18.832,24.805 19.402,27.375 3.074,9.434 8.965,54.961 8.648,57.899 -1.031,12.777 -9.91,22.297 -22.754,23.648 -11.167,1.176 -25.472,0.696 -34.156,-0.527 -13.386,-1.891 -23.996,-18.363 -16.238,-26.254 z m 13.75,-42.266 c 0.23,0 9.191,6.426 26.137,6.426 0.75,-8.859 -5.016,-22.804 -14.407,-26.621 -17.996,-7.316 -24.265,11.172 -11.73,20.195 v 0" /><path
         id="path36"
         style="fill:#ffffff;fill-opacity:1;fill-rule:evenodd;stroke:none"
         d="m 534,597.09 c -0.848,-8.281 0.855,-10.813 4.988,-11.457 4.598,-0.711 11.641,-0.645 15.367,2.051 7.95,5.742 11.54,14.035 13.465,23.339 1.172,5.684 1.559,11.672 2.77,23.059 0.66,6.191 1.367,18.836 5.41,28.145 3.828,8.816 7.656,10.484 16.156,10.507 4.895,0.02 8.949,0.047 14.403,0 10.699,-0.101 19.164,7.5 19.609,18.422 0.262,6.5 -0.949,8.059 -5.664,8.059 l -16.609,0.074 c -12.356,0 -23.422,0.832 -34.418,-3.055 -12.289,-4.351 -20.743,-17.601 -24.395,-33.793 C 541.898,648.34 535.543,609.734 534,597.09" /><path
         id="path38"
         style="fill:#ffffff;fill-opacity:1;fill-rule:evenodd;stroke:none"
         d="m 333.02,706.273 c -4.805,0 -8.661,1.446 -11.555,4.34 -2.895,2.891 -3.844,7.02 -2.879,12.336 0.855,4.766 3.305,8.719 7.367,11.824 4.067,3.106 8.418,4.684 13.047,4.684 4.5,0 8.184,-1.406 11.141,-4.215 2.945,-2.851 3.941,-6.933 2.972,-12.293 -0.941,-5.23 -3.363,-9.316 -7.269,-12.246 -3.906,-2.941 -8.153,-4.43 -12.824,-4.43 z m 11.097,-23.968 -16.156,-82.168 c -1.121,-5.696 -3.445,-9.992 -6.981,-12.903 -3.535,-2.918 -7.558,-4.375 -12.125,-4.375 -4.554,0 -7.96,1.496 -10.218,4.473 -2.258,2.988 -2.86,7.258 -1.774,12.805 l 15.989,81.308 c 1.109,5.653 3.382,9.883 6.789,12.723 3.402,2.848 7.379,4.27 11.941,4.27 4.563,0 8.02,-1.422 10.426,-4.27 2.394,-2.84 3.094,-6.82 2.109,-11.863 v 0" /><path
         id="path40"
         style="fill:#ffffff;fill-opacity:1;fill-rule:evenodd;stroke:none"
         d="m 802.563,675.961 c 7.265,-7.387 21.699,-1.852 29.914,1.285 7.968,2.145 15.078,1.645 16.445,-4.863 0.957,-4.582 -1.192,-8.945 -6.192,-8.742 -26.953,1.089 -56.007,-8.996 -60.519,-38.739 -7.637,-50.343 53.789,-41.523 65.461,-31.074 10.449,6.406 18.828,24.793 19.394,27.371 3.075,9.426 8.973,54.957 8.653,57.899 -1.028,12.777 -9.914,22.293 -22.754,23.644 -11.172,1.18 -25.481,0.692 -34.16,-0.531 -13.379,-1.887 -23.996,-18.359 -16.242,-26.25 z m 13.75,-42.27 c 0.246,0 9.199,6.426 26.144,6.426 0.75,-8.847 -5.019,-22.804 -14.406,-26.621 -17.996,-7.316 -24.266,11.18 -11.738,20.195 v 0" /></g></g></svg>