<?xml version="1.0" encoding="UTF-8"?>
<svg version="1.1" xmlns="http://www.w3.org/2000/svg" width="940" height="529">
<path d="M0 0 C310.2 0 620.4 0 940 0 C940 174.57 940 349.14 940 529 C629.8 529 319.6 529 0 529 C0 354.43 0 179.86 0 0 Z " fill="#100F0F" transform="translate(0,0)"/>
<path d="M0 0 C17.16 0 34.32 0 52 0 C54.31 6.6 56.62 13.2 59 20 C60.48372262 24.00797798 61.97600582 28.00783677 63.5 32 C66.37205485 39.59756545 69.18603327 47.21056989 71.875 54.875 C72.14892578 55.65230469 72.42285156 56.42960937 72.70507812 57.23046875 C74.08971064 61.20913986 75.37033702 65.20024335 76.55859375 69.2421875 C77.5788691 72.68811096 78.71950559 75.96423635 80.1875 79.25 C84.12544872 88.70107692 87.50100669 98.3777684 91 108 C91.33 72.36 91.66 36.72 92 0 C108.83 0 125.66 0 143 0 C143 84.48 143 168.96 143 256 C111.94087838 253.69932432 111.94087838 253.69932432 101.3125 252.875 C100.19423828 252.78863281 99.07597656 252.70226562 97.92382812 252.61328125 C95.28252261 252.4092319 92.6412459 252.20481922 90 252 C89.60167969 250.865625 89.20335937 249.73125 88.79296875 248.5625 C88.25785541 247.04165157 87.72269673 245.52081909 87.1875 244 C86.92646484 243.25621094 86.66542969 242.51242187 86.39648438 241.74609375 C84.65727868 236.80760843 82.84956571 231.89820327 81 227 C79.32732686 222.54389706 77.66266213 218.08484664 76 213.625 C75.56171875 212.45710937 75.1234375 211.28921875 74.671875 210.0859375 C72.47415777 204.18122736 70.43128953 198.29008978 68.67626953 192.23950195 C67.62470094 188.75717753 66.32420224 185.38612832 65 182 C64.37710629 180.38430644 63.75474044 178.76840931 63.1328125 177.15234375 C62.13680888 174.56468728 61.14043754 171.97725318 60.13671875 169.39257812 C57.16617524 161.65413891 54.6307346 153.8922038 52 146 C51.67 180.98 51.34 215.96 51 252 C38.13 252.99 25.26 253.98 12 255 C8.04 255.33 4.08 255.66 0 256 C0 171.52 0 87.04 0 0 Z " fill="#E40813" transform="translate(388,136)"/>
<path d="M0 0 C16.83 0 33.66 0 51 0 C51 84.48 51 168.96 51 256 C49.35 256 47.7 256 46 256 C47.32 255.67 48.64 255.34 50 255 C49.62713867 253.94200195 49.25427734 252.88400391 48.87011719 251.79394531 C47.46757109 247.81334567 46.06636247 243.83227626 44.66552734 239.85107422 C44.06269369 238.13838361 43.45951256 236.42581526 42.85595703 234.71337891 C37.19256569 218.64362338 37.19256569 218.64362338 34.73828125 211.1796875 C33.15663664 206.38712887 31.28593993 201.79442149 29.24609375 197.1796875 C28.22498382 194.57409664 27.399839 192.0448852 26.62109375 189.36328125 C24.92083659 183.56106567 22.78992745 177.95465215 20.625 172.3125 C18.01963695 165.4549531 15.45199118 158.60334873 13.1875 151.625 C11.90867724 147.68814631 10.57693628 143.82703114 9 140 C5.27915536 130.95501993 2.14279856 121.54519359 0 112 C-0.66 112 -1.32 112 -2 112 C-1.83826325 111.43448551 -1.67652651 110.86897102 -1.50988865 110.28631973 C-0.98297608 107.92366546 -0.86146618 105.83727328 -0.84178162 103.41888428 C-0.8319928 102.50465698 -0.82220398 101.59042969 -0.81211853 100.64849854 C-0.80348534 99.15525055 -0.80348534 99.15525055 -0.79467773 97.63183594 C-0.78477814 96.57786621 -0.77487854 95.52389648 -0.76467896 94.43798828 C-0.73308591 90.95347339 -0.70831508 87.46894486 -0.68359375 83.984375 C-0.66302234 81.56870163 -0.64202582 79.15303185 -0.62062073 76.73736572 C-0.56541945 70.37848819 -0.51600153 64.01957827 -0.46777344 57.66064453 C-0.40871345 50.03142758 -0.34249612 42.40226982 -0.27747345 34.77310181 C-0.17948838 23.18210402 -0.09061547 11.59106831 0 0 Z " fill="#AC050F" transform="translate(480,136)"/>
<path d="M0 0 C1.39148189 2.78296378 2.40585825 5.03958374 3.3125 7.9375 C4.48296599 11.52385392 5.76036929 15.04541054 7.125 18.5625 C9.64698133 25.07505544 12.14840868 31.59503085 14.625 38.125 C15.20145264 39.6265564 15.20145264 39.6265564 15.78955078 41.15844727 C17.60472581 45.95963646 19.24102043 50.70750904 20.5234375 55.6796875 C21.62711141 59.91781044 23.11383 63.70294653 24.96435547 67.66259766 C26.98233888 72.21709394 28.47373907 76.97018586 30.0625 81.6875 C33.90927226 92.96761315 37.95163138 104.16319927 42.10571289 115.33276367 C45.25401147 123.83392902 48.17617082 132.38677321 51 141 C51.33 141.99 51.66 142.98 52 144 C52.0776107 145.48518026 52.09783552 146.97373573 52.08229065 148.46086121 C52.07525116 149.37371384 52.06821167 150.28656647 52.06095886 151.2270813 C52.04801285 152.22617523 52.03506683 153.22526917 52.02172852 154.25463867 C52.01212097 155.30846237 52.00251343 156.36228607 51.99261475 157.44804382 C51.95958241 160.93808586 51.91926603 164.42800438 51.87890625 167.91796875 C51.85460928 170.33506329 51.83076551 172.75216243 51.80735779 175.16926575 C51.74447478 181.53646064 51.67542 187.90357436 51.60510254 194.27069092 C51.53445721 200.76570941 51.4696175 207.26078553 51.40429688 213.75585938 C51.27523017 226.50396928 51.1398438 239.252004 51 252 C49.88141602 252.08564209 48.76283203 252.17128418 47.61035156 252.25952148 C43.40573078 252.58154707 39.20115077 252.90410241 34.99658203 253.22680664 C33.18702256 253.36561996 31.3774525 253.50429523 29.56787109 253.64282227 C26.94626011 253.84353709 24.32468938 254.04477117 21.703125 254.24609375 C20.91198303 254.3065538 20.12084106 254.36701385 19.3057251 254.42930603 C12.86770016 254.92449076 6.43517038 255.4637358 0 256 C0 171.52 0 87.04 0 0 Z " fill="#AD050F" transform="translate(388,136)"/>
<path d="M0 0 C3.81604528 2.54403019 4.35078005 5.25695739 5.625 9.4375 C5.94984375 10.4594043 5.94984375 10.4594043 6.28125 11.50195312 C6.8620391 13.33215582 7.43157792 15.1659187 8 17 C8.33 17.99 8.66 18.98 9 20 C9.07731238 21.4345153 9.09788608 22.87249325 9.08229065 24.30900574 C9.07525116 25.18820175 9.06821167 26.06739777 9.06095886 26.97323608 C9.04801285 27.93492706 9.03506683 28.89661804 9.02172852 29.88745117 C9.01212097 30.90226059 9.00251343 31.91707001 8.99261475 32.96263123 C8.95958753 36.32281349 8.91926921 39.68286725 8.87890625 43.04296875 C8.85460878 45.37038213 8.83076504 47.69780028 8.80735779 50.02522278 C8.74447977 56.15568477 8.67542357 62.28606234 8.60510254 68.41644287 C8.53445271 74.67016755 8.46961569 80.92395215 8.40429688 87.17773438 C8.2752366 99.45188877 8.13965271 111.72596187 8 124 C7.67 124 7.34 124 7 124 C6.67 100.24 6.34 76.48 6 52 C5.34 51.67 4.68 51.34 4 51 C3.58935547 48.63916016 3.58935547 48.63916016 3.3671875 45.5390625 C3.28339844 44.42789063 3.19960938 43.31671875 3.11328125 42.171875 C3.03464844 41.00140625 2.95601563 39.8309375 2.875 38.625 C2.78863281 37.46226562 2.70226562 36.29953125 2.61328125 35.1015625 C2.01288174 26.86751209 1.90331482 19.99361226 4 12 C3.01 11.67 2.02 11.34 1 11 C0.67 7.37 0.34 3.74 0 0 Z " fill="#9B060E" transform="translate(431,260)"/>
<path d="M0 0 C1.62400465 2.67960768 1.41380092 4.92085022 1.2890625 7.98828125 C1.23693864 10.75605847 1.70861096 13.35555481 2.25 16.0625 C3.24 16.0625 4.23 16.0625 5.25 16.0625 C4.92 18.3725 4.59 20.6825 4.25 23.0625 C4.91 23.0625 5.57 23.0625 6.25 23.0625 C6.58 22.4025 6.91 21.7425 7.25 21.0625 C8.375 25.8125 8.375 25.8125 7.25 28.0625 C7.91 28.0625 8.57 28.0625 9.25 28.0625 C9.47162329 29.68574086 9.67689803 31.311221 9.875 32.9375 C9.99101563 33.84242188 10.10703125 34.74734375 10.2265625 35.6796875 C10.23429688 36.46601563 10.24203125 37.25234375 10.25 38.0625 C9.59 38.7225 8.93 39.3825 8.25 40.0625 C6.35598 36.63522572 4.9666453 33.30703385 3.90625 29.5546875 C1.91391377 22.77218712 -0.58509407 16.19102169 -3.05273438 9.5703125 C-3.57383789 8.15878906 -3.57383789 8.15878906 -4.10546875 6.71875 C-4.42153076 5.87119141 -4.73759277 5.02363281 -5.06323242 4.15039062 C-5.75 2.0625 -5.75 2.0625 -5.75 0.0625 C-3.36790304 -0.84105402 -2.29703219 -1.23055296 0 0 Z " fill="#8A030C" transform="translate(502.75,295.9375)"/>
<path d="M0 0 C2.61540402 1.30770201 2.62974248 2.25165115 3.55078125 4.98046875 C3.83501953 5.80869141 4.11925781 6.63691406 4.41210938 7.49023438 C4.70923828 8.38033203 5.00636719 9.27042969 5.3125 10.1875 C5.9328444 12.01457751 6.55394272 13.84139922 7.17578125 15.66796875 C7.48209473 16.57208496 7.7884082 17.47620117 8.10400391 18.40771484 C8.90336878 20.7204277 9.7387555 23.01263646 10.60546875 25.30078125 C11.29576172 27.13189453 11.29576172 27.13189453 12 29 C12.4125 30.0725 12.825 31.145 13.25 32.25 C14.01236038 35.04532141 14.02507404 36.33480751 13 39 C12.01 38.34 11.02 37.68 10 37 C9.34 37.66 8.68 38.32 8 39 C8.01160156 38.38511719 8.02320313 37.77023437 8.03515625 37.13671875 C8.04417969 36.32847656 8.05320312 35.52023438 8.0625 34.6875 C8.07410156 33.88699219 8.08570313 33.08648437 8.09765625 32.26171875 C8.09657855 29.83138666 8.09657855 29.83138666 7 27 C6.96125079 25.33378384 6.9549714 23.66605828 7 22 C5.68 21.67 4.36 21.34 3 21 C3 19.02 3 17.04 3 15 C2.34 15 1.68 15 1 15 C-1.09740836 11.85388747 -1.25328219 11.08811922 -1.1875 7.5 C-1.17783203 6.33984375 -1.17783203 6.33984375 -1.16796875 5.15625 C-1 3 -1 3 0 0 Z " fill="#89020C" transform="translate(417,219)"/>
<path d="M0 0 C2.31203927 2.31203927 2.27275091 2.93214375 2.5 6.0625 C2.665 7.361875 2.83 8.66125 3 10 C3.66 10.33 4.32 10.66 5 11 C5.37953031 12.99174995 5.69955324 14.99479606 6 17 C6.73865301 20.12463629 7.5860413 23.21696355 8.4375 26.3125 C8.65470703 27.13556641 8.87191406 27.95863281 9.09570312 28.80664062 C9.31033203 29.58845703 9.52496094 30.37027344 9.74609375 31.17578125 C9.93872803 31.88645752 10.1313623 32.59713379 10.32983398 33.3293457 C10.87041216 35.21171832 10.87041216 35.21171832 13 36 C13.4140625 38.72265625 13.4140625 38.72265625 13.625 42.0625 C13.69976563 43.16722656 13.77453125 44.27195312 13.8515625 45.41015625 C13.90054688 46.26480469 13.94953125 47.11945313 14 48 C11.55949236 45.55949236 10.9156559 43.48860034 9.72265625 40.25 C9.29146484 39.08339844 8.86027344 37.91679687 8.41601562 36.71484375 C7.74602539 34.87599609 7.74602539 34.87599609 7.0625 33 C6.61970703 31.80503906 6.17691406 30.61007812 5.72070312 29.37890625 C3.46255609 23.23378482 1.34076905 17.0988207 -0.42407227 10.79296875 C-0.85014668 8.99752759 -0.85014668 8.99752759 -2 8 C-2.29386153 4.27775401 -2.14809171 3.22213757 0 0 Z " fill="#97040D" transform="translate(514,333)"/>
<path d="M0 0 C3.81604528 2.54403019 4.35078005 5.25695739 5.625 9.4375 C5.94984375 10.4594043 5.94984375 10.4594043 6.28125 11.50195312 C6.8620391 13.33215582 7.43157792 15.1659187 8 17 C8.33 17.99 8.66 18.98 9 20 C9.01578603 21.84802969 8.96681127 23.69696343 8.87890625 25.54296875 C8.83056641 26.61611328 8.78222656 27.68925781 8.73242188 28.79492188 C8.67634766 29.91447266 8.62027344 31.03402344 8.5625 32.1875 C8.51029297 33.31865234 8.45808594 34.44980469 8.40429688 35.61523438 C8.27456193 38.4104328 8.13959359 41.2052794 8 44 C7.67 44 7.34 44 7 44 C6.95101563 43.00097656 6.90203125 42.00195312 6.8515625 40.97265625 C6.77679688 39.68230469 6.70203125 38.39195312 6.625 37.0625 C6.52058594 35.13083984 6.52058594 35.13083984 6.4140625 33.16015625 C6.27742188 32.11730469 6.14078125 31.07445312 6 30 C5.34 29.67 4.68 29.34 4 29 C4 26.03 4 23.06 4 20 C3.34 20 2.68 20 2 20 C2.66 17.36 3.32 14.72 4 12 C3.01 11.67 2.02 11.34 1 11 C0.67 7.37 0.34 3.74 0 0 Z " fill="#87030C" transform="translate(431,260)"/>
<path d="M0 0 C2.13586678 3.20380017 2.23132175 4.01939967 2.125 7.6875 C2.10695313 8.49574219 2.08890625 9.30398437 2.0703125 10.13671875 C2.03550781 11.05904297 2.03550781 11.05904297 2 12 C3.32 11.67 4.64 11.34 6 11 C8.90315057 17.71353569 8 24.7629848 8 32 C5.93767301 29.93767301 5.43191516 28.84405969 4.4921875 26.15625 C4.22792969 25.40472656 3.96367187 24.65320313 3.69140625 23.87890625 C3.28728516 22.70134766 3.28728516 22.70134766 2.875 21.5 C2.45927734 20.32244141 2.45927734 20.32244141 2.03515625 19.12109375 C0 13.27628541 0 13.27628541 0 11 C-0.66 11 -1.32 11 -2 11 C-1.855625 10.484375 -1.71125 9.96875 -1.5625 9.4375 C-0.84190099 6.31490429 -0.42733561 3.17449308 0 0 Z " fill="#86030D" transform="translate(480,237)"/>
<path d="M0 0 C2.85047788 3.36188714 4.25259987 6.81084142 5.75 10.9375 C6.19859375 12.14277344 6.6471875 13.34804687 7.109375 14.58984375 C7.99254306 17.97144777 8.0233039 19.71170027 7 23 C5.35 22.67 3.7 22.34 2 22 C0.68373308 18.38026598 0 15.90432869 0 12 C0.66 12 1.32 12 2 12 C1.67 11.13375 1.34 10.2675 1 9.375 C0.01268659 6.04281725 -0.16420974 3.44840462 0 0 Z " fill="#8F030D" transform="translate(408,194)"/>
<path d="M0 0 C4.69168546 4.69168546 6.76541144 12.28668658 7.32421875 18.75 C7.3140246 21.84902091 7.22758971 24.90983743 7 28 C6.34 28 5.68 28 5 28 C1.37129841 16.47835991 1.37129841 16.47835991 3 11 C2.34 11 1.68 11 1 11 C-0.20272819 8.59454362 -0.10071472 7.05003047 -0.0625 4.375 C-0.05347656 3.55773437 -0.04445313 2.74046875 -0.03515625 1.8984375 C-0.02355469 1.27195313 -0.01195312 0.64546875 0 0 Z " fill="#92030D" transform="translate(400,171)"/>
<path d="M0 0 C4.87311986 4.24478062 6.75015116 10.8826552 7.25390625 17.16796875 C7.25051265 19.79122093 7.18219166 22.38352532 7 25 C5.44911788 22.16851397 4.63246104 19.670069 4.0625 16.5 C3.48538942 13.66061595 3.18842444 12.23915409 1.375 9.9375 C-0.84937111 6.8031589 -0.18839681 3.76793619 0 0 Z " fill="#99040C" transform="translate(392,151)"/>
<path d="M0 0 C1.65 0 3.3 0 5 0 C5.91297308 4.97063121 5.91297308 9.02936879 5 14 C2.96470413 11.96470413 2.3615728 10.76582618 1.375 8.125 C1.11460937 7.44695312 0.85421875 6.76890625 0.5859375 6.0703125 C0 4 0 4 0 0 Z " fill="#86030B" transform="translate(489,272)"/>
<path d="M0 0 C0 0.66 0 1.32 0 2 C1.32 2.33 2.64 2.66 4 3 C-3.26 2.67 -10.52 2.34 -18 2 C-18 1.67 -18 1.34 -18 1 C-15.93769732 0.8309093 -13.8751477 0.66482867 -11.8125 0.5 C-10.08966797 0.36078125 -10.08966797 0.36078125 -8.33203125 0.21875 C-5.53927574 0.0354038 -2.79680188 -0.04213637 0 0 Z " fill="#B80B10" transform="translate(496,386)"/>
<path d="M0 0 C0.66 0 1.32 0 2 0 C2.66 2.31 3.32 4.62 4 7 C3.01 7 2.02 7 1 7 C0.01 7.495 0.01 7.495 -1 8 C-1.04241723 5.66705225 -1.04092937 3.33297433 -1 1 C-0.67 0.67 -0.34 0.34 0 0 Z " fill="#CC0A11" transform="translate(458,192)"/>
<path d="M0 0 C2.12508244 3.18762365 2.5020163 5.26512223 3 9 C2.01 9 1.02 9 0 9 C0 8.34 0 7.68 0 7 C-0.66 6.67 -1.32 6.34 -2 6 C-1.34 4.02 -0.68 2.04 0 0 Z " fill="#CD0911" transform="translate(475,236)"/>
<path d="M0 0 C0.66 0 1.32 0 2 0 C3.61949011 2.57213134 4.04408751 3.67669159 3.625 6.75 C3.41875 7.4925 3.2125 8.235 3 9 C2.34 9 1.68 9 1 9 C0.67 6.03 0.34 3.06 0 0 Z " fill="#84030D" transform="translate(412,208)"/>
<path d="M0 0 C0 2.31 0 4.62 0 7 C-1.32 7 -2.64 7 -4 7 C-3.625 4.0625 -3.625 4.0625 -3 1 C-1 0 -1 0 0 0 Z " fill="#9B040F" transform="translate(511,312)"/>
<path d="M0 0 C2.45823172 3.68734758 3.01242616 6.69699971 4 11 C3.01 11.33 2.02 11.66 1 12 C0.67 8.04 0.34 4.08 0 0 Z " fill="#C10914" transform="translate(442,144)"/>
<path d="M0 0 C-4.51617599 0.07654536 -8.59085217 0.10228696 -13 -1 C-13 -1.33 -13 -1.66 -13 -2 C-7.60776837 -3.07844633 -4.82361952 -2.49497561 0 0 Z " fill="#C60817" transform="translate(525,391)"/>
<path d="M0 0 C1.9451 2.91765 2.45276317 4.62537285 3 8 C1.68 8.33 0.36 8.66 -1 9 C-0.67 6.03 -0.34 3.06 0 0 Z " fill="#BF0B12" transform="translate(469,219)"/>
</svg>
