<?xml version="1.0" encoding="UTF-8"?>
<svg version="1.1" xmlns="http://www.w3.org/2000/svg" width="1000" height="1000">
<path d="M0 0 C330 0 660 0 1000 0 C1000 330 1000 660 1000 1000 C670 1000 340 1000 0 1000 C0 670 0 340 0 0 Z " fill="#FF0000" transform="translate(0,0)"/>
<path d="M0 0 C1.40897804 0.00333092 1.40897804 0.00333092 2.84642029 0.00672913 C3.90744461 0.00680466 4.96846893 0.00688019 6.06164551 0.00695801 C7.21579453 0.01211929 8.36994354 0.01728058 9.55906677 0.02259827 C11.32152992 0.02472069 11.32152992 0.02472069 13.11959839 0.02688599 C16.88981116 0.0325046 20.65996556 0.04506026 24.43016052 0.05775452 C26.97898779 0.06276712 29.52781599 0.06733044 32.0766449 0.07142639 C38.34033685 0.08248007 44.60399452 0.0992363 50.86766052 0.12025452 C50.2316758 4.23238949 49.38039093 7.63062114 47.68016052 11.43275452 C45.56837565 16.33403173 43.7250663 21.26488717 41.99266052 26.30775452 C39.66376075 33.05363828 37.08502029 39.6593848 34.31541443 46.23622131 C30.46754869 54.43286125 30.46754869 54.43286125 28.86766052 63.12025452 C34.87793284 56.21840603 40.8186491 49.28975697 46.43016052 42.05775452 C50.45918486 36.86535393 54.61315422 31.80713635 58.87913513 26.80799866 C61.78744852 23.39977822 64.65769039 19.96513983 67.49266052 16.49525452 C68.18297647 15.67033666 68.87329241 14.8454188 69.58452702 13.99550343 C71.89384 11.1898307 71.89384 11.1898307 73.70492458 8.23300457 C76.69953518 3.80839744 79.01650072 0.66107171 84.26884651 -0.87340355 C88.47314093 -1.2345932 92.54832606 -1.24369391 96.76048279 -1.12852478 C98.35784692 -1.12541766 99.95522674 -1.12717207 101.55258179 -1.13339233 C105.86735508 -1.13653556 110.17873201 -1.07209412 114.49271894 -0.9950788 C119.00887426 -0.92608743 123.52511654 -0.9198353 128.04171753 -0.90679932 C136.58449636 -0.87267494 145.12571781 -0.78250049 153.66781229 -0.67195493 C163.39675663 -0.54879628 173.12577728 -0.48847163 182.8553077 -0.43330514 C202.86029296 -0.31847513 222.86387845 -0.12512502 242.86766052 0.12025452 C242.04351674 4.672365 240.49488777 8.69577793 238.68016052 12.93275452 C235.13615825 21.24028871 232.04649047 29.64337467 228.86766052 38.12025452 C211.04766052 38.12025452 193.22766052 38.12025452 174.86766052 38.12025452 C173.38266052 42.57525452 173.38266052 42.57525452 171.86766052 47.12025452 C170.43665197 51.21344019 168.96331989 55.29116215 167.49266052 59.37025452 C167.1188324 60.41310608 166.74500427 61.45595764 166.35984802 62.53041077 C163.63220476 70.1061597 160.75962696 77.60114178 157.86766052 85.12025452 C174.36766052 85.12025452 190.86766052 85.12025452 207.86766052 85.12025452 C207.18438875 89.21988516 206.73612481 91.88314083 205.23094177 95.51869202 C204.90029724 96.32951233 204.56965271 97.14033264 204.22898865 97.97572327 C203.88287537 98.80716858 203.53676208 99.63861389 203.18016052 100.49525452 C199.54777879 109.30754156 196.21872446 118.18408402 192.86766052 127.12025452 C167.62266052 127.61525452 167.62266052 127.61525452 141.86766052 128.12025452 C134.20720885 147.81200258 134.20720885 147.81200258 127.11351013 167.71107483 C126.85835632 168.45840881 126.60320251 169.2057428 126.34031677 169.97572327 C126.12641296 170.61147278 125.91250916 171.24722229 125.69212341 171.90223694 C124.53305919 175.02041831 123.17808533 178.06259663 121.86766052 181.12025452 C141.99766052 181.12025452 162.12766052 181.12025452 182.86766052 181.12025452 C179.49266052 193.49525452 179.49266052 193.49525452 177.86766052 198.12025452 C178.85121521 197.82892639 179.8347699 197.53759827 180.84812927 197.23744202 C184.68297394 196.10362915 188.52030091 194.97840602 192.35838318 193.85560608 C193.96276366 193.38543737 195.56665528 192.9135952 197.16990662 192.43959045 C210.77184795 188.42302751 224.48038857 184.87324497 238.22044373 181.36732483 C246.11846024 179.35067318 254.00338172 177.30821806 261.8434906 175.07533264 C266.90483935 173.64293271 271.98626469 172.29268609 277.07469177 170.96009827 C277.8214064 170.76417084 278.56812103 170.56824341 279.33746338 170.36637878 C282.37911133 169.5685874 285.42075064 168.77088282 288.46461487 167.98158264 C296.50525696 165.89654169 304.41439639 163.67698175 312.27537537 160.97547913 C315.81751096 159.80688796 319.34838554 158.98155014 322.99266052 158.18275452 C334.29449946 155.62889934 345.44108008 152.53695577 356.49266052 149.05775452 C363.87192857 146.75461218 371.36029502 144.94579827 378.86766052 143.12025452 C382.26482451 142.29225494 385.66062992 141.45898592 389.05516052 140.62025452 C389.90368591 140.41126526 390.7522113 140.202276 391.62644958 139.98695374 C396.54420008 138.75799356 401.36010097 137.37565895 406.18016052 135.80775452 C410.63827779 134.37725039 414.20740112 133.68674201 418.86766052 134.12025452 C418.86766052 135.11025452 418.86766052 136.10025452 418.86766052 137.12025452 C409.9075943 141.76713024 400.88491553 146.05830364 391.55613708 149.91395569 C384.92826663 152.65672675 378.36278577 155.52635465 371.80516052 158.43275452 C362.11821752 162.71900591 352.38450441 166.88057413 342.61961365 170.98573303 C333.92237861 174.65120183 325.28474591 178.44267076 316.65574646 182.26551819 C309.99580983 185.20782331 303.30028506 188.03467755 296.55296326 190.76966858 C291.37010881 192.88136737 286.30790308 195.20834051 281.24266052 197.58900452 C276.60174355 199.69460574 271.88572194 201.59785015 267.16453552 203.51478577 C262.8445896 205.27850469 258.59200548 207.13481239 254.36766052 209.12025452 C249.4238565 211.44384241 244.42696698 213.56582192 239.36766052 215.62025452 C234.3961951 217.64066685 229.47805119 219.71615941 224.61766052 221.99525452 C213.82780782 227.05383883 202.81783369 231.64248688 191.82078552 236.22962952 C183.89734152 239.53622611 176.04877761 242.9204586 168.29685974 246.61244202 C163.34411938 248.95008185 158.3096827 250.99285475 153.21482849 252.99183655 C146.60173354 255.59425217 140.181928 258.55472113 133.75828552 261.58900452 C128.3936247 264.10449141 123.04419096 266.48273395 117.49266052 268.55775452 C112.05643697 270.59633835 106.82905244 272.96509303 101.5947113 275.46376038 C97.24535383 277.52260475 92.85107247 279.37439764 88.36766052 281.12025452 C83.30029933 283.09788995 78.34634151 285.22917285 73.43016052 287.55775452 C63.48704065 292.26737905 53.48005252 296.80325248 43.18016052 300.68275452 C37.78600651 302.71466284 32.60394102 305.05982702 27.39109802 307.51478577 C23.38076364 309.34211108 19.32436789 311.02276437 15.24266052 312.68275452 C9.76842514 314.91086436 4.36276277 317.22702546 -1.00343323 319.70619202 C-6.00479223 321.9664816 -11.05894882 324.10235619 -16.10694885 326.2559967 C-21.60094536 328.60211266 -27.08754258 330.964489 -32.56593323 333.34681702 C-33.20536865 333.62482147 -33.84480408 333.90282593 -34.50361633 334.18925476 C-35.80802239 334.75639581 -37.11242504 335.3235447 -38.41682434 335.89070129 C-39.38975433 336.31370514 -39.38975433 336.31370514 -40.38233948 336.74525452 C-41.03128174 337.02741821 -41.680224 337.30958191 -42.34883118 337.60029602 C-50.37963117 341.08975479 -58.43164362 344.51058434 -66.54811096 347.79603577 C-71.72716549 349.90988138 -76.77931454 352.24540743 -81.83229065 354.63954163 C-87.5238057 357.32970432 -93.30925885 359.73285909 -99.13233948 362.12025452 C-102.32266061 363.44688749 -105.50930631 364.78216967 -108.69483948 366.12025452 C-109.52161194 366.46733459 -110.3483844 366.81441467 -111.20021057 367.17201233 C-115.50170452 368.98542936 -119.77250848 370.8422473 -124.00733948 372.80775452 C-128.78616855 375.01962742 -133.66094344 376.89395071 -138.60108948 378.71400452 C-142.53723231 380.28149502 -146.3690755 382.02490829 -150.21925354 383.79115295 C-154.87429461 385.9150252 -159.56449038 387.95658419 -164.25733948 389.99525452 C-165.25652405 390.42942688 -166.25570862 390.86359924 -167.28517151 391.31092834 C-175.18682654 394.73303939 -183.12733827 398.04661512 -191.10401917 401.28919983 C-193.19409325 402.14555661 -195.27704082 403.01757146 -197.35890198 403.89369202 C-205.04480654 407.11871304 -212.75687247 410.14486809 -220.6408844 412.85316467 C-224.27152939 414.10141775 -227.87037653 415.39189566 -231.44093323 416.80384827 C-240.95579218 420.53522693 -250.5305585 423.4359462 -260.44483948 425.93275452 C-261.58864075 426.22271301 -262.73244202 426.51267151 -263.91090393 426.81141663 C-277.33524015 430.08477436 -290.47279425 431.53477409 -304.25733948 431.49525452 C-305.33651138 431.49443878 -305.33651138 431.49443878 -306.43748474 431.49360657 C-318.35223495 431.45236936 -329.67323319 430.56670156 -341.13233948 427.12025452 C-342.17913879 426.80677063 -342.17913879 426.80677063 -343.24708557 426.48695374 C-357.85089582 421.92005594 -371.78517134 414.41883946 -383.13233948 404.12025452 C-384.05788635 403.28752014 -384.98343323 402.45478577 -385.93702698 401.59681702 C-397.13237748 391.00826058 -402.16970469 379.66083176 -406.13233948 365.12025452 C-406.3111969 364.49594543 -406.49005432 363.87163635 -406.67433167 363.22840881 C-413.62461542 331.23709738 -398.74153689 296.76889014 -385.32618713 268.62513733 C-384.38861484 266.6579611 -383.46652291 264.68340592 -382.55030823 262.70619202 C-368.68135486 233.62748012 -349.25159123 206.55530475 -329.52296448 181.19447327 C-327.89527425 179.10134874 -326.27974377 177.00332148 -324.67921448 174.88978577 C-320.33596327 169.16486286 -315.89442746 163.54849002 -311.25733948 158.05775452 C-310.57876892 157.25337952 -310.57876892 157.25337952 -309.88648987 156.43275452 C-307.41542781 153.53440752 -304.86653426 150.7717876 -302.13233948 148.12025452 C-303.49893905 151.66447303 -305.0726074 155.03034868 -306.75733948 158.43275452 C-316.55341668 179.65758845 -322.40373113 201.69135289 -322.56983948 225.05775452 C-322.58015198 226.25424622 -322.59046448 227.45073792 -322.60108948 228.68348694 C-322.39686635 249.16961966 -314.77759496 267.7437529 -300.76515198 282.70619202 C-278.34384027 303.26460543 -249.02388494 305.15068542 -220.13233948 304.12025452 C-214.64958217 303.72626536 -209.42620054 302.55945341 -204.13233948 301.12025452 C-202.14673879 300.60433541 -200.1610539 300.0887403 -198.17530823 299.57337952 C-191.47849214 297.81216021 -184.80487739 295.97095092 -178.13233948 294.12025452 C-174.34164252 293.07503466 -170.54979726 292.03406555 -166.75733948 290.99525452 C-165.41554626 290.62630066 -165.41554626 290.62630066 -164.04664612 290.24989319 C-158.03508951 288.60728649 -152.00022695 287.09178386 -145.94483948 285.62025452 C-138.40720029 283.78499673 -131.02406741 281.61804832 -123.66090393 279.17494202 C-119.33170838 277.75064293 -115.03902716 276.61339219 -110.58180237 275.66786194 C-105.66126282 274.56781507 -100.80881226 273.19458017 -95.94483948 271.87025452 C-94.80861145 271.56232971 -93.67238342 271.25440491 -92.50172424 270.93714905 C-90.16968959 270.30476042 -87.83790153 269.67146171 -85.50636292 269.0372467 C-82.38523408 268.18898622 -79.26293221 267.34522383 -76.14015198 266.50306702 C-67.81864653 264.25338908 -59.51651655 261.96472848 -51.25733948 259.49525452 C-44.7287244 257.54635727 -38.16005157 255.83307605 -31.54249573 254.21009827 C-17.97386294 250.87662793 -4.48298703 247.2696769 8.93479919 243.37513733 C16.52991799 241.1836179 24.17327646 239.20203904 31.82884216 237.23402405 C37.86184079 235.67302757 43.81158776 233.94811587 49.75047302 232.05775452 C56.05607684 230.16133232 62.47099436 228.67531738 68.86766052 227.12025452 C71.50766052 226.46025452 74.14766052 225.80025452 76.86766052 225.12025452 C53.10766052 224.79025452 29.34766052 224.46025452 4.86766052 224.12025452 C4.73488708 218.46127014 4.60211365 212.80228577 4.46531677 206.97181702 C4.37914534 203.37154552 4.29274948 199.77128218 4.20555115 196.17103577 C4.06738415 190.46551851 3.93001635 184.75999036 3.79759216 179.05433655 C3.69069205 174.45066927 3.58005415 169.84710519 3.46690178 165.24358749 C3.42452773 163.49349976 3.38346574 161.74337972 3.34378242 159.99322891 C3.14636076 151.32229891 2.91349413 142.73976224 1.86766052 134.12025452 C1.45008484 135.26341125 1.03250916 136.40656799 0.60227966 137.58436584 C-3.71490664 149.37104077 -8.16761222 161.10036565 -12.69483948 172.80775452 C-17.23418925 184.5569991 -21.72589392 196.32044393 -26.13233948 208.12025452 C-28.11233948 213.40025452 -30.09233948 218.68025452 -32.13233948 224.12025452 C-49.62233948 224.12025452 -67.11233948 224.12025452 -85.13233948 224.12025452 C-83.08890455 216.62765978 -81.10697255 209.72041823 -78.07765198 202.66322327 C-74.9910327 195.45102463 -72.34485252 188.14270188 -69.78297424 180.73280334 C-67.80132877 175.00834563 -65.74730077 169.32317377 -63.59986877 163.65858459 C-62.03095464 159.51796079 -60.48417594 155.37007165 -58.95655823 151.21400452 C-54.39937613 138.82329557 -49.74219158 126.48189533 -44.94483948 114.18275452 C-41.34570025 104.952915 -37.85269373 95.70499409 -34.63893127 86.33241272 C-31.39253045 76.8877129 -27.83452427 67.56073234 -24.30274963 58.21986389 C-22.34062641 53.02355258 -20.39340965 47.82165981 -18.44483948 42.62025452 C-14.35651628 31.71163388 -14.35651628 31.71163388 -12.40968323 26.54994202 C-9.55318852 18.96910763 -6.77780309 11.36791219 -4.11280823 3.71791077 C-2.76843591 0.15612754 -2.76843591 0.15612754 0 0 Z " fill="#FFFDFD" transform="translate(504.13233947753906,296.87974548339844)"/>
<path d="M0 0 C18.81 0 37.62 0 57 0 C55.85689358 25.14834122 55.85689358 25.14834122 55.02734375 37.2890625 C54.89381306 39.30123476 54.7602871 41.31340734 54.62703037 43.32559776 C54.30648394 48.15530767 53.98094471 52.98468079 53.65405273 57.81396484 C53.46777355 60.56865721 53.28365345 63.32347926 53.10169983 66.07846069 C52.9325754 68.6364861 52.76030389 71.19430627 52.58421326 73.75186157 C52.09597162 81.18056866 51.89701058 88.55570153 52 96 C52.58007812 94.33324219 52.58007812 94.33324219 53.171875 92.6328125 C55.65541936 85.52771602 58.15506803 78.45600242 61.015625 71.4921875 C62.19721527 68.50070103 63.25211986 65.47404314 64.3125 62.4375 C66.17048622 57.17036476 68.20673716 52.02110629 70.375 46.875 C73.28363593 39.95027906 75.85589145 32.94782059 78.25146484 25.82958984 C81.22240786 17.08791094 84.63876229 8.64318268 88 0 C105.49 0 122.98 0 141 0 C137.64975845 12.284219 137.64975845 12.284219 135.6875 16.6875 C133.73653687 21.17839626 131.94180096 25.71146117 130.23828125 30.30078125 C129.98062988 30.99139648 129.72297852 31.68201172 129.45751953 32.39355469 C128.63673211 34.59510598 127.81816457 36.79747276 127 39 C126.46445516 40.43970408 125.92889211 41.87940138 125.39331055 43.3190918 C123.76006809 47.7119348 122.12978312 52.10587259 120.5 56.5 C116.59805794 67.02019156 112.68180396 77.53473417 108.7364502 88.03872681 C107.51573642 91.28966382 106.29709053 94.54137591 105.078125 97.79296875 C103.18381976 102.84508379 101.28808559 107.89666057 99.39134216 112.94786072 C97.84380129 117.06924698 96.29676803 121.19082363 94.75 125.3125 C94.42329315 126.18307037 94.0965863 127.05364075 93.75997925 127.95059204 C89.66918388 138.85377536 85.59589037 149.76293032 81.5625 160.6875 C77.73860389 171.04414521 73.82932304 181.36599414 69.88623047 191.67773438 C68.51885816 195.26077717 67.16252937 198.84789046 65.8125 202.4375 C65.38582031 203.57058594 64.95914063 204.70367187 64.51953125 205.87109375 C62.30157689 211.89777181 60.15990222 217.95227379 58 224 C39.19 224 20.38 224 1 224 C1 210.72134714 1.15028835 197.74142443 2.09375 184.54296875 C2.20647104 182.89150642 2.31855837 181.24000073 2.43005371 179.5884552 C2.71972163 175.32215202 3.01776483 171.05647776 3.31781006 166.79089355 C3.62468098 162.40587765 3.92327725 158.02029826 4.22265625 153.63476562 C4.80719648 145.08928483 5.40062257 136.54445291 6 128 C5.55269531 129.22146729 5.10539062 130.44293457 4.64453125 131.70141602 C1.17913952 141.14700164 -2.34540204 150.56318531 -6 159.9375 C-9.2630337 168.3583909 -12.37717463 176.80719268 -15.30541992 185.34960938 C-19.80830593 198.37293431 -24.88290901 211.20727254 -30 224 C-47.49 224 -64.98 224 -83 224 C-79.62910567 212.76368557 -79.62910567 212.76368557 -78.16796875 209.02734375 C-77.6869873 207.78464722 -77.6869873 207.78464722 -77.19628906 206.5168457 C-76.86338867 205.66566162 -76.53048828 204.81447754 -76.1875 203.9375 C-73.35859852 196.61820629 -70.62642532 189.2793208 -68.07885742 181.85717773 C-66.53725416 177.39850133 -64.82439289 173.02762484 -63.05761719 168.65356445 C-61.21343793 164.02651359 -59.48809604 159.35520012 -57.75 154.6875 C-54.79637673 146.78176371 -51.8235323 138.88405425 -48.8125 131 C-44.11438171 118.68495693 -39.45832565 106.37055584 -35.10668945 93.92822266 C-33.57004435 89.55496602 -31.93368432 85.24438076 -30.17114258 80.95654297 C-28.6607841 77.14365134 -27.25350878 73.29632954 -25.84375 69.4453125 C-22.39332969 60.05128476 -18.90437405 50.67211698 -15.39282227 41.30078125 C-14.43284171 38.73756201 -13.47521431 36.17347088 -12.51757812 33.609375 C-9.17645359 24.68245659 -5.76117944 15.79848566 -2.14868164 6.97753906 C-0.88166946 3.87489378 -0.88166946 3.87489378 0 0 Z " fill="#FFFDFD" transform="translate(292,297)"/>
<path d="M0 0 C17.49 0 34.98 0 53 0 C47.96255478 15.11233567 42.67341274 30.11510378 37 45 C36.43479402 46.48824259 35.86969425 47.97652551 35.3046875 49.46484375 C32.4655401 56.93480399 29.61466249 64.40024357 26.75187683 71.86117554 C25.37535479 75.44877356 23.99989096 79.03677659 22.625 82.625 C22.34580719 83.35362244 22.06661438 84.08224487 21.77896118 84.83294678 C17.57642108 95.80760174 13.45678349 106.80963209 9.39599609 117.83764648 C6.83665628 124.77696897 4.2234093 131.69113344 1.50634766 138.5703125 C-2.63025084 149.06314771 -6.51467366 159.65516878 -10.40234375 170.2421875 C-10.69156708 171.02976944 -10.98079041 171.81735138 -11.27877808 172.62879944 C-12.46025674 175.84736448 -13.64134052 179.0660709 -14.82006836 182.28564453 C-18.06183723 191.13695804 -21.34298686 199.97007968 -24.75390625 208.7578125 C-25.03531967 209.48378632 -25.31673309 210.20976013 -25.60667419 210.95773315 C-27.32156864 215.34995528 -29.13974558 219.65940634 -31 224 C-48.16 224 -65.32 224 -83 224 C-82.14816797 219.74083984 -81.01584165 215.78137617 -79.625 211.6875 C-79.41617187 211.06166016 -79.20734375 210.43582031 -78.9921875 209.79101562 C-77.43202643 205.15334171 -75.74070665 200.57256266 -74 196 C-73.72736328 195.28062256 -73.45472656 194.56124512 -73.17382812 193.82006836 C-72.26378094 191.42092308 -71.35094584 189.02285327 -70.4375 186.625 C-70.0967041 185.72942383 -69.7559082 184.83384766 -69.40478516 183.91113281 C-67.43845747 178.75051506 -65.45915011 173.59518609 -63.46484375 168.4453125 C-59.48087597 158.15057743 -55.52353469 147.8620308 -51.90795898 137.43139648 C-50.38858604 133.05614994 -48.73591566 128.76128597 -46.98046875 124.4765625 C-45.83001697 121.57064046 -44.7889272 118.63515392 -43.75 115.6875 C-39.56135273 103.85998233 -35.00296202 92.16874212 -30.47265625 80.46875 C-26.27717076 69.62284772 -22.11934671 58.7841045 -18.3515625 47.78125 C-17.0473658 44.04241965 -15.56258848 40.38374842 -14.07958984 36.71289062 C-12.13996997 31.83883906 -10.32816298 26.9166977 -8.5 22 C-7.74069812 19.95791848 -6.98029219 17.91624711 -6.21875 15.875 C-5.88810547 14.98554688 -5.55746094 14.09609375 -5.21679688 13.1796875 C-3.5281187 8.76689767 -1.75477076 4.3869269 0 0 Z " fill="#FFFDFD" transform="translate(440,297)"/>
<path d="M0 0 C1.15988292 3.47964876 0.85068902 4.02736438 -0.51171875 7.28125 C-0.85541504 8.1175293 -1.19911133 8.95380859 -1.55322266 9.81542969 C-1.92753418 10.70133789 -2.3018457 11.58724609 -2.6875 12.5 C-3.43999768 14.32763319 -4.19131186 16.15575414 -4.94140625 17.984375 C-5.4830542 19.29631836 -5.4830542 19.29631836 -6.03564453 20.63476562 C-7.47041275 24.15376171 -8.7575572 27.71735902 -10.03125 31.296875 C-11.43193983 35.20525147 -12.90406154 39.08626625 -14.36767578 42.97143555 C-16.06118965 47.47622397 -17.73526736 51.98781975 -19.3984375 56.50390625 C-27.12626681 77.47714125 -27.12626681 77.47714125 -30.375 85.4375 C-32.49854386 90.65091947 -34.3432976 95.90011513 -36.078125 101.25390625 C-37.21239499 104.63268508 -38.53314624 107.91199273 -39.87890625 111.2109375 C-43.72761211 120.78576672 -47.19189999 130.49868217 -50.5625 140.25 C-52.76434556 146.61048872 -55.10187401 152.85297409 -57.76171875 159.0390625 C-59.49937845 163.19409736 -61.05497099 167.41336591 -62.62036133 171.63525391 C-64.8906692 177.7461114 -67.25142063 183.8197757 -69.64013672 189.88525391 C-71.21027274 193.89096239 -72.68145532 197.90216995 -74 202 C-74.33 202 -74.66 202 -75 202 C-75.03425331 200.81753944 -75.03425331 200.81753944 -75.06919861 199.6111908 C-75.28797957 192.06892292 -75.5083891 184.52670502 -75.73049068 176.98453426 C-75.84453662 173.10991236 -75.95801915 169.23527591 -76.07006836 165.3605957 C-76.80865533 136.66203397 -76.80865533 136.66203397 -78.25561523 107.99438477 C-79.65349969 86.56960492 -79.65349969 86.56960492 -74.41967773 80.33740234 C-72.07752665 78.02650051 -69.59570158 76.02478908 -67 74 C-65.85893405 72.7621915 -64.74982951 71.49350819 -63.6875 70.1875 C-59.62993304 65.50115753 -55.3577815 61.01441626 -51.1184082 56.4934082 C-47.61063669 52.74594911 -44.17076736 48.95953398 -40.8203125 45.0703125 C-36.82113865 40.52189588 -32.66233292 36.11405609 -28.54638672 31.67138672 C-18.89332264 21.23803076 -9.322138 10.73094985 0 0 Z " fill="#FF0303" transform="translate(637,303)"/>
<path d="M0 0 C17.49 0 34.98 0 53 0 C52.67 0.66 52.34 1.32 52 2 C51.38025803 1.99777939 50.76051605 1.99555878 50.12199402 1.99327087 C43.68216528 1.97117814 37.24234727 1.95607666 30.80249023 1.94506836 C28.39786339 1.94003402 25.99323962 1.93320614 23.58862305 1.92456055 C20.13589725 1.91245571 16.68321186 1.90676274 13.23046875 1.90234375 C12.15226364 1.89718246 11.07405853 1.89202118 9.96318054 1.88670349 C8.96236954 1.88662796 7.96155853 1.88655243 6.93041992 1.88647461 C6.04883713 1.884254 5.16725433 1.88203339 4.25895691 1.87974548 C1.83137713 1.90879133 1.83137713 1.90879133 -1 3 C-0.67 2.01 -0.34 1.02 0 0 Z " fill="#FFC6C6" transform="translate(440,297)"/>
<path d="M0 0 C0.33 0 0.66 0 1 0 C2.51708428 11.52164009 2.51708428 11.52164009 0 17 C0.66 17 1.32 17 2 17 C1.25 23.75 1.25 23.75 -1 26 C-1.11624638 17.26860536 -0.89115181 8.68873018 0 0 Z " fill="#FF3232" transform="translate(344,369)"/>
<path d="M0 0 C0.33 0 0.66 0 1 0 C1 2.97 1 5.94 1 9 C-0.32 9.33 -1.64 9.66 -3 10 C-2.39009109 6.44219804 -1.4216319 3.3171411 0 0 Z " fill="#FF2424" transform="translate(506,429)"/>
<path d="M0 0 C1.60226148 4.00565371 0.47694566 7.08609399 -1 11 C-1.99 11.33 -2.98 11.66 -4 12 C-3.52309796 10.37433394 -3.04340334 8.74948689 -2.5625 7.125 C-2.29566406 6.22007812 -2.02882813 5.31515625 -1.75390625 4.3828125 C-1 2 -1 2 0 0 Z " fill="#FF3131" transform="translate(552,305)"/>
<path d="M0 0 C0.33 0.66 0.66 1.32 1 2 C0.22265625 3.9453125 0.22265625 3.9453125 -0.9375 6.125 C-1.31777344 6.84945313 -1.69804687 7.57390625 -2.08984375 8.3203125 C-2.39019531 8.87460937 -2.69054687 9.42890625 -3 10 C-3.33 9.34 -3.66 8.68 -4 8 C-4.66 7.67 -5.32 7.34 -6 7 C-4.02 4.69 -2.04 2.38 0 0 Z " fill="#FFBBBB" transform="translate(201,445)"/>
<path d="M0 0 C0.33 0 0.66 0 1 0 C0.6875 3.375 0.6875 3.375 0 7 C-0.99 7.66 -1.98 8.32 -3 9 C-2.5020163 5.26512223 -2.12508244 3.18762365 0 0 Z " fill="#FF1C1C" transform="translate(296,430)"/>
</svg>
