<?xml version="1.0" encoding="UTF-8"?>
<svg version="1.1" xmlns="http://www.w3.org/2000/svg" width="808" height="808" viewBox="0 -88 808 808">
<rect x="0" y="-88" width="808" height="808" fill="#005ca9"/>
<path d="M0 0 C266.64 0 533.28 0 808 0 C808 208.56 808 417.12 808 632 C541.36 632 274.72 632 0 632 C0 423.44 0 214.88 0 0 Z " fill="#232E84" transform="translate(0,0)"/>
<path d="M0 0 C3.60768302 0.82212949 7.15712145 1.28572039 10.83691406 1.64648438 C10.83691406 2.30648437 10.83691406 2.96648437 10.83691406 3.64648438 C12.0009375 3.76765625 13.16496094 3.88882813 14.36425781 4.01367188 C26.21231542 5.50802148 37.33384174 10.42629531 47.93505859 15.70068359 C49.87435286 16.66510285 51.821635 17.61174715 53.77050781 18.55664062 C92.49653212 37.46251989 125.86674465 64.15457192 151.83691406 98.64648438 C152.30709961 99.26023926 152.77728516 99.87399414 153.26171875 100.50634766 C166.88949165 118.40144958 177.46901794 138.79961765 185.83691406 159.64648438 C186.22967529 160.60651367 186.22967529 160.60651367 186.63037109 161.5859375 C194.64898285 181.50329785 199.27063969 203.36946349 201.83691406 224.64648438 C201.92972656 225.35240723 202.02253906 226.05833008 202.11816406 226.78564453 C203.0926538 235.04618525 203.0795659 243.3404664 203.08691406 251.64648438 C203.08792114 252.43861328 203.08892822 253.23074219 203.08996582 254.046875 C203.0718404 275.25148813 200.72123249 295.99950649 195.83691406 316.64648438 C195.63227539 317.51692383 195.42763672 318.38736328 195.21679688 319.28417969 C190.35726683 339.47047864 182.57683045 358.34548179 172.83691406 376.64648438 C172.4648584 377.35724121 172.09280273 378.06799805 171.70947266 378.80029297 C161.7872484 397.68266147 149.46622156 414.41948225 135.09082031 430.16992188 C133.56269446 431.84900643 132.05005548 433.5422926 130.55175781 435.24804688 C125.93553857 440.48979154 121.19071217 445.17263579 115.83691406 449.64648438 C114.92683594 450.44441406 114.01675781 451.24234375 113.07910156 452.06445312 C82.6963919 478.59803494 45.98519849 497.91135959 6.83691406 507.64648438 C5.53971436 507.96963623 5.53971436 507.96963623 4.21630859 508.29931641 C-62.5338932 524.58833135 -133.13614951 514.05582212 -192.47558594 479.28662109 C-207.29293175 470.24384047 -220.88202182 459.58703892 -233.68652344 447.90039062 C-235.36560799 446.37226478 -237.05889417 444.8596258 -238.76464844 443.36132812 C-243.21008808 439.44638657 -247.39335868 435.51055685 -251.20605469 430.97460938 C-252.72605928 429.16638036 -254.26824337 427.39432848 -255.83886719 425.63085938 C-267.56355171 412.37400478 -277.37465346 397.98661401 -286.16308594 382.64648438 C-286.69289063 381.74027344 -287.22269531 380.8340625 -287.76855469 379.90039062 C-294.29119861 368.41144408 -299.47906023 355.98750189 -304.16308594 343.64648438 C-304.63294922 342.45345703 -304.63294922 342.45345703 -305.11230469 341.23632812 C-317.4722595 308.84640701 -319.85234095 275.01697267 -319.16308594 240.64648438 C-319.14906738 239.78974121 -319.13504883 238.93299805 -319.12060547 238.05029297 C-318.51914013 208.4668793 -310.31118592 179.85878565 -299.16308594 152.64648438 C-298.87997559 151.93733887 -298.59686523 151.22819336 -298.30517578 150.49755859 C-280.99397788 107.26607153 -248.42211025 69.91976485 -211.16308594 42.64648438 C-210.56963379 42.21174805 -209.97618164 41.77701172 -209.36474609 41.32910156 C-201.92119598 35.92307475 -194.19736347 31.12416179 -186.12646484 26.72070312 C-184.7681993 25.97755859 -183.41394071 25.22706059 -182.06298828 24.47070312 C-172.67420911 19.22115276 -163.18154405 14.64036047 -153.16308594 10.70898438 C-152.23246338 10.34361572 -151.30184082 9.97824707 -150.34301758 9.60180664 C-144.82995873 7.50072902 -139.30309972 5.78834513 -133.59545898 4.29833984 C-131.68789339 3.78712835 -129.8038761 3.18793595 -127.93261719 2.55664062 C-123.41795005 1.07297709 -118.76514412 0.26842505 -114.11230469 -0.66992188 C-111.2902544 -1.0499543 -111.2902544 -1.0499543 -110.16308594 -2.35351562 C-73.85554108 -8.90677952 -35.89006281 -8.75038197 0 0 Z " fill="#232E84" transform="translate(468.1630859375,62.353515625)"/>
<path d="M0 0 C3.84908683 1.92454342 6.13335457 3.78011505 9.25 6.6875 C10.23649719 7.59947997 11.22347839 8.51093666 12.2109375 9.421875 C13.13132813 10.27265625 14.05171875 11.1234375 15 12 C20.26530594 16.72061912 25.66950719 21.27914567 31.08154297 25.82983398 C35.43880505 29.5000673 39.70982235 33.24609456 44 37 C44.33 26.77 44.66 16.54 45 6 C54.24 6 63.48 6 73 6 C73 36.03 73 66.06 73 97 C68.17629649 93.38222237 63.84673554 90.10155998 59.5 86.0625 C55.05606922 81.97116564 50.57295172 77.94620199 46 74 C45.18813232 73.29858887 45.18813232 73.29858887 44.35986328 72.58300781 C42.4915112 70.97013551 40.62108747 69.35969792 38.75 67.75 C38.14696045 67.23002441 37.5439209 66.71004883 36.92260742 66.17431641 C36.05599487 65.43060791 36.05599487 65.43060791 35.171875 64.671875 C34.6572168 64.2294043 34.14255859 63.78693359 33.61230469 63.33105469 C31.79001324 61.82664327 29.89043908 60.41782931 28 59 C28 69.56 28 80.12 28 91 C18.76 91 9.52 91 0 91 C0 60.97 0 30.94 0 0 Z " fill="#FCFCFD" transform="translate(219,269)"/>
<path d="M0 0 C0.66 0 1.32 0 2 0 C8.97031616 12.36643555 15.89907305 24.74858229 22.625 37.25 C26.69415087 44.80831382 30.84532561 52.30880812 35.125 59.75 C39.21782881 66.86793359 43.27048686 74.00546945 47.25 81.1875 C47.72840332 82.04375977 48.20680664 82.90001953 48.69970703 83.78222656 C49.13395996 84.56952148 49.56821289 85.35681641 50.015625 86.16796875 C50.40008789 86.86172607 50.78455078 87.5554834 51.18066406 88.27026367 C52 90 52 90 52 92 C42.43 92 32.86 92 23 92 C19 85 19 85 19 83 C7.12 83 -4.76 83 -17 83 C-17.33 84.65 -17.66 86.3 -18 88 C-18.66 89.32 -19.32 90.64 -20 92 C-29.9 92 -39.8 92 -50 92 C-48.59145276 88.47863191 -47.20714513 85.37149141 -45.41796875 82.0703125 C-44.90468018 81.12172363 -44.3913916 80.17313477 -43.86254883 79.19580078 C-43.03339966 77.67575439 -43.03339966 77.67575439 -42.1875 76.125 C-41.61217529 75.06651855 -41.03685059 74.00803711 -40.4440918 72.91748047 C-35.40952971 63.68619504 -30.2470409 54.52987825 -25.0546875 45.38671875 C-16.52100121 30.35839208 -8.25590193 15.18213763 0 0 Z " fill="#FAFAFC" transform="translate(561,268)"/>
<path d="M0 0 C18.15 0 36.3 0 55 0 C55 7.26 55 14.52 55 22 C46.42 22 37.84 22 29 22 C29 25.63 29 29.26 29 33 C37.58 33 46.16 33 55 33 C55 38.61 55 44.22 55 50 C46.42 50 37.84 50 29 50 C29 53.96 29 57.92 29 62 C37.58 62 46.16 62 55 62 C55 69.59 55 77.18 55 85 C36.85 85 18.7 85 0 85 C0 56.95 0 28.9 0 0 Z " fill="#F8F9FB" transform="translate(452,275)"/>
<path d="M0 0 C9.9 0 19.8 0 30 0 C36.14190433 11.60137484 42.18813858 23.2301689 48 35 C50.74673231 31.6329194 52.63952735 27.96371289 54.5390625 24.08203125 C54.86538666 23.42418137 55.19171082 22.76633148 55.52792358 22.08854675 C56.5641256 19.99840666 57.59490776 17.90565706 58.625 15.8125 C59.6629481 13.7089988 60.70205885 11.60609243 61.74349976 9.50431824 C62.39009251 8.19885845 63.03454394 6.8923355 63.67666626 5.58467102 C65.88829161 1.11170839 65.88829161 1.11170839 67 0 C69.21855264 -0.08783542 71.43988496 -0.10694609 73.66015625 -0.09765625 C74.65685585 -0.09553383 74.65685585 -0.09553383 75.6736908 -0.09336853 C77.80333899 -0.08775518 79.93288339 -0.07520054 82.0625 -0.0625 C83.50325369 -0.05748671 84.94400903 -0.05292351 86.38476562 -0.04882812 C89.92321102 -0.03778145 93.46159539 -0.02050792 97 0 C80.58561638 33.17628989 80.58561638 33.17628989 71.62109375 48.16015625 C69.35279194 52.13378375 67.36130827 56.23514422 65.34863281 60.34155273 C60.54618705 70.05831679 55.23686987 79.51276481 50 89 C49.01 89 48.02 89 47 89 C46.54898926 88.12770752 46.54898926 88.12770752 46.08886719 87.23779297 C40.01945024 75.51413839 33.86231072 63.84951668 27.50512695 52.27929688 C23.37842335 44.74667023 19.40439432 37.14048042 15.45605469 29.51318359 C11.52764377 21.94884767 7.45550466 14.47093844 3.30053711 7.02880859 C2.86620361 6.24844238 2.43187012 5.46807617 1.984375 4.6640625 C1.59991211 3.97779785 1.21544922 3.2915332 0.81933594 2.58447266 C0 1 0 1 0 0 Z " fill="#FCFCFD" transform="translate(351,275)"/>
<path d="M0 0 C3.60768302 0.82212949 7.15712145 1.28572039 10.83691406 1.64648438 C10.83691406 2.30648437 10.83691406 2.96648437 10.83691406 3.64648438 C12.0009375 3.76765625 13.16496094 3.88882813 14.36425781 4.01367188 C26.21231542 5.50802148 37.33384174 10.42629531 47.93505859 15.70068359 C49.87435286 16.66510285 51.821635 17.61174715 53.77050781 18.55664062 C92.49653212 37.46251989 125.86674465 64.15457192 151.83691406 98.64648438 C152.30709961 99.26023926 152.77728516 99.87399414 153.26171875 100.50634766 C166.88949165 118.40144958 177.46901794 138.79961765 185.83691406 159.64648438 C186.22967529 160.60651367 186.22967529 160.60651367 186.63037109 161.5859375 C194.64898285 181.50329785 199.27063969 203.36946349 201.83691406 224.64648438 C201.92972656 225.35240723 202.02253906 226.05833008 202.11816406 226.78564453 C203.0926538 235.04618525 203.0795659 243.3404664 203.08691406 251.64648438 C203.08792114 252.43861328 203.08892822 253.23074219 203.08996582 254.046875 C203.0718404 275.25148813 200.72123249 295.99950649 195.83691406 316.64648438 C195.63227539 317.51692383 195.42763672 318.38736328 195.21679688 319.28417969 C190.35726683 339.47047864 182.57683045 358.34548179 172.83691406 376.64648438 C172.4648584 377.35724121 172.09280273 378.06799805 171.70947266 378.80029297 C161.7872484 397.68266147 149.46622156 414.41948225 135.09082031 430.16992188 C133.56269446 431.84900643 132.05005548 433.5422926 130.55175781 435.24804688 C125.93553857 440.48979154 121.19071217 445.17263579 115.83691406 449.64648438 C114.92683594 450.44441406 114.01675781 451.24234375 113.07910156 452.06445312 C82.6963919 478.59803494 45.98519849 497.91135959 6.83691406 507.64648438 C5.53971436 507.96963623 5.53971436 507.96963623 4.21630859 508.29931641 C-62.5338932 524.58833135 -133.13614951 514.05582212 -192.47558594 479.28662109 C-207.29293175 470.24384047 -220.88202182 459.58703892 -233.68652344 447.90039062 C-235.36560799 446.37226478 -237.05889417 444.8596258 -238.76464844 443.36132812 C-243.21008808 439.44638657 -247.39335868 435.51055685 -251.20605469 430.97460938 C-252.72605928 429.16638036 -254.26824337 427.39432848 -255.83886719 425.63085938 C-267.56355171 412.37400478 -277.37465346 397.98661401 -286.16308594 382.64648438 C-286.69289063 381.74027344 -287.22269531 380.8340625 -287.76855469 379.90039062 C-294.29119861 368.41144408 -299.47906023 355.98750189 -304.16308594 343.64648438 C-304.63294922 342.45345703 -304.63294922 342.45345703 -305.11230469 341.23632812 C-317.4722595 308.84640701 -319.85234095 275.01697267 -319.16308594 240.64648438 C-319.14906738 239.78974121 -319.13504883 238.93299805 -319.12060547 238.05029297 C-318.51914013 208.4668793 -310.31118592 179.85878565 -299.16308594 152.64648438 C-298.87997559 151.93733887 -298.59686523 151.22819336 -298.30517578 150.49755859 C-280.99397788 107.26607153 -248.42211025 69.91976485 -211.16308594 42.64648438 C-210.56963379 42.21174805 -209.97618164 41.77701172 -209.36474609 41.32910156 C-201.92119598 35.92307475 -194.19736347 31.12416179 -186.12646484 26.72070312 C-184.7681993 25.97755859 -183.41394071 25.22706059 -182.06298828 24.47070312 C-172.67420911 19.22115276 -163.18154405 14.64036047 -153.16308594 10.70898438 C-152.23246338 10.34361572 -151.30184082 9.97824707 -150.34301758 9.60180664 C-144.82995873 7.50072902 -139.30309972 5.78834513 -133.59545898 4.29833984 C-131.68789339 3.78712835 -129.8038761 3.18793595 -127.93261719 2.55664062 C-123.41795005 1.07297709 -118.76514412 0.26842505 -114.11230469 -0.66992188 C-111.2902544 -1.0499543 -111.2902544 -1.0499543 -110.16308594 -2.35351562 C-73.85554108 -8.90677952 -35.89006281 -8.75038197 0 0 Z M-69.47753906 -4.32275391 C-80.24719749 -4.17390072 -90.84411947 -2.49433946 -101.47558594 -0.91601562 C-102.22012024 -0.80673737 -102.96465454 -0.69745911 -103.73175049 -0.58486938 C-105.87300067 -0.26743807 -108.01233564 0.06055766 -110.15136719 0.39257812 C-111.40473877 0.5852124 -112.65811035 0.77784668 -113.94946289 0.97631836 C-116.76587622 1.56365062 -118.67720287 2.28273711 -121.16308594 3.64648438 C-122.88396103 4.04376774 -124.60636955 4.43622227 -126.33764648 4.78540039 C-160.04488461 11.66483318 -192.9562001 29.65716862 -219.16308594 51.64648438 C-220.24600682 52.53761083 -221.32934205 53.428234 -222.41308594 54.31835938 C-233.31689111 63.34383289 -244.14194245 72.70509748 -253.16308594 83.64648438 C-254.00226563 84.60941406 -254.84144531 85.57234375 -255.70605469 86.56445312 C-262.10634994 93.92272228 -267.77676938 101.50392655 -273.16308594 109.64648438 C-273.86820313 110.67644531 -274.57332031 111.70640625 -275.29980469 112.76757812 C-290.03334292 134.80175649 -303.13710008 160.8508843 -308.56542969 186.94335938 C-309.19040922 189.77006417 -309.90299435 192.56924092 -310.62670898 195.37207031 C-312.52508493 202.75819573 -314.13845634 210.08069261 -315.16308594 217.64648438 C-315.34871094 218.86722656 -315.53433594 220.08796875 -315.72558594 221.34570312 C-319.11420075 245.94860928 -318.46111018 272.22841416 -314.16308594 296.64648438 C-314.00211426 297.60312988 -313.84114258 298.55977539 -313.67529297 299.54541016 C-305.06903088 349.47165105 -281.28619726 396.21689054 -246.16308594 432.64648438 C-245.49857422 433.33822754 -244.8340625 434.0299707 -244.14941406 434.74267578 C-234.70247184 444.52460101 -225.16176341 453.6410572 -214.16308594 461.64648438 C-213.01313763 462.50297504 -211.86340005 463.3597487 -210.71386719 464.21679688 C-202.52159864 470.25731686 -193.99700219 475.59986979 -185.16308594 480.64648438 C-183.49632812 481.61328125 -183.49632812 481.61328125 -181.79589844 482.59960938 C-144.25396951 503.54136565 -102.9309089 513.11381116 -60.16308594 512.95898438 C-59.12128174 512.95716156 -58.07947754 512.95533875 -57.00610352 512.95346069 C-41.85570383 512.90878256 -27.0793678 512.53368682 -12.16308594 509.64648438 C-11.20692383 509.46956055 -10.25076172 509.29263672 -9.265625 509.11035156 C3.80021743 506.64854786 16.36266776 503.23681908 28.83691406 498.64648438 C29.49216064 498.40841064 30.14740723 498.17033691 30.82250977 497.92504883 C59.7677845 487.27253719 86.59135085 471.89242997 109.83691406 451.64648438 C110.51955322 451.05230713 111.20219238 450.45812988 111.90551758 449.84594727 C124.49780123 438.8732648 124.49780123 438.8732648 135.83691406 426.64648438 C136.64515625 425.72609375 137.45339844 424.80570312 138.28613281 423.85742188 C171.82500923 385.50030149 191.35778515 338.73795028 198.83691406 288.64648438 C198.95550781 287.88625977 199.07410156 287.12603516 199.19628906 286.34277344 C204.68961395 250.22743217 201.15505356 209.0762773 188.83691406 174.64648438 C188.43730469 173.48503906 188.03769531 172.32359375 187.62597656 171.12695312 C187.24183594 170.04027344 186.85769531 168.95359375 186.46191406 167.83398438 C186.08292969 166.75503906 185.70394531 165.67609375 185.31347656 164.56445312 C173.77831695 133.31864757 156.29032064 105.23619693 133.79785156 80.79492188 C132.00304125 78.82849623 130.29503743 76.8129001 128.58691406 74.77148438 C119.57059032 64.47007541 108.75698737 55.8304861 97.83691406 47.64648438 C97.26328125 47.2159375 96.68964844 46.78539062 96.09863281 46.34179688 C76.65189703 31.85551514 55.37689645 20.51731823 32.83691406 11.64648438 C32.19625 11.39382812 31.55558594 11.14117187 30.89550781 10.88085938 C21.73865502 7.3209598 12.40756391 4.77945738 2.83691406 2.64648438 C2.08168457 2.47761719 1.32645508 2.30875 0.54833984 2.13476562 C-22.9565256 -3.03135229 -45.44636835 -4.64215554 -69.47753906 -4.32275391 Z " fill="#DFE0EC" transform="translate(468.1630859375,62.353515625)"/>
<path d="M0 0 C9.57 0 19.14 0 29 0 C29 28.38 29 56.76 29 86 C19.43 86 9.86 86 0 86 C0 57.62 0 29.24 0 0 Z " fill="#FBFCFD" transform="translate(318,274)"/>
<path d="M0 0 C0.99 0 1.98 0 3 0 C2.30529059 4.62662142 1.24571678 9.10463119 0.0625 13.625 C-1.65409944 20.3828594 -3.06337013 27.08399198 -4 34 C-4.185625 35.22074219 -4.37125 36.44148438 -4.5625 37.69921875 C-7.95111481 62.3021249 -7.29802424 88.58192979 -3 113 C-2.83902832 113.95664551 -2.67805664 114.91329102 -2.51220703 115.89892578 C1.52396374 139.31336888 9.40889434 161.43633566 19.13623047 183.05371094 C20.1533068 185.34543862 21.09585439 187.66152915 22 190 C21.01 190.99 21.01 190.99 20 192 C19.54109375 191.01 19.0821875 190.02 18.609375 189 C17.98964366 187.66663863 17.36984855 186.33330689 16.75 185 C16.44964844 184.35160156 16.14929688 183.70320312 15.83984375 183.03515625 C14.28019523 179.68357112 12.67942386 176.36924704 10.98046875 173.0859375 C8.78979735 168.72583243 7.14615636 164.23509863 5.5625 159.625 C5.26174561 158.75286865 4.96099121 157.8807373 4.65112305 156.98217773 C-6.51521167 124.13144548 -9.69410219 91.61219797 -9 57 C-8.98598145 56.14325684 -8.97196289 55.28651367 -8.95751953 54.40380859 C-8.5834955 36.00722443 -5.30259825 17.60011333 0 0 Z " fill="#DDDEEB" transform="translate(158,246)"/>
<path d="M0 0 C-4.5301172 4.0393545 -9.60604167 6.57179549 -15 9.25 C-15.96969727 9.73162598 -16.93939453 10.21325195 -17.93847656 10.70947266 C-33.37147624 18.23599712 -49.32757463 23.93859447 -66 28 C-66.85754883 28.21253418 -67.71509766 28.42506836 -68.59863281 28.64404297 C-100.89690761 36.53029198 -134.02404635 38.43907068 -167 34 C-163.84932225 32.15179899 -161.60357552 31.76472726 -157.96972656 31.82055664 C-156.46469574 31.83530785 -156.46469574 31.83530785 -154.92926025 31.85035706 C-153.84401062 31.87009079 -152.75876099 31.88982452 -151.640625 31.91015625 C-149.30208585 31.93062847 -146.96354406 31.95080015 -144.625 31.97070312 C-140.97059148 32.01361915 -137.31635694 32.06150212 -133.66210938 32.11645508 C-113.18360429 32.40212966 -93.14877643 31.29799359 -73.125 26.6875 C-71.72785767 26.37546631 -71.72785767 26.37546631 -70.30249023 26.05712891 C-61.32813329 23.97876004 -52.63933858 21.17857338 -44 18 C-43.34765381 17.76337646 -42.69530762 17.52675293 -42.02319336 17.28295898 C-37.0817555 15.46663687 -32.2495438 13.44665651 -27.4375 11.3125 C-26.66462646 10.97162354 -25.89175293 10.63074707 -25.09545898 10.27954102 C-19.12036729 7.60185325 -13.35155714 4.62862555 -7.68334961 1.35083008 C-3.31622656 -1.10540885 -3.31622656 -1.10540885 0 0 Z " fill="#D3D4E5" transform="translate(541,542)"/>
<path d="M0 0 C1.72420023 4.08852269 0.09439197 7.37254467 -1.4375 11.25 C-1.70900879 11.95310303 -1.98051758 12.65620605 -2.26025391 13.38061523 C-5.07346213 20.48479621 -8.4290454 27.2813478 -11.9765625 34.04296875 C-12.97848915 35.95886666 -13.95948852 37.88430663 -14.9375 39.8125 C-24.7177761 58.88280039 -37.47862707 76.58942262 -52.25 92.09765625 C-54.65626289 94.63722064 -56.96426797 97.22765802 -59.25 99.875 C-62.88183579 103.97474102 -66.80801397 107.48644442 -71 111 C-71.91136719 111.79921875 -72.82273437 112.5984375 -73.76171875 113.421875 C-105.36662577 141 -105.36662577 141 -115 141 C-115 140.34 -115 139.68 -115 139 C-113.56982422 137.93774414 -113.56982422 137.93774414 -111.5546875 136.78515625 C-110.44395874 136.13522705 -110.44395874 136.13522705 -109.31079102 135.47216797 C-108.50697998 135.00697754 -107.70316895 134.54178711 -106.875 134.0625 C-98.93219572 129.34144433 -91.68131748 124.17845978 -84.56982422 118.29345703 C-83.05112108 117.04212123 -81.51216525 115.81549156 -79.97265625 114.58984375 C-74.91235024 110.54298723 -70.20678459 106.35307475 -65.69921875 101.69921875 C-64 100 -64 100 -61.4375 98 C-57.83774734 95.04635679 -55.00502116 91.54467524 -52 88 C-51.18402344 87.071875 -50.36804688 86.14375 -49.52734375 85.1875 C-27.66908981 60.16491976 -11.9437282 30.86081323 0 0 Z " fill="#DDDEEB" transform="translate(655,401)"/>
<path d="M0 0 C3.60768302 0.82212949 7.15712145 1.28572039 10.83691406 1.64648438 C10.83691406 2.30648437 10.83691406 2.96648437 10.83691406 3.64648438 C12.55394531 3.81470703 12.55394531 3.81470703 14.30566406 3.98632812 C18.84118609 4.55326838 23.00802411 5.77804575 27.33691406 7.20898438 C28.06394531 7.44294922 28.79097656 7.67691406 29.54003906 7.91796875 C31.30771667 8.48781219 33.07262375 9.06623841 34.83691406 9.64648438 C31.83691406 11.64648438 31.83691406 11.64648438 29.67285156 11.25585938 C28.4546875 10.83046875 28.4546875 10.83046875 27.21191406 10.39648438 C23.17545324 9.06080419 19.20674442 8.00875954 15.04003906 7.17382812 C12.83691406 6.64648437 12.83691406 6.64648437 10.25488281 5.74023438 C-14.70099071 -2.24564515 -41.17111291 -4.00547375 -67.16308594 -3.35351562 C-67.92685547 -3.34336426 -68.690625 -3.33321289 -69.47753906 -3.32275391 C-80.24719749 -3.17390072 -90.84411947 -1.49433946 -101.47558594 0.08398438 C-102.22012024 0.19326263 -102.96465454 0.30254089 -103.73175049 0.41513062 C-105.87300067 0.73256193 -108.01233564 1.06055766 -110.15136719 1.39257812 C-112.03142456 1.68152954 -112.03142456 1.68152954 -113.94946289 1.97631836 C-116.76239528 2.56292471 -118.68360215 3.27515752 -121.16308594 4.64648438 C-123.18988207 5.13033491 -125.23448798 5.54328571 -127.28808594 5.89648438 C-128.34253906 6.08726563 -129.39699219 6.27804688 -130.48339844 6.47460938 C-131.80984375 6.5596875 -131.80984375 6.5596875 -133.16308594 6.64648438 C-133.82308594 5.98648438 -134.48308594 5.32648438 -135.16308594 4.64648438 C-128.18209925 2.37846796 -121.16800599 0.7357364 -113.97167969 -0.70507812 C-111.27312821 -1.06683575 -111.27312821 -1.06683575 -110.16308594 -2.35351562 C-73.85554108 -8.90677952 -35.89006281 -8.75038197 0 0 Z " fill="#DBDCEA" transform="translate(468.1630859375,62.353515625)"/>
<path d="M0 0 C6.33380888 0.50912088 11.39383257 2.64984116 17.125 5.3125 C18.5649231 5.97693115 18.5649231 5.97693115 20.03393555 6.65478516 C58.62757308 24.80127431 93.04874277 52.21635287 118.72949219 86.31884766 C119.62468268 87.50337527 120.53868331 88.67380274 121.46582031 89.83349609 C122.8828125 91.66796875 122.8828125 91.66796875 125 95 C124.63232422 97.20825195 124.63232422 97.20825195 124 99 C123.5153125 98.32195312 123.030625 97.64390625 122.53125 96.9453125 C115.84372542 87.65994184 108.8645605 78.80969371 101.140625 70.36328125 C99.27147093 68.29970787 97.47676638 66.19485387 95.6875 64.0625 C72.67358281 37.77596156 39.16582855 17.33515591 6.97949219 4.56225586 C6.21282227 4.25425049 5.44615234 3.94624512 4.65625 3.62890625 C3.97369141 3.36150635 3.29113281 3.09410645 2.58789062 2.81860352 C1 2 1 2 0 0 Z " fill="#DEDFEC" transform="translate(500,73)"/>
<path d="M0 0 C0.66 0 1.32 0 2 0 C3.50647598 2.95507906 5.00406365 5.91457341 6.5 8.875 C6.92925781 9.71675781 7.35851562 10.55851562 7.80078125 11.42578125 C8.40986328 12.63427734 8.40986328 12.63427734 9.03125 13.8671875 C9.40830078 14.61081543 9.78535156 15.35444336 10.17382812 16.12060547 C11 18 11 18 11 20 C4.4 20 -2.2 20 -9 20 C-6.34675978 13.12122906 -3.39667777 6.54278095 0 0 Z " fill="#2A3588" transform="translate(561,316)"/>
<path d="M0 0 C1.22096375 0.00015106 2.44192749 0.00030212 3.69989014 0.00045776 C5.67037323 0.01594162 5.67037323 0.01594162 7.68066406 0.03173828 C9.04258008 0.03547037 10.40449879 0.03831642 11.76641846 0.04031372 C15.34376492 0.04793484 18.92094792 0.06757009 22.49822998 0.08972168 C26.15146677 0.110213 29.80473007 0.11932245 33.45800781 0.12939453 C40.62084259 0.15081756 47.78354289 0.18493496 54.94628906 0.22705078 C54.61628906 1.21705078 54.28628906 2.20705078 53.94628906 3.22705078 C44.77356575 4.16262549 35.66233221 4.42439698 26.44628906 4.41455078 C25.75083984 4.41527588 25.05539062 4.41600098 24.33886719 4.41674805 C12.78158914 4.41542145 1.40598664 3.76970238 -10.05371094 2.22705078 C-6.62753571 0.14425244 -3.97490905 -0.01642524 0 0 Z " fill="#BDBFD8" transform="translate(384.0537109375,573.77294921875)"/>
<path d="M0 0 C0.99 0 1.98 0 3 0 C2.30529059 4.62662142 1.24571678 9.10463119 0.0625 13.625 C-3.23967083 26.62489134 -4.68987058 39.67570507 -6 53 C-10.3701111 45.3826235 -7.68557168 35.52407574 -6.25 27.3125 C-6.07243164 26.26900391 -5.89486328 25.22550781 -5.71191406 24.15039062 C-4.27105957 15.95094097 -2.40151756 7.97099444 0 0 Z " fill="#C9CBE0" transform="translate(158,246)"/>
<path d="M0 0 C0.33 0 0.66 0 1 0 C2.33024623 7.50970404 1.36059565 13.04213574 -0.75 20.3125 C-1.31301079 22.34491065 -1.87551583 24.37746148 -2.4375 26.41015625 C-2.70949219 27.37453613 -2.98148438 28.33891602 -3.26171875 29.33251953 C-4.41287199 33.49174581 -5.38903252 37.68580757 -6.359375 41.890625 C-7 44 -7 44 -9 47 C-10.2606216 43.41609714 -9.72071716 41.12364082 -8.671875 37.51953125 C-8.36773682 36.44493652 -8.06359863 35.3703418 -7.75024414 34.26318359 C-7.42016357 33.12445801 -7.09008301 31.98573242 -6.75 30.8125 C-3.88112548 20.59643855 -1.53498581 10.49637913 0 0 Z " fill="#CED0E3" transform="translate(665,357)"/>
<path d="M0 0 C0.66 0 1.32 0 2 0 C0.37195289 3.69610695 -1.93483018 6.59463389 -4.4375 9.75 C-10.32079083 17.25267595 -15.66663623 25.10134909 -21 33 C-22 30 -22 30 -21.15478516 28.18164062 C-20.70409668 27.51326172 -20.2534082 26.84488281 -19.7890625 26.15625 C-19.04039917 25.03561157 -19.04039917 25.03561157 -18.27661133 23.89233398 C-17.45906372 22.70812866 -17.45906372 22.70812866 -16.625 21.5 C-16.07932373 20.69570557 -15.53364746 19.89141113 -14.97143555 19.06274414 C-10.42436064 12.43848727 -5.69805365 5.69805365 0 0 Z " fill="#DDDEEB" transform="translate(210,149)"/>
<path d="M0 0 C0.33 0 0.66 0 1 0 C2.42033442 11.07099954 3.2964981 21.83190472 3 33 C2.01 33.495 2.01 33.495 1 34 C0.66052975 30.50056733 0.32955227 27.00037948 0 23.5 C-0.09539063 22.51773437 -0.19078125 21.53546875 -0.2890625 20.5234375 C-1.72233073 5.16699219 -1.72233073 5.16699219 0 0 Z " fill="#CCCEE1" transform="translate(668,279)"/>
<path d="M0 0 C0 0.66 0 1.32 0 2 C1.71703125 2.16822266 1.71703125 2.16822266 3.46875 2.33984375 C8.00427203 2.906784 12.17111004 4.13156138 16.5 5.5625 C17.22703125 5.79646484 17.9540625 6.03042969 18.703125 6.27148438 C20.47080261 6.84132781 22.23570969 7.41975404 24 8 C21 10 21 10 18.8359375 9.609375 C17.61777344 9.18398437 17.61777344 9.18398437 16.375 8.75 C13.01156638 7.63702707 9.71889302 6.660676 6.25 5.9375 C1.22566547 4.86528752 -3.45945964 3.44490635 -8 1 C-5.07175348 0.02391783 -3.04386724 -0.08226668 0 0 Z " fill="#C7C9DF" transform="translate(479,64)"/>
<path d="M0 0 C0.66 0 1.32 0 2 0 C3.45933706 3.39540285 4.91729178 6.79139757 6.375 10.1875 C6.7875 11.14720703 7.2 12.10691406 7.625 13.09570312 C8.02460938 14.02705078 8.42421875 14.95839844 8.8359375 15.91796875 C9.20251465 16.77156982 9.5690918 17.6251709 9.94677734 18.50463867 C10.99627153 20.99116627 12.0057969 23.49091431 13 26 C12.34 26.66 11.68 27.32 11 28 C10.54109375 27.01 10.0821875 26.02 9.609375 25 C8.98962997 23.66664499 8.36983507 22.33331316 7.75 21 C7.431521 20.31244629 7.11304199 19.62489258 6.78491211 18.91650391 C5.12672188 15.35234305 3.41674237 11.84250017 1.5625 8.375 C0.09051706 5.19551685 -0.4293691 3.43495284 0 0 Z " fill="#DCDEEA" transform="translate(167,410)"/>
<path d="M0 0 C2.88300095 2.88300095 3.20418003 6.32669194 4.0625 10.1875 C4.23587891 10.93064453 4.40925781 11.67378906 4.58789062 12.43945312 C6.2429337 19.67471806 7.1301701 26.58030426 7 34 C4.46735259 31.46735259 4.38008363 29.82719035 3.7109375 26.328125 C3.49179687 25.18859375 3.27265625 24.0490625 3.046875 22.875 C2.82515625 21.67875 2.6034375 20.4825 2.375 19.25 C2.14554688 18.06921875 1.91609375 16.8884375 1.6796875 15.671875 C0.67409482 10.3565994 -0.13286768 5.4262753 0 0 Z " fill="#DFE0EC" transform="translate(661,249)"/>
<path d="M0 0 C2.31169188 2.14720046 3.90197989 4.285238 5.48046875 7.01171875 C5.92197266 7.76904297 6.36347656 8.52636719 6.81835938 9.30664062 C7.27017578 10.09232422 7.72199219 10.87800781 8.1875 11.6875 C8.65091797 12.48478516 9.11433594 13.28207031 9.59179688 14.10351562 C10.73205177 16.06663487 11.86793773 18.03214871 13 20 C12.34 20.66 11.68 21.32 11 22 C9.72881267 19.93771746 8.45804035 17.87518109 7.1875 15.8125 C6.83107422 15.23435547 6.47464844 14.65621094 6.10742188 14.06054688 C5.06944825 12.37503007 4.03468147 10.68753975 3 9 C2.12794922 7.67548828 2.12794922 7.67548828 1.23828125 6.32421875 C0 4 0 4 0 0 Z " fill="#DFE0EC" transform="translate(179,436)"/>
<path d="M0 0 C0.33 0 0.66 0 1 0 C1.33972801 2.81185594 1.67190212 5.62428236 2 8.4375 C2.09539062 9.22060547 2.19078125 10.00371094 2.2890625 10.81054688 C2.91511131 16.24375619 3.08759571 21.53074263 3 27 C0.34436435 21.68872869 -0.31139143 17.98877962 -0.625 12.0625 C-0.6765625 11.23814453 -0.728125 10.41378906 -0.78125 9.56445312 C-0.82507813 8.77103516 -0.86890625 7.97761719 -0.9140625 7.16015625 C-0.9548291 6.43449463 -0.9955957 5.70883301 -1.03759766 4.96118164 C-1 3 -1 3 0 0 Z " fill="#D9DAE9" transform="translate(151,335)"/>
<path d="M0 0 C4.07376031 1.61010527 6.76507069 4.53822271 9.75 7.625 C10.25660156 8.140625 10.76320312 8.65625 11.28515625 9.1875 C12.52803902 10.45383339 13.76465276 11.7263144 15 13 C13.21875 13.6953125 13.21875 13.6953125 11 14 C9.21875 12.7421875 9.21875 12.7421875 7.5 10.875 C6.90058594 10.22917969 6.30117187 9.58335937 5.68359375 8.91796875 C0 2.44315545 0 2.44315545 0 0 Z " fill="#CFD1E3" transform="translate(218,492)"/>
<path d="M0 0 C-7.15063013 4.76708675 -17.62153591 4.34043421 -26 4 C-26 3.67 -26 3.34 -26 3 C-8.85106383 -0.57446809 -8.85106383 -0.57446809 0 0 Z " fill="#DEDFEC" transform="translate(460,572)"/>
<path d="M0 0 C0.33 0 0.66 0 1 0 C2.44987304 7.06813109 2.44987304 13.93186891 1 21 C-2.6690037 14.69163395 -1.20371429 6.92135718 0 0 Z " fill="#BCBFD8" transform="translate(151,278)"/>
<path d="M0 0 C0.703125 1.77734375 0.703125 1.77734375 1 4 C-0.328125 5.81640625 -0.328125 5.81640625 -2.25 7.5625 C-2.87390625 8.14128906 -3.4978125 8.72007812 -4.140625 9.31640625 C-4.75421875 9.87199219 -5.3678125 10.42757812 -6 11 C-7.00564639 11.99432154 -8.00768606 12.99237257 -9 14 C-9.66 13.34 -10.32 12.68 -11 12 C-10.54109375 11.55269531 -10.0821875 11.10539063 -9.609375 10.64453125 C-6.16447701 7.25029352 -2.92744915 3.86423288 0 0 Z " fill="#D1D3E4" transform="translate(221,136)"/>
<path d="M0 0 C0.33 0 0.66 0 1 0 C1.39325819 6.97669157 0.63096039 12.51656189 -2 19 C-3.1171875 17.484375 -3.1171875 17.484375 -4 15 C-3.49969753 12.29721652 -2.91958415 9.8607765 -2.125 7.25 C-1.92519531 6.55261719 -1.72539063 5.85523438 -1.51953125 5.13671875 C-1.0258892 3.42072495 -0.51464497 1.7098122 0 0 Z " fill="#C2C5DC" transform="translate(659,385)"/>
<path d="M0 0 C4.14298667 0.59834725 7.18194377 2.00664285 10.8125 4.0625 C11.78832031 4.61035156 12.76414062 5.15820312 13.76953125 5.72265625 C14.50558594 6.14417969 15.24164062 6.56570312 16 7 C15.01 7.66 14.02 8.32 13 9 C8.71 6.69 4.42 4.38 0 2 C0 1.34 0 0.68 0 0 Z " fill="#D7D9E7" transform="translate(531,87)"/>
<path d="M0 0 C0.74507813 0.05671875 1.49015625 0.1134375 2.2578125 0.171875 C4.08935108 0.31276258 5.91981352 0.46751884 7.75 0.625 C3.87328894 3.29789025 -0.04267603 2.64375653 -4.5 2.25 C-5.24507813 2.19328125 -5.99015625 2.1365625 -6.7578125 2.078125 C-8.58935108 1.93723742 -10.41981352 1.78248116 -12.25 1.625 C-8.37328894 -1.04789025 -4.45732397 -0.39375653 0 0 Z " fill="#CFD1E3" transform="translate(386.25,574.375)"/>
<path d="M0 0 C-2.59121224 2.59121224 -4.41493567 2.64674398 -8 3.25 C-9.0725 3.44078125 -10.145 3.6315625 -11.25 3.828125 C-12.61125 3.91320312 -12.61125 3.91320312 -14 4 C-14.66 3.34 -15.32 2.68 -16 2 C-5.62642369 -1.62870159 -5.62642369 -1.62870159 0 0 Z " fill="#C0C3DB" transform="translate(349,65)"/>
<path d="M0 0 C-3.85930302 2.57286868 -7.46409083 4.01034709 -12 5 C-14.21484375 4.546875 -14.21484375 4.546875 -16 4 C-14.41800369 3.35089846 -12.83434276 2.70585306 -11.25 2.0625 C-10.36828125 1.70285156 -9.4865625 1.34320312 -8.578125 0.97265625 C-2.58031088 -1.29015544 -2.58031088 -1.29015544 0 0 Z " fill="#DFE1EC" transform="translate(501,561)"/>
<path d="M0 0 C4.04190048 3.62377284 6.82568758 7.32720955 7.1875 12.875 C7.125625 13.57625 7.06375 14.2775 7 15 C3.49221789 10.79066147 0 5.5744558 0 0 Z " fill="#E1E2ED" transform="translate(637,190)"/>
<path d="M0 0 C5.70629354 0.42797202 9.41078616 2.84345952 14 6 C13.01 6.66 12.02 7.32 11 8 C9.16399255 6.85845641 7.33125195 5.71165684 5.5 4.5625 C4.4790625 3.92441406 3.458125 3.28632812 2.40625 2.62890625 C1.6121875 2.09136719 0.818125 1.55382812 0 1 C0 0.67 0 0.34 0 0 Z " fill="#D7D8E7" transform="translate(264,533)"/>
<path d="M0 0 C5.27315333 0.4452885 10.01770224 1.08373163 15 3 C12 5 12 5 9.58984375 4.609375 C8.71457031 4.32578125 7.83929688 4.0421875 6.9375 3.75 C6.05964844 3.47671875 5.18179687 3.2034375 4.27734375 2.921875 C2 2 2 2 0 0 Z " fill="#CFD1E3" transform="translate(488,69)"/>
<path d="M0 0 C0 0.33 0 0.66 0 1 C-2.04079005 1.1968121 -4.08270007 1.38202831 -6.125 1.5625 C-7.83042969 1.71912109 -7.83042969 1.71912109 -9.5703125 1.87890625 C-12.88897993 1.99608016 -15.7562686 1.6655072 -19 1 C-19 0.67 -19 0.34 -19 0 C-12.41816638 -0.8931507 -6.57849492 -0.95494281 0 0 Z " fill="#B9BCD7" transform="translate(377,60)"/>
<path d="M0 0 C2.36762941 2.36762941 2.58455766 3.70059833 3.25 6.9375 C3.44078125 7.81277344 3.6315625 8.68804687 3.828125 9.58984375 C4 12 4 12 2 15 C-1.5625 3.125 -1.5625 3.125 0 0 Z " fill="#CDCFE2" transform="translate(658,237)"/>
<path d="M0 0 C-0.66 0.66 -1.32 1.32 -2 2 C-4.91952568 1.98251781 -7.72297885 1.86055367 -10.625 1.625 C-11.42679687 1.56828125 -12.22859375 1.5115625 -13.0546875 1.453125 C-15.03715498 1.31152018 -17.01869051 1.15697741 -19 1 C-19 0.67 -19 0.34 -19 0 C-12.42150508 -0.95494281 -6.58183362 -0.8931507 0 0 Z " fill="#C4C6DC" transform="translate(453,59)"/>
<path d="M0 0 C-0.33 0.99 -0.66 1.98 -1 3 C-6.28 2.67 -11.56 2.34 -17 2 C-17 1.67 -17 1.34 -17 1 C-11.30494264 0.3583034 -5.73266804 -0.12462322 0 0 Z " fill="#BBBDD7" transform="translate(439,574)"/>
<path d="M0 0 C-1 3 -1 3 -2.9609375 4.01953125 C-3.75757813 4.28121094 -4.55421875 4.54289063 -5.375 4.8125 C-6.16648437 5.08707031 -6.95796875 5.36164062 -7.7734375 5.64453125 C-10 6 -10 6 -13 4 C-11.72942818 3.52014033 -10.45853152 3.0411407 -9.1875 2.5625 C-8.47980469 2.29566406 -7.77210938 2.02882813 -7.04296875 1.75390625 C-2.29015544 0 -2.29015544 0 0 0 Z " fill="#C7CADF" transform="translate(510,556)"/>
<path d="M0 0 C0.99 0.33 1.98 0.66 3 1 C0.36 3.64 -2.28 6.28 -5 9 C-5.66 8.34 -6.32 7.68 -7 7 C-4.69 4.69 -2.38 2.38 0 0 Z " fill="#E4E5EF" transform="translate(588,504)"/>
<path d="M0 0 C2.12038635 2.61514317 4.13091744 5.19637616 6 8 C5.625 10.1875 5.625 10.1875 5 12 C4.15556432 10.75747321 3.3248542 9.5056114 2.5 8.25 C1.80390625 7.20585937 1.80390625 7.20585937 1.09375 6.140625 C0 4 0 4 0 0 Z " fill="#D7D9E8" transform="translate(625,169)"/>
<path d="M0 0 C0.99 0.33 1.98 0.66 3 1 C0.42215154 3.64752004 -1.91648098 5.94432065 -5 8 C-5.66 7.34 -6.32 6.68 -7 6 C-5.90716423 4.96704564 -4.80029421 3.94892165 -3.6875 2.9375 C-3.07261719 2.36902344 -2.45773438 1.80054687 -1.82421875 1.21484375 C-0.92123047 0.61349609 -0.92123047 0.61349609 0 0 Z " fill="#D1D3E4" transform="translate(246,113)"/>
<path d="M0 0 C1 3 1 3 0.00390625 5.48046875 C-0.47175781 6.37378906 -0.94742188 7.26710938 -1.4375 8.1875 C-1.91058594 9.08855469 -2.38367188 9.98960937 -2.87109375 10.91796875 C-3.24363281 11.60503906 -3.61617187 12.29210937 -4 13 C-5.0169313 10.34501768 -5.13022151 9.30844625 -4.00390625 6.640625 C-3.52824219 5.85171875 -3.05257812 5.0628125 -2.5625 4.25 C-2.08941406 3.45078125 -1.61632812 2.6515625 -1.12890625 1.828125 C-0.75636719 1.22484375 -0.38382813 0.6215625 0 0 Z " fill="#EBECF3" transform="translate(645,426)"/>
<path d="M0 0 C0.33 0 0.66 0 1 0 C0.25531915 7.74468085 0.25531915 7.74468085 -3 11 C-3.66 11 -4.32 11 -5 11 C-3.55049545 7.2089881 -1.84827434 3.6125362 0 0 Z " fill="#D0D2E4" transform="translate(181,190)"/>
<path d="M0 0 C0.33 0 0.66 0 1 0 C1.24979445 1.91408757 1.47408014 3.83151611 1.6875 5.75 C1.87892578 7.35101563 1.87892578 7.35101563 2.07421875 8.984375 C2 12 2 12 -1 16 C-0.67 10.72 -0.34 5.44 0 0 Z " fill="#C3C6DC" transform="translate(668,333)"/>
<path d="M0 0 C0.33 0.99 0.66 1.98 1 3 C-1.97 5.475 -1.97 5.475 -5 8 C-5.66 7.34 -6.32 6.68 -7 6 C-4.69 4.02 -2.38 2.04 0 0 Z " fill="#D0D2E4" transform="translate(596,497)"/>
<path d="M0 0 C0.66 0 1.32 0 2 0 C2.99 2.97 3.98 5.94 5 9 C2 8 2 8 0 5 C-0.125 2.3125 -0.125 2.3125 0 0 Z " fill="#CACCE1" transform="translate(167,410)"/>
<path d="M0 0 C1.99097846 2.98646769 2.94124926 5.59687262 4 9 C3.01 9.33 2.02 9.66 1 10 C0.63883954 8.5225254 0.28624952 7.04295325 -0.0625 5.5625 C-0.25972656 4.73878906 -0.45695313 3.91507813 -0.66015625 3.06640625 C-0.82837891 2.04353516 -0.82837891 2.04353516 -1 1 C-0.67 0.67 -0.34 0.34 0 0 Z " fill="#C7C9DE" transform="translate(649,212)"/>
<path d="M0 0 C0.99 0.33 1.98 0.66 3 1 C0.69 3.31 -1.62 5.62 -4 8 C-4.33 7.01 -4.66 6.02 -5 5 C-3.35 3.35 -1.7 1.7 0 0 Z " fill="#E4E5EF" transform="translate(227,130)"/>
<path d="M0 0 C0.79921875 0.00902344 1.5984375 0.01804687 2.421875 0.02734375 C3.02515625 0.03894531 3.6284375 0.05054688 4.25 0.0625 C0.99874983 2.23000011 -0.89533632 2.74783358 -4.75 3.0625 C-7.125 2.125 -7.125 2.125 -8.75 1.0625 C-5.75519083 0.1901588 -3.11424089 -0.04579766 0 0 Z " fill="#D5D7E6" transform="translate(464.75,569.9375)"/>
<path d="M0 0 C3.4375 0.8125 3.4375 0.8125 7 2 C7.33 2.99 7.66 3.98 8 5 C4.7 4.01 1.4 3.02 -2 2 C-1.34 1.34 -0.68 0.68 0 0 Z " fill="#CFD1E3" transform="translate(315,558)"/>
<path d="M0 0 C3.94727588 -0.17942163 6.5980513 -0.09350689 10 2 C9.67 2.99 9.34 3.98 9 5 C4.545 3.02 4.545 3.02 0 1 C0 0.67 0 0.34 0 0 Z " fill="#D9DAE8" transform="translate(295,551)"/>
<path d="M0 0 C3.93673644 1.31224548 6.22719294 2.91910327 9 6 C5.21213403 5.4739075 2.82847776 4.61896089 0 2 C0 1.34 0 0.68 0 0 Z " fill="#E6E6F0" transform="translate(257,527)"/>
<path d="M0 0 C0.33 0.99 0.66 1.98 1 3 C0.00390625 4.82421875 0.00390625 4.82421875 -1.4375 6.6875 C-1.91058594 7.31011719 -2.38367188 7.93273437 -2.87109375 8.57421875 C-3.24363281 9.04472656 -3.61617187 9.51523438 -4 10 C-4.33 9.01 -4.66 8.02 -5 7 C-4.00390625 5.17578125 -4.00390625 5.17578125 -2.5625 3.3125 C-2.08941406 2.68988281 -1.61632812 2.06726563 -1.12890625 1.42578125 C-0.75636719 0.95527344 -0.38382813 0.48476562 0 0 Z " fill="#EBECF3" transform="translate(193,172)"/>
<path d="M0 0 C3.78611227 0.54087318 5.55400767 2.11722332 8 5 C8 5.66 8 6.32 8 7 C4.2047869 5.50902342 2.38957269 3.24299151 0 0 Z " fill="#E7E7F0" transform="translate(579,120)"/>
<path d="M0 0 C2.11180592 2.57089417 3.66306057 4.63060567 4 8 C3.34 8.66 2.68 9.32 2 10 C-0.09350689 6.5980513 -0.17942163 3.94727588 0 0 Z " fill="#C2C5DC" transform="translate(176,428)"/>
<path d="M0 0 C-1 2 -1 2 -3.875 3.25 C-4.90625 3.4975 -5.9375 3.745 -7 4 C-7.99 3.34 -8.98 2.68 -10 2 C-8.71211992 1.46987262 -7.41953322 0.9511671 -6.125 0.4375 C-5.40570313 0.14746094 -4.68640625 -0.14257812 -3.9453125 -0.44140625 C-2 -1 -2 -1 0 0 Z " fill="#CACDE0" transform="translate(325,71)"/>
<path d="M0 0 C-4.625 3 -4.625 3 -8 3 C-8 2.34 -8 1.68 -8 1 C-4.93251126 -0.86240388 -3.40254489 -1.2151946 0 0 Z " fill="#E0E1EC" transform="translate(527,550)"/>
</svg>
