<?xml version="1.0" encoding="iso-8859-1"?>
<!-- Generator: Adobe Illustrator 21.0.0, SVG Export Plug-In . SVG Version: 6.00 Build 0)  -->
<svg version="1.1" id="Capa_1" xmlns="http://www.w3.org/2000/svg" xmlns:xlink="http://www.w3.org/1999/xlink" x="0px" y="0px"
	 viewBox="0 0 234.25 61.29" style="enable-background:new 0 0 234.25 61.29;" xml:space="preserve">
<g>
	<path style="fill-rule:evenodd;clip-rule:evenodd;fill:#038E4F;" d="M130.51,46.2c-0.76,0.72-1.78,1.15-2.88,1.15h-16.02
		c-2.3,0-4.18-1.87-4.18-4.18c0-2.3,1.87-4.18,4.18-4.18h0.56c0.01-0.2,0.01-0.39,0.02-0.58c0.05-1.11,0.07-2.22,0.09-3.33
		c0.05-3.12,0.07-6.24,0.08-9.36c0.01-4.77-0.01-9.54-0.02-14.31c-0.41-0.12-0.83-0.22-1.24-0.36c-1.82-0.64-3.38-2.17-3.22-4.23
		c0.2-2.61,2.32-3.63,4.63-3.91c0.63-0.08,1.27-0.09,1.89-0.2c1.03-0.18,2.04-0.38,3.02-0.76c1.57-0.6,3.14-1.19,4.74-1.7
		c3.11-1,5.55,0.9,5.98,4.02c0.18,1.29,0.01,2.44,0.01,3.71l-0.01,7.37c0.74-0.67,1.72-1.07,2.78-1.07c0.34,0,0.68,0,1.01,0h11.38
		c2.09,0,3.86,1.57,4.11,3.64c0.02,0.17,0.03,0.33,0.03,0.5c0,2.29-1.86,4.15-4.15,4.15c-0.34,0-1.11-0.01-1.48,0.13l-4.57,3.71
		c0.01,0.01,0.02,0.02,0.02,0.03c1.04,1.45,2.1,2.9,3.16,4.34c1.09,1.49,2.19,2.98,3.29,4.46c0.66,0.88,1.3,1.77,2,2.61
		c0.51,0.61,1.01,1.3,1.59,1.83c0.16,0.15,0.56,0.36,0.76,0.47c1.4,0.76,2.47,1.99,2.38,3.67c-0.11,2-1.62,3.27-3.55,3.46
		c-0.1,0.01-0.2,0.01-0.3,0.01h-13.13c-0.03,0-0.06,0-0.09,0C132.3,47.28,131.27,46.9,130.51,46.2L130.51,46.2z M128.13,21.51
		l0,0.11l0.07-0.06C128.17,21.55,128.15,21.53,128.13,21.51L128.13,21.51z M31.87,22.03c-0.01-1.83-0.03-3.65-0.03-5.48
		c0-0.58,0.1-1.9,0.07-2.82h-0.89c-0.06,0-0.12,0-0.18,0h-0.61c-2.28,0-4.13-1.85-4.13-4.13c0-2.28,1.85-4.13,4.13-4.13H41.4
		c2.12,0,3.9,1.62,4.11,3.72c0.05,0.4,0.02,0.83-0.06,1.23c-0.11,0.56-0.34,1.09-0.66,1.54c-0.76,1.11-2.03,1.78-3.39,1.78h-0.42
		c-0.07,0-0.14,0.01-0.21,0.01c-0.01,0.59,0.01,1.18,0.02,1.76c0.02,1.2,0.07,2.41,0.08,3.61c0.01,4.68,0.04,9.35-0.05,14.02
		l0.01,10.38c0,0.9-0.04,1.71-0.36,2.57c-0.56,1.5-1.78,2.48-3.33,2.83c-3.33,0.76-5.62-1.31-7.45-3.79
		c-1.32-1.79-2.67-3.55-4.02-5.31c-2.27-2.97-4.54-5.93-6.83-8.89c-1.67-2.16-3.34-4.32-5.03-6.46l0.01,9.36
		c0,1.53,0.01,3.07-0.01,4.6c0,0.25-0.03,0.54-0.05,0.84h0.54c0.88-0.03,1.62-0.03,2.48,0.26c1.6,0.55,2.62,2.08,2.67,3.75
		c0.07,2.35-1.8,4.21-4.13,4.21H4.67c-0.18,0.01-0.37,0.01-0.55,0H4.11C1.84,47.48,0,45.63,0,43.36c0-0.02,0-0.04,0-0.07
		c0.05-2.34,1.76-4.04,4.11-4.04h0.67c0,0,0,0,0,0c0.04-0.79,0.01-1.63,0-2.36c-0.02-1.41-0.1-2.81-0.1-4.22l0-18.26
		c0-0.22,0.02-0.47,0.03-0.73c-0.09,0-0.18-0.01-0.27-0.01H4.25c-2.28,0-4.14-1.86-4.14-4.14c0-0.49,0.09-0.98,0.26-1.44
		C0.46,7.84,0.58,7.6,0.72,7.37C1.48,6.15,2.81,5.4,4.25,5.4c3.81,0,7.62,0,11.44-0.02c0.09,0,0.19,0,0.28,0.01
		c2.33,0.2,3.57,1.32,4.94,3.09c0.97,1.26,1.98,2.49,2.97,3.72c1.73,2.15,3.46,4.29,5.2,6.42C30.01,19.76,30.94,20.89,31.87,22.03
		L31.87,22.03z M172.85,14.62c0.77-0.84,1.89-1.35,3.14-1.35h12.16c5.09,0,5.87,7.4,0.89,8.45c-0.03,0.01-0.06,0.01-0.08,0.02
		c-0.74,0.14-1.71,0.13-2.33,0.6c-0.43,0.35-1.26,2.16-1.53,2.74c-3.86,8.26-8.06,16.38-11.39,24.87c-0.79,2.03-1.33,4.14-2.31,6.09
		c-1.15,2.28-2.75,3.96-5.25,4.73c-2.98,0.93-6.81,0.67-9.14-1.61c-2.67-2.61-2.5-7.11,0.18-9.66c1.41-1.35,3.11-1.8,5.02-1.84
		c0.82-0.02,1.92,0.11,2.7-0.05c0.24-0.05,0.7-0.23,0.64-0.54c-0.09-0.5-0.5-1.36-0.72-1.84c-0.38-0.86-0.79-1.7-1.19-2.55
		c-3-6.48-6.1-12.93-9.74-19.08c-0.35-0.59-0.68-1.2-1.06-1.78c-0.07,0-0.13,0-0.19,0c-2.35,0-4.29-1.91-4.29-4.25
		c-0.01-0.37,0.04-0.77,0.14-1.13c0.48-1.88,2.2-3.21,4.15-3.21h17.04C170.92,13.24,172.06,13.77,172.85,14.62L172.85,14.62z
		 M173.83,28.22c0.2-0.44,0.41-0.88,0.61-1.33c0.76-1.68,1.5-3.37,2.2-5.08H176c-1.26,0-2.38-0.52-3.15-1.36
		c-0.55,0.59-1.26,1.03-2.06,1.24c0.75,1.62,1.47,3.25,2.23,4.85C173.28,27.11,173.55,27.67,173.83,28.22L173.83,28.22z
		 M58.69,14.06c9.36-0.98,19.3,4.67,20.88,14.43c1.63,10.1-7.25,17.89-16.66,18.85c-9.39,0.96-19.29-4.54-20.99-14.31
		C40.13,22.77,49.22,15.05,58.69,14.06L58.69,14.06z M230.28,26.06c3.43,2.7,4.86,7.11,3.41,11.51c-0.92,2.81-2.87,5.11-5.33,6.71
		c-3,1.95-6.59,2.76-10.14,2.85c-3.8,0.09-8.79-0.3-11.76-2.94c-1.41-1.25-1.84-3.04-1.86-4.86c-0.01-0.98,0.13-1.94,0.12-2.91
		c-0.01-1.31,0.29-2.52,1.33-3.4c0.69-0.58,1.31-0.75,2.13-0.83c-0.28-0.25-0.55-0.52-0.81-0.8c-3.2-3.54-3.22-9.02-0.43-12.8
		c4.75-6.44,14.46-6.27,21.37-4.11c2.05,0.64,3.34,1.84,3.72,4.01c0.18,1,0.21,2.06,0.21,3.06
		C232.28,23.27,231.59,25.04,230.28,26.06L230.28,26.06z M213.28,35.09c0.51,0.95,1.07,2.1,1.74,2.85c0.57,0.63,1.26,0.81,2.08,0.91
		c1.05,0.13,2.46,0.07,3.46-0.29c0.12-0.04,0.54-0.2,0.61-0.31c0-0.01,0-0.01,0-0.02c-0.29-0.39-1.62-0.97-2.03-1.13
		c-0.91-0.37-1.83-0.64-2.76-0.94C215.37,35.83,214.32,35.49,213.28,35.09L213.28,35.09z M195.8,18.03
		c-1.78-0.69-3.14-2.02-3.67-4.11c-1.09-4.28,2.02-7.87,6.29-8.1c2.51-0.13,5.06,0.96,6.63,2.93c2.58,3.24,2.27,7.2,0.25,10.63
		c-1.37,2.33-3.88,4.89-6.42,5.91c-0.78,0.31-1.63,0.49-2.48,0.41c-1.53-0.14-2.82-1.13-3.23-2.63c-0.57-2.1,0.45-3.38,2.03-4.57
		C195.39,18.34,195.6,18.19,195.8,18.03L195.8,18.03z M83.76,27.43c-0.06,0-0.12,0-0.19,0c-2.39-0.03-4.46-2.2-4.23-4.6
		c0.18-1.87,1.5-3.16,3.22-3.75c0.64-0.22,1.27-0.29,1.94-0.37c1.52-0.19,2.67-0.61,3.82-1.63c1.43-1.28,2.29-2.47,4.24-3.07
		c2.07-0.63,4.07,0.02,5.09,1.78c1-0.67,2.07-1.2,3.29-1.47c4.83-1.09,9.82,2.06,10.1,7.18c0.3,5.48-5.15,9.28-10.25,7.55
		c-1.03-0.35-1.85-1-2.63-1.72c-0.02,0.23-0.03,0.44-0.04,0.57c-0.11,1.43-0.14,2.86-0.15,4.29c-0.01,1.52,0.02,3.05,0.07,4.57
		c0.03,0.8,0.06,1.6,0.12,2.4c0.02,0,0.03,0,0.05,0h0.62c2.26,0,4.11,1.84,4.11,4.11c0,2.26-1.84,4.11-4.11,4.11H83.04
		c-2.2,0-4-1.68-4.11-3.88c-0.12-2.37,1.77-4.19,4.11-4.19l0.59,0c0.03-0.4,0.04-0.82,0.06-1.18c0.07-1.39,0.09-2.78,0.1-4.17
		C83.81,31.77,83.79,29.6,83.76,27.43L83.76,27.43z M64.37,32.21c0.24-2.35-0.03-4.84-1.05-7c-0.55-1.18-1.56-2.64-2.79-3.18
		c-0.6-0.26-1.02-0.21-1.49,0.26c-1.35,1.32-1.86,4.41-2.03,6.22c-0.22,2.43,0.04,5.04,1.07,7.27c0.52,1.13,1.49,2.6,2.69,3.09
		c0.61,0.25,1.02,0.12,1.48-0.34C63.63,37.15,64.18,34.08,64.37,32.21L64.37,32.21z M223.39,23.13c-0.72-1.28-1.77-2.1-3.54-1.83
		c-0.17,0.02-0.51,0.12-0.83,0.24c0.99,0.54,2.24,0.92,3.29,1.26C222.67,22.9,223.03,23.02,223.39,23.13L223.39,23.13z"/>
	<path style="fill-rule:evenodd;clip-rule:evenodd;fill:#F7F41B;" d="M130.51,44.15c-0.41,1.2-1.54,2.07-2.88,2.07h-16.02
		c-1.67,0-3.04-1.36-3.04-3.04c0-1.67,1.36-3.04,3.04-3.04h1.59c0.01-0.04,0.01-0.07,0.02-0.09c0.08-0.46,0.09-1.11,0.11-1.58
		c0.05-1.12,0.07-2.24,0.09-3.35c0.05-3.13,0.07-6.26,0.08-9.38c0.01-4.96-0.01-9.92-0.02-14.88c0-0.05,0-0.13,0-0.2
		c-0.16-0.08-0.35-0.16-0.5-0.23c-0.49-0.16-1-0.27-1.5-0.44c-1.32-0.47-2.58-1.53-2.46-3.07c0.15-2.03,1.91-2.65,3.63-2.86
		c0.63-0.08,1.34-0.11,1.96-0.21c1.13-0.2,2.15-0.41,3.22-0.81c1.57-0.6,3.08-1.16,4.69-1.68c2.46-0.79,4.17,0.7,4.5,3.09
		c0.17,1.25,0,2.33,0,3.56l-0.02,16.16l3.18-2.8c-1.1-0.28-1.97-1.17-2.2-2.32c-0.08-0.37-0.08-0.74-0.01-1.11
		c0.25-1.43,1.5-2.48,2.96-2.48c0.34,0,0.68,0,1.01,0h11.39c1.52,0,2.8,1.14,2.98,2.64c0.02,0.12,0.02,0.24,0.02,0.36
		c0,1.66-1.35,3.01-3,3.01c-0.62,0-1.51-0.01-2.09,0.29l-5.53,4.48c0.23,0.31,0.45,0.61,0.66,0.9c1.05,1.46,2.1,2.9,3.16,4.35
		c1.09,1.49,2.19,2.98,3.3,4.47c0.66,0.88,1.33,1.81,2.03,2.66c0.52,0.62,1.1,1.39,1.69,1.94c0.23,0.21,0.71,0.49,0.99,0.64
		c1,0.54,1.85,1.37,1.79,2.61c-0.08,1.44-1.17,2.25-2.52,2.38c-0.07,0.01-0.12,0.01-0.19,0.01h-13.13c-0.02,0-0.04,0-0.06,0
		C132.06,46.14,130.88,45.38,130.51,44.15L130.51,44.15z M127.15,40.14h0.49c1.34,0,2.49,0.88,2.89,2.09
		c0.06-0.2,0.14-0.4,0.23-0.59c-0.43-0.77-0.93-1.54-1.42-2.27c-0.7-1.04-1.43-2.07-2.17-3.08c-0.05-0.06-0.09-0.13-0.14-0.19
		l0.02,2.93C127.05,39.28,127.07,39.91,127.15,40.14L127.15,40.14z M33.02,25.21c0-2.88-0.04-5.77-0.04-8.65
		c0-0.76,0.18-3.11-0.09-3.95c-0.03,0-0.05,0-0.08-0.01h-1.8c-0.06,0-0.12,0-0.17,0h-0.62c-1.65,0-2.99-1.34-2.99-2.99
		c0-1.65,1.34-2.99,2.99-2.99H41.4c1.54,0,2.83,1.17,2.98,2.7l0,0c0.03,0.29,0.02,0.59-0.04,0.89c-0.08,0.4-0.24,0.77-0.47,1.1
		c-0.56,0.81-1.48,1.3-2.46,1.3h-0.45c-0.29,0.02-0.9,0.04-1.27,0.09c-0.09,0.91-0.05,1.95-0.03,2.84c0.02,1.2,0.07,2.4,0.08,3.59
		c0.01,4.68,0.04,9.35-0.05,14l0.01,10.39c0,0.75-0.02,1.45-0.28,2.16c-0.43,1.14-1.34,1.85-2.51,2.12
		c-2.86,0.65-4.75-1.29-6.28-3.36c-1.32-1.79-2.68-3.56-4.03-5.33c-2.27-2.97-4.55-5.94-6.83-8.9c-2.23-2.89-4.47-5.77-6.74-8.63
		c-0.11-0.14-0.23-0.28-0.34-0.43l0.01,12.65c0,1.53,0.01,3.06-0.01,4.59c0,0.32-0.11,1.61-0.04,1.95c0.05,0.02,0.12,0.03,0.19,0.04
		h1.5c0.73-0.03,1.36-0.05,2.08,0.2c1.15,0.4,1.87,1.51,1.9,2.71c0.05,1.71-1.3,3.03-2.99,3.03H4.65c-0.17,0.01-0.34,0.01-0.51,0
		H4.11c-1.64,0-2.97-1.33-2.97-2.97c0-0.02,0-0.03,0-0.04c0.04-1.72,1.24-2.93,2.97-2.93h0.72c0.24-0.02,0.72-0.06,1.01-0.14
		c0.13-0.94,0.09-2.65,0.08-3.37c-0.02-1.4-0.1-2.81-0.1-4.21l0-18.26c0-0.29,0.07-1.35,0.02-1.79c-0.36-0.06-0.98-0.06-1.36-0.08
		H4.25c-1.65,0-3-1.35-3-3c0-0.36,0.06-0.71,0.19-1.05C1.5,8.31,1.59,8.13,1.69,7.97C2.24,7.08,3.2,6.54,4.25,6.54
		c3.81,0,7.63,0,11.44-0.02c0.06,0,0.12,0,0.18,0.01c2,0.17,2.98,1.16,4.13,2.65c0.97,1.26,1.99,2.5,2.98,3.74
		c1.73,2.15,3.46,4.29,5.2,6.43C29.79,21.3,31.4,23.26,33.02,25.21L33.02,25.21z M172.85,17.53
		C172.85,17.53,172.85,17.53,172.85,17.53c0,1.75-1.42,3.16-3.15,3.16c-0.14,0-0.39,0.02-0.62,0.06c1,2.07,1.92,4.2,2.91,6.28
		c0.6,1.26,1.21,2.52,1.87,3.75c0.57-1.12,1.1-2.27,1.61-3.42c0.88-1.96,1.74-3.94,2.55-5.92c0.05-0.12,0.15-0.41,0.16-0.58
		c-0.18-0.11-0.56-0.17-0.77-0.18h-1.42c-1.78,0-3.13-1.38-3.13-3.13c0-1.76,1.35-3.13,3.13-3.13h12.16c3.74,0,4.31,5.42,0.65,6.2
		c-0.02,0-0.03,0.01-0.05,0.01c-1.02,0.19-1.92,0.15-2.81,0.81c-0.65,0.49-1.54,2.46-1.88,3.17c-3.86,8.27-8.09,16.44-11.42,24.94
		c-1.51,3.87-2.26,8.73-6.84,10.15c-2.57,0.8-5.98,0.64-8-1.33c-2.21-2.16-2.05-5.92,0.16-8.02c1.2-1.15,2.64-1.49,4.25-1.53
		c0.89-0.02,2.04,0.1,2.9-0.08c0.89-0.18,1.71-0.87,1.54-1.85c-0.1-0.58-0.55-1.56-0.8-2.11c-0.38-0.86-0.8-1.71-1.19-2.57
		c-3.02-6.52-6.13-12.98-9.79-19.18c-0.41-0.69-0.8-1.42-1.27-2.08c-0.03-0.04-0.13-0.18-0.19-0.2c-0.18-0.07-0.6-0.06-0.79-0.06
		c-1.73,0-3.15-1.41-3.15-3.12c-0.01-0.27,0.03-0.56,0.1-0.82c0.35-1.37,1.61-2.36,3.05-2.36h17.04c1.55,0,2.87,1.13,3.11,2.64
		C172.83,17.17,172.85,17.35,172.85,17.53L172.85,17.53z M58.81,15.19c8.75-0.92,18.15,4.32,19.63,13.48
		c1.53,9.45-6.9,16.64-15.65,17.53c-8.79,0.89-18.15-4.18-19.75-13.37C41.37,23.23,50.01,16.12,58.81,15.19L58.81,15.19z
		 M65.5,32.33c0.26-2.56-0.05-5.26-1.15-7.6c-0.68-1.45-1.85-3.08-3.37-3.74c-1.03-0.45-1.93-0.3-2.74,0.49
		c-1.6,1.56-2.17,4.82-2.37,6.93c-0.24,2.63,0.05,5.43,1.17,7.85c0.65,1.41,1.8,3.05,3.29,3.67c1.04,0.43,1.93,0.2,2.72-0.59
		C64.67,37.73,65.28,34.49,65.5,32.33L65.5,32.33z M231.1,21.55c0.04,1.95-1.05,4.11-3.22,4.23c-0.06,0-0.12,0.01-0.19,0.01
		c4.31,2.09,6.47,6.68,4.91,11.43c-0.84,2.56-2.62,4.65-4.87,6.1c-2.82,1.83-6.21,2.59-9.54,2.67c-3.47,0.09-8.27-0.25-10.97-2.65
		c-1.16-1.03-1.46-2.55-1.48-4.02c-0.01-0.98,0.13-1.95,0.12-2.9c-0.01-0.95,0.16-1.87,0.92-2.52c0.56-0.47,1.04-0.53,1.73-0.58
		c1.59-0.12,2.75,0.53,3.55,1.94c0.6,1.08,1.29,2.55,2.11,3.46c0.76,0.85,1.68,1.14,2.79,1.28c1.23,0.15,2.81,0.08,3.99-0.34
		c0.78-0.28,1.42-0.64,1.37-1.55c-0.08-1.43-4.51-2.67-5.58-3.01c-2.97-0.96-6.37-2.09-8.52-4.46c-2.84-3.14-2.82-8.01-0.35-11.36
		c4.43-6,13.7-5.71,20.11-3.7c1.65,0.52,2.63,1.38,2.94,3.12C231.07,19.57,231.1,20.63,231.1,21.55L231.1,21.55z M225.56,24.98
		c-0.18-0.2-0.32-0.43-0.43-0.72c-0.01-0.02-0.01-0.03-0.02-0.05c-0.93-2.62-2.48-4.48-5.43-4.05c-0.72,0.11-1.92,0.53-2.27,1.25
		c-0.19,0.39,0.54,0.82,0.78,0.96c1.07,0.64,2.58,1.12,3.77,1.5C223.15,24.26,224.37,24.6,225.56,24.98L225.56,24.98z M198.15,17.43
		c-2.26-0.25-4.28-1.29-4.92-3.79c-0.92-3.62,1.68-6.49,5.24-6.68c2.15-0.11,4.33,0.81,5.68,2.5c2.28,2.87,1.93,6.33,0.16,9.34
		c-1.24,2.11-3.56,4.51-5.86,5.42c-0.61,0.24-1.29,0.39-1.95,0.33c-1.06-0.1-1.96-0.75-2.24-1.8c-0.44-1.62,0.45-2.48,1.62-3.36
		c0.64-0.49,1.43-1.09,1.98-1.67C197.94,17.66,198.04,17.55,198.15,17.43L198.15,17.43z M84.65,40.25c0.12-0.59,0.15-1.58,0.18-2.1
		c0.07-1.4,0.09-2.81,0.1-4.21c0.02-2.36,0-4.72-0.04-7.08c0-0.02,0-0.03,0-0.05c0-0.12-0.02-0.39-0.08-0.52
		c-0.39-0.02-0.81,0-1.22,0c-1.73-0.02-3.28-1.59-3.1-3.35c0.14-1.42,1.17-2.34,2.46-2.78c0.56-0.19,1.14-0.24,1.71-0.32
		c1.76-0.22,3.11-0.73,4.44-1.91c1.25-1.11,2.12-2.31,3.82-2.83c1.82-0.56,3.51,0.14,4.09,2c0.05,0.17,0.09,0.34,0.13,0.51
		c1.2-0.99,2.5-1.83,4.08-2.19c4.15-0.93,8.47,1.69,8.71,6.13c0.26,4.69-4.39,7.88-8.74,6.41c-1.06-0.36-1.9-1.16-2.69-1.91
		c-0.18-0.18-0.63-0.63-0.98-0.89c-0.07,0.13-0.14,0.27-0.17,0.35c-0.2,0.49-0.3,1.77-0.34,2.31c-0.11,1.45-0.14,2.92-0.15,4.37
		c-0.01,1.54,0.02,3.08,0.08,4.62c0.04,1.11,0.09,2.24,0.21,3.34c0,0,0,0.01,0,0.01c0.27,0.08,0.79,0.12,1.06,0.14h0.66
		c1.63,0,2.97,1.33,2.97,2.97c0,1.63-1.33,2.97-2.97,2.97H83.04c-1.59,0-2.89-1.21-2.97-2.8c-0.08-1.71,1.27-2.99,2.97-2.99l1.13,0
		C84.27,40.41,84.51,40.34,84.65,40.25L84.65,40.25z"/>
	<path style="fill-rule:evenodd;clip-rule:evenodd;fill:#038E4F;" d="M127,42.14c-0.22-0.03-0.43-0.08-0.62-0.16
		c-1.23-0.53-1.28-1.65-1.33-2.9L125,30.53c0.65,0.2,6.04,7.42,7.61,10.34c0.11,0.21,0.45,0.62,0.45,0.85
		c0,0.35-0.69,0.53-0.67,1.61c0.01,0.39,0.28,0.83,1.08,0.85h13.13c0.43-0.04,0.7-0.15,0.72-0.51c0.01-0.2-0.2-0.45-0.75-0.74
		c-0.4-0.22-1.04-0.6-1.39-0.93c-0.55-0.51-1.35-1.5-1.87-2.13c-1.43-1.72-10.19-13.71-10.3-14.05l7.07-5.73
		c0.97-0.61,2.11-0.65,3.23-0.65c0.55,0,1.01-0.45,1.01-1.01c0-0.04,0-0.07-0.01-0.11c-0.06-0.5-0.48-0.9-1-0.9h-11.4
		c-0.38,0-0.54,0-1,0c-0.5,0-0.92,0.37-0.99,0.85c-0.03,0.13-0.02,0.24,0,0.33c0.08,0.47,0.5,0.84,0.99,0.84h1.44
		c1.34-0.04,2.01,0.76,1.25,1.54l-7.54,6.63c-1.07,0.91-1.07-0.15-1.07-0.55l0.02-19.09c0-1.6,0.69-5.57-1.89-4.74
		c-5.21,1.67-4.3,1.86-8.17,2.56c-0.33,0.06-1.25,0.13-2.07,0.23c-0.94,0.12-1.82,0.28-1.88,1.03c-0.02,0.26,0.23,0.71,1.14,1.03
		c0.54,0.19,1.16,0.32,1.56,0.46c1.25,0.57,1.77,0.73,1.77,2.28c0.01,2.72,0.15,27.34-0.28,29.58c-0.23,1.18-0.76,1.58-1.38,1.71
		h-2.19c-0.57,0-1.04,0.47-1.04,1.04l0,0c0,0.57,0.47,1.04,1.04,1.04h16.02c0.57,0,1.04-0.47,1.04-1.04l0,0
		c0-0.57-0.47-1.04-1.04-1.04H127L127,42.14z"/>
	<path style="fill-rule:evenodd;clip-rule:evenodd;fill:#038E4F;" d="M30.86,10.6c0.05,0,0.11,0,0.16,0h1.87
		c0.38,0.02,0.73,0.08,0.98,0.19c1.59,0.68,1.12,4.25,1.12,5.77c0,4.57,0.09,9.34-0.02,13.88c-0.73-0.35-14.92-17.96-16.53-20.04
		c-0.79-1.02-1.36-1.76-2.72-1.88C11.89,8.54,8.07,8.53,4.25,8.53c-0.37,0-0.69,0.2-0.86,0.49c-0.03,0.05-0.05,0.1-0.07,0.15
		C3.28,9.29,3.25,9.41,3.25,9.54l0,0c0,0.55,0.45,1,1,1h0.31c0.75,0.09,1.68,0.01,2.29,0.31c1.31,0.64,0.97,2.32,0.98,3.57l0,18.26
		c0.01,1.43,0.37,8.05-0.28,8.83c-0.59,0.7-1.68,0.81-2.63,0.89h-0.8c-0.67,0-0.96,0.37-0.97,0.97v0c0,0.54,0.44,0.97,0.97,0.97H4.2
		c0.13,0.01,0.27,0.01,0.41,0h10.71c0.57,0,1.01-0.4,0.99-0.98c-0.01-0.38-0.21-0.76-0.56-0.88c-0.44-0.15-0.94-0.11-1.39-0.09
		h-1.65c-0.41-0.04-0.8-0.14-1.12-0.33c-1.31-0.8-0.93-2.21-0.92-3.67c0.02-1.52,0.01-3.04,0-4.57l-0.01-18.13
		c0.8,0.34,19.21,24.4,21.55,27.58c0.97,1.32,2.29,3.04,4.22,2.59c1.24-0.28,1.24-1.27,1.24-2.34L37.68,33.1
		c0.1-4.64,0.06-9.33,0.05-13.98c0-1.82-0.2-5.34,0.01-6.97c0.2-1.58,1.87-1.46,3.15-1.56h0.51c0.35,0,0.66-0.18,0.83-0.45
		c0.07-0.09,0.12-0.19,0.14-0.32c0.02-0.11,0.03-0.21,0.02-0.3l0-0.02c-0.05-0.5-0.47-0.9-0.99-0.9H30.23c-0.55,0-1,0.45-1,1
		c0,0.55,0.45,1,1,1H30.86L30.86,10.6z"/>
	<path style="fill-rule:evenodd;clip-rule:evenodd;fill:#038E4F;" d="M176,18.68h1.48c1.6,0.08,3.44,0.97,2.4,3.52
		c-0.64,1.55-4.87,11.69-5.96,12.23c-1.2-0.54-5.87-11.23-6.64-12.83c-0.4-0.83-0.42-1.6,0-2.1c0.5-0.58,1.55-0.81,2.42-0.81
		c0.64,0,1.16-0.52,1.16-1.16l0-0.01c0-0.06,0-0.11-0.01-0.17c-0.09-0.55-0.57-0.98-1.14-0.98h-17.04c-0.54,0-0.99,0.37-1.12,0.87
		c-0.03,0.09-0.04,0.19-0.04,0.29c0,0.63,0.52,1.15,1.16,1.15c1.15,0,1.9,0.12,2.6,1.11c0.47,0.66,0.94,1.5,1.35,2.21
		c3.73,6.32,6.81,12.71,9.88,19.36c0.56,1.22,1.94,3.98,2.15,5.18c0.36,2.07-1.15,3.75-3.11,4.15c-2.12,0.43-4.52-0.49-6.18,1.09
		c-1.4,1.34-1.54,3.78-0.14,5.15c1.46,1.43,4.18,1.42,6.01,0.85c3.5-1.09,4.08-5.15,5.57-8.97c3.25-8.32,7.68-16.94,11.47-25.06
		c1.07-2.29,1.72-3.35,2.49-3.92c1.37-1.03,2.84-1.03,3.65-1.18c1.33-0.28,1.12-2.25-0.23-2.25H176
		C174.48,16.41,174.49,18.68,176,18.68L176,18.68z"/>
	<path style="fill-rule:evenodd;clip-rule:evenodd;fill:#038E4F;" d="M67.49,32.53c-1.69,16.42-14.89,9.65-13.6-4.31
		C55.42,11.71,68.88,19.12,67.49,32.53L67.49,32.53z M59.02,17.17c-7.59,0.8-15.49,6.84-14.01,15.31
		C46.44,40.63,54.85,45,62.6,44.21c7.62-0.78,15.22-6.95,13.88-15.23C75.17,20.88,66.73,16.36,59.02,17.17L59.02,17.17z"/>
	<path style="fill-rule:evenodd;clip-rule:evenodd;fill:#038E4F;" d="M219.39,18.19c3.44-0.51,6.14,1.22,7.6,5.35
		c0.1,0.26,0.49,0.26,0.78,0.24c0.67-0.04,1.37-0.83,1.33-2.21c0-0.77-0.04-1.88-0.16-2.55c-0.15-0.87-0.49-1.22-1.57-1.56
		c-5.49-1.72-14.03-2.26-17.9,2.98c-1.9,2.58-1.97,6.4,0.23,8.84c1.84,2.04,5.1,3.08,7.65,3.9c2.25,0.73,6.8,1.92,6.96,4.8
		c0.22,3.79-4.86,4.32-7.59,3.99c-3.9-0.48-4.72-2.74-6.4-5.75c-0.52-0.92-1.07-0.97-1.65-0.92c-0.49,0.04-0.82-0.09-0.81,1.1
		c0.02,1.56-0.56,4.35,0.69,5.46c2.24,1.99,6.75,2.22,9.6,2.15c14.35-0.35,16.6-13.76,7.65-16.83c-2.43-0.83-6.53-1.82-8.63-3.07
		C213.61,21.96,215.85,18.71,219.39,18.19L219.39,18.19z"/>
	<path style="fill-rule:evenodd;clip-rule:evenodd;fill:#038E4F;" d="M195.17,13.14c0.52,2.04,2.61,2.39,4.43,2.35
		c1.13-0.03,1.47,0.17,1.48,0.73c0.02,0.87-1.2,2.3-1.77,2.9c-0.53,0.55-1.6,1.41-2.22,1.87c-0.79,0.6-1.03,0.75-0.89,1.24
		c0.11,0.39,0.72,0.45,1.52,0.14c2.93-1.17,8.47-7.17,4.88-11.67c-0.98-1.24-2.58-1.83-4.01-1.75
		C196.41,9.06,194.53,10.64,195.17,13.14L195.17,13.14z"/>
	<path style="fill-rule:evenodd;clip-rule:evenodd;fill:#038E4F;" d="M95.36,21.79L95.36,21.79L95.36,21.79z"/>
	<path style="fill-rule:evenodd;clip-rule:evenodd;fill:#038E4F;" d="M83.04,44.21h15.81c0.53,0,0.97-0.44,0.97-0.97
		c0-0.53-0.44-0.97-0.97-0.97h-0.74c-1.39-0.11-2.79-0.24-2.97-1.95c-0.34-3.2-0.56-13.41,0.35-15.61c0.5-1.19,1.2-1.68,1.77-1.74
		c1.5-0.15,3.04,2.56,4.55,3.07c3.03,1.03,6.29-1.14,6.11-4.4c-0.18-3.22-3.32-4.96-6.28-4.29c-2.25,0.51-4.44,2.84-5.57,3.84
		c-0.64,0.57-0.83,0.75-0.85-0.18c-0.01-0.31,0-0.68,0.01-0.96c0.03-1.66,0.18-3.65-1.74-3.07c-2.36,0.72-2.99,4.11-8.59,4.82
		c-0.5,0.06-0.97,0.11-1.31,0.22c-0.81,0.28-1.08,0.69-1.12,1.09c-0.06,0.59,0.56,1.16,1.14,1.16c0.21,0,1.16,0,1.34,0.01
		c1.41,0.1,1.95,1.33,1.94,2.54c0.04,2.11,0.2,12.79-0.41,14.29c-0.35,0.85-1.67,1.31-2.3,1.3h-1.14
		C81.66,42.42,81.83,44.21,83.04,44.21L83.04,44.21z"/>
</g>
</svg>
