<svg id="Capa_1" data-name="Capa 1" xmlns="http://www.w3.org/2000/svg" width="1841.45" height="1591.51" viewBox="0 0 1841.45 1591.51">
  <defs>
    <style>
      .cls-1 {
        fill: #fe141f;
      }

      .cls-2 {
        fill: #fff;
      }
    </style>
  </defs>
  <g>
    <rect class="cls-1" width="1841.45" height="1591.51"/>
    <g>
      <g>
        <path class="cls-2" d="M402.4,903.53q-39.52,0-63.27-24.28t-23.76-65.54q0-51,31.16-83.63t79.71-32.64q39.86,0,62.75,23.85t22.89,65.27q0,51-30.9,84T402.4,903.53Zm4.52-42.47q24.19,0,39.43-20.37t15.23-52.39q0-23.84-11.06-36.29t-30-12.44q-24.54,0-39.69,20.1T365.67,811.1q0,23.85,11.14,36.9T406.92,861.06Z" transform="translate(-43.98 423.47)"/>
        <path class="cls-2" d="M589.81,811.1q0,26.46,12.1,39.43t38.55,13q32.73,0,62.66-17.4L688.5,887.86q-28.2,15.66-62.66,15.67-39.86,0-62.74-24.28t-22.89-64.14q0-48.92,32.46-83.29t79.11-34.38q29.58,0,46.91,13.93T716,749.14q0,27.5-19.06,42.12t-59.78,17.06ZM649,732.78q-17.4,0-32.28,12.44T595,778.73l34.63-2.44q42.83-3.13,42.82-26.11Q672.49,732.78,649,732.78Z" transform="translate(-43.98 423.47)"/>
        <path class="cls-2" d="M835.71,903.53q-42.47,0-68.49-26.2T741.2,809q0-48,32.11-79.8t79.81-31.77A160.16,160.16,0,0,1,901,704.93l2.09,41.77a127,127,0,0,0-42.82-7.48q-30.63,0-49.86,18.71t-19.24,49q0,26.8,15.32,41t41.69,14.18a106.51,106.51,0,0,0,50.21-12.53l-12,42.82A121.37,121.37,0,0,1,835.71,903.53Z" transform="translate(-43.98 423.47)"/>
        <path class="cls-2" d="M1069.78,697.79q25.23,0,39.33,13.93t14.1,37.42q0,4.35-3.13,36.38L1107.2,898.83h-48.74l12.36-113q1.74-15,1.91-19.66,0-12.54-5.57-19.76t-15.83-7.22q-21.76,0-40.3,27.76t-23.58,75.45l-6.09,56.4H932.62l30.63-286.67,50.31-4.53L992.15,749.84Q1021.21,697.79,1069.78,697.79Z" transform="translate(-43.98 423.47)"/>
        <path class="cls-2" d="M1218.38,903.18a178.32,178.32,0,0,1-60.57-10.1l-1.92-41.25q30.28,12.54,58.83,12.36,15,0,23.59-6.18t8.61-17.32q0-8.52-7.66-15.31a87.76,87.76,0,0,0-18.36-12.28q-10.71-5.48-21.58-12.09a58.19,58.19,0,0,1-18.54-18.37q-7.66-11.75-7.66-27.41,0-25.59,20.8-41.69t56.13-16.1a187.21,187.21,0,0,1,45.61,6.1l1.91,38.11q-27.15-6.78-46.47-6.78-31,0-31,17,0,7.85,7.66,14.1a92.87,92.87,0,0,0,18.71,11.58q11,5.31,22.28,12.09a57.38,57.38,0,0,1,18.88,19q7.66,12.18,7.66,28.19,0,30.64-21.32,48.48T1218.38,903.18Z" transform="translate(-43.98 423.47)"/>
        <path class="cls-2" d="M1334.6,898.48l30.29-285.1h48.73l-29.93,285.1Z" transform="translate(-43.98 423.47)"/>
        <path class="cls-2" d="M1487.73,811.1q0,26.46,12.1,39.43t38.55,13q32.73,0,62.66-17.4l-14.62,41.77q-28.2,15.66-62.66,15.67-39.85,0-62.75-24.28t-22.88-64.14q0-48.92,32.46-83.29t79.1-34.38q29.6,0,46.91,13.93t17.32,37.77q0,27.5-19.06,42.12t-59.79,17.06Zm59.18-78.32q-17.42,0-32.29,12.44T1493,778.73l34.64-2.44q42.81-3.13,42.82-26.11Q1570.41,732.78,1546.91,732.78Z" transform="translate(-43.98 423.47)"/>
      </g>
      <path class="cls-2" d="M1559.47,211.8H1611A316.79,316.79,0,0,0,1614,168c0-180.51-146.35-326.86-326.86-326.86-160.63,0-294,115.86-321.56,268.52C936.87-50.19,792-169.61,621.43-158.2,460.79-147.38,331.39-20,318.22,140.42,302.51,333.37,454.39,494.81,644,494.81c160.62,0,294.11-115.85,321.55-268.52C993,379,1126.54,494.81,1287.14,494.81c131.26,0,244.45-77.51,296.37-189.18H1431.78a199.75,199.75,0,0,1-339.53-93.83Zm-914.8,156c-110.12,0-199.38-89.26-199.38-199.37h0c0-110.12,89.26-199.41,199.38-199.41h0c110.06,0,199.27,89.36,199.27,199.41S754.73,367.84,644.67,367.84ZM1104.62,87.38a199.32,199.32,0,0,1,363.77,0Z" transform="translate(-43.98 423.47)"/>
    </g>
  </g>
</svg>
