<?xml version="1.0" encoding="UTF-8"?>
<svg version="1.1" xmlns="http://www.w3.org/2000/svg" width="225" height="225">
<path d="M0 0 C74.25 0 148.5 0 225 0 C225 74.25 225 148.5 225 225 C150.75 225 76.5 225 0 225 C0 150.75 0 76.5 0 0 Z " fill="#FEFEFE" transform="translate(0,0)"/>
<path d="M0 0 C1.65 0 3.3 0 5 0 C5 9.57 5 19.14 5 29 C3.35 28.67 1.7 28.34 0 28 C-2.0745356 27.8509288 -2.0745356 27.8509288 -4 29 C-8.23156979 29.47904564 -10.29982545 29.47185676 -13.875 27.0625 C-16.63400605 23.08628539 -17.31418804 19.80882257 -17 15 C-15.43818681 11.329739 -14.34089404 10.2272627 -11 8 C-4.67741935 7.5483871 -4.67741935 7.5483871 -1 10 C-0.67 6.7 -0.34 3.4 0 0 Z " fill="#106086" transform="translate(203,94)"/>
<path d="M0 0 C5.5 3 5.5 3 7 6 C7.42071592 9.05920574 7.48514117 11.9467746 7 15 C4.81840855 17.75569447 3.12822506 19.43588747 0 21 C-6.81283762 21.68128376 -6.81283762 21.68128376 -9.82421875 19.953125 C-13.09098182 17.2637801 -14.83344695 15.4656668 -15.3125 11.25 C-14.91993628 7.16733731 -13.53100884 5.18183968 -11 2 C-7.29825261 -0.4678316 -4.29506525 -0.68072732 0 0 Z " fill="#065A81" transform="translate(106,102)"/>
<path d="M0 0 C2.0625 1.625 2.0625 1.625 3.0625 3.625 C3.13431821 6.34260108 3.15549506 9.03359388 3.125 11.75 C3.12048828 12.50410156 3.11597656 13.25820312 3.11132812 14.03515625 C3.09953499 15.89847127 3.08159942 17.76174555 3.0625 19.625 C2.11375 19.439375 1.165 19.25375 0.1875 19.0625 C-2.83618793 18.33813368 -2.83618793 18.33813368 -4.9375 19.625 C-11.11172868 20.19668784 -11.11172868 20.19668784 -14.375 17.9375 C-15.9375 15.625 -15.9375 15.625 -16.4375 13.125 C-15.9375 10.625 -15.9375 10.625 -14.5 8.3125 C-10.74516223 5.83980195 -7.30998747 6.28865481 -2.9375 6.625 C-3.2675 5.635 -3.5975 4.645 -3.9375 3.625 C-6.9075 3.625 -9.8775 3.625 -12.9375 3.625 C-13.2675 2.305 -13.5975 0.985 -13.9375 -0.375 C-9.0070572 -2.01848093 -4.67361431 -2.18764925 0 0 Z " fill="#146588" transform="translate(148.9375,103.375)"/>
<path d="M0 0 C0.09796875 0.69867188 0.1959375 1.39734375 0.296875 2.1171875 C0.44640625 3.02726562 0.5959375 3.93734375 0.75 4.875 C0.88921875 5.77992187 1.0284375 6.68484375 1.171875 7.6171875 C1.77579091 10.10162896 1.77579091 10.10162896 3.78515625 11.2578125 C6.8435923 12.28268525 9.90689682 12.85691071 13.07421875 13.4375 C13.70972656 13.623125 14.34523438 13.80875 15 14 C16.39935013 16.79870027 16.25265405 18.90498792 16 22 C15 23.8125 15 23.8125 13 25 C8.10381213 26.20398062 6.18610863 26.62662343 1.6875 24.25 C-4.72816824 18.87874287 -4.72816824 18.87874287 -5.23828125 13.4765625 C-5.44006102 5.72397135 -5.44006102 5.72397135 -3.0625 1.8125 C-1 0 -1 0 0 0 Z " fill="#08B5CA" transform="translate(23,98)"/>
<path d="M0 0 C4.77585774 2.434751 7.60117067 5.20234134 10 10 C10.95331029 15.35567577 9.93143018 19.3773601 7 24 C6.34 24.33 5.68 24.66 5 25 C4.89042969 24.37351562 4.78085937 23.74703125 4.66796875 23.1015625 C4.50941406 22.28429687 4.35085937 21.46703125 4.1875 20.625 C4.03667969 19.81289062 3.88585938 19.00078125 3.73046875 18.1640625 C3.12455058 15.64179359 3.12455058 15.64179359 0 14 C-1.9512833 13.65762865 -1.9512833 13.65762865 -4 13.5625 C-6.48541555 13.28837328 -7.82731787 13.10253001 -10 11.8125 C-11.53397053 9.03217842 -11.4452286 7.11660022 -11 4 C-8.0435322 -0.49383106 -5.14957002 -0.71028552 0 0 Z " fill="#035A82" transform="translate(37,95)"/>
<path d="M0 0 C1.32 0.33 2.64 0.66 4 1 C4 1.66 4 2.32 4 3 C4.53625 2.505 5.0725 2.01 5.625 1.5 C8.74008151 -0.4674199 10.37170989 -0.5923739 14 0 C16.64252476 1.98962025 18.69682349 3.55413811 19.40063477 6.91064453 C19.49152731 9.06522818 19.43754221 11.15985028 19.3125 13.3125 C19.28994141 14.05306641 19.26738281 14.79363281 19.24414062 15.55664062 C19.1855815 17.37197357 19.09590886 19.18625681 19 21 C17.35 21 15.7 21 14 21 C13.93941406 20.01257813 13.87882812 19.02515625 13.81640625 18.0078125 C13.73261719 16.72648437 13.64882813 15.44515625 13.5625 14.125 C13.44068359 12.21074219 13.44068359 12.21074219 13.31640625 10.2578125 C13.20793973 7.11699848 13.20793973 7.11699848 12 5 C10.33388095 4.957279 8.66617115 4.95936168 7 5 C5.00383446 6.99616554 5.59016573 10.81701963 5.4375 13.5625 C5.39431641 14.27341797 5.35113281 14.98433594 5.30664062 15.71679688 C5.20028223 17.47761912 5.09961154 19.2387832 5 21 C3.35 21 1.7 21 0 21 C0 14.07 0 7.14 0 0 Z " fill="#116287" transform="translate(50,102)"/>
<path d="M0 0 C1.65 0 3.3 0 5 0 C5.33 4.95 5.66 9.9 6 15 C7.65 15.33 9.3 15.66 11 16 C13.85793316 13.14206684 13.40799941 10.85334416 13.625 6.875 C13.69976562 5.59367187 13.77453125 4.31234375 13.8515625 2.9921875 C13.90054688 2.00476563 13.94953125 1.01734375 14 0 C15.32 0 16.64 0 18 0 C18 6.93 18 13.86 18 21 C16.68 20.67 15.36 20.34 14 20 C11.9254644 19.8509288 11.9254644 19.8509288 10 21 C6.58735365 21.37093982 4.70468614 21.47610515 1.8203125 19.52734375 C-0.83915544 15.8349065 -0.44085758 12.67642771 -0.25 8.25 C-0.23195312 7.45722656 -0.21390625 6.66445312 -0.1953125 5.84765625 C-0.14833082 3.89791652 -0.07659044 1.94880122 0 0 Z " fill="#055A81" transform="translate(165,102)"/>
<path d="M0 0 C2.4375 1 2.4375 1 4 2 C3.67 2.99 3.34 3.98 3 5 C0.03 4.67 -2.94 4.34 -6 4 C-5.67 4.99 -5.34 5.98 -5 7 C-2.92843003 8.02009999 -2.92843003 8.02009999 -0.5 8.8125 C3.83187843 10.61572212 3.83187843 10.61572212 5.3125 14 C5 17 5 17 3.625 19.375 C-0.12744335 21.69794112 -3.68405289 21.683557 -8 21 C-8.99 20.34 -9.98 19.68 -11 19 C-10.67 17.68 -10.34 16.36 -10 15 C-6.7 15.66 -3.4 16.32 0 17 C-0.33 16.01 -0.66 15.02 -1 14 C-3.07156997 12.97990001 -3.07156997 12.97990001 -5.5 12.1875 C-9.83187843 10.38427788 -9.83187843 10.38427788 -11.3125 7 C-11 4 -11 4 -9.5 1.625 C-6.1272465 -0.56728977 -3.95556564 -0.4238106 0 0 Z " fill="#106086" transform="translate(126,102)"/>
<path d="M0 0 C2.5 1 2.5 1 4 2 C3.67 3.32 3.34 4.64 3 6 C2.38511719 5.89300781 1.77023438 5.78601563 1.13671875 5.67578125 C-0.07564453 5.49595703 -0.07564453 5.49595703 -1.3125 5.3125 C-2.51326172 5.12107422 -2.51326172 5.12107422 -3.73828125 4.92578125 C-6.05664395 4.79714006 -6.05664395 4.79714006 -7.80859375 6.25390625 C-9.36557073 8.14877556 -9.36557073 8.14877556 -8.75 11.625 C-8.35631915 14.82263935 -8.35631915 14.82263935 -7 16 C-3.47362528 16.15672777 -0.38094149 16.04028969 3 15 C3.99 16.485 3.99 16.485 5 18 C1.30451598 20.77161302 -1.55698383 21.52524538 -6.06640625 21.36328125 C-9.14072683 20.78568163 -10.86602169 19.19864432 -13 17 C-14.72869779 13.54260443 -14.48966895 9.78024432 -14 6 C-10.26642655 0.02628249 -6.79105921 -0.57710582 0 0 Z " fill="#075A82" transform="translate(86,102)"/>
<path d="M0 0 C1.65 0 3.3 0 5 0 C5 9.57 5 19.14 5 29 C3.35 29 1.7 29 0 29 C0 19.43 0 9.86 0 0 Z " fill="#166286" transform="translate(156,94)"/>
<path d="M0 0 C2.375 1.5625 2.375 1.5625 4 4 C3.9375 7.625 3.9375 7.625 3 11 C-0.47042703 13.31361802 -1.91834173 13.51020728 -6 13 C-7.9375 11.4375 -7.9375 11.4375 -9 9 C-8.875 5.375 -8.875 5.375 -8 2 C-4.75173326 -0.16551116 -3.76905843 -0.55156953 0 0 Z " fill="#F2F7F8" transform="translate(105,106)"/>
<path d="M0 0 C1.875 1.125 1.875 1.125 3 3 C3.42454541 6.32560568 3.31414524 8.33680449 1.875 11.375 C0 13 0 13 -3 13.5 C-6 13 -6 13 -7.875 11.375 C-9.31414524 8.33680449 -9.42454541 6.32560568 -9 3 C-6.79086995 -0.68188342 -4.01844539 -0.50230567 0 0 Z " fill="#F2F8F9" transform="translate(200,106)"/>
<path d="M0 0 C1.32 0 2.64 0 4 0 C3.93489583 2.01822917 3.86979167 4.03645833 3.8046875 6.0546875 C3.81668311 8.23863645 3.81668311 8.23863645 6 10 C8.51915815 10.54444927 11.03736797 10.88882561 13.58984375 11.2421875 C16.63563099 12.19985804 17.48644858 13.22020949 19 16 C19.37460816 18.73713695 19.13898721 21.22025584 19 24 C18.01 23.34 17.02 22.68 16 22 C15.3125 18.375 15.3125 18.375 15 15 C14.40832031 14.96261719 13.81664062 14.92523438 13.20703125 14.88671875 C8.43202901 14.48945103 4.8954496 14.04332 1 11 C-0.20272819 8.59454362 -0.10071472 7.05003047 -0.0625 4.375 C-0.05347656 3.55773437 -0.04445313 2.74046875 -0.03515625 1.8984375 C-0.02355469 1.27195312 -0.01195313 0.64546875 0 0 Z " fill="#E1F1F2" transform="translate(23,97)"/>
<path d="M0 0 C2.26171875 1.90234375 2.26171875 1.90234375 2.75 5.0390625 C2.69199219 6.21082031 2.63398438 7.38257812 2.57421875 8.58984375 C2.50654297 10.35908203 2.50654297 10.35908203 2.4375 12.1640625 C2.37949219 13.06769531 2.32148438 13.97132812 2.26171875 14.90234375 C1.93171875 14.90234375 1.60171875 14.90234375 1.26171875 14.90234375 C1.13796875 14.09796875 1.01421875 13.29359375 0.88671875 12.46484375 C0.68046875 11.61921875 0.47421875 10.77359375 0.26171875 9.90234375 C-0.39828125 9.57234375 -1.05828125 9.24234375 -1.73828125 8.90234375 C-2.45987549 7.25871241 -3.13179546 5.59183989 -3.73828125 3.90234375 C-6.70828125 3.90234375 -9.67828125 3.90234375 -12.73828125 3.90234375 C-13.06828125 2.58234375 -13.39828125 1.26234375 -13.73828125 -0.09765625 C-8.91081016 -1.70681328 -4.68707477 -1.87884167 0 0 Z " fill="#065A82" transform="translate(148.73828125,103.09765625)"/>
<path d="M0 0 C0.75 2.75 0.75 2.75 1 6 C-0.375 8.375 -0.375 8.375 -3 10 C-7.72405864 10.68094539 -10.97798526 10.68134316 -15 8 C-14.67 6.68 -14.34 5.36 -14 4 C-10.7 4.66 -7.4 5.32 -4 6 C-4.33 4.68 -4.66 3.36 -5 2 C-2 0 -2 0 0 0 Z " fill="#1D688B" transform="translate(130,113)"/>
<path d="M0 0 C-0.62962963 4.65925926 -0.62962963 4.65925926 -2.5625 6.4375 C-4.33952866 8.03838964 -4.33952866 8.03838964 -4.1875 11.1875 C-4.125625 12.115625 -4.06375 13.04375 -4 14 C-5.65 14.66 -7.3 15.32 -9 16 C-10.43304064 13.13391871 -10.30644155 11.18699217 -10 8 C-7.49289907 3.50450868 -5.53550895 0 0 0 Z " fill="#126287" transform="translate(101,102)"/>
<path d="M0 0 C0.90105469 0.11988281 1.80210937 0.23976563 2.73046875 0.36328125 C3.41753906 0.47027344 4.10460937 0.57726562 4.8125 0.6875 C4.4825 1.3475 4.1525 2.0075 3.8125 2.6875 C2.1625 2.6875 0.5125 2.6875 -1.1875 2.6875 C-1.8475 4.3375 -2.5075 5.9875 -3.1875 7.6875 C-1.5375 8.0175 0.1125 8.3475 1.8125 8.6875 C1.8125 9.6775 1.8125 10.6675 1.8125 11.6875 C-1.76513189 12.01273926 -3.58292581 12.11706587 -6.5625 10 C-8.1875 7.6875 -8.1875 7.6875 -8.625 5.125 C-7.68212844 -0.12814156 -4.87079977 -0.69582854 0 0 Z " fill="#075A81" transform="translate(141.1875,111.3125)"/>
<path d="M0 0 C1.32 0 2.64 0 4 0 C4.02712153 1.916588 4.04645097 3.8332873 4.0625 5.75 C4.07410156 6.81734375 4.08570313 7.8846875 4.09765625 8.984375 C4.01510087 11.53368501 3.74617558 13.57933591 3 16 C2.01 16 1.02 16 0 16 C0 10.72 0 5.44 0 0 Z " fill="#045781" transform="translate(165,102)"/>
<path d="M0 0 C1.32 0.33 2.64 0.66 4 1 C4 1.66 4 2.32 4 3 C4.99 2.67 5.98 2.34 7 2 C9.1875 2.9375 9.1875 2.9375 11 4 C10.21625 4.28875 9.4325 4.5775 8.625 4.875 C5.90328368 5.84912254 5.90328368 5.84912254 4 8 C3.34 7.67 2.68 7.34 2 7 C1.67 11.62 1.34 16.24 1 21 C0.67 21 0.34 21 0 21 C0 14.07 0 7.14 0 0 Z " fill="#02517A" transform="translate(50,102)"/>
<path d="M0 0 C2.33944736 0.28730055 4.6739143 0.61936779 7 1 C6.67 2.65 6.34 4.3 6 6 C0.25 7.125 0.25 7.125 -2 6 C-1.125 1.125 -1.125 1.125 0 0 Z " fill="#E5EEF0" transform="translate(140,113)"/>
<path d="M0 0 C0.33 0 0.66 0 1 0 C1.06058594 1.04800781 1.12117187 2.09601563 1.18359375 3.17578125 C1.26801738 4.55470048 1.35266447 5.93360605 1.4375 7.3125 C1.47681641 8.00279297 1.51613281 8.69308594 1.55664062 9.40429688 C1.74927415 12.47161535 2.02322717 15.06968152 3 18 C2.01 18.99 1.02 19.98 0 21 C-1.32 19.68 -2.64 18.36 -4 17 C-3.51917969 16.30519531 -3.03835937 15.61039063 -2.54296875 14.89453125 C-0.8061222 11.63629506 -0.51385179 9.35210254 -0.3125 5.6875 C-0.21388672 4.08455078 -0.21388672 4.08455078 -0.11328125 2.44921875 C-0.05720703 1.23685547 -0.05720703 1.23685547 0 0 Z " fill="#2D7292" transform="translate(169,102)"/>
<path d="M0 0 C2.75 -0.25 2.75 -0.25 6 0 C8.375 2 8.375 2 10 4 C7.525 5.485 7.525 5.485 5 7 C4.34 6.01 3.68 5.02 3 4 C0.94074861 3.27617533 0.94074861 3.27617533 -1 3 C-0.67 2.01 -0.34 1.02 0 0 Z " fill="#085C82" transform="translate(58,102)"/>
<path d="M0 0 C6.75 0.875 6.75 0.875 9 2 C9 2.66 9 3.32 9 4 C3.58461538 5.23076923 3.58461538 5.23076923 0.625 4.0625 C0.08875 3.711875 -0.4475 3.36125 -1 3 C-0.67 2.01 -0.34 1.02 0 0 Z " fill="#075B83" transform="translate(119,110)"/>
<path d="M0 0 C1.485 0.99 1.485 0.99 3 2 C4.65549531 2.38499891 6.3222433 2.72793135 8 3 C7.01 3.495 7.01 3.495 6 4 C6.33 4.99 6.66 5.98 7 7 C4.125 7.1875 4.125 7.1875 1 7 C-1 4 -1 4 -0.625 1.8125 C-0.41875 1.214375 -0.2125 0.61625 0 0 Z " fill="#04587F" transform="translate(191,116)"/>
<path d="M0 0 C1.53202706 0.25195908 3.05257128 0.57596777 4.5625 0.9375 C5.38878906 1.13214844 6.21507813 1.32679687 7.06640625 1.52734375 C8.02353516 1.76130859 8.02353516 1.76130859 9 2 C7.3125 4.0625 7.3125 4.0625 5 6 C2.25 5.75 2.25 5.75 0 5 C-0.5625 3.0625 -0.5625 3.0625 -1 1 C-0.67 0.67 -0.34 0.34 0 0 Z " fill="#1D688B" transform="translate(116,117)"/>
<path d="M0 0 C5.94 0.99 5.94 0.99 12 2 C11.67 2.66 11.34 3.32 11 4 C9.54176788 4.0270043 8.08339325 4.04639787 6.625 4.0625 C5.81289063 4.07410156 5.00078125 4.08570312 4.1640625 4.09765625 C2 4 2 4 0 3 C0 2.01 0 1.02 0 0 Z " fill="#EEF6F6" transform="translate(25,106)"/>
<path d="M0 0 C2.125 0.9375 2.125 0.9375 4 2 C1.94766315 4.2477975 0.99332739 5.0022242 -2 6 C-2.33 5.34 -2.66 4.68 -3 4 C-2.67 3.01 -2.34 2.02 -2 1 C-1.34 0.67 -0.68 0.34 0 0 Z " fill="#166388" transform="translate(87,117)"/>
<path d="M0 0 C0.66 1.32 1.32 2.64 2 4 C1 5 1 5 -2.0625 5.0625 C-3.5165625 5.0315625 -3.5165625 5.0315625 -5 5 C-5 4.01 -5 3.02 -5 2 C-3.35 1.34 -1.7 0.68 0 0 Z " fill="#04577F" transform="translate(126,118)"/>
<path d="M0 0 C0.66 1.32 1.32 2.64 2 4 C0.625 6 0.625 6 -1 8 C-1.66 8 -2.32 8 -3 8 C-2.37240135 5.07120629 -1.41377341 2.63904371 0 0 Z " fill="#0C5F84" transform="translate(111,113)"/>
<path d="M0 0 C1.32 0 2.64 0 4 0 C3.67 1.32 3.34 2.64 3 4 C1.35 4 -0.3 4 -2 4 C-1.34 2.68 -0.68 1.36 0 0 Z " fill="#00557C" transform="translate(172,119)"/>
<path d="M0 0 C0.33 0.99 0.66 1.98 1 3 C1.99 3 2.98 3 4 3 C4.33 2.34 4.66 1.68 5 1 C5.33 1.99 5.66 2.98 6 4 C5.34 4 4.68 4 4 4 C3.67 4.99 3.34 5.98 3 7 C1.5 5.75 1.5 5.75 0 4 C0 2.68 0 1.36 0 0 Z " fill="#276F8F" transform="translate(115,106)"/>
<path d="M0 0 C0.66 0.33 1.32 0.66 2 1 C1.67 2.65 1.34 4.3 1 6 C0.01 6 -0.98 6 -2 6 C-1.125 1.125 -1.125 1.125 0 0 Z " fill="#00557E" transform="translate(118,103)"/>
</svg>
