<?xml version="1.0" encoding="UTF-8" standalone="no"?>
<svg
   version="1.1"
   width="612pt"
   height="936pt"
   id="svg6"
   viewBox="0 0 612 936"
   sodipodi:docname="oxxo-563.cdr"
   xmlns:inkscape="http://www.inkscape.org/namespaces/inkscape"
   xmlns:sodipodi="http://sodipodi.sourceforge.net/DTD/sodipodi-0.dtd"
   xmlns="http://www.w3.org/2000/svg"
   xmlns:svg="http://www.w3.org/2000/svg">
  <defs
     id="defs6" />
  <sodipodi:namedview
     id="namedview6"
     pagecolor="#ffffff"
     bordercolor="#000000"
     borderopacity="0.25"
     inkscape:showpageshadow="2"
     inkscape:pageopacity="0.0"
     inkscape:pagecheckerboard="0"
     inkscape:deskcolor="#d1d1d1"
     inkscape:document-units="pt" />
  <g
     id="Layer1000">
    <path
       d="m 456.8877,527.668 c 0,14.1214 -11.4517,25.5734 -25.5705,25.5734 H 158.5553 c -14.1156,0 -25.5721,-11.452 -25.5721,-25.5734 V 408.3316 c 0,-14.1155 11.4565,-25.5733 25.5721,-25.5733 h 272.7619 c 14.1188,0 25.5705,11.4578 25.5705,25.5733 z"
       style="fill:#ffffff;fill-rule:evenodd"
       id="path1" />
    <path
       d="m 456.8877,527.668 c 0,14.1214 -11.4517,25.5734 -25.5705,25.5734 H 158.5553 c -14.1156,0 -25.5721,-11.452 -25.5721,-25.5734 V 408.3316 c 0,-14.1155 11.4565,-25.5733 25.5721,-25.5733 h 272.7619 c 14.1188,0 25.5705,11.4578 25.5705,25.5733 z"
       style="fill:#ffffff;fill-rule:evenodd"
       id="path2" />
    <path
       d="M 431.3374,391.3024 H 158.6006 c -9.4182,0 -17.0424,7.6201 -17.0614,17.0148 h 306.8583 c -0.0197,-9.3947 -7.6415,-17.0148 -17.0601,-17.0148 z"
       style="fill:#f9b316;fill-rule:evenodd"
       id="path3" />
    <path
       d="m 158.5153,544.6347 h 272.7368 c 9.3988,0 17.0375,-7.6243 17.0375,-17.0207 H 141.4547 c 0.0198,9.3964 7.6371,17.0207 17.0606,17.0207 z"
       style="fill:#f9b316;fill-rule:evenodd"
       id="path4" />
    <path
       d="m 218.3117,468.0534 c 0,14.1383 -11.4504,25.5705 -25.5664,25.5705 -14.1197,0 -25.5705,-11.4322 -25.5705,-25.5705 0,-14.1152 11.4508,-25.5701 25.5705,-25.5701 14.116,0 25.5664,11.4549 25.5664,25.5701 z m 221.5129,0 v 0 c 0,23.5515 -19.0792,42.6282 -42.608,42.6282 -23.5602,0 -42.6336,-19.0767 -42.6336,-42.6282 0,-23.5363 19.0734,-42.6084 42.6336,-42.6084 23.5288,0 42.608,19.0721 42.608,42.6084 z m -17.0375,0 v 0 c 0,14.1383 -11.4578,25.5705 -25.5705,25.5705 -14.1383,0 -25.5878,-11.4322 -25.5878,-25.5705 0,-14.1152 11.4495,-25.5701 25.5878,-25.5701 14.1127,0 25.5705,11.4549 25.5705,25.5701 z m -187.4152,0 v 0 c 0,23.5515 -19.0957,42.6282 -42.6266,42.6282 -23.5395,0 -42.6121,-19.0767 -42.6121,-42.6282 0,-23.5363 19.0726,-42.6084 42.6121,-42.6084 23.5309,0 42.6266,19.0721 42.6266,42.6084 z m -33.4915,51.073 v 0 H 141.5392 V 416.8424 H 353.129 c -4.8387,1.0529 -9.3564,7.7202 -9.998,8.5375 l -23.12,29.4003 -9.4418,-12.1691 -10.5898,14.1184 9.2055,11.8893 -13.7929,17.6648 -8.2271,10.5408 c -1.0431,1.3003 -1.6024,2.8169 -1.7767,4.3529 -0.2806,2.8341 0.821,5.7392 3.2236,7.6189 2.2061,1.7123 4.9863,2.1665 7.4751,1.519 1.7272,-0.4797 3.3093,-1.4766 4.4971,-2.987 l 4.6132,-5.9321 0.1274,-0.176 14.6864,-18.7643 19.4455,24.8922 c 2.8964,3.7025 8.263,4.3528 11.9602,1.4482 3.7115,-2.8795 4.3817,-8.2462 1.4795,-11.9462 l -22.0638,-28.2312 26.999,-35.3621 c 12.9542,-15.1376 25.9566,-16.3616 32.2748,-16.4143 h 58.3424 v 102.284 h -212.29 c 5.0028,-0.7183 9.8164,-7.752 10.4518,-8.5923 l 23.1469,-29.4045 9.5463,12.2334 10.6134,-14.1184 -9.3584,-11.9528 13.8373,-17.666 8.2029,-10.5421 c 1.0221,-1.2986 1.6065,-2.8135 1.7548,-4.3524 0.3038,-2.8366 -0.8168,-5.7359 -3.2022,-7.6201 -2.1887,-1.7095 -4.9611,-2.1908 -7.4511,-1.5179 -1.7293,0.4785 -3.3312,1.4746 -4.5016,2.9879 l -4.6335,5.9131 -0.1525,0.1929 -14.6554,18.7726 -19.4687,-24.8963 c -2.8943,-3.7054 -8.2478,-4.3557 -11.9478,-1.4523 -3.7235,2.8787 -4.378,8.2478 -1.477,11.9474 l 22.0654,28.2332 -26.9961,35.3592 c -11.5896,13.5423 -23.2312,16.0579 -30.0527,16.4754 z"
       style="fill:#e12128;fill-rule:evenodd"
       id="path5" />
    <path
       d="m 479.0169,536.0646 c 0,5.3926 -4.2139,9.6177 -9.6889,9.6177 -5.4207,0 -9.7426,-4.2251 -9.7426,-9.6177 0,-5.2731 4.3219,-9.5011 9.7426,-9.5011 5.475,0 9.6889,4.228 9.6889,9.5011 z m -17.0123,0 v 0 c 0,4.2313 3.1152,7.5933 7.3802,7.5933 4.1542,0 7.2068,-3.362 7.2068,-7.5335 0,-4.2367 -3.0526,-7.6556 -7.2636,-7.6556 -4.2082,0 -7.3234,3.4189 -7.3234,7.5958 z m 5.827,4.9809 v 0 h -2.195 v -9.5043 c 0.8634,-0.1703 2.0758,-0.2869 3.6349,-0.2869 1.789,0 2.5951,0.2869 3.2879,0.6957 0.5197,0.4034 0.9203,1.1617 0.9203,2.0874 0,1.0418 -0.8065,1.8512 -1.9621,2.2003 v 0.1137 c 0.9256,0.3524 1.4395,1.0452 1.735,2.3203 0.2864,1.4482 0.4513,2.0272 0.6899,2.3738 h -2.3627 c -0.2893,-0.3466 -0.4628,-1.2158 -0.7525,-2.3145 -0.1702,-1.0451 -0.7526,-1.5075 -1.9675,-1.5075 h -1.0282 z m 0.0511,-5.3868 v 0 h 1.0422 c 1.2096,0 2.1921,-0.406 2.1921,-1.3885 0,-0.872 -0.6359,-1.4511 -2.019,-1.4511 -0.579,0 -0.9796,0.0594 -1.2153,0.1134 z"
       style="fill:#010101;fill-rule:evenodd"
       id="path6" />
  </g>
</svg>
