<?xml version="1.0" encoding="UTF-8" standalone="no"?>
<svg
   version="1.1"
   width="595.27557pt"
   height="841.88977pt"
   id="svg42"
   viewBox="0 0 595.27557 841.88977"
   sodipodi:docname="papa-johns-37669_logosenvector.com_2.cdr"
   xmlns:inkscape="http://www.inkscape.org/namespaces/inkscape"
   xmlns:sodipodi="http://sodipodi.sourceforge.net/DTD/sodipodi-0.dtd"
   xmlns="http://www.w3.org/2000/svg"
   xmlns:svg="http://www.w3.org/2000/svg">
  <defs
     id="defs42" />
  <sodipodi:namedview
     id="namedview42"
     pagecolor="#ffffff"
     bordercolor="#000000"
     borderopacity="0.25"
     inkscape:showpageshadow="2"
     inkscape:pageopacity="0.0"
     inkscape:pagecheckerboard="0"
     inkscape:deskcolor="#d1d1d1"
     inkscape:document-units="pt" />
  <g
     id="Layer1000">
    <path
       d="M 454.6491,412.39 C 430.664,398.5782 375.3726,384.5256 351.9869,382.6628 l -17.6138,-1.4124 c -18.7882,-1.5291 -29.1574,-2.3474 -37.0895,-2.3474 -7.9338,0 -54.6762,3.7848 -54.6762,3.7848 -23.3955,1.8624 -78.6756,15.9116 -102.6726,29.7267 -11.2433,6.4582 -12.4639,11.0614 -12.4639,26.3272 v 38.9164 c 0,3.1638 0.3812,7.767 3.6814,11.2626 3.804,4.0223 8.7312,4.0223 14.4382,4.0223 H 449 c 5.6992,0 10.6262,0 14.4303,-4.0223 3.2998,-3.4956 3.6833,-8.0988 3.6833,-11.2626 v -38.9375 c 0,-15.2658 -1.221,-19.8479 -12.4645,-26.3306 z"
       style="fill:#077954;fill-rule:evenodd"
       id="path1" />
    <path
       d="M 454.6491,412.39 C 430.664,398.5782 375.3726,384.5256 351.9869,382.6628 l -17.6138,-1.4124 c -18.7882,-1.5291 -29.1574,-2.3474 -37.0895,-2.3474 -7.9338,0 -54.6762,3.7848 -54.6762,3.7848 -23.3955,1.8624 -78.6756,15.9116 -102.6726,29.7267 -11.2433,6.4582 -12.4639,11.0614 -12.4639,26.3272 v 38.9164 c 0,3.1638 0.3812,7.767 3.6814,11.2626 3.804,4.0223 8.7312,4.0223 14.4382,4.0223 H 449 c 5.6992,0 10.6262,0 14.4303,-4.0223 3.2998,-3.4956 3.6833,-8.0988 3.6833,-11.2626 v -38.9375 c 0,-15.2658 -1.221,-19.8479 -12.4645,-26.3306 z m 0,0 c 11.2435,6.4827 12.4645,11.0648 12.4645,26.3306 v 38.9375 c 0,3.1638 -0.3835,7.767 -3.6833,11.2626 -3.8041,4.0223 -8.7311,4.0223 -14.4303,4.0223 H 145.5905 c -5.707,0 -10.6342,0 -14.4382,-4.0223 -3.3002,-3.4956 -3.6814,-8.0988 -3.6814,-11.2626 v -38.9164 c 0,-15.2658 1.2206,-19.869 12.4639,-26.3272 23.997,-13.8151 79.2771,-27.8643 102.6726,-29.7267 0,0 46.7424,-3.7848 54.6762,-3.7848 7.9321,0 18.3013,0.8183 37.0895,2.3474 l 17.6138,1.4124 c 23.3857,1.8628 78.6771,15.9154 102.6622,29.7272 z"
       style="fill:#000000;fill-rule:evenodd"
       id="path2" />
    <path
       d="m 463.3729,477.633 c 0,2.4605 -0.263,6.0137 -2.5835,8.4687 -2.7115,2.8646 -6.5156,2.8646 -11.7875,2.8592 H 145.6018 c -5.2833,0 -9.076,0 -11.7874,-2.8592 -2.3231,-2.455 -2.5855,-6.0082 -2.5855,-8.4687 v -38.9124 c 0,-14.7502 1.2724,-17.529 10.5173,-22.8529 23.5769,-13.5928 78.0889,-27.4252 101.1561,-29.2571 l 17.6134,-1.4143 c 18.7308,-2.1444 29.1269,-2.8421 36.9137,-2.8421 7.7863,0 19.5816,0.4926 36.691,2.8421 l 17.6154,1.4143 c 23.079,1.8319 77.583,15.6643 101.158,29.2571 9.2408,5.3239 10.5173,8.1027 10.5173,22.8529 v 38.9124 z"
       style="fill:#ffffff;fill-rule:evenodd"
       id="path3" />
    <path
       d="m 463.3729,477.633 c 0,2.4605 -0.263,6.0137 -2.5835,8.4687 -2.7115,2.8646 -6.5156,2.8646 -11.7875,2.8592 H 145.6018 c -5.2833,0 -9.076,0 -11.7874,-2.8592 -2.3231,-2.455 -2.5855,-6.0082 -2.5855,-8.4687 v -38.9124 c 0,-14.7502 1.2724,-17.529 10.5173,-22.8529 23.5769,-13.5928 78.0889,-27.4252 101.1561,-29.2571 l 17.6134,-1.4143 c 18.7308,-2.1444 29.1269,-2.8421 36.9137,-2.8421 7.7863,0 19.5816,0.4926 36.691,2.8421 l 17.6154,1.4143 c 23.079,1.8319 77.583,15.6643 101.158,29.2571 9.2408,5.3239 10.5173,8.1027 10.5173,22.8529 v 38.9124 z m 0,0 h 0.0382 v -38.9124 c 0,-14.7502 -1.2765,-17.529 -10.5173,-22.8529 -23.575,-13.5928 -78.079,-27.4252 -101.158,-29.2571 l -17.6154,-1.4143 c -17.1094,-2.3495 -28.9047,-2.8421 -36.691,-2.8421 -7.7868,0 -18.1829,0.6977 -36.9137,2.8421 l -17.6134,1.4143 c -23.0672,1.8319 -77.5792,15.6643 -101.1561,29.2571 -9.2449,5.3239 -10.5173,8.1027 -10.5173,22.8529 v 38.9124 c 0,2.4605 0.2624,6.0137 2.5855,8.4687 2.7114,2.8592 6.5041,2.8592 11.7874,2.8592 h 303.4001 c 5.2719,0.005 9.076,0.005 11.7875,-2.8592 2.3205,-2.455 2.5835,-6.0082 2.5835,-8.4687 z"
       style="fill:#000000;fill-rule:evenodd"
       id="path4" />
    <path
       d="m 370.7752,369.2422 -2.1945,-0.6918 c -0.5881,-0.1648 -14.7506,-4.0051 -19.4588,-4.1087 l 1.0675,-5.6742 c 0.0613,-0.4524 -0.081,-0.9106 -0.3857,-1.2495 -1.9986,-2.7194 -22.8468,-8.7311 -52.7501,-8.7311 -29.5314,0 -51.1332,5.5653 -53.1701,8.0143 -0.2968,0.3145 -0.4273,0.7492 -0.3528,1.1745 l 1.4263,6.4586 c -4.6975,0.1339 -18.8404,3.9705 -19.4576,4.1102 l -2.19,0.6844 1.3261,1.5233 8.3686,8.8827 -1.8147,15.0588 -0.2243,2.0526 1.9144,-0.4792 c 1.7613,-0.4332 3.7044,-1.0137 5.7723,-1.6328 4.7853,-1.4183 10.2107,-3.0259 14.0089,-3.0259 0.0285,0 2.8454,-0.0614 5.6262,-0.3008 0.9718,-0.0883 1.5026,-0.3679 1.6213,-0.8645 0.3146,-1.3029 -2.9356,-3.5224 -3.7828,-4.0435 1.4678,-1.2877 24.0331,-3.7426 40.9282,-3.6602 h 0.7339 c 16.8642,0 38.9218,2.4127 40.2116,3.649 -0.8297,0.5323 -4.1087,2.7458 -3.7962,4.0547 0.1188,0.4966 0.6436,0.7762 1.6209,0.8645 2.7752,0.2394 5.5943,0.3008 5.6286,0.3008 3.7943,0 9.2197,1.6076 14.0049,3.0259 2.064,0.5883 4.0225,1.175 5.7646,1.6347 l 1.922,0.4773 -2.0388,-17.1114 8.3744,-8.8881 z"
       style="fill:#df2a27;fill-rule:evenodd"
       id="path5" />
    <path
       d="m 370.7752,369.2422 -2.1945,-0.6918 c -0.5881,-0.1648 -14.7506,-4.0051 -19.4588,-4.1087 l 1.0675,-5.6742 c 0.0613,-0.4524 -0.081,-0.9106 -0.3857,-1.2495 -1.9986,-2.7194 -22.8468,-8.7311 -52.7501,-8.7311 -29.5314,0 -51.1332,5.5653 -53.1701,8.0143 -0.2968,0.3145 -0.4273,0.7492 -0.3528,1.1745 l 1.4263,6.4586 c -4.1264,0.1188 -15.5461,3.0927 -18.6774,3.9091 -0.4313,0.1134 -0.7051,0.184 -0.7802,0.2011 l -2.19,0.6844 1.3261,1.5233 8.3686,8.8827 -1.8147,15.0588 -0.2243,2.0526 1.9144,-0.4792 c 1.7362,-0.4254 3.6489,-0.9964 5.6821,-1.6058 l 0.0902,-0.027 c 0.004,0 0.008,-0.002 0.0113,-0.002 4.7818,-1.4178 10.2009,-3.024 13.9976,-3.024 0.0285,0 2.8454,-0.0614 5.6262,-0.3008 0.9718,-0.0883 1.5026,-0.3679 1.6213,-0.8645 0.3146,-1.3029 -2.9356,-3.5224 -3.7828,-4.0435 1.4678,-1.2877 24.0331,-3.7426 40.9282,-3.6602 h 0.7339 c 16.8642,0 38.9218,2.4127 40.2116,3.649 -0.8297,0.5323 -4.1087,2.7458 -3.7962,4.0547 0.1188,0.4966 0.6436,0.7762 1.6209,0.8645 2.7752,0.2394 5.5943,0.3008 5.6286,0.3008 3.7923,0 9.2099,1.6062 13.9917,3.022 -0.008,-0.002 0.0206,0.008 0.0132,0.004 0.6418,0.184 1.2839,0.368 1.9241,0.5539 0.6015,0.1747 1.1882,0.3429 1.7613,0.5077 0.7202,0.2032 1.4139,0.3969 2.0792,0.5731 l 1.922,0.4773 -2.0388,-17.1114 8.3744,-8.8881 z m 0,0 -1.2957,1.5046 -8.3744,8.8901 2.0388,17.1094 -1.922,-0.4773 c -0.6653,-0.1762 -1.359,-0.3699 -2.0792,-0.5731 -0.5731,-0.1648 -1.1598,-0.333 -1.7613,-0.5077 -0.6402,-0.1859 -1.2823,-0.3699 -1.9241,-0.5539 0.007,0.004 -0.021,-0.006 -0.0132,-0.004 -4.7818,-1.4158 -10.1994,-3.022 -13.9917,-3.022 -0.0343,0 -2.8534,-0.0614 -5.6286,-0.3008 -0.9773,-0.0883 -1.5021,-0.3679 -1.6209,-0.8645 -0.3125,-1.3089 2.9665,-3.5224 3.7962,-4.0547 -1.2898,-1.2363 -23.3474,-3.649 -40.2116,-3.649 h -0.7339 c -16.8951,-0.0824 -39.4604,2.3725 -40.9282,3.6602 0.8472,0.5211 4.0974,2.7406 3.7828,4.0435 -0.1187,0.4966 -0.6495,0.7762 -1.6213,0.8645 -2.7808,0.2394 -5.5977,0.3008 -5.6262,0.3008 -3.7967,0 -9.2158,1.6062 -13.9976,3.024 -0.005,0 -0.007,0.002 -0.0113,0.002 l -0.0902,0.027 c -2.0332,0.6094 -3.9459,1.1804 -5.6821,1.6058 l -1.9144,0.4792 0.2243,-2.0526 1.8147,-15.0588 -8.3686,-8.8827 -1.3261,-1.5233 2.19,-0.6844 c 0.0751,-0.0171 0.3489,-0.0877 0.7802,-0.2011 3.1313,-0.8164 14.5489,-3.7903 18.6774,-3.9091 l -1.4263,-6.4586 c -0.0745,-0.4253 0.056,-0.86 0.3528,-1.1745 2.0369,-2.449 23.6387,-8.0143 53.1701,-8.0143 29.9033,0 50.7515,6.0117 52.7501,8.7311 0.3047,0.3389 0.447,0.7971 0.3857,1.2495 l -1.0675,5.6742 c 4.7082,0.1036 18.8707,3.9439 19.4588,4.1087 z"
       style="fill:#000000;fill-rule:evenodd"
       id="path6" />
    <path
       d="m 341.3125,384.9662 -0.4464,-0.3449 c -1.7632,-1.7039 -24.2599,-4.4286 -43.3661,-4.1662 -19.141,-0.2682 -43.0305,2.8726 -44.2992,4.697 l -0.205,0.2203 -0.1477,-0.5862 c -0.0475,-0.2473 -5.2429,-24.3207 -5.5363,-25.5894 0.0269,-0.2203 0.1246,-0.4254 0.2742,-0.5867 1.8628,-2.401 23.6981,-7.0927 49.9082,-7.0927 11.4044,0.0561 22.7841,1.1059 34.0065,3.1414 8.2616,1.4983 14.1792,3.0834 15.1966,4.3903 0.1114,0.2281 0.1364,0.4887 0.0692,0.7339 -0.2934,1.2628 -4.8888,22.5654 -4.9383,22.8048 z"
       style="fill:#077954;fill-rule:evenodd"
       id="path7" />
    <path
       d="m 341.3125,384.9662 -0.4464,-0.3449 c -1.7632,-1.7039 -24.2599,-4.4286 -43.3661,-4.1662 -19.141,-0.2682 -43.0305,2.8726 -44.2992,4.697 l -0.205,0.2203 -0.1477,-0.5862 c -0.0475,-0.2492 -5.2429,-24.3207 -5.5363,-25.5894 0.0269,-0.2203 0.1246,-0.4254 0.2742,-0.5867 1.8628,-2.401 23.6981,-7.0927 49.9082,-7.0927 11.4044,0.0561 22.7841,1.1059 34.0065,3.1414 8.2616,1.4983 14.1792,3.0834 15.1966,4.3903 0.1114,0.2281 0.1364,0.4887 0.0692,0.7339 -0.2934,1.2628 -4.8888,22.5654 -4.9383,22.8048 z m 0,0 0.5157,-2.3784 c 0.0495,-0.2394 4.6449,-21.542 4.9383,-22.8048 0.0672,-0.2452 0.0441,-0.5039 -0.0692,-0.7339 -1.0174,-1.3069 -6.935,-2.892 -15.1966,-4.3903 -11.2224,-2.0355 -22.6021,-3.0853 -34.0065,-3.1414 -26.2101,0 -48.0454,4.6917 -49.9082,7.0927 -0.1496,0.1613 -0.2473,0.3664 -0.2742,0.5867 0.2934,1.2687 5.4888,25.3402 5.5363,25.5894 l 0.1477,0.5862 0.205,-0.2203 c 1.2687,-1.8244 25.1582,-4.9652 44.2992,-4.697 19.1062,-0.2624 41.6029,2.4623 43.3661,4.1662 z"
       style="fill:#000000;fill-rule:evenodd"
       id="path8" />
    <path
       d="m 250.3476,387.8426 -4.8373,-21.0013 h -0.1069 c -3.7198,0 -17.4087,3.6695 -17.4087,3.6695 l 7.7861,8.2195 -1.6749,14.5147 c 0,0 4.6995,-1.2207 6.8664,-1.8148 2.4648,-0.6878 4.7892,-1.3339 6.7919,-1.7592 1.2475,-0.2625 2.5102,-0.4293 3.7789,-0.5005 l 1.0063,-0.0706 -0.4524,-0.2531 z"
       style="fill:#077954;fill-rule:evenodd"
       id="path9" />
    <path
       d="m 250.3476,387.8426 -4.8373,-21.0013 h -0.1069 c -3.7198,0 -17.4087,3.6695 -17.4087,3.6695 l 7.7861,8.2195 -1.6749,14.5147 c 0.002,0 4.6995,-1.2207 6.8664,-1.8148 2.4648,-0.6878 4.7892,-1.3339 6.7919,-1.7592 1.2475,-0.2625 2.5102,-0.4293 3.7789,-0.5005 l 1.0063,-0.0706 -0.4524,-0.2531 z m 0,0 1.7494,1.0042 0.4524,0.2531 -1.0063,0.0706 c -1.2687,0.0712 -2.5314,0.238 -3.7789,0.5005 -2.0027,0.4253 -4.3271,1.0714 -6.7919,1.7592 -2.1669,0.5941 -6.8644,1.8148 -6.8664,1.8148 l 1.6749,-14.5147 -7.7861,-8.2195 c 0,0 13.6889,-3.6695 17.4087,-3.6695 h 0.1069 z"
       style="fill:#000000;fill-rule:evenodd"
       id="path10" />
    <path
       d="m 343.6905,388.2414 4.8372,-21.0058 h 0.109 c 3.7201,0 17.4048,3.6761 17.4048,3.6761 l -7.7844,8.1825 1.675,14.5148 c 0,0 -4.697,-1.2206 -6.8645,-1.8147 -2.4647,-0.6824 -4.793,-1.3261 -6.7917,-1.7613 -1.2495,-0.2663 -2.5143,-0.4332 -3.7908,-0.4978 l -0.9964,-0.0771 0.4543,-0.2527 z"
       style="fill:#077954;fill-rule:evenodd"
       id="path11" />
    <path
       d="m 343.6905,388.2414 4.8372,-21.0058 h 0.109 c 3.7201,0 17.4048,3.6761 17.4048,3.6761 l -7.7844,8.1825 1.675,14.5148 c 0.002,0 -4.6989,-1.2226 -6.8645,-1.8147 l -0.0499,-0.0132 c -2.4452,-0.6766 -4.7563,-1.3168 -6.7418,-1.7481 -1.2495,-0.2663 -2.5163,-0.4332 -3.7908,-0.4978 l -0.9964,-0.0771 0.4543,-0.2527 z m 0,0 -1.7475,0.964 -0.4543,0.2527 0.9964,0.0771 c 1.2745,0.0646 2.5413,0.2315 3.7908,0.4978 1.9855,0.4313 4.2966,1.0715 6.7418,1.7481 l 0.0499,0.0132 c 2.1656,0.5921 6.8664,1.8147 6.8645,1.8147 l -1.675,-14.5148 7.7844,-8.1825 c 0,0 -13.6847,-3.6761 -17.4048,-3.6761 h -0.109 z"
       style="fill:#000000;fill-rule:evenodd"
       id="path12" />
    <path
       d="m 154.9021,457.6433 -0.8316,0.0977 c 0.0363,5.7203 0.0745,11.4405 0.1147,17.1647 l -11.8587,0.0522 v -45.3878 c 4.1127,-1.5371 8.2486,-3.0128 12.3994,-4.4247 9.8559,-3.4459 16.0076,0.0402 16.1685,12.7147 0.1668,12.5489 -5.9563,18.7137 -15.9923,19.7832 z m 0.6302,-21.6534 -1.6095,0.4215 c 0.021,3.9517 0.0499,7.8956 0.0804,11.8434 l 1.6136,-0.3047 c 2.9358,-0.5479 4.1991,-3.7657 4.1641,-7.3339 -0.0361,-3.5724 -1.3143,-5.4122 -4.2486,-4.6263 z"
       style="fill:#df2a27;fill-rule:evenodd"
       id="path13" />
    <path
       d="m 154.9021,457.6433 -0.8316,0.0977 c 0.0363,5.7222 0.0745,11.4387 0.1147,17.1647 l -11.8587,0.0522 v -45.3878 c 4.1109,-1.5371 8.2445,-3.0108 12.3994,-4.4247 7.4737,-2.6125 12.8167,-1.2402 15.0336,5.1012 0.7076,2.0218 1.0965,4.5493 1.1349,7.6135 0.1668,12.5489 -5.9563,18.7137 -15.9923,19.7832 z m 0,0 c 10.036,-1.0695 16.1591,-7.2343 15.9923,-19.7832 -0.0384,-3.0642 -0.4273,-5.5917 -1.1349,-7.6135 -2.2169,-6.3414 -7.5599,-7.7137 -15.0336,-5.1012 -4.1549,1.4139 -8.2885,2.8876 -12.3994,4.4247 v 45.3878 l 11.8587,-0.0522 c -0.0402,-5.726 -0.0784,-11.4425 -0.1147,-17.1647 z m 0.6302,-21.6534 -1.6095,0.4215 v 0.002 c 0.021,3.9517 0.0499,7.8936 0.0804,11.8414 l 1.6136,-0.3047 c 2.9358,-0.5479 4.1991,-3.7657 4.1641,-7.3339 -0.0304,-3.0416 -0.962,-4.8274 -3.0486,-4.8062 -0.3644,0.004 -0.7648,0.0632 -1.2,0.1799 z m 0,0 c 0.4352,-0.1167 0.8356,-0.176 1.2,-0.1799 2.0866,-0.0212 3.0182,1.7646 3.0486,4.8062 0.035,3.5682 -1.2283,6.786 -4.1641,7.3339 l -1.6136,0.3047 c -0.0305,-3.9478 -0.0594,-7.8897 -0.0804,-11.8414 v -0.002 z"
       style="fill:#000000;fill-rule:evenodd"
       id="path14" />
    <path
       d="m 216.8263,451.8229 -1.0735,0.0771 v 22.8165 h -12.1825 l -0.0956,-63.4574 c 0,0 8.5201,-1.7613 12.7957,-2.5374 10.1567,-1.9088 17.9258,3.5759 18.1117,19.3745 0.1781,15.6245 -7.5123,22.6807 -17.5558,23.7267 z m 0.3753,-29.2919 c -0.5362,0.077 -1.4238,0.2532 -1.4238,0.2532 0,0 -0.0514,10.5689 0,15.8044 5.452,-0.4621 6.6692,-2.9362 6.6692,-9.2928 0.0251,-4.9977 -2.2538,-7.1941 -5.2454,-6.7648 z"
       style="fill:#df2a27;fill-rule:evenodd"
       id="path15" />
    <path
       d="m 216.8263,451.8229 -1.0735,0.0771 v 22.8165 h -12.1825 l -0.0956,-63.4574 c 0,0 8.5201,-1.7613 12.7957,-2.5374 8.6006,-1.6175 15.4881,2.0699 17.5098,12.8301 0.366,1.9472 0.573,4.1244 0.6019,6.5444 0.1781,15.6245 -7.5123,22.6807 -17.5558,23.7267 z m 0,0 c 10.0435,-1.046 17.7339,-8.1022 17.5558,-23.7267 -0.0289,-2.42 -0.2359,-4.5972 -0.6019,-6.5444 -2.0217,-10.7602 -8.9092,-14.4476 -17.5098,-12.8301 -4.2756,0.7761 -12.7957,2.5374 -12.7957,2.5374 l 0.0956,63.4574 h 12.1825 V 451.9 Z m 0.3753,-29.2919 c -0.5362,0.077 -1.4238,0.2532 -1.4238,0.2532 0,-0.004 -0.023,4.7008 -0.023,9.3806 0,2.3402 0.006,4.6798 0.023,6.4238 5.452,-0.4621 6.6692,-2.9362 6.6692,-9.2928 0.023,-4.5782 -1.8878,-6.805 -4.5077,-6.8182 -0.2451,0 -0.4924,0.0171 -0.7377,0.0534 z m 0,0 c 0.2453,-0.0363 0.4926,-0.0534 0.7377,-0.0534 2.6199,0.0132 4.5307,2.24 4.5077,6.8182 0,6.3566 -1.2172,8.8307 -6.6692,9.2928 -0.0171,-1.744 -0.023,-4.0836 -0.023,-6.4238 0,-4.6798 0.023,-9.3846 0.023,-9.3806 0,0 0.8876,-0.1762 1.4238,-0.2532 z"
       style="fill:#000000;fill-rule:evenodd"
       id="path16" />
    <path
       d="m 424.8573,430.879 c -1.6117,-0.2968 -3.2251,-0.5883 -4.8392,-0.8738 0.3949,-3.9154 0.9067,-7.9608 1.2976,-11.8145 2.11,0.5883 4.2505,1.2951 6.3433,1.9202 -0.8757,3.4896 -1.9148,7.1057 -2.8017,10.7681 z"
       style="fill:#df2a27;fill-rule:evenodd"
       id="path17" />
    <path
       d="m 424.8573,430.879 c -1.6117,-0.2968 -3.2251,-0.5883 -4.8392,-0.8738 0.2016,-1.9953 0.4331,-4.0243 0.6633,-6.0446 0.2203,-1.9393 0.4445,-3.8846 0.6343,-5.7699 1.3242,0.3699 2.6581,0.7835 3.986,1.1975 0.7915,0.2453 1.5754,0.4906 2.3573,0.7227 -0.387,1.5444 -0.8089,3.1197 -1.2322,4.7048 -0.4332,1.6229 -0.8738,3.2712 -1.2879,4.9231 -0.0957,0.3792 -0.1898,0.7609 -0.2816,1.1402 z m 0,0 c 0.0918,-0.3793 0.1859,-0.761 0.2816,-1.1402 0.4141,-1.6519 0.8547,-3.3002 1.2879,-4.9231 0.4233,-1.5851 0.8452,-3.1604 1.2322,-4.7048 -0.7819,-0.2321 -1.5658,-0.4774 -2.3573,-0.7227 -1.3279,-0.414 -2.6618,-0.8276 -3.986,-1.1955 -0.1898,1.8833 -0.414,3.8286 -0.6343,5.7679 -0.2302,2.0203 -0.4617,4.0493 -0.6633,6.0446 1.6141,0.2855 3.2275,0.577 4.8392,0.8738 z"
       style="fill:#000000;fill-rule:evenodd"
       id="path18" />
    <path
       d="m 418.0233,469.0497 v -51.7504 l -0.3125,-0.0805 c -3.593,-0.935 -5.8714,-1.535 -9.6332,-2.4892 l -0.1246,-0.0364 v 30.2501 c -3.0281,-11.3852 -6.3896,-20.6796 -9.8483,-32.4062 -0.1918,0 -0.3891,-0.0456 -0.5867,-0.0765 l -10.8004,-2.3113 v 37.611 c -0.1365,8.7424 -0.2704,17.5731 -0.4068,26.9101 h 11.5752 v -31.8656 c 2.9361,10.9387 6.7804,21.5896 9.6107,31.9 l 10.5266,-0.002 z"
       style="fill:#df2a27;fill-rule:evenodd"
       id="path19" />
    <path
       d="m 418.0233,469.0497 v -51.7504 l -0.3125,-0.0805 -1.8319,-0.4769 -1.5389,-0.4008 c -1.9757,-0.5155 -3.8001,-0.9865 -6.2624,-1.6115 l -0.1246,-0.0364 v 30.2501 c -1.8055,-6.7879 -3.7297,-12.8339 -5.7204,-19.093 -1.3492,-4.2426 -2.7292,-8.5755 -4.1279,-13.3132 -0.1438,0 -0.2915,-0.0245 -0.439,-0.0516 -0.0481,-0.008 -0.0997,-0.0171 -0.1477,-0.0249 l -10.8004,-2.3113 v 37.611 l -0.004,0.2605 -0.033,2.1271 -0.0324,2.1371 c -0.1133,7.2613 -0.2242,14.6696 -0.3375,22.3854 h 11.5752 v -31.8656 c 1.5408,5.7433 3.3306,11.4064 5.0958,16.9828 1.5963,5.0439 3.1697,10.0209 4.5149,14.9172 l 10.5266,-0.002 z m 0,0 v 5.6531 l -10.5266,0.002 c -1.3452,-4.8963 -2.9186,-9.8733 -4.5149,-14.9172 -1.7652,-5.5764 -3.555,-11.2395 -5.0958,-16.9828 v 31.8656 h -11.5752 c 0.1133,-7.7158 0.2242,-15.1241 0.3375,-22.3854 l 0.0324,-2.1371 0.033,-2.1271 0.004,-0.2605 v -37.611 l 10.8004,2.3113 c 0.048,0.008 0.0996,0.0171 0.1477,0.0249 0.1475,0.0251 0.2952,0.0516 0.439,0.0516 1.3987,4.7377 2.7787,9.0706 4.1279,13.3132 1.9907,6.2591 3.9149,12.3051 5.7204,19.093 v -30.2501 l 0.1246,0.0364 c 2.4623,0.625 4.2867,1.096 6.2624,1.6115 l 1.5389,0.4008 1.8319,0.4769 0.3125,0.0805 z"
       style="fill:#000000;fill-rule:evenodd"
       id="path20" />
    <path
       d="m 382.6774,409.4675 -0.2717,-0.0407 c -4.1107,-0.7129 -12.0043,-1.9084 -12.0043,-1.9084 v 25.1065 H 361.423 V 406.443 l -1.5331,-0.2052 -9.6642,-1.3279 -1.5179,-0.2106 v 0.7222 c -0.1148,12.1825 -0.0633,23.4852 0,34.4873 v 34.7042 h 12.702 v -25.7833 h 8.9974 v 25.7833 h 12.2649 z"
       style="fill:#df2a27;fill-rule:evenodd"
       id="path21" />
    <path
       d="m 382.6774,409.4675 -0.2717,-0.0407 c -4.1107,-0.7129 -12.0043,-1.9084 -12.0043,-1.9084 v 25.1065 H 361.423 V 406.443 l -1.5331,-0.2052 -9.6642,-1.3279 -1.5179,-0.2106 v 0.7222 c -0.1148,12.1864 -0.0633,23.4819 0,34.4873 v 34.7042 h 12.702 v -25.7833 h 8.9974 v 25.7833 h 12.2649 z m 0,0 -0.005,65.1455 h -12.2649 v -25.7833 h -8.9974 v 25.7833 h -12.702 v -34.7042 c -0.0633,-11.0054 -0.1148,-22.3009 0,-34.4873 v -0.7222 l 1.5179,0.2106 9.6642,1.3279 1.5331,0.2052 v 26.1819 h 8.9784 v -25.1065 c 0,0 7.8936,1.1955 12.0043,1.9084 z"
       style="fill:#000000;fill-rule:evenodd"
       id="path22" />
    <path
       d="m 441.091,442.5173 c -1.9261,-2.0546 -3.0628,-3.7756 -3.0628,-5.2125 0,-1.5851 0.5869,-2.9745 2.3938,-2.8769 2.1252,0.1173 2.4705,2.7754 2.5721,4.5307 0,0.3943 0.0515,0.7972 0.0765,1.1744 h 10.6916 c -0.3278,-9.3938 -3.7658,-15.1716 -12.0123,-16.8259 -7.8514,-1.5748 -15.3845,1.9664 -15.5071,11.7438 -0.0766,6.0231 2.5908,11.4122 7.0463,15.7908 2.0198,2.0125 4.0421,3.9689 6.0691,5.8718 1.9399,1.8114 2.9343,3.0801 2.9015,4.4043 0,1.6208 -0.8737,2.9356 -2.6732,2.9356 -2.1636,0 -3.1218,-2.196 -3.2154,-4.0341 -0.033,-0.7393 -0.0654,-1.5715 -0.0712,-2.3818 H 425.555 v 1.6022 c -0.1287,9.9478 5.45,16.1645 13.606,16.1645 9.5265,0 14.8234,-6.0195 14.8061,-14.0913 0,-4.7733 -2.7462,-8.455 -6.9335,-12.7 -2.0177,-1.9965 -3.9978,-4.0277 -5.9426,-6.0956 z"
       style="fill:#df2a27;fill-rule:evenodd"
       id="path23" />
    <path
       d="m 441.0931,442.5173 c -1.9282,-2.0546 -3.0663,-3.7756 -3.0663,-5.2125 0,-1.5332 0.552,-2.8823 2.2229,-2.8823 0.0554,0 0.1129,0.002 0.1742,0.005 2.1252,0.1173 2.4686,2.7754 2.5716,4.5307 0,0.2683 0.0212,0.5381 0.0462,0.8031 0.01,0.1261 0.0211,0.2486 0.0289,0.3713 h 10.6916 c -0.3278,-9.3938 -3.7658,-15.1716 -12.0123,-16.8259 -6.9753,-1.3986 -13.7018,1.2423 -15.2005,8.7066 -0.1859,0.9371 -0.2934,1.9467 -0.3066,3.0372 -0.0766,6.0231 2.5908,11.4122 7.0444,15.7908 2.0217,2.0125 4.0454,3.9708 6.071,5.8718 1.9379,1.8114 2.9363,3.0801 2.9015,4.4043 0,1.6208 -0.8737,2.9356 -2.6713,2.9356 -2.1655,0 -3.1237,-2.196 -3.2173,-4.0341 -0.0349,-0.7393 -0.0633,-1.5715 -0.0712,-2.3818 H 425.555 v 1.6022 c -0.1266,9.8635 5.3562,16.0592 13.397,16.1626 0.0712,0.002 0.1384,0.002 0.2071,0.002 9.5131,0 14.808,-5.9984 14.808,-14.0511 v -0.0402 c 0,-4.7733 -2.7462,-8.455 -6.9335,-12.7 -2.0158,-1.9965 -3.9978,-4.0277 -5.9405,-6.0956 z m 0,0 c 1.9427,2.0679 3.9247,4.0991 5.9405,6.0956 4.1873,4.245 6.9335,7.9267 6.9335,12.7 v 0.0402 c 0,8.0527 -5.2949,14.0511 -14.808,14.0511 -0.0687,0 -0.1359,0 -0.2071,-0.002 -8.0408,-0.1034 -13.5236,-6.2991 -13.397,-16.1626 v -1.6022 h 10.7449 c 0.008,0.8103 0.0363,1.6425 0.0712,2.3818 0.0936,1.8381 1.0518,4.0341 3.2173,4.0341 1.7976,0 2.6713,-1.3148 2.6713,-2.9356 0.0348,-1.3242 -0.9636,-2.5929 -2.9015,-4.4043 -2.0256,-1.901 -4.0493,-3.8593 -6.071,-5.8718 -4.4536,-4.3786 -7.121,-9.7677 -7.0444,-15.7908 0.0132,-1.0905 0.1207,-2.1001 0.3066,-3.0372 1.4987,-7.4643 8.2252,-10.1052 15.2005,-8.7066 8.2465,1.6543 11.6845,7.4321 12.0123,16.8259 h -10.6916 c -0.008,-0.1227 -0.0192,-0.2452 -0.0289,-0.3713 -0.025,-0.265 -0.0462,-0.5348 -0.0462,-0.8031 -0.103,-1.7553 -0.4464,-4.4134 -2.5716,-4.5307 -0.0594,-0.004 -0.1168,-0.005 -0.1742,-0.005 -1.6709,0 -2.2229,1.3491 -2.2229,2.8823 0,1.4369 1.1381,3.1579 3.0663,5.2125 z"
       style="fill:#000000;fill-rule:evenodd"
       id="path24" />
    <path
       d="m 190.5236,414.1183 c -4.2349,1.0292 -8.4569,2.1233 -12.6593,3.2806 -3.0781,20.0629 -6.1864,39.2496 -9.3524,57.4455 l 11.8667,-0.0342 c 0.2222,-2.3014 0.6878,-6.9413 0.6878,-6.9413 h 7.0027 c 0,0 0.5863,4.5285 0.8659,6.9104 h 12.2536 c -3.5568,-20.9749 -7.1098,-41.1962 -10.665,-60.661 z m -8.4187,43.0206 c 0,0 1.386,-14.0928 2.0315,-21.1377 h 0.1287 c 0.8163,6.7918 2.6482,21.1377 2.6482,21.1377 z"
       style="fill:#df2a27;fill-rule:evenodd"
       id="path25" />
    <path
       d="m 190.5236,414.1183 c -4.2349,1.0292 -8.4569,2.1233 -12.6593,3.2806 -3.0781,20.0629 -6.1864,39.2496 -9.3524,57.4455 l 11.8667,-0.0342 c 0.2222,-2.3034 0.6857,-6.9413 0.6878,-6.9413 h 7.0027 c 0,0.006 -0.002,-0.003 0,0.004 0.0206,0.161 0.5921,4.5669 0.8659,6.9067 h 12.2536 c -3.5568,-20.9749 -7.1098,-41.1962 -10.665,-60.661 z m 0,0 c 3.5552,19.4648 7.1082,39.6861 10.665,60.661 H 188.935 c -0.2738,-2.3398 -0.8453,-6.7457 -0.8659,-6.9067 -0.002,-0.007 0,0.002 0,-0.004 h -7.0027 c -0.002,0 -0.4656,4.6379 -0.6878,6.9413 l -11.8667,0.0342 c 3.166,-18.1959 6.2743,-37.3826 9.3524,-57.4455 4.2024,-1.1573 8.4244,-2.2514 12.6593,-3.2806 z m -8.4187,43.0206 c 0,-0.002 1.386,-14.0908 2.0315,-21.1377 h 0.1287 c 0.8163,6.7957 2.6482,21.1344 2.6482,21.1377 z m 0,0 h 4.8084 c 0,-0.003 -1.8319,-14.342 -2.6482,-21.1377 h -0.1287 c -0.6455,7.0469 -2.0315,21.1359 -2.0315,21.1377 z"
       style="fill:#000000;fill-rule:evenodd"
       id="path26" />
    <path
       d="m 257.8807,403.8198 c -4.461,0.4885 -12.0059,1.2324 -16.5517,1.7151 -3.3228,23.7153 -6.598,46.3071 -9.8521,69.1467 h 13.2749 l 0.7222,-8.3592 h 8.7733 c 0,0 0.5863,5.5461 0.8949,8.3651 h 13.5051 c -3.555,-24.0621 -7.0793,-47.4169 -10.7666,-70.8677 z m -11.0423,49.7412 2.865,-25.5108 h 0.2262 l 3.4189,25.4823 z"
       style="fill:#df2a27;fill-rule:evenodd"
       id="path27" />
    <path
       d="m 257.8807,403.8198 c -2.5408,0.2777 -6.0746,0.6381 -9.4935,0.987 -2.5815,0.2625 -5.1018,0.519 -7.0582,0.7281 -2.2175,15.8216 -4.4095,31.1164 -6.5906,46.3478 -1.0901,7.6097 -2.1768,15.1854 -3.2615,22.7989 h 13.2749 l 0.7222,-8.3592 h 8.7733 c 0,0 0.5863,5.5461 0.8949,8.3651 h 13.5051 c -3.555,-24.0602 -7.0793,-47.4188 -10.7666,-70.8677 z m 0,0 c 3.6873,23.4489 7.2116,46.8075 10.7666,70.8677 h -13.5051 c -0.3086,-2.819 -0.8949,-8.3651 -0.8949,-8.3651 h -8.7733 l -0.7222,8.3592 h -13.2749 c 1.0847,-7.6135 2.1714,-15.1892 3.2615,-22.7989 2.1811,-15.2314 4.3731,-30.5262 6.5906,-46.3478 1.9564,-0.2091 4.4767,-0.4656 7.0582,-0.7281 3.4189,-0.3489 6.9527,-0.7093 9.4935,-0.987 z m -11.0423,49.7412 2.865,-25.5108 h 0.2262 l 3.4189,25.4823 z m 0,0 6.5101,-0.0285 -3.4189,-25.4823 h -0.2262 z"
       style="fill:#000000;fill-rule:evenodd"
       id="path28" />
    <path
       d="m 327.6333,402.4569 c -9.6107,-0.3351 -17.1384,7.3555 -17.1727,20.705 -0.0363,10.304 -0.0707,20.6103 -0.1016,30.9147 -0.0382,13.2422 7.9089,21.4043 17.3509,21.3871 9.4399,-0.0212 16.6399,-8.5392 16.7743,-21.4193 0.1071,-10.0593 0.134,-19.5763 0.2414,-29.6334 0.1339,-12.9831 -6.1706,-21.5764 -17.0923,-21.9541 z m 3.1237,55.5965 c 0,1.621 -1.3143,2.9357 -2.9359,2.9357 l -0.5287,-0.002 c -1.6215,0.002 -2.9362,-1.3129 -2.9362,-2.9339 v -38.2227 c 0,-1.6208 1.3147,-2.9357 2.9362,-2.9357 h 0.5287 c 1.6216,0 2.9359,1.3149 2.9359,2.9357 z"
       style="fill:#df2a27;fill-rule:evenodd"
       id="path29" />
    <path
       d="m 327.6333,402.4569 c -9.3365,-0.3258 -16.7091,6.9242 -17.1516,19.5781 -0.0134,0.3714 -0.0211,0.7432 -0.0211,1.1269 l -0.1016,30.9147 c -0.0382,13.2039 7.8627,21.3581 17.2704,21.3851 0.027,0.002 0.0539,0.002 0.0805,0.002 9.4399,-0.0212 16.6399,-8.5392 16.7743,-21.4193 0.0535,-5.0307 0.0859,-9.9214 0.1207,-14.8155 0.0343,-4.8967 0.0667,-9.7815 0.1207,-14.814 v -0.004 c 0.1339,-12.9831 -6.1706,-21.5764 -17.0923,-21.9541 z m 0,0 c 10.9217,0.3777 17.2262,8.971 17.0923,21.9541 v 0.004 c -0.054,5.0325 -0.0864,9.9173 -0.1207,14.814 -0.0348,4.8941 -0.0672,9.7848 -0.1207,14.8155 -0.1344,12.8801 -7.3344,21.3981 -16.7743,21.4173 -0.0266,0 -0.0535,0 -0.0805,0 -9.4077,-0.027 -17.3086,-8.1812 -17.2704,-21.3851 l 0.1016,-30.9147 c 0,-0.3837 0.008,-0.7555 0.0211,-1.1269 0.4425,-12.6539 7.8151,-19.9039 17.1516,-19.5781 z m 3.1237,55.5965 c 0,1.621 -1.3143,2.9357 -2.9359,2.9357 l -0.5287,-0.002 c -1.6215,0.002 -2.9362,-1.3129 -2.9362,-2.9339 v -38.2227 c 0,-1.6208 1.3147,-2.9357 2.9362,-2.9357 h 0.5287 c 1.6216,0 2.9359,1.3149 2.9359,2.9357 z m 0,0 v -38.2227 c 0,-1.6208 -1.3143,-2.9357 -2.9359,-2.9357 h -0.5287 c -1.6215,0 -2.9362,1.3149 -2.9362,2.9357 v 38.2227 c 0,1.621 1.3147,2.9357 2.9362,2.9339 l 0.5287,0.002 c 1.6216,0 2.9359,-1.3147 2.9359,-2.9357 z"
       style="fill:#000000;fill-rule:evenodd"
       id="path30" />
    <path
       d="m 293.7725,402.2155 v 57.2155 c 0,1.0352 -0.7432,1.9183 -1.7607,2.0988 -0.054,0.003 -0.1056,0.003 -0.1595,0 h -0.3449 c -1.1725,-0.002 -2.1252,-0.9547 -2.1272,-2.1252 v -7.2502 c -3.6295,0 -8.1232,0.0635 -11.7413,0.1154 v 7.5812 c 0,9.1412 5.5843,15.4248 13.9318,15.4248 0.7128,-0.004 1.4257,-0.0497 2.1311,-0.1437 9.1374,-0.6609 12.9184,-6.7207 12.9184,-20.425 l 0.0884,-52.4666 z"
       style="fill:#df2a27;fill-rule:evenodd"
       id="path31" />
    <path
       d="m 293.7725,402.2155 v 57.2155 c 0,1.0352 -0.7432,1.9183 -1.7607,2.0988 -0.054,0.003 -0.1056,0.003 -0.1595,0 h -0.3449 c -1.1725,-0.002 -2.1252,-0.9547 -2.1272,-2.1252 v -7.2502 c -3.6295,0 -8.1252,0.0635 -11.7413,0.1154 v 7.5812 c 0,9.1412 5.5843,15.4248 13.9318,15.4248 0.7128,-0.004 1.4257,-0.0497 2.1311,-0.1437 9.1374,-0.6609 12.9184,-6.7207 12.9184,-20.425 l 0.0884,-52.4666 z m 0,0 12.9361,0.025 -0.0884,52.4666 c 0,13.7043 -3.781,19.7641 -12.9184,20.425 -0.7054,0.094 -1.4183,0.1397 -2.1311,0.1437 -8.3475,0 -13.9318,-6.2836 -13.9318,-15.4248 v -7.5812 c 3.6161,-0.0519 8.1118,-0.1154 11.7413,-0.1154 v 7.2502 c 0.002,1.1705 0.9547,2.1233 2.1272,2.1252 h 0.3449 c 0.0539,0.003 0.1055,0.003 0.1595,0 1.0175,-0.1805 1.7607,-1.0636 1.7607,-2.0988 z"
       style="fill:#000000;fill-rule:evenodd"
       id="path32" />
    <path
       d="m 266.6809,377.1912 -2.2228,-18.0023 5.3292,-0.6574 c 3.5952,-0.4386 6.389,1.0925 6.8109,4.5116 0.4216,3.4149 -1.9202,5.7949 -5.5136,6.2413 l -1.4027,0.1687 0.8987,7.2535 z m 4.0283,-11.0325 c 1.33,-0.1128 2.2651,-1.3549 2.0138,-2.6638 -0.1648,-1.3506 -1.1744,-1.9776 -2.5638,-1.8088 l -1.3991,0.1687 0.5519,4.4766 z"
       style="fill:#ffffff;fill-rule:evenodd"
       id="path33" />
    <path
       d="m 266.6809,377.1912 -2.2228,-18.0023 5.3292,-0.6574 c 3.5952,-0.4386 6.389,1.0925 6.8109,4.5116 0.4216,3.4149 -1.9202,5.7949 -5.5136,6.2413 l -1.4027,0.1687 0.8987,7.2535 z m 0,0 3.8997,-0.4846 -0.8987,-7.2535 1.4027,-0.1687 c 3.5934,-0.4464 5.9352,-2.8264 5.5136,-6.2413 -0.4219,-3.4191 -3.2157,-4.9502 -6.8109,-4.5116 l -5.3292,0.6574 z m 4.0283,-11.0325 c 1.2495,-0.1054 2.1503,-1.2093 2.0468,-2.4258 -0.006,-0.0806 -0.0177,-0.159 -0.033,-0.238 -0.1648,-1.3506 -1.1744,-1.9776 -2.5638,-1.8088 l -1.3991,0.1687 0.5519,4.4766 z m 0,0 -1.3972,0.1727 -0.5519,-4.4766 1.3991,-0.1687 c 1.3894,-0.1688 2.399,0.4582 2.5638,1.8088 0.0173,0.079 0.027,0.1594 0.033,0.238 0.1035,1.2165 -0.7973,2.3204 -2.0468,2.4258 z"
       style="fill:#000000;fill-rule:evenodd"
       id="path34" />
    <path
       d="m 280.2871,375.5202 -1.0656,-18.1097 3.9419,-0.2261 1.0562,18.1004 z"
       style="fill:#ffffff;fill-rule:evenodd"
       id="path35" />
    <path
       d="m 280.2871,375.5202 -1.0656,-18.1097 3.9419,-0.2261 1.0562,18.1004 z m 0,0 3.9325,-0.2354 -1.0562,-18.1004 -3.9419,0.2261 z"
       style="fill:#000000;fill-rule:evenodd"
       id="path36" />
    <path
       d="m 288.2361,375.0086 -0.0304,-2.6904 6.5288,-12.2938 -6.4582,0.0765 -0.0402,-3.229 11.0252,-0.1281 0.0304,2.4833 -6.6053,12.5048 6.9369,-0.0844 0.0384,3.2311 z"
       style="fill:#ffffff;fill-rule:evenodd"
       id="path37" />
    <path
       d="m 288.2361,375.0086 -0.0304,-2.6904 6.5288,-12.2938 -6.4582,0.0765 -0.0402,-3.229 11.0252,-0.1281 0.0304,2.4833 -6.6053,12.5048 6.9369,-0.0844 0.0384,3.2311 z m 0,0 11.4256,-0.13 -0.0384,-3.2311 -6.9369,0.0844 6.6053,-12.5048 -0.0304,-2.4833 -11.0252,0.1281 0.0402,3.229 6.4582,-0.0765 -6.5288,12.2938 z"
       style="fill:#000000;fill-rule:evenodd"
       id="path38" />
    <path
       d="m 303.1478,374.8325 0.1339,-2.687 7.2765,-11.8719 -6.4292,-0.3317 0.159,-3.2212 11.0153,0.5481 -0.1266,2.4819 -7.3722,12.0769 6.9257,0.3429 -0.1551,3.2232 z"
       style="fill:#ffffff;fill-rule:evenodd"
       id="path39" />
    <path
       d="m 303.1478,374.8325 0.1339,-2.687 7.2765,-11.8719 -6.4292,-0.3317 0.159,-3.2212 11.0153,0.5481 -0.1266,2.4819 -7.3722,12.0769 6.9257,0.3429 -0.1551,3.2232 z m 0,0 11.4273,0.5612 0.1551,-3.2232 -6.9257,-0.3429 7.3722,-12.0769 0.1266,-2.4819 -11.0153,-0.5481 -0.159,3.2212 6.4292,0.3317 -7.2765,11.8719 z"
       style="fill:#000000;fill-rule:evenodd"
       id="path40" />
    <path
       d="m 326.0408,376.8159 -0.1304,-2.2459 -3.6447,-0.4714 -0.6863,2.1483 -3.913,-0.4985 6.6745,-17.4391 3.9381,0.5058 1.8495,18.5184 z m -0.5327,-12.3281 h -0.0614 l -2.2288,6.7972 2.6238,0.3355 z"
       style="fill:#ffffff;fill-rule:evenodd"
       id="path41" />
    <path
       d="m 326.0408,376.8159 -0.1304,-2.2459 -3.6447,-0.4714 -0.6863,2.1483 -3.913,-0.4985 6.6745,-17.4391 3.9381,0.5058 1.8495,18.5184 z m 0,0 4.0877,0.5176 -1.8495,-18.5184 -3.9381,-0.5058 -6.6745,17.4391 3.913,0.4985 0.6863,-2.1483 3.6447,0.4714 z m -0.5327,-12.3281 h -0.0614 l -2.2288,6.7972 2.6238,0.3355 z m 0,0 0.3336,7.1327 -2.6238,-0.3355 2.2288,-6.7972 z"
       style="fill:#000000;fill-rule:evenodd"
       id="path42" />
  </g>
</svg>
