<?xml version="1.0" encoding="UTF-8"?>
<svg version="1.1" xmlns="http://www.w3.org/2000/svg" width="1024" height="1024">
<path d="M0 0 C337.92 0 675.84 0 1024 0 C1024 337.92 1024 675.84 1024 1024 C686.08 1024 348.16 1024 0 1024 C0 686.08 0 348.16 0 0 Z " fill="#02734D" transform="translate(0,0)"/>
<path d="M0 0 C2.8370018 0.59282767 5.69624913 0.9945005 8.56445312 1.40527344 C16.46304581 2.67708073 23.56864575 5.51604917 29.93945312 10.40527344 C30.88820313 11.12714844 31.83695313 11.84902344 32.81445312 12.59277344 C35.76816512 16.50209814 35.40367852 19.67017444 34.93945312 24.40527344 C36.08929687 24.53675781 37.23914063 24.66824219 38.42382812 24.80371094 C53.19497987 26.6646945 67.03539971 31.23842269 80.93945312 36.40527344 C79.29556805 39.87270815 77.36729444 42.32836406 74.75195312 45.15527344 C73.95144531 46.02925781 73.1509375 46.90324219 72.32617188 47.80371094 C71.53855469 48.66222656 70.7509375 49.52074219 69.93945312 50.40527344 C68.64227582 51.85870728 67.3500082 53.31654975 66.06445312 54.78027344 C65.53078125 55.38613281 64.99710938 55.99199219 64.44726562 56.61621094 C62.86560397 58.49289756 61.40480838 60.43704531 59.93945312 62.40527344 C60.82431396 62.47439941 60.82431396 62.47439941 61.72705078 62.54492188 C68.37444662 63.12882352 74.79368142 64.25796522 81.31445312 65.65527344 C82.35230957 65.87417236 83.39016602 66.09307129 84.45947266 66.31860352 C92.07207552 67.94721944 99.63365067 69.74462522 107.16748047 71.70507812 C111.1200568 72.72966228 115.06280185 73.64816959 119.07226562 74.42480469 C129.5827231 76.47550179 139.75119965 80.15000926 149.93945312 83.40527344 C151.35903666 83.85746211 152.77863392 84.30960771 154.19824219 84.76171875 C158.21206639 86.04098271 162.22359021 87.32729592 166.23406982 88.61700439 C167.84778312 89.13506617 169.4620667 89.65135551 171.07696533 90.16571045 C185.11981738 94.64186726 198.74966483 99.64816182 212.00195312 106.15527344 C216.91625161 108.55817654 221.68297985 110.82412627 226.93945312 112.40527344 C226.93945312 113.06527344 226.93945312 113.72527344 226.93945312 114.40527344 C227.82117188 114.67339844 228.70289063 114.94152344 229.61132812 115.21777344 C239.74984703 118.83527314 249.62849827 126.4957708 255.34570312 135.65917969 C259.64144558 144.7550889 261.39305059 154.27164523 261.31176758 164.25756836 C261.31541824 165.28020279 261.31906891 166.30283722 261.3228302 167.35646057 C261.33086381 170.6997292 261.31738831 174.04250219 261.30273438 177.38574219 C261.30221503 179.72740173 261.30273562 182.06906171 261.304245 184.41072083 C261.3041556 189.3017941 261.29379096 194.19270141 261.27563477 199.08374023 C261.25291125 205.34126556 261.25241397 211.59854958 261.25915241 217.85610485 C261.26249875 222.68518709 261.25585034 227.51421466 261.24602318 232.34328651 C261.24218523 234.65048245 261.24101711 236.95768447 261.24260902 239.26488304 C261.2429813 242.49042671 261.23031505 245.71566456 261.21411133 248.94116211 C261.21782745 250.35886398 261.21782745 250.35886398 261.22161865 251.8052063 C261.13593847 262.53215807 258.40564352 271.36369458 251.08398438 279.45605469 C244.11699986 285.95022987 235.94023281 289.52485488 226.37489593 289.5340746 C225.48205953 289.5373468 224.58922312 289.54061899 223.66933107 289.54399034 C222.20892845 289.54176491 222.20892845 289.54176491 220.71902275 289.53949451 C219.67482253 289.54184674 218.6306223 289.54419897 217.55477965 289.54662248 C214.03267437 289.55331443 210.51060598 289.5528542 206.98849487 289.55244446 C204.44701682 289.55574295 201.90553929 289.55946849 199.36406243 289.56358594 C193.09689197 289.57256268 186.82973256 289.57683382 180.56255655 289.5791049 C173.05694423 289.5820672 165.55134127 289.59076473 158.04573386 289.59951918 C139.90435475 289.62036288 121.76297402 289.63083304 103.62158574 289.63964879 C95.04014332 289.64385517 86.45870161 289.64907716 77.87725979 289.65433332 C48.50427443 289.67222293 19.13128887 289.68721937 -10.24170113 289.69465351 C-12.08571462 289.69512827 -13.92972811 289.69560416 -15.7737416 289.69608117 C-17.14544169 289.69643574 -17.14544169 289.69643574 -18.54485291 289.69679746 C-23.17801392 289.69799867 -27.81117493 289.69921411 -32.44433594 289.70043945 C-33.3638011 289.7006796 -34.28326626 289.70091975 -35.230594 289.70116718 C-65.04592664 289.70906118 -94.86121952 289.73249539 -124.6765348 289.7649954 C-156.19622189 289.79929055 -187.71588571 289.81900433 -219.23559177 289.82229775 C-222.69549172 289.82271529 -226.15539166 289.82319486 -229.6152916 289.82372093 C-230.46722129 289.82384412 -231.31915098 289.82396732 -232.19689672 289.82409424 C-245.90857923 289.82642657 -259.62021555 289.84208831 -273.33188159 289.86256278 C-287.11338848 289.88281512 -300.89483988 289.88830086 -314.67635889 289.87879214 C-322.86364135 289.873575 -331.05073909 289.87946471 -339.23799497 289.90132682 C-345.35198334 289.91641885 -351.46576391 289.91059868 -357.5797628 289.8966563 C-360.05287794 289.89426999 -362.52601079 289.89865643 -364.99909879 289.91048495 C-368.36140531 289.92557094 -371.7227859 289.91595301 -375.08506966 289.90025806 C-376.04462441 289.91048027 -377.00417916 289.92070248 -377.99281132 289.93123445 C-388.11903878 289.82811143 -397.75593343 286.61356231 -405.06054688 279.40527344 C-412.31052395 270.64138004 -415.67727218 261.1630998 -415.578125 249.86938477 C-415.58513428 248.86789398 -415.59214355 247.8664032 -415.59936523 246.83456421 C-415.61684577 243.55185496 -415.60535295 240.27002143 -415.59179688 236.98730469 C-415.59449569 234.6834039 -415.59838134 232.37950422 -415.60339355 230.0756073 C-415.60927611 225.2549654 -415.60076942 220.43462086 -415.58203125 215.61401367 C-415.55930723 209.47244063 -415.57233176 203.33156947 -415.59632111 197.19002247 C-415.61086754 192.43268171 -415.60613165 187.67550359 -415.59580994 182.91815758 C-415.59316368 180.65581871 -415.59633736 178.3934645 -415.60572815 176.13114357 C-415.66123143 158.99575479 -415.34518671 141.43356384 -403.18554688 127.96777344 C-393.95783973 119.26852529 -381.7086579 112.2050519 -370.06054688 107.40527344 C-368.10449204 106.5622787 -366.14880357 105.71843366 -364.19335938 104.87402344 C-338.11926889 93.77034267 -311.27453528 84.75794176 -283.93554688 77.28027344 C-283.03707031 77.02890625 -282.13859375 76.77753906 -281.21289062 76.51855469 C-275.69676654 75.00696258 -270.20063525 73.83276735 -264.56591797 72.85693359 C-261.31343929 72.27058731 -258.13377539 71.48579292 -254.93554688 70.65527344 C-253.58161812 70.31058758 -252.22743153 69.96691354 -250.87304688 69.62402344 C-250.12667969 69.43453125 -249.3803125 69.24503906 -248.61132812 69.04980469 C-243.39112206 67.73076334 -238.16509147 66.43675015 -232.93554688 65.15527344 C-231.85644043 64.88489258 -230.77733398 64.61451172 -229.66552734 64.3359375 C-228.63830566 64.08553711 -227.61108398 63.83513672 -226.55273438 63.57714844 C-225.63862793 63.35124023 -224.72452148 63.12533203 -223.78271484 62.89257812 C-220.82556713 62.3632089 -218.05853049 62.32262364 -215.06054688 62.40527344 C-217.09221617 58.73412417 -219.2829571 55.98803848 -222.31054688 53.09277344 C-225.94627639 49.54600957 -229.35156554 45.89450692 -232.65039062 42.03417969 C-233.73683786 40.77919771 -234.88680343 39.57901688 -236.06054688 38.40527344 C-236.06054688 37.41527344 -236.06054688 36.42527344 -236.06054688 35.40527344 C-229.97352919 33.64979196 -223.88294425 31.90727081 -217.78808594 30.17919922 C-216.1097881 29.70299047 -214.4319481 29.22516032 -212.75488281 28.74462891 C-205.198866 26.58652819 -197.93204468 24.77569686 -190.06054688 24.40527344 C-190.16496094 23.44427734 -190.16496094 23.44427734 -190.27148438 22.46386719 C-190.55686574 17.90456008 -190.64487591 14.33872878 -187.81054688 10.59277344 C-180.08677039 2.9588083 -168.66655083 1.44544318 -158.390625 -0.20458984 C-155.92314497 -0.61773245 -153.46982497 -1.08384149 -151.01367188 -1.55957031 C-101.4652094 -11.00911869 -49.28521691 -10.96514939 0 0 Z " fill="#FDFBFB" transform="translate(578.060546875,371.5947265625)"/>
<path d="M0 0 C2.8370018 0.59282767 5.69624913 0.9945005 8.56445312 1.40527344 C16.46304581 2.67708073 23.56864575 5.51604917 29.93945312 10.40527344 C30.88820313 11.12714844 31.83695313 11.84902344 32.81445312 12.59277344 C35.76816512 16.50209814 35.40367852 19.67017444 34.93945312 24.40527344 C36.08929687 24.53675781 37.23914063 24.66824219 38.42382812 24.80371094 C53.19497987 26.6646945 67.03539971 31.23842269 80.93945312 36.40527344 C79.29556805 39.87270815 77.36729444 42.32836406 74.75195312 45.15527344 C73.95144531 46.02925781 73.1509375 46.90324219 72.32617188 47.80371094 C71.53855469 48.66222656 70.7509375 49.52074219 69.93945312 50.40527344 C68.64227582 51.85870728 67.3500082 53.31654975 66.06445312 54.78027344 C65.53078125 55.38613281 64.99710938 55.99199219 64.44726562 56.61621094 C62.86560397 58.49289756 61.40480838 60.43704531 59.93945312 62.40527344 C60.82431396 62.47439941 60.82431396 62.47439941 61.72705078 62.54492188 C68.37444662 63.12882352 74.79368142 64.25796522 81.31445312 65.65527344 C82.35230957 65.87417236 83.39016602 66.09307129 84.45947266 66.31860352 C92.07207552 67.94721944 99.63365067 69.74462522 107.16748047 71.70507812 C111.1200568 72.72966228 115.06280185 73.64816959 119.07226562 74.42480469 C129.5827231 76.47550179 139.75119965 80.15000926 149.93945312 83.40527344 C151.35903666 83.85746211 152.77863392 84.30960771 154.19824219 84.76171875 C158.21206639 86.04098271 162.22359021 87.32729592 166.23406982 88.61700439 C167.84778312 89.13506617 169.4620667 89.65135551 171.07696533 90.16571045 C185.11981738 94.64186726 198.74966483 99.64816182 212.00195312 106.15527344 C216.91625161 108.55817654 221.68297985 110.82412627 226.93945312 112.40527344 C226.93945312 113.06527344 226.93945312 113.72527344 226.93945312 114.40527344 C227.82117188 114.67339844 228.70289063 114.94152344 229.61132812 115.21777344 C239.74984703 118.83527314 249.62849827 126.4957708 255.34570312 135.65917969 C259.64144558 144.7550889 261.39305059 154.27164523 261.31176758 164.25756836 C261.31541824 165.28020279 261.31906891 166.30283722 261.3228302 167.35646057 C261.33086381 170.6997292 261.31738831 174.04250219 261.30273438 177.38574219 C261.30221503 179.72740173 261.30273562 182.06906171 261.304245 184.41072083 C261.3041556 189.3017941 261.29379096 194.19270141 261.27563477 199.08374023 C261.25291125 205.34126556 261.25241397 211.59854958 261.25915241 217.85610485 C261.26249875 222.68518709 261.25585034 227.51421466 261.24602318 232.34328651 C261.24218523 234.65048245 261.24101711 236.95768447 261.24260902 239.26488304 C261.2429813 242.49042671 261.23031505 245.71566456 261.21411133 248.94116211 C261.21782745 250.35886398 261.21782745 250.35886398 261.22161865 251.8052063 C261.13593847 262.53215807 258.40564352 271.36369458 251.08398438 279.45605469 C244.11699986 285.95022987 235.94023281 289.52485488 226.37489593 289.5340746 C225.48205953 289.5373468 224.58922312 289.54061899 223.66933107 289.54399034 C222.20892845 289.54176491 222.20892845 289.54176491 220.71902275 289.53949451 C219.67482253 289.54184674 218.6306223 289.54419897 217.55477965 289.54662248 C214.03267437 289.55331443 210.51060598 289.5528542 206.98849487 289.55244446 C204.44701682 289.55574295 201.90553929 289.55946849 199.36406243 289.56358594 C193.09689197 289.57256268 186.82973256 289.57683382 180.56255655 289.5791049 C173.05694423 289.5820672 165.55134127 289.59076473 158.04573386 289.59951918 C139.90435475 289.62036288 121.76297402 289.63083304 103.62158574 289.63964879 C95.04014332 289.64385517 86.45870161 289.64907716 77.87725979 289.65433332 C48.50427443 289.67222293 19.13128887 289.68721937 -10.24170113 289.69465351 C-12.08571462 289.69512827 -13.92972811 289.69560416 -15.7737416 289.69608117 C-17.14544169 289.69643574 -17.14544169 289.69643574 -18.54485291 289.69679746 C-23.17801392 289.69799867 -27.81117493 289.69921411 -32.44433594 289.70043945 C-33.3638011 289.7006796 -34.28326626 289.70091975 -35.230594 289.70116718 C-65.04592664 289.70906118 -94.86121952 289.73249539 -124.6765348 289.7649954 C-156.19622189 289.79929055 -187.71588571 289.81900433 -219.23559177 289.82229775 C-222.69549172 289.82271529 -226.15539166 289.82319486 -229.6152916 289.82372093 C-230.46722129 289.82384412 -231.31915098 289.82396732 -232.19689672 289.82409424 C-245.90857923 289.82642657 -259.62021555 289.84208831 -273.33188159 289.86256278 C-287.11338848 289.88281512 -300.89483988 289.88830086 -314.67635889 289.87879214 C-322.86364135 289.873575 -331.05073909 289.87946471 -339.23799497 289.90132682 C-345.35198334 289.91641885 -351.46576391 289.91059868 -357.5797628 289.8966563 C-360.05287794 289.89426999 -362.52601079 289.89865643 -364.99909879 289.91048495 C-368.36140531 289.92557094 -371.7227859 289.91595301 -375.08506966 289.90025806 C-376.04462441 289.91048027 -377.00417916 289.92070248 -377.99281132 289.93123445 C-388.11903878 289.82811143 -397.75593343 286.61356231 -405.06054688 279.40527344 C-412.31052395 270.64138004 -415.67727218 261.1630998 -415.578125 249.86938477 C-415.58513428 248.86789398 -415.59214355 247.8664032 -415.59936523 246.83456421 C-415.61684577 243.55185496 -415.60535295 240.27002143 -415.59179688 236.98730469 C-415.59449569 234.6834039 -415.59838134 232.37950422 -415.60339355 230.0756073 C-415.60927611 225.2549654 -415.60076942 220.43462086 -415.58203125 215.61401367 C-415.55930723 209.47244063 -415.57233176 203.33156947 -415.59632111 197.19002247 C-415.61086754 192.43268171 -415.60613165 187.67550359 -415.59580994 182.91815758 C-415.59316368 180.65581871 -415.59633736 178.3934645 -415.60572815 176.13114357 C-415.66123143 158.99575479 -415.34518671 141.43356384 -403.18554688 127.96777344 C-393.95783973 119.26852529 -381.7086579 112.2050519 -370.06054688 107.40527344 C-368.10449204 106.5622787 -366.14880357 105.71843366 -364.19335938 104.87402344 C-338.11926889 93.77034267 -311.27453528 84.75794176 -283.93554688 77.28027344 C-283.03707031 77.02890625 -282.13859375 76.77753906 -281.21289062 76.51855469 C-275.69676654 75.00696258 -270.20063525 73.83276735 -264.56591797 72.85693359 C-261.31343929 72.27058731 -258.13377539 71.48579292 -254.93554688 70.65527344 C-253.58161812 70.31058758 -252.22743153 69.96691354 -250.87304688 69.62402344 C-250.12667969 69.43453125 -249.3803125 69.24503906 -248.61132812 69.04980469 C-243.39112206 67.73076334 -238.16509147 66.43675015 -232.93554688 65.15527344 C-231.85644043 64.88489258 -230.77733398 64.61451172 -229.66552734 64.3359375 C-228.63830566 64.08553711 -227.61108398 63.83513672 -226.55273438 63.57714844 C-225.63862793 63.35124023 -224.72452148 63.12533203 -223.78271484 62.89257812 C-220.82556713 62.3632089 -218.05853049 62.32262364 -215.06054688 62.40527344 C-217.09221617 58.73412417 -219.2829571 55.98803848 -222.31054688 53.09277344 C-225.94627639 49.54600957 -229.35156554 45.89450692 -232.65039062 42.03417969 C-233.73683786 40.77919771 -234.88680343 39.57901688 -236.06054688 38.40527344 C-236.06054688 37.41527344 -236.06054688 36.42527344 -236.06054688 35.40527344 C-229.97352919 33.64979196 -223.88294425 31.90727081 -217.78808594 30.17919922 C-216.1097881 29.70299047 -214.4319481 29.22516032 -212.75488281 28.74462891 C-205.198866 26.58652819 -197.93204468 24.77569686 -190.06054688 24.40527344 C-190.16496094 23.44427734 -190.16496094 23.44427734 -190.27148438 22.46386719 C-190.55686574 17.90456008 -190.64487591 14.33872878 -187.81054688 10.59277344 C-180.08677039 2.9588083 -168.66655083 1.44544318 -158.390625 -0.20458984 C-155.92314497 -0.61773245 -153.46982497 -1.08384149 -151.01367188 -1.55957031 C-101.4652094 -11.00911869 -49.28521691 -10.96514939 0 0 Z M-129.61279297 70.02050781 C-132.88087887 70.38522268 -136.14967519 70.70978669 -139.42382812 71.01464844 C-140.84199829 71.14734131 -140.84199829 71.14734131 -142.28881836 71.28271484 C-143.16223877 71.36440918 -144.03565918 71.44610352 -144.93554688 71.53027344 C-150.57736983 72.0346312 -150.57736983 72.0346312 -156.06054688 73.40527344 C-155.30336373 76.58224166 -155.30336373 76.58224166 -152.56054688 78.40527344 C-150.06054688 80.40527344 -150.06054688 80.40527344 -149.06054688 83.40527344 C-150.95160156 83.40914062 -150.95160156 83.40914062 -152.88085938 83.41308594 C-165.86695637 83.63117115 -177.28138292 85.9020429 -189.67138672 89.69042969 C-194.42212365 91.11186416 -199.242945 92.23342433 -204.06054688 93.40527344 C-203.73054687 88.12527344 -203.40054688 82.84527344 -203.06054688 77.40527344 C-207.8709266 77.40527344 -211.0634933 77.43252592 -215.52539062 78.43652344 C-216.55760742 78.66629883 -217.58982422 78.89607422 -218.65332031 79.1328125 C-219.75708008 79.38772461 -220.86083984 79.64263672 -221.99804688 79.90527344 C-223.15723633 80.16791992 -224.31642578 80.43056641 -225.51074219 80.70117188 C-241.30594412 84.3204698 -257.17865946 88.00282921 -272.7590332 92.46435547 C-276.31487898 93.47775705 -279.88382446 94.25137757 -283.49804688 95.03027344 C-293.84721963 97.38340422 -303.78875688 100.86431859 -313.81445312 104.31103516 C-317.09298169 105.41620701 -320.38473939 106.46634844 -323.68554688 107.50292969 C-339.77684442 112.60214482 -354.913967 118.96757343 -370.06054688 126.40527344 C-370.98367676 126.8514502 -371.90680664 127.29762695 -372.85791016 127.75732422 C-381.71224674 132.08585739 -392.01441182 138.01448984 -395.95893955 147.58502769 C-397.87600691 153.79063951 -398.49647055 159.3933968 -398.46459961 165.86865234 C-398.47146286 166.86188004 -398.47832611 167.85510773 -398.48539734 168.87843323 C-398.50355418 172.12971685 -398.49984496 175.380513 -398.49414062 178.63183594 C-398.49870652 180.90766556 -398.5040133 183.18349381 -398.51002502 185.45932007 C-398.51893336 190.21512476 -398.51655745 194.9707613 -398.5065918 199.7265625 C-398.49508287 205.8105089 -398.51535521 211.89387654 -398.54450893 217.97774696 C-398.56287866 222.67216656 -398.56257726 227.36644749 -398.55687141 232.06089401 C-398.55671842 234.30390614 -398.56274497 236.54692779 -398.57516289 238.78990555 C-398.59009186 241.92719898 -398.57938244 245.06342293 -398.56225586 248.20068359 C-398.57192383 249.11933701 -398.5815918 250.03799042 -398.59155273 250.98448181 C-398.51679688 257.54627004 -397.20983412 263.08861432 -392.57788754 267.96673012 C-388.75489677 271.29656017 -385.74166076 272.52894882 -380.75606006 272.53522527 C-379.42746325 272.5405179 -379.42746325 272.5405179 -378.0720261 272.54591745 C-377.09609317 272.54471968 -376.12016024 272.5435219 -375.11465359 272.54228783 C-374.0758382 272.54493965 -373.03702282 272.54759148 -371.96672818 272.55032367 C-368.4509086 272.55804413 -364.93512378 272.55857689 -361.41929626 272.55917358 C-358.88708111 272.5631864 -356.3548666 272.56762431 -353.82265288 272.57245314 C-347.57066468 272.58318494 -341.31868632 272.58917939 -335.06669065 272.59316202 C-327.58090675 272.59816779 -320.09513377 272.6088948 -312.60935632 272.61964375 C-294.51362637 272.64528494 -276.41789217 272.66031154 -258.32214926 272.67315422 C-252.32915194 272.67740798 -246.33615494 272.68197368 -240.34315801 272.68673754 C-208.48682347 272.71199704 -176.63048843 272.73404801 -144.77414608 272.74646568 C-137.39182979 272.74938708 -130.00951352 272.75235458 -122.62719727 272.75537109 C-121.25143926 272.75592746 -121.25143926 272.75592746 -119.84788815 272.75649506 C-90.10919331 272.7686513 -60.37055764 272.79959601 -30.63189058 272.84129262 C-0.06583322 272.88407122 30.50019288 272.91070556 61.06628099 272.9159404 C65.38270805 272.91668086 69.69913505 272.91759154 74.01556206 272.91859818 C75.28984778 272.9188841 75.28984778 272.9188841 76.58987665 272.9191758 C90.26654578 272.9226906 103.94314085 272.94299418 117.61978277 272.96939481 C131.36567681 272.99552913 145.11148521 273.00327124 158.85740054 272.99229352 C167.02492795 272.98631344 175.19216501 272.9942454 183.35964851 273.02212436 C189.45724368 273.04139845 195.55451485 273.03456669 201.65212899 273.01755519 C204.11990497 273.014744 206.58770803 273.02041538 209.05544031 273.03536813 C212.40834616 273.05444421 215.75979941 273.04270358 219.11267185 273.02330589 C220.07221662 273.03615511 221.03176139 273.04900433 222.02038327 273.06224293 C228.79872647 272.9759978 234.36497354 271.38537225 239.93945312 267.40527344 C243.41526191 262.62418201 245.05439814 257.25885059 245.07989502 251.36720276 C245.08560516 250.57273239 245.09131531 249.77826202 245.09719849 248.9597168 C245.09831635 248.09685059 245.0994342 247.23398437 245.10058594 246.3449707 C245.10555084 245.42892563 245.11051575 244.51288055 245.1156311 243.56907654 C245.13024032 240.53660325 245.1370551 237.5041824 245.14257812 234.47167969 C245.1483336 232.35619608 245.15409128 230.24071248 245.15985107 228.12522888 C245.17035961 223.68415077 245.17620226 219.24309074 245.1796875 214.80200195 C245.18515111 209.13998496 245.20913399 203.47821101 245.23765945 197.81626987 C245.25638799 193.44163849 245.261497 189.06706423 245.26302338 184.69239616 C245.26603088 182.60702127 245.2739943 180.52164692 245.28720856 178.43631172 C246.01619146 158.09493027 246.01619146 158.09493027 237.82617188 140.15527344 C233.92986152 136.54130441 229.56612805 133.98442101 224.93945312 131.40527344 C224.25125488 131.02081055 223.56305664 130.63634766 222.85400391 130.24023438 C199.73735725 117.43270088 175.10100489 109.44027579 150.12695312 101.09277344 C148.93107071 100.69271591 148.93107071 100.69271591 147.71102905 100.28457642 C145.40626571 99.5143834 143.10073734 98.74652889 140.79492188 97.97949219 C140.1070459 97.74954559 139.41916992 97.519599 138.71044922 97.28268433 C132.91346128 95.35945691 127.17788854 93.50593284 121.12695312 92.59277344 C116.16721841 91.72903732 111.39826678 90.47326271 106.56445312 89.09277344 C78.16403479 80.65616798 78.16403479 80.65616798 48.93945312 77.40527344 C49.26945312 82.68527344 49.59945313 87.96527344 49.93945312 93.40527344 C33.22091026 89.62392677 33.22091026 89.62392677 28.00195312 87.78027344 C17.54581789 84.13646874 6.90382326 83.85913625 -4.06054688 83.40527344 C-3.40875437 79.58943965 -2.59155713 77.37645939 -0.06054688 74.40527344 C-35.78156223 58.77121261 -91.89671378 65.74368787 -129.61279297 70.02050781 Z " fill="#137C59" transform="translate(578.060546875,371.5947265625)"/>
<path d="M0 0 C2.8370018 0.59282767 5.69624913 0.9945005 8.56445312 1.40527344 C16.46304581 2.67708073 23.56864575 5.51604917 29.93945312 10.40527344 C30.88820313 11.12714844 31.83695313 11.84902344 32.81445312 12.59277344 C35.76816512 16.50209814 35.40367852 19.67017444 34.93945312 24.40527344 C36.08929687 24.53675781 37.23914063 24.66824219 38.42382812 24.80371094 C53.19497987 26.6646945 67.03539971 31.23842269 80.93945312 36.40527344 C79.29556805 39.87270815 77.36729444 42.32836406 74.75195312 45.15527344 C73.95144531 46.02925781 73.1509375 46.90324219 72.32617188 47.80371094 C71.53855469 48.66222656 70.7509375 49.52074219 69.93945312 50.40527344 C68.64227582 51.85870728 67.3500082 53.31654975 66.06445312 54.78027344 C65.53078125 55.38613281 64.99710938 55.99199219 64.44726562 56.61621094 C62.86560397 58.49289756 61.40480838 60.43704531 59.93945312 62.40527344 C60.82431396 62.47439941 60.82431396 62.47439941 61.72705078 62.54492188 C68.37444662 63.12882352 74.79368142 64.25796522 81.31445312 65.65527344 C82.35230957 65.87417236 83.39016602 66.09307129 84.45947266 66.31860352 C92.07207552 67.94721944 99.63365067 69.74462522 107.16748047 71.70507812 C111.1200568 72.72966228 115.06280185 73.64816959 119.07226562 74.42480469 C129.5827231 76.47550179 139.75119965 80.15000926 149.93945312 83.40527344 C151.35903666 83.85746211 152.77863392 84.30960771 154.19824219 84.76171875 C158.21206639 86.04098271 162.22359021 87.32729592 166.23406982 88.61700439 C167.84778312 89.13506617 169.4620667 89.65135551 171.07696533 90.16571045 C185.11981738 94.64186726 198.74966483 99.64816182 212.00195312 106.15527344 C216.91625161 108.55817654 221.68297985 110.82412627 226.93945312 112.40527344 C226.93945312 113.06527344 226.93945312 113.72527344 226.93945312 114.40527344 C227.82117188 114.67339844 228.70289063 114.94152344 229.61132812 115.21777344 C239.74984703 118.83527314 249.62849827 126.4957708 255.34570312 135.65917969 C259.64144558 144.7550889 261.39305059 154.27164523 261.31176758 164.25756836 C261.31541824 165.28020279 261.31906891 166.30283722 261.3228302 167.35646057 C261.33086381 170.6997292 261.31738831 174.04250219 261.30273438 177.38574219 C261.30221503 179.72740173 261.30273562 182.06906171 261.304245 184.41072083 C261.3041556 189.3017941 261.29379096 194.19270141 261.27563477 199.08374023 C261.25291125 205.34126556 261.25241397 211.59854958 261.25915241 217.85610485 C261.26249875 222.68518709 261.25585034 227.51421466 261.24602318 232.34328651 C261.24218523 234.65048245 261.24101711 236.95768447 261.24260902 239.26488304 C261.2429813 242.49042671 261.23031505 245.71566456 261.21411133 248.94116211 C261.21782745 250.35886398 261.21782745 250.35886398 261.22161865 251.8052063 C261.13593847 262.53215807 258.40564352 271.36369458 251.08398438 279.45605469 C244.11699986 285.95022987 235.94023281 289.52485488 226.37489593 289.5340746 C225.48205953 289.5373468 224.58922312 289.54061899 223.66933107 289.54399034 C222.20892845 289.54176491 222.20892845 289.54176491 220.71902275 289.53949451 C219.67482253 289.54184674 218.6306223 289.54419897 217.55477965 289.54662248 C214.03267437 289.55331443 210.51060598 289.5528542 206.98849487 289.55244446 C204.44701682 289.55574295 201.90553929 289.55946849 199.36406243 289.56358594 C193.09689197 289.57256268 186.82973256 289.57683382 180.56255655 289.5791049 C173.05694423 289.5820672 165.55134127 289.59076473 158.04573386 289.59951918 C139.90435475 289.62036288 121.76297402 289.63083304 103.62158574 289.63964879 C95.04014332 289.64385517 86.45870161 289.64907716 77.87725979 289.65433332 C48.50427443 289.67222293 19.13128887 289.68721937 -10.24170113 289.69465351 C-12.08571462 289.69512827 -13.92972811 289.69560416 -15.7737416 289.69608117 C-17.14544169 289.69643574 -17.14544169 289.69643574 -18.54485291 289.69679746 C-23.17801392 289.69799867 -27.81117493 289.69921411 -32.44433594 289.70043945 C-33.3638011 289.7006796 -34.28326626 289.70091975 -35.230594 289.70116718 C-65.04592664 289.70906118 -94.86121952 289.73249539 -124.6765348 289.7649954 C-156.19622189 289.79929055 -187.71588571 289.81900433 -219.23559177 289.82229775 C-222.69549172 289.82271529 -226.15539166 289.82319486 -229.6152916 289.82372093 C-230.46722129 289.82384412 -231.31915098 289.82396732 -232.19689672 289.82409424 C-245.90857923 289.82642657 -259.62021555 289.84208831 -273.33188159 289.86256278 C-287.11338848 289.88281512 -300.89483988 289.88830086 -314.67635889 289.87879214 C-322.86364135 289.873575 -331.05073909 289.87946471 -339.23799497 289.90132682 C-345.35198334 289.91641885 -351.46576391 289.91059868 -357.5797628 289.8966563 C-360.05287794 289.89426999 -362.52601079 289.89865643 -364.99909879 289.91048495 C-368.36140531 289.92557094 -371.7227859 289.91595301 -375.08506966 289.90025806 C-376.04462441 289.91048027 -377.00417916 289.92070248 -377.99281132 289.93123445 C-388.11903878 289.82811143 -397.75593343 286.61356231 -405.06054688 279.40527344 C-412.31052395 270.64138004 -415.67727218 261.1630998 -415.578125 249.86938477 C-415.58513428 248.86789398 -415.59214355 247.8664032 -415.59936523 246.83456421 C-415.61684577 243.55185496 -415.60535295 240.27002143 -415.59179688 236.98730469 C-415.59449569 234.6834039 -415.59838134 232.37950422 -415.60339355 230.0756073 C-415.60927611 225.2549654 -415.60076942 220.43462086 -415.58203125 215.61401367 C-415.55930723 209.47244063 -415.57233176 203.33156947 -415.59632111 197.19002247 C-415.61086754 192.43268171 -415.60613165 187.67550359 -415.59580994 182.91815758 C-415.59316368 180.65581871 -415.59633736 178.3934645 -415.60572815 176.13114357 C-415.66123143 158.99575479 -415.34518671 141.43356384 -403.18554688 127.96777344 C-393.95783973 119.26852529 -381.7086579 112.2050519 -370.06054688 107.40527344 C-368.10449204 106.5622787 -366.14880357 105.71843366 -364.19335938 104.87402344 C-338.11926889 93.77034267 -311.27453528 84.75794176 -283.93554688 77.28027344 C-283.03707031 77.02890625 -282.13859375 76.77753906 -281.21289062 76.51855469 C-275.69676654 75.00696258 -270.20063525 73.83276735 -264.56591797 72.85693359 C-261.31343929 72.27058731 -258.13377539 71.48579292 -254.93554688 70.65527344 C-253.58161812 70.31058758 -252.22743153 69.96691354 -250.87304688 69.62402344 C-250.12667969 69.43453125 -249.3803125 69.24503906 -248.61132812 69.04980469 C-243.39112206 67.73076334 -238.16509147 66.43675015 -232.93554688 65.15527344 C-231.85644043 64.88489258 -230.77733398 64.61451172 -229.66552734 64.3359375 C-228.63830566 64.08553711 -227.61108398 63.83513672 -226.55273438 63.57714844 C-225.63862793 63.35124023 -224.72452148 63.12533203 -223.78271484 62.89257812 C-220.82556713 62.3632089 -218.05853049 62.32262364 -215.06054688 62.40527344 C-217.09221617 58.73412417 -219.2829571 55.98803848 -222.31054688 53.09277344 C-225.94627639 49.54600957 -229.35156554 45.89450692 -232.65039062 42.03417969 C-233.73683786 40.77919771 -234.88680343 39.57901688 -236.06054688 38.40527344 C-236.06054688 37.41527344 -236.06054688 36.42527344 -236.06054688 35.40527344 C-229.97352919 33.64979196 -223.88294425 31.90727081 -217.78808594 30.17919922 C-216.1097881 29.70299047 -214.4319481 29.22516032 -212.75488281 28.74462891 C-205.198866 26.58652819 -197.93204468 24.77569686 -190.06054688 24.40527344 C-190.16496094 23.44427734 -190.16496094 23.44427734 -190.27148438 22.46386719 C-190.55686574 17.90456008 -190.64487591 14.33872878 -187.81054688 10.59277344 C-180.08677039 2.9588083 -168.66655083 1.44544318 -158.390625 -0.20458984 C-155.92314497 -0.61773245 -153.46982497 -1.08384149 -151.01367188 -1.55957031 C-101.4652094 -11.00911869 -49.28521691 -10.96514939 0 0 Z M-140.06054688 5.40527344 C-141.14577637 5.57075684 -142.23100586 5.73624023 -143.34912109 5.90673828 C-163.57000377 8.49013116 -163.57000377 8.49013116 -181.06054688 17.40527344 C-181.94828695 22.73171389 -179.90023353 27.47754133 -178.06054688 32.40527344 C-179.08019531 32.37965332 -180.09984375 32.3540332 -181.15039062 32.32763672 C-184.84524664 32.40099862 -188.02213552 32.86042585 -191.62304688 33.64746094 C-193.43675781 34.03998047 -193.43675781 34.03998047 -195.28710938 34.44042969 C-196.53234375 34.71757812 -197.77757812 34.99472656 -199.06054688 35.28027344 C-200.30578125 35.5496875 -201.55101562 35.81910156 -202.83398438 36.09667969 C-208.6334351 37.36415026 -214.38361971 38.66502493 -220.06054688 40.40527344 C-218.43323837 44.60999603 -215.30417169 47.34897278 -212.12304688 50.40527344 C-205.62282364 56.69530981 -202.7362998 60.21503359 -202.06054688 69.40527344 C-203.300625 69.52 -204.54070312 69.63472656 -205.81835938 69.75292969 C-211.60873321 70.3971852 -217.24643074 71.60929251 -222.93554688 72.84277344 C-228.77025465 74.0951916 -234.59430049 75.34155161 -240.47460938 76.36230469 C-246.90678217 77.51160721 -253.22538422 79.0636206 -259.56054688 80.65527344 C-260.78580078 80.96174805 -262.01105469 81.26822266 -263.2734375 81.58398438 C-271.1620253 83.58819035 -278.95446895 85.77534444 -286.671875 88.36328125 C-290.61059502 89.67806888 -294.5354382 90.78269658 -298.57617188 91.74511719 C-305.57175491 93.45762356 -312.36763701 95.70197078 -319.18603516 98.00170898 C-321.29209721 98.711555 -323.400684 99.41344138 -325.50976562 100.11425781 C-334.02983394 102.9605989 -342.46123209 105.99954559 -350.85644531 109.19506836 C-352.91017933 109.9707739 -354.97785912 110.71104419 -357.06054688 111.40527344 C-357.06054688 112.06527344 -357.06054688 112.72527344 -357.06054688 113.40527344 C-358.16527344 113.62828125 -359.27 113.85128906 -360.40820312 114.08105469 C-365.84897384 115.44693354 -370.57015198 117.9671683 -375.49804688 120.59277344 C-376.38814453 121.04974609 -377.27824219 121.50671875 -378.1953125 121.97753906 C-390.89896768 128.66806893 -400.67128392 136.40465005 -405.06054688 150.40527344 C-406.35651789 155.32147163 -406.22294691 160.22202778 -406.23754883 165.26928711 C-406.24412003 166.25857208 -406.25069122 167.24785706 -406.25746155 168.26712036 C-406.2771456 171.53582847 -406.28884652 174.80449073 -406.29882812 178.07324219 C-406.30290365 179.19252924 -406.30697918 180.31181629 -406.31117821 181.46502113 C-406.33201846 187.38984618 -406.34632883 193.31464821 -406.35571289 199.23950195 C-406.36677072 205.34464043 -406.40116971 211.44941379 -406.44088459 217.55442333 C-406.46708531 222.26177121 -406.47540784 226.96903254 -406.47899437 231.67644691 C-406.48385163 233.92619606 -406.4954409 236.17594156 -406.51403236 238.42561913 C-406.53849595 241.5821326 -406.53744528 244.73770698 -406.53051758 247.89428711 C-406.54332764 248.81360519 -406.5561377 249.73292328 -406.56933594 250.68009949 C-406.49876034 259.55491744 -403.81880936 267.38632572 -397.70117188 273.93652344 C-392.34776077 278.729101 -386.61408699 280.5281352 -379.50536174 280.53292394 C-378.61462349 280.53593991 -377.72388525 280.53895587 -376.80615494 280.54206324 C-375.83490434 280.54029377 -374.86365374 280.53852429 -373.86297131 280.5367012 C-372.30038791 280.53978015 -372.30038791 280.53978015 -370.70623717 280.5429213 C-367.19258936 280.54860534 -363.67898059 280.54713232 -360.16532898 280.54571533 C-357.62996256 280.54829815 -355.09459655 280.55131108 -352.5592311 280.55471873 C-346.30727466 280.56195308 -340.05533054 280.56449183 -333.8033704 280.56504779 C-326.31611392 280.56596135 -318.82886534 280.57262861 -311.34161225 280.57939461 C-293.24588688 280.59545683 -275.15016235 280.60135788 -257.05443113 280.60614336 C-248.49590405 280.60847881 -239.93737764 280.61208138 -231.37885108 280.61583874 C-202.08798783 280.62867365 -172.79712496 280.63939352 -143.50625896 280.64284134 C-141.66747834 280.64306297 -139.82869771 280.64328476 -137.98991709 280.64350669 C-136.14667584 280.64372733 -134.30343459 280.64394781 -132.46019334 280.64416814 C-128.76228058 280.64461069 -125.06436783 280.64505781 -121.36645508 280.64550781 C-120.44958733 280.6456172 -119.53271957 280.64572659 -118.58806795 280.6458393 C-88.8487774 280.64947112 -59.10951121 280.66539619 -29.37022999 280.68869818 C2.06479116 280.71328387 33.49979837 280.72701356 64.93482941 280.72820926 C68.38428414 280.72838071 71.83373886 280.72859614 75.28319359 280.72884369 C76.13255925 280.72889946 76.98192491 280.72895523 77.85702892 280.72901268 C91.53582017 280.73016414 105.21458644 280.74119408 118.89336925 280.75573074 C132.63673161 280.77008374 146.3800619 280.77333948 160.12342969 280.76529077 C168.29131545 280.76082906 176.45909781 280.7647167 184.62697001 280.78052927 C190.72118523 280.79140467 196.81528174 280.78665543 202.90950134 280.7757574 C205.3785237 280.7737899 207.84755633 280.77692701 210.31656424 280.78560176 C213.66600865 280.79662762 217.0149248 280.78925291 220.36435413 280.77721024 C221.32858123 280.78480543 222.29280833 280.79240062 223.28625444 280.80022597 C232.78974564 280.72618587 239.0599847 278.00209316 246.02148438 271.45996094 C252.28588368 264.74901585 252.09189265 257.02171946 252.11645508 248.3894043 C252.12302628 247.38382477 252.12959747 246.37824524 252.1363678 245.3421936 C252.15605767 242.0181673 252.16775539 238.69418615 252.17773438 235.37011719 C252.1818099 234.23126131 252.18588543 233.09240543 252.19008446 231.91903877 C252.21092931 225.88816638 252.22523651 219.85731662 252.23461914 213.82641602 C252.24566517 207.61834465 252.28004922 201.41063351 252.31979084 195.20268917 C252.34602415 190.41119248 252.35431708 185.61978064 252.35790062 180.82821846 C252.36275113 178.54104753 252.3743209 176.25388 252.39293861 173.96677971 C252.75416185 152.03542275 252.75416185 152.03542275 241.68945312 133.78417969 C229.21417155 122.9923523 213.64716812 115.83471443 198.32421875 110.16943359 C193.53589265 108.3913063 188.76871464 106.56544957 184.00976562 104.70996094 C167.4605982 98.22599962 167.4605982 98.22599962 150.34960938 93.49121094 C143.92249492 92.00646118 137.66348246 89.88839173 131.37695312 87.90527344 C113.09786703 82.15786843 113.09786703 82.15786843 94.42773438 77.89746094 C91.5960027 77.33733819 88.80622306 76.65208585 86.00195312 75.96777344 C78.13860838 74.12958895 70.19121867 72.94197376 62.21044922 71.74609375 C58.88922893 71.24766078 55.57080849 70.73170742 52.25195312 70.21777344 C50.48118187 69.9465345 48.7103758 69.67552196 46.93945312 69.40527344 C46.78179164 64.51776753 46.86562653 61.73935954 49.98632812 57.86230469 C52.58851326 55.31926012 55.2568423 52.86301836 57.93945312 50.40527344 C59.33959568 48.92871466 60.71805938 47.43100241 62.06445312 45.90527344 C62.90363281 44.96167969 62.90363281 44.96167969 63.75976562 43.99902344 C65.13776807 42.46782658 65.13776807 42.46782658 64.93945312 40.40527344 C56.09095046 38.08192357 47.21893132 35.97375153 38.25195312 34.15527344 C36.97916504 33.89278809 36.97916504 33.89278809 35.68066406 33.625 C31.71338468 32.83598925 28.0079528 32.17326124 23.93945312 32.40527344 C24.10445312 31.76589844 24.26945312 31.12652344 24.43945312 30.46777344 C25.09877827 26.42940691 25.01949092 22.48720085 24.93945312 18.40527344 C-20.75660779 -7.40860713 -90.34197714 -2.2197031 -140.06054688 5.40527344 Z " fill="#F6F9F8" transform="translate(578.060546875,371.5947265625)"/>
<path d="M0 0 C3.82303262 0.01615262 7.64501549 -0.00000727 11.46801758 -0.01904297 C27.39256965 -0.03296839 42.87969194 1.0200366 58.6262207 3.39111328 C59.73101273 3.55507599 59.73101273 3.55507599 60.85812378 3.72235107 C64.83877928 4.32424088 68.79661439 5.01292944 72.7512207 5.76611328 C74.42740479 6.08310181 74.42740479 6.08310181 76.13745117 6.40649414 C94.26609916 9.96564589 94.26609916 9.96564589 100.6262207 13.39111328 C102.22479949 17.67859812 100.99690048 21.62674117 100.0637207 25.95361328 C99.88679687 26.80536133 99.70987305 27.65710938 99.52758789 28.53466797 C97.01468678 40.51240476 94.31818773 52.45259019 91.6262207 64.39111328 C90.44930664 64.13716797 89.27239258 63.88322266 88.05981445 63.62158203 C78.70535867 61.65014874 69.35589149 59.95314455 59.8762207 58.70361328 C58.99248779 58.5846167 58.10875488 58.46562012 57.19824219 58.34301758 C41.81029788 56.39973444 26.4357336 56.2046699 10.94799805 56.20581055 C7.65961528 56.20363537 4.37157529 56.18544189 1.08325195 56.16650391 C-17.59021769 56.11682649 -36.11219425 57.33108827 -54.6237793 59.82861328 C-55.56777588 59.95204102 -56.51177246 60.07546875 -57.484375 60.20263672 C-63.53201712 61.03089508 -69.32198749 62.15038535 -75.16674805 63.93798828 C-77.59855983 64.43726291 -79.04541161 64.18329355 -81.3737793 63.39111328 C-83.13324754 54.81838502 -84.76723559 46.24079 -86.24145508 37.61474609 C-87.20455751 32.08991346 -88.43400619 26.65802037 -89.82299805 21.22314453 C-90.40804933 18.21490214 -90.46888706 15.44814864 -90.3737793 12.39111328 C-60.67736823 2.98927822 -31.14303447 -0.15584504 0 0 Z " fill="#08744F" transform="translate(495.373779296875,378.60888671875)"/>
<path d="M0 0 C7.78370123 5.07119929 13.28756998 12.08201053 16 21 C17.22311375 30.31528839 17.17884678 39.71976994 17.203125 49.09765625 C17.20736607 50.21897351 17.20736607 50.21897351 17.21169281 51.36294365 C17.22655654 55.31138317 17.23586935 59.2597873 17.24023438 63.20825195 C17.24573227 67.25154806 17.26982489 71.29450976 17.29820633 75.33770084 C17.31694414 78.48210068 17.32204397 81.62642119 17.32357025 84.77087212 C17.32656696 86.26061285 17.33449252 87.75035321 17.34775543 89.24003792 C17.46403483 103.29032805 15.54234919 116.3884289 5.9609375 127.328125 C-0.54637592 133.53651589 -7.44518777 137.09189579 -16.5 137.5 C-25.05282728 137.12603999 -31.98456603 133.8991569 -38.18359375 128.05078125 C-46.24215045 118.95241078 -50.09541583 107.94798327 -50.16113281 95.92163086 C-50.16858017 94.88143295 -50.16858017 94.88143295 -50.17617798 93.82022095 C-50.19073208 91.53508492 -50.19759244 89.25001845 -50.203125 86.96484375 C-50.20736607 85.78612292 -50.20736607 85.78612292 -50.21169281 84.58358955 C-50.22666291 80.42006217 -50.23590445 76.2565692 -50.24023438 72.09301758 C-50.24569699 67.82206076 -50.26968417 63.5514263 -50.29820633 59.28057003 C-50.31697019 55.97141142 -50.32204569 52.66232808 -50.32357025 49.3531208 C-50.32656949 47.78047498 -50.33450398 46.20782959 -50.34775543 44.63523674 C-50.46450662 29.70712461 -48.81607073 15.10269221 -38.3125 3.625 C-27.32772034 -6.53694972 -13.05650786 -5.97748313 0 0 Z " fill="#DB201B" transform="translate(576,481)"/>
<path d="M0 0 C0.328125 1.98828125 0.328125 1.98828125 0.25 4.3125 C0.23453125 5.07175781 0.2190625 5.83101563 0.203125 6.61328125 C-0.01131257 9.13292265 -0.45828165 11.53168655 -1 14 C-0.33097656 14.02578125 0.33804688 14.0515625 1.02734375 14.078125 C10.32544938 14.62727486 19.01166057 16.71908806 28 19 C29.23878906 19.30679688 30.47757813 19.61359375 31.75390625 19.9296875 C34.50474121 20.6117127 37.25333107 21.30142524 40 22 C38.63317247 25.03409805 37.06238894 27.22564221 34.77734375 29.63671875 C34.15666016 30.29607422 33.53597656 30.95542969 32.89648438 31.63476562 C32.25001953 32.31216797 31.60355469 32.98957031 30.9375 33.6875 C29.96200195 34.72100586 29.96200195 34.72100586 28.96679688 35.77539062 C24.54255022 40.45744978 24.54255022 40.45744978 23 42 C22.75935887 46.97324997 22.99243708 51.37653964 24 56.25 C25.26097963 62.51049744 25.18205652 68.63813615 25 75 C16.88334562 74.08747673 9.47462188 72.66787833 1.7734375 69.94921875 C-8.2057866 66.53379416 -18.55772865 66.43225088 -29 66 C-29.75 63.8125 -29.75 63.8125 -30 61 C-28.015625 58.32421875 -28.015625 58.32421875 -26 56 C-37.22285265 53.85960416 -48.36030597 52.22094364 -59.75 51.3125 C-60.52202759 51.24996033 -61.29405518 51.18742065 -62.08947754 51.12298584 C-92.89235164 48.70150352 -123.70359139 49.18692554 -154.39697266 52.61083984 C-160.11098164 53.22800547 -165.83564144 53.70719441 -171.5625 54.1875 C-173.41800103 54.34728182 -175.2734738 54.50739252 -177.12890625 54.66796875 C-179.04509766 54.83232422 -179.04509766 54.83232422 -181 55 C-180.21625 55.78375 -179.4325 56.5675 -178.625 57.375 C-177.08333333 58.91666667 -175.54166667 60.45833333 -174 62 C-174 62.99 -174 63.98 -174 65 C-176.98791827 65.99597276 -179.42749124 66.08923943 -182.54785156 66.13842773 C-195.60204063 66.42129664 -208.03284836 69.72849133 -220.265625 74.19140625 C-223.29344453 75.08677574 -225.8592867 75.14955778 -229 75 C-229.02722517 72.79173622 -229.04649729 70.58337362 -229.0625 68.375 C-229.07410156 67.14523437 -229.08570313 65.91546875 -229.09765625 64.6484375 C-229.00816928 61.30520438 -228.60960379 58.28045783 -228 55 C-227.00143634 48.79924177 -226.60107384 44.05939478 -230.2421875 38.69921875 C-232.96771148 35.58706512 -235.94963525 32.7909373 -239 30 C-241.02936151 28.0243456 -243.02402944 26.02937517 -245 24 C-245 23.34 -245 22.68 -245 22 C-238.00482105 20.31278607 -231.00502871 18.64585156 -224 17 C-223.25556641 16.8246875 -222.51113281 16.649375 -221.74414062 16.46875 C-219.87323389 16.03238691 -217.99922065 15.60940249 -216.125 15.1875 C-215.09632813 14.95417969 -214.06765625 14.72085937 -213.0078125 14.48046875 C-209.63181014 13.94118526 -206.41318818 13.91873361 -203 14 C-203.2165625 13.41992188 -203.433125 12.83984375 -203.65625 12.2421875 C-205.28435049 7.67446113 -206.37861182 3.9219536 -206 -1 C-162.14558094 -29.5563659 -43.49030416 -28.99353611 0 0 Z M-198 1 C-197.71614203 8.49385051 -196.5146704 15.47781374 -194.58740234 22.70288086 C-193.06979745 28.47238419 -191.98442448 34.26446371 -191.03955078 40.15307617 C-190.31695392 44.56650022 -189.29904146 48.73092787 -188 53 C-187.40574219 52.87882812 -186.81148438 52.75765625 -186.19921875 52.6328125 C-184.95591797 52.38144531 -184.95591797 52.38144531 -183.6875 52.125 C-182.48673828 51.88136719 -182.48673828 51.88136719 -181.26171875 51.6328125 C-180.18535156 51.42398438 -179.10898437 51.21515625 -178 51 C-176.8406897 50.77147339 -176.8406897 50.77147339 -175.65795898 50.53833008 C-168.36569649 49.14866374 -161.06620363 48.23122509 -153.6875 47.4375 C-152.56666016 47.31181641 -151.44582031 47.18613281 -150.29101562 47.05664062 C-146.86260227 46.68095104 -143.43283052 46.3328195 -140 46 C-138.97712891 45.89921143 -137.95425781 45.79842285 -136.90039062 45.69458008 C-126.10637821 44.77504745 -115.29875668 44.81390588 -104.47265625 44.81469727 C-101.1665323 44.81252726 -97.86075203 44.79435985 -94.5546875 44.77539062 C-75.2577337 44.72344292 -56.11706989 45.85089097 -37.0625 49 C-35.47791992 49.2475 -35.47791992 49.2475 -33.86132812 49.5 C-27.84944831 50.45771079 -21.92797139 51.61536435 -16 53 C-14.89014604 48.13098817 -13.78782227 43.2603489 -12.69189453 38.38818359 C-12.31951809 36.73734679 -11.9452283 35.08694019 -11.56884766 33.43701172 C-9.26337415 23.32366793 -7.25657533 13.30643506 -6 3 C-17.10232103 -1.83884346 -28.65221286 -4.25552916 -40.5 -6.5625 C-41.51835938 -6.77068359 -42.53671875 -6.97886719 -43.5859375 -7.19335938 C-62.18059139 -10.81908957 -80.70440065 -11.34772966 -99.60546875 -11.31567383 C-103.46643717 -11.31252735 -107.32662628 -11.33601817 -111.1875 -11.36132812 C-140.04307126 -11.43540099 -170.82276065 -9.66825843 -198 1 Z " fill="#D02A23" transform="translate(603,390)"/>
<path d="M0 0 C9.01352758 0 9.01352758 0 12.24609375 0.40234375 C12.93767578 0.48806641 13.62925781 0.57378906 14.34179688 0.66210938 C15.37916992 0.79842773 15.37916992 0.79842773 16.4375 0.9375 C17.15615234 1.02451172 17.87480469 1.11152344 18.61523438 1.20117188 C23.87119521 1.87119521 23.87119521 1.87119521 25 3 C25.09326716 4.56547048 25.11745582 6.13512772 25.11352539 7.70336914 C25.11344986 8.70433121 25.11337433 9.70529327 25.11329651 10.73658752 C25.10813522 11.8251152 25.10297394 12.91364288 25.09765625 14.03515625 C25.0962413 15.14354355 25.09482635 16.25193085 25.09336853 17.39390564 C25.08775033 20.95013069 25.07519475 24.50629383 25.0625 28.0625 C25.05748734 30.46679597 25.05292403 32.87109292 25.04882812 35.27539062 C25.03777499 41.18361777 25.02049816 47.09179837 25 53 C30.61 53 36.22 53 42 53 C42 37.16 42 21.32 42 5 C50 5 50 5 65 8 C65 49.58 65 91.16 65 134 C57.41 134 49.82 134 42 134 C42 117.5 42 101 42 84 C36.06 84 30.12 84 24 84 C24 100.5 24 117 24 134 C16.08 134 8.16 134 0 134 C0 89.78 0 45.56 0 0 Z " fill="#DB1E19" transform="translate(601,482)"/>
<path d="M0 0 C1.55504693 8.45006636 3.06705816 16.77129149 3.375 25.375 C3.85112263 35.45461748 5.88580842 45.26744343 7.74609375 55.16796875 C8.97969079 61.75854051 10.00515466 68.36993025 11 75 C11.61625146 78.93890353 12.24552089 82.87569146 12.875 86.8125 C13.04354492 87.8749292 13.21208984 88.9373584 13.38574219 90.03198242 C14.26439958 95.53983248 15.17414081 101.0394588 16.1484375 106.53125 C16.42518311 108.11329224 16.42518311 108.11329224 16.70751953 109.72729492 C17.05673366 111.71335203 17.41385821 113.69804282 17.78076172 115.6809082 C19.01318724 122.73725797 19 128.59796313 19 136 C10.42 136 1.84 136 -7 136 C-7.33 130.72 -7.66 125.44 -8 120 C-13.61 120 -19.22 120 -25 120 C-25.66 125.28 -26.32 130.56 -27 136 C-35.25 136 -43.5 136 -52 136 C-51.32636806 124.3452446 -49.68927257 112.86711475 -48.04370117 101.31616211 C-47.56321093 97.94249166 -47.08871186 94.56802046 -46.61523438 91.19335938 C-46.30764096 89.01297153 -45.99970959 86.83263133 -45.69140625 84.65234375 C-45.55174942 83.66137192 -45.41209259 82.67040009 -45.26820374 81.6493988 C-44.28305609 74.74756201 -43.16447035 67.87362034 -42 61 C-38.76059682 41.36834905 -35.8584676 21.68990123 -33 2 C-28.81284871 1.66218885 -24.62523015 1.3305515 -20.4375 1 C-19.25607422 0.90460938 -18.07464844 0.80921875 -16.85742188 0.7109375 C-11.22247585 0.26898095 -5.65283608 -0.1328126 0 0 Z " fill="#DB201B" transform="translate(426,480)"/>
<path d="M0 0 C2.97 0.33 5.94 0.66 9 1 C10.20785156 0.97035156 11.41570313 0.94070313 12.66015625 0.91015625 C17.03485402 1.10603824 19.30406065 1.5678895 23 4 C28.58890591 13.46882392 30.50253503 25.19126977 32.54833984 35.86694336 C33.10983008 38.51869481 33.94462483 40.97993129 34.9375 43.5 C36.94517999 48.63705972 38.39069476 53.63564921 40 59 C40.33 42.5 40.66 26 41 9 C47.70618915 10.11769819 54.35222188 11.57547612 61 13 C61 49.63 61 86.26 61 124 C54.07 124 47.14 124 40 124 C39.51789062 122.39769531 39.03578125 120.79539062 38.5390625 119.14453125 C37.90115833 117.03381891 37.26313105 114.92314376 36.625 112.8125 C36.30789063 111.75740234 35.99078125 110.70230469 35.6640625 109.61523438 C35.3546875 108.59365234 35.0453125 107.57207031 34.7265625 106.51953125 C34.44377441 105.58214111 34.16098633 104.64475098 33.86962891 103.67895508 C33.02132951 101.0657071 32.02597317 98.54747883 31 96 C30.71262803 94.63232228 30.46403803 93.25605493 30.25 91.875 C28.45264361 83.42742497 25.6007713 75.23577577 23 67 C22.67 85.81 22.34 104.62 22 124 C14.74 124 7.48 124 0 124 C0 83.08 0 42.16 0 0 Z " fill="#DB201B" transform="translate(674,492)"/>
<path d="M0 0 C7.40434717 6.14724239 9.57962573 12.47636243 11.3125 21.75 C11.65597435 26.05385748 11.64607527 30.31042653 11.5625 34.625 C11.55734375 35.71296875 11.5521875 36.8009375 11.546875 37.921875 C11.49761634 42.95857343 11.38077152 47.80493668 10.3125 52.75 C9.6525 52.75 8.9925 52.75 8.3125 52.75 C8.27125 53.554375 8.23 54.35875 8.1875 55.1875 C6.14924065 63.48612734 0.16922785 69.90256969 -6.6875 74.75 C-13.22759289 78.68336548 -16.49675866 78.75 -24.6875 78.75 C-24.6875 93.27 -24.6875 107.79 -24.6875 122.75 C-32.2775 122.75 -39.8675 122.75 -47.6875 122.75 C-47.6875 82.49 -47.6875 42.23 -47.6875 0.75 C-11.91363096 -8.78969841 -11.91363096 -8.78969841 0 0 Z " fill="#DB1E19" transform="translate(367.6875,493.25)"/>
<path d="M0 0 C3.51806087 15.89648847 6.60815936 31.67312603 8.61816406 47.83862305 C9.51994322 54.9974021 10.74054396 62.01968347 12.19946289 69.0859375 C13.46398039 75.26853726 14.60149935 81.47362065 15.73486328 87.68139648 C16.12807978 89.82932318 16.52693781 91.97615885 16.92578125 94.12304688 C17.18263839 95.52597823 17.43916078 96.92897092 17.6953125 98.33203125 C17.92234863 99.56671143 18.14938477 100.8013916 18.38330078 102.07348633 C19.10840877 106.69023681 19.53498465 111.34984653 20 116 C12.08 116 4.16 116 -4 116 C-4.33 111.71 -4.66 107.42 -5 103 C-9.62 103 -14.24 103 -19 103 C-19.33 107.62 -19.66 112.24 -20 117 C-27.59 117 -35.18 117 -43 117 C-42.35988664 106.38622845 -40.54959092 96.12493353 -38.625 85.6875 C-38.31721926 83.99032299 -38.00992498 82.2930577 -37.703125 80.59570312 C-36.32513725 73.0092657 -34.89652858 65.44090145 -33.33203125 57.890625 C-32.19594205 52.27333707 -31.46173217 46.7736398 -31.0625 41.0625 C-30.0966916 29.25632491 -28.0902924 17.65178275 -26 6 C-16.20945946 2.69594595 -16.20945946 2.69594595 -11.3125 1.3125 C-10.44238281 1.06113281 -9.57226562 0.80976563 -8.67578125 0.55078125 C-5.72228151 -0.05716541 -3.00801846 -0.03655353 0 0 Z " fill="#DB211C" transform="translate(295,500)"/>
<path d="M0 0 C8.25 0 16.5 0 25 0 C25.04522402 14.83869808 25.08203401 29.67735308 25.10362434 44.5161047 C25.11391753 51.40667636 25.12794024 58.29720202 25.15087891 65.18774414 C25.17301441 71.84021969 25.18457654 78.49266009 25.18975449 85.14517403 C25.19344354 87.68042311 25.2006473 90.21566965 25.21146011 92.75089836 C25.2260243 96.30786617 25.22797585 99.86463792 25.22705078 103.42163086 C25.23424133 104.46460831 25.24143188 105.50758575 25.24884033 106.58216858 C25.22116311 116.44773024 23.72744814 125.72701936 18 134 C10.48888215 140.7536942 1.23450003 141.40854581 -8.46484375 141.24609375 C-16.01898447 140.72022539 -20.09950688 137.61763846 -25 132 C-25 131.34 -25 130.68 -25 130 C-25.66 130 -26.32 130 -27 130 C-30.70209905 122.47267685 -31.52288738 116.19082028 -31.25 107.875 C-31.1675 104.28625 -31.085 100.6975 -31 97 C-23.41 97 -15.82 97 -8 97 C-7.505 104.92 -7.505 104.92 -7 113 C-5.35 113.33 -3.7 113.66 -2 114 C-0.41465553 112.41465553 -0.85883803 110.79010526 -0.84178162 108.58982849 C-0.8319928 107.63765442 -0.82220398 106.68548035 -0.81211853 105.70445251 C-0.80636307 104.65141434 -0.8006076 103.59837616 -0.79467773 102.51342773 C-0.78477814 101.41112823 -0.77487854 100.30882874 -0.76467896 99.17312622 C-0.73295513 95.50997098 -0.70826367 91.84680274 -0.68359375 88.18359375 C-0.66303361 85.6515315 -0.6420374 83.11947275 -0.62062073 80.5874176 C-0.57096461 74.59154997 -0.52572459 68.59566458 -0.48259836 62.59974772 C-0.43326728 55.7751549 -0.37833389 48.95061084 -0.32291877 42.12606514 C-0.20902441 28.08408708 -0.10294136 14.0420624 0 0 Z " fill="#DB201C" transform="translate(494,476)"/>
<path d="M0 0 C6.73548558 6.92792803 7.53101021 14.01567962 7.4375 23.25 C7.43065186 24.27544922 7.42380371 25.30089844 7.41674805 26.35742188 C7.26432353 33.52308681 6.59853549 39.66990291 3 46 C2.66097656 46.65613281 2.32195312 47.31226563 1.97265625 47.98828125 C-1.9438683 54.49723842 -8.82104203 57.83438208 -15.75 60.375 C-19 61 -19 61 -25 61 C-25 72.22 -25 83.44 -25 95 C-32.59 95 -40.18 95 -48 95 C-48 65.96 -48 36.92 -48 7 C-10.47381546 -7.59351621 -10.47381546 -7.59351621 0 0 Z " fill="#DB1F1A" transform="translate(249,522)"/>
<path d="M0 0 C0 0.66 0 1.32 0 2 C0.556875 2.20625 1.11375 2.4125 1.6875 2.625 C7.93276187 6.33839895 10.77621244 12.66111682 12.6875 19.4375 C13.11389877 22.93396995 13 26.47762608 13 30 C6.07 30 -0.86 30 -8 30 C-8.66 26.7 -9.32 23.4 -10 20 C-11.98 20 -13.96 20 -16 20 C-16.54600351 24.36802808 -16.39832333 26.99712847 -13.8125 30.625 C-10.18961823 35.07400208 -6.00582724 38.98814977 -1.90625 42.99047852 C3.05818349 47.90284252 7.24139971 53.09080951 11 59 C11.5878125 59.91845703 11.5878125 59.91845703 12.1875 60.85546875 C14.50912364 66.98321577 13.90807424 76.46918167 11.75 82.625 C7.79363613 90.25513031 2.76971386 93.51740485 -5 97 C-12.7191655 98.99860564 -20.74664104 99.05090752 -27.93359375 95.38671875 C-35.61984464 90.22864868 -40.13577898 81.93793719 -42 73 C-42.06624507 71.25113019 -42.08552595 69.49997252 -42.0625 67.75 C-42.05347656 66.85796875 -42.04445313 65.9659375 -42.03515625 65.046875 C-42.02355469 64.37140625 -42.01195312 63.6959375 -42 63 C-38.52085059 62.97112186 -35.04173169 62.95324313 -31.5625 62.9375 C-30.07266602 62.92493164 -30.07266602 62.92493164 -28.55273438 62.91210938 C-27.60849609 62.90888672 -26.66425781 62.90566406 -25.69140625 62.90234375 C-24.81685791 62.89710693 -23.94230957 62.89187012 -23.04125977 62.88647461 C-21 63 -21 63 -20 64 C-19.4284325 66.57205373 -18.97130198 69.15783913 -18.5 71.75 C-18.22050243 73.95845606 -18.22050243 73.95845606 -17 75 C-14.54190002 75.2500773 -14.54190002 75.2500773 -12 75 C-9.74201501 73.13370167 -9.74201501 73.13370167 -9.55859375 70.21875 C-10.15550634 65.86604224 -11.88582799 64.47572506 -15.0625 61.5 C-15.56620117 61.01861572 -16.06990234 60.53723145 -16.58886719 60.04125977 C-19.21676836 57.55266598 -21.92956034 55.20288746 -24.75 52.9375 C-33.34512058 45.74398182 -39.21617061 34.26380125 -40.2734375 23.1171875 C-40.51816962 15.3045852 -39.74229169 9.3824828 -35 3 C-25.77893594 -6.09503585 -11.21328163 -4.25244089 0 0 Z " fill="#DB1F1B" transform="translate(791,520)"/>
<path d="M0 0 C2.90422437 8.5930874 5.12717625 17.31181687 7.25 26.125 C7.52021973 27.2399585 7.79043945 28.35491699 8.06884766 29.50366211 C8.31940918 30.55690674 8.5699707 31.61015137 8.828125 32.6953125 C9.0540332 33.64422363 9.27994141 34.59313477 9.51269531 35.57080078 C10 38 10 38 10 41 C10.99 41.495 10.99 41.495 12 42 C11.18660156 42.15855469 10.37320313 42.31710937 9.53515625 42.48046875 C1.74458605 44.06662534 -5.80950025 46.01944778 -13.40014648 48.3737793 C-16.37720938 49.28670799 -18.86590933 50 -22 50 C-22.23216085 43.26733527 -21.51204393 36.98077181 -20.4375 30.33203125 C-20.2209375 28.68267578 -20.2209375 28.68267578 -20 27 C-19.8453125 26.00871094 -19.690625 25.01742188 -19.53125 23.99609375 C-20.25097051 19.39588018 -23.1437886 17.28524316 -26.5 14.25 C-27.72275865 13.11367336 -28.94172544 11.97324816 -30.15625 10.828125 C-30.70087891 10.3321582 -31.24550781 9.83619141 -31.80664062 9.32519531 C-33 8 -33 8 -33 6 C-30.33557431 5.179478 -27.66882724 4.36847695 -25 3.5625 C-24.25621094 3.33240234 -23.51242187 3.10230469 -22.74609375 2.86523438 C-15.14464336 0.58479926 -7.92827411 -0.14157632 0 0 Z " fill="#08704B" transform="translate(401,409)"/>
<path d="M0 0 C9.66871234 0.12258272 18.962013 2.46343888 28.1875 5.1875 C28.1875 9.1875 28.1875 9.1875 26.2890625 11.44140625 C25.47179687 12.20324219 24.65453125 12.96507812 23.8125 13.75 C21.22245547 16.1879308 19.16784177 18.21698735 17.1875 21.1875 C16.5275 21.1875 15.8675 21.1875 15.1875 21.1875 C15.4040625 22.45464844 15.620625 23.72179687 15.84375 25.02734375 C16.12537809 26.72649988 16.40660673 28.42572224 16.6875 30.125 C16.83058594 30.95580078 16.97367188 31.78660156 17.12109375 32.64257812 C18.03479077 38.23353373 18.32469631 43.52243578 18.1875 49.1875 C13.76780979 49.37794728 10.4224516 48.80877681 6.25 47.375 C-1.01984677 45.01607743 -8.30344886 43.5584471 -15.8125 42.1875 C-15.3484375 41.79949219 -14.884375 41.41148437 -14.40625 41.01171875 C-8.57801103 34.34067072 -8.39519973 19.8878776 -6.8125 11.1875 C-6.44345763 9.2072138 -6.06948444 7.22783052 -5.6875 5.25 C-5.54054688 4.47785156 -5.39359375 3.70570313 -5.2421875 2.91015625 C-4.40998667 -0.42621254 -3.74090602 0.18397898 0 0 Z " fill="#06714B" transform="translate(603.8125,409.8125)"/>
<path d="M0 0 C6.40877718 -0.36276097 6.40877718 -0.36276097 8.70620728 1.04689026 C10.67001253 4.01145103 10.41749626 6.99906913 10.38818359 10.43725586 C10.39344055 11.19204727 10.39869751 11.94683868 10.40411377 12.72450256 C10.41732569 15.22149302 10.40857089 17.71784672 10.3984375 20.21484375 C10.40045811 21.94975405 10.40336944 23.68466353 10.40713501 25.41957092 C10.41156014 29.05705851 10.40512208 32.69432519 10.39111328 36.33178711 C10.37403393 40.99373716 10.3838533 45.65516862 10.40183067 50.31709957 C10.41267432 53.9004761 10.4092193 57.48372982 10.4014473 61.06711006 C10.39944623 62.78590519 10.40190129 64.50471147 10.40888596 66.22349358 C10.41650866 68.62707896 10.40488484 71.02982658 10.38818359 73.43334961 C10.39729263 74.49874466 10.39729263 74.49874466 10.40658569 75.58566284 C10.36727634 78.64077146 10.1402481 80.74341959 8.66323853 83.4455719 C7 85 7 85 4 85.4375 C1 85 1 85 -0.66423035 83.93748474 C-2.69324112 80.99447927 -2.40932515 78.01161446 -2.37231445 74.56274414 C-2.37596512 73.80795273 -2.37961578 73.05316132 -2.38337708 72.27549744 C-2.39148805 69.77848869 -2.37786705 67.28212785 -2.36328125 64.78515625 C-2.36276265 63.0502472 -2.36328034 61.31533755 -2.36479187 59.58042908 C-2.36470212 55.94293453 -2.35426786 52.30566148 -2.33618164 48.66821289 C-2.31351125 44.00634731 -2.31294701 39.34480593 -2.31969929 34.68290043 C-2.3230418 31.09953431 -2.31640357 27.51624204 -2.30657005 23.93288994 C-2.30272137 22.21409937 -2.30156846 20.49530057 -2.3031559 18.77650642 C-2.30352696 16.37306211 -2.29089457 13.97003239 -2.2746582 11.56665039 C-2.27713562 10.85638702 -2.27961304 10.14612366 -2.28216553 9.41433716 C-2.24299071 5.77893052 -1.99087936 3.09334143 0 0 Z " fill="#FEFCFC" transform="translate(556,505)"/>
<path d="M0 0 C1.97419922 -0.05607422 1.97419922 -0.05607422 3.98828125 -0.11328125 C8.18972832 0.37030664 9.75126487 1.34321157 12.6875 4.3125 C14.29552295 7.52854589 14.14943202 10.8245785 13.6875 14.3125 C12.09322949 17.36818515 10.91161579 18.86630512 7.640625 20.05859375 C5.676579 20.56353465 3.68217116 20.94681029 1.6875 21.3125 C1.6875 26.2625 1.6875 31.2125 1.6875 36.3125 C-0.6225 36.3125 -2.9325 36.3125 -5.3125 36.3125 C-7.48487055 24.63088477 -8.87655494 13.18824469 -9.3125 1.3125 C-6.32544343 -0.18102829 -3.2743749 0.04682138 0 0 Z " fill="#EEF5F3" transform="translate(447.3125,391.6875)"/>
<path d="M0 0 C2.64 0 5.28 0 8 0 C8.51122048 3.93612577 9.00686338 7.87407107 9.5 11.8125 C9.64308594 12.91271484 9.78617188 14.01292969 9.93359375 15.14648438 C10.80001091 22.13970857 11.19124914 28.95477119 11 36 C7.535 35.505 7.535 35.505 4 35 C4 33.68 4 32.36 4 31 C1.36 31 -1.28 31 -4 31 C-4 31.99 -4 32.98 -4 34 C-6.64 34 -9.28 34 -12 34 C-11.35730898 28.14761665 -9.25186482 23.00163278 -7.125 17.5625 C-6.77308594 16.64662109 -6.42117188 15.73074219 -6.05859375 14.78710938 C-4.13723274 9.8122843 -2.1371741 4.88592946 0 0 Z " fill="#F0F6F4" transform="translate(553,392)"/>
<path d="M0 0 C6.93 0 13.86 0 21 0 C21 6.74770553 21 6.74770553 18.84765625 10.63671875 C18.40099609 11.46107422 17.95433594 12.28542969 17.49414062 13.13476562 C17.02169922 13.97716797 16.54925781 14.81957031 16.0625 15.6875 C15.13498254 17.37795479 14.20912726 19.06932293 13.28515625 20.76171875 C12.87144775 21.50381592 12.45773926 22.24591309 12.03149414 23.01049805 C10.87552126 25.11356346 10.87552126 25.11356346 10 28 C13.96 28 17.92 28 22 28 C22 30.31 22 32.62 22 35 C14.74 35 7.48 35 0 35 C0 26 0 26 2.625 21.625 C3.16640625 20.70332031 3.7078125 19.78164063 4.265625 18.83203125 C4.83796875 17.89746094 5.4103125 16.96289062 6 16 C6.57234375 15.03449219 7.1446875 14.06898438 7.734375 13.07421875 C9.14072894 10.70685629 10.56828132 8.35210927 12 6 C8.04 6 4.08 6 0 6 C0 4.02 0 2.04 0 0 Z " fill="#EDF5F2" transform="translate(484,389)"/>
<path d="M0 0 C7.09727428 -0.10808032 13.96094956 0.06145994 21 1 C20.70407753 7.83395961 17.73423841 12.21544451 14 17.8125 C12.89543521 19.50625085 11.79124955 21.20024903 10.6875 22.89453125 C10.19636719 23.63550049 9.70523438 24.37646973 9.19921875 25.13989258 C7.9630224 26.98330527 7.9630224 26.98330527 7 29 C11.29 29 15.58 29 20 29 C20 31.31 20 33.62 20 36 C17.64575325 36.02726927 15.29183038 36.04696719 12.9375 36.0625 C10.97103516 36.07990234 10.97103516 36.07990234 8.96484375 36.09765625 C5.1836481 36.00452335 1.72079293 35.61448726 -2 35 C-2.9198247 27.86646591 0.15577276 23.47326274 3.875 17.5625 C4.43058594 16.64017578 4.98617187 15.71785156 5.55859375 14.76757812 C8.59853668 9.81943005 8.59853668 9.81943005 10 8 C10.66 8 11.32 8 12 8 C12 7.34 12 6.68 12 6 C8.04 6 4.08 6 0 6 C0 4.02 0 2.04 0 0 Z " fill="#EEF5F3" transform="translate(515,389)"/>
<path d="M0 0 C8.37931034 0 8.37931034 0 12 3 C14.73672349 8.4925849 14.53696754 13.99572663 14 20 C12.20214541 24.87989104 10.20878799 27.95082571 5.5 30.1875 C3 31 3 31 0 31 C0 20.77 0 10.54 0 0 Z " fill="#FBEBEB" transform="translate(343,516)"/>
<path d="M0 0 C3 2.4375 3 2.4375 5 5 C5.33 5.33 5.66 5.66 6 6 C6.5573482 11.68495163 5.58551703 14.57083191 2 19 C-1.7489923 20.87449615 -5.92720547 20.65855233 -10 20 C-12.84064179 18.30063151 -13.34854524 17.08271556 -15 14 C-15.91506578 9.77091223 -15.4917442 6.77039925 -13.125 3.0625 C-9.25125182 -0.69731441 -5.20805262 -0.83652659 0 0 Z " fill="#147D5A" transform="translate(856,513)"/>
<path d="M0 0 C0.33 0 0.66 0 1 0 C1.7188467 5.26440497 2.43067827 10.52969519 3.13623047 15.79589844 C3.37685108 17.58456549 3.61933438 19.37298305 3.86376953 21.16113281 C4.21625542 23.74219276 4.56187131 26.32409736 4.90625 28.90625 C5.07030334 30.09112 5.07030334 30.09112 5.2376709 31.29992676 C5.88891756 36.24547029 6.09937546 41.01135209 6 46 C2.37 46 -1.26 46 -5 46 C-5.11584068 40.18479775 -4.70322797 34.66239768 -3.90625 28.90625 C-3.79526978 28.07411987 -3.68428955 27.24198975 -3.56994629 26.38464355 C-3.21819802 23.75574254 -2.85922515 21.12788866 -2.5 18.5 C-2.25863422 16.70579372 -2.0177442 14.91152337 -1.77734375 13.1171875 C-1.19039147 8.74403199 -0.59696278 4.37179979 0 0 Z " fill="#FEF9F9" transform="translate(409,529)"/>
<path d="M0 0 C2.31 0 4.62 0 7 0 C7.66 11.55 8.32 23.1 9 35 C6.36 35 3.72 35 1 35 C-0.1687481 31.4937557 -0.12514267 28.3522134 -0.09765625 24.70703125 C-0.0962413 24.00100266 -0.09482635 23.29497406 -0.09336853 22.56755066 C-0.08777764 20.31582374 -0.07522688 18.06419679 -0.0625 15.8125 C-0.05748382 14.28450665 -0.05292112 12.75651173 -0.04882812 11.22851562 C-0.0378112 7.48563865 -0.02055287 3.74283627 0 0 Z " fill="#EEF5F3" transform="translate(467,390)"/>
<path d="M0 0 C1.41702513 0.14230808 2.8336096 0.28900746 4.25 0.4375 C5.43335938 0.55931641 5.43335938 0.55931641 6.640625 0.68359375 C8.82364639 0.97634993 10.8773182 1.42064419 13 2 C11.38168081 9.34467941 9.69857238 16.67349113 8 24 C4.7 23.67 1.4 23.34 -2 23 C-2.20885494 15.06351225 -1.52223949 7.78788598 0 0 Z " fill="#DD2E29" transform="translate(741,508)"/>
<path d="M0 0 C8 0 8 0 9.96875 1.703125 C11.81373613 5.8124123 11.69757049 9.59740887 11 14 C9.81026536 17.11669802 8.5061438 19.76778355 6 22 C4.02 22.33 2.04 22.66 0 23 C0 15.41 0 7.82 0 0 Z " fill="#FDF7F7" transform="translate(224,542)"/>
<path d="M0 0 C0.33 0 0.66 0 1 0 C2.91967736 6.14296755 3.37272265 12.06071086 3.65795898 18.45117188 C3.80274956 21.52530056 4.02063213 24.06189639 5 27 C5.03954234 29.33299825 5.04401732 31.66708189 5 34 C2.36 34 -0.28 34 -3 34 C-3.23181842 26.33496683 -2.52375362 18.96553358 -1.5 11.375 C-1.35691406 10.27542969 -1.21382813 9.17585937 -1.06640625 8.04296875 C-0.71660766 5.36117955 -0.36104277 2.68029447 0 0 Z " fill="#FEF8F8" transform="translate(282,548)"/>
<path d="M0 0 C3 2.4375 3 2.4375 5 5 C5.33 5.33 5.66 5.66 6 6 C6.5573482 11.68495163 5.58551703 14.57083191 2 19 C-1.7489923 20.87449615 -5.92720547 20.65855233 -10 20 C-12.84064179 18.30063151 -13.34854524 17.08271556 -15 14 C-15.91506578 9.77091223 -15.4917442 6.77039925 -13.125 3.0625 C-9.25125182 -0.69731441 -5.20805262 -0.83652659 0 0 Z M-13 6 C-13.70862744 8.83450976 -13.70862744 11.16549024 -13 14 C-10.55871269 17.44652326 -9.17033126 18.78056289 -5 19.5625 C-1.34092496 18.87642343 0.35167676 17.57265686 3 15 C4.58939347 11.82121306 4.41576711 9.5043228 4 6 C1.11949992 2.77658324 -0.80918173 1.24302414 -5.0625 0.375 C-9.16102524 1.24702665 -10.58610696 2.592151 -13 6 Z " fill="#C3DED5" transform="translate(856,513)"/>
<path d="M0 0 C6.25 -0.48076923 6.25 -0.48076923 9.4375 1.5625 C11.58879747 4.91852406 11.48947291 7.08421671 11 11 C9.5 13.4375 9.5 13.4375 8 15 C7.01 14.67 6.02 14.34 5 14 C5.66 14 6.32 14 7 14 C6.34 10.04 5.68 6.08 5 2 C3.02 2 1.04 2 -1 2 C-0.67 1.34 -0.34 0.68 0 0 Z " fill="#0B7853" transform="translate(849,515)"/>
<path d="M0 0 C3.47921735 -0.02683201 6.95823039 -0.0467567 10.4375 -0.0625 C11.92733398 -0.07506836 11.92733398 -0.07506836 13.44726562 -0.08789062 C14.39150391 -0.09111328 15.33574219 -0.09433594 16.30859375 -0.09765625 C17.62041626 -0.10551147 17.62041626 -0.10551147 18.95874023 -0.11352539 C21 0 21 0 22 1 C22.23192865 2.51469448 22.41215238 4.03754562 22.5625 5.5625 C22.68818359 6.80193359 22.68818359 6.80193359 22.81640625 8.06640625 C22.87699219 8.70449219 22.93757812 9.34257813 23 10 C22.34 10 21.68 10 21 10 C20.67 7.36 20.34 4.72 20 2 C13.73 2 7.46 2 1 2 C1 4.64 1 7.28 1 10 C0.67 10 0.34 10 0 10 C0 6.7 0 3.4 0 0 Z " fill="#E66663" transform="translate(749,583)"/>
<path d="M0 0 C1.99954746 -0.04254356 4.00041636 -0.04080783 6 0 C7.58272601 1.58272601 7.34735747 3.38034003 7.5625 5.5625 C7.64628906 6.38878906 7.73007812 7.21507812 7.81640625 8.06640625 C7.87699219 8.70449219 7.93757812 9.34257813 8 10 C7.01 10 6.02 10 5 10 C5 8.68 5 7.36 5 6 C4.01 6 3.02 6 2 6 C2 7.32 2 8.64 2 10 C1.34 10 0.68 10 0 10 C0 6.7 0 3.4 0 0 Z " fill="#BAD9CF" transform="translate(848,518)"/>
<path d="M0 0 C1.66611905 -0.042721 3.33382885 -0.04063832 5 0 C6 1 6 1 6.1875 3.4375 C6 6 6 6 4 8 C2.68 8 1.36 8 0 8 C0 5.36 0 2.72 0 0 Z " fill="#0C7854" transform="translate(447,399)"/>
<path d="M0 0 C0.99 0.66 1.98 1.32 3 2 C3.5853948 6.34864706 3.26961632 8.51469063 1.125 12.375 C-1 15 -1 15 -3 16 C-5.6723621 16.13415472 -8.32250488 16.04318541 -11 16 C-11 15.67 -11 15.34 -11 15 C-9.741875 14.7525 -8.48375 14.505 -7.1875 14.25 C-4.59413538 13.5752662 -3.13302842 13.10392846 -1 11.4375 C0.54008731 7.68353718 0.23094068 4.00297171 0 0 Z " fill="#CCE3DB" transform="translate(859,517)"/>
<path d="M0 0 C0.99 0 1.98 0 3 0 C3 1.32 3 2.64 3 4 C3.99 4.33 4.98 4.66 6 5 C6 5.66 6 6.32 6 7 C3.29120665 8.35439668 0.99066732 8.06501451 -2 8 C-2 7.01 -2 6.02 -2 5 C-1.34 4.67 -0.68 4.34 0 4 C0 2.68 0 1.36 0 0 Z " fill="#1C815F" transform="translate(850,524)"/>
<path d="M0 0 C0.66 0.33 1.32 0.66 2 1 C-2.29 5.29 -6.58 9.58 -11 14 C-11 10.30159372 -10.17133056 9.68584567 -7.75 7 C-7.14671875 6.319375 -6.5434375 5.63875 -5.921875 4.9375 C-4.06233388 3.06284066 -2.15205789 1.52358081 0 0 Z " fill="#348E70" transform="translate(189,500)"/>
<path d="M0 0 C2 2 2 2 2.1953125 3.9453125 C2.13020833 5.96354167 2.06510417 7.98177083 2 10 C1.34 10 0.68 10 0 10 C-0.33 12.64 -0.66 15.28 -1 18 C-1.33 18 -1.66 18 -2 18 C-2.20190089 11.64012196 -1.6277833 6.14778871 0 0 Z " fill="#EC8886" transform="translate(282,544)"/>
<path d="M0 0 C0.33 0 0.66 0 1 0 C1 3.63 1 7.26 1 11 C-0.32 11 -1.64 11 -3 11 C-2.69078116 9.54096742 -2.37751201 8.08279278 -2.0625 6.625 C-1.88847656 5.81289063 -1.71445312 5.00078125 -1.53515625 4.1640625 C-1 2 -1 2 0 0 Z " fill="#208362" transform="translate(555,406)"/>
<path d="M0 0 C0.33 0 0.66 0 1 0 C2.59162079 5.57067277 3.20674944 10.21101581 3 16 C2.67 16 2.34 16 2 16 C1.67 14.02 1.34 12.04 1 10 C0.34 10 -0.32 10 -1 10 C-0.67 6.7 -0.34 3.4 0 0 Z " fill="#F8D3D2" transform="translate(282,548)"/>
<path d="M0 0 C1.98 0 3.96 0 6 0 C5.67 1.32 5.34 2.64 5 4 C4.01 4 3.02 4 2 4 C2 5.98 2 7.96 2 10 C1.34 10 0.68 10 0 10 C0 6.7 0 3.4 0 0 Z " fill="#85BBA9" transform="translate(848,518)"/>
<path d="M0 0 C0.66 0 1.32 0 2 0 C1.58578031 4.83256305 -0.46413986 6.82679218 -4 10 C-3.46602057 6.15534812 -2.45430332 3.98784751 0 1 C0 0.67 0 0.34 0 0 Z " fill="#E45753" transform="translate(577,445)"/>
</svg>
