<?xml version="1.0" encoding="UTF-8"?>
<svg version="1.1" xmlns="http://www.w3.org/2000/svg" width="512" height="512">
<path d="M0 0 C8.86626818 5.52324903 15.64261474 13.06020899 18.14453125 23.3359375 C19.51742493 34.80981133 18.37639594 43.84886125 11.35655212 53.2073822 C5.90912078 60.12693961 -0.45074355 66.19353328 -6.68530273 72.39282227 C-8.08576219 73.79271677 -9.4857798 75.19305342 -10.88539124 76.59379578 C-14.66551619 80.37449197 -18.45175329 84.1490119 -22.23915744 87.92241406 C-26.20389225 91.87460324 -30.16292269 95.83249844 -34.12257385 99.78977966 C-41.61235173 107.27335401 -49.10721091 114.75181767 -56.60393053 122.22843736 C-65.14235563 130.74446831 -73.67506793 139.2662135 -82.20731628 147.78843224 C-99.75037226 165.31061177 -117.30055398 182.8256395 -134.85546875 200.3359375 C-132.97531319 200.34140594 -132.97531319 200.34140594 -131.05717468 200.34698486 C-119.21395046 200.38401153 -107.37098441 200.44186817 -95.52795696 200.51984024 C-89.4400955 200.55925957 -83.35237749 200.59147539 -77.2644043 200.60693359 C-71.38330702 200.62213646 -65.50260427 200.65664701 -59.62168312 200.70424652 C-57.3839849 200.71902282 -55.14623035 200.72697635 -52.90848351 200.72782135 C-27.38555465 200.74714282 -27.38555465 200.74714282 -18.91796875 207.7734375 C-18.23734375 208.6190625 -17.55671875 209.4646875 -16.85546875 210.3359375 C-16.21182373 211.06635254 -15.56817871 211.79676758 -14.9050293 212.54931641 C-12.59369905 215.69184451 -11.28562969 218.84437988 -10 222.484375 C-9.74076248 223.19033813 -9.48152496 223.89630127 -9.21443176 224.62365723 C-7.72781503 228.68975814 -6.29400638 232.77399988 -4.86279297 236.85986328 C-4.23021266 238.65445539 -3.59623317 240.44855485 -2.9609375 242.2421875 C-2.63685913 243.1583786 -2.31278076 244.0745697 -1.97888184 245.01852417 C-0.01280366 250.46449885 2.17459416 255.72071121 4.64813232 260.95481873 C17.50792632 288.24618484 19.68495907 313.03212788 19.45703125 342.7734375 C19.45155022 343.67609093 19.44606918 344.57874435 19.44042206 345.50875092 C19.39778069 351.57682319 19.28764508 357.64086021 19.1328125 363.70703125 C19.11686476 364.49844576 19.10091702 365.28986027 19.08448601 366.10525703 C18.85621302 376.12852846 18.4537633 384.67222778 10.83203125 392.1484375 C5.73222434 396.93223073 1.10375712 398.17606652 -5.85546875 399.3359375 C-6.51546875 404.6159375 -7.17546875 409.8959375 -7.85546875 415.3359375 C-3.18822506 415.1788932 -3.18822506 415.1788932 1.47705078 414.97558594 C6.55211882 414.89024441 9.25200284 416.18293216 13.14453125 419.3359375 C17.42725622 424.19740909 18.27101021 426.62829496 18.3215332 433.07714844 C18.33139 434.1165155 18.33139 434.1165155 18.34144592 435.17687988 C18.36118843 437.47469183 18.37284477 439.77243833 18.3828125 442.0703125 C18.38688803 442.85533394 18.39096355 443.64035538 18.39516258 444.44916534 C18.41602934 448.605756 18.4303273 452.7623136 18.43969727 456.91894531 C18.45075126 461.20748847 18.48513725 465.49551126 18.52486897 469.7838707 C18.55104864 473.0850723 18.55939037 476.38615032 18.56297874 479.68744659 C18.56784279 481.26786048 18.5794517 482.84826891 18.59801674 484.42858124 C18.62243392 486.64518584 18.6214391 488.86044979 18.61450195 491.07714844 C18.62036819 492.33686462 18.62623444 493.59658081 18.63227844 494.89447021 C17.88756468 500.14905312 15.43448458 503.19955004 11.51953125 506.6484375 C7.38088722 509.58905299 4.20183038 509.47956336 -0.73731613 509.47015858 C-1.97903595 509.47368692 -1.97903595 509.47368692 -3.24584103 509.47728655 C-6.0498729 509.48400097 -8.85385869 509.48351759 -11.65789795 509.48310852 C-13.67650081 509.48640562 -15.695103 509.49013086 -17.71370435 509.49425 C-23.28437412 509.50429554 -28.85503312 509.50799088 -34.42571068 509.51063931 C-40.42448767 509.51453479 -46.42325607 509.52411361 -52.42202759 509.53285217 C-66.23494455 509.55170219 -80.04786215 509.56187566 -93.86078831 509.57031285 C-100.68388569 509.57451704 -107.50698219 509.57973933 -114.33007882 509.58499738 C-137.67773663 509.60288871 -161.02539468 509.61788567 -184.37305832 509.62531757 C-185.83927034 509.62579233 -187.30548236 509.62626822 -188.77169438 509.62674524 C-189.86237872 509.6270998 -189.86237872 509.6270998 -190.97509709 509.62746153 C-194.65917931 509.62866275 -198.34326153 509.62987819 -202.02734375 509.63110352 C-202.75846634 509.63134367 -203.48958894 509.63158382 -204.24286676 509.63183124 C-227.95347255 509.6397261 -251.66402834 509.6631612 -275.3746123 509.69565946 C-300.43178681 509.72994081 -325.48893206 509.74966713 -350.54613042 509.75296181 C-353.29571995 509.75337937 -356.04530947 509.75385893 -358.79489899 509.75438499 C-359.81046828 509.75456978 -359.81046828 509.75456978 -360.84655413 509.7547583 C-371.75222809 509.75709243 -382.65784408 509.77276421 -393.56349737 509.79322684 C-404.52124099 509.81346134 -415.47892429 509.81863942 -426.43668458 509.80945621 C-432.37559463 509.80489665 -438.31431608 509.80689368 -444.25320053 509.82621765 C-449.68638455 509.84374401 -455.11924092 509.84293763 -460.55242792 509.82732036 C-462.52151022 509.82492821 -464.4906146 509.82935028 -466.459663 509.84114901 C-469.13026316 509.85616458 -471.79968677 509.84666752 -474.47025681 509.83092213 C-475.24005229 509.84114433 -476.00984778 509.85136654 -476.80297041 509.86189851 C-481.96854475 509.79513668 -484.8695623 508.58057971 -488.85546875 505.3359375 C-493.13819372 500.47446591 -493.98194771 498.04358004 -494.0324707 491.59472656 C-494.0390419 490.90181519 -494.0456131 490.20890381 -494.05238342 489.49499512 C-494.07212593 487.19718317 -494.08378227 484.89943667 -494.09375 482.6015625 C-494.09782553 481.81654106 -494.10190105 481.03151962 -494.10610008 480.22270966 C-494.12696684 476.066119 -494.1412648 471.9095614 -494.15063477 467.75292969 C-494.16168876 463.46438653 -494.19607475 459.17636374 -494.23580647 454.8880043 C-494.26198614 451.5868027 -494.27032787 448.28572468 -494.27391624 444.98442841 C-494.27878029 443.40401452 -494.2903892 441.82360609 -494.30895424 440.24329376 C-494.33337142 438.02668916 -494.3323766 435.81142521 -494.32543945 433.59472656 C-494.33423882 431.70515228 -494.33423882 431.70515228 -494.34321594 429.77740479 C-493.68611822 425.14102686 -491.74857149 421.89848999 -488.12866211 418.91064453 C-485.98404915 416.25815104 -486.48621641 413.46621227 -486.484375 410.140625 C-486.46697457 408.68749786 -486.44939042 407.23437291 -486.43164062 405.78125 C-486.42162637 403.50386154 -486.41795689 401.22662817 -486.41967773 398.94921875 C-486.40054992 387.2582991 -485.46945459 377.94992334 -476.85546875 369.3359375 C-474.57660432 367.89082665 -472.22224992 366.63725095 -469.85546875 365.3359375 C-469.66869687 338.43298273 -469.5275671 311.53012492 -469.44097137 284.62665272 C-469.39969704 272.13524026 -469.34341289 259.6442303 -469.25195312 247.15307617 C-469.17228687 236.26744867 -469.12061989 225.38211261 -469.10276079 214.49620169 C-469.09231892 208.73048213 -469.06773188 202.96559644 -469.0096283 197.20014381 C-468.95539943 191.77530965 -468.93856142 186.35165417 -468.9506073 180.92657471 C-468.94840312 178.9338764 -468.93244509 176.94113942 -468.90182495 174.94867516 C-468.86208129 172.22957259 -468.87155462 169.51493382 -468.89343262 166.79573059 C-468.87012989 166.0048685 -468.84682715 165.21400641 -468.82281828 164.3991788 C-468.79398488 161.87990576 -468.79398488 161.87990576 -469.85546875 158.3359375 C-471.77763832 156.64541521 -473.66663198 155.49671687 -475.94168901 154.33025569 C-480.51465631 151.95433725 -483.03711959 147.00983352 -485.23046875 142.5234375 C-487.10909083 132.94246491 -485.96418013 125.47469266 -480.53515625 117.36328125 C-475.96434768 111.48117514 -470.5159586 108.53983177 -463.15871811 107.54260826 C-457.93660081 107.07402723 -452.68257995 107.18879027 -447.44384766 107.19067383 C-446.08797616 107.18767798 -444.73210551 107.18427447 -443.37623596 107.18049622 C-439.70880318 107.17169603 -436.04139376 107.1693198 -432.37395144 107.16868043 C-430.07879045 107.16796774 -427.78363533 107.16582931 -425.4884758 107.16318321 C-417.47050349 107.15394345 -409.45254777 107.14984667 -401.43457031 107.15063477 C-393.97794836 107.15123541 -386.52139878 107.14068265 -379.06479514 107.1248911 C-372.64757786 107.11178832 -366.23038417 107.10645201 -359.81315362 107.10709018 C-355.98718172 107.10734433 -352.1612742 107.10453892 -348.3353157 107.09391212 C-344.73523183 107.08418474 -341.13527332 107.08418353 -337.53518486 107.09142876 C-335.59632124 107.09296188 -333.6574575 107.08466067 -331.71861267 107.07598877 C-321.19555078 107.11365559 -311.91546514 107.94130667 -303.85546875 115.3359375 C-298.54545507 122.29350259 -296.26969564 128.54934088 -296.85546875 137.3359375 C-298.24173366 143.85608177 -301.02295582 149.6731616 -305.85546875 154.3359375 C-309.32046875 156.3159375 -309.32046875 156.3159375 -312.85546875 158.3359375 C-312.85546875 197.9359375 -312.85546875 237.5359375 -312.85546875 278.3359375 C-304.59708984 270.06184814 -296.33871094 261.78775879 -287.83007812 253.26293945 C-261.40854558 226.79326204 -234.97962703 200.33097056 -208.54604933 173.87332209 C-204.44047317 169.76399379 -200.33496245 165.65460011 -196.22949219 161.54516602 C-195.41216222 160.72704912 -194.59483226 159.90893222 -193.75273472 159.06602391 C-180.51696909 145.81720263 -167.28651278 132.56309156 -154.05800933 119.30701969 C-140.48529931 105.70625996 -126.90690317 92.11119657 -113.32320642 78.52140969 C-104.94082016 70.1349061 -96.56290617 61.74398542 -88.19064969 53.34736904 C-82.44988249 47.59075004 -76.70360387 41.83967102 -70.95295697 36.09292159 C-67.63479762 32.77668462 -64.31912635 29.45805604 -61.00997543 26.13282776 C-57.97883306 23.0870666 -54.94081395 20.04834337 -51.89723712 17.01500919 C-50.79891693 15.91795459 -49.70311876 14.81836783 -48.61015624 13.71597544 C-35.46007413 0.45908517 -18.62962491 -8.94983684 0 0 Z M-213.85546875 278.3359375 C-222.4395923 284.18749439 -230.52617023 290.51320084 -238.35546875 297.3359375 C-239.22844667 298.09592104 -239.22844667 298.09592104 -240.11906052 298.87125778 C-255.71895318 312.67773529 -264.60694898 326.01704609 -265.96899796 347.16716385 C-266.39224675 356.26195786 -266.29819463 365.30405526 -265.91796875 374.3984375 C-265.87602386 375.40878052 -265.83407898 376.41912354 -265.79086304 377.46008301 C-265.22547014 390.14649022 -264.09948814 402.67853387 -262.85546875 415.3359375 C-240.41546875 415.3359375 -217.97546875 415.3359375 -194.85546875 415.3359375 C-195.18546875 409.7259375 -195.51546875 404.1159375 -195.85546875 398.3359375 C-198.14484375 397.9646875 -198.14484375 397.9646875 -200.48046875 397.5859375 C-208.28098541 395.99287424 -213.38666963 391.81031213 -217.85546875 385.3359375 C-219.9223425 381.15740867 -220.168652 377.32133843 -220.19360352 372.74194336 C-220.20513962 371.99305344 -220.21667572 371.24416351 -220.2285614 370.47257996 C-220.26281032 367.99862507 -220.28137436 365.52492107 -220.296875 363.05078125 C-220.30722936 361.77119632 -220.30722936 361.77119632 -220.31779289 360.46576118 C-220.35363107 355.93640088 -220.37715538 351.40716471 -220.39086914 346.87768555 C-220.40403063 343.16784123 -220.43855378 339.45921459 -220.4934082 335.74975586 C-221.04032655 298.07313268 -221.04032655 298.07313268 -214.26928711 283.46704102 C-213.80272705 282.43377686 -213.33616699 281.4005127 -212.85546875 280.3359375 C-213.35046875 279.3459375 -213.35046875 279.3459375 -213.85546875 278.3359375 Z M-126.85546875 399.3359375 C-127.18546875 404.6159375 -127.51546875 409.8959375 -127.85546875 415.3359375 C-110.36546875 415.3359375 -92.87546875 415.3359375 -74.85546875 415.3359375 C-75.18546875 410.0559375 -75.51546875 404.7759375 -75.85546875 399.3359375 C-92.68546875 399.3359375 -109.51546875 399.3359375 -126.85546875 399.3359375 Z " fill="#000000" transform="translate(493.85546875,2.6640625)"/>
<path d="M0 0 C157.74 0 315.48 0 478 0 C478 19.8 478 39.6 478 60 C320.26 60 162.52 60 0 60 C0 40.2 0 20.4 0 0 Z " fill="#5F7C8A" transform="translate(17,435)"/>
<path d="M0 0 C39.27 0 78.54 0 119 0 C119 67.65 119 135.3 119 205 C79.73 205 40.46 205 0 205 C0 137.35 0 69.7 0 0 Z " fill="#FDE939" transform="translate(43,162)"/>
<path d="M0 0 C2.69227907 0.03541495 5.3844534 0.04188101 8.07693481 0.04981995 C13.67839712 0.08177673 19.27428423 0.18693341 24.87353516 0.34545898 C32.04714057 0.54829873 39.21716596 0.63414501 46.39329338 0.68200588 C53.26276019 0.72797468 60.13124781 0.83110078 67 0.9375 C68.30460049 0.95447874 69.60920097 0.97145748 70.95333481 0.98895073 C74.63922806 1.04685506 78.32249232 1.13940847 82.00732422 1.24389648 C83.09512177 1.257341 84.18291931 1.27078552 85.30368042 1.28463745 C93.53476333 1.57739798 93.53476333 1.57739798 97.12442017 4.29742432 C99.70689371 7.28701919 100.96689546 9.60153713 102.26757812 13.31762695 C102.70823608 14.54693436 103.14889404 15.77624176 103.60290527 17.0428009 C104.06112711 18.37998131 104.51900378 19.71728004 104.9765625 21.0546875 C105.46760062 22.44470109 105.96034934 23.83411145 106.45471191 25.22294617 C107.75114177 28.87885744 109.02527221 32.54214944 110.29449463 36.20758057 C111.57054201 39.88172566 112.86564669 43.54912425 114.16015625 47.21679688 C115.62603976 51.37108951 117.09055323 55.52574359 118.53771973 59.68659973 C121.29528111 67.6014546 121.29528111 67.6014546 124.22827148 75.45223999 C124.50430458 76.16986857 124.78033768 76.88749716 125.06473541 77.62687206 C125.59605904 79.00045769 126.13379036 80.37158878 126.67910004 81.7396822 C128.63949817 86.80847272 129.14571937 90.75844217 128.5703125 96.12890625 C127.6525 96.16628906 126.7346875 96.20367187 125.7890625 96.2421875 C116.16469778 96.75777847 108.39324343 97.52451215 101.109375 104.359375 C94.47766663 111.98415645 95.2530276 119.88817978 94.5703125 130.12890625 C49.3603125 130.12890625 4.1503125 130.12890625 -42.4296875 130.12890625 C-42.7596875 124.84890625 -43.0896875 119.56890625 -43.4296875 114.12890625 C-46.85907069 106.41279407 -50.82405831 101.87640718 -58.4296875 98.12890625 C-62.08322532 96.89015308 -65.85019485 96.81461411 -69.6796875 96.56640625 C-71.57460938 96.44072266 -71.57460938 96.44072266 -73.5078125 96.3125 C-74.47203125 96.25191406 -75.43625 96.19132812 -76.4296875 96.12890625 C-77.03263935 87.95573951 -74.91601997 81.67736632 -72.08203125 74.0625 C-71.40775841 72.21230003 -71.40775841 72.21230003 -70.71986389 70.32472229 C-69.77022129 67.72494175 -68.80992462 65.12941918 -67.84204102 62.53637695 C-66.61182498 59.23724433 -65.41121642 55.92822651 -64.21878719 52.6152792 C-63.06518777 49.42470196 -61.88475356 46.24425199 -60.70703125 43.0625 C-60.28381088 41.88521835 -59.86059052 40.70793671 -59.42454529 39.49497986 C-58.79468468 37.82768578 -58.79468468 37.82768578 -58.15209961 36.12670898 C-57.61582191 34.67517677 -57.61582191 34.67517677 -57.06871033 33.19432068 C-55.22921714 29.75397264 -53.04618807 27.21659798 -50.42339802 24.3500967 C-48.30351339 21.98833582 -46.34826794 19.52912286 -44.37057495 17.04750061 C-30.96740367 1.17041156 -20.14385954 -0.71463635 0 0 Z " fill="#F24234" transform="translate(366.4296875,219.87109375)"/>
<path d="M0 0 C1.1942585 -0.01279495 1.1942585 -0.01279495 2.41264343 -0.02584839 C3.70941261 -0.02448883 3.70941261 -0.02448883 5.03237915 -0.02310181 C5.9499147 -0.02981903 6.86745026 -0.03653625 7.81278992 -0.04345703 C10.84649061 -0.06245754 13.87997031 -0.06636226 16.91372681 -0.06851196 C19.0235605 -0.07493841 21.13339329 -0.08166665 23.2432251 -0.08868408 C27.66661648 -0.10066195 32.08992973 -0.10436437 36.51333618 -0.10317993 C42.17838555 -0.1029767 47.84293347 -0.13028073 53.507864 -0.16472435 C57.86592912 -0.18697357 62.22387318 -0.19101808 66.58198929 -0.18996048 C68.67036289 -0.19231934 70.75873968 -0.20115888 72.84705734 -0.21662521 C75.76986448 -0.23624501 78.69158536 -0.23046271 81.6144104 -0.21841431 C82.90510689 -0.23527283 82.90510689 -0.23527283 84.22187805 -0.25247192 C89.62082575 -0.1959853 92.65296168 0.70805099 96.95278931 4.26742554 C100.43825646 7.92848103 102.05345913 11.55577891 103.74966431 16.29086304 C103.98816101 16.95526398 104.22665771 17.61966492 104.47238159 18.30419922 C104.97123412 19.70263971 105.46511765 21.10286178 105.95425415 22.50473022 C106.70005012 24.63460286 107.46781487 26.75562374 108.23794556 28.87680054 C108.72236425 30.24351178 109.20548082 31.6106854 109.68716431 32.97836304 C110.12254517 34.20861206 110.55792603 35.43886108 111.00650024 36.70639038 C112.69663297 43.06662671 112.33060474 47.79019942 109.22622681 53.47055054 C106.41436773 57.43820445 102.60741441 59.3554331 97.95278931 60.26742554 C96.40786499 60.363495 94.85948628 60.41060415 93.31161499 60.42132568 C92.38370651 60.42992615 91.45579803 60.43852661 90.49977112 60.4473877 C89.4887886 60.45164764 88.47780609 60.45590759 87.43618774 60.46029663 C86.36580765 60.46847412 85.29542755 60.47665161 84.19261169 60.4850769 C80.64913489 60.50989647 77.10569804 60.52643762 73.56216431 60.54086304 C72.35120338 60.54618671 71.14024246 60.55151039 69.89258575 60.55699539 C63.48378635 60.58371115 57.07500632 60.60309173 50.66616821 60.61752319 C45.3642351 60.63086733 40.06268639 60.65873186 34.76089478 60.69955444 C28.35662609 60.74886469 21.95270635 60.77364233 15.54825592 60.78075027 C13.10983725 60.78746282 10.67142637 60.8026848 8.23311615 60.82664108 C4.81732148 60.8582883 1.40287202 60.85832936 -2.01303101 60.85092163 C-3.51735939 60.87552963 -3.51735939 60.87552963 -5.05207825 60.90063477 C-11.50202775 60.84350691 -16.17337964 59.67225015 -21.04721069 55.26742554 C-24.61143119 50.2373849 -25.33075708 46.4649394 -25.04721069 40.26742554 C-23.8663789 35.710537 -22.26812321 31.30667934 -20.67709351 26.87924194 C-19.92646637 24.77933098 -19.2047872 22.67094639 -18.48471069 20.56039429 C-13.15370816 5.31268751 -13.15370816 5.31268751 -6.11998558 1.11812401 C-3.9100399 0.21112855 -2.37752233 0.01156424 0 0 Z " fill="#030000" transform="translate(349.0472106933594,238.73257446289063)"/>
<path d="M0 0 C1.91891052 -0.00929787 1.91891052 -0.00929787 3.87658691 -0.01878357 C6.5730198 -0.02914056 9.26892339 -0.02469458 11.96533203 -0.01000977 C15.40192781 0.00718491 18.83685248 -0.01634641 22.27326202 -0.05149937 C25.57810349 -0.07887557 28.88255073 -0.06873119 32.1875 -0.0625 C34.02374939 -0.08238731 34.02374939 -0.08238731 35.89709473 -0.10267639 C43.07320899 -0.02479351 48.10185694 0.73580562 53.59375 5.56640625 C57.58328946 9.96512925 58.71504511 12.39391221 58.78662109 18.26611328 C58.80268402 19.46140656 58.81874695 20.65669983 58.83529663 21.88821411 C58.87972888 27.37208898 58.92127366 32.8558315 58.94384766 38.33984375 C58.95715168 41.23046769 58.98493545 44.12037975 59.02587891 47.01074219 C59.07541532 50.50798465 59.09999474 54.00458467 59.10707474 57.50216293 C59.11698711 59.47189859 59.15118524 61.44146422 59.18588257 63.41091919 C59.16858204 70.78149362 58.55930211 75.91588428 53.59375 81.56640625 C49.23854809 85.78111777 43.71151238 86.80838008 37.80712891 86.87280273 C36.69222076 86.88879013 35.57731262 86.90477753 34.42861938 86.92124939 C32.64250748 86.92929344 32.64250748 86.92929344 30.8203125 86.9375 C29.58260101 86.94652847 28.34488953 86.95555695 27.06967163 86.96485901 C24.45565198 86.97934416 21.84159622 86.98824392 19.22753906 86.99194336 C15.23977323 86.99838524 11.25307387 87.05305717 7.265625 87.10351562 C4.72136169 87.11297992 2.17708891 87.12021492 -0.3671875 87.125 C-2.14722672 87.15429848 -2.14722672 87.15429848 -3.96322632 87.18418884 C-11.07698124 87.14562749 -15.94867766 86.31334982 -21.40625 81.56640625 C-25.5959651 77.05440537 -26.52508798 73.8141782 -26.59912109 67.75317383 C-26.61518402 66.55795609 -26.63124695 65.36273834 -26.64779663 64.13130188 C-26.69230348 58.66004672 -26.73375572 53.18892259 -26.75634766 47.7175293 C-26.76966169 44.83374126 -26.79746854 41.9506651 -26.83837891 39.06713867 C-26.88791195 35.57522716 -26.91249374 32.08395881 -26.91957474 28.59171104 C-26.92948347 26.62640453 -26.96367868 24.66126835 -26.99838257 22.69624329 C-26.98361509 16.42155064 -26.89809141 11.24096696 -22.98001099 6.11819458 C-16.42567899 -0.34462664 -8.76995047 -0.0355326 0 0 Z " fill="#020302" transform="translate(86.40625,178.43359375)"/>
<path d="M0 0 C0.96143008 0.00460896 1.92286016 0.00921793 2.91342449 0.01396656 C4.02255199 0.00709324 5.1316795 0.00021992 6.27441692 -0.00686169 C7.48138729 0.01111469 8.68835766 0.02909107 9.93190289 0.04761219 C11.21035076 0.04688206 12.48879864 0.04615192 13.80598736 0.04539967 C17.30386683 0.04396707 20.80088624 0.07332981 24.2985661 0.10826945 C27.95671125 0.13955994 31.61487687 0.14246578 35.27313519 0.14839649 C42.19698012 0.16392715 49.12042956 0.20494465 56.04410046 0.25514394 C63.92792822 0.31106197 71.81177503 0.33853002 79.69575179 0.36362112 C95.91039754 0.41586167 112.12449864 0.50754309 128.33888531 0.61523914 C128.33888531 11.83523914 128.33888531 23.05523914 128.33888531 34.61523914 C83.45888531 34.61523914 38.57888531 34.61523914 -7.66111469 34.61523914 C-7.66111469 1.77121928 -7.66111469 1.77121928 0 0 Z " fill="#FE5621" transform="translate(33.66111469268799,383.3847608566284)"/>
<path d="M0 0 C3.7229703 2.6592645 6.55543557 5.73587115 8.625 9.875 C8.71696252 11.31949967 8.74693366 12.76818361 8.74525452 14.21560669 C8.74662918 15.12708466 8.74800385 16.03856262 8.74942017 16.97766113 C8.74402725 18.48169495 8.74402725 18.48169495 8.73852539 20.01611328 C8.73867142 21.06979095 8.73881744 22.12346863 8.7389679 23.20907593 C8.7382692 26.7045088 8.73047881 30.1998889 8.72265625 33.6953125 C8.72079192 36.11384044 8.71936809 38.53236876 8.71836853 40.95089722 C8.71454456 47.32628415 8.70471529 53.70164841 8.69366455 60.07702637 C8.68344785 66.57869154 8.67887035 73.08036037 8.67382812 79.58203125 C8.66309293 92.34636574 8.64549708 105.11067744 8.625 117.875 C-2.595 117.875 -13.815 117.875 -25.375 117.875 C-25.51070476 104.07939285 -25.62071943 90.28423104 -25.68587303 76.48810673 C-25.71714795 70.08158069 -25.75955256 63.67553609 -25.82763672 57.26928711 C-25.89296329 51.0836001 -25.92873491 44.89837535 -25.94426346 38.71236992 C-25.95532571 36.35568404 -25.97692802 33.99902265 -26.00938034 31.64253426 C-26.05311825 28.33413712 -26.05892655 25.02763518 -26.05615234 21.71899414 C-26.077724 20.7508226 -26.09929565 19.78265106 -26.121521 18.78514099 C-26.05726687 11.67505712 -23.93030122 7.29987823 -19.375 1.875 C-14.29304032 -2.91656199 -6.23803553 -2.07934518 0 0 Z " fill="#545C60" transform="translate(204.375,300.125)"/>
<path d="M0 0 C39.27 0 78.54 0 119 0 C119 67.65 119 135.3 119 205 C79.73 205 40.46 205 0 205 C0 204.67 0 204.34 0 204 C33.66 204 67.32 204 102 204 C101.505 150.045 101.505 150.045 101 95 C100.01 95.495 100.01 95.495 99 96 C99.32564438 95.13259689 99.65128876 94.26519379 99.98680115 93.37150574 C100.98837198 90.03869324 101.23681755 87.51644428 101.21118164 84.0559082 C101.20780289 82.90222244 101.20442413 81.74853668 101.20094299 80.55989075 C101.18075356 78.69913155 101.18075356 78.69913155 101.16015625 76.80078125 C101.15219828 74.80633431 101.14424682 72.81188733 101.13662624 70.81743908 C101.12351848 68.01855873 101.10135761 65.2197793 101.07904053 62.42095947 C101.0360051 56.93513293 101.00540988 51.44928559 100.9829998 45.96333885 C100.97321438 44.09485348 100.95583846 42.22641233 100.93800354 40.35798645 C100.86753871 27.19616663 101.51113908 14.19924483 102 1 C68.34 1 34.68 1 0 1 C0 0.67 0 0.34 0 0 Z " fill="#FBD733" transform="translate(43,162)"/>
<path d="M0 0 C67.65 0 135.3 0 205 0 C205 11 205 11 203.125 14.125 C199.36869386 17.43938777 196.22689019 17.15303556 191.42814636 17.16062927 C190.24256109 17.168261 190.24256109 17.168261 189.03302461 17.17604691 C186.3699186 17.19181226 183.7068398 17.20030715 181.04370117 17.20874023 C179.14021124 17.21827529 177.23672306 17.22816629 175.33323669 17.23838806 C169.06983506 17.26980941 162.80641999 17.29004191 156.54296875 17.30859375 C154.94602531 17.31353973 154.94602531 17.31353973 153.31682038 17.31858563 C143.28169943 17.34936462 133.24657555 17.37607985 123.21142101 17.39300442 C110.36222902 17.41492689 97.5134541 17.45692858 84.66442889 17.52644199 C75.63678654 17.57362895 66.60925694 17.59793079 57.58149511 17.6052013 C52.18597179 17.61016508 46.79091824 17.6253151 41.39552879 17.6649456 C36.32041932 17.70173214 31.24604945 17.71024788 26.17083168 17.69693947 C24.30717133 17.69699355 22.44347887 17.70734306 20.5799408 17.7286911 C18.03666325 17.75627077 15.49610225 17.74691219 12.95280457 17.72825623 C12.21388904 17.74505115 11.47497352 17.76184608 10.71366662 17.77914995 C6.83546057 17.70797125 5.07085898 17.05575035 2.00294971 14.64198399 C0 11 0 11 0 0 Z " fill="#7E8D93" transform="translate(290,367)"/>
<path d="M0 0 C3.77702297 2.63513231 6.60374735 5.7074947 8.6875 9.875 C8.99609375 12.16015625 8.99609375 12.16015625 9.125 14.9375 C9.18558594 15.83597656 9.24617188 16.73445313 9.30859375 17.66015625 C7.35228894 27.78618682 -2.40759613 35.37842797 -9.45703125 42.34765625 C-10.63491822 43.52248004 -11.81221045 44.6979004 -12.98893738 45.87388611 C-15.4394972 48.31987261 -17.89484757 50.76090135 -20.35424805 53.19799805 C-23.51321882 56.32846899 -26.66324312 59.4677565 -29.81021595 62.61028385 C-32.23311181 65.02903728 -34.65882527 67.44494672 -37.08560753 69.85980034 C-38.24913941 71.01762403 -39.41219692 72.17592465 -40.5747776 73.33470345 C-42.19022691 74.94332107 -43.80901347 76.54849592 -45.42895508 78.15258789 C-46.35017654 79.06698135 -47.27139801 79.98137482 -48.22053528 80.92347717 C-50.3125 82.875 -50.3125 82.875 -51.3125 82.875 C-56.92034694 40.03728035 -56.92034694 40.03728035 -46.40814209 25.97283936 C-35.72173571 13.36380803 -18.1445095 -6.16228624 0 0 Z " fill="#F34234" transform="translate(486.3125,18.125)"/>
<path d="M0 0 C1.39162879 -0.00350277 2.78325357 -0.00916312 4.17486572 -0.01681519 C7.94777888 -0.03105089 11.71996214 -0.01401437 15.49280548 0.00946999 C19.44360568 0.02959349 23.394376 0.02369865 27.34521484 0.0213623 C33.97961447 0.02141586 40.61372915 0.04116299 47.24804688 0.07324219 C54.91494892 0.11013441 62.58147773 0.11891759 70.24845695 0.11194468 C77.62803048 0.10563631 85.0074762 0.1164001 92.38702393 0.13591003 C95.52567366 0.14407829 98.66425801 0.14679464 101.80291748 0.1452179 C105.49992275 0.14433802 109.19657413 0.15858243 112.89348602 0.18444443 C114.8951291 0.19500647 116.89683266 0.19093742 118.89849854 0.18643188 C120.69018463 0.20345657 120.69018463 0.20345657 122.51806641 0.2208252 C123.55412018 0.22455391 124.59017395 0.22828262 125.65762329 0.23212433 C128.92980043 0.67683202 130.82447282 1.67729463 133.4765625 3.61523438 C135.00502911 6.6721676 134.70898695 9.24507985 134.4765625 12.61523438 C132.71641119 15.80027007 131.97765334 16.4482041 128.4765625 17.61523438 C126.5725745 17.71662948 124.6652339 17.75889799 122.75857544 17.76913452 C120.97101334 17.78203522 120.97101334 17.78203522 119.14733887 17.79519653 C117.18359314 17.80158646 117.18359314 17.80158646 115.18017578 17.80810547 C113.7888468 17.81600822 112.39751986 17.82427727 111.00619507 17.83288574 C106.43644156 17.8590801 101.86667899 17.87440813 97.296875 17.88867188 C95.72350941 17.89403212 94.15014388 17.89940963 92.57677841 17.90480423 C86.03310248 17.92642678 79.489429 17.94516445 72.94572639 17.95642662 C63.56741611 17.97267399 54.18951956 18.00587755 44.81136525 18.06282747 C38.21680127 18.10150953 31.62234806 18.12105707 25.0276736 18.12634718 C21.08870698 18.13000231 17.1501819 18.14204035 13.21133804 18.17444992 C9.50609609 18.20450158 5.80156353 18.21085337 2.09622574 18.19906616 C0.08969743 18.19873989 -1.91678691 18.22322348 -3.92315674 18.2484436 C-13.72938009 18.18031562 -13.72938009 18.18031562 -16.83157349 15.29751587 C-19.08682632 11.72203764 -19.26500086 9.76798922 -18.5234375 5.61523438 C-14.15041172 -1.30452111 -7.50162883 -0.07641934 0 0 Z " fill="#FE9700" transform="translate(44.5234375,127.384765625)"/>
<path d="M0 0 C0.77251602 0.00359528 1.54503204 0.00719055 2.34095764 0.01089478 C3.55549622 0.01067574 3.55549622 0.01067574 4.79457092 0.01045227 C7.48380671 0.01115163 10.17297412 0.01894507 12.86219788 0.02676392 C14.72164878 0.02862802 16.58110018 0.03005196 18.44055176 0.03105164 C23.34458258 0.03487746 28.24858398 0.04470829 33.15260315 0.05575562 C38.15280255 0.06596836 43.15300669 0.07054896 48.1532135 0.07559204 C57.97158583 0.0863305 67.78993629 0.10340769 77.60829163 0.12442017 C78.24520686 1.54397907 78.88066348 2.96419246 79.51551819 4.38467407 C79.86954712 5.1754837 80.22357605 5.96629333 80.58833313 6.78106689 C81.98138739 9.98160719 83.18269089 13.21209219 84.35829163 16.49942017 C84.78626038 17.68277954 85.21422913 18.86613892 85.65516663 20.08535767 C86.60829163 23.12442017 86.60829163 23.12442017 86.60829163 26.12442017 C53.27829163 26.12442017 19.94829163 26.12442017 -14.39170837 26.12442017 C-10.98943565 13.64942017 -10.98943565 13.64942017 -8.76670837 7.49942017 C-8.12862244 5.71664673 -8.12862244 5.71664673 -7.47764587 3.89785767 C-5.73657558 -0.54876071 -4.61641127 0.00906898 0 0 Z " fill="#01A8F3" transform="translate(356.39170837402344,255.87557983398438)"/>
<path d="M0 0 C5.61782917 40.26026171 5.61782917 40.26026171 -3.33691406 53.61035156 C-11.8906142 64.62900492 -22.9221229 73.62573496 -34 82 C-37 81 -37 81 -38.0703125 78.99609375 C-38.41835937 78.15175781 -38.76640625 77.30742187 -39.125 76.4375 C-43.49358626 67.29485989 -50.72902634 62.47677112 -60 59 C-54.44717703 52.24278391 -48.28455885 46.12064605 -42.109375 39.94140625 C-40.9568165 38.7856302 -39.80433154 37.6297808 -38.6519165 36.47386169 C-36.24985505 34.06584448 -33.84576836 31.65987038 -31.44042969 29.25512695 C-28.35283791 26.16763753 -25.27222562 23.0732817 -22.19326401 19.97718906 C-19.82214041 17.59498368 -17.44652313 15.21729987 -15.06958771 12.8408947 C-13.93084443 11.70096904 -12.79372769 10.55941618 -11.65825653 9.41623116 C-10.07860746 7.8268434 -8.49282045 6.24384694 -6.90527344 4.66235352 C-6.00403748 3.75969254 -5.10280151 2.85703156 -4.17425537 1.92701721 C-2 0 -2 0 0 0 Z " fill="#ED4133" transform="translate(265,224)"/>
<path d="M0 0 C16.83 0 33.66 0 51 0 C51 16.83 51 33.66 51 51 C45.39 51 39.78 51 34 51 C33.93941406 49.59105469 33.87882812 48.18210938 33.81640625 46.73046875 C33.73199509 44.88280224 33.64734737 43.03514653 33.5625 41.1875 C33.52318359 40.25873047 33.48386719 39.32996094 33.44335938 38.37304688 C33.40146484 37.48037109 33.35957031 36.58769531 33.31640625 35.66796875 C33.26141968 34.43469849 33.26141968 34.43469849 33.20532227 33.17651367 C33.06572228 30.82094822 33.06572228 30.82094822 32 28 C30.42120045 27.72280619 28.83646933 27.47925857 27.25 27.25 C26.36828125 27.11078125 25.4865625 26.9715625 24.578125 26.828125 C21.93076504 26.81078668 21.93076504 26.81078668 19.71875 28.34375 C17.07015984 32.4370257 17.32364631 36.46968476 17.25 41.25 C17.20552734 42.65378906 17.20552734 42.65378906 17.16015625 44.0859375 C17.08961871 46.39016382 17.04252608 48.69508655 17 51 C11.39 51 5.78 51 0 51 C0 34.17 0 17.34 0 0 Z " fill="#01A7F2" transform="translate(77,196)"/>
<path d="M0 0 C3.1214273 1.3377223 3.81432545 3.42519032 5.17094803 6.41897583 C6.59318154 10.82434165 6.4721132 15.15923607 6.40545273 19.75033569 C6.40603683 20.8146431 6.40662094 21.8789505 6.40722275 22.97550964 C6.4044502 26.4711033 6.37339623 29.96582967 6.34197617 33.46127319 C6.33451086 35.8936415 6.3288193 38.32601585 6.32482529 40.75839233 C6.30959197 47.14371502 6.2703294 53.52867067 6.22600937 59.91384888 C6.18500733 66.4361169 6.1668037 72.95844454 6.14666367 79.48080444 C6.1038334 92.26612147 6.03560952 105.05116675 5.95135117 117.83627319 C0.34135117 117.83627319 -5.26864883 117.83627319 -11.04864883 117.83627319 C-11.18784163 104.04077281 -11.29436857 90.24544026 -11.35952187 76.44937992 C-11.39079679 70.04285388 -11.4332014 63.63680929 -11.50128555 57.2305603 C-11.56661212 51.04487329 -11.60238375 44.85964854 -11.61791229 38.67364311 C-11.62897454 36.31695723 -11.65057686 33.96029585 -11.68302917 31.60380745 C-11.72676708 28.29541031 -11.73257539 24.98890837 -11.72980118 21.68026733 C-11.75137283 20.71209579 -11.77294449 19.74392426 -11.79516983 18.74641418 C-11.73169021 11.72203433 -9.72481805 7.10765545 -5.04864883 1.83627319 C-2.04864883 -0.16372681 -2.04864883 -0.16372681 0 0 Z " fill="#7D8C91" transform="translate(190.04864883422852,300.1637268066406)"/>
<path d="M0 0 C5.44315669 40.35548758 5.44315669 40.35548758 -3.20654297 53.51220703 C-11.33982445 64.16448784 -22.02668307 73.35866189 -33 81 C-33.66 81 -34.32 81 -35 81 C-40.44315669 40.64451242 -40.44315669 40.64451242 -31.79345703 27.48779297 C-26.17801317 20.13316187 -9.95469868 0 0 0 Z " fill="#EBEBEB" transform="translate(316,173)"/>
<path d="M0 0 C5.57782371 41.14818768 5.57782371 41.14818768 -3.22265625 54.55957031 C-11.38995498 65.25460884 -22.09985292 74.1904718 -33 82 C-33.33 82 -33.66 82 -34 82 C-39.57782371 40.85181232 -39.57782371 40.85181232 -30.77734375 27.44042969 C-25.73392958 20.83610301 -9.01204965 0 0 0 Z " fill="#EF4134" transform="translate(367,121)"/>
<path d="M0 0 C5.57782371 41.14818768 5.57782371 41.14818768 -3.22265625 54.55957031 C-11.38995498 65.25460884 -22.09985292 74.1904718 -33 82 C-33.33 82 -33.66 82 -34 82 C-39.57782371 40.85181232 -39.57782371 40.85181232 -30.77734375 27.44042969 C-25.73392958 20.83610301 -9.01204965 0 0 0 Z " fill="#F0F0F0" transform="translate(418,70)"/>
<path d="M0 0 C2.039781 -0.13618716 4.08224263 -0.23252628 6.125 -0.3125 C7.83042969 -0.39951172 7.83042969 -0.39951172 9.5703125 -0.48828125 C13.97140378 0.1382978 16.28630734 1.58207395 19 5 C21.1935612 9.49954966 22.78828027 14.19658546 24.40625 18.92578125 C24.89728812 20.31579484 25.39003684 21.7052052 25.88439941 23.09403992 C27.18082927 26.74995119 28.45495971 30.41324319 29.72418213 34.07867432 C31.00022951 37.75281941 32.29533419 41.420218 33.58984375 45.08789062 C35.05572726 49.24218326 36.52024073 53.39683734 37.96740723 57.55769348 C40.72496861 65.47254835 40.72496861 65.47254835 43.65795898 73.32333374 C43.93399208 74.04096232 44.21002518 74.75859091 44.49442291 75.49796581 C45.02574654 76.87155144 45.56347786 78.24268253 46.10878754 79.61077595 C48.06918567 84.67956647 48.57540687 88.62953592 48 94 C39.585 94.495 39.585 94.495 31 95 C30.93047119 93.46714355 30.86094238 91.93428711 30.78930664 90.35498047 C30.13281756 83.24106476 27.85039441 76.98166646 25.37109375 70.3203125 C24.89733378 69.01911045 24.4247075 67.71749514 23.95314026 66.41549683 C22.71359588 63.00310063 21.4581372 59.59677749 20.19927979 56.19146729 C18.94738474 52.79547252 17.71201382 49.39348225 16.47460938 45.9921875 C11.85026523 33.30459433 7.17058891 20.63900321 2.26231384 8.05789185 C0 2.2115205 0 2.2115205 0 0 Z " fill="#C51D1D" transform="translate(447,222)"/>
<path d="M0 0 C3.77702297 2.63513231 6.60374735 5.7074947 8.6875 9.875 C8.99609375 12.16015625 8.99609375 12.16015625 9.125 14.9375 C9.18558594 15.83597656 9.24617188 16.73445313 9.30859375 17.66015625 C7.35228894 27.78618682 -2.40759613 35.37842797 -9.45703125 42.34765625 C-10.63491822 43.52248004 -11.81221045 44.6979004 -12.98893738 45.87388611 C-15.4394972 48.31987261 -17.89484757 50.76090135 -20.35424805 53.19799805 C-23.51321882 56.32846899 -26.66324312 59.4677565 -29.81021595 62.61028385 C-32.23311181 65.02903728 -34.65882527 67.44494672 -37.08560753 69.85980034 C-38.24913941 71.01762403 -39.41219692 72.17592465 -40.5747776 73.33470345 C-42.19022691 74.94332107 -43.80901347 76.54849592 -45.42895508 78.15258789 C-46.35017654 79.06698135 -47.27139801 79.98137482 -48.22053528 80.92347717 C-50.3125 82.875 -50.3125 82.875 -51.3125 82.875 C-56.936074 39.91714307 -56.936074 39.91714307 -46.25341797 25.89547729 C-38.37236303 16.74231931 -29.02067629 9.01331745 -19.3125 1.875 C-18.6525 2.205 -17.9925 2.535 -17.3125 2.875 C-18.281875 3.67679688 -19.25125 4.47859375 -20.25 5.3046875 C-41.01952102 21.40078072 -41.01952102 21.40078072 -51.4375 44.125 C-51.83353654 51.76118353 -50.87304081 59.40841243 -49.3125 66.875 C-44.401572 62.09165488 -39.51099673 57.28817643 -34.63354492 52.47070312 C-32.97466996 50.83685255 -31.31131966 49.20753218 -29.64331055 47.58300781 C-27.23573944 45.23661564 -24.84514898 42.8739822 -22.45703125 40.5078125 C-21.7172554 39.79384308 -20.97747955 39.07987366 -20.21528625 38.3442688 C-14.12080523 32.25307415 -9.23569692 25.60723837 -8.8125 16.75 C-9.09847461 11.25582108 -10.8608237 6.7783526 -13.3125 1.875 C-14.3025 1.215 -15.2925 0.555 -16.3125 -0.125 C-10.91330143 -1.92473286 -5.37692735 -1.82612627 0 0 Z " fill="#C31F1E" transform="translate(486.3125,18.125)"/>
<path d="M0 0 C0.91471573 -0.00478363 1.82943146 -0.00956726 2.77186584 -0.01449585 C4.70429201 -0.01789469 6.63677567 -0.0086933 8.5690918 0.01220703 C11.52198081 0.03894321 14.47105825 0.01247576 17.42382812 -0.01953125 C19.30339379 -0.01622655 21.18295708 -0.00981906 23.0625 0 C24.38301613 -0.01518173 24.38301613 -0.01518173 25.73020935 -0.03067017 C30.16413606 0.05377119 32.03958003 0.23485528 35.65844727 3.01806641 C37.59765625 5.6640625 37.59765625 5.6640625 38.16015625 8.6640625 C37.47407968 12.32313754 36.17031311 14.01573926 33.59765625 16.6640625 C30.31088245 18.3074494 26.66137331 17.87006103 23.046875 17.90234375 C22.19591751 17.9104155 21.34496002 17.91848724 20.46821594 17.92680359 C18.66511066 17.94064544 16.86197916 17.95136715 15.05883789 17.95922852 C12.30629558 17.97643039 9.55495787 18.02031299 6.80273438 18.06445312 C5.05079008 18.07458113 3.29883558 18.0830969 1.546875 18.08984375 C0.72587814 18.10735184 -0.09511871 18.12485992 -0.94099426 18.14289856 C-4.96108827 18.12770293 -6.92084273 17.969595 -10.39916992 15.76245117 C-12.78847695 13.25957562 -13.33277694 12.2901638 -13.71484375 8.8515625 C-12.86904645 0.22443004 -7.23474708 -0.08298575 0 0 Z " fill="#050501" transform="translate(90.40234375,281.3359375)"/>
<path d="M0 0 C0.89110474 -0.00478363 1.78220947 -0.00956726 2.70031738 -0.01449585 C4.57968924 -0.01789022 6.4591205 -0.00872012 8.33837891 0.01220703 C11.21000198 0.03898094 14.07771679 0.01244539 16.94921875 -0.01953125 C18.77865443 -0.01622707 20.60808769 -0.00982066 22.4375 0 C23.29283325 -0.01012115 24.1481665 -0.02024231 25.02941895 -0.03067017 C29.40224203 0.05501457 31.19626404 0.26013292 34.76367188 3.01806641 C36.71875 5.6640625 36.71875 5.6640625 37.28125 8.6640625 C36.59517343 12.32313754 35.29140686 14.01573926 32.71875 16.6640625 C29.4319762 18.3074494 25.78246706 17.87006103 22.16796875 17.90234375 C21.31701126 17.9104155 20.46605377 17.91848724 19.58930969 17.92680359 C17.78620441 17.94064544 15.98307291 17.95136715 14.17993164 17.95922852 C11.42738933 17.97643039 8.67605162 18.02031299 5.92382812 18.06445312 C4.17188383 18.07458113 2.41992933 18.0830969 0.66796875 18.08984375 C-0.15302811 18.10735184 -0.97402496 18.12485992 -1.81990051 18.14289856 C-5.83999452 18.12770293 -7.79974898 17.969595 -11.27807617 15.76245117 C-13.65441629 13.27315888 -14.20168393 12.26080799 -14.65625 8.8515625 C-14.28125 5.6640625 -14.28125 5.6640625 -12.33789062 3.00634766 C-8.16808491 -0.18894915 -5.11877441 -0.06057044 0 0 Z " fill="#040300" transform="translate(91.28125,315.3359375)"/>
<path d="M0 0 C5.61 0 11.22 0 17 0 C17 11.22 17 22.44 17 34 C11.39 34 5.78 34 0 34 C0 22.78 0 11.56 0 0 Z " fill="#D84315" transform="translate(145,384)"/>
<path d="M0 0 C11.22 0 22.44 0 34 0 C34 12 34 12 32.25 15.20703125 C27.25649403 17.96186207 22.6123 17.76451844 17 17.6875 C15.91976563 17.71521484 14.83953125 17.74292969 13.7265625 17.77148438 C4.91552114 17.7442898 4.91552114 17.7442898 1.75 14.64453125 C0 11 0 11 0 0 Z " fill="#273492" transform="translate(435,401)"/>
<path d="M0 0 C11.22 0 22.44 0 34 0 C34 11 34 11 32.125 14.125 C27.55801938 18.15468878 22.52532236 17.29673547 16.6875 17.375 C15.64142578 17.41238281 14.59535156 17.44976562 13.51757812 17.48828125 C8.91292415 17.54103986 5.85208289 17.46776981 1.76953125 15.2265625 C0 12 0 12 0 0 Z " fill="#3E50B2" transform="translate(316,401)"/>
<path d="M0 0 C1.04736328 -0.00515625 2.09472656 -0.0103125 3.17382812 -0.015625 C4.26244141 -0.00015625 5.35105469 0.0153125 6.47265625 0.03125 C7.55740234 0.01578125 8.64214844 0.0003125 9.75976562 -0.015625 C14.42549756 0.00731652 17.62685026 0.0292045 21.7578125 2.3125 C24.17776195 5.33344789 24.14094868 6.90809181 23.8984375 10.62890625 C23.39564449 13.26181157 22.4949782 14.71660005 20.53515625 16.53125 C15.97187946 18.05234226 11.44113119 17.83856567 6.66015625 17.90625 C5.66628906 17.94363281 4.67242187 17.98101562 3.6484375 18.01953125 C-3.66230121 18.10761244 -3.66230121 18.10761244 -7.625 15.26171875 C-10.40450896 11.136715 -10.16360029 9.42254577 -9.46484375 4.53125 C-6.60459986 0.79400759 -4.64383132 0.02199193 0 0 Z " fill="#F4F1F1" transform="translate(385.46484375,315.46875)"/>
<path d="M0 0 C5.28 0 10.56 0 16 0 C25 19.33333333 25 19.33333333 25 26 C-8.33 26 -41.66 26 -76 26 C-75.67 25.34 -75.34 24.68 -75 24 C-33.915 24.495 -33.915 24.495 8 25 C5.36 17.41 2.72 9.82 0 2 C0 1.34 0 0.68 0 0 Z " fill="#0271B0" transform="translate(418,256)"/>
<path d="M0 0 C-0.34933594 0.62003906 -0.69867188 1.24007813 -1.05859375 1.87890625 C-5.32502742 10.18213552 -5.74666796 16.79560238 -6 26 C-11.61 26 -17.22 26 -23 26 C-23.53571429 11.80357143 -23.53571429 11.80357143 -21.25 8.375 C-20.5075 7.59125 -19.765 6.8075 -19 6 C-18.360625 5.2575 -17.72125 4.515 -17.0625 3.75 C-11.84081291 -0.68052238 -6.53000682 -0.22823325 0 0 Z " fill="#C51E1D" transform="translate(467,324)"/>
<path d="M0 0 C5.61 0 11.22 0 17 0 C17.49070632 10.18215613 17.49070632 10.18215613 15.125 14.125 C11.48780073 17.33429347 9.16092933 17.10942088 4.375 17.0625 C3.18648438 17.05347656 1.99796875 17.04445313 0.7734375 17.03515625 C-0.14179688 17.02355469 -1.05703125 17.01195312 -2 17 C-1.76990234 16.21882813 -1.76990234 16.21882813 -1.53515625 15.421875 C-0.86017489 12.36721485 -0.65588882 9.36984029 -0.4375 6.25 C-0.293125 4.1875 -0.14875 2.125 0 0 Z " fill="#535B5F" transform="translate(478,367)"/>
<path d="M0 0 C0 5.61 0 11.22 0 17 C-5.61 17 -11.22 17 -17 17 C-17.5982906 6.11111111 -17.5982906 6.11111111 -15.25 1.75 C-10.16013483 -0.99069663 -5.72678736 -0.31465865 0 0 Z " fill="#FAD700" transform="translate(495,333)"/>
<path d="M0 0 C10.88888889 -0.5982906 10.88888889 -0.5982906 15.25 1.75 C17.99069663 6.83986517 17.31465865 11.27321264 17 17 C11.39 17 5.78 17 0 17 C0 11.39 0 5.78 0 0 Z " fill="#F9D700" transform="translate(290,333)"/>
<path d="M0 0 C2.06183633 -0.08150744 4.12461349 -0.1394194 6.1875 -0.1875 C7.33605469 -0.22230469 8.48460937 -0.25710937 9.66796875 -0.29296875 C13.3044035 0.02676467 15.1105914 0.81841727 18 3 C19.52846661 6.05693322 19.23242445 8.62984547 19 12 C17.23984869 15.1850357 16.50109084 15.83296972 13 17 C10.77181559 17.06937062 8.54165476 17.08457084 6.3125 17.0625 C4.54326172 17.04896484 4.54326172 17.04896484 2.73828125 17.03515625 C1.83464844 17.02355469 0.93101562 17.01195312 0 17 C0.495 15.515 0.495 15.515 1 14 C1.09377689 12.16859259 1.12992957 10.33380013 1.125 8.5 C1.12757813 7.5409375 1.13015625 6.581875 1.1328125 5.59375 C1.10992972 2.88428848 1.10992972 2.88428848 0 0 Z " fill="#F17A00" transform="translate(160,128)"/>
<path d="M0 0 C5.61 0 11.22 0 17 0 C17.26785714 13.39285714 17.26785714 13.39285714 15 17 C9.75857136 17.54958669 6.23060503 17.91064772 1.875 14.6875 C-1.16880826 10.25528798 -0.3130799 5.13451038 0 0 Z " fill="#3D4FB1" transform="translate(435,401)"/>
</svg>
