<?xml version="1.0" encoding="UTF-8" standalone="no"?>
<!-- Created with Inkscape (http://www.inkscape.org/) -->

<svg
   version="1.1"
   id="svg1"
   width="357.33334"
   height="93.333336"
   viewBox="0 0 357.33334 93.333336"
   sodipodi:docname="pinkberry-37221.eps"
   xmlns:inkscape="http://www.inkscape.org/namespaces/inkscape"
   xmlns:sodipodi="http://sodipodi.sourceforge.net/DTD/sodipodi-0.dtd"
   xmlns="http://www.w3.org/2000/svg"
   xmlns:svg="http://www.w3.org/2000/svg">
  <defs
     id="defs1" />
  <sodipodi:namedview
     id="namedview1"
     pagecolor="#ffffff"
     bordercolor="#000000"
     borderopacity="0.25"
     inkscape:showpageshadow="2"
     inkscape:pageopacity="0.0"
     inkscape:pagecheckerboard="0"
     inkscape:deskcolor="#d1d1d1">
    <inkscape:page
       x="0"
       y="0"
       inkscape:label="1"
       id="page1"
       width="357.33334"
       height="93.333336"
       margin="0"
       bleed="0" />
  </sodipodi:namedview>
  <g
     id="g1"
     inkscape:groupmode="layer"
     inkscape:label="1">
    <path
       id="path1"
       d="m 294.227,311.086 c -2.465,9.582 8.558,19.473 -2.032,6.723 -6.507,-7.606 -4.136,-18.59 4.442,-25.278 6.328,-4.926 19.168,1.418 24.308,7.746 7.871,9.188 10.59,28.661 -5.933,40.782 -18.735,13.679 -45.184,19.394 -71.344,-7.375 -21.539,-21.985 -20.406,-69.2 12.531,-97.016 33.047,-27.652 100.184,-34.559 147.305,11.422 45.363,44.262 85.941,149.601 -20.316,234.711 C 300.109,549.09 162.641,545.313 73.8398,439.633 -11,338.785 -19.2188,200.707 91.4766,86.2734 183.656,-8.94141 370.926,-30.9297 486.586,103.41 c 126.48,147.317 46.777,302.371 -28.93,366.016 l -43.687,28.89 c 0,0 212.765,-168.718 27.125,-349.398 C 310.75,22.1797 181.641,80.7383 132.527,135.07 64.6523,209.895 69.4023,307.434 120.66,382.441 c 71.57,104.84 182.125,97.411 231.153,59.868 74.199,-56.754 49.226,-145.77 19.511,-174.211 -29.797,-28.496 -67.043,-31.571 -103.043,1.757 -20.621,18.938 -14.468,48.567 -6.457,57.59 12.215,14.149 39.774,14.278 50.547,1.493 15.832,-18.735 -11.293,-44.969 -18.144,-17.852"
       style="fill:#eb677b;fill-opacity:1;fill-rule:evenodd;stroke:none"
       transform="matrix(0.13333333,0,0,-0.13333333,0,93.333333)" />
    <path
       id="path2"
       d="m 466.539,600.746 c 29.504,21.5 61.813,29.488 97.027,23.516 -6.25,-36.75 -23.836,-65.86 -52.89,-87.219 -29.055,-21.5 -61.453,-29.105 -97.41,-23.082 6.023,36.316 23.785,65.422 53.273,86.785"
       style="fill:#7aba08;fill-opacity:1;fill-rule:evenodd;stroke:none"
       transform="matrix(0.13333333,0,0,-0.13333333,0,93.333333)" />
    <path
       id="path3"
       d="m 401.832,543.988 c 0,0 33.496,28.836 12.481,64.848 -20.879,35.957 -60.829,82.418 -60.829,82.418 0,0 -19.433,-65.59 -15.175,-84.703 12.316,-54.258 63.523,-62.563 63.523,-62.563"
       style="fill:#7aba08;fill-opacity:1;fill-rule:evenodd;stroke:none"
       transform="matrix(0.13333333,0,0,-0.13333333,0,93.333333)" />
    <path
       id="path4"
       d="m 724.016,317.77 c -32.18,0 -58.164,-28.75 -58.164,-63.965 0,-36.137 25.984,-65.371 58.164,-65.371 32.179,0 58.211,28.351 58.211,65.371 0,36.621 -26.032,63.965 -58.211,63.965 z m 8,-182.879 c -26.504,0 -48.883,8.793 -66.164,26.375 V 38.707 h -58.594 v 215.098 c 0,65.242 48.055,118.605 116.758,118.605 68.449,0 116.324,-53.363 116.324,-118.605 0,-65.59 -48.402,-118.914 -108.324,-118.914"
       style="fill:#7aba08;fill-opacity:1;fill-rule:evenodd;stroke:none"
       transform="matrix(0.13333333,0,0,-0.13333333,0,93.333333)" />
    <path
       id="path5"
       d="m 940.047,139.727 h -58.211 v 226.878 h 58.211 z M 881.348,391.32 v 32.657 c 0,16.214 13.289,29.105 29.632,29.105 15.821,0 29.067,-12.891 29.067,-29.105 V 391.32 h -58.699"
       style="fill:#7aba08;fill-opacity:1;fill-rule:evenodd;stroke:none"
       transform="matrix(0.13333333,0,0,-0.13333333,0,93.333333)" />
    <path
       id="path6"
       d="m 1094.69,372.41 c 63.57,0 100.99,-41.851 100.99,-101.418 V 139.727 h -58.22 V 272.32 c 0,12.746 -4.39,43.118 -42.77,43.118 -25.44,0 -44.09,-17.532 -44.09,-43.118 V 139.727 h -58.209 v 131.265 c 0,57.817 40.719,101.418 102.299,101.418"
       style="fill:#7aba08;fill-opacity:1;fill-rule:evenodd;stroke:none"
       transform="matrix(0.13333333,0,0,-0.13333333,0,93.333333)" />
    <path
       id="path7"
       d="m 1445.19,185.895 v -46.168 h -58.74 v 36.48 c 0,25.203 -13.66,48.898 -48.92,48.898 h -32.05 v -85.378 h -58.64 v 327.777 h 58.64 V 281.199 h 32.05 c 35.26,0 48.92,24.078 48.92,49.36 v 36.046 h 58.74 v -46.281 c 0,-29.504 -13.81,-54.601 -38.73,-66.863 24.92,-12.891 38.73,-37.504 38.73,-67.566"
       style="fill:#7aba08;fill-opacity:1;fill-rule:evenodd;stroke:none"
       transform="matrix(0.13333333,0,0,-0.13333333,0,93.333333)" />
    <path
       id="path8"
       d="m 1606.08,317.77 c -32.18,0 -58.2,-29.192 -58.2,-65.329 0,-35.257 26.02,-64.007 58.2,-64.007 32.19,0 58.03,27.918 58.03,64.007 0,37.551 -25.84,65.329 -58.03,65.329 z m 0,-183.454 c -68.75,0 -116.75,52.981 -116.75,118.481 v 214.707 h 58.55 V 344.977 c 17.19,18.207 39.7,26.515 66.02,26.515 59.96,0 108.42,-53.375 108.42,-118.695 0,-65.5 -47.97,-118.481 -116.24,-118.481"
       style="fill:#7aba08;fill-opacity:1;fill-rule:evenodd;stroke:none"
       transform="matrix(0.13333333,0,0,-0.13333333,0,93.333333)" />
    <path
       id="path9"
       d="m 1909.71,300.926 c -10.5,12.75 -26.46,20.316 -44.92,20.316 -33.45,0 -60.27,-26.426 -61.64,-65.191 z m 65.34,-88.977 c -13.29,-46.332 -53.33,-77.633 -109.91,-77.633 -64.27,0 -116.32,52.981 -116.32,118.481 0,65.766 52.05,119.613 116.32,119.613 54.78,0 100.54,-34.414 111.71,-95.265 l -160.51,-67.387 c 11.39,-15.481 28.63,-24.313 48.45,-24.313 18.87,0 38.38,8.36 47.96,26.504 h 62.3"
       style="fill:#7aba08;fill-opacity:1;fill-rule:evenodd;stroke:none"
       transform="matrix(0.13333333,0,0,-0.13333333,0,93.333333)" />
    <path
       id="path10"
       d="m 2135.36,316.277 c -36.83,6.727 -61.63,-13.066 -61.63,-45.285 V 139.727 h -58.2 v 131.265 c 0,64.274 44.58,109.289 119.83,100.051 v -54.766"
       style="fill:#7aba08;fill-opacity:1;fill-rule:evenodd;stroke:none"
       transform="matrix(0.13333333,0,0,-0.13333333,0,93.333333)" />
    <path
       id="path11"
       d="m 2287.13,316.277 c -37.11,6.727 -61.69,-13.066 -61.69,-45.285 V 139.727 h -58.29 v 131.265 c 0,64.274 44.53,109.289 119.98,100.051 v -54.766"
       style="fill:#7aba08;fill-opacity:1;fill-rule:evenodd;stroke:none"
       transform="matrix(0.13333333,0,0,-0.13333333,0,93.333333)" />
    <path
       id="path12"
       d="m 2521.59,130.41 c 0,-61.2342 -40.13,-101.9022 -100.97,-101.9022 -49.8,0 -90.86,32.668 -98.74,79.3052 h 60.46 c 3.51,-16.6646 18.42,-25.0083 38.28,-25.0083 31.75,0 42.83,22.3673 42.83,43.5113 v 26.555 c -13.81,-11.422 -31.45,-18.555 -52.1,-18.555 -55.52,0 -92.63,40.145 -92.63,99.622 l 0.01,132.667 h 58.2 V 233.938 c 0,-12.75 4.48,-44.446 42.33,-44.446 26.03,0 44.19,18.899 44.19,44.446 v 132.667 h 58.14 V 130.41"
       style="fill:#7aba08;fill-opacity:1;fill-rule:evenodd;stroke:none"
       transform="matrix(0.13333333,0,0,-0.13333333,0,93.333333)" />
    <path
       id="path13"
       d="m 2629.48,354.035 h 1.41 c 5.59,0 8.44,2.067 8.44,6.063 0,3.609 -2.77,5.371 -8.23,5.371 h -1.62 z m 8.66,-5.715 13.49,-17.496 h -9.75 l -12.36,16.578 v -16.578 h -7.95 v 41.805 h 8.31 c 5.75,0 10.16,-0.973 12.83,-2.988 2.99,-2.461 4.36,-5.676 4.36,-9.543 0,-2.5 -0.67,-4.965 -2.29,-7.336 -1.58,-2.071 -3.7,-3.524 -6.24,-4.223 z m -3.82,34.426 c -8.18,0 -15.35,-3.074 -21.19,-9.148 -5.94,-6.024 -8.98,-13.231 -8.98,-21.668 0,-8.61 3.04,-15.961 8.98,-22.164 5.84,-5.934 13.01,-9.098 21.5,-9.098 8.34,0 15.42,3.164 21.35,9.059 5.94,6.113 8.85,13.543 8.85,22.117 0,4.605 -1.28,9.402 -3.44,14.363 -2.28,4.531 -5.41,8.184 -9,10.953 -5.41,3.824 -11.43,5.586 -18.07,5.586 z m 36.39,-30.902 c 0,-10.031 -3.51,-18.684 -10.46,-25.856 -7.07,-7.031 -15.79,-10.55 -25.62,-10.55 -10.07,0 -18.6,3.519 -25.68,10.55 -6.99,7.211 -10.64,15.825 -10.64,25.981 0,5.629 1.28,10.679 3.47,15.301 2.34,5.015 5.59,9.043 9.6,12.402 6.81,5.664 14.31,8.473 22.94,8.473 5.48,0 10.59,-1.188 14.99,-3.254 6.33,-2.86 11.6,-7.121 15.43,-13.309 3.99,-6.113 5.97,-12.75 5.97,-19.738"
       style="fill:#909090;fill-opacity:1;fill-rule:evenodd;stroke:none"
       transform="matrix(0.13333333,0,0,-0.13333333,0,93.333333)" />
  </g>
</svg>
