<?xml version="1.0" encoding="UTF-8"?>
<svg version="1.1" xmlns="http://www.w3.org/2000/svg" width="404" height="404" viewBox="0 -44 404 404">
<rect x="0" y="-44" width="404" height="404" fill="#ffffff"/>
<path d="M0 0 C133.32 0 266.64 0 404 0 C404 104.28 404 208.56 404 316 C270.68 316 137.36 316 0 316 C0 211.72 0 107.44 0 0 Z " fill="#FD0000" transform="translate(0,0)"/>
<path d="M0 0 C0.86625 0.495 1.7325 0.99 2.625 1.5 C2.667721 3.16611905 2.66563832 4.83382885 2.625 6.5 C1.625 7.5 1.625 7.5 -0.36523438 7.56591797 C-1.65397461 7.52942139 -1.65397461 7.52942139 -2.96875 7.4921875 C-4.391875 7.46705078 -4.391875 7.46705078 -5.84375 7.44140625 C-7.83353752 7.39781554 -9.82316531 7.34600026 -11.8125 7.28515625 C-23.24311279 7.11615525 -30.43227401 10.5957989 -39.375 17.5 C-40.01566406 17.974375 -40.65632813 18.44875 -41.31640625 18.9375 C-50.53094776 26.19369376 -55.78472493 37.42298468 -61.375 47.5 C-64.015 47.5 -66.655 47.5 -69.375 47.5 C-69.41238281 46.4378125 -69.44976562 45.375625 -69.48828125 44.28125 C-69.81288287 36.83564535 -70.10256132 30.32943725 -73.375 23.5 C-70.375 21.5 -70.375 21.5 -67.3125 21.625 C-64.375 22.5 -64.375 22.5 -63.0625 24.0625 C-62.0858612 27.52512846 -61.73307653 30.91923471 -61.375 34.5 C-60.87871094 33.7265625 -60.38242188 32.953125 -59.87109375 32.15625 C-48.0726832 14.06684635 -24.28526932 -10.47891989 0 0 Z " fill="#FAF008" transform="translate(294.375,129.5)"/>
<path d="M0 0 C2.125 0.375 2.125 0.375 4 1 C4 1.66 4 2.32 4 3 C4.515625 2.505 5.03125 2.01 5.5625 1.5 C8.95173093 -0.58568057 11.07532775 -0.47366734 15 0 C18.78580423 2.03850997 22.05061257 4.10122513 24 8 C24.53757839 12.76140861 24.48889026 15.00341602 22.375 19.3125 C19.68629204 22.35498532 17.85174864 23.71608379 14 25 C7.57894737 24.57894737 7.57894737 24.57894737 6 23 C5.95101562 23.84304687 5.90203125 24.68609375 5.8515625 25.5546875 C5.77679688 26.65039062 5.70203125 27.74609375 5.625 28.875 C5.55539063 29.96554688 5.48578125 31.05609375 5.4140625 32.1796875 C5 35 5 35 3 37 C-0.53571429 36.46428571 -0.53571429 36.46428571 -2 35 C-2.11322434 32.57509629 -2.16416875 30.17973138 -2.16796875 27.75390625 C-2.17129715 27.02759506 -2.17462555 26.30128387 -2.17805481 25.55296326 C-2.18312675 24.01374954 -2.18546305 22.4745248 -2.18530273 20.93530273 C-2.18748766 18.57582529 -2.20563565 16.21681639 -2.22460938 13.85742188 C-2.22754352 12.36458494 -2.22952817 10.87174577 -2.23046875 9.37890625 C-2.23765427 8.67053116 -2.24483978 7.96215607 -2.25224304 7.23231506 C-2.22882337 2.22882337 -2.22882337 2.22882337 0 0 Z " fill="#F9F1EF" transform="translate(109,153)"/>
<path d="M0 0 C3.9802514 1.37777933 7.06417008 3.16601601 9.3125 6.84765625 C10.94438247 11.95656103 10.58186967 17.72257741 10 23 C9.34 23.66 8.68 24.32 8 25 C5.73725212 24.64644564 4.04911148 24.02455574 2 23 C1.01 23.66 0.02 24.32 -1 25 C-4.51848769 25.5413058 -6.91626867 25.69821425 -9.9765625 23.7265625 C-15.73884741 18.86537564 -15.73884741 18.86537564 -16.2734375 15.046875 C-16.46083117 10.80889514 -16.4555608 7.92906044 -13.6875 4.5625 C-9.20351488 0.28707233 -6.08186449 -0.72705401 0 0 Z " fill="#F8F3F0" transform="translate(161,153)"/>
<path d="M0 0 C3.37604652 2.04191311 6.22195185 4.44390371 8 8 C8.12393466 10.5132797 8.18515112 12.98670114 8.1875 15.5 C8.19974609 16.18964844 8.21199219 16.87929687 8.22460938 17.58984375 C8.22988695 19.39477494 8.12184458 21.19917842 8 23 C7.34 23.66 6.68 24.32 6 25 C3.875 24.625 3.875 24.625 2 24 C2 23.34 2 22.68 2 22 C1.01 22.66 0.02 23.32 -1 24 C-5.4932784 24.79708078 -10.04897728 25.18693398 -14.0546875 22.75 C-17.07614258 19.62734786 -18.39330981 16.7768053 -18.6875 12.4375 C-18.34359961 7.52224073 -16.55766694 5.31509874 -13 2 C-8.77685636 -0.50613657 -4.80343355 -0.95261371 0 0 Z " fill="#F8ECEB" transform="translate(289,153)"/>
<path d="M0 0 C4.19727591 1.5838777 6.82561752 3.05577132 9 7 C9.36190949 9.92658427 9.28267178 12.80699571 9.1875 15.75 C9.16719727 16.93916016 9.16719727 16.93916016 9.14648438 18.15234375 C9.11125223 20.10185564 9.05744821 22.05101626 9 24 C7.1875 24.625 7.1875 24.625 5 25 C4.01 24.34 3.02 23.68 2 23 C1.34 23.33 0.68 23.66 0 24 C-5.20671061 24.64507919 -8.81709835 24.9173523 -13.0625 21.625 C-15.98767763 17.66185611 -16.39448532 15.17007632 -16.35546875 10.32421875 C-15.7532279 6.38649009 -13.84960759 4.7170677 -11 2 C-7.27661917 -0.48225389 -4.31288496 -0.53094228 0 0 Z " fill="#F9F2F0" transform="translate(212,153)"/>
<path d="M0 0 C3.26927653 2.11465109 6.24184404 4.48368807 8 8 C8 9.98 8 11.96 8 14 C2.06 14 -3.88 14 -10 14 C-9.67 14.99 -9.34 15.98 -9 17 C-4.43890128 19.28054936 1.15621644 17.77500537 6 17 C5.25 21.75 5.25 21.75 3 24 C-0.62116324 25.34117157 -4.18540177 25.32884467 -8 25 C-12.33729795 22.74794145 -15.13397371 20.5613976 -17 16 C-17.82072933 9.53675656 -17.82072933 9.53675656 -16.05078125 6.22265625 C-11.72864326 0.64614382 -6.88548064 -0.94972147 0 0 Z " fill="#FBFCFB" transform="translate(261,153)"/>
<path d="M0 0 C1.19496094 -0.00386719 1.19496094 -0.00386719 2.4140625 -0.0078125 C3.24679688 -0.00007812 4.07953125 0.00765625 4.9375 0.015625 C5.77023438 0.00789062 6.60296875 0.00015625 7.4609375 -0.0078125 C8.25757813 -0.00523437 9.05421875 -0.00265625 9.875 0 C10.60589844 0.00225586 11.33679688 0.00451172 12.08984375 0.00683594 C13.9375 0.265625 13.9375 0.265625 15.9375 2.265625 C15.78765266 6.51754331 12.71906658 8.95891704 9.9375 11.890625 C6.55483497 15.29424936 6.55483497 15.29424936 3.9375 19.265625 C7.5675 19.265625 11.1975 19.265625 14.9375 19.265625 C15.2675 20.585625 15.5975 21.905625 15.9375 23.265625 C14.9375 24.265625 14.9375 24.265625 12.98803711 24.37915039 C12.1553833 24.37391357 11.32272949 24.36867676 10.46484375 24.36328125 C9.56572266 24.36005859 8.66660156 24.35683594 7.74023438 24.35351562 C6.79470703 24.34513672 5.84917969 24.33675781 4.875 24.328125 C3.92560547 24.32361328 2.97621094 24.31910156 1.99804688 24.31445312 C-0.35553065 24.3026261 -2.70898477 24.28614525 -5.0625 24.265625 C-5.70678711 22.46777344 -5.70678711 22.46777344 -6.0625 20.265625 C-4.32397439 17.82992414 -2.62377273 15.71500008 -0.625 13.515625 C-0.09583984 12.91363281 0.43332031 12.31164062 0.97851562 11.69140625 C2.28693866 10.20616929 3.61079421 8.73455366 4.9375 7.265625 C1.6375 6.935625 -1.6625 6.605625 -5.0625 6.265625 C-5.3925 4.945625 -5.7225 3.625625 -6.0625 2.265625 C-3.69681778 -0.10005722 -3.21017774 0.00990796 0 0 Z " fill="#F7E5E4" transform="translate(179.0625,152.734375)"/>
<path d="M0 0 C1.65 0.33 3.3 0.66 5 1 C5 12.55 5 24.1 5 36 C3.02 36 1.04 36 -1 36 C-2.94043742 34.05956258 -2.16382173 30.40126265 -2.16796875 27.75390625 C-2.17129715 27.02759506 -2.17462555 26.30128387 -2.17805481 25.55296326 C-2.18312675 24.01374954 -2.18546305 22.4745248 -2.18530273 20.93530273 C-2.18748766 18.57582529 -2.20563565 16.21681639 -2.22460938 13.85742188 C-2.22754352 12.36458494 -2.22952817 10.87174577 -2.23046875 9.37890625 C-2.23765427 8.67053116 -2.24483978 7.96215607 -2.25224304 7.23231506 C-2.22882337 2.22882337 -2.22882337 2.22882337 0 0 Z " fill="#FAEDEC" transform="translate(137,141)"/>
<path d="M0 0 C1.65497356 3.30994713 1.10084335 6.99123 1.0625 10.625 C1.05798828 11.42679688 1.05347656 12.22859375 1.04882812 13.0546875 C1.03703168 15.03649006 1.01909605 17.01825433 1 19 C-0.8125 19.625 -0.8125 19.625 -3 20 C-3.99 19.34 -4.98 18.68 -6 18 C-6.66 18.33 -7.32 18.66 -8 19 C-9.70702735 19.06996014 -11.41668003 19.08440154 -13.125 19.0625 C-14.03507813 19.05347656 -14.94515625 19.04445312 -15.8828125 19.03515625 C-16.93082031 19.01775391 -16.93082031 19.01775391 -18 19 C-18.33 17.68 -18.66 16.36 -19 15 C-18.31292969 14.89042969 -17.62585938 14.78085938 -16.91796875 14.66796875 C-16.01691406 14.50941406 -15.11585938 14.35085937 -14.1875 14.1875 C-13.29417969 14.03667969 -12.40085938 13.88585937 -11.48046875 13.73046875 C-8.73472304 12.92187907 -7.6217131 12.34721633 -6 10 C-5.63853543 7.71669899 -5.63853543 7.71669899 -5.8125 5.3125 C-5.83957031 4.50425781 -5.86664063 3.69601563 -5.89453125 2.86328125 C-5.92933594 2.24839844 -5.96414062 1.63351563 -6 1 C-3.92446352 0.4465236 -2.15634036 0 0 0 Z " fill="#FAF7F7" transform="translate(220,158)"/>
<path d="M0 0 C0.6875 1.8125 0.6875 1.8125 1 4 C0.525625 4.45375 0.05125 4.9075 -0.4375 5.375 C-2.34678731 7.0085302 -2.34678731 7.0085302 -2.1875 10.1875 C-2.125625 11.115625 -2.06375 12.04375 -2 13 C0.0745356 13.1490712 0.0745356 13.1490712 2 12 C2.33 12.99 2.66 13.98 3 15 C7.56109872 17.28054936 13.15621644 15.77500537 18 15 C17.25 19.75 17.25 19.75 15 22 C11.37883676 23.34117157 7.81459823 23.32884467 4 23 C-0.33729795 20.74794145 -3.13397371 18.5613976 -5 14 C-5.84056914 7.38051806 -5.84056914 7.38051806 -3.875 4.15234375 C-2.5 2.5 -2.5 2.5 0 0 Z " fill="#F7EFED" transform="translate(249,155)"/>
<path d="M0 0 C3.01460664 1.51282458 5.12566209 3.18259899 7 6 C7.57493617 8.91649439 7.36246859 10.99668884 7 14 C4.625 15.0625 4.625 15.0625 2 16 C1.34 15.67 0.68 15.34 0 15 C0.04125 14.05125 0.0825 13.1025 0.125 12.125 C0.34973818 8.89755144 0.34973818 8.89755144 -2 7 C-6.05261287 6.65509678 -7.54754176 6.69836118 -11 9 C-11.103125 8.360625 -11.20625 7.72125 -11.3125 7.0625 C-11.539375 6.381875 -11.76625 5.70125 -12 5 C-12.99 4.67 -13.98 4.34 -15 4 C-10.22575321 0.0826693 -6.17615699 -1.38910105 0 0 Z " fill="#F8F0ED" transform="translate(289,153)"/>
<path d="M0 0 C0.99 0.33 1.98 0.66 3 1 C2.67 2.32 2.34 3.64 2 5 C5.63 5.33 9.26 5.66 13 6 C7.24107143 13.76785714 7.24107143 13.76785714 4.3125 17.1875 C2.24717408 19.69938287 0.5829533 22.16734673 -1 25 C-1.66 24.67 -2.32 24.34 -3 24 C-2.67 23.67 -2.34 23.34 -2 23 C-1.34767051 15.02233117 -1.03603797 8.51520017 -6 2 C-4.68 2.33 -3.36 2.66 -2 3 C-2 2.34 -2 1.68 -2 1 C-1.34 0.67 -0.68 0.34 0 0 Z " fill="#F60405" transform="translate(172,153)"/>
<path d="M0 0 C1.98 0.66 3.96 1.32 6 2 C6 5 6 5 4 8 C3.68399811 10.14790929 3.68399811 10.14790929 3.75 12.4375 C3.74484375 13.19933594 3.7396875 13.96117187 3.734375 14.74609375 C4.0252708 17.21443018 4.77024344 18.857686 6 21 C4.68 21.33 3.36 21.66 2 22 C1.67 21.34 1.34 20.68 1 20 C-1.58605332 19.5316735 -1.58605332 19.5316735 -4.5625 19.375 C-5.57441406 19.30023438 -6.58632812 19.22546875 -7.62890625 19.1484375 C-8.80259766 19.07496094 -8.80259766 19.07496094 -10 19 C-8.01797441 14.25846917 -4.37100164 11.12758641 -0.80078125 7.53515625 C1.31500684 5.13258363 1.31500684 5.13258363 0.76953125 2.18359375 C0.51558594 1.46300781 0.26164063 0.74242187 0 0 Z " fill="#EE0F11" transform="translate(193,153)"/>
<path d="M0 0 C0.66 0.33 1.32 0.66 2 1 C2 2.65 2 4.3 2 6 C5.63 6 9.26 6 13 6 C13.33 7.32 13.66 8.64 14 10 C13 11 13 11 11.05053711 11.11352539 C10.2178833 11.10828857 9.38522949 11.10305176 8.52734375 11.09765625 C7.62822266 11.09443359 6.72910156 11.09121094 5.80273438 11.08789062 C4.85720703 11.07951172 3.91167969 11.07113281 2.9375 11.0625 C1.98810547 11.05798828 1.03871094 11.05347656 0.06054688 11.04882812 C-2.29303065 11.0370011 -4.64648477 11.02052025 -7 11 C-7.33 9.68 -7.66 8.36 -8 7 C-5.36 4.69 -2.72 2.38 0 0 Z " fill="#FAF7F6" transform="translate(181,166)"/>
<path d="M0 0 C1.875 1.125 1.875 1.125 3 3 C3.54624158 6.66762206 3.47898298 8.3258758 1.3125 11.375 C-1 13 -1 13 -3.5625 13.4375 C-6 13 -6 13 -7.8125 11.9375 C-9.67036623 8.90624457 -9.37133265 6.46577141 -9 3 C-6.84332735 -0.71426957 -4.0099826 -0.50124783 0 0 Z " fill="#F41012" transform="translate(287,159)"/>
<path d="M0 0 C1.875 1.125 1.875 1.125 3 3 C3.54624158 6.66762206 3.47898298 8.3258758 1.3125 11.375 C-1 13 -1 13 -3.5625 13.5 C-6 13 -6 13 -7.8125 11.375 C-9.33264845 8.3347031 -9.42888292 6.35958291 -9 3 C-6.79086995 -0.68188342 -4.01844539 -0.50230567 0 0 Z " fill="#F11415" transform="translate(123,159)"/>
<path d="M0 0 C2.16551116 3.24826674 2.55156953 4.23094157 2 8 C-0.02419323 10.77389443 -1.15185077 11.85519403 -4.5625 12.4375 C-7 12 -7 12 -8.8125 10.9375 C-10.67036623 7.90624457 -10.37133265 5.46577141 -10 2 C-7.71139092 -2.30797003 -4.19123206 -1.06685907 0 0 Z " fill="#F30E10" transform="translate(213,160)"/>
<path d="M0 0 C2.16551116 3.24826674 2.55156953 4.23094157 2 8 C-0.02419323 10.77389443 -1.15185077 11.85519403 -4.5625 12.4375 C-7 12 -7 12 -8.8125 10.9375 C-10.67036623 7.90624457 -10.37133265 5.46577141 -10 2 C-7.71139092 -2.30797003 -4.19123206 -1.06685907 0 0 Z " fill="#F30E0F" transform="translate(162,160)"/>
<path d="M0 0 C3.43462183 -0.42056594 5.99485082 -0.63981991 8.98828125 1.265625 C13.59950361 5.19900722 13.59950361 5.19900722 15 8 C15.039992 9.99960012 15.04346799 12.00047242 15 14 C14.64035156 13.49726563 14.28070313 12.99453125 13.91015625 12.4765625 C11.05208208 10.26725363 8.94982428 10.95901523 5.4375 11.375 C-0.82561308 12.08719346 -0.82561308 12.08719346 -3 11 C-2.6875 9.125 -2.6875 9.125 -2 7 C0.91765 5.0549 2.62537285 4.54723683 6 4 C6 3.01 6 2.02 6 1 C4.02 1 2.04 1 0 1 C0 0.67 0 0.34 0 0 Z " fill="#F7EFEC" transform="translate(254,153)"/>
<path d="M0 0 C1.98 0.99 1.98 0.99 4 2 C6.66709069 2.16750414 6.66709069 2.16750414 9 2 C10.38550197 4.77100394 10.1877467 6.9334706 10 10 C9.01 11.485 9.01 11.485 8 13 C6.0546875 13.29296875 6.0546875 13.29296875 3.875 13.1875 C1.956875 13.0946875 1.956875 13.0946875 0 13 C0 8.71 0 4.42 0 0 Z " fill="#FBF507" transform="translate(225,164)"/>
<path d="M0 0 C1.24523437 0.01804687 2.49046875 0.03609375 3.7734375 0.0546875 C5.18496094 0.08949219 5.18496094 0.08949219 6.625 0.125 C6.625 0.455 6.625 0.785 6.625 1.125 C5.87476563 1.15078125 5.12453125 1.1765625 4.3515625 1.203125 C-3.29878043 1.62707347 -11.69543039 2.44543039 -17.375 8.125 C-17.684375 8.970625 -17.99375 9.81625 -18.3125 10.6875 C-18.663125 11.491875 -19.01375 12.29625 -19.375 13.125 C-20.365 13.455 -21.355 13.785 -22.375 14.125 C-22.375 13.135 -22.375 12.145 -22.375 11.125 C-25.015 11.785 -27.655 12.445 -30.375 13.125 C-23.2386642 4.45944939 -10.98929596 -0.20734521 0 0 Z " fill="#F8DF0D" transform="translate(283.375,127.875)"/>
<path d="M0 0 C0.33 0 0.66 0 1 0 C1.309375 0.969375 1.61875 1.93875 1.9375 2.9375 C2.69523342 5.84065792 2.69523342 5.84065792 4 7 C7.62059232 7.29356154 9.87703962 6.85064319 13 5 C12.67 6.32 12.34 7.64 12 9 C12.66 9.33 13.32 9.66 14 10 C12.68085371 12.63829259 11.76142665 12.98263229 9 14 C5.375 14.25 5.375 14.25 2 14 C1.34 13.34 0.68 12.68 0 12 C0.66 12 1.32 12 2 12 C2 11.01 2 10.02 2 9 C1.01 9 0.02 9 -1 9 C-0.67 6.03 -0.34 3.06 0 0 Z " fill="#F6E6E4" transform="translate(151,164)"/>
<path d="M0 0 C2.97 0.495 2.97 0.495 6 1 C5.01 1.66 4.02 2.32 3 3 C-0.53678072 5.54045287 -0.53678072 5.54045287 -3 9 C-3.06996014 10.70702735 -3.08440154 12.41668003 -3.0625 14.125 C-3.04896484 15.49011719 -3.04896484 15.49011719 -3.03515625 16.8828125 C-3.02355469 17.58148438 -3.01195312 18.28015625 -3 19 C-4.1446875 18.4740625 -4.1446875 18.4740625 -5.3125 17.9375 C-8.04759379 16.67639116 -8.04759379 16.67639116 -11 18 C-9.70462451 14.48575165 -8.1743389 11.52734063 -6.0625 8.4375 C-5.55847656 7.69371094 -5.05445313 6.94992188 -4.53515625 6.18359375 C-3.06322729 4.08993399 -1.54802711 2.03785061 0 0 Z " fill="#F2110A" transform="translate(248,152)"/>
<path d="M0 0 C5.61 0 11.22 0 17 0 C17 2.64 17 5.28 17 8 C16.01 8 15.02 8 14 8 C14.66 6.35 15.32 4.7 16 3 C14.96875 3.33 13.9375 3.66 12.875 4 C9.49338973 4.95835109 6.53279496 5.32116318 3 5 C2.01 4.34 1.02 3.68 0 3 C0 2.01 0 1.02 0 0 Z " fill="#E83E3F" transform="translate(251,167)"/>
<path d="M0 0 C0.66 0.66 1.32 1.32 2 2 C2.66 1.34 3.32 0.68 4 0 C4 3.63 4 7.26 4 11 C3.01 11.33 2.02 11.66 1 12 C0.34 12.66 -0.32 13.32 -1 14 C-1 13.01 -1 12.02 -1 11 C-1.99 10.67 -2.98 10.34 -4 10 C-3.71872579 8.51882199 -3.42466268 7.04006751 -3.125 5.5625 C-2.96257812 4.73878906 -2.80015625 3.91507813 -2.6328125 3.06640625 C-2.42398438 2.38449219 -2.21515625 1.70257813 -2 1 C-1.34 0.67 -0.68 0.34 0 0 Z " fill="#FCFCFB" transform="translate(166,163)"/>
<path d="M0 0 C0.33 1.32 0.66 2.64 1 4 C2.32 3.01 3.64 2.02 5 1 C5 7.93 5 14.86 5 22 C4.01 22.33 3.02 22.66 2 23 C1.34 22.01 0.68 21.02 0 20 C0.33 19.505 0.66 19.01 1 18.5 C2.40439682 14.98900796 2.60881229 11.69534899 2 8 C0.8820269 5.69600326 -0.38482744 4.0189657 -2 2 C-1.34 2 -0.68 2 0 2 C0 1.34 0 0.68 0 0 Z " fill="#F10809" transform="translate(130,153)"/>
<path d="M0 0 C0.33 0 0.66 0 1 0 C1 4.29 1 8.58 1 13 C1.66 13 2.32 13 3 13 C3 13.66 3 14.32 3 15 C3.66 15.33 4.32 15.66 5 16 C4.67 16.66 4.34 17.32 4 18 C3.8219644 19.41298094 3.68076947 20.83076636 3.5625 22.25 C3.18032476 26.0655883 2.38350863 29.40287756 1 33 C0.67 33 0.34 33 0 33 C0 22.11 0 11.22 0 0 Z " fill="#EF2C2C" transform="translate(142,143)"/>
<path d="M0 0 C2.32011034 3.66430125 2.26783151 6.85435257 2.25 11.125 C2.25515625 12.36507812 2.2603125 13.60515625 2.265625 14.8828125 C2 18 2 18 0 20 C-0.99 20 -1.98 20 -3 20 C-2.67 18.68 -2.34 17.36 -2 16 C-1.01 16 -0.02 16 1 16 C0.67 13.03 0.34 10.06 0 7 C-0.99 7 -1.98 7 -3 7 C-3.99 6.34 -4.98 5.68 -6 5 C-6 4.01 -6 3.02 -6 2 C-3 0 -3 0 0 0 Z " fill="#F9F6F5" transform="translate(169,158)"/>
<path d="M0 0 C-0.75 4.75 -0.75 4.75 -3 7 C-5.1640625 7.1953125 -5.1640625 7.1953125 -7.625 7.125 C-8.44226563 7.10695312 -9.25953125 7.08890625 -10.1015625 7.0703125 C-10.72804688 7.04710937 -11.35453125 7.02390625 -12 7 C-11.671875 5.109375 -11.671875 5.109375 -11 3 C-7.25241255 0.61517162 -4.43651689 -0.39145737 0 0 Z " fill="#F9F2F1" transform="translate(267,170)"/>
<path d="M0 0 C2.31 0.33 4.62 0.66 7 1 C7 3.64 7 6.28 7 9 C4.625 10.0625 4.625 10.0625 2 11 C1.34 10.67 0.68 10.34 0 10 C0 6.7 0 3.4 0 0 Z " fill="#FAF8F8" transform="translate(289,158)"/>
<path d="M0 0 C0.33 0 0.66 0 1 0 C1 2.97 1 5.94 1 9 C-1.75078884 9.91692961 -3.35948913 10.10886083 -6.1875 10.0625 C-8.0746875 10.0315625 -8.0746875 10.0315625 -10 10 C-8.92872149 6.66713353 -7.40015637 5.48989056 -4.4375 3.875 C-0.96468026 2.40524759 -0.96468026 2.40524759 0 0 Z " fill="#F80606" transform="translate(194,161)"/>
<path d="M0 0 C3 1 3 1 5 3 C5.13968678 5.26117974 4.9959937 7.44986778 4.875 9.7109375 C5.01499863 12.27466235 5.71536249 13.8020655 7 16 C5.68 16 4.36 16 3 16 C2.67 16.66 2.34 17.32 2 18 C1.67 15.69 1.34 13.38 1 11 C0.01 10.67 -0.98 10.34 -2 10 C-1.01 9.67 -0.02 9.34 1 9 C1.07427838 5.65747276 1.06546953 3.1964086 0 0 Z " fill="#EF0708" transform="translate(267,158)"/>
<path d="M0 0 C3 2 3 2 4 5 C4.07051114 7.73865287 4.09357765 10.45027588 4.0625 13.1875 C4.05798828 13.93708984 4.05347656 14.68667969 4.04882812 15.45898438 C4.03706354 17.30602383 4.01912865 19.15302213 4 21 C3.67 21 3.34 21 3 21 C2.67 17.7 2.34 14.4 2 11 C1.67 13.97 1.34 16.94 1 20 C0.67 20 0.34 20 0 20 C0 13.4 0 6.8 0 0 Z " fill="#EE3026" transform="translate(221,156)"/>
<path d="M0 0 C1.67542976 0.28604898 3.34385343 0.61781233 5 1 C5.95582656 3.55654815 6.17802782 4.60341769 5.0390625 7.140625 C4.57242188 7.83671875 4.10578125 8.5328125 3.625 9.25 C3.16351563 9.95640625 2.70203125 10.6628125 2.2265625 11.390625 C1.82179687 11.92171875 1.41703125 12.4528125 1 13 C0.67 13 0.34 13 0 13 C-0.19397476 11.02145742 -0.38001321 9.0421352 -0.5625 7.0625 C-0.66691406 5.96035156 -0.77132812 4.85820312 -0.87890625 3.72265625 C-0.91886719 2.82417969 -0.95882812 1.92570313 -1 1 C-0.67 0.67 -0.34 0.34 0 0 Z " fill="#F40904" transform="translate(232,153)"/>
<path d="M0 0 C0.33 0 0.66 0 1 0 C1.02505615 0.98919434 1.0501123 1.97838867 1.07592773 2.99755859 C1.16997787 6.66159404 1.27020429 10.32543885 1.37231445 13.98925781 C1.41567241 15.57612657 1.45734687 17.16304224 1.49731445 18.75 C1.55499632 21.02878979 1.61869638 23.30734322 1.68359375 25.5859375 C1.70030624 26.29744965 1.71701874 27.00896179 1.73423767 27.74203491 C1.79721937 31.49660817 1.79721937 31.49660817 3 35 C1.515 35.495 1.515 35.495 0 36 C-1.20061105 32.39816685 -1.02185426 29.22311412 -0.87890625 25.48828125 C-0.85529526 24.76005661 -0.83168427 24.03183197 -0.80735779 23.28153992 C-0.7308565 20.9583216 -0.6467744 18.63544807 -0.5625 16.3125 C-0.50926573 14.73634493 -0.45652542 13.16017309 -0.40429688 11.58398438 C-0.27525978 7.7224384 -0.13942375 3.86118434 0 0 Z " fill="#E70606" transform="translate(106,155)"/>
<path d="M0 0 C0.99 0 1.98 0 3 0 C3.042721 1.66611905 3.04063832 3.33382885 3 5 C2 6 2 6 0.23413086 6.02172852 C-0.88916626 5.95103149 -0.88916626 5.95103149 -2.03515625 5.87890625 C-2.84404297 5.83056641 -3.65292969 5.78222656 -4.48632812 5.73242188 C-5.7615332 5.64831055 -5.7615332 5.64831055 -7.0625 5.5625 C-7.91650391 5.51029297 -8.77050781 5.45808594 -9.65039062 5.40429688 C-11.76721995 5.27421239 -13.88365244 5.13770029 -16 5 C-16 4.67 -16 4.34 -16 4 C-8.08 3.505 -8.08 3.505 0 3 C0 2.01 0 1.02 0 0 Z " fill="#F5CA10" transform="translate(294,131)"/>
<path d="M0 0 C1.98 0 3.96 0 6 0 C6.66 1.98 7.32 3.96 8 6 C5.6875 6.6875 5.6875 6.6875 3 7 C1.1875 5.8125 1.1875 5.8125 0 4 C0 2.68 0 1.36 0 0 Z " fill="#F9F1ED" transform="translate(274,170)"/>
<path d="M0 0 C2.31 0 4.62 0 7 0 C7.66 1.32 8.32 2.64 9 4 C5.37 4 1.74 4 -2 4 C-1.34 2.68 -0.68 1.36 0 0 Z " fill="#EA1D20" transform="translate(253,159)"/>
<path d="M0 0 C0.33 0 0.66 0 1 0 C1.13277344 0.62648437 1.26554688 1.25296875 1.40234375 1.8984375 C1.57894531 2.71570313 1.75554687 3.53296875 1.9375 4.375 C2.11152344 5.18710938 2.28554687 5.99921875 2.46484375 6.8359375 C2.92330693 9.029463 2.92330693 9.029463 4 11 C2.68 11.33 1.36 11.66 0 12 C-0.33 11.34 -0.66 10.68 -1 10 C-3.58605332 9.5316735 -3.58605332 9.5316735 -6.5625 9.375 C-7.57441406 9.30023438 -8.58632812 9.22546875 -9.62890625 9.1484375 C-10.80259766 9.07496094 -10.80259766 9.07496094 -12 9 C-11.67 8.34 -11.34 7.68 -11 7 C-7.37 7 -3.74 7 0 7 C0 4.69 0 2.38 0 0 Z " fill="#EB2123" transform="translate(195,163)"/>
<path d="M0 0 C6.4 -0.36923077 6.4 -0.36923077 9.4375 1.5 C9.953125 1.995 10.46875 2.49 11 3 C10.34 4.32 9.68 5.64 9 7 C6.36 6.67 3.72 6.34 1 6 C1 5.67 1 5.34 1 5 C2.65 4.67 4.3 4.34 6 4 C6 3.01 6 2.02 6 1 C4.02 1 2.04 1 0 1 C0 0.67 0 0.34 0 0 Z " fill="#F5E1E0" transform="translate(254,153)"/>
<path d="M0 0 C0.99 0.33 1.98 0.66 3 1 C1.375 6.75 1.375 6.75 -2 9 C-3.98 5.535 -3.98 5.535 -6 2 C-4.68 2.33 -3.36 2.66 -2 3 C-2 2.34 -2 1.68 -2 1 C-1.34 0.67 -0.68 0.34 0 0 Z " fill="#EF0C0E" transform="translate(172,153)"/>
<path d="M0 0 C0.33 0 0.66 0 1 0 C1.125 5.75 1.125 5.75 0 8 C0.99 8 1.98 8 3 8 C3 8.99 3 9.98 3 11 C0.13275314 10.42655063 -0.8614515 10.1385485 -3 8 C-3 6.68 -3 5.36 -3 4 C-2.34 3.67 -1.68 3.34 -1 3 C-0.67 2.01 -0.34 1.02 0 0 Z " fill="#FAFCFB" transform="translate(150,165)"/>
<path d="M0 0 C0.66 0.33 1.32 0.66 2 1 C1.01 3.64 0.02 6.28 -1 9 C-1.99 8.01 -2.98 7.02 -4 6 C-5.32 7.32 -6.64 8.64 -8 10 C-8.66 9.67 -9.32 9.34 -10 9 C-6.7 6.03 -3.4 3.06 0 0 Z " fill="#F8F0ED" transform="translate(185,161)"/>
<path d="M0 0 C2.97 0.495 2.97 0.495 6 1 C5.01 1.66 4.02 2.32 3 3 C-0.53678072 5.54045287 -0.53678072 5.54045287 -3 9 C-3.99 8.67 -4.98 8.34 -6 8 C-4.02 5.36 -2.04 2.72 0 0 Z " fill="#E9281A" transform="translate(248,152)"/>
<path d="M0 0 C0.33 0 0.66 0 1 0 C3 6.625 3 6.625 3 10 C2.01 10.33 1.02 10.66 0 11 C-0.33 11.66 -0.66 12.32 -1 13 C-1.66 12.34 -2.32 11.68 -3 11 C-2.690625 10.29875 -2.38125 9.5975 -2.0625 8.875 C-0.96697322 5.91063343 -0.43577008 3.12301892 0 0 Z " fill="#F7E6E3" transform="translate(202,163)"/>
<path d="M0 0 C0.33 0 0.66 0 1 0 C1.05384521 2.29141286 1.09272087 4.58318188 1.125 6.875 C1.14820313 8.15117187 1.17140625 9.42734375 1.1953125 10.7421875 C1 14 1 14 -1 16 C-1.99 16 -2.98 16 -4 16 C-3.67 14.68 -3.34 13.36 -3 12 C-2.01 12 -1.02 12 0 12 C0 8.04 0 4.08 0 0 Z " fill="#F1B3B0" transform="translate(170,162)"/>
<path d="M0 0 C1.65 0 3.3 0 5 0 C5.33 1.32 5.66 2.64 6 4 C5.01 4.66 4.02 5.32 3 6 C3 5.34 3 4.68 3 4 C1.68 3.34 0.36 2.68 -1 2 C-0.67 1.34 -0.34 0.68 0 0 Z M1 6 C3 7 3 7 3 7 Z " fill="#F70406" transform="translate(119,160)"/>
<path d="M0 0 C0.598125 0.20625 1.19625 0.4125 1.8125 0.625 C1.4825 1.615 1.1525 2.605 0.8125 3.625 C0.1525 3.625 -0.5075 3.625 -1.1875 3.625 C-1.1875 5.605 -1.1875 7.585 -1.1875 9.625 C-2.96456209 6.95940687 -4.06298273 4.5969385 -5.1875 1.625 C-2.1875 -0.375 -2.1875 -0.375 0 0 Z " fill="#F6DA12" transform="translate(226.1875,151.375)"/>
<path d="M0 0 C0.66 0.33 1.32 0.66 2 1 C2.625 4.0625 2.625 4.0625 3 7 C1.35 7.33 -0.3 7.66 -2 8 C-2.125 5.125 -2.125 5.125 -2 2 C-1.34 1.34 -0.68 0.68 0 0 Z " fill="#F7ECE9" transform="translate(213,169)"/>
<path d="M0 0 C0.763125 0.0825 1.52625 0.165 2.3125 0.25 C1.3225 0.91 0.3325 1.57 -0.6875 2.25 C0.27115509 4.58075929 0.27115509 4.58075929 3.3125 6.25 C-0.0625 6.375 -0.0625 6.375 -3.6875 6.25 C-4.3475 5.59 -5.0075 4.93 -5.6875 4.25 C-3.34903846 0.31153846 -3.34903846 0.31153846 0 0 Z " fill="#F5D1CE" transform="translate(256.6875,171.75)"/>
<path d="M0 0 C2.05078125 0.03255208 4.1015625 0.06510417 6.15234375 0.09765625 C6.15234375 0.42765625 6.15234375 0.75765625 6.15234375 1.09765625 C4.50234375 1.42765625 2.85234375 1.75765625 1.15234375 2.09765625 C0.49234375 4.07765625 -0.16765625 6.05765625 -0.84765625 8.09765625 C-1.83765625 7.10765625 -2.82765625 6.11765625 -3.84765625 5.09765625 C-2.85765625 5.09765625 -1.86765625 5.09765625 -0.84765625 5.09765625 C-1.50765625 3.77765625 -2.16765625 2.45765625 -2.84765625 1.09765625 C-1.84765625 0.09765625 -1.84765625 0.09765625 0 0 Z " fill="#F5DDDB" transform="translate(154.84765625,152.90234375)"/>
<path d="M0 0 C2.475 0.99 2.475 0.99 5 2 C5 2.66 5 3.32 5 4 C3.02 4.66 1.04 5.32 -1 6 C-1.625 4.125 -1.625 4.125 -2 2 C-1.34 1.34 -0.68 0.68 0 0 Z " fill="#F30D04" transform="translate(259,130)"/>
<path d="M0 0 C2.03144641 0.93446535 4.03533587 1.93224776 6 3 C5.67 3.99 5.34 4.98 5 6 C4.01 6.33 3.02 6.66 2 7 C1.71125 6.38125 1.4225 5.7625 1.125 5.125 C0.06279958 2.86674235 0.06279958 2.86674235 -2 1 C-1.34 0.67 -0.68 0.34 0 0 Z " fill="#F11013" transform="translate(214,175)"/>
<path d="M0 0 C0.66 0 1.32 0 2 0 C2.33 1.65 2.66 3.3 3 5 C1.02 5.66 -0.96 6.32 -3 7 C-2.34 5.68 -1.68 4.36 -1 3 C-0.34 3 0.32 3 1 3 C0.67 2.01 0.34 1.02 0 0 Z " fill="#FBF804" transform="translate(242,152)"/>
<path d="M0 0 C1.65 0 3.3 0 5 0 C5 0.99 5 1.98 5 3 C3.35 3.66 1.7 4.32 0 5 C0 3.35 0 1.7 0 0 Z " fill="#FBFCF9" transform="translate(155,154)"/>
<path d="M0 0 C2 1 2 1 2.8125 2.875 C3 5 3 5 1.5625 6.75 C1.046875 7.1625 0.53125 7.575 0 8 C-0.99 6.35 -1.98 4.7 -3 3 C-2.01 2.01 -1.02 1.02 0 0 Z " fill="#EE1009" transform="translate(220,152)"/>
<path d="M0 0 C2.97 0 5.94 0 9 0 C7.02 2.97 7.02 2.97 5 6 C4.87625 5.071875 4.87625 5.071875 4.75 4.125 C4.08785794 1.46510021 4.08785794 1.46510021 0 0 Z " fill="#EA0E10" transform="translate(176,159)"/>
<path d="M0 0 C1.9375 0.3125 1.9375 0.3125 4 1 C4.33 1.99 4.66 2.98 5 4 C3.35 4 1.7 4 0 4 C0 2.68 0 1.36 0 0 Z " fill="#F7F3F0" transform="translate(109,153)"/>
<path d="M0 0 C0.66 0.33 1.32 0.66 2 1 C1.34 2.98 0.68 4.96 0 7 C-1.32 6.34 -2.64 5.68 -4 5 C-2.68 3.35 -1.36 1.7 0 0 Z " fill="#F7DF0F" transform="translate(248,144)"/>
<path d="M0 0 C0.66 1.32 1.32 2.64 2 4 C0.35 5.32 -1.3 6.64 -3 8 C-3 7.01 -3 6.02 -3 5 C-2.34 5 -1.68 5 -1 5 C-1.33 4.01 -1.66 3.02 -2 2 C-1.34 1.34 -0.68 0.68 0 0 Z " fill="#F8DC0F" transform="translate(252,144)"/>
<path d="M0 0 C1.65 0 3.3 0 5 0 C5 0.66 5 1.32 5 2 C4.34 2 3.68 2 3 2 C3 2.99 3 3.98 3 5 C2.01 4.67 1.02 4.34 0 4 C0 2.68 0 1.36 0 0 Z " fill="#FBFDFC" transform="translate(274,170)"/>
<path d="M0 0 C2.31 0.33 4.62 0.66 7 1 C7 1.66 7 2.32 7 3 C5.02 3 3.04 3 1 3 C0.67 2.01 0.34 1.02 0 0 Z " fill="#F40D0F" transform="translate(253,169)"/>
<path d="M0 0 C0.33 0.99 0.66 1.98 1 3 C3.00016466 4.20882096 3.00016466 4.20882096 5 5 C2.36 5 -0.28 5 -3 5 C-1.125 1.125 -1.125 1.125 0 0 Z " fill="#EF0506" transform="translate(253,148)"/>
</svg>
