<?xml version="1.0" encoding="UTF-8"?>
<svg version="1.1" xmlns="http://www.w3.org/2000/svg" width="1650" height="1650">
<path d="M0 0 C544.5 0 1089 0 1650 0 C1650 544.5 1650 1089 1650 1650 C1105.5 1650 561 1650 0 1650 C0 1105.5 0 561 0 0 Z " fill="#FE7D00" transform="translate(0,0)"/>
<path d="M0 0 C8.91 0 17.82 0 27 0 C27 0.66 27 1.32 27 2 C27.65226563 1.98839844 28.30453125 1.97679687 28.9765625 1.96484375 C33.7761914 1.91529006 38.27784685 2.00586249 43 3 C43 3.66 43 4.32 43 5 C44.0725 5.144375 45.145 5.28875 46.25 5.4375 C48.91662949 5.83749442 51.41399729 6.27591924 54 7 C54 7.66 54 8.32 54 9 C55.98 9.33 57.96 9.66 60 10 C60 10.66 60 11.32 60 12 C61.65 12.33 63.3 12.66 65 13 C65 13.66 65 14.32 65 15 C66.98 15.66 68.96 16.32 71 17 C71 17.66 71 18.32 71 19 C72.32 19.33 73.64 19.66 75 20 C75 20.66 75 21.32 75 22 C75.721875 22.20625 76.44375 22.4125 77.1875 22.625 C80.97218384 24.47528988 82.52258653 26.60240438 85 30 C85 30.66 85 31.32 85 32 C85.66 32 86.32 32 87 32 C87.103125 32.639375 87.20625 33.27875 87.3125 33.9375 C87.539375 34.618125 87.76625 35.29875 88 36 C88.99 36.33 89.98 36.66 91 37 C91 37.66 91 38.32 91 39 C91.66 39 92.32 39 93 39 C94.25664978 41.90600261 95 43.79604584 95 47 C95.66 47 96.32 47 97 47 C97.33 48.32 97.66 49.64 98 51 C98.66 51 99.32 51 100 51 C100.33872513 52.41538717 100.67074624 53.83237963 101 55.25 C101.185625 56.03890625 101.37125 56.8278125 101.5625 57.640625 C102 60 102 60 102 64 C102.66 64 103.32 64 104 64 C104.33 66.97 104.66 69.94 105 73 C105.66 73 106.32 73 107 73 C107 83.89 107 94.78 107 106 C106.34 106 105.68 106 105 106 C105.0309375 107.85625 105.0309375 107.85625 105.0625 109.75 C105.06766681 112.6640825 104.93015558 115.20953327 104 118 C103.34 118 102.68 118 102 118 C101.93941406 118.61488281 101.87882813 119.22976563 101.81640625 119.86328125 C101.73261719 120.67152344 101.64882813 121.47976563 101.5625 122.3125 C101.44068359 123.51326172 101.44068359 123.51326172 101.31640625 124.73828125 C101 127 101 127 100 130 C99.34 130 98.68 130 98 130 C97.67 131.65 97.34 133.3 97 135 C96.34 135 95.68 135 95 135 C94.6596875 136.918125 94.6596875 136.918125 94.3125 138.875 C93.7734375 141.10546875 93.7734375 141.10546875 93 143 C90.4375 144.1875 90.4375 144.1875 88 145 C87.855625 145.763125 87.71125 146.52625 87.5625 147.3125 C86.85317787 150.70148349 85.24029804 151.70158618 82.5546875 153.73828125 C80.34061113 155.53513217 78.75269353 157.7638048 77 160 C74 162 74 162 71 162 C70.67 162.99 70.34 163.98 70 165 C69.01 165 68.02 165 67 165 C67 165.66 67 166.32 67 167 C65.68 167.33 64.36 167.66 63 168 C63 168.66 63 169.32 63 170 C58.545 170.99 58.545 170.99 54 172 C54 172.66 54 173.32 54 174 C51.69 174.33 49.38 174.66 47 175 C47 175.66 47 176.32 47 177 C40.88019467 178.40454548 35.28260706 179.23268915 29 179 C29 179.66 29 180.32 29 181 C18.11 181 7.22 181 -4 181 C-4 180.34 -4 179.68 -4 179 C-4.67546875 178.93941406 -5.3509375 178.87882813 -6.046875 178.81640625 C-6.93890625 178.73261719 -7.8309375 178.64882813 -8.75 178.5625 C-10.07257813 178.44068359 -10.07257813 178.44068359 -11.421875 178.31640625 C-13.69350452 178.03761535 -15.79851823 177.61209423 -18 177 C-18 176.34 -18 175.68 -18 175 C-20.64 174.67 -23.28 174.34 -26 174 C-26 173.34 -26 172.68 -26 172 C-26.56589844 171.87882813 -27.13179688 171.75765625 -27.71484375 171.6328125 C-28.81505859 171.38144531 -28.81505859 171.38144531 -29.9375 171.125 C-31.03384766 170.88136719 -31.03384766 170.88136719 -32.15234375 170.6328125 C-34 170 -34 170 -35 168 C-35.99 167.67 -36.98 167.34 -38 167 C-38 166.34 -38 165.68 -38 165 C-38.78375 164.896875 -39.5675 164.79375 -40.375 164.6875 C-43 164 -43 164 -45 161 C-45.99 160.67 -46.98 160.34 -48 160 C-48 159.34 -48 158.68 -48 158 C-48.99 157.67 -49.98 157.34 -51 157 C-51 156.34 -51 155.68 -51 155 C-51.99 154.67 -52.98 154.34 -54 154 C-56.36506843 151.99878825 -56.9893322 151.03200339 -58 148 C-58.515625 147.484375 -59.03125 146.96875 -59.5625 146.4375 C-60.036875 145.963125 -60.51125 145.48875 -61 145 C-61 144.34 -61 143.68 -61 143 C-61.66 143 -62.32 143 -63 143 C-65 140 -65 140 -65 137 C-65.66 137 -66.32 137 -67 137 C-67.33 135.02 -67.66 133.04 -68 131 C-68.66 131 -69.32 131 -70 131 C-71.19287411 127.12315913 -72 124.08378077 -72 120 C-72.66 120 -73.32 120 -74 120 C-74.98248524 115.9472484 -75.08159574 112.16138263 -75 108 C-75.66 108 -76.32 108 -77 108 C-77.96346254 104.75991471 -78.12888585 101.83086088 -78.1328125 98.45703125 C-78.13410156 97.38259766 -78.13539063 96.30816406 -78.13671875 95.20117188 C-78.13285156 94.08291016 -78.12898438 92.96464844 -78.125 91.8125 C-78.12886719 90.71357422 -78.13273437 89.61464844 -78.13671875 88.48242188 C-78.12927072 82.2372492 -77.82374941 76.19119593 -77 70 C-76.34 70 -75.68 70 -75 70 C-74.67 66.7 -74.34 63.4 -74 60 C-73.34 60 -72.68 60 -72 60 C-71.34 56.7 -70.68 53.4 -70 50 C-69.34 50 -68.68 50 -68 50 C-67.87625 49.030625 -67.7525 48.06125 -67.625 47.0625 C-67.41875 46.051875 -67.2125 45.04125 -67 44 C-66.01 43.505 -66.01 43.505 -65 43 C-63.86649466 40.98330173 -63.86649466 40.98330173 -63 39 C-62.34 39 -61.68 39 -61 39 C-60.938125 38.21625 -60.87625 37.4325 -60.8125 36.625 C-60.544375 35.75875 -60.27625 34.8925 -60 34 C-58.33333333 33.33333333 -56.66666667 32.66666667 -55 32 C-54.10613836 29.45224694 -54.10613836 29.45224694 -54 27 C-52.68 26.67 -51.36 26.34 -50 26 C-50 25.01 -50 24.02 -50 23 C-49.21625 22.938125 -48.4325 22.87625 -47.625 22.8125 C-46.75875 22.544375 -45.8925 22.27625 -45 22 C-44.31867549 20.33927151 -43.65257873 18.672233 -43 17 C-40.08543662 15.43061972 -38.32058331 15 -35 15 C-35 14.34 -35 13.68 -35 13 C-33.68 12.67 -32.36 12.34 -31 12 C-31 11.34 -31 10.68 -31 10 C-29.35 9.67 -27.7 9.34 -26 9 C-26 8.34 -26 7.68 -26 7 C-24.7625 6.67 -23.525 6.34 -22.25 6 C-21.55390625 5.814375 -20.8578125 5.62875 -20.140625 5.4375 C-18 5 -18 5 -14 5 C-14 4.34 -14 3.68 -14 3 C-9.23692563 2.04738513 -4.8333472 1.91666643 0 2 C0 1.34 0 0.68 0 0 Z " fill="#FEFEFD" transform="translate(485,737)"/>
<path d="M0 0 C1.68512695 -0.00580078 1.68512695 -0.00580078 3.40429688 -0.01171875 C9.30292024 -0.00479142 14.98081868 0.22781826 20.8125 1.125 C20.8125 1.785 20.8125 2.445 20.8125 3.125 C25.7625 3.62 25.7625 3.62 30.8125 4.125 C30.8125 4.785 30.8125 5.445 30.8125 6.125 C32.4521875 6.3415625 32.4521875 6.3415625 34.125 6.5625 C37.8125 7.125 37.8125 7.125 40.8125 8.125 C40.8125 8.785 40.8125 9.445 40.8125 10.125 C41.781875 10.24875 42.75125 10.3725 43.75 10.5 C45.2659375 10.809375 45.2659375 10.809375 46.8125 11.125 C47.1425 11.785 47.4725 12.445 47.8125 13.125 C48.8025 13.455 49.7925 13.785 50.8125 14.125 C53 16.0625 53 16.0625 54.8125 18.125 C54.8125 18.785 54.8125 19.445 54.8125 20.125 C55.59625 20.228125 56.38 20.33125 57.1875 20.4375 C59.8125 21.125 59.8125 21.125 61.8125 24.125 C61.8125 25.115 61.8125 26.105 61.8125 27.125 C62.8025 27.455 63.7925 27.785 64.8125 28.125 C64.8125 28.785 64.8125 29.445 64.8125 30.125 C65.4725 30.125 66.1325 30.125 66.8125 30.125 C67.1425 31.115 67.4725 32.105 67.8125 33.125 C68.4725 33.455 69.1325 33.785 69.8125 34.125 C71.38798683 36.75081138 71.8125 37.99599787 71.8125 41.125 C72.4725 41.125 73.1325 41.125 73.8125 41.125 C74.1425 43.435 74.4725 45.745 74.8125 48.125 C75.4725 48.125 76.1325 48.125 76.8125 48.125 C77.1425 51.095 77.4725 54.065 77.8125 57.125 C78.4725 57.125 79.1325 57.125 79.8125 57.125 C81.38109415 63.84323841 82.10176768 70.14447382 82.04296875 77.03515625 C82.04251053 77.92867294 82.04205231 78.82218964 82.0415802 79.74278259 C82.03858586 81.60905302 82.03078557 83.4753216 82.01831055 85.34155273 C81.99984549 88.21151445 81.99780268 91.08115646 81.99804688 93.95117188 C81.9931384 95.77083615 81.98731303 97.59049823 81.98046875 99.41015625 C81.97935593 100.27044937 81.9782431 101.13074249 81.97709656 102.0171051 C81.92861623 108.00888377 81.92861623 108.00888377 80.8125 109.125 C79.2943148 109.22078593 77.77167604 109.24688147 76.25047302 109.24525452 C74.77172699 109.24731651 74.77172699 109.24731651 73.2631073 109.24942017 C72.17266617 109.24582489 71.08222504 109.24222961 69.95874023 109.23852539 C68.24676956 109.23874443 68.24676956 109.23874443 66.50021362 109.2389679 C62.70715469 109.23826818 58.91414416 109.23047307 55.12109375 109.22265625 C52.49935432 109.22079228 49.87761454 109.21936828 47.25587463 109.21836853 C41.04748045 109.21525551 34.83910379 109.20704252 28.63071734 109.19701904 C21.56432559 109.18585699 14.49793301 109.18034722 7.43153465 109.17532361 C-7.10815263 109.16485988 -21.64782607 109.147261 -36.1875 109.125 C-36.1875 110.775 -36.1875 112.425 -36.1875 114.125 C-35.1975 114.455 -34.2075 114.785 -33.1875 115.125 C-33.1875 116.445 -33.1875 117.765 -33.1875 119.125 C-32.5275 119.125 -31.8675 119.125 -31.1875 119.125 C-30.919375 119.90875 -30.65125 120.6925 -30.375 121.5 C-29.33935568 124.40614923 -29.33935568 124.40614923 -26.1875 126.125 C-26.1875 126.785 -26.1875 127.445 -26.1875 128.125 C-25.1975 128.455 -24.2075 128.785 -23.1875 129.125 C-23.1875 129.785 -23.1875 130.445 -23.1875 131.125 C-21.8675 131.455 -20.5475 131.785 -19.1875 132.125 C-19.1875 132.785 -19.1875 133.445 -19.1875 134.125 C-15.8875 134.785 -12.5875 135.445 -9.1875 136.125 C-9.1875 136.785 -9.1875 137.445 -9.1875 138.125 C0.7125 138.125 10.6125 138.125 20.8125 138.125 C20.8125 137.465 20.8125 136.805 20.8125 136.125 C22.22788717 135.78627487 23.64487963 135.45425376 25.0625 135.125 C25.85140625 134.939375 26.6403125 134.75375 27.453125 134.5625 C29.8125 134.125 29.8125 134.125 33.8125 134.125 C33.8125 133.465 33.8125 132.805 33.8125 132.125 C36.1225 131.795 38.4325 131.465 40.8125 131.125 C40.8125 130.465 40.8125 129.805 40.8125 129.125 C41.8025 128.795 42.7925 128.465 43.8125 128.125 C44.1425 127.465 44.4725 126.805 44.8125 126.125 C48.25 124.9375 48.25 124.9375 51.8125 124.125 C52.4725 124.455 53.1325 124.785 53.8125 125.125 C54.4375 128.1875 54.4375 128.1875 54.8125 131.125 C55.4725 131.125 56.1325 131.125 56.8125 131.125 C57.1425 132.115 57.4725 133.105 57.8125 134.125 C58.4725 134.455 59.1325 134.785 59.8125 135.125 C60.4453125 137.19140625 60.4453125 137.19140625 60.9375 139.6875 C61.10507812 140.51378906 61.27265625 141.34007812 61.4453125 142.19140625 C61.56648437 142.82949219 61.68765625 143.46757813 61.8125 144.125 C62.4725 144.125 63.1325 144.125 63.8125 144.125 C64.1425 145.775 64.4725 147.425 64.8125 149.125 C65.4725 149.125 66.1325 149.125 66.8125 149.125 C67.1425 150.445 67.4725 151.765 67.8125 153.125 C68.4725 153.125 69.1325 153.125 69.8125 153.125 C71.61869523 157.58736469 71.92908501 160.43534294 70.8125 165.125 C69.4925 165.455 68.1725 165.785 66.8125 166.125 C66.8125 166.785 66.8125 167.445 66.8125 168.125 C65.1625 168.455 63.5125 168.785 61.8125 169.125 C61.8125 169.785 61.8125 170.445 61.8125 171.125 C58.90649739 172.38164978 57.01645416 173.125 53.8125 173.125 C53.8125 173.785 53.8125 174.445 53.8125 175.125 C51.5025 175.455 49.1925 175.785 46.8125 176.125 C46.8125 176.785 46.8125 177.445 46.8125 178.125 C37.40247722 180.42112756 37.40247722 180.42112756 32.8125 180.125 C32.8125 180.785 32.8125 181.445 32.8125 182.125 C26.93437652 182.97358008 21.24319583 183.27222392 15.30859375 183.2578125 C13.98541893 183.25924759 13.98541893 183.25924759 12.63551331 183.26071167 C10.78248014 183.26138817 8.92944454 183.25957114 7.07641602 183.25537109 C4.25466555 183.25000887 1.43307376 183.25533749 -1.38867188 183.26171875 C-3.19791701 183.261058 -5.00716206 183.2597769 -6.81640625 183.2578125 C-7.65200577 183.25983673 -8.48760529 183.26186096 -9.348526 183.26394653 C-14.06560712 183.24523164 -18.53462775 182.91002846 -23.1875 182.125 C-23.1875 181.465 -23.1875 180.805 -23.1875 180.125 C-24.198125 180.16625 -25.20875 180.2075 -26.25 180.25 C-30.36826052 180.11926157 -33.30580533 179.39249214 -37.1875 178.125 C-37.1875 177.465 -37.1875 176.805 -37.1875 176.125 C-39.4975 175.795 -41.8075 175.465 -44.1875 175.125 C-44.1875 174.465 -44.1875 173.805 -44.1875 173.125 C-46.1675 172.795 -48.1475 172.465 -50.1875 172.125 C-50.5175 171.135 -50.8475 170.145 -51.1875 169.125 C-52.8375 168.795 -54.4875 168.465 -56.1875 168.125 C-56.1875 167.465 -56.1875 166.805 -56.1875 166.125 C-57.1465625 165.939375 -57.1465625 165.939375 -58.125 165.75 C-58.805625 165.54375 -59.48625 165.3375 -60.1875 165.125 C-60.5175 164.465 -60.8475 163.805 -61.1875 163.125 C-61.991875 162.856875 -62.79625 162.58875 -63.625 162.3125 C-66.1875 161.125 -66.1875 161.125 -67.5 158.5 C-67.726875 157.71625 -67.95375 156.9325 -68.1875 156.125 C-68.8475 156.125 -69.5075 156.125 -70.1875 156.125 C-70.5175 155.135 -70.8475 154.145 -71.1875 153.125 C-72.6725 152.135 -72.6725 152.135 -74.1875 151.125 C-74.1875 150.465 -74.1875 149.805 -74.1875 149.125 C-74.8475 149.125 -75.5075 149.125 -76.1875 149.125 C-77.6481285 146.47761084 -78.1875 145.23051666 -78.1875 142.125 C-79.1775 141.795 -80.1675 141.465 -81.1875 141.125 C-81.1875 140.135 -81.1875 139.145 -81.1875 138.125 C-81.8475 138.125 -82.5075 138.125 -83.1875 138.125 C-84.1775 133.175 -84.1775 133.175 -85.1875 128.125 C-85.8475 128.125 -86.5075 128.125 -87.1875 128.125 C-87.5175 124.825 -87.8475 121.525 -88.1875 118.125 C-88.8475 118.125 -89.5075 118.125 -90.1875 118.125 C-90.5175 113.505 -90.8475 108.885 -91.1875 104.125 C-91.8475 104.125 -92.5075 104.125 -93.1875 104.125 C-93.1875 96.535 -93.1875 88.945 -93.1875 81.125 C-92.5275 81.125 -91.8675 81.125 -91.1875 81.125 C-91.19910156 80.47273437 -91.21070313 79.82046875 -91.22265625 79.1484375 C-91.27220994 74.3488086 -91.18163751 69.84715315 -90.1875 65.125 C-89.5275 65.125 -88.8675 65.125 -88.1875 65.125 C-87.8575 62.485 -87.5275 59.845 -87.1875 57.125 C-86.5275 57.125 -85.8675 57.125 -85.1875 57.125 C-85.043125 56.031875 -84.89875 54.93875 -84.75 53.8125 C-84.1875 50.125 -84.1875 50.125 -83.1875 47.125 C-82.5275 47.125 -81.8675 47.125 -81.1875 47.125 C-80.6925 44.155 -80.6925 44.155 -80.1875 41.125 C-79.5275 41.125 -78.8675 41.125 -78.1875 41.125 C-78.043125 40.50625 -77.89875 39.8875 -77.75 39.25 C-77.1875 37.125 -77.1875 37.125 -76.1875 35.125 C-75.5275 35.125 -74.8675 35.125 -74.1875 35.125 C-74.06375 34.485625 -73.94 33.84625 -73.8125 33.1875 C-73.503125 32.1665625 -73.503125 32.1665625 -73.1875 31.125 C-72.5275 30.795 -71.8675 30.465 -71.1875 30.125 C-70.8575 29.135 -70.5275 28.145 -70.1875 27.125 C-69.5275 27.125 -68.8675 27.125 -68.1875 27.125 C-67.5275 25.805 -66.8675 24.485 -66.1875 23.125 C-65.1975 23.125 -64.2075 23.125 -63.1875 23.125 C-63.1875 22.465 -63.1875 21.805 -63.1875 21.125 C-60.33972057 18.51453552 -58.05683162 16.69823431 -54.1875 16.125 C-54.1875 15.465 -54.1875 14.805 -54.1875 14.125 C-53.1975 13.795 -52.2075 13.465 -51.1875 13.125 C-50.8575 12.465 -50.5275 11.805 -50.1875 11.125 C-47.125 10.5 -47.125 10.5 -44.1875 10.125 C-44.1875 9.465 -44.1875 8.805 -44.1875 8.125 C-40.35760894 6.32269832 -37.40628192 5.92877759 -33.1875 6.125 C-33.1875 5.465 -33.1875 4.805 -33.1875 4.125 C-28.7325 3.63 -28.7325 3.63 -24.1875 3.125 C-24.1875 2.465 -24.1875 1.805 -24.1875 1.125 C-16.10690787 0.23336246 -8.12601532 -0.0282644 0 0 Z " fill="#FEFEFD" transform="translate(855.1875,735.875)"/>
<path d="M0 0 C0.99235657 -0.00143509 0.99235657 -0.00143509 2.00476074 -0.00289917 C3.392986 -0.00357474 4.78121454 -0.00176434 6.16943359 0.00244141 C8.27578938 0.00779861 10.38193198 0.00247514 12.48828125 -0.00390625 C13.84635463 -0.00324536 15.20442788 -0.00196397 16.5625 0 C17.78001953 0.00112793 18.99753906 0.00225586 20.25195312 0.00341797 C23.82481238 0.13440963 27.25383474 0.56392923 30.78125 1.1328125 C30.78125 1.7928125 30.78125 2.4528125 30.78125 3.1328125 C35.73125 3.6278125 35.73125 3.6278125 40.78125 4.1328125 C40.78125 4.7928125 40.78125 5.4528125 40.78125 6.1328125 C42.4209375 6.349375 42.4209375 6.349375 44.09375 6.5703125 C47.78125 7.1328125 47.78125 7.1328125 50.78125 8.1328125 C50.78125 8.7928125 50.78125 9.4528125 50.78125 10.1328125 C52.76125 10.4628125 54.74125 10.7928125 56.78125 11.1328125 C56.78125 11.7928125 56.78125 12.4528125 56.78125 13.1328125 C58.76125 13.6278125 58.76125 13.6278125 60.78125 14.1328125 C60.78125 14.7928125 60.78125 15.4528125 60.78125 16.1328125 C61.35875 16.2153125 61.93625 16.2978125 62.53125 16.3828125 C65.4351836 17.35079037 66.81865604 18.81975534 68.78125 21.1328125 C68.78125 21.7928125 68.78125 22.4528125 68.78125 23.1328125 C69.9878125 23.473125 69.9878125 23.473125 71.21875 23.8203125 C72.064375 24.2534375 72.91 24.6865625 73.78125 25.1328125 C74.59375 27.7578125 74.59375 27.7578125 74.78125 30.1328125 C75.77125 30.4628125 76.76125 30.7928125 77.78125 31.1328125 C78.46875 33.1953125 78.46875 33.1953125 78.78125 35.1328125 C79.44125 35.1328125 80.10125 35.1328125 80.78125 35.1328125 C81.11125 37.1128125 81.44125 39.0928125 81.78125 41.1328125 C82.44125 41.1328125 83.10125 41.1328125 83.78125 41.1328125 C84.11125 43.1128125 84.44125 45.0928125 84.78125 47.1328125 C85.44125 47.1328125 86.10125 47.1328125 86.78125 47.1328125 C87.97412411 51.00965337 88.78125 54.04903173 88.78125 58.1328125 C89.44125 58.1328125 90.10125 58.1328125 90.78125 58.1328125 C91.11125 62.4228125 91.44125 66.7128125 91.78125 71.1328125 C92.44125 71.1328125 93.10125 71.1328125 93.78125 71.1328125 C93.78125 80.3728125 93.78125 89.6128125 93.78125 99.1328125 C93.12125 99.1328125 92.46125 99.1328125 91.78125 99.1328125 C91.78125 102.4328125 91.78125 105.7328125 91.78125 109.1328125 C52.84125 109.1328125 13.90125 109.1328125 -26.21875 109.1328125 C-26.21875 109.7928125 -26.21875 110.4528125 -26.21875 111.1328125 C-25.55875 111.1328125 -24.89875 111.1328125 -24.21875 111.1328125 C-22.96210022 114.03881511 -22.21875 115.92885834 -22.21875 119.1328125 C-21.55875 119.1328125 -20.89875 119.1328125 -20.21875 119.1328125 C-19.88875 120.7828125 -19.55875 122.4328125 -19.21875 124.1328125 C-18.55875 124.1328125 -17.89875 124.1328125 -17.21875 124.1328125 C-17.21875 124.7928125 -17.21875 125.4528125 -17.21875 126.1328125 C-16.22875 126.1328125 -15.23875 126.1328125 -14.21875 126.1328125 C-13.991875 126.9371875 -13.765 127.7415625 -13.53125 128.5703125 C-12.8815625 129.83875 -12.8815625 129.83875 -12.21875 131.1328125 C-9.67099694 132.02667414 -9.67099694 132.02667414 -7.21875 132.1328125 C-7.21875 132.7928125 -7.21875 133.4528125 -7.21875 134.1328125 C-1.77375 135.1228125 -1.77375 135.1228125 3.78125 136.1328125 C3.78125 136.7928125 3.78125 137.4528125 3.78125 138.1328125 C11.37125 138.1328125 18.96125 138.1328125 26.78125 138.1328125 C26.78125 137.4728125 26.78125 136.8128125 26.78125 136.1328125 C35.19625 135.1428125 35.19625 135.1428125 43.78125 134.1328125 C43.78125 133.4728125 43.78125 132.8128125 43.78125 132.1328125 C46.09125 131.8028125 48.40125 131.4728125 50.78125 131.1328125 C51.11125 130.1428125 51.44125 129.1528125 51.78125 128.1328125 C52.77125 128.1328125 53.76125 128.1328125 54.78125 128.1328125 C54.78125 127.4728125 54.78125 126.8128125 54.78125 126.1328125 C56.43125 126.1328125 58.08125 126.1328125 59.78125 126.1328125 C60.77125 130.5878125 60.77125 130.5878125 61.78125 135.1328125 C62.44125 135.1328125 63.10125 135.1328125 63.78125 135.1328125 C64.11125 137.4428125 64.44125 139.7528125 64.78125 142.1328125 C65.44125 142.1328125 66.10125 142.1328125 66.78125 142.1328125 C67.77125 146.5878125 67.77125 146.5878125 68.78125 151.1328125 C69.44125 151.1328125 70.10125 151.1328125 70.78125 151.1328125 C71.11125 152.7828125 71.44125 154.4328125 71.78125 156.1328125 C72.44125 156.1328125 73.10125 156.1328125 73.78125 156.1328125 C74.11125 158.1128125 74.44125 160.0928125 74.78125 162.1328125 C75.44125 162.1328125 76.10125 162.1328125 76.78125 162.1328125 C77.46875 163.9453125 77.46875 163.9453125 77.78125 166.1328125 C76.53125 167.8828125 76.53125 167.8828125 74.78125 169.1328125 C73.79125 169.1328125 72.80125 169.1328125 71.78125 169.1328125 C71.78125 169.7928125 71.78125 170.4528125 71.78125 171.1328125 C68.87524739 172.38946228 66.98520416 173.1328125 63.78125 173.1328125 C63.78125 173.7928125 63.78125 174.4528125 63.78125 175.1328125 C61.47125 175.4628125 59.16125 175.7928125 56.78125 176.1328125 C56.78125 176.7928125 56.78125 177.4528125 56.78125 178.1328125 C50.97358704 179.6385029 45.7830637 180.35106027 39.78125 180.1328125 C39.78125 180.7928125 39.78125 181.4528125 39.78125 182.1328125 C35.04192661 183.34379922 30.42572725 183.27720073 25.5703125 183.265625 C24.68395111 183.26658173 23.79758972 183.26753845 22.8843689 183.26852417 C21.01340667 183.26920317 19.14244205 183.26736846 17.27148438 183.26318359 C14.42312257 183.25784413 11.57491935 183.26313155 8.7265625 183.26953125 C6.90364549 183.26887017 5.08072857 183.26758839 3.2578125 183.265625 C1.99029648 183.26866135 1.99029648 183.26866135 0.69717407 183.27175903 C-4.046099 183.25316681 -8.54032922 182.92394092 -13.21875 182.1328125 C-13.21875 181.4728125 -13.21875 180.8128125 -13.21875 180.1328125 C-13.89421875 180.07222656 -14.5696875 180.01164063 -15.265625 179.94921875 C-16.15765625 179.86542969 -17.0496875 179.78164063 -17.96875 179.6953125 C-18.85046875 179.61410156 -19.7321875 179.53289062 -20.640625 179.44921875 C-22.91225452 179.17042785 -25.01726823 178.74490673 -27.21875 178.1328125 C-27.21875 177.4728125 -27.21875 176.8128125 -27.21875 176.1328125 C-29.19875 175.8028125 -31.17875 175.4728125 -33.21875 175.1328125 C-33.21875 174.4728125 -33.21875 173.8128125 -33.21875 173.1328125 C-34.641875 172.91625 -34.641875 172.91625 -36.09375 172.6953125 C-39.21875 172.1328125 -39.21875 172.1328125 -41.21875 171.1328125 C-41.21875 170.4728125 -41.21875 169.8128125 -41.21875 169.1328125 C-42.4253125 168.9471875 -42.4253125 168.9471875 -43.65625 168.7578125 C-44.501875 168.5515625 -45.3475 168.3453125 -46.21875 168.1328125 C-46.54875 167.4728125 -46.87875 166.8128125 -47.21875 166.1328125 C-48.20875 165.8028125 -49.19875 165.4728125 -50.21875 165.1328125 C-52.40625 163.1953125 -52.40625 163.1953125 -54.21875 161.1328125 C-54.21875 160.4728125 -54.21875 159.8128125 -54.21875 159.1328125 C-55.20875 158.8028125 -56.19875 158.4728125 -57.21875 158.1328125 C-57.21875 157.4728125 -57.21875 156.8128125 -57.21875 156.1328125 C-58.20875 155.8028125 -59.19875 155.4728125 -60.21875 155.1328125 C-62.58381843 153.13160075 -63.2080822 152.16481589 -64.21875 149.1328125 C-64.87875 148.8028125 -65.53875 148.4728125 -66.21875 148.1328125 C-67.79423683 145.50700112 -68.21875 144.26181463 -68.21875 141.1328125 C-68.87875 141.1328125 -69.53875 141.1328125 -70.21875 141.1328125 C-70.54875 139.1528125 -70.87875 137.1728125 -71.21875 135.1328125 C-71.87875 135.1328125 -72.53875 135.1328125 -73.21875 135.1328125 C-73.54875 133.1528125 -73.87875 131.1728125 -74.21875 129.1328125 C-74.87875 129.1328125 -75.53875 129.1328125 -76.21875 129.1328125 C-77.8100189 124.2595515 -78.43067221 120.32490654 -78.21875 115.1328125 C-78.87875 115.1328125 -79.53875 115.1328125 -80.21875 115.1328125 C-81.25310364 107.2491057 -81.37353854 99.40280604 -81.34912109 91.46337891 C-81.34372376 89.37264884 -81.34911694 87.28213014 -81.35546875 85.19140625 C-81.35480847 83.84374953 -81.35352834 82.49609295 -81.3515625 81.1484375 C-81.35043457 79.94477539 -81.34930664 78.74111328 -81.34814453 77.50097656 C-81.22484863 74.29156096 -80.82355197 71.2835485 -80.21875 68.1328125 C-79.55875 68.1328125 -78.89875 68.1328125 -78.21875 68.1328125 C-78.280625 66.616875 -78.280625 66.616875 -78.34375 65.0703125 C-78.21301157 60.95205198 -77.48624214 58.01450717 -76.21875 54.1328125 C-75.55875 54.1328125 -74.89875 54.1328125 -74.21875 54.1328125 C-73.72375 51.1628125 -73.72375 51.1628125 -73.21875 48.1328125 C-72.55875 48.1328125 -71.89875 48.1328125 -71.21875 48.1328125 C-70.88875 46.4828125 -70.55875 44.8328125 -70.21875 43.1328125 C-69.55875 43.1328125 -68.89875 43.1328125 -68.21875 43.1328125 C-68.074375 42.3696875 -67.93 41.6065625 -67.78125 40.8203125 C-67.21875 38.1328125 -67.21875 38.1328125 -66.21875 35.1328125 C-65.22875 34.6378125 -65.22875 34.6378125 -64.21875 34.1328125 C-63.88875 33.1428125 -63.55875 32.1528125 -63.21875 31.1328125 C-61.28125 28.9453125 -61.28125 28.9453125 -59.21875 27.1328125 C-58.55875 27.1328125 -57.89875 27.1328125 -57.21875 27.1328125 C-56.88875 26.1428125 -56.55875 25.1528125 -56.21875 24.1328125 C-54.57235035 22.77453279 -52.90579193 21.44026999 -51.21875 20.1328125 C-50.88875 19.4728125 -50.55875 18.8128125 -50.21875 18.1328125 C-48.23986039 17.40587346 -46.23920442 16.73464999 -44.21875 16.1328125 C-44.21875 15.4728125 -44.21875 14.8128125 -44.21875 14.1328125 C-42.56875 13.8028125 -40.91875 13.4728125 -39.21875 13.1328125 C-39.21875 12.4728125 -39.21875 11.8128125 -39.21875 11.1328125 C-37.23875 10.8028125 -35.25875 10.4728125 -33.21875 10.1328125 C-33.21875 9.4728125 -33.21875 8.8128125 -33.21875 8.1328125 C-30.24875 7.4728125 -27.27875 6.8128125 -24.21875 6.1328125 C-24.21875 5.4728125 -24.21875 4.8128125 -24.21875 4.1328125 C-20.91875 3.8028125 -17.61875 3.4728125 -14.21875 3.1328125 C-14.21875 2.4728125 -14.21875 1.8128125 -14.21875 1.1328125 C-9.43347996 0.36106892 -4.8452475 0.00448872 0 0 Z " fill="#FEFEFD" transform="translate(1168.21875,735.8671875)"/>
<path d="M0 0 C3.24402384 0.00543719 6.48791349 -0.00002782 9.73193359 -0.00634766 C11.83219431 -0.00568791 13.93245495 -0.00440891 16.03271484 -0.00244141 C16.98390198 -0.00446564 17.93508911 -0.00648987 18.9151001 -0.00857544 C24.98352017 0.01246232 30.92859625 0.41507878 36.95458984 1.13037109 C36.95458984 1.79037109 36.95458984 2.45037109 36.95458984 3.13037109 C37.89818359 3.11296875 37.89818359 3.11296875 38.86083984 3.09521484 C44.33528072 3.03750236 49.53916791 3.32808636 54.95458984 4.13037109 C54.95458984 4.79037109 54.95458984 5.45037109 54.95458984 6.13037109 C58.91458984 6.46037109 62.87458984 6.79037109 66.95458984 7.13037109 C66.95458984 7.79037109 66.95458984 8.45037109 66.95458984 9.13037109 C68.02708984 9.27474609 69.09958984 9.41912109 70.20458984 9.56787109 C72.87121934 9.96786552 75.36858713 10.40629034 77.95458984 11.13037109 C77.95458984 11.79037109 77.95458984 12.45037109 77.95458984 13.13037109 C79.93458984 13.46037109 81.91458984 13.79037109 83.95458984 14.13037109 C83.95458984 14.79037109 83.95458984 15.45037109 83.95458984 16.13037109 C85.27458984 16.46037109 86.59458984 16.79037109 87.95458984 17.13037109 C87.95458984 17.79037109 87.95458984 18.45037109 87.95458984 19.13037109 C88.90333984 19.23349609 89.85208984 19.33662109 90.82958984 19.44287109 C93.95458984 20.13037109 93.95458984 20.13037109 95.95458984 23.13037109 C96.94458984 23.46037109 97.93458984 23.79037109 98.95458984 24.13037109 C98.95458984 24.79037109 98.95458984 25.45037109 98.95458984 26.13037109 C99.73833984 26.39849609 100.52208984 26.66662109 101.32958984 26.94287109 C103.95458984 28.13037109 103.95458984 28.13037109 105.95458984 31.13037109 C105.95458984 32.12037109 105.95458984 33.11037109 105.95458984 34.13037109 C106.61458984 34.13037109 107.27458984 34.13037109 107.95458984 34.13037109 C110.37558628 36.14786813 111.77158414 38.21835705 112.95458984 41.13037109 C112.95458984 42.12037109 112.95458984 43.11037109 112.95458984 44.13037109 C113.61458984 44.13037109 114.27458984 44.13037109 114.95458984 44.13037109 C115.28458984 47.10037109 115.61458984 50.07037109 115.95458984 53.13037109 C116.61458984 53.13037109 117.27458984 53.13037109 117.95458984 53.13037109 C118.28458984 56.43037109 118.61458984 59.73037109 118.95458984 63.13037109 C119.61458984 63.13037109 120.27458984 63.13037109 120.95458984 63.13037109 C120.95458984 69.73037109 120.95458984 76.33037109 120.95458984 83.13037109 C120.29458984 83.13037109 119.63458984 83.13037109 118.95458984 83.13037109 C118.98552734 84.70818359 118.98552734 84.70818359 119.01708984 86.31787109 C118.96562183 89.45742013 118.68941797 92.09920505 117.95458984 95.13037109 C117.29458984 95.13037109 116.63458984 95.13037109 115.95458984 95.13037109 C115.62458984 97.44037109 115.29458984 99.75037109 114.95458984 102.13037109 C114.29458984 102.13037109 113.63458984 102.13037109 112.95458984 102.13037109 C112.81021484 103.07912109 112.66583984 104.02787109 112.51708984 105.00537109 C111.95458984 108.13037109 111.95458984 108.13037109 110.95458984 110.13037109 C110.29458984 110.13037109 109.63458984 110.13037109 108.95458984 110.13037109 C108.62458984 111.45037109 108.29458984 112.77037109 107.95458984 114.13037109 C107.29458984 114.13037109 106.63458984 114.13037109 105.95458984 114.13037109 C105.79990234 115.08943359 105.79990234 115.08943359 105.64208984 116.06787109 C105.30177734 117.08880859 105.30177734 117.08880859 104.95458984 118.13037109 C103.96458984 118.46037109 102.97458984 118.79037109 101.95458984 119.13037109 C101.62458984 120.12037109 101.29458984 121.11037109 100.95458984 122.13037109 C100.29458984 122.13037109 99.63458984 122.13037109 98.95458984 122.13037109 C98.62458984 123.12037109 98.29458984 124.11037109 97.95458984 125.13037109 C97.29458984 125.13037109 96.63458984 125.13037109 95.95458984 125.13037109 C95.62458984 126.12037109 95.29458984 127.11037109 94.95458984 128.13037109 C93.96458984 128.46037109 92.97458984 128.79037109 91.95458984 129.13037109 C91.62458984 129.79037109 91.29458984 130.45037109 90.95458984 131.13037109 C88.39208984 131.75537109 88.39208984 131.75537109 85.95458984 132.13037109 C85.95458984 132.79037109 85.95458984 133.45037109 85.95458984 134.13037109 C84.30458984 134.46037109 82.65458984 134.79037109 80.95458984 135.13037109 C80.95458984 135.79037109 80.95458984 136.45037109 80.95458984 137.13037109 C77.33485582 138.44663801 74.85891853 139.13037109 70.95458984 139.13037109 C70.95458984 139.79037109 70.95458984 140.45037109 70.95458984 141.13037109 C68.97458984 141.46037109 66.99458984 141.79037109 64.95458984 142.13037109 C64.95458984 142.79037109 64.95458984 143.45037109 64.95458984 144.13037109 C61.65458984 144.46037109 58.35458984 144.79037109 54.95458984 145.13037109 C54.95458984 145.79037109 54.95458984 146.45037109 54.95458984 147.13037109 C43.48932754 149.0498171 32.58078901 149.30009663 20.95458984 149.13037109 C20.95458984 161.01037109 20.95458984 172.89037109 20.95458984 185.13037109 C2.80458984 185.13037109 -15.34541016 185.13037109 -34.04541016 185.13037109 C-34.04541016 139.59037109 -34.04541016 94.05037109 -34.04541016 47.13037109 C-38.99541016 47.13037109 -43.94541016 47.13037109 -49.04541016 47.13037109 C-49.04541016 32.61037109 -49.04541016 18.09037109 -49.04541016 3.13037109 C-47.39541016 3.13037109 -45.74541016 3.13037109 -44.04541016 3.13037109 C-44.04541016 2.47037109 -44.04541016 1.81037109 -44.04541016 1.13037109 C-29.35581596 0.32809045 -14.71119319 -0.02934564 0 0 Z " fill="#FEFDFC" transform="translate(282.04541015625,732.86962890625)"/>
<path d="M0 0 C3.67630694 0.00573367 7.3525414 0.00237949 11.02884579 -0.00357246 C13.90733877 -0.00721419 16.78581501 -0.00602367 19.66430855 -0.00344467 C21.66698887 -0.00247303 23.66966989 -0.00545768 25.67234802 -0.00857544 C33.31664373 0.01087071 40.84889944 0.35772256 48.45483398 1.13037109 C48.45483398 1.79037109 48.45483398 2.45037109 48.45483398 3.13037109 C52.41483398 3.46037109 56.37483398 3.79037109 60.45483398 4.13037109 C60.45483398 4.79037109 60.45483398 5.45037109 60.45483398 6.13037109 C61.11870117 6.19095703 61.78256836 6.25154297 62.46655273 6.31396484 C71.2369078 7.14618832 71.2369078 7.14618832 75.45483398 8.13037109 C75.45483398 8.79037109 75.45483398 9.45037109 75.45483398 10.13037109 C77.10483398 10.46037109 78.75483398 10.79037109 80.45483398 11.13037109 C80.45483398 11.79037109 80.45483398 12.45037109 80.45483398 13.13037109 C82.43483398 13.46037109 84.41483398 13.79037109 86.45483398 14.13037109 C86.45483398 14.79037109 86.45483398 15.45037109 86.45483398 16.13037109 C87.05295898 16.27474609 87.65108398 16.41912109 88.26733398 16.56787109 C90.01633803 17.01761499 91.74160421 17.5592945 93.45483398 18.13037109 C93.45483398 18.79037109 93.45483398 19.45037109 93.45483398 20.13037109 C94.77483398 20.46037109 96.09483398 20.79037109 97.45483398 21.13037109 C97.45483398 21.79037109 97.45483398 22.45037109 97.45483398 23.13037109 C98.17670898 23.33662109 98.89858398 23.54287109 99.64233398 23.75537109 C103.42701782 25.60566097 104.97742051 27.73277547 107.45483398 31.13037109 C107.45483398 31.79037109 107.45483398 32.45037109 107.45483398 33.13037109 C108.11483398 33.13037109 108.77483398 33.13037109 109.45483398 33.13037109 C109.78483398 34.45037109 110.11483398 35.77037109 110.45483398 37.13037109 C111.11483398 37.13037109 111.77483398 37.13037109 112.45483398 37.13037109 C113.91546249 39.77776026 114.45483398 41.02485444 114.45483398 44.13037109 C115.11483398 44.13037109 115.77483398 44.13037109 116.45483398 44.13037109 C116.78483398 46.77037109 117.11483398 49.41037109 117.45483398 52.13037109 C118.11483398 52.13037109 118.77483398 52.13037109 119.45483398 52.13037109 C120.48137772 58.88437713 120.60484821 65.49315699 120.57983398 72.31787109 C120.58370117 73.38457031 120.58756836 74.45126953 120.59155273 75.55029297 C120.58961914 77.09620117 120.58961914 77.09620117 120.58764648 78.67333984 C120.58651855 79.60170654 120.58539062 80.53007324 120.58422852 81.48657227 C120.45499925 84.12699447 120.04111447 86.55615147 119.45483398 89.13037109 C118.79483398 89.13037109 118.13483398 89.13037109 117.45483398 89.13037109 C117.12483398 92.10037109 116.79483398 95.07037109 116.45483398 98.13037109 C115.79483398 98.13037109 115.13483398 98.13037109 114.45483398 98.13037109 C113.79483398 101.10037109 113.13483398 104.07037109 112.45483398 107.13037109 C111.79483398 107.13037109 111.13483398 107.13037109 110.45483398 107.13037109 C110.12483398 108.45037109 109.79483398 109.77037109 109.45483398 111.13037109 C108.79483398 111.13037109 108.13483398 111.13037109 107.45483398 111.13037109 C107.30014648 112.08943359 107.30014648 112.08943359 107.14233398 113.06787109 C106.80202148 114.08880859 106.80202148 114.08880859 106.45483398 115.13037109 C105.46483398 115.46037109 104.47483398 115.79037109 103.45483398 116.13037109 C103.12483398 117.12037109 102.79483398 118.11037109 102.45483398 119.13037109 C101.79483398 119.13037109 101.13483398 119.13037109 100.45483398 119.13037109 C100.12483398 120.12037109 99.79483398 121.11037109 99.45483398 122.13037109 C98.79483398 122.13037109 98.13483398 122.13037109 97.45483398 122.13037109 C96.46483398 124.11037109 96.46483398 124.11037109 95.45483398 126.13037109 C94.46483398 126.13037109 93.47483398 126.13037109 92.45483398 126.13037109 C92.45483398 126.79037109 92.45483398 127.45037109 92.45483398 128.13037109 C90.80483398 128.46037109 89.15483398 128.79037109 87.45483398 129.13037109 C87.12483398 130.12037109 86.79483398 131.11037109 86.45483398 132.13037109 C85.46483398 132.13037109 84.47483398 132.13037109 83.45483398 132.13037109 C83.45483398 132.79037109 83.45483398 133.45037109 83.45483398 134.13037109 C80.81483398 134.79037109 78.17483398 135.45037109 75.45483398 136.13037109 C75.45483398 136.79037109 75.45483398 137.45037109 75.45483398 138.13037109 C72.48483398 138.46037109 69.51483398 138.79037109 66.45483398 139.13037109 C66.45483398 139.79037109 66.45483398 140.45037109 66.45483398 141.13037109 C63.81483398 141.46037109 61.17483398 141.79037109 58.45483398 142.13037109 C58.45483398 142.79037109 58.45483398 143.45037109 58.45483398 144.13037109 C48.35141452 146.09834149 38.70797008 146.35139678 28.45483398 146.13037109 C28.45483398 146.79037109 28.45483398 147.45037109 28.45483398 148.13037109 C26.47483398 148.13037109 24.49483398 148.13037109 22.45483398 148.13037109 C22.45483398 159.35037109 22.45483398 170.57037109 22.45483398 182.13037109 C4.63483398 182.13037109 -13.18516602 182.13037109 -31.54516602 182.13037109 C-31.54516602 136.92037109 -31.54516602 91.71037109 -31.54516602 45.13037109 C-36.16516602 45.13037109 -40.78516602 45.13037109 -45.54516602 45.13037109 C-45.54516602 35.56037109 -45.54516602 25.99037109 -45.54516602 16.13037109 C-46.20516602 16.13037109 -46.86516602 16.13037109 -47.54516602 16.13037109 C-47.54516602 11.18037109 -47.54516602 6.23037109 -47.54516602 1.13037109 C-31.69131412 0.08176987 -15.88003515 -0.02510897 0 0 Z " fill="#FEFEFD" transform="translate(637.545166015625,735.86962890625)"/>
<path d="M0 0 C0.70596313 -0.00095673 1.41192627 -0.00191345 2.13928223 -0.00289917 C3.62166433 -0.00357518 5.10404949 -0.00176162 6.58642578 0.00244141 C8.83763363 0.00779795 11.08864201 0.00247666 13.33984375 -0.00390625 C14.78906293 -0.00324537 16.238282 -0.00196399 17.6875 0 C18.98880859 0.00112793 20.29011719 0.00225586 21.63085938 0.00341797 C25.30131919 0.13133378 28.72529072 0.54396497 32.34375 1.1328125 C32.34375 1.7928125 32.34375 2.4528125 32.34375 3.1328125 C33.436875 3.1121875 34.53 3.0915625 35.65625 3.0703125 C39.34375 3.1328125 39.34375 3.1328125 42.34375 4.1328125 C42.34375 4.7928125 42.34375 5.4528125 42.34375 6.1328125 C43.05402344 6.25398437 43.76429687 6.37515625 44.49609375 6.5 C45.41519531 6.66757812 46.33429688 6.83515625 47.28125 7.0078125 C48.19777344 7.17023437 49.11429688 7.33265625 50.05859375 7.5 C51.18974609 7.81324219 51.18974609 7.81324219 52.34375 8.1328125 C52.83875 9.1228125 52.83875 9.1228125 53.34375 10.1328125 C54.33375 10.4628125 55.32375 10.7928125 56.34375 11.1328125 C56.34375 11.7928125 56.34375 12.4528125 56.34375 13.1328125 C57.66375 13.4628125 58.98375 13.7928125 60.34375 14.1328125 C60.34375 14.7928125 60.34375 15.4528125 60.34375 16.1328125 C62.32375 16.7928125 64.30375 17.4528125 66.34375 18.1328125 C66.34375 18.7928125 66.34375 19.4528125 66.34375 20.1328125 C67.82875 20.6278125 67.82875 20.6278125 69.34375 21.1328125 C71.96600892 23.04907863 72.32913152 24.0650359 73.03125 27.3203125 C73.1859375 28.7125 73.1859375 28.7125 73.34375 30.1328125 C72.35375 30.4628125 71.36375 30.7928125 70.34375 31.1328125 C69.13492904 33.13297716 69.13492904 33.13297716 68.34375 35.1328125 C67.68375 35.1328125 67.02375 35.1328125 66.34375 35.1328125 C66.01375 36.1228125 65.68375 37.1128125 65.34375 38.1328125 C64.68375 38.1328125 64.02375 38.1328125 63.34375 38.1328125 C63.01375 39.1228125 62.68375 40.1128125 62.34375 41.1328125 C61.68375 41.1328125 61.02375 41.1328125 60.34375 41.1328125 C59.68375 42.4528125 59.02375 43.7728125 58.34375 45.1328125 C57.68375 45.1328125 57.02375 45.1328125 56.34375 45.1328125 C56.281875 45.9165625 56.22 46.7003125 56.15625 47.5078125 C55.888125 48.3740625 55.62 49.2403125 55.34375 50.1328125 C53.68302151 50.81413701 52.015983 51.48023377 50.34375 52.1328125 C49.17421584 54.55664327 49.17421584 54.55664327 48.34375 57.1328125 C46.90625 58.9453125 46.90625 58.9453125 45.34375 60.1328125 C44.35375 60.1328125 43.36375 60.1328125 42.34375 60.1328125 C42.34375 59.4728125 42.34375 58.8128125 42.34375 58.1328125 C40.85875 57.6378125 40.85875 57.6378125 39.34375 57.1328125 C38.704375 56.3284375 38.065 55.5240625 37.40625 54.6953125 C35.42983065 52.23976119 34.21910256 51.26241529 31.34375 50.1328125 C31.34375 49.4728125 31.34375 48.8128125 31.34375 48.1328125 C29.36375 47.8028125 27.38375 47.4728125 25.34375 47.1328125 C25.34375 46.4728125 25.34375 45.8128125 25.34375 45.1328125 C15.67328878 43.93470226 5.97430982 43.38180162 -3.65625 45.1328125 C-4.75131492 48.41800725 -4.75585608 50.86944665 -4.71875 54.3203125 C-4.70972656 55.40699219 -4.70070313 56.49367188 -4.69140625 57.61328125 C-4.67980469 58.44472656 -4.66820312 59.27617188 -4.65625 60.1328125 C-3.33625 60.7928125 -2.01625 61.4528125 -0.65625 62.1328125 C-0.65625 62.7928125 -0.65625 63.4528125 -0.65625 64.1328125 C0.66375 64.4628125 1.98375 64.7928125 3.34375 65.1328125 C3.34375 65.7928125 3.34375 66.4528125 3.34375 67.1328125 C5.98375 67.4628125 8.62375 67.7928125 11.34375 68.1328125 C11.34375 68.7928125 11.34375 69.4528125 11.34375 70.1328125 C12.41625 70.2771875 13.48875 70.4215625 14.59375 70.5703125 C17.26037949 70.97030692 19.75774729 71.40873174 22.34375 72.1328125 C22.34375 72.7928125 22.34375 73.4528125 22.34375 74.1328125 C24.65375 74.4628125 26.96375 74.7928125 29.34375 75.1328125 C29.34375 75.7928125 29.34375 76.4528125 29.34375 77.1328125 C31.65375 77.4628125 33.96375 77.7928125 36.34375 78.1328125 C36.34375 78.7928125 36.34375 79.4528125 36.34375 80.1328125 C36.98183594 80.25398437 37.61992188 80.37515625 38.27734375 80.5 C39.10363281 80.66757812 39.92992187 80.83515625 40.78125 81.0078125 C41.60496094 81.17023438 42.42867187 81.33265625 43.27734375 81.5 C43.95925781 81.70882812 44.64117188 81.91765625 45.34375 82.1328125 C45.67375 82.7928125 46.00375 83.4528125 46.34375 84.1328125 C47.82875 84.6278125 47.82875 84.6278125 49.34375 85.1328125 C49.34375 85.7928125 49.34375 86.4528125 49.34375 87.1328125 C49.900625 87.2153125 50.4575 87.2978125 51.03125 87.3828125 C54.14263018 88.39190877 55.9750018 89.88873526 58.34375 92.1328125 C59.65625 94.8828125 59.65625 94.8828125 60.34375 97.1328125 C61.00375 97.1328125 61.66375 97.1328125 62.34375 97.1328125 C62.67375 98.4528125 63.00375 99.7728125 63.34375 101.1328125 C64.00375 101.1328125 64.66375 101.1328125 65.34375 101.1328125 C65.67375 103.1128125 66.00375 105.0928125 66.34375 107.1328125 C67.00375 107.1328125 67.66375 107.1328125 68.34375 107.1328125 C69.48139351 111.39897566 70.34375 114.69767561 70.34375 119.1328125 C71.00375 119.1328125 71.66375 119.1328125 72.34375 119.1328125 C72.34375 125.4028125 72.34375 131.6728125 72.34375 138.1328125 C71.68375 138.1328125 71.02375 138.1328125 70.34375 138.1328125 C70.28316406 138.80828125 70.22257812 139.48375 70.16015625 140.1796875 C70.07636719 141.07171875 69.99257812 141.96375 69.90625 142.8828125 C69.78443359 144.20539063 69.78443359 144.20539063 69.66015625 145.5546875 C69.38136535 147.82631702 68.95584423 149.93133073 68.34375 152.1328125 C67.68375 152.1328125 67.02375 152.1328125 66.34375 152.1328125 C66.01375 153.4528125 65.68375 154.7728125 65.34375 156.1328125 C64.68375 156.1328125 64.02375 156.1328125 63.34375 156.1328125 C63.3025 156.8546875 63.26125 157.5765625 63.21875 158.3203125 C62.1871857 161.63605488 60.61442501 162.8133221 57.89453125 164.87109375 C56.10747664 166.23181808 56.10747664 166.23181808 54.21875 168.8203125 C52.32754905 171.15279368 51.14249705 172.13970871 48.34375 173.1328125 C47.35375 173.1328125 46.36375 173.1328125 45.34375 173.1328125 C45.34375 173.7928125 45.34375 174.4528125 45.34375 175.1328125 C43.36375 175.4628125 41.38375 175.7928125 39.34375 176.1328125 C39.34375 176.7928125 39.34375 177.4528125 39.34375 178.1328125 C32.90875 179.1228125 32.90875 179.1228125 26.34375 180.1328125 C26.34375 180.7928125 26.34375 181.4528125 26.34375 182.1328125 C21.41858238 182.93372389 16.72813883 183.26126509 11.72265625 183.265625 C11.01906479 183.26658173 10.31547333 183.26753845 9.59056091 183.26852417 C8.11237498 183.26920025 6.63418598 183.26738618 5.15600586 183.26318359 C2.91578374 183.25783526 0.6757628 183.26314397 -1.56445312 183.26953125 C-3.0104171 183.26887021 -4.45638096 183.26758851 -5.90234375 183.265625 C-7.19841553 183.26449707 -8.4944873 183.26336914 -9.82983398 183.26220703 C-13.84411644 183.12645959 -17.68126915 182.68879635 -21.65625 182.1328125 C-21.65625 181.4728125 -21.65625 180.8128125 -21.65625 180.1328125 C-22.625625 180.1740625 -23.595 180.2153125 -24.59375 180.2578125 C-29.10514724 180.27630183 -33.30462652 179.23798672 -37.65625 178.1328125 C-37.65625 177.4728125 -37.65625 176.8128125 -37.65625 176.1328125 C-39.96625 175.8028125 -42.27625 175.4728125 -44.65625 175.1328125 C-44.65625 174.4728125 -44.65625 173.8128125 -44.65625 173.1328125 C-45.605 172.9884375 -46.55375 172.8440625 -47.53125 172.6953125 C-50.65625 172.1328125 -50.65625 172.1328125 -52.65625 171.1328125 C-52.65625 170.4728125 -52.65625 169.8128125 -52.65625 169.1328125 C-54.30625 168.8028125 -55.95625 168.4728125 -57.65625 168.1328125 C-58.78125 163.3828125 -58.78125 163.3828125 -57.65625 161.1328125 C-56.99625 161.1328125 -56.33625 161.1328125 -55.65625 161.1328125 C-55.32625 159.1528125 -54.99625 157.1728125 -54.65625 155.1328125 C-53.99625 155.1328125 -53.33625 155.1328125 -52.65625 155.1328125 C-51.99625 152.1628125 -51.33625 149.1928125 -50.65625 146.1328125 C-49.99625 146.1328125 -49.33625 146.1328125 -48.65625 146.1328125 C-48.32625 144.4828125 -47.99625 142.8328125 -47.65625 141.1328125 C-46.99625 141.1328125 -46.33625 141.1328125 -45.65625 141.1328125 C-45.32625 138.8228125 -44.99625 136.5128125 -44.65625 134.1328125 C-43.99625 134.1328125 -43.33625 134.1328125 -42.65625 134.1328125 C-42.16125 131.1628125 -42.16125 131.1628125 -41.65625 128.1328125 C-39.67625 128.4628125 -37.69625 128.7928125 -35.65625 129.1328125 C-35.65625 129.7928125 -35.65625 130.4528125 -35.65625 131.1328125 C-34.00625 131.4628125 -32.35625 131.7928125 -30.65625 132.1328125 C-30.65625 132.7928125 -30.65625 133.4528125 -30.65625 134.1328125 C-26.69625 134.7928125 -22.73625 135.4528125 -18.65625 136.1328125 C-18.65625 136.7928125 -18.65625 137.4528125 -18.65625 138.1328125 C-15.35625 138.4628125 -12.05625 138.7928125 -8.65625 139.1328125 C-8.65625 139.7928125 -8.65625 140.4528125 -8.65625 141.1328125 C-3.04625 141.1328125 2.56375 141.1328125 8.34375 141.1328125 C8.34375 140.4728125 8.34375 139.8128125 8.34375 139.1328125 C10.98375 138.8028125 13.62375 138.4728125 16.34375 138.1328125 C16.34375 137.4728125 16.34375 136.8128125 16.34375 136.1328125 C17.00375 136.1328125 17.66375 136.1328125 18.34375 136.1328125 C18.34375 132.8328125 18.34375 129.5328125 18.34375 126.1328125 C16.69375 125.4728125 15.04375 124.8128125 13.34375 124.1328125 C13.34375 123.4728125 13.34375 122.8128125 13.34375 122.1328125 C11.69375 121.8028125 10.04375 121.4728125 8.34375 121.1328125 C8.34375 120.4728125 8.34375 119.8128125 8.34375 119.1328125 C6.36375 118.8028125 4.38375 118.4728125 2.34375 118.1328125 C2.34375 117.4728125 2.34375 116.8128125 2.34375 116.1328125 C1.65667969 116.07222656 0.96960937 116.01164063 0.26171875 115.94921875 C-1.08986328 115.82353516 -1.08986328 115.82353516 -2.46875 115.6953125 C-3.80873047 115.57349609 -3.80873047 115.57349609 -5.17578125 115.44921875 C-7.65625 115.1328125 -7.65625 115.1328125 -10.65625 114.1328125 C-10.65625 113.4728125 -10.65625 112.8128125 -10.65625 112.1328125 C-12.96625 111.8028125 -15.27625 111.4728125 -17.65625 111.1328125 C-17.65625 110.4728125 -17.65625 109.8128125 -17.65625 109.1328125 C-18.749375 108.9884375 -19.8425 108.8440625 -20.96875 108.6953125 C-24.65625 108.1328125 -24.65625 108.1328125 -27.65625 107.1328125 C-27.65625 106.4728125 -27.65625 105.8128125 -27.65625 105.1328125 C-29.30625 104.8028125 -30.95625 104.4728125 -32.65625 104.1328125 C-32.65625 103.4728125 -32.65625 102.8128125 -32.65625 102.1328125 C-33.419375 102.0296875 -34.1825 101.9265625 -34.96875 101.8203125 C-37.87716043 101.07630053 -38.72954888 100.33475663 -40.65625 98.1328125 C-41.31625 97.8028125 -41.97625 97.4728125 -42.65625 97.1328125 C-42.65625 96.4728125 -42.65625 95.8128125 -42.65625 95.1328125 C-43.64625 94.8028125 -44.63625 94.4728125 -45.65625 94.1328125 C-45.65625 93.4728125 -45.65625 92.8128125 -45.65625 92.1328125 C-46.64625 91.8028125 -47.63625 91.4728125 -48.65625 91.1328125 C-48.65625 90.1428125 -48.65625 89.1528125 -48.65625 88.1328125 C-49.64625 87.8028125 -50.63625 87.4728125 -51.65625 87.1328125 C-52.15125 84.1628125 -52.15125 84.1628125 -52.65625 81.1328125 C-53.31625 81.1328125 -53.97625 81.1328125 -54.65625 81.1328125 C-55.15125 78.1628125 -55.15125 78.1628125 -55.65625 75.1328125 C-56.31625 75.1328125 -56.97625 75.1328125 -57.65625 75.1328125 C-58.64436388 68.561071 -58.80685292 62.1475038 -58.78125 55.5078125 C-58.78511719 54.4971875 -58.78898437 53.4865625 -58.79296875 52.4453125 C-58.78656355 47.56455366 -58.6874752 42.9288281 -57.65625 38.1328125 C-56.99625 38.1328125 -56.33625 38.1328125 -55.65625 38.1328125 C-55.32625 35.8228125 -54.99625 33.5128125 -54.65625 31.1328125 C-53.99625 31.1328125 -53.33625 31.1328125 -52.65625 31.1328125 C-52.32625 29.1528125 -51.99625 27.1728125 -51.65625 25.1328125 C-50.66625 24.8028125 -49.67625 24.4728125 -48.65625 24.1328125 C-47.92301204 22.11772892 -47.92301204 22.11772892 -47.65625 20.1328125 C-46.99625 20.1328125 -46.33625 20.1328125 -45.65625 20.1328125 C-45.32625 19.1428125 -44.99625 18.1528125 -44.65625 17.1328125 C-43.66625 16.8028125 -42.67625 16.4728125 -41.65625 16.1328125 C-41.0375 15.3078125 -40.41875 14.4828125 -39.78125 13.6328125 C-37.38489403 10.81357018 -36.2594736 10.43308113 -32.65625 10.1328125 C-32.65625 9.4728125 -32.65625 8.8128125 -32.65625 8.1328125 C-29.68625 7.4728125 -26.71625 6.8128125 -23.65625 6.1328125 C-23.65625 5.4728125 -23.65625 4.8128125 -23.65625 4.1328125 C-19.20125 3.6378125 -19.20125 3.6378125 -14.65625 3.1328125 C-14.65625 2.4728125 -14.65625 1.8128125 -14.65625 1.1328125 C-9.71945762 0.32942693 -5.01743164 0.00434894 0 0 Z " fill="#FEFDFC" transform="translate(1324.65625,735.8671875)"/>
<path d="M0 0 C19.8 0 39.6 0 60 0 C59.67 1.65 59.34 3.3 59 5 C58.34 5 57.68 5 57 5 C56.67 6.65 56.34 8.3 56 10 C55.34 10 54.68 10 54 10 C53.855625 10.763125 53.71125 11.52625 53.5625 12.3125 C53 15 53 15 52 18 C51.34 18 50.68 18 50 18 C49.67 19.98 49.34 21.96 49 24 C48.34 24 47.68 24 47 24 C46.67 25.65 46.34 27.3 46 29 C45.34 29 44.68 29 44 29 C43.855625 29.94875 43.71125 30.8975 43.5625 31.875 C43 35 43 35 42 37 C41.34 37 40.68 37 40 37 C39.67 38.65 39.34 40.3 39 42 C38.34 42 37.68 42 37 42 C36.67 43.98 36.34 45.96 36 48 C35.34 48 34.68 48 34 48 C33.7834375 49.423125 33.7834375 49.423125 33.5625 50.875 C33 54 33 54 32 56 C31.34 56 30.68 56 30 56 C29.67 57.98 29.34 59.96 29 62 C28.34 62 27.68 62 27 62 C26.67 63.32 26.34 64.64 26 66 C25.34 66 24.68 66 24 66 C23.34 68.97 22.68 71.94 22 75 C21.34 75 20.68 75 20 75 C19.67 76.98 19.34 78.96 19 81 C18.34 81 17.68 81 17 81 C16.34 83.64 15.68 86.28 15 89 C14.34 89 13.68 89 13 89 C12.67 90.32 12.34 91.64 12 93 C11.34 93 10.68 93 10 93 C9.67 94.98 9.34 96.96 9 99 C8.34 99 7.68 99 7 99 C6.34 101.97 5.68 104.94 5 108 C4.34 108 3.68 108 3 108 C2.67 109.65 2.34 111.3 2 113 C1.34 113 0.68 113 0 113 C-0.185625 114.4540625 -0.185625 114.4540625 -0.375 115.9375 C-0.58125 116.948125 -0.7875 117.95875 -1 119 C-1.99 119.495 -1.99 119.495 -3 120 C-3.72693904 121.97888961 -4.39816251 123.97954558 -5 126 C-5.66 126 -6.32 126 -7 126 C-7 142.5 -7 159 -7 176 C-25.81 176 -44.62 176 -64 176 C-64.33 158.51 -64.66 141.02 -65 123 C-65.66 123 -66.32 123 -67 123 C-68.25664978 120.09399739 -69 118.20395416 -69 115 C-69.66 115 -70.32 115 -71 115 C-71.33 113.02 -71.66 111.04 -72 109 C-72.66 109 -73.32 109 -74 109 C-74.33 107.02 -74.66 105.04 -75 103 C-75.66 103 -76.32 103 -77 103 C-78.25664978 100.09399739 -79 98.20395416 -79 95 C-79.66 95 -80.32 95 -81 95 C-81.33 93.02 -81.66 91.04 -82 89 C-82.66 89 -83.32 89 -84 89 C-84.66 86.36 -85.32 83.72 -86 81 C-86.66 81 -87.32 81 -88 81 C-88.33 79.02 -88.66 77.04 -89 75 C-89.66 75 -90.32 75 -91 75 C-91.33 73.02 -91.66 71.04 -92 69 C-92.66 69 -93.32 69 -94 69 C-95.25664978 66.09399739 -96 64.20395416 -96 61 C-96.66 61 -97.32 61 -98 61 C-98.33 59.02 -98.66 57.04 -99 55 C-99.66 55 -100.32 55 -101 55 C-101.33 53.02 -101.66 51.04 -102 49 C-102.66 49 -103.32 49 -104 49 C-105.25664978 46.09399739 -106 44.20395416 -106 41 C-106.66 41 -107.32 41 -108 41 C-108.33 40.01 -108.66 39.02 -109 38 C-109.66 37.67 -110.32 37.34 -111 37 C-111.6328125 34.93359375 -111.6328125 34.93359375 -112.125 32.4375 C-112.29257812 31.61121094 -112.46015625 30.78492188 -112.6328125 29.93359375 C-112.75398437 29.29550781 -112.87515625 28.65742187 -113 28 C-113.66 28 -114.32 28 -115 28 C-115.33 26.02 -115.66 24.04 -116 22 C-116.66 22 -117.32 22 -118 22 C-118.12375 21.360625 -118.2475 20.72125 -118.375 20.0625 C-118.58125 19.381875 -118.7875 18.70125 -119 18 C-119.66 17.67 -120.32 17.34 -121 17 C-121.6328125 14.93359375 -121.6328125 14.93359375 -122.125 12.4375 C-122.29257812 11.61121094 -122.46015625 10.78492188 -122.6328125 9.93359375 C-122.75398437 9.29550781 -122.87515625 8.65742187 -123 8 C-123.66 8 -124.32 8 -125 8 C-125.33 5.69 -125.66 3.38 -126 1 C-106.53 1 -87.06 1 -67 1 C-67 1.99 -67 2.98 -67 4 C-66.34 4 -65.68 4 -65 4 C-64.505 7.465 -64.505 7.465 -64 11 C-63.34 11 -62.68 11 -62 11 C-61.505 14.465 -61.505 14.465 -61 18 C-60.34 18 -59.68 18 -59 18 C-58.01 22.95 -58.01 22.95 -57 28 C-56.34 28 -55.68 28 -55 28 C-54.505 30.97 -54.505 30.97 -54 34 C-53.34 34 -52.68 34 -52 34 C-51.505 36.475 -51.505 36.475 -51 39 C-50.34 39 -49.68 39 -49 39 C-48.01 43.95 -48.01 43.95 -47 49 C-46.34 49 -45.68 49 -45 49 C-44.505 52.465 -44.505 52.465 -44 56 C-43.34 56 -42.68 56 -42 56 C-41.01 60.455 -41.01 60.455 -40 65 C-39.34 65 -38.68 65 -38 65 C-37.505 68.465 -37.505 68.465 -37 72 C-35.35 71.67 -33.7 71.34 -32 71 C-31.34 68.03 -30.68 65.06 -30 62 C-29.34 62 -28.68 62 -28 62 C-27.67 59.69 -27.34 57.38 -27 55 C-26.34 55 -25.68 55 -25 55 C-24.67 53.02 -24.34 51.04 -24 49 C-23.34 49 -22.68 49 -22 49 C-21.34 45.7 -20.68 42.4 -20 39 C-19.34 39 -18.68 39 -18 39 C-17.67 37.35 -17.34 35.7 -17 34 C-16.34 34 -15.68 34 -15 34 C-14.67 31.69 -14.34 29.38 -14 27 C-13.34 27 -12.68 27 -12 27 C-11.01 22.545 -11.01 22.545 -10 18 C-9.34 18 -8.68 18 -8 18 C-7.67 16.02 -7.34 14.04 -7 12 C-6.34 12 -5.68 12 -5 12 C-4.34 9.36 -3.68 6.72 -3 4 C-2.34 4 -1.68 4 -1 4 C-0.67 2.68 -0.34 1.36 0 0 Z " fill="#FEFDFC" transform="translate(1048,742)"/>
<path d="M0 0 C0.94617188 -0.00773438 1.89234375 -0.01546875 2.8671875 -0.0234375 C8.58797561 -0.00759044 13.51392426 0.61970391 19 2.25 C19 2.91 19 3.57 19 4.25 C20.32 4.58 21.64 4.91 23 5.25 C23 5.91 23 6.57 23 7.25 C23.99 7.58 24.98 7.91 26 8.25 C26 8.91 26 9.57 26 10.25 C27.175625 10.6521875 27.175625 10.6521875 28.375 11.0625 C31 12.25 31 12.25 33 15.25 C33 16.24 33 17.23 33 18.25 C33.66 18.25 34.32 18.25 35 18.25 C35.495 21.22 35.495 21.22 36 24.25 C36.66 24.25 37.32 24.25 38 24.25 C38.495 28.21 38.495 28.21 39 32.25 C39.66 32.25 40.32 32.25 41 32.25 C41 37.53 41 42.81 41 48.25 C40.34 48.25 39.68 48.25 39 48.25 C39.020625 49.3225 39.04125 50.395 39.0625 51.5 C39.0142016 54.39790424 38.86844115 56.53612141 38 59.25 C37.34 59.25 36.68 59.25 36 59.25 C35.814375 60.7040625 35.814375 60.7040625 35.625 62.1875 C35.315625 63.7034375 35.315625 63.7034375 35 65.25 C34.01 65.745 34.01 65.745 33 66.25 C32.7525 66.9925 32.505 67.735 32.25 68.5 C30.51004997 72.32789007 28.41876257 73.80802674 25 76.25 C24.01 76.25 23.02 76.25 22 76.25 C21.505 77.735 21.505 77.735 21 79.25 C20.01 79.25 19.02 79.25 18 79.25 C18 79.91 18 80.57 18 81.25 C13.545 81.745 13.545 81.745 9 82.25 C9 82.91 9 83.57 9 84.25 C3.39 84.25 -2.22 84.25 -8 84.25 C-8 83.59 -8 82.93 -8 82.25 C-9.093125 82.270625 -10.18625 82.29125 -11.3125 82.3125 C-15 82.25 -15 82.25 -18 81.25 C-18 80.59 -18 79.93 -18 79.25 C-19.32 78.92 -20.64 78.59 -22 78.25 C-22 77.59 -22 76.93 -22 76.25 C-22.556875 76.1675 -23.11375 76.085 -23.6875 76 C-26.79888018 74.99090373 -28.6312518 73.49407724 -31 71.25 C-32.1875 68.5625 -32.1875 68.5625 -33 66.25 C-33.66 65.92 -34.32 65.59 -35 65.25 C-35.40729228 62.92843403 -35.74438677 60.5931213 -36 58.25 C-36.66 58.25 -37.32 58.25 -38 58.25 C-38.33 55.28 -38.66 52.31 -39 49.25 C-39.66 49.25 -40.32 49.25 -41 49.25 C-41 43.64 -41 38.03 -41 32.25 C-40.34 32.25 -39.68 32.25 -39 32.25 C-38.67 29.61 -38.34 26.97 -38 24.25 C-37.34 24.25 -36.68 24.25 -36 24.25 C-35.67 22.27 -35.34 20.29 -35 18.25 C-34.34 18.25 -33.68 18.25 -33 18.25 C-32.9175 17.6725 -32.835 17.095 -32.75 16.5 C-31.78202213 13.5960664 -30.31305716 12.21259396 -28 10.25 C-27.34 10.25 -26.68 10.25 -26 10.25 C-25.67 9.26 -25.34 8.27 -25 7.25 C-24.34 7.25 -23.68 7.25 -23 7.25 C-23 6.59 -23 5.93 -23 5.25 C-21.68 4.92 -20.36 4.59 -19 4.25 C-19 3.59 -19 2.93 -19 2.25 C-12.55534396 0.33484278 -6.70342223 -0.05479637 0 0 Z " fill="#FE7E03" transform="translate(500,785.75)"/>
<path d="M0 0 C6.77354143 0 12.46861401 0.01413042 19 1 C19 1.66 19 2.32 19 3 C21.64 3.33 24.28 3.66 27 4 C27 4.66 27 5.32 27 6 C29.97 6.495 29.97 6.495 33 7 C33.495 8.485 33.495 8.485 34 10 C34.99 10.33 35.98 10.66 37 11 C39.62225892 12.91626613 39.98538152 13.9322234 40.6875 17.1875 C40.8421875 18.5796875 40.8421875 18.5796875 41 20 C41.66 20 42.32 20 43 20 C43 25.61 43 31.22 43 37 C42.34 37 41.68 37 41 37 C40.67 39.31 40.34 41.62 40 44 C39.34 44 38.68 44 38 44 C37.896875 44.598125 37.79375 45.19625 37.6875 45.8125 C36.89496146 48.33421352 36.08408591 49.39685699 34 51 C33.01 51 32.02 51 31 51 C30.67 51.99 30.34 52.98 30 54 C27.03 54.495 27.03 54.495 24 55 C24 55.66 24 56.32 24 57 C19.05 57.495 19.05 57.495 14 58 C14 58.66 14 59.32 14 60 C9.38 60 4.76 60 0 60 C0 40.2 0 20.4 0 0 Z " fill="#FE7E02" transform="translate(303,780)"/>
<path d="M0 0 C3.3 0 6.6 0 10 0 C10 0.66 10 1.32 10 2 C10.90492188 1.98259766 10.90492188 1.98259766 11.828125 1.96484375 C13.02695312 1.95130859 13.02695312 1.95130859 14.25 1.9375 C15.43335938 1.92009766 15.43335938 1.92009766 16.640625 1.90234375 C18.90691002 1.99614694 20.8288895 2.36758937 23 3 C23 3.66 23 4.32 23 5 C25.31 5.33 27.62 5.66 30 6 C30.33 6.99 30.66 7.98 31 9 C31.78375 9.061875 32.5675 9.12375 33.375 9.1875 C34.24125 9.455625 35.1075 9.72375 36 10 C37.3125 12.5625 37.3125 12.5625 38 15 C38.66 15 39.32 15 40 15 C40.495 18.465 40.495 18.465 41 22 C41.66 22 42.32 22 43 22 C43 26.95 43 31.9 43 37 C42.34 37 41.68 37 41 37 C41 38.65 41 40.3 41 42 C40.01 42.33 39.02 42.66 38 43 C37.855625 43.5775 37.71125 44.155 37.5625 44.75 C36.7685413 47.9258348 35.23664935 49.63909235 33 52 C29.616593 53.77628868 27.91065931 54 24 54 C24 54.66 24 55.32 24 56 C20.535 56.495 20.535 56.495 17 57 C17 57.66 17 58.32 17 59 C11.11376326 59.85617989 6.12321914 60 0 60 C0 40.2 0 20.4 0 0 Z " fill="#FE7E03" transform="translate(660,781)"/>
<path d="M0 0 C0.69931641 0.00386719 1.39863281 0.00773438 2.11914062 0.01171875 C7.08045841 0.09494682 11.37076191 0.6860873 16.0625 2.25 C16.0625 2.91 16.0625 3.57 16.0625 4.25 C17.3825 4.58 18.7025 4.91 20.0625 5.25 C20.0625 5.91 20.0625 6.57 20.0625 7.25 C20.84625 7.518125 21.63 7.78625 22.4375 8.0625 C25.0625 9.25 25.0625 9.25 27.0625 12.25 C27.0625 13.24 27.0625 14.23 27.0625 15.25 C27.7225 15.25 28.3825 15.25 29.0625 15.25 C29.5575 18.22 29.5575 18.22 30.0625 21.25 C30.7225 21.25 31.3825 21.25 32.0625 21.25 C32.0625 23.89 32.0625 26.53 32.0625 29.25 C10.2825 29.25 -11.4975 29.25 -33.9375 29.25 C-33.9375 27.93 -33.9375 26.61 -33.9375 25.25 C-33.2775 25.25 -32.6175 25.25 -31.9375 25.25 C-31.6075 22.94 -31.2775 20.63 -30.9375 18.25 C-30.2775 18.25 -29.6175 18.25 -28.9375 18.25 C-28.7209375 17.3528125 -28.7209375 17.3528125 -28.5 16.4375 C-28.0502561 14.68849596 -27.50857659 12.96322977 -26.9375 11.25 C-26.2775 11.25 -25.6175 11.25 -24.9375 11.25 C-24.6075 10.26 -24.2775 9.27 -23.9375 8.25 C-22.2875 7.92 -20.6375 7.59 -18.9375 7.25 C-18.6075 6.26 -18.2775 5.27 -17.9375 4.25 C-16.9475 4.25 -15.9575 4.25 -14.9375 4.25 C-14.9375 3.59 -14.9375 2.93 -14.9375 2.25 C-9.87863173 0.59221742 -5.34229222 -0.07170862 0 0 Z " fill="#FE7E02" transform="translate(852.9375,778.75)"/>
<path d="M0 0 C0 0.66 0 1.32 0 2 C1.32 2.33 2.64 2.66 4 3 C4 3.66 4 4.32 4 5 C4.928125 5.2165625 4.928125 5.2165625 5.875 5.4375 C8 6 8 6 10 7 C10.625 9.5625 10.625 9.5625 11 12 C11.66 12 12.32 12 13 12 C13.495 14.475 13.495 14.475 14 17 C14.66 17 15.32 17 16 17 C16 20.3 16 23.6 16 27 C-5.78 27 -27.56 27 -50 27 C-49.34 26.67 -48.68 26.34 -48 26 C-47.57038779 23.94068468 -47.57038779 23.94068468 -47.4375 21.5625 C-47.09333333 17.18666667 -47.09333333 17.18666667 -46 15 C-45.34 15 -44.68 15 -44 15 C-43.95875 14.278125 -43.9175 13.55625 -43.875 12.8125 C-42.64472305 8.85803837 -40.24475899 7.46601683 -37 5 C-36.1646875 4.1028125 -36.1646875 4.1028125 -35.3125 3.1875 C-34 2 -34 2 -31 2 C-31 1.34 -31 0.68 -31 0 C-21.13831459 -3.75683254 -10.03590471 -2.58991089 0 0 Z " fill="#FE7E02" transform="translate(1192,781)"/>
<path d="M0 0 C0.7528125 -0.00515625 1.505625 -0.0103125 2.28125 -0.015625 C4.7296721 0.27749596 6.37304054 1.03183231 8.5 2.25 C8.5 2.91 8.5 3.57 8.5 4.25 C9.16 4.25 9.82 4.25 10.5 4.25 C11.39214652 6.92643957 11.63540211 8.50384378 11.625 11.25 C11.62886719 12.2709375 11.62886719 12.2709375 11.6328125 13.3125 C11.44948472 15.98692875 10.86218807 17.82195956 9.125 19.875 C6.26622345 22.29396477 3.52416485 22.38681768 -0.0625 22.375 C-0.84753906 22.37757813 -1.63257813 22.38015625 -2.44140625 22.3828125 C-4.5 22.25 -4.5 22.25 -6.5 21.25 C-6.5 20.59 -6.5 19.93 -6.5 19.25 C-7.16 19.25 -7.82 19.25 -8.5 19.25 C-8.83 17.93 -9.16 16.61 -9.5 15.25 C-10.16 15.25 -10.82 15.25 -11.5 15.25 C-11.5 12.61 -11.5 9.97 -11.5 7.25 C-10.84 7.25 -10.18 7.25 -9.5 7.25 C-9.4175 6.46625 -9.335 5.6825 -9.25 4.875 C-8.5 2.25 -8.5 2.25 -6.734375 1.1015625 C-4.32834594 0.1845794 -2.56580663 -0.01757402 0 0 Z " fill="#FEDCBA" transform="translate(1406.5,896.75)"/>
<path d="M0 0 C38.61 0 77.22 0 117 0 C117 0.66 117 1.32 117 2 C79.05 2 41.1 2 2 2 C2 2.99 2 3.98 2 5 C1.34 5 0.68 5 0 5 C0 3.35 0 1.7 0 0 Z " fill="#FEAE60" transform="translate(819,845)"/>
<path d="M0 0 C0.66 0.33 1.32 0.66 2 1 C2 1.66 2 2.32 2 3 C2.66 3 3.32 3 4 3 C4.89214652 5.67643957 5.13540211 7.25384378 5.125 10 C5.12886719 11.0209375 5.12886719 11.0209375 5.1328125 12.0625 C5 14 5 14 4 17 C1.47524538 18.26237731 -0.31200466 18.09856404 -3.125 18.0625 C-4.03507812 18.05347656 -4.94515625 18.04445313 -5.8828125 18.03515625 C-6.93082031 18.01775391 -6.93082031 18.01775391 -8 18 C-7.01 17.67 -6.02 17.34 -5 17 C-5 15.02 -5 13.04 -5 11 C-4.34 11 -3.68 11 -3 11 C-2.67 12.65 -2.34 14.3 -2 16 C-1.34 16 -0.68 16 0 16 C0 14.02 0 12.04 0 10 C0.66 10 1.32 10 2 10 C1.34 8.02 0.68 6.04 0 4 C-2.64 4 -5.28 4 -8 4 C-8.33 8.29 -8.66 12.58 -9 17 C-9.33 16.01 -9.66 15.02 -10 14 C-10.66 14 -11.32 14 -12 14 C-12.08121924 12.39667209 -12.13929134 10.79215974 -12.1875 9.1875 C-12.22230469 8.29417969 -12.25710938 7.40085937 -12.29296875 6.48046875 C-12 4 -12 4 -10.67578125 2.23828125 C-7.27900238 -0.27169288 -4.07080018 -0.17322554 0 0 Z " fill="#FE840F" transform="translate(1410,898)"/>
<path d="M0 0 C0.94552734 0.16242187 0.94552734 0.16242187 1.91015625 0.328125 C3.91015625 3.328125 3.91015625 3.328125 3.91015625 7.328125 C3.25015625 7.328125 2.59015625 7.328125 1.91015625 7.328125 C2.24015625 9.638125 2.57015625 11.948125 2.91015625 14.328125 C1.92015625 13.998125 0.93015625 13.668125 -0.08984375 13.328125 C-0.41984375 11.678125 -0.74984375 10.028125 -1.08984375 8.328125 C-1.74984375 8.328125 -2.40984375 8.328125 -3.08984375 8.328125 C-3.08984375 10.308125 -3.08984375 12.288125 -3.08984375 14.328125 C-4.40984375 14.658125 -5.72984375 14.988125 -7.08984375 15.328125 C-7.11669787 13.01568708 -7.13617216 10.7031623 -7.15234375 8.390625 C-7.16394531 7.10285156 -7.17554688 5.81507813 -7.1875 4.48828125 C-7.02038517 -0.91955467 -4.91579686 0.17843183 0 0 Z " fill="#FECC9C" transform="translate(1408.08984375,900.671875)"/>
<path d="M0 0 C0.7528125 -0.00515625 1.505625 -0.0103125 2.28125 -0.015625 C4.7296721 0.27749596 6.37304054 1.03183231 8.5 2.25 C8.5 2.91 8.5 3.57 8.5 4.25 C9.16 4.25 9.82 4.25 10.5 4.25 C11.79721449 8.14164348 11.63033993 11.14429226 11.5 15.25 C11.17 15.91 10.84 16.57 10.5 17.25 C9.84 17.25 9.18 17.25 8.5 17.25 C8.005 10.815 8.005 10.815 7.5 4.25 C6.84 4.25 6.18 4.25 5.5 4.25 C5.5 3.59 5.5 2.93 5.5 2.25 C1.87 2.25 -1.76 2.25 -5.5 2.25 C-5.83 3.24 -6.16 4.23 -6.5 5.25 C-7.16 5.25 -7.82 5.25 -8.5 5.25 C-8.83 6.24 -9.16 7.23 -9.5 8.25 C-9.25 5.375 -9.25 5.375 -8.5 2.25 C-5.67644425 0.36346496 -3.35547564 -0.02298271 0 0 Z " fill="#FEDFC1" transform="translate(1406.5,896.75)"/>
<path d="M0 0 C1.27875 -0.061875 2.5575 -0.12375 3.875 -0.1875 C4.95394531 -0.23970703 4.95394531 -0.23970703 6.0546875 -0.29296875 C6.69664063 -0.19628906 7.33859375 -0.09960938 8 0 C10 3 10 3 10 7 C8.68 6.67 7.36 6.34 6 6 C6.66 6 7.32 6 8 6 C8 5.01 8 4.02 8 3 C6.02 3 4.04 3 2 3 C2 6.3 2 9.6 2 13 C1.34 13 0.68 13 0 13 C0 8.71 0 4.42 0 0 Z " fill="#FEE7CF" transform="translate(1402,901)"/>
<path d="M0 0 C0.33 0.66 0.66 1.32 1 2 C1.66 2.33 2.32 2.66 3 3 C0.94766315 5.2477975 -0.00667261 6.0022242 -3 7 C-4.56118428 7.06740865 -6.1250252 7.08514456 -7.6875 7.0625 C-8.89986328 7.04896484 -8.89986328 7.04896484 -10.13671875 7.03515625 C-11.05904297 7.01775391 -11.05904297 7.01775391 -12 7 C-11.34 6.67 -10.68 6.34 -10 6 C-10 5.34 -10 4.68 -10 4 C-6.7 3.67 -3.4 3.34 0 3 C0 2.01 0 1.02 0 0 Z " fill="#FEC996" transform="translate(1414,912)"/>
<path d="M0 0 C0.76441406 0.00644531 1.52882813 0.01289062 2.31640625 0.01953125 C4.4375 0.1875 4.4375 0.1875 7.4375 1.1875 C7.4375 2.1775 7.4375 3.1675 7.4375 4.1875 C6.7775 4.1875 6.1175 4.1875 5.4375 4.1875 C5.4375 3.5275 5.4375 2.8675 5.4375 2.1875 C1.8075 2.1875 -1.8225 2.1875 -5.5625 2.1875 C-5.8925 3.1775 -6.2225 4.1675 -6.5625 5.1875 C-7.2225 5.1875 -7.8825 5.1875 -8.5625 5.1875 C-8.8925 6.1775 -9.2225 7.1675 -9.5625 8.1875 C-9.3125 5.3125 -9.3125 5.3125 -8.5625 2.1875 C-5.7063766 0.26864104 -3.39497533 -0.06318905 0 0 Z " fill="#FEE5CD" transform="translate(1406.5625,896.8125)"/>
<path d="M0 0 C0.66 0 1.32 0 2 0 C2.33 1.65 2.66 3.3 3 5 C4.98 5 6.96 5 9 5 C7 7 7 7 4.6171875 7.1953125 C3.71226563 7.17210937 2.80734375 7.14890625 1.875 7.125 C0.50988281 7.09792969 0.50988281 7.09792969 -0.8828125 7.0703125 C-1.58148437 7.04710937 -2.28015625 7.02390625 -3 7 C-2.01 6.67 -1.02 6.34 0 6 C0 4.02 0 2.04 0 0 Z " fill="#FE8511" transform="translate(1405,909)"/>
<path d="M0 0 C0.99 0 1.98 0 3 0 C2.67 3.96 2.34 7.92 2 12 C1.34 12 0.68 12 0 12 C0 8.04 0 4.08 0 0 Z " fill="#FFFEFD" transform="translate(1402,902)"/>
<path d="M0 0 C1.98 0 3.96 0 6 0 C6 0.99 6 1.98 6 3 C4.02 3 2.04 3 0 3 C0 2.01 0 1.02 0 0 Z " fill="#FE9025" transform="translate(1404,904)"/>
</svg>
