<?xml version="1.0" encoding="UTF-8"?>
<svg version="1.1" xmlns="http://www.w3.org/2000/svg" width="225" height="225">
<path d="M0 0 C74.25 0 148.5 0 225 0 C225 74.25 225 148.5 225 225 C150.75 225 76.5 225 0 225 C0 150.75 0 76.5 0 0 Z " fill="#FF8000" transform="translate(0,0)"/>
<path d="M0 0 C3.0626614 1.59643348 5.47915598 3.6551492 8 6 C8.59683594 6.55300781 9.19367188 7.10601562 9.80859375 7.67578125 C13.46151618 11.21480409 16.77420838 15.01531042 20.08984375 18.8671875 C23.55922673 22.74097708 27.28633589 26.36212495 31 30 C31.226875 28.96875 31.45375 27.9375 31.6875 26.875 C32.88624279 22.63196797 34.97644679 20.17473087 38 17 C41.71492147 15.14253927 45.94563892 15.5578193 50 16 C55.05756161 18.39084731 56.94796286 20.87795723 59 26 C59.43644476 29.02150564 59.46799992 32.00512838 59.46875 35.0546875 C59.48017029 36.34525558 59.48017029 36.34525558 59.49182129 37.66189575 C59.50258876 39.47557689 59.50548907 41.28931986 59.50097656 43.10302734 C59.50000524 45.86011517 59.54164153 48.61440782 59.5859375 51.37109375 C59.59114617 53.14061925 59.59383267 54.91015434 59.59375 56.6796875 C59.61014526 57.49452606 59.62654053 58.30936462 59.64343262 59.14889526 C59.57270717 65.08378576 58.03338968 69.54179066 54 74 C49.43030832 76.69268194 45.17546251 76.91023129 40 76 C38.04162598 74.71470642 38.04162598 74.71470642 36.21289062 72.99975586 C35.52654541 72.36246552 34.8402002 71.72517517 34.13305664 71.068573 C33.42914795 70.38594391 32.72523926 69.70331482 32 69 C31.30962646 68.33308136 30.61925293 67.66616272 29.90795898 66.97903442 C27.70191793 64.81714847 25.52027785 62.63298931 23.34375 60.44140625 C22.16214294 59.25767677 22.16214294 59.25767677 20.95666504 58.05003357 C18.46872898 55.55654988 15.98431376 53.05959216 13.5 50.5625 C11.8023159 48.85979413 10.10440142 47.15731793 8.40625 45.45507812 C4.2681672 41.30603588 0.13296065 37.15414424 -4 33 C-9.45722303 37.54551726 -14.49585196 42.37774668 -19.48828125 47.42578125 C-20.27269089 48.21397751 -21.05710052 49.00217377 -21.86528015 49.81425476 C-24.35013689 52.31124868 -26.83170881 54.81146729 -29.3125 57.3125 C-32.59741658 60.62393585 -35.88557876 63.93209834 -39.17578125 67.23828125 C-39.93095535 68.00175369 -40.68612946 68.76522614 -41.46418762 69.55183411 C-42.51119087 70.60379219 -42.51119087 70.60379219 -43.5793457 71.67700195 C-44.50031792 72.60582939 -44.50031792 72.60582939 -45.43989563 73.55342102 C-48.92949136 76.78908648 -52.6779688 76.3894223 -57.23046875 76.34765625 C-61.62066745 75.79655937 -63.12122472 74.32166378 -66 71 C-68.31598535 67.37497945 -68.48520024 63.73491973 -67.83831787 59.55763245 C-66.80522668 56.4057641 -65.33535589 54.77235903 -63.07128906 52.35522461 C-62.25623901 51.48155243 -61.44118896 50.60788025 -60.60144043 49.70773315 C-56.33253623 45.26440503 -52.02619512 40.86360851 -47.671875 36.50390625 C-46.71015679 35.53896305 -45.74850867 34.57395 -44.78692627 33.60887146 C-42.79199337 31.60801509 -40.79507093 29.60916968 -38.796875 27.61157227 C-36.24437865 25.0591784 -33.69888712 22.49991609 -31.15501022 19.93893528 C-29.18011471 17.9529101 -27.20067959 15.97145777 -25.21994781 13.99125481 C-23.82494812 12.5945144 -22.43448902 11.19324376 -21.04412842 9.79188538 C-20.19264221 8.9434758 -19.34115601 8.09506622 -18.46386719 7.22094727 C-17.72046082 6.47611588 -16.97705444 5.73128448 -16.21112061 4.96388245 C-11.1118671 0.43480591 -6.73750548 -1.37684367 0 0 Z " fill="#FFFDFC" transform="translate(117,42)"/>
<path d="M0 0 C1.02511688 -0.00540298 2.05023376 -0.01080597 3.10641479 -0.01637268 C6.4866037 -0.02885456 9.86594001 -0.01237176 13.24609375 0.00561523 C15.59969121 0.00546023 17.95328893 0.0039711 20.30688477 0.00120544 C25.23628034 -0.00017832 30.16538487 0.01237613 35.09472656 0.03515625 C41.40984265 0.06354039 47.72447521 0.06080304 54.03962708 0.04806614 C58.89868288 0.04110757 63.75762714 0.04890037 68.6166687 0.06132317 C70.94505383 0.0658359 73.27345095 0.06617602 75.60183716 0.06225777 C78.85720318 0.0593439 82.1119054 0.07586184 85.3671875 0.09765625 C86.80745804 0.09090378 86.80745804 0.09090378 88.27682495 0.08401489 C94.73576156 0.15577599 99.14562207 1.10092497 103.99609375 5.68920898 C106.16349603 9.30154611 106.89013306 12.2965687 106.68359375 16.50170898 C104.82704345 21.86507651 101.73860486 24.97420343 96.68359375 27.50170898 C95.25523349 27.60608586 93.82220499 27.64981082 92.39009094 27.66233826 C91.4887291 27.67238388 90.58736725 27.6824295 89.65869141 27.69277954 C88.17115356 27.70152603 88.17115356 27.70152603 86.65356445 27.71044922 C85.61113083 27.720233 84.5686972 27.73001678 83.49467468 27.74009705 C80.0329212 27.77009563 76.5712065 27.79144994 73.109375 27.81030273 C71.33795671 27.82016047 71.33795671 27.82016047 69.53075218 27.83021736 C63.27873304 27.86283197 57.02673109 27.88727663 50.7746582 27.90673828 C45.59764823 27.92454993 40.42118309 27.95936612 35.24438477 28.00927734 C28.99801813 28.0694354 22.7521567 28.10020865 16.50551414 28.10991096 C14.12486079 28.11847512 11.74422127 28.13731657 9.36373329 28.16665459 C6.02875518 28.20553977 2.69574647 28.2066066 -0.6394043 28.19873047 C-2.11176041 28.22873138 -2.11176041 28.22873138 -3.61386108 28.25933838 C-9.46328108 28.19740315 -12.69123964 27.24499346 -16.9652071 23.18032932 C-20.27082255 19.07370053 -20.86098264 15.76594745 -20.31640625 10.50170898 C-15.67362869 1.39472223 -9.44827574 -0.09513383 0 0 Z " fill="#FFFCFB" transform="translate(69.31640625,145.498291015625)"/>
</svg>
