<?xml version="1.0" encoding="UTF-8"?>
<svg version="1.1" xmlns="http://www.w3.org/2000/svg" width="512" height="512">
<path d="M0 0 C0.52658203 0.43779785 1.05316406 0.8755957 1.59570312 1.32666016 C12.5408414 10.44246726 22.89886735 20.00126277 32 31 C32.42893555 31.5151416 32.85787109 32.0302832 33.29980469 32.56103516 C67.64826406 73.99081198 92.23863643 127.97597524 92.3359375 182.453125 C92.34240266 183.80572636 92.34913337 185.15832647 92.35610962 186.51092529 C92.36797722 189.33120951 92.37180212 192.15137234 92.37060547 194.97167969 C92.37044414 197.80267222 92.3841546 200.63300919 92.41162109 203.46386719 C92.75499922 239.40247491 90.00882279 271.60586023 63.9375 298.5 C57.5982833 304.83647364 50.80557799 309.641122 43 314 C42.39349609 314.34369629 41.78699219 314.68739258 41.16210938 315.04150391 C30.3171219 321.09141707 15.58631691 329 3 329 C3.62816384 325.87949879 4.30519914 324.55627075 6.203125 321.796875 C10.41613898 315.25609503 12.38846264 307.60386853 14.75 300.25 C15.24775063 298.73015818 15.74644139 297.21062393 16.24609375 295.69140625 C18.81036411 287.90142026 18.81036411 287.90142026 21 280 C15.72 279.67 10.44 279.34 5 279 C4.34 280.32 3.68 281.64 3 283 C-2.64665523 289.25668169 -10.8840146 293.53486946 -19.32739258 294.17700195 C-47.64229837 294.85289747 -66.76963734 285.56286332 -90.27197266 270.70996094 C-133.68602608 243.07254136 -133.68602608 243.07254136 -183 232 C-182.81497925 232.88486084 -182.81497925 232.88486084 -182.6262207 233.78759766 C-181.49456484 239.30637252 -180.52609088 244.83058622 -179.65673828 250.39624023 C-177.10177605 266.61533189 -173.66892348 282.32034133 -167.87939453 297.71069336 C-166.78482165 300.62991419 -166 302.85178135 -166 306 C-168.7890625 306.28125 -168.7890625 306.28125 -172 306 C-175.09027034 302.89657958 -176.93191558 298.83885438 -179 295 C-179.31727051 294.4215332 -179.63454102 293.84306641 -179.96142578 293.24707031 C-187.93855137 278.58060623 -199 257.93660944 -199 241 C-204.70900618 244.58851817 -207.7036643 250.51838952 -209.54644775 256.8891449 C-211.11211405 264.17583504 -209.70175473 269.98497635 -206.640625 276.62109375 C-206.29497498 277.40589615 -205.94932495 278.19069855 -205.59320068 278.99928284 C-204.49419847 281.48588118 -203.37295141 283.96163879 -202.25 286.4375 C-201.51145911 288.09370551 -200.77446656 289.75060238 -200.0390625 291.40820312 C-198.97476794 293.80574333 -197.90987521 296.20297768 -196.8404541 298.59823608 C-190 313.92975404 -190 313.92975404 -190 318 C-194.9021823 317.46170602 -198.89915532 316.42207756 -203.41015625 314.4453125 C-204.64416235 313.912904 -205.87821385 313.38060072 -207.11230469 312.84838867 C-207.75502319 312.56756439 -208.3977417 312.28674011 -209.05993652 311.99740601 C-263.67867651 288.20304575 -333.47175889 262.22648906 -392.8125 284.37109375 C-395.00705853 285.23569103 -397.19254252 286.12410258 -399.36328125 287.046875 C-402 288 -402 288 -406 288 C-409.88618958 276.16961014 -413.36727954 264.34351729 -415.8125 252.125 C-416.10386841 250.6865271 -416.10386841 250.6865271 -416.40112305 249.21899414 C-419.52893103 232.90961156 -420.37560588 216.9492369 -420.3125 200.375 C-420.31034485 199.35676147 -420.3081897 198.33852295 -420.30596924 197.28942871 C-420.25626609 182.6652116 -419.94207988 168.37195362 -417 154 C-416.70996094 152.50509033 -416.70996094 152.50509033 -416.4140625 150.97998047 C-407.18818214 104.28819861 -386.27685516 61.49128331 -354.12890625 26.3515625 C-352.32175403 24.35540537 -350.59642854 22.31923635 -348.875 20.25 C-310.12076922 -23.92626765 -248.29142476 -52.41313215 -190.21435547 -56.77294922 C-120.76968891 -60.91504145 -54.14362634 -45.48400908 0 0 Z M-276 44 C-277.72694519 45.72694519 -277.54040895 48.14716757 -277.8671875 50.50390625 C-278.03089844 51.63763672 -278.19460938 52.77136719 -278.36328125 53.93945312 C-278.70048823 56.32693005 -279.03391403 58.71494454 -279.36328125 61.10351562 C-281.5955183 76.4436563 -281.5955183 76.4436563 -286.2265625 81.3671875 C-289.50250901 83.29584333 -292.70169378 84.29698599 -296.375 85.125 C-297.06529297 85.28967773 -297.75558594 85.45435547 -298.46679688 85.62402344 C-305.57860178 87.2550232 -312.75108196 88.20845148 -320 89 C-320 90.32 -320 91.64 -320 93 C-319.21351074 93.13575439 -318.42702148 93.27150879 -317.61669922 93.41137695 C-314.03436184 94.03536805 -310.45473996 94.67378362 -306.875 95.3125 C-305.6375 95.52583984 -304.4 95.73917969 -303.125 95.95898438 C-301.92617188 96.17490234 -300.72734375 96.39082031 -299.4921875 96.61328125 C-298.39245605 96.80704346 -297.29272461 97.00080566 -296.15966797 97.20043945 C-291.2965879 98.43105197 -287.90763494 99.86545632 -284.75 103.8125 C-279.19007936 114.87404031 -280.02898886 131.18054685 -278.875 143.375 C-278.69170231 145.28648675 -278.50811057 147.19794532 -278.32421875 149.109375 C-277.87942818 153.73926612 -277.43859658 158.36951818 -277 163 C-275.68 163 -274.36 163 -273 163 C-272.92483154 162.32348389 -272.84966309 161.64696777 -272.7722168 160.94995117 C-272.66562744 159.99064697 -272.55903809 159.03134277 -272.44921875 158.04296875 C-272.3294165 156.96249268 -272.20961426 155.8820166 -272.08618164 154.76879883 C-271.81783239 152.3582568 -271.54744942 149.9479404 -271.27514648 147.5378418 C-270.56062172 141.18783754 -269.87904512 134.83794498 -269.2734375 128.4765625 C-269.15395752 127.27491455 -269.03447754 126.0732666 -268.91137695 124.83520508 C-268.68374843 122.53677821 -268.46817356 120.23711633 -268.26635742 117.9362793 C-267.01232694 105.59477274 -267.01232694 105.59477274 -263 101 C-258.9208134 98.57483277 -255.15938795 97.43284454 -250.5078125 96.61328125 C-249.30898437 96.39736328 -248.11015625 96.18144531 -246.875 95.95898438 C-245.6375 95.74564453 -244.4 95.53230469 -243.125 95.3125 C-241.86429687 95.08755859 -240.60359375 94.86261719 -239.3046875 94.63085938 C-236.20449431 94.07893104 -233.10304663 93.5356109 -230 93 C-230 91.68 -230 90.36 -230 89 C-231.05743408 88.85751831 -231.05743408 88.85751831 -232.13623047 88.7121582 C-235.3852892 88.26378278 -238.62985344 87.78833329 -241.875 87.3125 C-242.98359375 87.16361328 -244.0921875 87.01472656 -245.234375 86.86132812 C-252.31483216 85.79925955 -259.31033736 84.62276502 -265 80 C-269.63569077 73.26100558 -270.17545687 64.27553433 -271.25 56.375 C-271.42273438 55.18003906 -271.59546875 53.98507813 -271.7734375 52.75390625 C-272.1934246 49.83732913 -272.60201188 46.91964594 -273 44 C-273.99 44 -274.98 44 -276 44 Z M-124 62 C-124 62.66 -124 63.32 -124 64 C-122.8140625 64.20753906 -121.628125 64.41507812 -120.40625 64.62890625 C-105.57919901 67.38606616 -92.17620877 71.76637502 -80 81 C-77.22420239 78.22420239 -77.13938613 75.69693063 -76.375 71.875 C-76.11460937 70.59367187 -75.85421875 69.31234375 -75.5859375 67.9921875 C-75.39257812 67.00476563 -75.19921875 66.01734375 -75 65 C-90.89605942 56.13488994 -107.1271644 56.17640189 -124 62 Z M-152 105 C-152.79865479 105.34546875 -153.59730957 105.6909375 -154.42016602 106.046875 C-160.77953876 109.09384346 -163.00458318 112.49814855 -165.4375 119 C-165.76169922 119.7940625 -166.08589844 120.588125 -166.41992188 121.40625 C-167.69561491 124.54964146 -168.89261171 127.53186422 -169.65234375 130.84375 C-171.98033655 134.56853847 -176.08284117 135.22385016 -180.125 136.5 C-191.58742225 140.11442515 -191.58742225 140.11442515 -200.171875 148.09375 C-200.95304688 149.77984375 -200.95304688 149.77984375 -201.75 151.5 C-202.03383545 152.11166016 -202.3176709 152.72332031 -202.61010742 153.35351562 C-212.06199622 174.32531573 -213.27296266 195.86831084 -206.5 217.75 C-206.28641846 218.4416626 -206.07283691 219.1333252 -205.8527832 219.84594727 C-204.89257235 222.80052751 -204.22665176 224.77334824 -202 227 C-202 224.69 -202 222.38 -202 220 C-186.45216639 211.36231466 -169.29740264 213.05232006 -152.63916016 217.65185547 C-128.46457769 224.89390549 -106.7979959 237.98836315 -86 252 C-86.26935414 250.62470947 -86.54063511 249.24979641 -86.8125 247.875 C-86.99425781 246.94816406 -87.17601562 246.02132812 -87.36328125 245.06640625 C-87.7828987 243.04554922 -88.23794471 241.03167955 -88.73046875 239.02734375 C-96.52246407 206.47499784 -92.42963593 175.28890779 -82 144 C-94.22122092 137.37380678 -106.92523171 131.75400544 -121 131 C-121 129.68 -121 128.36 -121 127 C-106.63724362 129.04143337 -92.77292005 131.39367222 -79 136 C-77.99839844 136.32484375 -76.99679687 136.6496875 -75.96484375 136.984375 C-73.97044643 137.63787149 -71.98370146 138.31472132 -70 139 C-70.25394531 139.7528125 -70.50789062 140.505625 -70.76953125 141.28125 C-78.50273251 165.14700969 -80.0747804 189.61865 -75.47753906 214.28271484 C-75.15560166 216.11459791 -74.87711825 217.95458137 -74.63964844 219.79931641 C-73.24089137 231.07369217 -73.24089137 231.07369217 -66.66503906 239.85302734 C-60.95925108 243.22849616 -54.86809729 245.58319653 -48.68066406 247.91943359 C-35.08200304 253.40100679 -23.63607351 265.24065273 -13 275 C-12.67 274.34 -12.34 273.68 -12 273 C-12.78140767 271.0115151 -13.65464408 269.0590289 -14.5625 267.125 C-20.99963177 252.75969236 -24.83089831 237.55823297 -27 222 C-27.14139404 221.03549927 -27.14139404 221.03549927 -27.28564453 220.05151367 C-28.25863692 212.62700734 -28.24359124 205.16457106 -28.25 197.6875 C-28.25067474 196.97824371 -28.25134949 196.26898743 -28.25204468 195.53823853 C-28.23437425 183.80689263 -27.5382224 172.48019418 -25 161 C-24.82839355 160.21947266 -24.65678711 159.43894531 -24.47998047 158.63476562 C-21.05043021 143.56803723 -16.28058663 128.31399933 -8.84765625 114.71484375 C-7.85229172 113.01999773 -7.85229172 113.01999773 -8 111 C-53.79526911 86.68113295 -104.35159128 82.94750388 -152 105 Z " fill="#042253" transform="translate(420,57)"/>
<path d="M0 0 C32.24214491 0.93591132 63.61219591 9.88291733 92 25 C92.6609668 25.34981934 93.32193359 25.69963867 94.00292969 26.06005859 C105.22543744 32.04015274 116.0704298 38.63637387 126.91674805 45.26513672 C136.6066256 51.18263528 146.37499638 56.95567523 156.18359375 62.67382812 C157.38807093 63.37621618 158.59249809 64.07869002 159.796875 64.78125 C160.39101196 65.1278064 160.98514893 65.47436279 161.59729004 65.8314209 C165.83638409 68.30861182 170.05521498 70.81815845 174.265625 73.34375 C185.96989645 80.35999823 197.61014747 87.25895942 210 93 C210.72574219 93.34546875 211.45148438 93.6909375 212.19921875 94.046875 C243.21330688 108.80064557 275.95110641 118.50280385 310 123 C310.66 124.98 311.32 126.96 312 129 C297.37726272 139.32392331 280.50657744 147.14135678 263 151 C261.92854736 151.23904053 261.92854736 151.23904053 260.83544922 151.48291016 C243.44865644 155.20563911 226.99100482 155.41104016 210 150 C209.35981934 149.80696289 208.71963867 149.61392578 208.06005859 149.41503906 C173.98651863 139.04742186 143.99323665 118.43131989 116 97 C115.38882324 96.5359375 114.77764648 96.071875 114.14794922 95.59375 C105.8344626 89.27163865 98.0723112 82.55108437 90.47998047 75.3828125 C88.29333319 73.33972933 86.05217225 71.35960817 83.8125 69.375 C79.49755564 65.51462839 75.43010606 61.44700938 71.359375 57.33203125 C68.72120917 54.72444019 65.9812043 52.29274184 63.16015625 49.88671875 C60.56145347 47.61696569 58.07293847 45.24198485 55.5625 42.875 C38.62873113 27.17282761 19.25393576 14.90418077 -1 4 C-0.67 2.68 -0.34 1.36 0 0 Z " fill="#042253" transform="translate(78,346)"/>
<path d="M0 0 C0.886875 0.69351562 1.77375 1.38703125 2.6875 2.1015625 C14.413347 11.41942306 25.09776553 21.99281173 35.61523438 32.63427734 C39.03107182 36.07703658 42.54749999 39.32277196 46.2421875 42.4609375 C48.07927024 44.0694055 49.78907787 45.75838868 51.5 47.5 C55.16313296 51.21230253 59.04406155 54.60459354 63 58 C64.00831053 58.88354655 65.01608274 59.76770766 66.0234375 60.65234375 C90.48759865 82.02980461 117.04571686 99.76894514 146.54833984 113.37182617 C147.50047363 113.81502197 148.45260742 114.25821777 149.43359375 114.71484375 C150.29009521 115.10792725 151.14659668 115.50101074 152.02905273 115.90600586 C154 117 154 117 155 119 C154.0625 121.625 154.0625 121.625 153 124 C109.68701076 124.63820711 109.68701076 124.63820711 92 121 C90.71633545 120.74259033 90.71633545 120.74259033 89.40673828 120.47998047 C41.17369455 110.54573126 -1.66928917 85.94700153 -37 52 C-37.53753906 51.484375 -38.07507813 50.96875 -38.62890625 50.4375 C-45.96839288 43.35344794 -52.7218464 36.05734154 -59 28 C-59.77601562 27.05253906 -60.55203125 26.10507812 -61.3515625 25.12890625 C-71.18600956 12.87487301 -79.28702502 -0.64957003 -85.8125 -14.9375 C-86.15619629 -15.67637451 -86.49989258 -16.41524902 -86.85400391 -17.17651367 C-88.58571483 -21.150213 -89.46209858 -23.82607613 -88 -28 C-55.31310214 -38.21465558 -24.70355199 -19.87863949 0 0 Z " fill="#042253" transform="translate(112,387)"/>
<path d="M0 0 C0.94311035 0.25849731 0.94311035 0.25849731 1.90527344 0.5222168 C4.93606203 1.35105922 7.9678473 2.17616144 11 3 C12.09376953 3.29729004 13.18753906 3.59458008 14.31445312 3.90087891 C44.22586942 11.97120585 74.18377091 17.73661027 105 21 C105.90935303 21.1045752 106.81870605 21.20915039 107.75561523 21.31689453 C118.68539847 22.42604382 129.7137258 22.24395435 140.6875 22.25 C141.78503601 22.25067474 142.88257202 22.25134949 144.0133667 22.25204468 C159.87507483 22.23653576 175.36670502 21.94020685 191 19 C191.95293945 18.82839355 192.90587891 18.65678711 193.88769531 18.47998047 C210.94807728 15.3349117 228.44817296 10.96097442 243.84375 2.75 C246.60207321 1.79058323 248.23502478 2.16310951 251 3 C252.875 4.3125 252.875 4.3125 254 6 C252.01779566 19.90546381 235.07537438 34.97421156 225.90234375 44.88671875 C223.92963359 47.024151 223.92963359 47.024151 222.03125 49.5546875 C211.47991966 62.25686595 192.40781577 67.84605001 176.49609375 69.53515625 C140.5221459 72.53140893 106.18662427 60.87639613 74 46 C73.01451172 45.54641113 72.02902344 45.09282227 71.01367188 44.62548828 C10.69055839 16.69055839 10.69055839 16.69055839 -1 5 C-0.625 2.375 -0.625 2.375 0 0 Z " fill="#042254" transform="translate(221,384)"/>
</svg>
