<?xml version="1.0" encoding="UTF-8"?>
<svg version="1.1" xmlns="http://www.w3.org/2000/svg" width="225" height="225">
<path d="M0 0 C74.25 0 148.5 0 225 0 C225 74.25 225 148.5 225 225 C150.75 225 76.5 225 0 225 C0 150.75 0 76.5 0 0 Z " fill="#7302E1" transform="translate(0,0)"/>
<path d="M0 0 C12.10651329 11.65660908 17.43130056 28.60530789 17.80029297 45.19921875 C17.50620556 54.3607232 12.21188367 59.79014968 6 66 C4.77990234 67.28003906 4.77990234 67.28003906 3.53515625 68.5859375 C-8.05832914 79.89006802 -24.73975616 88.00447487 -41 89 C-38.47587108 85.78747228 -36.10339377 83.00492239 -32.875 80.5 C-15.99316451 66.37663437 -2.71475793 40.80040297 -0.18530273 19.18505859 C0.13095597 15.45578927 0.10462967 11.73981829 0.0625 8 C0.05798828 7.22527344 0.05347656 6.45054688 0.04882812 5.65234375 C0.03719758 3.76819476 0.01926906 1.88408635 0 0 Z " fill="#FBF9FE" transform="translate(163,101)"/>
<path d="M0 0 C0.66 0.33 1.32 0.66 2 1 C1.76216797 1.79470703 1.76216797 1.79470703 1.51953125 2.60546875 C-2.75842462 22.32266383 7.56284059 44.84338659 17.94897461 61.24169922 C22.56255172 68.18327574 28.1349125 74.11016529 34 80 C34.74121094 80.75539063 35.48242188 81.51078125 36.24609375 82.2890625 C37.81618416 83.87547402 39.40040166 85.44350461 41 87 C41.99 87.99 41.99 87.99 43 89 C24.63781315 88.53459895 7.87693274 78.54085895 -5 66 C-15.0124637 54.49910155 -16.03530719 45.99925981 -15 31 C-12.96530345 19.40804311 -7.01799931 9.28852849 0 0 Z " fill="#FBF9FE" transform="translate(61,101)"/>
<path d="M0 0 C-2.42081968 2.52235516 -4.76795839 4.59036272 -7.6875 6.5 C-12.42170416 9.95184088 -15.39640831 14.39738489 -18.78125 19.12109375 C-20.72924052 21.64868004 -22.53465631 23.50913714 -25 25.5 C-39.06294408 37.09772679 -44.59622435 53.76253064 -48 71 C-55.20180562 60.19729157 -54.4145449 43.77178096 -52.30859375 31.40234375 C-50.07613782 20.46107476 -46.38288129 15.07743715 -37.125 8.875 C-25.24205902 1.92638605 -13.77441921 -0.96851385 0 0 Z " fill="#FAF7FE" transform="translate(88,67)"/>
<path d="M0 0 C15.80685226 -1.37229907 30.36183098 3.43951981 43 13 C43.87527344 13.60714844 44.75054687 14.21429688 45.65234375 14.83984375 C48.44634183 17.41069389 49.17449788 19.32363059 50.25 22.9375 C50.56453125 23.95714844 50.8790625 24.97679688 51.203125 26.02734375 C54.76410821 39.31120757 55.16592938 57.06147962 50 70 C49.01 70.495 49.01 70.495 48 71 C47.85304687 70.07960938 47.70609375 69.15921875 47.5546875 68.2109375 C44.21528107 49.36440233 36.02010652 35.5443013 22.31103516 22.30175781 C19.33058331 19.40831948 16.70597716 16.47253051 14.25 13.125 C11.51937598 9.43062633 8.58025737 6.87689604 4.796875 4.2890625 C2.99916543 2.99940129 1.51907763 1.60347083 0 0 Z " fill="#FBF8FE" transform="translate(137,67)"/>
<path d="M0 0 C2.3745503 0.9088796 4.65304619 1.80028289 6.859375 3.0703125 C14.12391831 7.12284699 22.91257827 7.35359098 31 6 C34.52013953 4.71250711 37.56041404 3.22407309 40.77734375 1.3125 C43 0 43 0 45 0 C45.59931315 9.62896459 45.89542629 19.79553175 40 28 C34.59942893 31.32305699 28.66820353 31.46410727 22.5 31.375 C21.69691406 31.38660156 20.89382812 31.39820313 20.06640625 31.41015625 C14.41551951 31.3826803 10.08422527 30.53374124 5 28 C3.37890625 25.765625 3.37890625 25.765625 2.5625 23.25 C2.26988281 22.35667969 1.97726563 21.46335938 1.67578125 20.54296875 C-0.14674073 13.68480801 -0.1146905 7.04709415 0 0 Z " fill="#FCFAFE" transform="translate(90,130)"/>
<path d="M0 0 C3.0625 1.8125 3.0625 1.8125 4.1875 4 C3.92370039 9.93549127 1.34590985 14.45654688 -1.8125 19.3125 C-7.39271097 28.31598254 -10.37353999 39.28524647 -10.9375 49.8125 C-25.39652963 42.63073627 -25.39652963 42.63073627 -27.3125 38.25 C-27.74609375 36.265625 -27.74609375 36.265625 -27.9375 33.8125 C-28.03160156 32.67296875 -28.12570313 31.5334375 -28.22265625 30.359375 C-28.60252043 20.73614912 -27.11566783 13.14728172 -22.1875 4.875 C-15.652762 -1.1151765 -8.51090964 -3.02224138 0 0 Z " fill="#FBF9FE" transform="translate(94.9375,86.1875)"/>
<path d="M0 0 C5.9452688 2.49958256 8.92483076 6.84127354 11.5234375 12.57421875 C13.19795039 17.25496078 13.28528236 21.63426889 13.1875 26.5625 C13.19072266 27.38234375 13.19394531 28.2021875 13.19726562 29.046875 C13.15659619 33.64621791 13.04456339 37.78782805 10.875 41.9375 C7.90625 44.01953125 7.90625 44.01953125 4.375 45.75 C3.2096875 46.33394531 2.044375 46.91789062 0.84375 47.51953125 C-0.1359375 47.98746094 -1.115625 48.45539063 -2.125 48.9375 C-3.115 49.4325 -3.115 49.4325 -4.125 49.9375 C-4.21136719 49.07769531 -4.29773438 48.21789062 -4.38671875 47.33203125 C-5.64237232 36.76841363 -7.9536016 27.06570244 -14.3125 18.3125 C-17.76077328 13.55228727 -18.50090197 8.69426636 -19.125 2.9375 C-12.67309528 -1.36376982 -7.45184487 -2.27103844 0 0 Z " fill="#FCFAFE" transform="translate(145.125,86.0625)"/>
<path d="M0 0 C2 0.625 2 0.625 5 2 C5.62777344 2.27585938 6.25554687 2.55171875 6.90234375 2.8359375 C12.95930406 6.30037929 14.18405672 10.79118085 15.9375 17.1875 C16.11724365 17.99638672 16.2969873 18.80527344 16.48217773 19.63867188 C17.10329899 22.03232198 17.67569078 23.90684488 19 26 C21.88496402 27.65941979 24.75438942 28.35988663 28 29 C28.67869141 29.18095215 29.35738281 29.3619043 30.05664062 29.54833984 C39.04630501 31.63764626 50.77181659 30.70247328 59.375 27.734375 C64.51043909 24.34131703 65.6786137 18.74240747 67 13 C67.185625 11.65808594 67.185625 11.65808594 67.375 10.2890625 C68.52976585 6.05973259 72.43530562 4.21788316 76 2 C79 0.625 79 0.625 81 0 C75.76024392 19.56175602 60.80888121 38.7625349 44.625 50.6875 C42 52 42 52 40.1328125 51.8046875 C22.40710641 45.11696689 9.67160085 22.24574298 2 6 C1.2955197 4.01300429 0.61480109 2.01654756 0 0 Z " fill="#F9F6FD" transform="translate(72,136)"/>
<path d="M0 0 C3.29062994 0.74283512 3.29062994 0.74283512 5.4375 -0.5625 C12.92614819 -1.26528083 19.21837813 -1.0580777 25.4375 3.4375 C27.27070039 5.01969984 28.82286247 6.62103278 30.4375 8.4375 C29.27734375 8.58445312 29.27734375 8.58445312 28.09375 8.734375 C21.46835335 9.68554581 16.10770201 10.80001192 10.4375 14.4375 C8.91309159 18.09271133 9.4375 21.32566265 9.4375 25.4375 C3.8275 25.4375 -1.7825 25.4375 -7.5625 25.4375 C-7.43875 23.87 -7.315 22.3025 -7.1875 20.6875 C-7.11870384 17.95889666 -7.11870384 17.95889666 -7.5625 15.4375 C-10.08115124 12.75835559 -10.08115124 12.75835559 -13.5625 11.4375 C-14.47 11.025 -15.3775 10.6125 -16.3125 10.1875 C-20.75493698 9.16232224 -25.0248386 9.27608122 -29.5625 9.4375 C-20.96103556 -0.27383082 -12.47025767 -1.64914639 0 0 Z " fill="#FCFAFE" transform="translate(111.5625,70.5625)"/>
<path d="M0 0 C3.0316773 1.16158065 5.88442302 2.51379541 8.76953125 4.00390625 C10.37248047 4.82568359 10.37248047 4.82568359 12.0078125 5.6640625 C12.81605469 6.08558594 13.62429687 6.50710937 14.45703125 6.94140625 C14.45703125 10.57140625 14.45703125 14.20140625 14.45703125 17.94140625 C13.27109375 17.9671875 12.08515625 17.99296875 10.86328125 18.01953125 C-5.40827029 18.52516354 -18.97020767 21.45539884 -33.54296875 28.94140625 C-28.90959082 18.7242139 -12.25771876 -0.28243592 0 0 Z " fill="#FAF7FD" transform="translate(80.54296875,43.05859375)"/>
<path d="M0 0 C11.92486109 6.15476701 21.04743462 15.35955638 29 26 C28.67 26.66 28.34 27.32 28 28 C27.19175781 27.59007813 26.38351563 27.18015625 25.55078125 26.7578125 C24.48214844 26.21898438 23.41351563 25.68015625 22.3125 25.125 C21.25675781 24.59132813 20.20101562 24.05765625 19.11328125 23.5078125 C7.27413647 17.77392306 -5.07816862 17.54018657 -18 17 C-18 13.37 -18 9.74 -18 6 C-15.9463858 4.79429093 -13.88444845 3.61093359 -11.8125 2.4375 C-11.23435547 2.09525391 -10.65621094 1.75300781 -10.06054688 1.40039062 C-6.28007146 -0.71411257 -4.10242482 -1.54342041 0 0 Z " fill="#FBF8FE" transform="translate(149,44)"/>
<path d="M0 0 C-2.43030784 1.53351528 -4.86805103 3.05183502 -7.3125 4.5625 C-8.00279297 5.00013672 -8.69308594 5.43777344 -9.40429688 5.88867188 C-10.07138672 6.29794922 -10.73847656 6.70722656 -11.42578125 7.12890625 C-12.03848877 7.51119385 -12.65119629 7.89348145 -13.2824707 8.28735352 C-15 9 -15 9 -18 8 C-19.82421875 5.93359375 -19.82421875 5.93359375 -21.6875 3.4375 C-22.31011719 2.61121094 -22.93273437 1.78492188 -23.57421875 0.93359375 C-24.04472656 0.29550781 -24.51523438 -0.34257813 -25 -1 C-28.26008643 2.16952847 -31.22237877 5.39937989 -34 9 C-37.95906817 7.56691865 -41.28718181 5.66858051 -44.8125 3.375 C-45.78832031 2.74335937 -46.76414062 2.11171875 -47.76953125 1.4609375 C-48.87361328 0.73777344 -48.87361328 0.73777344 -50 0 C-40.12694634 -9.87305366 -11.11949287 -6.36189891 0 0 Z " fill="#F6F1FD" transform="translate(138,40)"/>
<path d="M0 0 C1.48034764 0.47550561 2.95925021 0.95551216 4.4375 1.4375 C5.26121094 1.70433594 6.08492187 1.97117187 6.93359375 2.24609375 C9 3 9 3 10 4 C10.15179378 6.30901696 10.22181122 8.62367069 10.25 10.9375 C10.27578125 12.20464844 10.3015625 13.47179687 10.328125 14.77734375 C10.21984375 15.84082031 10.1115625 16.90429688 10 18 C5.98977783 20.67348144 2.71558394 20.71022805 -2 20 C-5.0625 18 -5.0625 18 -7 16 C-6.40165275 11.85701333 -4.99335715 8.81805623 -2.9375 5.1875 C-2.11572266 3.72376953 -2.11572266 3.72376953 -1.27734375 2.23046875 C-0.85582031 1.49441406 -0.43429688 0.75835937 0 0 Z " fill="#F9F5FD" transform="translate(100,104)"/>
<path d="M0 0 C1.7265625 2.44921875 1.7265625 2.44921875 3.625 5.6875 C4.25664062 6.74324219 4.88828125 7.79898438 5.5390625 8.88671875 C6.98954759 11.97772574 7.50099625 13.65216626 7 17 C3.37595489 20.39023575 -0.30389254 20.32451819 -5.01171875 20.30078125 C-7 20 -7 20 -9 18 C-9.14497985 15.41935871 -9.18677545 12.95056116 -9.125 10.375 C-9.11597656 9.66859375 -9.10695313 8.9621875 -9.09765625 8.234375 C-9.07407603 6.48943902 -9.03820461 4.74467705 -9 3 C-2.25 0 -2.25 0 0 0 Z " fill="#FBF9FE" transform="translate(125,104)"/>
<path d="M0 0 C3.33333333 3.33333333 6.66666667 6.66666667 10 10 C10.99 9.34 11.98 8.68 13 8 C13 10.31 13 12.62 13 15 C11.60550891 15.483059 10.20933293 15.96125517 8.8125 16.4375 C8.03519531 16.70433594 7.25789063 16.97117187 6.45703125 17.24609375 C1.57627211 18.74368757 -1.38909226 19.20363591 -6.3125 17.5625 C-7.63701172 17.13130859 -7.63701172 17.13130859 -8.98828125 16.69140625 C-9.65214844 16.46324219 -10.31601563 16.23507813 -11 16 C-11 13.69 -11 11.38 -11 9 C-9.02 9.99 -9.02 9.99 -7 11 C-6.773125 10.484375 -6.54625 9.96875 -6.3125 9.4375 C-4.5024447 6.07596873 -2.26003596 3.07088856 0 0 Z " fill="#F8F4FD" transform="translate(112,47)"/>
</svg>
