<?xml version="1.0" encoding="UTF-8"?>
<svg version="1.1" xmlns="http://www.w3.org/2000/svg" width="225" height="225">
<path d="M0 0 C74.25 0 148.5 0 225 0 C225 74.25 225 148.5 225 225 C150.75 225 76.5 225 0 225 C0 150.75 0 76.5 0 0 Z " fill="#FDFDFD" transform="translate(0,0)"/>
<path d="M0 0 C0.99 0.99 1.98 1.98 3 3 C3 22.8 3 42.6 3 63 C44.58 63 86.16 63 129 63 C129 42.87 129 22.74 129 2 C129.66 1.34 130.32 0.68 131 0 C137.57692308 0.57692308 137.57692308 0.57692308 139 2 C139.10478906 4.13657042 139.13856654 6.27664338 139.14526367 8.41577148 C139.14862228 9.08570129 139.1519809 9.7556311 139.15544128 10.44586182 C139.16497721 12.67095774 139.16689572 14.89597863 139.16796875 17.12109375 C139.17117953 18.66187064 139.17454346 20.20264722 139.17805481 21.74342346 C139.18405272 24.97747505 139.18589404 28.21149988 139.18530273 31.44555664 C139.18520108 35.5964752 139.19885353 39.74722283 139.21607494 43.89810085 C139.2271754 47.08161716 139.22922255 50.26509188 139.22869301 53.44862556 C139.22987607 54.97928519 139.23431603 56.5099458 139.24202538 58.04058647 C139.25178599 60.17879188 139.24896305 62.31662298 139.24291992 64.45483398 C139.24434494 65.67315414 139.24576996 66.8914743 139.24723816 68.14671326 C139 71 139 71 137 73 C134.52620697 73.25447559 134.52620697 73.25447559 131.34411621 73.26069641 C130.14103317 73.26778122 128.93795013 73.27486603 127.69841003 73.28216553 C126.35818444 73.27987152 125.0179592 73.27736179 123.67773438 73.2746582 C122.27183256 73.27900348 120.86593313 73.28418601 119.46003723 73.29014587 C115.63573661 73.30356608 111.81153463 73.30411128 107.98721504 73.30158257 C104.79861891 73.30051504 101.61004292 73.30539055 98.42145109 73.310188 C90.90188315 73.32129333 83.38236515 73.32171463 75.86279297 73.31567383 C68.09537931 73.30963007 60.32814661 73.32195282 52.56076384 73.3432439 C45.90001374 73.36083285 39.23932139 73.36686561 32.57854891 73.36360615 C28.59676477 73.36178903 24.61510975 73.36447202 20.63334656 73.37832069 C16.89048013 73.39085084 13.14789685 73.3890011 9.40503502 73.37590981 C8.02874851 73.37353401 6.65244238 73.37631439 5.27617836 73.38453293 C3.40277246 73.39491648 1.52928663 73.38514427 -0.34411621 73.3742218 C-1.91925114 73.37447341 -1.91925114 73.37447341 -3.52620697 73.37473011 C-4.75073452 73.18923871 -4.75073452 73.18923871 -6 73 C-8.38918805 69.41621793 -8.25795433 67.81486861 -8.2746582 63.55664062 C-8.2823246 62.58297798 -8.2823246 62.58297798 -8.29014587 61.58964539 C-8.30404045 59.44508635 -8.30308549 57.30084868 -8.30078125 55.15625 C-8.30466785 53.66556682 -8.30900245 52.17488474 -8.31376648 50.6842041 C-8.32122807 47.56042896 -8.32093759 44.43676685 -8.31567383 41.31298828 C-8.30987473 37.30784725 -8.32682066 33.30316799 -8.3500185 29.29810333 C-8.36474108 26.22004487 -8.36562966 23.14209805 -8.36250877 20.06401062 C-8.36302259 18.58720484 -8.36827159 17.1103929 -8.37832069 15.63362122 C-8.39064183 13.56989393 -8.38392102 11.50707189 -8.37231445 9.44335938 C-8.37294388 8.26882202 -8.3735733 7.09428467 -8.3742218 5.88415527 C-8 3 -8 3 -6.63298035 1.12072754 C-4.28824571 -0.48848269 -2.77910406 -0.41686561 0 0 Z " fill="#F8CD05" transform="translate(46,117)"/>
<path d="M0 0 C2.18790913 1.43844891 2.18790913 1.43844891 4.24543762 3.49699402 C5.03475677 4.27228455 5.82407593 5.04757507 6.63731384 5.84635925 C7.48378983 6.70812271 8.33026581 7.56988617 9.20239258 8.45776367 C10.10874451 9.35681427 11.01509644 10.25586487 11.94891357 11.18215942 C14.43154068 13.64598807 16.89496532 16.12822632 19.35483766 18.61474776 C21.9326085 21.21516631 24.52580152 23.80012418 27.11686707 26.38728333 C31.46559388 30.73424477 35.80220743 35.09300749 40.1315918 39.45922852 C45.13591701 44.50588853 50.1576711 49.53466265 55.18943864 54.55395144 C60.03101973 59.38413979 64.8611725 64.22559565 69.68582726 69.07268715 C71.73854251 71.13468723 73.79497196 73.19287466 75.85444069 75.24812889 C78.72967617 78.11889466 81.58789085 81.00604213 84.44458008 83.89526367 C85.30117722 84.74690598 86.15777435 85.59854828 87.04032898 86.47599792 C87.81554901 87.26538757 88.59076904 88.05477722 89.38948059 88.86808777 C90.06657987 89.54929278 90.74367914 90.2304978 91.44129658 90.93234539 C93.25857416 93.34300435 93.78319401 95.0007637 94 98 C92.375 100.375 92.375 100.375 90 102 C85.91027963 101.68712798 83.95910361 100.45218505 81.12278748 97.57015991 C80.02310135 96.46788307 80.02310135 96.46788307 78.90119934 95.34333801 C78.11194565 94.53184799 77.32269196 93.72035797 76.50952148 92.88427734 C75.66665588 92.03396439 74.82379028 91.18365143 73.9553833 90.30757141 C71.64894437 87.97771206 69.35148286 85.6393923 67.05692554 83.29784346 C64.65315245 80.85041874 62.23600748 78.41628941 59.81959534 75.98135376 C52.63535699 68.73708228 45.47235841 61.47190233 38.31311035 54.20294189 C32.74453378 48.5495246 27.17037013 42.90186499 21.5788694 37.27110827 C19.17238991 34.84663917 16.77141282 32.41718632 14.38213921 29.97574997 C11.71950063 27.2582953 9.04216895 24.55617173 6.36108398 21.85693359 C5.56980606 21.04139511 4.77852814 20.22585663 3.96327209 19.38560486 C3.23296783 18.65639328 2.50266357 17.9271817 1.75022888 17.1758728 C1.11884223 16.53468191 0.48745558 15.89349102 -0.163064 15.2328701 C-1.90866958 13.79801406 -1.90866958 13.79801406 -4 14.08714294 C-6.43562283 15.19883069 -7.87113074 16.51931894 -9.75022888 18.42984009 C-10.48053314 19.16469131 -11.2108374 19.89954254 -11.96327209 20.65666199 C-12.75455002 21.46815201 -13.54582794 22.27964203 -14.36108398 23.11572266 C-15.62275391 24.39119209 -15.62275391 24.39119209 -16.90991211 25.69242859 C-19.21453507 28.02413898 -21.51254472 30.3621625 -23.80874896 32.70215654 C-26.21357539 35.14807634 -28.62930629 37.58316177 -31.04469299 40.01864624 C-39.27004118 48.31644868 -47.47756854 56.63174684 -55.67211914 64.95996094 C-60.19915736 69.56060832 -64.73688443 74.15044018 -69.28637177 78.72889173 C-71.69341139 81.15235353 -74.0942009 83.58139138 -76.48156548 86.02425003 C-79.1441208 88.74420191 -81.82441607 91.44540073 -84.50952148 94.14306641 C-85.69340202 95.36637413 -85.69340202 95.36637413 -86.90119934 96.61439514 C-87.63432343 97.34360672 -88.36744751 98.0728183 -89.12278748 98.8241272 C-89.75455115 99.46531809 -90.38631483 100.10650898 -91.03722286 100.7671299 C-93 102 -93 102 -95.61732578 101.82349205 C-98 101 -98 101 -100 99 C-100.45101752 95.91365002 -100.34804885 94.49961685 -98.54872704 91.91672802 C-97.86333162 91.22814866 -97.17793621 90.5395693 -96.47177124 89.8301239 C-95.68951172 89.0323201 -94.9072522 88.2345163 -94.10128784 87.41253662 C-93.23174469 86.55154358 -92.36220154 85.69055054 -91.46630859 84.8034668 C-90.10551178 83.42711815 -90.10551178 83.42711815 -88.71722412 82.02296448 C-86.22864585 79.50731097 -83.72441138 77.00781168 -81.21625471 74.51169562 C-79.12391356 72.42648145 -77.03942809 70.33350396 -74.95492423 68.24045974 C-70.03731935 63.30289451 -65.10706234 58.37822395 -60.16845703 53.46166992 C-55.07351772 48.38909424 -49.99887606 43.29685582 -44.93405664 38.19422024 C-40.58482926 33.81376438 -36.22404744 29.44505956 -31.85362875 25.08574611 C-29.24348455 22.48209162 -26.63777719 19.87436668 -24.04279709 17.25559044 C-21.14872629 14.33633855 -18.23088784 11.44203923 -15.31005859 8.54956055 C-14.45266083 7.67844635 -13.59526306 6.80733215 -12.71188354 5.90982056 C-11.91270508 5.12611588 -11.11352661 4.34241119 -10.29013062 3.53495789 C-9.25864427 2.50491654 -9.25864427 2.50491654 -8.20631981 1.45406628 C-5.23836419 -0.50195305 -3.49100159 -0.51190487 0 0 Z " fill="#E14054" transform="translate(115,12)"/>
<path d="M0 0 C6.04650192 -0.09972662 12.09251309 -0.17187016 18.13964844 -0.21972656 C20.19181674 -0.23970057 22.24392917 -0.26688947 24.29589844 -0.30175781 C50.34983448 -0.73303037 50.34983448 -0.73303037 61.0625 7.75 C66.4523283 13.05195067 68.06140724 17.79392306 68.5 25.25 C68.19194249 34.13437859 65.00154855 41.60925762 58.5 47.6875 C55.37681627 50.34330589 53.07283787 51.46221331 49 52 C55.21146393 69.08152581 69.7345348 86.75883096 86 95 C89.38281004 96.3557178 89.38281004 96.3557178 92 97 C92 97.66 92 98.32 92 99 C73.22283859 99.98024625 73.22283859 99.98024625 65 94 C64.24589844 93.4534375 63.49179688 92.906875 62.71484375 92.34375 C55.0299209 86.12199428 49.8654807 77.80086217 44.83203125 69.4140625 C44.48148682 68.83164795 44.13094238 68.2492334 43.76977539 67.64916992 C42.80700317 66.03317853 41.86379512 64.40557746 40.921875 62.77734375 C38.05096565 58.62852962 34.58549191 56.0379964 30 54 C30 53.01 30 52.02 30 51 C30.9178125 50.98582031 31.835625 50.97164062 32.78125 50.95703125 C43.36303351 50.55796736 43.36303351 50.55796736 52 45 C53.67581574 42.71479671 54.77889073 40.58875166 56 38 C56.495 37.01 56.495 37.01 57 36 C57.88391919 27.31233706 57.27211627 20.15883808 52 13 C46.88284377 7.61010194 39.47203213 5.34400247 32.20703125 4.78515625 C27.44467746 4.61563691 27.44467746 4.61563691 23 6 C22.93042305 15.93588364 22.87714963 25.8717091 22.84456348 35.80778694 C22.82892204 40.42175032 22.80771158 45.03554675 22.77368164 49.64941406 C22.74103389 54.10386669 22.72313554 58.55815895 22.71536827 63.01272202 C22.70983448 64.71035155 22.69902827 66.40797252 22.68280983 68.1055336 C22.66096326 70.4873766 22.65803605 72.86856086 22.65942383 75.25048828 C22.648638 75.94892349 22.63785217 76.6473587 22.6267395 77.36695862 C22.65566238 81.96866333 23.58313755 85.09157166 26 89 C29.38535246 91.56188835 32.95669162 92.77760444 37 94 C36.67 94.66 36.34 95.32 36 96 C24.45 96 12.9 96 1 96 C1.33 95.01 1.66 94.02 2 93 C2.94875 92.54625 3.8975 92.0925 4.875 91.625 C8.5100352 89.73478169 9.29470293 88.66897129 11 85 C11.45304242 81.50214277 11.45304242 81.50214277 11.38818359 77.62695312 C11.39344055 76.90273666 11.39869751 76.1785202 11.40411377 75.43235779 C11.41727233 73.04843307 11.4085908 70.66518101 11.3984375 68.28125 C11.40045944 66.6188545 11.40337187 64.95645986 11.40713501 63.29406738 C11.41155273 59.81396012 11.40514518 56.33408423 11.39111328 52.85400391 C11.3740216 48.39846631 11.38386575 43.9434709 11.40183067 39.48795319 C11.41268349 36.05637545 11.40921532 32.62492576 11.4014473 29.19334412 C11.39944943 27.55073482 11.40189005 25.9081138 11.40888596 24.26551819 C11.41652527 21.96771557 11.40486246 19.67078475 11.38818359 17.37304688 C11.38579681 16.06686401 11.38341003 14.76068115 11.38095093 13.41491699 C10.97573952 9.78252443 10.2044548 7.88310683 8 5 C5.99411525 3.99065319 5.99411525 3.99065319 3.8125 3.6875 C2.554375 3.460625 1.29625 3.23375 0 3 C0 2.01 0 1.02 0 0 Z " fill="#040404" transform="translate(70,72)"/>
<path d="M0 0 C0.28875 0.9075 0.5775 1.815 0.875 2.75 C1.76841716 5.33098291 2.75227117 7.58842326 4 10 C-7.49955278 21.63962103 -19.01614472 33.26206572 -30.55341625 44.86428928 C-35.90979794 50.25162894 -41.26041821 55.64446685 -46.59790039 61.05053711 C-51.24925375 65.761633 -55.91100521 70.46214023 -60.58562452 75.15015548 C-63.06123247 77.63359594 -65.53125993 80.12207167 -67.98891258 82.62329292 C-70.7305037 85.41309 -73.49525105 88.17919404 -76.26245117 90.94360352 C-77.4838102 92.19732002 -77.4838102 92.19732002 -78.72984314 93.47636414 C-79.48557617 94.22384918 -80.2413092 94.97133423 -81.01994324 95.74147034 C-81.9975047 96.72732793 -81.9975047 96.72732793 -82.99481487 97.73310184 C-85 99 -85 99 -87.62375355 98.8286581 C-90 98 -90 98 -92 96 C-92.43817312 92.94821949 -92.36063305 91.51777131 -90.58161259 88.96358013 C-89.91184611 88.2971238 -89.24207964 87.63066748 -88.55201721 86.9440155 C-87.78777435 86.17145416 -87.02353149 85.39889282 -86.23612976 84.60292053 C-85.3867836 83.76997971 -84.53743744 82.93703888 -83.66235352 82.07885742 C-82.77638489 81.19055237 -81.89041626 80.30224731 -80.9776001 79.38702393 C-78.5464394 76.95452444 -76.10467757 74.53368633 -73.65738416 72.1174829 C-71.10140885 69.58903887 -68.55919488 67.04683279 -66.0153656 64.50617981 C-61.74361135 60.24362842 -57.46280358 55.99035475 -53.17553711 51.7434082 C-47.12122404 45.74598003 -41.08427436 39.73130107 -35.0502826 33.71343839 C-30.87709283 29.55268742 -26.699788 25.39606874 -22.52170062 21.24023652 C-21.50666596 20.2305697 -20.49174691 19.22078666 -19.47694135 18.21088958 C-16.14425552 14.89465535 -12.80686016 11.58322339 -9.46704102 8.27416992 C-8.61971909 7.43110794 -7.77239716 6.58804596 -6.8993988 5.71943665 C-6.13233612 4.96097443 -5.36527344 4.20251221 -4.57496643 3.42106628 C-3.56975118 2.42420949 -3.56975118 2.42420949 -2.54422855 1.40721416 C-1 0 -1 0 0 0 Z " fill="#72456F" transform="translate(107,15)"/>
</svg>
