<?xml version="1.0" encoding="UTF-8"?>
<svg version="1.1" xmlns="http://www.w3.org/2000/svg" width="225" height="225">
<path d="M0 0 C74.25 0 148.5 0 225 0 C225 74.25 225 148.5 225 225 C150.75 225 76.5 225 0 225 C0 150.75 0 76.5 0 0 Z " fill="#EB1A23" transform="translate(0,0)"/>
<path d="M0 0 C7.20898918 5.03942672 11.78329686 11.52129345 14.80078125 19.74609375 C16.21142793 30.27673523 15.10214801 38.94567749 8.80078125 47.74609375 C6.37570382 50.54738865 3.87898486 52.69205082 0.80078125 54.74609375 C0.16914063 55.17792969 -0.4625 55.60976562 -1.11328125 56.0546875 C-8.26171214 60.04290473 -17.26717625 59.87025835 -25.19921875 58.74609375 C-28.97860458 57.58758855 -31.97133189 56.00498533 -35.19921875 53.74609375 C-36.80796875 52.69421875 -36.80796875 52.69421875 -38.44921875 51.62109375 C-45.65579902 44.08694165 -48.56200572 35.60921425 -48.41015625 25.359375 C-47.72189442 16.83257566 -43.60894167 8.55788814 -37.125 2.953125 C-25.67571486 -5.13930167 -12.53008234 -7.14414997 0 0 Z " fill="#EB1A23" transform="translate(129.19921875,51.25390625)"/>
<path d="M0 0 C4.38282939 2.27569987 6.88120848 4.52699568 9 9 C9 9.66 9 10.32 9 11 C10.98 11 12.96 11 15 11 C14.50723099 18.14515067 12.87380992 22.12619008 7.6875 27.3125 C4.4404827 29.35132482 1.78940134 29.70279205 -2 30 C-2 31.32 -2 32.64 -2 34 C-0.02 34 1.96 34 4 34 C4 34.66 4 35.32 4 36 C2.02 36 0.04 36 -2 36 C-1.67 39.96 -1.34 43.92 -1 48 C0.98 48 2.96 48 5 48 C5 48.99 5 49.98 5 51 C-1.4515995 52.33901122 -1.4515995 52.33901122 -3.71875 50.9375 C-5.61798888 48.06548022 -5.2884599 45.71148339 -5.1875 42.3125 C-5.16042969 41.13300781 -5.13335937 39.95351562 -5.10546875 38.73828125 C-5.07066406 37.83464844 -5.03585938 36.93101563 -5 36 C-6.32 36 -7.64 36 -9 36 C-9 35.34 -9 34.68 -9 34 C-7.68 34 -6.36 34 -5 34 C-5 32.68 -5 31.36 -5 30 C-6.03125 29.938125 -7.0625 29.87625 -8.125 29.8125 C-12.77609085 28.83727127 -14.69824137 27.3767986 -18 24 C-20.89914347 19.55464669 -21.31571333 16.26188885 -21 11 C-19.02 11 -17.04 11 -15 11 C-14.938125 10.278125 -14.87625 9.55625 -14.8125 8.8125 C-13.7463595 5.12201365 -11.85208836 3.50427271 -9 1 C-5.89046621 -0.5547669 -3.43733239 -0.28644437 0 0 Z " fill="#FDEEEF" transform="translate(116,53)"/>
<path d="M0 0 C7.9680135 6.53409696 13.02761002 13.55493236 14.0703125 24.03515625 C14.55066049 34.94073879 12.67138038 42.89460458 5.6875 51.4375 C-2.13083251 59.45824889 -9.83813471 62.73250669 -20.9375 62.875 C-28.36998724 62.75008425 -34.2030095 61.68608968 -40.3125 57.1875 C-40.951875 56.75308594 -41.59125 56.31867188 -42.25 55.87109375 C-48.9275916 50.81972597 -53.1175398 43.16552887 -55.3125 35.1875 C-56.50676768 23.46701254 -54.39761835 14.21302539 -47.01171875 5.00390625 C-34.26813259 -8.61854792 -15.32518243 -10.88817723 0 0 Z M-45.3125 7.1875 C-51.01920945 15.56134524 -53.12466122 23.12572493 -52.3125 33.1875 C-50.58803127 41.91214265 -46.11425177 49.57662774 -38.75 54.625 C-30.44424573 59.82164839 -21.88842426 60.45461058 -12.3125 59.1875 C-4.14734537 56.73344247 1.97353649 52.26501067 6.6875 45.1875 C7.11933594 44.54425781 7.55117187 43.90101562 7.99609375 43.23828125 C11.81479409 36.30119586 11.91493166 27.87328706 10.6875 20.1875 C7.87467363 11.11254193 2.68716923 4.40972763 -5.68359375 -0.0859375 C-19.71567749 -6.58355263 -34.38916368 -4.37214717 -45.3125 7.1875 Z " fill="#FCE3E3" transform="translate(133.3125,50.8125)"/>
<path d="M0 0 C18.89655172 0 18.89655172 0 23.875 4.8125 C25.44116749 7.85782568 25.54236086 9.61024461 25 13 C23.06149833 16.02980631 20.53650143 18.46349857 18 21 C20.08849753 27.28441221 20.08849753 27.28441221 24.75 31.5625 C25.4925 31.706875 26.235 31.85125 27 32 C26.67 32.99 26.34 33.98 26 35 C23.8125 35.3125 23.8125 35.3125 21 35 C17.27583476 32.18416775 15.74137958 29.52316885 14.1875 25.25 C13.33815526 22.89680594 13.33815526 22.89680594 12 21 C9.13151632 19.86697658 7.14902047 19.94751633 4 20 C4 24.62 4 29.24 4 34 C2.68 34 1.36 34 0 34 C0 22.78 0 11.56 0 0 Z " fill="#FCE1E2" transform="translate(25,129)"/>
<path d="M0 0 C1.54300781 -0.05994141 1.54300781 -0.05994141 3.1171875 -0.12109375 C7.32494063 0.66034612 8.67875364 1.94030685 11.125 5.4375 C11.70568646 8.57255034 11.6003464 11.57574796 11.4375 14.75 C11.41494141 15.58595703 11.39238281 16.42191406 11.36914062 17.28320312 C11.3105061 19.33541149 11.22083215 21.38669202 11.125 23.4375 C12.115 23.4375 13.105 23.4375 14.125 23.4375 C14.125 24.7575 14.125 26.0775 14.125 27.4375 C9.375 26.6875 9.375 26.6875 7.125 24.4375 C6.444375 24.9325 5.76375 25.4275 5.0625 25.9375 C1.42252475 27.79621077 -0.82962873 27.87093264 -4.875 27.4375 C-9.475 25.2375 -9.475 25.2375 -10.875 22.4375 C-11.55516194 15.40915992 -11.55516194 15.40915992 -9.125 11.9375 C-4.17205451 9.65152516 0.75187171 9.95336289 6.125 10.4375 C6.785 10.7675 7.445 11.0975 8.125 11.4375 C6.87523244 7.78433329 6.45401247 6.65684164 3.125 4.4375 C-1.4347248 4.09974261 -4.7532921 4.43909617 -8.875 6.4375 C-8.875 5.1175 -8.875 3.7975 -8.875 2.4375 C-5.48377363 0.17668242 -4.00122394 0.08481397 0 0 Z " fill="#FEF2F2" transform="translate(119.875,136.5625)"/>
<path d="M0 0 C3.54100534 2.02343162 5.73505537 4.09017116 7 8 C7 9.98 7 11.96 7 14 C-0.26 14 -7.52 14 -15 14 C-12.66151858 19.91731018 -12.66151858 19.91731018 -9 22 C-4.25525955 22.30125336 -1.14234361 22.45472214 3 20 C3.99 20 4.98 20 6 20 C5.9375 21.8125 5.9375 21.8125 5 24 C0.26459227 26.65182833 -3.5116561 27.77029388 -9 27 C-13.57518514 24.90373336 -17.17363055 22.85546999 -19 18 C-19.74892176 13.70090104 -19.98072396 9.67264576 -17.7265625 5.828125 C-12.49371509 -0.34918755 -7.97318657 -0.84110205 0 0 Z " fill="#FEF1F1" transform="translate(175,137)"/>
<path d="M0 0 C8.33453459 0.35466105 14.19075519 4.81526725 19.8125 10.75 C27.22863121 19.92530652 28.10243106 29.60434417 27 41 C25.09669383 50.35267004 18.88343104 57.44197042 11.30859375 62.9609375 C2.99268269 67.78077166 -4.70698428 67.63683103 -14 67 C-13.505 66.01 -13.505 66.01 -13 65 C-10.91796875 64.76171875 -10.91796875 64.76171875 -8.1875 64.6875 C0.33375851 64.0448043 9.22545879 60.949954 15.46484375 54.89453125 C21.80890483 47.06534645 24.22375922 38.88000204 23.58203125 28.9140625 C22.35902957 20.68958138 18.72252201 13.32820768 12.01171875 8.24609375 C8.15713177 5.85849521 4.12404231 3.87531904 0 2 C0 1.34 0 0.68 0 0 Z " fill="#FDEEEF" transform="translate(120,46)"/>
<path d="M0 0 C3.49029792 1.97277708 6.19844633 4.39689265 8 8 C8.54317573 12.9509132 8.52241949 16.89488185 6.375 21.4375 C2.77905065 25.31734009 -0.19914989 26.7708009 -5.4375 27.4375 C-10.76894972 26.78276056 -14.24912746 24.92031181 -17.9375 20.875 C-19.54686254 16.5202543 -19.90271626 12.57044532 -19 8 C-14.41357502 0.21570073 -8.73657123 -1.30988482 0 0 Z M-14 7 C-15.72370774 10.44741547 -15.50306672 14.23035339 -15 18 C-13.12379387 20.50160818 -11.76108697 21.61945652 -9 23 C-4.81855989 23.39447548 -2.69053952 23.45035186 0.875 21.125 C3.80038857 18.19961143 3.96503325 17.42659437 4.3125 13.1875 C4.24659984 10.16707585 3.93598182 8.86918024 2.5625 6.0625 C-2.97766431 1.60334336 -9.12011008 1.6626204 -14 7 Z " fill="#FDEDED" transform="translate(74,137)"/>
<path d="M0 0 C2.5625 2 2.5625 2 4 4 C3.01 4.66 2.02 5.32 1 6 C0.01 5.34 -0.98 4.68 -2 4 C-4.33199388 3.92094936 -6.66832622 3.91201231 -9 4 C-8.06675183 7.17092277 -7.52235158 8.66647146 -4.6875 10.4765625 C-3.800625 10.85554687 -2.91375 11.23453125 -2 11.625 C2.80381471 13.70572207 2.80381471 13.70572207 5 17 C5.375 19.4375 5.375 19.4375 5 22 C2.11792313 25.45849224 0.25649597 26.87918308 -4.25 27.3125 C-8.5984842 26.95012632 -10.60382025 25.65067688 -14 23 C-13.505 21.515 -13.505 21.515 -13 20 C-12.319375 20.33 -11.63875 20.66 -10.9375 21 C-7.49159762 22.17307315 -4.61602578 22.14180493 -1 22 C-0.67 20.68 -0.34 19.36 0 18 C-0.66 17.608125 -1.32 17.21625 -2 16.8125 C-2.99 16.214375 -3.98 15.61625 -5 15 C-5.69738281 14.63648438 -6.39476563 14.27296875 -7.11328125 13.8984375 C-9.24996335 12.72193403 -11.14775632 11.58891265 -13 10 C-13.9055343 6.3024016 -13.51537221 4.85148452 -11.5625 1.625 C-7.80159378 -0.75996492 -4.33703005 -0.82761674 0 0 Z " fill="#FDEDED" transform="translate(100,137)"/>
<path d="M0 0 C1.32 0 2.64 0 4 0 C4 2.64 4 5.28 4 8 C6.64 8 9.28 8 12 8 C12 9.32 12 10.64 12 12 C9.36 12 6.72 12 4 12 C4.33 18.27 4.66 24.54 5 31 C6.98 31 8.96 31 11 31 C11.33 31.99 11.66 32.98 12 34 C8.8125 34.8125 8.8125 34.8125 5 35 C2.28125 33.125 2.28125 33.125 0 30 C-0.59740692 26.70344334 -0.47421201 23.52374317 -0.3125 20.1875 C-0.28994141 19.30384766 -0.26738281 18.42019531 -0.24414062 17.50976562 C-0.18547428 15.3391109 -0.09579979 13.1693331 0 11 C-1.32 11 -2.64 11 -4 11 C-4 10.01 -4 9.02 -4 8 C-2.68 8 -1.36 8 0 8 C0 5.36 0 2.72 0 0 Z " fill="#FDE8E9" transform="translate(141,129)"/>
<path d="M0 0 C11.625 -0.25 11.625 -0.25 15 2 C15.36328125 3.875 15.36328125 3.875 15.3125 6 C15.30863281 6.70125 15.30476563 7.4025 15.30078125 8.125 C15 10 15 10 13 12 C9.9609375 12.1953125 9.9609375 12.1953125 6.375 12.125 C5.18648437 12.10695312 3.99796875 12.08890625 2.7734375 12.0703125 C1.85820312 12.04710937 0.94296875 12.02390625 0 12 C0 8.04 0 4.08 0 0 Z " fill="#EA171F" transform="translate(30,133)"/>
<path d="M0 0 C1.32 0 2.64 0 4 0 C4.33 10.23 4.66 20.46 5 31 C6.98 31 8.96 31 11 31 C10.67 32.32 10.34 33.64 10 35 C3.54455522 34.51279662 3.54455522 34.51279662 1.2878418 32.38769531 C-0.45918187 29.14866375 -0.33961601 26.71645913 -0.29296875 23.046875 C-0.28872391 22.38665344 -0.28447906 21.72643188 -0.28010559 21.04620361 C-0.26337435 18.94704609 -0.22573551 16.84886504 -0.1875 14.75 C-0.17244584 13.32293058 -0.15875871 11.89584604 -0.14648438 10.46875 C-0.11349001 6.97885183 -0.06174743 3.4895213 0 0 Z " fill="#FDECEC" transform="translate(188,129)"/>
<path d="M0 0 C0.8353125 1.2375 0.8353125 1.2375 1.6875 2.5 C3.74099978 5.17762797 3.74099978 5.17762797 6.5 5.625 C9.97498228 4.75625443 11.04322016 2.8989331 13 0 C15.62386487 3.06117568 16 3.73173127 16 8 C13.25 10 13.25 10 10 12 C8.63113049 13.29682374 7.2830709 14.61823134 6 16 C4.79557292 14.50260417 3.59114583 13.00520833 2.38671875 11.5078125 C0.87729455 9.74707893 0.87729455 9.74707893 -2 8 C-1.125 1.125 -1.125 1.125 0 0 Z " fill="#EB1B23" transform="translate(106,58)"/>
<path d="M0 0 C1.31677734 0.00966797 1.31677734 0.00966797 2.66015625 0.01953125 C4.9375 0.1875 4.9375 0.1875 6.9375 1.1875 C6.4575 6.5875 6.4575 6.5875 4.3125 9.0625 C1.03524552 10.6148837 -1.48078629 10.51311034 -5.0625 10.1875 C-6.0525 9.5275 -7.0425 8.8675 -8.0625 8.1875 C-8.4375 5.1875 -8.4375 5.1875 -8.0625 2.1875 C-4.79122414 0.00664943 -3.78873277 -0.06137859 0 0 Z " fill="#EB1C24" transform="translate(121.0625,149.8125)"/>
<path d="M0 0 C2.0625 1.875 2.0625 1.875 3 4 C3 4.99 3 5.98 3 7 C-2.94 7 -8.88 7 -15 7 C-11.78453495 -1.03866263 -8.15932443 -2.30253663 0 0 Z " fill="#EA151E" transform="translate(175,141)"/>
<path d="M0 0 C4.92289989 0.43437352 7.48750825 2.643619 11 6 C12.75670469 8.71490725 13 9.71434047 13 13 C8.13168719 12.54713369 5.51440774 11.41678531 2 8 C-0.00796384 4.94024557 0 3.85514114 0 0 Z " fill="#EB1C24" transform="translate(98,67)"/>
<path d="M0 0 C0.8971875 0.309375 0.8971875 0.309375 1.8125 0.625 C-0.03784354 5.68909811 -1.44057484 8.68642728 -6.1875 11.625 C-9 12.375 -9 12.375 -11.1875 12.625 C-10.91137317 8.66718214 -10.44696652 6.92543492 -7.8125 3.875 C-2.74305556 -0.4702381 -2.74305556 -0.4702381 0 0 Z " fill="#EB1922" transform="translate(126.1875,67.375)"/>
<path d="M0 0 C0.721875 0.103125 1.44375 0.20625 2.1875 0.3125 C2.5175 0.9725 2.8475 1.6325 3.1875 2.3125 C2.1975 2.8075 2.1975 2.8075 1.1875 3.3125 C1.69353992 5.48124252 2.18733813 7.31217627 3.1875 9.3125 C0.8125 9 0.8125 9 -1.8125 8.3125 C-2.4725 7.3225 -3.1325 6.3325 -3.8125 5.3125 C-4.493125 6.3025 -4.493125 6.3025 -5.1875 7.3125 C-5.72375 7.9725 -6.26 8.6325 -6.8125 9.3125 C-7.4725 9.3125 -8.1325 9.3125 -8.8125 9.3125 C-8.26122218 4.35099964 -4.99006199 0.55445133 0 0 Z " fill="#FDF0F0" transform="translate(109.8125,53.6875)"/>
<path d="M0 0 C0.33 0 0.66 0 1 0 C1 1.98 1 3.96 1 6 C1.66 6 2.32 6 3 6 C2.5461336 11.44639678 1.39843274 16.57664311 -2 21 C-4.13671875 21.7265625 -4.13671875 21.7265625 -6 22 C-4.90025894 19.20834962 -3.75957823 16.5095396 -2.4375 13.8125 C-0.49603837 9.38047648 -0.27903019 4.78200021 0 0 Z " fill="#FCE2E3" transform="translate(144,77)"/>
<path d="M0 0 C0.33 0.99 0.66 1.98 1 3 C-1.30074488 7.01958931 -4.13994166 9.63367886 -8.375 11.4375 C-9.674375 11.7159375 -9.674375 11.7159375 -11 12 C-10.875 10.25 -10.875 10.25 -10 8 C-8.04109119 6.60699818 -6.0360882 5.27754554 -4 4 C-2.63113049 2.70317626 -1.2830709 1.38176866 0 0 Z " fill="#FDEEEE" transform="translate(128,71)"/>
<path d="M0 0 C0.33 0 0.66 0 1 0 C1.33 3.96 1.66 7.92 2 12 C3.98 12 5.96 12 8 12 C8 12.99 8 13.98 8 15 C4.625 15.625 4.625 15.625 1 16 C0.34 15.34 -0.32 14.68 -1 14 C-0.9765625 10.7421875 -0.9765625 10.7421875 -0.625 6.875 C-0.51414062 5.59367187 -0.40328125 4.31234375 -0.2890625 2.9921875 C-0.19367188 2.00476563 -0.09828125 1.01734375 0 0 Z " fill="#FDEBEB" transform="translate(113,89)"/>
<path d="M0 0 C1.98 0.495 1.98 0.495 4 1 C3.67 2.32 3.34 3.64 3 5 C1.68 4.67 0.36 4.34 -1 4 C-0.67 2.68 -0.34 1.36 0 0 Z " fill="#EA1015" transform="translate(111,56)"/>
<path d="M0 0 C1.98 0 3.96 0 6 0 C6 0.99 6 1.98 6 3 C4.02 3 2.04 3 0 3 C0 2.01 0 1.02 0 0 Z " fill="#EA111A" transform="translate(114,83)"/>
</svg>
