<?xml version="1.0" encoding="UTF-8" standalone="no"?>
<svg
   version="1.1"
   width="595.27557pt"
   height="841.88977pt"
   id="svg16"
   viewBox="0 0 595.27557 841.88977"
   sodipodi:docname="saga-falabella-62.cdr"
   xmlns:inkscape="http://www.inkscape.org/namespaces/inkscape"
   xmlns:sodipodi="http://sodipodi.sourceforge.net/DTD/sodipodi-0.dtd"
   xmlns="http://www.w3.org/2000/svg"
   xmlns:svg="http://www.w3.org/2000/svg">
  <defs
     id="defs16" />
  <sodipodi:namedview
     id="namedview16"
     pagecolor="#ffffff"
     bordercolor="#000000"
     borderopacity="0.25"
     inkscape:showpageshadow="2"
     inkscape:pageopacity="0.0"
     inkscape:pagecheckerboard="0"
     inkscape:deskcolor="#d1d1d1"
     inkscape:document-units="pt" />
  <g
     id="Layer1000">
    <path
       d="m 438.5832,507.283 c 1.7712,0 3.2079,1.4364 3.2079,3.2076 0,1.7715 -1.4367,3.2076 -3.2079,3.2076 -1.7709,0 -3.2074,-1.4361 -3.2074,-3.2076 0,-1.7712 1.4365,-3.2076 3.2074,-3.2076 z"
       style="fill:#b1c900;fill-rule:evenodd"
       id="path1" />
    <path
       d="m 300.9474,492.1257 h -4.8101 l -0.5592,2.4778 c -1.3498,-1.8227 -3.4095,-2.9582 -5.9302,-3.0183 -5.4654,-0.1279 -11.034,4.8559 -12.4352,11.129 -1.4013,6.2735 1.8952,11.4654 7.3605,11.5939 2.7984,0.0659 5.6242,-1.209 7.9032,-3.3102 l 1.5149,2.589 h 2.114 z m -15.2226,19.9021 c 3.2827,0 7.0361,-3.9763 8.3802,-8.8801 1.344,-4.9027 -0.2279,-8.8795 -3.5119,-8.8795 -3.2832,0 -7.0361,3.9768 -8.3801,8.8795 -1.3446,4.9038 0.2284,8.8801 3.5118,8.8801 z"
       style="fill:#b1c900;fill-rule:evenodd"
       id="path2" />
    <path
       d="m 337.1203,492.1257 h -4.8108 l -0.5592,2.4778 c -1.3498,-1.8227 -3.4088,-2.9582 -5.9297,-3.0183 -5.4659,-0.1279 -11.0345,4.8559 -12.4351,11.129 -1.4012,6.2735 1.8953,11.4654 7.3606,11.5939 2.7978,0.0659 5.624,-1.209 7.9025,-3.3102 l 1.5149,2.589 h 2.1146 z m -15.2233,19.9021 c 3.2833,0 7.0361,-3.9763 8.3802,-8.8801 1.3447,-4.9027 -0.2279,-8.8795 -3.5118,-8.8795 -3.2832,0 -7.0361,3.9768 -8.3802,8.8795 -1.3446,4.9038 0.2285,8.8801 3.5118,8.8801 z"
       style="fill:#b1c900;fill-rule:evenodd"
       id="path3" />
    <path
       d="m 314.3136,475.6932 h -4.8107 l -7.4198,32.7898 c -1.1025,4.8716 4.9449,5.6906 7.7866,5.1237 l 0.469,-2.1344 c -0.9289,0.1119 -1.6948,0.1218 -2.2551,0.0564 -1.1522,-0.1341 -1.5389,-1.4957 -0.99,-3.9228 z"
       style="fill:#b1c900;fill-rule:evenodd"
       id="path4" />
    <path
       d="m 344.9606,475.6932 h 4.8102 l -4.2767,18.904 c 2.1741,-1.8187 4.7456,-2.9519 7.2892,-3.012 5.5241,-0.1279 8.8348,4.8559 7.3931,11.129 -1.4411,6.2735 -7.0892,11.4654 -12.6133,11.5939 -2.8276,0.0659 -5.0758,-1.209 -6.4027,-3.3102 l -2.6886,2.589 h -2.1135 c 2.8732,-12.6321 5.7435,-25.2591 8.6023,-37.8937 z m 2.4007,36.3346 c -3.2838,0 -5.1499,-3.9349 -4.168,-8.787 0.982,-4.8514 4.4405,-8.7863 7.7244,-8.7863 3.2833,0 5.1501,3.9349 4.1682,8.7863 -0.9825,4.8521 -4.4412,8.787 -7.7246,8.787 z"
       style="fill:#b1c900;fill-rule:evenodd"
       id="path5" />
    <path
       d="m 376.2159,491.5876 c 5.9074,0.1291 9.7208,5.3208 8.5155,11.5942 -0.0366,0.1916 -0.0782,0.3815 -0.1234,0.5708 h -16.8213 c -0.2491,4.4059 2.1528,7.8102 5.7108,7.8102 1.7639,0 3.5066,-0.8369 4.9541,-2.2169 l 1.7662,1.6556 c -2.3568,2.1002 -5.3419,3.3746 -8.3654,3.3089 -5.9067,-0.1286 -9.7202,-5.3203 -8.5155,-11.5937 1.2046,-6.2734 6.9721,-11.2572 12.879,-11.1291 z m 4.0299,9.3135 c 0.3273,-3.9887 -1.4663,-7.0054 -4.3994,-7.0054 -2.9331,0 -6.0246,3.0167 -7.4132,7.0054 z"
       style="fill:#b1c900;fill-rule:evenodd"
       id="path6" />
    <path
       d="m 399.4503,475.6932 h -4.8107 l -7.42,32.7898 c -1.1023,4.8716 4.9449,5.6906 7.7867,5.1237 l 0.4689,-2.1344 c -0.9287,0.1119 -1.6947,0.1218 -2.255,0.0564 -1.1522,-0.1341 -1.5388,-1.4957 -0.9899,-3.9228 z"
       style="fill:#b1c900;fill-rule:evenodd"
       id="path7" />
    <path
       d="m 411.0099,475.6932 h -4.8103 l -7.4204,32.7898 c -1.1019,4.8716 4.9454,5.6906 7.7872,5.1237 l 0.4689,-2.1344 c -0.9293,0.1119 -1.6948,0.1218 -2.2557,0.0564 -1.1515,-0.1341 -1.5382,-1.4957 -0.9893,-3.9228 z"
       style="fill:#b1c900;fill-rule:evenodd"
       id="path8" />
    <path
       d="m 432.7122,492.1257 h -4.8107 l -0.5593,2.4778 c -1.3497,-1.8227 -3.4088,-2.9582 -5.9295,-3.0183 -5.466,-0.1279 -11.0346,4.8559 -12.4359,11.129 -1.4005,6.2735 1.8953,11.4654 7.3606,11.5939 2.7989,0.0659 5.6242,-1.209 7.9033,-3.3102 l 1.5154,2.589 h 2.1135 z m -15.2232,19.9021 c 3.2833,0 7.0361,-3.9763 8.3801,-8.8801 1.3447,-4.9027 -0.2284,-8.8795 -3.5116,-8.8795 -3.2834,0 -7.0363,3.9768 -8.3804,8.8795 -1.3445,4.9038 0.2287,8.8801 3.5119,8.8801 z"
       style="fill:#b1c900;fill-rule:evenodd"
       id="path9" />
    <path
       d="m 197.3368,492.1257 h -4.8102 l -0.5593,2.4778 c -1.3497,-1.8227 -3.4091,-2.9582 -5.9298,-3.0183 -5.466,-0.1279 -11.0345,4.8559 -12.4356,11.129 -1.4009,6.2735 1.8953,11.4654 7.3608,11.5939 2.7982,0.0659 5.6238,-1.209 7.903,-3.3102 l 1.515,2.589 h 2.1138 z m -15.2231,19.9021 c 3.2834,0 7.0361,-3.9763 8.3807,-8.8801 1.3439,-4.9027 -0.2285,-8.8795 -3.512,-8.8795 -3.2833,0 -7.0361,3.9768 -8.3806,8.8795 -1.3443,4.9038 0.2284,8.8801 3.5119,8.8801 z"
       style="fill:#b1c900;fill-rule:evenodd"
       id="path10" />
    <path
       d="m 246.8524,492.1257 h -4.81 l -0.5593,2.4778 c -1.3497,-1.8227 -3.4095,-2.9582 -5.9302,-3.0183 -5.4653,-0.1279 -11.034,4.8559 -12.4352,11.129 -1.4006,6.2735 1.8952,11.4654 7.3606,11.5939 2.7984,0.0659 5.624,-1.209 7.9031,-3.3102 l 1.5154,2.589 h 2.1135 z m -15.2226,19.9021 c 3.2834,0 7.0361,-3.9763 8.3802,-8.8801 1.3446,-4.9027 -0.2285,-8.8795 -3.5118,-8.8795 -3.2832,0 -7.0361,3.9768 -8.3807,8.8795 -1.344,4.9038 0.2285,8.8801 3.5123,8.8801 z"
       style="fill:#b1c900;fill-rule:evenodd"
       id="path11" />
    <path
       d="m 199.9404,519.4702 1.2585,-0.4514 c 1.4331,1.5978 3.1518,2.1151 4.9865,1.7841 4.8633,-0.8779 6.3998,-6.3782 7.119,-9.5105 -2.1078,1.8224 -4.6046,2.9589 -7.0783,3.018 -5.3643,0.1282 -8.5944,-4.8556 -7.2133,-11.1286 1.3817,-6.2734 6.8522,-11.4651 12.2158,-11.5942 2.747,-0.0657 4.9335,1.2097 6.2285,3.3107 l 2.6035,-2.5893 h 2.0524 l -4.2595,19.5443 c -0.8237,3.7785 -2.9103,8.3954 -7.6822,10.3502 -4.2428,1.7387 -8.7326,0.337 -10.2309,-2.7333 z m 11.4098,-25.6018 c 3.1885,0 5.0952,3.9762 4.2573,8.8797 -0.8374,4.903 -4.1025,8.8793 -7.2914,8.8793 -3.1885,0 -5.0952,-3.9763 -4.2578,-8.8793 0.8379,-4.9035 4.103,-8.8797 7.2919,-8.8797 z"
       style="fill:#b1c900;fill-rule:evenodd"
       id="path12" />
    <path
       d="m 172.4117,493.9027 0.0814,0.092 h -2.4877 c -0.5945,-0.5735 -1.5754,-0.9391 -2.6177,-0.9231 -1.147,0.0176 -2.3269,0.4615 -3.0226,1.2463 -0.7531,0.8512 -0.9805,1.8387 -0.827,2.7932 0.2946,1.8353 1.8351,2.9406 3.1194,4.1009 1.5345,1.3876 3.4116,2.7404 3.6153,4.9815 0.1491,1.6391 -0.6442,3.3366 -2.2649,4.8585 -2.437,2.0698 -5.3004,3.3238 -7.9927,3.2584 -2.3794,-0.0577 -4.2201,-1.1362 -5.3412,-2.8731 l 0.0254,-0.0226 h 2.0387 c 1.7937,1.6518 4.9944,1.4462 6.676,0.2811 1.3724,-0.9516 1.626,-2.2057 1.4914,-3.2217 -0.2106,-1.5853 -1.5997,-2.925 -2.9422,-4.1877 -1.5344,-1.443 -3.4109,-2.8512 -3.6144,-5.1823 -0.1595,-1.8251 0.7134,-3.7728 2.6187,-5.386 1.4392,-1.2177 3.5846,-2.1208 5.7859,-2.1752 2.0039,-0.0495 4.0536,0.6033 5.6582,2.3598 z"
       style="fill:#b1c900;fill-rule:evenodd"
       id="path13" />
    <path
       d="m 274.1898,475.6955 c 1.0054,-4.4543 4.2453,-6.59 8.1877,-6.3708 l 0.2029,-1.7999 c -6.9688,-0.6625 -12.1708,3.6067 -13.4492,9.2674 l -3.4849,15.4322 h -8.2328 l -0.4244,2.5196 h 8.0882 l -5.4554,24.114 c -0.809,3.5775 -2.707,8.6816 -7.5468,8.5688 l -0.3674,1.5853 c 8.6515,0.9255 11.6852,-5.489 13.2681,-12.5021 l 4.914,-21.766 h 8.3727 l 0.4251,-2.5196 h -8.2295 z"
       style="fill:#b1c900;fill-rule:evenodd"
       id="path14" />
    <path
       d="m 329.3324,358.4387 c 4.4462,0 8.0472,3.6061 8.0472,8.0489 0,4.444 -3.601,8.0466 -8.0472,8.0466 -4.4422,0 -8.046,-3.6026 -8.046,-8.0466 0,-4.4428 3.6038,-8.0489 8.046,-8.0489 z"
       style="fill:#b1c900;fill-rule:evenodd"
       id="path15" />
    <path
       d="m 319.4425,286.9546 c 3.0269,-13.4119 12.7803,-19.8403 24.651,-19.1794 l 0.6079,-5.419 c -20.9765,-1.9942 -36.6373,10.8591 -40.4867,27.8994 l -10.489,46.4579 h -24.7859 l -1.2799,7.588 h 24.3505 l -16.4211,72.5905 c -2.4367,10.7701 -8.1499,26.1345 -22.7186,25.7974 l -1.1081,4.773 c 26.0453,2.7841 35.1783,-16.5261 39.9427,-37.639 l 14.7931,-65.5219 h 25.2057 l 1.2806,-7.588 h -24.7749 z"
       style="fill:#b1c900;fill-rule:evenodd"
       id="path16" />
  </g>
</svg>
