<?xml version="1.0" encoding="UTF-8"?>
<svg version="1.1" xmlns="http://www.w3.org/2000/svg" width="360" height="360">
<path d="M0 0 C118.8 0 237.6 0 360 0 C360 118.8 360 237.6 360 360 C241.2 360 122.4 360 0 360 C0 241.2 0 122.4 0 0 Z " fill="#BDD500" transform="translate(0,0)"/>
<path d="M0 0 C118.8 0 237.6 0 360 0 C360 23.43 360 46.86 360 71 C359.67 71 359.34 71 359 71 C358.91363281 70.06800781 358.82726562 69.13601562 358.73828125 68.17578125 C357.73886404 59.10767463 355.82355516 51.36671199 352 43 C351.40445313 41.63294922 351.40445313 41.63294922 350.796875 40.23828125 C344.74619138 27.75419004 334.16706745 17.45670341 322 11 C320.56720703 10.18789063 320.56720703 10.18789063 319.10546875 9.359375 C304.60495415 1.52947721 290.45728129 1.55935334 274.3894043 1.59594727 C272.11790635 1.59023659 269.84641127 1.58326964 267.57492065 1.57514954 C261.43634045 1.55727902 255.29790368 1.55837518 249.15930533 1.56409192 C244.02049199 1.567193 238.88170584 1.56108103 233.74289638 1.55505317 C220.91966078 1.54022902 208.0965253 1.54380437 195.27329365 1.55591648 C184.17213927 1.5658426 173.07115172 1.55291305 161.97002306 1.52898229 C150.53378351 1.50451749 139.09765084 1.49540003 127.66138011 1.50163502 C121.25586185 1.50499396 114.85048133 1.50266046 108.44498253 1.48538399 C102.41769385 1.46983567 96.39072181 1.47395766 90.36344528 1.49268913 C88.16256454 1.49635341 85.96165993 1.49333034 83.76080132 1.48280334 C59.11725225 1.37400943 39.3119113 6.17744604 21.046875 23.89453125 C9.04616228 36.73313157 1.864886 53.75479512 1.87974548 71.37814331 C1.87837082 72.64010025 1.87699615 73.90205719 1.87557983 75.20225525 C1.87911827 76.58779931 1.88275307 77.97334313 1.88647461 79.35888672 C1.88675689 80.82773334 1.88659795 82.2965801 1.8860321 83.76542664 C1.88574571 87.74222966 1.89161689 91.7190024 1.89860606 95.6957984 C1.90486592 99.85580128 1.90544548 104.0158049 1.90663147 108.17581177 C1.90973702 116.04858816 1.91793996 123.92135064 1.92798096 131.79412091 C1.93916618 140.75902106 1.94465862 149.72392188 1.94967639 158.68882728 C1.96012322 177.12589274 1.97770764 195.56294525 2 214 C2.75436844 213.68473358 3.50873688 213.36946716 4.28596497 213.04464722 C7.5948172 211.77105154 10.90375349 211.19083987 14.38671875 210.6328125 C15.10797943 210.51326706 15.82924011 210.39372162 16.57235718 210.27055359 C18.94290525 209.88107779 21.31492793 209.50193963 23.6875 209.125 C24.50821991 208.9933847 25.32893982 208.86176941 26.17453003 208.72616577 C68.29100953 201.99993167 111.31383745 197.43503608 154 198 C153.814375 198.969375 153.62875 199.93875 153.4375 200.9375 C153.293125 201.948125 153.14875 202.95875 153 204 C153.33 204.33 153.66 204.66 154 205 C154.12761719 203.85257324 154.25523437 202.70514648 154.38671875 201.52294922 C154.93444874 197.15537812 155.81774953 192.91765569 156.8125 188.6328125 C156.98628174 187.87201385 157.16006348 187.11121521 157.33911133 186.32736206 C157.70367465 184.7353851 158.07015186 183.1438453 158.43847656 181.55273438 C159.00305355 179.11179804 159.56054797 176.6693198 160.1171875 174.2265625 C160.4735439 172.67438396 160.8303003 171.12229719 161.1875 169.5703125 C161.43753784 168.4750676 161.43753784 168.4750676 161.69262695 167.35769653 C162.88440904 162.23118192 162.88440904 162.23118192 164 160 C152.78 160 141.56 160 130 160 C130 156.7 130 153.4 130 150 C142.21 150 154.42 150 167 150 C167.66 146.04 168.32 142.08 169 138 C169.56750713 135.61597441 170.16792573 133.23935327 170.8125 130.875 C172.71474138 123.66636365 174.08604347 116.39183608 175.4375 109.0625 C180.12046542 84.21182445 187.06636973 61.13630715 209 46 C219.31288807 39.65360734 229.29760663 39.74436519 241 40 C240.34 42.97 239.68 45.94 239 49 C238.29875 49.01417969 237.5975 49.02835938 236.875 49.04296875 C227.36389823 49.52110838 222.30486522 52.34386875 215.8125 59.1875 C208.62627342 67.74921527 205.59598316 77.60936593 202.53466797 88.16210938 C202.09011751 89.6902262 201.62742042 91.2130498 201.16015625 92.734375 C198.83297553 100.63421009 197.47539806 108.7443693 195.9765625 116.83203125 C195.18602253 121.07480204 194.30920031 125.28666225 193.375 129.5 C192.13759397 135.12212738 191.22226191 140.75215116 190.4296875 146.453125 C190 149 190 149 189 151 C199.56 151 210.12 151 221 151 C221 154.3 221 157.6 221 161 C209.45 161 197.9 161 186 161 C186 163.31 186 165.62 186 168 C185.47198489 170.31040116 184.86293354 172.60331714 184.1875 174.875 C181.81906537 183.14651434 180.37096814 191.51453808 179 200 C179.33 199.34 179.66 198.68 180 198 C184.12498538 197.97107615 188.24994485 197.95322733 192.375 197.9375 C193.550625 197.92912109 194.72625 197.92074219 195.9375 197.91210938 C197.05898437 197.90888672 198.18046875 197.90566406 199.3359375 197.90234375 C200.37282715 197.89710693 201.4097168 197.89187012 202.47802734 197.88647461 C205 198 205 198 207 199 C206.9175 197.80375 206.835 196.6075 206.75 195.375 C206.76596351 190.85732671 208.00686637 188.46573367 211 185 C214.02182304 182.5037114 216.06734291 181.15875014 219.9375 180.5 C224.9749194 181.32243582 228.55669683 183.37046416 231.9375 187.1875 C233.00594721 190.01574262 233.11212211 191.69887212 233.06640625 194.67578125 C233.05202515 195.89068237 233.05202515 195.89068237 233.03735352 197.13012695 C233.02502686 197.74718506 233.0127002 198.36424316 233 199 C233.92820557 199.06993164 234.85641113 199.13986328 235.81274414 199.21191406 C273.97572757 202.12966659 312.49538808 206.13093032 349.81347656 214.97070312 C353.08790389 215.72744547 354.73707758 216.08764081 358 215 C358.33 211.7 358.66 208.4 359 205 C359.33 205 359.66 205 360 205 C360 256.15 360 307.3 360 360 C241.2 360 122.4 360 0 360 C0 241.2 0 122.4 0 0 Z " fill="#C3D917" transform="translate(0,0)"/>
<path d="M0 0 C-0.66 2.97 -1.32 5.94 -2 9 C-3.051875 9.02126953 -3.051875 9.02126953 -4.125 9.04296875 C-13.63610177 9.52110838 -18.69513478 12.34386875 -25.1875 19.1875 C-32.37372658 27.74921527 -35.40401684 37.60936593 -38.46533203 48.16210938 C-38.90988249 49.6902262 -39.37257958 51.2130498 -39.83984375 52.734375 C-42.16702447 60.63421009 -43.52460194 68.7443693 -45.0234375 76.83203125 C-45.81397747 81.07480204 -46.69079969 85.28666225 -47.625 89.5 C-48.86240603 95.12212738 -49.77773809 100.75215116 -50.5703125 106.453125 C-51 109 -51 109 -52 111 C-41.44 111 -30.88 111 -20 111 C-20 114.3 -20 117.6 -20 121 C-31.55 121 -43.1 121 -55 121 C-55 123.31 -55 125.62 -55 128 C-55.52727138 130.3312354 -56.13616889 132.64506683 -56.8125 134.9375 C-58.32867397 140.26012481 -59.54891079 145.54837528 -60.5 151 C-61.64521877 157.51269282 -63.25224535 163.80865408 -65.0234375 170.18359375 C-66.39890887 175.55893586 -67.35316147 180.9746432 -68.2890625 186.44140625 C-68.95362104 189.76785036 -69.90352384 192.79623373 -71 196 C-71.49022032 198.05515443 -71.94659908 200.11857556 -72.375 202.1875 C-72.76365234 204.02248047 -72.76365234 204.02248047 -73.16015625 205.89453125 C-73.75924246 208.78270542 -74.32161046 211.67622568 -74.87109375 214.57421875 C-78.94657933 235.64493276 -86.10113903 257.32224217 -104.375 270.375 C-114.87420874 276.7359664 -124.04184972 277.5401423 -136 277 C-134.125 271.25 -134.125 271.25 -133 269 C-130.99609375 268.578125 -130.99609375 268.578125 -128.4375 268.25 C-120.76638336 266.81645324 -116.13476905 262.97195319 -111.75 256.625 C-110.81195808 255.0962452 -109.89390875 253.554973 -109 252 C-108.63132813 251.38511719 -108.26265625 250.77023437 -107.8828125 250.13671875 C-102.1418971 239.74521684 -100.47586446 227.89245852 -99.03881836 216.28442383 C-98.44739696 211.60017255 -97.57440791 207.47107246 -96 203 C-95.50607829 200.52767758 -95.05043211 198.04752401 -94.625 195.5625 C-93.70046969 190.37850536 -92.61145357 185.32541956 -91.1875 180.25 C-89.19167308 173.03607599 -87.61082183 165.75960826 -86.0625 158.4375 C-84.15255718 149.40526408 -82.22378843 140.37971904 -80.1875 131.375 C-79.98068604 130.45130615 -79.77387207 129.5276123 -79.56079102 128.57592773 C-79.36928467 127.73360596 -79.17777832 126.89128418 -78.98046875 126.0234375 C-78.81442139 125.29044434 -78.64837402 124.55745117 -78.47729492 123.80224609 C-78 122 -78 122 -77 120 C-88.22 120 -99.44 120 -111 120 C-111 116.7 -111 113.4 -111 110 C-98.79 110 -86.58 110 -74 110 C-73.34 106.04 -72.68 102.08 -72 98 C-71.43249287 95.61597441 -70.83207427 93.23935327 -70.1875 90.875 C-68.28525862 83.66636365 -66.91395653 76.39183608 -65.5625 69.0625 C-60.87953458 44.21182445 -53.93363027 21.13630715 -32 6 C-21.68711193 -0.34639266 -11.70239337 -0.25563481 0 0 Z " fill="#FDFEFB" transform="translate(241,40)"/>
<path d="M0 0 C118.8 0 237.6 0 360 0 C360 23.43 360 46.86 360 71 C359.67 71 359.34 71 359 71 C358.91363281 70.06800781 358.82726562 69.13601562 358.73828125 68.17578125 C357.73886404 59.10767463 355.82355516 51.36671199 352 43 C351.40445313 41.63294922 351.40445313 41.63294922 350.796875 40.23828125 C344.74619138 27.75419004 334.16706745 17.45670341 322 11 C320.56720703 10.18789063 320.56720703 10.18789063 319.10546875 9.359375 C304.60495415 1.52947721 290.45728129 1.55935334 274.3894043 1.59594727 C272.11790635 1.59023659 269.84641127 1.58326964 267.57492065 1.57514954 C261.43634045 1.55727902 255.29790368 1.55837518 249.15930533 1.56409192 C244.02049199 1.567193 238.88170584 1.56108103 233.74289638 1.55505317 C220.91966078 1.54022902 208.0965253 1.54380437 195.27329365 1.55591648 C184.17213927 1.5658426 173.07115172 1.55291305 161.97002306 1.52898229 C150.53378351 1.50451749 139.09765084 1.49540003 127.66138011 1.50163502 C121.25586185 1.50499396 114.85048133 1.50266046 108.44498253 1.48538399 C102.41769385 1.46983567 96.39072181 1.47395766 90.36344528 1.49268913 C88.16256454 1.49635341 85.96165993 1.49333034 83.76080132 1.48280334 C59.11725225 1.37400943 39.3119113 6.17744604 21.046875 23.89453125 C7.95023957 37.90557141 1.83255552 55.42204562 1.86628723 74.38592529 C1.86402167 75.32321323 1.86175612 76.26050116 1.85942191 77.22619176 C1.85309857 80.36272115 1.85391021 83.49920714 1.85473633 86.63574219 C1.85174378 88.88638362 1.84834103 91.13702455 1.84455872 93.38766479 C1.83572376 99.49935901 1.8333808 105.61103923 1.83274293 111.72273922 C1.83203208 115.54240756 1.82989709 119.36207235 1.82724571 123.18173981 C1.81847107 135.82326849 1.81382579 148.46478695 1.81457619 161.10631785 C1.81461614 161.78730718 1.8146561 162.46829651 1.81469727 163.16992188 C1.81473815 163.85174716 1.81477903 164.53357244 1.81482115 165.2360591 C1.8152274 176.28023038 1.80566238 187.32436752 1.7915589 198.36852893 C1.7771768 209.72087527 1.77047265 221.07319981 1.77115268 232.42555737 C1.77140745 238.79406337 1.76856776 245.16253075 1.75797462 251.53102875 C1.74828026 257.52282724 1.7482237 263.51455029 1.75549126 269.50635147 C1.75653546 271.70168544 1.75418397 273.89702414 1.7481308 276.09235001 C1.74038464 279.09703477 1.7450731 282.10146073 1.75276184 285.10614014 C1.7450465 286.3986856 1.7450465 286.3986856 1.73717529 287.71734309 C1.82445656 303.2307412 7.08027737 319.02722002 17 331 C17.6909375 331.85207031 18.381875 332.70414062 19.09375 333.58203125 C30.93939184 347.49231842 46.16486654 353.31667768 63 359 C63 359.33 63 359.66 63 360 C42.21 360 21.42 360 0 360 C0 241.2 0 122.4 0 0 Z " fill="#F1F6D1" transform="translate(0,0)"/>
<path d="M0 0 C96.36 0 192.72 0 292 0 C292 23.43 292 46.86 292 71 C291.67 71 291.34 71 291 71 C290.91363281 70.06800781 290.82726562 69.13601562 290.73828125 68.17578125 C289.73886404 59.10767463 287.82355516 51.36671199 284 43 C283.40445313 41.63294922 283.40445313 41.63294922 282.796875 40.23828125 C276.74619138 27.75419004 266.16706745 17.45670341 254 11 C252.56720703 10.18789063 252.56720703 10.18789063 251.10546875 9.359375 C236.6474362 1.5524164 222.52473813 1.55463141 206.50268555 1.56762695 C204.24463366 1.55859787 201.98658667 1.54826786 199.72854614 1.53674316 C193.63238982 1.50928181 187.53632678 1.49990342 181.44011664 1.49388909 C175.05662357 1.48447708 168.6731994 1.45827144 162.28974915 1.43388367 C151.58648227 1.39523778 140.88324546 1.36685267 130.17993164 1.34643555 C119.16167529 1.32538927 108.14346339 1.29808254 97.12524414 1.26245117 C96.44463756 1.26025235 95.76403098 1.25805352 95.06279995 1.25578807 C91.64796555 1.2447175 88.23313155 1.23352487 84.81829774 1.22227156 C56.54557131 1.12925869 28.27281885 1.05780196 0 1 C0 0.67 0 0.34 0 0 Z " fill="#FEFEFE" transform="translate(68,0)"/>
<path d="M0 0 C22.44 0 44.88 0 68 0 C64.74418745 1.62790628 62.17157389 2.48536309 58.6706543 3.2409668 C38.58917238 7.62442907 23.17158994 18.91837797 11.875 36 C5.64628434 46.40533508 2.69742346 58.04203175 1 70 C0.67 70 0.34 70 0 70 C0 46.9 0 23.8 0 0 Z " fill="#F8F8F7" transform="translate(0,0)"/>
<path d="M0 0 C0.33 0 0.66 0 1 0 C1 24.75 1 49.5 1 75 C-21.44 75 -43.88 75 -67 75 C-63.74414697 73.37207348 -61.17128714 72.51473064 -57.67041016 71.75878906 C-44.32491504 68.84692883 -33.21902944 63.18792016 -23 54 C-22.37738281 53.47019531 -21.75476563 52.94039063 -21.11328125 52.39453125 C-12.82583405 44.85202312 -7.70517315 34.41850669 -4 24 C-3.6596875 23.28457031 -3.319375 22.56914062 -2.96875 21.83203125 C-1.55212965 17.69070159 -1.27009301 13.53028465 -0.875 9.1875 C-0.74544922 7.86202148 -0.74544922 7.86202148 -0.61328125 6.50976562 C-0.40221556 4.34047942 -0.20020574 2.17031542 0 0 Z " fill="#F7F7F6" transform="translate(359,285)"/>
<path d="M0 0 C3.65032781 1.45857116 6.32851513 3.24187192 8.9375 6.1875 C10.45720564 10.21025023 10.80600857 13.76099197 10 18 C8.32969358 21.12851044 6.01181885 23.23241328 3.1875 25.375 C-1.35063555 26.67161016 -5.40525899 26.61614993 -9.75 24.9375 C-13.63284463 21.59393934 -15.6741921 17.99557337 -16.5 12.9375 C-15.62274815 7.7836454 -13.08677856 4.8977736 -9.125 1.625 C-5.57122117 -0.22296499 -3.93938391 -0.64316472 0 0 Z " fill="#FCFDF8" transform="translate(223,181)"/>
<path d="M0 0 C86.46 0 172.92 0 262 0 C262 4.29 262 8.58 262 13 C256.69659042 13 253.13995634 10.63160675 248.63476562 8.10742188 C235.30468529 1.03352335 221.16979026 1.55573041 206.50268555 1.56762695 C204.24463366 1.55859787 201.98658667 1.54826786 199.72854614 1.53674316 C193.63238982 1.50928181 187.53632678 1.49990342 181.44011664 1.49388909 C175.05662357 1.48447708 168.6731994 1.45827144 162.28974915 1.43388367 C151.58648227 1.39523778 140.88324546 1.36685267 130.17993164 1.34643555 C119.16167529 1.32538927 108.14346339 1.29808254 97.12524414 1.26245117 C96.44463756 1.26025235 95.76403098 1.25805352 95.06279995 1.25578807 C91.64796555 1.2447175 88.23313155 1.23352487 84.81829774 1.22227156 C56.54557131 1.12925869 28.27281885 1.05780196 0 1 C0 0.67 0 0.34 0 0 Z " fill="#E2E9A2" transform="translate(68,0)"/>
<path d="M0 0 C7.94344 4.91159267 17.10928339 7.43144299 25.9375 10.3125 C25.9375 10.6425 25.9375 10.9725 25.9375 11.3125 C10.0975 11.3125 -5.7425 11.3125 -22.0625 11.3125 C-22.0625 6.3625 -22.0625 1.4125 -22.0625 -3.6875 C-7.55315927 -5.15308997 -7.55315927 -5.15308997 0 0 Z " fill="#FEFEFE" transform="translate(37.0625,348.6875)"/>
<path d="M0 0 C4.95 0 9.9 0 15 0 C15 13.53 15 27.06 15 41 C14.67 41 14.34 41 14 41 C13.91363281 40.06800781 13.82726562 39.13601562 13.73828125 38.17578125 C12.25234228 24.69327077 7.76858636 13.75934782 1 2 C0.67 1.34 0.34 0.68 0 0 Z " fill="#EEEEEA" transform="translate(345,30)"/>
<path d="M0 0 C1.36125 0.825 2.7225 1.65 4.125 2.5 C13.22573468 7.51199881 23.21080922 10.60869373 33 14 C33 14.33 33 14.66 33 15 C22.11 15 11.22 15 0 15 C0 10.05 0 5.1 0 0 Z " fill="#EFEFEC" transform="translate(30,345)"/>
<path d="M0 0 C4.95 0.33 9.9 0.66 15 1 C15 5.95 15 10.9 15 16 C10.05 16 5.1 16 0 16 C0 10.72 0 5.44 0 0 Z " fill="#EEEEED" transform="translate(330,344)"/>
<path d="M0 0 C4.95 0 9.9 0 15 0 C15 4.95 15 9.9 15 15 C10.05 15 5.1 15 0 15 C0 10.05 0 5.1 0 0 Z " fill="#FFFFFF" transform="translate(345,345)"/>
<path d="M0 0 C4.95 0 9.9 0 15 0 C15 4.95 15 9.9 15 15 C10.05 15 5.1 15 0 15 C0 10.05 0 5.1 0 0 Z " fill="#EFEFEE" transform="translate(0,345)"/>
<path d="M0 0 C4.95 0 9.9 0 15 0 C15 4.95 15 9.9 15 15 C10.05 15 5.1 15 0 15 C0 10.05 0 5.1 0 0 Z " fill="#FFFFFF" transform="translate(345,15)"/>
<path d="M0 0 C4.95 0 9.9 0 15 0 C15 4.95 15 9.9 15 15 C10.05 15 5.1 15 0 15 C0 10.05 0 5.1 0 0 Z " fill="#EFEFEE" transform="translate(0,15)"/>
<path d="M0 0 C4.95 0 9.9 0 15 0 C15 4.95 15 9.9 15 15 C10.05 15 5.1 15 0 15 C0 10.05 0 5.1 0 0 Z " fill="#EFEFEE" transform="translate(345,0)"/>
<path d="M0 0 C4.95 0 9.9 0 15 0 C15 4.95 15 9.9 15 15 C10.05 15 5.1 15 0 15 C0 10.05 0 5.1 0 0 Z " fill="#FFFFFF" transform="translate(0,0)"/>
<path d="M0 0 C0.66 0 1.32 0 2 0 C2.1858667 0.53367187 2.3717334 1.06734375 2.56323242 1.6171875 C3.42801552 4.08175269 4.30764476 6.54077728 5.1875 9 C5.47947266 9.83917969 5.77144531 10.67835938 6.07226562 11.54296875 C7.89976859 16.6128157 9.99896648 20.91620944 13.13793945 25.30859375 C13.42241943 25.86675781 13.70689941 26.42492187 14 27 C13.67 27.99 13.34 28.98 13 30 C8.71 30 4.42 30 0 30 C0 20.1 0 10.2 0 0 Z " fill="#EFEFEC" transform="translate(0,300)"/>
<path d="M0 0 C4.95 0 9.9 0 15 0 C13.35 1.65 11.7 3.3 10 5 C7.60745455 7.64337683 5.24860902 10.31407752 2.890625 12.98828125 C2.26671875 13.65214844 1.6428125 14.31601562 1 15 C0.67 15 0.34 15 0 15 C0 10.05 0 5.1 0 0 Z " fill="#FEFEFC" transform="translate(15,15)"/>
<path d="M0 0 C4.95 0 9.9 0 15 0 C15 4.95 15 9.9 15 15 C10 10 5 5 0 0 Z " fill="#EEEFE7" transform="translate(330,15)"/>
<path d="M0 0 C4.30357759 1.0758944 4.89541105 1.6172135 7.5625 4.875 C9.62391463 7.36338916 11.67537129 9.75309443 14 12 C13 13 13 13 10.05859375 13.09765625 C6.70572917 13.06510417 3.35286458 13.03255208 0 13 C0 8.71 0 4.42 0 0 Z " fill="#EFEFEB" transform="translate(15,332)"/>
<path d="M0 0 C0.33 0 0.66 0 1 0 C1 4.62 1 9.24 1 14 C-3.62 14 -8.24 14 -13 14 C-13 13.34 -13 12.68 -13 12 C-11.42578125 10.44921875 -11.42578125 10.44921875 -9.3125 8.6875 C-6.79745126 6.5559516 -4.35996922 4.42754184 -2.0625 2.0625 C-1.381875 1.381875 -0.70125 0.70125 0 0 Z " fill="#FDFDFD" transform="translate(344,331)"/>
<path d="M0 0 C2.31 0 4.62 0 7 0 C6.73445312 0.88300781 6.46890625 1.76601563 6.1953125 2.67578125 C4.01775962 10.07469268 2.18236779 17.37683928 1 25 C0.67 25 0.34 25 0 25 C0 16.75 0 8.5 0 0 Z " fill="#EFF0E2" transform="translate(0,45)"/>
<path d="M0 0 C0.33 0 0.66 0 1 0 C1 9.9 1 19.8 1 30 C-1.31 30.33 -3.62 30.66 -6 31 C-5.80664062 30.38253906 -5.61328125 29.76507813 -5.4140625 29.12890625 C-2.41025413 19.35909387 -0.65719782 10.2211556 0 0 Z " fill="#EBEED6" transform="translate(359,285)"/>
<path d="M0 0 C0 1.98 0 3.96 0 6 C-7.59 6 -15.18 6 -23 6 C-19.02625007 4.01312504 -15.21643059 2.91488412 -10.9375 1.875 C-10.21755859 1.69324219 -9.49761719 1.51148438 -8.75585938 1.32421875 C-5.76542463 0.58563412 -3.09200343 0 0 0 Z " fill="#EFF0E4" transform="translate(315,354)"/>
<path d="M0 0 C7.59 0 15.18 0 23 0 C18.6049021 2.19754895 14.57615534 3.15094656 9.8125 4.1875 C8.56436523 4.47270508 8.56436523 4.47270508 7.29101562 4.76367188 C5.20419208 5.22457585 3.10274533 5.61825787 1 6 C0.67 5.67 0.34 5.34 0 5 C0 3.35 0 1.7 0 0 Z " fill="#EFF0E4" transform="translate(45,0)"/>
<path d="M0 0 C1.98 0 3.96 0 6 0 C6 8.58 6 17.16 6 26 C5.67 26 5.34 26 5 26 C4.89042969 25.02160156 4.78085937 24.04320313 4.66796875 23.03515625 C3.79780617 15.70239914 2.59217302 8.95173674 0 2 C0 1.34 0 0.68 0 0 Z " fill="#F8F9E9" transform="translate(354,45)"/>
<path d="M0 0 C7.26 0 14.52 0 22 0 C22 1.98 22 3.96 22 6 C14.65532059 4.38168081 7.32650887 2.69857238 0 1 C0 0.67 0 0.34 0 0 Z " fill="#F9FBEF" transform="translate(293,0)"/>
<path d="M0 0 C4.31931387 0.61611835 8.25208775 1.64238578 12.375 3.0625 C13.43460938 3.42472656 14.49421875 3.78695313 15.5859375 4.16015625 C16.38257812 4.43730469 17.17921875 4.71445312 18 5 C18 5.33 18 5.66 18 6 C12.06 6 6.12 6 0 6 C0 4.02 0 2.04 0 0 Z " fill="#FBFCF5" transform="translate(45,354)"/>
<path d="M0 0 C0.66 0 1.32 0 2 0 C2.67467562 1.74692795 3.33944156 3.49768525 4 5.25 C4.556875 6.71179688 4.556875 6.71179688 5.125 8.203125 C6 11 6 11 6 15 C4.02 15 2.04 15 0 15 C0 10.05 0 5.1 0 0 Z " fill="#FBFCF3" transform="translate(0,300)"/>
</svg>
