<?xml version="1.0" encoding="UTF-8"?>
<svg version="1.1" xmlns="http://www.w3.org/2000/svg" width="512" height="512">
<path d="M0 0 C1.64974045 -0.00418077 3.29947803 -0.00966233 4.94921035 -0.01631981 C9.44963664 -0.03069583 13.94987859 -0.0265544 18.45031464 -0.019153 C23.31684885 -0.01440407 28.18334416 -0.02694642 33.04986572 -0.03717041 C42.57124116 -0.05433033 52.09255053 -0.05520421 61.61393742 -0.04995751 C69.35663206 -0.04590915 77.09930724 -0.04736726 84.84200096 -0.05270576 C85.94576452 -0.05345419 87.04952808 -0.05420261 88.18673902 -0.05497371 C90.42934739 -0.05650526 92.67195574 -0.0580436 94.9145641 -0.05958868 C115.92607103 -0.0733037 136.93754068 -0.06788316 157.94904675 -0.05640347 C177.14949842 -0.04647329 196.3498537 -0.05940983 215.5502905 -0.08333766 C235.28984596 -0.10775101 255.02935656 -0.11733096 274.7689268 -0.11068493 C285.84134931 -0.10719754 296.91369772 -0.10939301 307.98610878 -0.12693596 C317.4122409 -0.14168595 326.83824673 -0.14225691 336.26437644 -0.12486505 C341.06843516 -0.11637551 345.87226856 -0.11415524 350.67631531 -0.1295166 C355.08387129 -0.14343502 359.49101042 -0.13850951 363.89854272 -0.11927737 C365.48321854 -0.11553883 367.06792833 -0.11837653 368.65257368 -0.12888902 C388.10103054 -0.24861749 405.69768082 4.17124554 420.14396667 18.0087738 C434.23899693 33.14788037 437.82992477 50.98455563 437.74649048 71.02886963 C437.75067125 72.67861008 437.75615281 74.32834766 437.76281029 75.97807997 C437.77718631 80.47850627 437.77304487 84.97874822 437.76564348 89.47918427 C437.76089455 94.34571848 437.77343689 99.21221379 437.78366089 104.07873535 C437.8008208 113.60011079 437.80169469 123.12142016 437.79644798 132.64280704 C437.79239963 140.38550169 437.79385774 148.12817687 437.79919624 155.87087059 C437.79994467 156.97463415 437.80069309 158.07839771 437.80146419 159.21560865 C437.80299573 161.45821701 437.80453408 163.70082537 437.80607916 165.94343372 C437.81979417 186.95494065 437.81437364 207.96641031 437.80289394 228.97791638 C437.79296377 248.17836805 437.80590031 267.37872333 437.82982814 286.57916013 C437.85424149 306.31871559 437.86382143 326.05822619 437.85717541 345.79779643 C437.85368802 356.87021894 437.85588349 367.94256735 437.87342644 379.01497841 C437.88817642 388.44111052 437.88874739 397.86711636 437.87135553 407.29324607 C437.86286599 412.09730479 437.86064572 416.90113819 437.87600708 421.70518494 C437.88992549 426.11274091 437.88499999 430.51988005 437.86576784 434.92741235 C437.86202931 436.51208817 437.86486701 438.09679796 437.8753795 439.68144331 C437.99510797 459.12990017 433.57524494 476.72655045 419.73771667 491.1728363 C404.59861011 505.26786656 386.76193484 508.8587944 366.71762085 508.77536011 C365.0678804 508.77954087 363.41814282 508.78502244 361.7684105 508.79167992 C357.26798421 508.80605594 352.76774226 508.8019145 348.26730621 508.79451311 C343.400772 508.78976417 338.53427669 508.80230652 333.66775513 508.81253052 C324.14637969 508.82969043 314.62507032 508.83056432 305.10368343 508.82531761 C297.36098879 508.82126926 289.61831361 508.82272737 281.87561989 508.82806587 C280.77185633 508.82881429 279.66809277 508.82956272 278.53088183 508.83033382 C276.28827346 508.83186536 274.04566511 508.83340371 271.80305675 508.83494879 C250.79154982 508.8486638 229.78008017 508.84324327 208.7685741 508.83176357 C189.56812243 508.8218334 170.36776715 508.83476994 151.16733035 508.85869776 C131.42777489 508.88311112 111.68826429 508.89269106 91.94869405 508.88604504 C80.87627154 508.88255765 69.80392313 508.88475312 58.73151207 508.90229607 C49.30537995 508.91704605 39.87937412 508.91761702 30.45324441 508.90022516 C25.64918569 508.89173562 20.84535229 508.88951535 16.04130554 508.90487671 C11.63374956 508.91879512 7.22661043 508.91386962 2.81907813 508.89463747 C1.23440231 508.89089894 -0.35030748 508.89373664 -1.93495283 508.90424912 C-21.38340969 509.0239776 -38.98005997 504.60411457 -53.42634583 490.7665863 C-67.52137608 475.62747974 -71.11230392 457.79080447 -71.02886963 437.74649048 C-71.0330504 436.09675003 -71.03853196 434.44701245 -71.04518944 432.79728013 C-71.05956546 428.29685383 -71.05542402 423.79661189 -71.04802263 419.29617584 C-71.0432737 414.42964163 -71.05581605 409.56314632 -71.06604004 404.69662476 C-71.08319996 395.17524931 -71.08407384 385.65393995 -71.07882714 376.13255306 C-71.07477878 368.38985842 -71.07623689 360.64718324 -71.08157539 352.90448952 C-71.08232382 351.80072596 -71.08307224 350.6969624 -71.08384334 349.55975145 C-71.08537489 347.31714309 -71.08691323 345.07453474 -71.08845831 342.83192638 C-71.10217332 321.82041945 -71.09675279 300.8089498 -71.08527309 279.79744373 C-71.07534292 260.59699205 -71.08827946 241.39663678 -71.11220729 222.19619998 C-71.13662064 202.45664452 -71.14620058 182.71713392 -71.13955456 162.97756368 C-71.13606717 151.90514117 -71.13826264 140.83279276 -71.15580559 129.7603817 C-71.17055557 120.33424958 -71.17112654 110.90824375 -71.15373468 101.48211404 C-71.14524514 96.67805531 -71.14302487 91.87422192 -71.15838623 87.07017517 C-71.17230464 82.66261919 -71.16737914 78.25548006 -71.14814699 73.84794775 C-71.14440846 72.26327194 -71.14724616 70.67856215 -71.15775865 69.0939168 C-71.27748712 49.64545994 -66.85762409 32.04880966 -53.02009583 17.6025238 C-37.88098926 3.50749355 -20.044314 -0.08343429 0 0 Z " fill="#00436E" transform="translate(72.64118957519531,1.6123199462890625)"/>
<path d="M0 0 C8.02121943 5.4063019 13.46709646 11.30886668 15.5300293 21.03686523 C16.81054964 29.76324106 17.76269788 38.50640857 18.64215088 47.28030396 C19.87276107 59.53123851 21.18963812 71.74777276 22.94677734 83.93603516 C23.93148004 90.86155107 24.62279598 97.79654038 25.25439453 104.76220703 C25.75400364 110.26833746 26.30687399 115.76296654 26.953125 121.25390625 C27.03425537 121.94419922 27.11538574 122.63449219 27.19897461 123.34570312 C27.73528625 127.78927629 28.39106266 132.20654725 29.078125 136.62890625 C31.67468769 154.70098256 31.67468769 154.70098256 26.953125 162.31640625 C22.46975564 167.08759685 18.2261094 169.94587971 11.640625 170.69140625 C5.70676923 170.08796329 1.04533219 167.8945215 -2.921875 163.37890625 C-7.02082447 157.47159672 -7.57199856 152.07807677 -8.171875 145.06640625 C-8.25824219 144.16277344 -8.34460938 143.25914062 -8.43359375 142.328125 C-8.95410114 136.58601968 -9.046875 131.13925035 -9.046875 125.31640625 C-25.546875 125.31640625 -42.046875 125.31640625 -59.046875 125.31640625 C-60.036875 128.28640625 -61.026875 131.25640625 -62.046875 134.31640625 C-63.89281635 138.92861407 -65.91121005 143.46138432 -67.921875 148.00390625 C-68.69724609 149.79924805 -68.69724609 149.79924805 -69.48828125 151.63085938 C-75.56394304 165.38144405 -75.56394304 165.38144405 -82.421875 169.19140625 C-87.89586725 170.89023143 -91.93506699 171.03961847 -97.171875 168.69140625 C-101.46920763 166.33830372 -105.10495467 163.24409717 -106.65629578 158.42219543 C-108.13926102 150.42685931 -106.85077029 144.46662649 -103.05859375 137.3984375 C-102.64465866 136.58745102 -102.23072357 135.77646454 -101.804245 134.94090271 C-100.4656123 132.32717958 -99.10013994 129.72853704 -97.734375 127.12890625 C-96.79867883 125.31138573 -95.8652599 123.4926911 -94.93408203 121.67285156 C-93.11325709 118.11582718 -91.28511773 114.56273419 -89.45166016 111.01220703 C-86.6590698 105.58396193 -84.0089585 100.0952498 -81.421875 94.56640625 C-76.41137657 83.93890193 -71.13272718 73.44938961 -65.85861206 62.95114136 C-61.13890711 53.55362847 -56.48017118 44.13628905 -51.984375 34.62890625 C-48.81770027 27.97258453 -45.64133394 21.32309753 -42.296875 14.75390625 C-41.9680835 14.08077393 -41.63929199 13.4076416 -41.30053711 12.71411133 C-37.93018002 6.22740232 -32.26129537 1.10382236 -25.609375 -1.98828125 C-17.56916711 -4.16992303 -7.38003618 -4.04211905 0 0 Z " fill="#FDFDFE" transform="translate(290.046875,171.68359375)"/>
<path d="M0 0 C0.73766602 0.19609863 1.47533203 0.39219727 2.23535156 0.59423828 C9.5737636 2.80050291 16.01968728 6.36663718 20.375 12.8125 C22.23102244 16.52454487 21.82375601 20.7612305 21.375 24.8125 C18.88165497 29.79919007 15.38149051 33.30925474 10.375 35.8125 C3.0184868 36.93931822 -3.54995124 34.91026343 -10.47094727 32.67919922 C-21.57104651 29.11531361 -33.69022581 27.68743329 -44.53125 32.66796875 C-48.54106939 34.8599036 -51.09610973 37.0191646 -53.625 40.8125 C-54.60088183 47.17114059 -54.1893832 52.73361796 -50.3359375 57.9921875 C-45.27417448 63.37753354 -38.69360792 66.7921755 -32.3581543 70.45776367 C-15.89427867 79.9847445 -2.16582222 90.72723458 3.75 109.625 C6.55737307 123.74959576 3.95797294 138.52971626 -3.9375 150.5703125 C-13.98516939 163.92068803 -28.63874463 170.35867961 -44.79150391 173.42871094 C-50.28325316 174.1725529 -55.77981096 174.10622633 -61.3125 174.0625 C-63.17696777 174.05126099 -63.17696777 174.05126099 -65.07910156 174.03979492 C-82.90222882 173.83094838 -105.01882729 172.20418491 -118.52734375 158.9453125 C-122.59749108 154.32928658 -123.99189378 151.38421485 -123.90234375 145.1953125 C-123.30911623 140.09856902 -120.77436683 136.93313266 -117.125 133.375 C-110.71448487 130.51316289 -104.71325103 130.71422566 -98.12109375 133.05859375 C-95.74295003 134.10539466 -93.3768116 135.1798917 -91.0234375 136.28125 C-77.18170882 142.51798292 -60.96502366 144.22777636 -46.625 138.8125 C-41.83289041 136.28575131 -38.9208342 133.75737365 -36.625 128.8125 C-35.89154123 123.36394917 -35.85773412 118.58054747 -38.0625 113.5 C-43.80344323 107.47901075 -50.25822536 103.35411818 -57.5 99.375 C-73.00492535 90.85476179 -86.9254871 80.83029104 -92.76171875 63.421875 C-95.83696933 50.56426625 -93.27132214 37.85921534 -86.8125 26.5 C-77.16097595 11.62558138 -63.67179946 3.45897722 -46.546875 -0.609375 C-31.5469273 -3.57727909 -14.83589612 -3.95122345 0 0 Z " fill="#FCFDFD" transform="translate(167.625,170.1875)"/>
<path d="M0 0 C1.07242447 -0.00525696 2.14484894 -0.01051392 3.24977112 -0.01593018 C6.7818982 -0.02909474 10.31357175 -0.02040431 13.84570312 -0.01025391 C16.30757737 -0.01227565 18.76945104 -0.01518793 21.23132324 -0.01895142 C26.38588168 -0.02336998 31.54028396 -0.01695854 36.69482422 -0.00292969 C43.29564598 0.01416166 49.89610176 0.00431801 56.4969101 -0.01364708 C61.57902779 -0.02449738 66.66105899 -0.02103279 71.74317932 -0.0132637 C74.17680403 -0.01126516 76.61043664 -0.0137088 79.04405212 -0.02070236 C82.44754788 -0.02833708 85.85045428 -0.01668351 89.25390625 0 C90.75655785 -0.00910904 90.75655785 -0.00910904 92.28956604 -0.0184021 C98.78715106 0.04048109 104.05274349 0.63854191 109.08789062 5.14208984 C109.78785156 6.03734375 109.78785156 6.03734375 110.50195312 6.95068359 C111.22511719 7.84980469 111.22511719 7.84980469 111.96289062 8.76708984 C114.60570976 12.44752589 114.57014708 15.99728054 114.12695312 20.38818359 C112.12398645 26.06325585 108.51345134 29.69493449 103.12695312 32.38818359 C100.13931957 32.54551608 97.17154162 32.64679774 94.18164062 32.70458984 C93.29662872 32.72537094 92.41161682 32.74615204 91.49978638 32.76756287 C88.66725571 32.83304958 85.83463087 32.89193922 83.00195312 32.95068359 C81.08397456 32.99386965 79.16600559 33.03748397 77.24804688 33.08154297 C72.54111262 33.18873007 67.83408345 33.28999999 63.12695312 33.38818359 C61.76998503 40.57515734 60.4160306 47.76269412 59.06445312 54.95068359 C58.86031799 56.03627563 58.65618286 57.12186768 58.44586182 58.24035645 C55.87805219 71.90867957 53.35293134 85.58305666 50.92153931 99.27630615 C48.62931844 112.17936396 46.29451748 125.07378262 43.83135986 137.94543457 C43.53301482 139.5082096 43.23699973 141.0714316 42.94354248 142.63513184 C38.97395533 163.74289738 38.97395533 163.74289738 31.88476562 169.20068359 C27.33176717 172.276487 23.60712472 172.94548918 18.12695312 172.38818359 C11.97853541 170.25811379 8.39270438 167.18595572 5.04736328 161.57861328 C1.09617188 152.17540657 5.20181836 139.37008143 7.2024231 129.77426147 C7.95826089 126.14853189 8.6865601 122.51742368 9.41645813 118.88639832 C9.78839258 117.03685337 10.16167242 115.18757847 10.53630066 113.33857727 C12.20089891 105.10373644 13.71661652 96.84660037 15.18945312 88.57568359 C17.34111746 76.55618908 19.60702011 64.56140928 21.93945312 52.57568359 C22.0927005 51.78648529 22.24594788 50.99728699 22.40383911 50.18417358 C22.83742226 47.9537108 23.27277045 45.72360196 23.70898438 43.49365234 C23.9588208 42.21643311 24.20865723 40.93921387 24.46606445 39.62329102 C24.96362725 37.18767792 25.51287918 34.7949833 26.12695312 32.38818359 C24.35650635 32.41960449 24.35650635 32.41960449 22.55029297 32.45166016 C18.15588596 32.52426129 13.76153159 32.5700563 9.36669922 32.60791016 C7.46751988 32.62797989 5.56840198 32.6552421 3.66943359 32.68994141 C0.93376473 32.73866469 -1.80108458 32.76119867 -4.53710938 32.77880859 C-5.38109283 32.79945374 -6.22507629 32.82009888 -7.09463501 32.84136963 C-12.52827688 32.8434207 -15.55032398 31.98098926 -19.87304688 28.38818359 C-23.44927208 24.62373601 -24.22058844 21.50168824 -24.49804688 16.45068359 C-24.31428391 11.34334044 -23.3509911 8.49883964 -19.86914062 4.79052734 C-13.41661067 0.25734094 -7.66858062 -0.04648676 0 0 Z " fill="#FCFDFD" transform="translate(353.873046875,169.61181640625)"/>
<path d="M0 0 C0.99 0.33 1.98 0.66 3 1 C5.49621185 22.03191259 7.29440184 42.80306769 7 64 C-4.55 64 -16.1 64 -28 64 C-27.16417158 59.82085791 -26.21518633 56.92710665 -24.48046875 53.1171875 C-23.95815674 51.96202637 -23.43584473 50.80686523 -22.89770508 49.61669922 C-22.32772477 48.3694259 -21.75765434 47.12219377 -21.1875 45.875 C-20.30696932 43.93462112 -19.42816526 41.99346607 -18.54942322 40.05227661 C-17.94543401 38.7184002 -17.34082305 37.38480516 -16.73561096 36.05148315 C-14.64463969 31.44124128 -12.58240032 26.81903621 -10.5390625 22.1875 C-10.26506119 21.56706818 -9.99105988 20.94663635 -9.70875549 20.30740356 C-8.3976249 17.33753038 -7.08920531 14.36649725 -5.78393555 11.39404297 C-5.31511963 10.33330566 -4.84630371 9.27256836 -4.36328125 8.1796875 C-3.95376221 7.24882324 -3.54424316 6.31795898 -3.12231445 5.35888672 C-2 3 -2 3 0 0 Z " fill="#034670" transform="translate(271,205)"/>
</svg>
