<?xml version="1.0" encoding="UTF-8"?>
<svg version="1.1" xmlns="http://www.w3.org/2000/svg" width="200" height="200">
<path d="M0 0 C1.5437178 -0.01007584 1.5437178 -0.01007584 3.11862183 -0.02035522 C6.49368224 -0.03922612 9.86854257 -0.04325421 13.24365234 -0.04541016 C15.61241738 -0.05184666 17.98118165 -0.05857564 20.34994507 -0.06558228 C25.30753418 -0.07752857 30.26505377 -0.08126593 35.22265625 -0.08007812 C41.53670885 -0.07987533 47.8503094 -0.10714937 54.16425514 -0.14162254 C59.05628456 -0.16399853 63.94820712 -0.16791236 68.84028244 -0.16685867 C71.16600473 -0.16919963 73.49173065 -0.17793694 75.81740189 -0.19352341 C96.53229363 -0.31933665 114.1294782 1.08036863 129.90771484 15.82958984 C140.54199411 27.22346048 143.50954612 41.98173006 143.49511719 57.0859375 C143.50183441 58.1150827 143.50855164 59.14422791 143.51547241 60.20455933 C143.53434331 63.57961974 143.53837139 66.95448007 143.54052734 70.32958984 C143.54696385 72.69835488 143.55369283 75.06711915 143.56069946 77.43588257 C143.57264576 82.39347168 143.57638311 87.35099127 143.57519531 92.30859375 C143.57499252 98.62264635 143.60226656 104.9362469 143.63673973 111.25019264 C143.65911572 116.14222206 143.66302955 121.03414462 143.66197586 125.92621994 C143.66431682 128.25194223 143.67305413 130.57766815 143.68864059 132.90333939 C143.81445384 153.61823113 142.41474856 171.2154157 127.66552734 186.99365234 C116.27165671 197.62793161 101.51338712 200.59548362 86.40917969 200.58105469 C85.38003448 200.58777191 84.35088928 200.59448914 83.29055786 200.60140991 C79.91549744 200.62028081 76.54063712 200.62430889 73.16552734 200.62646484 C70.7967623 200.63290135 68.42799804 200.63963033 66.05923462 200.64663696 C61.1016455 200.65858326 56.14412592 200.66232061 51.18652344 200.66113281 C44.87247084 200.66093002 38.55887029 200.68820406 32.24492455 200.72267723 C27.35289513 200.74505322 22.46097257 200.74896705 17.56889725 200.74791336 C15.24317496 200.75025432 12.91744904 200.75899163 10.5917778 200.77457809 C-10.12311394 200.90039134 -27.72029851 199.50068606 -43.49853516 184.75146484 C-54.13281442 173.35759421 -57.10036643 158.59932462 -57.0859375 143.49511719 C-57.09265472 142.46597198 -57.09937195 141.43682678 -57.10629272 140.37649536 C-57.12516362 137.00143494 -57.12919171 133.62657462 -57.13134766 130.25146484 C-57.13778416 127.8826998 -57.14451314 125.51393554 -57.15151978 123.14517212 C-57.16346607 118.187583 -57.16720343 113.23006342 -57.16601562 108.27246094 C-57.16581283 101.95840834 -57.19308687 95.64480779 -57.22756004 89.33086205 C-57.24993603 84.43883263 -57.25384986 79.54691007 -57.25279617 74.65483475 C-57.25513713 72.32911246 -57.26387444 70.00338654 -57.27946091 67.6777153 C-57.40527415 46.96282356 -56.00556887 29.36563899 -41.25634766 13.58740234 C-29.86247702 2.95312308 -15.10420744 -0.01442893 0 0 Z " fill="#019FF5" transform="translate(56.79541015625,-0.29052734375)"/>
<path d="M0 0 C0.66 0 1.32 0 2 0 C2.33 1.98 2.66 3.96 3 6 C4.98 6.66 6.96 7.32 9 8 C9.33 7.34 9.66 6.68 10 6 C10 8.31 10 10.62 10 13 C10.66 12.67 11.32 12.34 12 12 C13.99960012 11.960008 16.00047242 11.95653201 18 12 C18 14.64 18 17.28 18 20 C19.47146484 19.22076172 19.47146484 19.22076172 20.97265625 18.42578125 C52.3282156 2.11384419 81.15677802 4.3563712 114.55834961 14.25341797 C135.62622006 20.34386356 161.63374597 22.55810616 181.9921875 12.8671875 C184.29857103 11.8710452 186.52972638 11.42175403 189 11 C189 8.69 189 6.38 189 4 C189.66 3.67 190.32 3.34 191 3 C191.07559007 7.40670706 191.12926088 11.8130456 191.16479492 16.22021484 C191.17964702 17.71149283 191.19993422 19.20272911 191.22631836 20.69384766 C191.48270677 35.58448453 191.25367866 50.25821291 181 62 C180.32066406 62.825 179.64132813 63.65 178.94140625 64.5 C175.58960868 68.45372719 172.67435892 71.61801838 168 74 C167.01 74 166.02 74 165 74 C165 74.66 165 75.32 165 76 C162.36 76.33 159.72 76.66 157 77 C157 77.66 157 78.32 157 79 C149.78984227 80.7093275 142.92047111 81.32847477 135.5234375 81.4140625 C134.47217682 81.43342865 133.42091614 81.4527948 132.33779907 81.4727478 C129.01694569 81.53199302 125.69605659 81.57870678 122.375 81.625 C120.10805873 81.66323054 117.84113121 81.70228513 115.57421875 81.7421875 C110.04960214 81.83764847 104.52490111 81.92285295 99 82 C99 82.33 99 82.66 99 83 C87.57314644 83.85964042 76.18553246 84.24473108 64.72753906 84.29516602 C62.90910077 84.30672251 61.09069735 84.32723181 59.27246094 84.35668945 C39.49531642 84.67470139 23.06430039 82.22710503 8.17578125 68.1953125 C4.25348634 64.23780848 1.81089399 61.42007843 1.75 55.625 C1.8325 54.42875 1.915 53.2325 2 52 C1.01 51.67 0.02 51.34 -1 51 C-2.6922584 40.8575585 -3.2341614 31.19620901 -2.83349609 20.93408203 C-2.74847786 18.71018394 -2.68759229 16.48645301 -2.62890625 14.26171875 C-2.58212571 12.835891 -2.53400135 11.41010654 -2.484375 9.984375 C-2.44022461 8.71303711 -2.39607422 7.44169922 -2.35058594 6.13183594 C-2 3 -2 3 0 0 Z " fill="#009EF5" transform="translate(5,116)"/>
<path d="M0 0 C0.721875 0.00257812 1.44375 0.00515625 2.1875 0.0078125 C2.909375 0.00523438 3.63125 0.00265625 4.375 0 C6.1875 0.1328125 6.1875 0.1328125 7.1875 1.1328125 C7.42277773 3.48268512 7.60136417 5.83837289 7.75 8.1953125 C7.83378906 9.48566406 7.91757813 10.77601562 8.00390625 12.10546875 C8.06449219 13.10449219 8.12507813 14.10351562 8.1875 15.1328125 C8.5175 14.1428125 8.8475 13.1528125 9.1875 12.1328125 C15.03312569 10.57397898 21.40623569 10.39492605 27.25 11.9453125 C29.1875 13.1328125 29.1875 13.1328125 30.1875 16.1328125 C30.8475 16.1328125 31.5075 16.1328125 32.1875 16.1328125 C32.1875 14.1528125 32.1875 12.1728125 32.1875 10.1328125 C34.8275 10.1328125 37.4675 10.1328125 40.1875 10.1328125 C40.1875 11.1228125 40.1875 12.1128125 40.1875 13.1328125 C41.1775 12.4728125 42.1675 11.8128125 43.1875 11.1328125 C47.25306201 10.68929664 49.32814119 10.47176726 52.625 13.0078125 C54.1875 15.1328125 54.1875 15.1328125 54.1875 17.1328125 C55.1775 17.1328125 56.1675 17.1328125 57.1875 17.1328125 C57.1875 19.1128125 57.1875 21.0928125 57.1875 23.1328125 C57.991875 22.6378125 58.79625 22.1428125 59.625 21.6328125 C64.00752454 19.78753901 67.51065231 19.85220164 72.1875 20.1328125 C71.8575 18.8128125 71.5275 17.4928125 71.1875 16.1328125 C69.5375 15.8028125 67.8875 15.4728125 66.1875 15.1328125 C66.1875 16.1228125 66.1875 17.1128125 66.1875 18.1328125 C63.8775 18.1328125 61.5675 18.1328125 59.1875 18.1328125 C59.75618892 14.83441674 60.48146443 13.14699568 63.1875 11.1328125 C66.4375 10.5859375 66.4375 10.5859375 70.1875 10.3828125 C71.425 10.30546875 72.6625 10.228125 73.9375 10.1484375 C77.1875 10.1328125 77.1875 10.1328125 80.1875 11.1328125 C80.24808594 10.42253906 80.30867187 9.71226563 80.37109375 8.98046875 C80.45488281 8.06136719 80.53867188 7.14226562 80.625 6.1953125 C80.74681641 4.82052734 80.74681641 4.82052734 80.87109375 3.41796875 C81.1875 1.1328125 81.1875 1.1328125 82.1875 0.1328125 C85.125 -0.0546875 85.125 -0.0546875 88.1875 0.1328125 C90.1875 2.1328125 90.1875 2.1328125 90.41455078 5.38916016 C90.41423382 6.77510545 90.40291759 8.16107551 90.3828125 9.546875 C90.3799826 10.27651459 90.37715271 11.00615417 90.37423706 11.75790405 C90.36303002 14.09137278 90.3379251 16.42445953 90.3125 18.7578125 C90.30247085 20.33853613 90.29334489 21.91926577 90.28515625 23.5 C90.26308905 27.37775164 90.22855615 31.25521728 90.1875 35.1328125 C88.8675 35.7928125 87.5475 36.4528125 86.1875 37.1328125 C86.8475 37.4628125 87.5075 37.7928125 88.1875 38.1328125 C88.1875 38.7928125 88.1875 39.4528125 88.1875 40.1328125 C88.8475 40.1328125 89.5075 40.1328125 90.1875 40.1328125 C90.6875 43.3203125 90.6875 43.3203125 90.1875 47.1328125 C83.58561248 54.31486589 69.31581752 57.74724794 59.93066406 58.25488281 C44.31989368 58.75227012 30.41132176 56.903525 15.2890625 53.22265625 C14.21556297 52.96145493 14.21556297 52.96145493 13.12037659 52.69497681 C9.50547587 51.81267708 5.89414534 50.91878404 2.2878418 50.00195312 C-23.14227625 43.59649487 -44.57558208 43.60816447 -68.8125 54.1328125 C-69.78445312 54.55433594 -70.75640625 54.97585937 -71.7578125 55.41015625 C-73.78297985 56.30211867 -75.79916691 57.21445004 -77.8125 58.1328125 C-77.8125 55.8228125 -77.8125 53.5128125 -77.8125 51.1328125 C-69.98184365 46.84261248 -62.5723936 43.90342929 -53.8125 42.1328125 C-53.8125 41.4728125 -53.8125 40.8128125 -53.8125 40.1328125 C-47.92849345 39.27585283 -42.25340708 39.00742016 -36.3125 39.0703125 C-35.49007812 39.07482422 -34.66765625 39.07933594 -33.8203125 39.08398438 C-31.81767604 39.09562761 -29.81507773 39.11355694 -27.8125 39.1328125 C-27.8125 38.4728125 -27.8125 37.8128125 -27.8125 37.1328125 C-30.4525 37.1328125 -33.0925 37.1328125 -35.8125 37.1328125 C-35.8125 36.1428125 -35.8125 35.1528125 -35.8125 34.1328125 C-36.4725 34.1328125 -37.1325 34.1328125 -37.8125 34.1328125 C-40.38651437 28.53175723 -40.51813467 23.20631093 -39.8125 17.1328125 C-38.00446596 14.05915464 -36.95210536 12.70261518 -33.8125 11.1328125 C-29.75931484 10.48067069 -26.22843875 10.24978161 -22.6640625 12.47265625 C-20.9519502 13.95765162 -19.35146928 15.47013186 -17.8125 17.1328125 C-17.52503906 16.49988281 -17.23757812 15.86695312 -16.94140625 15.21484375 C-15.8125 13.1328125 -15.8125 13.1328125 -13.75 11.8203125 C-9.63020963 10.85610624 -5.95225006 11.46540181 -1.8125 12.1328125 C-1.89628906 11.35035156 -1.98007813 10.56789063 -2.06640625 9.76171875 C-2.21916016 8.24384766 -2.21916016 8.24384766 -2.375 6.6953125 C-2.53162109 5.18130859 -2.53162109 5.18130859 -2.69140625 3.63671875 C-2.75134766 2.39728516 -2.75134766 2.39728516 -2.8125 1.1328125 C-1.8125 0.1328125 -1.8125 0.1328125 0 0 Z " fill="#069FF3" transform="translate(85.8125,62.8671875)"/>
<path d="M0 0 C1.98 0 3.96 0 6 0 C6 10.56 6 21.12 6 32 C4.02 32 2.04 32 0 32 C0 31.34 0 30.68 0 30 C-0.66 30.33 -1.32 30.66 -2 31 C-2.33 31.99 -2.66 32.98 -3 34 C-7.95 34.495 -7.95 34.495 -13 35 C-12.67 35.99 -12.34 36.98 -12 38 C-12.495 38.99 -12.495 38.99 -13 40 C-11.63875 40.185625 -11.63875 40.185625 -10.25 40.375 C-7 41 -7 41 -5.08251953 41.96728516 C-2.85971493 43.06956692 -0.84963959 43.61425254 1.5703125 44.1484375 C2.45750977 44.34735596 3.34470703 44.54627441 4.25878906 44.7512207 C5.20463867 44.95706787 6.15048828 45.16291504 7.125 45.375 C9.12248325 45.81340398 11.11987797 46.25221153 13.1171875 46.69140625 C14.11202148 46.90941895 15.10685547 47.12743164 16.13183594 47.35205078 C18.7067638 47.93375478 21.26327735 48.55970443 23.8203125 49.21484375 C39.46358633 53.15546378 53.64952773 53.68262676 69 48 C70.0725 47.60296875 71.145 47.2059375 72.25 46.796875 C77.68920886 44.6483875 82.64987698 42.22740502 87.4765625 38.91796875 C89 38 89 38 91 38 C91.5 41.1875 91.5 41.1875 91 45 C84.39811248 52.18205339 70.12831752 55.61443544 60.74316406 56.12207031 C45.13239368 56.61945762 31.22382176 54.7707125 16.1015625 51.08984375 C15.02806297 50.82864243 15.02806297 50.82864243 13.93287659 50.56216431 C10.31797587 49.67986458 6.70664534 48.78597154 3.1003418 47.86914062 C-22.32977625 41.46368237 -43.76308208 41.47535197 -68 52 C-68.97195312 52.42152344 -69.94390625 52.84304687 -70.9453125 53.27734375 C-72.97047985 54.16930617 -74.98666691 55.08163754 -77 56 C-77 53.69 -77 51.38 -77 49 C-69.16934365 44.70979998 -61.7598936 41.77061679 -53 40 C-53 39.34 -53 38.68 -53 38 C-47.11599345 37.14304033 -41.44090708 36.87460766 -35.5 36.9375 C-34.67757812 36.94201172 -33.85515625 36.94652344 -33.0078125 36.95117188 C-31.00517604 36.96281511 -29.00257773 36.98074444 -27 37 C-27 36.34 -27 35.68 -27 35 C-29.64 35 -32.28 35 -35 35 C-35 34.01 -35 33.02 -35 32 C-35.66 32 -36.32 32 -37 32 C-39.57401437 26.39894473 -39.70563467 21.07349843 -39 15 C-37.19196596 11.92634214 -36.13960536 10.56980268 -33 9 C-28.94681484 8.34785819 -25.41593875 8.11696911 -21.8515625 10.33984375 C-20.1394502 11.82483912 -18.53896928 13.33731936 -17 15 C-16.57460937 14.04867187 -16.57460937 14.04867187 -16.140625 13.078125 C-15 11 -15 11 -12.75 9.75 C-9.66018278 8.90732258 -7.189334 8.72266661 -4 9 C-3.01 9.66 -2.02 10.32 -1 11 C-0.67 7.37 -0.34 3.74 0 0 Z " fill="#17A1EC" transform="translate(85,65)"/>
<path d="M0 0 C1.7315332 0.41100952 1.7315332 0.41100952 3.49804688 0.83032227 C5.92649123 1.42759144 8.31642558 2.08713746 10.71875 2.77734375 C15.94671682 3.87489865 20.9920996 3.92677462 26.3203125 3.8984375 C27.92156982 3.89215332 27.92156982 3.89215332 29.55517578 3.88574219 C36.93020691 3.77978881 43.60796906 3.16909996 50.5703125 0.5859375 C51.42109375 0.29589844 52.271875 0.00585938 53.1484375 -0.29296875 C58.69050213 -2.32449244 63.57193052 -5.06699554 68.5390625 -8.2421875 C70.5703125 -9.4140625 70.5703125 -9.4140625 72.5703125 -9.4140625 C73.0703125 -6.2265625 73.0703125 -6.2265625 72.5703125 -2.4140625 C64.54060429 6.07712319 48.42045216 8.03352026 37.40625 8.80859375 C24.08609526 9.16733328 10.75442124 6.98781915 -1.9921875 3.2109375 C-23.74968881 -3.19223002 -49.30695083 -9.23405746 -71.4296875 -1.4140625 C-72.07309082 -1.19411621 -72.71649414 -0.97416992 -73.37939453 -0.74755859 C-75.52802928 -0.0085472 -77.66769542 0.75142877 -79.8046875 1.5234375 C-80.47153564 1.76400879 -81.13838379 2.00458008 -81.82543945 2.25244141 C-85.05139508 3.47592577 -87.94737607 4.82830447 -90.78125 6.77734375 C-93.4296875 8.5859375 -93.4296875 8.5859375 -95.4296875 8.5859375 C-95.4296875 5.9459375 -95.4296875 3.3059375 -95.4296875 0.5859375 C-62.06576616 -14.31960875 -34.24717124 -8.15311535 0 0 Z " fill="#C3F1FC" transform="translate(119.4296875,127.4140625)"/>
<path d="M0 0 C0.68545969 5.05526519 0.68545969 5.05526519 0 8 C-8.02537703 16.65481837 -24.15952103 18.67210677 -35.24609375 19.2578125 C-52.44068218 19.84714315 -68.42361853 15.74135146 -84.9375 11.375 C-111.94637287 4.24213173 -135.08440823 3.55751239 -160.671875 15.51171875 C-163.17968831 16.63317048 -165.32380951 17.49314574 -168 18 C-168 15.69 -168 13.38 -168 11 C-139.60025509 -1.6448432 -114.40445388 -0.15036796 -84.79589844 7.86767578 C-60.73925118 14.29005358 -36.7547193 19.04294472 -13.6875 7 C-13.01138672 6.65710938 -12.33527344 6.31421875 -11.63867188 5.9609375 C-8.43441472 4.32285872 -3.4071034 0 0 0 Z " fill="#C2F4FE" transform="translate(184,110)"/>
<path d="M0 0 C0.5 3.1875 0.5 3.1875 0 7 C-6.60188752 14.18205339 -20.87168248 17.61443544 -30.25683594 18.12207031 C-45.86760632 18.61945762 -59.77617824 16.7707125 -74.8984375 13.08984375 C-75.61410385 12.91570953 -76.3297702 12.74157532 -77.06712341 12.56216431 C-80.68202413 11.67986458 -84.29335466 10.78597154 -87.8996582 9.86914062 C-113.32977625 3.46368237 -134.76308208 3.47535197 -159 14 C-159.97195312 14.42152344 -160.94390625 14.84304687 -161.9453125 15.27734375 C-163.97047985 16.16930617 -165.98666691 17.08163754 -168 18 C-168 15.69 -168 13.38 -168 11 C-137.69514482 -5.08969115 -107.23641405 1.25059075 -75.4921875 9.34765625 C-56.96985504 14.06950193 -40.37766769 16.80327121 -22 10 C-20.9275 9.60296875 -19.855 9.2059375 -18.75 8.796875 C-13.31079114 6.6483875 -8.35012302 4.22740502 -3.5234375 0.91796875 C-2 0 -2 0 0 0 Z " fill="#DEF8FD" transform="translate(176,103)"/>
<path d="M0 0 C0.33 0 0.66 0 1 0 C1 2.31 1 4.62 1 7 C2.98 7.495 2.98 7.495 5 8 C-15.75594928 21.10191159 -35.59936037 24.4534854 -59.7739563 19.14337158 C-66.55564118 17.58561559 -73.28419762 15.81864993 -80 14 C-105.90400579 7.07172967 -128.46139164 6.05718764 -154 15 C-155.99886526 15.67006129 -157.99847272 16.33793278 -160 17 C-159.67 19.64 -159.34 22.28 -159 25 C-159.66 25 -160.32 25 -161 25 C-161.33 23.35 -161.66 21.7 -162 20 C-164.31 19.34 -166.62 18.68 -169 18 C-169 15.36 -169 12.72 -169 10 C-168.67 10 -168.34 10 -168 10 C-167.67 11.98 -167.34 13.96 -167 16 C-166.04480469 15.54109375 -165.08960938 15.0821875 -164.10546875 14.609375 C-133.0609612 -0.18313126 -108.08398232 2.57706993 -75.6953125 11.13085938 C-63.5250772 14.31526146 -51.48981254 16.39062452 -38.875 16.3125 C-37.45525879 16.30621582 -37.45525879 16.30621582 -36.00683594 16.29980469 C-28.99044299 16.18652043 -22.6330132 15.40459465 -16 13 C-15.08863281 12.67515625 -14.17726562 12.3503125 -13.23828125 12.015625 C-10.78430033 11.08418699 -8.39257337 10.07797262 -6 9 C-4.989375 8.54625 -3.97875 8.0925 -2.9375 7.625 C-0.68404655 6.05609373 -0.68404655 6.05609373 -0.1875 2.8125 C-0.125625 1.884375 -0.06375 0.95625 0 0 Z " fill="#249FE4" transform="translate(176,104)"/>
<path d="M0 0 C0.33 0 0.66 0 1 0 C1.10250837 7.3973387 1.17192421 14.7944903 1.21972656 22.19238281 C1.23968165 24.70221806 1.26685553 27.2120078 1.30175781 29.72167969 C1.59721674 51.53350024 1.04799638 70.0285969 -14.5390625 86.703125 C-27.42951592 98.73421486 -43.58934622 100.32263234 -60.4140625 100.1953125 C-61.87950445 100.19157409 -63.34494893 100.18873104 -64.81039429 100.18673706 C-68.63424802 100.17916565 -72.45794552 100.15957444 -76.28173828 100.1373291 C-80.19691862 100.11672933 -84.11212463 100.10770538 -88.02734375 100.09765625 C-95.68496642 100.07632118 -103.34246117 100.04226554 -111 100 C-107.72721726 97.05369642 -105.55639407 96.61782984 -101.19677734 96.58349609 C-100.02811127 96.56692963 -98.85944519 96.55036316 -97.65536499 96.53329468 C-96.39495392 96.53004181 -95.13454285 96.52678894 -93.8359375 96.5234375 C-91.84546633 96.49962689 -89.85499521 96.47581241 -87.86452675 96.4517765 C-85.07456267 96.42180105 -82.28457737 96.40537397 -79.49450684 96.38873291 C-74.63786364 96.35726529 -69.78140277 96.3056353 -64.92495728 96.25234985 C-62.34279697 96.22537387 -59.76057125 96.20391634 -57.17831421 96.18881226 C-50.39415926 96.1301888 -43.73467933 95.83885199 -37 95 C-37 94.34 -37 93.68 -37 93 C-34.36 92.67 -31.72 92.34 -29 92 C-29 91.34 -29 90.68 -29 90 C-28.46890625 89.76925781 -27.9378125 89.53851563 -27.390625 89.30078125 C-22.73616406 87.15191516 -20.05911985 85.2357044 -17 81 C-16.34 81 -15.68 81 -15 81 C-14.73147217 80.42403076 -14.46294434 79.84806152 -14.1862793 79.25463867 C-12.97557685 76.95358145 -11.56703029 75.01204822 -10.01953125 72.92578125 C-6.61751096 67.85324598 -5.53819054 63.17346884 -4.6875 57.1875 C-4.52781738 56.16140625 -4.36813477 55.1353125 -4.20361328 54.078125 C-2.86501118 44.71774259 -2.50808963 35.36917266 -2.29394531 25.92553711 C-2.09424883 17.15923152 -1.38495089 8.65930457 0 0 Z " fill="#38B3F3" transform="translate(199,100)"/>
<path d="M0 0 C0.33 0 0.66 0 1 0 C1 2.97 1 5.94 1 9 C1.99 9.33 2.98 9.66 4 10 C-13.86687706 21.97986457 -34.89171378 24.9867053 -55.90625 21.0234375 C-61.3160136 19.85291206 -66.66046647 18.45380156 -72 17 C-100.73783044 9.45697146 -127.78272794 4.12203566 -155.8125 17.046875 C-158 18 -158 18 -160 18 C-160 20.64 -160 23.28 -160 26 C-160.33 26 -160.66 26 -161 26 C-161 23.36 -161 20.72 -161 18 C-162.32 17.67 -163.64 17.34 -165 17 C-133.95623476 0.43091391 -106.76024605 4.8818447 -73.92504883 13.13085938 C-62.92819912 15.88120054 -52.08199644 18.39608422 -40.6875 18.3125 C-39.88135254 18.30831055 -39.07520508 18.30412109 -38.24462891 18.29980469 C-24.9389249 18.05306249 -13.36737979 14.88932108 -2 8 C-1.34 8 -0.68 8 0 8 C0 5.36 0 2.72 0 0 Z " fill="#229DE0" transform="translate(184,110)"/>
<path d="M0 0 C2.31 0 4.62 0 7 0 C7 0.66 7 1.32 7 2 C7.99 1.34 8.98 0.68 10 0 C13.375 -0.5 13.375 -0.5 17 0 C20.65030841 2.79598091 21.74778101 4.36057657 22.4453125 8.89453125 C22.61830572 13.57111452 22.51889188 16.98217362 20.375 21.1875 C17.46775214 23.40618915 15.64705998 23.92401958 12 24 C10.68 23.34 9.36 22.68 8 22 C7.67 25.3 7.34 28.6 7 32 C4.69 32 2.38 32 0 32 C0 21.44 0 10.88 0 0 Z " fill="#DAF4FC" transform="translate(119,74)"/>
<path d="M0 0 C1.98 0 3.96 0 6 0 C6 10.56 6 21.12 6 32 C4.02 32 2.04 32 0 32 C0 31.34 0 30.68 0 30 C-0.70125 30.515625 -1.4025 31.03125 -2.125 31.5625 C-5.70226119 33.3511306 -7.22365304 33.20521711 -11 32 C-13.81005071 29.72158051 -14.84898818 28.45303547 -16 25 C-16.36928024 19.36847628 -16.14319824 15.88941949 -13 11 C-9.53001271 8.68667514 -8.07490752 8.66042437 -4 9 C-3.01 9.66 -2.02 10.32 -1 11 C-0.67 7.37 -0.34 3.74 0 0 Z " fill="#E1FAFD" transform="translate(85,65)"/>
<path d="M0 0 C1.64480415 0.00373719 3.28961054 0.00658082 4.93441772 0.00857544 C9.2317333 0.01615633 13.52891043 0.03575618 17.82617188 0.0579834 C22.22393929 0.07856228 26.62172941 0.08760273 31.01953125 0.09765625 C39.62506304 0.11900814 48.23048297 0.15307585 56.8359375 0.1953125 C56.8359375 0.5253125 56.8359375 0.8553125 56.8359375 1.1953125 C56.07411163 1.21370682 55.31228577 1.23210114 54.52737427 1.25105286 C47.26282178 1.42873892 39.99874226 1.61887557 32.73486519 1.82217884 C29.00257494 1.92622179 25.2702876 2.02584514 21.53759766 2.11450195 C-11.99219325 1.51297728 -11.99219325 1.51297728 -41.1640625 15.1953125 C-42.1540625 15.5253125 -43.1440625 15.8553125 -44.1640625 16.1953125 C-45.52769458 18.17477842 -46.85824894 20.177237 -48.1640625 22.1953125 C-48.8446875 22.8140625 -49.5253125 23.4328125 -50.2265625 24.0703125 C-53.00999473 27.12310914 -53.861836 30.28863299 -55.1640625 34.1953125 C-55.8240625 34.1953125 -56.4840625 34.1953125 -57.1640625 34.1953125 C-57.1640625 36.8353125 -57.1640625 39.4753125 -57.1640625 42.1953125 C-57.8240625 42.1953125 -58.4840625 42.1953125 -59.1640625 42.1953125 C-61.59771936 62.7986987 -61.78953986 83.47477158 -62.1640625 104.1953125 C-62.4940625 104.1953125 -62.8240625 104.1953125 -63.1640625 104.1953125 C-63.25770447 96.90949997 -63.32829583 89.62382203 -63.37131119 82.33752441 C-63.39198079 78.95233555 -63.41990729 75.56756525 -63.46582031 72.18261719 C-63.74740522 49.77177128 -63.66756592 30.6540022 -47.625 13.4921875 C-34.20792963 0.96958849 -17.40252082 -0.11697683 0 0 Z " fill="#5CBFF5" transform="translate(63.1640625,-0.1953125)"/>
<path d="M0 0 C0.84304687 -0.03996094 1.68609375 -0.07992187 2.5546875 -0.12109375 C6.45076952 0.72562316 7.80870232 2.22019133 10.125 5.4375 C10.71129397 8.57132879 10.60032682 11.57612945 10.4375 14.75 C10.41494141 15.58595703 10.39238281 16.42191406 10.36914062 17.28320312 C10.3105061 19.33541149 10.22083215 21.38669202 10.125 23.4375 C7.45833333 23.4375 4.79166667 23.4375 2.125 23.4375 C1.465 23.7675 0.805 24.0975 0.125 24.4375 C-3.41731061 24.82253376 -5.23757342 24.85685959 -8.25 22.875 C-10.4746142 19.5380787 -10.37530235 17.36844707 -9.875 13.4375 C-8.04384793 10.82156847 -6.96531634 10.46760545 -3.875 9.4375 C-2.48060336 9.37084624 -1.08330125 9.35211801 0.3125 9.375 C2.1996875 9.4059375 2.1996875 9.4059375 4.125 9.4375 C3.795 7.7875 3.465 6.1375 3.125 4.4375 C1.475 4.4375 -0.175 4.4375 -1.875 4.4375 C-1.875 5.4275 -1.875 6.4175 -1.875 7.4375 C-4.185 7.4375 -6.495 7.4375 -8.875 7.4375 C-8.5625 5.0625 -8.5625 5.0625 -7.875 2.4375 C-4.72405867 0.33687245 -3.6525634 0.09436714 0 0 Z " fill="#EAFCFE" transform="translate(104.875,73.5625)"/>
<path d="M0 0 C0.94746094 -0.01933594 1.89492187 -0.03867188 2.87109375 -0.05859375 C5.5625 0.4375 5.5625 0.4375 7.89453125 1.85546875 C10.45931647 5.8257803 9.98973005 9.57270221 9.8125 14.1875 C9.79445312 15.07566406 9.77640625 15.96382812 9.7578125 16.87890625 C9.71077374 19.06620848 9.64507009 21.25129816 9.5625 23.4375 C7.9125 23.4375 6.2625 23.4375 4.5625 23.4375 C4.5625 22.7775 4.5625 22.1175 4.5625 21.4375 C3.86125 21.9325 3.16 22.4275 2.4375 22.9375 C-0.92787356 24.69334708 -2.69765491 25.07406938 -6.4375 24.4375 C-8.875 22.375 -8.875 22.375 -10.4375 19.4375 C-10.4375 15.72440791 -10.23356866 13.46575535 -7.9375 10.5 C-4.15437979 8.89217391 -0.49029715 9.20368478 3.5625 9.4375 C3.2325 8.1175 2.9025 6.7975 2.5625 5.4375 C0.9125 5.1075 -0.7375 4.7775 -2.4375 4.4375 C-2.4375 5.4275 -2.4375 6.4175 -2.4375 7.4375 C-4.7475 7.4375 -7.0575 7.4375 -9.4375 7.4375 C-8.4279697 1.58222424 -5.80556197 0.00787729 0 0 Z " fill="#CCF2FD" transform="translate(154.4375,73.5625)"/>
<path d="M0 0 C4.93427971 -0.12206711 9.86751047 -0.22465551 14.80310059 -0.27313232 C16.72755196 -0.29459007 18.65177884 -0.33396209 20.57592773 -0.37426758 C27.11615738 -0.38796535 33.11615718 0.37558746 39.44799805 1.9152832 C40.12378906 2.07912506 40.79958008 2.24296692 41.49584961 2.41177368 C45.18756632 3.39329134 47.95447455 4.53571525 50.82299805 7.0793457 C49.50299805 7.7393457 48.18299805 8.3993457 46.82299805 9.0793457 C46.82299805 8.0893457 46.82299805 7.0993457 46.82299805 6.0793457 C45.53554769 5.69011653 44.24280208 5.31836534 42.94799805 4.9543457 C41.86905273 4.64110352 41.86905273 4.64110352 40.76831055 4.3215332 C40.12635742 4.24161133 39.4844043 4.16168945 38.82299805 4.0793457 C38.16299805 4.7393457 37.50299805 5.3993457 36.82299805 6.0793457 C34.92510713 5.88086147 33.02746367 5.66863439 31.1410408 5.38089371 C27.09029137 4.85394251 23.0363206 4.9406141 18.95727539 4.94995117 C18.00323822 4.94819885 17.04920105 4.94644653 16.06625366 4.94464111 C12.93046212 4.94026134 9.79472761 4.94314834 6.65893555 4.9465332 C4.46188344 4.94585872 2.2648314 4.94488749 0.06777954 4.94363403 C-4.53351554 4.94216202 -9.13479117 4.94429444 -13.73608398 4.94897461 C-19.59957759 4.95465138 -25.46302521 4.95140277 -31.32651711 4.94540215 C-35.86502419 4.94176586 -40.40352062 4.94294948 -44.94202805 4.94552994 C-47.10192241 4.9461918 -49.26181778 4.94539703 -51.42171097 4.94305038 C-62.72042989 4.93347313 -73.91891486 5.01067977 -85.17700195 6.0793457 C-76.15062506 0.82791372 -63.15714818 1.7249532 -53.00512695 1.4465332 C-51.69517761 1.4046991 -50.38522827 1.36286499 -49.0355835 1.31976318 C-45.5488771 1.20941438 -42.06195883 1.1096275 -38.5748291 1.0136795 C-36.41352851 0.9539735 -34.25229376 0.89224639 -32.09106445 0.83001709 C-21.39467949 0.52359431 -10.69740949 0.26716807 0 0 Z " fill="#28ADF5" transform="translate(123.177001953125,-0.079345703125)"/>
<path d="M0 0 C0.33 0 0.66 0 1 0 C1.02689216 1.47906892 1.04634621 2.95827483 1.0625 4.4375 C1.07410156 5.26121094 1.08570313 6.08492187 1.09765625 6.93359375 C1 9 1 9 0 10 C-1.15563338 16.72307323 -1.19038162 23.43630611 -1.26036072 30.24531364 C-1.28183647 32.3343936 -1.30883755 34.42334492 -1.33703613 36.51234436 C-1.38639843 40.23633967 -1.43094709 43.96037447 -1.47393799 47.68444824 C-1.54154225 53.52881294 -1.61337345 59.37311672 -1.69036865 65.21736526 C-1.70931388 66.67589089 -1.72758201 68.13442546 -1.74517822 69.59296799 C-1.84467987 77.74129468 -2.00910148 85.88086936 -2.32421875 94.02392578 C-2.35158363 94.76132398 -2.37894852 95.49872217 -2.40714264 96.25846577 C-2.53725187 99.75059775 -2.67942317 103.24073509 -2.84558105 106.73143005 C-3.18996342 115.58127158 -2.96682264 124.32962743 -1 133 C-0.34 133.33 0.32 133.66 1 134 C1 135.98 1 137.96 1 140 C-8.5761673 128.93831882 -6.51091525 110.05725712 -6.3125 96.5 C-6.29410004 94.29167719 -6.27702859 92.08334295 -6.26123047 89.875 C-6.21447096 84.31122613 -6.13944484 78.74830982 -6.05072021 73.18505859 C-6.00231778 70.14554857 -5.95886211 67.10600564 -5.91650391 64.06640625 C-5.83871926 58.71048502 -5.73738399 53.35529591 -5.625 48 C-5.60998444 47.20730713 -5.59496887 46.41461426 -5.57949829 45.59790039 C-5.03000331 18.36919386 -5.03000331 18.36919386 -2 8 C-1.34 8 -0.68 8 0 8 C0 5.36 0 2.72 0 0 Z " fill="#33B1F5" transform="translate(6,34)"/>
<path d="M0 0 C3.0625 2 3.0625 2 5 5 C5.39435378 7.80717625 5.24217646 10.14231773 5 13 C0.38 13 -4.24 13 -9 13 C-9 14.65 -9 16.3 -9 18 C-6.69 18.33 -4.38 18.66 -2 19 C-1.67 18.01 -1.34 17.02 -1 16 C0.98 16 2.96 16 5 16 C4.12269491 18.70502403 3.28331029 20.68400006 1.375 22.8125 C-2.06268265 24.53134132 -5.28943896 24.8172069 -9 24 C-11.9375 21.5625 -11.9375 21.5625 -14 19 C-14.33 18.67 -14.66 18.34 -15 18 C-15.51249688 12.52216448 -15.96124183 7.63411112 -13.125 2.8125 C-9.07537026 -0.64159595 -5.16284417 -0.76552517 0 0 Z " fill="#E9FBFD" transform="translate(61,74)"/>
<path d="M0 0 C2.5 1.3125 2.5 1.3125 4 3 C4 3.99 4 4.98 4 6 C-0.08718695 6.24042276 -3.17679443 5.42258812 -7 4 C-6.33798171 7.16129253 -6.33798171 7.16129253 -3.75 8.1328125 C-2.8425 8.46023437 -1.935 8.78765625 -1 9.125 C3.93273543 10.93273543 3.93273543 10.93273543 5 12 C5.58988764 18.25280899 5.58988764 18.25280899 3.125 21.375 C-0.67671577 24.28219441 -3.2057644 24.47942356 -8 24 C-10.51532261 22.58067853 -11.96183171 21.13759113 -14 19 C-14 18.01 -14 17.02 -14 16 C-12.02 16 -10.04 16 -8 16 C-7.67 16.99 -7.34 17.98 -7 19 C-5.35 18.67 -3.7 18.34 -2 18 C-1.67 17.01 -1.34 16.02 -1 15 C-1.92232422 14.83564453 -1.92232422 14.83564453 -2.86328125 14.66796875 C-3.67152344 14.50941406 -4.47976562 14.35085937 -5.3125 14.1875 C-6.51326172 13.96126953 -6.51326172 13.96126953 -7.73828125 13.73046875 C-10.28590928 12.9076597 -11.37695759 12.10944313 -13 10 C-13.5 7.0625 -13.5 7.0625 -13 4 C-9.10383084 -0.62670088 -5.66470662 -0.62941185 0 0 Z " fill="#DBF8FE" transform="translate(38,74)"/>
<path d="M0 0 C0.99837891 -0.00386719 1.99675781 -0.00773437 3.02539062 -0.01171875 C8.61742348 -0.00436565 14.05448505 0.10714461 19.5625 1.125 C20.0575 2.115 20.0575 2.115 20.5625 3.125 C19.93907715 3.13958252 19.3156543 3.15416504 18.67333984 3.16918945 C0.45800397 3.64412404 -14.68763887 5.85153422 -31.4375 13.125 C-32.40945312 13.54652344 -33.38140625 13.96804687 -34.3828125 14.40234375 C-36.40797985 15.29430617 -38.42416691 16.20663754 -40.4375 17.125 C-40.4375 14.815 -40.4375 12.505 -40.4375 10.125 C-26.8556295 2.9140069 -15.36423496 -0.05928322 0 0 Z " fill="#DBFAFE" transform="translate(48.4375,103.875)"/>
<path d="M0 0 C0 0.33 0 0.66 0 1 C-0.88558594 1.02578125 -1.77117187 1.0515625 -2.68359375 1.078125 C-18.77037278 1.81466847 -35.83082068 5.12297673 -49.734375 13.68359375 C-52 15 -52 15 -55 15 C-55 12.69 -55 10.38 -55 8 C-37.09689235 0.02873161 -19.6740776 -5.42733175 0 0 Z " fill="#D8F7FE" transform="translate(71,113)"/>
<path d="M0 0 C0.99 0.33 1.98 0.66 3 1 C3.05010671 6.83087975 3.08604754 12.66162927 3.10986328 18.49267578 C3.11981036 20.46893502 3.13337281 22.44517998 3.15087891 24.42138672 C3.24378222 35.19270602 3.01968784 45.61721816 1.48095703 56.28320312 C0.67598582 62.50395526 0.53633349 68.73488262 0.375 75 C0.33632812 76.26328125 0.29765625 77.5265625 0.2578125 78.828125 C0.16517122 81.88528726 0.07927415 84.94246711 0 88 C-0.33 88 -0.66 88 -1 88 C-1.023216 77.70746591 -1.0409622 67.4149381 -1.05181217 57.12238312 C-1.05702077 52.34264701 -1.06408157 47.56292889 -1.07543945 42.78320312 C-1.08634037 38.16665979 -1.09229207 33.5501337 -1.09487724 28.93357849 C-1.09671853 27.176221 -1.10031405 25.4188644 -1.10573006 23.66151428 C-1.11303619 21.19164015 -1.11398693 18.7218364 -1.11352539 16.25195312 C-1.11712067 15.53265625 -1.12071594 14.81335938 -1.12442017 14.07226562 C-1.11483684 9.30292923 -0.66820438 4.72341459 0 0 Z " fill="#12A3F2" transform="translate(197,56)"/>
<path d="M0 0 C0.721875 0.00257812 1.44375 0.00515625 2.1875 0.0078125 C2.909375 0.00523438 3.63125 0.00265625 4.375 0 C6.1875 0.1328125 6.1875 0.1328125 7.1875 1.1328125 C7.42277773 3.48268512 7.60136417 5.83837289 7.75 8.1953125 C7.83378906 9.48566406 7.91757813 10.77601562 8.00390625 12.10546875 C8.06449219 13.10449219 8.12507813 14.10351562 8.1875 15.1328125 C8.5175 14.1428125 8.8475 13.1528125 9.1875 12.1328125 C10.1775 12.4628125 11.1675 12.7928125 12.1875 13.1328125 C11.5275 14.7828125 10.8675 16.4328125 10.1875 18.1328125 C12.4975 18.1328125 14.8075 18.1328125 17.1875 18.1328125 C17.1875 17.1428125 17.1875 16.1528125 17.1875 15.1328125 C18.8375 15.1328125 20.4875 15.1328125 22.1875 15.1328125 C22.5175 16.7828125 22.8475 18.4328125 23.1875 20.1328125 C22.41664062 20.25398438 21.64578125 20.37515625 20.8515625 20.5 C19.84867188 20.66757813 18.84578125 20.83515625 17.8125 21.0078125 C16.31589844 21.25144531 16.31589844 21.25144531 14.7890625 21.5 C12.0449885 21.9286927 12.0449885 21.9286927 10.1875 24.1328125 C9.87212284 28.46924851 9.73852153 30.45934479 12.1875 34.1328125 C11.1975 34.6278125 11.1975 34.6278125 10.1875 35.1328125 C10.1875 34.4728125 10.1875 33.8128125 10.1875 33.1328125 C9.5275 33.1328125 8.8675 33.1328125 8.1875 33.1328125 C7.5275 34.4528125 6.8675 35.7728125 6.1875 37.1328125 C3.8775 36.4728125 1.5675 35.8128125 -0.8125 35.1328125 C-0.8125 34.8028125 -0.8125 34.4728125 -0.8125 34.1328125 C1.1675 34.1328125 3.1475 34.1328125 5.1875 34.1328125 C5.1875 23.5728125 5.1875 13.0128125 5.1875 2.1328125 C3.2075 2.1328125 1.2275 2.1328125 -0.8125 2.1328125 C-0.8125 6.0928125 -0.8125 10.0528125 -0.8125 14.1328125 C-2.8125 12.1328125 -2.8125 12.1328125 -3.04296875 9.56640625 C-3.02878906 8.57769531 -3.01460938 7.58898437 -3 6.5703125 C-2.99355469 5.57902344 -2.98710938 4.58773437 -2.98046875 3.56640625 C-2.74821155 0.20137757 -2.74821155 0.20137757 0 0 Z " fill="#0E99EA" transform="translate(85.8125,62.8671875)"/>
<path d="M0 0 C-6.4436972 3.71751762 -13.86893842 3.19803808 -21.0859375 3.31640625 C-22.67131821 3.3475779 -22.67131821 3.3475779 -24.28872681 3.37937927 C-27.65075445 3.44453991 -31.01285737 3.50360361 -34.375 3.5625 C-36.6601639 3.60571708 -38.94532031 3.64933238 -41.23046875 3.69335938 C-46.82023391 3.80018683 -52.41007324 3.90201425 -58 4 C-58 4.33 -58 4.66 -58 5 C-73.6313842 6.41873179 -89.32176224 6.09599524 -105 6 C-105.33 5.01 -105.66 4.02 -106 3 C-100.47009752 2.22210557 -95.10388833 1.84199201 -89.52368164 1.81054688 C-88.31466438 1.79810692 -88.31466438 1.79810692 -87.08122253 1.78541565 C-85.34509715 1.76812941 -83.60894993 1.75293242 -81.87278938 1.73963928 C-79.11821395 1.71842701 -76.36374722 1.69142065 -73.60923767 1.66296387 C-67.76036785 1.6035529 -61.91144616 1.55126337 -56.0625 1.5 C-49.28350719 1.44054614 -42.50456854 1.37810593 -35.72567558 1.30812073 C-33.02433439 1.2817544 -30.32298692 1.2608166 -27.62159729 1.2401123 C-25.94963315 1.2234924 -24.27767151 1.20661911 -22.60571289 1.18945312 C-21.8651767 1.18526871 -21.1246405 1.18108429 -20.36166382 1.17677307 C-15.8496406 1.12356957 -11.44316568 0.7786216 -6.96527767 0.21819305 C-4.63424355 -0.04060776 -2.34309369 -0.07558367 0 0 Z " fill="#15A5F3" transform="translate(162,194)"/>
<path d="M0 0 C0.5 3.1875 0.5 3.1875 0 7 C-6.3276223 13.69127876 -19.26836595 16.76409603 -28.15966797 17.07568359 C-30.56568513 17.09804897 -32.96902341 17.08744234 -35.375 17.0625 C-36.20644531 17.05798828 -37.03789062 17.05347656 -37.89453125 17.04882812 C-39.92971897 17.03713164 -41.96486923 17.01919935 -44 17 C-44 16.34 -44 15.68 -44 15 C-43.04867187 15.0309375 -43.04867187 15.0309375 -42.078125 15.0625 C-28.57174703 14.76401651 -14.77971188 8.45760083 -3.6796875 1.03125 C-2 0 -2 0 0 0 Z " fill="#E1F9FE" transform="translate(192,118)"/>
<path d="M0 0 C1.98 0 3.96 0 6 0 C6 10.89 6 21.78 6 33 C4.02 33 2.04 33 0 33 C0 22.11 0 11.22 0 0 Z " fill="#DCFCFE" transform="translate(169,64)"/>
<path d="M0 0 C1.4540625 0.0309375 1.4540625 0.0309375 2.9375 0.0625 C2.9375 0.3925 2.9375 0.7225 2.9375 1.0625 C1.2875 1.0625 -0.3625 1.0625 -2.0625 1.0625 C-2.0625 11.9525 -2.0625 22.8425 -2.0625 34.0625 C-0.0825 34.0625 1.8975 34.0625 3.9375 34.0625 C3.9375 23.5025 3.9375 12.9425 3.9375 2.0625 C4.2675 2.0625 4.5975 2.0625 4.9375 2.0625 C4.9375 12.9525 4.9375 23.8425 4.9375 35.0625 C2.20502652 36.42873674 -0.04448902 36.190926 -3.0625 36.0625 C-4.0625 35.0625 -4.0625 35.0625 -4.17602539 33.02124023 C-4.17078857 32.14669189 -4.16555176 31.27214355 -4.16015625 30.37109375 C-4.15693359 29.42685547 -4.15371094 28.48261719 -4.15039062 27.50976562 C-4.14201172 26.51654297 -4.13363281 25.52332031 -4.125 24.5 C-4.12048828 23.50291016 -4.11597656 22.50582031 -4.11132812 21.47851562 C-4.09950007 19.00645151 -4.08301849 16.53450482 -4.0625 14.0625 C-4.7225 14.0625 -5.3825 14.0625 -6.0625 14.0625 C-6.0625 20.9925 -6.0625 27.9225 -6.0625 35.0625 C-12.0025 35.3925 -17.9425 35.7225 -24.0625 36.0625 C-24.0625 35.0725 -24.0625 34.0825 -24.0625 33.0625 C-23.7325 33.3925 -23.4025 33.7225 -23.0625 34.0625 C-18.84678287 34.34993526 -15.88240452 33.86010213 -12.0625 32.0625 C-12.0625 32.7225 -12.0625 33.3825 -12.0625 34.0625 C-10.4125 34.0625 -8.7625 34.0625 -7.0625 34.0625 C-7.14359748 30.97810757 -7.25641689 27.89566088 -7.375 24.8125 C-7.39755859 23.93980469 -7.42011719 23.06710938 -7.44335938 22.16796875 C-7.61693721 16.0092222 -7.61693721 16.0092222 -11.0625 11.0625 C-8.0625 10.0625 -8.0625 10.0625 -5.0625 11.0625 C-4.97162109 9.99708984 -4.97162109 9.99708984 -4.87890625 8.91015625 C-4.79511719 7.99105469 -4.71132812 7.07195312 -4.625 6.125 C-4.54378906 5.20847656 -4.46257812 4.29195313 -4.37890625 3.34765625 C-3.89440408 -0.1515261 -3.64350125 0.07435717 0 0 Z " fill="#37A3DF" transform="translate(171.0625,62.9375)"/>
<path d="M0 0 C0.68545969 5.05526519 0.68545969 5.05526519 0 8 C-2.27087521 10.44898307 -4.98178043 11.6451762 -8 13 C-8.78632813 13.39316406 -9.57265625 13.78632812 -10.3828125 14.19140625 C-18.74757081 17.86217939 -27.06215575 17.37721265 -36 17 C-36 16.67 -36 16.34 -36 16 C-32.04 15.34 -28.08 14.68 -24 14 C-24 13.34 -24 12.68 -24 12 C-22.84242188 11.46890625 -21.68484375 10.9378125 -20.4921875 10.390625 C-18.95300382 9.67734476 -17.41394808 8.96378842 -15.875 8.25 C-14.73417969 7.72792969 -14.73417969 7.72792969 -13.5703125 7.1953125 C-10.20675779 5.62951979 -3.37425548 0 0 0 Z " fill="#D8F7FE" transform="translate(184,110)"/>
<path d="M0 0 C9.18514384 0.66263524 17.89864663 3.1460081 26.76635742 5.48608398 C36.15205954 7.9519226 45.34435938 9.85685549 55 11 C55 11.33 55 11.66 55 12 C54.0925 12.144375 53.185 12.28875 52.25 12.4375 C49.19941817 12.88752936 49.19941817 12.88752936 47.12304688 13.60449219 C44.37156994 14.11707184 42.4844883 13.59761103 39.78125 12.890625 C38.76546875 12.63023438 37.7496875 12.36984375 36.703125 12.1015625 C35.64609375 11.82054688 34.5890625 11.53953125 33.5 11.25 C32.47390625 10.98445313 31.4478125 10.71890625 30.390625 10.4453125 C26.21893925 9.36570538 22.04909693 8.28003881 17.88574219 7.16870117 C11.67770191 5.54927706 5.63625882 4.40442365 -0.75 3.8125 C-1.9565625 3.6897168 -1.9565625 3.6897168 -3.1875 3.56445312 C-5.12422396 3.36847511 -7.06200975 3.18303241 -9 3 C-9 2.67 -9 2.34 -9 2 C-4.545 1.505 -4.545 1.505 0 1 C0 0.67 0 0.34 0 0 Z " fill="#239CDC" transform="translate(71,109)"/>
<path d="M0 0 C0 0.66 0 1.32 0 2 C1.65 2 3.3 2 5 2 C4.67 4.97 4.34 7.94 4 11 C4.66 11.33 5.32 11.66 6 12 C2.22777066 14.66275012 -0.37207768 15.78773146 -5 15 C-7.4375 12.9375 -7.4375 12.9375 -9 10 C-9 6.11378952 -8.88107087 3.94183438 -6.1875 1.0625 C-4 0 -4 0 0 0 Z " fill="#E7F9FD" transform="translate(153,83)"/>
<path d="M0 0 C8.90624133 2.29203884 17.77294404 4.46651288 26.8203125 6.1171875 C29.3125 6.625 29.3125 6.625 31.3125 7.625 C31.3125 8.285 31.3125 8.945 31.3125 9.625 C20.9400301 9.29903708 11.39968237 6.83534864 1.4375 4.1875 C-9.24910656 1.35856161 -19.67980469 -1.11732593 -30.6875 -2.375 C-30.6875 -2.705 -30.6875 -3.035 -30.6875 -3.375 C-20.07545839 -5.45126901 -10.28661643 -2.70554009 0 0 Z " fill="#B8EFFC" transform="translate(92.6875,110.375)"/>
<path d="M0 0 C0.33 0 0.66 0 1 0 C1 5.94 1 11.88 1 18 C-1.66666667 18 -4.33333333 18 -7 18 C-7.66 18.33 -8.32 18.66 -9 19 C-12.54231061 19.38503376 -14.36257342 19.41935959 -17.375 17.4375 C-19.5996142 14.1005787 -19.50030235 11.93094707 -19 8 C-17.5 6.0625 -17.5 6.0625 -16 5 C-15.34 5.33 -14.68 5.66 -14 6 C-14.66 6.66 -15.32 7.32 -16 8 C-16.16681109 11.08347826 -16.16681109 11.08347826 -16 14 C-15.71125 13.030625 -15.4225 12.06125 -15.125 11.0625 C-14 8 -14 8 -12 7 C-9.6670134 6.95977609 -7.33293334 6.95679753 -5 7 C-5.33 9.64 -5.66 12.28 -6 15 C-5.34 15 -4.68 15 -4 15 C-4 15.66 -4 16.32 -4 17 C-2.68 17 -1.36 17 0 17 C0 11.39 0 5.78 0 0 Z " fill="#C8F4FE" transform="translate(114,79)"/>
<path d="M0 0 C0.33 0 0.66 0 1 0 C1.10516258 17.36315158 1.16674099 34.66556236 0 52 C-0.66 52 -1.32 52 -2 52 C-2 54.64 -2 57.28 -2 60 C-2.66 60 -3.32 60 -4 60 C-4 61.98 -4 63.96 -4 66 C-4.66 66 -5.32 66 -6 66 C-5.12151394 58.67928287 -5.12151394 58.67928287 -4.5234375 55.3359375 C-2.89211179 45.71842024 -2.66911757 36.17005361 -2.39672852 26.43359375 C-2.12238053 17.51038052 -1.41002627 8.81608661 0 0 Z " fill="#3BAFEF" transform="translate(199,100)"/>
<path d="M0 0 C4.08718695 -0.24042276 7.17679443 0.57741188 11 2 C11 1.34 11 0.68 11 0 C12.65 0 14.3 0 16 0 C16 5.66666667 16 11.33333333 16 17 C14.68 16.67 13.36 16.34 12 16 C12 16.99 12 17.98 12 19 C11.01 19 10.02 19 9 19 C9 19.66 9 20.32 9 21 C7.22925083 21.02705729 5.45838289 21.04642195 3.6875 21.0625 C2.70136719 21.07410156 1.71523438 21.08570312 0.69921875 21.09765625 C-2.62976757 20.97721536 -4.40694394 20.61423664 -6.75 18.1875 C-8 16 -8 16 -7.6875 13.75 C-7.460625 13.1725 -7.23375 12.595 -7 12 C-6.566875 12.78375 -6.13375 13.5675 -5.6875 14.375 C-4.10779753 17.21698375 -4.10779753 17.21698375 -1 19 C3.18380896 19.30427702 6.47170685 19.44266449 10 17 C11.4783226 14.04335481 11.06032783 11.25770263 11 8 C10.28972656 7.75765625 9.57945313 7.5153125 8.84765625 7.265625 C7.92855469 6.93046875 7.00945313 6.5953125 6.0625 6.25 C5.14597656 5.92515625 4.22945312 5.6003125 3.28515625 5.265625 C1 4 1 4 0.18359375 1.859375 C0.12300781 1.24578125 0.06242187 0.6321875 0 0 Z " fill="#219EE0" transform="translate(31,78)"/>
<path d="M0 0 C3.6875 0.375 3.6875 0.375 6.125 2.125 C8.48316365 7.02998038 8.50442166 12.02453108 7.6875 17.375 C6.421875 19.73046875 6.421875 19.73046875 4.6875 21.375 C1.92607697 21.90299676 -0.47615545 21.56098981 -3.3125 21.375 C-1.9375 19.875 -1.9375 19.875 -0.3125 18.375 C0.3475 18.375 1.0075 18.375 1.6875 18.375 C1.54629286 16.43715735 1.39937127 14.49973045 1.25 12.5625 C1.16878906 11.48355469 1.08757812 10.40460938 1.00390625 9.29296875 C0.78537539 6.31510095 0.78537539 6.31510095 -0.3125 3.375 C-2.31266466 2.16617904 -2.31266466 2.16617904 -4.3125 1.375 C-3.3125 0.375 -3.3125 0.375 0 0 Z " fill="#EEFCFD" transform="translate(133.3125,74.625)"/>
<path d="M0 0 C1.32 0 2.64 0 4 0 C4 10.23 4 20.46 4 31 C2.68 31 1.36 31 0 31 C-1.2063366 25.77254141 -0.75612577 21.23471686 0 16 C-0.66 16 -1.32 16 -2 16 C-2 15.01 -2 14.02 -2 13 C-1.34 13 -0.68 13 0 13 C0 8.71 0 4.42 0 0 Z " fill="#F7FEFE" transform="translate(86,65)"/>
<path d="M0 0 C1.57420574 0.01509601 3.14842572 0.0287756 4.72265625 0.04101562 C8.52379905 0.07358196 12.32423506 0.12508218 16.125 0.1875 C16.125 0.5175 16.125 0.8475 16.125 1.1875 C15.23941406 1.1968457 14.35382813 1.20619141 13.44140625 1.21582031 C-19.52456784 0.95174075 -19.52456784 0.95174075 -47.92578125 15.9765625 C-54.1284641 23.0120705 -58.43047976 31.1733316 -60.875 40.1875 C-62.43594741 35.72910772 -60.9649266 33.00832183 -59.16015625 28.8359375 C-53.42236422 17.0115515 -44.2644211 7.86811222 -31.875 3.1875 C-21.1695975 0.07344298 -11.04061724 -0.18694975 0 0 Z " fill="#87CCF4" transform="translate(63.875,-0.1875)"/>
<path d="M0 0 C12.21 0 24.42 0 37 0 C37 0.66 37 1.32 37 2 C34.94921875 2.22786458 32.8984375 2.45572917 30.84765625 2.68359375 C28.98859771 2.81886614 28.98859771 2.81886614 28 4 C24.8214035 4.28102796 21.62702321 4.23191624 18.4375 4.25 C17.11395508 4.2809375 17.11395508 4.2809375 15.76367188 4.3125 C9.8032234 4.34774286 5.45368711 3.41820432 0 1 C0 0.67 0 0.34 0 0 Z " fill="#1D9ADF" transform="translate(118,121)"/>
<path d="M0 0 C0.72147217 0.00080566 1.44294434 0.00161133 2.1862793 0.00244141 C8.76179397 0.07779277 14.81329427 0.43802951 20.4375 4.1875 C8.5575 4.5175 -3.3225 4.8475 -15.5625 5.1875 C-15.5625 4.5275 -15.5625 3.8675 -15.5625 3.1875 C-13.5825 3.1875 -11.6025 3.1875 -9.5625 3.1875 C-9.5625 2.5275 -9.5625 1.8675 -9.5625 1.1875 C-6.51433089 -0.33658455 -3.34241692 -0.00379002 0 0 Z " fill="#1B9DE2" transform="translate(53.5625,106.8125)"/>
<path d="M0 0 C2.5 0.1875 2.5 0.1875 5 1 C7.19398856 4.29098284 7.21503664 4.84832581 6.75 8.5625 C6.66234375 9.34753906 6.5746875 10.13257812 6.484375 10.94140625 C6 13 6 13 4 15 C1.4375 14.75 1.4375 14.75 -1 14 C-2.23887548 11.52224905 -2.16741669 9.76346293 -2.1875 7 C-2.20167969 6.113125 -2.21585937 5.22625 -2.23046875 4.3125 C-2 2 -2 2 0 0 Z " fill="#029DEF" transform="translate(78,78)"/>
<path d="M0 0 C2.86724686 0.57344937 3.8614515 0.8614515 6 3 C6.56872038 10.0521327 6.56872038 10.0521327 4.5 13.5 C4.005 13.995 3.51 14.49 3 15 C0.5625 14.625 0.5625 14.625 -2 14 C-3.58873246 10.82253509 -3.41026221 7.45987798 -3 4 C-1.5 1.5 -1.5 1.5 0 0 Z " fill="#179EE7" transform="translate(129,78)"/>
<path d="M0 0 C-0.33 0.66 -0.66 1.32 -1 2 C-1.99 2 -2.98 2 -4 2 C-4 2.99 -4 3.98 -4 5 C-5.93370231 6.00732399 -7.87210306 7.00563288 -9.8125 8 C-11.43091797 8.8353125 -11.43091797 8.8353125 -13.08203125 9.6875 C-16 11 -16 11 -19 11 C-19 8.69 -19 6.38 -19 4 C-6.16286307 -2.13329876 -6.16286307 -2.13329876 0 0 Z " fill="#E4FBFD" transform="translate(35,117)"/>
<path d="M0 0 C0.66 0.33 1.32 0.66 2 1 C1.67 1.66 1.34 2.32 1 3 C-0.63299924 7.89899773 -0.65102315 13.04693056 1 18 C0.34 18 -0.32 18 -1 18 C-1.495 15.525 -1.495 15.525 -2 13 C-3.31471568 13.28151087 -4.62675767 13.57553339 -5.9375 13.875 C-7.03384766 14.11863281 -7.03384766 14.11863281 -8.15234375 14.3671875 C-10.20700294 14.82961523 -10.20700294 14.82961523 -11 17 C-13.31 16.67 -15.62 16.34 -18 16 C-18 14.35 -18 12.7 -18 11 C-13.38 11 -8.76 11 -4 11 C-4 8.69 -4 6.38 -4 4 C-3.34 4 -2.68 4 -2 4 C-1.34 2.68 -0.68 1.36 0 0 Z " fill="#31A2DF" transform="translate(70,76)"/>
<path d="M0 0 C7.02113889 1.80915535 14.02542861 3.18204943 21.1953125 4.25976562 C21.1953125 5.24976563 21.1953125 6.23976562 21.1953125 7.25976562 C16.03848665 6.69432419 11.21856386 5.85370568 6.1953125 4.50976562 C-4.7087427 1.66546326 -15.76408834 -0.50003264 -26.8046875 -2.74023438 C-19.0259606 -7.16190511 -8.08420061 -2.12442868 0 0 Z " fill="#3FA4D8" transform="translate(112.8046875,123.740234375)"/>
<path d="M0 0 C2.64 0 5.28 0 8 0 C8 0.33 8 0.66 8 1 C5.69 1 3.38 1 1 1 C1 10.9 1 20.8 1 31 C0.67 31 0.34 31 0 31 C0 23.41 0 15.82 0 8 C-0.66 8 -1.32 8 -2 8 C-2 13.94 -2 19.88 -2 26 C-7.94 26 -13.88 26 -20 26 C-19.67 25.34 -19.34 24.68 -19 24 C-18.0925 24.04125 -17.185 24.0825 -16.25 24.125 C-13.1217954 24.00468444 -11.61385994 23.6085292 -9 22 C-9 22.66 -9 23.32 -9 24 C-7.02 24 -5.04 24 -3 24 C-3.1140575 21.08252927 -3.24080268 18.16655505 -3.375 15.25 C-3.4059375 14.425 -3.436875 13.6 -3.46875 12.75 C-3.50742188 11.95078125 -3.54609375 11.1515625 -3.5859375 10.328125 C-3.63306885 9.22839355 -3.63306885 9.22839355 -3.68115234 8.10644531 C-4.03772523 5.75077082 -4.83662883 4.06549409 -6 2 C-4.68 2.66 -3.36 3.32 -2 4 C-2 4.66 -2 5.32 -2 6 C-1.34 6 -0.68 6 0 6 C0 4.02 0 2.04 0 0 Z " fill="#1D99DE" transform="translate(118,73)"/>
<path d="M0 0 C0.99 0.33 1.98 0.66 3 1 C4.2062252 4.61867559 4.10816918 7.92506251 4.0625 11.6875 C4.05798828 12.38939453 4.05347656 13.09128906 4.04882812 13.81445312 C4.03706927 15.54300538 4.01913454 17.27151365 4 19 C2.68 19 1.36 19 0 19 C0 18.34 0 17.68 0 17 C-0.66 17 -1.32 17 -2 17 C-1.67 14.03 -1.34 11.06 -1 8 C-2.65 8 -4.3 8 -6 8 C-6 7.34 -6 6.68 -6 6 C-4.35 5.67 -2.7 5.34 -1 5 C-0.67 3.35 -0.34 1.7 0 0 Z " fill="#F6FDFD" transform="translate(159,77)"/>
<path d="M0 0 C0.78503906 -0.01675781 1.57007813 -0.03351563 2.37890625 -0.05078125 C3.39791016 0.12904297 3.39791016 0.12904297 4.4375 0.3125 C5.0975 1.3025 5.7575 2.2925 6.4375 3.3125 C5.7775 3.9725 5.1175 4.6325 4.4375 5.3125 C4.27062552 7.89604218 4.27062552 7.89604218 4.4375 10.3125 C1.4675 10.3125 -1.5025 10.3125 -4.5625 10.3125 C-4.748125 8.889375 -4.748125 8.889375 -4.9375 7.4375 C-5.27937177 4.22582809 -5.27937177 4.22582809 -7.5625 2.3125 C-4.45212372 0.23891581 -3.56688748 0.01762877 0 0 Z " fill="#DBF9FD" transform="translate(56.5625,73.6875)"/>
<path d="M0 0 C0.33 0 0.66 0 1 0 C1.19457531 11.9499178 1.28675382 23.58830786 -0.48828125 35.421875 C-1.88109701 46.16862828 -1.71942377 57.17842581 -2 68 C-2.33 68 -2.66 68 -3 68 C-3.02514475 63.16601927 -3.04306491 58.33207847 -3.05493164 53.49804688 C-3.05989045 51.86132136 -3.06665953 50.2246001 -3.07543945 48.58789062 C-3.13240371 37.67755934 -2.8320668 26.88159519 -2 16 C-1.34 16 -0.68 16 0 16 C0 10.72 0 5.44 0 0 Z " fill="#1FA9F4" transform="translate(199,76)"/>
<path d="M0 0 C0.33 0 0.66 0 1 0 C1.71310548 19.83530326 0.86651776 37.54873735 -13 53 C-13 49.25144438 -11.47209815 47.81020769 -9.30859375 44.88671875 C-5.60549666 39.54762653 -4.55329305 34.30754075 -4 28 C-3.34 28 -2.68 28 -2 28 C-2 25.36 -2 22.72 -2 20 C-1.34 20 -0.68 20 0 20 C0 13.4 0 6.8 0 0 Z " fill="#53BBF1" transform="translate(199,132)"/>
<path d="M0 0 C0.33 0 0.66 0 1 0 C1 10.56 1 21.12 1 32 C-0.98 32 -2.96 32 -5 32 C-5 31.34 -5 30.68 -5 30 C-5.70125 30.515625 -6.4025 31.03125 -7.125 31.5625 C-10.60887535 33.30443767 -12.2983569 32.94693195 -16 32 C-16 31.67 -16 31.34 -16 31 C-14.35 30.67 -12.7 30.34 -11 30 C-11.66 29.67 -12.32 29.34 -13 29 C-12.67 28.34 -12.34 27.68 -12 27 C-9.4375 26.375 -9.4375 26.375 -7 26 C-6.95101562 25.36191406 -6.90203125 24.72382812 -6.8515625 24.06640625 C-6.77679688 23.24011719 -6.70203125 22.41382812 -6.625 21.5625 C-6.55539063 20.73878906 -6.48578125 19.91507813 -6.4140625 19.06640625 C-6.20910156 18.04353516 -6.20910156 18.04353516 -6 17 C-5.34 16.67 -4.68 16.34 -4 16 C-4 20.95 -4 25.9 -4 31 C-2.68 31 -1.36 31 0 31 C0 20.77 0 10.54 0 0 Z " fill="#CAF8FD" transform="translate(90,65)"/>
<path d="M0 0 C0.33 0 0.66 0 1 0 C1.01981934 0.648479 1.03963867 1.29695801 1.06005859 1.96508789 C1.3141807 20.60796975 1.3141807 20.60796975 4 39 C4.66 39.33 5.32 39.66 6 40 C6 41.98 6 43.96 6 46 C-2.00981551 36.86559722 -1.65389455 21.56200133 -1.14697266 10.08984375 C-0.90886107 6.70407107 -0.46563028 3.36162349 0 0 Z " fill="#21A2EB" transform="translate(1,128)"/>
<path d="M0 0 C1.98 0 3.96 0 6 0 C5.12269491 2.70502403 4.28331029 4.68400006 2.375 6.8125 C-1.06086214 8.53043107 -4.29162339 8.82245184 -8 8 C-11 5.5 -11 5.5 -13 3 C-12.01 3 -11.02 3 -10 3 C-10 3.66 -10 4.32 -10 5 C-9.01 5 -8.02 5 -7 5 C-6.67 4.01 -6.34 3.02 -6 2 C-4.35 2.33 -2.7 2.66 -1 3 C-0.67 2.01 -0.34 1.02 0 0 Z " fill="#C5F1FC" transform="translate(60,90)"/>
<path d="M0 0 C0.33 0 0.66 0 1 0 C1.02487171 4.98046512 1.04294081 9.96089342 1.05493164 14.94140625 C1.05993487 16.63281891 1.06673952 18.32422731 1.07543945 20.015625 C1.08768185 22.45834411 1.09326855 24.90100562 1.09765625 27.34375 C1.10281754 28.08991577 1.10797882 28.83608154 1.11329651 29.6048584 C1.11380862 34.48755973 0.69035046 39.16515799 0 44 C-0.66 44 -1.32 44 -2 44 C-2 45.98 -2 47.96 -2 50 C-2.66 50 -3.32 50 -4 50 C-3.12151394 42.67928287 -3.12151394 42.67928287 -2.5234375 39.3359375 C-0.31946548 26.34237112 -0.33626578 13.14717164 0 0 Z " fill="#2DB3FB" transform="translate(197,116)"/>
<path d="M0 0 C0 0.33 0 0.66 0 1 C-1.79158489 1.02696365 -3.58328473 1.04637917 -5.375 1.0625 C-6.37273437 1.07410156 -7.37046875 1.08570312 -8.3984375 1.09765625 C-11 1 -11 1 -13 0 C-15.69829074 -0.09791023 -18.36484461 -0.1390625 -21.0625 -0.125 C-22.18108398 -0.13080078 -22.18108398 -0.13080078 -23.32226562 -0.13671875 C-26.95917324 -0.47211152 -26.95917324 -0.47211152 -30 1 C-32.83972535 1.32351301 -35.68073737 1.5130429 -38.53125 1.71875 C-40.9413605 1.73385265 -40.9413605 1.73385265 -42 3 C-43.66617115 3.04063832 -45.33388095 3.042721 -47 3 C-37.30348322 -6.69651678 -12.20591098 -2.83035617 0 0 Z " fill="#1C9BDC" transform="translate(93,124)"/>
<path d="M0 0 C0.33 0.33 0.66 0.66 1 1 C3.51859228 1.5619518 6.02873303 2.07976773 8.5625 2.5625 C9.27341797 2.70107422 9.98433594 2.83964844 10.71679688 2.98242188 C12.47719932 3.32505054 14.23851797 3.66296553 16 4 C16 4.66 16 5.32 16 6 C16.99 6.33 17.98 6.66 19 7 C9.75007214 6.53909294 0.42769514 6.04344286 -7 0 C-4.31633121 -1.3418344 -2.84719317 -0.73004953 0 0 Z " fill="#109BE8" transform="translate(33,193)"/>
<path d="M0 0 C0.33 0 0.66 0 1 0 C1.8320582 5.72040011 2.12036664 11.22240116 2 17 C0.68 17 -0.64 17 -2 17 C-2 16.34 -2 15.68 -2 15 C-2.66 15 -3.32 15 -4 15 C-3.63495936 9.33557626 -2.9445679 4.99296295 0 0 Z " fill="#F4FDFD" transform="translate(112,79)"/>
<path d="M0 0 C0.66 0 1.32 0 2 0 C2 9.24 2 18.48 2 28 C1.34 28 0.68 28 0 28 C-2.39655007 19.01293723 -0.80003633 9.11469956 0 0 Z " fill="#FCFEFC" transform="translate(171,67)"/>
<path d="M0 0 C2.64 0 5.28 0 8 0 C8 11.22 8 22.44 8 34 C7.67 34 7.34 34 7 34 C7 23.44 7 12.88 7 2 C5.02 2 3.04 2 1 2 C1 5.96 1 9.92 1 14 C-1 12 -1 12 -1.23046875 9.43359375 C-1.21628906 8.44488281 -1.20210938 7.45617187 -1.1875 6.4375 C-1.18105469 5.44621094 -1.17460938 4.45492187 -1.16796875 3.43359375 C-1 1 -1 1 0 0 Z " fill="#4EADDF" transform="translate(84,63)"/>
<path d="M0 0 C-0.66 0 -1.32 0 -2 0 C-2 0.66 -2 1.32 -2 2 C-3.65 2 -5.3 2 -7 2 C-7 2.66 -7 3.32 -7 4 C-8.65 4 -10.3 4 -12 4 C-12 4.99 -12 5.98 -12 7 C-16.75 8.125 -16.75 8.125 -19 7 C-17.62040106 2.86120317 -15.79425664 2.06959453 -12 0 C-7.96695029 -1.01406816 -3.97352135 -1.49007051 0 0 Z " fill="#F4FCFD" transform="translate(36,107)"/>
<path d="M0 0 C3.19519953 3.52479031 4.12934953 7.42080326 5.1875 11.9375 C5.36474609 12.64068359 5.54199219 13.34386719 5.72460938 14.06835938 C6.62458383 17.77597614 7.21662895 21.18284844 7 25 C6.01 25 5.02 25 4 25 C2.82706111 18.6221448 1.70469162 12.49678438 2 6 C1.34 6 0.68 6 0 6 C0 4.02 0 2.04 0 0 Z " fill="#0F9BE6" transform="translate(193,26)"/>
<path d="M0 0 C0.66 0 1.32 0 2 0 C1.34 1.98 0.68 3.96 0 6 C2.31 6 4.62 6 7 6 C7 5.01 7 4.02 7 3 C8.65 3 10.3 3 12 3 C12.33 4.65 12.66 6.3 13 8 C12.39671875 8.04898438 11.7934375 8.09796875 11.171875 8.1484375 C10.37265625 8.22320312 9.5734375 8.29796875 8.75 8.375 C7.96109375 8.44460937 7.1721875 8.51421875 6.359375 8.5859375 C3.914123 9.01507113 2.15163097 9.78600638 0 11 C-1.16461426 7.50615721 -1.13568319 4.66344611 -1 1 C-0.67 0.67 -0.34 0.34 0 0 Z " fill="#2A9DDB" transform="translate(145,75)"/>
<path d="M0 0 C0.90105469 0.01804687 1.80210938 0.03609375 2.73046875 0.0546875 C3.41753906 0.07789062 4.10460937 0.10109375 4.8125 0.125 C3.5625 2.125 3.5625 2.125 1.8125 4.125 C0.4925 4.125 -0.8275 4.125 -2.1875 4.125 C-2.1875 5.115 -2.1875 6.105 -2.1875 7.125 C-4.4975 7.125 -6.8075 7.125 -9.1875 7.125 C-8.875 4.75 -8.875 4.75 -8.1875 2.125 C-4.87379 -0.08414 -3.8428979 -0.09981553 0 0 Z " fill="#DCF8FE" transform="translate(105.1875,73.875)"/>
<path d="M0 0 C2.50224098 0.27237312 4.80268573 0.65435188 7.25 1.1875 C8.23419922 1.37795898 8.23419922 1.37795898 9.23828125 1.57226562 C13.5457234 2.46715172 17.15495924 3.88045113 21 6 C19.68 6.99 18.36 7.98 17 9 C17 8.01 17 7.02 17 6 C15.71254964 5.61077082 14.41980403 5.23901964 13.125 4.875 C12.04605469 4.56175781 12.04605469 4.56175781 10.9453125 4.2421875 C10.30335938 4.16226562 9.66140625 4.08234375 9 4 C8.34 4.66 7.68 5.32 7 6 C4.27130593 5.96712417 1.7033382 5.43602229 -1 5 C-1.33 4.01 -1.66 3.02 -2 2 C-1.34 1.34 -0.68 0.68 0 0 Z " fill="#0DA2F4" transform="translate(153,0)"/>
<path d="M0 0 C6.27 0 12.54 0 19 0 C19 0.33 19 0.66 19 1 C21.475 1.495 21.475 1.495 24 2 C24 2.33 24 2.66 24 3 C20.37501666 3.02893932 16.75006287 3.04677792 13.125 3.0625 C11.57619141 3.07506836 11.57619141 3.07506836 9.99609375 3.08789062 C9.00996094 3.09111328 8.02382812 3.09433594 7.0078125 3.09765625 C5.64100342 3.10551147 5.64100342 3.10551147 4.24658203 3.11352539 C2 3 2 3 0 2 C0 1.34 0 0.68 0 0 Z " fill="#D1F8FE" transform="translate(124,118)"/>
<path d="M0 0 C7.95398808 0.45406625 15.32797907 1.87111461 23 4 C23 4.66 23 5.32 23 6 C15.45724327 5.62415817 8.00015543 5.06715406 1 2 C0.67 1.34 0.34 0.68 0 0 Z " fill="#C8F4FE" transform="translate(101,114)"/>
<path d="M0 0 C0.3125 3.3125 0.3125 3.3125 0 7 C-2.80895252 9.56110377 -4.52406656 9.97306037 -8.3125 10.1875 C-9.6428125 10.0946875 -9.6428125 10.0946875 -11 10 C-9.625 8 -9.625 8 -8 6 C-7.34 6 -6.68 6 -6 6 C-5.8453125 5.071875 -5.8453125 5.071875 -5.6875 4.125 C-4.72223986 1.14146864 -3.16449578 0 0 0 Z " fill="#E5FAFE" transform="translate(176,103)"/>
<path d="M0 0 C1.98 0 3.96 0 6 0 C6.33 0.99 6.66 1.98 7 3 C8.65 3 10.3 3 12 3 C12 3.33 12 3.66 12 4 C10.35 4 8.7 4 7 4 C7 4.99 7 5.98 7 7 C8.98 7 10.96 7 13 7 C13 7.33 13 7.66 13 8 C8.68725946 8.43127405 5.95799604 8.39417226 2.5625 5.6875 C0 3 0 3 0 0 Z " fill="#C2EEFD" transform="translate(24,90)"/>
<path d="M0 0 C1.65 0 3.3 0 5 0 C5.33 1.65 5.66 3.3 6 5 C4.84371094 5.19916016 4.84371094 5.19916016 3.6640625 5.40234375 C2.66117188 5.57894531 1.65828125 5.75554687 0.625 5.9375 C-0.87160156 6.19853516 -0.87160156 6.19853516 -2.3984375 6.46484375 C-4.96909656 6.87712062 -4.96909656 6.87712062 -7 8 C-7 6.35 -7 4.7 -7 3 C-4.69 3 -2.38 3 0 3 C0 2.01 0 1.02 0 0 Z " fill="#3FA6DA" transform="translate(103,78)"/>
<path d="M0 0 C0.66 0.33 1.32 0.66 2 1 C-11.34831461 12 -11.34831461 12 -19 12 C-19 11.34 -19 10.68 -19 10 C-17.68 10 -16.36 10 -15 10 C-15 9.34 -15 8.68 -15 8 C-13.02 7.67 -11.04 7.34 -9 7 C-9 6.34 -9 5.68 -9 5 C-7.35 4.67 -5.7 4.34 -4 4 C-3.67 3.01 -3.34 2.02 -3 1 C-2.01 0.67 -1.02 0.34 0 0 Z " fill="#58B8EB" transform="translate(183,185)"/>
<path d="M0 0 C1.299375 0.680625 1.299375 0.680625 2.625 1.375 C5.71476907 2.86266659 8.72930848 3.9876431 12 5 C11.67 6.32 11.34 7.64 11 9 C9.35 9 7.7 9 6 9 C5.67 8.34 5.34 7.68 5 7 C1.97065509 6.34227572 1.97065509 6.34227572 -1 6 C-0.34 5.34 0.32 4.68 1 4 C0.6814823 1.89179203 0.6814823 1.89179203 0 0 Z " fill="#1C9ADF" transform="translate(25,84)"/>
<path d="M0 0 C0 0.66 0 1.32 0 2 C-2.05078125 2.22786458 -4.1015625 2.45572917 -6.15234375 2.68359375 C-8.01140229 2.81886614 -8.01140229 2.81886614 -9 4 C-11.01964199 4.07244053 -13.04167124 4.08377188 -15.0625 4.0625 C-16.71958984 4.04896484 -16.71958984 4.04896484 -18.41015625 4.03515625 C-19.26480469 4.02355469 -20.11945313 4.01195313 -21 4 C-21.33 3.34 -21.66 2.68 -22 2 C-19.64655194 1.66076424 -17.2924516 1.32849466 -14.9375 1 C-14.28072266 0.90460938 -13.62394531 0.80921875 -12.94726562 0.7109375 C-8.59861237 0.11112326 -4.38670929 -0.09127093 0 0 Z " fill="#0A9AEB" transform="translate(155,121)"/>
<path d="M0 0 C7.52008154 -0.36984008 7.52008154 -0.36984008 9.609375 1.24023438 C11.37220868 3.47101127 11.34966133 4.6334871 11.29296875 7.44921875 C11.28330078 8.29677734 11.27363281 9.14433594 11.26367188 10.01757812 C11.23853516 10.89865234 11.21339844 11.77972656 11.1875 12.6875 C11.17396484 13.58017578 11.16042969 14.47285156 11.14648438 15.39257812 C11.11114079 17.59566166 11.06180493 19.79752582 11 22 C9.35 22 7.7 22 6 22 C7.32 21.67 8.64 21.34 10 21 C9.8590651 18.56212615 9.71245458 16.12482147 9.5625 13.6875 C9.50352539 12.65206055 9.50352539 12.65206055 9.44335938 11.59570312 C9.25072585 8.52838465 8.97677283 5.93031848 8 3 C7.34 2.67 6.68 2.34 6 2 C6 3.65 6 5.3 6 7 C5.67 7 5.34 7 5 7 C5 5.35 5 3.7 5 2 C3.35 1.67 1.7 1.34 0 1 C0 0.67 0 0.34 0 0 Z " fill="#D6F9FE" transform="translate(153,75)"/>
<path d="M0 0 C5.72594481 3.29241827 10.00600493 7.74901155 14 13 C14 13.66 14 14.32 14 15 C11.83125748 14.49396008 10.00032373 14.00016187 8 13 C7.62875 11.88625 7.62875 11.88625 7.25 10.75 C5.97990543 7.95579195 5.21611757 7.18854178 2.875 5.375 C1.92625 4.59125 0.9775 3.8075 0 3 C0 2.01 0 1.02 0 0 Z " fill="#1599E5" transform="translate(178,9)"/>
<path d="M0 0 C2 6.625 2 6.625 2 10 C1.67 9.34 1.34 8.68 1 8 C0.34 8 -0.32 8 -1 8 C-1.66 9.32 -2.32 10.64 -3 12 C-5.31 11.34 -7.62 10.68 -10 10 C-10 9.67 -10 9.34 -10 9 C-7.69 9 -5.38 9 -3 9 C-3 6.36 -3 3.72 -3 1 C-1 0 -1 0 0 0 Z " fill="#20A0E7" transform="translate(95,88)"/>
<path d="M0 0 C1.98 0 3.96 0 6 0 C4.25 3.875 4.25 3.875 2 5 C-0.37402501 5.07116382 -2.75000677 5.08409085 -5.125 5.0625 C-6.40632812 5.05347656 -7.68765625 5.04445313 -9.0078125 5.03515625 C-10.48894531 5.01775391 -10.48894531 5.01775391 -12 5 C-12 4.67 -12 4.34 -12 4 C-8.04 3.34 -4.08 2.68 0 2 C0 1.34 0 0.68 0 0 Z " fill="#F4FDFE" transform="translate(160,122)"/>
<path d="M0 0 C0.33 0 0.66 0 1 0 C1.29917735 7.47943384 0.12171282 14.61895842 -1 22 C-1.35349267 24.66479092 -1.67971785 27.33098209 -2 30 C-2.33 30 -2.66 30 -3 30 C-3.35040984 8.04098361 -3.35040984 8.04098361 0 0 Z " fill="#5FC0F5" transform="translate(4,34)"/>
<path d="M0 0 C0.33 1.32 0.66 2.64 1 4 C-2.69172595 7.53790403 -6.09390595 7.59115883 -11 8 C-9.1875 5.5 -9.1875 5.5 -7 3 C-6.01 3 -5.02 3 -4 3 C-4 2.34 -4 1.68 -4 1 C-2.68 0.67 -1.36 0.34 0 0 Z " fill="#F2FCFC" transform="translate(182,114)"/>
<path d="M0 0 C-0.33 1.98 -0.66 3.96 -1 6 C-2.98 6.33 -4.96 6.66 -7 7 C-7.6875 5.1875 -7.6875 5.1875 -8 3 C-5.85915306 -0.33020635 -3.75910189 -0.30479204 0 0 Z " fill="#219FDF" transform="translate(109,86)"/>
<path d="M0 0 C0 0.66 0 1.32 0 2 C-6.88002171 4.62096065 -13.72176039 4.18170362 -21 4 C-21 3.34 -21 2.68 -21 2 C-18.06271706 1.66465271 -15.12520182 1.33163987 -12.1875 1 C-11.35412109 0.90460938 -10.52074219 0.80921875 -9.66210938 0.7109375 C-8.45844727 0.57558594 -8.45844727 0.57558594 -7.23046875 0.4375 C-6.12288208 0.31181641 -6.12288208 0.31181641 -4.99291992 0.18359375 C-3 0 -3 0 0 0 Z " fill="#F1FEFE" transform="translate(169,131)"/>
<path d="M0 0 C-0.33 0.66 -0.66 1.32 -1 2 C-1.99 2 -2.98 2 -4 2 C-4 2.99 -4 3.98 -4 5 C-6.64 5.33 -9.28 5.66 -12 6 C-8.5904059 0.27675277 -8.5904059 0.27675277 -6 -0.9375 C-3.81055 -1.00592031 -2.08004113 -0.66858465 0 0 Z " fill="#F5FDFC" transform="translate(35,117)"/>
<path d="M0 0 C0.78375 0.04125 1.5675 0.0825 2.375 0.125 C2.045 2.105 1.715 4.085 1.375 6.125 C-0.275 6.455 -1.925 6.785 -3.625 7.125 C-4.25 4.75 -4.25 4.75 -4.625 2.125 C-2.625 0.125 -2.625 0.125 0 0 Z " fill="#139DE1" transform="translate(155.625,85.875)"/>
<path d="M0 0 C6.875 0.875 6.875 0.875 8 2 C8.04063832 3.66617115 8.042721 5.33388095 8 7 C6.68 6.67 5.36 6.34 4 6 C4 5.34 4 4.68 4 4 C2.35 4 0.7 4 -1 4 C-0.67 2.68 -0.34 1.36 0 0 Z " fill="#F9FDFD" transform="translate(33,83)"/>
<path d="M0 0 C1.09582162 2.74600005 1.08328233 3.79273345 -0.0390625 6.5859375 C-3.00759379 11.80645804 -5.93059851 16.57153367 -10 21 C-10 17.25389323 -8.48331924 15.8133404 -6.3046875 12.90234375 C-4.37312152 10.08595863 -3.25720386 7.17294306 -2 4 C-1.34711373 2.65986503 -0.68774405 1.32258472 0 0 Z " fill="#61BBEB" transform="translate(196,164)"/>
<path d="M0 0 C3.63 0 7.26 0 11 0 C11 0.66 11 1.32 11 2 C7.17010894 3.80230168 4.21878192 4.19622241 0 4 C0 2.68 0 1.36 0 0 Z " fill="#EFFDFD" transform="translate(45,121)"/>
<path d="M0 0 C0.66 0 1.32 0 2 0 C2.33 3.3 2.66 6.6 3 10 C0.67309553 11.01802071 -1.65844053 12.01663321 -4 13 C-4.69480469 13.29777344 -5.38960937 13.59554687 -6.10546875 13.90234375 C-6.79253906 14.18207031 -7.47960937 14.46179688 -8.1875 14.75 C-8.82042969 15.01296875 -9.45335937 15.2759375 -10.10546875 15.546875 C-12.38552697 16.09220851 -13.79711378 15.72289836 -16 15 C-15.09636719 14.66226563 -14.19273437 14.32453125 -13.26171875 13.9765625 C-12.08222656 13.53054687 -10.90273437 13.08453125 -9.6875 12.625 C-8.51574219 12.18414062 -7.34398437 11.74328125 -6.13671875 11.2890625 C-2.91446407 10.08510352 -2.91446407 10.08510352 0 8 C0.36297936 6.02252878 0.36297936 6.02252878 0.1875 3.875 C0.125625 2.59625 0.06375 1.3175 0 0 Z " fill="#36A5DF" transform="translate(191,117)"/>
<path d="M0 0 C12.66970387 0.96355353 12.66970387 0.96355353 18 2 C18 2.99 18 3.98 18 5 C11.69632197 4.41632611 6.01339937 2.95928381 0 1 C0 0.67 0 0.34 0 0 Z " fill="#349ED7" transform="translate(116,126)"/>
<path d="M0 0 C0.375 3.25 0.375 3.25 0 7 C-4.71794872 11 -4.71794872 11 -8 11 C-8 10.34 -8 9.68 -8 9 C-7.01 9 -6.02 9 -5 9 C-4.7834375 8.071875 -4.7834375 8.071875 -4.5625 7.125 C-4 5 -4 5 -3 3 C-3.66 2.67 -4.32 2.34 -5 2 C-2 0 -2 0 0 0 Z " fill="#D9F7FE" transform="translate(192,118)"/>
<path d="M0 0 C3.25 -0.375 3.25 -0.375 6 0 C4.125 4.875 4.125 4.875 3 6 C0.66702567 6.04092937 -1.66705225 6.04241723 -4 6 C-2.375 3 -2.375 3 0 0 Z " fill="#DEF9FE" transform="translate(60,90)"/>
<path d="M0 0 C0.66 0 1.32 0 2 0 C2 1.98 2 3.96 2 6 C2.66 6 3.32 6 4 6 C3.979375 7.093125 3.95875 8.18625 3.9375 9.3125 C3.81455548 12.94384191 3.81455548 12.94384191 5 16 C4.34 16.33 3.68 16.66 3 17 C2.34 15.35 1.68 13.7 1 12 C0.67 12 0.34 12 0 12 C0 8.04 0 4.08 0 0 Z " fill="#30A2E3" transform="translate(141,80)"/>
<path d="M0 0 C1.64666203 0.1135629 3.29236082 0.24117381 4.9375 0.375 C6.31228516 0.47941406 6.31228516 0.47941406 7.71484375 0.5859375 C8.84599609 0.79089844 8.84599609 0.79089844 10 1 C10.33 1.66 10.66 2.32 11 3 C3.41 3 -4.18 3 -12 3 C-12 2.67 -12 2.34 -12 2 C-8.04 2 -4.08 2 0 2 C0 1.34 0 0.68 0 0 Z " fill="#C0EFFC" transform="translate(76,119)"/>
<path d="M0 0 C-2.5654594 2.5654594 -4.47686668 2.54046087 -8 3 C-8.33 5.31 -8.66 7.62 -9 10 C-9.66 9.67 -10.32 9.34 -11 9 C-11.35555556 3.66666667 -11.35555556 3.66666667 -10 1.125 C-6.74686316 -0.70488947 -3.68609891 -0.18128355 0 0 Z " fill="#F8FDFA" transform="translate(108,84)"/>
<path d="M0 0 C2.0625 0.4375 2.0625 0.4375 4 1 C4 3.64 4 6.28 4 9 C2.35 8.67 0.7 8.34 -1 8 C-1.04241723 5.66705225 -1.04092937 3.33297433 -1 1 C-0.67 0.67 -0.34 0.34 0 0 Z " fill="#F8FCFE" transform="translate(61,77)"/>
<path d="M0 0 C-1.32 0.33 -2.64 0.66 -4 1 C-4 1.66 -4 2.32 -4 3 C-10.69675136 4.03026944 -17.2314676 4.10152799 -24 4 C-24 3.67 -24 3.34 -24 3 C-21.1259578 2.49387936 -18.25097127 1.99493459 -15.375 1.5 C-14.56675781 1.35691406 -13.75851563 1.21382812 -12.92578125 1.06640625 C-8.56122136 0.32123749 -4.44761871 -0.17272306 0 0 Z " fill="#3BB5F6" transform="translate(168,194)"/>
<path d="M0 0 C0.83595703 0.00451172 1.67191406 0.00902344 2.53320312 0.01367188 C4.58466649 0.02539452 6.63609273 0.04332797 8.6875 0.0625 C8.6875 0.3925 8.6875 0.7225 8.6875 1.0625 C5.0575 1.3925 1.4275 1.7225 -2.3125 2.0625 C-2.3125 2.3925 -2.3125 2.7225 -2.3125 3.0625 C-6.2725 2.7325 -10.2325 2.4025 -14.3125 2.0625 C-14.3125 1.7325 -14.3125 1.4025 -14.3125 1.0625 C-9.54157044 -0.17152862 -4.88780554 -0.05015112 0 0 Z " fill="#99E0FB" transform="translate(136.3125,124.9375)"/>
<path d="M0 0 C-0.33 0.99 -0.66 1.98 -1 3 C-1.78246094 3.06058594 -2.56492187 3.12117188 -3.37109375 3.18359375 C-4.88896484 3.30927734 -4.88896484 3.30927734 -6.4375 3.4375 C-7.44683594 3.51871094 -8.45617187 3.59992188 -9.49609375 3.68359375 C-11.93640779 3.73211468 -11.93640779 3.73211468 -13 5 C-14.66617115 5.04063832 -16.33388095 5.042721 -18 5 C-15.47580407 2.47580407 -13.57642137 2.21042962 -10.125 1.375 C-9.07570313 1.11460938 -8.02640625 0.85421875 -6.9453125 0.5859375 C-4 0 -4 0 0 0 Z " fill="#29A2E2" transform="translate(64,122)"/>
<path d="M0 0 C2.78637633 4.1795645 1.79562512 6.14668677 1 11 C0.67 11 0.34 11 0 11 C0 8.69 0 6.38 0 4 C-0.99 4.66 -1.98 5.32 -3 6 C-5.6875 6.125 -5.6875 6.125 -8 6 C-7.67 5.01 -7.34 4.02 -7 3 C-5.02 3.495 -5.02 3.495 -3 4 C-3 3.34 -3 2.68 -3 2 C-2.01 1.34 -1.02 0.68 0 0 Z " fill="#0A9BEF" transform="translate(193,113)"/>
<path d="M0 0 C2.4375 0.25 2.4375 0.25 5 1 C7.23551759 4.35327639 7.17283528 4.90743657 6.625 8.6875 C6.45871094 9.89986328 6.45871094 9.89986328 6.2890625 11.13671875 C6.19367188 11.75160156 6.09828125 12.36648437 6 13 C5.67 13 5.34 13 5 13 C5 9.7 5 6.4 5 3 C3.35 3 1.7 3 0 3 C-0.66 3.99 -1.32 4.98 -2 6 C-1.125 1.125 -1.125 1.125 0 0 Z " fill="#3EA8E0" transform="translate(78,78)"/>
<path d="M0 0 C1.32 0.33 2.64 0.66 4 1 C3.01 1.495 3.01 1.495 2 2 C2 2.66 2 3.32 2 4 C1.34 4 0.68 4 0 4 C-0.103125 4.763125 -0.20625 5.52625 -0.3125 6.3125 C-1.04364039 9.17059424 -1.76951913 10.15742885 -4 12 C-3.5317879 7.22423661 -2.75668002 3.95523655 0 0 Z " fill="#FBFDFD" transform="translate(75,75)"/>
<path d="M0 0 C0.33 1.32 0.66 2.64 1 4 C0.01 4.66 -0.98 5.32 -2 6 C-0.35 6.33 1.3 6.66 3 7 C0 9 0 9 -3.1875 8.625 C-4.5796875 8.315625 -4.5796875 8.315625 -6 8 C-6.33 6.35 -6.66 4.7 -7 3 C-6.21625 3.061875 -5.4325 3.12375 -4.625 3.1875 C-3.75875 3.125625 -2.8925 3.06375 -2 3 C-1.34 2.01 -0.68 1.02 0 0 Z " fill="#C3F2FD" transform="translate(134,89)"/>
<path d="M0 0 C1.65 0 3.3 0 5 0 C4.67 3.63 4.34 7.26 4 11 C1 7 1 7 1.3125 4.75 C1.539375 4.1725 1.76625 3.595 2 3 C-0.64 3 -3.28 3 -6 3 C-5.67 2.34 -5.34 1.68 -5 1 C-3.35 1.33 -1.7 1.66 0 2 C0 1.34 0 0.68 0 0 Z " fill="#31A9EE" transform="translate(42,78)"/>
<path d="M0 0 C0.66 0.33 1.32 0.66 2 1 C1.525625 1.763125 1.05125 2.52625 0.5625 3.3125 C-1.7764557 7.89111612 -1.73956205 12.9528922 -2 18 C-4.47527072 14.28709392 -4.55228202 11.30455105 -4 7 C-1.84375 1.84375 -1.84375 1.84375 0 0 Z " fill="#D0F9FE" transform="translate(73,75)"/>
<path d="M0 0 C-0.6290625 0.24234375 -1.258125 0.4846875 -1.90625 0.734375 C-6.21531487 2.42165944 -10.40451496 4.1518305 -14.5 6.3125 C-15.655 6.869375 -16.81 7.42625 -18 8 C-18.66 7.67 -19.32 7.34 -20 7 C-5.02462725 -1.59131362 -5.02462725 -1.59131362 0 0 Z " fill="#2BA0DE" transform="translate(46,128)"/>
<path d="M0 0 C1.91635217 -0.05423638 3.83314925 -0.09289963 5.75 -0.125 C7.35101563 -0.15980469 7.35101563 -0.15980469 8.984375 -0.1953125 C11.92470106 -0.00487687 13.52361878 0.47329896 16 2 C16 2.66 16 3.32 16 4 C10.49191603 3.40984815 5.35121931 2.43336231 0 1 C0 0.67 0 0.34 0 0 Z " fill="#2AA3E7" transform="translate(104,113)"/>
<path d="M0 0 C1.67542976 0.28604898 3.34385343 0.61781233 5 1 C5 2.32 5 3.64 5 5 C2.69 5 0.38 5 -2 5 C-1.125 1.125 -1.125 1.125 0 0 Z " fill="#2E9EDD" transform="translate(54,78)"/>
<path d="M0 0 C-0.66 1.32 -1.32 2.64 -2 4 C-2.66 4 -3.32 4 -4 4 C-4 4.66 -4 5.32 -4 6 C-5.32 5.67 -6.64 5.34 -8 5 C-7.67 3.68 -7.34 2.36 -7 1 C-4.50935112 0.31292445 -2.62113708 0 0 0 Z " fill="#F8FDFD" transform="translate(40,124)"/>
<path d="M0 0 C0 2.64 0 5.28 0 8 C-0.66 7.01 -1.32 6.02 -2 5 C-3.32 5 -4.64 5 -6 5 C-6 5.66 -6 6.32 -6 7 C-7.65 7 -9.3 7 -11 7 C-2.55172414 0 -2.55172414 0 0 0 Z " fill="#C1EFFD" transform="translate(184,110)"/>
<path d="M0 0 C-0.99 1.485 -0.99 1.485 -2 3 C-0.68 3.33 0.64 3.66 2 4 C-0.64 4.66 -3.28 5.32 -6 6 C-6 5.34 -6 4.68 -6 4 C-5.34 3.67 -4.68 3.34 -4 3 C-6.97 2.505 -6.97 2.505 -10 2 C-6.19832777 -0.53444815 -4.31588991 -1.33941411 0 0 Z " fill="#CBF0FC" transform="translate(44,113)"/>
<path d="M0 0 C2.97 0.33 5.94 0.66 9 1 C7.68 1.33 6.36 1.66 5 2 C5 2.66 5 3.32 5 4 C-1.93 3.505 -1.93 3.505 -9 3 C-9 2.67 -9 2.34 -9 2 C-4.545 1.505 -4.545 1.505 0 1 C0 0.67 0 0.34 0 0 Z " fill="#32A1E0" transform="translate(71,109)"/>
<path d="M0 0 C1.21236328 0.02707031 1.21236328 0.02707031 2.44921875 0.0546875 C3.37154297 0.08949219 3.37154297 0.08949219 4.3125 0.125 C4.3125 0.455 4.3125 0.785 4.3125 1.125 C2.0025 1.455 -0.3075 1.785 -2.6875 2.125 C-1.0375 2.455 0.6125 2.785 2.3125 3.125 C1.9825 3.785 1.6525 4.445 1.3125 5.125 C-1.75 5.75 -1.75 5.75 -4.6875 6.125 C-5.6775 4.805 -6.6675 3.485 -7.6875 2.125 C-4.48369983 -0.01086678 -3.66810033 -0.10632175 0 0 Z " fill="#CDF5FE" transform="translate(56.6875,73.875)"/>
<path d="M0 0 C0.99 0.33 1.98 0.66 3 1 C3.185625 2.7015625 3.185625 2.7015625 3.375 4.4375 C3.684375 6.2009375 3.684375 6.2009375 4 8 C4.66 8.33 5.32 8.66 6 9 C6 10.98 6 12.96 6 15 C3.36177976 11.89621148 2.29634269 9.18537076 1.3125 5.25 C1.06113281 4.26515625 0.80976562 3.2803125 0.55078125 2.265625 C0.36902344 1.51796875 0.18726562 0.7703125 0 0 Z " fill="#1D99DE" transform="translate(1,159)"/>
<path d="M0 0 C0.70125 0.01417969 1.4025 0.02835937 2.125 0.04296875 C3.176875 0.05263672 3.176875 0.05263672 4.25 0.0625 C6.125 0.23046875 6.125 0.23046875 8.125 1.23046875 C8.125 1.89046875 8.125 2.55046875 8.125 3.23046875 C4.165 2.90046875 0.205 2.57046875 -3.875 2.23046875 C-1.875 0.23046875 -1.875 0.23046875 0 0 Z " fill="#BBF1FC" transform="translate(115.875,116.76953125)"/>
<path d="M0 0 C2.58921478 0.70124567 4.68709509 1.47813178 7 2.8125 C1.97703996 3.94266601 -1.97874074 3.59166092 -7 2.8125 C-4.5085127 0.41683914 -3.52285142 -0.22017821 0 0 Z " fill="#AFEAFD" transform="translate(79,113.1875)"/>
<path d="M0 0 C0.33 0.66 0.66 1.32 1 2 C2.88764903 2.68472665 2.88764903 2.68472665 5.0625 3.125 C5.79597656 3.29257813 6.52945313 3.46015625 7.28515625 3.6328125 C7.85105469 3.75398438 8.41695312 3.87515625 9 4 C5.23331402 5.3805087 2.55210827 4.59568159 -1.25 3.5625 C-2.86648437 3.13130859 -2.86648437 3.13130859 -4.515625 2.69140625 C-5.74539062 2.34916016 -5.74539062 2.34916016 -7 2 C-7 1.67 -7 1.34 -7 1 C-2.25 0 -2.25 0 0 0 Z " fill="#2BA1DF" transform="translate(95,108)"/>
<path d="M0 0 C0.66 0.33 1.32 0.66 2 1 C1.5359375 2.051875 1.5359375 2.051875 1.0625 3.125 C-0.03302678 6.08936657 -0.56422992 8.87698108 -1 12 C-1.99 11.67 -2.98 11.34 -4 11 C-4 8.69 -4 6.38 -4 4 C-3.34 4 -2.68 4 -2 4 C-1.34 2.68 -0.68 1.36 0 0 Z " fill="#3AA5DE" transform="translate(70,76)"/>
<path d="M0 0 C0.33 0.99 0.66 1.98 1 3 C1.66 3 2.32 3 3 3 C3.33 3.99 3.66 4.98 4 6 C0.25 7.125 0.25 7.125 -2 6 C-2 4.35 -2 2.7 -2 1 C-1.34 0.67 -0.68 0.34 0 0 Z " fill="#F9FDFE" transform="translate(28,78)"/>
<path d="M0 0 C1.75280733 0.42611351 3.50217435 0.86639267 5.25 1.3125 C6.22453125 1.55613281 7.1990625 1.79976563 8.203125 2.05078125 C10.98975665 2.99652356 12.77304368 4.10708713 15 6 C13.02 6.99 13.02 6.99 11 8 C11 7.01 11 6.02 11 5 C7.37 4.01 3.74 3.02 0 2 C0 1.34 0 0.68 0 0 Z " fill="#1B98E0" transform="translate(159,1)"/>
<path d="M0 0 C9.41002278 0.96355353 9.41002278 0.96355353 14 2 C13.34 2.66 12.68 3.32 12 4 C7.78152721 3.61650247 3.97626742 2.42009551 0 1 C0 0.67 0 0.34 0 0 Z " fill="#429DCF" transform="translate(104,123)"/>
<path d="M0 0 C2.8203125 0.0234375 2.8203125 0.0234375 6.125 0.375 C7.22070312 0.48585938 8.31640625 0.59671875 9.4453125 0.7109375 C10.28835937 0.80632812 11.13140625 0.90171875 12 1 C12 1.33 12 1.66 12 2 C11.0925 2.144375 10.185 2.28875 9.25 2.4375 C6.15624001 2.89426761 6.15624001 2.89426761 3.875 3.6875 C1.36496253 4.10583958 0.12896883 3.29258822 -2 2 C-1.34 1.34 -0.68 0.68 0 0 Z " fill="#35A1E0" transform="translate(114,119)"/>
<path d="M0 0 C1.98 0.99 1.98 0.99 4 2 C4 5.3 4 8.6 4 12 C3.67 12 3.34 12 3 12 C2.87625 11.030625 2.7525 10.06125 2.625 9.0625 C2.41875 8.051875 2.2125 7.04125 2 6 C1.34 5.67 0.68 5.34 0 5 C0 3.35 0 1.7 0 0 Z " fill="#DBFAFE" transform="translate(110,75)"/>
<path d="M0 0 C0 0.33 0 0.66 0 1 C-1.98 1.33 -3.96 1.66 -6 2 C-4.68 2.66 -3.36 3.32 -2 4 C-2.33 4.66 -2.66 5.32 -3 6 C-3.61875 5.814375 -4.2375 5.62875 -4.875 5.4375 C-7.04160178 4.76313824 -7.04160178 4.76313824 -9 6 C-9 5.34 -9 4.68 -9 4 C-9.66 3.67 -10.32 3.34 -11 3 C-7.48550811 -0.37391222 -4.73940561 -0.27342725 0 0 Z " fill="#C5F3FD" transform="translate(136,74)"/>
<path d="M0 0 C5.75 -0.125 5.75 -0.125 8 1 C9.70363822 1.22622081 11.41328701 1.40888473 13.125 1.5625 C14.03507812 1.64628906 14.94515625 1.73007813 15.8828125 1.81640625 C16.58148438 1.87699219 17.28015625 1.93757813 18 2 C18 2.33 18 2.66 18 3 C13.38 3 8.76 3 4 3 C4 2.34 4 1.68 4 1 C2.68 0.67 1.36 0.34 0 0 Z " fill="#1798DD" transform="translate(44,108)"/>
<path d="M0 0 C0.66 0.99 1.32 1.98 2 3 C4.58380177 3.25030977 4.58380177 3.25030977 7 3 C7 3.66 7 4.32 7 5 C7.66 5.33 8.32 5.66 9 6 C7.02 6.99 7.02 6.99 5 8 C5 7.01 5 6.02 5 5 C3.35 5 1.7 5 0 5 C-0.5625 3.0625 -0.5625 3.0625 -1 1 C-0.67 0.67 -0.34 0.34 0 0 Z " fill="#C5F1FC" transform="translate(150,89)"/>
<path d="M0 0 C1.65 0 3.3 0 5 0 C5 1.32 5 2.64 5 4 C5.66 4.33 6.32 4.66 7 5 C4.03 4.505 4.03 4.505 1 4 C0.67 2.68 0.34 1.36 0 0 Z " fill="#229DDC" transform="translate(31,78)"/>
<path d="M0 0 C0.66 0.33 1.32 0.66 2 1 C-2.455 4.465 -2.455 4.465 -7 8 C-7.33 7.34 -7.66 6.68 -8 6 C-7.34 6 -6.68 6 -6 6 C-6 5.34 -6 4.68 -6 4 C-5.34 4 -4.68 4 -4 4 C-3.67 3.01 -3.34 2.02 -3 1 C-2.01 0.67 -1.02 0.34 0 0 Z " fill="#62BCEF" transform="translate(183,185)"/>
<path d="M0 0 C2.97 0.495 2.97 0.495 6 1 C3.64031256 3.09749995 2.45383006 3.96905704 -0.75 4.1875 C-1.86375 4.0946875 -1.86375 4.0946875 -3 4 C-2.01 2.68 -1.02 1.36 0 0 Z " fill="#1C97DB" transform="translate(168,125)"/>
<path d="M0 0 C0.33 0 0.66 0 1 0 C1 2.97 1 5.94 1 9 C1.99 9.33 2.98 9.66 4 10 C2.02 10.99 2.02 10.99 0 12 C0 11.34 0 10.68 0 10 C-0.99 9.67 -1.98 9.34 -3 9 C-2.01 8.67 -1.02 8.34 0 8 C0 5.36 0 2.72 0 0 Z " fill="#239BDC" transform="translate(184,110)"/>
<path d="M0 0 C0.33 0 0.66 0 1 0 C1 2.31 1 4.62 1 7 C-0.65 7.33 -2.3 7.66 -4 8 C-4 7.01 -4 6.02 -4 5 C-3.34 5.33 -2.68 5.66 -2 6 C-1.34 4.02 -0.68 2.04 0 0 Z " fill="#1697E5" transform="translate(82,85)"/>
<path d="M0 0 C-0.33 0.33 -0.66 0.66 -1 1 C-0.34 1.66 0.32 2.32 1 3 C-0.98 3.33 -2.96 3.66 -5 4 C-5 3.34 -5 2.68 -5 2 C-5.66 2 -6.32 2 -7 2 C-7 1.34 -7 0.68 -7 0 C-2.25 -1.125 -2.25 -1.125 0 0 Z " fill="#33A4DD" transform="translate(167,127)"/>
<path d="M0 0 C-2.16695725 2.16695725 -2.99611368 2.73495121 -6 3 C-8.25 1.5625 -8.25 1.5625 -10 0 C-6.7169902 -1.6415049 -3.57454967 -0.51888624 0 0 Z " fill="#33A7E7" transform="translate(180,124)"/>
<path d="M0 0 C1.32 0 2.64 0 4 0 C4.33 2.97 4.66 5.94 5 9 C4.34 9 3.68 9 3 9 C2.67 7.35 2.34 5.7 2 4 C1.01 3.67 0.02 3.34 -1 3 C-0.67 2.01 -0.34 1.02 0 0 Z " fill="#21ADF3" transform="translate(12,120)"/>
<path d="M0 0 C-1.75 3.875 -1.75 3.875 -4 5 C-5.67654729 4.72057545 -7.34608154 4.39171753 -9 4 C-6.10130984 1.70103884 -3.84906588 0 0 0 Z " fill="#D4F5FD" transform="translate(27,117)"/>
<path d="M0 0 C0.99 0.33 1.98 0.66 3 1 C2.34 2.32 1.68 3.64 1 5 C0.34 5 -0.32 5 -1 5 C-1 6.65 -1 8.3 -1 10 C-1.33 10 -1.66 10 -2 10 C-1.85950482 8.52031676 -1.71245174 7.04125484 -1.5625 5.5625 C-1.48128906 4.73878906 -1.40007812 3.91507812 -1.31640625 3.06640625 C-1 1 -1 1 0 0 Z " fill="#109AED" transform="translate(78,80)"/>
<path d="M0 0 C1.65 0 3.3 0 5 0 C5 1.32 5 2.64 5 4 C3.02 4 1.04 4 -1 4 C-0.67 2.68 -0.34 1.36 0 0 Z " fill="#1E96E9" transform="translate(103,78)"/>
<path d="M0 0 C1.051875 0.495 1.051875 0.495 2.125 1 C5.26003116 2.09044562 7.70563182 2.15322643 11 2 C11 2.66 11 3.32 11 4 C8.03 4 5.06 4 2 4 C1.34 2.68 0.68 1.36 0 0 Z " fill="#1F9FDC" transform="translate(71,95)"/>
<path d="M0 0 C2.31 0.33 4.62 0.66 7 1 C5.68 1.33 4.36 1.66 3 2 C3 2.66 3 3.32 3 4 C1.68 4 0.36 4 -1 4 C-0.67 2.68 -0.34 1.36 0 0 Z " fill="#E6FCFC" transform="translate(33,83)"/>
<path d="M0 0 C3 2 3 2 4 4 C1.36 4 -1.28 4 -4 4 C-2.68 2.68 -1.36 1.36 0 0 Z " fill="#FAFCFC" transform="translate(176,127)"/>
<path d="M0 0 C0.33 0.99 0.66 1.98 1 3 C-2.81756824 4.37432457 -6.07255329 3.67975039 -10 3 C-10 2.67 -10 2.34 -10 2 C-6.7 1.34 -3.4 0.68 0 0 Z " fill="#289FE7" transform="translate(158,118)"/>
<path d="M0 0 C2.31 0 4.62 0 7 0 C7 0.66 7 1.32 7 2 C4.36 2.33 1.72 2.66 -1 3 C-0.67 2.01 -0.34 1.02 0 0 Z " fill="#FBFEFE" transform="translate(43,113)"/>
<path d="M0 0 C0 0.99 0 1.98 0 3 C-2.31 3.33 -4.62 3.66 -7 4 C-3.375 0 -3.375 0 0 0 Z " fill="#0D9CE1" transform="translate(24,115)"/>
<path d="M0 0 C-0.33 0.99 -0.66 1.98 -1 3 C-4.63 2.67 -8.26 2.34 -12 2 C-12 1.67 -12 1.34 -12 1 C-7.95858806 0.36605303 -4.0934693 -0.12404452 0 0 Z " fill="#A8E8FB" transform="translate(74,106)"/>
<path d="M0 0 C0.495 0.309375 0.99 0.61875 1.5 0.9375 C4.97986781 2.41644382 8.24028509 2.62402851 12 3 C12 3.33 12 3.66 12 4 C8.7 4.33 5.4 4.66 2 5 C2 4.01 2 3.02 2 2 C1.34 2 0.68 2 0 2 C0 1.34 0 0.68 0 0 Z " fill="#1599DF" transform="translate(48,95)"/>
<path d="M0 0 C1.2380014 3.57644848 0.74926071 6.33694766 0 10 C-0.66 9.34 -1.32 8.68 -2 8 C-1.42307692 1.42307692 -1.42307692 1.42307692 0 0 Z " fill="#C5F3FE" transform="translate(146,85)"/>
<path d="M0 0 C1.98 0.66 3.96 1.32 6 2 C6 2.66 6 3.32 6 4 C3.625 4.1875 3.625 4.1875 1 4 C0.34 3.01 -0.32 2.02 -1 1 C-0.67 0.67 -0.34 0.34 0 0 Z " fill="#139DED" transform="translate(161,73)"/>
<path d="M0 0 C0.66 0 1.32 0 2 0 C0.66666667 2.66666667 -0.66666667 5.33333333 -2 8 C-2.66 8 -3.32 8 -4 8 C-2.25 2.25 -2.25 2.25 0 0 Z " fill="#16A6F4" transform="translate(13,22)"/>
<path d="M0 0 C0.99 0.33 1.98 0.66 3 1 C2.67 3.31 2.34 5.62 2 8 C1.34 7.67 0.68 7.34 0 7 C0 4.69 0 2.38 0 0 Z " fill="#09A2F0" transform="translate(4,160)"/>
<path d="M0 0 C0.66 0 1.32 0 2 0 C2.33 3.3 2.66 6.6 3 10 C1.68 9.67 0.36 9.34 -1 9 C-0.67 8.67 -0.34 8.34 0 8 C0.07148199 6.64756083 0.08399454 5.29165633 0.0625 3.9375 C0.041875 2.638125 0.02125 1.33875 0 0 Z " fill="#2FA9EC" transform="translate(191,117)"/>
<path d="M0 0 C0 0.66 0 1.32 0 2 C1.32 2.33 2.64 2.66 4 3 C2.02 3.66 0.04 4.32 -2 5 C-2 4.01 -2 3.02 -2 2 C-2.99 1.67 -3.98 1.34 -5 1 C-2 0 -2 0 0 0 Z " fill="#2EA1E2" transform="translate(26,113)"/>
<path d="M0 0 C0.33 0.66 0.66 1.32 1 2 C2.98 1.67 4.96 1.34 7 1 C2.25 5 2.25 5 0 5 C0 3.35 0 1.7 0 0 Z " fill="#199DDD" transform="translate(164,104)"/>
<path d="M0 0 C1.2065625 0.0309375 1.2065625 0.0309375 2.4375 0.0625 C2.1075 2.0425 1.7775 4.0225 1.4375 6.0625 C1.1075 4.7425 0.7775 3.4225 0.4375 2.0625 C-0.8825 1.7325 -2.2025 1.4025 -3.5625 1.0625 C-2.5625 0.0625 -2.5625 0.0625 0 0 Z " fill="#54AFDF" transform="translate(106.5625,85.9375)"/>
<path d="M0 0 C1.2065625 0.0309375 1.2065625 0.0309375 2.4375 0.0625 C2.1075 2.0425 1.7775 4.0225 1.4375 6.0625 C1.1075 4.7425 0.7775 3.4225 0.4375 2.0625 C-0.8825 1.7325 -2.2025 1.4025 -3.5625 1.0625 C-2.5625 0.0625 -2.5625 0.0625 0 0 Z " fill="#43ABE1" transform="translate(155.5625,85.9375)"/>
<path d="M0 0 C0.78375 0.04125 1.5675 0.0825 2.375 0.125 C1.055 0.455 -0.265 0.785 -1.625 1.125 C-1.625 2.115 -1.625 3.105 -1.625 4.125 C-3.935 4.125 -6.245 4.125 -8.625 4.125 C-8.00625 3.83625 -7.3875 3.5475 -6.75 3.25 C-0.67151163 0.03197674 -0.67151163 0.03197674 0 0 Z " fill="#A3E3FC" transform="translate(104.625,76.875)"/>
<path d="M0 0 C3.125 0.375 3.125 0.375 6 1 C6 1.66 6 2.32 6 3 C3.125 3.625 3.125 3.625 0 4 C-0.66 3.34 -1.32 2.68 -2 2 C-1.34 1.34 -0.68 0.68 0 0 Z " fill="#129EE8" transform="translate(153,0)"/>
</svg>
