<?xml version="1.0" encoding="UTF-8"?>
<svg version="1.1" xmlns="http://www.w3.org/2000/svg" width="233" height="233" viewBox="0 -8 233 233">
<rect x="0" y="-8" width="233" height="233" fill="#ffffff"/>
<path d="M0 0 C76.89 0 153.78 0 233 0 C233 71.61 233 143.22 233 217 C156.11 217 79.22 217 0 217 C0 145.39 0 73.78 0 0 Z " fill="#010000" transform="translate(0,0)"/>
<path d="M0 0 C1.33768433 0.00012085 1.33768433 0.00012085 2.70239258 0.00024414 C18.26025805 0.13525805 18.26025805 0.13525805 21.3125 3.1875 C21.38494053 5.20714199 21.39627188 7.22917124 21.375 9.25 C21.36597656 10.35472656 21.35695312 11.45945312 21.34765625 12.59765625 C21.33605469 13.45230469 21.32445312 14.30695313 21.3125 15.1875 C20.1575 15.0225 19.0025 14.8575 17.8125 14.6875 C13.25555332 14.19485712 8.70558832 14.00907169 4.125 13.9375 C3.10986328 13.9055957 3.10986328 13.9055957 2.07421875 13.87304688 C-2.60316983 13.84094715 -5.7077088 14.75935358 -9.6875 17.1875 C-12.67866867 20.28181242 -12.78432375 21.67161877 -13.6875 26.1875 C-5.1075 26.1875 3.4725 26.1875 12.3125 26.1875 C12.3125 30.1475 12.3125 34.1075 12.3125 38.1875 C3.7325 38.1875 -4.8475 38.1875 -13.6875 38.1875 C-13.6875 54.6875 -13.6875 71.1875 -13.6875 88.1875 C-21.2775 88.1875 -28.8675 88.1875 -36.6875 88.1875 C-36.77802961 79.18154456 -36.85134725 70.17589354 -36.89474869 61.16958523 C-36.91558392 56.98715181 -36.94382644 52.80504704 -36.98925781 48.62280273 C-37.0328618 44.58329623 -37.05666766 40.54410495 -37.06700897 36.50438118 C-37.07437437 34.96664534 -37.08875734 33.42892588 -37.11042023 31.891325 C-37.24197517 22.16289981 -37.14399001 15.86681451 -30.1875 8.5625 C-21.31508822 1.70963975 -10.83104372 -0.00900835 0 0 Z " fill="#F4B513" transform="translate(77.6875,63.8125)"/>
<path d="M0 0 C5.61 0 11.22 0 17 0 C20 7.75 20 7.75 20 10 C26.93 10 33.86 10 41 10 C41 13.96 41 17.92 41 22 C35.06 22 29.12 22 23 22 C23.05108862 26.48558109 23.1140536 30.96771101 23.20751953 35.45214844 C23.23570535 36.97677431 23.25693189 38.50154566 23.27099609 40.02636719 C23.29246049 42.22145936 23.33912169 44.41480711 23.390625 46.609375 C23.41157227 47.92905273 23.43251953 49.24873047 23.45410156 50.60839844 C23.74061814 54.03359756 23.74061814 54.03359756 25.78125 56.42382812 C28.14270117 58.10137311 29.25704629 58.5229408 32.109375 58.609375 C33.24052734 58.65771484 33.24052734 58.65771484 34.39453125 58.70703125 C35.17183594 58.72121094 35.94914062 58.73539063 36.75 58.75 C37.93916016 58.79447266 37.93916016 58.79447266 39.15234375 58.83984375 C41.10102094 58.91027787 43.05051495 58.95743482 45 59 C45 63.29 45 67.58 45 72 C40.90990255 72.09260598 36.82252697 72.17199502 32.73193359 72.21972656 C31.34508844 72.23965342 29.95832518 72.2668056 28.57177734 72.30175781 C20.20823252 72.50707227 12.34917621 72.53492153 5 68 C0.98011885 63.1957518 -0.12663844 59.3934267 -0.11352539 53.2434082 C-0.11344986 52.06241043 -0.11337433 50.88141266 -0.11329651 49.66462708 C-0.10813522 48.38955795 -0.10297394 47.11448883 -0.09765625 45.80078125 C-0.0962413 44.49545944 -0.09482635 43.19013763 -0.09336853 41.84526062 C-0.0895538 38.37810344 -0.07973244 34.91098826 -0.06866455 31.44384766 C-0.05842798 27.90462818 -0.0538661 24.3654019 -0.04882812 20.82617188 C-0.03810923 13.8840956 -0.02052087 6.94205415 0 0 Z " fill="#F1B216" transform="translate(147,80)"/>
<path d="M0 0 C3.95797731 1.2271458 7.43812808 2.69218213 11.0625 4.6875 C26.09124383 12.28546814 42.47406784 16.26055976 59 19 C60.89298828 19.33837891 60.89298828 19.33837891 62.82421875 19.68359375 C100.42416835 25.47742233 140.08632228 19.12149228 174.5390625 3.55078125 C177.33871528 2.29630929 180.14153816 1.11162405 183 0 C168.76283098 19.84575075 139.12458531 28.5359276 116.26831055 32.47875977 C80.52028827 37.96726986 41.05851259 31.91299136 10.9765625 10.88671875 C6.72453338 7.5761213 3.28367579 4.29175684 0 0 Z " fill="#F1B214" transform="translate(25,153)"/>
<path d="M0 0 C7.59 0 15.18 0 23 0 C23 20.46 23 40.92 23 62 C15.41 62 7.82 62 0 62 C0 41.54 0 21.08 0 0 Z " fill="#F0B214" transform="translate(107,90)"/>
<path d="M0 0 C1.98 0 3.96 0 6 0 C6 0.66 6 1.32 6 2 C7.04994141 1.51080078 7.04994141 1.51080078 8.12109375 1.01171875 C11.29436169 -0.10344597 13.7101528 -0.23411924 17.0625 -0.1875 C18.59583984 -0.17783203 18.59583984 -0.17783203 20.16015625 -0.16796875 C23 0 23 0 25.24609375 0.57421875 C27.09310827 1.22244381 27.09310827 1.22244381 29 0 C31.1192635 -0.19993052 33.24723446 -0.31284056 35.375 -0.375 C36.51710937 -0.42398438 37.65921875 -0.47296875 38.8359375 -0.5234375 C42 0 42 0 44.3984375 2.00390625 C46.50444022 5.94367231 46.45367809 8.92950417 46.25 13.3125 C46.23195312 14.05306641 46.21390625 14.79363281 46.1953125 15.55664062 C46.14847337 17.3716571 46.07673789 19.18600166 46 21 C43.36 21 40.72 21 38 21 C37.93941406 19.92878906 37.87882812 18.85757813 37.81640625 17.75390625 C37.73201463 16.35675609 37.64736594 14.95962143 37.5625 13.5625 C37.52318359 12.85544922 37.48386719 12.14839844 37.44335938 11.41992188 C37.52375562 7.91309581 37.52375562 7.91309581 36 5 C31.85723125 4.75266863 31.85723125 4.75266863 28 6 C27.68758629 8.54941373 27.48696579 11.00361513 27.375 13.5625 C27.33632812 14.27341797 27.29765625 14.98433594 27.2578125 15.71679688 C27.16328217 17.47742425 27.08054183 19.23867728 27 21 C24.36 21 21.72 21 19 21 C18.93941406 19.92878906 18.87882812 18.85757813 18.81640625 17.75390625 C18.73201463 16.35675609 18.64736594 14.95962143 18.5625 13.5625 C18.52318359 12.85544922 18.48386719 12.14839844 18.44335938 11.41992188 C18.52375562 7.91309581 18.52375562 7.91309581 17 5 C12.85723125 4.75266863 12.85723125 4.75266863 9 6 C8.68758629 8.54941373 8.48696579 11.00361513 8.375 13.5625 C8.31699219 14.62887695 8.31699219 14.62887695 8.2578125 15.71679688 C8.16328217 17.47742425 8.08054183 19.23867728 8 21 C5.36 21 2.72 21 0 21 C0 14.07 0 7.14 0 0 Z " fill="#EDEDED" transform="translate(72,34)"/>
<path d="M0 0 C0.75990234 -0.020625 1.51980469 -0.04125 2.30273438 -0.0625 C6.92803535 -0.09464805 9.92784757 0.25391335 13.6875 3.25 C15.28162284 6.43824568 14.78924735 9.87896662 14.75 13.375 C14.74548828 14.12910156 14.74097656 14.88320313 14.73632812 15.66015625 C14.72453499 17.52347127 14.70659942 19.38674555 14.6875 21.25 C11.14611382 21.36681812 7.6052276 21.437455 4.0625 21.5 C3.06347656 21.53351562 2.06445312 21.56703125 1.03515625 21.6015625 C-5.03783704 21.6819995 -8.78008495 21.47873565 -13.3125 17.25 C-14 14.1875 -14 14.1875 -13.3125 11.25 C-9.26538333 7.95690887 -5.50663041 7.87564968 -0.5 8.0625 C0.53930664 8.08280273 0.53930664 8.08280273 1.59960938 8.10351562 C3.29591265 8.13861155 4.99181136 8.19241057 6.6875 8.25 C6.6875 7.26 6.6875 6.27 6.6875 5.25 C1.0775 4.92 -4.5325 4.59 -10.3125 4.25 C-10.3125 3.26 -10.3125 2.27 -10.3125 1.25 C-7.0732886 -0.3696057 -3.55545619 0.02376245 0 0 Z " fill="#F0F0F0" transform="translate(136.3125,33.75)"/>
<path d="M0 0 C0 1.65 0 3.3 0 5 C-5.28 5 -10.56 5 -16 5 C-16 5.66 -16 6.32 -16 7 C-15.03578125 7.02578125 -14.0715625 7.0515625 -13.078125 7.078125 C-11.18320312 7.16320312 -11.18320312 7.16320312 -9.25 7.25 C-7.37054688 7.31960937 -7.37054688 7.31960937 -5.453125 7.390625 C-1.57585448 8.07484921 -0.2965461 8.85460394 2 12 C1.9272511 14.98270489 1.4553118 16.44570737 -0.4375 18.75 C-4.00728179 21.60582543 -7.57093576 21.14804256 -11.9375 21.125 C-12.66646484 21.12886719 -13.39542969 21.13273437 -14.14648438 21.13671875 C-17.35857736 21.1308304 -19.9321444 21.02261853 -23 20 C-23 18.35 -23 16.7 -23 15 C-17.72 15 -12.44 15 -7 15 C-7 14.34 -7 13.68 -7 13 C-8.46373047 12.94392578 -8.46373047 12.94392578 -9.95703125 12.88671875 C-11.22933594 12.82097656 -12.50164063 12.75523438 -13.8125 12.6875 C-15.07707031 12.62949219 -16.34164062 12.57148437 -17.64453125 12.51171875 C-21 12 -21 12 -22.9375 10.65625 C-24.54679002 8.14765085 -24.19330028 5.89950424 -24 3 C-16.03014213 -1.81198966 -9.00810993 -1.99639193 0 0 Z " fill="#EEEEEE" transform="translate(65,34)"/>
<path d="M0 0 C7.59 0 15.18 0 23 0 C23 4.62 23 9.24 23 14 C15.41 14 7.82 14 0 14 C0 9.38 0 4.76 0 0 Z " fill="#CD9B1C" transform="translate(107,67)"/>
<path d="M0 0 C1.98 0 3.96 0 6 0 C6.33 1.32 6.66 2.64 7 4 C9.31 4 11.62 4 14 4 C14 5.32 14 6.64 14 8 C12.02 8 10.04 8 8 8 C8.33 11.63 8.66 15.26 9 19 C10.65 19.33 12.3 19.66 14 20 C14 21.65 14 23.3 14 25 C12.58376784 25.05447047 11.16691809 25.09300508 9.75 25.125 C8.56664062 25.15980469 8.56664062 25.15980469 7.359375 25.1953125 C4.75385683 24.97962391 3.20013023 24.3921178 1 23 C-0.2263757 20.54724859 -0.11415314 18.9494219 -0.09765625 16.2109375 C-0.09443359 15.26992188 -0.09121094 14.32890625 -0.08789062 13.359375 C-0.07951172 12.37453125 -0.07113281 11.3896875 -0.0625 10.375 C-0.05798828 9.38242187 -0.05347656 8.38984375 -0.04882812 7.3671875 C-0.03702145 4.9113984 -0.020554 2.45572896 0 0 Z " fill="#F1F1F1" transform="translate(178,30)"/>
<path d="M0 0 C1.31738159 0.00688843 1.31738159 0.00688843 2.66137695 0.01391602 C18.10526513 0.23026513 18.10526513 0.23026513 21.125 3.25 C21.26855117 7.25220653 21.16716403 11.24441683 21.125 15.25 C10.235 14.26 10.235 14.26 -0.875 13.25 C-0.875 12.92 -0.875 12.59 -0.875 12.25 C2.755 11.92 6.385 11.59 10.125 11.25 C4.68 10.755 4.68 10.755 -0.875 10.25 C-0.875 9.92 -0.875 9.59 -0.875 9.25 C3.745 8.92 8.365 8.59 13.125 8.25 C13.125 7.59 13.125 6.93 13.125 6.25 C9.495 5.59 5.865 4.93 2.125 4.25 C2.125 3.59 2.125 2.93 2.125 2.25 C-0.39608103 2.39224587 -2.91680403 2.53870121 -5.4375 2.6875 C-6.14197266 2.72681641 -6.84644531 2.76613281 -7.57226562 2.80664062 C-12.0548541 3.07518279 -16.43793497 3.55616197 -20.875 4.25 C-14.48845465 -0.0076969 -7.43862085 -0.07998517 0 0 Z " fill="#DEA81B" transform="translate(77.875,63.75)"/>
<path d="M0 0 C1.98 0 3.96 0 6 0 C6.66 0.66 7.32 1.32 8 2 C8.763125 1.67 9.52625 1.34 10.3125 1 C13 0 13 0 16 0 C16 1.65 16 3.3 16 5 C13.36 5.66 10.72 6.32 8 7 C8 11.95 8 16.9 8 22 C5.36 22 2.72 22 0 22 C0 14.74 0 7.48 0 0 Z " fill="#EAEAEA" transform="translate(158,33)"/>
<path d="M0 0 C-0.33 0.99 -0.66 1.98 -1 3 C1.97 3 4.94 3 8 3 C8 4.32 8 5.64 8 7 C7.34 7 6.68 7 6 7 C6 7.66 6 8.32 6 9 C7.65 9.66 9.3 10.32 11 11 C11 11.33 11 11.66 11 12 C4.57183071 13.38987444 -3.71341968 14.7948417 -9.6875 11.375 C-12 9 -12 9 -12.6875 5.9375 C-12 3 -12 3 -9.9375 1.125 C-6.45781172 -0.20764658 -3.69628969 -0.21742881 0 0 Z " fill="#EBEBEB" transform="translate(135,42)"/>
<path d="M0 0 C0.66 0.33 1.32 0.66 2 1 C-6.1859813 8.98271765 -15.15958169 16.01248938 -26 20 C-26.66 19.01 -27.32 18.02 -28 17 C-33.98647324 16.49051292 -40.03809445 17.39626273 -46 18 C-42.91095389 16.2107603 -39.75984971 15.36464929 -36.31274414 14.50317383 C-23.96330703 11.39873141 -10.66181802 7.10787868 0 0 Z " fill="#E7B01D" transform="translate(206,153)"/>
<path d="M0 0 C0.99 0 1.98 0 3 0 C3 20.13 3 40.26 3 61 C-0.14161125 56.811185 -0.37296619 56.19357298 -0.34057617 51.31347656 C-0.34034958 50.17259583 -0.34012299 49.03171509 -0.33988953 47.85626221 C-0.32440567 46.63010193 -0.30892181 45.40394165 -0.29296875 44.140625 C-0.28872391 42.88111023 -0.28447906 41.62159546 -0.28010559 40.32391357 C-0.26616121 36.98311462 -0.23922925 33.64293416 -0.20599365 30.30230713 C-0.17524839 26.89039442 -0.16159079 23.4784177 -0.14648438 20.06640625 C-0.11339814 13.37743351 -0.06318524 6.68875246 0 0 Z " fill="#F3B60B" transform="translate(148,82)"/>
<path d="M0 0 C3.95797731 1.2271458 7.43812808 2.69218213 11.0625 4.6875 C24.11360163 11.31869485 38.62069716 15.46247597 53 18 C53 18.33 53 18.66 53 19 C47.20024089 19.32088831 42.51780492 19.17746721 37.16015625 16.8671875 C32.91198475 15.16177326 28.42549452 14.14704913 24 13 C23.66781808 16.00259517 23.66781808 16.00259517 25.5 17.6875 C25.995 18.120625 26.49 18.55375 27 19 C16.3588823 15.77966175 7.74127267 8.82523441 0 1 C0 0.67 0 0.34 0 0 Z " fill="#DCAC26" transform="translate(25,153)"/>
<path d="M0 0 C0.68835938 0.01353516 1.37671875 0.02707031 2.0859375 0.04101562 C3.76597001 0.0760163 5.4455935 0.12981046 7.125 0.1875 C8.125 2.1875 8.125 2.1875 8.125 9.1875 C0.865 8.8575 -6.395 8.5275 -13.875 8.1875 C-14.205 7.1975 -14.535 6.2075 -14.875 5.1875 C-12.10298658 -0.35652685 -5.44656934 -0.20582966 0 0 Z " fill="#F6B40E" transform="translate(181.875,140.8125)"/>
<path d="M0 0 C6.6 0 13.2 0 20 0 C19.67 2.64 19.34 5.28 19 8 C13.72 8 8.44 8 3 8 C2.67 8.99 2.34 9.98 2 11 C1.34 11 0.68 11 0 11 C0 7.37 0 3.74 0 0 Z " fill="#F4B50E" transform="translate(109,69)"/>
<path d="M0 0 C0.99 0 1.98 0 3 0 C3 16.5 3 33 3 50 C2.34 50 1.68 50 1 50 C0.67 33.5 0.34 17 0 0 Z " fill="#C99927" transform="translate(61,102)"/>
<path d="M0 0 C4.62 0 9.24 0 14 0 C14 4.29 14 8.58 14 13 C4.1 13 -5.8 13 -16 13 C-16 12.67 -16 12.34 -16 12 C-6.76 12 2.48 12 12 12 C12 9.36 12 6.72 12 4 C7.05 4 2.1 4 -3 4 C-3 3.67 -3 3.34 -3 3 C-1.35 2.67 0.3 2.34 2 2 C1.34 1.34 0.68 0.68 0 0 Z " fill="#D7A220" transform="translate(178,139)"/>
<path d="M0 0 C1.35347151 0.13231493 2.70774456 0.25655144 4.0625 0.375 C8 1 8 1 10 2.5625 C10.33 3.036875 10.66 3.51125 11 4 C10.67 4.33 10.34 4.66 10 5 C12.97 5.33 15.94 5.66 19 6 C19.33 6.99 19.66 7.98 20 9 C14.18974236 8.4156916 8.88875848 7.27175528 3.3125 5.5625 C2.57966797 5.34529297 1.84683594 5.12808594 1.09179688 4.90429688 C-2.68643364 3.76980565 -6.3634299 2.54213525 -10 1 C-10 0.67 -10 0.34 -10 0 C-6.23499611 -0.77011443 -3.66558767 -1.07811402 0 0 Z " fill="#E4AD1B" transform="translate(68,175)"/>
<path d="M0 0 C1.02931641 -0.00128906 2.05863281 -0.00257813 3.11914062 -0.00390625 C4.72499023 0.00189453 4.72499023 0.00189453 6.36328125 0.0078125 C7.41451172 0.00394531 8.46574219 0.00007812 9.54882812 -0.00390625 C15.6744309 0.0037174 21.60236277 0.33150284 27.67578125 1.1328125 C27.67578125 1.4628125 27.67578125 1.7928125 27.67578125 2.1328125 C18.38396977 2.99900659 9.1920685 3.25904042 -0.13671875 3.1953125 C-1.41353516 3.19080078 -2.69035156 3.18628906 -4.00585938 3.18164062 C-7.11203086 3.17000702 -10.21809783 3.15366325 -13.32421875 3.1328125 C-8.78798319 0.70268631 -5.13386669 0.00624504 0 0 Z " fill="#211A06" transform="translate(113.32421875,171.8671875)"/>
<path d="M0 0 C0 1.32 0 2.64 0 4 C-3.83331699 4.02929981 -7.66660471 4.04689897 -11.5 4.0625 C-12.57765625 4.07087891 -13.6553125 4.07925781 -14.765625 4.08789062 C-20.61328382 4.10571885 -26.21863671 3.89105963 -32 3 C-32 2.67 -32 2.34 -32 2 C-31.39003174 1.94465088 -30.78006348 1.88930176 -30.15161133 1.83227539 C-27.37164727 1.57844684 -24.59207876 1.32051225 -21.8125 1.0625 C-20.85279297 0.97548828 -19.89308594 0.88847656 -18.90429688 0.79882812 C-17.50727539 0.66831055 -17.50727539 0.66831055 -16.08203125 0.53515625 C-15.22843018 0.456604 -14.3748291 0.37805176 -13.49536133 0.29711914 C-10.96758656 0.03534713 -10.96758656 0.03534713 -8.3894043 -0.56079102 C-5.39053793 -1.11202843 -2.96275708 -0.62011195 0 0 Z " fill="#E3AB1D" transform="translate(160,172)"/>
<path d="M0 0 C0.99 0.33 1.98 0.66 3 1 C2.34 1 1.68 1 1 1 C1 1.99 1 2.98 1 4 C1.97582031 3.98839844 2.95164062 3.97679687 3.95703125 3.96484375 C5.22933594 3.95582031 6.50164062 3.94679687 7.8125 3.9375 C9.07707031 3.92589844 10.34164062 3.91429687 11.64453125 3.90234375 C15 4 15 4 18 5 C18 5.99 18 6.98 18 8 C9.585 8.495 9.585 8.495 1 9 C0.67 8.34 0.34 7.68 0 7 C0.66 6.67 1.32 6.34 2 6 C1.34 5.67 0.68 5.34 0 5 C0 3.35 0 1.7 0 0 Z " fill="#444444" transform="translate(125,34)"/>
<path d="M0 0 C-0.33 0.66 -0.66 1.32 -1 2 C-1.99 1.67 -2.98 1.34 -4 1 C-4.33 1.66 -4.66 2.32 -5 3 C-7.64860427 3.59355614 -10.29197322 3.74209269 -13 4 C-13 3.01 -13 2.02 -13 1 C-16.3 1 -19.6 1 -23 1 C-23 0.67 -23 0.34 -23 0 C-4.63865546 -3.09243697 -4.63865546 -3.09243697 0 0 Z " fill="#F6B80E" transform="translate(181,171)"/>
<path d="M0 0 C0.66 0.33 1.32 0.66 2 1 C0.42173185 2.46381359 -1.16282229 3.92085163 -2.75 5.375 C-3.63171875 6.18710938 -4.5134375 6.99921875 -5.421875 7.8359375 C-7.59802521 9.6625848 -9.40820119 10.89787994 -12 12 C-12 11.01 -12 10.02 -12 9 C-12.9075 9.350625 -13.815 9.70125 -14.75 10.0625 C-18.00591313 11.00170571 -18.92749994 10.95514676 -22 10 C-21.44014404 9.76812988 -20.88028809 9.53625977 -20.3034668 9.29736328 C-17.76342806 8.24320638 -15.22545579 7.18416133 -12.6875 6.125 C-11.80642578 5.76019531 -10.92535156 5.39539063 -10.01757812 5.01953125 C-9.17001953 4.66503906 -8.32246094 4.31054688 -7.44921875 3.9453125 C-6.27879028 3.45828857 -6.27879028 3.45828857 -5.0847168 2.96142578 C-2.77267022 1.96057995 -2.77267022 1.96057995 0 0 Z " fill="#DAA92B" transform="translate(206,153)"/>
<path d="M0 0 C1.32 0.66 2.64 1.32 4 2 C4 1.34 4 0.68 4 0 C5.98 0 7.96 0 10 0 C10 0.66 10 1.32 10 2 C11.98 2 13.96 2 16 2 C15.01 2.495 15.01 2.495 14 3 C14.33 3.99 14.66 4.98 15 6 C10.9154674 7.72251754 7.63026304 6.07280563 3.75 4.5625 C3.1003125 4.31951172 2.450625 4.07652344 1.78125 3.82617188 C0.18383183 3.22714006 -1.40860594 2.61485679 -3 2 C-2.01 1.34 -1.02 0.68 0 0 Z " fill="#0F0B09" transform="translate(43,159)"/>
<path d="M0 0 C-1.32 0.33 -2.64 0.66 -4 1 C-4.33 2.32 -4.66 3.64 -5 5 C-5.99 4.67 -6.98 4.34 -8 4 C-14.04152348 3.74826985 -19.99252214 4.39164781 -26 5 C-21.81337477 2.79614166 -17.53342681 1.54629936 -13 0.25 C-12.19304687 0.00378906 -11.38609375 -0.24242187 -10.5546875 -0.49609375 C-9.77351563 -0.71910156 -8.99234375 -0.94210938 -8.1875 -1.171875 C-7.47980469 -1.3790918 -6.77210938 -1.58630859 -6.04296875 -1.79980469 C-3.46861582 -2.05207159 -2.17940997 -1.31866547 0 0 Z " fill="#E5AA1F" transform="translate(186,166)"/>
<path d="M0 0 C5.28 0.33 10.56 0.66 16 1 C16 1.33 16 1.66 16 2 C11.545 2.495 11.545 2.495 7 3 C7 3.33 7 3.66 7 4 C10.96 4.33 14.92 4.66 19 5 C19 5.33 19 5.66 19 6 C16.39576408 6.02697137 13.79180756 6.04682489 11.1875 6.0625 C10.44951172 6.07087891 9.71152344 6.07925781 8.95117188 6.08789062 C5.70077932 6.10259828 3.10595105 6.03531702 0 5 C0 3.35 0 1.7 0 0 Z " fill="#BDBDBD" transform="translate(42,49)"/>
<path d="M0 0 C4.28094864 1.33099748 8.19040322 2.97358845 12.1875 5 C13.21230469 5.515625 14.23710938 6.03125 15.29296875 6.5625 C18 8 18 8 21 10 C18.69 10 16.38 10 14 10 C14 9.34 14 8.68 14 8 C13.01 8 12.02 8 11 8 C11.33 8.66 11.66 9.32 12 10 C6.74308545 8.56629603 3.48214849 5.00396901 0 1 C0 0.67 0 0.34 0 0 Z " fill="#D8AA2D" transform="translate(25,153)"/>
<path d="M0 0 C3.96 0 7.92 0 12 0 C12 0.99 12 1.98 12 3 C9.47524538 4.26237731 7.68799534 4.09856404 4.875 4.0625 C3.96492187 4.05347656 3.05484375 4.04445313 2.1171875 4.03515625 C1.41851562 4.02355469 0.71984375 4.01195312 0 4 C0 2.68 0 1.36 0 0 Z " fill="#0B0B0B" transform="translate(131,46)"/>
<path d="M0 0 C0.33 1.32 0.66 2.64 1 4 C-5.6 4 -12.2 4 -19 4 C-19 3.01 -19 2.02 -19 1 C-12.73 1.33 -6.46 1.66 0 2 C0 1.34 0 0.68 0 0 Z " fill="#EDAF1D" transform="translate(128,148)"/>
<path d="M0 0 C0.33 3.3 0.66 6.6 1 10 C-0.32 10.33 -1.64 10.66 -3 11 C-3.66 11.66 -4.32 12.32 -5 13 C-5 9.04 -5 5.08 -5 1 C-4.67 1.66 -4.34 2.32 -4 3 C-3.525625 2.505 -3.05125 2.01 -2.5625 1.5 C-1 0 -1 0 0 0 Z " fill="#1E160D" transform="translate(95,89)"/>
<path d="M0 0 C0.99 0.33 1.98 0.66 3 1 C2.34 1 1.68 1 1 1 C1 1.66 1 2.32 1 3 C1.5775 2.649375 2.155 2.29875 2.75 1.9375 C5.35801776 0.85082593 6.39417629 1.06934867 9 2 C9 3.32 9 4.64 9 6 C7.4375 6.75 7.4375 6.75 5 7 C2.49713591 5.86915563 0.32992278 4.47860484 -2 3 C-2 2.34 -2 1.68 -2 1 C-1.34 0.67 -0.68 0.34 0 0 Z " fill="#0A060D" transform="translate(31,152)"/>
<path d="M0 0 C8.03501094 -0.63019694 8.03501094 -0.63019694 12.0625 2 C13.0215625 2.99 13.0215625 2.99 14 4 C8.33357449 5.22517308 2.76291482 5.09228867 -3 5 C-3 4.67 -3 4.34 -3 4 C-0.69 3.34 1.62 2.68 4 2 C2.68 1.34 1.36 0.68 0 0 Z " fill="#C3C3C3" transform="translate(132,50)"/>
<path d="M0 0 C0.91007813 0.00902344 1.82015625 0.01804688 2.7578125 0.02734375 C3.45648438 0.03894531 4.15515625 0.05054688 4.875 0.0625 C5.205 1.0525 5.535 2.0425 5.875 3.0625 C1.46585217 4.16478696 -2.60882401 4.13904536 -7.125 4.0625 C-7.125 3.0725 -7.125 2.0825 -7.125 1.0625 C-4.60024538 -0.19987731 -2.81299534 -0.03606404 0 0 Z " fill="#FAFAFA" transform="translate(133.125,33.9375)"/>
<path d="M0 0 C1.65 0 3.3 0 5 0 C5 1.32 5 2.64 5 4 C7.64 3.67 10.28 3.34 13 3 C10.09907498 4.93395001 9.10325263 5.30131941 5.8125 5.625 C4.554375 5.74875 3.29625 5.8725 2 6 C2 5.34 2 4.68 2 4 C0.35 4 -1.3 4 -3 4 C-1.68 3.34 -0.36 2.68 1 2 C0.67 1.34 0.34 0.68 0 0 Z " fill="#E8AF1F" transform="translate(147,177)"/>
<path d="M0 0 C2.97 0 5.94 0 9 0 C9.33 1.32 9.66 2.64 10 4 C6.7 4 3.4 4 0 4 C0 2.68 0 1.36 0 0 Z " fill="#1D1D1D" transform="translate(49,38)"/>
<path d="M0 0 C0 0.66 0 1.32 0 2 C0.33 2.66 0.66 3.32 1 4 C-0.93596892 4.22211116 -2.87389328 4.42722992 -4.8125 4.625 C-6.43091797 4.79902344 -6.43091797 4.79902344 -8.08203125 4.9765625 C-11 5 -11 5 -14 3 C-12.04486839 2.303447 -10.08577524 1.61800435 -8.125 0.9375 C-7.03445312 0.55464844 -5.94390625 0.17179688 -4.8203125 -0.22265625 C-2 -1 -2 -1 0 0 Z " fill="#1C150A" transform="translate(168,179)"/>
<path d="M0 0 C1.258125 -0.020625 2.51625 -0.04125 3.8125 -0.0625 C4.52019531 -0.07410156 5.22789062 -0.08570313 5.95703125 -0.09765625 C8 0 8 0 11 1 C11 1.99 11 2.98 11 4 C7.04 3.67 3.08 3.34 -1 3 C-0.67 2.01 -0.34 1.02 0 0 Z " fill="#070707" transform="translate(132,38)"/>
<path d="M0 0 C0.99 0.99 1.98 1.98 3 3 C0.96123051 3.81974263 -1.08116075 4.6304807 -3.125 5.4375 C-4.26195312 5.88996094 -5.39890625 6.34242188 -6.5703125 6.80859375 C-9.74206741 7.91039927 -12.67942748 8.56095774 -16 9 C-11.36301772 4.36301772 -6.25696656 3.53939367 0 3 C0 2.01 0 1.02 0 0 Z " fill="#E5B127" transform="translate(176,171)"/>
<path d="M0 0 C1.0725 0.309375 2.145 0.61875 3.25 0.9375 C5.82866222 1.66812096 8.39512102 2.37482904 11 3 C11.33 4.32 11.66 5.64 12 7 C8.04124604 7 5.50990464 5.78686054 2 4 C0.5625 1.8125 0.5625 1.8125 0 0 Z " fill="#F3B514" transform="translate(35,160)"/>
<path d="M0 0 C2.31 0 4.62 0 7 0 C7 1.65 7 3.3 7 5 C4.03 5 1.06 5 -2 5 C-1.01 4.67 -0.02 4.34 1 4 C0.67 2.68 0.34 1.36 0 0 Z " fill="#D5D5D5" transform="translate(185,50)"/>
<path d="M0 0 C0 1.65 0 3.3 0 5 C-2.31 5.66 -4.62 6.32 -7 7 C-6.67 5.68 -6.34 4.36 -6 3 C-6.66 2.67 -7.32 2.34 -8 2 C-5.09399739 0.74335022 -3.20395416 0 0 0 Z " fill="#CFCFCF" transform="translate(174,33)"/>
<path d="M0 0 C5.28 0 10.56 0 16 0 C16 0.33 16 0.66 16 1 C13.36 1 10.72 1 8 1 C8 1.66 8 2.32 8 3 C5.36 3 2.72 3 0 3 C0 2.01 0 1.02 0 0 Z " fill="#F8B116" transform="translate(168,91)"/>
<path d="M0 0 C2.64 0 5.28 0 8 0 C5.25906335 1.8272911 2.86174676 2.93698178 -0.1875 4.125 C-1.08855469 4.47820312 -1.98960938 4.83140625 -2.91796875 5.1953125 C-3.94857422 5.59363281 -3.94857422 5.59363281 -5 6 C-5.33 4.68 -5.66 3.36 -6 2 C-4.02 2 -2.04 2 0 2 C0 1.34 0 0.68 0 0 Z " fill="#170D06" transform="translate(55,65)"/>
<path d="M0 0 C-0.66 1.32 -1.32 2.64 -2 4 C-2.598125 3.79375 -3.19625 3.5875 -3.8125 3.375 C-6.28450846 2.69328085 -6.28450846 2.69328085 -9 5 C-9.33 3.35 -9.66 1.7 -10 0 C-6.33694766 -0.74926071 -3.57644848 -1.2380014 0 0 Z " fill="#1B1209" transform="translate(146,185)"/>
<path d="M0 0 C-0.25 1.875 -0.25 1.875 -1 4 C-3.0625 5.25 -3.0625 5.25 -5 6 C-5 5.34 -5 4.68 -5 4 C-7.97 3.505 -7.97 3.505 -11 3 C-11 2.67 -11 2.34 -11 2 C-3.375 0 -3.375 0 0 0 Z " fill="#F1B720" transform="translate(194,162)"/>
<path d="M0 0 C0.66 0.33 1.32 0.66 2 1 C1.2575 2.1446875 1.2575 2.1446875 0.5 3.3125 C-1.24368308 5.92363751 -1.24368308 5.92363751 -1 9 C-2.32 9.33 -3.64 9.66 -5 10 C-5 4.69520066 -3.4637943 3.81017373 0 0 Z " fill="#221E14" transform="translate(209,151)"/>
<path d="M0 0 C0.99 0.33 1.98 0.66 3 1 C2.67 1.66 2.34 2.32 2 3 C1.34 3 0.68 3 0 3 C-0.33 3.66 -0.66 4.32 -1 5 C-0.34 5.33 0.32 5.66 1 6 C-1.97 6 -4.94 6 -8 6 C-5.38485683 3.87961365 -2.80362384 1.86908256 0 0 Z " fill="#19100C" transform="translate(198,162)"/>
<path d="M0 0 C2.97 1.98 2.97 1.98 6 4 C5.01 4.99 4.02 5.98 3 7 C1.68 6.34 0.36 5.68 -1 5 C-0.67 3.35 -0.34 1.7 0 0 Z " fill="#120C0C" transform="translate(33,161)"/>
<path d="M0 0 C0.66 0.33 1.32 0.66 2 1 C2.625 3.0625 2.625 3.0625 3 5 C2.01 5.66 1.02 6.32 0 7 C0 6.34 0 5.68 0 5 C-1.65 5.66 -3.3 6.32 -5 7 C-3.47793991 4.37098712 -2.15634036 2.15634036 0 0 Z " fill="#150B0B" transform="translate(69,79)"/>
<path d="M0 0 C0 1.32 0 2.64 0 4 C-1.98 4.33 -3.96 4.66 -6 5 C-6.33 4.01 -6.66 3.02 -7 2 C-2.25 0 -2.25 0 0 0 Z " fill="#0B0806" transform="translate(184,160)"/>
<path d="M0 0 C1.32 0.33 2.64 0.66 4 1 C3.34 4.63 2.68 8.26 2 12 C2.66 12.33 3.32 12.66 4 13 C3.01 13.33 2.02 13.66 1 14 C0.67 9.38 0.34 4.76 0 0 Z " fill="#050212" transform="translate(188,88)"/>
<path d="M0 0 C0.66 0.99 1.32 1.98 2 3 C0.70700306 5.88437779 -0.65941363 7.87219421 -3 10 C-3.36923077 4.58461538 -3.36923077 4.58461538 -1.5 1.625 C-1.005 1.08875 -0.51 0.5525 0 0 Z " fill="#E8B021" transform="translate(45,75)"/>
<path d="M0 0 C1.98 0 3.96 0 6 0 C6.33 0.99 6.66 1.98 7 3 C4.625 4.0625 4.625 4.0625 2 5 C1.34 4.67 0.68 4.34 0 4 C0 2.68 0 1.36 0 0 Z " fill="#F1F1F1" transform="translate(159,34)"/>
<path d="M0 0 C0.53625 0.37125 1.0725 0.7425 1.625 1.125 C-3.21741633 2.46083899 -7.30937617 3.37828119 -12.375 3.125 C-3.90178571 -1.4375 -3.90178571 -1.4375 0 0 Z " fill="#D8AB22" transform="translate(184.375,164.875)"/>
<path d="M0 0 C0.66 0.33 1.32 0.66 2 1 C1.67 1.99 1.34 2.98 1 4 C0.0925 4.12375 -0.815 4.2475 -1.75 4.375 C-4.58970323 4.92109677 -6.52590591 5.57263803 -9 7 C-3.51752022 1.21293801 -3.51752022 1.21293801 0 0 Z " fill="#E6AE2A" transform="translate(55,68)"/>
<path d="M0 0 C-2.39223697 2.39223697 -3.67759676 2.6758631 -7 3 C-7.99 2.34 -8.98 1.68 -10 1 C-6.42181037 -1.33958553 -4.07775191 -0.9267618 0 0 Z " fill="#130C0B" transform="translate(178,165)"/>
<path d="M0 0 C2.64 0 5.28 0 8 0 C8.33 0.99 8.66 1.98 9 3 C2.84765625 2.4140625 2.84765625 2.4140625 1 2 C0.67 1.34 0.34 0.68 0 0 Z " fill="#E0B022" transform="translate(79,181)"/>
<path d="M0 0 C0.66 0.66 1.32 1.32 2 2 C1.64700993 5.44165321 0.95418308 7.06872538 -1 10 C-1 1 -1 1 0 0 Z " fill="#100908" transform="translate(42,72)"/>
<path d="M0 0 C1.65 0.33 3.3 0.66 5 1 C5 1.66 5 2.32 5 3 C1.25 4.125 1.25 4.125 -1 3 C-0.67 2.01 -0.34 1.02 0 0 Z " fill="#100C06" transform="translate(35,155)"/>
<path d="M0 0 C0.66 0 1.32 0 2 0 C2.66 2.64 3.32 5.28 4 8 C3.01 8 2.02 8 1 8 C0.67 5.36 0.34 2.72 0 0 Z " fill="#140B08" transform="translate(145,136)"/>
<path d="M0 0 C1.65 0 3.3 0 5 0 C5 0.99 5 1.98 5 3 C3.02 3 1.04 3 -1 3 C-0.67 2.01 -0.34 1.02 0 0 Z " fill="#FDFDFD" transform="translate(135,42)"/>
<path d="M0 0 C1.98 0 3.96 0 6 0 C5.67 0.99 5.34 1.98 5 3 C3.35 3 1.7 3 0 3 C0 2.01 0 1.02 0 0 Z " fill="#FEFEFE" transform="translate(186,34)"/>
</svg>
