<?xml version="1.0" encoding="UTF-8"?>
<svg version="1.1" xmlns="http://www.w3.org/2000/svg" width="200" height="200">
<path d="M0 0 C66 0 132 0 200 0 C200 66 200 132 200 200 C134 200 68 200 0 200 C0 134 0 68 0 0 Z " fill="#0B2264" transform="translate(0,0)"/>
<path d="M0 0 C4.51315789 2.02631579 4.51315789 2.02631579 6 5 C6.63452475 13.15120262 6.40456487 18.95707922 1 25.375 C-3.60344305 27.86853165 -7.88650315 27.83563892 -13 27 C-16.1875 25.25 -16.1875 25.25 -18 22 C-18.90545046 15.59012795 -18.91407855 9.39872904 -15 4 C-10.76622818 -0.8752524 -6.05864634 -0.84562387 0 0 Z " fill="#EFF3F6" transform="translate(92,86)"/>
<path d="M0 0 C1.23556641 0.01740234 1.23556641 0.01740234 2.49609375 0.03515625 C3.32238281 0.04417969 4.14867187 0.05320312 5 0.0625 C5.63808594 0.07410156 6.27617187 0.08570312 6.93359375 0.09765625 C8.51922148 5.30954567 9.64066086 10.48055885 10.55859375 15.84765625 C10.69265625 16.60175781 10.82671875 17.35585937 10.96484375 18.1328125 C11.49160538 21.15900432 11.93359375 24.01996507 11.93359375 27.09765625 C9.29359375 27.09765625 6.65359375 27.09765625 3.93359375 27.09765625 C3.43859375 24.62265625 3.43859375 24.62265625 2.93359375 22.09765625 C0.29359375 22.09765625 -2.34640625 22.09765625 -5.06640625 22.09765625 C-5.39640625 23.74765625 -5.72640625 25.39765625 -6.06640625 27.09765625 C-8.70640625 27.09765625 -11.34640625 27.09765625 -14.06640625 27.09765625 C-12.23799657 20.81249797 -9.72767441 15.00550808 -6.94140625 9.09765625 C-6.58046875 8.33138916 -6.21953125 7.56512207 -5.84765625 6.77563477 C-2.67548153 0.12644053 -2.67548153 0.12644053 0 0 Z " fill="#EBEFF4" transform="translate(154.06640625,85.90234375)"/>
<path d="M0 0 C1.60294922 0.04060547 1.60294922 0.04060547 3.23828125 0.08203125 C4.04652344 0.11683594 4.85476562 0.15164062 5.6875 0.1875 C6.6875 3.1875 6.6875 3.1875 5.6875 7.1875 C1.7275 7.1875 -2.2325 7.1875 -6.3125 7.1875 C-7.03687834 10.80939172 -7.42835593 13.42515264 -7.375 17 C-7.36146484 18.18529297 -7.36146484 18.18529297 -7.34765625 19.39453125 C-7.33605469 19.98621094 -7.32445313 20.57789062 -7.3125 21.1875 C-5.6625 21.1875 -4.0125 21.1875 -2.3125 21.1875 C-1.8175 16.7325 -1.8175 16.7325 -1.3125 12.1875 C0.9975 12.1875 3.3075 12.1875 5.6875 12.1875 C5.54616501 13.95869803 5.39926792 15.72945287 5.25 17.5 C5.16878906 18.48613281 5.08757812 19.47226563 5.00390625 20.48828125 C4.6875 23.1875 4.6875 23.1875 3.6875 26.1875 C-0.53126285 28.29688142 -5.72833997 27.68193004 -10.3125 27.1875 C-13.5625 25.5 -13.5625 25.5 -15.3125 22.1875 C-16.15394521 16.22790638 -16.18554194 11.06292343 -13.625 5.5625 C-9.34177585 1.16351303 -6.14574954 -0.20260713 0 0 Z " fill="#F4F7F9" transform="translate(134.3125,85.8125)"/>
<path d="M0 0 C0.88945313 0.00257812 1.77890625 0.00515625 2.6953125 0.0078125 C3.57960938 0.00523438 4.46390625 0.00265625 5.375 0 C7.8203125 0.1328125 7.8203125 0.1328125 10.8203125 1.1328125 C10.4903125 3.1128125 10.1603125 5.0928125 9.8203125 7.1328125 C6.5203125 6.8028125 3.2203125 6.4728125 -0.1796875 6.1328125 C0.53035715 9.41138249 0.53035715 9.41138249 3.7578125 10.6953125 C4.7684375 11.1696875 5.7790625 11.6440625 6.8203125 12.1328125 C8.8203125 14.1328125 8.8203125 14.1328125 9.1953125 18.0078125 C9.12122367 21.14803893 8.95537421 21.95117778 7.0078125 24.5703125 C3.5882671 27.01284493 0.84602173 27.26985435 -3.2421875 27.2578125 C-4.55896484 27.26167969 -4.55896484 27.26167969 -5.90234375 27.265625 C-8.1796875 27.1328125 -8.1796875 27.1328125 -10.1796875 26.1328125 C-9.8496875 24.1528125 -9.5196875 22.1728125 -9.1796875 20.1328125 C-5.5496875 20.4628125 -1.9196875 20.7928125 1.8203125 21.1328125 C0.64679298 17.61225395 -0.08291133 17.31057863 -3.1796875 15.5078125 C-7.13620924 13.17629076 -7.13620924 13.17629076 -8.1796875 12.1328125 C-8.5546875 9.3828125 -8.5546875 9.3828125 -8.1796875 6.1328125 C-5.7421875 3.3203125 -5.7421875 3.3203125 -3.1796875 1.1328125 C-2.1796875 0.1328125 -2.1796875 0.1328125 0 0 Z " fill="#EEF3F7" transform="translate(62.1796875,85.8671875)"/>
<path d="M0 0 C2.44943326 4.36766412 2.78273231 8.07766279 2 13 C0.25030366 17.34044842 -1.96945388 20.25051191 -5.75 23 C-11.36849585 24.72876795 -16.0093458 24.78204272 -21.5 22.625 C-24 21 -24 21 -25 19 C-23.824375 18.938125 -22.64875 18.87625 -21.4375 18.8125 C-17.95120445 17.9918322 -17.09559652 17.14157481 -15.05078125 14.11328125 C-13.86715589 11.82048853 -12.7286083 9.50375474 -11.640625 7.1640625 C-8.67275626 1.44031565 -6.54075715 -0.59461429 0 0 Z " fill="#DEA949" transform="translate(42,91)"/>
<path d="M0 0 C0.66 0.33 1.32 0.66 2 1 C1.67 2.98 1.34 4.96 1 7 C-1.97 7 -4.94 7 -8 7 C-8 7.66 -8 8.32 -8 9 C-7.43410156 9.27714844 -6.86820313 9.55429688 -6.28515625 9.83984375 C-5.55167969 10.20207031 -4.81820312 10.56429687 -4.0625 10.9375 C-2.96615234 11.47697266 -2.96615234 11.47697266 -1.84765625 12.02734375 C0 13 0 13 1 14 C1.375 17.25 1.375 17.25 1 21 C-1.1727422 23.63016161 -2.94673788 25.47336894 -6 27 C-7.66444461 27.0955931 -9.33281963 27.12984645 -11 27.125 C-11.886875 27.12757812 -12.77375 27.13015625 -13.6875 27.1328125 C-16 27 -16 27 -18 26 C-18 24.35 -18 22.7 -18 21 C-14.26562152 20.12132271 -10.83225427 19.91087781 -7 20 C-7 19.34 -7 18.68 -7 18 C-7.56589844 17.73445313 -8.13179687 17.46890625 -8.71484375 17.1953125 C-9.81505859 16.66550781 -9.81505859 16.66550781 -10.9375 16.125 C-11.66839844 15.77695313 -12.39929688 15.42890625 -13.15234375 15.0703125 C-15 14 -15 14 -16 12 C-16.4375 8.6875 -16.4375 8.6875 -16 5 C-11.4747506 -0.597019 -6.93684892 -0.87334429 0 0 Z " fill="#F0F4F7" transform="translate(186,86)"/>
<path d="M0 0 C2.41793589 1.20896794 2.79103206 1.58206411 4 4 C7.0745356 3.2236068 7.0745356 3.2236068 9 1 C9.33 1.66 9.66 2.32 10 3 C9.10375977 5.43017578 9.10375977 5.43017578 7.69140625 8.4453125 C7.19189453 9.52167969 6.69238281 10.59804687 6.17773438 11.70703125 C5.64470703 12.83496094 5.11167969 13.96289062 4.5625 15.125 C4.03333984 16.26066406 3.50417969 17.39632812 2.95898438 18.56640625 C1.6463123 21.3809644 0.32638724 24.19188571 -1 27 C0.98 27 2.96 27 5 27 C4.34 27.66 3.68 28.32 3 29 C0.24410223 28.98252073 -2.38786676 28.86136729 -5.125 28.625 C-5.87910156 28.56828125 -6.63320312 28.5115625 -7.41015625 28.453125 C-9.27418096 28.3115535 -11.13721137 28.15700041 -13 28 C-13 27.67 -13 27.34 -13 27 C-9.7 26.67 -6.4 26.34 -3 26 C-2.93941406 25.15695313 -2.87882813 24.31390625 -2.81640625 23.4453125 C-2.73261719 22.34960938 -2.64882812 21.25390625 -2.5625 20.125 C-2.48128906 19.03445312 -2.40007812 17.94390625 -2.31640625 16.8203125 C-2 14 -2 14 -1 12 C-3.31 12 -5.62 12 -8 12 C-8.33 14.97 -8.66 17.94 -9 21 C-10.65 21 -12.3 21 -14 21 C-15.90490982 17.19018036 -15.33435071 13.09858089 -14.125 9.125 C-13 7 -13 7 -11 6 C-9.125 5.8671875 -9.125 5.8671875 -7 5.875 C-5.948125 5.87113281 -5.948125 5.87113281 -4.875 5.8671875 C-3 6 -3 6 -1 7 C-0.67 4.69 -0.34 2.38 0 0 Z " fill="#1A2B5E" transform="translate(141,86)"/>
<path d="M0 0 C2.64 0 5.28 0 8 0 C7.69152766 2.93797442 7.37839777 5.87532282 7.0625 8.8125 C6.93198242 10.06256836 6.93198242 10.06256836 6.79882812 11.33789062 C6.66831055 12.54155273 6.66831055 12.54155273 6.53515625 13.76953125 C6.456604 14.50792236 6.37805176 15.24631348 6.29711914 16.00708008 C6 18 6 18 5 21 C8.3 21 11.6 21 15 21 C15 22.65 15 24.3 15 26 C14 27 14 27 10.18359375 27.09765625 C8.60153318 27.09098089 7.01948841 27.07901875 5.4375 27.0625 C4.63119141 27.05798828 3.82488281 27.05347656 2.99414062 27.04882812 C0.99606244 27.03700518 -1.00197783 27.01906914 -3 27 C-2.35878726 17.93865155 -1.26519458 8.99147995 0 0 Z " fill="#ECF0F5" transform="translate(102,86)"/>
<path d="M0 0 C1.2684375 -0.02513672 1.2684375 -0.02513672 2.5625 -0.05078125 C5.45330535 0.38005993 6.82826275 1.40720274 9 3.3125 C7.35 3.3125 5.7 3.3125 4 3.3125 C3.9175 4.385 3.835 5.4575 3.75 6.5625 C3 10.3125 3 10.3125 1.375 12.8125 C-1 14.3125 -1 14.3125 -4.75 14.0625 C-6.35875 13.69125 -6.35875 13.69125 -8 13.3125 C-7.78515625 11.484375 -7.78515625 11.484375 -7 9.3125 C-4.93359375 7.828125 -4.93359375 7.828125 -2.4375 6.5625 C-1.61121094 6.13453125 -0.78492188 5.7065625 0.06640625 5.265625 C0.70449219 4.95109375 1.34257812 4.6365625 2 4.3125 C-4.86359876 4.8615879 -8.86643355 6.84205464 -13.375 12.0625 C-13.91125 12.805 -14.4475 13.5475 -15 14.3125 C-14.74986131 10.0601422 -14.43113402 7.83685219 -11.6875 4.5 C-7.76609825 1.30816136 -5.08643505 0.02326114 0 0 Z " fill="#D7BA51" transform="translate(28,83.6875)"/>
<path d="M0 0 C2.31 0 4.62 0 7 0 C6.85866501 1.77119803 6.71176792 3.54195287 6.5625 5.3125 C6.48128906 6.29863281 6.40007812 7.28476563 6.31640625 8.30078125 C6 11 6 11 5 14 C2.23547967 15.38226016 -0.0461363 15.09525387 -3.125 15.0625 C-4.22070312 15.05347656 -5.31640625 15.04445313 -6.4453125 15.03515625 C-7.70988281 15.01775391 -7.70988281 15.01775391 -9 15 C-8.01 14.67 -7.02 14.34 -6 14 C-6.57344937 11.13275314 -6.8614515 10.1385485 -9 8 C-8.34 7.34 -7.68 6.68 -7 6 C-6.67 6.99 -6.34 7.98 -6 9 C-4.35 9 -2.7 9 -1 9 C-0.67 6.03 -0.34 3.06 0 0 Z " fill="#E8EEF4" transform="translate(133,98)"/>
<path d="M0 0 C0.88945313 0.00257812 1.77890625 0.00515625 2.6953125 0.0078125 C3.57960938 0.00523438 4.46390625 0.00265625 5.375 0 C7.8203125 0.1328125 7.8203125 0.1328125 10.8203125 1.1328125 C10.4903125 3.1128125 10.1603125 5.0928125 9.8203125 7.1328125 C6.5203125 6.8028125 3.2203125 6.4728125 -0.1796875 6.1328125 C-0.1796875 7.1228125 -0.1796875 8.1128125 -0.1796875 9.1328125 C-1.4996875 9.4628125 -2.8196875 9.7928125 -4.1796875 10.1328125 C-4.1796875 11.7828125 -4.1796875 13.4328125 -4.1796875 15.1328125 C-6.1796875 14.0078125 -6.1796875 14.0078125 -8.1796875 12.1328125 C-8.7421875 9.2578125 -8.7421875 9.2578125 -8.1796875 6.1328125 C-5.7421875 3.3203125 -5.7421875 3.3203125 -3.1796875 1.1328125 C-2.1796875 0.1328125 -2.1796875 0.1328125 0 0 Z " fill="#E9EFF4" transform="translate(62.1796875,85.8671875)"/>
<path d="M0 0 C-2.28608004 2.5498585 -4.08115249 4.03978063 -7.1875 5.5625 C-10.30282904 6.74045087 -10.30282904 6.74045087 -11 10 C-8.03 10.495 -8.03 10.495 -5 11 C-5.99 11.66 -6.98 12.32 -8 13 C-9.010625 13.70125 -10.02125 14.4025 -11.0625 15.125 C-14 17 -14 17 -16 17 C-16.33 17.66 -16.66 18.32 -17 19 C-18.9775939 14.05601526 -19.34413243 10.24801962 -19 5 C-18.34 4.01 -17.68 3.02 -17 2 C-16.34 2.33 -15.68 2.66 -15 3 C-15.99 4.485 -15.99 4.485 -17 6 C-17 6.99 -17 7.98 -17 9 C-16.484375 8.2575 -15.96875 7.515 -15.4375 6.75 C-11.1174253 1.87606956 -6.72495803 -0.65609347 0 0 Z " fill="#302A52" transform="translate(31,87)"/>
<path d="M0 0 C0.33 0.99 0.66 1.98 1 3 C5.29 3 9.58 3 14 3 C11.67899492 7.64201017 10.76387563 8.26768159 6 10 C0.28151379 10.75700891 -4.06357063 10.20867909 -9 7 C-9.33 6.34 -9.66 5.68 -10 5 C-6.97265625 4.36523438 -6.97265625 4.36523438 -3.9453125 3.73046875 C-1.62953451 3.07691162 -1.62953451 3.07691162 0 0 Z " fill="#EA9265" transform="translate(27,105)"/>
<path d="M0 0 C1.77503906 0.03480469 1.77503906 0.03480469 3.5859375 0.0703125 C5.36871094 0.09738281 5.36871094 0.09738281 7.1875 0.125 C8.10273437 0.14820312 9.01796875 0.17140625 9.9609375 0.1953125 C9.9609375 0.8553125 9.9609375 1.5153125 9.9609375 2.1953125 C10.9509375 1.8653125 11.9409375 1.5353125 12.9609375 1.1953125 C13.2909375 2.1853125 13.6209375 3.1753125 13.9609375 4.1953125 C13.3009375 4.1953125 12.6409375 4.1953125 11.9609375 4.1953125 C11.9609375 4.8553125 11.9609375 5.5153125 11.9609375 6.1953125 C12.6003125 6.4634375 13.2396875 6.7315625 13.8984375 7.0078125 C15.9609375 8.1953125 15.9609375 8.1953125 16.9609375 11.1953125 C17.029487 13.09002066 17.04574122 14.9869959 17.0234375 16.8828125 C17.01441406 17.87667969 17.00539063 18.87054688 16.99609375 19.89453125 C16.98449219 20.65378906 16.97289063 21.41304687 16.9609375 22.1953125 C16.6309375 22.1953125 16.3009375 22.1953125 15.9609375 22.1953125 C15.90035156 21.59203125 15.83976562 20.98875 15.77734375 20.3671875 C15.69355469 19.56796875 15.60976563 18.76875 15.5234375 17.9453125 C15.44222656 17.15640625 15.36101563 16.3675 15.27734375 15.5546875 C14.98458757 13.37166611 14.54029331 11.3179943 13.9609375 9.1953125 C11.3209375 9.5253125 8.6809375 9.8553125 5.9609375 10.1953125 C5.6928125 10.9584375 5.4246875 11.7215625 5.1484375 12.5078125 C4.01669638 15.06912134 3.04870349 16.39224188 0.9609375 18.1953125 C1.61413757 13.7317787 2.45718327 9.45594949 3.9609375 5.1953125 C4.9509375 4.8653125 5.9409375 4.5353125 6.9609375 4.1953125 C4.52705997 2.97837374 2.54254904 2.87571354 -0.1640625 2.6328125 C-1.07414062 2.54902344 -1.98421875 2.46523437 -2.921875 2.37890625 C-3.62054687 2.31832031 -4.31921875 2.25773437 -5.0390625 2.1953125 C-3.0390625 0.1953125 -3.0390625 0.1953125 0 0 Z " fill="#1E2542" transform="translate(28.0390625,81.8046875)"/>
<path d="M0 0 C3.125 -0.1875 3.125 -0.1875 6 0 C6.05406122 1.93719378 6.09282025 3.87481921 6.125 5.8125 C6.14820312 6.89144531 6.17140625 7.97039062 6.1953125 9.08203125 C6 12 6 12 4 15 C0.875 15.1875 0.875 15.1875 -2 15 C-2.05406122 13.06280622 -2.09282025 11.12518079 -2.125 9.1875 C-2.14820312 8.10855469 -2.17140625 7.02960938 -2.1953125 5.91796875 C-2 3 -2 3 0 0 Z " fill="#152863" transform="translate(84,92)"/>
<path d="M0 0 C0.33 0 0.66 0 1 0 C1.33 4.62 1.66 9.24 2 14 C3.65 14 5.3 14 7 14 C6.34 14.66 5.68 15.32 5 16 C4.35232207 18.57061311 4.35232207 18.57061311 4 21 C6.97 21.33 9.94 21.66 13 22 C13 22.33 13 22.66 13 23 C11.948125 23.12375 10.89625 23.2475 9.8125 23.375 C5.78502961 24.03524105 2.61941734 25.19029133 -1 27 C-1 26.34 -1 25.68 -1 25 C-4.13349732 23.95550089 -4.98968256 24.06576355 -8 25 C-8.0825 24.05125 -8.165 23.1025 -8.25 22.125 C-8.65074923 18.89538209 -8.65074923 18.89538209 -11.0625 17.625 C-12.0215625 17.315625 -12.0215625 17.315625 -13 17 C-11.02 17 -9.04 17 -7 17 C-6.67 18.32 -6.34 19.64 -6 21 C-3.36 21.33 -0.72 21.66 2 22 C1.7834375 21.14277344 1.566875 20.28554687 1.34375 19.40234375 C-2.27369219 4.54738438 -2.27369219 4.54738438 0 0 Z " fill="#192B5F" transform="translate(164,91)"/>
<path d="M0 0 C-0.474375 0.763125 -0.94875 1.52625 -1.4375 2.3125 C-3.7764557 6.89111612 -3.73956205 11.9528922 -4 17 C-4.99 17 -5.98 17 -7 17 C-7.061875 15.906875 -7.12375 14.81375 -7.1875 13.6875 C-7.60686129 9.89552491 -7.60686129 9.89552491 -10.375 8.1875 C-11.674375 7.5996875 -11.674375 7.5996875 -13 7 C-13.99 6.34 -14.98 5.68 -16 5 C-16 4.01 -16 3.02 -16 2 C-9.375 1.875 -9.375 1.875 -6 3 C-6 2.01 -6 1.02 -6 0 C-2.25 -1.125 -2.25 -1.125 0 0 Z " fill="#253264" transform="translate(78,90)"/>
<path d="M0 0 C-0.99 0.33 -1.98 0.66 -3 1 C-3.12375 1.639375 -3.2475 2.27875 -3.375 2.9375 C-4.1979822 6.97011276 -5.09885975 10.98423907 -6 15 C-7.65 15 -9.3 15 -11 15 C-12.90490982 11.19018036 -12.33435071 7.09858089 -11.125 3.125 C-8.77399106 -1.31579466 -4.45887926 -0.07191741 0 0 Z " fill="#152860" transform="translate(138,92)"/>
<path d="M0 0 C1.98 0 3.96 0 6 0 C6.33 0.99 6.66 1.98 7 3 C7.66 3.33 8.32 3.66 9 4 C9 3.34 9 2.68 9 2 C9.66 2 10.32 2 11 2 C10.50610812 10.78607656 9.63177319 19.35001785 8 28 C7.34 28 6.68 28 6 28 C6.33 26.35 6.66 24.7 7 23 C6.34 23 5.68 23 5 23 C5.24169922 21.95199219 5.24169922 21.95199219 5.48828125 20.8828125 C6.03014169 17.83019413 6.1680832 14.97392144 6.1875 11.875 C6.20876953 10.32425781 6.20876953 10.32425781 6.23046875 8.7421875 C6.20408145 5.78279966 6.20408145 5.78279966 4 3 C1.94996045 1.80767387 1.94996045 1.80767387 0 1 C0 0.67 0 0.34 0 0 Z " fill="#273565" transform="translate(91,85)"/>
<path d="M0 0 C0.928125 0.0825 1.85625 0.165 2.8125 0.25 C3.1425 2.23 3.4725 4.21 3.8125 6.25 C3.1525 6.25 2.4925 6.25 1.8125 6.25 C1.8125 5.26 1.8125 4.27 1.8125 3.25 C1.1525 3.91 0.4925 4.57 -0.1875 5.25 C0.13448966 8.34926819 0.13448966 8.34926819 0.8125 11.25 C-2.340868 11.95074844 -4.91474974 12.25 -8.1875 12.25 C-5.62898936 0.44148936 -5.62898936 0.44148936 0 0 Z " fill="#F7BB2C" transform="translate(38.1875,92.75)"/>
<path d="M0 0 C1.65 0 3.3 0 5 0 C4.01 0.495 4.01 0.495 3 1 C2.87625 2.093125 2.7525 3.18625 2.625 4.3125 C2 8 2 8 0.375 10.5 C-2 12 -2 12 -5.75 11.75 C-7.35875 11.37875 -7.35875 11.37875 -9 11 C-8.78515625 9.171875 -8.78515625 9.171875 -8 7 C-5.93359375 5.515625 -5.93359375 5.515625 -3.4375 4.25 C-2.61121094 3.82203125 -1.78492188 3.3940625 -0.93359375 2.953125 C-0.29550781 2.63859375 0.34257812 2.3240625 1 2 C0.67 1.34 0.34 0.68 0 0 Z " fill="#7FA848" transform="translate(29,86)"/>
<path d="M0 0 C0.33 0.66 0.66 1.32 1 2 C1.56203125 1.77828125 2.1240625 1.5565625 2.703125 1.328125 C5.89731077 0.87181275 7.12714138 1.94999899 9.75 3.75 C10.94882812 4.54664062 10.94882812 4.54664062 12.171875 5.359375 C12.77515625 5.90078125 13.3784375 6.4421875 14 7 C14 7.99 14 8.98 14 10 C4.85365854 10.30487805 4.85365854 10.30487805 2 8 C0.50518132 5.08510357 0 3.29223784 0 0 Z " fill="#14275E" transform="translate(50,97)"/>
<path d="M0 0 C2.64 0 5.28 0 8 0 C7.67 3.3 7.34 6.6 7 10 C5.02 9.34 3.04 8.68 1 8 C0.67 9.32 0.34 10.64 0 12 C-1.53166168 7.91556885 -0.63081652 4.20544343 0 0 Z " fill="#E5EAF1" transform="translate(102,86)"/>
<path d="M0 0 C1 3 1 3 -0.5 6.0625 C-3.51163288 9.60116864 -5.51541502 10.103083 -10 11 C-10.99 11.33 -11.98 11.66 -13 12 C-13.33 10.68 -13.66 9.36 -14 8 C-12.02 8 -10.04 8 -8 8 C-8 7.34 -8 6.68 -8 6 C-8.66 6 -9.32 6 -10 6 C-9.67 5.01 -9.34 4.02 -9 3 C-5.92382812 2.70703125 -5.92382812 2.70703125 -2.84765625 2.4140625 C-1.93306641 2.20910156 -1.93306641 2.20910156 -1 2 C-0.67 1.34 -0.34 0.68 0 0 Z " fill="#1A2358" transform="translate(28,100)"/>
<path d="M0 0 C0.66 0.33 1.32 0.66 2 1 C2.37096774 6.56451613 2.37096774 6.56451613 0.5625 8.6875 C0.046875 9.120625 -0.46875 9.55375 -1 10 C-1.33 10.99 -1.66 11.98 -2 13 C-3 12 -3 12 -3.0625 8.9375 C-3.041875 7.968125 -3.02125 6.99875 -3 6 C-4.98 6 -6.96 6 -9 6 C-8.67 4.35 -8.34 2.7 -8 1 C-5.125 0.875 -5.125 0.875 -2 1 C-1.34 1.66 -0.68 2.32 0 3 C0 2.01 0 1.02 0 0 Z " fill="#0D215F" transform="translate(143,92)"/>
<path d="M0 0 C1 3 1 3 0.9375 5.5 C0.78382114 8.25394157 0.78382114 8.25394157 3 11 C2.125 13.6875 2.125 13.6875 1 16 C0.67 16 0.34 16 0 16 C0.0309375 14.4221875 0.0309375 14.4221875 0.0625 12.8125 C-0.59187488 8.9819434 -0.59187488 8.9819434 -3.0703125 7.421875 C-5.34669773 6.18021033 -7.62560462 5.04089656 -10 4 C-9.67 3.01 -9.34 2.02 -9 1 C-2.25 0.875 -2.25 0.875 0 2 C0 1.34 0 0.68 0 0 Z " fill="#1C2B60" transform="translate(187,91)"/>
<path d="M0 0 C0.33 2.97 0.66 5.94 1 9 C-1.64 9 -4.28 9 -7 9 C-7.25 5.6875 -7.25 5.6875 -7 2 C-4.37226805 -0.89956629 -3.79438356 -1.26479452 0 0 Z " fill="#E7EEF2" transform="translate(165,104)"/>
<path d="M0 0 C0.33 0.99 0.66 1.98 1 3 C3.97 3.495 3.97 3.495 7 4 C6.01 4.66 5.02 5.32 4 6 C2.989375 6.70125 1.97875 7.4025 0.9375 8.125 C-2 10 -2 10 -4 10 C-4.33 10.66 -4.66 11.32 -5 12 C-6 11 -6 11 -6.375 8.75 C-5.84750459 4.88170031 -3.86505492 3.51565798 -1 1 C-0.67 0.67 -0.34 0.34 0 0 Z " fill="#3D8F8D" transform="translate(19,94)"/>
<path d="M0 0 C-0.99 1.485 -0.99 1.485 -2 3 C5.55038422 2.34650367 5.55038422 2.34650367 13 1 C13 0.34 13 -0.32 13 -1 C13.66 -1 14.32 -1 15 -1 C14 2 14 2 11.5 3.6875 C5.82728471 5.81476824 1.14514033 5.8427337 -4.5 3.625 C-7 2 -7 2 -8 0 C-2.25 -1.125 -2.25 -1.125 0 0 Z " fill="#C36975" transform="translate(25,110)"/>
<path d="M0 0 C0.66 0.33 1.32 0.66 2 1 C1.67 3.97 1.34 6.94 1 10 C-0.65 10 -2.3 10 -4 10 C-5.4783226 7.04335481 -5.06032783 4.25770263 -5 1 C-4.67 1 -4.34 1 -4 1 C-4 2.65 -4 4.3 -4 6 C-2.68 4.02 -1.36 2.04 0 0 Z " fill="#304274" transform="translate(131,97)"/>
<path d="M0 0 C1.98 0 3.96 0 6 0 C6.33 0.99 6.66 1.98 7 3 C7.66 3.33 8.32 3.66 9 4 C9 3.34 9 2.68 9 2 C9.66 2 10.32 2 11 2 C11.16702456 6.34263862 11.12999997 9.20960634 9 13 C8.52820313 11.95199219 8.52820313 11.95199219 8.046875 10.8828125 C7.61890625 9.97273438 7.1909375 9.06265625 6.75 8.125 C6.33234375 7.22007813 5.9146875 6.31515625 5.484375 5.3828125 C3.87558308 2.80027811 2.80780672 2.04392814 0 1 C0 0.67 0 0.34 0 0 Z " fill="#1E2D5E" transform="translate(91,85)"/>
<path d="M0 0 C1.77503906 0.03480469 1.77503906 0.03480469 3.5859375 0.0703125 C5.36871094 0.09738281 5.36871094 0.09738281 7.1875 0.125 C8.10273437 0.14820312 9.01796875 0.17140625 9.9609375 0.1953125 C9.9609375 0.8553125 9.9609375 1.5153125 9.9609375 2.1953125 C10.9509375 1.8653125 11.9409375 1.5353125 12.9609375 1.1953125 C13.2909375 2.1853125 13.6209375 3.1753125 13.9609375 4.1953125 C13.3009375 4.1953125 12.6409375 4.1953125 11.9609375 4.1953125 C11.9609375 4.8553125 11.9609375 5.5153125 11.9609375 6.1953125 C8.99918627 5.58253638 7.58034967 4.94158728 4.9609375 3.1953125 C2.45197064 2.73929989 2.45197064 2.73929989 -0.2265625 2.5703125 C-1.12761719 2.49554688 -2.02867188 2.42078125 -2.95703125 2.34375 C-3.64410156 2.29476562 -4.33117187 2.24578125 -5.0390625 2.1953125 C-3.0390625 0.1953125 -3.0390625 0.1953125 0 0 Z " fill="#262F47" transform="translate(28.0390625,81.8046875)"/>
<path d="M0 0 C-0.33 1.65 -0.66 3.3 -1 5 C-4.82320557 6.42258812 -7.91281305 7.24042276 -12 7 C-8.8380314 3.47318887 -4.98182478 0 0 0 Z " fill="#0B2C60" transform="translate(29,97)"/>
<path d="M0 0 C2 3 2 3 1.6875 5.625 C1 8 1 8 0 9 C-1.99958364 9.04080783 -4.00045254 9.04254356 -6 9 C-6 6.36 -6 3.72 -6 1 C-5.67 1 -5.34 1 -5 1 C-5 2.98 -5 4.96 -5 7 C-4.34 7 -3.68 7 -3 7 C-2.67 6.34 -2.34 5.68 -2 5 C-1.34 5.33 -0.68 5.66 0 6 C0 4.02 0 2.04 0 0 Z " fill="#23305F" transform="translate(88,98)"/>
<path d="M0 0 C0.33 0 0.66 0 1 0 C1 3.63 1 7.26 1 11 C0.01 11.495 0.01 11.495 -1 12 C-1 10.68 -1 9.36 -1 8 C-4.3 8 -7.6 8 -11 8 C-10.67 7.01 -10.34 6.02 -10 5 C-10 5.66 -10 6.32 -10 7 C-6.7 6.67 -3.4 6.34 0 6 C0 4.02 0 2.04 0 0 Z " fill="#4B5A7B" transform="translate(118,99)"/>
<path d="M0 0 C6.625 -0.25 6.625 -0.25 10 2 C6.5647952 4.29013653 5.014669 4.17842973 1 4 C0.67 2.68 0.34 1.36 0 0 Z " fill="#17285C" transform="translate(62,92)"/>
<path d="M0 0 C2 2 2 2 2 6 C4.97 6.33 7.94 6.66 11 7 C11 7.33 11 7.66 11 8 C9.9275 8.144375 8.855 8.28875 7.75 8.4375 C3.93354093 8.94865662 3.93354093 8.94865662 0 10 C0 6.7 0 3.4 0 0 Z " fill="#1B2B5E" transform="translate(166,106)"/>
<path d="M0 0 C3.465 1.485 3.465 1.485 7 3 C6.67 3.99 6.34 4.98 6 6 C4.02 6 2.04 6 0 6 C0 4.02 0 2.04 0 0 Z " fill="#232E5E" transform="translate(173,101)"/>
<path d="M0 0 C-2.77280706 3.08089673 -5.06326356 4.68775452 -9 6 C-9 5.34 -9 4.68 -9 4 C-9.66 3.67 -10.32 3.34 -11 3 C-7.16674383 0.29417212 -4.67461851 -0.32613618 0 0 Z " fill="#22332F" transform="translate(31,87)"/>
<path d="M0 0 C3.96 0 7.92 0 12 0 C13 3 13 3 12 7 C9.03 6.67 6.06 6.34 3 6 C3 5.67 3 5.34 3 5 C6.465 4.505 6.465 4.505 10 4 C9.67 3.34 9.34 2.68 9 2 C6.87423218 1.53348793 6.87423218 1.53348793 4.4375 1.375 C3.61121094 1.30023438 2.78492188 1.22546875 1.93359375 1.1484375 C1.29550781 1.09945312 0.65742188 1.05046875 0 1 C0 0.67 0 0.34 0 0 Z " fill="#D6DFEF" transform="translate(128,86)"/>
<path d="M0 0 C2.64 0 5.28 0 8 0 C4.25 2 4.25 2 2 2 C1.5978125 3.1446875 1.5978125 3.1446875 1.1875 4.3125 C0.05575888 6.87380884 -0.91223401 8.19692938 -3 10 C-2.49287967 6.28111761 -1.88391785 3.26545761 0 0 Z " fill="#37352D" transform="translate(32,90)"/>
<path d="M0 0 C0.66 0.66 1.32 1.32 2 2 C1.38125 2.78375 0.7625 3.5675 0.125 4.375 C-2.6882496 8.52504196 -3.26744459 13.12272322 -4 18 C-4.33 18 -4.66 18 -5 18 C-5.33266291 11.79029227 -4.45029331 7.71735105 -2 2 C-1.34 2 -0.68 2 0 2 C0 1.34 0 0.68 0 0 Z " fill="#172756" transform="translate(122,87)"/>
<path d="M0 0 C1.98 0 3.96 0 6 0 C6.33 1.98 6.66 3.96 7 6 C6.34 6 5.68 6 5 6 C5 5.01 5 4.02 5 3 C3.02 3.99 3.02 3.99 1 5 C0.67 3.35 0.34 1.7 0 0 Z " fill="#F4AB23" transform="translate(35,93)"/>
<path d="M0 0 C1.32 1.65 2.64 3.3 4 5 C3.01 5 2.02 5 1 5 C-0.02019573 5.9793879 -1.02149805 6.97895449 -2 8 C-2.66 8 -3.32 8 -4 8 C-3.50168276 4.31245243 -2.89932357 2.39509338 0 0 Z " fill="#E6EEF3" transform="translate(174,87)"/>
<path d="M0 0 C1.62463842 -0.05395478 3.24978541 -0.09277195 4.875 -0.125 C5.77992187 -0.14820312 6.68484375 -0.17140625 7.6171875 -0.1953125 C10 0 10 0 12 2 C8.04 2.66 4.08 3.32 0 4 C0 2.68 0 1.36 0 0 Z " fill="#F7B144" transform="translate(29,104)"/>
<path d="M0 0 C0.33 0.66 0.66 1.32 1 2 C1.99 2 2.98 2 4 2 C3.34 3.32 2.68 4.64 2 6 C1.34 6 0.68 6 0 6 C-0.33 6.66 -0.66 7.32 -1 8 C-2 7 -2 7 -2.1875 4.5625 C-2 2 -2 2 0 0 Z " fill="#1F71AC" transform="translate(15,98)"/>
<path d="M0 0 C3.3 0.33 6.6 0.66 10 1 C9.67 1.66 9.34 2.32 9 3 C5.7 3 2.4 3 -1 3 C-0.67 2.01 -0.34 1.02 0 0 Z " fill="#EF7261" transform="translate(24,110)"/>
<path d="M0 0 C0 0.66 0 1.32 0 2 C-1.60256108 2.50512244 -3.20711792 3.00391627 -4.8125 3.5 C-6.15248047 3.91765625 -6.15248047 3.91765625 -7.51953125 4.34375 C-10 5 -10 5 -13 5 C-9.5464929 0.77904688 -5.26785261 0 0 0 Z " fill="#132559" transform="translate(90,83)"/>
<path d="M0 0 C0.33 0 0.66 0 1 0 C1 2.97 1 5.94 1 9 C-0.32 9 -1.64 9 -3 9 C-2.01 6.03 -1.02 3.06 0 0 Z " fill="#343A64" transform="translate(155,93)"/>
<path d="M0 0 C0.99 0.33 1.98 0.66 3 1 C3.33 1.99 3.66 2.98 4 4 C2.625 5.5 2.625 5.5 1 7 C0.34 7 -0.32 7 -1 7 C-1.625 4.625 -1.625 4.625 -2 2 C-1.34 1.34 -0.68 0.68 0 0 Z " fill="#FDFCFB" transform="translate(59,94)"/>
<path d="M0 0 C1 3 1 3 0.25 5.5 C-0.93511657 7.87023314 -2.01292881 9.28389306 -4 11 C-3.56179109 6.44262737 -3.14958831 3.42346555 0 0 Z " fill="#A9596B" transform="translate(17,87)"/>
<path d="M0 0 C0.66 0.33 1.32 0.66 2 1 C2.49230769 7.4 2.49230769 7.4 0 10.4375 C-0.99 11.2109375 -0.99 11.2109375 -2 12 C-2.33 11.01 -2.66 10.02 -3 9 C-2.505 8.62875 -2.01 8.2575 -1.5 7.875 C0.59755514 5.25305607 0.21743835 3.26157528 0 0 Z " fill="#DBE5F1" transform="translate(185,99)"/>
<path d="M0 0 C0.33 0 0.66 0 1 0 C1 2.64 1 5.28 1 8 C-0.65 8 -2.3 8 -4 8 C-4 7.01 -4 6.02 -4 5 C-2.68 4.67 -1.36 4.34 0 4 C0 2.68 0 1.36 0 0 Z " fill="#17275A" transform="translate(131,99)"/>
<path d="M0 0 C0.33 0.66 0.66 1.32 1 2 C2.32 1.67 3.64 1.34 5 1 C5.33 1.66 5.66 2.32 6 3 C5.34 3 4.68 3 4 3 C4.33 4.98 4.66 6.96 5 9 C4.01 8.67 3.02 8.34 2 8 C0.5522078 5.10441559 0 3.25811062 0 0 Z " fill="#1A2E6C" transform="translate(50,97)"/>
<path d="M0 0 C0.33 0.66 0.66 1.32 1 2 C3.64 2 6.28 2 9 2 C7.9375 3.5625 7.9375 3.5625 6 5 C2.3125 4.6875 2.3125 4.6875 -1 4 C-0.67 2.68 -0.34 1.36 0 0 Z " fill="#5AA062" transform="translate(21,93)"/>
<path d="M0 0 C1.32 0.66 2.64 1.32 4 2 C4 2.99 4 3.98 4 5 C1.36 5 -1.28 5 -4 5 C-3.525625 4.54625 -3.05125 4.0925 -2.5625 3.625 C-0.90972192 2.06741796 -0.90972192 2.06741796 0 0 Z " fill="#28355F" transform="translate(60,102)"/>
<path d="M0 0 C2 3 2 3 2 5 C-0.31 5 -2.62 5 -5 5 C-5 4.01 -5 3.02 -5 2 C-3.35 1.34 -1.7 0.68 0 0 Z " fill="#162963" transform="translate(183,81)"/>
<path d="M0 0 C-0.66 1.32 -1.32 2.64 -2 4 C-6.875 2.25 -6.875 2.25 -8 0 C-2.25 -1.125 -2.25 -1.125 0 0 Z " fill="#C7707C" transform="translate(25,110)"/>
<path d="M0 0 C0.33 0.99 0.66 1.98 1 3 C-0.875 6.1875 -0.875 6.1875 -3 9 C-3.33 9 -3.66 9 -4 9 C-4 7.02 -4 5.04 -4 3 C-3.01 2.67 -2.02 2.34 -1 2 C-0.67 1.34 -0.34 0.68 0 0 Z " fill="#302943" transform="translate(28,100)"/>
<path d="M0 0 C2.97 0.495 2.97 0.495 6 1 C2.7321794 3.17854707 -0.38058265 4.49760034 -4 6 C-4 5.01 -4 4.02 -4 3 C-3.01 3 -2.02 3 -1 3 C-0.67 2.01 -0.34 1.02 0 0 Z " fill="#172759" transform="translate(60,83)"/>
<path d="M0 0 C2.97 0 5.94 0 9 0 C9 0.33 9 0.66 9 1 C7.88625 1.103125 6.7725 1.20625 5.625 1.3125 C4.42875 1.539375 3.2325 1.76625 2 2 C1.01 3.485 1.01 3.485 0 5 C-0.66 5 -1.32 5 -2 5 C-1.34 3.35 -0.68 1.7 0 0 Z " fill="#C2CDDD" transform="translate(152,86)"/>
<path d="M0 0 C2.97 0.495 2.97 0.495 6 1 C3.6875 3.0625 3.6875 3.0625 1 5 C0.01 4.67 -0.98 4.34 -2 4 C-1.34 2.68 -0.68 1.36 0 0 Z " fill="#CB8C5C" transform="translate(19,86)"/>
<path d="M0 0 C0.33 0.66 0.66 1.32 1 2 C0.07767578 2.09087891 0.07767578 2.09087891 -0.86328125 2.18359375 C-1.67152344 2.26738281 -2.47976562 2.35117188 -3.3125 2.4375 C-4.11300781 2.51871094 -4.91351563 2.59992188 -5.73828125 2.68359375 C-8.16087179 2.95265693 -8.16087179 2.95265693 -11 4 C-11.33 3.01 -11.66 2.02 -12 1 C-6.06 0.505 -6.06 0.505 0 0 Z " fill="#24305E" transform="translate(136,84)"/>
<path d="M0 0 C2 3 2 3 2 5 C0.02 5 -1.96 5 -4 5 C-2.68 3.35 -1.36 1.7 0 0 Z " fill="#FCFDF9" transform="translate(146,106)"/>
<path d="M0 0 C0.66 0 1.32 0 2 0 C1.67 2.64 1.34 5.28 1 8 C0.34 7.67 -0.32 7.34 -1 7 C-1.04254356 5.00045254 -1.04080783 2.99958364 -1 1 C-0.67 0.67 -0.34 0.34 0 0 Z " fill="#D6DFED" transform="translate(55,91)"/>
<path d="M0 0 C2.375 0.3125 2.375 0.3125 5 1 C5.66 1.99 6.32 2.98 7 4 C5.35 4 3.7 4 2 4 C1.34 2.68 0.68 1.36 0 0 Z " fill="#1E2F67" transform="translate(68,83)"/>
</svg>
