<?xml version="1.0" encoding="iso-8859-1"?>
<!-- Generator: Adobe Illustrator 21.0.0, SVG Export Plug-In . SVG Version: 6.00 Build 0)  -->
<svg version="1.1" id="Capa_1" xmlns="http://www.w3.org/2000/svg" xmlns:xlink="http://www.w3.org/1999/xlink" x="0px" y="0px"
	 viewBox="0 0 269.48 268.84" style="enable-background:new 0 0 269.48 268.84;" xml:space="preserve">
<g>
	<path style="fill:#009045;" d="M42.96,42.91C66.45,19.49,98.9,5,134.74,5c35.84,0,68.29,14.49,91.78,37.91
		c19.05,18.99,32.2,43.85,36.5,71.62c-13.54-14.79-24.25-31.49-22.73-50.67c0.05-1.17-1.01-1.85-2.01-1.17
		c-7.31,5.08-12.43,13.53-14.02,22.99c-10.21-6.56-22.12-7.45-31.96-3.44c10.11,7.08,18.89,16.01,25.82,26.26l0,0
		c18.56-6.43,31,11.17,45.24,8.35c0.47,3.48,0.81,7.01,1,10.57c-15.69-0.18-22.94-14.21-41.48-10.94c1.96,3.54,3.76,7.24,5.24,11.09
		c14.79-1.66,21.57,10.54,36.36,10.85c-0.1,3.25-0.32,6.46-0.65,9.65c-12.43-0.01-18.21-11.25-32.37-10.62
		c0.9,3.27,1.69,6.66,2.22,10.09c11.7-0.05,17.04,9.96,28.74,10.31c-0.66,3.6-1.47,7.15-2.43,10.64
		c-8.96-1.02-13.35-10.04-25.04-9.76c0.11,1.85,0.15,3.7,0.15,5.6c0,1.06,0,2.11-0.05,3.12c9.99-0.1,13.91,8.19,22.31,9.5
		c-1.21,3.45-2.55,6.83-4.03,10.14c-5.77-2.09-9.02-9.51-19.18-8.81c-0.37,2.48-0.79,4.97-1.32,7.4c8.82-0.6,11.57,6.44,16.97,8.67
		c-1.64,3.12-3.4,6.16-5.28,9.12c-3.58-2.88-7.29-7.98-14.23-8.34c0.79-2.53,1.53-5.18,2.17-7.76c-7.19,0-15.4-2.8-22.27-9.09
		c2.22-12.68-17.46-25.58-17.46-34.87c0-10.09,5.13-15.64,5.13-29.27c0-10.04-4.92-21.03-12.33-28.48
		c-1.43-1.48-2.91-2.64-4.61-3.71c6.83,8.4,12.01,18.39,12.01,29.91c0,12.79-5.92,19.55-5.92,31.39c0,11.78,17.3,22.03,17.3,34.18
		c0,4.81-1.53,9.52-6.61,18.71c7.77,7.77,17.88,11.99,24.44,11.99c2.12,0,3.23-0.69,4.03-2.32c0.64-1.43,1.27-2.91,1.85-4.33
		c6.05,0.22,9.28,4.98,12.52,7.92c-2,2.81-4.12,5.53-6.34,8.16c-2.46-2.85-5.68-6.51-10.04-7.68c-0.9,1.8-1.85,3.54-2.91,5.28
		c3.79,0.99,6.54,4.4,8.72,7.19c-1.12,1.21-2.27,2.4-3.44,3.56c-5.52,5.5-11.52,10.5-17.95,14.95c-2.72-12.83-19.79-22.02-15-37.22
		c-1.64,2.75-3.6,6.24-3.6,10.41c0,10.96,11.23,19.74,12.96,30.48c-2.49,1.54-5.04,3-7.65,4.37c-1.15-12.09-13.2-25.19-13.2-35.11
		c0-11.41,14.98-22.88,14.98-36.36c0-13.42-17.31-22.77-17.31-34.61c0-11.83,7.36-18.65,7.36-33.76c0-11.1-5.29-22.35-13.44-29.54
		c-1.43-1.27-2.86-2.27-4.55-3.17c7.67,9.2,12.11,17.59,12.11,30.28c0,14.26-8.41,22.14-8.41,36.08c0,13.95,16.93,21.72,16.93,34.71
		c0,13.05-15.76,23.99-15.76,37.36c0,11.84,13.21,23.68,14.08,37.62c-16.27,7.32-34.33,11.4-53.34,11.4
		c-19.01,0-37.07-4.07-53.34-11.4c0.87-13.94,14.08-25.79,14.08-37.63c0-13.37-15.77-24.31-15.77-37.36
		c0-12.99,16.93-20.76,16.93-34.71c0-13.95-8.41-21.82-8.41-36.08c0-12.69,4.44-21.08,12.17-30.28c-1.75,0.9-3.12,1.9-4.61,3.17
		c-8.15,7.19-13.44,18.44-13.44,29.54c0,15.11,7.36,21.93,7.36,33.76c0,11.83-17.24,21.19-17.24,34.61
		c0,13.48,14.97,24.94,14.97,36.36c0,9.92-12.1,23.02-13.26,35.11c-2.6-1.37-5.15-2.83-7.64-4.36
		c1.72-10.75,12.95-19.52,12.95-30.48c0-4.17-1.95-7.66-3.6-10.41c4.85,15.2-12.26,24.39-14.99,37.22c-3.2-2.21-6.29-4.55-9.26-7.03
		c1.44-2.23,3.34-4.62,5.47-6.04c-1.22-1.43-2.33-2.91-3.44-4.39c-2.5,1.52-4.81,4.16-6.49,6.54c-1.44-1.31-2.85-2.66-4.24-4.04
		c-1.17-1.16-2.31-2.35-3.43-3.56c2.18-2.79,4.97-6.2,8.71-7.19c-1.01-1.74-2.01-3.49-2.91-5.28c-4.37,1.17-7.56,4.84-10.04,7.69
		c-2.22-2.63-4.33-5.36-6.34-8.16c3.28-2.94,6.51-7.7,12.57-7.93c0.58,1.42,1.16,2.9,1.85,4.33c0.74,1.64,1.85,2.32,4.02,2.32
		c6.51,0,16.61-4.22,24.39-11.99c-5.03-9.19-6.56-13.9-6.56-18.71c0-12.15,17.3-22.4,17.3-34.18c0-11.83-5.98-18.6-5.98-31.39
		c0-11.52,5.24-21.5,12.01-29.91c-1.69,1.06-3.17,2.23-4.61,3.71c-7.35,7.45-12.27,18.44-12.27,28.48c0,13.63,5.08,19.18,5.08,29.27
		c0,9.3-19.68,22.19-17.45,34.87c-6.88,6.28-15.08,9.09-22.28,9.09c0.63,2.59,1.38,5.23,2.17,7.76c-6.9,0.36-10.61,5.48-14.23,8.35
		c-1.88-2.96-3.65-6.01-5.29-9.13c5.4-2.24,8.15-9.28,16.97-8.67c-0.53-2.43-0.95-4.92-1.32-7.4c-10.11-0.7-13.39,6.72-19.18,8.82
		c-1.48-3.31-2.83-6.69-4.03-10.14c8.4-1.31,12.31-9.6,22.31-9.5c-0.05-1.01-0.05-2.06-0.05-3.12c0-1.9,0.05-3.75,0.16-5.6
		c-11.7-0.29-16.09,8.74-25.05,9.76c-0.95-3.49-1.76-7.04-2.43-10.64c11.7-0.35,17.04-10.37,28.74-10.31
		c0.58-3.44,1.32-6.82,2.28-10.09c-14.23-0.63-19.96,10.64-32.43,10.62c-0.33-3.18-0.55-6.4-0.65-9.65
		c14.78-0.29,21.56-12.51,36.36-10.86c1.53-3.85,3.28-7.56,5.24-11.09c-18.55-3.27-25.8,10.78-41.48,10.94
		c0.19-3.57,0.53-7.1,1-10.58c14.21,2.87,26.65-14.78,45.29-8.34c6.88-10.25,15.66-19.18,25.82-26.26l0,0
		c-9.85-4.01-21.8-3.12-31.96,3.44c-1.59-9.46-6.72-17.91-14.07-22.99c-1.01-0.68-2.06,0-1.96,1.17
		c1.47,19.21-9.22,35.93-22.79,50.74C10.74,86.79,23.9,61.91,42.96,42.91L42.96,42.91z M127.89,117.6c0.65-0.99,2.85-1.84,4.01-1.84
		c1.06,0,1.72,0.54,2.83,0.54c1.13,0,1.82-0.54,2.89-0.54c1.16,0,3.4,0.84,3.99,1.88l0.14,0.24l-0.04,0.28
		c-0.08,0.58-0.26,1.03-0.68,1.45l-0.19,0.19l-0.27,0.04c-2.18,0.34-3.27,1.57-5.85,1.57c-2.58,0-3.67-1.23-5.84-1.57l-0.3-0.05
		l-0.2-0.23c-0.35-0.42-0.56-0.86-0.63-1.4l-0.04-0.3L127.89,117.6L127.89,117.6z M125.96,123.94c2.67,0.64,6.03,0.81,8.75,0.81
		c2.76,0,6.09-0.18,8.81-0.81l0.25-0.06l0.24,0.09c0.58,0.23,1.11,0.74,1.31,1.34l0.18,0.55l-0.46,0.36
		c-1.35,1.04-2.51,2.75-3.78,3.96c-1.88,1.79-3.92,2.75-6.54,2.75c-2.62,0-4.65-0.96-6.52-2.75c-1.26-1.21-2.42-2.93-3.76-3.96
		l-0.43-0.33l0.13-0.52c0.16-0.65,0.74-1.21,1.37-1.42l0.22-0.07L125.96,123.94L125.96,123.94z M90.57,256.11
		c3.39,1.19,6.85,2.24,10.36,3.16c-1.85-15.14,13.39-29.66,13.39-42.77c0-14.48-16.88-25.37-16.88-39.05
		c0-13.63,15.77-18.38,15.77-34.97c0-14.11-11.74-25.89-11.74-40.47c0-11.78,3.39-19.82,9.73-27.69c0.58-0.74-0.11-1.48-0.95-0.9
		c-0.21,0.16-0.37,0.32-0.59,0.48c-8.94,6.87-15.08,18.02-15.08,30.44c0,15.85,10.21,23.83,10.21,38.2
		c0,14.43-16.61,20.93-16.61,34.92c0,14.06,16.35,25.21,16.35,38.21C104.53,227.25,89.64,241.86,90.57,256.11L90.57,256.11z
		 M110.68,261.42c7.8,1.42,15.85,2.16,24.06,2.16c8.21,0,16.26-0.74,24.06-2.16c2.31-18.74-12.79-32.37-12.79-44.71
		c0-13.69,17.46-25.89,17.46-39.26c0-12.57-12.54-16.69-14.18-29.58c-0.21-1.75-1.64-3.06-3.6-2.75c-2.54,0.47-5.82,2.16-10.95,2.16
		c-5.13,0-8.36-1.69-10.95-2.16c-1.9-0.32-3.33,1-3.6,2.75c-1.64,12.89-14.18,17.01-14.18,29.58c0,13.37,17.51,25.58,17.51,39.26
		C123.53,229.06,108.38,242.68,110.68,261.42L110.68,261.42z M168.55,259.27c3.51-0.92,6.97-1.97,10.36-3.16
		c0.93-14.24-13.96-28.86-13.96-40.45c0-13,16.35-24.15,16.35-38.21c0-13.99-16.62-20.5-16.62-34.92c0-14.37,10.21-22.35,10.21-38.2
		c0-12.42-6.14-23.57-15.08-30.44c-0.21-0.16-0.37-0.32-0.58-0.48c-0.85-0.58-1.54,0.16-0.9,0.9c6.3,7.87,9.68,15.91,9.68,27.69
		c0,14.58-11.69,26.37-11.69,40.47c0,16.59,15.71,21.34,15.71,34.97c0,13.69-16.88,24.58-16.88,39.05
		C155.16,229.61,170.4,244.13,168.55,259.27L168.55,259.27z M134.74,70.14L134.74,70.14c-12.43,0-22.8,6.97-25.55,16.07
		c-0.21,0.68,0.11,1.16,0.9,0.79c2.22-1,4.77-1.48,7.52-1.48c5.08,0,9.52,1.85,12.17,5.07c1.16,3.86,1.27,9.4-0.05,12.63
		c-2.07-0.47-2.81-2.11-4.87-2.11c-2.01,0-3.6,1.43-7.03,1.43c-3.49,0-3.87-1.59-6.14-1.59c-2.7,0-3.17,2.76-3.17,5.82
		c0,13.84,12.7,32.86,26.24,32.86c13.55,0,26.24-19.02,26.24-32.86c0-3.06-0.63-5.76-3.39-6.14c-1.42,1.01-2.69,1.91-5.88,1.91
		c-3.49,0-4.44-1.43-6.45-1.43c-2.43,0-2.22,5.18-5.13,5.49c-1.95-4.7-2.06-10.67-0.42-16.01c2.65-3.22,7.09-5.07,12.17-5.07
		c2.75,0,5.35,0.48,7.57,1.48c0.79,0.37,1.06-0.11,0.85-0.79C157.6,77.11,147.17,70.14,134.74,70.14L134.74,70.14z M154.53,89.95
		L154.53,89.95c-2.96,0-6.45,0.9-8.67,3.38c-0.21,0.63-0.21,1.64,0.11,2.28c5.39-1.85,10.16-1.9,12.48,0.68
		c1.22-1.11,1.59-2.11,1.59-3.27C160.03,91.22,158.23,89.95,154.53,89.95L154.53,89.95z M111.09,96.29L111.09,96.29
		c2.6-2.64,8.1-2.54,13.81-0.42c0.21-2.8-4.87-5.92-9.95-5.92c-3.65,0-5.51,1.27-5.51,3.06C109.45,94.18,109.87,95.18,111.09,96.29
		L111.09,96.29z M196.7,49.48L196.7,49.48c-9.79,0.69-18.36,4.07-25.23,9.67c2.96-8.3,6.66-15.54,11.38-22.56
		c-12.49,1.32-22.96,5.86-30.59,13.69l-5.92-15.64l13.23-11.68l-17.72-1.21l-7.09-16.49l-7.09,16.49l-17.72,1.21l13.28,11.68
		l-5.98,15.64c-7.62-7.83-18.04-12.37-30.52-13.69c4.66,7.02,8.41,14.26,11.32,22.56c-6.88-5.6-15.4-8.98-25.23-9.67
		c5.92,7.56,11.11,15.59,14.97,24.25c0.42,1.01,1.37,1.32,2.38,0.8c13.44-6.66,28.57-10.41,44.6-10.41
		c16.03,0,31.16,3.75,44.6,10.41c1.01,0.53,1.96,0.21,2.38-0.8C185.59,65.06,190.82,57.03,196.7,49.48L196.7,49.48z"/>
	
		<polygon style="fill-rule:evenodd;clip-rule:evenodd;fill:#009045;stroke:#009045;stroke-width:0.216;stroke-miterlimit:22.9256;" points="
		234.3,244.73 229.98,244.73 229.98,243.28 240.29,243.28 240.29,244.73 236.01,244.73 236.01,256.29 234.3,256.29 234.3,244.73 	
		"/>
	
		<polygon style="fill-rule:evenodd;clip-rule:evenodd;fill:#009045;stroke:#009045;stroke-width:0.216;stroke-miterlimit:22.9256;" points="
		241.92,243.28 244.34,243.28 248.44,254.18 252.5,243.28 254.82,243.28 254.82,256.29 253.22,256.29 253.22,245.46 253.16,245.46 
		249.19,256.29 247.74,256.29 243.65,245.46 243.6,245.46 243.6,256.29 241.92,256.29 241.92,243.28 	"/>
</g>
</svg>
