<?xml version="1.0" encoding="UTF-8"?>
<svg version="1.1" xmlns="http://www.w3.org/2000/svg" width="960" height="960">
<path d="M0 0 C0.54333984 0.41717285 1.08667969 0.8343457 1.64648438 1.26416016 C10.68523425 8.21843208 19.45068848 15.45207197 28 23 C28.50257324 23.44327637 29.00514648 23.88655273 29.52294922 24.34326172 C37.41668391 31.35787978 44.89839217 38.79719711 52.375 46.25 C52.84953613 46.7218573 53.32407227 47.1937146 53.81298828 47.67987061 C59.43353607 53.27632616 64.86718565 58.95305427 70 65 C70.87709454 66.00955757 71.75466512 67.01870185 72.6328125 68.02734375 C80.10865089 76.75696695 87.12409985 85.79229046 94 95 C94.53915039 95.71816895 95.07830078 96.43633789 95.63378906 97.17626953 C104.48981341 109.01714154 112.44358712 121.29403168 120 134 C120.50917969 134.85464844 121.01835938 135.70929688 121.54296875 136.58984375 C171.93557545 221.70023604 193.41645738 321.20720808 172 496 C169.57566476 505.07551473 166.85533056 514.05171566 164 523 C163.66129883 524.06541016 163.32259766 525.13082031 162.97363281 526.22851562 C149.43091026 568.28426372 129.46489231 608.86816879 104 645 C103.51499023 645.69319336 103.02998047 646.38638672 102.53027344 647.10058594 C95.22968413 657.49949628 87.54176327 667.4947311 79.42675781 677.26904297 C78.17142258 678.79202839 76.93926912 680.33405915 75.7109375 681.87890625 C65.88378762 694.22725376 54.68688833 705.39490217 43.5625 716.5625 C42.73451904 717.39515381 41.90653809 718.22780762 41.0534668 719.08569336 C36.19628093 723.9301628 31.21621988 728.54626128 26 733 C24.87037157 733.98484935 23.74143742 734.97049575 22.61328125 735.95703125 C14.9556553 742.60074353 7.1449286 748.96091832 -1 755 C-1.67546875 755.50144531 -2.3509375 756.00289062 -3.046875 756.51953125 C-71.95944033 807.46029447 -151.89544496 838.68428804 -237 848 C-238.01175293 848.11714355 -239.02350586 848.23428711 -240.06591797 848.35498047 C-271.75694554 851.90906505 -305.3380605 851.71447829 -337 848 C-338.29599121 847.84934082 -339.59198242 847.69868164 -340.92724609 847.54345703 C-415.58889852 838.63865513 -489.02078288 813.04333307 -551 770 C-551.63470215 769.56220215 -552.2694043 769.1244043 -552.92333984 768.67333984 C-562.89532032 761.78365027 -572.56897347 754.61197714 -582 747 C-582.97710938 746.21753906 -583.95421875 745.43507813 -584.9609375 744.62890625 C-590.25743481 740.34868363 -595.39190364 735.93069404 -600.41796875 731.3359375 C-601.8041688 730.08185637 -603.19621631 728.83344807 -604.62133789 727.6237793 C-610.83256613 722.32742729 -616.5700462 716.58152458 -622.32739258 710.80297852 C-624.058947 709.066064 -625.79578359 707.33456111 -627.53320312 705.60351562 C-633.23483687 699.90566033 -638.80959626 694.17459264 -644 688 C-644.91213305 686.94346847 -645.82486662 685.887455 -646.73828125 684.83203125 C-653.07162635 677.40308472 -659.16481313 669.82779202 -665 662 C-665.48694336 661.34966797 -665.97388672 660.69933594 -666.47558594 660.02929688 C-683.50299257 637.19001202 -698.6493201 612.78509123 -710.98730469 587.09033203 C-712.06743962 584.86079604 -713.17725991 582.64749491 -714.2890625 580.43359375 C-739.46739974 529.70225671 -754.31921564 474.47047925 -758 418 C-758.08540039 416.79569336 -758.17080078 415.59138672 -758.25878906 414.35058594 C-760.47841547 380.95394402 -761.08373759 346.14249769 -756 313 C-755.79889595 311.63678071 -755.59823249 310.27349637 -755.39794922 308.91015625 C-749.21011348 267.31054417 -738.13311819 226.48083604 -721 188 C-720.52481934 186.92379395 -720.04963867 185.84758789 -719.56005859 184.73876953 C-712.25022734 168.28646248 -704.19996262 152.47239907 -695 137 C-694.51789063 136.18321777 -694.03578125 135.36643555 -693.5390625 134.52490234 C-680.02381747 111.69925889 -664.3869839 90.31065873 -647.1875 70.125 C-646.73826172 69.59632324 -646.28902344 69.06764648 -645.82617188 68.52294922 C-637.18063423 58.45347593 -628.04827925 48.86159839 -618.66601562 39.48071289 C-616.99578905 37.8082835 -615.33377621 36.12796331 -613.671875 34.44726562 C-607.83106039 28.57633761 -601.88414098 23.07129841 -595.39453125 17.90649414 C-593.39146571 16.31167983 -591.44865677 14.68379834 -589.53125 12.98828125 C-520.45720339 -48.08301174 -428.00517306 -84.10575101 -337 -94 C-335.64720947 -94.15662109 -335.64720947 -94.15662109 -334.26708984 -94.31640625 C-251.44161032 -103.59262512 -165.80083283 -88.31864071 0 0 Z " fill="#0E345E" transform="translate(766,103)"/>
<path d="M0 0 C16.29947439 14.17972559 29.61237243 30.41588197 39.97607422 49.40527344 C40.31977051 50.03224121 40.6634668 50.65920898 41.01757812 51.30517578 C63.34937968 92.60486134 68.45967479 141.58850433 55.28857422 186.71777344 C47.0184802 213.16977478 33.89367595 237.05373977 14.91357422 257.29199219 C12.90336415 259.43283322 12.90336415 259.43283322 10.94482422 261.97558594 C8.00794286 265.60007047 4.5295139 268.4021193 0.97607422 271.40527344 C0.12142578 272.159375 -0.73322266 272.91347656 -1.61376953 273.69042969 C-29.99641561 298.25757602 -69.56957055 315.66100986 -107.4296875 315.47167969 C-119.69424089 315.45619658 -126.14109042 317.56671456 -135.16064453 325.77880859 C-138.54216725 328.73055182 -142.23801003 331.25283304 -145.89892578 333.84277344 C-147.42821443 334.94474649 -148.95686106 336.04761106 -150.48486328 337.15136719 C-155.50998656 340.76203515 -160.56733589 344.32619613 -165.62890625 347.88549805 C-170.78936697 351.51951618 -175.91306973 355.20188204 -181.02392578 358.90527344 C-187.52451062 363.61568 -194.06256458 368.26824952 -200.62939453 372.88574219 C-205.78959298 376.5198191 -210.91321518 380.20198744 -216.02392578 383.90527344 C-221.82959138 388.11213267 -227.65914297 392.28122616 -233.52392578 396.40527344 C-241.63559844 402.11153871 -249.6783633 407.91008753 -257.70947266 413.72900391 C-261.70754905 416.62465712 -265.70959627 419.51481057 -269.71142578 422.40527344 C-270.44159912 422.93306396 -271.17177246 423.46085449 -271.92407227 424.00463867 C-273.3004776 424.99910704 -274.67795024 425.99210039 -276.05664062 426.98339844 C-277.38577726 427.94404522 -278.70891254 428.91304222 -280.02636719 429.88964844 C-284.80974039 433.40527344 -284.80974039 433.40527344 -287.02392578 433.40527344 C-287.00072266 434.48164062 -286.97751953 435.55800781 -286.95361328 436.66699219 C-286.81502579 445.78961898 -287.17593125 454.43235203 -289.02392578 463.40527344 C-289.25724609 464.61183594 -289.49056641 465.81839844 -289.73095703 467.06152344 C-294.69409356 489.72424731 -306.40702787 510.42495046 -322.02392578 527.40527344 C-322.81412109 528.27796875 -323.60431641 529.15066406 -324.41845703 530.04980469 C-341.10134466 547.61801969 -362.99670651 558.65404413 -386.02392578 565.40527344 C-387.25369141 565.76621094 -388.48345703 566.12714844 -389.75048828 566.49902344 C-421.96270836 574.07836934 -458.04216494 567.50485841 -486.02392578 550.40527344 C-494.71615245 544.86291183 -502.56973963 538.52816243 -510.02392578 531.40527344 C-510.74708984 530.756875 -511.47025391 530.10847656 -512.21533203 529.44042969 C-525.05789008 517.4708899 -533.12422236 502.3154882 -540.02392578 486.40527344 C-540.31178955 485.78056152 -540.59965332 485.15584961 -540.89624023 484.51220703 C-543.02590218 479.82012451 -543.80508281 475.3434552 -544.49658203 470.27246094 C-547.00639449 465.56094598 -551.23322934 464.39844289 -556.02392578 462.40527344 C-556.61694489 462.15618225 -557.20996399 461.90709106 -557.82095337 461.65045166 C-562.03978583 459.88410258 -566.27960413 458.17296496 -570.52731323 456.47741699 C-574.66428348 454.825248 -578.79510324 453.15782797 -582.92626953 451.49121094 C-583.77397415 451.14948853 -584.62167877 450.80776611 -585.49507141 450.45568848 C-593.84356096 447.08501031 -602.15592252 443.63025997 -610.46142578 440.15527344 C-613.44564337 438.90750076 -616.43002358 437.66011786 -619.41455078 436.41308594 C-620.17753983 436.09426453 -620.94052887 435.77544312 -621.72663879 435.44696045 C-631.70957262 431.27910057 -641.71117093 427.15635317 -651.71142578 423.03027344 C-663.38285781 418.21438239 -675.05350025 413.39672023 -686.71533203 408.55761719 C-687.65394577 408.16815918 -688.59255951 407.77870117 -689.55961609 407.37744141 C-694.00866912 405.53111827 -698.45732473 403.68384369 -702.90551758 401.83544922 C-703.71077377 401.50143097 -704.51602997 401.16741272 -705.34568787 400.82327271 C-706.88354309 400.18421461 -708.42034342 399.54261058 -709.95594788 398.89816284 C-713.9316604 397.23626441 -717.923574 395.73764002 -721.99267578 394.31542969 C-725.19785397 393.02722904 -725.87348481 392.62840648 -727.88330078 389.64746094 C-728.17720703 388.53628906 -728.47111328 387.42511719 -728.77392578 386.28027344 C-728.95181641 385.63614502 -729.12970703 384.9920166 -729.31298828 384.32836914 C-729.92831243 382.03012291 -730.47374426 379.71993975 -731.02392578 377.40527344 C-731.50711194 375.54689101 -731.99156212 373.68883693 -732.47705078 371.83105469 C-738.7740382 346.9108069 -742.34567721 321.04024961 -744.02392578 295.40527344 C-744.11150146 294.20531738 -744.19907715 293.00536133 -744.28930664 291.76904297 C-745.25231868 277.61414733 -745.13607424 263.46099805 -745.08642578 249.28027344 C-745.08139775 246.76074308 -745.07683716 244.24121175 -745.07275391 241.72167969 C-745.06185848 235.6161892 -745.04522492 229.51073605 -745.02392578 223.40527344 C-739.13746362 225.0924298 -733.4377042 226.92330451 -727.78955078 229.31152344 C-727.13055283 229.58822372 -726.47155487 229.86492401 -725.79258728 230.15000916 C-724.36661072 230.74933533 -722.94158011 231.35091639 -721.51742554 231.95455933 C-718.3831062 233.28277058 -715.24385319 234.59914211 -712.10490417 235.91636658 C-710.41051458 236.6274663 -708.71635617 237.33911713 -707.02241516 238.05128479 C-696.77037004 242.35929993 -686.49100565 246.60098619 -676.21142578 250.84277344 C-674.24405711 251.65510552 -672.27669058 252.46744277 -670.30932617 253.27978516 C-657.15340437 258.71015431 -643.98763409 264.11625566 -630.81707764 269.51101685 C-617.62257752 274.91638403 -604.44896952 280.37097194 -591.28149414 285.84179688 C-575.94522815 292.21204334 -560.58007246 298.51001751 -545.20068359 304.77539062 C-536.25264459 308.42427048 -527.32148632 312.1072458 -518.42236328 315.87402344 C-516.74438477 316.58219402 -515.06640625 317.29036459 -513.38842773 317.99853516 C-510.26282053 319.31835197 -507.14247281 320.64968932 -504.0246582 321.98779297 C-502.63005265 322.57787551 -501.23528677 323.16757934 -499.84033203 323.75683594 C-498.63836182 324.27068848 -497.4363916 324.78454102 -496.19799805 325.31396484 C-493.18091954 326.35129589 -491.17174004 326.73870626 -488.02392578 326.40527344 C-485.73901194 325.32968594 -485.73901194 325.32968594 -483.52392578 323.78027344 C-461.55113262 309.95762611 -437.57246599 305.46131714 -412.02392578 306.40527344 C-411.73509521 305.8094043 -411.44626465 305.21353516 -411.14868164 304.59960938 C-409.53856695 301.45836544 -407.55561055 298.57831765 -405.58642578 295.65527344 C-404.92054443 294.66237305 -404.92054443 294.66237305 -404.24121094 293.64941406 C-397.369652 283.42757875 -390.35229743 273.30725264 -383.31030273 263.20239258 C-375.36426915 251.80015352 -367.50558279 240.34182899 -359.68896484 228.85058594 C-352.94729231 218.94961935 -346.12301113 209.10715096 -339.27392578 199.28027344 C-332.02028533 188.87115291 -324.86397728 178.39804024 -317.72851562 167.90771484 C-315.63351898 164.83213255 -313.53230051 161.76092434 -311.4230957 158.69506836 C-310.50496505 157.35656172 -309.59217176 156.01437503 -308.68530273 154.66821289 C-306.83553017 151.93682254 -305.00967644 149.38904643 -302.82861328 146.90527344 C-296.9577899 140.05994091 -297.32248587 133.36235135 -297.17626953 124.74902344 C-296.35857347 81.82387405 -275.34081179 40.78590712 -246.02392578 10.40527344 C-245.18732422 9.50550781 -244.35072266 8.60574219 -243.48876953 7.67871094 C-179.11097543 -59.70920627 -69.07904279 -58.9534502 0 0 Z " fill="#FEFEFE" transform="translate(752.02392578125,225.5947265625)"/>
<path d="M0 0 C0.67272949 0.28407715 1.34545898 0.5681543 2.03857422 0.86083984 C12.10185272 5.2141221 20.68106081 10.89473041 29 18 C29.66257812 18.56074219 30.32515625 19.12148438 31.0078125 19.69921875 C41.05063755 28.97131536 48.07211405 41.39604871 53 54 C53.65162109 55.61455078 53.65162109 55.61455078 54.31640625 57.26171875 C61.60784651 79.13603952 58.17867526 104.90201192 48.3125 125.375 C44.41998984 132.93352658 39.50893376 139.55162886 34 146 C33.42765625 146.67417969 32.8553125 147.34835937 32.265625 148.04296875 C19.47919591 161.87383388 -2.22256167 173.06653805 -20.99169922 174.17700195 C-50.41629052 174.72125932 -50.41629052 174.72125932 -62 170 C-62.6791748 169.72623535 -63.35834961 169.4524707 -64.05810547 169.17041016 C-87.16726106 159.65548222 -105.01081581 142.93975944 -115.19335938 119.98730469 C-124.19659438 97.80621117 -125.16997671 73.09215704 -116.10693359 50.80371094 C-107.41414333 30.85052518 -93.77035474 15.77023897 -75 5 C-74.12472656 4.49726563 -73.24945312 3.99453125 -72.34765625 3.4765625 C-51.33352273 -7.76276337 -21.93646778 -9.52363723 0 0 Z " fill="#FEFEFE" transform="translate(667,277)"/>
<path d="M0 0 C2.06611834 1.63986509 4.09544 3.31411216 6.125 5 C7.35863281 6.00353516 7.35863281 6.00353516 8.6171875 7.02734375 C14.57148321 12.06480154 19.39582405 17.81636294 24.125 24 C24.73214844 24.79148437 25.33929687 25.58296875 25.96484375 26.3984375 C45.14654482 52.58298182 51.8378704 84.85645692 47.40649414 116.85180664 C42.22517951 147.32558546 24.03021708 175.88094561 -0.875 194 C-14.9015181 203.57821057 -29.48973477 209.81171453 -45.875 214 C-46.52090088 214.18763916 -47.16680176 214.37527832 -47.83227539 214.56860352 C-54.62588247 216.36896147 -61.47408587 216.33759881 -68.45678711 216.31567383 C-70.54139467 216.31253181 -72.62455309 216.33597727 -74.70898438 216.36132812 C-83.73644108 216.40353279 -92.11502135 215.27676477 -100.875 213 C-102.50429443 212.58077271 -102.50429443 212.58077271 -104.16650391 212.15307617 C-119.77063366 207.96066667 -134.4013604 200.2005987 -146.875 190 C-147.41817871 189.55849609 -147.96135742 189.11699219 -148.52099609 188.66210938 C-171.77518801 169.38588032 -187.58469499 140.65721678 -190.68017578 110.50634766 C-193.12473923 79.057866 -186.2423549 47.14439092 -165.58056641 22.453125 C-162.45455247 18.86148723 -159.17978882 15.42682681 -155.875 12 C-155.21886719 11.28070313 -154.56273437 10.56140625 -153.88671875 9.8203125 C-143.83014565 -0.90382755 -131.14893747 -8.03639698 -117.875 -14 C-116.80765625 -14.48339844 -115.7403125 -14.96679688 -114.640625 -15.46484375 C-77.79696088 -30.84754108 -31.60699128 -24.2357169 0 0 Z M-111.875 16 C-113.31939453 16.73669922 -113.31939453 16.73669922 -114.79296875 17.48828125 C-122.97834995 21.92511789 -129.33498091 27.47814763 -135.875 34 C-136.679375 34.78117187 -137.48375 35.56234375 -138.3125 36.3671875 C-147.53729206 45.88025431 -154.18989718 58.30686806 -157.875 71 C-158.17148437 71.92039062 -158.46796875 72.84078125 -158.7734375 73.7890625 C-164.9419507 95.69011394 -160.45641869 119.86041849 -150.43359375 139.87890625 C-139.0590795 159.68357819 -121.98542864 173.74158024 -100.875 182 C-99.32619141 182.62068359 -99.32619141 182.62068359 -97.74609375 183.25390625 C-80.77602908 188.89748512 -58.51714936 188.53508792 -41.875 182 C-40.69421875 181.56429687 -39.5134375 181.12859375 -38.296875 180.6796875 C-15.97268984 171.83699078 1.37195436 155.08911809 11.328125 133.2890625 C19.65579991 113.91970399 22.21834901 89.60589843 15.51953125 69.34375 C5.48822241 45.29108792 -9.75809102 25.26824617 -33.875 14 C-38.77351546 12.01375595 -43.80055473 10.47267366 -48.875 9 C-49.88820313 8.63390625 -50.90140625 8.2678125 -51.9453125 7.890625 C-71.00887052 2.52128187 -94.7031818 6.91801615 -111.875 16 Z " fill="#0B1E48" transform="translate(705.875,265)"/>
<path d="M0 0 C3.60260216 3.13444223 7.04449271 6.42141125 10.484375 9.73242188 C11.13148438 10.30476562 11.77859375 10.87710938 12.4453125 11.46679688 C29.154683 26.68566015 38.67310317 52.22637181 39.89453125 74.36523438 C40.727332 103.64021187 31.2747206 130.70802167 11.04003906 152.14550781 C-6.1810057 169.71248693 -31.30767933 181.50984145 -56.01171875 181.86523438 C-57.99218747 181.86786273 -59.97266967 181.86516307 -61.953125 181.85742188 C-62.93861328 181.86128906 -63.92410156 181.86515625 -64.93945312 181.86914062 C-74.18822112 181.85688248 -82.43388256 181.12845596 -91.203125 178.10742188 C-91.98059082 177.8416333 -92.75805664 177.57584473 -93.55908203 177.30200195 C-105.85105409 172.97247665 -116.40812344 167.01395942 -126.515625 158.73242188 C-127.73572266 157.74242187 -127.73572266 157.74242187 -128.98046875 156.73242188 C-138.48702019 148.6721663 -145.56676838 138.61756377 -151.515625 127.73242188 C-151.515625 127.07242188 -151.515625 126.41242188 -151.515625 125.73242188 C-148.02623685 126.33876774 -144.96288974 127.24736078 -141.70043945 128.6184082 C-140.77209793 129.00583694 -139.84375641 129.39326569 -138.88728333 129.79243469 C-137.89451889 130.21220078 -136.90175446 130.63196686 -135.87890625 131.06445312 C-134.84428757 131.49747238 -133.80966888 131.93049164 -132.74369812 132.37663269 C-129.43666597 133.76171927 -126.13233053 135.15310743 -122.828125 136.54492188 C-119.54122961 137.92469873 -116.25379063 139.30317083 -112.96611023 140.68107605 C-110.92306065 141.53786049 -108.88055624 142.39594652 -106.83869934 143.25556946 C-82.70999085 153.39888507 -60.58268005 157.97420169 -35.40722656 147.88769531 C-16.02435542 139.37883161 -3.16955972 123.44011197 4.5546875 104.04492188 C10.56315211 86.77787796 9.35351693 65.373669 1.75390625 48.87695312 C-5.93105608 33.13536574 -16.96359167 21.76438592 -32.6953125 13.97070312 C-33.38145126 13.62963531 -34.06759003 13.2885675 -34.77452087 12.93716431 C-43.36425918 8.73904498 -52.21584872 5.18190483 -61.078125 1.60742188 C-62.75739451 0.92440082 -64.43643178 0.2408085 -66.11523438 -0.44335938 C-75.5536755 -4.28724435 -75.5536755 -4.28724435 -85.03466797 -8.02441406 C-85.7345433 -8.29744354 -86.43441864 -8.57047302 -87.15550232 -8.85177612 C-89.04155156 -9.58558054 -90.93070561 -10.31139074 -92.82006836 -11.03662109 C-95.515625 -12.26757812 -95.515625 -12.26757812 -96.515625 -14.26757812 C-65.49706879 -26.45343949 -25.9778258 -21.72630019 0 0 Z " fill="#164679" transform="translate(395.515625,582.267578125)"/>
</svg>
