<?xml version="1.0" encoding="UTF-8"?>
<svg version="1.1" xmlns="http://www.w3.org/2000/svg" width="2400" height="1412">
<path d="M0 0 C792 0 1584 0 2400 0 C2400 465.96 2400 931.92 2400 1412 C1608 1412 816 1412 0 1412 C0 946.04 0 480.08 0 0 Z " fill="#008839" transform="translate(0,0)"/>
<path d="M0 0 C1.00756078 -0.01805002 1.00756078 -0.01805002 2.03547633 -0.03646469 C4.27395835 -0.07030737 6.5109487 -0.06870826 8.74966431 -0.06689453 C10.36005781 -0.08350357 11.97043147 -0.10214131 13.58078003 -0.12265015 C17.949204 -0.17103712 22.31715888 -0.18692341 26.68582487 -0.19392395 C29.42146754 -0.19970998 32.15699077 -0.21236541 34.8925972 -0.22741699 C44.45537326 -0.2796654 54.01780438 -0.30496788 63.58071899 -0.30615234 C72.46197346 -0.30798096 81.34145654 -0.36936092 90.22222173 -0.45878792 C97.86931205 -0.53303781 105.51582446 -0.56424735 113.1632725 -0.56303215 C117.72063652 -0.56306035 122.27632944 -0.57989868 126.83332443 -0.64056396 C161.76220746 -1.07511705 161.76220746 -1.07511705 172.20635986 8.73925781 C172.66949711 9.21787262 173.13263435 9.69648743 173.60980606 10.18960571 C175.79177074 12.38837745 178.20264998 14.27679772 180.61649132 16.21307373 C185.02818206 19.77735084 189.09353466 23.64656389 193.08413696 27.67529297 C194.30810181 28.81224609 194.30810181 28.81224609 195.55679321 29.97216797 C212.19443875 45.73150643 224.52277805 66.75927857 231.08413696 88.67529297 C231.37804321 89.65369141 231.67194946 90.63208984 231.97476196 91.64013672 C241.19474427 125.31115052 236.27898008 160.54941087 224.08413696 192.67529297 C223.79135864 193.44873047 223.49858032 194.22216797 223.19692993 195.01904297 C211.12895085 226.16585514 187.77807685 251.67969975 160.08413696 269.67529297 C159.00648071 270.37783203 157.92882446 271.08037109 156.81851196 271.80419922 C106.86231011 302.25779517 47.85501365 301.16073156 -8.44810963 300.89137506 C-16.43212013 300.85385426 -24.41616078 300.83797522 -32.40023804 300.82177734 C-46.57223859 300.79293486 -60.74388575 300.73278146 -74.91586304 300.67529297 C-74.91586304 319.15529297 -74.91586304 337.63529297 -74.91586304 356.67529297 C-79.01561258 354.6254182 -82.07614502 352.10694885 -85.47836304 349.11279297 C-86.7301774 348.02594512 -87.98279083 346.94001698 -89.23617554 345.85498047 C-89.85653687 345.31711914 -90.47689819 344.77925781 -91.11605835 344.22509766 C-96.50463051 339.58501951 -101.94713313 334.984486 -107.79086304 330.92529297 C-110.85188628 328.72135624 -113.25392236 326.33723365 -115.91586304 323.67529297 C-117.56266704 322.27656521 -119.23018509 320.90191889 -120.91586304 319.55029297 C-125.15145674 316.12419362 -129.33168684 312.64510153 -133.47836304 309.11279297 C-138.07881121 305.20153536 -142.73694167 301.37933199 -147.46664429 297.62451172 C-157.55199354 289.59805354 -167.39129842 281.27352143 -177.17367554 272.88232422 C-182.54557578 268.28730827 -187.96603871 263.81711705 -193.60336304 259.55029297 C-199.281805 255.24289306 -204.98477168 250.84013809 -209.91586304 245.67529297 C-209.91586304 245.01529297 -209.91586304 244.35529297 -209.91586304 243.67529297 C-208.36697802 242.25822795 -206.7482477 240.91719801 -205.10336304 239.61279297 C-204.09015991 238.80197266 -203.07695679 237.99115234 -202.03305054 237.15576172 C-201.00437866 236.33720703 -199.97570679 235.51865234 -198.91586304 234.67529297 C-197.18427181 233.26159087 -195.4550627 231.84496549 -193.72836304 230.42529297 C-190.54690082 227.81939443 -187.35838653 225.22279337 -184.15805054 222.64013672 C-177.62483155 217.36229562 -171.13856311 212.05055578 -164.79086304 206.55029297 C-156.07038982 199.0033232 -147.04127088 191.80433784 -137.66195679 185.08935547 C-135.75292184 183.59408983 -135.75292184 183.59408983 -133.58383179 181.33935547 C-130.77812361 178.53775521 -127.82922998 175.96624837 -124.79086304 173.42529297 C-124.21884155 172.94423096 -123.64682007 172.46316895 -123.0574646 171.9675293 C-118.7322125 168.33813605 -114.37221311 164.75232074 -109.99398804 161.18701172 C-106.87035656 158.63816014 -103.75686159 156.07739988 -100.64584351 153.51318359 C-99.16626193 152.29375179 -97.68612378 151.07499498 -96.20541382 149.85693359 C-92.95745181 147.18497564 -89.71274691 144.50977856 -86.48617554 141.81201172 C-85.51422241 141.00376953 -84.54226929 140.19552734 -83.54086304 139.36279297 C-82.29176147 138.31671875 -82.29176147 138.31671875 -81.01742554 137.24951172 C-78.91586304 135.67529297 -78.91586304 135.67529297 -75.91586304 134.67529297 C-75.91586304 152.82529297 -75.91586304 170.97529297 -75.91586304 189.67529297 C-58.55051049 189.58395912 -58.55051049 189.58395912 -41.18539429 189.46630859 C-34.08303892 189.41237917 -26.98075586 189.36125896 -19.87826538 189.32885742 C-14.13980828 189.30248015 -8.40159996 189.26184711 -2.66329956 189.2121067 C-0.49495586 189.19566695 1.67343062 189.18401261 3.84182739 189.17767906 C28.78701738 189.09758712 53.48094846 187.84275434 75.50991821 175.12841797 C78.08413696 173.67529297 78.08413696 173.67529297 81.08413696 172.67529297 C81.08413696 172.01529297 81.08413696 171.35529297 81.08413696 170.67529297 C81.92976196 170.01529297 82.77538696 169.35529297 83.64663696 168.67529297 C90.52288883 163.14828201 95.20706007 154.92024943 98.08413696 146.67529297 C98.38319946 145.82580078 98.68226196 144.97630859 98.99038696 144.10107422 C101.18876267 136.47800292 101.39629914 129.00708508 101.45913696 121.11279297 C101.4799231 119.55238281 101.4799231 119.55238281 101.50112915 117.96044922 C101.3949245 100.20750289 94.57642662 85.53981464 82.32241821 72.85107422 C67.854305 59.3872552 48.97143084 50.97217179 31.42227173 42.36230469 C28.35511938 40.85112098 25.35539579 39.27450339 22.40444946 37.55029297 C19.7929551 36.07556674 17.52065301 35.00140063 14.70913696 34.05029297 C9.58523559 32.07347917 4.9381109 29.44046394 0.20913696 26.67529297 C-0.52869019 26.24780762 -1.26651733 25.82032227 -2.02670288 25.37988281 C-11.15699027 19.95191127 -11.15699027 19.95191127 -12.91586304 14.67529297 C-13.22445679 12.58935547 -13.22445679 12.58935547 -13.35336304 10.30029297 C-13.41394897 9.55005859 -13.47453491 8.79982422 -13.53695679 8.02685547 C-11.83785698 1.59378578 -5.88464117 0.04754583 0 0 Z " fill="#F2B701" transform="translate(1190.9158630371094,639.32470703125)"/>
<path d="M0 0 C3.89409353 1.94704677 6.81755285 4.2404725 10.0625 7.0625 C11.22981968 8.06455869 12.39779826 9.06585029 13.56640625 10.06640625 C14.14664551 10.56414551 14.72688477 11.06188477 15.32470703 11.57470703 C17.6879124 13.58525686 20.09143529 15.54414643 22.5 17.5 C26.48385992 20.74012919 30.40758757 24.0409812 34.3125 27.375 C38.84907691 31.24529048 43.47499195 34.97138182 48.1875 38.625 C53.20746054 42.51933489 57.97106471 46.593844 62.65234375 50.89453125 C65.76648525 53.68741356 69.03158188 56.2597681 72.31640625 58.84765625 C75.34559817 61.27718281 78.29928593 63.78906064 81.25 66.3125 C85.72840928 70.13574193 90.28501537 73.82842974 94.9375 77.4375 C100.41241982 81.68865904 105.70455919 86.11360174 110.94750977 90.64672852 C118.28759157 96.9914044 125.6958633 103.22294192 133.63671875 108.80859375 C134.08660156 109.20175781 134.53648437 109.59492187 135 110 C135 110.66 135 111.32 135 112 C132.99330911 113.70172267 130.97510093 115.29551 128.875 116.875 C123.70537532 120.84230936 118.67168974 124.91631978 113.75 129.1875 C109.09856444 133.21729451 104.38435073 137.1290868 99.5546875 140.9453125 C96.51275228 143.39188425 93.53581659 145.90833748 90.5625 148.4375 C83.89315717 154.10941227 77.12177347 159.64955256 70.328125 165.171875 C65.44745238 169.14976425 60.60715678 173.16891214 55.8125 177.25 C50.26057135 181.97422904 44.61723699 186.57747555 38.94702148 191.15869141 C34.70681956 194.59179353 30.52158793 198.07961632 26.375 201.625 C20.73735169 206.44005137 14.94530943 211.03824874 9.09375 215.58984375 C7.09814982 217.14449692 5.11760386 218.71876498 3.15625 220.31640625 C1 222 1 222 0 222 C0 203.52 0 185.04 0 166 C-17.6651573 166.09116383 -17.6651573 166.09116383 -35.33007812 166.20898438 C-42.54921457 166.26302896 -49.768278 166.31414779 -56.98754883 166.34643555 C-62.816757 166.37270565 -68.64571577 166.41327011 -74.47476768 166.46318626 C-76.68352816 166.47969638 -78.89233161 166.49130819 -81.10114479 166.49761391 C-108.04146977 166.58220116 -134.11402609 169.10538157 -154.6796875 188.546875 C-160.91480251 195.13888211 -166.0219035 202.39661012 -169 211 C-169.29777344 211.83273437 -169.59554688 212.66546875 -169.90234375 213.5234375 C-175.05595133 230.48046889 -173.18355786 251.37684408 -165 267 C-162.56154758 270.8728362 -159.90033614 274.46204132 -157 278 C-156.50242187 278.61230469 -156.00484375 279.22460938 -155.4921875 279.85546875 C-146.03800275 290.27487131 -132.16851781 297.36694654 -119.921875 303.96337891 C-118.09766767 304.94732 -116.28254301 305.94624408 -114.46875 306.94921875 C-106.94010887 311.07526168 -99.25707851 314.82301272 -91.5 318.5 C-62.49946273 332.25080591 -62.49946273 332.25080591 -58 339 C-57.45377862 342.39232223 -57.46863936 345.60579836 -58 349 C-60.82200163 352.87017366 -63.513598 354.54043691 -68 356 C-71.15299892 356.27123547 -71.15299892 356.27123547 -74.77110291 356.30107117 C-75.43928325 356.30913011 -76.10746359 356.31718905 -76.79589182 356.3254922 C-79.02793078 356.34979853 -81.25979765 356.35991548 -83.49194336 356.36987305 C-85.09556726 356.38404841 -86.69918475 356.39896487 -88.30279541 356.41456604 C-93.56509045 356.4617332 -98.82740109 356.48749424 -104.08984375 356.51171875 C-105.90632227 356.52113115 -107.72280036 356.53062565 -109.53927803 356.54020119 C-117.10125406 356.57869174 -124.66321908 356.61189826 -132.22527218 356.63057232 C-143.03459146 356.6573358 -153.84270896 356.71477358 -164.65159315 356.81633729 C-172.2662911 356.88541959 -179.88067128 356.91956116 -187.49567515 356.92813712 C-192.03606874 356.93411561 -196.57522495 356.95479019 -201.11527824 357.01270103 C-205.39467244 357.06646065 -209.6720668 357.07646467 -213.95172119 357.05455589 C-215.51171064 357.05384555 -217.07180133 357.06820449 -218.63147163 357.09976578 C-230.45721194 357.32564288 -237.7584678 354.1788401 -247 347 C-247.94669524 346.2842364 -248.89339048 345.56847281 -249.86877346 344.8310194 C-252.30977236 342.95403866 -254.65922861 341.00029555 -257 339 C-257.83144531 338.30261719 -258.66289063 337.60523438 -259.51953125 336.88671875 C-265.78000856 331.4725118 -270.9686436 325.55905917 -276 319 C-276.66773438 318.14792969 -277.33546875 317.29585937 -278.0234375 316.41796875 C-298.08010458 289.97963487 -306.42076346 259.51771244 -306.5 226.6875 C-306.50467285 225.85253998 -306.5093457 225.01757996 -306.51416016 224.15731812 C-306.54842778 208.31730536 -304.85272521 192.66425249 -300.3125 177.4375 C-300.05903809 176.57310303 -299.80557617 175.70870605 -299.54443359 174.81811523 C-292.39286511 151.36208602 -279.82924268 130.7781552 -263 113 C-262.19175781 112.12730469 -261.38351562 111.25460937 -260.55078125 110.35546875 C-247.94123015 97.18046692 -232.99999985 87.57383958 -217 79 C-216.38398926 78.66661621 -215.76797852 78.33323242 -215.13330078 77.98974609 C-178.31605007 58.42829949 -135.25429411 54.45616963 -94.3359375 54.70703125 C-91.59298958 54.71434917 -88.85004192 54.717055 -86.10708618 54.71989441 C-79.70466866 54.72909016 -73.30241126 54.75352799 -66.90006316 54.78394288 C-58.86960447 54.8212355 -50.83911786 54.83728935 -42.80859375 54.85351562 C-28.53893888 54.88243912 -14.26963162 54.94258121 0 55 C0 36.85 0 18.7 0 0 Z " fill="#FDFEFD" transform="translate(1284,417)"/>
<path d="M0 0 C1.32 0 2.64 0 4 0 C4 5.94 4 11.88 4 18 C3.01 18 2.02 18 1 18 C0.67 14.04 0.34 10.08 0 6 C-1.32 8.64 -2.64 11.28 -4 14 C-5.32 14 -6.64 14 -8 14 C-9.32 11.36 -10.64 8.72 -12 6 C-12.33 9.96 -12.66 13.92 -13 18 C-13.66 18 -14.32 18 -15 18 C-15 12.39 -15 6.78 -15 1 C-13.68 1 -12.36 1 -11 1 C-10.32845067 2.28913487 -9.66291141 3.58140204 -9 4.875 C-8.62875 5.59429688 -8.2575 6.31359375 -7.875 7.0546875 C-7 9 -7 9 -7 11 C-6.34 11 -5.68 11 -5 11 C-4.731875 10.29875 -4.46375 9.5975 -4.1875 8.875 C-2.9318551 5.8350176 -1.49764877 2.9272226 0 0 Z " fill="#C6B10D" transform="translate(1393,922)"/>
<path d="M0 0 C4.95 0 9.9 0 15 0 C15 0.99 15 1.98 15 3 C13.02 3 11.04 3 9 3 C9 7.95 9 12.9 9 18 C8.01 18 7.02 18 6 18 C6 13.05 6 8.1 6 3 C4.02 3 2.04 3 0 3 C0 2.01 0 1.02 0 0 Z " fill="#C6B20D" transform="translate(1360,922)"/>
<path d="M0 0 C1.9375 0.75 1.9375 0.75 4 2 C4.75 4.125 4.75 4.125 5 6 C6.134375 6.268125 7.26875 6.53625 8.4375 6.8125 C9.613125 7.204375 10.78875 7.59625 12 8 C12.33 8.99 12.66 9.98 13 11 C14.32148827 11.37756808 15.65835921 11.7018576 17 12 C17.763125 12.515625 18.52625 13.03125 19.3125 13.5625 C22.69938617 15.37409028 25.21537938 15.22262474 29 15 C28.67 16.65 28.34 18.3 28 20 C23.7848216 18.42131151 19.83704622 16.43316028 15.875 14.3125 C14.89454712 13.78946289 14.89454712 13.78946289 13.89428711 13.25585938 C8.07563803 10.11317795 2.50717756 6.66381875 -3 3 C-2.01 2.01 -1.02 1.02 0 0 Z " fill="#0F8739" transform="translate(1145,706)"/>
<path d="M0 0 C1.32 0.33 2.64 0.66 4 1 C3.01 1 2.02 1 1 1 C1 6.61 1 12.22 1 18 C1.66 18 2.32 18 3 18 C3 13.71 3 9.42 3 5 C6.10551666 8.10551666 6.81323934 9.89198233 8 14 C9.65 14 11.3 14 13 14 C12.34 14.66 11.68 15.32 11 16 C9.68 16 8.36 16 7 16 C6.67 16.99 6.34 17.98 6 19 C5.67 17.35 5.34 15.7 5 14 C5 15.98 5 17.96 5 20 C3.02 19.67 1.04 19.34 -1 19 C-1.33 19.66 -1.66 20.32 -2 21 C-2 20.01 -2 19.02 -2 18 C-1.34 18 -0.68 18 0 18 C0 12.06 0 6.12 0 0 Z " fill="#268F30" transform="translate(1377,922)"/>
<path d="M0 0 C0.53625 0.268125 1.0725 0.53625 1.625 0.8125 C0.985625 1.06 0.34625 1.3075 -0.3125 1.5625 C-2.56241541 2.62812433 -2.56241541 2.62812433 -3.125 4.9375 C-3.2075 5.55625 -3.29 6.175 -3.375 6.8125 C-4.365 6.4825 -5.355 6.1525 -6.375 5.8125 C-5.715 9.7725 -5.055 13.7325 -4.375 17.8125 C-2.725 17.4825 -1.075 17.1525 0.625 16.8125 C0.625 19.8125 0.625 19.8125 -0.375 21.8125 C-3.25293751 20.52239008 -5.33683917 19.23888194 -7.375 16.8125 C-8.73076654 12.74520037 -9.16839809 9.05384308 -8.375 4.8125 C-6.2717307 1.77063821 -3.87411614 -0.30585127 0 0 Z " fill="#EFB608" transform="translate(1186.375,640.1875)"/>
<path d="M0 0 C2.95409701 1.37154504 5.44008376 2.98863724 8 5 C8 4.34 8 3.68 8 3 C10.475 3.99 10.475 3.99 13 5 C12.67339377 8.0483248 11.99477806 9.00507689 9.75 11.1875 C7.02614544 12.98276778 5.20548651 13.63365868 2 14 C3.28062485 12.2925002 4.61767557 10.62626404 6 9 C6.66 9 7.32 9 8 9 C8 8.34 8 7.68 8 7 C7.4225 6.731875 6.845 6.46375 6.25 6.1875 C3.94449957 4.97070811 1.97943808 3.69666121 0 2 C0 1.34 0 0.68 0 0 Z " fill="#058535" transform="translate(1411,520)"/>
<path d="M0 0 C2 3 2 3 3 6 C1.625 7.5 1.625 7.5 0 9 C-0.66 9 -1.32 9 -2 9 C-2.33 9.66 -2.66 10.32 -3 11 C-4.32 10.67 -5.64 10.34 -7 10 C-5.33248852 6.05860922 -2.77289351 3.2107188 0 0 Z " fill="#068639" transform="translate(1387,877)"/>
<path d="M0 0 C3.37948625 1.68974312 4.15191618 5.53031672 5.5625 8.875 C5.87896484 9.60847656 6.19542969 10.34195313 6.52148438 11.09765625 C7.78714416 14.04817525 8.98395806 16.95187418 10 20 C8.68 19.67 7.36 19.34 6 19 C6 17.35 6 15.7 6 14 C5.01 13.67 4.02 13.34 3 13 C0.58743614 8.44293494 -0.38284419 5.23220388 0 0 Z " fill="#138739" transform="translate(986,698)"/>
<path d="M0 0 C1.32 0 2.64 0 4 0 C4.33 1.32 4.66 2.64 5 4 C4.01 4.495 4.01 4.495 3 5 C2.53101037 7.8159849 2.53101037 7.8159849 2.375 11.0625 C2.30023437 12.16722656 2.22546875 13.27195312 2.1484375 14.41015625 C2.09945313 15.26480469 2.05046875 16.11945312 2 17 C1.34 17 0.68 17 0 17 C0 11.39 0 5.78 0 0 Z " fill="#F7BA05" transform="translate(1378,923)"/>
<path d="M0 0 C0.66 0.33 1.32 0.66 2 1 C1.5089914 6.52384676 1.5089914 6.52384676 -0.9375 8.8125 C-2.27036742 9.57990851 -3.62436883 10.31218442 -5 11 C-5.66 9.35 -6.32 7.7 -7 6 C-4.69 4.02 -2.38 2.04 0 0 Z " fill="#E4B607" transform="translate(1085,797)"/>
<path d="M0 0 C2.5625 1.125 2.5625 1.125 5 3 C5.8125 5.6875 5.8125 5.6875 6 8 C2.625 7.6875 2.625 7.6875 -1 7 C-1.66 6.01 -2.32 5.02 -3 4 C-2.67 3.01 -2.34 2.02 -2 1 C-1.34 0.67 -0.68 0.34 0 0 Z " fill="#0F8A34" transform="translate(1052,944)"/>
<path d="M0 0 C0.33 1.32 0.66 2.64 1 4 C-0.11375 4.61875 -0.11375 4.61875 -1.25 5.25 C-4.03798648 6.86550733 -4.03798648 6.86550733 -6 9.125 C-8.32965058 11.30904742 -9.8728345 11.65253717 -13 12 C-8.87675353 7.74790208 -4.48717034 3.86364295 0 0 Z " fill="#0E8535" transform="translate(1365,572)"/>
<path d="M0 0 C-0.33 0.33 -0.66 0.66 -1 1 C-0.34 1.66 0.32 2.32 1 3 C0.67 3.66 0.34 4.32 0 5 C-2.9375 5.75 -2.9375 5.75 -6 6 C-6.66 5.34 -7.32 4.68 -8 4 C-9.31747324 3.30251417 -10.64914193 2.63040043 -12 2 C-10.37787941 1.47026689 -8.75218416 0.95146893 -7.125 0.4375 C-6.22007813 0.14746094 -5.31515625 -0.14257812 -4.3828125 -0.44140625 C-2 -1 -2 -1 0 0 Z " fill="#0F8935" transform="translate(1308,929)"/>
<path d="M0 0 C0.66 0 1.32 0 2 0 C2.66 1.98 3.32 3.96 4 6 C4.66 6 5.32 6 6 6 C6.66 4.68 7.32 3.36 8 2 C8.66 2.66 9.32 3.32 10 4 C8.75 6.5 8.75 6.5 7 9 C5.68 9 4.36 9 3 9 C0 3.375 0 3.375 0 0 Z " fill="#D9B40A" transform="translate(1382,927)"/>
<path d="M0 0 C-2.80804268 2.96404505 -5.18315774 5.44499019 -9 7 C-9.33 5.02 -9.66 3.04 -10 1 C-6.42181037 -1.33958553 -4.07775191 -0.9267618 0 0 Z " fill="#05883A" transform="translate(1011,859)"/>
<path d="M0 0 C0.99 0.66 1.98 1.32 3 2 C2.34 2.433125 1.68 2.86625 1 3.3125 C0.34 3.869375 -0.32 4.42625 -1 5 C-1 5.99 -1 6.98 -1 8 C-1.99 8 -2.98 8 -4 8 C-4 8.99 -4 9.98 -4 11 C-5.875 11.625 -5.875 11.625 -8 12 C-8.66 11.34 -9.32 10.68 -10 10 C-9.0925 9.278125 -8.185 8.55625 -7.25 7.8125 C-4.4298006 5.47347206 -2.19093342 2.94933345 0 0 Z " fill="#E4B608" transform="translate(1282,800)"/>
<path d="M0 0 C2.66898207 0.49425594 4.16630717 1.11513574 6.4375 2.6875 C8.97327401 4.35560633 8.97327401 4.35560633 11.8125 3.1875 C12.534375 2.795625 13.25625 2.40375 14 2 C13 4 12 6 11 8 C11.66 8.33 12.32 8.66 13 9 C9.02348017 9 7.85083826 7.55718178 4.8125 5.0625 C3.91144531 4.33160156 3.01039062 3.60070312 2.08203125 2.84765625 C1.39496094 2.23792969 0.70789062 1.62820313 0 1 C0 0.67 0 0.34 0 0 Z " fill="#15883C" transform="translate(1359,478)"/>
<path d="M0 0 C1.32 0 2.64 0 4 0 C4.33 0.99 4.66 1.98 5 3 C8.50294871 4.71567661 8.50294871 4.71567661 12 6 C12 6.99 12 7.98 12 9 C7.76570244 7.68938409 3.92592596 6.05643741 0 4 C0 2.68 0 1.36 0 0 Z " fill="#0D8537" transform="translate(1188,730)"/>
<path d="M0 0 C3.73487777 0.4979837 5.81237635 0.87491756 9 3 C11.33199388 3.07905064 13.66832622 3.08798769 16 3 C15.67 4.65 15.34 6.3 15 8 C11.45756548 6.63408831 8.07372071 5.09068516 4.6875 3.375 C3.80449219 2.92898438 2.92148438 2.48296875 2.01171875 2.0234375 C1.34785156 1.68570313 0.68398437 1.34796875 0 1 C0 0.67 0 0.34 0 0 Z " fill="#16883C" transform="translate(1158,718)"/>
<path d="M0 0 C0 0.33 0 0.66 0 1 C-7.26 1.66 -14.52 2.32 -22 3 C-22 2.01 -22 1.02 -22 0 C-14.46818582 -0.75667376 -7.49719609 -1.14364008 0 0 Z " fill="#1A8D42" transform="translate(1152,473)"/>
<path d="M0 0 C1.6045556 0.14148989 3.20863767 0.28835686 4.8125 0.4375 C5.70582031 0.51871094 6.59914063 0.59992187 7.51953125 0.68359375 C10 1 10 1 13 2 C12.34 2 11.68 2 11 2 C11.66 3.65 12.32 5.3 13 7 C8.50202887 5.31326082 4.27113698 3.18326108 0 1 C0 0.67 0 0.34 0 0 Z " fill="#DEB508" transform="translate(1224,681)"/>
<path d="M0 0 C2.97 0 5.94 0 9 0 C9 0.99 9 1.98 9 3 C8.01 3 7.02 3 6 3 C6.33 4.32 6.66 5.64 7 7 C4.08482708 5.92598892 2.22189824 5.22189824 0 3 C0 2.01 0 1.02 0 0 Z " fill="#E4B606" transform="translate(1197,665)"/>
<path d="M0 0 C3.2826932 1.49076434 5.93077441 3.38620321 8.75 5.625 C9.94882813 6.57246094 9.94882813 6.57246094 11.171875 7.5390625 C11.77515625 8.02117188 12.3784375 8.50328125 13 9 C12.01 9.33 11.02 9.66 10 10 C7.8125 8.6875 7.8125 8.6875 6 7 C6 6.34 6 5.68 6 5 C4.35 5.66 2.7 6.32 1 7 C0.67 4.69 0.34 2.38 0 0 Z " fill="#0D853B" transform="translate(1033,929)"/>
<path d="M0 0 C0 0.99 0 1.98 0 3 C-0.66 3 -1.32 3 -2 3 C-2.33 4.32 -2.66 5.64 -3 7 C-6.375 7.625 -6.375 7.625 -10 8 C-10.66 7.34 -11.32 6.68 -12 6 C-8.04 4.02 -4.08 2.04 0 0 Z " fill="#198935" transform="translate(1346,911)"/>
<path d="M0 0 C2.64 1.32 5.28 2.64 8 4 C8 4.33 8 4.66 8 5 C4.37 5 0.74 5 -3 5 C-3.66 3.68 -4.32 2.36 -5 1 C-2.525 1.99 -2.525 1.99 0 3 C0 2.01 0 1.02 0 0 Z " fill="#158A33" transform="translate(1189,664)"/>
<path d="M0 0 C0 1.65 0 3.3 0 5 C-0.99 5.33 -1.98 5.66 -3 6 C-5.2636564 4.59554165 -7.0208685 2.8032087 -9 1 C-2.4 -1.2 -2.4 -1.2 0 0 Z " fill="#E6B607" transform="translate(1103,978)"/>
<path d="M0 0 C1.77074917 -0.02705729 3.54161711 -0.04642195 5.3125 -0.0625 C6.29863281 -0.07410156 7.28476563 -0.08570313 8.30078125 -0.09765625 C11 0 11 0 14 1 C14 1.66 14 2.32 14 3 C10.01611946 3.83383546 6.91159585 4.26862568 3 3 C1.9698824 2.03105328 0.96464654 1.03414557 0 0 Z " fill="#118A38" transform="translate(1253,938)"/>
<path d="M0 0 C0.66 0 1.32 0 2 0 C6 6.75 6 6.75 6 9 C5.38125 8.79375 4.7625 8.5875 4.125 8.375 C3.42375 8.25125 2.7225 8.1275 2 8 C1.34 8.66 0.68 9.32 0 10 C0 6.66666667 0 3.33333333 0 0 Z " fill="#0F8835" transform="translate(1282,724)"/>
<path d="M0 0 C0.66 0 1.32 0 2 0 C2 0.99 2 1.98 2 3 C2.99 3 3.98 3 5 3 C6.66666667 4.66666667 8.33333333 6.33333333 10 8 C8.265625 8.71484375 8.265625 8.71484375 6 9 C3.859375 7.56640625 3.859375 7.56640625 1.75 5.5625 C0.69039062 4.57443359 0.69039062 4.57443359 -0.390625 3.56640625 C-0.92171875 3.04949219 -1.4528125 2.53257812 -2 2 C-1.34 1.34 -0.68 0.68 0 0 Z " fill="#158834" transform="translate(1374,655)"/>
<path d="M0 0 C1.17949219 0.10183594 2.35898438 0.20367188 3.57421875 0.30859375 C4.47785156 0.39238281 5.38148437 0.47617187 6.3125 0.5625 C6.3125 0.8925 6.3125 1.2225 6.3125 1.5625 C1.6925 2.2225 -2.9275 2.8825 -7.6875 3.5625 C-8.3475 2.5725 -9.0075 1.5825 -9.6875 0.5625 C-6.14075997 -0.61974668 -3.71227005 -0.33079634 0 0 Z " fill="#E3B409" transform="translate(1281.6875,932.4375)"/>
<path d="M0 0 C4.27563279 0.47507031 6.16560497 2.95302534 9 6 C10.1446875 7.1446875 10.1446875 7.1446875 11.3125 8.3125 C11.869375 8.869375 12.42625 9.42625 13 10 C12.67 10.66 12.34 11.32 12 12 C9.99394062 10.38201759 7.99523205 8.75623702 6 7.125 C5.42765625 6.66480469 4.8553125 6.20460938 4.265625 5.73046875 C2.80601181 4.53150078 1.3986243 3.26958455 0 2 C0 1.34 0 0.68 0 0 Z " fill="#168338" transform="translate(1288,418)"/>
<path d="M0 0 C0 2 0 2 -1.75 4.125 C-4 6 -4 6 -8 6 C-8 5.34 -8 4.68 -8 4 C-8.66 3.67 -9.32 3.34 -10 3 C-8.70990357 2.49596232 -7.41786211 1.99690074 -6.125 1.5 C-5.04605469 1.08234375 -5.04605469 1.08234375 -3.9453125 0.65625 C-2 0 -2 0 0 0 Z " fill="#188A35" transform="translate(1330,920)"/>
<path d="M0 0 C1.32 0 2.64 0 4 0 C4.28875 0.639375 4.5775 1.27875 4.875 1.9375 C5.82823451 4.15206079 5.82823451 4.15206079 8 5 C7.67 6.32 7.34 7.64 7 9 C5.82737096 7.88121617 4.66204862 6.75476949 3.5 5.625 C2.8503125 4.99851562 2.200625 4.37203125 1.53125 3.7265625 C0 2 0 2 0 0 Z " fill="#E6B707" transform="translate(1026,920)"/>
<path d="M0 0 C0 3 0 3 -1 6 C-0.34 6.33 0.32 6.66 1 7 C-3.455 7.495 -3.455 7.495 -8 8 C-5.33333333 5.33333333 -2.66666667 2.66666667 0 0 Z " fill="#108835" transform="translate(1377,888)"/>
<path d="M0 0 C0 0.33 0 0.66 0 1 C-6.23352019 3.3548854 -11.45688671 2.87557031 -18 2 C-18 1.67 -18 1.34 -18 1 C-11.96445452 0.30739642 -6.07593562 -0.11251733 0 0 Z M-10 3 C-7 4 -7 4 -7 4 Z " fill="#BDAD0D" transform="translate(1234,827)"/>
<path d="M0 0 C3.36591866 1.44253657 5.51047079 3.33264727 8 6 C6.02 6.33 4.04 6.66 2 7 C1.34 4.69 0.68 2.38 0 0 Z " fill="#178834" transform="translate(1008,908)"/>
<path d="M0 0 C-1.4566677 1.14795006 -2.91538937 2.29329419 -4.375 3.4375 C-5.18710938 4.07558594 -5.99921875 4.71367188 -6.8359375 5.37109375 C-9 7 -9 7 -11 8 C-11 5.75 -11 5.75 -10 3 C-3.37579618 -1.68789809 -3.37579618 -1.68789809 0 0 Z " fill="#288C33" transform="translate(1056,823)"/>
<path d="M0 0 C1.98 0 3.96 0 6 0 C5.01 0.495 5.01 0.495 4 1 C4 1.66 4 2.32 4 3 C4.99 3 5.98 3 7 3 C6.67 3.66 6.34 4.32 6 5 C6 5.66 6 6.32 6 7 C3.53199953 5.84826645 1.95216435 4.95216435 0 3 C0 2.01 0 1.02 0 0 Z " fill="#118C38" transform="translate(1356,641)"/>
<path d="M0 0 C4.59306496 1.4859916 7.43569245 3.85014682 11 7 C10.67 7.99 10.34 8.98 10 10 C8.33037631 8.52417192 6.6643694 7.04425109 5 5.5625 C4.071875 4.73878906 3.14375 3.91507812 2.1875 3.06640625 C1.465625 2.38449219 0.74375 1.70257813 0 1 C0 0.67 0 0.34 0 0 Z " fill="#19883B" transform="translate(1304,432)"/>
<path d="M0 0 C2.475 0.495 2.475 0.495 5 1 C5 2.32 5 3.64 5 5 C3.02 5.99 3.02 5.99 1 7 C0 6 0 6 -0.0625 2.9375 C-0.041875 1.968125 -0.02125 0.99875 0 0 Z " fill="#0E8A35" transform="translate(1264,809)"/>
<path d="M0 0 C1.65 0 3.3 0 5 0 C5.268125 0.639375 5.53625 1.27875 5.8125 1.9375 C6.88667752 4.33131686 6.88667752 4.33131686 10 5 C5.2482602 4.56802365 3.07999946 3.67230705 0 0 Z " fill="#098430" transform="translate(1151,713)"/>
<path d="M0 0 C0.66 0 1.32 0 2 0 C2.25532751 3.06393013 2.21861333 4.63233212 0.625 7.3125 C-0.179375 8.1478125 -0.179375 8.1478125 -1 9 C-1.66 9 -2.32 9 -3 9 C-2.01 6.03 -1.02 3.06 0 0 Z " fill="#168A3F" transform="translate(1117,621)"/>
<path d="M0 0 C-3.66886948 1.22295649 -4.55408047 0.41371057 -8 -1 C-8.99 -0.505 -8.99 -0.505 -10 0 C-10 -0.99 -10 -1.98 -10 -3 C-5.69563697 -4.98662909 -3.48674022 -2.61505516 0 0 Z " fill="#0E8936" transform="translate(1052,943)"/>
<path d="M0 0 C0.66 0 1.32 0 2 0 C1.40072174 3.35595828 0.15377564 5.37801226 -2 8 C-2.99 7.67 -3.98 7.34 -5 7 C-4.67 6.01 -4.34 5.02 -4 4 C-3.34 4 -2.68 4 -2 4 C-1.34 2.68 -0.68 1.36 0 0 Z " fill="#E4B708" transform="translate(1406,845)"/>
<path d="M0 0 C0.33 0 0.66 0 1 0 C3.28571429 8.42857143 3.28571429 8.42857143 3 13 C2.34 13 1.68 13 1 13 C-0.6290678 8.20862412 -1.20577428 4.94367454 0 0 Z " fill="#1B8C43" transform="translate(980,675)"/>
<path d="M0 0 C2.31 0.33 4.62 0.66 7 1 C6.67 2.32 6.34 3.64 6 5 C6.66 5.33 7.32 5.66 8 6 C7.34 6.66 6.68 7.32 6 8 C4.02 5.36 2.04 2.72 0 0 Z " fill="#118837" transform="translate(1389,672)"/>
<path d="M0 0 C2.475 0.495 2.475 0.495 5 1 C5.33 2.98 5.66 4.96 6 7 C1.125 3.375 1.125 3.375 0 0 Z " fill="#1C8A35" transform="translate(1382,664)"/>
<path d="M0 0 C0.99 0 1.98 0 3 0 C2.00956295 4.83628305 1.04301154 9.47618873 -1 14 C-2.09413907 10.7175828 -1.88266275 9.69134828 -1.0625 6.4375 C-0.25421843 3.25264797 -0.25421843 3.25264797 0 0 Z " fill="#097F30" transform="translate(985,581)"/>
<path d="M0 0 C0.33 0.99 0.66 1.98 1 3 C0.67 3.66 0.34 4.32 0 5 C0.66 5.66 1.32 6.32 2 7 C1.01 7.495 1.01 7.495 0 8 C-1.65 6.68 -3.3 5.36 -5 4 C-3.35 2.68 -1.7 1.36 0 0 Z " fill="#12883D" transform="translate(1371,567)"/>
<path d="M0 0 C2.31 0 4.62 0 7 0 C5.63016497 3.16115776 5.0109362 3.9927092 2 6 C2 5.01 2 4.02 2 3 C1.34 2.67 0.68 2.34 0 2 C0 1.34 0 0.68 0 0 Z " fill="#0F8938" transform="translate(1032,834)"/>
<path d="M0 0 C0.66 0.33 1.32 0.66 2 1 C1.625 2.9375 1.625 2.9375 1 5 C0.01 5.495 0.01 5.495 -1 6 C-1 5.34 -1 4.68 -1 4 C-2.32 3.67 -3.64 3.34 -5 3 C-4.67 2.34 -4.34 1.68 -4 1 C-2.02 1.495 -2.02 1.495 0 2 C0 1.34 0 0.68 0 0 Z " fill="#0D8936" transform="translate(1277,801)"/>
<path d="M0 0 C0.99 0 1.98 0 3 0 C3 0.66 3 1.32 3 2 C4.65 1.67 6.3 1.34 8 1 C8 4 8 4 7 6 C3.63279613 4.60667426 2.0140476 3.0210714 0 0 Z " fill="#D3B50C" transform="translate(1179,656)"/>
<path d="M0 0 C0.99 0.33 1.98 0.66 3 1 C3 2.98 3 4.96 3 7 C-1.875 4.25 -1.875 4.25 -3 2 C-2.34 2 -1.68 2 -1 2 C-0.67 1.34 -0.34 0.68 0 0 Z " fill="#0C8437" transform="translate(1388,497)"/>
<path d="M0 0 C1.98 0.66 3.96 1.32 6 2 C6.33 3.65 6.66 5.3 7 7 C5.82780457 6.21654285 4.66236332 5.42297164 3.5 4.625 C2.8503125 4.18414063 2.200625 3.74328125 1.53125 3.2890625 C1.0259375 2.86367188 0.520625 2.43828125 0 2 C0 1.34 0 0.68 0 0 Z " fill="#E5B707" transform="translate(1065,953)"/>
<path d="M0 0 C1.32 0 2.64 0 4 0 C4.33 1.32 4.66 2.64 5 4 C3.68 4.33 2.36 4.66 1 5 C0.67 3.35 0.34 1.7 0 0 Z " fill="#E9B606" transform="translate(1378,923)"/>
<path d="M0 0 C0.66 0 1.32 0 2 0 C2.33 0.66 2.66 1.32 3 2 C3.99 2 4.98 2 6 2 C5.67 3.65 5.34 5.3 5 7 C2.5 5.1875 2.5 5.1875 0 3 C0 2.01 0 1.02 0 0 Z " fill="#E1B508" transform="translate(1017,912)"/>
<path d="M0 0 C1.04449911 3.13349732 0.93423645 3.98968256 0 7 C-0.99 7 -1.98 7 -3 7 C-2.25 2.25 -2.25 2.25 0 0 Z " fill="#1D8D33" transform="translate(1387,877)"/>
<path d="M0 0 C0 0.66 0 1.32 0 2 C-0.66 2 -1.32 2 -2 2 C-1.67 2.99 -1.34 3.98 -1 5 C-3.99332739 4.0022242 -4.94766315 3.2477975 -7 1 C-3.375 -1.125 -3.375 -1.125 0 0 Z " fill="#E6B606" transform="translate(1263,819)"/>
<path d="M0 0 C2.25 0.25 2.25 0.25 4 1 C3.360625 1.2475 2.72125 1.495 2.0625 1.75 C-0.18741541 2.81562433 -0.18741541 2.81562433 -0.75 5.125 C-0.8325 5.74375 -0.915 6.3625 -1 7 C-1.99 6.01 -2.98 5.02 -4 4 C-2.25 1.9375 -2.25 1.9375 0 0 Z " fill="#DCB609" transform="translate(1184,640)"/>
<path d="M0 0 C3.43595166 1.52708963 6.11912454 3.59927045 9 6 C8.67 6.99 8.34 7.98 8 9 C8 8.34 8 7.68 8 7 C7.4225 6.731875 6.845 6.46375 6.25 6.1875 C3.94449957 4.97070811 1.97943808 3.69666121 0 2 C0 1.34 0 0.68 0 0 Z " fill="#188239" transform="translate(1411,520)"/>
<path d="M0 0 C1.65 1.65 3.3 3.3 5 5 C4.67 5.66 4.34 6.32 4 7 C2.68 6.67 1.36 6.34 0 6 C0 4.02 0 2.04 0 0 Z " fill="#108731" transform="translate(1108,990)"/>
<path d="M0 0 C2.97 0.495 2.97 0.495 6 1 C4.35 2.65 2.7 4.3 1 6 C-0.0625 4.125 -0.0625 4.125 -1 2 C-0.67 1.34 -0.34 0.68 0 0 Z " fill="#188933" transform="translate(1005,858)"/>
<path d="M0 0 C1.65 0.33 3.3 0.66 5 1 C4.34 2.32 3.68 3.64 3 5 C1.35 5 -0.3 5 -2 5 C-1.34 3.35 -0.68 1.7 0 0 Z " fill="#0E8936" transform="translate(1026,840)"/>
<path d="M0 0 C4.31392226 0.4793247 6.16569547 1.7457985 9 5 C7.35 5 5.7 5 4 5 C3.67 4.34 3.34 3.68 3 3 C2.01 2.67 1.02 2.34 0 2 C0 1.34 0 0.68 0 0 Z " fill="#0A8032" transform="translate(1041,768)"/>
<path d="M0 0 C3.68754757 0.49831724 5.60490662 1.10067643 8 4 C7.01 4.495 7.01 4.495 6 5 C3.96855359 4.06553465 1.96466413 3.06775224 0 2 C0 1.34 0 0.68 0 0 Z " fill="#16883D" transform="translate(1204,740)"/>
<path d="M0 0 C0.99 0.99 1.98 1.98 3 3 C2.34 4.32 1.68 5.64 1 7 C0.01 6.01 -0.98 5.02 -2 4 C-1.34 2.68 -0.68 1.36 0 0 Z " fill="#1B8C31" transform="translate(1370,649)"/>
<path d="M0 0 C2 1 2 1 3 3 C0.03 5.475 0.03 5.475 -3 8 C-3.36923077 3.44615385 -3.36923077 3.44615385 -1.5 1.1875 C-1.005 0.795625 -0.51 0.40375 0 0 Z " fill="#14893D" transform="translate(1384,556)"/>
<path d="M0 0 C0.66 0.33 1.32 0.66 2 1 C-0.48743095 5.08649371 -1.61364256 6.80682128 -6 9 C-4.02 6.03 -2.04 3.06 0 0 Z " fill="#D5EFDE" transform="translate(1011,541)"/>
<path d="M0 0 C0.99 0.33 1.98 0.66 3 1 C2.67 2.32 2.34 3.64 2 5 C-1 5 -1 5 -2.6875 3.5 C-3.120625 3.005 -3.55375 2.51 -4 2 C-2.68 2.33 -1.36 2.66 0 3 C0 2.01 0 1.02 0 0 Z " fill="#D2B30B" transform="translate(996,892)"/>
<path d="M0 0 C0.33 1.32 0.66 2.64 1 4 C-1.475 5.485 -1.475 5.485 -4 7 C-4.66 6.34 -5.32 5.68 -6 5 C-4.02 3.35 -2.04 1.7 0 0 Z " fill="#E8BA05" transform="translate(1106,780)"/>
<path d="M0 0 C0.66 0.33 1.32 0.66 2 1 C1.67 1.66 1.34 2.32 1 3 C0.34 3 -0.32 3 -1 3 C-1.33 3.99 -1.66 4.98 -2 6 C-3.32 5.67 -4.64 5.34 -6 5 C-4.02 3.35 -2.04 1.7 0 0 Z " fill="#0A7D34" transform="translate(1333,599)"/>
<path d="M0 0 C0.66 0.99 1.32 1.98 2 3 C0 5 0 5 -2.625 5.125 C-3.40875 5.08375 -4.1925 5.0425 -5 5 C-3.35 3.35 -1.7 1.7 0 0 Z " fill="#DDB60B" transform="translate(997,870)"/>
<path d="M0 0 C1.98 0.66 3.96 1.32 6 2 C6 2.33 6 2.66 6 3 C3.69 3 1.38 3 -1 3 C-1 3.66 -1 4.32 -1 5 C-1.66 4.67 -2.32 4.34 -3 4 C-2.01 2.68 -1.02 1.36 0 0 Z " fill="#098431" transform="translate(1295,630)"/>
</svg>
