<?xml version="1.0" encoding="UTF-8"?>
<svg version="1.1" xmlns="http://www.w3.org/2000/svg" width="225" height="225">
<path d="M0 0 C74.25 0 148.5 0 225 0 C225 74.25 225 148.5 225 225 C150.75 225 76.5 225 0 225 C0 150.75 0 76.5 0 0 Z " fill="#FEFEFE" transform="translate(0,0)"/>
<path d="M0 0 C8.79598538 6.44666532 16.3509367 15.23261201 24.02281952 22.94765472 C26.34157808 25.27932704 28.6635777 27.60772933 30.98638916 29.93536377 C35.91042993 34.87075183 40.83050134 39.81008499 45.75 44.75 C51.46922468 50.49288603 57.19009734 56.2341105 62.91519928 61.971138 C65.19608306 64.25847473 67.4739211 66.54881467 69.75164795 68.83929443 C71.1542703 70.24555029 72.5570338 71.65166539 73.95996094 73.05761719 C74.58658127 73.68940384 75.2132016 74.32119049 75.85881042 74.97212219 C78.60135354 77.71499233 81.3581799 80.35452394 84.35406494 82.82061768 C88.29321879 86.06518796 88.8085624 87.72374932 89.5625 92.75 C89.3861578 98.37220437 85.83485198 101.26084843 82 105 C80.80697266 106.22783203 80.80697266 106.22783203 79.58984375 107.48046875 C75.20338286 111.96184533 70.69820008 116.2156425 65.9296875 120.28515625 C63.85583881 122.12811085 61.93315222 124.07293283 60 126.0625 C56.29967753 129.82889966 52.31557569 132.96991494 48 136 C48.165 134.700625 48.33 133.40125 48.5 132.0625 C48.98038125 127.12446335 49.17714293 122.20803081 49.25 117.25 C49.27126953 116.52949463 49.29253906 115.80898926 49.31445312 115.06665039 C49.35410177 108.93739522 47.67122864 105.12701826 43.9375 100.375 C36.57176091 94.41972159 27.52721458 93.13808452 18.375 91.9375 C17.20654541 91.7732251 16.03809082 91.6089502 14.83422852 91.43969727 C8.98123001 90.62758139 3.12154478 89.88543198 -2.74609375 89.1875 C-4.34300049 88.99619507 -4.34300049 88.99619507 -5.97216797 88.80102539 C-7.9661582 88.5664661 -9.96125108 88.34101576 -11.95751953 88.12670898 C-24.07867041 86.73223083 -34.80984306 83.5182905 -43 74 C-47.56953318 67.59734013 -50.27136783 61.69116158 -50.4375 53.6875 C-50.47746094 52.63949219 -50.51742187 51.59148438 -50.55859375 50.51171875 C-49.16035895 41.72141747 -43.37620098 35.84400859 -37.125 29.9375 C-32.42064976 25.41545445 -27.91919806 20.85448884 -23.66552734 15.90356445 C-21.14545908 13.02332812 -18.46562962 10.31963248 -15.75 7.625 C-15.234375 7.10550781 -14.71875 6.58601562 -14.1875 6.05078125 C-9.53370554 1.40898111 -6.7705747 -1.18216384 0 0 Z " fill="#AE0D40" transform="translate(116,9)"/>
<path d="M0 0 C1 2 1 2 0.58203125 4.01171875 C-0.24912969 8.27908865 -0.26461651 12.47425562 -0.3125 16.8125 C-0.34150391 17.67681641 -0.37050781 18.54113281 -0.40039062 19.43164062 C-0.46905109 26.42972669 1.01632037 31.69215118 5.76171875 36.953125 C18.0533502 45.23065368 33.45170827 45.53364175 47.76293945 46.31738281 C69.84293547 47.53960955 69.84293547 47.53960955 79.3125 52.5625 C79.98764648 52.91256104 80.66279297 53.26262207 81.35839844 53.62329102 C89.26237092 57.93915032 95.07915722 64.0812724 98.37109375 72.5546875 C100.30547391 80.07594202 99.90919933 87.42966128 96.02734375 94.21484375 C91.03739478 101.0700145 84.95439188 106.99057677 79 113 C78.1032959 113.91040039 77.2065918 114.82080078 76.28271484 115.75878906 C71.62864666 120.48229934 66.95697459 125.1885207 62.26171875 129.87109375 C61.10095825 131.03016235 61.10095825 131.03016235 59.91674805 132.21264648 C56.88338554 135.04123481 54.3615057 135.52674785 50.19585514 135.4706583 C47.45951263 134.88415226 46.28698241 133.86328807 44.24131775 131.96946716 C43.54632109 131.33089216 42.85132442 130.69231716 42.13526726 130.0343914 C41.07830997 129.02736766 41.07830997 129.02736766 40 128 C39.34129976 127.37334002 38.68259953 126.74668003 38.00393867 126.10103035 C35.90816533 124.079023 33.83377877 122.03704127 31.76391602 119.98852539 C30.98406845 119.2200679 30.20422089 118.45161041 29.40074158 117.65986633 C21.33647479 109.70531003 13.30276935 101.71976724 5.27172852 93.73168945 C0.98835107 89.47196222 -3.31025338 85.22799651 -7.61520523 80.99008566 C-11.77246972 76.89537059 -15.91045247 72.78158406 -20.04207039 68.66100883 C-21.79638585 66.91710081 -23.55671032 65.17921594 -25.32311821 63.44755745 C-27.78863639 61.02810851 -30.23128507 58.58761176 -32.66967773 56.14086914 C-33.7675209 55.0784198 -33.7675209 55.0784198 -34.88754272 53.99450684 C-39.40355931 49.40309582 -41.02661008 46.50854078 -41 40 C-40.09375 37.99609375 -40.09375 37.99609375 -38.5 36.4375 C-37.53900391 35.46296875 -37.53900391 35.46296875 -36.55859375 34.46875 C-35.71425781 33.6540625 -34.86992188 32.839375 -34 32 C-32.82152478 30.80473348 -31.64599533 29.60655883 -30.47265625 28.40625 C-24.77506466 22.6054464 -19.06735864 16.86593359 -12.84375 11.625 C-9.69783128 8.85232587 -6.80567922 5.82465286 -3.8828125 2.8203125 C-2 1 -2 1 0 0 Z " fill="#0163AC" transform="translate(61,79)"/>
<path d="M0 0 C0.99 0.33 1.98 0.66 3 1 C2.57332031 1.35521729 2.14664063 1.71043457 1.70703125 2.07641602 C-5.23080853 7.99056681 -11.5832745 14.47237051 -18 20.9375 C-19.16773374 22.11026009 -20.33570074 23.28278798 -21.50390625 24.45507812 C-24.33863234 27.30071689 -27.17018824 30.14947453 -30 33 C-30.66 32.67 -31.32 32.34 -32 32 C-31.28714844 31.29875 -30.57429688 30.5975 -29.83984375 29.875 C-23.51453892 23.64491534 -23.51453892 23.64491534 -17.5625 17.0625 C-14.43168634 13.39715717 -11.08816764 9.9752428 -7.6875 6.5625 C-7.15906494 6.02955322 -6.63062988 5.49660645 -6.08618164 4.94750977 C-2.24759205 1.12379602 -2.24759205 1.12379602 0 0 Z " fill="#B21E49" transform="translate(108,10)"/>
</svg>
