<?xml version="1.0" encoding="UTF-8"?>
<svg version="1.1" xmlns="http://www.w3.org/2000/svg" width="600" height="600">
<path d="M0 0 C198 0 396 0 600 0 C600 198 600 396 600 600 C402 600 204 600 0 600 C0 402 0 204 0 0 Z " fill="#FEFEFE" transform="translate(0,0)"/>
<path d="M0 0 C6.5253044 4.38127581 11.03337823 10.46840712 13.734375 17.8359375 C14.24416376 21.00599546 14.25204467 24.06923665 14.171875 27.2734375 C14.17896484 28.06814453 14.18605469 28.86285156 14.19335938 29.68164062 C14.07935817 40.45913892 10.25365951 48.18333234 2.734375 55.8359375 C-3.2122455 61.31567457 -9.86828646 61.4640365 -17.58569336 61.36914062 C-25.15147966 61.04655302 -30.97475506 59.02985079 -37.265625 54.8359375 C-37.25515137 55.79483887 -37.24467773 56.75374023 -37.23388672 57.74169922 C-37.19773172 61.29374469 -37.17474107 64.84577384 -37.15576172 68.39794922 C-37.14569382 69.93638848 -37.13203854 71.47480857 -37.11474609 73.01318359 C-37.09053183 75.22237883 -37.07915009 77.43132145 -37.0703125 79.640625 C-37.05998993 80.33026337 -37.04966736 81.01990173 -37.03903198 81.73043823 C-37.03863022 83.43394656 -37.14371474 85.13679693 -37.265625 86.8359375 C-39.265625 88.8359375 -39.265625 88.8359375 -42.26953125 89.06640625 C-43.44386719 89.05222656 -44.61820312 89.03804688 -45.828125 89.0234375 C-47.00503906 89.01699219 -48.18195313 89.01054687 -49.39453125 89.00390625 C-52.265625 88.8359375 -52.265625 88.8359375 -53.265625 87.8359375 C-53.36614375 85.04141479 -53.40178394 82.27157395 -53.39501953 79.4765625 C-53.39677185 78.60020142 -53.39852417 77.72384033 -53.40032959 76.82092285 C-53.40474932 73.90924123 -53.40180969 70.9976198 -53.3984375 68.0859375 C-53.3991105 66.07193998 -53.4000805 64.05794255 -53.40133667 62.04394531 C-53.40281381 57.81704945 -53.40065858 53.59017467 -53.39599609 49.36328125 C-53.3902988 43.93213218 -53.39357772 38.50103251 -53.39956856 33.06988525 C-53.40317374 28.90933863 -53.40203578 24.74880381 -53.39944077 20.58825684 C-53.39877138 18.58508295 -53.39960033 16.58190801 -53.40192032 14.57873535 C-53.40444615 11.78423198 -53.40060724 8.98980979 -53.39501953 6.1953125 C-53.39704376 5.35891235 -53.39906799 4.52251221 -53.40115356 3.6607666 C-53.37988742 -2.04980008 -53.37988742 -2.04980008 -52.265625 -3.1640625 C-50.28849693 -3.26306449 -48.30772462 -3.29377023 -46.328125 -3.2890625 C-44.70583984 -3.29292969 -44.70583984 -3.29292969 -43.05078125 -3.296875 C-40.265625 -3.1640625 -40.265625 -3.1640625 -38.265625 -2.1640625 C-38.265625 0.1459375 -38.265625 2.4559375 -38.265625 4.8359375 C-37.6365625 4.43761719 -37.0075 4.03929687 -36.359375 3.62890625 C-23.84573008 -4.11673842 -13.74121952 -7.58259005 0 0 Z " fill="#3E4C4A" transform="translate(406.265625,285.1640625)"/>
<path d="M0 0 C4.26522157 3.4307217 8.12059562 7.04928687 9.875 12.3125 C9.96670528 13.85676758 10.00290318 15.40467277 10.00439453 16.95166016 C10.00754669 17.88918121 10.01069885 18.82670227 10.01394653 19.79263306 C10.0119223 20.80207977 10.00989807 21.81152649 10.0078125 22.8515625 C10.00876923 23.8881601 10.00972595 24.92475769 10.01071167 25.99276733 C10.01139222 28.18332988 10.00954665 30.37389445 10.00537109 32.56445312 C10.00001029 35.93103521 10.00532589 39.29748452 10.01171875 42.6640625 C10.01105816 44.7890628 10.00977739 46.91406301 10.0078125 49.0390625 C10.00983673 50.05255768 10.01186096 51.06605286 10.01394653 52.11026001 C10.00921829 53.50708511 10.00921829 53.50708511 10.00439453 54.93212891 C10.00359894 55.75580963 10.00280334 56.57949036 10.00198364 57.4281311 C9.875 59.3125 9.875 59.3125 8.875 60.3125 C7.06572719 60.43737758 5.25103893 60.48820846 3.4375 60.5 C2.44878906 60.51417969 1.46007812 60.52835937 0.44140625 60.54296875 C-2.125 60.3125 -2.125 60.3125 -4.125 58.3125 C-4.125 56.9925 -4.125 55.6725 -4.125 54.3125 C-4.71667969 54.72242188 -5.30835938 55.13234375 -5.91796875 55.5546875 C-7.10326172 56.36292969 -7.10326172 56.36292969 -8.3125 57.1875 C-9.08980469 57.72117187 -9.86710937 58.25484375 -10.66796875 58.8046875 C-17.64160118 63.08421392 -25.37898733 63.60283267 -33.3515625 61.8125 C-39.21664447 59.53881183 -43.46138835 54.87355317 -46.39453125 49.40234375 C-48.3262228 43.87584653 -48.03546265 38.24268082 -45.5625 33 C-39.77694678 26.62105671 -34.17586807 21.80687531 -25.22949219 21.07592773 C-22.02263835 21.0182523 -18.83143018 21.05020887 -15.625 21.125 C-13.96210938 21.14530273 -13.96210938 21.14530273 -12.265625 21.16601562 C-9.55156768 21.20111119 -6.83854807 21.2502773 -4.125 21.3125 C-4.97606563 15.65561319 -4.97606563 15.65561319 -8.32421875 11.33984375 C-14.27178782 9.15823892 -21.71127884 9.05783985 -27.67578125 11.25 C-29.50734118 12.24338844 -31.31798242 13.27513805 -33.125 14.3125 C-37.38133202 13.82232741 -39.4678146 11.57704206 -42.125 8.3125 C-41.80582696 4.74608818 -41.0374563 4.23613209 -38.1875 1.75 C-27.16735837 -5.49244602 -11.61190302 -6.27042763 0 0 Z " fill="#3F4D4B" transform="translate(279.125,284.6875)"/>
<path d="M0 0 C1.0725 0.00515625 2.145 0.0103125 3.25 0.015625 C4.85875 0.00789063 4.85875 0.00789063 6.5 0 C9.25 0.265625 9.25 0.265625 11.25 2.265625 C11.45945116 4.96567852 11.55112185 7.57135102 11.55859375 10.2734375 C11.58377537 11.91666988 11.60917304 13.55989897 11.63476562 15.203125 C11.66338398 17.79002862 11.68739954 20.3768742 11.70629883 22.96386719 C11.72812612 25.4632119 11.76760015 27.96184392 11.80859375 30.4609375 C11.80870956 31.22270294 11.80882538 31.98446838 11.8089447 32.76931763 C11.91842573 38.791394 12.8174031 44.8330281 17.25 49.265625 C22.88399598 50.05621528 27.71444052 50.40193902 32.375 46.953125 C35.94711771 41.83308962 36.55476661 38.65290467 36.59375 32.51171875 C36.6083728 31.65506119 36.62299561 30.79840363 36.63806152 29.91578674 C36.70037528 26.24877695 36.74000248 22.58159907 36.78173828 18.91430664 C36.81539922 16.23826194 36.86052305 13.56257997 36.90625 10.88671875 C36.9115271 10.05337509 36.9168042 9.22003143 36.92224121 8.36143494 C37.02437743 2.49124757 37.02437743 2.49124757 39.25 0.265625 C41.74609375 0 41.74609375 0 44.6875 0.015625 C45.65558594 0.01046875 46.62367188 0.0053125 47.62109375 0 C50.25 0.265625 50.25 0.265625 53.25 2.265625 C53.6242218 4.73254395 53.6242218 4.73254395 53.62231445 7.87695312 C53.63165764 9.63888 53.63165764 9.63888 53.64118958 11.43640137 C53.63197983 12.71035767 53.62277008 13.98431396 53.61328125 15.296875 C53.61402901 17.24986511 53.61402901 17.24986511 53.61479187 19.24230957 C53.6147021 21.99971066 53.60426392 24.75681965 53.58618164 27.51416016 C53.56349394 31.05191562 53.56294973 34.58924412 53.56969929 38.12705231 C53.57384069 41.4962088 53.56186978 44.86523323 53.55078125 48.234375 C53.55169266 49.5083313 53.55260406 50.7822876 53.55354309 52.09484863 C53.54401108 53.26946655 53.53447906 54.44408447 53.5246582 55.65429688 C53.52005081 56.6919519 53.51544342 57.72960693 53.51069641 58.79870605 C53.25 61.265625 53.25 61.265625 51.25 63.265625 C48.5 63.53125 48.5 63.53125 45.25 63.515625 C44.1775 63.52078125 43.105 63.5259375 42 63.53125 C39.25 63.265625 39.25 63.265625 37.25 61.265625 C37.25 59.945625 37.25 58.625625 37.25 57.265625 C36.56292969 57.75933594 35.87585938 58.25304687 35.16796875 58.76171875 C34.26691406 59.40238281 33.36585938 60.04304688 32.4375 60.703125 C31.09751953 61.66025391 31.09751953 61.66025391 29.73046875 62.63671875 C24.11103336 66.32696215 17.74419141 65.935362 11.25 65.265625 C5.71571673 63.3465426 1.31017779 60.32668826 -1.75 55.265625 C-4.61943032 48.88960619 -5.18157838 43.65767812 -5.11328125 36.7109375 C-5.11377975 35.72817841 -5.11427826 34.74541931 -5.11479187 33.73287964 C-5.11246412 31.67053184 -5.10281295 29.60818049 -5.08618164 27.54589844 C-5.06241502 24.37930198 -5.06565208 21.21353904 -5.07226562 18.046875 C-5.06669397 16.03905746 -5.05958733 14.03124346 -5.05078125 12.0234375 C-5.05169266 11.07453644 -5.05260406 10.12563538 -5.05354309 9.14797974 C-5.04401108 8.27301849 -5.03447906 7.39805725 -5.0246582 6.49658203 C-5.02005081 5.72573273 -5.01544342 4.95488342 -5.01069641 4.16067505 C-4.55370999 0.83875691 -3.17398521 0.30657812 0 0 Z " fill="#414E4C" transform="translate(96.75,281.734375)"/>
<path d="M0 0 C6.7860915 3.75531078 10.60096973 8.63494045 13.03515625 15.9375 C13.13126549 17.41506859 13.17324585 18.89652361 13.18041992 20.37719727 C13.18679977 21.27144913 13.19317963 22.16570099 13.19975281 23.08705139 C13.20086563 24.04961349 13.20197845 25.0121756 13.203125 26.00390625 C13.2081176 27.488657 13.2081176 27.488657 13.21321106 29.00340271 C13.21827368 31.09560684 13.22061959 33.18781905 13.22045898 35.2800293 C13.22265001 38.49085654 13.24082523 41.70134274 13.25976562 44.91210938 C13.2626987 46.94270715 13.26468407 48.97330657 13.265625 51.00390625 C13.27281052 51.96849258 13.27999603 52.93307892 13.28739929 53.92689514 C13.28432266 54.81799484 13.28124603 55.70909454 13.27807617 56.62719727 C13.27950119 57.41312759 13.28092621 58.19905792 13.28239441 59.00880432 C13.03515625 60.9375 13.03515625 60.9375 11.03515625 62.9375 C8.03125 63.16796875 8.03125 63.16796875 4.47265625 63.125 C3.29574219 63.11855469 2.11882812 63.11210937 0.90625 63.10546875 C-1.96484375 62.9375 -1.96484375 62.9375 -2.96484375 61.9375 C-3.07574843 59.05226043 -3.12650135 56.1869419 -3.140625 53.30078125 C-3.16383454 51.50845194 -3.18795233 49.71613421 -3.21289062 47.92382812 C-3.2479386 45.09082434 -3.27730457 42.2582425 -3.29077148 39.42504883 C-3.30629464 36.69560083 -3.34654557 33.96739832 -3.390625 31.23828125 C-3.38871658 30.39743484 -3.38680817 29.55658844 -3.38484192 28.69026184 C-3.49619447 23.3076327 -4.41500793 20.2254743 -7.96484375 15.9375 C-10.93094732 13.60699005 -14.20413456 13.46032795 -17.93359375 13.55078125 C-22.09383642 14.34282745 -24.69989614 17.1434559 -27.10302734 20.55175781 C-28.44396257 24.2638312 -28.32452487 27.9404069 -28.37890625 31.859375 C-28.3982724 32.71936096 -28.41763855 33.57934692 -28.43759155 34.46539307 C-28.49726189 37.20599521 -28.54372235 39.94663964 -28.58984375 42.6875 C-28.62803509 44.54819517 -28.6670875 46.40887288 -28.70703125 48.26953125 C-28.8029531 52.82537864 -28.88703043 57.38130879 -28.96484375 61.9375 C-31.8311817 63.37066898 -34.33719876 63.06950361 -37.52734375 63.0625 C-39.29271484 63.06636719 -39.29271484 63.06636719 -41.09375 63.0703125 C-43.96484375 62.9375 -43.96484375 62.9375 -44.96484375 61.9375 C-45.06918993 60.07659424 -45.10339012 58.21171724 -45.11010742 56.34790039 C-45.11648727 55.15318619 -45.12286713 53.95847198 -45.12944031 52.72755432 C-45.13055313 51.42656296 -45.13166595 50.12557159 -45.1328125 48.78515625 C-45.13602351 47.44616154 -45.13938746 46.10716718 -45.14289856 44.76817322 C-45.14889583 41.9578266 -45.15073786 39.14751077 -45.15014648 36.3371582 C-45.15004484 32.7310364 -45.1636962 29.12511142 -45.18091869 25.51903629 C-45.19202234 22.75242705 -45.1940662 19.98586562 -45.19353676 17.21923637 C-45.19529565 15.24160686 -45.20614727 13.26399226 -45.21708679 11.28639221 C-45.21401016 10.08852585 -45.21093353 8.89065948 -45.20776367 7.65649414 C-45.20918869 6.59805801 -45.21061371 5.53962189 -45.21208191 4.44911194 C-44.96484375 1.9375 -44.96484375 1.9375 -42.96484375 -0.0625 C-39.25527742 -0.61400047 -35.67261837 -0.62990187 -31.96484375 -0.0625 C-29.70187037 2.39444253 -28.96484375 3.6171254 -28.96484375 6.9375 C-28.43375 6.52757812 -27.90265625 6.11765625 -27.35546875 5.6953125 C-26.29585937 4.88707031 -26.29585937 4.88707031 -25.21484375 4.0625 C-24.17070312 3.26199219 -24.17070312 3.26199219 -23.10546875 2.4453125 C-16.26762004 -2.37112838 -7.89585679 -2.82960876 0 0 Z " fill="#404E4C" transform="translate(208.96484375,282.0625)"/>
<path d="M0 0 C1.734375 1.51171875 1.734375 1.51171875 3 3 C3 6.08983617 1.72225521 7.35710045 -0.1875 9.8125 C-3 12 -3 12 -6.0625 11.9375 C-9 11 -9 11 -10.765625 9.953125 C-13.81075526 8.65415335 -16.39075521 8.7718906 -19.6875 8.8125 C-20.84636719 8.81894531 -22.00523438 8.82539063 -23.19921875 8.83203125 C-25.90461124 8.68344192 -25.90461124 8.68344192 -27 10 C-27.41702122 12.9157691 -27.41702122 12.9157691 -27 16 C-23.77613556 19.23994356 -20.1050658 19.91044501 -15.75 20.9375 C-0.40391271 24.79710559 -0.40391271 24.79710559 4.1484375 30.8359375 C6.47858795 36.75751249 6.20576519 44.36461796 4.21875 50.35546875 C0.76361026 55.94539126 -5.80361188 58.60418647 -11.83203125 60.609375 C-20.6500585 62.19820874 -30.09209359 62.18995174 -37.9375 57.578125 C-41.20914715 55.07481923 -43.54083658 52.30045617 -46 49 C-44.76446724 47.79745476 -43.51097661 46.61333768 -42.25 45.4375 C-41.55390625 44.77621094 -40.8578125 44.11492187 -40.140625 43.43359375 C-38 42 -38 42 -35.99609375 42.125 C-33.78496233 43.09426309 -31.84634982 44.26216979 -29.8125 45.5625 C-25.13639216 48.2246406 -21.30717418 48.944677 -16 48 C-13.34155783 47.15479867 -13.34155783 47.15479867 -12 45 C-11.66619186 41.37436186 -11.66619186 41.37436186 -12 38 C-18.71237299 35.51589346 -25.44424682 33.17182007 -32.2734375 31.02734375 C-37.25777503 29.14929107 -40.73880643 27.08142236 -43.26953125 22.2265625 C-45.20469509 16.32793475 -45.01171844 10.14017362 -42.375 4.5625 C-30.24181869 -8.52856405 -15.1022866 -9.22552725 0 0 Z " fill="#404D4C" transform="translate(76,286)"/>
<path d="M0 0 C0.77601563 -0.00515625 1.55203125 -0.0103125 2.3515625 -0.015625 C4.375 0.25 4.375 0.25 6.375 2.25 C6.5703125 5.2890625 6.5703125 5.2890625 6.5 8.875 C6.48195313 10.06351562 6.46390625 11.25203125 6.4453125 12.4765625 C6.42210937 13.39179688 6.39890625 14.30703125 6.375 15.25 C3.43233813 16.12214639 1.0508009 16.26053444 -2 16.0625 C-6.65069395 16.02431696 -9.07288186 17.11091885 -12.625 20.25 C-16.45847786 24.9631343 -17.20383759 28.72644206 -17.1640625 34.640625 C-17.17585541 35.42644958 -17.18764832 36.21227417 -17.19979858 37.02191162 C-17.23491379 39.5148126 -17.24421772 42.00687232 -17.25 44.5 C-17.26633641 47.00715841 -17.2883135 49.51394329 -17.32162476 52.02093506 C-17.34127974 53.57670429 -17.35058691 55.13264556 -17.34854126 56.6885376 C-17.40151472 62.02651472 -17.40151472 62.02651472 -19.625 64.25 C-22.375 64.515625 -22.375 64.515625 -25.625 64.5 C-27.23375 64.50773437 -27.23375 64.50773437 -28.875 64.515625 C-31.625 64.25 -31.625 64.25 -33.625 62.25 C-33.87896729 59.78308105 -33.87896729 59.78308105 -33.88378906 56.63867188 C-33.89009338 55.46405396 -33.89639771 54.28943604 -33.90289307 53.07922363 C-33.8988446 51.80526733 -33.89479614 50.53131104 -33.890625 49.21875 C-33.89253845 47.91675659 -33.8944519 46.61476318 -33.89642334 45.27331543 C-33.89937391 42.51598372 -33.89507924 39.75878151 -33.88574219 37.00146484 C-33.87434753 33.46372927 -33.88090738 29.92629713 -33.89288712 26.38857269 C-33.90184394 23.01944066 -33.8955764 19.65039066 -33.890625 16.28125 C-33.89467346 15.0072937 -33.89872192 13.7333374 -33.90289307 12.42077637 C-33.89658875 11.24615845 -33.89028442 10.07154053 -33.88378906 8.86132812 C-33.88219788 7.8236731 -33.88060669 6.78601807 -33.87896729 5.71691895 C-33.625 3.25 -33.625 3.25 -31.625 1.25 C-29.12890625 0.94921875 -29.12890625 0.94921875 -26.1875 0.9375 C-25.21941406 0.92074219 -24.25132812 0.90398437 -23.25390625 0.88671875 C-20.625 1.25 -20.625 1.25 -18.83984375 2.45703125 C-17.33498331 4.67803106 -16.98146143 6.61218539 -16.625 9.25 C-16.09390625 8.76789063 -15.5628125 8.28578125 -15.015625 7.7890625 C-14.30921875 7.15742188 -13.6028125 6.52578125 -12.875 5.875 C-12.17890625 5.24851562 -11.4828125 4.62203125 -10.765625 3.9765625 C-7.19819368 1.09918177 -4.6002058 -0.03077061 0 0 Z " fill="#404D4B" transform="translate(336.625,280.75)"/>
<path d="M0 0 C4.74122308 2.2462276 8.12529517 5.64640077 11 10 C12.79905338 15.33328842 13.14272272 21.28866898 10.94140625 26.51171875 C7.68046916 31.85824163 4.13142782 35.3853555 -2 37 C-7.82707342 37.96125445 -12.4866708 37.87634412 -17.4375 34.4375 C-21.90867429 30.48046485 -24.59748288 27.11531481 -25.375 21.09765625 C-25.56347183 16.33285272 -25.42966264 12.90890174 -23.375 8.5625 C-16.20387241 0.82523075 -10.66829803 -1.33353725 0 0 Z " fill="#FAFBFB" transform="translate(393,296)"/>
<path d="M0 0 C1.12921875 -0.00515625 2.2584375 -0.0103125 3.421875 -0.015625 C6.25 0.25 6.25 0.25 8.25 2.25 C8.72433963 6.3609435 8.48978787 8.75124123 6.6875 12.5 C3.12529524 16.51889768 -0.08643012 17.87543549 -5.25 18.6015625 C-9.73043832 18.85492062 -12.06149413 18.70441387 -15.875 16.1875 C-18.23891091 12.48403958 -18.53451283 10.56482057 -17.75 6.25 C-12.92222588 0.99624581 -6.88725727 -0.03173851 0 0 Z " fill="#F8F9F9" transform="translate(265.75,316.75)"/>
<path d="M0 0 C1.44375 0.144375 2.8875 0.28875 4.375 0.4375 C5.59316406 0.55931641 5.59316406 0.55931641 6.8359375 0.68359375 C9 1 9 1 11 2 C10.03644647 11.41002278 10.03644647 11.41002278 9 16 C7.56163249 15.88541307 6.12429034 15.75790884 4.6875 15.625 C3.48673828 15.52058594 3.48673828 15.52058594 2.26171875 15.4140625 C0 15 0 15 -3 13 C-2.01 8.71 -1.02 4.42 0 0 Z " fill="#E23F29" transform="translate(528,342)"/>
<path d="M0 0 C1.99396257 2.66083969 4 5.61242325 4 9 C2.28515625 10.21875 2.28515625 10.21875 0.0625 11.5 C-3.05432026 13.18454879 -3.05432026 13.18454879 -5 16 C-7.3125 15.9375 -7.3125 15.9375 -10 15 C-13.11396648 9.49865922 -13.11396648 9.49865922 -12.84375 5.9453125 C-11.67326749 3.24670005 -10.19150466 2.56211657 -7.625 1.1875 C-6.83351563 0.74792969 -6.04203125 0.30835938 -5.2265625 -0.14453125 C-3 -1 -3 -1 0 0 Z " fill="#F3AB0C" transform="translate(468,433)"/>
<path d="M0 0 C3.63 0.66 7.26 1.32 11 2 C10.14285714 11.57142857 10.14285714 11.57142857 8 16 C6.54119891 15.85892253 5.08296449 15.71197585 3.625 15.5625 C2.40683594 15.44068359 2.40683594 15.44068359 1.1640625 15.31640625 C-1 15 -1 15 -3 14 C-2.40380045 9.13103697 -1.43023178 4.67209049 0 0 Z " fill="#E23E28" transform="translate(503,335)"/>
<path d="M0 0 C4 2.66666667 8 5.33333333 12 8 C10.84414715 11.91211733 9.64465038 14.8745041 7 18 C2.69235185 16.43358249 -1.06171464 14.31663844 -5 12 C-4.42365861 7.24518354 -2.44931479 4.02951788 0 0 Z " fill="#8EBE2C" transform="translate(473,150)"/>
<path d="M0 0 C1.46015291 0.28241641 2.91809793 0.57626614 4.375 0.875 C5.18710937 1.03742188 5.99921875 1.19984375 6.8359375 1.3671875 C9 2 9 2 11 4 C10.5390625 6.8203125 10.5390625 6.8203125 9.625 10.125 C9.18027344 11.76855469 9.18027344 11.76855469 8.7265625 13.4453125 C8.36691406 14.70988281 8.36691406 14.70988281 8 16 C3.65736138 16.16702456 0.79039366 16.12999997 -3 14 C-2.88512252 12.41590006 -2.75765492 10.83271037 -2.625 9.25 C-2.55539062 8.36828125 -2.48578125 7.4865625 -2.4140625 6.578125 C-2.00149945 4.00933618 -1.28839043 2.24158985 0 0 Z " fill="#E23D26" transform="translate(478,328)"/>
<path d="M0 0 C0.99 0 1.98 0 3 0 C3.70492893 1.21925475 4.38825901 2.4510106 5.0625 3.6875 C5.44535156 4.37199219 5.82820313 5.05648437 6.22265625 5.76171875 C7.22779724 8.65591869 7.06916929 10.13648572 6 13 C4.00390625 14.58203125 4.00390625 14.58203125 1.5625 15.8125 C0.35787109 16.44091797 0.35787109 16.44091797 -0.87109375 17.08203125 C-3 18 -3 18 -5 18 C-8.95623216 11.7659372 -8.95623216 11.7659372 -9.125 8.8125 C-7.34812738 5.94976078 -4.88092666 4.64624381 -2 3 C-1.34 3 -0.68 3 0 3 C0 2.01 0 1.02 0 0 Z " fill="#E13822" transform="translate(302,150)"/>
<path d="M0 0 C1.65 3.3 3.3 6.6 5 10 C3.21190303 11.17213045 1.41940875 12.33755526 -0.375 13.5 C-1.37273437 14.1496875 -2.37046875 14.799375 -3.3984375 15.46875 C-6 17 -6 17 -8 17 C-9.65 13.7 -11.3 10.4 -13 7 C-2.57446809 0 -2.57446809 0 0 0 Z " fill="#F3AB0D" transform="translate(454,409)"/>
<path d="M0 0 C3.96 0 7.92 0 12 0 C12 4.62 12 9.24 12 14 C8.04 14 4.08 14 0 14 C0 9.38 0 4.76 0 0 Z " fill="#E13821" transform="translate(558,304)"/>
<path d="M0 0 C3.05112008 2.18843332 4.51141415 4.89529914 5.87890625 8.34765625 C6.12890625 11.03515625 6.12890625 11.03515625 4.87890625 13.34765625 C2.3297041 14.98299348 -0.3204301 16.2057 -3.12109375 17.34765625 C-4.2932242 15.55955928 -5.45864901 13.767065 -6.62109375 11.97265625 C-7.27078125 10.97492188 -7.92046875 9.9771875 -8.58984375 8.94921875 C-10.12109375 6.34765625 -10.12109375 6.34765625 -10.12109375 4.34765625 C-8.51171875 2.98828125 -8.51171875 2.98828125 -6.37109375 1.59765625 C-5.675 1.1284375 -4.97890625 0.65921875 -4.26171875 0.17578125 C-2.12109375 -0.65234375 -2.12109375 -0.65234375 0 0 Z " fill="#0EA1A2" transform="translate(519.12109375,228.65234375)"/>
<path d="M0 0 C5.4185766 -0.22577402 9.77487721 0.53329887 15 2 C14.34 5.63 13.68 9.26 13 13 C2.375 12.25 2.375 12.25 -1 10 C-0.67 6.7 -0.34 3.4 0 0 Z " fill="#F3AC10" transform="translate(407,212)"/>
<path d="M0 0 C4.62 0 9.24 0 14 0 C14 3.96 14 7.92 14 12 C9.38 12 4.76 12 0 12 C0 8.04 0 4.08 0 0 Z " fill="#F3AD13" transform="translate(382,209)"/>
<path d="M0 0 C8.49609375 -0.09765625 8.49609375 -0.09765625 11 0 C12 1 12 1 12.09765625 3.94140625 C12.08605469 5.13636719 12.07445312 6.33132813 12.0625 7.5625 C12.05347656 8.76003906 12.04445313 9.95757812 12.03515625 11.19140625 C12.02355469 12.11824219 12.01195312 13.04507812 12 14 C8.04 14 4.08 14 0 14 C0 9.38 0 4.76 0 0 Z " fill="#E23E28" transform="translate(453,304)"/>
<path d="M0 0 C1.43668294 3.8610854 2.11185208 6.896427 2 11 C0.23050388 11.50471197 -1.54065223 12.00360685 -3.3125 12.5 C-4.29863281 12.7784375 -5.28476562 13.056875 -6.30078125 13.34375 C-9 14 -9 14 -12 14 C-13.19287411 10.12315913 -14 7.08378077 -14 3 C-12.4188708 2.49307308 -10.83498617 1.99473557 -9.25 1.5 C-7.92742187 1.08234375 -7.92742187 1.08234375 -6.578125 0.65625 C-4 0 -4 0 0 0 Z " fill="#E13B25" transform="translate(363,186)"/>
<path d="M0 0 C3.99455527 0.61454696 6.74466336 2.70646737 10 5 C8.68139111 9.61513112 6.78644563 13.09897612 4 17 C0.00544473 16.38545304 -2.74466336 14.29353263 -6 12 C-4.68139111 7.38486888 -2.78644563 3.90102388 0 0 Z " fill="#E13822" transform="translate(470,351)"/>
<path d="M0 0 C3.95820859 0.56545837 6.6659053 1.80902348 10 4 C9.51675181 9.15464734 6.81389239 12.81550319 4 17 C0.08788267 15.84414715 -2.8745041 14.64465038 -6 12 C-4.68139111 7.38486888 -2.78644563 3.90102388 0 0 Z " fill="#E13A24" transform="translate(447,338)"/>
<path d="M0 0 C1.1577506 3.47325181 1.06866652 6.36067448 1 10 C-0.57914015 10.53341184 -2.16354387 11.05125763 -3.75 11.5625 C-4.63171875 11.85253906 -5.5134375 12.14257812 -6.421875 12.44140625 C-9 13 -9 13 -13 12 C-13.33 8.7 -13.66 5.4 -14 2 C-4.42857143 -1.57142857 -4.42857143 -1.57142857 0 0 Z " fill="#E13B24" transform="translate(377,238)"/>
<path d="M0 0 C4.61513112 1.31860889 8.09897612 3.21355437 12 6 C11.43454163 9.95820859 10.19097652 12.6659053 8 16 C2.84535266 15.51675181 -0.81550319 12.81389239 -5 10 C-3.84414715 6.08788267 -2.64465038 3.1254959 0 0 Z " fill="#8EBE2B" transform="translate(433,220)"/>
<path d="M0 0 C1.203125 1.5234375 1.203125 1.5234375 2.25 3.375 C2.78367187 4.28378906 2.78367187 4.28378906 3.328125 5.2109375 C4 7 4 7 3 10 C1.07421875 11.45703125 1.07421875 11.45703125 -1.3125 12.8125 C-2.48232422 13.50279297 -2.48232422 13.50279297 -3.67578125 14.20703125 C-6 15 -6 15 -8.1796875 14.28515625 C-10.67618368 12.52260852 -11.74626791 10.77140777 -13 8 C-12.84765625 6.01171875 -12.84765625 6.01171875 -12 4 C-10.0390625 2.48046875 -10.0390625 2.48046875 -7.625 1.1875 C-6.83351563 0.74792969 -6.04203125 0.30835938 -5.2265625 -0.14453125 C-3 -1 -3 -1 0 0 Z " fill="#E13923" transform="translate(332,198)"/>
<path d="M0 0 C4 6.625 4 6.625 4 10 C1.91796875 11.640625 1.91796875 11.640625 -0.8125 13.25 C-2.15248047 14.06210937 -2.15248047 14.06210937 -3.51953125 14.890625 C-6 16 -6 16 -9 15 C-10.203125 13.4765625 -10.203125 13.4765625 -11.25 11.625 C-11.60578125 11.01914062 -11.9615625 10.41328125 -12.328125 9.7890625 C-13 8 -13 8 -12 5 C-10.0390625 3.61328125 -10.0390625 3.61328125 -7.625 2.3125 C-6.83351563 1.87550781 -6.04203125 1.43851562 -5.2265625 0.98828125 C-3 0 -3 0 0 0 Z " fill="#F3AB0C" transform="translate(428,364)"/>
<path d="M0 0 C0.50757862 1.41396902 1.00574925 2.83131729 1.5 4.25 C1.7784375 5.03890625 2.056875 5.8278125 2.34375 6.640625 C3 9 3 9 3 13 C-0.82989106 14.80230168 -3.78121808 15.19622241 -8 15 C-11.42857143 6.57142857 -11.42857143 6.57142857 -11 2 C-7.17010894 0.19769832 -4.21878192 -0.19622241 0 0 Z " fill="#0EA1A2" transform="translate(486,279)"/>
<path d="M0 0 C1.6171875 1.9609375 1.6171875 1.9609375 2.875 4.375 C3.30554688 5.16648438 3.73609375 5.95796875 4.1796875 6.7734375 C5 9 5 9 4 12 C1.33916031 13.99396257 -1.61242325 16 -5 16 C-6.54296875 13.953125 -6.54296875 13.953125 -8.1875 11.25 C-8.73792969 10.36828125 -9.28835938 9.4865625 -9.85546875 8.578125 C-11 6 -11 6 -10.81640625 3.78515625 C-8.65051444 -0.95078899 -4.50180124 -1.52163687 0 0 Z " fill="#0CA0A1" transform="translate(498,243)"/>
<path d="M0 0 C2.45421861 1.73642564 3.50753725 3.6019748 4.81640625 6.28515625 C4.81640625 7.27515625 4.81640625 8.26515625 4.81640625 9.28515625 C2.76953125 10.9609375 2.76953125 10.9609375 0.06640625 12.59765625 C-0.8153125 13.15066406 -1.69703125 13.70367187 -2.60546875 14.2734375 C-5.18359375 15.28515625 -5.18359375 15.28515625 -7.3984375 14.6015625 C-9.84025242 12.80092437 -10.93765642 11.03933351 -12.18359375 8.28515625 C-12.02734375 6.30078125 -12.02734375 6.30078125 -11.18359375 4.28515625 C-9.2578125 2.73046875 -9.2578125 2.73046875 -6.87109375 1.41015625 C-5.70126953 0.73339844 -5.70126953 0.73339844 -4.5078125 0.04296875 C-2.18359375 -0.71484375 -2.18359375 -0.71484375 0 0 Z " fill="#E13922" transform="translate(344.18359375,220.71484375)"/>
<path d="M0 0 C4.49797113 1.68673918 8.72886302 3.81673892 13 6 C11.66511872 9.59391114 10.03977277 12.75490696 8 16 C2.84535266 15.51675181 -0.81550319 12.81389239 -5 10 C-3.66511872 6.40608886 -2.03977277 3.24509304 0 0 Z " fill="#8EBE2B" transform="translate(446,197)"/>
<path d="M0 0 C3.07684111 2.02192416 4.92027706 4.54049291 7.1875 7.4375 C3.8875 10.4075 0.5875 13.3775 -2.8125 16.4375 C-7.43940847 13.66135492 -8.52882324 12.88466001 -10.8125 8.4375 C-9.69145467 7.12162059 -8.56553035 5.80989647 -7.4375 4.5 C-6.81101562 3.76910156 -6.18453125 3.03820312 -5.5390625 2.28515625 C-2.63849604 -0.8188436 -2.63849604 -0.8188436 0 0 Z " fill="#F3AB0D" transform="translate(458.8125,371.5625)"/>
<path d="M0 0 C3.63 0 7.26 0 11 0 C11 4.95 11 9.9 11 15 C3.28515625 15.09765625 3.28515625 15.09765625 1 15 C0 14 0 14 -0.09765625 10.83984375 C-0.08025391 8.90818359 -0.08025391 8.90818359 -0.0625 6.9375 C-0.05347656 5.64714844 -0.04445313 4.35679687 -0.03515625 3.02734375 C-0.02355469 2.02832031 -0.01195312 1.02929688 0 0 Z " fill="#E2412C" transform="translate(532,304)"/>
<path d="M0 0 C2.92891352 2.53839172 4.23095964 5.09335774 5.875 8.625 C6 10.8125 6 10.8125 4.875 12.625 C-0.23611111 16.625 -0.23611111 16.625 -4.125 16.625 C-5.80078125 14.578125 -5.80078125 14.578125 -7.4375 11.875 C-7.99050781 10.99328125 -8.54351562 10.1115625 -9.11328125 9.203125 C-10.125 6.625 -10.125 6.625 -9.47265625 4.4140625 C-7.12423758 1.29645163 -3.95461898 -0.69787394 0 0 Z " fill="#0CA0A1" transform="translate(451.125,268.375)"/>
<path d="M0 0 C2.6050576 1.05213977 3.36490075 2.24864833 4.82421875 4.625 C5.26378906 5.31207031 5.70335937 5.99914062 6.15625 6.70703125 C7.01171875 8.8125 7.01171875 8.8125 6.86328125 10.93359375 C5.30638487 14.3687642 2.3058302 15.19433999 -0.98828125 16.8125 C-1.64828125 16.8125 -2.30828125 16.8125 -2.98828125 16.8125 C-4.56640625 14.765625 -4.56640625 14.765625 -6.23828125 12.0625 C-6.8003125 11.18078125 -7.36234375 10.2990625 -7.94140625 9.390625 C-8.98828125 6.8125 -8.98828125 6.8125 -8.30859375 4.59765625 C-6.18869097 1.73139716 -3.69239229 -0.34820202 0 0 Z " fill="#0BA0A1" transform="translate(472.98828125,255.1875)"/>
<path d="M0 0 C5.15464734 0.48324819 8.81550319 3.18610761 13 6 C11.84414715 9.91211733 10.64465038 12.8745041 8 16 C3.69235185 14.43358249 -0.06171464 12.31663844 -4 10 C-3.29445932 6.33118845 -1.72264494 3.29549466 0 0 Z " fill="#8DBE2A" transform="translate(419,243)"/>
<path d="M0 0 C4 6.625 4 6.625 4 10 C1.91796875 11.640625 1.91796875 11.640625 -0.8125 13.25 C-2.15248047 14.06210937 -2.15248047 14.06210937 -3.51953125 14.890625 C-6 16 -6 16 -9 15 C-10.203125 13.4765625 -10.203125 13.4765625 -11.25 11.625 C-11.60578125 11.01914063 -11.9615625 10.41328125 -12.328125 9.7890625 C-13 8 -13 8 -12 5 C-10.0390625 3.61328125 -10.0390625 3.61328125 -7.625 2.3125 C-6.83351563 1.87550781 -6.04203125 1.43851563 -5.2265625 0.98828125 C-3 0 -3 0 0 0 Z " fill="#E13822" transform="translate(358,243)"/>
<path d="M0 0 C1.62950412 4.12168689 2.26264601 6.70700357 1 11 C-0.41538717 11.33872513 -1.83237963 11.67074624 -3.25 12 C-4.03890625 12.185625 -4.8278125 12.37125 -5.640625 12.5625 C-8 13 -8 13 -12 13 C-13.80230168 9.17010894 -14.19622241 6.21878192 -14 2 C-9.07262981 0.02905192 -5.21979128 -0.1799928 0 0 Z " fill="#E13A24" transform="translate(370,212)"/>
<path d="M0 0 C3.08078534 3.93065716 3.08078534 3.93065716 2.8515625 6.96484375 C1.68239552 9.75904557 0.09963639 10.64247038 -2.4375 12.25 C-3.24058594 12.77078125 -4.04367187 13.2915625 -4.87109375 13.828125 C-7 15 -7 15 -9 15 C-10.32421875 13.35546875 -10.32421875 13.35546875 -11.6875 11.1875 C-12.14511719 10.47980469 -12.60273438 9.77210938 -13.07421875 9.04296875 C-14 7 -14 7 -13 4 C-11.07421875 2.578125 -11.07421875 2.578125 -8.6875 1.25 C-7.90761719 0.80140625 -7.12773437 0.3528125 -6.32421875 -0.109375 C-3.65818015 -1.13098307 -2.59724339 -1.12027022 0 0 Z " fill="#F3AB0C" transform="translate(442,388)"/>
<path d="M0 0 C1.45184478 4.53701494 2.23509196 8.18061476 2 13 C-2.12168689 14.62950412 -4.70700357 15.26264601 -9 14 C-10.45184478 9.46298506 -11.23509196 5.81938524 -11 1 C-6.87831311 -0.62950412 -4.29299643 -1.26264601 0 0 Z " fill="#0EA1A2" transform="translate(461,286)"/>
<path d="M0 0 C1.32421875 1.64453125 1.32421875 1.64453125 2.6875 3.8125 C3.14511719 4.52019531 3.60273438 5.22789062 4.07421875 5.95703125 C5 8 5 8 4 11 C2.07421875 12.421875 2.07421875 12.421875 -0.3125 13.75 C-1.09238281 14.19859375 -1.87226563 14.6471875 -2.67578125 15.109375 C-5 16 -5 16 -7.18359375 15.8203125 C-10.20439453 14.45607989 -10.81657499 11.95856251 -12 9 C-12 8.01 -12 7.02 -12 6 C-9.8828125 4.39453125 -9.8828125 4.39453125 -7.125 2.8125 C-6.22007812 2.28269531 -5.31515625 1.75289062 -4.3828125 1.20703125 C-2 0 -2 0 0 0 Z " fill="#E13821" transform="translate(318,174)"/>
<path d="M0 0 C4.86896303 0.59619955 9.32790951 1.56976822 14 3 C13.69078116 4.45903258 13.37751201 5.91720722 13.0625 7.375 C12.88847656 8.18710938 12.71445312 8.99921875 12.53515625 9.8359375 C12 12 12 12 11 14 C6.71 13.01 2.42 12.02 -2 11 C-2 5.99852013 -1.97103025 4.18843928 0 0 Z " fill="#F3AA0A" transform="translate(401,237)"/>
<path d="M0 0 C5.15464734 0.48324819 8.81550319 3.18610761 13 6 C12.43457996 7.32031595 11.84693528 8.6311301 11.25 9.9375 C10.92515625 10.66839844 10.6003125 11.39929688 10.265625 12.15234375 C9 14 9 14 7.15625 14.90625 C4.23072282 15.03344683 2.73918955 14.06333487 0.25 12.5625 C-0.54921875 12.08941406 -1.3484375 11.61632812 -2.171875 11.12890625 C-2.77515625 10.75636719 -3.3784375 10.38382813 -4 10 C-3.5205537 5.78087253 -2.83374881 3.20336822 0 0 Z " fill="#8CBD28" transform="translate(459,175)"/>
<path d="M0 0 C4.34263862 -0.16702456 7.20960634 -0.12999997 11 2 C10.69128878 3.79232337 10.37790936 5.58384321 10.0625 7.375 C9.88847656 8.37273437 9.71445312 9.37046875 9.53515625 10.3984375 C9 13 9 13 8 15 C6.52031676 14.85950482 5.04125484 14.71245174 3.5625 14.5625 C2.73878906 14.48128906 1.91507812 14.40007812 1.06640625 14.31640625 C-1 14 -1 14 -2 13 C-2.24661958 8.06760838 -2.25068913 4.50137826 0 0 Z " fill="#E1361F" transform="translate(452,322)"/>
<path d="M0 0 C3.63 0 7.26 0 11 0 C11 4.62 11 9.24 11 14 C7.37 14 3.74 14 0 14 C0 9.38 0 4.76 0 0 Z " fill="#E13A24" transform="translate(506,304)"/>
<path d="M0 0 C3.63 0 7.26 0 11 0 C11 4.62 11 9.24 11 14 C7.37 14 3.74 14 0 14 C0 9.38 0 4.76 0 0 Z " fill="#E13C25" transform="translate(479,304)"/>
<path d="M0 0 C4.62 0 9.24 0 14 0 C14 3.63 14 7.26 14 11 C9.38 11 4.76 11 0 11 C0 7.37 0 3.74 0 0 Z " fill="#F3AC0F" transform="translate(382,236)"/>
<path d="M0 0 C3.98882376 1.53416298 7.64783382 4.4247074 10 8 C9.82462323 10.52347684 9.33271225 11.64977658 7.58984375 13.484375 C6.05989583 14.65625 4.52994792 15.828125 3 17 C1.46452525 15.59921602 -0.05305148 14.17879097 -1.5625 12.75 C-2.40941406 11.96109375 -3.25632812 11.1721875 -4.12890625 10.359375 C-6 8 -6 8 -5.9375 5.84375 C-4.557468 3.12968707 -2.43860785 1.75079538 0 0 Z " fill="#8FBF2D" transform="translate(455,235)"/>
<path d="M0 0 C4.62 0 9.24 0 14 0 C14 3.63 14 7.26 14 11 C9.38 11 4.76 11 0 11 C0 7.37 0 3.74 0 0 Z " fill="#F3A908" transform="translate(382,157)"/>
<path d="M0 0 C2.14576637 -0.02685938 4.29162645 -0.04633088 6.4375 -0.0625 C7.63246094 -0.07410156 8.82742188 -0.08570313 10.05859375 -0.09765625 C13 0 13 0 14 1 C14.14257189 4.33618231 14.04228157 7.65975606 14 11 C9.38 11 4.76 11 0 11 C0 7.37 0 3.74 0 0 Z " fill="#F3AB0C" transform="translate(382,183)"/>
<path d="M0 0 C2.50970684 0.94527564 3.64154088 2.07142229 5.38671875 4.09375 C5.91910156 4.68800781 6.45148438 5.28226563 7 5.89453125 C8.07421875 7.78125 8.07421875 7.78125 7.87109375 9.87109375 C6.79756692 12.44440072 5.12312919 13.93062121 3.07421875 15.78125 C-0.1410243 14.37280282 -2.24761993 12.67780214 -4.67578125 10.15625 C-5.289375 9.52460938 -5.90296875 8.89296875 -6.53515625 8.2421875 C-7.22351563 7.51902344 -7.22351563 7.51902344 -7.92578125 6.78125 C-6.2657696 3.233526 -4.47450908 -0.50826067 0 0 Z " fill="#8EBE2C" transform="translate(474.92578125,217.21875)"/>
<path d="M0 0 C2.63826798 0.9857265 3.95539156 2.3207567 5.8828125 4.359375 C6.49640625 5.00003906 7.11 5.64070313 7.7421875 6.30078125 C8.20109375 6.79449219 8.66 7.28820312 9.1328125 7.796875 C7.02566964 13.79412775 7.02566964 13.79412775 4.1328125 15.796875 C1.34148953 15.53409355 0.25021735 14.90974592 -1.7890625 12.94921875 C-2.69398438 11.85287109 -2.69398438 11.85287109 -3.6171875 10.734375 C-4.23078125 10.00089844 -4.844375 9.26742188 -5.4765625 8.51171875 C-5.93546875 7.94582031 -6.394375 7.37992187 -6.8671875 6.796875 C-3.39534313 -0.36936787 -3.39534313 -0.36936787 0 0 Z " fill="#8EBE2C" transform="translate(436.8671875,254.203125)"/>
<path d="M0 0 C3.03221579 1.4403025 4.201517 4.08156426 5.875 6.890625 C4.42282324 8.39658608 2.96307139 9.89524604 1.5 11.390625 C0.68789063 12.2259375 -0.12421875 13.06125 -0.9609375 13.921875 C-3.125 15.890625 -3.125 15.890625 -5.125 15.890625 C-7.75 13.640625 -7.75 13.640625 -10.125 10.890625 C-10.125 6.890625 -10.125 6.890625 -8.515625 4.93359375 C-7.80921875 4.32128906 -7.1028125 3.70898438 -6.375 3.078125 C-5.67890625 2.45292969 -4.9828125 1.82773437 -4.265625 1.18359375 C-2.125 -0.109375 -2.125 -0.109375 0 0 Z " fill="#F3AC0F" transform="translate(440.125,353.109375)"/>
<path d="M0 0 C4 2 4 2 8 7 C4.7 9.97 1.4 12.94 -2 16 C-5.12613393 13.03839944 -7.04783565 10.90432869 -9 7 C-6.03 4.69 -3.06 2.38 0 0 Z " fill="#F3AB0C" transform="translate(476,390)"/>
</svg>
