<?xml version="1.0" encoding="UTF-8"?>
<svg version="1.1" xmlns="http://www.w3.org/2000/svg" width="1760" height="995">
<path d="M0 0 C580.8 0 1161.6 0 1760 0 C1760 328.35 1760 656.7 1760 995 C1179.2 995 598.4 995 0 995 C0 666.65 0 338.3 0 0 Z " fill="#F61415" transform="translate(0,0)"/>
<path d="M0 0 C0.86818359 0.25233398 1.73636719 0.50466797 2.63085938 0.76464844 C16.77329547 4.98781248 29.31244401 11.53615634 42 19 C42.75861328 19.44279297 43.51722656 19.88558594 44.29882812 20.34179688 C54.16038144 26.14428835 63.16523471 32.73892727 72 40 C71.39818049 44.19064263 69.9645442 47.24035867 67.89453125 50.91796875 C67.42068748 51.7675415 67.42068748 51.7675415 66.93727112 52.63427734 C65.90162223 54.48874809 64.85699335 56.33799887 63.8125 58.1875 C62.34988583 60.80042299 60.89192079 63.41593248 59.43359375 66.03125 C59.06312927 66.69408493 58.69266479 67.35691986 58.31097412 68.0398407 C54.00537761 75.75506093 49.84396691 83.54621526 45.69458008 91.34643555 C42.30853777 97.68016926 38.75864715 103.8797623 35 110 C31.53141166 108.33861772 28.77123483 106.33001417 25.75 103.9375 C13.93603678 94.87963626 0.67710408 88.69510483 -13 83 C-14.62035156 82.24203125 -14.62035156 82.24203125 -16.2734375 81.46875 C-21.01755434 79.43298594 -26.03487329 78.46459937 -31.0625 77.375 C-32.02994141 77.1584375 -32.99738281 76.941875 -33.99414062 76.71875 C-53.25778478 72.44673035 -74.10856311 71.70285437 -93 78 C-94.66511507 78.12657125 -96.33223796 78.22765745 -98 78.3125 C-105.39645207 78.95012518 -112.17361352 80.70356098 -118 85.4375 C-121.59628143 90.04523558 -123.42018198 93.10600957 -123.375 99.0625 C-123.38273438 100.08472656 -123.39046875 101.10695313 -123.3984375 102.16015625 C-122.95754857 105.30257047 -122.10517879 106.67762023 -120 109 C-119.484375 107.80375 -118.96875 106.6075 -118.4375 105.375 C-115.59795791 99.65535094 -111.21450639 96.47633759 -106 93 C-104.68 93 -103.36 93 -102 93 C-103.53108747 96.30837997 -105.44443753 99.16236565 -107.5625 102.125 C-112.68541377 109.3034696 -112.63500347 115.35488137 -112 124 C-110.84233292 128.3586863 -108.81814311 130.47161591 -105 132.9375 C-99.89812394 134.76837018 -94.33269816 134.23642504 -89 134 C-89.04640625 133.24976563 -89.0928125 132.49953125 -89.140625 131.7265625 C-89.44262859 123.16260369 -88.47063637 115.40175662 -82.4375 108.875 C-80 107 -80 107 -77 107 C-77.41552266 109.49313595 -77.77250901 111.59401607 -79.015625 113.8125 C-81.26032299 118.80071777 -80.78285306 125.24222217 -79.3125 130.421875 C-77.2096485 135.08319582 -74.80882259 137.97523259 -70 140 C-62.26694963 140.94569788 -57.36409548 140.62843307 -51 136 C-43.70212271 135.42479785 -37.63884537 136.87437733 -30.6875 139 C-29.63933105 139.31541748 -28.59116211 139.63083496 -27.51123047 139.95581055 C-4.68815701 146.98374198 15.68937087 156.55266241 34 172 C34.74378906 172.58007812 35.48757813 173.16015625 36.25390625 173.7578125 C55.58846989 189.30358286 68.4981044 215.94413615 72 240 C72.90965527 256.18559033 73.03390434 272.4666056 68 288 C67.75330566 288.78407227 67.50661133 289.56814453 67.25244141 290.37597656 C62.5642153 304.96732483 55.85855605 317.18729809 46 329 C45.43152344 329.71414063 44.86304688 330.42828125 44.27734375 331.1640625 C27.68641495 351.10135699 3.23632383 361.44141171 -21.125 368.3125 C-21.9701416 368.55508545 -22.8152832 368.7976709 -23.68603516 369.04760742 C-38.43145973 373.00762319 -53.20159747 373.32391187 -68.3659668 373.26074219 C-71.45706404 373.24993158 -74.54759114 373.26074613 -77.63867188 373.2734375 C-79.63281376 373.27211715 -81.6269553 373.26955733 -83.62109375 373.265625 C-84.53064316 373.26967346 -85.44019257 373.27372192 -86.37730408 373.27789307 C-92.17951463 373.23578201 -97.38525546 372.41392474 -103 371 C-104.85122869 370.69023265 -106.70523737 370.39625445 -108.5625 370.125 C-118.92095737 368.44059016 -129.29134533 366.02165075 -139 362 C-140.03640625 361.61457031 -141.0728125 361.22914063 -142.140625 360.83203125 C-158.54867997 354.60046144 -173.73895825 346.20604774 -188 336 C-188.93392578 335.34136963 -188.93392578 335.34136963 -189.88671875 334.66943359 C-191.73029079 333.36040242 -193.55529125 332.02945322 -195.375 330.6875 C-196.43460938 329.90761719 -197.49421875 329.12773438 -198.5859375 328.32421875 C-201.33155293 325.68078642 -201.71527774 324.72218941 -202 321 C-201.1105957 318.57836914 -201.1105957 318.57836914 -199.67578125 316.03515625 C-199.14774902 315.08157227 -198.6197168 314.12798828 -198.07568359 313.14550781 C-197.49383301 312.12811523 -196.91198242 311.11072266 -196.3125 310.0625 C-195.10280447 307.89196059 -193.89317037 305.72138693 -192.68359375 303.55078125 C-191.75716064 301.90650146 -191.75716064 301.90650146 -190.81201172 300.22900391 C-188.1182223 295.42867262 -185.49904973 290.58867635 -182.875 285.75 C-177.27786593 275.48470517 -171.64300324 265.24013402 -166 255 C-162.11259052 255.73410308 -160.21154821 257.53723577 -157.2734375 260.140625 C-144.9115688 270.25101934 -129.65687084 277.86933037 -115 284 C-113.23440405 284.77706182 -111.47020779 285.55730774 -109.70703125 286.33984375 C-90.13652636 295.61407377 -90.13652636 295.61407377 -69 299 C-67.67228145 297.86692461 -67.67228145 297.86692461 -67.5 294.9375 C-68.37593232 288.03953298 -73.06557109 284.45773859 -78.359375 280.33984375 C-80.13507 278.9790694 -81.91978351 277.63784066 -83.73120117 276.32495117 C-85.18654094 275.25954466 -86.59778907 274.13442027 -88 273 C-88 272.34 -88 271.68 -88 271 C-83.19535245 271.56868363 -79.50557549 272.96353909 -75.1875 275.125 C-73.47626953 275.96417969 -73.47626953 275.96417969 -71.73046875 276.8203125 C-69.54250948 277.9709652 -67.90935322 279.08497191 -66.09692383 280.78393555 C-59.73363386 286.70801487 -53.7699123 286.93611037 -45.41821289 286.63793945 C-44.37588501 286.60059692 -44.37588501 286.60059692 -43.3125 286.5625 C-41.93037486 286.54448287 -40.54820685 286.52949216 -39.16601562 286.51757812 C-22.94106966 286.98403269 -22.94106966 286.98403269 -9 281 C-8.1957792 278.40144267 -8.1957792 278.40144267 -8 276 C-12.59947801 274.87547832 -17.106905 274.78780043 -21.8125 274.625 C-42.51854505 273.74072748 -42.51854505 273.74072748 -50 270 C-50 269.01 -50 268.02 -50 267 C-49.3922876 266.9498877 -48.7845752 266.89977539 -48.15844727 266.84814453 C-21.52332117 266.27463982 -21.52332117 266.27463982 3 258 C3.2502157 254.91634129 3.2502157 254.91634129 3 252 C0.42485677 250.71242838 -1.51599056 250.82333745 -4.3984375 250.75390625 C-5.50920654 250.72224365 -6.61997559 250.69058105 -7.7644043 250.65795898 C-9.55164917 250.61070679 -9.55164917 250.61070679 -11.375 250.5625 C-22.99156576 250.2036722 -34.46020983 249.35530033 -46 248 C-46.33 246.68 -46.66 245.36 -47 244 C-44.56106739 242.78053369 -42.5875236 242.66188593 -39.87109375 242.38671875 C-38.83533203 242.27263672 -37.79957031 242.15855469 -36.73242188 242.04101562 C-34.56406547 241.80837039 -32.39478258 241.58417906 -30.22460938 241.36914062 C-23.49693313 240.60963122 -17.98904402 239.18976504 -12 236 C-12 234.35 -12 232.7 -12 231 C-14.80550533 229.59724734 -17.15814908 229.85420795 -20.296875 229.82421875 C-21.64259498 229.80416068 -22.98829806 229.78294441 -24.33398438 229.76074219 C-25.05158936 229.74958374 -25.76919434 229.73842529 -26.50854492 229.72692871 C-77.47103428 228.83046405 -133.74487523 224.12074405 -171.41625977 185.93603516 C-195.94113698 160.32966994 -202.83447264 129.88910188 -202.13183594 95.45556641 C-201.09765077 68.34842407 -185.70713913 43.5570533 -166.59765625 25.2578125 C-161.4765154 20.52113347 -155.98727808 16.58835751 -150 13 C-149.09121094 12.44602539 -149.09121094 12.44602539 -148.1640625 11.88085938 C-131.7750195 2.06415709 -112.88784327 -4.26650364 -94 -7 C-93.35562988 -7.10006348 -92.71125977 -7.20012695 -92.04736328 -7.30322266 C-61.23669031 -11.97819932 -29.76547161 -8.75025602 0 0 Z " fill="#FEFDFD" transform="translate(944,208)"/>
<path d="M0 0 C10.065 -0.0825 20.13 -0.165 30.5 -0.25 C33.64337891 -0.28641602 36.78675781 -0.32283203 40.02539062 -0.36035156 C75.63077831 -0.60219002 75.63077831 -0.60219002 88 10 C88.63292969 10.51304687 89.26585937 11.02609375 89.91796875 11.5546875 C95.70407947 16.71160495 99.30514127 23.46329278 100.48046875 31.13696289 C100.66855389 34.4181982 100.68308676 37.65172556 100.625 40.9375 C100.64433594 42.02740234 100.66367188 43.11730469 100.68359375 44.24023438 C100.62216808 54.57817479 97.55971617 64.58871743 90.26171875 72.1875 C74.762018 84.60867642 56.84919502 84.33068763 38 84 C38 93.9 38 103.8 38 114 C25.46 114 12.92 114 0 114 C0 76.38 0 38.76 0 0 Z " fill="#FEFCFB" transform="translate(985,652)"/>
<path d="M0 0 C1.34964844 0.30671631 1.34964844 0.30671631 2.7265625 0.61962891 C8.56755501 2.06783601 12.53000266 3.92125133 18.1875 6.75 C18.1875 17.31 18.1875 27.87 18.1875 38.75 C14.94949383 37.94049846 12.11892851 36.9262929 9.06201172 35.62939453 C-1.98950589 30.96864612 -12.69707849 28.57976042 -24.8125 29.75 C-25.8025 30.41 -26.7925 31.07 -27.8125 31.75 C-28.06280977 34.33380177 -28.06280977 34.33380177 -27.8125 36.75 C-22.321289 39.69680545 -17.28785317 41.56507196 -11.25 43 C1.0802871 46.18725564 15.58977143 51.89037966 22.5 63.25 C27.18687371 72.97092326 27.71947434 82.75960091 24.5625 93.125 C20.8512646 102.81544798 15.59346301 108.32366446 6.1875 112.75 C-14.36850939 120.48873295 -40.33270992 118.93094876 -60.3125 110.0625 C-61.82185596 109.31015127 -63.32468268 108.54409297 -64.8125 107.75 C-65.4725 107.42 -66.1325 107.09 -66.8125 106.75 C-66.8125 95.53 -66.8125 84.31 -66.8125 72.75 C-64.234375 74.008125 -61.65625 75.26625 -59 76.5625 C-52.40715603 79.70818345 -46.00983782 82.31301001 -38.8125 83.75 C-37.678125 83.976875 -36.54375 84.20375 -35.375 84.4375 C-24.8070763 85.54679667 -24.8070763 85.54679667 -14.8125 82.75 C-13.45171965 80.22627099 -13.45171965 80.22627099 -12.8125 77.75 C-17.93087088 74.97754911 -23.48784072 73.12640381 -29.0390625 71.42578125 C-41.82492985 67.49853906 -56.4444834 62.78514736 -63.8125 50.75 C-68.69284731 41.53156618 -69.5964801 30.83697596 -66.625 20.8125 C-63.1036245 12.00906125 -57.23643555 6.21000011 -48.6171875 2.30078125 C-32.80698066 -3.98368594 -16.47370342 -3.75701297 0 0 Z " fill="#FEFCFB" transform="translate(579.8125,651.25)"/>
<path d="M0 0 C8.79839224 6.10823634 14.54081099 14.6009745 17 25 C17.45097467 28.92601005 17.52376517 32.8006041 17.5 36.75 C17.49645508 37.80751465 17.49291016 38.8650293 17.48925781 39.95458984 C17.31356277 48.24153949 16.07515887 54.67652609 12 62 C11.401875 63.11375 10.80375 64.2275 10.1875 65.375 C4.6529026 72.01651688 -1.40485565 77.10500754 -10 79 C-20.63266708 79.93380709 -28.39060824 78.80469588 -38 74 C-38.33 84.89 -38.66 95.78 -39 107 C-50.55 107 -62.1 107 -74 107 C-74 71.03 -74 35.06 -74 -2 C-63.77 -2 -53.54 -2 -43 -2 C-42.67 0.31 -42.34 2.62 -42 5 C-41.5153125 4.60167969 -41.030625 4.20335937 -40.53125 3.79296875 C-29.03861132 -5.29063605 -13.08831849 -7.95656772 0 0 Z " fill="#FEFBFB" transform="translate(794,689)"/>
<path d="M0 0 C11.55 0 23.1 0 35 0 C35.06058594 3.50238281 35.12117187 7.00476563 35.18359375 10.61328125 C35.24537162 13.99896429 35.30876411 17.3846135 35.37231445 20.77026367 C35.41567208 23.12635295 35.45734654 25.48247383 35.49731445 27.83862305 C35.55499676 31.22193938 35.61869731 34.60509657 35.68359375 37.98828125 C35.70030624 39.04461258 35.71701874 40.10094391 35.73423767 41.18928528 C35.7641555 42.66047066 35.7641555 42.66047066 35.79467773 44.16137695 C35.81799416 45.45710381 35.81799416 45.45710381 35.84178162 46.77900696 C35.92009739 49.17365425 35.92009739 49.17365425 37 52 C38.43836751 51.88541307 39.87570966 51.75790884 41.3125 51.625 C42.51326172 51.52058594 42.51326172 51.52058594 43.73828125 51.4140625 C46.27224441 51.10435574 46.27224441 51.10435574 49 49 C49.47572817 46.82584957 49.47572817 46.82584957 49.43237305 44.27490234 C49.45216721 43.29403656 49.47196136 42.31317078 49.49235535 41.30258179 C49.50194023 39.71034286 49.50194023 39.71034286 49.51171875 38.0859375 C49.52966995 37.00116119 49.54762115 35.91638489 49.56611633 34.79873657 C49.6204231 31.32419761 49.65418068 27.84979758 49.6875 24.375 C49.72065504 22.02341808 49.75514298 19.67185454 49.79101562 17.3203125 C49.87867762 11.54685274 49.93857407 5.77403776 50 0 C61.55 0 73.1 0 85 0 C85 26.07 85 52.14 85 79 C74.77 79 64.54 79 54 79 C53.67 77.02 53.34 75.04 53 73 C52.34773437 73.40992188 51.69546875 73.81984375 51.0234375 74.2421875 C50.14945313 74.78101563 49.27546875 75.31984375 48.375 75.875 C47.51648438 76.40867187 46.65796875 76.94234375 45.7734375 77.4921875 C37.44476455 82.02017026 27.06440109 82.73711745 17.9453125 80.125 C8.84523622 75.92070944 4.73378744 69.44689099 1.0519104 60.3782959 C-0.71372467 54.70781512 -0.61662849 49.25227899 -0.48828125 43.359375 C-0.48120651 42.11117981 -0.47413177 40.86298462 -0.46684265 39.57696533 C-0.43910427 35.63400477 -0.37640022 31.69252324 -0.3125 27.75 C-0.2845333 25.0586304 -0.26401656 22.3672215 -0.24414062 19.67578125 C-0.19361993 13.11617482 -0.09571577 6.5597208 0 0 Z " fill="#FEF8F8" transform="translate(619,687)"/>
<path d="M0 0 C3.27354099 2.86931831 5.65945034 5.99278278 7.9296875 9.69140625 C8.34347656 10.29984375 8.75726562 10.90828125 9.18359375 11.53515625 C13.5061653 19.12601361 12.70227612 29.21530985 11.9296875 37.69140625 C11.5996875 38.68140625 11.2696875 39.67140625 10.9296875 40.69140625 C-4.9103125 40.69140625 -20.7503125 40.69140625 -37.0703125 40.69140625 C-31.85144981 46.95404148 -29.46004293 49.12332585 -21.63818359 49.94775391 C-19.00362534 50.05796752 -16.39406175 50.05190788 -13.7578125 50.00390625 C-12.88447266 50.00712891 -12.01113281 50.01035156 -11.11132812 50.01367188 C-4.39801708 49.95933308 1.14391706 48.92518269 7.9296875 47.69140625 C7.9296875 55.28140625 7.9296875 62.87140625 7.9296875 70.69140625 C-1.99035885 73.99808837 -9.492091 74.89498128 -19.7578125 74.94140625 C-20.87865234 74.96203125 -21.99949219 74.98265625 -23.15429688 75.00390625 C-36.07289548 75.06388814 -48.8098434 72.02162955 -58.3828125 62.87890625 C-68.03938441 52.42410965 -71.02546677 40.73728323 -70.484375 26.59765625 C-69.3425506 15.82572793 -63.69816186 6.21785583 -55.3203125 -0.55859375 C-39.25715249 -11.87371798 -15.83359361 -11.57070302 0 0 Z " fill="#FEFBFB" transform="translate(889.0703125,693.30859375)"/>
<path d="M0 0 C7.90513877 6.58761564 14.09859652 13.61397586 15.625 24.1875 C15.71624669 26.33179729 15.75505591 28.47876813 15.75 30.625 C15.75386719 32.26275391 15.75386719 32.26275391 15.7578125 33.93359375 C15.625 37.1875 15.625 37.1875 14.625 43.1875 C-1.215 43.1875 -17.055 43.1875 -33.375 43.1875 C-27.91528267 49.7391608 -25.12185835 51.58299176 -16.93798828 52.44384766 C-14.42955976 52.55265056 -11.94760005 52.54853248 -9.4375 52.5 C-8.60798828 52.50322266 -7.77847656 52.50644531 -6.92382812 52.50976562 C-0.67321527 52.45634158 4.30892096 51.45071581 10.625 50.1875 C10.625 57.7775 10.625 65.3675 10.625 73.1875 C-5.63381275 79.28455478 -27.1661284 80.19321363 -43.375 73.1875 C-54.94339196 67.76431486 -60.78944571 59.91666573 -65.375 48.1875 C-68.52600923 38.7344723 -67.52699929 25.28154009 -63.5 16.3046875 C-58.10484265 6.1513011 -49.74943832 -0.64040764 -39 -4.5625 C-25.93411769 -8.16208097 -11.86158497 -6.37011045 0 0 Z " fill="#FEFBFB" transform="translate(1157.375,690.8125)"/>
<path d="M0 0 C0 9.24 0 18.48 0 28 C5.94 28 11.88 28 18 28 C18 37.24 18 46.48 18 56 C12.06 56 6.12 56 0 56 C0.08679183 59.43875207 0.19365053 62.87483525 0.3125 66.3125 C0.34633789 67.77719727 0.34633789 67.77719727 0.38085938 69.27148438 C0.41630859 70.20927734 0.45175781 71.14707031 0.48828125 72.11328125 C0.51446533 72.97735596 0.54064941 73.84143066 0.56762695 74.73168945 C1.08881422 77.46593617 1.75170107 78.38776717 4 80 C6.66893963 80.21876554 9.03500287 80.28335295 11.6875 80.1875 C15.3071875 80.0946875 15.3071875 80.0946875 19 80 C19 88.58 19 97.16 19 106 C6.78058564 110.07313812 -8.97130464 112.09601798 -21.0625 106.5625 C-28.68497034 101.85809327 -31.89766156 95.49088188 -34 87 C-34.15494629 84.51569451 -34.21596849 82.02420335 -34.1953125 79.53515625 C-34.1924826 78.85698349 -34.18965271 78.17881073 -34.18673706 77.48008728 C-34.17565416 75.34070234 -34.1505736 73.2017557 -34.125 71.0625 C-34.11495476 69.60091756 -34.10583163 68.13932847 -34.09765625 66.67773438 C-34.07575425 63.11835021 -34.04130866 59.55921797 -34 56 C-37.63 56 -41.26 56 -45 56 C-45 47.09 -45 38.18 -45 29 C-41.37 29 -37.74 29 -34 29 C-34 21.74 -34 14.48 -34 7 C-29.64070428 6.00009133 -25.28105266 5.00216425 -20.92016602 4.00927734 C-19.436827 3.67092358 -17.95375132 3.33141318 -16.47094727 2.99072266 C-14.33938708 2.50118456 -12.20691405 2.01581571 -10.07421875 1.53125 C-8.14968872 1.09135742 -8.14968872 1.09135742 -6.1862793 0.64257812 C-3 0 -3 0 0 0 Z " fill="#FEFBFB" transform="translate(1227,659)"/>
<path d="M0 0 C0 10.56 0 21.12 0 32 C-8.125 31.8125 -8.125 31.8125 -10.64892578 31.72973633 C-15.56430734 31.67519917 -18.65495928 32.48410256 -23 35 C-23.66 35 -24.32 35 -25 35 C-25 49.85 -25 64.7 -25 80 C-36.55 80 -48.1 80 -60 80 C-60 53.93 -60 27.86 -60 1 C-49.77 1 -39.54 1 -29 1 C-28.67 3.31 -28.34 5.62 -28 8 C-27.48050781 7.59007812 -26.96101562 7.18015625 -26.42578125 6.7578125 C-25.72839844 6.21898437 -25.03101563 5.68015625 -24.3125 5.125 C-23.62800781 4.59132813 -22.94351563 4.05765625 -22.23828125 3.5078125 C-14.60581562 -1.63377866 -10.31945153 0 0 0 Z " fill="#FEF7F7" transform="translate(973,686)"/>
<path d="M0 0 C3.09312316 1.57140594 5.49473779 3.49351266 6.63671875 6.8984375 C7.72067691 13.1690772 7.65413129 18.58180533 4 24 C1.76387058 26.56497198 0.30824465 27.90247631 -3.1484375 28.16015625 C-8.23855273 27.81348727 -11.4867458 26.93873481 -15 23 C-15.74060566 19.81858922 -15.69860039 16.75313719 -15.625 13.5 C-15.64433594 12.64535156 -15.66367187 11.79070313 -15.68359375 10.91015625 C-15.65072826 6.69680096 -15.60591233 4.69504829 -12.76953125 1.44140625 C-8.43457702 -0.81472649 -4.76546223 -0.89066946 0 0 Z " fill="#F61B1C" transform="translate(769,713)"/>
<path d="M0 0 C4.516875 -0.1546875 4.516875 -0.1546875 9.125 -0.3125 C10.06230957 -0.35802002 10.99961914 -0.40354004 11.96533203 -0.45043945 C16.13213314 -0.51922052 19.16935836 -0.38292827 22.578125 2.171875 C25.9657942 6.12779839 25.74324942 8.46779596 25.4609375 13.46875 C25 16 25 16 23.25 18.5625 C22.5075 19.036875 21.765 19.51125 21 20 C20.4740625 20.35707031 19.948125 20.71414063 19.40625 21.08203125 C15.72633573 22.48589465 12.14812392 22.20839417 8.25 22.125 C4.16625 22.063125 4.16625 22.063125 0 22 C0 14.74 0 7.48 0 0 Z " fill="#F61718" transform="translate(1023,683)"/>
<path d="M0 0 C15.84 0 31.68 0 48 0 C47.34 1.65 46.68 3.3 46 5 C45.63879498 7.89555369 45.63879498 7.89555369 45.5859375 10.95703125 C45.54726562 12.06884766 45.50859375 13.18066406 45.46875 14.32617188 C45.42234375 16.0519043 45.42234375 16.0519043 45.375 17.8125 C45.33632812 18.98232422 45.29765625 20.15214844 45.2578125 21.35742188 C45.1637487 24.23812564 45.07810123 27.11882654 45 30 C44.67 30 44.34 30 44 30 C44 22.41 44 14.82 44 7 C40.7 7.99 37.4 8.98 34 10 C30.5622831 10.27203035 27.36015533 10.42286931 23.9375 10.375 C23.10412109 10.38660156 22.27074219 10.39820313 21.41210938 10.41015625 C14.10154629 10.37602133 7.63620914 9.20580765 1.9375 4.4375 C0 2 0 2 0 0 Z " fill="#F72727" transform="translate(1124,734)"/>
<path d="M0 0 C15.84 0 31.68 0 48 0 C47 2 47 2 44 4 C43.773125 4.66 43.54625 5.32 43.3125 6 C41.51019903 8.74636339 39.47444337 8.89572436 36.38696289 9.59863281 C32.11662734 10.31668862 27.88428552 10.36876815 23.5625 10.375 C22.67240234 10.39949219 21.78230469 10.42398438 20.86523438 10.44921875 C13.34594025 10.48217402 7.27896305 8.71914009 1.4375 3.875 C0 2 0 2 0 0 Z " fill="#F72525" transform="translate(852,734)"/>
<path d="M0 0 C2.3828125 0.484375 2.3828125 0.484375 5.5078125 2.609375 C7.3828125 5.484375 7.3828125 5.484375 7.3828125 11.484375 C0.4528125 11.484375 -6.4771875 11.484375 -13.6171875 11.484375 C-12.6171875 5.484375 -12.6171875 5.484375 -10.6796875 2.609375 C-6.90837321 -0.00745532 -4.51081356 -0.24237207 0 0 Z " fill="#F63030" transform="translate(1136.6171875,707.515625)"/>
<path d="M0 0 C3.125 1.5625 3.125 1.5625 5 4 C5 6.31 5 8.62 5 11 C-1.6 11 -8.2 11 -15 11 C-15 5 -15 5 -13.125 2.125 C-8.74562415 -0.85297558 -5.14874184 -0.8946994 0 0 Z " fill="#F62A2A" transform="translate(867,708)"/>
<path d="M0 0 C1.10085938 0.01546875 2.20171875 0.0309375 3.3359375 0.046875 C6.49570125 0.2420148 9.51549086 0.66755418 12.625 1.25 C10.82087357 4.51460973 9.79105307 6.13929795 6.625 8.25 C6.625 8.91 6.625 9.57 6.625 10.25 C4.975 9.92 3.325 9.59 1.625 9.25 C1.955 9.91 2.285 10.57 2.625 11.25 C0.88671875 12.36328125 0.88671875 12.36328125 -1.375 13.25 C-3.48046875 12.60546875 -3.48046875 12.60546875 -5.5625 11.4375 C-6.60470703 10.87095703 -6.60470703 10.87095703 -7.66796875 10.29296875 C-9.375 9.25 -9.375 9.25 -10.375 8.25 C-10.6875 5.875 -10.6875 5.875 -10.375 3.25 C-7.13699565 -0.0426213 -4.49141057 -0.10469489 0 0 Z " fill="#F62424" transform="translate(561.375,679.75)"/>
<path d="M0 0 C0.24798276 2.95786664 0.47411854 5.91461298 0.6875 8.875 C0.76033203 9.71675781 0.83316406 10.55851563 0.90820312 11.42578125 C0.96298828 12.23144531 1.01777344 13.03710938 1.07421875 13.8671875 C1.13182373 14.61081543 1.18942871 15.35444336 1.2487793 16.12060547 C1.16668213 16.74080566 1.08458496 17.36100586 1 18 C0.01 18.66 -0.98 19.32 -2 20 C-2 19.34 -2 18.68 -2 18 C-2.66 18 -3.32 18 -4 18 C-4.33 16.02 -4.66 14.04 -5 12 C-5.66 12 -6.32 12 -7 12 C-6.690625 13.85625 -6.690625 13.85625 -6.375 15.75 C-5.93892876 19.11909835 -5.96596361 21.12841921 -8 24 C-8.85305168 21.09330538 -9.07289715 18.68951127 -8.87890625 15.671875 C-8.83056641 14.87265625 -8.78222656 14.0734375 -8.73242188 13.25 C-8.67634766 12.425 -8.62027344 11.6 -8.5625 10.75 C-8.51029297 9.90953125 -8.45808594 9.0690625 -8.40429688 8.203125 C-8.27504311 6.1350648 -8.13825726 4.0674778 -8 2 C-7.67 2 -7.34 2 -7 2 C-7 3.98 -7 5.96 -7 8 C-6.34 7.67 -5.68 7.34 -5 7 C-4.67 6.01 -4.34 5.02 -4 4 C-3.67 3.01 -3.34 2.02 -3 1 C-1 0 -1 0 0 0 Z " fill="#F62626" transform="translate(819,718)"/>
<path d="M0 0 C5.00600922 0.54681024 8.97181067 2.24140333 13.375 4.5625 C14.01566406 4.89185547 14.65632812 5.22121094 15.31640625 5.56054688 C16.88138632 6.36639482 18.44124021 7.18218493 20 8 C18.02 10.97 18.02 10.97 16 14 C14.10290278 12.57717709 12.20634754 11.1537119 10.3125 9.7265625 C8.7807622 8.58293394 7.23910443 7.45246366 5.6875 6.3359375 C4.965625 5.81257813 4.24375 5.28921875 3.5 4.75 C2.8296875 4.27046875 2.159375 3.7909375 1.46875 3.296875 C0.9840625 2.86890625 0.499375 2.4409375 0 2 C0 1.34 0 0.68 0 0 Z " fill="#FCEFEE" transform="translate(856,479)"/>
<path d="M0 0 C-0.350625 0.5775 -0.70125 1.155 -1.0625 1.75 C-2.36283174 4.24020355 -2.36283174 4.24020355 -1 8 C-7.435 8.495 -7.435 8.495 -14 9 C-14.33 7.68 -14.66 6.36 -15 5 C-11.03066435 -1.02244029 -6.54676496 -0.57204742 0 0 Z " fill="#F61A1B" transform="translate(1139,708)"/>
<path d="M0 0 C-1.77945087 4.04420651 -4.39529673 7.46078487 -7 11 C-7.33 10.34 -7.66 9.68 -8 9 C-9.423125 9.7115625 -9.423125 9.7115625 -10.875 10.4375 C-12.58333333 11.29166667 -14.29166667 12.14583333 -16 13 C-14.1915582 6.16810875 -6.98030464 0 0 0 Z " fill="#FBE5E2" transform="translate(842,301)"/>
<path d="M0 0 C5.28 0 10.56 0 16 0 C15.01 1.485 15.01 1.485 14 3 C13.01 3 12.02 3 11 3 C10.67 3.66 10.34 4.32 10 5 C7.4375 5.625 7.4375 5.625 5 6 C3.35 4.02 1.7 2.04 0 0 Z " fill="#F61515" transform="translate(1124,735)"/>
<path d="M0 0 C0.66 0.66 1.32 1.32 2 2 C2.33 1.34 2.66 0.68 3 0 C3.66 0 4.32 0 5 0 C4.67 9.9 4.34 19.8 4 30 C3.67 30 3.34 30 3 30 C2.67 22.41 2.34 14.82 2 7 C1.34 6.67 0.68 6.34 0 6 C-0.6875 3.5 -0.6875 3.5 -1 1 C-0.67 0.67 -0.34 0.34 0 0 Z " fill="#F73939" transform="translate(738,295)"/>
<path d="M0 0 C0.66 -0.33 1.32 -0.66 2 -1 C2.12375 -0.360625 2.2475 0.27875 2.375 0.9375 C2.58125 1.618125 2.7875 2.29875 3 3 C3.66 3.33 4.32 3.66 5 4 C4.34 5.32 3.68 6.64 3 8 C1.32819726 7.05065487 -0.33733936 6.09026687 -2 5.125 C-2.928125 4.59132813 -3.85625 4.05765625 -4.8125 3.5078125 C-5.8953125 2.76144531 -5.8953125 2.76144531 -7 2 C-7 1.34 -7 0.68 -7 0 C-4.33059475 -1.33470263 -2.86667247 -0.57333449 0 0 Z " fill="#F31917" transform="translate(961,362)"/>
<path d="M0 0 C1.66832577 2.50248865 2.62381674 4.41149187 3.625 7.1875 C3.88539063 7.90292969 4.14578125 8.61835937 4.4140625 9.35546875 C4.60742188 9.89816406 4.80078125 10.44085937 5 11 C4.01 11 3.02 11 2 11 C1.01 12.485 1.01 12.485 0 14 C-0.66 13.34 -1.32 12.68 -2 12 C-1.6730244 9.38419521 -1.17960932 7.35921863 0 5 C-0.99 5 -1.98 5 -3 5 C-2.67 4.01 -2.34 3.02 -2 2 C-1.34 2 -0.68 2 0 2 C0 1.34 0 0.68 0 0 Z " fill="#F51D1C" transform="translate(820,738)"/>
<path d="M0 0 C0 2.64 0 5.28 0 8 C-0.66 8 -1.32 8 -2 8 C-2 7.34 -2 6.68 -2 6 C-3.12148438 6.34224609 -3.12148438 6.34224609 -4.265625 6.69140625 C-5.25046875 6.97886719 -6.2353125 7.26632812 -7.25 7.5625 C-8.22453125 7.85253906 -9.1990625 8.14257812 -10.203125 8.44140625 C-12.96243932 8.99249836 -14.3912824 8.93789609 -17 8 C-16.18015625 7.67386719 -15.3603125 7.34773437 -14.515625 7.01171875 C-13.43796875 6.57472656 -12.3603125 6.13773438 -11.25 5.6875 C-10.18265625 5.25824219 -9.1153125 4.82898438 -8.015625 4.38671875 C-5.79643569 3.36623662 -2.32120075 0 0 0 Z " fill="#F62C2D" transform="translate(673,759)"/>
<path d="M0 0 C-0.60698743 4.12751449 -2.03810791 7.3321148 -4 11 C-5.32 9.68 -6.64 8.36 -8 7 C-6.13932792 2.84926997 -4.83061881 0 0 0 Z " fill="#FCEDEB" transform="translate(867,315)"/>
<path d="M0 0 C0 3.11227195 -0.45627049 5.94152152 -1 9 C-4.96 9 -8.92 9 -13 9 C-9.99034289 6.99356193 -6.9261416 5.10386302 -3.83984375 3.21875 C-1.86708405 1.9997531 -1.86708405 1.9997531 0 0 Z " fill="#F5292B" transform="translate(800,758)"/>
<path d="M0 0 C1.12588014 0.95729916 2.2506715 1.91587895 3.375 2.875 C4.00148438 3.40867187 4.62796875 3.94234375 5.2734375 4.4921875 C6.55836651 5.61432007 7.79371975 6.79371975 9 8 C8.01 8.33 7.02 8.66 6 9 C5.34 9.66 4.68 10.32 4 11 C4 9.68 4 8.36 4 7 C2.02 7 0.04 7 -2 7 C0 4 0 4 1 3 C0.01 2.67 -0.98 2.34 -2 2 C-1.34 2 -0.68 2 0 2 C0 1.34 0 0.68 0 0 Z " fill="#F9181B" transform="translate(517,704)"/>
<path d="M0 0 C0.99 0.33 1.98 0.66 3 1 C2.67 1.99 2.34 2.98 2 4 C1.91621372 6.2838517 1.89270085 8.570101 1.90234375 10.85546875 C1.9037587 11.51710526 1.90517365 12.17874176 1.90663147 12.86042786 C1.91222004 14.96949828 1.92477035 17.07846177 1.9375 19.1875 C1.94251648 20.61913909 1.94707913 22.05077985 1.95117188 23.48242188 C1.9621857 26.98831588 1.97944245 30.4941475 2 34 C1.34 34 0.68 34 0 34 C0 22.78 0 11.56 0 0 Z " fill="#FCF4F1" transform="translate(513,724)"/>
<path d="M0 0 C1.65 0.33 3.3 0.66 5 1 C5.3125 3.25 5.3125 3.25 5 6 C2.5 8.3125 2.5 8.3125 0 10 C-0.66 9.67 -1.32 9.34 -2 9 C-1.51421457 5.87709365 -1.0013988 3.00419641 0 0 Z " fill="#F62524" transform="translate(931,483)"/>
<path d="M0 0 C2.64 0.33 5.28 0.66 8 1 C8.33 1.99 8.66 2.98 9 4 C12.96 4 16.92 4 21 4 C21 4.33 21 4.66 21 5 C18.43571485 5.13559675 15.87864784 5.23433188 13.3125 5.3125 C12.59126953 5.35439453 11.87003906 5.39628906 11.12695312 5.43945312 C6.80422604 5.53814552 5.45467038 5.37938214 1.98046875 2.48046875 C1.00013672 1.25263672 1.00013672 1.25263672 0 0 Z " fill="#F73B3C" transform="translate(880,490)"/>
<path d="M0 0 C0.99 0 1.98 0 3 0 C4.35439668 2.70879335 4.06501451 5.00933268 4 8 C3.01 8.495 3.01 8.495 2 9 C2 8.34 2 7.68 2 7 C1.01 7.33 0.02 7.66 -1 8 C-1.125 2.25 -1.125 2.25 0 0 Z " fill="#F51413" transform="translate(821,303)"/>
<path d="M0 0 C0.99 0 1.98 0 3 0 C2.39305845 3.15330554 1.3583335 5.18888867 -0.5625 7.75 C-1.24505859 8.67039063 -1.24505859 8.67039063 -1.94140625 9.609375 C-2.46541016 10.29773438 -2.46541016 10.29773438 -3 11 C-3.99 10.01 -4.98 9.02 -6 8 C-4.73046875 6.50260417 -3.4609375 5.00520833 -2.19140625 3.5078125 C-0.9121848 1.99405921 -0.9121848 1.99405921 0 0 Z " fill="#F71D1F" transform="translate(762,245)"/>
<path d="M0 0 C-0.99 0.495 -0.99 0.495 -2 1 C-2 1.99 -2 2.98 -2 4 C-6.75 3.125 -6.75 3.125 -9 2 C-9 1.01 -9 0.02 -9 -1 C-5.79937313 -2.60031344 -3.27728194 -1.03173691 0 0 Z " fill="#F72223" transform="translate(838,491)"/>
<path d="M0 0 C-2.1875 2.5625 -2.1875 2.5625 -5 5 C-7.8125 4.8125 -7.8125 4.8125 -10 4 C-10 3.01 -10 2.02 -10 1 C-6.78548731 -0.60725635 -3.56387464 -0.05748185 0 0 Z " fill="#FACFCD" transform="translate(907,451)"/>
<path d="M0 0 C0.53625 0.226875 1.0725 0.45375 1.625 0.6875 C1.625 2.3375 1.625 3.9875 1.625 5.6875 C-5 4.9375 -5 4.9375 -8.375 2.6875 C-2.95961538 -0.38942308 -2.95961538 -0.38942308 0 0 Z " fill="#F72B2B" transform="translate(538.375,729.3125)"/>
<path d="M0 0 C0.66 0 1.32 0 2 0 C2 0.66 2 1.32 2 2 C5.3 2 8.6 2 12 2 C12 2.66 12 3.32 12 4 C7.71 4 3.42 4 -1 4 C-0.67 2.68 -0.34 1.36 0 0 Z " fill="#F51212" transform="translate(853,714)"/>
<path d="M0 0 C5.75 0.875 5.75 0.875 8 2 C8 2.66 8 3.32 8 4 C8.99 4.33 9.98 4.66 11 5 C11 5.99 11 6.98 11 8 C6.99698968 6.23867546 3.3971023 3.73867517 0 1 C0 0.67 0 0.34 0 0 Z " fill="#F62A2B" transform="translate(965,370)"/>
<path d="M0 0 C0.598125 0.45375 1.19625 0.9075 1.8125 1.375 C3.50590652 2.63295913 5.24477086 3.82984724 7 5 C5.625 6.5 5.625 6.5 4 8 C3.34 8 2.68 8 2 8 C0.61767557 6.37373596 -0.71937515 4.7074998 -2 3 C-1.34 2.01 -0.68 1.02 0 0 Z " fill="#F61D1E" transform="translate(828,688)"/>
<path d="M0 0 C0.99 0.33 1.98 0.66 3 1 C3 2.65 3 4.3 3 6 C1.02 6.99 1.02 6.99 -1 8 C-1.33 5.69 -1.66 3.38 -2 1 C-1.34 0.67 -0.68 0.34 0 0 Z " fill="#F61D1F" transform="translate(930,438)"/>
<path d="M0 0 C0 0.66 0 1.32 0 2 C0.66 2.33 1.32 2.66 2 3 C2 3.99 2 4.98 2 6 C-3.66153846 4.52307692 -3.66153846 4.52307692 -5.375 1.875 C-5.58125 1.25625 -5.7875 0.6375 -6 0 C-3 -1 -3 -1 0 0 Z " fill="#F62021" transform="translate(518,721)"/>
<path d="M0 0 C3.55780196 0.60990891 6.6828589 1.5783681 10 3 C10 3.33 10 3.66 10 4 C6.37 4.66 2.74 5.32 -1 6 C-1 4 -1 4 1 2 C0.67 1.34 0.34 0.68 0 0 Z " fill="#F62425" transform="translate(1205,658)"/>
<path d="M0 0 C0.33 0.99 0.66 1.98 1 3 C1.66 3 2.32 3 3 3 C3.25 5.3125 3.25 5.3125 3 8 C1 9.8125 1 9.8125 -1 11 C-2.0257259 6.58937864 -2.03684712 4.07369424 0 0 Z " fill="#F81C1E" transform="translate(1012,421)"/>
<path d="M0 0 C2.31 0.66 4.62 1.32 7 2 C7 2.99 7 3.98 7 5 C6.67 4.34 6.34 3.68 6 3 C5.34 3.66 4.68 4.32 4 5 C4.99 5.66 5.98 6.32 7 7 C4.03 6.505 4.03 6.505 1 6 C0.67 4.02 0.34 2.04 0 0 Z " fill="#F72526" transform="translate(513,758)"/>
<path d="M0 0 C5.15171623 -0.09038099 9.91913204 0.15318867 15 1 C15 1.33 15 1.66 15 2 C12.36 2.33 9.72 2.66 7 3 C7 2.34 7 1.68 7 1 C6.34 1.66 5.68 2.32 5 3 C3.01178687 3.39764263 1.01055661 3.73775349 -1 4 C-0.67 2.68 -0.34 1.36 0 0 Z " fill="#F84547" transform="translate(833,578)"/>
<path d="M0 0 C3.73487777 0.4979837 5.81237635 0.87491756 9 3 C8.01 3.495 8.01 3.495 7 4 C7 4.66 7 5.32 7 6 C2.32307692 4.52307692 2.32307692 4.52307692 0.6875 1.875 C0.460625 1.25625 0.23375 0.6375 0 0 Z " fill="#FCE1E0" transform="translate(856,479)"/>
<path d="M0 0 C2 2 2 2 2 5 C1.34 5 0.68 5 0 5 C-0.33 6.65 -0.66 8.3 -1 10 C-2.32 10.33 -3.64 10.66 -5 11 C-3.35 7.37 -1.7 3.74 0 0 Z " fill="#F52828" transform="translate(603,745)"/>
<path d="M0 0 C0.66 0.66 1.32 1.32 2 2 C0.68 4.64 -0.64 7.28 -2 10 C-2.66 9.67 -3.32 9.34 -4 9 C-3.71848913 7.68528432 -3.42446661 6.37324233 -3.125 5.0625 C-2.96257813 4.33160156 -2.80015625 3.60070312 -2.6328125 2.84765625 C-2 1 -2 1 0 0 Z " fill="#F61F20" transform="translate(748,514)"/>
<path d="M0 0 C1.65 0 3.3 0 5 0 C3.07848152 4.13126473 0.95749791 7.53258866 -2 11 C-2.8125 9.375 -2.8125 9.375 -3 7 C-1.53181864 4.75390165 0.15852858 2.97621323 2 1 C1.34 0.67 0.68 0.34 0 0 Z " fill="#F72529" transform="translate(840,300)"/>
<path d="M0 0 C2.31 0.33 4.62 0.66 7 1 C6.34 2.32 5.68 3.64 5 5 C2.525 4.01 2.525 4.01 0 3 C0 2.01 0 1.02 0 0 Z " fill="#F61E1F" transform="translate(575,682)"/>
<path d="M0 0 C1.17539996 0.92652701 2.34010577 1.86663387 3.5 2.8125 C4.1496875 3.33457031 4.799375 3.85664063 5.46875 4.39453125 C7 6 7 6 7 9 C6.01 8.67 5.02 8.34 4 8 C3.67 7.34 3.34 6.68 3 6 C2.34 6 1.68 6 1 6 C0.67 4.02 0.34 2.04 0 0 Z " fill="#F52727" transform="translate(768,389)"/>
<path d="M0 0 C1.33332095 2.6666419 0.67102033 4.16680303 0 7 C-1.98 7.33 -3.96 7.66 -6 8 C-4.02 5.36 -2.04 2.72 0 0 Z " fill="#F5282A" transform="translate(1079,718)"/>
<path d="M0 0 C1.32 0 2.64 0 4 0 C4.33 1.65 4.66 3.3 5 5 C3.02 5 1.04 5 -1 5 C-0.67 3.35 -0.34 1.7 0 0 Z " fill="#F61212" transform="translate(867,713)"/>
<path d="M0 0 C0 1.98 0 3.96 0 6 C-2.31 5.01 -4.62 4.02 -7 3 C-3.375 0 -3.375 0 0 0 Z " fill="#F62728" transform="translate(591,698)"/>
<path d="M0 0 C1.51400391 0.01740234 1.51400391 0.01740234 3.05859375 0.03515625 C4.07050781 0.04417969 5.08242188 0.05320312 6.125 0.0625 C7.29869141 0.07990234 7.29869141 0.07990234 8.49609375 0.09765625 C8.49609375 0.42765625 8.49609375 0.75765625 8.49609375 1.09765625 C6.18609375 1.42765625 3.87609375 1.75765625 1.49609375 2.09765625 C1.16609375 3.08765625 0.83609375 4.07765625 0.49609375 5.09765625 C-0.16390625 5.09765625 -0.82390625 5.09765625 -1.50390625 5.09765625 C-1.50390625 4.10765625 -1.50390625 3.11765625 -1.50390625 2.09765625 C-2.16390625 1.76765625 -2.82390625 1.43765625 -3.50390625 1.09765625 C-2.50390625 0.09765625 -2.50390625 0.09765625 0 0 Z " fill="#F61110" transform="translate(557.50390625,680.90234375)"/>
<path d="M0 0 C3.63 0 7.26 0 11 0 C11.33 1.32 11.66 2.64 12 4 C6.06 2.515 6.06 2.515 0 1 C0 0.67 0 0.34 0 0 Z " fill="#F53434" transform="translate(582,652)"/>
<path d="M0 0 C0 3.11227195 -0.45627049 5.94152152 -1 9 C-2.32 8.34 -3.64 7.68 -5 7 C-3.70700306 4.11562221 -2.34058637 2.12780579 0 0 Z " fill="#F72E31" transform="translate(991,535)"/>
<path d="M0 0 C3.465 1.98 3.465 1.98 7 4 C7 4.33 7 4.66 7 5 C4.69 5.33 2.38 5.66 0 6 C-1 3 -1 3 0 0 Z " fill="#F62123" transform="translate(785,405)"/>
<path d="M0 0 C0.66 0 1.32 0 2 0 C2 0.66 2 1.32 2 2 C3.32 2.66 4.64 3.32 6 4 C5.67 4.99 5.34 5.98 5 7 C2.69 5.35 0.38 3.7 -2 2 C-1.34 1.34 -0.68 0.68 0 0 Z " fill="#F6292A" transform="translate(995,230)"/>
<path d="M0 0 C2 2 2 2 2.1953125 4.3828125 C2.17210937 5.28773438 2.14890625 6.19265625 2.125 7.125 C2.10695313 8.03507813 2.08890625 8.94515625 2.0703125 9.8828125 C2.03550781 10.93082031 2.03550781 10.93082031 2 12 C0.515625 10.72265625 0.515625 10.72265625 -1 9 C-1.43076923 2.86153846 -1.43076923 2.86153846 0 0 Z " fill="#F52726" transform="translate(620,747)"/>
<path d="M0 0 C0.99 0.33 1.98 0.66 3 1 C2.75 3.375 2.75 3.375 2 6 C-0.0625 7.3125 -0.0625 7.3125 -2 8 C-2 7.01 -2 6.02 -2 5 C-1.01 5 -0.02 5 1 5 C1 4.01 1 3.02 1 2 C0.01 1.67 -0.98 1.34 -2 1 C-1.34 0.67 -0.68 0.34 0 0 Z " fill="#F8201F" transform="translate(564,728)"/>
<path d="M0 0 C3.63 0.33 7.26 0.66 11 1 C7.64672361 3.23551759 7.09256343 3.17283528 3.3125 2.625 C2.50425781 2.51414062 1.69601562 2.40328125 0.86328125 2.2890625 C0.24839844 2.19367188 -0.36648438 2.09828125 -1 2 C-0.67 1.34 -0.34 0.68 0 0 Z " fill="#F72626" transform="translate(897,282)"/>
<path d="M0 0 C1.98 0.99 3.96 1.98 6 3 C5.67 3.66 5.34 4.32 5 5 C0.25 4.25 0.25 4.25 -2 2 C-1.34 1.34 -0.68 0.68 0 0 Z " fill="#F61E1E" transform="translate(990,226)"/>
<path d="M0 0 C0.86625 0.556875 0.86625 0.556875 1.75 1.125 C0.76 1.125 -0.23 1.125 -1.25 1.125 C-1.25 1.785 -1.25 2.445 -1.25 3.125 C-0.59 3.455 0.07 3.785 0.75 4.125 C-2.1875 3.75 -2.1875 3.75 -5.25 3.125 C-5.58 2.465 -5.91 1.805 -6.25 1.125 C-2.80384615 -1.09038462 -2.80384615 -1.09038462 0 0 Z " fill="#F42020" transform="translate(590.25,762.875)"/>
<path d="M0 0 C2.91517292 1.07401108 4.77810176 1.77810176 7 4 C6.34 4 5.68 4 5 4 C4.67 4.66 4.34 5.32 4 6 C2 4.6875 2 4.6875 0 3 C0 2.01 0 1.02 0 0 Z " fill="#F71E21" transform="translate(1105,759)"/>
<path d="M0 0 C3.96 0 7.92 0 12 0 C12 0.99 12 1.98 12 3 C10.68 3 9.36 3 8 3 C8 2.34 8 1.68 8 1 C5.36 1 2.72 1 0 1 C0 0.67 0 0.34 0 0 Z " fill="#FDECEA" transform="translate(1233,740)"/>
<path d="M0 0 C1.65 1.65 3.3 3.3 5 5 C4.67 5.99 4.34 6.98 4 8 C2.02 5.69 0.04 3.38 -2 1 C-1.34 0.67 -0.68 0.34 0 0 Z " fill="#F72A2D" transform="translate(798,689)"/>
<path d="M0 0 C2.31 0 4.62 0 7 0 C7.33 0.99 7.66 1.98 8 3 C4.37673261 4.2077558 3.35853631 3.54311128 0 2 C0 1.34 0 0.68 0 0 Z " fill="#F82B2B" transform="translate(845,498)"/>
<path d="M0 0 C2.4375 0.75 2.4375 0.75 5 2 C5.8125 4.125 5.8125 4.125 6 6 C5.01 6.33 4.02 6.66 3 7 C0 2.25 0 2.25 0 0 Z " fill="#F52120" transform="translate(998,402)"/>
<path d="M0 0 C1.98 1.65 3.96 3.3 6 5 C4.68 5.33 3.36 5.66 2 6 C1.67 5.01 1.34 4.02 1 3 C0.01 2.67 -0.98 2.34 -2 2 C-1.34 2 -0.68 2 0 2 C0 1.34 0 0.68 0 0 Z " fill="#F62021" transform="translate(517,704)"/>
<path d="M0 0 C1.32 0 2.64 0 4 0 C4 0.66 4 1.32 4 2 C6.97 2.495 6.97 2.495 10 3 C10 3.33 10 3.66 10 4 C2.25 4.125 2.25 4.125 0 3 C0 2.01 0 1.02 0 0 Z " fill="#F61F1F" transform="translate(768,681)"/>
<path d="M0 0 C0.33 0.66 0.66 1.32 1 2 C-4.41538462 3.23076923 -4.41538462 3.23076923 -7.375 2.0625 C-7.91125 1.711875 -8.4475 1.36125 -9 1 C-5.92677456 0.08941469 -3.19902639 -0.08886184 0 0 Z " fill="#F82F30" transform="translate(1057,651)"/>
<path d="M0 0 C0 0.66 0 1.32 0 2 C-2.66666667 3.33333333 -5.33333333 4.66666667 -8 6 C-6.53781513 1.3697479 -6.53781513 1.3697479 -4 -0.375 C-2 -1 -2 -1 0 0 Z " fill="#FBEFEE" transform="translate(834,308)"/>
<path d="M0 0 C2.64 0.33 5.28 0.66 8 1 C8 1.99 8 2.98 8 4 C5.03 3.505 5.03 3.505 2 3 C2 2.34 2 1.68 2 1 C1.34 0.67 0.68 0.34 0 0 Z " fill="#F41C1C" transform="translate(864,282)"/>
<path d="M0 0 C0 0.66 0 1.32 0 2 C-6.28571429 4.42857143 -6.28571429 4.42857143 -10 3 C-3.375 0 -3.375 0 0 0 Z " fill="#F83636" transform="translate(797,763)"/>
<path d="M0 0 C2.01136276 2.55991624 3.62845496 5.04590299 5 8 C4.01 8.33 3.02 8.66 2 9 C0.50178941 5.62902617 0 3.79557881 0 0 Z " fill="#F73639" transform="translate(1094,744)"/>
<path d="M0 0 C1.65 0 3.3 0 5 0 C4.67 1.65 4.34 3.3 4 5 C2.68 5 1.36 5 0 5 C0 3.35 0 1.7 0 0 Z " fill="#F82122" transform="translate(862,738)"/>
<path d="M0 0 C2.97 0 5.94 0 9 0 C9 0.66 9 1.32 9 2 C9.99 2.33 10.98 2.66 12 3 C9.18185434 4.40907283 7.82722796 3.50872691 4.875 2.5625 C3.96492187 2.27503906 3.05484375 1.98757813 2.1171875 1.69140625 C1.41851563 1.46324219 0.71984375 1.23507812 0 1 C0 0.67 0 0.34 0 0 Z " fill="#F75454" transform="translate(563,693)"/>
<path d="M0 0 C1.98 0.66 3.96 1.32 6 2 C6 3.32 6 4.64 6 6 C4.02 5.34 2.04 4.68 0 4 C0 2.66666667 0 1.33333333 0 0 Z " fill="#F52022" transform="translate(1056,650)"/>
<path d="M0 0 C4.455 1.98 4.455 1.98 9 4 C7.02 4.99 7.02 4.99 5 6 C4.67 5.01 4.34 4.02 4 3 C1.98491642 2.26676204 1.98491642 2.26676204 0 2 C0 1.34 0 0.68 0 0 Z " fill="#F81E1E" transform="translate(783,560)"/>
<path d="M0 0 C1 2 1 2 0.0625 5.125 C-0.288125 6.07375 -0.63875 7.0225 -1 8 C-1.99 7.67 -2.98 7.34 -4 7 C-2.68 4.69 -1.36 2.38 0 0 Z " fill="#F82E31" transform="translate(996,528)"/>
<path d="M0 0 C0.99 0.66 1.98 1.32 3 2 C3 2.99 3 3.98 3 5 C1.02 5.33 -0.96 5.66 -3 6 C-2.01 4.02 -1.02 2.04 0 0 Z " fill="#F62324" transform="translate(1000,522)"/>
<path d="M0 0 C3.375 0.3125 3.375 0.3125 7 1 C7.66 1.99 8.32 2.98 9 4 C5.17902761 3.46930939 2.93828597 2.50298434 0 0 Z " fill="#F72E30" transform="translate(955,364)"/>
<path d="M0 0 C1.35439668 2.70879335 1.06501451 5.00933268 1 8 C0.01 8 -0.98 8 -2 8 C-2.6875 6.25 -2.6875 6.25 -3 4 C-1.5625 1.75 -1.5625 1.75 0 0 Z " fill="#F72022" transform="translate(836,309)"/>
<path d="M0 0 C0.99 0.33 1.98 0.66 3 1 C3 1.99 3 2.98 3 4 C2.01 4 1.02 4 0 4 C0 4.66 0 5.32 0 6 C-0.99 6 -1.98 6 -3 6 C-1.125 1.125 -1.125 1.125 0 0 Z " fill="#F41413" transform="translate(831,290)"/>
<path d="M0 0 C0.66 0.33 1.32 0.66 2 1 C1.1875 3.4375 1.1875 3.4375 0 6 C-0.99 6.33 -1.98 6.66 -3 7 C-1.125 1.125 -1.125 1.125 0 0 Z " fill="#F82629" transform="translate(1013,255)"/>
<path d="M0 0 C0.66 0.33 1.32 0.66 2 1 C1.67 1.99 1.34 2.98 1 4 C-1.31 4.33 -3.62 4.66 -6 5 C-4.06745228 2.9754262 -2.36841312 1.57894208 0 0 Z " fill="#F72C2E" transform="translate(966,557)"/>
<path d="M0 0 C2 2 2 2 2.125 5.125 C2.08375 6.07375 2.0425 7.0225 2 8 C0.68 7.34 -0.64 6.68 -2 6 C-1.34 4.02 -0.68 2.04 0 0 Z " fill="#F42524" transform="translate(1005,269)"/>
<path d="M0 0 C0.66 0.33 1.32 0.66 2 1 C0.02 3.31 -1.96 5.62 -4 8 C-4.66 7.67 -5.32 7.34 -6 7 C-4.02 4.69 -2.04 2.38 0 0 Z " fill="#FCDDDB" transform="translate(769,242)"/>
<path d="M0 0 C2.31 0.33 4.62 0.66 7 1 C6.67 2.32 6.34 3.64 6 5 C3.98079663 3.69593116 1.98075027 2.36176581 0 1 C0 0.67 0 0.34 0 0 Z " fill="#F7312F" transform="translate(1008,242)"/>
<path d="M0 0 C0.66 0.66 1.32 1.32 2 2 C-1.465 4.97 -1.465 4.97 -5 8 C-4.67 6.68 -4.34 5.36 -4 4 C-3.34 4 -2.68 4 -2 4 C-2 3.34 -2 2.68 -2 2 C-1.34 2 -0.68 2 0 2 C0 1.34 0 0.68 0 0 Z " fill="#F63133" transform="translate(774,234)"/>
<path d="M0 0 C-0.33 0.99 -0.66 1.98 -1 3 C-3.31 2.34 -5.62 1.68 -8 1 C-4.93251126 -0.86240388 -3.40254489 -1.2151946 0 0 Z " fill="#F72D2F" transform="translate(963,212)"/>
<path d="M0 0 C0 0.33 0 0.66 0 1 C-5.16044765 2.512545 -8.65998179 3.33500455 -14 2 C-14 1.67 -14 1.34 -14 1 C-9.23692563 0.04738513 -4.8333472 -0.08333357 0 0 Z " fill="#FCC4C4" transform="translate(858,201)"/>
</svg>
