<?xml version="1.0" standalone="no"?>
<!DOCTYPE svg PUBLIC "-//W3C//DTD SVG 20010904//EN"
 "http://www.w3.org/TR/2001/REC-SVG-20010904/DTD/svg10.dtd">
<svg version="1.0" xmlns="http://www.w3.org/2000/svg"
 width="1080.000000pt" height="1080.000000pt" viewBox="0 0 1080.000000 1080.000000"
 preserveAspectRatio="xMidYMid meet">

<g transform="translate(0.000000,1080.000000) scale(0.100000,-0.100000)"
fill="#E30613" stroke="none">
<path d="M0 5400 l0 -5400 5400 0 5400 0 0 5400 0 5400 -5400 0 -5400 0 0
-5400z m8957 999 c79 -29 162 -113 193 -195 61 -162 -19 -354 -178 -427 -68
-32 -208 -31 -273 1 -111 55 -185 161 -196 280 -11 120 53 251 153 313 85 52
204 63 301 28z m-5870 -391 l42 -43 -118 -379 -119 -378 -53 -54 -53 -53 -134
-3 -135 -3 -99 -320 c-96 -307 -101 -322 -141 -362 l-41 -43 -211 0 -211 0
-38 39 -38 39 42 133 c23 74 47 154 55 179 19 65 95 310 102 326 4 11 -16 14
-113 14 l-119 1 -39 39 -40 38 21 69 c12 37 53 172 93 298 39 127 85 273 101
325 24 78 37 103 71 138 l42 42 546 0 546 0 41 -42z m1390 0 l42 -43 -123
-395 c-371 -1193 -345 -1113 -388 -1158 l-40 -42 -201 0 -201 0 -38 37 c-21
20 -38 42 -38 48 0 5 43 147 95 313 52 167 95 310 95 318 0 11 -16 14 -63 14
l-64 0 -102 -327 c-94 -302 -105 -331 -138 -365 l-37 -38 -376 0 -376 0 -37
40 -38 39 77 248 c42 136 83 253 91 260 10 8 65 11 169 10 85 0 158 4 163 9 5
5 34 90 64 189 31 99 81 261 112 360 31 99 74 239 97 310 35 113 45 136 81
173 l41 42 546 0 546 0 41 -42z m504 -88 c22 -69 51 -162 65 -208 24 -79 27
-83 52 -80 25 3 30 13 88 199 34 109 65 202 68 208 5 7 52 11 134 11 l128 0
243 -781 c134 -429 246 -790 249 -801 3 -13 -7 -31 -34 -59 l-38 -39 -237 0
-237 0 -40 128 c-23 70 -44 139 -47 155 -6 23 -12 27 -40 27 l-34 0 -40 -127
c-22 -71 -43 -141 -47 -156 l-6 -28 -110 3 -111 3 -39 130 c-22 72 -42 140
-45 153 -4 17 -12 22 -38 22 l-34 0 -40 -127 c-22 -71 -43 -140 -46 -155 l-7
-28 -243 0 -243 0 -36 40 c-19 22 -34 45 -31 52 2 7 104 333 225 723 122 391
232 745 246 788 l26 78 130 -3 130 -3 39 -125z m1908 86 c41 -42 46 -54 131
-326 l89 -283 -45 -88 c-24 -49 -44 -91 -44 -94 0 -3 33 -5 73 -5 l74 0 113
-362 c62 -200 115 -371 118 -381 3 -12 -9 -32 -34 -58 l-38 -39 -551 0 -551 0
-41 43 c-43 45 -36 26 -318 937 -13 41 -53 172 -90 290 -37 118 -74 241 -83
272 l-16 58 39 40 39 40 546 0 546 0 43 -44z m1391 5 c41 -38 45 -48 122 -293
43 -139 117 -377 165 -528 126 -403 143 -460 158 -510 7 -25 27 -87 43 -138
l30 -94 -41 -39 -42 -39 -550 0 -551 0 -36 38 c-35 35 -47 68 -217 612 -307
985 -294 939 -279 958 7 9 26 29 42 44 l29 28 543 0 542 0 42 -39z"/>
<path d="M8798 6188 c-2 -47 -7 -63 -18 -64 -8 -1 -36 -2 -62 -3 -48 -1 -48
-1 -48 -36 l0 -34 63 -3 62 -3 3 -62 3 -63 39 0 40 0 0 65 0 65 60 0 60 0 0
35 0 35 -60 0 -60 0 0 65 0 65 -40 0 -39 0 -3 -62z"/>
<path d="M3757 5743 c-4 -7 -86 -266 -103 -326 -5 -16 1 -18 62 -15 l68 3 52
165 c28 91 50 168 47 173 -2 4 -31 7 -63 7 -32 0 -61 -3 -63 -7z"/>
<path d="M6315 5740 c-3 -5 17 -81 45 -170 27 -88 50 -163 50 -165 0 -3 31 -5
69 -5 l69 0 -52 163 c-28 89 -54 167 -58 173 -9 14 -115 17 -123 4z"/>
<path d="M6505 5108 c2 -7 25 -80 50 -163 25 -82 55 -178 66 -212 l21 -63 64
0 c35 0 64 3 64 8 0 4 -30 105 -67 225 l-67 217 -68 0 c-49 0 -66 -3 -63 -12z"/>
<path d="M7712 5742 c-10 -7 -5 -34 24 -123 20 -63 46 -148 59 -189 64 -207
119 -385 150 -480 18 -58 45 -144 60 -192 l26 -88 65 0 c38 0 64 4 64 11 0 10
-51 175 -224 729 -53 168 -96 310 -96 316 0 7 -7 15 -16 18 -23 9 -97 7 -112
-2z"/>
</g>
</svg>
