<?xml version="1.0" encoding="UTF-8" standalone="no"?>
<svg
   version="1.1"
   width="595.27557pt"
   height="841.88977pt"
   id="svg3"
   viewBox="0 0 595.27557 841.88977"
   sodipodi:docname="tambo-practi-tienda-562.cdr"
   xmlns:inkscape="http://www.inkscape.org/namespaces/inkscape"
   xmlns:sodipodi="http://sodipodi.sourceforge.net/DTD/sodipodi-0.dtd"
   xmlns="http://www.w3.org/2000/svg"
   xmlns:svg="http://www.w3.org/2000/svg">
  <defs
     id="defs3" />
  <sodipodi:namedview
     id="namedview3"
     pagecolor="#ffffff"
     bordercolor="#000000"
     borderopacity="0.25"
     inkscape:showpageshadow="2"
     inkscape:pageopacity="0.0"
     inkscape:pagecheckerboard="0"
     inkscape:deskcolor="#d1d1d1"
     inkscape:document-units="pt" />
  <g
     id="Layer1000">
    <path
       d="M 53.6377,297.9448 H 541.6379 V 543.945 H 53.6377 Z"
       style="fill:#ffec00;fill-rule:evenodd"
       id="path1" />
    <g
       id="Layer1001">
      <path
         d="m 436.5804,349.0671 h -53.4997 l -3.8932,3.8804 23.1201,73.7343 3.8876,3.8788 h 53.5106 l 3.8916,-3.8822 -23.1138,-73.7151 z m -4.6511,67.0012 v 0 h -5.1105 -0.5801 l -0.1787,-0.5533 -15.967,-50.9325 -0.3217,-1.0267 h 1.0765 5.1098 0.5848 l 0.174,0.5549 15.9679,50.9309 0.3217,1.0267 z M 303.2776,349.0671 v 0 l 24.3095,77.538 -3.9615,3.9555 h -22.8875 l -4.7913,-15.2822 h -3.1951 l -4.7911,15.2822 h -10.2104 l -4.7884,-15.2822 h -3.2016 l -4.7904,15.2822 H 241.986 l -3.8902,-3.8822 24.3341,-77.6113 h 12.7569 l 6.3869,20.375 h 2.5567 l 6.3875,-20.375 z m 73.1104,40.747 v 0 l 4.6365,-9.2537 -8.6672,-27.6529 -3.8492,-3.8404 h -53.5352 l -3.8923,3.8804 0.3824,1.2136 22.7406,72.535 3.8724,3.8645 h 53.5205 l 3.8922,-3.8822 -11.5592,-36.8643 z m -29.3231,-9.3966 v 0 l -0.174,-0.5546 -4.7902,-15.2804 -0.3217,-1.0267 h 1.0803 5.1051 0.5857 l 0.1738,0.5549 4.7882,15.2808 0.3223,1.026 h -1.0764 -5.1083 z m 16.8697,35.6508 v 0 h -5.1081 -0.581 l -0.1778,-0.5533 -6.387,-20.3735 -0.3217,-1.0278 h 1.0804 5.1072 0.5819 l 0.174,0.5565 6.3893,20.3714 0.3232,1.0267 z M 250.6171,349.0671 v 0 h -53.5277 l -3.8621,3.8527 -15.2801,48.7359 h -16.6298 l -1.5241,4.8634 -6.2908,20.1175 3.9231,3.9102 36.0289,0.0138 3.9068,-3.8996 9.9563,-31.7543 h 6.7767 l -9.9606,31.7699 3.8949,3.884 h 19.489 l 3.867,-3.8561 23.1254,-73.757 z m -27.0173,15.5154 v 0 l -4.7899,15.2804 -0.1732,0.5546 h -0.5847 -5.1059 -1.0789 l 0.3192,-1.026 4.7914,-15.2808 0.176,-0.5549 h 0.5823 5.1085 1.0785 z m -48.6288,25.2083 v 0 l -0.0427,0.042 0.015,-0.042 z m 11.5454,-36.8433 v 0 l -11.5731,36.8666 -0.015,0.0415 -5.06,5.0442 H 156.726 l 0.0152,0.007 -9.9421,31.7699 -3.8927,3.884 h -20.3063 l -3.8927,-3.8822 9.9405,-31.7717 0.0116,-0.007 H 117.195 l -3.8936,-3.8806 v -0.0921 l 11.9307,-38.0051 3.8668,-3.8549 h 53.5239 z m 279.0978,-22.1866 v 0 c -9.0342,0 -16.361,7.3038 -16.361,16.313 0,9.0097 7.3268,16.3135 16.361,16.3135 9.0374,0 16.3604,-7.3038 16.3604,-16.3135 0,-9.0092 -7.323,-16.313 -16.3604,-16.313 z m 8.1678,18.287 v 0 h -6.1407 v 6.1789 h -4.0486 v -6.1789 h -6.1425 v -3.9466 h 6.1425 v -6.1793 h 4.0486 v 6.1793 h 6.1407 z"
         style="fill:#9b0b7c;fill-rule:evenodd"
         id="path2" />
      <path
         d="m 378.3235,465.4109 h 50.7562 c 12.5729,0 22.8594,10.2868 22.8594,22.8589 v 8e-4 c 0,12.5721 -10.2865,22.8586 -22.8594,22.8586 h -50.7562 c -12.5729,0 -22.8594,-10.2865 -22.8594,-22.8586 v -8e-4 c 0,-12.5721 10.2865,-22.8589 22.8594,-22.8589 z m 52.7476,9.737 v 0 c -3.4069,0 -6.17,2.7546 -6.17,6.1522 0,3.3979 2.7631,6.1514 6.17,6.1514 3.408,0 6.17,-2.7535 6.17,-6.1514 0,-3.3976 -2.762,-6.1522 -6.17,-6.1522 z m 3.0802,6.8964 v 0 h -2.3155 v 2.33 h -1.5265 v -2.33 h -2.3169 v -1.4889 h 2.3169 v -2.3299 h 1.5265 v 2.3299 h 2.3155 z m -51.7609,10.7316 v 2.3523 h -2.0286 v 4.5355 c 0,0.9208 0.0178,1.4565 0.0577,1.6077 0.0395,0.1509 0.1255,0.2768 0.266,0.3777 0.1367,0.0969 0.302,0.1475 0.4998,0.1475 0.2772,0 0.6728,-0.0935 1.1943,-0.2842 l 0.248,2.3017 c -0.6868,0.295 -1.4639,0.4425 -2.334,0.4425 -0.5323,0 -1.011,-0.0898 -1.439,-0.2697 -0.428,-0.1799 -0.7409,-0.4135 -0.9387,-0.6977 -0.2015,-0.2879 -0.3382,-0.6727 -0.4171,-1.1618 -0.0611,-0.3453 -0.0935,-1.043 -0.0935,-2.0968 v -4.9024 h -1.3597 v -2.3523 h 1.3597 v -2.223 l 2.9565,-1.7478 v 3.9708 z m 1.2322,-1.5108 v -2.7405 h 2.9565 v 2.7405 z m 0,12.711 v -11.2002 h 2.9565 v 11.2002 z m 11.6308,-3.5391 2.9565,0.4962 c -0.3777,1.0828 -0.9782,1.9064 -1.7947,2.4745 -0.8202,0.5647 -1.8453,0.8489 -3.0716,0.8489 -1.9459,0 -3.3882,-0.6366 -4.3198,-1.9098 -0.7376,-1.0214 -1.1078,-2.3091 -1.1078,-3.8665 0,-1.8561 0.4853,-3.3126 1.4531,-4.363 0.9673,-1.0538 2.194,-1.579 3.6758,-1.579 1.6617,0 2.9747,0.5505 3.9384,1.6509 0.9603,1.1007 1.4207,2.7877 1.3774,5.0607 h -7.4018 c 0.0216,0.8776 0.2589,1.5611 0.7155,2.0502 0.4534,0.4891 1.0218,0.7338 1.6979,0.7338 0.4637,0 0.8523,-0.1259 1.1652,-0.3777 0.3166,-0.2518 0.5539,-0.6582 0.7159,-1.2192 z m 0.1725,-2.9997 c -0.0216,-0.8597 -0.241,-1.5142 -0.6616,-1.9604 -0.4209,-0.4496 -0.9316,-0.6724 -1.5358,-0.6724 -0.644,0 -1.1763,0.2373 -1.5973,0.7085 -0.4205,0.4712 -0.6258,1.1149 -0.6183,1.9243 z m 14.7027,6.5388 h -2.9565 v -5.7081 c 0,-1.2084 -0.0648,-1.9888 -0.1907,-2.3415 -0.1296,-0.3561 -0.3345,-0.6295 -0.6224,-0.8273 -0.2876,-0.1978 -0.6329,-0.2947 -1.0359,-0.2947 -0.5178,0 -0.9819,0.1401 -1.3917,0.4206 -0.4138,0.2808 -0.6943,0.6548 -0.8452,1.1152 -0.1549,0.4638 -0.2302,1.3198 -0.2302,2.5717 v 5.0641 h -2.9568 v -11.2002 h 2.7408 v 1.6435 c 0.9819,-1.255 2.2156,-1.8811 3.7082,-1.8811 0.6548,0 1.2553,0.1188 1.7984,0.3527 0.5468,0.2373 0.9569,0.5357 1.2337,0.8992 0.2805,0.3669 0.4749,0.7804 0.5826,1.2445 0.1117,0.4638 0.1657,1.1257 0.1657,1.9888 z m 12.4291,0 h -2.7404 v -1.6438 c -0.4571,0.6403 -1.0002,1.1186 -1.6223,1.4423 -0.6224,0.3203 -1.2516,0.482 -1.8848,0.482 -1.2911,0 -2.3955,-0.5178 -3.316,-1.5574 -0.9174,-1.0393 -1.3778,-2.4853 -1.3778,-4.3448 0,-1.899 0.4462,-3.345 1.3417,-4.334 0.8955,-0.9893 2.0249,-1.4821 3.3916,-1.4821 1.2519,0 2.3381,0.5218 3.2515,1.5611 v -5.5748 h 2.9565 z m -7.8984,-5.8158 c 0,1.1976 0.1654,2.0644 0.4928,2.6004 0.4783,0.7767 1.1439,1.1652 1.9999,1.1652 0.6798,0 1.2587,-0.2913 1.7336,-0.8739 0.4783,-0.5826 0.7156,-1.4494 0.7156,-2.6078 0,-1.2911 -0.2302,-2.219 -0.694,-2.7874 -0.4641,-0.5684 -1.0537,-0.8523 -1.7768,-0.8523 -0.7014,0 -1.2877,0.2805 -1.7626,0.8415 -0.4712,0.561 -0.7085,1.3991 -0.7085,2.5143 z m 12.1706,-1.9317 -2.6761,-0.4746 c 0.3021,-1.0936 0.8236,-1.9027 1.5608,-2.4279 0.7375,-0.5252 1.8345,-0.7878 3.2877,-0.7878 1.3201,0 2.3053,0.1549 2.9527,0.4678 0.6441,0.3129 1.1008,0.7085 1.3634,1.1905 0.2626,0.482 0.3956,1.363 0.3956,2.6507 l -0.0433,3.453 c 0,0.9819 0.047,1.7083 0.1405,2.1761 0.0935,0.4675 0.2697,0.9674 0.5285,1.4997 h -2.9349 c -0.0756,-0.1941 -0.1728,-0.482 -0.2842,-0.8631 -0.0465,-0.1765 -0.0827,-0.2916 -0.1043,-0.3453 -0.5036,0.4962 -1.043,0.8668 -1.6185,1.1149 -0.5755,0.2481 -1.1867,0.374 -1.8379,0.374 -1.1472,0 -2.0539,-0.3129 -2.7154,-0.9387 -0.662,-0.6221 -0.9927,-1.4136 -0.9927,-2.3702 0,-0.6295 0.1508,-1.1942 0.4529,-1.6904 0.3021,-0.4928 0.723,-0.8742 1.2698,-1.1368 0.5431,-0.2626 1.3272,-0.4928 2.3524,-0.6906 1.3812,-0.2589 2.3415,-0.5033 2.8738,-0.7264 v -0.2987 c 0,-0.5752 -0.1405,-0.9853 -0.421,-1.2334 -0.2842,-0.2447 -0.8165,-0.3669 -1.5968,-0.3669 -0.529,0 -0.9387,0.1043 -1.2338,0.3163 -0.2987,0.2086 -0.536,0.5792 -0.7192,1.1078 z m 3.9708,2.3955 c -0.3777,0.1259 -0.9786,0.2771 -1.8022,0.4533 -0.8198,0.1762 -1.3596,0.3487 -1.6114,0.5144 -0.3848,0.2768 -0.5788,0.6221 -0.5788,1.043 0,0.4172 0.1545,0.7733 0.4637,1.0754 0.3096,0.3021 0.7014,0.453 1.1797,0.453 0.5327,0 1.0434,-0.1762 1.5287,-0.5249 0.3561,-0.2697 0.5934,-0.5937 0.7052,-0.9819 0.0756,-0.2518 0.1151,-0.7338 0.1151,-1.4423 z m -59.5465,-22.7535 h 2.7621 v 1.6434 c 0.3598,-0.561 0.8418,-1.0139 1.4531,-1.3629 0.6116,-0.3454 1.2914,-0.5182 2.0357,-0.5182 1.2985,0 2.403,0.5111 3.3092,1.5325 0.9063,1.0176 1.3596,2.442 1.3596,4.2621 0,1.874 -0.457,3.3271 -1.3704,4.3664 -0.9137,1.0396 -2.0215,1.5574 -3.3234,1.5574 -0.6187,0 -1.1797,-0.1222 -1.6833,-0.3703 -0.4999,-0.2447 -1.0322,-0.6657 -1.5861,-1.2628 v 5.6039 h -2.9565 z m 2.9133,5.4272 c 0,1.2628 0.2481,2.194 0.748,2.7986 0.4965,0.6005 1.1044,0.9025 1.8163,0.9025 0.6872,0 1.259,-0.2767 1.7157,-0.8306 0.457,-0.5539 0.6835,-1.4606 0.6835,-2.723 0,-1.1797 -0.2339,-2.0535 -0.7051,-2.6253 -0.4675,-0.5722 -1.0501,-0.8564 -1.7444,-0.8564 -0.723,0 -1.3235,0.2809 -1.7984,0.8419 -0.4783,0.5609 -0.7156,1.392 -0.7156,2.4923 z m 12.2831,5.773 h -2.9565 v -11.2002 h 2.7404 v 1.5898 c 0.4712,-0.7517 0.8959,-1.2445 1.2736,-1.4785 0.3773,-0.2339 0.8057,-0.349 1.284,-0.349 0.6761,0 1.3272,0.1874 1.953,0.5576 l -0.9171,2.5826 c -0.5003,-0.3237 -0.964,-0.4858 -1.392,-0.4858 -0.4172,0 -0.77,0.1151 -1.0575,0.342 -0.2876,0.2302 -0.5145,0.6399 -0.6798,1.237 -0.1654,0.5971 -0.2481,1.8487 -0.2481,3.7514 z m 6.8733,-7.7476 -2.676,-0.4745 c 0.302,-1.0937 0.8235,-1.9027 1.5607,-2.428 0.7376,-0.5252 1.8346,-0.7878 3.2877,-0.7878 1.3201,0 2.3053,0.155 2.9527,0.4679 0.6441,0.3129 1.1008,0.7085 1.3634,1.1905 0.2626,0.482 0.3956,1.3629 0.3956,2.6506 l -0.0433,3.4531 c 0,0.9819 0.047,1.7082 0.1405,2.1761 0.0935,0.4675 0.2697,0.9674 0.5285,1.4997 h -2.9348 c -0.0757,-0.1941 -0.1729,-0.482 -0.2843,-0.8631 -0.0465,-0.1766 -0.0827,-0.2917 -0.1043,-0.3453 -0.5036,0.4962 -1.0429,0.8668 -1.6185,1.1149 -0.5755,0.2481 -1.1867,0.374 -1.8378,0.374 -1.1473,0 -2.054,-0.3129 -2.7155,-0.9387 -0.662,-0.6221 -0.9927,-1.4137 -0.9927,-2.3702 0,-0.6295 0.1508,-1.1942 0.4529,-1.6904 0.3021,-0.4928 0.723,-0.8743 1.2699,-1.1369 0.543,-0.2626 1.3272,-0.4928 2.3523,-0.6906 1.3812,-0.2589 2.3415,-0.5032 2.8738,-0.7263 v -0.2988 c 0,-0.5751 -0.1405,-0.9852 -0.421,-1.2333 -0.2842,-0.2447 -0.8165,-0.3669 -1.5968,-0.3669 -0.529,0 -0.9387,0.1043 -1.2337,0.3162 -0.2988,0.2086 -0.5361,0.5793 -0.7193,1.1078 z m 3.9708,2.3955 c -0.3777,0.126 -0.9786,0.2772 -1.8022,0.4534 -0.8198,0.1762 -1.3596,0.3486 -1.6114,0.5144 -0.3848,0.2768 -0.5788,0.6221 -0.5788,1.043 0,0.4172 0.1545,0.7733 0.4637,1.0754 0.3096,0.3021 0.7014,0.4529 1.1797,0.4529 0.5327,0 1.0434,-0.1762 1.5287,-0.5248 0.3561,-0.2697 0.5934,-0.5938 0.7052,-0.9819 0.0756,-0.2518 0.1151,-0.7338 0.1151,-1.4423 z m 14.6856,-2.5247 -2.9133,0.5177 c -0.0972,-0.5788 -0.3203,-1.0143 -0.669,-1.3093 -0.349,-0.2913 -0.7986,-0.4388 -1.3525,-0.4388 -0.7372,0 -1.3272,0.2555 -1.766,0.7662 -0.4388,0.5107 -0.6582,1.3634 -0.6582,2.5609 0,1.331 0.2231,2.2697 0.669,2.8198 0.4459,0.5506 1.043,0.8236 1.7913,0.8236 0.561,0 1.0214,-0.1616 1.3775,-0.4816 0.3595,-0.3204 0.6113,-0.8705 0.7588,-1.6546 l 2.9133,0.4961 c -0.3021,1.338 -0.881,2.349 -1.737,3.0321 -0.856,0.6836 -2.0036,1.0252 -3.4459,1.0252 -1.6327,0 -2.9383,-0.5178 -3.9094,-1.5504 -0.9748,-1.0355 -1.4605,-2.467 -1.4605,-4.2978 0,-1.8524 0.4891,-3.291 1.4639,-4.3236 0.9748,-1.0322 2.2949,-1.5466 3.96,-1.5466 1.3596,0 2.4424,0.295 3.2478,0.8813 0.8023,0.5863 1.3778,1.4785 1.7302,2.6798 z m 6.4636,-3.3234 v 2.3523 h -2.0287 v 4.5355 c 0,0.9208 0.0179,1.4564 0.0578,1.6077 0.0395,0.1508 0.1255,0.2767 0.2659,0.3777 0.1368,0.0968 0.3021,0.1475 0.4999,0.1475 0.2772,0 0.6728,-0.0935 1.1943,-0.2842 l 0.248,2.3016 c -0.6868,0.295 -1.4639,0.4426 -2.334,0.4426 -0.5323,0 -1.011,-0.0898 -1.439,-0.2697 -0.428,-0.1799 -0.7409,-0.4135 -0.9387,-0.6977 -0.2015,-0.288 -0.3382,-0.6727 -0.4172,-1.1618 -0.061,-0.3453 -0.0935,-1.043 -0.0935,-2.0968 v -4.9024 h -1.3596 v -2.3523 h 1.3596 v -2.2231 l 2.9565,-1.7477 v 3.9708 z m 1.1722,-1.5109 v -2.7404 h 2.9565 v 2.7404 z m 0,12.7111 v -11.2002 h 2.9565 v 11.2002 z"
         style="fill:#9b0b7c;fill-rule:evenodd"
         id="path3" />
    </g>
  </g>
</svg>
