<?xml version="1.0" encoding="UTF-8"?>
<svg version="1.1" xmlns="http://www.w3.org/2000/svg" width="337" height="334">
<path d="M0 0 C111.21 0 222.42 0 337 0 C337 110.22 337 220.44 337 334 C225.79 334 114.58 334 0 334 C0 223.78 0 113.56 0 0 Z " fill="#AE1180" transform="translate(0,0)"/>
<path d="M0 0 C0.97238113 0.00565979 1.94476227 0.01131958 2.9466095 0.01715088 C6.05474925 0.03955571 9.16173949 0.08976019 12.26953125 0.140625 C14.3756344 0.16068467 16.48175561 0.17893636 18.58789062 0.1953125 C23.75304761 0.23943407 28.91734449 0.3084904 34.08203125 0.390625 C35.64955804 3.3983279 36.15680552 4.96480855 35.56225586 8.35058594 C35.02870483 9.9714209 35.02870483 9.9714209 34.484375 11.625 C34.09717285 12.8313208 33.7099707 14.0376416 33.31103516 15.28051758 C32.8807604 16.56729583 32.45025486 17.85399693 32.01953125 19.140625 C31.59249858 20.45475822 31.16721075 21.76945968 30.74365234 23.0847168 C30.11240181 25.04342329 29.47986431 27.0016105 28.84088135 28.95780945 C27.19027028 34.01112931 25.66157712 39.09046478 24.20703125 44.203125 C19.4104554 61.06220085 19.4104554 61.06220085 15.08203125 65.390625 C12.42380468 65.51720722 9.80315701 65.57582714 7.14453125 65.578125 C6.40267578 65.59037109 5.66082031 65.60261719 4.89648438 65.61523438 C2.95689496 65.62050978 1.01779415 65.51251402 -0.91796875 65.390625 C-1.57796875 64.730625 -2.23796875 64.070625 -2.91796875 63.390625 C-2.59524227 57.1832902 -0.90327745 51.72521685 1.14453125 45.890625 C1.42619141 45.06820312 1.70785156 44.24578125 1.99804688 43.3984375 C2.68580368 41.39345157 3.38294201 39.39168777 4.08203125 37.390625 C2.10203125 37.390625 0.12203125 37.390625 -1.91796875 37.390625 C-2.02238281 38.34324219 -2.12679687 39.29585937 -2.234375 40.27734375 C-2.92215507 45.07729924 -4.37880314 49.59606995 -5.85546875 54.203125 C-6.12037109 55.06099609 -6.38527344 55.91886719 -6.65820312 56.80273438 C-6.91794922 57.62193359 -7.17769531 58.44113281 -7.4453125 59.28515625 C-7.79710571 60.39661011 -7.79710571 60.39661011 -8.15600586 61.53051758 C-8.91796875 63.390625 -8.91796875 63.390625 -10.91796875 65.390625 C-13.8671875 65.64941406 -13.8671875 65.64941406 -17.60546875 65.65625 C-18.26377686 65.65816345 -18.92208496 65.6600769 -19.6003418 65.66204834 C-20.99235415 65.6634095 -22.38437922 65.65971783 -23.77636719 65.65136719 C-25.90979464 65.640666 -28.04238006 65.65126406 -30.17578125 65.6640625 C-31.52734561 65.66274089 -32.87890945 65.66017847 -34.23046875 65.65625 C-35.46410156 65.65399414 -36.69773437 65.65173828 -37.96875 65.64941406 C-40.91796875 65.390625 -40.91796875 65.390625 -42.91796875 63.390625 C-42.64081993 56.04618117 -40.16385373 49.34562366 -37.91796875 42.390625 C-33.29796875 42.390625 -28.67796875 42.390625 -23.91796875 42.390625 C-23.57765625 40.6271875 -23.57765625 40.6271875 -23.23046875 38.828125 C-22.13093785 33.85294262 -20.5369669 29.09242445 -18.88061523 24.27783203 C-16.97021736 18.68324552 -15.40170224 13.03839907 -13.91015625 7.31640625 C-11.24522235 -0.54200118 -7.644951 -0.16667092 0 0 Z " fill="#FDEA10" transform="translate(97.91796875,135.609375)"/>
<path d="M0 0 C3.63 0 7.26 0 11 0 C12.32 5.28 13.64 10.56 15 16 C15.99 16 16.98 16 18 16 C18.18175781 15.02160156 18.18175781 15.02160156 18.3671875 14.0234375 C19.28943989 9.21353658 20.30167277 4.60974535 22 0 C25.63 0 29.26 0 33 0 C33.3403125 1.14210937 33.680625 2.28421875 34.03125 3.4609375 C37.04909387 13.56769768 40.1020975 23.66365864 43.1875 33.75 C43.52007812 34.8436084 43.85265625 35.9372168 44.1953125 37.06396484 C45.58071567 41.57973934 46.97870665 46.05602513 48.6875 50.4609375 C49.76931099 53.37796357 50.49025952 55.80552286 50.8125 58.875 C50.90144531 59.61492187 50.99039063 60.35484375 51.08203125 61.1171875 C51 63 51 63 49 65 C47.02880859 65.22705078 47.02880859 65.22705078 44.6484375 65.1953125 C43.37226563 65.18564453 43.37226563 65.18564453 42.0703125 65.17578125 C40.73613281 65.15064453 40.73613281 65.15064453 39.375 65.125 C38.4778125 65.11597656 37.580625 65.10695313 36.65625 65.09765625 C34.43723414 65.0740497 32.21874923 65.0411231 30 65 C29.49440092 63.56445975 28.9957251 62.1264798 28.5 60.6875 C28.2215625 59.88699219 27.943125 59.08648437 27.65625 58.26171875 C27 56 27 56 27 53 C26.01 53 25.02 53 24 53 C23.896875 53.680625 23.79375 54.36125 23.6875 55.0625 C22.85274981 58.62915989 21.50527246 61.66222194 20 65 C17.36 65 14.72 65 12 65 C11.49440092 63.56445975 10.9957251 62.1264798 10.5 60.6875 C10.2215625 59.88699219 9.943125 59.08648437 9.65625 58.26171875 C9 56 9 56 9 53 C8.01 53 7.02 53 6 53 C5.01 56.96 4.02 60.92 3 65 C-3.6 65 -10.2 65 -17 65 C-19.66393156 51.68034222 -11.11672226 34.6991317 -7.00488281 22.09570312 C-5.47574557 17.3849499 -3.98611539 12.66196873 -2.5 7.9375 C-2.24492676 7.12821045 -1.98985352 6.3189209 -1.72705078 5.48510742 C-1.15086971 3.65689499 -0.5753484 1.82847465 0 0 Z " fill="#FDEB10" transform="translate(140,136)"/>
<path d="M0 0 C0.8510582 -0.00953201 1.70211639 -0.01906403 2.57896423 -0.02888489 C3.9602224 -0.02751778 3.9602224 -0.02751778 5.36938477 -0.02612305 C6.31386978 -0.03040817 7.2583548 -0.0346933 8.23146057 -0.03910828 C10.23128456 -0.04485766 12.23112947 -0.04534738 14.23095703 -0.04101562 C17.29504005 -0.03785803 20.35815577 -0.06129905 23.42211914 -0.08666992 C25.36287313 -0.08894304 27.30362972 -0.08964635 29.24438477 -0.08862305 C30.62260658 -0.10243767 30.62260658 -0.10243767 32.02867126 -0.11653137 C32.88288162 -0.11030258 33.73709198 -0.10407379 34.6171875 -0.09765625 C35.36838364 -0.09828568 36.11957977 -0.0989151 36.89353943 -0.0995636 C39.421307 0.37824672 40.28551937 1.29084549 41.87329102 3.2746582 C42.76123047 5.42504883 42.76123047 5.42504883 43.48657227 7.9309082 C43.76202881 8.86169189 44.03748535 9.79247559 44.32128906 10.75146484 C44.60657471 11.74911865 44.89186035 12.74677246 45.18579102 13.7746582 C45.80201441 15.86739025 46.41921673 17.95983427 47.03735352 20.05200195 C47.34447266 21.09984863 47.6515918 22.14769531 47.96801758 23.22729492 C49.2720121 27.61684713 50.66370275 31.97654939 52.06079102 36.3371582 C53.00268851 39.31495061 53.93834193 42.29467836 54.87329102 45.2746582 C55.09178711 45.9651123 55.3102832 46.65556641 55.53540039 47.36694336 C56.13961184 49.29065966 56.72569457 51.22004217 57.31079102 53.1496582 C57.80385742 54.75454102 57.80385742 54.75454102 58.30688477 56.3918457 C58.9033672 59.42773563 58.76439886 61.33242047 57.87329102 64.2746582 C56.34950966 65.79843956 54.98516479 65.41651186 52.86010742 65.43579102 C52.00897369 65.44539856 51.15783997 65.4550061 50.28091431 65.46490479 C49.35491425 65.46915466 48.42891418 65.47340454 47.47485352 65.4777832 C46.05600357 65.48633331 46.05600357 65.48633331 44.60848999 65.49505615 C42.60269291 65.50452185 40.59688018 65.51104634 38.59106445 65.51489258 C35.51819776 65.52459535 32.44600046 65.55560278 29.37329102 65.5871582 C27.4279825 65.59368817 25.48266919 65.59893866 23.53735352 65.6027832 C22.61540192 65.61513 21.69345032 65.62747681 20.74356079 65.64019775 C19.88612274 65.63719666 19.02868469 65.63419556 18.14526367 65.63110352 C17.01394516 65.63657196 17.01394516 65.63657196 15.85977173 65.64215088 C13.31366397 65.17112896 12.46053594 64.2830364 10.87329102 62.2746582 C9.88110352 59.70043945 9.88110352 59.70043945 8.99829102 56.5871582 C8.65926758 55.42571289 8.32024414 54.26426758 7.97094727 53.06762695 C7.6087207 51.81594727 7.24649414 50.56426758 6.87329102 49.2746582 C6.07482393 46.64523494 5.2569333 44.02207761 4.43579102 41.3996582 C4.22728516 40.73015137 4.0187793 40.06064453 3.80395508 39.37084961 C2.34628534 34.71322647 0.81178006 30.08516215 -0.75170898 25.4621582 C-6.61393795 7.94944264 -6.61393795 7.94944264 -6.12670898 2.2746582 C-3.74403542 -0.10801536 -3.24157469 0.01990297 0 0 Z " fill="#FDE912" transform="translate(239.126708984375,135.725341796875)"/>
<path d="M0 0 C0.84790604 -0.01606293 1.69581207 -0.03212585 2.56941223 -0.04867554 C6.45626167 -0.09299972 10.34293749 -0.13419869 14.22998047 -0.15722656 C16.28152816 -0.1737857 18.33301817 -0.20107512 20.38427734 -0.23925781 C23.33681269 -0.29396523 26.28799318 -0.3158918 29.2409668 -0.33056641 C30.15775711 -0.35323578 31.07454742 -0.37590515 32.01911926 -0.39926147 C38.37481772 -0.37813392 38.37481772 -0.37813392 41.51782227 2.48022461 C43.49671939 6.09540481 44.68638552 9.55630763 45.81518555 13.50537109 C46.04399414 14.22660156 46.27280273 14.94783203 46.50854492 15.69091797 C48.34893784 21.96626384 48.09255337 26.92326761 46.00268555 33.19287109 C47.65268555 33.19287109 49.30268555 33.19287109 51.00268555 33.19287109 C52.29019912 36.98121997 53.57177623 40.77151955 54.84790039 44.5637207 C55.28279783 45.85333268 55.71930977 47.14240138 56.1574707 48.4309082 C56.78721129 50.2837164 57.41065811 52.13865998 58.03393555 53.99365234 C58.41098633 55.10909424 58.78803711 56.22453613 59.17651367 57.3737793 C60.00268555 60.19287109 60.00268555 60.19287109 60.00268555 63.19287109 C56.92987068 65.24141434 56.24040741 65.44980787 52.76245117 65.49926758 C51.91146851 65.51525497 51.06048584 65.53124237 50.18371582 65.54771423 C48.81019958 65.55575829 48.81019958 65.55575829 47.40893555 65.56396484 C46.46586548 65.57299332 45.52279541 65.58202179 44.55114746 65.59132385 C42.557324 65.60583027 40.56345289 65.61471406 38.56958008 65.6184082 C35.51391999 65.63032727 32.46026442 65.6795275 29.4050293 65.72998047 C27.46884125 65.73944194 25.53264079 65.7466783 23.59643555 65.75146484 C22.68075806 65.77099716 21.76508057 65.79052948 20.82165527 65.81065369 C18.44489719 65.79367885 16.31693944 65.73459263 14.00268555 65.19287109 C11.98364258 62.86865234 11.98364258 62.86865234 11.00268555 60.19287109 C10.57729492 59.08041016 10.1519043 57.96794922 9.71362305 56.82177734 C9.26081799 55.46879311 8.81608366 54.11309192 8.37768555 52.75537109 C8.13115234 52.00545898 7.88461914 51.25554687 7.63061523 50.48291016 C4.61818456 41.1979213 1.85152671 31.83390448 -0.92553711 22.47631836 C-1.29469238 21.23293701 -1.66384766 19.98955566 -2.04418945 18.70849609 C-2.37257812 17.59764648 -2.7009668 16.48679688 -3.03930664 15.34228516 C-3.69094103 13.20006202 -4.39305115 11.07268913 -5.13891602 8.96142578 C-6.09374305 5.88186418 -5.95448362 4.23840934 -4.99731445 1.19287109 C-3.47816817 -0.32627519 -2.11997628 0.03637085 0 0 Z " fill="#FDEC10" transform="translate(184.997314453125,135.80712890625)"/>
<path d="M0 0 C1.28131554 -0.00934319 1.28131554 -0.00934319 2.58851624 -0.01887512 C3.50733078 -0.00966537 4.42614532 -0.00045563 5.37280273 0.0090332 C6.31824448 0.0085347 7.26368622 0.00803619 8.23777771 0.00752258 C10.23585106 0.00986284 12.23392737 0.0195885 14.23193359 0.03613281 C17.29803681 0.05975006 20.36327218 0.05669035 23.42944336 0.05004883 C25.36890169 0.05562466 27.30835635 0.06273394 29.24780273 0.0715332 C30.16864151 0.0706218 31.08948029 0.06971039 32.03822327 0.06877136 C32.88928146 0.07830338 33.74033966 0.08783539 34.6171875 0.09765625 C35.36758804 0.10226364 36.11798859 0.10687103 36.89112854 0.11161804 C38.74389648 0.37231445 38.74389648 0.37231445 40.74389648 2.37231445 C40.50894101 8.59863461 38.68911128 14.20700891 36.78295898 20.1105957 C35.85091878 23.03636101 35.04083426 25.97038107 34.24389648 28.93481445 C32.20384937 35.46934037 32.20384937 35.46934037 28.74389648 37.37231445 C25.05212397 37.68174047 21.43841143 37.60162917 17.74389648 37.37231445 C17.63432617 37.92918945 17.52475586 38.48606445 17.41186523 39.05981445 C16.3019177 44.40200096 14.78662684 49.32119939 12.74389648 54.37231445 C12.39842773 55.25918945 12.05295898 56.14606445 11.69702148 57.05981445 C8.88583574 64.2303752 8.88583574 64.2303752 7.74389648 65.37231445 C4.94050014 65.49920502 2.17271805 65.55752375 -0.63110352 65.55981445 C-1.41227539 65.57206055 -2.19344727 65.58430664 -2.99829102 65.59692383 C-6.93245875 65.60702871 -8.91202801 65.60169812 -12.25610352 63.37231445 C-10.49024284 54.54301105 -7.84733183 45.98666508 -5.25610352 37.37231445 C-7.2417806 37.43741862 -9.22745768 37.50252279 -11.21313477 37.56762695 C-13.25610352 37.37231445 -13.25610352 37.37231445 -16.25610352 35.37231445 C-15.60121675 28.50592599 -13.48263439 22.16794289 -11.38110352 15.62231445 C-11.02918945 14.48665039 -10.67727539 13.35098633 -10.31469727 12.1809082 C-9.96793945 11.09422852 -9.62118164 10.00754883 -9.26391602 8.88793945 C-8.79429443 7.40729004 -8.79429443 7.40729004 -8.31518555 5.89672852 C-6.50500545 1.58200694 -4.70929988 -0.00394591 0 0 Z " fill="#FDEC10" transform="translate(39.256103515625,135.627685546875)"/>
<path d="M0 0 C7.26 0 14.52 0 22 0 C20.00853316 1.99146684 18.78100378 2.60348481 16.25 3.6875 C9.04395576 7.25135884 5.65370663 12.83252251 2.82763767 20.17047405 C1.3853001 25.10153473 1.44991862 29.92600282 1.49206543 35.03088379 C1.48582547 36.20435191 1.4795855 37.37782002 1.47315645 38.58684778 C1.46003481 41.81740821 1.46465806 45.04735935 1.47710133 48.2779038 C1.48619537 51.77218947 1.47216064 55.26639619 1.46118164 58.76066589 C1.44343801 65.5953954 1.44721776 72.42994875 1.4588322 79.26468503 C1.46788268 84.82167906 1.46908356 90.37862388 1.46473694 95.93562317 C1.46381754 97.12405299 1.46381754 97.12405299 1.46287957 98.3364915 C1.46160061 99.94623786 1.46030375 101.5559842 1.4589892 103.16573054 C1.44759558 118.24404164 1.46067795 133.32225531 1.48219067 148.40055043 C1.50006056 161.32551338 1.49695611 174.25033261 1.47851562 187.17529297 C1.45708735 202.20133945 1.44869411 217.22730064 1.46096468 232.25336027 C1.46223881 233.85703244 1.4634963 235.46070463 1.46473694 237.06437683 C1.46535404 237.85331948 1.46597114 238.64226213 1.46660694 239.45511213 C1.47005398 245.00246973 1.46424548 250.54977301 1.45481873 256.09712219 C1.44357558 262.86176645 1.44668725 269.62622515 1.4679417 276.39084828 C1.47842118 279.83926418 1.48262753 283.28737123 1.46934509 286.73578453 C1.45839163 290.48053508 1.47215286 294.22442055 1.49206543 297.96911621 C1.48314254 299.04986876 1.47421966 300.13062131 1.46502638 301.24412394 C1.55906398 310.38084484 3.79113266 318.69511251 10.19849402 325.47828394 C17.47594325 331.62548049 24.94856597 332.72789097 34.18946838 332.62818909 C35.37997628 332.63528347 36.57048417 332.64237786 37.79706806 332.64968723 C41.07528858 332.66416627 44.35255768 332.65644326 47.6307348 332.6389643 C51.17613366 332.62553049 54.72142663 332.64104872 58.26681519 332.65278625 C65.20151429 332.67112209 72.13593079 332.66267809 79.07062096 332.64469803 C84.70819744 332.63064781 90.34569742 332.62678442 95.98328972 332.6301403 C96.78696643 332.63061775 97.59064315 332.63109519 98.41867371 332.6315871 C100.0515338 332.63261347 101.68439388 332.63366883 103.31725394 332.63475286 C117.74110004 332.64331157 132.16481006 332.62667131 146.58862305 332.59692383 C160.57305617 332.56808306 174.55729333 332.56100649 188.54174805 332.57641602 C203.78496785 332.59318967 219.0280947 332.59720094 234.27131695 332.57970566 C235.89771997 332.57786134 237.524123 332.57602661 239.15052605 332.57420158 C240.35073575 332.57283345 240.35073575 332.57283345 241.57519211 332.57143768 C247.20416692 332.56583993 252.83309623 332.56913229 258.46206856 332.57574654 C265.32446578 332.5834903 272.18667034 332.57668958 279.04902882 332.5515715 C282.5479448 332.5391011 286.04656119 332.53289976 289.54548836 332.54411316 C293.34314508 332.55280842 297.13993126 332.53684821 300.93751526 332.5146637 C302.58635903 332.52702485 302.58635903 332.52702485 304.26851279 332.53963572 C312.59439719 332.44993421 318.37496347 330.43992844 325.25 325.8125 C331.02740335 319.90379203 334.11715501 313.30618808 334.13422108 305.05355644 C334.14090784 303.55125884 334.14090784 303.55125884 334.14772969 302.01861179 C334.14754533 300.92038219 334.14736097 299.82215259 334.14717102 298.69064331 C334.15268605 296.93813096 334.15268605 296.93813096 334.1583125 295.15021431 C334.16743065 291.90629981 334.17204713 288.66241505 334.17470181 285.41848993 C334.17860885 281.92003247 334.18818692 278.42158961 334.19691467 274.92314148 C334.21666793 266.47381976 334.22674391 258.02449686 334.23564246 249.57515782 C334.24002728 245.59465119 334.2453936 241.61414588 334.25063133 237.63364029 C334.26764258 224.39880843 334.28213626 211.16397739 334.28938007 197.92913628 C334.29128992 194.49540074 334.29321026 191.0616652 334.29516602 187.62792969 C334.29564976 186.77450836 334.2961335 185.92108703 334.2966319 185.04180445 C334.30493039 171.22010611 334.33026471 157.39849436 334.36274669 143.57683383 C334.39583457 129.38144139 334.4138304 115.18609294 334.41702431 100.99066174 C334.41918783 93.02247632 334.42791316 85.05441718 334.45348549 77.08626938 C334.47521614 70.29954785 334.48323133 63.51298328 334.47351871 56.7262309 C334.46898078 53.26568617 334.47083009 49.80546511 334.49028015 46.34496498 C334.50797171 42.58679046 334.50090499 38.8294337 334.48774719 35.07125854 C334.49871644 33.98641328 334.50968568 32.90156801 334.52098733 31.78384864 C334.44359255 22.60947834 332.18654338 14.42067347 325.859375 7.5390625 C322.32245738 4.61144582 318.19540777 2.79921637 314 1 C314 0.67 314 0.34 314 0 C321.59 0 329.18 0 337 0 C337 110.22 337 220.44 337 334 C225.79 334 114.58 334 0 334 C0 223.78 0 113.56 0 0 Z " fill="#060204" transform="translate(0,0)"/>
<path d="M0 0 C2.5625 2.1875 2.5625 2.1875 3.5625 5.1875 C4.2225 5.1875 4.8825 5.1875 5.5625 5.1875 C6.13654692 16.13691349 6.13654692 16.13691349 2.5625 20.1875 C-0.67549368 22.91035832 -2.73388867 24.0869841 -6.9375 24.6875 C-12.41205781 23.90542031 -15.22186432 21.52781626 -18.875 17.5 C-20.96330249 13.07279872 -20.78663831 9.84503482 -19.4375 5.1875 C-14.83207483 -2.27646493 -7.74211875 -4.08220807 0 0 Z " fill="#FCE41D" transform="translate(307.4375,123.8125)"/>
<path d="M0 0 C0.66 0 1.32 0 2 0 C2.495 0.99 2.495 0.99 3 2 C3.66 1.67 4.32 1.34 5 1 C4.31437232 5.77703635 3.13407986 10.32407717 1.75 14.9375 C1.53255127 15.67025146 1.31510254 16.40300293 1.09106445 17.15795898 C-1.10834776 24.49590471 -3.53544266 31.74715983 -6 39 C-10.62 39 -15.24 39 -20 39 C-20.103125 39.969375 -20.20625 40.93875 -20.3125 41.9375 C-20.73388831 44.99256525 -21.53113252 47.72063026 -22.5625 50.625 C-23.69824167 53.87709931 -24.42226948 56.51627677 -24 60 C-23.67 60.66 -23.34 61.32 -23 62 C-24.32 62 -25.64 62 -27 62 C-26.67 60.02 -26.34 58.04 -26 56 C-26.99 56 -27.98 56 -29 56 C-29.33 58.64 -29.66 61.28 -30 64 C-36.6 63.67 -43.2 63.34 -50 63 C-50 62.67 -50 62.34 -50 62 C-41.585 61.505 -41.585 61.505 -33 61 C-29.80070495 53.62384753 -27.05456107 46.33403253 -24.796875 38.6171875 C-24 36 -24 36 -23 34 C-20.22014208 33.64233098 -17.46375792 33.55590567 -14.6640625 33.44140625 C-12.05574686 33.18111715 -12.05574686 33.18111715 -10.30078125 31.95703125 C-8.29290555 28.93617321 -7.49447488 25.58939131 -6.5625 22.125 C-6.13356595 20.59744448 -5.70386904 19.07010298 -5.2734375 17.54296875 C-5.06170898 16.78161621 -4.84998047 16.02026367 -4.63183594 15.23583984 C-3.70392072 11.95228206 -2.69852714 8.69644919 -1.6875 5.4375 C-1.36136719 4.38433594 -1.03523438 3.33117187 -0.69921875 2.24609375 C-0.46847656 1.50488281 -0.23773438 0.76367188 0 0 Z " fill="#AB2068" transform="translate(80,139)"/>
<path d="M0 0 C2.475 0.495 2.475 0.495 5 1 C3.65299268 7.5950012 1.82327754 13.83071616 -0.375 20.1875 C-4.22506673 31.53365064 -7.56486375 42.92421402 -10.38671875 54.57421875 C-10.84919692 56.40351139 -11.40332608 58.20997825 -12 60 C-12.66 60 -13.32 60 -14 60 C-14 58.68 -14 57.36 -14 56 C-14.66 56 -15.32 56 -16 56 C-16.28875 56.94875 -16.5775 57.8975 -16.875 58.875 C-18 62 -18 62 -20 64 C-22.9093558 64.14517744 -25.719946 64.18630796 -28.625 64.125 C-29.42679687 64.11597656 -30.22859375 64.10695313 -31.0546875 64.09765625 C-33.03658523 64.07406223 -35.01832981 64.03819065 -37 64 C-37 63.34 -37 62.68 -37 62 C-35.87980469 61.98582031 -34.75960937 61.97164062 -33.60546875 61.95703125 C-32.13277131 61.91013006 -30.66011632 61.86188266 -29.1875 61.8125 C-28.44951172 61.80669922 -27.71152344 61.80089844 -26.95117188 61.79492188 C-24.50435338 61.74683485 -24.50435338 61.74683485 -21 61 C-18.97121452 58.81140282 -18.97121452 58.81140282 -18 56 C-17.68417969 55.2884375 -17.36835937 54.576875 -17.04296875 53.84375 C-14.49844185 46.87244341 -12.49726813 39.78702836 -10.50610352 32.64379883 C-7.39790307 21.63514276 -3.6990289 10.82156698 0 0 Z " fill="#B02569" transform="translate(134,139)"/>
<path d="M0 0 C0.99 0.33 1.98 0.66 3 1 C3.33 3.31 3.66 5.62 4 8 C4.66 8 5.32 8 6 8 C6.66 7.01 7.32 6.02 8 5 C8.30292969 6.06476563 8.60585937 7.12953125 8.91796875 8.2265625 C11.30799618 16.53677068 13.90629386 24.67934492 16.87890625 32.80078125 C18.19495986 36.55634887 19.24377347 40.33859014 20.24609375 44.1875 C22.54202114 53.30573049 22.54202114 53.30573049 26 62 C25.01 62 24.02 62 23 62 C23 61.01 23 60.02 23 59 C22.34 59 21.68 59 21 59 C20.67 59.99 20.34 60.98 20 62 C17.9375 62.6875 17.9375 62.6875 16 63 C16.33 62.34 16.66 61.68 17 61 C17.66 61 18.32 61 19 61 C18.72736328 60.16227051 18.45472656 59.32454102 18.17382812 58.46142578 C17.16514658 55.35735921 16.15907798 52.25246166 15.15478516 49.14697266 C14.71931109 47.80223134 14.28279245 46.45782783 13.84521484 45.11376953 C13.21698473 43.18349334 12.59250246 41.25203954 11.96875 39.3203125 C11.59169922 38.15773926 11.21464844 36.99516602 10.82617188 35.79736328 C10 33 10 33 10 31 C8.35 31 6.7 31 5 31 C5.14179688 30.43796875 5.28359375 29.8759375 5.4296875 29.296875 C7.22824704 19.01037657 3.2824952 9.62403267 0 0 Z " fill="#AF2D5F" transform="translate(226,138)"/>
<path d="M0 0 C0.66 0 1.32 0 2 0 C2 1.32 2 2.64 2 4 C2.66 4 3.32 4 4 4 C4.33 2.68 4.66 1.36 5 0 C5.17681808 0.58500778 5.35363617 1.17001556 5.53581238 1.77275085 C7.39605167 7.92392968 9.26314625 14.07299879 11.1340332 20.22094727 C11.82911269 22.50818566 12.52250864 24.79593643 13.21411133 27.08422852 C18.50583489 44.75067746 18.50583489 44.75067746 25 62 C24.01 62.495 24.01 62.495 23 63 C22.54625 62.030625 22.0925 61.06125 21.625 60.0625 C20.34213779 56.92920418 20.34213779 56.92920418 18 56 C18.309375 57.1446875 18.309375 57.1446875 18.625 58.3125 C19 61 19 61 17 64 C14.75341797 64.2487793 14.75341797 64.2487793 11.9921875 64.07421875 C11.00605469 64.01943359 10.01992187 63.96464844 9.00390625 63.90820312 C7.45509766 63.79895508 7.45509766 63.79895508 5.875 63.6875 C4.83472656 63.62626953 3.79445312 63.56503906 2.72265625 63.50195312 C0.14727 63.34837505 -2.42638232 63.18048829 -5 63 C-4.67 61.68 -4.34 60.36 -4 59 C-4 59.99 -4 60.98 -4 62 C-0.85378318 61.86177801 2.29185566 61.71314916 5.4375 61.5625 C6.33533203 61.52318359 7.23316406 61.48386719 8.15820312 61.44335938 C9.01220703 61.40146484 9.86621094 61.35957031 10.74609375 61.31640625 C11.53685303 61.27974854 12.3276123 61.24309082 13.14233398 61.20532227 C15.01401441 61.19436743 15.01401441 61.19436743 16 60 C15.78421072 53.74211082 14.27970737 48.40562429 12.22460938 42.50878906 C9.77627887 35.47070094 7.64170199 28.34474958 5.49951172 21.20849609 C5.21865723 20.27602051 4.93780273 19.34354492 4.6484375 18.3828125 C4.23996582 17.02591309 4.23996582 17.02591309 3.82324219 15.64160156 C2.80917358 12.38768034 1.69245686 9.17470316 0.53759766 5.96826172 C0 4 0 4 0 0 Z " fill="#AE2863" transform="translate(174,139)"/>
<path d="M0 0 C1.98 0 3.96 0 6 0 C4.31540689 6.28436863 2.56817536 12.52426222 0.55078125 18.7109375 C-0.25534414 22.06121748 -0.56232127 24.87535746 1 28 C-0.65 27.67 -2.3 27.34 -4 27 C-4.495 28.485 -4.495 28.485 -5 30 C-16.22 30 -27.44 30 -39 30 C-39 29.34 -39 28.68 -39 28 C-24.15 27.505 -24.15 27.505 -9 27 C-6.43068978 21.0156506 -6.43068978 21.0156506 -4.39453125 14.94140625 C-4.13349609 14.06162109 -3.87246094 13.18183594 -3.60351562 12.27539062 C-3.34248047 11.38013672 -3.08144531 10.48488281 -2.8125 9.5625 C-2.53986328 8.64017578 -2.26722656 7.71785156 -1.98632812 6.76757812 C-1.32041189 4.51280912 -0.65840329 2.25697196 0 0 Z " fill="#AE2F59" transform="translate(96,173)"/>
<path d="M0 0 C1.65 0 3.3 0 5 0 C6.44525822 4.24740045 7.87974027 8.49836881 9.3125 12.75 C9.71662109 13.93722656 10.12074219 15.12445313 10.53710938 16.34765625 C17 35.57869665 17 35.57869665 17 42 C15.35 42 13.7 42 12 42 C9.00701197 33.37860528 6.26930584 24.70901366 3.75 15.9375 C3.49202637 15.04587158 3.23405273 14.15424316 2.96826172 13.2355957 C1.71967645 8.8406254 0.62575628 4.53673305 0 0 Z " fill="#B32868" transform="translate(257,148)"/>
<path d="M0 0 C3.63 0 7.26 0 11 0 C11 0.33 11 0.66 11 1 C7.7 1 4.4 1 1 1 C1 1.66 1 2.32 1 3 C6.28 3.33 11.56 3.66 17 4 C17 4.33 17 4.66 17 5 C12.38 5 7.76 5 3 5 C2.896875 5.969375 2.79375 6.93875 2.6875 7.9375 C2.26611169 10.99256525 1.46886748 13.72063026 0.4375 16.625 C-0.69824167 19.87709931 -1.42226948 22.51627677 -1 26 C-0.67 26.66 -0.34 27.32 0 28 C-1.32 28 -2.64 28 -4 28 C-3.67 26.02 -3.34 24.04 -3 22 C-3.99 22 -4.98 22 -6 22 C-6.33 24.64 -6.66 27.28 -7 30 C-13.6 29.67 -20.2 29.34 -27 29 C-27 28.67 -27 28.34 -27 28 C-18.585 27.505 -18.585 27.505 -10 27 C-6.80070495 19.62384753 -4.05456107 12.33403253 -1.796875 4.6171875 C-1 2 -1 2 0 0 Z " fill="#AD2C59" transform="translate(57,173)"/>
<path d="M0 0 C1.32 0 2.64 0 4 0 C4 1.65 4 3.3 4 5 C5.65 5 7.3 5 9 5 C9 5.99 9 6.98 9 8 C7.35 8 5.7 8 4 8 C4 9.65 4 11.3 4 13 C3.01 13.495 3.01 13.495 2 14 C1.34786708 16.02463255 1.34786708 16.02463255 1 18 C3.31 18 5.62 18 8 18 C6 20 6 20 2.75 20.375 C-1.59423553 19.94057645 -3.66721873 18.76376984 -7 16 C-7 15.34 -7 14.68 -7 14 C-3.535 13.505 -3.535 13.505 0 13 C0 11.68 0 10.36 0 9 C-1.65 9 -3.3 9 -5 9 C-5.33 7.35 -5.66 5.7 -6 4 C-4.02 4 -2.04 4 0 4 C0 2.68 0 1.36 0 0 Z " fill="#F6CD2B" transform="translate(298,128)"/>
<path d="M0 0 C0.99 0.66 1.98 1.32 3 2 C3 3.32 3 4.64 3 6 C4.85625 6.2475 4.85625 6.2475 6.75 6.5 C7.79414063 6.63921875 7.79414063 6.63921875 8.859375 6.78125 C11.30458395 7.06777357 11.30458395 7.06777357 15 7 C14.67 8.65 14.34 10.3 14 12 C13.21625 12.103125 12.4325 12.20625 11.625 12.3125 C8.66954819 12.77595022 8.66954819 12.77595022 7 16 C4.6171875 16.29296875 4.6171875 16.29296875 1.875 16.1875 C0.96492188 16.16042969 0.05484375 16.13335937 -0.8828125 16.10546875 C-1.58148438 16.07066406 -2.28015625 16.03585938 -3 16 C-2.01 15.67 -1.02 15.34 0 15 C0 10.05 0 5.1 0 0 Z " fill="#FDED09" transform="translate(264,183)"/>
<path d="M0 0 C0.84790604 -0.01606293 1.69581207 -0.03212585 2.56941223 -0.04867554 C6.45626167 -0.09299972 10.34293749 -0.13419869 14.22998047 -0.15722656 C16.28152816 -0.1737857 18.33301817 -0.20107512 20.38427734 -0.23925781 C23.33681269 -0.29396523 26.28799318 -0.3158918 29.2409668 -0.33056641 C30.15775711 -0.35323578 31.07454742 -0.37590515 32.01911926 -0.39926147 C38.38872175 -0.3780877 38.38872175 -0.3780877 41.56103516 2.57202148 C42.96369269 5.121984 43.74167853 7.15224858 44.25268555 10.00537109 C44.4022168 10.79556641 44.55174805 11.58576172 44.70581055 12.39990234 C44.85276367 13.28742188 44.85276367 13.28742188 45.00268555 14.19287109 C43.50268555 12.88037109 43.50268555 12.88037109 42.00268555 11.19287109 C42.00268555 10.20287109 42.00268555 9.21287109 42.00268555 8.19287109 C41.34268555 8.19287109 40.68268555 8.19287109 40.00268555 8.19287109 C39.50768555 5.71787109 39.50768555 5.71787109 39.00268555 3.19287109 C33.21859042 3.1681706 27.43452593 3.15001086 21.65039062 3.13793945 C19.68228623 3.1329076 17.71418557 3.12608152 15.74609375 3.11743164 C12.91885454 3.10531592 10.09166471 3.09963133 7.2644043 3.09521484 C6.3830632 3.09005356 5.50172211 3.08489227 4.59367371 3.07957458 C3.77304947 3.07949905 2.95242523 3.07942352 2.10693359 3.0793457 C1.38523483 3.07712509 0.66353607 3.07490448 -0.08003235 3.07261658 C-2.21958247 3.12461511 -2.21958247 3.12461511 -4.99731445 4.19287109 C-5.32731445 4.85287109 -5.65731445 5.51287109 -5.99731445 6.19287109 C-4.90086486 0.08408048 -4.90086486 0.08408048 0 0 Z " fill="#F1C034" transform="translate(184.997314453125,135.80712890625)"/>
<path d="M0 0 C1.13012512 0.00094414 1.13012512 0.00094414 2.28308105 0.00190735 C3.13736694 -0.00432144 3.99165283 -0.01055023 4.87182617 -0.01696777 C5.795802 -0.00775803 6.71977783 0.00145172 7.67175293 0.01094055 C8.61860962 0.01044205 9.56546631 0.00994354 10.54101562 0.00942993 C12.54506527 0.01177285 14.54911771 0.02151412 16.55310059 0.03804016 C19.62807408 0.06162647 22.70218079 0.05860358 25.77722168 0.05195618 C27.72123729 0.05753288 29.66524923 0.0646427 31.60925293 0.07344055 C32.99521667 0.07207344 32.99521667 0.07207344 34.40917969 0.07067871 C35.26346558 0.08021072 36.11775146 0.08974274 36.9979248 0.0995636 C38.12804993 0.10647469 38.12804993 0.10647469 39.28100586 0.11352539 C41.14050293 0.3742218 41.14050293 0.3742218 43.14050293 2.3742218 C42.80671802 7.38099543 41.91012182 11.65523808 40.14050293 16.3742218 C39.11560981 13.29954245 39.16019556 11.94269804 39.57800293 8.8117218 C40.00036017 5.60207299 40.00036017 5.60207299 40.14050293 2.3742218 C25.62050293 2.7042218 11.10050293 3.0342218 -3.85949707 3.3742218 C-1.85949707 0.3742218 -1.85949707 0.3742218 0 0 Z " fill="#F0BB3C" transform="translate(36.8594970703125,135.6257781982422)"/>
<path d="M0 0 C0.5345256 1.24420647 1.05208611 2.49570936 1.5625 3.75 C1.85253906 4.44609375 2.14257812 5.1421875 2.44140625 5.859375 C3.07831803 8.30012784 2.80248831 9.6403655 2 12 C1.34 12 0.68 12 0 12 C0 13.98 0 15.96 0 18 C-2.31 17.67 -4.62 17.34 -7 17 C-8.125 13.25 -8.125 13.25 -7 11 C-6.34 11 -5.68 11 -5 11 C-5 8.69 -5 6.38 -5 4 C-5.66 4 -6.32 4 -7 4 C-6.67 3.01 -6.34 2.02 -6 1 C-3.90006779 0.25486277 -2.22568901 0 0 0 Z " fill="#FEEF05" transform="translate(172,139)"/>
<path d="M0 0 C0.33 0 0.66 0 1 0 C1.16682272 4.92127034 1.24828052 8.50343896 -1 13 C-1.66 13 -2.32 13 -3 13 C-3 11.68 -3 10.36 -3 9 C-3.66 9 -4.32 9 -5 9 C-5.28875 9.94875 -5.5775 10.8975 -5.875 11.875 C-7 15 -7 15 -9 17 C-11.9093558 17.14517744 -14.719946 17.18630796 -17.625 17.125 C-18.42679687 17.11597656 -19.22859375 17.10695312 -20.0546875 17.09765625 C-22.03658523 17.07406223 -24.01832981 17.03819065 -26 17 C-26 16.34 -26 15.68 -26 15 C-24.87980469 14.98582031 -23.75960937 14.97164062 -22.60546875 14.95703125 C-21.13277131 14.91013006 -19.66011632 14.86188266 -18.1875 14.8125 C-17.44951172 14.80669922 -16.71152344 14.80089844 -15.95117188 14.79492188 C-13.50435338 14.74683485 -13.50435338 14.74683485 -10 14 C-7.96549341 11.80363087 -7.96549341 11.80363087 -7 9 C-6.68675781 8.26136719 -6.37351562 7.52273437 -6.05078125 6.76171875 C-5.80714844 6.07722656 -5.56351563 5.39273438 -5.3125 4.6875 C-4.6628125 2.8621875 -4.6628125 2.8621875 -4 1 C-3.67 1.66 -3.34 2.32 -3 3 C-2.01 3 -1.02 3 0 3 C0 2.01 0 1.02 0 0 Z " fill="#AE2C5F" transform="translate(123,186)"/>
<path d="M0 0 C1.65 0 3.3 0 5 0 C5.83679277 2.62394306 6.66956942 5.24904384 7.5 7.875 C7.73847656 8.62136719 7.97695312 9.36773437 8.22265625 10.13671875 C10 15.7734375 10 15.7734375 10 18 C8.02 18 6.04 18 4 18 C3.32873871 15.5636811 2.66283646 13.12611117 2 10.6875 C1.71382812 9.65206055 1.71382812 9.65206055 1.421875 8.59570312 C0.62283816 5.64212051 0 3.07440781 0 0 Z " fill="#B94056" transform="translate(211,172)"/>
<path d="M0 0 C0.66 0 1.32 0 2 0 C2 1.32 2 2.64 2 4 C2.99 4.33 3.98 4.66 5 5 C5 5.66 5 6.32 5 7 C5.99 6.67 6.98 6.34 8 6 C8.73323796 3.98491642 8.73323796 3.98491642 9 2 C10.98 1.67 12.96 1.34 15 1 C14.5247412 2.64696604 14.04468109 4.29254728 13.5625 5.9375 C13.29566406 6.85402344 13.02882812 7.77054688 12.75390625 8.71484375 C12 11 12 11 11 12 C8.32941149 12.14115161 5.67567762 12.04247107 3 12 C2.49440092 10.56445975 1.9957251 9.1264798 1.5 7.6875 C1.2215625 6.88699219 0.943125 6.08648437 0.65625 5.26171875 C0 3 0 3 0 0 Z " fill="#FBDF26" transform="translate(149,189)"/>
<path d="M0 0 C3.3 0 6.6 0 10 0 C11.14077657 3.42232972 11.09815117 6.08673217 11.0625 9.6875 C11.05347656 10.86699219 11.04445313 12.04648438 11.03515625 13.26171875 C11.02355469 14.16535156 11.01195312 15.06898438 11 16 C9.35 15.67 7.7 15.34 6 15 C6 13.68 6 12.36 6 11 C6.99 10.67 7.98 10.34 9 10 C9 9.34 9 8.68 9 8 C8.01 8 7.02 8 6 8 C5.67 7.01 5.34 6.02 5 5 C3.35 5 1.7 5 0 5 C0 3.35 0 1.7 0 0 Z " fill="#FEEF03" transform="translate(33,166)"/>
<path d="M0 0 C0.66 0 1.32 0 2 0 C2.33 0.66 2.66 1.32 3 2 C3.66 1.67 4.32 1.34 5 1 C4.35731596 5.45143264 3.29333357 9.58881647 1.9375 13.875 C1.57527344 15.02742187 1.21304688 16.17984375 0.83984375 17.3671875 C0.56269531 18.23601562 0.28554687 19.10484375 0 20 C-0.99 19.01 -1.98 18.02 -3 17 C-3.66 17.33 -4.32 17.66 -5 18 C-4.27595226 13.95295419 -3.16553713 10.10929598 -1.9375 6.1875 C-1.57527344 5.02605469 -1.21304688 3.86460937 -0.83984375 2.66796875 C-0.56269531 1.78753906 -0.28554687 0.90710938 0 0 Z " fill="#AF2568" transform="translate(80,139)"/>
<path d="M0 0 C1.16257324 0.01047363 2.32514648 0.02094727 3.52294922 0.03173828 C5.40820312 0.04140625 5.40820312 0.04140625 7.33154297 0.05126953 C9.30960938 0.07640625 9.30960938 0.07640625 11.32763672 0.10205078 C12.66747393 0.11208096 14.00731823 0.12120674 15.34716797 0.12939453 C18.63250244 0.15303003 21.91748137 0.18597844 25.20263672 0.22705078 C25.53263672 0.88705078 25.86263672 1.54705078 26.20263672 2.22705078 C23.20240134 3.22712924 21.18827508 3.35600426 18.05419922 3.35986328 C17.04873047 3.36115234 16.04326172 3.36244141 15.00732422 3.36376953 C13.43337891 3.35796875 13.43337891 3.35796875 11.82763672 3.35205078 C10.78607422 3.35591797 9.74451172 3.35978516 8.67138672 3.36376953 C7.66333984 3.36248047 6.65529297 3.36119141 5.61669922 3.35986328 C4.23925537 3.35817139 4.23925537 3.35817139 2.83398438 3.35644531 C0.19839898 3.22684239 -2.22764736 2.81157844 -4.79736328 2.22705078 C-2.79736328 0.22705078 -2.79736328 0.22705078 0 0 Z " fill="#FDEF06" transform="translate(240.79736328125,137.77294921875)"/>
<path d="M0 0 C4.29 0 8.58 0 13 0 C12.67 1.65 12.34 3.3 12 5 C10.0625 6.0625 10.0625 6.0625 8 7 C6.73195434 9.0335948 6.73195434 9.0335948 6 11 C3.5 9.25 3.5 9.25 1 7 C1 5.68 1 4.36 1 3 C0.34 3 -0.32 3 -1 3 C-0.67 2.01 -0.34 1.02 0 0 Z " fill="#FEEF03" transform="translate(150,186)"/>
<path d="M0 0 C0.66 0.33 1.32 0.66 2 1 C2 3.31 2 5.62 2 8 C1.34 8 0.68 8 0 8 C0 8.66 0 9.32 0 10 C-0.66 10 -1.32 10 -2 10 C-1.79375 10.61875 -1.5875 11.2375 -1.375 11.875 C-1.25125 12.57625 -1.1275 13.2775 -1 14 C-3 16 -3 16 -4.9453125 16.1953125 C-6.96354167 16.13020833 -8.98177083 16.06510417 -11 16 C-10.67 14.68 -10.34 13.36 -10 12 C-8.68 12 -7.36 12 -6 12 C-6 10.68 -6 9.36 -6 8 C-4.68 8 -3.36 8 -2 8 C-1.7834375 6.576875 -1.7834375 6.576875 -1.5625 5.125 C-1 2 -1 2 0 0 Z " fill="#FDEE0B" transform="translate(310,130)"/>
<path d="M0 0 C0.33 0 0.66 0 1 0 C1.37125 1.794375 1.37125 1.794375 1.75 3.625 C2.77382519 7.79449098 4.43678148 10.5823753 7 14 C5.35 13.67 3.7 13.34 2 13 C2 13.66 2 14.32 2 15 C1.01 15.495 1.01 15.495 0 16 C-0.66 16.99 -1.32 17.98 -2 19 C-3.32 14.71 -4.64 10.42 -6 6 C-5.34 6 -4.68 6 -4 6 C-3.67 6.66 -3.34 7.32 -3 8 C-2.01 5.36 -1.02 2.72 0 0 Z " fill="#AD196F" transform="translate(286,132)"/>
<path d="M0 0 C0.33 1.32 0.66 2.64 1 4 C-2.67410785 5.17571451 -6.16929183 5.07366746 -10 5 C-9.67 6.98 -9.34 8.96 -9 11 C-10.32 10.67 -11.64 10.34 -13 10 C-13.99 12.31 -14.98 14.62 -16 17 C-15.34 17.66 -14.68 18.32 -14 19 C-14.99 19.33 -15.98 19.66 -17 20 C-18.20882096 22.00016466 -18.20882096 22.00016466 -19 24 C-18.42080128 16.61521626 -16.27451183 10.04364954 -14 3 C-9.38 3 -4.76 3 0 3 C0 2.01 0 1.02 0 0 Z " fill="#F8DA2D" transform="translate(74,175)"/>
<path d="M0 0 C1.79244141 0.01740234 1.79244141 0.01740234 3.62109375 0.03515625 C5.41740234 0.04869141 5.41740234 0.04869141 7.25 0.0625 C8.17683594 0.07410156 9.10367188 0.08570313 10.05859375 0.09765625 C10.05859375 0.42765625 10.05859375 0.75765625 10.05859375 1.09765625 C6.42859375 1.09765625 2.79859375 1.09765625 -0.94140625 1.09765625 C-2.26140625 6.37765625 -3.58140625 11.65765625 -4.94140625 17.09765625 C-5.93140625 17.09765625 -6.92140625 17.09765625 -7.94140625 17.09765625 C-8.63988889 15.16408843 -9.32485439 13.22563327 -10.00390625 11.28515625 C-10.38675781 10.20621094 -10.76960937 9.12726563 -11.1640625 8.015625 C-11.94140625 5.09765625 -11.94140625 5.09765625 -10.94140625 2.09765625 C-9.95140625 4.40765625 -8.96140625 6.71765625 -7.94140625 9.09765625 C-6.62140625 8.76765625 -5.30140625 8.43765625 -3.94140625 8.09765625 C-3.96203125 6.96328125 -3.98265625 5.82890625 -4.00390625 4.66015625 C-3.92443497 0.13029333 -3.92443497 0.13029333 0 0 Z " fill="#AE2661" transform="translate(162.94140625,134.90234375)"/>
<path d="M0 0 C1.84180245 3.47704761 3.22825139 7.07434577 4.625 10.75 C5.07101563 11.92046875 5.51703125 13.0909375 5.9765625 14.296875 C6.31429687 15.18890625 6.65203125 16.0809375 7 17 C6.34 17.33 5.68 17.66 5 18 C4.54625 17.030625 4.0925 16.06125 3.625 15.0625 C2.34213779 11.92920418 2.34213779 11.92920418 0 11 C0.20625 11.763125 0.4125 12.52625 0.625 13.3125 C1 16 1 16 -1 19 C-3.24658203 19.2487793 -3.24658203 19.2487793 -6.0078125 19.07421875 C-6.99394531 19.01943359 -7.98007813 18.96464844 -8.99609375 18.90820312 C-10.02863281 18.83537109 -11.06117188 18.76253906 -12.125 18.6875 C-13.16527344 18.62626953 -14.20554688 18.56503906 -15.27734375 18.50195312 C-17.85273 18.34837505 -20.42638232 18.18048829 -23 18 C-22.67 16.68 -22.34 15.36 -22 14 C-22 14.99 -22 15.98 -22 17 C-18.85378318 16.86177801 -15.70814434 16.71314916 -12.5625 16.5625 C-11.21575195 16.50352539 -11.21575195 16.50352539 -9.84179688 16.44335938 C-8.98779297 16.40146484 -8.13378906 16.35957031 -7.25390625 16.31640625 C-6.06776733 16.26141968 -6.06776733 16.26141968 -4.85766602 16.20532227 C-2.98598559 16.19436743 -2.98598559 16.19436743 -2 15 C-1.92851801 13.64756083 -1.91600546 12.29165633 -1.9375 10.9375 C-1.958125 9.638125 -1.97875 8.33875 -2 7 C-1.34 7.33 -0.68 7.66 0 8 C0 5.36 0 2.72 0 0 Z " fill="#AF3552" transform="translate(192,184)"/>
<path d="M0 0 C0.33 0.66 0.66 1.32 1 2 C1.66 2 2.32 2 3 2 C3 1.34 3 0.68 3 0 C17.52 0 32.04 0 47 0 C47 0.33 47 0.66 47 1 C45.74340576 1.00410889 44.48681152 1.00821777 43.19213867 1.01245117 C38.53449355 1.03420598 33.87769764 1.08845741 29.22045898 1.15258789 C27.20394015 1.17579985 25.18729953 1.19017109 23.1706543 1.19555664 C20.2731509 1.20482295 17.37757141 1.24576132 14.48046875 1.29296875 C13.57725388 1.2890361 12.674039 1.28510345 11.74345398 1.28105164 C9.39059177 1.33603025 7.28343749 1.42994091 5 2 C2.2111031 5.22947986 1.2285068 8.93647749 0 13 C-1.10844919 9.67465243 -0.84454356 7.37817425 0 4 C-0.99 3.67 -1.98 3.34 -3 3 C-2.01 2.01 -1.02 1.02 0 0 Z " fill="#AA205A" transform="translate(30,135)"/>
<path d="M0 0 C0.99 0.495 0.99 0.495 2 1 C2.6328125 3.06640625 2.6328125 3.06640625 3.125 5.5625 C3.29257813 6.38878906 3.46015625 7.21507812 3.6328125 8.06640625 C3.75398437 8.70449219 3.87515625 9.34257812 4 10 C4.66 10 5.32 10 6 10 C6.36463732 11.74784829 6.7163078 13.49840502 7.0625 15.25 C7.25972656 16.22453125 7.45695313 17.1990625 7.66015625 18.203125 C7.98397535 20.868119 7.85503199 22.48871723 7 25 C3.3838078 22.2929064 3.15142857 19.0331554 2.375 14.75 C2.13523438 13.46609375 1.89546875 12.1821875 1.6484375 10.859375 C1.04095248 7.24374126 0.49866264 3.63176943 0 0 Z " fill="#B4137C" transform="translate(185,168)"/>
<path d="M0 0 C1.65 0 3.3 0 5 0 C5.67305018 1.60149886 6.33822227 3.20631029 7 4.8125 C7.37125 5.70582031 7.7425 6.59914062 8.125 7.51953125 C9 10 9 10 9 13 C7.35 13 5.7 13 4 13 C1.97944157 8.60748167 0.59104765 4.84659077 0 0 Z " fill="#AF2666" transform="translate(203,148)"/>
<path d="M0 0 C0.99 0 1.98 0 3 0 C3 1.65 3 3.3 3 5 C4.65 5 6.3 5 8 5 C8 5.99 8 6.98 8 8 C6.35 8 4.7 8 3 8 C3 9.65 3 11.3 3 13 C2.01 13 1.02 13 0 13 C0 11.35 0 9.7 0 8 C-1.65 8 -3.3 8 -5 8 C-5 7.01 -5 6.02 -5 5 C-3.35 5 -1.7 5 0 5 C0 3.35 0 1.7 0 0 Z " fill="#AA3052" transform="translate(299,128)"/>
<path d="M0 0 C1.65 0 3.3 0 5 0 C4.45144652 4.571279 3.58255197 8.67435795 2 13 C0.35 13 -1.3 13 -3 13 C-2.01 8.71 -1.02 4.42 0 0 Z " fill="#B02862" transform="translate(104,148)"/>
<path d="M0 0 C1.03404779 3.69302781 1.44366171 7.105632 2 11 C6.95 11 11.9 11 17 11 C16.67 11.66 16.34 12.32 16 13 C13.37472811 13.05382106 10.75055287 13.09358313 8.125 13.125 C7.37863281 13.14175781 6.63226563 13.15851563 5.86328125 13.17578125 C3.90805539 13.1933959 1.95257979 13.10320189 0 13 C-0.66 12.34 -1.32 11.68 -2 11 C-1.68603757 7.04407344 -1.25172182 3.75516546 0 0 Z " fill="#FCDB34" transform="translate(97,188)"/>
<path d="M0 0 C0.33 0 0.66 0 1 0 C1 1.98 1 3.96 1 6 C1.66 6 2.32 6 3 6 C3.66 8.31 4.32 10.62 5 13 C3.68 13 2.36 13 1 13 C1.33 11.02 1.66 9.04 2 7 C1.01 7 0.02 7 -1 7 C-1.33 9.64 -1.66 12.28 -2 15 C-8.6 14.67 -15.2 14.34 -22 14 C-22 13.67 -22 13.34 -22 13 C-13.585 12.505 -13.585 12.505 -5 12 C-3.35 8.04 -1.7 4.08 0 0 Z " fill="#AC3651" transform="translate(52,188)"/>
<path d="M0 0 C0 2.31 0 4.62 0 7 C-1.7290774 7.02725341 -3.45828176 7.04650987 -5.1875 7.0625 C-6.63189453 7.07990234 -6.63189453 7.07990234 -8.10546875 7.09765625 C-10.85576513 7.00486622 -13.32479591 6.62111685 -16 6 C-16 5.34 -16 4.68 -16 4 C-15.33613281 3.96261719 -14.67226563 3.92523438 -13.98828125 3.88671875 C-9.26000721 3.53468667 -3.86564797 0 0 0 Z " fill="#AF1681" transform="translate(74,170)"/>
<path d="M0 0 C15.51 0 31.02 0 47 0 C47 0.33 47 0.66 47 1 C32.81 1.33 18.62 1.66 4 2 C3.34 3.98 2.68 5.96 2 8 C1.67 8 1.34 8 1 8 C0.67 5.36 0.34 2.72 0 0 Z " fill="#AA235A" transform="translate(231,135)"/>
<path d="M0 0 C0.99 1.32 1.98 2.64 3 4 C1.609375 5.984375 1.609375 5.984375 -1 8 C-4.25975612 8.5096196 -7.46068817 8.37632512 -10.75 8.25 C-11.63816406 8.23195312 -12.52632812 8.21390625 -13.44140625 8.1953125 C-15.62870848 8.14827374 -17.81379816 8.08257009 -20 8 C-20 7.34 -20 6.68 -20 6 C-13.73 6 -7.46 6 -1 6 C-0.67 4.02 -0.34 2.04 0 0 Z " fill="#AC2A59" transform="translate(144,195)"/>
<path d="M0 0 C1.65 0 3.3 0 5 0 C5.66 2.97 6.32 5.94 7 9 C6.01 8.67 5.02 8.34 4 8 C4.33 8.66 4.66 9.32 5 10 C5.039992 11.99960012 5.04346799 14.00047242 5 16 C3.59540269 13.40689727 2.45391647 10.74075463 1.375 8 C1.11460937 7.34 0.85421875 6.68 0.5859375 6 C0 4 0 4 0 0 Z " fill="#AA2663" transform="translate(257,148)"/>
<path d="M0 0 C0.33 0 0.66 0 1 0 C1 2.64 1 5.28 1 8 C-1.31 8 -3.62 8 -6 8 C-6.33 8.66 -6.66 9.32 -7 10 C-7.33 7.69 -7.66 5.38 -8 3 C-5.36 3 -2.72 3 0 3 C0 2.01 0 1.02 0 0 Z " fill="#FEEF00" transform="translate(88,185)"/>
<path d="M0 0 C0.33 0.99 0.66 1.98 1 3 C4.63 3.66 8.26 4.32 12 5 C11.52060632 9.71403788 11.03165952 13.66579301 9 18 C7.9673198 15.21176345 7.95490707 14.1322726 8.9375 11.25 C9.288125 10.5075 9.63875 9.765 10 9 C7.36 8.34 4.72 7.68 2 7 C2 6.01 2 5.02 2 4 C1.34 4 0.68 4 0 4 C0 2.68 0 1.36 0 0 Z " fill="#AC2467" transform="translate(22,168)"/>
<path d="M0 0 C1.125 3.75 1.125 3.75 0 6 C3.96 6.33 7.92 6.66 12 7 C12 9.97 12 12.94 12 16 C11.01 16.33 10.02 16.66 9 17 C9.33 14.36 9.66 11.72 10 9 C7.02148438 9.09765625 7.02148438 9.09765625 4.04296875 9.1953125 C2 9 2 9 -1 7 C-0.67 4.69 -0.34 2.38 0 0 Z " fill="#F5CC31" transform="translate(24,164)"/>
<path d="M0 0 C2.27795022 2.27795022 3.05219877 3.93787293 4 7 C3.625 9.3125 3.625 9.3125 3 11 C2.67 9.68 2.34 8.36 2 7 C1.34 7 0.68 7 0 7 C0 8.98 0 10.96 0 13 C-2.45823172 9.31265242 -3.01242616 6.30300029 -4 2 C-5.65 2 -7.3 2 -9 2 C-9 1.67 -9 1.34 -9 1 C-6.69 1 -4.38 1 -2 1 C-1.67 1.99 -1.34 2.98 -1 4 C-0.67 2.68 -0.34 1.36 0 0 Z " fill="#B93A5A" transform="translate(240,167)"/>
<path d="M0 0 C0.66 0 1.32 0 2 0 C2.19294408 4.82360189 1.75747614 8.49646738 0 13 C-0.99 13 -1.98 13 -3 13 C-3.31563182 7.73946963 -2.66590937 4.55426184 0 0 Z " fill="#AB2165" transform="translate(56,181)"/>
<path d="M0 0 C1.84765625 0.33984375 1.84765625 0.33984375 4.0625 0.9375 C5.16271484 1.22947266 5.16271484 1.22947266 6.28515625 1.52734375 C7.13400391 1.76130859 7.13400391 1.76130859 8 2 C8 3.32 8 4.64 8 6 C5.36 6.66 2.72 7.32 0 8 C-0.38063221 5.6739143 -0.71269945 3.33944736 -1 1 C-0.67 0.67 -0.34 0.34 0 0 Z " fill="#FEE910" transform="translate(290,135)"/>
<path d="M0 0 C2.32602868 3.48904301 3.41117582 7.03390006 4.625 11 C4.85445312 11.72445312 5.08390625 12.44890625 5.3203125 13.1953125 C6.26068056 16.22911898 7 18.80543588 7 22 C5.68 21.67 4.36 21.34 3 21 C2.92652344 19.91332031 2.92652344 19.91332031 2.8515625 18.8046875 C2.44429706 13.53832408 1.82508863 8.9885756 0 4 C0 2.68 0 1.36 0 0 Z " fill="#F5CD34" transform="translate(238,177)"/>
<path d="M0 0 C2.91577627 2.91577627 3.56105977 6.51108535 4.6875 10.375 C4.92533203 11.14328125 5.16316406 11.9115625 5.40820312 12.703125 C5.62798828 13.44820312 5.84777344 14.19328125 6.07421875 14.9609375 C6.27619873 15.63946777 6.47817871 16.31799805 6.6862793 17.01708984 C7.04608633 19.29129433 6.69470212 20.82377339 6 23 C6 22.01 6 21.02 6 20 C5.01 20 4.02 20 3 20 C2.86722656 19.05898437 2.73445313 18.11796875 2.59765625 17.1484375 C2.42105469 15.90320313 2.24445313 14.65796875 2.0625 13.375 C1.80146484 11.53035156 1.80146484 11.53035156 1.53515625 9.6484375 C1.06225699 6.42443816 0.54848998 3.21187824 0 0 Z " fill="#F5CE35" transform="translate(290,172)"/>
<path d="M0 0 C2.5 2.25 2.5 2.25 5 5 C5 6.32 5 7.64 5 9 C10.61 9.33 16.22 9.66 22 10 C22 10.33 22 10.66 22 11 C15.73 11 9.46 11 3 11 C2.01 7.37 1.02 3.74 0 0 Z " fill="#FCD43A" transform="translate(167,190)"/>
<path d="M0 0 C0.99 0 1.98 0 3 0 C4.60355101 3.50776784 5.22036864 6.14354879 5 10 C4.01 10.495 4.01 10.495 3 11 C3 9.68 3 8.36 3 7 C1.35 6.67 -0.3 6.34 -2 6 C-1.49396008 3.83125748 -1.00016187 2.00032373 0 0 Z " fill="#AB127B" transform="translate(235,161)"/>
<path d="M0 0 C2.64 0 5.28 0 8 0 C8 2.97 8 5.94 8 9 C7.01 9 6.02 9 5 9 C5.66 6.69 6.32 4.38 7 2 C5.02 2 3.04 2 1 2 C0.87625 3.0725 0.7525 4.145 0.625 5.25 C0.10356064 8.37863615 -0.40088254 10.33480424 -2 13 C-1.48041715 8.62065881 -0.94324258 4.31196609 0 0 Z " fill="#F7D034" transform="translate(95,171)"/>
<path d="M0 0 C1.15941038 3.47823115 0.70820884 5.45895578 0 9 C0.66 9 1.32 9 2 9 C2.33 7.68 2.66 6.36 3 5 C4.40907283 7.81814566 3.50872691 9.17277204 2.5625 12.125 C2.27503906 13.03507813 1.98757812 13.94515625 1.69140625 14.8828125 C1.34916016 15.93082031 1.34916016 15.93082031 1 17 C0.67 17 0.34 17 0 17 C0 15.35 0 13.7 0 12 C-0.99 12.33 -1.98 12.66 -3 13 C-2.52060632 8.28596212 -2.03165952 4.33420699 0 0 Z " fill="#B33A55" transform="translate(131,148)"/>
<path d="M0 0 C1.98 0 3.96 0 6 0 C5.71125 0.53625 5.4225 1.0725 5.125 1.625 C3.88653423 4.08024809 3.88653423 4.08024809 3.0625 7.1875 C2.711875 8.115625 2.36125 9.04375 2 10 C1.01 10.33 0.02 10.66 -1 11 C-0.67 7.37 -0.34 3.74 0 0 Z " fill="#AD216D" transform="translate(96,173)"/>
<path d="M0 0 C0.66 0 1.32 0 2 0 C2 2.31 2 4.62 2 7 C2.66 6.67 3.32 6.34 4 6 C3.34 8.31 2.68 10.62 2 13 C1.01 12.01 0.02 11.02 -1 10 C-1.99 10.495 -1.99 10.495 -3 11 C-2.32829194 7.1936543 -1.27253436 3.64793184 0 0 Z " fill="#B4325E" transform="translate(78,146)"/>
<path d="M0 0 C1.65 0.33 3.3 0.66 5 1 C4.34 3.97 3.68 6.94 3 10 C2.67 10 2.34 10 2 10 C2 8.35 2 6.7 2 5 C1.34 5 0.68 5 0 5 C-0.33 6.32 -0.66 7.64 -1 9 C-2.0326802 6.21176345 -2.04509293 5.1322726 -1.0625 2.25 C-0.711875 1.5075 -0.36125 0.765 0 0 Z " fill="#B12E62" transform="translate(134,139)"/>
<path d="M0 0 C3.63 0 7.26 0 11 0 C11.33 2.31 11.66 4.62 12 7 C10 6 10 6 9 3 C7.72125 2.938125 6.4425 2.87625 5.125 2.8125 C4.40570313 2.77769531 3.68640625 2.74289063 2.9453125 2.70703125 C1.98238281 2.85205078 1.98238281 2.85205078 1 3 C0.34 3.99 -0.32 4.98 -1 6 C-0.67 4.02 -0.34 2.04 0 0 Z " fill="#F0BD42" transform="translate(162,136)"/>
<path d="M0 0 C0.33 0 0.66 0 1 0 C1 1.65 1 3.3 1 5 C1.66 5 2.32 5 3 5 C3.33 4.01 3.66 3.02 4 2 C3.25 8.625 3.25 8.625 1 12 C0.67 10.68 0.34 9.36 0 8 C-1.65 8.66 -3.3 9.32 -5 10 C-4.54625 9.46375 -4.0925 8.9275 -3.625 8.375 C-1.78311688 5.68301698 -0.92028067 3.11479612 0 0 Z " fill="#A9255D" transform="translate(73,163)"/>
<path d="M0 0 C0.99 0 1.98 0 3 0 C2.71682074 1.60568666 2.42312209 3.20952047 2.125 4.8125 C1.96257812 5.70582031 1.80015625 6.59914062 1.6328125 7.51953125 C1 10 1 10 -1 13 C-1.66 13 -2.32 13 -3 13 C-2.01 8.71 -1.02 4.42 0 0 Z " fill="#AA167E" transform="translate(93,187)"/>
<path d="M0 0 C0.66 0.33 1.32 0.66 2 1 C1.67 1.66 1.34 2.32 1 3 C0.34 3 -0.32 3 -1 3 C-1.144375 3.763125 -1.28875 4.52625 -1.4375 5.3125 C-2 8 -2 8 -3 11 C-2.72230092 13.3406065 -2.39460023 15.67624308 -2 18 C-4.03989506 16.12329655 -4.96084756 14.69952367 -5.1171875 11.90625 C-4.72533377 6.79511442 -3.73575492 3.73575492 0 0 Z " fill="#F4BF3A" transform="translate(292,124)"/>
<path d="M0 0 C2.40034102 3.60051153 4.32187705 6.96144535 3.625 11.375 C3.41875 11.91125 3.2125 12.4475 3 13 C2.34 12.34 1.68 11.68 1 11 C0.01 11.99 -0.98 12.98 -2 14 C-3 11 -3 11 -2 8 C-1.34 7.67 -0.68 7.34 0 7 C0 4.69 0 2.38 0 0 Z " fill="#FBDC24" transform="translate(174,143)"/>
<path d="M0 0 C0.33 0 0.66 0 1 0 C1.16682272 4.92127034 1.24828052 8.50343896 -1 13 C-1.33 13 -1.66 13 -2 13 C-2 10.69 -2 8.38 -2 6 C-2.99 6 -3.98 6 -5 6 C-4.67 4.35 -4.34 2.7 -4 1 C-3.67 1.66 -3.34 2.32 -3 3 C-2.01 3 -1.02 3 0 3 C0 2.01 0 1.02 0 0 Z " fill="#C15652" transform="translate(123,186)"/>
<path d="M0 0 C3.3 0 6.6 0 10 0 C11.08056059 3.97159686 10.85815614 6.42553157 9.5625 10.3125 C9.27503906 11.19550781 8.98757812 12.07851562 8.69140625 12.98828125 C8.46324219 13.65214844 8.23507813 14.31601563 8 15 C6.97510688 11.92532065 7.01969263 10.56847624 7.4375 7.4375 C7.85985724 4.22785119 7.85985724 4.22785119 8 1 C5.36 1 2.72 1 0 1 C0 0.67 0 0.34 0 0 Z " fill="#F7D130" transform="translate(69,137)"/>
<path d="M0 0 C0.99 0 1.98 0 3 0 C5.09230769 4.43076923 5.09230769 4.43076923 4.625 7.3125 C4.41875 7.869375 4.2125 8.42625 4 9 C3.67 7.35 3.34 5.7 3 4 C2.566875 4.433125 2.13375 4.86625 1.6875 5.3125 C0.125 6.875 -1.4375 8.4375 -3 10 C-2.01 6.7 -1.02 3.4 0 0 Z " fill="#B13456" transform="translate(164,189)"/>
<path d="M0 0 C1.98 0.99 1.98 0.99 4 2 C4.75 5.625 4.75 5.625 5 9 C3.68 9 2.36 9 1 9 C0.67 6.03 0.34 3.06 0 0 Z " fill="#AB1B69" transform="translate(215,180)"/>
<path d="M0 0 C1.68426809 3.25530808 2.88786134 6.50470706 4 10 C5.65 10.33 7.3 10.66 9 11 C9 11.33 9 11.66 9 12 C6.36 12 3.72 12 1 12 C-0.26237731 9.47524538 -0.09856404 7.68799534 -0.0625 4.875 C-0.05347656 3.96492187 -0.04445312 3.05484375 -0.03515625 2.1171875 C-0.02355469 1.41851562 -0.01195312 0.71984375 0 0 Z " fill="#F8D230" transform="translate(203,150)"/>
<path d="M0 0 C0.33 0 0.66 0 1 0 C0.85831863 1.43791516 0.71148957 2.8753237 0.5625 4.3125 C0.48128906 5.11300781 0.40007812 5.91351563 0.31640625 6.73828125 C0 9 0 9 -1 12 C-1.99 12 -2.98 12 -4 12 C-3.71640113 10.5608866 -3.42278601 9.12374482 -3.125 7.6875 C-2.96257812 6.88699219 -2.80015625 6.08648437 -2.6328125 5.26171875 C-2 3 -2 3 0 0 Z " fill="#B2117E" transform="translate(124,177)"/>
<path d="M0 0 C2.79233071 2.55277419 3.48967606 4.22360282 4 8 C3.34 8 2.68 8 2 8 C1.67 9.32 1.34 10.64 1 12 C-0.26237731 9.47524538 -0.09856404 7.68799534 -0.0625 4.875 C-0.05347656 3.96492187 -0.04445313 3.05484375 -0.03515625 2.1171875 C-0.02355469 1.41851562 -0.01195312 0.71984375 0 0 Z " fill="#AD1E70" transform="translate(266,171)"/>
<path d="M0 0 C2.18994248 3.28491373 2.35277339 4.83095639 2.625 8.6875 C2.69976562 9.68136719 2.77453125 10.67523438 2.8515625 11.69921875 C2.90054688 12.45847656 2.94953125 13.21773437 3 14 C2.01 14.495 2.01 14.495 1 15 C-2 9.25 -2 9.25 -2 7 C-1.34 7 -0.68 7 0 7 C0 4.69 0 2.38 0 0 Z " fill="#AB2268" transform="translate(190,178)"/>
<path d="M0 0 C3.01898986 1.50949493 3.59960549 4.01655082 5 7 C5.33 7.66 5.66 8.32 6 9 C5.0625 11.125 5.0625 11.125 4 13 C2.35 13 0.7 13 -1 13 C0.32 12.67 1.64 12.34 3 12 C2.01 8.04 1.02 4.08 0 0 Z " fill="#F6D131" transform="translate(271,178)"/>
<path d="M0 0 C0.66 0 1.32 0 2 0 C3.80411967 2.75924185 4.0127245 3.88972103 3.625 7.25 C3.41875 8.1575 3.2125 9.065 3 10 C2.67 9.34 2.34 8.68 2 8 C1.34 8 0.68 8 0 8 C0 5.36 0 2.72 0 0 Z " fill="#AB187C" transform="translate(240,174)"/>
<path d="M0 0 C0.33 0 0.66 0 1 0 C1.45356243 6.46326465 0.59378942 9.60931587 -3 15 C-4.57156655 11.8568669 -3.11705576 9.634536 -2.0625 6.375 C-1.68222656 5.18648437 -1.30195313 3.99796875 -0.91015625 2.7734375 C-0.60980469 1.85820312 -0.30945313 0.94296875 0 0 Z " fill="#F6D132" transform="translate(29,148)"/>
<path d="M0 0 C1.65 0 3.3 0 5 0 C5 1.98 5 3.96 5 6 C5.66 6.33 6.32 6.66 7 7 C6.01 7.33 5.02 7.66 4 8 C3.67 9.98 3.34 11.96 3 14 C2.34 14 1.68 14 1 14 C1.99 9.71 2.98 5.42 4 1 C2.68 0.67 1.36 0.34 0 0 Z " fill="#F2CB34" transform="translate(105,147)"/>
<path d="M0 0 C2.12038635 2.61514317 4.13091744 5.19637616 6 8 C4.35 7.67 2.7 7.34 1 7 C1 7.66 1 8.32 1 9 C0.34 9 -0.32 9 -1 9 C-0.67 6.03 -0.34 3.06 0 0 Z " fill="#AE256B" transform="translate(287,138)"/>
<path d="M0 0 C0.33 0.66 0.66 1.32 1 2 C1.66 2 2.32 2 3 2 C2.01 5.63 1.02 9.26 0 13 C-0.95904856 9.16380575 -0.91892116 7.67568464 0 4 C-0.99 3.67 -1.98 3.34 -3 3 C-2.01 2.01 -1.02 1.02 0 0 Z " fill="#B12861" transform="translate(30,135)"/>
<path d="M0 0 C1.46726798 3.81489674 0.43336419 6.29011622 -1 10 C-0.34 10 0.32 10 1 10 C0.67 10.99 0.34 11.98 0 13 C-1.65 12.67 -3.3 12.34 -5 12 C-4.319375 10.9790625 -4.319375 10.9790625 -3.625 9.9375 C-1.83163514 6.69564814 -0.91246131 3.5796559 0 0 Z " fill="#AB2C61" transform="translate(91,190)"/>
<path d="M0 0 C0.20140476 3.62528568 -0.14223235 5.86501708 -2 9 C-2.66 9 -3.32 9 -4 9 C-4 6.36 -4 3.72 -4 1 C-2 0 -2 0 0 0 Z " fill="#AD1979" transform="translate(131,160)"/>
<path d="M0 0 C1.32 0 2.64 0 4 0 C4 1.98 4 3.96 4 6 C2.35 6 0.7 6 -1 6 C-0.67 4.02 -0.34 2.04 0 0 Z " fill="#AA2168" transform="translate(102,155)"/>
<path d="M0 0 C1.4606285 2.64738916 2 3.89448334 2 7 C0.35 7 -1.3 7 -3 7 C-3.33 5.35 -3.66 3.7 -4 2 C-3.01 2 -2.02 2 -1 2 C-0.67 1.34 -0.34 0.68 0 0 Z " fill="#AE3C58" transform="translate(272,183)"/>
<path d="M0 0 C2 1 2 1 3.125 3.1875 C4.08328236 6.26769331 4.14915816 8.79309948 4 12 C4.66 12.33 5.32 12.66 6 13 C5.01 14.485 5.01 14.485 4 16 C3.32815382 13.89748139 2.66269032 11.79292237 2 9.6875 C1.443125 7.92986328 1.443125 7.92986328 0.875 6.13671875 C0 3 0 3 0 0 Z " fill="#F9D336" transform="translate(183,152)"/>
<path d="M0 0 C0.93423645 3.01031744 1.04449911 3.86650268 0 7 C0.66 7.66 1.32 8.32 2 9 C1.01 9.33 0.02 9.66 -1 10 C-2.20882096 12.00016466 -2.20882096 12.00016466 -3 14 C-2.48594831 9.03083364 -1.76615118 4.70973649 0 0 Z " fill="#F5C832" transform="translate(58,185)"/>
<path d="M0 0 C1.32 0.33 2.64 0.66 4 1 C4 4.63 4 8.26 4 12 C1.21366885 7.82050327 0 5.06624674 0 0 Z " fill="#FDE226" transform="translate(268,166)"/>
<path d="M0 0 C0.33 0 0.66 0 1 0 C1.33 2.64 1.66 5.28 2 8 C-0.475 9.485 -0.475 9.485 -3 11 C-2.01 7.37 -1.02 3.74 0 0 Z " fill="#F5CD30" transform="translate(78,163)"/>
<path d="M0 0 C-0.66 3.3 -1.32 6.6 -2 10 C-3.9451 7.08235 -4.45276317 5.37462715 -5 2 C-2 0 -2 0 0 0 Z " fill="#FBE025" transform="translate(215,151)"/>
<path d="M0 0 C0.99 0.495 0.99 0.495 2 1 C2.6328125 3.06640625 2.6328125 3.06640625 3.125 5.5625 C3.29257813 6.38878906 3.46015625 7.21507812 3.6328125 8.06640625 C3.75398437 8.70449219 3.87515625 9.34257812 4 10 C2.68 9.67 1.36 9.34 0 9 C0 6.03 0 3.06 0 0 Z " fill="#F1C42E" transform="translate(186,182)"/>
<path d="M0 0 C1.65 0 3.3 0 5 0 C5 1.65 5 3.3 5 5 C4.01 5.33 3.02 5.66 2 6 C2 5.01 2 4.02 2 3 C1.34 3 0.68 3 0 3 C0 2.01 0 1.02 0 0 Z " fill="#B12861" transform="translate(211,172)"/>
<path d="M0 0 C0.66 0 1.32 0 2 0 C2.55808089 1.43120744 3.09596462 2.87030355 3.625 4.3125 C3.92664063 5.11300781 4.22828125 5.91351563 4.5390625 6.73828125 C4.69117188 7.48464844 4.84328125 8.23101562 5 9 C4.01 10.485 4.01 10.485 3 12 C2.01 8.04 1.02 4.08 0 0 Z " fill="#FAD72E" transform="translate(188,169)"/>
<path d="M0 0 C0.33 0 0.66 0 1 0 C1.63019694 9.01531729 1.63019694 9.01531729 -1 13.125 C-1.66 13.74375 -2.32 14.3625 -3 15 C-3.33 13.68 -3.66 12.36 -4 11 C-3.34 11 -2.68 11 -2 11 C-2 10.34 -2 9.68 -2 9 C-1.34 9 -0.68 9 0 9 C0 6.03 0 3.06 0 0 Z " fill="#F5C537" transform="translate(312,129)"/>
<path d="M0 0 C0.66 0 1.32 0 2 0 C2 2.31 2 4.62 2 7 C0.68 7 -0.64 7 -2 7 C-2 5.68 -2 4.36 -2 3 C-1.34 3 -0.68 3 0 3 C0 2.01 0 1.02 0 0 Z " fill="#FCF004" transform="translate(184,183)"/>
<path d="M0 0 C0.66 0 1.32 0 2 0 C2.20086443 3.71599191 2.1519437 4.77208445 0 8 C-0.66 8 -1.32 8 -2 8 C-2.20086443 4.28400809 -2.1519437 3.22791555 0 0 Z " fill="#AE177E" transform="translate(56,181)"/>
<path d="M0 0 C0.99 0 1.98 0 3 0 C3 1.98 3 3.96 3 6 C1.68 6.33 0.36 6.66 -1 7 C-0.67 4.69 -0.34 2.38 0 0 Z " fill="#FDEF00" transform="translate(81,170)"/>
<path d="M0 0 C0.99 0 1.98 0 3 0 C3.33 2.31 3.66 4.62 4 7 C3.34 7 2.68 7 2 7 C1.67 5.68 1.34 4.36 1 3 C0.34 3 -0.32 3 -1 3 C-0.67 2.01 -0.34 1.02 0 0 Z " fill="#FEEE01" transform="translate(211,164)"/>
<path d="M0 0 C1.5 1.1875 1.5 1.1875 3 3 C3.1875 5.6875 3.1875 5.6875 3 8 C2.34 7.67 1.68 7.34 1 7 C1 6.01 1 5.02 1 4 C-0.32 3.67 -1.64 3.34 -3 3 C-3 2.34 -3 1.68 -3 1 C-2.01 0.67 -1.02 0.34 0 0 Z " fill="#FDEF03" transform="translate(284,160)"/>
<path d="M0 0 C0.99 0.66 1.98 1.32 3 2 C2.67 3.98 2.34 5.96 2 8 C0.68 8 -0.64 8 -2 8 C-2 7.01 -2 6.02 -2 5 C-1.01 5 -0.02 5 1 5 C1 4.34 1 3.68 1 3 C0.34 3 -0.32 3 -1 3 C-0.67 2.01 -0.34 1.02 0 0 Z " fill="#FDEF01" transform="translate(66,138)"/>
<path d="M0 0 C0.66 0 1.32 0 2 0 C2.99 3.63 3.98 7.26 5 11 C4.01 10.01 3.02 9.02 2 8 C2 7.01 2 6.02 2 5 C1.34 5 0.68 5 0 5 C0 3.35 0 1.7 0 0 Z " fill="#F9D535" transform="translate(225,139)"/>
<path d="M0 0 C1.95216435 3.90432869 2.50639991 6.72213252 3 11 C1.68 10.34 0.36 9.68 -1 9 C-0.67 6.03 -0.34 3.06 0 0 Z " fill="#F8CF2F" transform="translate(211,175)"/>
<path d="M0 0 C0.99 0 1.98 0 3 0 C3.33 2.31 3.66 4.62 4 7 C3.01 6.01 2.02 5.02 1 4 C0.34 4.66 -0.32 5.32 -1 6 C-0.67 4.02 -0.34 2.04 0 0 Z " fill="#AF2F54" transform="translate(146,189)"/>
<path d="M0 0 C2.3129482 2.3129482 2.49580975 3.47904875 3.125 6.625 C3.29257812 7.44226563 3.46015625 8.25953125 3.6328125 9.1015625 C3.81457031 10.04128906 3.81457031 10.04128906 4 11 C2 9.4375 2 9.4375 0 7 C-0.25 3.25 -0.25 3.25 0 0 Z " fill="#F1BF3E" transform="translate(259,158)"/>
<path d="M0 0 C2.78637633 4.1795645 1.79562512 6.14668677 1 11 C-0.98362069 8.08291076 -0.9876191 6.87619096 -0.625 3.25 C-0.41875 2.1775 -0.2125 1.105 0 0 Z " fill="#FBD92F" transform="translate(231,155)"/>
<path d="M0 0 C2.63829259 1.31914629 2.98263229 2.23857335 4 5 C4.0777346 7.33203812 4.08967728 9.66839059 4 12 C1.78600697 8.20458337 0.99019802 4.24370579 0 0 Z " fill="#B13553" transform="translate(175,144)"/>
<path d="M0 0 C2.69082872 0.17635452 5.32851446 0.61835921 8 1 C8 1.33 8 1.66 8 2 C6.906875 2.309375 5.81375 2.61875 4.6875 2.9375 C2.44592006 3.58337897 0.2130649 4.2623117 -2 5 C-1.125 1.125 -1.125 1.125 0 0 Z " fill="#AE1F68" transform="translate(295,119)"/>
<path d="M0 0 C0 0.66 0 1.32 0 2 C-0.99 2 -1.98 2 -3 2 C-3 2.66 -3 3.32 -3 4 C-4.32 4 -5.64 4 -7 4 C-7 3.01 -7 2.02 -7 1 C-2.25 0 -2.25 0 0 0 Z " fill="#FCF002" transform="translate(50,186)"/>
<path d="M0 0 C0.66 0 1.32 0 2 0 C2 2.97 2 5.94 2 9 C1.01 9 0.02 9 -1 9 C-0.67 6.03 -0.34 3.06 0 0 Z " fill="#FAD72D" transform="translate(101,171)"/>
<path d="M0 0 C0.33 0 0.66 0 1 0 C3.42857143 7.42857143 3.42857143 7.42857143 2 11 C2 10.34 2 9.68 2 9 C1.34 9 0.68 9 0 9 C0 6.03 0 3.06 0 0 Z " fill="#F7CF34" transform="translate(263,170)"/>
<path d="M0 0 C2.12508244 3.18762365 2.5020163 5.26512223 3 9 C1.68 8.67 0.36 8.34 -1 8 C-0.67 5.36 -0.34 2.72 0 0 Z " fill="#F7D432" transform="translate(180,162)"/>
<path d="M0 0 C0.33 0 0.66 0 1 0 C0.67 2.64 0.34 5.28 0 8 C-0.66 8 -1.32 8 -2 8 C-1.125 1.125 -1.125 1.125 0 0 Z " fill="#AD137E" transform="translate(76,160)"/>
<path d="M0 0 C0.33 0 0.66 0 1 0 C1.36923077 6.52307692 1.36923077 6.52307692 -0.5 8.9375 C-0.995 9.288125 -1.49 9.63875 -2 10 C-1.125 2.25 -1.125 2.25 0 0 Z " fill="#FAD032" transform="translate(136,149)"/>
<path d="M0 0 C1.65 0 3.3 0 5 0 C5.33 1.32 5.66 2.64 6 4 C4.68 3.34 3.36 2.68 2 2 C1.67 3.32 1.34 4.64 1 6 C0.67 4.02 0.34 2.04 0 0 Z " fill="#A9364D" transform="translate(203,148)"/>
<path d="M0 0 C0.33 0 0.66 0 1 0 C1.33 2.64 1.66 5.28 2 8 C1.01 8.33 0.02 8.66 -1 9 C-0.67 6.03 -0.34 3.06 0 0 Z " fill="#FCE01E" transform="translate(138,142)"/>
<path d="M0 0 C2.29633824 3.44450737 2.54016485 5.93812283 3 10 C2.67 9.01 2.34 8.02 2 7 C1.01 7 0.02 7 -1 7 C-0.67 4.69 -0.34 2.38 0 0 Z " fill="#F2C438" transform="translate(280,139)"/>
</svg>
