<?xml version="1.0" encoding="UTF-8"?>
<svg version="1.1" xmlns="http://www.w3.org/2000/svg" width="300" height="300">
<path d="M0 0 C99 0 198 0 300 0 C300 99 300 198 300 300 C201 300 102 300 0 300 C0 201 0 102 0 0 Z " fill="#01905A" transform="translate(0,0)"/>
<path d="M0 0 C56.76 0 113.52 0 172 0 C172 51.48 172 102.96 172 156 C115.24 156 58.48 156 0 156 C0 104.52 0 53.04 0 0 Z " fill="#F6DE05" transform="translate(64,72)"/>
<path d="M0 0 C0 0.66 0 1.32 0 2 C0.556875 2.20625 1.11375 2.4125 1.6875 2.625 C5.21190513 4.72059224 8.20365227 7.80127891 9.62109375 11.71484375 C11.05575221 20.36716541 11.50836272 29.78743391 6.40625 37.2421875 C5.9421875 37.82226562 5.478125 38.40234375 5 39 C4.278125 39.928125 3.55625 40.85625 2.8125 41.8125 C-3.72689759 46.89869813 -10.79800962 48.93779563 -19 48 C-19.67933594 47.92910156 -20.35867187 47.85820312 -21.05859375 47.78515625 C-28.34559152 46.52094026 -33.03929975 41.57986876 -37.375 35.875 C-40.37174866 30.57306007 -41.23987375 26.83324538 -41.125 20.6875 C-41.10695313 19.43324219 -41.08890625 18.17898437 -41.0703125 16.88671875 C-41.03550781 15.45779297 -41.03550781 15.45779297 -41 14 C-40.34 14 -39.68 14 -39 14 C-39 12.68 -39 11.36 -39 10 C-38.34 10 -37.68 10 -37 10 C-36.814375 9.113125 -36.62875 8.22625 -36.4375 7.3125 C-34.20254294 2.16238156 -30.75664992 0.23311283 -25.73828125 -2.01171875 C-17.21355187 -5.04547913 -7.75614161 -4.9553127 0 0 Z " fill="#0A9257" transform="translate(165,157)"/>
<path d="M0 0 C5.28 0 10.56 0 16 0 C19.7151388 6.89954349 24 15.03284804 24 23 C24.66 23 25.32 23 26 23 C29.68038161 31.57598357 32.87266437 39.650889 34 49 C31.35409986 49.02684679 28.70846904 49.04676357 26.0625 49.0625 C25.30775391 49.07087891 24.55300781 49.07925781 23.77539062 49.08789062 C21.85005687 49.09652441 19.92464419 49.05224333 18 49 C17.67 48.67 17.34 48.34 17 48 C17 46.02 17 44.04 17 42 C9.08 42.495 9.08 42.495 1 43 C0.34 44.98 -0.32 46.96 -1 49 C-6.28 49 -11.56 49 -17 49 C-15.87900356 41.15302491 -15.87900356 41.15302491 -14.5 37.3125 C-13.52177559 34.5587983 -12.66816219 31.84611393 -12 29 C-11.34 29 -10.68 29 -10 29 C-10 27.68 -10 26.36 -10 25 C-9.34 25 -8.68 25 -8 25 C-7.90847656 24.21367188 -7.81695312 23.42734375 -7.72265625 22.6171875 C-6.78238996 17.91077353 -5.14013202 13.60241648 -3.4375 9.125 C-3.10814453 8.24585937 -2.77878906 7.36671875 -2.43945312 6.4609375 C-1.63115163 4.30546686 -0.81623679 2.15247822 0 0 Z " fill="#0C9256" transform="translate(136,96)"/>
<path d="M0 0 C5.28 0 10.56 0 16 0 C16.680625 1.8253125 16.680625 1.8253125 17.375 3.6875 C17.64957031 4.41453125 17.92414063 5.1415625 18.20703125 5.890625 C18.83774046 7.56837364 19.45284608 9.25198622 20.0625 10.9375 C20.81648385 13.17040785 20.81648385 13.17040785 23 14 C23.34933594 13.07316406 23.69867188 12.14632812 24.05859375 11.19140625 C24.51363281 9.99386719 24.96867187 8.79632813 25.4375 7.5625 C25.88996094 6.36753906 26.34242188 5.17257813 26.80859375 3.94140625 C28 1 28 1 29 0 C31.69654854 -0.07319621 34.36691458 -0.09242537 37.0625 -0.0625 C37.82111328 -0.05798828 38.57972656 -0.05347656 39.36132812 -0.04882812 C41.24091871 -0.0370068 43.12046899 -0.01907078 45 0 C44.44269946 3.16350014 43.73662253 5.90573191 42.375 8.8125 C41.85099609 9.9571875 41.85099609 9.9571875 41.31640625 11.125 C40.88199219 12.07375 40.44757813 13.0225 40 14 C38.7604106 16.76627138 37.53520023 19.53872972 36.3125 22.3125 C36.00296387 23.00641846 35.69342773 23.70033691 35.37451172 24.4152832 C33.97713482 27.5853655 32.77305281 30.62537174 32 34 C31.34 34 30.68 34 30 34 C29.9175 34.804375 29.835 35.60875 29.75 36.4375 C28.78609277 41.01605933 26.98865155 44.76609669 25 49 C19.72 49 14.44 49 9 49 C9 44 9 44 11.0625 40.625 C12.75795955 37.83141363 13 37.01544081 13 33.5625 C12.01942922 30.06921658 10.74635485 27.22221285 9.04296875 24.04296875 C7.69368072 21.39998133 6.72425912 18.67698018 5.7265625 15.88671875 C4.9302943 13.72204451 4.9302943 13.72204451 3.3125 10.6875 C2 8 2 8 2 5 C1.34 5 0.68 5 0 5 C0 3.35 0 1.7 0 0 Z " fill="#079158" transform="translate(175,155)"/>
<path d="M0 0 C14.19 0 28.38 0 43 0 C43 5.28 43 10.56 43 16 C38.71 16 34.42 16 30 16 C30 26.89 30 37.78 30 49 C24.72 49 19.44 49 14 49 C13.67 38.11 13.34 27.22 13 16 C8.71 15.67 4.42 15.34 0 15 C0 10.05 0 5.1 0 0 Z " fill="#0B9256" transform="translate(79,96)"/>
<path d="M0 0 C5.61 0 11.22 0 17 0 C17.33 10.89 17.66 21.78 18 33 C21.96 33.33 25.92 33.66 30 34 C30 38.95 30 43.9 30 49 C20.1 49 10.2 49 0 49 C0 32.83 0 16.66 0 0 Z " fill="#0E9354" transform="translate(92,155)"/>
<path d="M0 0 C5.61 0 11.22 0 17 0 C17 16.17 17 32.34 17 49 C11.39 49 5.78 49 0 49 C0 32.83 0 16.66 0 0 Z " fill="#0C9255" transform="translate(177,96)"/>
<path d="M0 0 C0 0.66 0 1.32 0 2 C0.61875 2.12375 1.2375 2.2475 1.875 2.375 C4 3 4 3 6 5 C6.1953125 7.3828125 6.1953125 7.3828125 6.125 10.125 C6.10695312 11.03507813 6.08890625 11.94515625 6.0703125 12.8828125 C6.04710937 13.58148438 6.02390625 14.28015625 6 15 C5.34 15 4.68 15 4 15 C3.566875 15.9590625 3.566875 15.9590625 3.125 16.9375 C2 19 2 19 0 20 C-3.87214182 20.43023798 -5.52496371 20.31669086 -8.8125 18.125 C-11.72749627 15.29328934 -12.20202475 13.64597205 -12.375 9.6875 C-12.32214426 6.04632693 -12.06593634 5.09790548 -9.9375 1.9375 C-6.35587659 -0.42484735 -4.20965814 -0.41271158 0 0 Z " fill="#F2DC08" transform="translate(153,169)"/>
<path d="M0 0 C2.67907569 1.50183267 3.79000025 2.35468827 4.75 5.3046875 C5.42812134 12.27662256 5.42812134 12.27662256 3.1875 16.0625 C-0.54220249 19.36595077 -3.06421988 19.2597779 -8 19 C-11 17 -11 17 -12 14 C-12.11766176 12.33631742 -12.17509083 10.66779197 -12.1875 9 C-12.20167969 8.13375 -12.21585938 7.2675 -12.23046875 6.375 C-12 4 -12 4 -10 1 C-6.43528609 -0.18823797 -3.7441664 -0.26274852 0 0 Z " fill="#139454" transform="translate(215,111)"/>
<path d="M0 0 C2.14576637 -0.02685938 4.29162645 -0.04633088 6.4375 -0.0625 C7.63246094 -0.07410156 8.82742187 -0.08570312 10.05859375 -0.09765625 C13 0 13 0 14 1 C14.08843793 3.44830426 14.11528752 5.86820599 14.09765625 8.31640625 C14.0962413 9.04746078 14.09482635 9.77851532 14.09336853 10.53172302 C14.08775408 12.87535632 14.07519922 15.21889539 14.0625 17.5625 C14.05748686 19.14778508 14.05292363 20.73307166 14.04882812 22.31835938 C14.03862921 26.21230543 14.01905687 30.10604677 14 34 C19.28 34 24.56 34 30 34 C30 23.11 30 12.22 30 1 C34.29 1 38.58 1 43 1 C43 1.33 43 1.66 43 2 C39.04 2 35.08 2 31 2 C31 12.89 31 23.78 31 35 C28.050625 35.020625 25.10125 35.04125 22.0625 35.0625 C21.13187744 35.071604 20.20125488 35.08070801 19.24243164 35.09008789 C18.51403076 35.09258545 17.78562988 35.09508301 17.03515625 35.09765625 C16.2862915 35.10289307 15.53742676 35.10812988 14.76586914 35.11352539 C13 35 13 35 12 34 C11.9116033 31.6243148 11.88469695 29.27791326 11.90234375 26.90234375 C11.9037587 26.19348526 11.90517365 25.48462677 11.90663147 24.75428772 C11.91224557 22.48198288 11.92480037 20.20977525 11.9375 17.9375 C11.94251319 16.40039204 11.94707641 14.86328255 11.95117188 13.32617188 C11.96221958 9.55074358 11.97949359 5.77538829 12 2 C8.04 2 4.08 2 0 2 C0 1.34 0 0.68 0 0 Z " fill="#A0BE20" transform="translate(79,111)"/>
<path d="M0 0 C5.61 0 11.22 0 17 0 C17 0.33 17 0.66 17 1 C11.72 1 6.44 1 1 1 C1 2.65 1 4.3 1 6 C1.66 6 2.32 6 3 6 C3.33 7.65 3.66 9.3 4 11 C3.01 11.495 3.01 11.495 2 12 C2 19.26 2 26.52 2 34 C1.01 34.495 1.01 34.495 0 35 C0.02320313 33.75863281 0.04640625 32.51726562 0.0703125 31.23828125 C0.08907731 29.5963602 0.10727675 27.95443262 0.125 26.3125 C0.14175781 25.49587891 0.15851563 24.67925781 0.17578125 23.83789062 C0.23107232 17.0094429 -1.35645597 12.79654732 -5 7 C-4.01 6.34 -3.02 5.68 -2 5 C-1.34 3.35 -0.68 1.7 0 0 Z " fill="#B6C920" transform="translate(174,154)"/>
<path d="M0 0 C5.94 0 11.88 0 18 0 C17.67 0.99 17.34 1.98 17 3 C17 2.34 17 1.68 17 1 C9.08 1.495 9.08 1.495 1 2 C-0.65 6.29 -2.3 10.58 -4 15 C-4.99 15 -5.98 15 -7 15 C-9.3129482 12.6870518 -9.49580975 11.52095125 -10.125 8.375 C-10.29257813 7.55773437 -10.46015625 6.74046875 -10.6328125 5.8984375 C-10.75398437 5.27195313 -10.87515625 4.64546875 -11 4 C-10.01 4.495 -10.01 4.495 -9 5 C-9 5.99 -9 6.98 -9 8 C-8.34 8 -7.68 8 -7 8 C-7 8.99 -7 9.98 -7 11 C-3.68539295 9.29107501 -3.68539295 9.29107501 -3.3125 5.875 C-3.1578125 4.451875 -3.1578125 4.451875 -3 3 C-2.34 3 -1.68 3 -1 3 C-0.67 2.01 -0.34 1.02 0 0 Z " fill="#B1C926" transform="translate(203,154)"/>
<path d="M0 0 C1.21971054 3.75736335 0.51348511 5.56291336 -1.171875 9.1328125 C-2.43823444 11.98809463 -3.15062334 14.99886913 -4 18 C-4.62469505 19.35350594 -5.2716331 20.69934483 -6 22 C-6.66 22 -7.32 22 -8 22 C-8.103125 23.11375 -8.20625 24.2275 -8.3125 25.375 C-8.6528125 27.169375 -8.6528125 27.169375 -9 29 C-9.99 29.66 -10.98 30.32 -12 31 C-11.32829194 27.1936543 -10.27253436 23.64793184 -9 20 C-8.34 20 -7.68 20 -7 20 C-6.89816406 18.98808594 -6.79632813 17.97617188 -6.69140625 16.93359375 C-5.97392373 12.85164515 -4.73927467 9.78105624 -2.9375 6.0625 C-2.38964844 4.91910156 -1.84179688 3.77570313 -1.27734375 2.59765625 C-0.85582031 1.74042969 -0.43429688 0.88320312 0 0 Z " fill="#C0CD1F" transform="translate(214,169)"/>
<path d="M0 0 C0 3 0 3 -1.5 4.9375 C-8.15407033 10.42710802 -13.51950842 11.43705148 -22.14453125 11.3359375 C-25 11 -25 11 -28 9 C-26.78376953 9.08701172 -26.78376953 9.08701172 -25.54296875 9.17578125 C-17.29264252 9.51194122 -11.03978982 8.46597685 -4 4 C-2.62662007 2.7079539 -1.28057321 1.38408375 0 0 Z " fill="#B8CB23" transform="translate(170,195)"/>
<path d="M0 0 C5.61 0 11.22 0 17 0 C17 0.33 17 0.66 17 1 C11.72 1 6.44 1 1 1 C1 2.65 1 4.3 1 6 C0.34 6 -0.32 6 -1 6 C-0.67 8.31 -0.34 10.62 0 13 C-1.65 11.35 -3.3 9.7 -5 8 C-4.54625 7.608125 -4.0925 7.21625 -3.625 6.8125 C-1.55153895 4.70842582 -1.55153895 4.70842582 0 0 Z " fill="#CDCF1B" transform="translate(174,154)"/>
<path d="M0 0 C0.309375 0.639375 0.61875 1.27875 0.9375 1.9375 C1.8345163 3.93610821 1.8345163 3.93610821 3 5 C3.04080783 6.99958364 3.04254356 9.00045254 3 11 C1.02 11 -0.96 11 -3 11 C-2.44894091 7.0507432 -1.61064629 3.65079826 0 0 Z " fill="#E5DC18" transform="translate(144,116)"/>
<path d="M0 0 C5.28 0 10.56 0 16 0 C15.67 1.65 15.34 3.3 15 5 C14.67 4.01 14.34 3.02 14 2 C9.05 2.33 4.1 2.66 -1 3 C-0.67 2.01 -0.34 1.02 0 0 Z " fill="#3E9D49" transform="translate(204,155)"/>
<path d="M0 0 C0.66 0.33 1.32 0.66 2 1 C2.625 4.0625 2.625 4.0625 3 7 C2.01 7 1.02 7 0 7 C-0.33 10.96 -0.66 14.92 -1 19 C-1.33 19 -1.66 19 -2 19 C-2 13.72 -2 8.44 -2 3 C-1.34 3 -0.68 3 0 3 C0 2.01 0 1.02 0 0 Z " fill="#E1DB19" transform="translate(124,185)"/>
<path d="M0 0 C5.94 0 11.88 0 18 0 C17.67 0.99 17.34 1.98 17 3 C17 2.34 17 1.68 17 1 C14.39127531 1.00600397 11.79454299 1.05326709 9.1875 1.125 C8.08051758 1.12113281 8.08051758 1.12113281 6.95117188 1.1171875 C4.49926004 1.1439914 4.49926004 1.1439914 1 2 C-1.10258137 4.90918352 -1.10258137 4.90918352 -2 8 C-2.33 8 -2.66 8 -3 8 C-3 6.35 -3 4.7 -3 3 C-2.34 3 -1.68 3 -1 3 C-0.67 2.01 -0.34 1.02 0 0 Z " fill="#C1CA1E" transform="translate(203,154)"/>
<path d="M0 0 C1.33332095 2.6666419 0.67102033 4.16680303 0 7 C-0.66 7 -1.32 7 -2 7 C-2 7.66 -2 8.32 -2 9 C2.95 9 7.9 9 13 9 C13 9.33 13 9.66 13 10 C7.72 10 2.44 10 -3 10 C-3 5.02006195 -2.65555703 3.87268734 0 0 Z " fill="#49A53E" transform="translate(187,194)"/>
<path d="M0 0 C0 0.66 0 1.32 0 2 C1.32 2.33 2.64 2.66 4 3 C1.51238586 4.24380707 0.29388098 3.92578712 -2.4375 3.5625 C-5.01609988 3.22689969 -7.39165072 3 -10 3 C-7.29536552 -0.8183075 -4.37912428 -0.24787496 0 0 Z " fill="#A0C52C" transform="translate(153,169)"/>
<path d="M0 0 C-0.78375 0.45375 -1.5675 0.9075 -2.375 1.375 C-5.03698031 2.88428742 -5.03698031 2.88428742 -7 5 C-7.39764263 6.98821313 -7.73775349 8.98944339 -8 11 C-8.33 11 -8.66 11 -9 11 C-9.28782392 7.94906643 -9.4359485 5.04087532 -9 2 C-5.98076111 -0.8515034 -3.88659295 -1.58342676 0 0 Z " fill="#D6D618" transform="translate(150,172)"/>
<path d="M0 0 C0.33 3.96 0.66 7.92 1 12 C0.34 11.67 -0.32 11.34 -1 11 C-1.6328125 8.71484375 -1.6328125 8.71484375 -2.125 5.9375 C-2.29257813 5.01839844 -2.46015625 4.09929687 -2.6328125 3.15234375 C-2.75398437 2.44207031 -2.87515625 1.73179688 -3 1 C-1 0 -1 0 0 0 Z " fill="#A2C32A" transform="translate(203,115)"/>
<path d="M0 0 C1 2 1 2 0.0625 5.125 C-0.288125 6.07375 -0.63875 7.0225 -1 8 C-1.66 8 -2.32 8 -3 8 C-3.33 9.32 -3.66 10.64 -4 12 C-4 9.69 -4 7.38 -4 5 C-3.34 4.67 -2.68 4.34 -2 4 C-0.86649466 1.98330173 -0.86649466 1.98330173 0 0 Z " fill="#C5CF20" transform="translate(129,113)"/>
<path d="M0 0 C0.33 0 0.66 0 1 0 C1.04898438 0.60328125 1.09796875 1.2065625 1.1484375 1.828125 C1.22320312 2.62734375 1.29796875 3.4265625 1.375 4.25 C1.44460937 5.03890625 1.51421875 5.8278125 1.5859375 6.640625 C2.01507113 9.085877 2.78600638 10.84836903 4 13 C2.68 12.67 1.36 12.34 0 12 C0 8.04 0 4.08 0 0 Z " fill="#2D9A4A" transform="translate(140,174)"/>
<path d="M0 0 C1.46534385 3.80989402 0.55203911 6.3241179 -1 10 C-1.99 10.495 -1.99 10.495 -3 11 C-2.32829194 7.1936543 -1.27253436 3.64793184 0 0 Z " fill="#97C02C" transform="translate(205,189)"/>
</svg>
