<?xml version="1.0" encoding="UTF-8"?>
<svg version="1.1" xmlns="http://www.w3.org/2000/svg" width="900" height="900">
<path d="M0 0 C297 0 594 0 900 0 C900 297 900 594 900 900 C603 900 306 900 0 900 C0 603 0 306 0 0 Z " fill="#3A038C" transform="translate(0,0)"/>
<path d="M0 0 C230.67 0 461.34 0 699 0 C699 297 699 594 699 900 C494.4 900 289.8 900 79 900 C79.99180276 896.03278897 81.26325949 893.66730941 83.4375 890.25 C84.36369141 888.77273438 84.36369141 888.77273438 85.30859375 887.265625 C86.14583984 886.14414063 86.14583984 886.14414063 87 885 C87.66 885 88.32 885 89 885 C89.12375 883.9171875 89.12375 883.9171875 89.25 882.8125 C90.16647957 879.37570161 91.74709228 877.75355388 94 875 C94.83675165 873.55544504 95.64737637 872.0955771 96.4375 870.625 C98.31990247 867.13651102 100.39104354 863.99362574 102.75 860.81640625 C104.16416905 858.76144185 105.32479646 856.63733412 106.5 854.4375 C108.02237748 851.60885541 109.57012594 849.16542085 111.6875 846.75 C113.90327086 844.11502925 114.85474084 842.1903648 116 839 C118.46816038 834.49292453 118.46816038 834.49292453 120.44140625 832.6640625 C122.35813698 830.61762819 123.32113076 828.53910297 124.5 826 C126.02685448 822.71139035 127.42117405 820.51131742 130 818 C130.83574832 816.60888344 131.62517932 815.18925311 132.375 813.75 C134.30125026 810.17515717 136.41151748 806.93347323 138.8203125 803.671875 C140.35472695 801.49727439 141.62483546 799.18904682 142.9140625 796.86328125 C144.1279503 794.78045938 145.45547918 792.8049512 146.8125 790.8125 C151.30416862 784.16071594 155.49776754 777.22764641 159 770 C159.66 770 160.32 770 161 770 C161.0825 769.46375 161.165 768.9275 161.25 768.375 C162.27293806 765.13569613 164.00033698 762.72681321 166 760 C166.66 759.67 167.32 759.34 168 759 C169.05352843 756.69034152 170.05719096 754.3570226 171 752 C171.66 752 172.32 752 173 752 C173.66 750.02 174.32 748.04 175 746 C175.66 746 176.32 746 177 746 C177.28875 745.0925 177.5775 744.185 177.875 743.25 C178.76531776 740.67797092 179.71494413 738.38653234 181 736 C181.66 736 182.32 736 183 736 C183.10828125 735.42636719 183.2165625 734.85273437 183.328125 734.26171875 C184.0918937 731.69066016 185.20425819 729.99964498 186.75 727.8125 C189.39230555 723.97893919 191.67228581 720.07169938 193.82421875 715.9453125 C195 714 195 714 196.5390625 712.47265625 C198.1626061 710.83608957 198.84294874 709.44398652 199.6875 707.3125 C200.120625 706.219375 200.55375 705.12625 201 704 C201.66 704 202.32 704 203 704 C203.24105469 703.32066406 203.48210937 702.64132812 203.73046875 701.94140625 C205.26582626 698.384101 207.23794584 695.19588082 209.3125 691.9375 C209.74256348 691.25574707 210.17262695 690.57399414 210.61572266 689.87158203 C215.38487665 682.33911915 220.24646314 674.86548081 225.1171875 667.3984375 C225.61323486 666.63732666 226.10928223 665.87621582 226.62036133 665.09204102 C227.80774353 663.29153171 229.02779165 661.5126412 230.25390625 659.73828125 C232.39364915 656.38266654 233.63835562 652.99755575 234.97265625 649.26953125 C236.03394704 646.92500672 236.99613065 645.59789063 239 644 C239.66 644 240.32 644 241 644 C241.66 642.02 242.32 640.04 243 638 C243.66 638 244.32 638 245 638 C245 636.68 245 635.36 245 634 C245.66 634 246.32 634 247 634 C248.00822316 631.99699665 249.00418773 629.99116678 249.96484375 627.96484375 C250.28582031 627.29582031 250.60679687 626.62679687 250.9375 625.9375 C251.25589844 625.26589844 251.57429687 624.59429688 251.90234375 623.90234375 C253 622 253 622 254.44140625 620.56640625 C256.41410319 618.58382111 257.60429646 616.42111838 259 614 C260.74955406 611.23252357 262.51544775 608.47587984 264.28125 605.71875 C266.70054035 601.89187254 269.03479431 598.08158105 271 594 C271.66 594 272.32 594 273 594 C273 592.68 273 591.36 273 590 C273.66 590 274.32 590 275 590 C275.27328125 589.31387131 275.5465625 588.62774261 275.828125 587.92082214 C276.21484375 586.95695084 276.6015625 585.99307953 277 585 C277.38671875 583.91515823 277.7734375 582.83031647 278.171875 581.71260071 C279.95787769 577.81295542 281.52408016 574.60745404 285 572 C291.93158026 569.59801461 299.78888437 570.49321539 307 570.73046875 C309.16327377 570.75473473 311.3266193 570.77323063 313.48999023 570.78620911 C319.16696631 570.83569978 324.83957431 570.96324983 330.51483154 571.10736084 C336.31267193 571.24067837 342.11122286 571.29978979 347.91015625 571.36523438 C359.27535029 571.50439436 370.6373111 571.72607189 382 572 C382.19795166 571.09809937 382.19795166 571.09809937 382.39990234 570.17797852 C383.25899473 567.0600114 384.90522768 564.66987957 386.625 561.9375 C386.98400391 561.36386719 387.34300781 560.79023437 387.71289062 560.19921875 C388.8024053 558.46214421 389.89963858 556.73022 391 555 C391.59554688 554.06285156 392.19109375 553.12570312 392.8046875 552.16015625 C393.93935096 550.37972809 395.07477372 548.59978362 396.2109375 546.8203125 C402.65005666 536.67313043 402.65005666 536.67313043 408.625 526.25 C410.70638104 522.42249393 413.07643283 518.85930142 415.5234375 515.2578125 C417.8996561 511.62433538 419.93464073 507.81566373 422 504 C424.47906389 499.5267076 427.1165926 495.22213227 430 491 C435.96551255 495.82318036 440.97752483 501.2126809 446 507 C446.50072525 507.43591461 447.0014505 507.87182922 447.51734924 508.32095337 C451.36891963 511.97706829 452.43026274 514.81567807 452.68115234 520.11889648 C452.6796626 522.53650345 452.64692067 524.95425558 452.5859375 527.37109375 C452.57989502 528.50421997 452.57385254 529.63734619 452.56762695 530.80480957 C452.53636037 535.01607982 452.4525918 539.22682853 452.375 543.4375 C452.25125 552.863125 452.1275 562.28875 452 572 C478.73 572 505.46 572 533 572 C533.0048656 543.65304309 532.98490451 515.30645791 532.9197216 486.95958328 C532.89024899 473.79706942 532.87189332 460.6347168 532.87988281 447.47216797 C532.88681963 435.99710137 532.87272036 424.52228439 532.83356392 413.04727912 C532.81356785 406.97361859 532.80396801 400.90034985 532.81957626 394.82666779 C532.83394992 389.10390031 532.8200883 383.38187988 532.78504753 377.6592083 C532.77711243 375.56471269 532.77928354 373.47014918 532.79260826 371.37568092 C532.86434213 359.05281895 532.64822748 349.3764126 524.66830254 339.32213211 C517.02514558 331.86878771 505.43299825 331.40020576 495.45703125 331.390625 C493.7928717 331.36718018 493.7928717 331.36718018 492.09509277 331.34326172 C488.00110863 331.29116436 483.90675388 331.27248266 479.8125 331.25 C470.634375 331.1675 461.45625 331.085 452 331 C452 357.4 452 383.8 452 411 C443.28682344 403.53156295 436.27302271 395.42977891 429.30224609 386.39135742 C425.55436852 381.58463618 421.52273019 377.12246545 417.3449707 372.6887207 C413.42412401 368.51281812 409.8008963 364.15156881 406.21484375 359.68359375 C403.87423213 356.84761459 401.4290979 354.14147155 398.9375 351.4375 C394.977678 347.13844091 391.27866718 342.70701249 387.69140625 338.09375 C386.18140196 336.22455301 384.82688536 334.5563829 383 333 C380.05105433 332.74709299 377.3180051 332.67607333 374.37280273 332.7421875 C373.49109909 332.74966507 372.60939545 332.75714264 371.70097351 332.7648468 C369.78406575 332.78185837 367.86720568 332.80511476 365.95043755 332.83383179 C362.91019689 332.87531928 359.8708404 332.89159794 356.83033752 332.8996582 C348.18504267 332.92356021 339.54069487 332.96439282 330.89624023 333.09228516 C325.60787387 333.16869058 320.32157443 333.19104187 315.03270149 333.17901611 C313.02285264 333.18463137 311.01295183 333.21017932 309.00362968 333.25653076 C292.44749933 333.6263767 292.44749933 333.6263767 287.65432739 329.64697266 C285.13715095 326.88832163 283.09481404 324.08419445 281 321 C279.35941665 319.30765198 277.69647362 317.63631685 276 316 C274.90981609 314.64684432 273.84573475 313.27212462 272.8125 311.875 C269.25750156 307.22019812 265.37576777 302.93154645 261.41015625 298.625 C259.38660138 296.42106341 257.39980838 294.19574816 255.4375 291.9375 C252.82298058 288.92926472 250.17048344 285.95869751 247.5 283 C244.20231992 279.34460547 240.9301661 275.67054306 237.70703125 271.94921875 C236.49208808 270.56190378 235.25815973 269.19111719 234.01171875 267.83203125 C233.04685547 266.77048828 233.04685547 266.77048828 232.0625 265.6875 C231.18271484 264.73423828 231.18271484 264.73423828 230.28515625 263.76171875 C229 262 229 262 229 259 C228.43796875 258.773125 227.8759375 258.54625 227.296875 258.3125 C219.74353572 253.99630612 214.12044407 245.00331253 208.828125 238.2265625 C207.15257667 236.18583056 205.41332984 234.37748111 203.5 232.5625 C201 230 201 230 201 227 C200.071875 226.6596875 200.071875 226.6596875 199.125 226.3125 C196.3707902 224.61137042 196.17849539 222.94623846 195 220 C193.67370343 219.31944168 192.33938905 218.65441516 191 218 C189.35595703 216.50708008 189.35595703 216.50708008 187.7578125 214.76953125 C187.16613281 214.13080078 186.57445312 213.49207031 185.96484375 212.83398438 C185.05412109 211.83334961 185.05412109 211.83334961 184.125 210.8125 C183.52558594 210.16474609 182.92617188 209.51699219 182.30859375 208.84960938 C180.5243878 206.91252678 178.76019886 204.95889918 177 203 C176.41186523 202.35853027 175.82373047 201.71706055 175.21777344 201.05615234 C174.66895508 200.44336426 174.12013672 199.83057617 173.5546875 199.19921875 C173.06210449 198.65483154 172.56952148 198.11044434 172.06201172 197.54956055 C171 196 171 196 171 193 C170.44828125 192.78214844 169.8965625 192.56429687 169.328125 192.33984375 C166.20669182 190.54344848 164.16759651 188.22397686 161.75 185.5625 C160.41195312 184.11037109 160.41195312 184.11037109 159.046875 182.62890625 C157 180 157 180 157 177 C156.38125 176.71125 155.7625 176.4225 155.125 176.125 C153 175 153 175 151 173 C151 172.01 151 171.02 151 170 C149.68 169.34 148.36 168.68 147 168 C147 167.34 147 166.68 147 166 C146.40574219 165.7421875 145.81148437 165.484375 145.19921875 165.21875 C142.80697497 163.89303053 141.55218361 162.59621136 139.8125 160.5 C137.07296397 157.26076319 134.28759794 154.08028477 131.4375 150.9375 C130.6846875 150.09960938 129.931875 149.26171875 129.15625 148.3984375 C127.80777795 146.89850663 126.45439232 145.40296208 125.09375 143.9140625 C121 139.33755896 121 139.33755896 121 136 C120.13375 135.62875 120.13375 135.62875 119.25 135.25 C116.65091342 133.80606301 114.92163162 132.26478013 113 130 C113 129.01 113 128.02 113 127 C112.46246094 126.80019531 111.92492187 126.60039063 111.37109375 126.39453125 C107.9679608 124.39301813 105.66966653 121.62015549 103.0625 118.6875 C102.03355994 117.54466469 101.00362346 116.40272567 99.97265625 115.26171875 C99.4732251 114.7085498 98.97379395 114.15538086 98.45922852 113.58544922 C95.78024158 110.67473462 92.94373283 107.92607463 90.12109375 105.15625 C86.19139935 101.29037894 82.41774276 97.50734328 79.68359375 92.671875 C77.22082096 88.76343744 74.04050272 85.63899648 70.86328125 82.3046875 C69 80 69 80 69 77 C68.40541992 76.73445313 67.81083984 76.46890625 67.19824219 76.1953125 C64.93663246 74.96554337 63.5715072 73.75265647 61.828125 71.875 C61.25030273 71.25592773 60.67248047 70.63685547 60.07714844 69.99902344 C59.47418945 69.3393457 58.87123047 68.67966797 58.25 68 C57.62383789 67.32227539 56.99767578 66.64455078 56.35253906 65.94628906 C52.3456377 61.57380209 48.56168771 57.085409 44.92578125 52.3984375 C41.91593496 48.64986625 38.64728554 45.14693266 35.39453125 41.609375 C31.42583127 37.28459264 27.51628625 32.91765614 23.875 28.3125 C22.00757692 25.92747807 22.00757692 25.92747807 19.6875 23.6875 C13.86581655 17.86581655 8.74668396 11.49917091 3.69921875 5.00390625 C2.1506363 2.91158643 2.1506363 2.91158643 0 2 C0 1.34 0 0.68 0 0 Z " fill="#D30C28" transform="translate(201,0)"/>
<path d="M0 0 C9.1575 -0.103125 18.315 -0.20625 27.75 -0.3125 C32.0498291 -0.38078003 32.0498291 -0.38078003 36.43652344 -0.45043945 C38.74412877 -0.46506156 41.05174715 -0.47779813 43.359375 -0.48828125 C45.11338623 -0.526651 45.11338623 -0.526651 46.90283203 -0.5657959 C56.62572213 -0.57087897 64.10841169 2.01069603 72.375 7.0625 C82.27625322 18.14247384 81.83637828 29.39121128 81.68115234 43.46582031 C81.67945761 45.62519788 81.68041437 47.7845789 81.68380737 49.94395447 C81.68552161 55.77600936 81.65036366 61.60731662 81.60836363 67.43919849 C81.57073443 73.54501825 81.56732165 79.65085708 81.56021118 85.7567749 C81.54159817 97.30568664 81.4924089 108.85425566 81.43211424 120.40301681 C81.36493889 133.55656343 81.33203234 146.71012684 81.30194163 159.86380243 C81.23930681 186.90943512 81.12931816 213.95459828 81 241 C54.27 241 27.54 241 0 241 C0.3125 212.875 0.3125 212.875 0.51293945 204.08544922 C0.95025696 189.12046874 0.95025696 189.12046874 -5.53205872 176.19192505 C-7.72462225 174.03139978 -9.99704142 172.08041961 -12.45283508 170.22610474 C-14.70320607 168.44271985 -16.48345351 166.32723704 -18.3125 164.125 C-18.84488281 163.50882813 -19.37726563 162.89265625 -19.92578125 162.2578125 C-20.28027344 161.84273437 -20.63476562 161.42765625 -21 161 C-24.12837066 164.59183299 -26.41202933 168.35343287 -28.65625 172.5234375 C-31.80067109 178.3186787 -35.15579152 183.81269828 -38.875 189.25 C-42.3196047 194.35036426 -45.44555841 199.48076949 -48.31640625 204.9296875 C-54.12855308 215.52910145 -60.68196555 225.76505613 -67.5390625 235.71484375 C-69.1409429 238.01521009 -69.1409429 238.01521009 -70 241 C-101.68 241 -133.36 241 -166 241 C-164.30503565 236.76258914 -162.60497826 233.64493032 -160.125 229.875 C-159.31038138 228.62683462 -158.49662527 227.37810602 -157.68359375 226.12890625 C-157.03173096 225.12947998 -157.03173096 225.12947998 -156.36669922 224.10986328 C-153.94081367 220.36486454 -151.56590669 216.587761 -149.1875 212.8125 C-148.68532959 212.01634277 -148.18315918 211.22018555 -147.66577148 210.39990234 C-146.63374518 208.76363943 -145.60192743 207.12724496 -144.5703125 205.49072266 C-141.94458088 201.32596613 -139.31619198 197.16288845 -136.6875 193 C-136.18130127 192.19820312 -135.67510254 191.39640625 -135.15356445 190.5703125 C-132.56944216 186.47874996 -129.97861481 182.39169979 -127.375 178.3125 C-124.5561908 173.89178216 -121.77547543 169.44798311 -119 165 C-115.67735964 159.67512914 -112.33390844 154.36492329 -108.95703125 149.07421875 C-106.39889632 145.0557513 -103.85557028 141.02801275 -101.3125 137 C-100.80267578 136.19280518 -100.29285156 135.38561035 -99.76757812 134.55395508 C-97.09837863 130.32703004 -94.43196924 126.09837493 -91.76953125 121.8671875 C-91.24254639 121.03058594 -90.71556152 120.19398438 -90.17260742 119.33203125 C-89.17570158 117.74931152 -88.17969959 116.16602195 -87.18481445 114.58203125 C-83.87498949 109.32984792 -80.46562605 104.15062164 -77 99 C-81.7434646 89.1448981 -90.56747949 81.13550141 -97.9921875 73.22265625 C-100.84546778 70.17862987 -103.61188009 67.07033123 -106.3359375 63.91015625 C-108.31540126 61.63795489 -110.3458317 59.41540128 -112.375 57.1875 C-115.46636801 53.76770672 -118.42459032 50.28041476 -121.3125 46.6875 C-125.725387 41.23128595 -130.44471028 36.11384549 -135.2265625 30.984375 C-138.5715382 27.39584395 -141.80115727 23.71897976 -145 20 C-145.99458415 18.85919405 -146.98939789 17.71858824 -147.984375 16.578125 C-149.07318557 15.32314991 -150.16172523 14.06793974 -151.25 12.8125 C-151.77013672 12.21767822 -152.29027344 11.62285645 -152.82617188 11.01000977 C-153.32181641 10.43565186 -153.81746094 9.86129395 -154.328125 9.26953125 C-154.7705957 8.76010986 -155.21306641 8.25068848 -155.66894531 7.72583008 C-157.31364151 5.59333605 -158.62863217 3.31541277 -160 1 C-148.25617727 0.83766336 -136.51262232 0.71335621 -124.76790524 0.6373148 C-119.31402333 0.60081446 -113.86091018 0.55132202 -108.4074707 0.47192383 C-103.14247164 0.3957507 -97.87821098 0.35398564 -92.61270332 0.3358593 C-90.60599711 0.32294552 -88.5993304 0.29772681 -86.59293938 0.2598896 C-83.77714263 0.20891013 -80.96437886 0.2020827 -78.14819336 0.20532227 C-76.90956795 0.16757187 -76.90956795 0.16757187 -75.6459198 0.12905884 C-70.86513141 0.18839486 -68.50382223 0.99169652 -65.05836487 4.39439392 C-64.01403903 5.57471604 -62.99144184 6.77492047 -62 8 C-60.96939453 9.22976563 -60.96939453 9.22976563 -59.91796875 10.484375 C-59.34691406 11.23203125 -58.77585937 11.9796875 -58.1875 12.75 C-55.28214299 16.45741503 -52.2545601 19.97367007 -49.0625 23.4375 C-44.94913491 27.9025421 -41.09844052 32.5174819 -37.2890625 37.2421875 C-34.89986524 40.12064017 -32.41056373 42.87494749 -29.875 45.625 C-26.92992775 48.82380155 -24.12636946 52.03516518 -21.5 55.5 C-18.1257273 59.94862839 -14.41564412 64.03276614 -10.625 68.12890625 C-7.35918752 71.70088865 -4.18709355 75.35760737 -1 79 C-0.505 39.895 -0.505 39.895 0 0 Z " fill="#FEFCFD" transform="translate(653,331)"/>
<path d="M0 0 C0.75564576 -0.00170885 1.51129152 -0.0034177 2.28983563 -0.00517833 C4.81719673 -0.00846775 7.34429125 0.00252136 9.87162781 0.01345825 C11.68515008 0.01402248 13.49867281 0.01370557 15.31219482 0.01257324 C20.23326942 0.0119992 25.1542466 0.02376191 30.07529855 0.03772116 C35.2189257 0.05021988 40.36255507 0.05139834 45.50619507 0.05377197 C55.24544111 0.05998926 64.98464227 0.07640346 74.72386855 0.09647095 C85.81203811 0.11882219 96.90020981 0.12982144 107.98839629 0.13986182 C130.79674769 0.16076945 153.60505926 0.19595029 176.41337585 0.24050903 C176.51314714 5.59323855 176.58526535 10.9454126 176.63310242 16.29885864 C176.65306929 18.11536096 176.68025272 19.93180025 176.71513367 21.74807739 C176.92970793 33.21833414 176.92022995 42.99735067 170.66337585 53.05300903 C153.22518677 70.00680398 134.66722169 63.24050903 108.41337585 63.24050903 C108.41337585 121.65050903 108.41337585 180.06050903 108.41337585 240.24050903 C82.01337585 240.24050903 55.61337585 240.24050903 28.41337585 240.24050903 C28.41337585 181.83050903 28.41337585 123.42050903 28.41337585 63.24050903 C1.02337585 63.24050903 -26.36662415 63.24050903 -54.58662415 63.24050903 C-45.60200876 47.51743211 -45.60200876 47.51743211 -42.14912415 42.24050903 C-41.38990793 41.0739085 -40.63079646 39.9072398 -39.8717804 38.74050903 C-39.49424622 38.16300903 -39.11671204 37.58550903 -38.72773743 36.99050903 C-37.2103889 34.66351839 -35.70866564 32.32668695 -34.2089386 29.98831177 C-33.46358171 28.82755259 -32.7160373 27.66819503 -31.96626282 26.51028442 C-30.02327548 23.50594819 -28.11916858 20.48497265 -26.26631165 17.42410278 C-19.6526768 6.60229859 -13.46954353 -0.11187997 0 0 Z " fill="#FDFCFE" transform="translate(175.5866241455078,331.7594909667969)"/>
<path d="M0 0 C62.46419437 0 62.46419437 0 71.4296875 8.15234375 C76.4985256 14.1164244 79.12670927 21.32899882 79.12025452 29.05534363 C79.12231651 30.95471428 79.12231651 30.95471428 79.12442017 32.89245605 C79.12088102 34.29834008 79.11724621 35.70422387 79.11352539 37.11010742 C79.11324336 38.58836363 79.11340156 40.06661997 79.1139679 41.5448761 C79.11425526 45.56111152 79.10836834 49.57731718 79.10139394 53.59354568 C79.0951503 57.78960123 79.0945558 61.98565744 79.09336853 66.18171692 C79.0902582 74.12896667 79.08204882 82.07620268 79.07201904 90.02344638 C79.05876071 100.76156085 79.05335558 111.49967906 79.04751682 122.23779964 C79.03810875 139.15854338 79.01818783 156.07925815 79 173 C101.77 173 124.54 173 148 173 C146.4484644 176.878839 145.04513996 179.68763205 142.80078125 183.109375 C139.14499889 188.75518111 135.65848383 194.48940367 132.1875 200.25 C126.68471791 209.33208372 121.02896906 218.25911549 115 227 C114.45085937 227.84046875 113.90171875 228.6809375 113.3359375 229.546875 C109.0751386 235.78997071 104.24613621 238.18846595 97 240 C64.99 240 32.98 240 0 240 C0 160.8 0 81.6 0 0 Z " fill="#FDFDFE" transform="translate(365,332)"/>
<path d="M0 0 C1.22498128 0.72248896 2.43545244 1.4705476 3.625 2.25 C4.98625 3.0853125 4.98625 3.0853125 6.375 3.9375 C11.18979798 8.88604237 12.87396454 14.42189435 13.1875 21.25 C12.91234828 28.22642743 10.78534923 33.23241809 5.72265625 38.06640625 C-0.21760751 42.79809427 -5.6893727 44.91255408 -13.375 44.25 C-20.98707188 42.45980918 -25.90949681 38.22124743 -30.8125 32.3125 C-33.73251635 26.67471952 -33.27086674 19.35638578 -32.375 13.25 C-30.22675591 9.36247733 -27.78909784 6.39365675 -24.4375 3.5 C-23.78910156 2.92765625 -23.14070312 2.3553125 -22.47265625 1.765625 C-15.93606403 -2.9572759 -7.25191377 -3.49522979 0 0 Z " fill="#CB132B" transform="translate(780.375,527.75)"/>
<path d="M0 0 C1.22498128 0.72248896 2.43545244 1.4705476 3.625 2.25 C4.98625 3.0853125 4.98625 3.0853125 6.375 3.9375 C11.18979798 8.88604237 12.87396454 14.42189435 13.1875 21.25 C12.91234828 28.22642743 10.78534923 33.23241809 5.72265625 38.06640625 C-0.21760751 42.79809427 -5.6893727 44.91255408 -13.375 44.25 C-20.98707188 42.45980918 -25.90949681 38.22124743 -30.8125 32.3125 C-33.73251635 26.67471952 -33.27086674 19.35638578 -32.375 13.25 C-30.22675591 9.36247733 -27.78909784 6.39365675 -24.4375 3.5 C-23.78910156 2.92765625 -23.14070312 2.3553125 -22.47265625 1.765625 C-15.93606403 -2.9572759 -7.25191377 -3.49522979 0 0 Z M-25.78515625 9.1015625 C-28.88532302 14.32406567 -30.12954856 19.22439081 -29.375 25.25 C-27.43102003 31.51523667 -23.64231635 35.50060487 -18.375 39.25 C-13.3969279 41.73903605 -6.14098912 40.80595954 -1 39.1875 C3.75046693 35.68120298 8.2560222 31.13660456 9.625 25.25 C10.4410196 19.60752302 10.15013711 15.36156829 7.125 10.4375 C3.26344001 5.36076378 -0.64867944 1.96660011 -7.015625 0.7421875 C-14.82619152 0.24039133 -20.98273644 2.79589217 -25.78515625 9.1015625 Z " fill="#FDD2D8" transform="translate(780.375,527.75)"/>
<path d="M0 0 C3.5578125 -0.12375 3.5578125 -0.12375 7.1875 -0.25 C7.92508545 -0.28641602 8.6626709 -0.32283203 9.42260742 -0.36035156 C12.94577358 -0.41934854 14.91730217 -0.04926911 17.95703125 1.76171875 C20 4 20 4 20.59375 6.03515625 C20.33880903 11.54825462 20.33880903 11.54825462 18.5 14 C18.005 14.33 17.51 14.66 17 15 C17.28875 15.556875 17.5775 16.11375 17.875 16.6875 C19.0413253 19.08494645 20.0339881 21.51596939 21 24 C18.3125 24.4375 18.3125 24.4375 15 24 C13.52059363 22.31295764 12.41697672 20.52944952 11.234375 18.625 C10.02377793 16.71409108 10.02377793 16.71409108 7.1875 16.0625 C6.465625 16.041875 5.74375 16.02125 5 16 C5 18.64 5 21.28 5 24 C3.35 24 1.7 24 0 24 C0 16.08 0 8.16 0 0 Z " fill="#FEE2E5" transform="translate(761,536)"/>
<path d="M0 0 C7.29364659 -0.06977825 14.58722016 -0.12295152 21.88113403 -0.15543652 C25.26869572 -0.1710346 28.65602758 -0.19216406 32.04345703 -0.22631836 C35.94569903 -0.26283475 39.84761791 -0.2797575 43.75 -0.29296875 C44.95551514 -0.30845261 46.16103027 -0.32393646 47.40307617 -0.33988953 C54.006878 -0.34120147 58.99435769 0.19456257 65 3 C61.25 4.125 61.25 4.125 59 3 C57.18281916 2.88042526 55.36142165 2.8227532 53.54052734 2.79467773 C52.38351318 2.77449585 51.22649902 2.75431396 50.03442383 2.73352051 C48.2036731 2.70880676 48.2036731 2.70880676 46.3359375 2.68359375 C45.21743408 2.66494263 44.09893066 2.6462915 42.9465332 2.6270752 C38.75610483 2.55861897 34.5655425 2.49857165 30.375 2.4375 C21.01125 2.293125 11.6475 2.14875 2 2 C2 28.4 2 54.8 2 82 C0.68 81.67 -0.64 81.34 -2 81 C-1.505 80.01 -1.505 80.01 -1 79 C-0.87784515 76.4987767 -0.81436719 74.02352013 -0.79467773 71.52099609 C-0.78477814 70.75017197 -0.77487854 69.97934784 -0.76467896 69.18516541 C-0.7330317 66.6312876 -0.70829383 64.07739118 -0.68359375 61.5234375 C-0.663027 59.75509145 -0.64203061 57.98675035 -0.62062073 56.21841431 C-0.56537119 51.55940757 -0.51597464 46.90035625 -0.46777344 42.24127197 C-0.41757944 37.48893253 -0.36188242 32.73665798 -0.30664062 27.984375 C-0.19902381 18.65630541 -0.09758667 9.32817953 0 0 Z " fill="#FBB6BB" transform="translate(653,331)"/>
<path d="M0 0 C1.22498128 0.72248896 2.43545244 1.4705476 3.625 2.25 C4.98625 3.0853125 4.98625 3.0853125 6.375 3.9375 C12.20057922 9.92490087 13.06906612 16.54282362 13.05859375 24.6484375 C12.57359374 27.55843757 11.9135069 28.46532884 9.625 30.25 C9.62242187 29.27160156 9.61984375 28.29320312 9.6171875 27.28515625 C9.37058564 18.92535323 8.76508673 12.45970222 2.625 6.25 C-1.8352154 2.17908021 -6.65773883 1.5183703 -12.58203125 1.72265625 C-17.30413439 2.61424216 -20.84637856 5.06260789 -24.375 8.25 C-25.365 9.735 -25.365 9.735 -26.375 11.25 C-27.365 10.92 -28.355 10.59 -29.375 10.25 C-23.71748648 -0.75072074 -11.32822779 -5.45990485 0 0 Z " fill="#FEDDE4" transform="translate(780.375,527.75)"/>
<path d="M0 0 C0 0.99 0 1.98 0 3 C2.31 3 4.62 3 7 3 C7 3.33 7 3.66 7 4 C2.38 4.33 -2.24 4.66 -7 5 C-7.04898438 6.21816406 -7.09796875 7.43632813 -7.1484375 8.69140625 C-7.22352273 10.31512437 -7.29906802 11.93882126 -7.375 13.5625 C-7.42140625 14.76229492 -7.42140625 14.76229492 -7.46875 15.98632812 C-7.71256564 20.96423083 -8.43631388 25.26444649 -10 30 C-10.66 29.01 -11.32 28.02 -12 27 C-11.67 26.34 -11.34 25.68 -11 25 C-11.99 25.33 -12.98 25.66 -14 26 C-14 25.34 -14 24.68 -14 24 C-14.66 24 -15.32 24 -16 24 C-18.19382385 19.6123523 -17.23755845 14.82446757 -15.9375 10.3125 C-12.77729022 4.9095607 -6.58139193 0 0 0 Z " fill="#D2102B" transform="translate(768,531)"/>
<path d="M0 0 C0.99 0.495 0.99 0.495 2 1 C1.67 1.99 1.34 2.98 1 4 C-0.65 4.33 -2.3 4.66 -4 5 C-4 4.34 -4 3.68 -4 3 C-5.62492119 3.02545395 -5.62492119 3.02545395 -7.28266907 3.05142212 C-17.47988735 3.20983195 -27.67721155 3.35756274 -37.87473774 3.49477577 C-43.11767954 3.56566728 -48.36051069 3.64035128 -53.60327148 3.72363281 C-58.66059682 3.80383031 -63.71797103 3.87415676 -68.77553368 3.93757248 C-70.70732895 3.96354293 -72.63907936 3.99310061 -74.57076454 4.02626419 C-77.27151158 4.07202494 -79.97213517 4.10515353 -82.6730957 4.13525391 C-83.47582413 4.1517952 -84.27855255 4.16833649 -85.10560608 4.18537903 C-88.95698938 4.215016 -90.71458735 4.1902751 -94 2 C-62.98 2 -31.96 2 0 2 C0 1.34 0 0.68 0 0 Z " fill="#E80B1E" transform="translate(584,571)"/>
<path d="M0 0 C2.52703984 3.79055975 1.82110311 4.64815354 1 9 C0.36431121 16.88254102 2.68470979 21.52706468 7 28 C6.34 28 5.68 28 5 28 C4.67 28.66 4.34 29.32 4 30 C3.01886757 28.70982586 2.04015801 27.41780894 1.0625 26.125 C0.51722656 25.40570312 -0.02804687 24.68640625 -0.58984375 23.9453125 C-3.2708937 20.24680038 -3.21619444 17.12025403 -3.25 12.6875 C-3.27578125 11.37136719 -3.3015625 10.05523438 -3.328125 8.69921875 C-2.99044348 4.89226164 -2.23489942 3.04063948 0 0 Z " fill="#FCD0D6" transform="translate(751,536)"/>
<path d="M0 0 C0.33 1.32 0.66 2.64 1 4 C0.34 4 -0.32 4 -1 4 C-1 4.99 -1 5.98 -1 7 C-1.66 7 -2.32 7 -3 7 C-3.10699219 7.57105469 -3.21398437 8.14210938 -3.32421875 8.73046875 C-4.10083198 11.33863225 -5.2516566 13.08780421 -6.8125 15.3125 C-8.65460897 17.99471568 -10.42648743 20.65174307 -12 23.5 C-13.6117528 26.37813001 -15.33515677 29.1662693 -17.125 31.9375 C-17.62257813 32.70964844 -18.12015625 33.48179687 -18.6328125 34.27734375 C-19.08398438 34.84582031 -19.53515625 35.41429687 -20 36 C-20.66 36 -21.32 36 -22 36 C-21.341781 32.21298657 -19.61103933 29.46974164 -17.5625 26.25 C-16.94503906 25.26515625 -16.32757813 24.2803125 -15.69140625 23.265625 C-15.13324219 22.51796875 -14.57507813 21.7703125 -14 21 C-13.34 21 -12.68 21 -12 21 C-11.9175 20.278125 -11.835 19.55625 -11.75 18.8125 C-10.83352043 15.37570161 -9.25290772 13.75355388 -7 11 C-5.65839133 8.69034435 -4.39501246 6.35042171 -3.1484375 3.98828125 C-2 2 -2 2 0 0 Z " fill="#A80F46" transform="translate(302,864)"/>
<path d="M0 0 C2.97 0 5.94 0 9 0 C9.625 2.375 9.625 2.375 10 5 C8 7 8 7 6.0546875 7.1953125 C4.03645833 7.13020833 2.01822917 7.06510417 0 7 C0 4.69 0 2.38 0 0 Z " fill="#C53643" transform="translate(766,541)"/>
<path d="M0 0 C1.46373047 0.02707031 1.46373047 0.02707031 2.95703125 0.0546875 C3.69308594 0.07789063 4.42914062 0.10109375 5.1875 0.125 C5.1875 0.455 5.1875 0.785 5.1875 1.125 C4.50042969 1.16238281 3.81335938 1.19976563 3.10546875 1.23828125 C2.20441406 1.30402344 1.30335938 1.36976563 0.375 1.4375 C-0.51832031 1.49550781 -1.41164063 1.55351563 -2.33203125 1.61328125 C-5.20476967 2.20592492 -5.93010766 2.9534133 -7.8125 5.125 C-9.57605047 6.41329522 -11.37798695 7.62700415 -13.19140625 8.84375 C-15.09292382 10.21107505 -15.09292382 10.21107505 -16.8125 13.125 C-17.8025 12.795 -18.7925 12.465 -19.8125 12.125 C-15.61181881 3.9570088 -9.08547834 -0.21892719 0 0 Z " fill="#FEDDE3" transform="translate(770.8125,525.875)"/>
<path d="M0 0 C5.61832595 0.08079451 8.70583656 0.44317444 12.75 4.375 C13.08 5.365 13.41 6.355 13.75 7.375 C11.20383074 6.88535207 9.49857159 6.22414295 7.25 4.875 C2.20539695 2.71302726 -2.81214802 2.63017428 -8.25 2.375 C-5.50637988 -0.36862012 -3.82800386 0.04369867 0 0 Z " fill="#FEE2E6" transform="translate(772.25,526.625)"/>
<path d="M0 0 C0.33 1.32 0.66 2.64 1 4 C0.01 4.66 -0.98 5.32 -2 6 C-2.77968784 7.68932366 -3.55291288 9.38354203 -4.23828125 11.11328125 C-5.33225403 13.82296767 -6.66868418 16.40076435 -8 19 C-8.99 19 -9.98 19 -11 19 C-8.53652532 12.05748044 -4.83640885 5.55291386 0 0 Z " fill="#AD0E45" transform="translate(314,845)"/>
<path d="M0 0 C0.66 0.66 1.32 1.32 2 2 C0.83984375 2.03867187 0.83984375 2.03867187 -0.34375 2.078125 C-8.76981314 2.53697002 -14.07148365 4.3809891 -21 9 C-17.27742916 0.33252163 -8.69224689 -1.39017417 0 0 Z " fill="#C43043" transform="translate(776,529)"/>
<path d="M0 0 C0.66 0.99 1.32 1.98 2 3 C0.625 5 0.625 5 -1 7 C-1.66 7 -2.32 7 -3 7 C-3.1546875 7.9590625 -3.1546875 7.9590625 -3.3125 8.9375 C-3.539375 9.618125 -3.76625 10.29875 -4 11 C-4.99 11.33 -5.98 11.66 -7 12 C-7.144375 12.61875 -7.28875 13.2375 -7.4375 13.875 C-8.1872454 16.7073715 -9.59730651 17.44987517 -12 19 C-10.17520143 15.04128398 -7.80201931 11.46200295 -5.4375 7.8125 C-5.02564453 7.17119141 -4.61378906 6.52988281 -4.18945312 5.86914062 C-1.13502139 1.13502139 -1.13502139 1.13502139 0 0 Z " fill="#AF0F47" transform="translate(340,804)"/>
<path d="M0 0 C0.33 0.99 0.66 1.98 1 3 C-2.7872457 6.7872457 -6.32389849 7.91024156 -11.57421875 8.19140625 C-15.0542631 8.1878875 -18.52253582 8.13022404 -22 8 C-22.33 7.34 -22.66 6.68 -23 6 C-21.96552734 6.06960938 -21.96552734 6.06960938 -20.91015625 6.140625 C-12.52110856 6.46283808 -6.93269884 4.62179923 0 0 Z " fill="#BD1226" transform="translate(786,565)"/>
<path d="M0 0 C3.0009507 0.44131628 5.16475076 1.08595692 7.875 2.5 C11.30017617 4.14408456 14.23946434 4.62394643 18 5 C18 5.33 18 5.66 18 6 C15.93867858 6.10864945 13.87568679 6.18588321 11.8125 6.25 C10.08966797 6.31960938 10.08966797 6.31960938 8.33203125 6.390625 C4.37011251 5.92615622 2.76858652 4.81551171 0 2 C0 1.34 0 0.68 0 0 Z " fill="#FEE7EB" transform="translate(756,564)"/>
<path d="M0 0 C-4.48613211 2.99075474 -7.67511493 3.28025711 -13 3 C-15.4375 2 -15.4375 2 -17 1 C-14.14359812 -0.58400468 -11.74202961 -1.3725034 -8.5 -1.75 C-7.7471875 -1.84796875 -6.994375 -1.9459375 -6.21875 -2.046875 C-3.65417788 -1.9926939 -2.18765493 -1.29270519 0 0 Z " fill="#F6B4BB" transform="translate(780,569)"/>
<path d="M0 0 C1 2 1 2 0.125 5 C-1 8 -1 8 -2 10 C-2.66 10 -3.32 10 -4 10 C-4.66 11.65 -5.32 13.3 -6 15 C-6.66 15 -7.32 15 -8 15 C-6.7303673 10.45048283 -5.02575982 7.59308978 -2 4 C-1.29114106 2.68861096 -0.60543548 1.36222983 0 0 Z " fill="#B40E44" transform="translate(349,789)"/>
<path d="M0 0 C2 3 2 3 1.625 6.1875 C1.41875 7.115625 1.2125 8.04375 1 9 C0.34 8.34 -0.32 7.68 -1 7 C-1.33 11.29 -1.66 15.58 -2 20 C-2.33 20 -2.66 20 -3 20 C-3.08139142 17.60347472 -3.14067009 15.20974564 -3.1875 12.8125 C-3.22520508 11.80219727 -3.22520508 11.80219727 -3.26367188 10.77148438 C-3.32923478 6.29135252 -2.66743649 3.60559001 0 0 Z " fill="#F4A9B3" transform="translate(751,536)"/>
<path d="M0 0 C4.18466376 1.31884633 5.96761519 2.74748747 8.3125 6.4375 C8.82425781 7.21996094 9.33601563 8.00242187 9.86328125 8.80859375 C11 11 11 11 11 14 C3.00528402 6.20739762 3.00528402 6.20739762 0 2 C0 1.34 0 0.68 0 0 Z " fill="#860859" transform="translate(282,93)"/>
<path d="M0 0 C0.6875 1.8125 0.6875 1.8125 1 4 C0.02149805 5.02104551 -0.97980427 6.0206121 -2 7 C-2 8.32 -2 9.64 -2 11 C-3.65 11.66 -5.3 12.32 -7 13 C-7 13.99 -7 14.98 -7 16 C-7.66 16 -8.32 16 -9 16 C-7.62018779 11.58460093 -5.17889697 8.43509301 -2.33984375 4.8671875 C-0.81385317 2.93516371 -0.81385317 2.93516371 0 0 Z " fill="#C90F42" transform="translate(432,658)"/>
<path d="M0 0 C4.76132597 4.30055249 4.76132597 4.30055249 5 8 C4.01 9.485 4.01 9.485 3 11 C1.35 8.03 -0.3 5.06 -2 2 C-1.34 2 -0.68 2 0 2 C0 1.34 0 0.68 0 0 Z " fill="#FCCCD2" transform="translate(786,532)"/>
<path d="M0 0 C0.66 0.33 1.32 0.66 2 1 C0.57852271 3.43681822 -0.82406991 5.77480949 -2.5625 8 C-4.13018455 10.0093581 -4.13018455 10.0093581 -5.0625 12.6875 C-6 15 -6 15 -8 16 C-8 14.68 -8 13.36 -8 12 C-7.34 12 -6.68 12 -6 12 C-6 10.68 -6 9.36 -6 8 C-5.34 8 -4.68 8 -4 8 C-4 7.01 -4 6.02 -4 5 C-3.01 4.34 -2.02 3.68 -1 3 C-0.67 2.01 -0.34 1.02 0 0 Z " fill="#600175" transform="translate(457,615)"/>
<path d="M0 0 C0 0.33 0 0.66 0 1 C-0.68707031 1.03738281 -1.37414062 1.07476563 -2.08203125 1.11328125 C-2.98308594 1.17902344 -3.88414062 1.24476563 -4.8125 1.3125 C-5.70582031 1.37050781 -6.59914063 1.42851563 -7.51953125 1.48828125 C-10.36849996 2.07602125 -11.1037092 2.88636928 -13 5 C-13.99 5.33 -14.98 5.66 -16 6 C-16 5.34 -16 4.68 -16 4 C-16.66 3.67 -17.32 3.34 -18 3 C-11.92122066 -0.24201565 -6.81598387 -0.33278764 0 0 Z " fill="#FDC6CD" transform="translate(776,526)"/>
<path d="M0 0 C0.33 0.66 0.66 1.32 1 2 C-0.64379791 6.67184669 -2.18479582 9.71103088 -6 13 C-6 10 -6 10 -5 7 C-4.34 7 -3.68 7 -3 7 C-3 5.68 -3 4.36 -3 3 C-2.34 3 -1.68 3 -1 3 C-0.67 2.01 -0.34 1.02 0 0 Z " fill="#C30E46" transform="translate(449,631)"/>
<path d="M0 0 C0 4.93453357 -1.91698241 8.79320897 -5.1875 12.4375 C-5.785625 12.953125 -6.38375 13.46875 -7 14 C-7 10.35382993 -5.96590116 8.9473134 -4.0625 5.875 C-3.51722656 4.98554687 -2.97195313 4.09609375 -2.41015625 3.1796875 C-1 1 -1 1 0 0 Z " fill="#CA0D47" transform="translate(484,576)"/>
<path d="M0 0 C-0.33 1.32 -0.66 2.64 -1 4 C-3.31 4 -5.62 4 -8 4 C-8 3.01 -8 2.02 -8 1 C-2.25 -1.125 -2.25 -1.125 0 0 Z " fill="#D01E34" transform="translate(776,542)"/>
<path d="M0 0 C0 0.99 0 1.98 0 3 C2.31 3 4.62 3 7 3 C7 3.33 7 3.66 7 4 C2.38 4 -2.24 4 -7 4 C-7 3.34 -7 2.68 -7 2 C-2.25 0 -2.25 0 0 0 Z " fill="#D90C22" transform="translate(768,531)"/>
<path d="M0 0 C8.36628849 7.05024311 8.36628849 7.05024311 11 10 C11 10.66 11 11.32 11 12 C10.01 12 9.02 12 8 12 C6.61558 10.03501678 5.28796166 8.02951535 4 6 C3.2575 5.2575 2.515 4.515 1.75 3.75 C1.1725 3.1725 0.595 2.595 0 2 C0 1.34 0 0.68 0 0 Z " fill="#70046B" transform="translate(387,213)"/>
<path d="M0 0 C1.24546405 2.49092811 0.7767578 3.41080733 0 6 C-0.66 6 -1.32 6 -2 6 C-2.103125 6.598125 -2.20625 7.19625 -2.3125 7.8125 C-3.08876455 10.28243264 -4.07088921 11.32251235 -6 13 C-6 9.32965255 -4.9247108 7.9000569 -3 4.8125 C-2.443125 3.91144531 -1.88625 3.01039063 -1.3125 2.08203125 C-0.6628125 1.05142578 -0.6628125 1.05142578 0 0 Z " fill="#AF0E48" transform="translate(357,776)"/>
<path d="M0 0 C2 0 2 0 3.625 1.375 C5 3 5 3 5 5 C5.66 5 6.32 5 7 5 C7.33 6.65 7.66 8.3 8 10 C1.42857143 5 1.42857143 5 0 0 Z " fill="#A81047" transform="translate(248,53)"/>
<path d="M0 0 C0.99 0.66 1.98 1.32 3 2 C2.67 2.66 2.34 3.32 2 4 C1.34 3.67 0.68 3.34 0 3 C0 4.65 0 6.3 0 8 C-1.32 8 -2.64 8 -4 8 C-2.87548273 5.0280615 -1.77706209 2.66559313 0 0 Z " fill="#CF293D" transform="translate(631,491)"/>
<path d="M0 0 C0.33 0.66 0.66 1.32 1 2 C0.34 2 -0.32 2 -1 2 C-1.0825 2.53625 -1.165 3.0725 -1.25 3.625 C-2.26376098 6.8352431 -4.07160549 9.26292392 -6 12 C-7.24546405 9.50907189 -6.7767578 8.58919267 -6 6 C-5.34 6 -4.68 6 -4 6 C-4 5.01 -4 4.02 -4 3 C-3.34 3 -2.68 3 -2 3 C-2 2.34 -2 1.68 -2 1 C-1.34 0.67 -0.68 0.34 0 0 Z " fill="#680275" transform="translate(473,592)"/>
<path d="M0 0 C1.2077558 3.62326739 0.54311128 4.64146369 -1 8 C-1.66 8 -2.32 8 -3 8 C-3.33 9.65 -3.66 11.3 -4 13 C-4.66 12.01 -5.32 11.02 -6 10 C-4.02 6.7 -2.04 3.4 0 0 Z " fill="#D01D35" transform="translate(593,553)"/>
<path d="M0 0 C0.66 0.33 1.32 0.66 2 1 C1.01 3.31 0.02 5.62 -1 8 C-1.66 8 -2.32 8 -3 8 C-3.66 9.65 -4.32 11.3 -5 13 C-5.33 12.01 -5.66 11.02 -6 10 C-5.34 9.01 -4.68 8.02 -4 7 C-3.34 7 -2.68 7 -2 7 C-2.061875 5.824375 -2.061875 5.824375 -2.125 4.625 C-2 2 -2 2 0 0 Z " fill="#4F016D" transform="translate(291,877)"/>
<path d="M0 0 C0 3.61137513 -0.92530082 4.74732191 -2.9375 7.6875 C-3.48277344 8.49574219 -4.02804687 9.30398438 -4.58984375 10.13671875 C-5.05519531 10.75160156 -5.52054687 11.36648438 -6 12 C-6.33 12 -6.66 12 -7 12 C-7.3125 9.8125 -7.3125 9.8125 -7 7 C-4.625 4.3125 -4.625 4.3125 -2 2 C-1.34 1.34 -0.68 0.68 0 0 Z " fill="#56016F" transform="translate(340,802)"/>
<path d="M0 0 C0.33 0.66 0.66 1.32 1 2 C0.34 2 -0.32 2 -1 2 C-1.2165625 2.928125 -1.2165625 2.928125 -1.4375 3.875 C-2 6 -2 6 -3 8 C-3.66 8 -4.32 8 -5 8 C-5.33 8.66 -5.66 9.32 -6 10 C-6 9.01 -6 8.02 -6 7 C-5.34 7 -4.68 7 -4 7 C-4 5.35 -4 3.7 -4 2 C-2.68 1.34 -1.36 0.68 0 0 Z " fill="#620370" transform="translate(377,744)"/>
<path d="M0 0 C0.66 0.33 1.32 0.66 2 1 C1.23832543 2.46313772 0.46529293 3.92036661 -0.3125 5.375 C-0.95638672 6.59316406 -0.95638672 6.59316406 -1.61328125 7.8359375 C-3 10 -3 10 -6 12 C-5.67 10.35 -5.34 8.7 -5 7 C-4.34 7 -3.68 7 -3 7 C-2.690625 6.030625 -2.38125 5.06125 -2.0625 4.0625 C-1 1 -1 1 0 0 Z " fill="#6F036A" transform="translate(434,652)"/>
<path d="M0 0 C0.33 0.66 0.66 1.32 1 2 C0.04060332 3.69036558 -0.96642853 5.35394174 -2 7 C-2.69822617 8.65369357 -3.37498605 10.31727014 -4 12 C-4.99 12 -5.98 12 -7 12 C-5.78869178 8.55243044 -4.61489782 6.50594374 -2 4 C-0.82425289 1.90010348 -0.82425289 1.90010348 0 0 Z " fill="#B90D51" transform="translate(459,615)"/>
<path d="M0 0 C-0.66 1.98 -1.32 3.96 -2 6 C-2.66 6 -3.32 6 -4 6 C-4 6.66 -4 7.32 -4 8 C-4.66 8 -5.32 8 -6 8 C-5.62403791 5.21788056 -5.32681541 3.4120716 -3.5625 1.1875 C-2 0 -2 0 0 0 Z " fill="#A50A54" transform="translate(442,644)"/>
<path d="M0 0 C0.66 0.33 1.32 0.66 2 1 C1.01 2.98 0.02 4.96 -1 7 C-1.99 7 -2.98 7 -4 7 C-2.92598892 4.08482708 -2.22189824 2.22189824 0 0 Z " fill="#BD0F3B" transform="translate(307,857)"/>
<path d="M0 0 C2.475 0.495 2.475 0.495 5 1 C5 2.32 5 3.64 5 5 C3.0625 4.1875 3.0625 4.1875 1 3 C0.67 2.01 0.34 1.02 0 0 Z " fill="#FED9DF" transform="translate(756,564)"/>
<path d="M0 0 C1.32 0.33 2.64 0.66 4 1 C4.59732819 3.76264289 5 6.16032769 5 9 C0 3.375 0 3.375 0 0 Z " fill="#BF1328" transform="translate(753,555)"/>
<path d="M0 0 C0.66 1.32 1.32 2.64 2 4 C0.68 5.32 -0.64 6.64 -2 8 C-2.66 7.67 -3.32 7.34 -4 7 C-2.68 4.69 -1.36 2.38 0 0 Z " fill="#C7293C" transform="translate(791,557)"/>
<path d="M0 0 C0.66 0 1.32 0 2 0 C2 0.66 2 1.32 2 2 C3.32 2.33 4.64 2.66 6 3 C6.33 4.65 6.66 6.3 7 8 C1.125 3.375 1.125 3.375 0 0 Z " fill="#AC1040" transform="translate(209,9)"/>
<path d="M0 0 C0.66 0.33 1.32 0.66 2 1 C0.35 3.64 -1.3 6.28 -3 9 C-4.24546405 6.50907189 -3.7767578 5.58919267 -3 3 C-2.34 3 -1.68 3 -1 3 C-0.67 2.01 -0.34 1.02 0 0 Z " fill="#B90F37" transform="translate(291,882)"/>
</svg>
