<?xml version="1.0" encoding="UTF-8"?>
<svg version="1.1" xmlns="http://www.w3.org/2000/svg" width="225" height="225">
<path d="M0 0 C74.25 0 148.5 0 225 0 C225 74.25 225 148.5 225 225 C150.75 225 76.5 225 0 225 C0 150.75 0 76.5 0 0 Z " fill="#F7BC00" transform="translate(0,0)"/>
<path d="M0 0 C3.09244792 0.03255208 6.18489583 0.06510417 9.27734375 0.09765625 C10.76234375 10.49265625 10.76234375 10.49265625 12.27734375 21.09765625 C15.57734375 14.16765625 18.87734375 7.23765625 22.27734375 0.09765625 C26.23734375 0.09765625 30.19734375 0.09765625 34.27734375 0.09765625 C34.27734375 13.95765625 34.27734375 27.81765625 34.27734375 42.09765625 C30.31734375 42.09765625 26.35734375 42.09765625 22.27734375 42.09765625 C21.94734375 36.48765625 21.61734375 30.87765625 21.27734375 25.09765625 C20.78363281 26.24105469 20.28992187 27.38445312 19.78125 28.5625 C19.13423863 30.05343925 18.48709645 31.54432175 17.83984375 33.03515625 C17.51435547 33.78990234 17.18886719 34.54464844 16.85351562 35.32226562 C14.390625 40.984375 14.390625 40.984375 13.27734375 42.09765625 C9.60818605 42.24075912 5.95018934 42.13987287 2.27734375 42.09765625 C1.61734375 36.15765625 0.95734375 30.21765625 0.27734375 24.09765625 C-1.32668611 29.64631241 -1.32668611 29.64631241 -2.92358398 35.19702148 C-4.61154514 40.98654514 -4.61154514 40.98654514 -5.72265625 42.09765625 C-7.57553127 42.16992127 -9.43099503 42.18146845 -11.28515625 42.16015625 C-12.29707031 42.15113281 -13.30898438 42.14210937 -14.3515625 42.1328125 C-15.13402344 42.12121094 -15.91648437 42.10960937 -16.72265625 42.09765625 C-15.21430906 34.07722326 -12.60363525 26.48964822 -9.92700195 18.80175781 C-9.1529419 16.57692045 -8.38748253 14.3492541 -7.62304688 12.12109375 C-7.1346122 10.70685929 -6.64569773 9.29279042 -6.15625 7.87890625 C-5.92707382 7.21234009 -5.69789764 6.54577393 -5.46177673 5.85900879 C-3.45773299 0.12402199 -3.45773299 0.12402199 0 0 Z " fill="#253289" transform="translate(36.72265625,90.90234375)"/>
<path d="M0 0 C1.22847656 -0.00257812 2.45695312 -0.00515625 3.72265625 -0.0078125 C6.9375 0.125 6.9375 0.125 9.9375 1.125 C9.25639294 8.05795289 8.15709819 14.84209235 6.875 21.6875 C6.68873047 22.69619141 6.50246094 23.70488281 6.31054688 24.74414062 C5.85570197 27.20496816 5.39796882 29.66521974 4.9375 32.125 C0.27083333 32.125 -4.39583333 32.125 -9.0625 32.125 C-10.0525 32.62 -10.0525 32.62 -11.0625 33.125 C-14.74262333 33.5250134 -16.4114289 33.63529897 -19.375 31.3125 C-23.05449192 26.54278826 -22.61442279 20.88076623 -22.0625 15.125 C-20.32813837 9.0024945 -16.40172614 4.50885166 -11.0625 1.125 C-7.45645388 -0.19853781 -3.80537697 -0.0080029 0 0 Z " fill="#24328A" transform="translate(94.0625,100.875)"/>
<path d="M0 0 C-0.609375 1.86328125 -0.609375 1.86328125 -2 4 C-4.765625 5.16796875 -4.765625 5.16796875 -8.25 6.1875 C-23.99904906 11.27934405 -36.32311247 21.52548065 -44.4921875 35.91015625 C-44.98976562 36.59980469 -45.48734375 37.28945312 -46 38 C-46.99 38 -47.98 38 -49 38 C-52.47973507 30.13523293 -52.13883974 21.46922436 -52 13 C-51.01 13 -50.02 13 -49 13 C-47.68 15.64 -46.36 18.28 -45 21 C-44.40574219 20.43152344 -43.81148437 19.86304687 -43.19921875 19.27734375 C-34.19899051 10.89299427 -13.67234163 -6.83617082 0 0 Z " fill="#263388" transform="translate(206,96)"/>
<path d="M0 0 C1.18851563 0.00902344 2.37703125 0.01804687 3.6015625 0.02734375 C4.51679687 0.03894531 5.43203125 0.05054687 6.375 0.0625 C5.715 3.0325 5.055 6.0025 4.375 9.0625 C2.395 9.0625 0.415 9.0625 -1.625 9.0625 C-0.64905901 11.23959914 0.09542911 12.82114893 1.91796875 14.39453125 C4.36074821 17.19095706 3.89839836 20.04706226 3.8046875 23.61328125 C3.1567899 27.30629756 1.31867789 28.88978537 -1.625 31.0625 C-4.50915883 32.50457941 -7.04221528 32.15644887 -10.25 32.125 C-11.43851562 32.11597656 -12.62703125 32.10695312 -13.8515625 32.09765625 C-14.76679687 32.08605469 -15.68203125 32.07445312 -16.625 32.0625 C-16.13 27.6075 -16.13 27.6075 -15.625 23.0625 C-12.985 23.0625 -10.345 23.0625 -7.625 23.0625 C-8.39475398 19.87257641 -8.39475398 19.87257641 -11.1875 17.9375 C-14.13131083 14.46531286 -14.36114139 12.64640112 -14.125 8.21875 C-13.32500747 4.76878222 -11.36907005 3.15322004 -8.625 1.0625 C-5.74084117 -0.37957941 -3.20778472 -0.03144887 0 0 Z " fill="#24328A" transform="translate(118.625,100.9375)"/>
<path d="M0 0 C1.18851563 0.00902344 2.37703125 0.01804687 3.6015625 0.02734375 C4.51679688 0.03894531 5.43203125 0.05054687 6.375 0.0625 C5.715 3.0325 5.055 6.0025 4.375 9.0625 C2.065 8.7325 -0.245 8.4025 -2.625 8.0625 C-0.53688011 11.65346113 -0.53688011 11.65346113 2.0625 14.875 C4.04934537 18.18640895 4.14763065 21.36946726 3.375 25.0625 C1.39821824 28.58435256 -0.7237149 30.76207163 -4.625 32.0625 C-6.68645107 32.131491 -8.75001401 32.14717727 -10.8125 32.125 C-12.44251953 32.11146484 -12.44251953 32.11146484 -14.10546875 32.09765625 C-14.93691406 32.08605469 -15.76835938 32.07445312 -16.625 32.0625 C-16.875 25.4375 -16.875 25.4375 -14.625 22.0625 C-12.315 22.3925 -10.005 22.7225 -7.625 23.0625 C-8.058125 22.58941406 -8.49125 22.11632812 -8.9375 21.62890625 C-12.65411125 17.21543039 -14.55489228 13.97359313 -14.16015625 8.11328125 C-13.28303889 4.75206511 -11.31799566 3.11430622 -8.625 1.0625 C-5.74084117 -0.37957941 -3.20778472 -0.03144887 0 0 Z " fill="#24328A" transform="translate(139.625,100.9375)"/>
<path d="M0 0 C0.66 0 1.32 0 2 0 C1.94199219 0.72445312 1.88398437 1.44890625 1.82421875 2.1953125 C1.37609953 8.90572907 1.37609953 8.90572907 4.5 14.5625 C5.325 15.366875 6.15 16.17125 7 17 C7 17.66 7 18.32 7 19 C5.906875 18.896875 4.81375 18.79375 3.6875 18.6875 C2.470625 18.790625 1.25375 18.89375 0 19 C-2.00864359 21.3726974 -2.00864359 21.3726974 -3 24 C-3.66 23.67 -4.32 23.34 -5 23 C-4.67 22.67 -4.34 22.34 -4 22 C-3.19863892 15.8755565 -3.19863892 15.8755565 -5.1171875 10.2265625 C-6.61465324 8.7043101 -6.61465324 8.7043101 -9 7 C-8.67 6.01 -8.34 5.02 -8 4 C-5.03 4.495 -5.03 4.495 -2 5 C-1.855625 4.360625 -1.71125 3.72125 -1.5625 3.0625 C-1 1 -1 1 0 0 Z " fill="#E9B310" transform="translate(125,105)"/>
<path d="M0 0 C0.33 0 0.66 0 1 0 C1.0928125 1.5778125 1.0928125 1.5778125 1.1875 3.1875 C2.14254096 7.66884605 3.70694319 8.96025526 7 12 C7 12.99 7 13.98 7 15 C4.36 15 1.72 15 -1 15 C-1.33 15.99 -1.66 16.98 -2 18 C-2 17.34 -2 16.68 -2 16 C-2.66 16 -3.32 16 -4 16 C-2.63106796 2.63106796 -2.63106796 2.63106796 0 0 Z " fill="#E7B112" transform="translate(104,109)"/>
<path d="M0 0 C1.32 0 2.64 0 4 0 C3.53218278 4.99005032 1.11080256 9.15195521 -2 13 C-2.99 13.33 -3.98 13.66 -5 14 C-5.45772527 8.27843418 -4.54034087 5.50588838 -1 1 C-0.67 0.67 -0.34 0.34 0 0 Z " fill="#E8B211" transform="translate(88,110)"/>
</svg>
