<?xml version="1.0" encoding="iso-8859-1"?>
<!-- Generator: Adobe Illustrator 28.0.0, SVG Export Plug-In . SVG Version: 6.00 Build 0)  -->
<svg version="1.1" id="Capa_1" xmlns="http://www.w3.org/2000/svg" xmlns:xlink="http://www.w3.org/1999/xlink" x="0px" y="0px"
	 viewBox="0 0 279.93 77.21" style="enable-background:new 0 0 279.93 77.21;" xml:space="preserve">
<g>
	<path style="fill:#25328B;" d="M43.41,5.13c1.16,11.71,2.37,23.25,3.57,35.42c2.76-6.12,5.24-11.71,7.77-17.29
		c2.56-5.63,5.17-11.3,7.77-16.88c0.23-0.54,0.78-1.28,1.2-1.28C69.2,5,74.67,5.04,80.34,5.04c-0.54,21.85-1.09,43.49-1.63,65.25
		c-5.79,0-11.42,0-17.28,0c0.5-10.55,0.97-21.06,1.48-31.57c-0.12-0.04-0.23-0.08-0.31-0.12c-1.82,4.3-3.69,8.61-5.51,12.91
		c-2.52,5.87-5.05,11.79-7.65,17.67c-0.23,0.54-0.93,1.12-1.48,1.16c-4.12,0.21-8.27,0.21-12.39,0.37
		c-1.24,0.04-1.67-0.41-1.79-1.78c-0.7-8.4-1.52-16.76-2.25-25.16c-0.16-1.61-0.23-3.27-0.7-4.92c-1.71,6.21-3.46,12.41-5.16,18.62
		c-1.09,3.93-2.1,7.86-3.26,11.75c-0.19,0.62-0.93,1.49-1.48,1.49C15.68,70.79,10.44,70.75,5,70.75c1.48-4.8,2.91-9.43,4.39-14.03
		c5.24-16.51,10.6-32.98,15.81-49.49c0.54-1.78,1.32-2.27,2.99-2.23c4.39,0.12,8.82,0.04,13.2,0.04
		C42.01,5.04,42.63,5.09,43.41,5.13L43.41,5.13z"/>
	<path style="fill:#25328B;" d="M128.07,22.1c-1.44,8.27-2.83,16.3-4.19,24.33c-1.36,7.94-2.64,15.89-3.96,23.92
		c-5.28,0-10.45,0-15.81,0c0.31-1.49,0.58-2.94,0.85-4.22c-2.18,1.41-4.31,3.1-6.72,4.22c-5.09,2.32-10.56,1.28-13.71-2.32
		c-2.1-2.4-3.07-5.42-3.34-8.56c-0.66-8.32,0.27-16.34,4.04-23.83c4.23-8.36,10.68-13.53,19.53-14.85
		C112.57,19.62,120.3,20.37,128.07,22.1L128.07,22.1z M98.32,56.03c6.87-5.17,9.59-12.83,11.61-21.02c-3.3-0.7-6.02,0.21-8.04,2.86
		c-2.21,2.9-3.42,6.33-4.04,9.97C97.39,50.53,97.11,53.22,98.32,56.03L98.32,56.03z"/>
	<path style="fill:#25328B;" d="M153.77,70.17c1.01-5.25,1.9-10.1,2.83-15.1c2.1,0.5,4.12,1.16,6.17,1.41c1.36,0.16,2.8,0,4.12-0.37
		c1.44-0.41,1.63-1.82,0.43-3.23c-1.55-1.82-3.26-3.52-4.93-5.26c-6.52-6.79-5.05-19.41,3.65-24.49c5.44-3.19,11.26-3.43,17.24-3.06
		c1.51,0.08,3.03,0.46,4.82,0.74c-1.05,4.72-2.06,9.31-3.07,13.99c-1.79-0.33-3.46-0.79-5.17-0.95c-1.24-0.12-2.56-0.04-3.77,0.29
		c-1.28,0.33-1.48,1.99-0.47,3.19c1.94,2.23,4.08,4.22,5.9,6.58c6.41,8.36,2.91,19.41-5.28,24c-5.32,3.02-11.03,3.93-16.97,2.98
		C157.54,70.59,155.79,70.42,153.77,70.17L153.77,70.17z"/>
	<path style="fill:#25328B;" d="M158.05,20.82c-0.97,4.43-1.86,8.69-2.76,12.91c-0.23,1.03-0.78,1.16-1.71,0.99
		c-2.14-0.33-4.31-0.62-6.45-0.66c-0.7-0.04-1.86,0.54-2.02,1.07c-0.19,0.7,0.19,1.9,0.7,2.48c1.79,2.15,3.96,4.01,5.63,6.25
		c6.33,8.36,3.03,19.4-5.28,24.12c-5.67,3.23-11.73,3.72-17.94,2.9c-1.4-0.21-2.76-0.41-4.5-0.66c0.97-5.17,1.9-10.18,2.8-14.9
		c2.87,0.5,5.36,0.99,7.88,1.37c0.66,0.08,1.4-0.12,2.06-0.37c1.63-0.58,2.06-1.9,0.89-3.27c-1.51-1.78-3.18-3.39-4.78-5.09
		c-6.83-7.28-5.16-19.78,3.34-24.66c5.24-3.02,10.91-3.81,16.78-3.02C154.4,20.49,156.18,20.65,158.05,20.82L158.05,20.82z"/>
	<path style="fill:#25328B;" d="M209.31,46.96c7.69-7.9,15.46-15.1,24.16-21.1c8.54-5.92,17.52-10.8,27.53-13.07
		c3.11-0.7,6.33-0.87,9.55-1.08c2.21-0.17,4.16,1.28,4.35,2.9c0.23,1.9-1.2,3.81-3.46,4.51c-2.87,0.91-5.79,1.7-8.62,2.73
		c-10.76,3.81-20.19,10.1-29.32,17.13c-9.59,7.41-16.39,17.3-22.37,27.97c-0.74,1.28-1.44,2.61-2.25,3.81
		c-1.13,1.74-3.22,2.03-4.16,0.29c-1.24-2.36-2.45-5.05-2.72-7.7c-0.97-8.9-1.51-17.87-2.17-26.81c-0.08-0.79-0.04-1.74,0.31-2.4
		c0.35-0.7,1.09-1.49,1.79-1.61c0.54-0.12,1.55,0.5,1.82,1.08c1.4,3.06,2.64,6.16,3.96,9.31C208.22,44.11,208.73,45.43,209.31,46.96
		L209.31,46.96z"/>
</g>
</svg>
