<?xml version="1.0" encoding="UTF-8"?>
<svg version="1.1" xmlns="http://www.w3.org/2000/svg" width="900" height="900">
<path d="M0 0 C297 0 594 0 900 0 C900 297 900 594 900 900 C603 900 306 900 0 900 C0 603 0 306 0 0 Z " fill="#0072D1" transform="translate(0,0)"/>
<path d="M0 0 C1.13526123 0.00757324 2.27052246 0.01514648 3.44018555 0.02294922 C17.7492093 0.30194107 29.53026855 3.90339138 42.25 10.4375 C42.25 11.0975 42.25 11.7575 42.25 12.4375 C42.971875 12.68886719 43.69375 12.94023437 44.4375 13.19921875 C51.25387635 16.20031778 57.22918834 22.02030847 62.25 27.4375 C62.87648438 28.09363281 63.50296875 28.74976563 64.1484375 29.42578125 C71.48670549 37.32328528 79.25 48.25180141 79.25 59.4375 C79.91 59.4375 80.57 59.4375 81.25 59.4375 C84.34821856 74.98875238 84.78243824 89.85220223 83.3125 105.625 C83.22572998 106.55876465 83.13895996 107.4925293 83.04956055 108.45458984 C82.3787548 115.1799904 82.3787548 115.1799904 81.25 117.4375 C80.59 117.4375 79.93 117.4375 79.25 117.4375 C79.188125 118.13875 79.12625 118.84 79.0625 119.5625 C77.06682315 126.62412578 71.65585339 129.71387883 65.65234375 133.23828125 C61.96962387 135.07664711 58.78967235 135.56224376 54.69580078 135.57553101 C53.78735413 135.58098434 52.87890747 135.58643768 51.94293213 135.59205627 C50.95371765 135.5930986 49.96450317 135.59414093 48.9453125 135.59521484 C47.89776794 135.60029556 46.85022339 135.60537628 45.77093506 135.61061096 C43.49669225 135.6213091 41.22243896 135.62993146 38.94818115 135.63673019 C35.35097744 135.64851621 31.75389393 135.66796691 28.15673828 135.68984985 C17.92940245 135.75148719 7.7020799 135.80557757 -2.52539062 135.83886719 C-8.78057207 135.85977637 -15.03553279 135.89504581 -21.29058838 135.93962479 C-23.67642627 135.95381085 -26.06230319 135.96251307 -28.44818115 135.96567917 C-31.78079449 135.9705711 -35.11281834 135.99368398 -38.4453125 136.02099609 C-39.43452698 136.01798996 -40.42374146 136.01498383 -41.44293213 136.0118866 C-42.80560211 136.02852608 -42.80560211 136.02852608 -44.19580078 136.04550171 C-44.98334747 136.04881186 -45.77089417 136.052122 -46.58230591 136.05553246 C-49.27809428 136.53055505 -50.69804601 137.67247468 -52.75 139.4375 C-52.18517796 148.2863786 -47.91238188 155.01131175 -41.5078125 161 C-32.2553123 168.56648905 -18.7278583 167.0161556 -7.46484375 166.19921875 C0.72806221 165.10756641 7.77160289 161.82036962 15.25 158.4375 C23.27120177 154.89142222 32.08404312 153.86131488 40.6796875 156.05859375 C47.168599 158.89907058 52.25593936 164.67882122 55.1875 171.0625 C57.22072408 177.53301186 57.61630737 185.38478152 55.44140625 191.8359375 C46.41550822 207.63906692 26.44131937 214.71509738 10.25 220.4375 C9.2285791 220.80415771 9.2285791 220.80415771 8.18652344 221.17822266 C-10.44604809 227.54601573 -36.35992288 227.14667058 -54.75 220.4375 C-55.719375 220.16550781 -56.68875 219.89351562 -57.6875 219.61328125 C-77.60147154 213.99977652 -94.10714989 203.25279797 -104.46484375 184.9609375 C-109.75 174.58339666 -109.75 174.58339666 -109.75 168.4375 C-110.41 168.4375 -111.07 168.4375 -111.75 168.4375 C-117.87277872 145.33421495 -120.43262128 117.48536383 -112.75 94.4375 C-112.09 94.4375 -111.43 94.4375 -110.75 94.4375 C-110.6675 93.138125 -110.585 91.83875 -110.5 90.5 C-109.88464287 85.19972391 -108.11929528 81.17609055 -105.75 76.4375 C-105.18451201 75.22734887 -104.62085773 74.01633994 -104.05859375 72.8046875 C-95.87822557 55.47131131 -83.93896305 38.346666 -68.75 26.4375 C-68.18667969 25.97601563 -67.62335938 25.51453125 -67.04296875 25.0390625 C-57.02739275 17.14006792 -46.01359199 10.09299376 -33.75 6.4375 C-32.27017704 5.91853431 -30.79098977 5.39775174 -29.3125 4.875 C-19.46774043 1.69882272 -10.37658748 -0.09784106 0 0 Z " fill="#FCFDFE" transform="translate(258.75,393.5625)"/>
<path d="M0 0 C1.06089844 0.37382812 2.12179687 0.74765625 3.21484375 1.1328125 C10.24865499 3.81151489 16.03943198 7.44829351 22 12 C22.74894531 12.53367187 23.49789062 13.06734375 24.26953125 13.6171875 C40.22263093 25.29563876 50.87719132 42.36960682 54.74609375 61.734375 C57.32052813 79.418076 59.68844625 104.51216306 48.8046875 119.6640625 C43.17947879 126.84593274 37.72216526 129.17992828 29 131 C25.34774135 131.38027647 21.73822385 131.41837404 18.06835938 131.40063477 C17.03769348 131.40761383 16.00702759 131.4145929 14.94512939 131.42178345 C11.57791719 131.44159298 8.21101495 131.44125936 4.84375 131.44140625 C2.49010398 131.45318863 0.13646542 131.46655495 -2.21716309 131.48143005 C-8.38410891 131.51747464 -14.55098863 131.53778189 -20.71801758 131.55297852 C-30.61623893 131.57789819 -40.51431451 131.61735003 -50.41239929 131.67487907 C-53.86859546 131.69122813 -57.32465369 131.69498629 -60.78088379 131.69789124 C-62.8884302 131.70766217 -64.99597441 131.71792456 -67.10351562 131.72875977 C-68.06662659 131.72620682 -69.02973755 131.72365387 -70.02203369 131.72102356 C-71.34222504 131.73126556 -71.34222504 131.73126556 -72.68908691 131.74171448 C-73.83602901 131.74416593 -73.83602901 131.74416593 -75.00614166 131.74666691 C-77.31741139 131.88992847 -77.31741139 131.88992847 -80 134 C-81.27350155 141.800197 -76.98085731 147.13876167 -72.75 153.25 C-67.98154867 158.01845133 -62.66431878 160.90883513 -56 162 C-56 162.66 -56 163.32 -56 164 C-41.20075711 163.68744999 -29.38741009 161.60430067 -15.88671875 155.23828125 C-8.30215055 151.98481966 1.64361231 147.96185666 10 150 C17.79154418 153.62458931 23.08036245 159.85599831 27.9375 166.75 C30.30903341 174.00410218 30.02664814 180.82638535 26.625 187.6875 C16.13093231 204.55038119 -3.86303811 213.26487544 -22.390625 217.9765625 C-30.85007109 219.91962616 -38.96944083 220.18292034 -47.625 220.1875 C-48.81996094 220.19974609 -50.01492188 220.21199219 -51.24609375 220.22460938 C-71.62402235 220.25772627 -92.50444314 215.73590989 -110 205 C-110 204.34 -110 203.68 -110 203 C-110.72445312 202.7628125 -111.44890625 202.525625 -112.1953125 202.28125 C-120.79166196 198.35422685 -127.16959504 188.85984412 -132 181 C-132.51175781 180.20207031 -133.02351563 179.40414062 -133.55078125 178.58203125 C-142.47954821 162.962457 -144.56704313 144.6079855 -144.5625 126.9375 C-144.56521912 126.25974518 -144.56793823 125.58199036 -144.57073975 124.88369751 C-144.56052193 102.43550405 -138.60724207 81.63654729 -128 62 C-127.60296875 61.195625 -127.2059375 60.39125 -126.796875 59.5625 C-122.975089 52.03301117 -117.51535293 45.42311325 -112.36669922 38.76757812 C-111.14957766 37.19345164 -109.95044139 35.60545604 -108.75390625 34.015625 C-108.17511719 33.35046875 -107.59632813 32.6853125 -107 32 C-106.34 32 -105.68 32 -105 32 C-105 31.34 -105 30.68 -105 30 C-104.34 30 -103.68 30 -103 30 C-102.67 29.01 -102.34 28.02 -102 27 C-99.97501118 25.19144483 -97.96181227 23.5233684 -95.8125 21.875 C-95.18174561 21.38926514 -94.55099121 20.90353027 -93.90112305 20.40307617 C-67.14074997 0.05747362 -33.22372226 -12.47418284 0 0 Z " fill="#FCFDFE" transform="translate(636,398)"/>
<path d="M0 0 C1.38638672 -0.0309375 1.38638672 -0.0309375 2.80078125 -0.0625 C8.16740724 -0.09321031 11.85162875 0.27589013 16.5 3.25 C17.15226563 3.66378906 17.80453125 4.07757813 18.4765625 4.50390625 C23.59124156 8.56413725 26.10574765 12.86924512 27.5 19.25 C28.51414366 28.68344956 28.49592947 37.39180538 22.5 45.25 C14.305899 54.87508745 3.1924021 57.73342104 -8.70703125 60.5 C-12.19625966 61.43696763 -15.34324258 62.78717715 -18.59375 64.34765625 C-20.5 65.25 -20.5 65.25 -23.4375 66.25 C-26.10770524 67.54464496 -26.39368465 68.52108881 -27.5 71.25 C-28.49 72.8278125 -28.49 72.8278125 -29.5 74.4375 C-33.5746908 81.5750393 -33.84263363 89.5168201 -33.8125 97.5625 C-33.83666992 98.88217773 -33.83666992 98.88217773 -33.86132812 100.22851562 C-33.86229492 101.50178711 -33.86229492 101.50178711 -33.86328125 102.80078125 C-33.86626221 103.56044189 -33.86924316 104.32010254 -33.87231445 105.1027832 C-33.38507698 107.91278557 -32.52496548 109.24899531 -30.5 111.25 C-28.25984762 111.84138063 -28.25984762 111.84138063 -25.74609375 111.75390625 C-24.80830078 111.77259766 -23.87050781 111.79128906 -22.90429688 111.81054688 C-21.92525391 111.81119141 -20.94621094 111.81183594 -19.9375 111.8125 C-9.78300309 111.86062558 -0.27396099 112.73426946 7.8046875 119.48828125 C13.75140208 125.66793165 14.064542 132.89125116 13.9753418 141.07470703 C13.74811696 146.71213654 12.89839752 150.76366664 9.5 155.25 C8.79875 156.301875 8.0975 157.35375 7.375 158.4375 C1.80239112 164.73026141 -7.61226451 167.72835788 -15.77612305 168.45166016 C-18.96566483 168.59710725 -22.15342237 168.67414588 -25.34570312 168.72851562 C-32.01695208 168.95107153 -38.81385329 169.7759175 -43.875 174.4375 C-48.46445266 182.38078346 -49.02710118 189.47784528 -49.4375 198.5 C-50.21181912 212.0317821 -51.91988481 225.28087994 -53.96777344 238.67578125 C-54.88515312 244.83653286 -55.68878504 251.01203117 -56.5 257.1875 C-56.8317639 259.68493136 -57.16379551 262.18232718 -57.49609375 264.6796875 C-58.00541828 268.51430875 -58.51300306 272.34912835 -59.01611328 276.18457031 C-59.52576083 280.06134363 -60.04345866 283.9369746 -60.5625 287.8125 C-60.71267578 288.97064209 -60.86285156 290.12878418 -61.01757812 291.32202148 C-64.89141281 320.00377711 -64.89141281 320.00377711 -75.6875 329.375 C-81.5 333.25 -81.5 333.25 -85.5 333.25 C-85.5 333.91 -85.5 334.57 -85.5 335.25 C-93.49829916 337.51435866 -101.97255823 336.73742816 -109.5 333.25 C-115.90732356 328.94218993 -119.95211033 323.92214877 -121.5 316.25 C-122.14534449 306.92973637 -121.20400319 298.00665951 -119.78051758 288.80737305 C-118.47535735 280.36128397 -117.50326009 271.89202341 -116.59057617 263.39526367 C-116.0468604 258.46791173 -115.42066811 253.60507863 -114.4921875 248.734375 C-113.3833455 242.89213426 -112.77930856 237.03861913 -112.1875 231.125 C-111.36447626 223.23021306 -110.41327321 215.38159648 -109.1953125 207.5390625 C-109.08167862 206.80702606 -108.96804474 206.07498962 -108.85096741 205.32077026 C-108.29061121 201.73849577 -107.71580122 198.159037 -107.12573242 194.58154297 C-105.91403177 187.08322756 -105.16789787 179.85344331 -105.5 172.25 C-109.65543635 169.51928469 -112.9646821 169.01926549 -117.9375 168.75 C-125.84037081 168.29199271 -131.1660372 166.17641551 -137.5 161.25 C-141.87437309 155.45691131 -142.70141542 151.10549435 -142.75 144 C-142.770625 143.26136719 -142.79125 142.52273438 -142.8125 141.76171875 C-142.84952974 136.51275278 -141.8586191 132.94241064 -139.5 128.25 C-138.84 128.25 -138.18 128.25 -137.5 128.25 C-137.26796875 127.50105469 -137.0359375 126.75210938 -136.796875 125.98046875 C-134.18948995 120.49082373 -128.0080071 117.39495976 -122.625 114.9375 C-118.57660884 114.04685394 -114.50467137 113.4038265 -110.40234375 112.8125 C-107.55877417 112.26139096 -105.17469077 111.33250554 -102.5 110.25 C-101.51 110.25 -100.52 110.25 -99.5 110.25 C-99.21125 109.651875 -98.9225 109.05375 -98.625 108.4375 C-97.5 106.25 -97.5 106.25 -95.5 103.25 C-95.03245578 101.03466118 -95.03245578 101.03466118 -94.82421875 98.55859375 C-94.72149658 97.62281494 -94.61877441 96.68703613 -94.51293945 95.72290039 C-94.40554443 94.72121826 -94.29814941 93.71953613 -94.1875 92.6875 C-91.55281229 70.90072476 -85.19171875 52.61510671 -71.5 35.25 C-70.97019531 34.49203125 -70.44039063 33.7340625 -69.89453125 32.953125 C-69.43433594 32.39109375 -68.97414063 31.8290625 -68.5 31.25 C-67.84 31.25 -67.18 31.25 -66.5 31.25 C-66.005 29.765 -66.005 29.765 -65.5 28.25 C-64.84 28.25 -64.18 28.25 -63.5 28.25 C-63.5 27.59 -63.5 26.93 -63.5 26.25 C-61.47830928 24.42229459 -59.4591112 22.73314544 -57.3125 21.0625 C-56.68263184 20.57072266 -56.05276367 20.07894531 -55.40380859 19.57226562 C-47.21708914 13.33048002 -38.30697396 8.44594124 -28.5 5.25 C-27.52933594 4.91097656 -26.55867188 4.57195312 -25.55859375 4.22265625 C-16.83367063 1.21443122 -9.20090824 0.05133003 0 0 Z " fill="#FDFDFE" transform="translate(495.5,281.75)"/>
<path d="M0 0 C2.37447215 0.95996517 4.68997354 1.96842024 6.984375 3.10546875 C6.984375 3.76546875 6.984375 4.42546875 6.984375 5.10546875 C7.57992187 5.35683594 8.17546875 5.60820313 8.7890625 5.8671875 C11.27111704 7.26720759 12.4363092 8.62735772 14.109375 10.91796875 C14.60695313 11.58441406 15.10453125 12.25085938 15.6171875 12.9375 C19.84766094 19.64582216 19.98415474 26.38498973 18.3671875 34.01953125 C16.19133446 41.00921844 12.99002178 45.00513848 6.984375 49.10546875 C6.42363281 49.53859375 5.86289062 49.97171875 5.28515625 50.41796875 C-1.37673105 54.72948233 -10.4200847 53.77201616 -18.015625 53.10546875 C-21.90731884 51.66625196 -24.17293205 49.09394082 -27.015625 46.10546875 C-27.61375 45.58984375 -28.211875 45.07421875 -28.828125 44.54296875 C-30.015625 43.10546875 -30.015625 43.10546875 -30.015625 39.10546875 C-31.005625 38.77546875 -31.995625 38.44546875 -33.015625 38.10546875 C-36.67051243 32.6231376 -35.62905666 24.75961769 -34.5625 18.40625 C-34.11382097 16.62114844 -33.57660283 14.85852446 -33.015625 13.10546875 C-32.355625 13.10546875 -31.695625 13.10546875 -31.015625 13.10546875 C-30.8815625 12.53183594 -30.7475 11.95820312 -30.609375 11.3671875 C-29.61734333 7.58833002 -28.57690921 4.12363068 -26.015625 1.10546875 C-23.6044708 0.33321296 -21.56489676 0.16999517 -19.0390625 0.140625 C-0.60562261 -0.17964712 -0.60562261 -0.17964712 0 0 Z " fill="#FAA404" transform="translate(739.015625,554.89453125)"/>
<path d="M0 0 C3.64376538 2.16919812 6.54639249 4.57220264 9.3125 7.8125 C9.99119141 8.5240625 9.99119141 8.5240625 10.68359375 9.25 C14.14713957 13.0177099 14.41053831 14.40072986 15.3125 19.8125 C-4.4875 19.8125 -24.2875 19.8125 -44.6875 19.8125 C-40.97030592 8.66091777 -37.84174294 4.94988404 -27.6875 -0.1875 C-19.26426329 -3.5985628 -8.30450768 -3.97117811 0 0 Z " fill="#0471CF" transform="translate(264.6875,453.1875)"/>
<path d="M0 0 C4.03435664 3.01266892 7.98198034 6.13142556 10.59375 10.484375 C11.08875 13.949375 11.08875 13.949375 11.59375 17.484375 C-7.87625 17.484375 -27.34625 17.484375 -47.40625 17.484375 C-45.03928493 9.19999727 -41.19935681 3.49570586 -33.71875 -1.015625 C-24.16933259 -5.33988949 -9.09016056 -5.72562061 0 0 Z " fill="#0972CD" transform="translate(617.40625,454.515625)"/>
<path d="M0 0 C-4.67197056 2.98487008 -8.1055021 4.11375405 -13.61907959 4.15821838 C-14.54172104 4.1680072 -15.46436249 4.17779602 -16.41496277 4.18788147 C-17.92223686 4.19651466 -17.92223686 4.19651466 -19.45996094 4.20532227 C-20.52368423 4.21522186 -21.58740753 4.22512146 -22.68336487 4.23532104 C-26.20034558 4.26691567 -29.7173398 4.29168554 -33.234375 4.31640625 C-35.67246858 4.33697753 -38.11055861 4.35797404 -40.54864502 4.37937927 C-46.96670658 4.43458196 -53.38480022 4.48399926 -59.80291748 4.53222656 C-66.35171363 4.58245469 -72.90046317 4.63813392 -79.44921875 4.69335938 C-92.29943908 4.80091893 -105.14969921 4.90255393 -118 5 C-118 5.66 -118 6.32 -118 7 C-118.99 7 -119.98 7 -121 7 C-121 7.99 -121 8.98 -121 10 C-120.34 10 -119.68 10 -119 10 C-119 11.98 -119 13.96 -119 16 C-121.36999926 12.44500111 -121.92524733 10.26090222 -122 6 C-119.87981024 3.48539584 -118.11450465 2.18764836 -114.8302784 1.63468552 C-112.08390181 1.48011911 -109.36421846 1.46295899 -106.61352539 1.48583984 C-105.0468084 1.47515221 -105.0468084 1.47515221 -103.44844055 1.46424866 C-99.99798699 1.44495992 -96.54814589 1.4532493 -93.09765625 1.4609375 C-90.69778039 1.45103237 -88.29791213 1.43909183 -85.89805603 1.42520142 C-79.57924166 1.39281063 -73.26060064 1.38244489 -66.94171143 1.37835693 C-56.83113003 1.36960759 -46.7206913 1.33410274 -36.61022758 1.2861824 C-33.07937689 1.27359514 -29.54870612 1.27435568 -26.01783752 1.27645874 C-23.85051332 1.26987749 -21.68319036 1.26287105 -19.51586914 1.25537109 C-18.04518982 1.26155708 -18.04518982 1.26155708 -16.5447998 1.26786804 C-11.11341822 1.23573147 -4.81583036 -1.60527679 0 0 Z " fill="#3982C2" transform="translate(327,527)"/>
<path d="M0 0 C1.56891106 4.79056813 0.87064165 9.72358786 0.64453125 14.6875 C1.0671517 18.62576528 2.04108719 19.51632366 5 22 C5.28875 22.804375 5.5775 23.60875 5.875 24.4375 C7.05221545 27.1189352 7.89127787 27.91304784 10.125 29.6875 C11.07375 30.450625 12.0225 31.21375 13 32 C13 32.66 13 33.32 13 34 C20.02031522 36.24797495 30.0916474 36.43306262 37.046875 33.8828125 C39.4134768 32.56133427 39.4134768 32.56133427 41.43359375 31.09375 C43 30 43 30 45 30 C45 30.99 45 31.98 45 33 C34.30936574 39.7550711 26.07549651 39.55052543 14 37 C14 36.34 14 35.68 14 35 C13.360625 34.896875 12.72125 34.79375 12.0625 34.6875 C11.0415625 34.3471875 11.0415625 34.3471875 10 34 C9.505 32.515 9.505 32.515 9 31 C7.33729713 29.66172696 5.67083819 28.32810215 4 27 C4 26.34 4 25.68 4 25 C3.01 25 2.02 25 1 25 C1 23.35 1 21.7 1 20 C0.34 20 -0.32 20 -1 20 C-1 19.01 -1 18.02 -1 17 C-1.66 17 -2.32 17 -3 17 C-3 12.71 -3 8.42 -3 4 C-2.34 3.67 -1.68 3.34 -1 3 C-0.67 2.01 -0.34 1.02 0 0 Z " fill="#69837D" transform="translate(704,572)"/>
<path d="M0 0 C0.33 0 0.66 0 1 0 C1.1967332 2.8329581 1.38259641 5.66596323 1.5625 8.5 C1.61857422 9.29148437 1.67464844 10.08296875 1.73242188 10.8984375 C2.05189484 16.09519779 1.79686914 20.85281562 1 26 C0.67 26 0.34 26 0 26 C-2.34537553 34.94880653 -2.43549702 43.94200163 -2.625 53.125 C-2.66326676 54.66929076 -2.70232323 56.21356216 -2.7421875 57.7578125 C-2.83722467 61.50502913 -2.92159287 65.25239417 -3 69 C-9.28566702 59.57149948 -5.91790113 45.15190371 -4.28491211 34.58154297 C-3.10996302 26.96875185 -2.17782419 19.341405 -1.3125 11.6875 C-1.18125732 10.52951904 -1.05001465 9.37153809 -0.91479492 8.1784668 C-0.60752043 5.45256489 -0.30243383 2.72644256 0 0 Z " fill="#C7E5F7" transform="translate(380,536)"/>
<path d="M0 0 C0.66 0 1.32 0 2 0 C1.67 1.32 1.34 2.64 1 4 C20.47 4 39.94 4 60 4 C60 4.66 60 5.32 60 6 C39.87 6.33 19.74 6.66 -1 7 C-0.67 4.69 -0.34 2.38 0 0 Z " fill="#C4E3F3" transform="translate(569,468)"/>
<path d="M0 0 C0.66 0.33 1.32 0.66 2 1 C2.495 3.97 2.495 3.97 3 7 C-16.8 7 -36.6 7 -57 7 C-56.67 6.01 -56.34 5.02 -56 4 C-37.19 4.33 -18.38 4.66 1 5 C0.505 2.525 0.505 2.525 0 0 Z " fill="#4189C8" transform="translate(277,466)"/>
<path d="M0 0 C0.66 0.33 1.32 0.66 2 1 C1.01 1.33 0.02 1.66 -1 2 C-1 2.66 -1 3.32 -1 4 C-2.32 4 -3.64 4 -5 4 C-5.33 4.99 -5.66 5.98 -6 7 C-6.78375 7.45375 -7.5675 7.9075 -8.375 8.375 C-11.36590314 10.22651147 -12.29248774 11.99152602 -14 15 C-14.66 15 -15.32 15 -16 15 C-16 17.31 -16 19.62 -16 22 C-16.66 22 -17.32 22 -18 22 C-18.11622939 25.74973906 -18.1872595 29.49901464 -18.25 33.25 C-18.28351563 34.31347656 -18.31703125 35.37695312 -18.3515625 36.47265625 C-18.36445313 37.49746094 -18.37734375 38.52226562 -18.390625 39.578125 C-18.41157227 40.52075195 -18.43251953 41.46337891 -18.45410156 42.43457031 C-17.85568169 45.81532088 -16.71875722 46.95564496 -14 49 C-11.79908322 49.63007594 -11.79908322 49.63007594 -9.453125 49.609375 C-8.18662109 49.65771484 -8.18662109 49.65771484 -6.89453125 49.70703125 C-6.02183594 49.72121094 -5.14914062 49.73539062 -4.25 49.75 C-3.36183594 49.77964844 -2.47367187 49.80929687 -1.55859375 49.83984375 C0.62769449 49.91036918 2.81292768 49.96314637 5 50 C5 50.33 5 50.66 5 51 C1.58378212 51.14539953 -1.83163991 51.23409725 -5.25 51.3125 C-6.21808594 51.35439453 -7.18617188 51.39628906 -8.18359375 51.43945312 C-15.22817672 51.56091145 -15.22817672 51.56091145 -18.64453125 49.078125 C-20.53534403 44.78429079 -20.55779262 41.08131447 -20.4375 36.4375 C-20.41550537 35.09993652 -20.41550537 35.09993652 -20.39306641 33.73535156 C-20.09554353 23.28604485 -18.84575008 13.56554472 -11 6 C-7.51659573 3.36105737 -4.14816636 1.38272212 0 0 Z " fill="#2679C1" transform="translate(481,343)"/>
<path d="M0 0 C0 0.66 0 1.32 0 2 C-0.99 2.33 -1.98 2.66 -3 3 C-5.22219795 4.95284062 -6.76578308 6.45349385 -7.9375 9.1875 C-8.4634375 10.0846875 -8.4634375 10.0846875 -9 11 C-9.7425 11.103125 -10.485 11.20625 -11.25 11.3125 C-15.54223309 12.38555827 -17.34845468 15.63308175 -20 19 C-20.66 19.66 -21.32 20.32 -22 21 C-22 20.34 -22 19.68 -22 19 C-22.66 19 -23.32 19 -24 19 C-24 19.66 -24 20.32 -24 21 C-25.65 21.33 -27.3 21.66 -29 22 C-29 22.66 -29 23.32 -29 24 C-29.99 24.33 -30.98 24.66 -32 25 C-32 24.34 -32 23.68 -32 23 C-31.34 23 -30.68 23 -30 23 C-30 22.34 -30 21.68 -30 21 C-29.34 21 -28.68 21 -28 21 C-27.67 20.01 -27.34 19.02 -27 18 C-24.91209515 16.15323346 -22.83321226 14.44082501 -20.625 12.75 C-19.99883789 12.26490967 -19.37267578 11.77981934 -18.72753906 11.2800293 C-3.98695324 0 -3.98695324 0 0 0 Z " fill="#E6F5F9" transform="translate(561,407)"/>
<path d="M0 0 C8.68427047 8.68427047 7.0585164 26.40371005 7.0625 37.75 C7.05044757 40.83350399 7.02742174 43.91657721 7 47 C6.67 47 6.34 47 6 47 C5.86722656 45.83082031 5.73445312 44.66164063 5.59765625 43.45703125 C5.41937987 41.90884161 5.24098839 40.36066522 5.0625 38.8125 C4.97548828 38.04357422 4.88847656 37.27464844 4.79882812 36.48242188 C4.43867411 33.37442613 4.06802531 30.32661465 3.4296875 27.26171875 C2.95628183 24.76988346 2.97152612 22.53144711 3.0625 20 C3.11350411 16.2030277 2.82352295 13.41910553 1 10 C0.34 10 -0.32 10 -1 10 C-0.7215625 8.824375 -0.7215625 8.824375 -0.4375 7.625 C0.25962266 5.02910225 0.25962266 5.02910225 -1 3 C-0.67 2.01 -0.34 1.02 0 0 Z " fill="#CDEBF9" transform="translate(685,445)"/>
<path d="M0 0 C3.41427207 5.12140811 2.62402117 11.03196771 2 17 C-0.25526485 23.77674244 -6.37403449 28.8961279 -12 33 C-14.78125 34.2265625 -14.78125 34.2265625 -17 35 C-17 33.35 -17 31.7 -17 30 C-15.88625 29.731875 -14.7725 29.46375 -13.625 29.1875 C-9.78159049 28.34190981 -9.78159049 28.34190981 -8 25 C-6 22.8125 -6 22.8125 -4 21 C-3.34 21 -2.68 21 -2 21 C-2 19.68 -2 18.36 -2 17 C-1.34 17 -0.68 17 0 17 C-0.185625 16.05125 -0.37125 15.1025 -0.5625 14.125 C-1.26768593 9.35520074 -0.62132638 4.75075712 0 0 Z " fill="#E1F7FD" transform="translate(313,566)"/>
<path d="M0 0 C0.33 1.32 0.66 2.64 1 4 C1.66 4 2.32 4 3 4 C6.09584788 19.53935296 6.51957042 34.42151437 5.125 50.1875 C5.04660889 51.12126465 4.96821777 52.0550293 4.88745117 53.01708984 C4.80342041 53.89187988 4.71938965 54.76666992 4.6328125 55.66796875 C4.55949707 56.45453857 4.48618164 57.2411084 4.41064453 58.05151367 C4 60 4 60 2 62 C2.0707373 61.32807617 2.14147461 60.65615234 2.21435547 59.96386719 C2.99384272 51.77993597 3.15438816 43.64704901 3.13037109 35.43505859 C3.12497342 33.23918873 3.13037091 31.04352025 3.13671875 28.84765625 C3.13605841 27.42447872 3.13477816 26.00130132 3.1328125 24.578125 C3.13168457 23.31387695 3.13055664 22.04962891 3.12939453 20.74707031 C2.99178712 16.76216736 2.55030063 12.94664461 2 9 C1.34 9 0.68 9 0 9 C0 6.03 0 3.06 0 0 Z " fill="#B9E2F9" transform="translate(337,449)"/>
<path d="M0 0 C-0.99 0 -1.98 0 -3 0 C-3.33 0.99 -3.66 1.98 -4 3 C-4.99 3.66 -5.98 4.32 -7 5 C-8.3703055 6.97485205 -9.70672372 8.97386717 -11 11 C-11.33 11.33 -11.66 11.66 -12 12 C-12.36760731 14.32817964 -12.70241581 16.6618385 -13 19 C-13.33 19 -13.66 19 -14 19 C-14.01981934 19.68626465 -14.03963867 20.3725293 -14.06005859 21.07958984 C-14.15510945 24.17845779 -14.26486847 27.27663294 -14.375 30.375 C-14.4059375 31.45523438 -14.436875 32.53546875 -14.46875 33.6484375 C-14.50742187 34.6796875 -14.54609375 35.7109375 -14.5859375 36.7734375 C-14.63306885 38.20308838 -14.63306885 38.20308838 -14.68115234 39.66162109 C-15 42 -15 42 -17 44 C-17.65051333 11.18521663 -17.65051333 11.18521663 -10.47265625 3.328125 C-6.75888578 0.09560107 -4.70945461 -1.41283638 0 0 Z " fill="#2D7FC7" transform="translate(462,452)"/>
<path d="M0 0 C5.14713273 2.35297496 7.54424831 6.07905141 10 11 C12.37299388 17.8336216 12.16629227 27.39232727 9.953125 34.23828125 C6.83037428 40.58481286 6.83037428 40.58481286 4 42 C4.33 40.35 4.66 38.7 5 37 C5.66 37 6.32 37 7 37 C6.95875 36.21625 6.9175 35.4325 6.875 34.625 C7 32 7 32 9 30 C9.24377883 26.64255888 9.24377883 26.64255888 9.125 22.875 C9.10695313 21.59367187 9.08890625 20.31234375 9.0703125 18.9921875 C9.04710937 18.00476563 9.02390625 17.01734375 9 16 C8.34 16 7.68 16 7 16 C4.85714286 8.57142857 4.85714286 8.57142857 4 5 C2.68 4.67 1.36 4.34 0 4 C0 2.68 0 1.36 0 0 Z " fill="#D4F0FB" transform="translate(512,286)"/>
<path d="M0 0 C4.39570216 -0.08852235 8.7911694 -0.14089579 13.1875 -0.1875 C14.41404297 -0.21263672 15.64058594 -0.23777344 16.90429688 -0.26367188 C25.18583381 -0.32922494 33.12028487 0.24945093 41 3 C41.495 3.99 41.495 3.99 42 5 C43.48867276 5.92866164 45.01554706 6.79705336 46.5625 7.625 C47.38878906 8.07101562 48.21507812 8.51703125 49.06640625 8.9765625 C49.70449219 9.31429688 50.34257812 9.65203125 51 10 C50.34 10.33 49.68 10.66 49 11 C46.9609375 10.14453125 46.9609375 10.14453125 44.375 8.8125 C29.94700785 2.11178954 15.67451285 1.25141641 0 1 C0 0.67 0 0.34 0 0 Z " fill="#3082C8" transform="translate(250,393)"/>
<path d="M0 0 C3.0625 2 3.0625 2 5 4 C4.01 4 3.02 4 2 4 C0.865625 4.020625 -0.26875 4.04125 -1.4375 4.0625 C-4.32697967 4.01180737 -6.27521856 3.7031694 -9 3 C-10.99963028 2.96154557 -13.00051633 2.95455719 -15 3 C-15 3.66 -15 4.32 -15 5 C-15.99 5 -16.98 5 -18 5 C-18 5.66 -18 6.32 -18 7 C-19.45463481 7.38909985 -20.91391207 7.76088029 -22.375 8.125 C-23.18710937 8.33382812 -23.99921875 8.54265625 -24.8359375 8.7578125 C-25.55007813 8.83773437 -26.26421875 8.91765625 -27 9 C-27.66 8.34 -28.32 7.68 -29 7 C-8.50492655 -1.59048823 -8.50492655 -1.59048823 0 0 Z " fill="#CEEAF8" transform="translate(646,548)"/>
<path d="M0 0 C0.66708984 0.01546875 1.33417969 0.0309375 2.02148438 0.046875 C4.41156155 0.11095214 6.79872899 0.21080293 9.1875 0.3125 C11.31639624 0.3921949 13.44530314 0.4716054 15.57421875 0.55078125 C21.44660457 0.77809103 27.31723682 1.03604472 33.1875 1.3125 C33.1875 1.6425 33.1875 1.9725 33.1875 2.3125 C19.6575 2.6425 6.1275 2.9725 -7.8125 3.3125 C-7.8125 3.9725 -7.8125 4.6325 -7.8125 5.3125 C-8.8025 5.3125 -9.7925 5.3125 -10.8125 5.3125 C-10.8125 6.3025 -10.8125 7.2925 -10.8125 8.3125 C-10.1525 8.3125 -9.4925 8.3125 -8.8125 8.3125 C-8.8125 10.2925 -8.8125 12.2725 -8.8125 14.3125 C-11.18249926 10.75750111 -11.73774733 8.57340222 -11.8125 4.3125 C-8.06041579 0.31971605 -5.36108809 -0.16557141 0 0 Z " fill="#2174BC" transform="translate(216.8125,528.6875)"/>
<path d="M0 0 C1.90234375 0.828125 1.90234375 0.828125 4.65234375 2.328125 C2.02206827 3.64326274 0.49652433 3.18788293 -2.41015625 2.828125 C-10.20390013 2.05283111 -16.47040139 2.26429258 -23.34765625 6.328125 C-24.77078125 7.1634375 -24.77078125 7.1634375 -26.22265625 8.015625 C-26.92390625 8.44875 -27.62515625 8.881875 -28.34765625 9.328125 C-27.22313898 6.3561865 -26.12471834 3.99371813 -24.34765625 1.328125 C-22.47265625 0.8515625 -22.47265625 0.8515625 -20.34765625 0.703125 C-2.38812422 -0.68345652 -2.38812422 -0.68345652 0 0 Z " fill="#B69C4B" transform="translate(738.34765625,554.671875)"/>
<path d="M0 0 C0.33 0 0.66 0 1 0 C1.95261487 4.76307437 2.08333357 9.1666528 2 14 C1.01 13.67 0.02 13.34 -1 13 C-0.88201748 17.11193736 -0.75778941 21.22363288 -0.62768555 25.33520508 C-0.58428566 26.73489199 -0.54261436 28.13463359 -0.50268555 29.53442383 C-0.44510555 31.54261495 -0.38086 33.55061149 -0.31640625 35.55859375 C-0.27974854 36.76829834 -0.24309082 37.97800293 -0.20532227 39.22436523 C-0.31061734 41.90705456 -0.31061734 41.90705456 1 43 C1.07226502 44.85287502 1.0838122 46.70833878 1.0625 48.5625 C1.05347656 49.57441406 1.04445313 50.58632813 1.03515625 51.62890625 C1.02355469 52.41136719 1.01195312 53.19382812 1 54 C0.67 54 0.34 54 0 54 C-2.14406424 45.94999114 -2.3089467 38.01687994 -2.26074219 29.75073242 C-2.25003616 27.56986584 -2.26068261 25.38982581 -2.2734375 23.20898438 C-2.28017689 15.29727409 -1.81852284 7.73700691 0 0 Z " fill="#CDECFD" transform="translate(494,498)"/>
<path d="M0 0 C0.33 0 0.66 0 1 0 C1.66 15.84 2.32 31.68 3 48 C0.59470906 44.39206359 0.31103163 41.26283346 -0.125 37.0625 C-0.25128784 35.88433716 -0.25128784 35.88433716 -0.38012695 34.68237305 C-0.97545005 28.55724031 -1.18176039 22.46478282 -1.1875 16.3125 C-1.18830566 15.4882251 -1.18911133 14.6639502 -1.18994141 13.81469727 C-1.14671964 9.11553052 -0.77565059 4.6352879 0 0 Z " fill="#BEE2F5" transform="translate(143,504)"/>
<path d="M0 0 C2 2 2 2 2.24050903 3.87295532 C2.23606781 4.63240448 2.23162659 5.39185364 2.22705078 6.17431641 C2.22689972 7.03505768 2.22674866 7.89579895 2.22659302 8.78262329 C2.21627045 9.71287323 2.20594788 10.64312317 2.1953125 11.6015625 C2.1924826 12.55316254 2.18965271 13.50476257 2.18673706 14.48519897 C2.17551989 17.53192592 2.15041263 20.57836154 2.125 23.625 C2.11497218 25.68749576 2.10584599 27.74999612 2.09765625 29.8125 C2.07557554 34.87511267 2.0410353 39.9375069 2 45 C0.515 45.495 0.515 45.495 -1 46 C-0.9278125 45.19304687 -0.855625 44.38609375 -0.78125 43.5546875 C0.3270368 29.05460181 0.09224373 14.53193565 0 0 Z " fill="#287BC4" transform="translate(691,462)"/>
<path d="M0 0 C0.99 0.33 1.98 0.66 3 1 C2 3 2 3 -0.30078125 4 C-6.62385689 6.09949075 -12.68862346 7.60855441 -19.30859375 8.41015625 C-22.34664826 9.07597081 -24.38895022 10.34738015 -27 12 C-27.66 12 -28.32 12 -29 12 C-28.67 10.35 -28.34 8.7 -28 7 C-24.98746323 6.37114043 -21.96914938 5.81942524 -18.93359375 5.31640625 C-18.20076172 5.19330078 -17.46792969 5.07019531 -16.71289062 4.94335938 C-15.19279329 4.68892248 -13.67194402 4.43893887 -12.15039062 4.19335938 C-8.37699857 3.5517165 -5.41045257 2.79278069 -2 1 C-1.34 1.33 -0.68 1.66 0 2 C0 1.34 0 0.68 0 0 Z " fill="#227AC5" transform="translate(394,389)"/>
<path d="M0 0 C4.50491937 6.00655915 5.34416406 10.14843363 5.3125 17.4375 C5.32861328 18.17548828 5.34472656 18.91347656 5.36132812 19.67382812 C5.36564302 24.52808286 4.55915264 27.73924719 2 32 C1.34 31.01 0.68 30.02 0 29 C0.31710937 28.51015625 0.63421875 28.0203125 0.9609375 27.515625 C2.41373615 23.998323 2.46584752 20.50334607 2.625 16.75 C2.66367187 16.00492187 2.70234375 15.25984375 2.7421875 14.4921875 C2.83605108 12.6618476 2.91909718 10.83095857 3 9 C2.01 9.33 1.02 9.66 0 10 C0 6.7 0 3.4 0 0 Z " fill="#CAEAFA" transform="translate(504,403)"/>
<path d="M0 0 C0.66 0 1.32 0 2 0 C1.55057161 9.22103075 0.4544062 18.22830154 -0.90673828 27.35107422 C-1.87293914 33.89418163 -2.6034045 40.39463353 -3 47 C-3.33 47 -3.66 47 -4 47 C-4.33103626 36.55971421 -3.3048767 26.52470691 -2 16.1875 C-1.80657857 14.60881116 -1.61386584 13.03003533 -1.421875 11.45117188 C-0.95605694 7.63306528 -0.48074767 3.81625428 0 0 Z " fill="#277AC0" transform="translate(386,478)"/>
<path d="M0 0 C0.33 0 0.66 0 1 0 C1 4.95 1 9.9 1 15 C1.66 15 2.32 15 3 15 C3.12375 15.825 3.2475 16.65 3.375 17.5 C4.07102155 21.39772067 5.00880949 25.16739669 6 29 C2.05340149 25.36497506 -0.69113489 22.54797759 -1.17089844 17.03686523 C-1.23242916 14.79175028 -1.22368874 12.55810666 -1.1875 10.3125 C-1.18685547 9.54099609 -1.18621094 8.76949219 -1.18554688 7.97460938 C-1.1407983 2.28159661 -1.1407983 2.28159661 0 0 Z " fill="#C9E7F7" transform="translate(354,415)"/>
<path d="M0 0 C0.33 0 0.66 0 1 0 C2.33554691 11.18971732 2.92240766 23.39294065 -4 33 C-5.90522126 34.90989092 -7.80684723 36.4049798 -10 38 C-10.66 37.34 -11.32 36.68 -12 36 C-10.02 35.505 -10.02 35.505 -8 35 C-7.9175 34.443125 -7.835 33.88625 -7.75 33.3125 C-7 31 -7 31 -5 28.625 C-2.74506038 25.66539174 -2.34026924 23.65789438 -2 20 C-1.34 20 -0.68 20 0 20 C0 13.4 0 6.8 0 0 Z " fill="#EEFAFC" transform="translate(339,486)"/>
<path d="M0 0 C0 0.66 0 1.32 0 2 C-0.57854736 2.04487549 -1.15709473 2.08975098 -1.75317383 2.13598633 C-17.11379926 3.25537911 -17.11379926 3.25537911 -32 7 C-32.33 6.01 -32.66 5.02 -33 4 C-32.34 4 -31.68 4 -31 4 C-30.67 3.01 -30.34 2.02 -30 1 C-29.01 1 -28.02 1 -27 1 C-26.67 1.66 -26.34 2.32 -26 3 C-25.360625 2.690625 -24.72125 2.38125 -24.0625 2.0625 C-16.35077707 -0.61299571 -8.06392068 -0.12280082 0 0 Z " fill="#2079C8" transform="translate(500,280)"/>
<path d="M0 0 C0.99 0.66 1.98 1.32 3 2 C-5.61476832 5.60253948 -13.65691405 6.08396949 -22.875 6.1875 C-24.00023071 6.20719849 -24.00023071 6.20719849 -25.14819336 6.22729492 C-28.97337946 6.23292465 -30.74140725 6.17239516 -34 4 C-30.28813795 3.12087478 -27.23206789 3.0328666 -23.5 3.5625 C-15.90054975 4.46334669 -6.72699757 3.92684341 0 0 Z " fill="#0C6BBF" transform="translate(262,555)"/>
<path d="M0 0 C0.99 0.66 1.98 1.32 3 2 C2.49210937 2.79921875 1.98421875 3.5984375 1.4609375 4.421875 C-7.45507883 18.44961479 -7.45507883 18.44961479 -13 34 C-13.33 34 -13.66 34 -14 34 C-13.5547115 28.72684667 -12.91626837 23.98229776 -11 19 C-10.34 19 -9.68 19 -9 19 C-9 18.01 -9 17.02 -9 16 C-8.34 16 -7.68 16 -7 16 C-7 14.68 -7 13.36 -7 12 C-6.34 12 -5.68 12 -5 12 C-5 10.68 -5 9.36 -5 8 C-4.34 8 -3.68 8 -3 8 C-3 7.01 -3 6.02 -3 5 C-2.34 5 -1.68 5 -1 5 C-0.67 3.35 -0.34 1.7 0 0 Z " fill="#1D76C0" transform="translate(420,317)"/>
<path d="M0 0 C0.33 0 0.66 0 1 0 C1.06678389 3.80668184 1.10262889 7.32264936 0.53125 11.09375 C-0.14119332 16.03818618 -0.35475794 20.95509622 -0.5625 25.9375 C-0.60568359 26.90751953 -0.64886719 27.87753906 -0.69335938 28.87695312 C-0.79862093 31.25118601 -0.90075707 33.62550921 -1 36 C-1.66 36 -2.32 36 -3 36 C-3.66 37.32 -4.32 38.64 -5 40 C-4.37631512 31.01643884 -3.25299295 22.15630561 -1.9375 13.25 C-1.75123047 11.96867187 -1.56496094 10.68734375 -1.37304688 9.3671875 C-0.91859746 6.24430437 -0.46086118 3.12194219 0 0 Z " fill="#C6E7FA" transform="translate(388,478)"/>
<path d="M0 0 C0.33 0 0.66 0 1 0 C0.37153424 5.40843133 -0.45338355 10.72061107 -1.5 16.0625 C-2.46736125 21.028607 -3.32198009 25.98656432 -4 31 C-4.33 31 -4.66 31 -5 31 C-5.05449228 28.16640156 -5.09390733 25.33387515 -5.125 22.5 C-5.14175781 21.70851563 -5.15851563 20.91703125 -5.17578125 20.1015625 C-5.21989226 14.72001921 -4.50594058 10.17000073 -3 5 C-2.34 5 -1.68 5 -1 5 C-0.67 3.35 -0.34 1.7 0 0 Z " fill="#1D74C2" transform="translate(496,485)"/>
<path d="M0 0 C2.31 0.33 4.62 0.66 7 1 C7 1.66 7 2.32 7 3 C12.61 3 18.22 3 24 3 C24.33 3.66 24.66 4.32 25 5 C27.01669827 6.13350534 27.01669827 6.13350534 29 7 C28.01 7.495 28.01 7.495 27 8 C26.01 7.67 25.02 7.34 24 7 C21.91845485 6.84810346 19.83459549 6.72680583 17.75 6.625 C10.58639224 6.11502125 5.59705787 4.70152861 0 0 Z " fill="#DDF1F8" transform="translate(360,444)"/>
<path d="M0 0 C1.38638672 -0.0309375 1.38638672 -0.0309375 2.80078125 -0.0625 C8.15847473 -0.09315919 11.83484521 0.29540197 16.5 3.25 C15.51 3.91 14.52 4.57 13.5 5.25 C12.51 4.92 11.52 4.59 10.5 4.25 C8.60787263 4.02820215 6.71115528 3.84385985 4.8125 3.6875 C3.81863281 3.60371094 2.82476562 3.51992188 1.80078125 3.43359375 C0.66189453 3.34271484 0.66189453 3.34271484 -0.5 3.25 C-0.5 2.92 -0.5 2.59 -0.5 2.25 C-5.78 2.25 -11.06 2.25 -16.5 2.25 C-16.5 1.92 -16.5 1.59 -16.5 1.25 C-10.99197456 0.11167474 -5.59958334 0.03123896 0 0 Z " fill="#CCE7F7" transform="translate(495.5,281.75)"/>
<path d="M0 0 C0.33 0 0.66 0 1 0 C1.61877873 10.19839013 -0.25873917 19.99811489 -2 30 C-2.33 30 -2.66 30 -3 30 C-3.19517554 28.06325815 -3.38087873 26.12555991 -3.5625 24.1875 C-3.66691406 23.10855469 -3.77132813 22.02960937 -3.87890625 20.91796875 C-4 18 -4 18 -3 15 C-2.77215285 13.04702445 -2.54459046 11.09401365 -2.3203125 9.140625 C-1.84780951 5.9829221 -0.95158324 3.04506636 0 0 Z " fill="#D0EBF9" transform="translate(437,538)"/>
<path d="M0 0 C0.66 0.33 1.32 0.66 2 1 C0.88200014 2.33920838 -0.24461897 3.67122556 -1.375 5 C-2.31472656 6.11375 -2.31472656 6.11375 -3.2734375 7.25 C-4.12808594 8.11625 -4.12808594 8.11625 -5 9 C-5.66 9 -6.32 9 -7 9 C-7.33 9.99 -7.66 10.98 -8 12 C-8.99 12.495 -8.99 12.495 -10 13 C-9.34 13.66 -8.68 14.32 -8 15 C-12.625 18 -12.625 18 -16 18 C-16 18.66 -16 19.32 -16 20 C-16.66 19.67 -17.32 19.34 -18 19 C-17.04956626 17.66102417 -16.08940853 16.32894573 -15.125 15 C-14.32449219 13.88625 -14.32449219 13.88625 -13.5078125 12.75 C-13.01023437 12.1725 -12.51265625 11.595 -12 11 C-11.34 11 -10.68 11 -10 11 C-9.67 10.01 -9.34 9.02 -9 8 C-8.34 8 -7.68 8 -7 8 C-7 7.34 -7 6.68 -7 6 C-5.46875 4.4921875 -5.46875 4.4921875 -3.5 2.875 C-2.8503125 2.33617187 -2.200625 1.79734375 -1.53125 1.2421875 C-1.0259375 0.83226562 -0.520625 0.42234375 0 0 Z " fill="#CEEBF8" transform="translate(439,302)"/>
<path d="M0 0 C0.33 0 0.66 0 1 0 C1 7.59 1 15.18 1 23 C0.01 23.33 -0.98 23.66 -2 24 C-1.67 27.3 -1.34 30.6 -1 34 C-1.99 34 -2.98 34 -4 34 C-3.38472483 22.56436841 -1.70575375 11.31445876 0 0 Z " fill="#2B7FC7" transform="translate(444,496)"/>
<path d="M0 0 C1.16711563 3.64610542 1.03231032 7.00772078 0.9375 10.8125 C0.88874691 16.00741264 1.15486567 20.15652239 3 25 C2.34 25 1.68 25 1 25 C1 23.35 1 21.7 1 20 C0.34 20 -0.32 20 -1 20 C-1 19.01 -1 18.02 -1 17 C-1.66 17 -2.32 17 -3 17 C-3 12.71 -3 8.42 -3 4 C-2.34 3.67 -1.68 3.34 -1 3 C-0.67 2.01 -0.34 1.02 0 0 Z " fill="#3B779E" transform="translate(704,572)"/>
<path d="M0 0 C-2.98818535 3.81359319 -6.43968531 3.8429013 -11.02368164 4.43115234 C-21.61241771 5.59595056 -32.36676513 5.16407365 -43 5 C-43 4.67 -43 4.34 -43 4 C-42.04299194 3.98598145 -42.04299194 3.98598145 -41.06665039 3.97167969 C-28.65975677 3.74441864 -17.0489805 3.09942055 -5.0703125 -0.2578125 C-2 -1 -2 -1 0 0 Z " fill="#3281C7" transform="translate(271,614)"/>
<path d="M0 0 C2.125 0.375 2.125 0.375 4 1 C-2.83552728 6.9584021 -9.74595048 11.25589507 -18 15 C-18.33 14.34 -18.66 13.68 -19 13 C-17.68 12.67 -16.36 12.34 -15 12 C-15 11.34 -15 10.68 -15 10 C-11.77208445 7.8480563 -10.71599191 7.79913557 -7 8 C-7 7.34 -7 6.68 -7 6 C-6.01 6 -5.02 6 -4 6 C-3.566875 5.071875 -3.566875 5.071875 -3.125 4.125 C-2 2 -2 2 0 0 Z " fill="#E0F6FD" transform="translate(652,593)"/>
<path d="M0 0 C4.37859255 0.50522222 6.81651224 3.17827222 10 6 C10.33 5.34 10.66 4.68 11 4 C11 4.99 11 5.98 11 7 C11.31595508 8.67004829 11.65179959 10.33637583 12 12 C12.33944795 13.99897128 12.67421616 15.99875639 13 18 C10.40908885 15.64742192 8.79756479 13.15330936 7.0625 10.125 C4.93995904 6.5045062 2.7577018 3.18196361 0 0 Z " fill="#207AC7" transform="translate(321,421)"/>
<path d="M0 0 C0.66 0.33 1.32 0.66 2 1 C-1.37697082 5.23571942 -4.28588938 8.25010214 -9 11 C-9.309375 11.639375 -9.61875 12.27875 -9.9375 12.9375 C-12.09975281 17.13481429 -16.89696492 18.9928876 -21 21 C-15.33116881 12.54284127 -7.93418782 6.27946416 0 0 Z " fill="#CDEBFA" transform="translate(196,415)"/>
<path d="M0 0 C0.33 0 0.66 0 1 0 C1.28276284 5.56100259 1.17532771 8.30051499 -2 13 C-2.39171753 14.65391846 -2.72057545 16.32345271 -3 18 C-3.65146849 20.33762223 -4.31526605 22.67190457 -5 25 C-5.66 25 -6.32 25 -7 25 C-6.3937803 20.11899394 -5.42764055 15.53640147 -4.0625 10.8125 C-3.72347656 9.62269531 -3.38445312 8.43289063 -3.03515625 7.20703125 C-2.20016882 4.62014566 -1.31064528 2.36856523 0 0 Z " fill="#BEE1F6" transform="translate(502,472)"/>
<path d="M0 0 C0.66 0 1.32 0 2 0 C2.57880398 8.10325579 0.38585799 13.26673646 -4.75 19.5 C-5.86375 20.7375 -5.86375 20.7375 -7 22 C-7.6875 20.1875 -7.6875 20.1875 -8 18 C-6.6875 16.25 -6.6875 16.25 -5 15 C-4.34 15 -3.68 15 -3 15 C-3 14.01 -3 13.02 -3 12 C-2.34 12 -1.68 12 -1 12 C-1.185625 11.21625 -1.37125 10.4325 -1.5625 9.625 C-2 7 -2 7 -1 5 C-0.64386903 3.33805547 -0.30791692 1.671549 0 0 Z " fill="#CBEBF8" transform="translate(688,500)"/>
<path d="M0 0 C4 6 4 6 4 10 C-2.75 10.125 -2.75 10.125 -5 9 C-3.90931332 5.22454612 -3.0916909 2.52956528 0 0 Z " fill="#1678CD" transform="translate(226,461)"/>
<path d="M0 0 C0.99 0.33 1.98 0.66 3 1 C3 1.66 3 2.32 3 3 C3.66 3.2475 4.32 3.495 5 3.75 C7.34043646 4.72518186 9.50917751 5.76779066 11.75 6.9375 C16.02060844 9.1135543 20.42410004 10.60180835 25 12 C25 12.33 25 12.66 25 13 C21.37 13 17.74 13 14 13 C13.67 11.68 13.34 10.36 13 9 C12.34 8.95875 11.68 8.9175 11 8.875 C6.67334212 7.61305812 3.28163211 5.06991391 0 2 C0 1.34 0 0.68 0 0 Z " fill="#2379C2" transform="translate(523,600)"/>
<path d="M0 0 C8.25 0 16.5 0 25 0 C20.5 3.375 20.5 3.375 16.453125 3.29296875 C15.60878906 3.28330078 14.76445313 3.27363281 13.89453125 3.26367188 C13.02183594 3.23853516 12.14914062 3.21339844 11.25 3.1875 C10.36183594 3.17396484 9.47367188 3.16042969 8.55859375 3.14648438 C6.37177422 3.11121309 4.18620034 3.06192752 2 3 C2 2.34 2 1.68 2 1 C1.34 0.67 0.68 0.34 0 0 Z " fill="#287AC6" transform="translate(578,559)"/>
<path d="M0 0 C1.7612688 5.7964145 0.4478334 12.20866641 -1 18 C-1.33 18.33 -1.66 18.66 -2 19 C-2.397493 21.34723966 -2.74368723 23.70328548 -3.0625 26.0625 C-3.23910156 27.35285156 -3.41570312 28.64320313 -3.59765625 29.97265625 C-3.73042969 30.97167969 -3.86320312 31.97070312 -4 33 C-4.33 33 -4.66 33 -5 33 C-4.7150684 21.48876329 -3.20141319 11.06348836 0 0 Z " fill="#BEE2F8" transform="translate(406,351)"/>
<path d="M0 0 C3.58348475 5.37522713 3.38516328 9.63136992 3 16 C2 19.6875 2 19.6875 1 22 C0.67 22 0.34 22 0 22 C0 14.74 0 7.48 0 0 Z " fill="#C69F45" transform="translate(755,570)"/>
<path d="M0 0 C0.66 0 1.32 0 2 0 C2 6.6 2 13.2 2 20 C1.01 20 0.02 20 -1 20 C-1.02888514 16.85418577 -1.04675923 13.70840531 -1.0625 10.5625 C-1.07087891 9.66466797 -1.07925781 8.76683594 -1.08789062 7.84179688 C-1.09111328 6.98779297 -1.09433594 6.13378906 -1.09765625 5.25390625 C-1.10551147 4.06776733 -1.10551147 4.06776733 -1.11352539 2.85766602 C-1 1 -1 1 0 0 Z " fill="#C9E8F9" transform="translate(459,369)"/>
<path d="M0 0 C-1.48361144 2.96722289 -3.72341443 3.46769738 -6.6875 4.875 C-11.04978228 6.99634824 -15.0719123 9.16304777 -19 12 C-19 10.35 -19 8.7 -19 7 C-17.5437455 6.32880451 -16.08492133 5.66318193 -14.625 5 C-13.81289063 4.62875 -13.00078125 4.2575 -12.1640625 3.875 C-10 3 -10 3 -8 3 C-7.67 2.01 -7.34 1.02 -7 0 C-4.05610218 -1.17755913 -3.10046087 -1.03348696 0 0 Z " fill="#1472C2" transform="translate(459,290)"/>
<path d="M0 0 C0.8125 1.625 0.8125 1.625 1 4 C-1.3125 7.25 -1.3125 7.25 -4 10 C-4.66 10 -5.32 10 -6 10 C-6.66 11.98 -7.32 13.96 -8 16 C-8.66 16 -9.32 16 -10 16 C-10.33 17.65 -10.66 19.3 -11 21 C-11.66 21 -12.32 21 -13 21 C-11.58041326 15.71913732 -9.1463513 12.00379079 -5.9375 7.6875 C-5.47794922 7.05521484 -5.01839844 6.42292969 -4.54492188 5.77148438 C-1.23028274 1.23028274 -1.23028274 1.23028274 0 0 Z " fill="#D2F0FB" transform="translate(522,439)"/>
<path d="M0 0 C2.5872505 2.5872505 3.06556087 4.88277471 4.125 8.375 C4.47820313 9.51710938 4.83140625 10.65921875 5.1953125 11.8359375 C6 15 6 15 6 19 C5.34 19 4.68 19 4 19 C3.01 16.03 2.02 13.06 1 10 C0.34 10 -0.32 10 -1 10 C-0.7215625 8.824375 -0.7215625 8.824375 -0.4375 7.625 C0.25962266 5.02910225 0.25962266 5.02910225 -1 3 C-0.67 2.01 -0.34 1.02 0 0 Z " fill="#C3E4F5" transform="translate(685,445)"/>
<path d="M0 0 C0 0.99 0 1.98 0 3 C-8.98478395 8.67719865 -15.54326313 9.70154002 -26 8 C-26 7.67 -26 7.34 -26 7 C-25.18917969 6.99742187 -24.37835937 6.99484375 -23.54296875 6.9921875 C-15.8610914 6.72390308 -10.68017203 5.34417733 -4.14453125 1.27734375 C-2 0 -2 0 0 0 Z " fill="#176DAE" transform="translate(749,602)"/>
<path d="M0 0 C0.70769531 -0.00773437 1.41539062 -0.01546875 2.14453125 -0.0234375 C6.24660618 -0.00815975 9.43728278 0.42783384 13.125 2.25 C12.465 2.91 11.805 3.57 11.125 4.25 C9.27050781 3.89477539 9.27050781 3.89477539 7.125 3.25 C5.685265 3.10966422 4.24162851 3.00583143 2.796875 2.93359375 C1.59804687 2.87075195 1.59804687 2.87075195 0.375 2.80664062 C-0.8625 2.74766602 -0.8625 2.74766602 -2.125 2.6875 C-2.96546875 2.64431641 -3.8059375 2.60113281 -4.671875 2.55664062 C-6.73940671 2.45091457 -8.80718281 2.34998705 -10.875 2.25 C-7.16516217 -0.22322522 -4.28912215 -0.04636889 0 0 Z " fill="#2A79C0" transform="translate(250.875,450.75)"/>
<path d="M0 0 C1.8253125 0.7115625 1.8253125 0.7115625 3.6875 1.4375 C8.76504554 3.1595202 13.65209734 3.47888794 18.984375 3.69140625 C22.00853031 4.00087292 24.25299655 4.73332618 27 6 C27 6.33 27 6.66 27 7 C21.25 7.125 21.25 7.125 19 6 C15.6170611 5.80122013 12.24101763 5.65417639 8.85351562 5.5703125 C3.4727214 5.33357728 3.4727214 5.33357728 0.99609375 3.5859375 C0 2 0 2 0 0 Z " fill="#1973C1" transform="translate(362,446)"/>
<path d="M0 0 C0.66 0.33 1.32 0.66 2 1 C-5.15913951 7.56082526 -5.15913951 7.56082526 -10 9 C-11.0828125 9.3403125 -11.0828125 9.3403125 -12.1875 9.6875 C-14 10 -14 10 -16 9 C-13.89812468 7.68370433 -11.79368324 6.37187003 -9.6875 5.0625 C-8.79514648 4.50272461 -8.79514648 4.50272461 -7.88476562 3.93164062 C-5.27252256 2.31175806 -2.92778827 0.97592942 0 0 Z " fill="#C9E8F6" transform="translate(217,403)"/>
<path d="M0 0 C0.5534764 2.07553648 1 3.84365964 1 6 C0.34 6 -0.32 6 -1 6 C-1.33 7.65 -1.66 9.3 -2 11 C-2.66 11 -3.32 11 -4 11 C-4.33 11.99 -4.66 12.98 -5 14 C-5.66 14 -6.32 14 -7 14 C-7 14.99 -7 15.98 -7 17 C-7.66 17 -8.32 17 -9 17 C-7.51481201 12.95698825 -5.57122002 9.38853744 -3.375 5.6875 C-2.74335938 4.61886719 -2.11171875 3.55023438 -1.4609375 2.44921875 C-0.97882813 1.64097656 -0.49671875 0.83273437 0 0 Z " fill="#D5EEFA" transform="translate(420,322)"/>
<path d="M0 0 C3.28514023 1.12926695 6.04256348 2.61634649 8.9375 4.5 C12.18468158 6.58879422 15.25246468 7.96942779 19 9 C19 9.33 19 9.66 19 10 C14.05423812 10.28533242 11.76607569 10.17762636 8 7 C6.783125 6.525625 5.56625 6.05125 4.3125 5.5625 C1 4 1 4 0.0625 1.8125 C0.041875 1.214375 0.02125 0.61625 0 0 Z " fill="#1F78C4" transform="translate(171,599)"/>
<path d="M0 0 C0.66 2.31 1.32 4.62 2 7 C0.02 6.34 -1.96 5.68 -4 5 C-4.556875 5.66 -5.11375 6.32 -5.6875 7 C-8 9 -8 9 -10.75 9.25 C-11.4925 9.1675 -12.235 9.085 -13 9 C-10.79664924 6.69995046 -8.47632832 4.73441677 -5.9375 2.8125 C-5.24527344 2.28269531 -4.55304687 1.75289062 -3.83984375 1.20703125 C-2 0 -2 0 0 0 Z " fill="#1C79CB" transform="translate(654,596)"/>
<path d="M0 0 C0.33 0 0.66 0 1 0 C1.05811773 3.74993479 1.09363593 7.49975352 1.125 11.25 C1.14175781 12.31347656 1.15851563 13.37695312 1.17578125 14.47265625 C1.18222656 15.49746094 1.18867188 16.52226563 1.1953125 17.578125 C1.20578613 18.52075195 1.21625977 19.46337891 1.22705078 20.43457031 C0.99119213 23.09951941 0.35661659 24.71863092 -1 27 C-2.09229685 22.74493317 -1.95269187 18.99127274 -1.625 14.625 C-1.53476562 13.35914063 -1.44453125 12.09328125 -1.3515625 10.7890625 C-1.0149609 7.16124527 -0.54886051 3.60015286 0 0 Z " fill="#267CCC" transform="translate(435,561)"/>
<path d="M0 0 C2.4214607 3.63219105 2.29869516 5.49158558 2.3125 9.8125 C2.32925781 11.01519531 2.34601563 12.21789062 2.36328125 13.45703125 C1.97224111 17.27072383 0.91114324 19.70718592 -1 23 C-1.33 23 -1.66 23 -2 23 C-2 21.02 -2 19.04 -2 17 C-1.34 17 -0.68 17 0 17 C-0.185625 16.05125 -0.37125 15.1025 -0.5625 14.125 C-1.26768593 9.35520074 -0.62132638 4.75075712 0 0 Z " fill="#D5F1FC" transform="translate(313,566)"/>
<path d="M0 0 C0.66 0.33 1.32 0.66 2 1 C-0.04380099 5.87607343 -3.42541231 7.65893614 -8 10 C-11.99124351 11.39693523 -14.76476586 12 -19 12 C-19 11.34 -19 10.68 -19 10 C-15.7 9.67 -12.4 9.34 -9 9 C-9 8.34 -9 7.68 -9 7 C-7.68 7 -6.36 7 -5 7 C-4.67 6.01 -4.34 5.02 -4 4 C-3.01 4 -2.02 4 -1 4 C-0.67 2.68 -0.34 1.36 0 0 Z " fill="#DDF7FC" transform="translate(501,437)"/>
<path d="M0 0 C-0.33 0.99 -0.66 1.98 -1 3 C-2.546875 2.9690625 -2.546875 2.9690625 -4.125 2.9375 C-7.55152969 2.99276661 -10.64572414 3.34550715 -14 4 C-14.33 4.99 -14.66 5.98 -15 7 C-16.98 7 -18.96 7 -21 7 C-18.47004654 3.20506981 -15.77213854 2.57739851 -11.625 1.25 C-10.61566406 0.90001953 -10.61566406 0.90001953 -9.5859375 0.54296875 C-3.4812192 -1.46389731 -3.4812192 -1.46389731 0 0 Z " fill="#C7E8F6" transform="translate(479,285)"/>
<path d="M0 0 C0.99 0 1.98 0 3 0 C3.33 1.98 3.66 3.96 4 6 C3.44054687 5.65066406 2.88109375 5.30132813 2.3046875 4.94140625 C-5.03175896 0.77779596 -11.64777042 0.13238404 -20 0 C-20 -0.33 -20 -0.66 -20 -1 C-17.79317093 -1.22370596 -15.58440027 -1.42830391 -13.375 -1.625 C-11.53035156 -1.79902344 -11.53035156 -1.79902344 -9.6484375 -1.9765625 C-5.92185723 -2.00050199 -3.45637785 -1.29737965 0 0 Z " fill="#3E8ECD" transform="translate(303,549)"/>
<path d="M0 0 C0.33 0.66 0.66 1.32 1 2 C0.06421005 4.35981813 -0.93347808 6.69631264 -2 9 C-2.66 9 -3.32 9 -4 9 C-4.20625 9.556875 -4.4125 10.11375 -4.625 10.6875 C-6.55000774 13.92501302 -9.03850902 15.68231141 -12 18 C-10.46906512 13.32800909 -7.89242605 9.97829995 -4.875 6.1875 C-4.40707031 5.59001953 -3.93914062 4.99253906 -3.45703125 4.37695312 C-2.30994435 2.91383208 -1.15568766 1.45633703 0 0 Z " fill="#D7F2FC" transform="translate(174,436)"/>
<path d="M0 0 C0.99 0 1.98 0 3 0 C1.65150163 4.35970831 -0.04907846 8.31341438 -2.125 12.375 C-2.66382813 13.43460937 -3.20265625 14.49421875 -3.7578125 15.5859375 C-4.16773438 16.38257813 -4.57765625 17.17921875 -5 18 C-5.33 18 -5.66 18 -6 18 C-6.11335874 13.91908529 -5.83581737 10.67163473 -4 7 C-3.34 7.33 -2.68 7.66 -2 8 C-1.855625 7.236875 -1.71125 6.47375 -1.5625 5.6875 C-1 3 -1 3 0 0 Z " fill="#1A75C4" transform="translate(509,452)"/>
<path d="M0 0 C0.61328125 1.859375 0.61328125 1.859375 1 4 C-0.8125 6.25 -0.8125 6.25 -3 8 C-3.66 8 -4.32 8 -5 8 C-5.33 8.66 -5.66 9.32 -6 10 C-8.32156597 10.40729228 -10.6568787 10.74438677 -13 11 C-12.34 10.484375 -11.68 9.96875 -11 9.4375 C-7.24666356 6.38791415 -3.62397965 3.2013319 0 0 Z " fill="#237CC9" transform="translate(309,591)"/>
<path d="M0 0 C-5.63094969 3.3989636 -11.27393295 6.76352732 -17 10 C-16.67 8.35 -16.34 6.7 -16 5 C-14.35 5 -12.7 5 -11 5 C-11 4.01 -11 3.02 -11 2 C-9.73392393 1.46770674 -8.46189588 0.94955456 -7.1875 0.4375 C-6.47980469 0.14746094 -5.77210938 -0.14257812 -5.04296875 -0.44140625 C-3 -1 -3 -1 0 0 Z " fill="#1B74C2" transform="translate(211,407)"/>
<path d="M0 0 C0.66 0 1.32 0 2 0 C2 0.99 2 1.98 2 3 C1.34 3 0.68 3 0 3 C0.20625 4.11375 0.4125 5.2275 0.625 6.375 C0.74875 7.57125 0.8725 8.7675 1 10 C0.34 10.66 -0.32 11.32 -1 12 C-1.99 12 -2.98 12 -4 12 C-3.67 9.36 -3.34 6.72 -3 4 C-2.34 4 -1.68 4 -1 4 C-0.67 2.68 -0.34 1.36 0 0 Z " fill="#DEA425" transform="translate(709,564)"/>
<path d="M0 0 C0.66 0 1.32 0 2 0 C5.42857143 8.42857143 5.42857143 8.42857143 5 13 C5.99 13.33 6.98 13.66 8 14 C8 16.31 8 18.62 8 21 C6 20 6 20 5.1484375 18.07421875 C4.76558594 16.89279297 4.76558594 16.89279297 4.375 15.6875 C4.11460937 14.90761719 3.85421875 14.12773438 3.5859375 13.32421875 C3 11 3 11 3 7 C2.34 7 1.68 7 1 7 C0.67 4.69 0.34 2.38 0 0 Z " fill="#BFE4F7" transform="translate(146,555)"/>
<path d="M0 0 C0.66 0 1.32 0 2 0 C2.94120241 8.16674095 2.94120241 15.83325905 2 24 C1.67 24 1.34 24 1 24 C0.28586721 15.97875848 -0.14525497 8.05358138 0 0 Z " fill="#1775C2" transform="translate(342,464)"/>
<path d="M0 0 C0 0.66 0 1.32 0 2 C1.11375 1.443125 1.11375 1.443125 2.25 0.875 C5 0 5 0 7.3125 0.875 C7.869375 1.24625 8.42625 1.6175 9 2 C9 2.99 9 3.98 9 5 C5.19281452 4.27246734 1.44514431 3.38723428 -2.3125 2.4375 C-3.38113281 2.16808594 -4.44976562 1.89867187 -5.55078125 1.62109375 C-6.35902344 1.41613281 -7.16726562 1.21117187 -8 1 C-8 0.67 -8 0.34 -8 0 C-4.71303767 -0.79953138 -3.28976808 -1.09658936 0 0 Z " fill="#D7EFF9" transform="translate(205,611)"/>
<path d="M0 0 C0.99 0.33 1.98 0.66 3 1 C3 1.99 3 2.98 3 4 C3.598125 4.268125 4.19625 4.53625 4.8125 4.8125 C7.04237457 6.02300334 8.45490692 6.991379 10 9 C10 10.32 10 11.64 10 13 C10.66 13.33 11.32 13.66 12 14 C11.01 14 10.02 14 9 14 C6.9921875 11.69921875 6.9921875 11.69921875 4.875 8.6875 C4.17117187 7.70136719 3.46734375 6.71523438 2.7421875 5.69921875 C1 3 1 3 0 0 Z " fill="#D9F2FB" transform="translate(155,578)"/>
<path d="M0 0 C1.98 0 3.96 0 6 0 C5.04956626 1.33897583 4.08940853 2.67105427 3.125 4 C2.59132813 4.7425 2.05765625 5.485 1.5078125 6.25 C1.01023437 6.8275 0.51265625 7.405 0 8 C-0.66 8 -1.32 8 -2 8 C-2.12375 8.78375 -2.2475 9.5675 -2.375 10.375 C-3 13 -3 13 -5 15 C-5.33 13.68 -5.66 12.36 -6 11 C-5.34 10.67 -4.68 10.34 -4 10 C-3.34444881 7.47266765 -3.34444881 7.47266765 -3 5 C-2.01 5 -1.02 5 0 5 C0 3.35 0 1.7 0 0 Z " fill="#1574C2" transform="translate(358,402)"/>
<path d="M0 0 C4.10415189 -0.02898097 8.20827753 -0.0467922 12.3125 -0.0625 C13.47974609 -0.07087891 14.64699219 -0.07925781 15.84960938 -0.08789062 C17.52700195 -0.09272461 17.52700195 -0.09272461 19.23828125 -0.09765625 C20.26993408 -0.10289307 21.30158691 -0.10812988 22.36450195 -0.11352539 C25 0 25 0 28 1 C28 1.66 28 2.32 28 3 C14.14 2.01 14.14 2.01 0 1 C0 0.67 0 0.34 0 0 Z " fill="#4691D4" transform="translate(602,393)"/>
<path d="M0 0 C0.33 0.99 0.66 1.98 1 3 C0.01 3.66 -0.98 4.32 -2 5 C-2.72965366 7.56282742 -2.72965366 7.56282742 -3 10 C-4.32 9.34 -5.64 8.68 -7 8 C-7 7.34 -7 6.68 -7 6 C-7.99 5.67 -8.98 5.34 -10 5 C-6.7 3.35 -3.4 1.7 0 0 Z " fill="#257DCD" transform="translate(420,610)"/>
<path d="M0 0 C8.04456097 0.70436248 16.01350895 1.81468505 24 3 C24 3.33 24 3.66 24 4 C22.06257659 4.02703381 20.12504521 4.04641125 18.1875 4.0625 C17.10855469 4.07410156 16.02960938 4.08570313 14.91796875 4.09765625 C12 4 12 4 9 3 C7.60560336 2.93334624 6.20830125 2.91461801 4.8125 2.9375 C3.554375 2.958125 2.29625 2.97875 1 3 C0.67 2.01 0.34 1.02 0 0 Z " fill="#1670C1" transform="translate(204,615)"/>
<path d="M0 0 C2.60845923 2.60845923 2.35780384 3.8621047 2.4375 7.5 C2.36694817 13.99076836 0.37740404 18.5479049 -3 24 C-4.13583456 20.28272326 -3.66670026 18.52948291 -2 15 C-1.34 15 -0.68 15 0 15 C0 10.05 0 5.1 0 0 Z " fill="#B0DCF6" transform="translate(663,566)"/>
<path d="M0 0 C-5.59814306 3.73209538 -11.45532538 4.27269478 -18 4 C-18 3.67 -18 3.34 -18 3 C-16.02 3 -14.04 3 -12 3 C-12 2.34 -12 1.68 -12 1 C-7.53763531 -0.80619523 -4.68965706 -1.11658501 0 0 Z " fill="#C8E7FA" transform="translate(620,613)"/>
<path d="M0 0 C0.66 0 1.32 0 2 0 C1.85780436 2.20857055 1.71108153 4.41684987 1.5625 6.625 C1.48128906 7.85476563 1.40007812 9.08453125 1.31640625 10.3515625 C1.03336056 13.61532388 0.58961047 16.77943859 0 20 C-0.33 20 -0.66 20 -1 20 C-1.02722517 17.79173622 -1.04649729 15.58337362 -1.0625 13.375 C-1.07410156 12.14523437 -1.08570313 10.91546875 -1.09765625 9.6484375 C-1.00863924 6.32276209 -0.63686087 3.25952412 0 0 Z " fill="#2C7FC7" transform="translate(386,478)"/>
<path d="M0 0 C0.33 1.32 0.66 2.64 1 4 C1.66 4 2.32 4 3 4 C3.36463732 5.74784829 3.7163078 7.49840502 4.0625 9.25 C4.25972656 10.22453125 4.45695312 11.1990625 4.66015625 12.203125 C5 15 5 15 4 19 C3.34 15.7 2.68 12.4 2 9 C1.34 9 0.68 9 0 9 C0 6.03 0 3.06 0 0 Z " fill="#C7E8F8" transform="translate(337,449)"/>
<path d="M0 0 C0.66 0 1.32 0 2 0 C1.125 5.875 1.125 5.875 0 7 C-0.15582303 8.34015221 -0.25044142 9.68758903 -0.31640625 11.03515625 C-0.37924805 12.24848633 -0.37924805 12.24848633 -0.44335938 13.48632812 C-0.48267578 14.33646484 -0.52199219 15.18660156 -0.5625 16.0625 C-0.60568359 16.91650391 -0.64886719 17.77050781 -0.69335938 18.65039062 C-0.79976702 20.76672037 -0.90041731 22.88333813 -1 25 C-1.33 25 -1.66 25 -2 25 C-2.05816623 21.58340509 -2.09365195 18.16693795 -2.125 14.75 C-2.14175781 13.78191406 -2.15851563 12.81382812 -2.17578125 11.81640625 C-2.18222656 10.88183594 -2.18867188 9.94726562 -2.1953125 8.984375 C-2.20578613 8.12553711 -2.21625977 7.26669922 -2.22705078 6.38183594 C-1.98293323 3.82096404 -1.28990512 2.20488971 0 0 Z " fill="#C1E1F5" transform="translate(447,460)"/>
<path d="M0 0 C5.61 0.66 11.22 1.32 17 2 C17 2.33 17 2.66 17 3 C15.91460937 3.06058594 14.82921875 3.12117188 13.7109375 3.18359375 C12.26561514 3.26806064 10.82030318 3.35270551 9.375 3.4375 C8.66214844 3.47681641 7.94929687 3.51613281 7.21484375 3.55664062 C3.08196318 3.80309681 -0.92269024 4.23470053 -5 5 C-5 4.34 -5 3.68 -5 3 C-3.35 2.34 -1.7 1.68 0 1 C0 0.67 0 0.34 0 0 Z " fill="#CEEEFC" transform="translate(242,448)"/>
<path d="M0 0 C-2.22667765 0.67493341 -4.45645977 1.33963044 -6.6875 2 C-8.54955078 2.556875 -8.54955078 2.556875 -10.44921875 3.125 C-13.5010019 3.87703457 -15.88898362 4.19034899 -19 4 C-19 3.34 -19 2.68 -19 2 C-16.69 2 -14.38 2 -12 2 C-12 1.34 -12 0.68 -12 0 C-3.96428571 -1.20535714 -3.96428571 -1.20535714 0 0 Z " fill="#C3E6FA" transform="translate(272,613)"/>
<path d="M0 0 C7.84179688 6.4453125 7.84179688 6.4453125 10 10 C10 10.66 10 11.32 10 12 C9.01 12 8.02 12 7 12 C7 11.01 7 10.02 7 9 C6.34 9 5.68 9 5 9 C5 8.34 5 7.68 5 7 C4.34 7 3.68 7 3 7 C3 6.01 3 5.02 3 4 C2.01 3.67 1.02 3.34 0 3 C0 2.01 0 1.02 0 0 Z " fill="#D0F0FB" transform="translate(652,552)"/>
<path d="M0 0 C0 0.99 0 1.98 0 3 C-0.66 3 -1.32 3 -2 3 C-2 4.32 -2 5.64 -2 7 C-4.92879371 6.37240135 -7.36095629 5.41377341 -10 4 C-9.34 4 -8.68 4 -8 4 C-8 3.34 -8 2.68 -8 2 C-5.36 1.34 -2.72 0.68 0 0 Z " fill="#1C77CA" transform="translate(673,526)"/>
<path d="M0 0 C0.66 0 1.32 0 2 0 C0.3598606 4.78373993 -1.78383824 8.70723897 -6.25 11.3125 C-7.11625 11.6528125 -7.11625 11.6528125 -8 12 C-8.33 11.34 -8.66 10.68 -9 10 C-7.68 9.67 -6.36 9.34 -5 9 C-4.9175 8.443125 -4.835 7.88625 -4.75 7.3125 C-3.76104459 4.26322081 -2.15242534 2.34810037 0 0 Z " fill="#D9F2FC" transform="translate(336,512)"/>
<path d="M0 0 C0.33 0.66 0.66 1.32 1 2 C0.67 2.66 0.34 3.32 0 4 C-0.66 4 -1.32 4 -2 4 C-2.433125 4.928125 -2.433125 4.928125 -2.875 5.875 C-4 8 -4 8 -6 10 C-6.99 9.67 -7.98 9.34 -9 9 C-7.87895467 7.68412059 -6.75303035 6.37239647 -5.625 5.0625 C-4.99851562 4.33160156 -4.37203125 3.60070312 -3.7265625 2.84765625 C-2 1 -2 1 0 0 Z " fill="#2079C6" transform="translate(582,455)"/>
<path d="M0 0 C-0.99 0 -1.98 0 -3 0 C-3.33 0.99 -3.66 1.98 -4 3 C-4.99 3.66 -5.98 4.32 -7 5 C-8.05104383 6.63495707 -9.05988318 8.29883624 -10 10 C-10.6875 8.3125 -10.6875 8.3125 -11 6 C-9.71397631 3.15721079 -8.61532711 1.43668375 -6.0625 -0.375 C-3.6386954 -1.10948624 -2.35683494 -0.84172676 0 0 Z " fill="#1F79C9" transform="translate(462,452)"/>
<path d="M0 0 C0.99 0 1.98 0 3 0 C3 0.66 3 1.32 3 2 C2.01 2.66 1.02 3.32 0 4 C0 4.99 0 5.98 0 7 C-0.99 7 -1.98 7 -3 7 C-3 7.66 -3 8.32 -3 9 C-7.455 9.495 -7.455 9.495 -12 10 C-10 8 -10 8 -7 7.625 C-3.91562129 7.34835679 -3.91562129 7.34835679 -2.75 5.125 C-2.5025 4.42375 -2.255 3.7225 -2 3 C-1.34 2.01 -0.68 1.02 0 0 Z " fill="#C0E0F4" transform="translate(400,385)"/>
<path d="M0 0 C0.99 0.33 1.98 0.66 3 1 C-1.08806189 4.84616474 -4.40717158 7.63589551 -10 9 C-10 8.34 -10 7.68 -10 7 C-6.91180815 4.26474436 -3.69464986 1.84732493 0 0 Z " fill="#DDF5FC" transform="translate(513,328)"/>
<path d="M0 0 C0 0.66 0 1.32 0 2 C-3.11505367 4.84804907 -6.01328937 6.63312778 -10 8 C-10.66 7.34 -11.32 6.68 -12 6 C-10.70903219 5.18639005 -9.41720125 4.37414954 -8.125 3.5625 C-7.04605469 2.88380859 -7.04605469 2.88380859 -5.9453125 2.19140625 C-2.36721311 0 -2.36721311 0 0 0 Z " fill="#CBEAF8" transform="translate(457,292)"/>
<path d="M0 0 C0.33 0 0.66 0 1 0 C1.3636198 4.24223102 0.5393228 6.58168085 -2 10 C-2.66 10 -3.32 10 -4 10 C-4.33 10.99 -4.66 11.98 -5 13 C-5.99 12.67 -6.98 12.34 -8 12 C-7.59007812 11.46890625 -7.18015625 10.9378125 -6.7578125 10.390625 C-6.21898437 9.68421875 -5.68015625 8.9778125 -5.125 8.25 C-4.59132813 7.55390625 -4.05765625 6.8578125 -3.5078125 6.140625 C-2.10761086 4.15277397 -1.02144735 2.20156614 0 0 Z " fill="#267CC6" transform="translate(662,584)"/>
<path d="M0 0 C3.92734211 3.77024843 7.44406161 7.88470051 11 12 C10.01 12.99 9.02 13.98 8 15 C3.71428571 7.57142857 3.71428571 7.57142857 2 4 C1.34 4 0.68 4 0 4 C0 2.68 0 1.36 0 0 Z " fill="#267AC2" transform="translate(507,583)"/>
<path d="M0 0 C0.66 0 1.32 0 2 0 C2 0.66 2 1.32 2 2 C2.556875 2.20625 3.11375 2.4125 3.6875 2.625 C6.92501302 4.55000774 8.68231141 7.03850902 11 10 C10.67 10.66 10.34 11.32 10 12 C7.53199953 10.84826645 5.95216435 9.95216435 4 8 C3.855625 7.360625 3.71125 6.72125 3.5625 6.0625 C2.89476759 3.61414782 1.84443361 2.68404808 0 1 C0 0.67 0 0.34 0 0 Z " fill="#C8A13E" transform="translate(744,558)"/>
<path d="M0 0 C1.32 0.66 2.64 1.32 4 2 C3.31164062 2.56267578 3.31164062 2.56267578 2.609375 3.13671875 C-1.03296109 6.17454948 -4.17191907 9.15380993 -7 13 C-6.67 11.02 -6.34 9.04 -6 7 C-5.01 6.67 -4.02 6.34 -3 6 C-1.84478498 3.52869082 -1.84478498 3.52869082 -1 1 C-0.67 0.67 -0.34 0.34 0 0 Z " fill="#D9F1FD" transform="translate(578,454)"/>
<path d="M0 0 C0.66 0.33 1.32 0.66 2 1 C-0.25288757 3.56857882 -2.12598103 4.61591902 -5.375 5.625 C-6.56029297 5.99431641 -6.56029297 5.99431641 -7.76953125 6.37109375 C-10.1628399 7.04591458 -12.54440984 7.60393707 -15 8 C-13.41169958 4.82339917 -10.19515574 4.13200316 -7.0625 2.8125 C-6.41603516 2.52697266 -5.76957031 2.24144531 -5.10351562 1.94726562 C-3.42886164 1.23253791 -1.71580039 0.60936911 0 0 Z " fill="#BADEF6" transform="translate(576,399)"/>
<path d="M0 0 C0.33 0 0.66 0 1 0 C1.29296875 6.0546875 1.29296875 6.0546875 1 8 C0.01 8.66 -0.98 9.32 -2 10 C-2.33 10.99 -2.66 11.98 -3 13 C-4.32 12.67 -5.64 12.34 -7 12 C-6.57847656 11.38511719 -6.15695312 10.77023437 -5.72265625 10.13671875 C-4.90087891 8.92435547 -4.90087891 8.92435547 -4.0625 7.6875 C-3.51722656 6.88699219 -2.97195313 6.08648437 -2.41015625 5.26171875 C-0.86162674 2.9741857 -0.86162674 2.9741857 0 0 Z " fill="#227AC5" transform="translate(522,317)"/>
<path d="M0 0 C1.18613892 0.07069702 1.18613892 0.07069702 2.39624023 0.14282227 C3.67724609 0.21533203 3.67724609 0.21533203 4.98413086 0.28930664 C5.88196289 0.34538086 6.77979492 0.40145508 7.70483398 0.45922852 C8.6065332 0.51143555 9.50823242 0.56364258 10.43725586 0.61743164 C12.67259948 0.74753101 14.90754288 0.88250788 17.14233398 1.02172852 C17.14233398 1.35172852 17.14233398 1.68172852 17.14233398 2.02172852 C16.02213867 2.05911133 14.90194336 2.09649414 13.74780273 2.13500977 C12.27511308 2.20067109 10.80245833 2.26711838 9.32983398 2.33422852 C8.5918457 2.35678711 7.85385742 2.3793457 7.09350586 2.40258789 C2.81126359 2.57730807 2.81126359 2.57730807 -0.86938477 4.56469727 C-1.35858398 5.28592773 -1.35858398 5.28592773 -1.85766602 6.02172852 C-2.23985369 4.36558194 -2.57161703 2.69715827 -2.85766602 1.02172852 C-1.85766602 0.02172852 -1.85766602 0.02172852 0 0 Z " fill="#1074D1" transform="translate(558.857666015625,529.978271484375)"/>
<path d="M0 0 C0.33 0 0.66 0 1 0 C1.95261487 4.76307437 2.08333357 9.1666528 2 14 C1.01 13.67 0.02 13.34 -1 13 C-1.0272415 11.58344207 -1.04650467 10.16672955 -1.0625 8.75 C-1.07410156 7.96109375 -1.08570313 7.1721875 -1.09765625 6.359375 C-1.00385306 4.09308998 -0.63241063 2.1711105 0 0 Z " fill="#D5EFFA" transform="translate(494,498)"/>
<path d="M0 0 C0.99 0.66 1.98 1.32 3 2 C2.071875 3.4540625 2.071875 3.4540625 1.125 4.9375 C-1.27764602 9.09527042 -2.19069829 13.30392036 -3 18 C-3.33 18 -3.66 18 -4 18 C-4.51137226 11.09647445 -2.86964374 6.25172386 0 0 Z " fill="#D2EEFC" transform="translate(465,351)"/>
<path d="M0 0 C0.33 0 0.66 0 1 0 C1 1.65 1 3.3 1 5 C1.66 5.33 2.32 5.66 3 6 C2.34 6 1.68 6 1 6 C0.67 8.31 0.34 10.62 0 13 C-0.33 12.34 -0.66 11.68 -1 11 C-1.66 11 -2.32 11 -3 11 C-1.125 3.375 -1.125 3.375 0 0 Z " fill="#D6EDF8" transform="translate(410,339)"/>
<path d="M0 0 C0.99 0.66 1.98 1.32 3 2 C-2.93891422 4.5915262 -7.54107286 5.40368295 -14 5 C-10.43185171 3.12574189 -6.89094851 2.06116778 -3 1 C-2.01 0.67 -1.02 0.34 0 0 Z " fill="#2278C4" transform="translate(262,555)"/>
<path d="M0 0 C1.02802734 0.00322266 2.05605469 0.00644531 3.11523438 0.00976562 C4.72301758 0.02233398 4.72301758 0.02233398 6.36328125 0.03515625 C7.44673828 0.03966797 8.53019531 0.04417969 9.64648438 0.04882812 C12.3229721 0.06061882 14.99934902 0.07707562 17.67578125 0.09765625 C17.67578125 0.42765625 17.67578125 0.75765625 17.67578125 1.09765625 C16.73726318 1.13524048 16.73726318 1.13524048 15.77978516 1.17358398 C12.95323506 1.28940898 10.12702956 1.4121961 7.30078125 1.53515625 C5.82351563 1.59413086 5.82351563 1.59413086 4.31640625 1.65429688 C2.90488281 1.71713867 2.90488281 1.71713867 1.46484375 1.78125 C0.59553223 1.81790771 -0.2737793 1.85456543 -1.16943359 1.89233398 C-3.37254495 1.97167169 -3.37254495 1.97167169 -5.32421875 3.09765625 C-6.31421875 2.43765625 -7.30421875 1.77765625 -8.32421875 1.09765625 C-5.26502487 0.07792496 -3.2000385 -0.01767977 0 0 Z " fill="#016AC6" transform="translate(467.32421875,450.90234375)"/>
<path d="M0 0 C3.07692057 2.76922851 4.77800007 5.02850024 6 9 C6 9.99 6 10.98 6 12 C4.68 11.67 3.36 11.34 2 11 C2 8.69 2 6.38 2 4 C1.34 4 0.68 4 0 4 C0 2.68 0 1.36 0 0 Z " fill="#CEEDFA" transform="translate(331,436)"/>
<path d="M0 0 C2.93200474 2.85276137 5.64315404 5.65079784 8 9 C7.01 9 6.02 9 5 9 C4.67 8.01 4.34 7.02 4 6 C2.68 6.33 1.36 6.66 0 7 C-0.93423645 3.98968256 -1.04449911 3.13349732 0 0 Z " fill="#237CC8" transform="translate(376,605)"/>
<path d="M0 0 C3.91939465 3.80411834 7.49102731 7.81576108 11 12 C10.01 12 9.02 12 8 12 C7.67 11.34 7.34 10.68 7 10 C6.01 9.67 5.02 9.34 4 9 C3.67 8.01 3.34 7.02 3 6 C2.01 5.34 1.02 4.68 0 4 C0 2.68 0 1.36 0 0 Z " fill="#1F78C1" transform="translate(160,587)"/>
<path d="M0 0 C1.70754834 2.97465763 2.27317355 5.13860832 2.25 8.5625 C2.25515625 9.32691406 2.2603125 10.09132813 2.265625 10.87890625 C2 13 2 13 0 16 C-0.66 15.67 -1.32 15.34 -2 15 C-1.67 14.01 -1.34 13.02 -1 12 C-0.77674186 9.94106379 -0.59294241 7.87766347 -0.4375 5.8125 C-0.35371094 4.72582031 -0.26992188 3.63914062 -0.18359375 2.51953125 C-0.12300781 1.68808594 -0.06242188 0.85664062 0 0 Z " fill="#1671BF" transform="translate(665,568)"/>
<path d="M0 0 C1.32 0.33 2.64 0.66 4 1 C0.7 3.64 -2.6 6.28 -6 9 C-6.33 8.01 -6.66 7.02 -7 6 C-6.01 6 -5.02 6 -4 6 C-3.71125 5.38125 -3.4225 4.7625 -3.125 4.125 C-2 2 -2 2 0 0 Z " fill="#D3F0FB" transform="translate(652,593)"/>
<path d="M0 0 C0.66 1.32 1.32 2.64 2 4 C1.34 4 0.68 4 0 4 C-0.0825 4.78375 -0.165 5.5675 -0.25 6.375 C-1 9 -1 9 -3.0625 10.3125 C-4.0215625 10.6528125 -4.0215625 10.6528125 -5 11 C-3.77472971 6.94718288 -2.30119506 3.55639236 0 0 Z " fill="#C8E6F7" transform="translate(161,454)"/>
<path d="M0 0 C1.65 0 3.3 0 5 0 C0.25855513 6.04942966 0.25855513 6.04942966 -2 8 C-2.66 8 -3.32 8 -4 8 C-4 8.66 -4 9.32 -4 10 C-4.66 10 -5.32 10 -6 10 C-6 9.01 -6 8.02 -6 7 C-5.01 7 -4.02 7 -3 7 C-1.79371992 4.66785852 -0.8345262 2.50357861 0 0 Z " fill="#1C74BF" transform="translate(535,420)"/>
<path d="M0 0 C-0.33 0.99 -0.66 1.98 -1 3 C-2.32 2.67 -3.64 2.34 -5 2 C-5.66 3.32 -6.32 4.64 -7 6 C-8.65 6 -10.3 6 -12 6 C-8.42811627 2.0521285 -5.4000395 0 0 0 Z " fill="#D5F0FB" transform="translate(376,397)"/>
<path d="M0 0 C-4.33664919 3.11696661 -7.80408388 3.55966813 -13 4 C-13 3.34 -13 2.68 -13 2 C-11.39935157 1.46845258 -9.79431126 0.95011647 -8.1875 0.4375 C-7.29417969 0.14746094 -6.40085937 -0.14257812 -5.48046875 -0.44140625 C-3 -1 -3 -1 0 0 Z " fill="#1270C2" transform="translate(327,527)"/>
<path d="M0 0 C1.98203709 0.61583656 3.9605772 1.24293834 5.9375 1.875 C7.59072266 2.39707031 7.59072266 2.39707031 9.27734375 2.9296875 C12 4 12 4 13 6 C8.02693484 5.50269348 4.36200187 4.44697666 0 2 C0 1.34 0 0.68 0 0 Z " fill="#1E75C2" transform="translate(190,609)"/>
<path d="M0 0 C2.31 0 4.62 0 7 0 C6.67 0.66 6.34 1.32 6 2 C5.01 2 4.02 2 3 2 C2.7525 2.61875 2.505 3.2375 2.25 3.875 C0.79371361 6.35068687 -0.37812506 6.95125002 -3 8 C-2.690625 7.236875 -2.38125 6.47375 -2.0625 5.6875 C-1.32106407 3.81210323 -0.63771783 1.91315348 0 0 Z " fill="#5B8184" transform="translate(713,556)"/>
<path d="M0 0 C0.33 0 0.66 0 1 0 C3.44064587 5.64399358 3.19289099 10.97751478 3 17 C2.67 17 2.34 17 2 17 C0.7017874 11.23918159 -0.25706972 5.91260345 0 0 Z " fill="#BFE6FB" transform="translate(492,535)"/>
<path d="M0 0 C0.33 0 0.66 0 1 0 C0.67 4.29 0.34 8.58 0 13 C-0.66 13 -1.32 13 -2 13 C-2.625 9.625 -2.625 9.625 -3 6 C-2.34 5.34 -1.68 4.68 -1 4 C-0.3574765 1.93125966 -0.3574765 1.93125966 0 0 Z " fill="#E5FAFE" transform="translate(439,525)"/>
<path d="M0 0 C0.33 0 0.66 0 1 0 C1.0810206 2.10353495 1.13919907 4.20795952 1.1875 6.3125 C1.22230469 7.48425781 1.25710937 8.65601563 1.29296875 9.86328125 C1 13 1 13 -0.51171875 14.91796875 C-1.00285156 15.27503906 -1.49398437 15.63210938 -2 16 C-1.85890014 13.89551062 -1.71195825 11.7914123 -1.5625 9.6875 C-1.48128906 8.51574219 -1.40007812 7.34398437 -1.31640625 6.13671875 C-1 3 -1 3 0 0 Z " fill="#B6DEF5" transform="translate(146,488)"/>
<path d="M0 0 C2.375 0.25 2.375 0.25 5 1 C7.17831524 3.90442032 7.19715281 6.45124947 7 10 C4.3513141 6.80331012 2.06007659 3.60513403 0 0 Z " fill="#D4EFFA" transform="translate(622,458)"/>
<path d="M0 0 C1 2 1 2 0.375 4.0625 C-1 6 -1 6 -3.625 6.75 C-4.800625 6.87375 -4.800625 6.87375 -6 7 C-6 7.66 -6 8.32 -6 9 C-6.99 9.33 -7.98 9.66 -9 10 C-9 9.34 -9 8.68 -9 8 C-8.34 8 -7.68 8 -7 8 C-7 7.34 -7 6.68 -7 6 C-6.34 6 -5.68 6 -5 6 C-4.67 5.01 -4.34 4.02 -4 3 C-1.9375 1.3125 -1.9375 1.3125 0 0 Z " fill="#C5E7F9" transform="translate(538,422)"/>
<path d="M0 0 C2.31 0.66 4.62 1.32 7 2 C7.33 3.32 7.66 4.64 8 6 C5 6 5 6 3.61328125 4.6875 C2.40885417 3.125 1.20442708 1.5625 0 0 Z " fill="#1270C5" transform="translate(663,413)"/>
<path d="M0 0 C5.23880078 0.55145271 9.97350697 1.42922093 15 3 C15 3.33 15 3.66 15 4 C9.47322267 4.19392201 5.24385089 3.7479503 0 2 C0 1.34 0 0.68 0 0 Z " fill="#D3EFFB" transform="translate(273,395)"/>
<path d="M0 0 C0.99 0.33 1.98 0.66 3 1 C2 3 2 3 -0.6875 4.125 C-3.9579435 4.98889074 -6.63706182 5.16013991 -10 5 C-8.66666667 4.33333333 -7.33333333 3.66666667 -6 3 C-5.29875 2.608125 -4.5975 2.21625 -3.875 1.8125 C-3.25625 1.544375 -2.6375 1.27625 -2 1 C-1.34 1.33 -0.68 1.66 0 2 C0 1.34 0 0.68 0 0 Z " fill="#126EC3" transform="translate(394,389)"/>
<path d="M0 0 C1.65 0.33 3.3 0.66 5 1 C0.375 5 0.375 5 -3 5 C-3 5.66 -3 6.32 -3 7 C-3.66 6.67 -4.32 6.34 -5 6 C-3.35 4.02 -1.7 2.04 0 0 Z " fill="#DBF0F8" transform="translate(426,315)"/>
<path d="M0 0 C-1.28716647 1.00578589 -2.57988658 2.00446798 -3.875 3 C-4.95394531 3.8353125 -4.95394531 3.8353125 -6.0546875 4.6875 C-8 6 -8 6 -10 6 C-10 5.34 -10 4.68 -10 4 C-9.01 4 -8.02 4 -7 4 C-6.67 2.68 -6.34 1.36 -6 0 C-2.25 -1.125 -2.25 -1.125 0 0 Z " fill="#DDA72F" transform="translate(752,599)"/>
<path d="M0 0 C0.33 0 0.66 0 1 0 C1 3.96 1 7.92 1 12 C0.01 12.33 -0.98 12.66 -2 13 C-1.85769192 11.58297487 -1.71099254 10.1663904 -1.5625 8.75 C-1.48128906 7.96109375 -1.40007812 7.1721875 -1.31640625 6.359375 C-1.02365007 4.17635361 -0.57935581 2.1226818 0 0 Z " fill="#267DC7" transform="translate(431,587)"/>
<path d="M0 0 C1.32 0 2.64 0 4 0 C4 0.66 4 1.32 4 2 C4.78375 2.144375 5.5675 2.28875 6.375 2.4375 C9 3 9 3 11 4 C10.67 5.32 10.34 6.64 10 8 C8 6.625 8 6.625 6 5 C6 4.34 6 3.68 6 3 C5.38125 2.87625 4.7625 2.7525 4.125 2.625 C2 2 2 2 0 0 Z " fill="#296FA3" transform="translate(740,555)"/>
<path d="M0 0 C0.99 0.33 1.98 0.66 3 1 C3.33 2.98 3.66 4.96 4 7 C3.01 7 2.02 7 1 7 C-0.6875 4.5 -0.6875 4.5 -2 2 C-1.34 1.34 -0.68 0.68 0 0 Z " fill="#1875CB" transform="translate(563,546)"/>
<path d="M0 0 C0.66 0.33 1.32 0.66 2 1 C1.67 1.99 1.34 2.98 1 4 C0.01 4 -0.98 4 -2 4 C-2 4.99 -2 5.98 -2 7 C-1.34 7 -0.68 7 0 7 C0 8.98 0 10.96 0 13 C-2.3385104 9.49223439 -2.77589301 7.18333056 -3 3 C-1.5625 1.0625 -1.5625 1.0625 0 0 Z " fill="#3F8ACB" transform="translate(208,530)"/>
<path d="M0 0 C2 3 2 3 1.9375 5.0625 C1 7 1 7 -1.5625 8.25 C-2.366875 8.4975 -3.17125 8.745 -4 9 C-2.68 6.03 -1.36 3.06 0 0 Z " fill="#247DC9" transform="translate(338,511)"/>
<path d="M0 0 C0.33 0 0.66 0 1 0 C1.87890625 6.15234375 1.87890625 6.15234375 2 8 C1.67 8.33 1.34 8.66 1 9 C0.63239269 11.32817964 0.29758419 13.6618385 0 16 C-0.33 16 -0.66 16 -1 16 C-1.02701408 13.89590361 -1.04640223 11.79170822 -1.0625 9.6875 C-1.07410156 8.51574219 -1.08570313 7.34398437 -1.09765625 6.13671875 C-1 3 -1 3 0 0 Z " fill="#F3FAFB" transform="translate(388,490)"/>
<path d="M0 0 C0.33 0 0.66 0 1 0 C1.25028811 1.58013217 1.47440946 3.16442306 1.6875 4.75 C1.87892578 6.07257813 1.87892578 6.07257813 2.07421875 7.421875 C1.98397191 10.55676517 1.07384637 11.71823587 -1 14 C-1.18451025 4.58997722 -1.18451025 4.58997722 0 0 Z " fill="#DFF7FC" transform="translate(390,465)"/>
<path d="M0 0 C0.66 0 1.32 0 2 0 C1.67 1.98 1.34 3.96 1 6 C0.01 6 -0.98 6 -2 6 C-2.66 7.32 -3.32 8.64 -4 10 C-4.66 9.67 -5.32 9.34 -6 9 C-5.05016642 7.49460339 -4.08988109 5.99579653 -3.125 4.5 C-2.59132813 3.6646875 -2.05765625 2.829375 -1.5078125 1.96875 C-0.76144531 0.99421875 -0.76144531 0.99421875 0 0 Z " fill="#1F79C3" transform="translate(507,432)"/>
<path d="M0 0 C-4.77357872 2.71391278 -8.34388537 4.56561146 -14 4 C-13 2 -13 2 -10.56640625 1.11328125 C-9.57511719 0.84902344 -8.58382812 0.58476562 -7.5625 0.3125 C-6.57378906 0.04050781 -5.58507812 -0.23148437 -4.56640625 -0.51171875 C-2 -1 -2 -1 0 0 Z " fill="#C0E3F6" transform="translate(239,397)"/>
<path d="M0 0 C2.475 0.495 2.475 0.495 5 1 C5 1.99 5 2.98 5 4 C5.639375 4.103125 6.27875 4.20625 6.9375 4.3125 C7.618125 4.539375 8.29875 4.76625 9 5 C9.33 5.99 9.66 6.98 10 8 C9.34 8 8.68 8 8 8 C8 7.34 8 6.68 8 6 C7.236875 5.7525 6.47375 5.505 5.6875 5.25 C2.7635955 3.89004442 1.69995644 2.68414174 0 0 Z " fill="#D0ECFA" transform="translate(518,595)"/>
<path d="M0 0 C3.26008643 3.16952847 6.22237877 6.39937989 9 10 C8.01 10.495 8.01 10.495 7 11 C6.67 10.34 6.34 9.68 6 9 C5.01 8.67 4.02 8.34 3 8 C0 2.77777778 0 2.77777778 0 0 Z " fill="#C5E6F7" transform="translate(209,546)"/>
<path d="M0 0 C0.33 0.66 0.66 1.32 1 2 C0.0625 4.125 0.0625 4.125 -1 6 C-1.66 6 -2.32 6 -3 6 C-3.33 7.65 -3.66 9.3 -4 11 C-4.66 11 -5.32 11 -6 11 C-4.74194623 6.49197399 -3.09592835 3.5087188 0 0 Z " fill="#C7E9F9" transform="translate(515,449)"/>
<path d="M0 0 C0 0.99 0 1.98 0 3 C-6.96428571 6.34821429 -6.96428571 6.34821429 -11 5 C-9.54462432 4.16151196 -8.08559627 3.32936066 -6.625 2.5 C-5.81289063 2.0359375 -5.00078125 1.571875 -4.1640625 1.09375 C-2 0 -2 0 0 0 Z " fill="#5B7D84" transform="translate(749,602)"/>
<path d="M0 0 C0.66 0 1.32 0 2 0 C0.64978174 4.41889613 -1.26115668 6.34345343 -5 9 C-5.33 8.01 -5.66 7.02 -6 6 C-5.34 6 -4.68 6 -4 6 C-4 5.34 -4 4.68 -4 4 C-2.68 3.67 -1.36 3.34 0 3 C0 2.01 0 1.02 0 0 Z " fill="#D0EEFB" transform="translate(423,603)"/>
<path d="M0 0 C5.28 0 10.56 0 16 0 C16 0.33 16 0.66 16 1 C14.77023437 1.09087891 14.77023437 1.09087891 13.515625 1.18359375 C11.89914062 1.30927734 11.89914062 1.30927734 10.25 1.4375 C9.18265625 1.51871094 8.1153125 1.59992187 7.015625 1.68359375 C4.56320038 1.94090773 2.36078709 2.31812218 0 3 C0 2.01 0 1.02 0 0 Z " fill="#206AAB" transform="translate(720,553)"/>
<path d="M0 0 C0.78375 0.04125 1.5675 0.0825 2.375 0.125 C1.6325 0.7025 0.89 1.28 0.125 1.875 C-2.28587643 3.84753526 -4.46542701 5.88544282 -6.625 8.125 C-6.955 7.135 -7.285 6.145 -7.625 5.125 C-6.965 5.125 -6.305 5.125 -5.625 5.125 C-5.295 4.135 -4.965 3.145 -4.625 2.125 C-2.625 0.125 -2.625 0.125 0 0 Z " fill="#DFF4FC" transform="translate(455.625,450.875)"/>
<path d="M0 0 C1.45606519 4.52092968 0.27032841 7.51648796 -1 12 C-1.33 12 -1.66 12 -2 12 C-2.05395478 10.37536158 -2.09277195 8.75021459 -2.125 7.125 C-2.14820313 6.22007812 -2.17140625 5.31515625 -2.1953125 4.3828125 C-2 2 -2 2 0 0 Z " fill="#1570BE" transform="translate(403,358)"/>
<path d="M0 0 C1.32 0.33 2.64 0.66 4 1 C3.01 2.98 2.02 4.96 1 7 C0.34 7 -0.32 7 -1 7 C-1.33 8.32 -1.66 9.64 -2 11 C-2 9.35 -2 7.7 -2 6 C-1.34 6 -0.68 6 0 6 C0 4.02 0 2.04 0 0 Z " fill="#2C71A4" transform="translate(707,561)"/>
<path d="M0 0 C4.72727273 4.36363636 4.72727273 4.36363636 5.9375 7.1875 C5.9684375 8.0846875 5.9684375 8.0846875 6 9 C5.34 9.66 4.68 10.32 4 11 C3.896875 10.21625 3.79375 9.4325 3.6875 8.625 C3.22404978 5.66954819 3.22404978 5.66954819 0 4 C0 2.68 0 1.36 0 0 Z " fill="#C9E9F9" transform="translate(307,556)"/>
<path d="M0 0 C-0.99 1.485 -0.99 1.485 -2 3 C-2.66 3 -3.32 3 -4 3 C-4.33 3.66 -4.66 4.32 -5 5 C-5.33 4.34 -5.66 3.68 -6 3 C-7.65 3.33 -9.3 3.66 -11 4 C-9.71264403 1.42528807 -8.71510189 1.29583343 -6.0625 0.3125 C-5.35222656 0.04050781 -4.64195312 -0.23148438 -3.91015625 -0.51171875 C-2 -1 -2 -1 0 0 Z " fill="#B7DDF4" transform="translate(276,553)"/>
<path d="M0 0 C0.66 0.99 1.32 1.98 2 3 C-1.13498292 4.85776765 -3.37471432 5.20140476 -7 5 C-2.25 1.125 -2.25 1.125 0 0 Z " fill="#1F78C7" transform="translate(500,442)"/>
<path d="M0 0 C2.31 0.33 4.62 0.66 7 1 C7 1.66 7 2.32 7 3 C8.32 3.66 9.64 4.32 11 5 C6.12637153 4.54663921 3.60957611 3.2910841 0 0 Z " fill="#C4E6FA" transform="translate(360,444)"/>
<path d="M0 0 C0 0.66 0 1.32 0 2 C-0.99 2.33 -1.98 2.66 -3 3 C-3.99 4.485 -3.99 4.485 -5 6 C-8.125 6.6875 -8.125 6.6875 -11 7 C-8.21677024 3.90752249 -4.31039412 0 0 0 Z " fill="#CFF0FC" transform="translate(561,407)"/>
<path d="M0 0 C0.99 0.33 1.98 0.66 3 1 C3 1.66 3 2.32 3 3 C-1.455 3.495 -1.455 3.495 -6 4 C-4.03617993 2.49440461 -2.21736634 1.10868317 0 0 Z " fill="#2A80CA" transform="translate(639,605)"/>
<path d="M0 0 C0.66 0.99 1.32 1.98 2 3 C1.34 3.66 0.68 4.32 0 5 C-0.39764263 6.98821313 -0.73775349 8.98944339 -1 11 C-1.66 11 -2.32 11 -3 11 C-2.53199289 6.94393835 -2.12046792 3.53411321 0 0 Z " fill="#D5F1FC" transform="translate(498,486)"/>
<path d="M0 0 C4.92127034 -0.16682272 8.50343896 -0.24828052 13 2 C13 2.33 13 2.66 13 3 C8.18061476 3.23509196 4.53701494 2.45184478 0 1 C0 0.67 0 0.34 0 0 Z " fill="#2A82C6" transform="translate(376,450)"/>
<path d="M0 0 C0.66 0.99 1.32 1.98 2 3 C-0.57784846 5.64752004 -2.91648098 7.94432065 -6 10 C-4.6302836 6.00499382 -2.74277578 3.19990508 0 0 Z " fill="#C1E5F8" transform="translate(168,444)"/>
<path d="M0 0 C1.98 0.99 1.98 0.99 4 2 C4 3.65 4 5.3 4 7 C3.01 7.495 3.01 7.495 2 8 C0.74335022 5.09399739 0 3.20395416 0 0 Z " fill="#1F7AC8" transform="translate(685,442)"/>
<path d="M0 0 C0.66 0.33 1.32 0.66 2 1 C0.54744301 4.82946843 -1.42895561 6.12050295 -5 8 C-4.67 6.68 -4.34 5.36 -4 4 C-3.01 4 -2.02 4 -1 4 C-0.67 2.68 -0.34 1.36 0 0 Z " fill="#CCECF8" transform="translate(501,437)"/>
<path d="M0 0 C0.99 0.33 1.98 0.66 3 1 C2.67 1.66 2.34 2.32 2 3 C1.01 3 0.02 3 -1 3 C-0.67 3.99 -0.34 4.98 0 6 C-1.32 6.33 -2.64 6.66 -4 7 C-2.92598892 4.08482708 -2.22189824 2.22189824 0 0 Z " fill="#CFEDF9" transform="translate(362,403)"/>
<path d="M0 0 C0 0.66 0 1.32 0 2 C-3.96 2.66 -7.92 3.32 -12 4 C-10 1 -10 1 -6.5625 0.3125 C-3 0 -3 0 0 0 Z " fill="#0D6CBC" transform="translate(494,341)"/>
<path d="M0 0 C0.99 0.99 1.98 1.98 3 3 C2.34 3.66 1.68 4.32 1 5 C-2.125 4.625 -2.125 4.625 -5 4 C-4.34 3.34 -3.68 2.68 -3 2 C-2.01 2 -1.02 2 0 2 C0 1.34 0 0.68 0 0 Z " fill="#D8EDF7" transform="translate(542,605)"/>
<path d="M0 0 C-0.66 2.31 -1.32 4.62 -2 7 C-2.28875 6.401875 -2.5775 5.80375 -2.875 5.1875 C-4.04742026 2.80672208 -4.04742026 2.80672208 -6 0 C-3.50907189 -1.24546405 -2.58919267 -0.7767578 0 0 Z " fill="#E7F9F8" transform="translate(207,531)"/>
<path d="M0 0 C0.66 0 1.32 0 2 0 C2 2.64 2 5.28 2 8 C1.34 8 0.68 8 0 8 C-1.125 2.25 -1.125 2.25 0 0 Z " fill="#D9F1F9" transform="translate(688,500)"/>
<path d="M0 0 C2.0245738 1.93254772 3.42105792 3.63158688 5 6 C5 6.99 5 7.98 5 9 C3.68 8.67 2.36 8.34 1 8 C0.67 5.36 0.34 2.72 0 0 Z " fill="#D4EFFB" transform="translate(677,430)"/>
<path d="M0 0 C0.33 0.66 0.66 1.32 1 2 C-3.455 2.495 -3.455 2.495 -8 3 C-7 1 -7 1 -4.5625 -0.1875 C-2 -1 -2 -1 0 0 Z M1 0 C3 1 3 1 3 1 Z " fill="#3588D0" transform="translate(288,607)"/>
<path d="M0 0 C0.66 0 1.32 0 2 0 C3.125 3.3125 3.125 3.3125 4 7 C3.01 8.485 3.01 8.485 2 10 C1.34 6.7 0.68 3.4 0 0 Z " fill="#DFF7FE" transform="translate(495,552)"/>
<path d="M0 0 C0.598125 0.350625 1.19625 0.70125 1.8125 1.0625 C-1.1875 3.0625 -1.1875 3.0625 -5.1875 3.0625 C-5.1875 2.0725 -5.1875 1.0825 -5.1875 0.0625 C-2.1875 -0.9375 -2.1875 -0.9375 0 0 Z " fill="#187ACC" transform="translate(551.1875,410.9375)"/>
<path d="M0 0 C0.5534764 2.07553648 1 3.84365964 1 6 C-0.65 6.66 -2.3 7.32 -4 8 C-2.87548273 5.0280615 -1.77706209 2.66559313 0 0 Z " fill="#C9E9F7" transform="translate(420,322)"/>
<path d="M0 0 C-1 2 -1 2 -4.0625 3.125 C-5.5165625 3.558125 -5.5165625 3.558125 -7 4 C-7 2.68 -7 1.36 -7 0 C-3.98968256 -0.93423645 -3.13349732 -1.04449911 0 0 Z " fill="#237BCB" transform="translate(459,290)"/>
<path d="M0 0 C0.33 0 0.66 0 1 0 C1 2.31 1 4.62 1 7 C-0.98 7.33 -2.96 7.66 -5 8 C-4.360625 7.236875 -3.72125 6.47375 -3.0625 5.6875 C-0.85767219 3.11753287 -0.85767219 3.11753287 0 0 Z " fill="#2F70A0" transform="translate(754,594)"/>
<path d="M0 0 C3.16115776 1.36983503 3.9927092 1.9890638 6 5 C5.01 5 4.02 5 3 5 C2.34 4.34 1.68 3.68 1 3 C0.01 3.33 -0.98 3.66 -2 4 C-1.34 2.68 -0.68 1.36 0 0 Z " fill="#106FBD" transform="translate(517,596)"/>
<path d="M0 0 C2.475 0.99 2.475 0.99 5 2 C5 3.65 5 5.3 5 7 C3.29115995 5.37660195 1.62553283 3.70680947 0 2 C0 1.34 0 0.68 0 0 Z " fill="#D2F1FA" transform="translate(508,583)"/>
<path d="M0 0 C4.8 3.32307692 4.8 3.32307692 5.8125 6.75 C5.874375 7.4925 5.93625 8.235 6 9 C0.42857143 3.85714286 0.42857143 3.85714286 0 0 Z " fill="#BAE1F6" transform="translate(354,435)"/>
<path d="M0 0 C1.32 0 2.64 0 4 0 C3.34 1.32 2.68 2.64 2 4 C1.01 4 0.02 4 -1 4 C-0.67 2.68 -0.34 1.36 0 0 Z " fill="#1774C8" transform="translate(169,437)"/>
<path d="M0 0 C0.99 0.33 1.98 0.66 3 1 C-1.625 5 -1.625 5 -5 5 C-4.34 4.67 -3.68 4.34 -3 4 C-3 3.34 -3 2.68 -3 2 C-2.01 1.34 -1.02 0.68 0 0 Z " fill="#D8F1FD" transform="translate(475,343)"/>
</svg>
