<?xml version="1.0" encoding="UTF-8"?>
<svg version="1.1" xmlns="http://www.w3.org/2000/svg" width="404" height="404" viewBox="0 -44 404 404">
<rect x="0" y="-44" width="404" height="404" fill="#ffffff"/>
<path d="M0 0 C133.32 0 266.64 0 404 0 C404 104.28 404 208.56 404 316 C270.68 316 137.36 316 0 316 C0 211.72 0 107.44 0 0 Z " fill="#000000" transform="translate(0,0)"/>
<path d="M0 0 C1.32 0.66 2.64 1.32 4 2 C3.835 2.78375 3.67 3.5675 3.5 4.375 C2.87039153 8.93966142 2.91819473 13.40072601 3 18 C5.64 18 8.28 18 11 18 C10.7421875 19.9140625 10.7421875 19.9140625 10 22 C8.2578125 22.8359375 8.2578125 22.8359375 6.125 23.375 C2.74310149 24.48818305 2.16178431 24.75993295 0.0625 27.875 C-1.61168047 32.79906022 -2.11965056 37.11179927 -2.0625 42.3125 C-2.04896484 43.91544922 -2.04896484 43.91544922 -2.03515625 45.55078125 C-2.02355469 46.35902344 -2.01195312 47.16726562 -2 48 C1.2688561 47.43302496 2.72089671 46.62426195 4.8125 44.0625 C5.32554687 43.43601563 5.83859375 42.80953125 6.3671875 42.1640625 C8.14459068 39.80836546 9.78874879 37.38474955 11.4375 34.9375 C14.92662498 29.92904051 18.24644706 25.19725395 24.265625 23.27734375 C28.40388435 22.5716472 30.33638687 22.59906707 34 24.8125 C38.03246826 29.22301216 37.33052808 33.66995491 37.27734375 39.4375 C36.91738852 44.06115031 35.96002766 47.40632727 33 51 C27.61144134 55.28885281 23.19193641 56.39878325 16.453125 56.359375 C14 56 14 56 10.875 53.625 C9 51 9 51 9 49 C8.278125 49.433125 7.55625 49.86625 6.8125 50.3125 C5.884375 50.869375 4.95625 51.42625 4 52 C3.175 52.556875 2.35 53.11375 1.5 53.6875 C-1.26049176 55.13675817 -2.92984035 55.26315654 -6 55 C-10.70953884 45.00359469 -6.21775496 31.25616295 -4.41601562 20.69335938 C-3.99377565 18.21344288 -3.58228311 15.73189929 -3.171875 13.25 C-2.90687212 11.67177041 -2.64127029 10.09364125 -2.375 8.515625 C-2.25205566 7.77411194 -2.12911133 7.03259888 -2.00244141 6.26861572 C-1.11547109 1.11547109 -1.11547109 1.11547109 0 0 Z " fill="#EEEEEE" transform="translate(233,118)"/>
<path d="M0 0 C1.32 0.66 2.64 1.32 4 2 C3.67 7.28 3.34 12.56 3 18 C5.64 18 8.28 18 11 18 C10.7421875 19.92578125 10.7421875 19.92578125 10 22 C8.2578125 22.73046875 8.2578125 22.73046875 6.125 23.1875 C3.30573336 24.08522712 2.28313187 24.48330817 0.83984375 27.1171875 C0.11473662 29.39817775 -0.46466873 31.66843323 -1 34 C-1.33 34.66 -1.66 35.32 -2 36 C-2.07065617 38.04055005 -2.08421976 40.08334257 -2.0625 42.125 C-2.04896484 43.76855469 -2.04896484 43.76855469 -2.03515625 45.4453125 C-2.02355469 46.28835937 -2.01195312 47.13140625 -2 48 C0.94091587 47.81584568 0.94091587 47.81584568 4 47 C5.04423014 45.24795822 5.04423014 45.24795822 6 43 C11.02417194 34.70722885 15.90175562 27.04566203 25 23 C28.00607545 22.54255374 30.02949835 22.41454657 32.68359375 24.015625 C35.40899949 26.1854924 36.88776663 27.66329988 38 31 C38.70549952 38.15908529 38.31662715 44.07164517 34 50 C28.73515479 55.12984917 23.60409378 56.55497425 16.3828125 56.46875 C13.57447471 55.91629011 12.67609412 55.18189688 10.875 53 C10.25625 52.01 9.6375 51.02 9 50 C6.32867456 50.9646453 4.21650113 51.82409283 2 53.625 C-0.53947255 55.37088738 -1.97930354 55.47695207 -5 55 C-9.83959892 47.74060163 -6.5261228 36.39147974 -5.1875 28.25 C-5.00735352 27.1170752 -4.82720703 25.98415039 -4.64160156 24.81689453 C-3.29924297 16.50021092 -1.79302274 8.23160441 0 0 Z " fill="#F0F0F0" transform="translate(140,118)"/>
<path d="M0 0 C1.32 0.66 2.64 1.32 4 2 C3.47462276 7.0302076 2.89405214 12.01885239 2 17 C4.53723429 14.53324444 6.90563447 12.12296115 9.0625 9.3125 C12.05761002 5.73769126 13.86889783 5.12118952 18.5 4.625 C22 5 22 5 24.4375 6.5625 C26.66196729 10.03266897 26.61078722 11.9280852 26 16 C22.70820365 23.89714605 15.83767613 29.72582155 8.625 34 C6 35 6 35 3 35 C3 34.01 3 33.02 3 32 C4.94140625 30.45703125 4.94140625 30.45703125 7.5625 28.8125 C12.47565346 25.49979055 16.82797291 22.08140263 20 17 C20.59130428 13.65934047 20.59130428 13.65934047 20 11 C17.30197711 10.24241756 17.30197711 10.24241756 14 11 C1.43714859 22.65369769 -2.1834045 40.8822589 -2.921875 57.24609375 C-2.94765625 58.15488281 -2.9734375 59.06367188 -3 60 C-4.32 60 -5.64 60 -7 60 C-9 58 -9 58 -9.30078125 54.484375 C-9.13959487 47.47066517 -7.7902257 40.55263431 -6.60131836 33.65429688 C-6.1910969 31.27089807 -5.79287635 28.88573347 -5.39648438 26.5 C-3.89686291 17.58355713 -2.17002093 8.78133191 0 0 Z " fill="#EEEEEE" transform="translate(278,137)"/>
<path d="M0 0 C1.32 0.66 2.64 1.32 4 2 C3.44854729 7.23880078 2.57077907 11.97350697 1 17 C1.721875 16.278125 2.44375 15.55625 3.1875 14.8125 C4.115625 13.884375 5.04375 12.95625 6 12 C7.299375 10.6696875 7.299375 10.6696875 8.625 9.3125 C11.63787411 6.37891205 13.19323824 5.07334198 17.4375 4.6875 C21 5 21 5 23.4375 5.9375 C25.63721505 8.84112386 25.55796411 11.15508765 25.37890625 14.73046875 C24.21797493 21.68408831 17.36091583 27.49972991 11.91015625 31.5546875 C8.17692337 34.01570136 6.63493629 35 2 35 C3.51322499 31.00330576 5.89289689 29.41968776 9.375 27.0625 C13.29628173 24.40427263 16.34593758 21.96240305 19 18 C19.33465889 14.29059225 19.33465889 14.29059225 19 11 C14.58422628 11.16115962 12.61042267 11.35106486 9.5234375 14.6328125 C8.77809377 15.77839928 8.06318539 16.94419213 7.375 18.125 C6.99529053 18.75317627 6.61558105 19.38135254 6.22436523 20.02856445 C-1.14769789 32.72603331 -2.96337029 45.6264328 -4 60 C-5.32 60 -6.64 60 -8 60 C-10 58 -10 58 -10.2734375 54.7265625 C-10.11403351 48.52099299 -8.78260888 42.45569833 -7.625 36.375 C-6.04389162 27.94548615 -4.59762681 19.54156081 -3.50390625 11.03320312 C-2.84225881 7.05049587 -1.62193191 3.68620888 0 0 Z " fill="#EFEFEF" transform="translate(186,137)"/>
<path d="M0 0 C2.6618004 2.6618004 2.29866602 4.04249263 2.3125 7.75 C2.21756884 13.4119658 1.35128589 17.17013379 -2.32421875 21.59375 C-5.37740629 24.15586542 -9.12990103 24.21620665 -13 24 C-15.0625 22.5625 -15.0625 22.5625 -16 20 C-16.73889214 13.66663882 -15.57578699 9.28188144 -12 4 C-8.22809072 -0.07773976 -5.482925 -0.62070849 0 0 Z " fill="#070707" transform="translate(170,146)"/>
<path d="M0 0 C2.28479464 1.67696329 2.92450434 2.61056821 3.46875 5.41796875 C3.54473104 12.1517882 2.70136699 16.96374112 -2 22 C-5.2623296 23.95739776 -8.2209984 24.59668446 -12 24 C-14.25327729 22.21291801 -14.89278947 20.77397187 -15.28515625 17.94140625 C-15.50815876 12.19181992 -14.63567088 7.93888965 -10.67578125 3.5234375 C-7.20658146 0.26366447 -4.69446146 -0.83457093 0 0 Z " fill="#060606" transform="translate(262,146)"/>
<path d="M0 0 C1 1 1 1 1.5 3.5625 C0.37484446 11.29794435 -7.2186567 16.22884372 -13.08203125 20.75 C-15 22 -15 22 -17 22 C-17 22.99 -17 23.98 -17 25 C-17.99 25.33 -18.98 25.66 -20 26 C-18.84017613 16.39003077 -13.55192346 8.43546634 -7.41015625 1.1015625 C-5.08572606 -0.71419737 -2.823824 -0.24554991 0 0 Z " fill="#090909" transform="translate(298,147)"/>
<path d="M0 0 C1 1 1 1 1.5 4.0625 C0.78602473 9.68505528 -1.8692816 12.28453901 -6 16 C-8.56674436 17.95087872 -11.17092008 19.78176973 -13.86328125 21.5546875 C-16.08645388 22.96010556 -16.08645388 22.96010556 -18 25 C-19.11711113 22.22374749 -19.04612369 21.12562872 -17.99609375 18.265625 C-8.33478936 -0.4274251 -8.33478936 -0.4274251 0 0 Z " fill="#0A0A0A" transform="translate(205,147)"/>
<path d="M0 0 C-0.33 1.32 -0.66 2.64 -1 4 C-4.72650762 5.01009266 -8.45659459 6.00628554 -12.1875 7 C-13.24259766 7.28617188 -14.29769531 7.57234375 -15.38476562 7.8671875 C-16.40634766 8.13789063 -17.42792969 8.40859375 -18.48046875 8.6875 C-19.41785889 8.93886719 -20.35524902 9.19023437 -21.32104492 9.44921875 C-23.96253273 9.9922969 -26.31217316 10.1023122 -29 10 C-29.6875 7.6875 -29.6875 7.6875 -30 5 C-28.40534663 2.7933212 -27.38648261 2.08882232 -24.71923828 1.47583008 C-23.40802002 1.37371216 -23.40802002 1.37371216 -22.0703125 1.26953125 C-20.62978516 1.14868164 -20.62978516 1.14868164 -19.16015625 1.02539062 C-17.65775391 0.92000977 -17.65775391 0.92000977 -16.125 0.8125 C-15.13113281 0.73064453 -14.13726562 0.64878906 -13.11328125 0.56445312 C-8.72895003 0.21523263 -4.39996708 -0.04197499 0 0 Z " fill="#E22222" transform="translate(133,139)"/>
<path d="M0 0 C3.875 0.875 3.875 0.875 5 2 C4.93579251 3.62853535 4.7987936 5.25449212 4.625 6.875 C4.53476563 7.75929687 4.44453125 8.64359375 4.3515625 9.5546875 C4 12 4 12 3 15 C2.74199283 19.05223023 2.77915757 22.96204058 3.625 26.9375 C3.74875 27.618125 3.8725 28.29875 4 29 C3.34 29.66 2.68 30.32 2 31 C-1.53571429 30.46428571 -1.53571429 30.46428571 -3 29 C-3.7890686 19.71468114 -2.95410392 8.86231175 0 0 Z " fill="#ECECEC" transform="translate(216,143)"/>
<path d="M0 0 C1.98 0.495 1.98 0.495 4 1 C3.67 2.32 3.34 3.64 3 5 C1.68 4.67 0.36 4.34 -1 4 C-0.67 2.68 -0.34 1.36 0 0 Z " fill="#E4E4E4" transform="translate(218,134)"/>
<path d="M0 0 C1.53445094 3.06890187 0.54984289 5.70094266 0 9 C-2.62386487 5.93882432 -3 5.26826873 -3 1 C-2.01 0.67 -1.02 0.34 0 0 Z " fill="#171414" transform="translate(136,137)"/>
</svg>
