<?xml version="1.0" encoding="UTF-8"?>
<svg version="1.1" xmlns="http://www.w3.org/2000/svg" width="640" height="640">
<path d="M0 0 C211.2 0 422.4 0 640 0 C640 211.2 640 422.4 640 640 C428.8 640 217.6 640 0 640 C0 428.8 0 217.6 0 0 Z " fill="#FEFEFE" transform="translate(0,0)"/>
<path d="M0 0 C211.2 0 422.4 0 640 0 C640 211.2 640 422.4 640 640 C428.8 640 217.6 640 0 640 C0 428.8 0 217.6 0 0 Z M121 115 C119.74703125 116.15628906 119.74703125 116.15628906 118.46875 117.3359375 C98.51003515 136.37063778 84.45159046 165.80288369 83.74273109 193.5777216 C83.72936804 195.52296794 83.72647065 197.46830681 83.73257446 199.41358948 C83.72804335 200.49666175 83.72351224 201.57973403 83.71884382 202.69562668 C83.70628094 206.29004894 83.70781494 209.88431811 83.70947266 213.47875977 C83.70348228 216.07036024 83.69667556 218.66195893 83.68911743 221.2535553 C83.67258104 227.54286788 83.66701121 233.83214295 83.66589268 240.12147547 C83.66493854 245.24069196 83.66081011 250.3598962 83.65449142 255.47910881 C83.63689787 270.03175221 83.62764941 284.58436625 83.62915237 299.13702036 C83.62923228 299.9197846 83.6293122 300.70254884 83.62939453 301.5090332 C83.62947629 302.29276682 83.62955805 303.07650043 83.62964229 303.88398355 C83.6304543 316.57069398 83.61133313 329.25728545 83.5831178 341.94396151 C83.55429422 355.00851495 83.54058274 368.07301055 83.54230535 381.13759655 C83.54296607 388.45704774 83.53761476 395.77637426 83.51594925 403.09579659 C83.49568155 409.98651208 83.49650727 416.87696172 83.51098251 423.76769066 C83.51306006 426.28337617 83.5084334 428.79907849 83.4962616 431.31473541 C83.41573123 449.1255192 84.6775886 465.91416139 91.1875 482.6875 C91.48084229 483.4602124 91.77418457 484.2329248 92.07641602 485.02905273 C96.8653342 497.18994218 103.34404363 508.19103013 112 518 C113.06347656 519.24330078 113.06347656 519.24330078 114.1484375 520.51171875 C135.31944818 544.76552572 164.76621184 560.32010647 197 563 C205.27483375 563.38131493 213.56641876 563.29450258 221.84790039 563.29052734 C224.34788207 563.29652031 226.84786191 563.30332761 229.34783936 563.31088257 C235.40628193 563.32665044 241.46466314 563.33298761 247.52312053 563.33410732 C252.45586865 563.33506263 257.38860409 563.3391968 262.32134819 563.34550858 C276.35400643 563.3630947 290.38663426 563.37235169 304.4193036 563.37084763 C305.55064114 563.37072776 305.55064114 563.37072776 306.70483398 563.37060547 C307.45999644 563.37052371 308.2151589 563.37044195 308.99320506 563.37035771 C321.21608253 563.36954577 333.43883648 563.38866694 345.66167826 563.4168822 C358.25847985 563.44572765 370.85522143 563.45941609 383.45205683 563.45769465 C390.50550115 563.45703471 397.55881602 563.46235128 404.6122303 563.48405075 C411.25344326 563.50435365 417.89443181 563.5034708 424.53567505 563.48901749 C426.95699401 563.48694398 429.37833055 563.49154191 431.79961967 563.5037384 C450.2475593 563.59055933 468.54233489 562.40368196 485.8125 555.3125 C486.67012939 554.9721875 487.52775879 554.631875 488.41137695 554.28125 C500.75903497 549.2334292 511.97522561 542.8483978 522 534 C523.26070312 532.91912109 523.26070312 532.91912109 524.546875 531.81640625 C547.58651593 511.67417471 563.35519472 482.7346794 566 452 C566.39252736 443.50319657 566.29446786 434.98726673 566.29052734 426.48364258 C566.29651873 423.90012418 566.30332568 421.31660756 566.31088257 418.73309326 C566.32740734 412.46764833 566.33298822 406.20224106 566.33410732 399.93677614 C566.33506181 394.83759784 566.33919198 389.73843183 566.34550858 384.63925743 C566.36309729 370.14279403 566.3723511 355.64636008 566.37084763 341.14988593 C566.37076772 340.37041137 566.3706878 339.5909368 566.37060547 338.7878418 C566.37048283 337.61718209 566.37048283 337.61718209 566.37035771 336.42287268 C566.36954536 323.78404905 566.38867638 311.14534474 566.4168822 298.50655559 C566.44569778 285.49056583 566.45941776 272.4746341 566.45769465 259.45861167 C566.45703376 252.16659381 566.46239295 244.87470108 566.48405075 237.58271217 C566.50430535 230.71989255 566.50350082 223.85733992 566.48901749 216.99450684 C566.48693861 214.48807577 566.4915747 211.98162787 566.5037384 209.47522545 C566.67113169 172.56755533 555.1774579 141.43253316 529.3125 114.8125 C504.59009976 90.25353113 471.48798923 79.51775142 437.22271729 79.46899414 C434.86974936 79.47836144 432.51678304 79.48814054 430.16381836 79.49829102 C427.63014934 79.49449882 425.09648241 79.48899142 422.56282043 79.48191833 C416.44563483 79.46949653 410.3287158 79.47544408 404.21154397 79.49059392 C397.06202764 79.50761399 389.91256107 79.50422385 382.76303072 79.50049984 C369.99228797 79.49464521 357.22164435 79.50869856 344.45092773 79.53344727 C332.10681443 79.55736597 319.76283349 79.56444644 307.41870117 79.55395508 C293.92006126 79.54250276 280.42148228 79.54066841 266.92284304 79.55505317 C265.47896835 79.55657874 264.03509365 79.5580991 262.59121895 79.55961418 C261.52607587 79.5607509 261.52607587 79.5607509 260.43941475 79.56191059 C255.47576909 79.56661982 250.51215098 79.56482613 245.54850578 79.56054878 C238.84811127 79.55505969 232.14792414 79.5660307 225.44755363 79.58750343 C223.00282399 79.59302179 220.55807679 79.59358277 218.1133461 79.58855057 C180.13311618 79.52023217 149.10748958 88.4046222 121 115 Z " fill="#64A70B" transform="translate(0,0)"/>
<path d="M0 0 C0.79470703 0.00491455 1.58941406 0.0098291 2.40820312 0.01489258 C16.76029457 0.29815754 28.6353919 4.95806487 39.0546875 14.87109375 C49.35683804 25.71089861 54.09638718 37.55198233 53.83056641 52.42333984 C53.57108894 58.70775755 52.72917965 64.44134751 50.375 70.3125 C50.04628906 71.1478125 49.71757812 71.983125 49.37890625 72.84375 C43.86287234 85.21188139 33.4779776 94.52973482 21.0625 99.6875 C9.96403408 103.9067515 -4.5887231 104.31227858 -15.75 100.25 C-30.57418575 93.50309495 -40.87951898 83.07571113 -47 68 C-50.66132894 56.04274851 -50.41957021 41.47480284 -45.1640625 30.09765625 C-37.24729805 15.77112566 -26.9228267 7.28613628 -11.8046875 1.171875 C-7.80086239 0.08976011 -4.12931497 -0.03015694 0 0 Z " fill="#056A38" transform="translate(322.625,266.6875)"/>
<path d="M0 0 C8.7302478 7.20150687 16.97432779 17.37235682 18.21972656 29.0625 C19.04935824 45.18105833 16.23782545 58.62490446 5.19140625 71.03125 C-5.36878308 81.04257294 -18.03114604 84.5375265 -32.1796875 84.3125 C-41.80311783 83.52530734 -49.3897737 79.73524301 -57 74 C-57.86625 73.4225 -58.7325 72.845 -59.625 72.25 C-68.78393227 63.5731168 -73.94813932 52.33387549 -74.34326172 39.81982422 C-74.5175378 27.08158358 -71.65157153 16.68203167 -63 7 C-62.51144531 6.40832031 -62.02289063 5.81664062 -61.51953125 5.20703125 C-45.51700645 -12.69208909 -18.97840845 -13.17095989 0 0 Z " fill="#64A70C" transform="translate(353,400)"/>
<path d="M0 0 C10.78973026 7.04033993 19.53243684 17.6600637 22.26171875 30.4921875 C23.5263302 44.83724208 22.12497465 57.39618553 13.23828125 69.17578125 C5.02658264 78.79937271 -5.09754276 85.30048364 -17.85717773 86.72949219 C-31.46603118 87.57917336 -43.05465184 85.45295498 -53.74609375 76.3671875 C-62.7388927 67.90337672 -69.35532538 57.78262791 -70.109375 45.109375 C-70.46719718 31.34909231 -68.26216973 20.46740262 -58.95703125 9.7734375 C-43.06621918 -6.56500308 -20.4519211 -11.26168552 0 0 Z " fill="#64A70C" transform="translate(228.73828125,277.5078125)"/>
<path d="M0 0 C0.8046167 0.00966797 1.6092334 0.01933594 2.43823242 0.02929688 C15.42887048 0.29298586 25.35559401 4.60200284 35.0625 13.5 C43.31060435 22.44744486 47.55077701 32.61763664 47.4375 44.625 C47.44910156 45.84316406 47.44910156 45.84316406 47.4609375 47.0859375 C47.41893949 60.18931575 42.5589346 70.55184988 33.5625 79.9921875 C23.44836678 89.60726809 11.53345686 92.90798823 -2.20849609 92.79296875 C-9.14899628 92.50901903 -14.75521206 90.68276588 -20.8125 87.25 C-22.02486328 86.58097656 -22.02486328 86.58097656 -23.26171875 85.8984375 C-34.02279307 79.35775056 -40.90386143 69.39573006 -44.36816406 57.31176758 C-46.90114316 45.55846623 -45.21732514 32.55889127 -39.046875 22.3203125 C-29.71893002 8.76908535 -16.81202459 -0.21025982 0 0 Z " fill="#64A70C" transform="translate(443.8125,271.75)"/>
<path d="M0 0 C7.99411288 6.65669476 15.3105303 16.1878557 17.0546875 26.7109375 C17.79994704 42.41338262 16.42839772 55.57587916 5.8046875 67.9609375 C-3.47032636 77.70963411 -13.81476043 82.68091567 -27.31591797 83.23461914 C-42.04872973 83.45212305 -52.20851796 79.02412988 -62.87890625 68.87109375 C-67.70752244 63.79325866 -70.3669451 58.17134122 -72.9453125 51.7109375 C-73.31398438 50.95554688 -73.68265625 50.20015625 -74.0625 49.421875 C-77.55423063 38.69948095 -75.26720705 25.58878964 -70.50390625 15.7265625 C-63.86638106 3.34472897 -54.64182831 -2.99884758 -41.9453125 -8.2890625 C-27.31359495 -12.3245846 -12.12830338 -8.75192588 0 0 Z " fill="#64A70C" transform="translate(353.9453125,161.2890625)"/>
<path d="M0 0 C10.58940922 6.18917787 18.56334826 15.81169584 21.8671875 27.67578125 C23.604303 39.85692038 22.25900519 51.36501878 14.84765625 61.4140625 C7.8376144 69.70088956 -0.97314665 76.84061528 -12.10888672 77.85595703 C-25.10196893 78.65778626 -35.80103086 77.31450039 -46.0703125 68.640625 C-55.13040676 60.00951247 -60.276043 49.80595454 -60.7578125 37.17578125 C-60.3226844 25.76836893 -56.10947397 15.8510318 -48.1328125 7.67578125 C-34.77968921 -4.28304001 -16.55743364 -7.4782302 0 0 Z " fill="#CEDF02" transform="translate(237.1328125,174.32421875)"/>
<path d="M0 0 C0.79470703 -0.01160156 1.58941406 -0.02320313 2.40820312 -0.03515625 C13.93045759 0.0210956 22.81980241 4.90355821 31.25 12.5 C40.30695869 21.91585915 42.10679874 33.13616073 41.9140625 45.54296875 C41.63443622 51.60897925 39.77592076 56.25767388 36.5625 61.375 C35.94375 62.4475 35.325 63.52 34.6875 64.625 C28.09510821 73.15633055 19.61329152 79.90907868 8.5625 81.375 C-0.90571511 82.04497731 -10.2018188 82.68834271 -18.4375 77.375 C-19.18 76.9625 -19.9225 76.55 -20.6875 76.125 C-30.19067611 70.47446286 -36.30518916 61.90451949 -39.4375 51.375 C-42.31621639 39.25305819 -40.25269296 28.49203957 -33.93359375 17.83984375 C-25.68715799 6.25509183 -14.064043 -0.20432024 0 0 Z " fill="#CEDF01" transform="translate(217.4375,383.625)"/>
<path d="M0 0 C0.79341797 0.01015137 1.58683594 0.02030273 2.40429688 0.03076172 C8.08278617 0.18148705 12.95438774 0.74144017 18.0625 3.375 C18.89007813 3.78878906 19.71765625 4.20257813 20.5703125 4.62890625 C31.34453578 10.53060766 36.87924002 19.00916939 41.17578125 30.30078125 C43.98282597 40.03269399 42.08909457 50.26991959 38.0625 59.375 C32.37361239 69.20469298 24.68250719 76.24146427 14.0625 80.375 C1.90197369 83.57857951 -10.2017894 82.41634044 -21.0546875 76.296875 C-30.15363739 70.23090841 -37.59097351 61.2932497 -39.9375 50.375 C-41.34910948 37.97876414 -40.51652292 26.93959393 -32.91796875 16.63671875 C-24.11043643 6.22501242 -13.79384838 -0.25576829 0 0 Z " fill="#CEDF01" transform="translate(430.9375,170.625)"/>
<path d="M0 0 C0.88341064 0.00572021 1.76682129 0.01144043 2.67700195 0.01733398 C13.974874 0.32452688 23.25018421 4.54621539 31.3125 12.5 C39.31456718 21.78811369 43.151981 31.65487398 42.76171875 43.94140625 C41.34914894 55.13141579 35.84017388 65.97175807 27.1875 73.25 C15.43764575 81.60934905 3.51077428 83.38180367 -10.5234375 81.0234375 C-19.81257959 78.31817858 -29.23496196 71.34275668 -34.16015625 63.0078125 C-35.42033831 60.53153638 -36.59162838 58.0529294 -37.6875 55.5 C-38.23664063 54.39205078 -38.23664063 54.39205078 -38.796875 53.26171875 C-41.88225783 43.6943255 -40.7748388 31.02978097 -36.36328125 22.14453125 C-28.01516302 8.97046122 -15.81963117 -0.11874117 0 0 Z " fill="#CEDF01" transform="translate(430.6875,383.5)"/>
</svg>
