<?xml version="1.0" encoding="UTF-8"?>
<svg version="1.1" xmlns="http://www.w3.org/2000/svg" width="1000" height="1000" viewBox="0 -175 1000 1000">
<rect x="0" y="-175" width="1000" height="1000" fill="#3f752f"/>
<path d="M0 0 C330 0 660 0 1000 0 C1000 214.5 1000 429 1000 650 C670 650 340 650 0 650 C0 435.5 0 221 0 0 Z " fill="#3F752F" transform="translate(0,0)"/>
<path d="M0 0 C0.74507813 0.61488281 1.49015625 1.22976563 2.2578125 1.86328125 C3.08539063 2.52972656 3.91296875 3.19617188 4.765625 3.8828125 C19.26506849 16.1873861 29.7924449 33.79215849 31.54150391 52.97460938 C31.65728355 56.11002054 31.66788666 59.22609238 31.6328125 62.36328125 C31.64441406 63.40097656 31.65601563 64.43867188 31.66796875 65.5078125 C31.59114465 86.07106421 22.47531518 104.40107112 8.2578125 118.86328125 C7.64292969 119.49105469 7.02804687 120.11882812 6.39453125 120.765625 C-9.59013174 135.86034958 -30.36209112 140.5302188 -51.70019531 139.94775391 C-70.78108205 139.15842024 -88.64317301 129.48530539 -101.7421875 115.86328125 C-117.15303268 98.20991037 -122.89620369 77.91370826 -121.7421875 54.86328125 C-121.70996094 53.96738281 -121.67773438 53.07148438 -121.64453125 52.1484375 C-120.39862166 34.48207851 -110.00790868 18.8627422 -97.7421875 6.86328125 C-97.04738281 6.13625 -96.35257813 5.40921875 -95.63671875 4.66015625 C-70.78861449 -19.75538913 -27.25723084 -20.83561205 0 0 Z " fill="#FDFDFD" transform="translate(331.7421875,416.13671875)"/>
<path d="M0 0 C15.18 0 30.36 0 46 0 C46.01417969 6.95835937 46.02835938 13.91671875 46.04296875 21.0859375 C46.06303683 25.50656067 46.08456475 29.92708091 46.11132812 34.34765625 C46.15362614 41.35697429 46.19065492 48.36603132 46.19555664 55.37548828 C46.19984983 61.02971188 46.22839795 66.68335019 46.27343178 72.3373909 C46.28637405 74.48939219 46.29072612 76.64146364 46.28615379 78.79349899 C46.28122465 81.81918496 46.30744354 84.84317541 46.34057617 87.86865234 C46.32763771 89.18928177 46.32763771 89.18928177 46.31443787 90.53659058 C46.43501719 97.14891306 48.21741989 102.53075656 52 108 C59.82878444 114.49376832 68.19439166 114.84922691 78 114 C83.80677083 112.40070919 87.75931444 109.94674666 91.0625 104.875 C93.05071713 101.23819002 94.12097544 98.07402578 94.15821838 93.91877747 C94.1680072 93.09006638 94.17779602 92.26135529 94.18788147 91.40753174 C94.19363693 90.50194519 94.1993924 89.59635864 94.20532227 88.66333008 C94.21522186 87.70704208 94.22512146 86.75075409 94.23532104 85.76548767 C94.26694386 82.60019417 94.29169664 79.43488565 94.31640625 76.26953125 C94.3369751 74.07663072 94.35797155 71.88373417 94.37937927 69.69084167 C94.43460708 63.91557021 94.48401328 58.14026292 94.53222656 52.3649292 C94.59126224 45.43740159 94.65749415 38.50993954 94.72252655 31.58246613 C94.820545 21.05501741 94.90939503 10.5275269 95 0 C110.18 0 125.36 0 141 0 C141.12032643 22.81745598 141.12032643 22.81745598 141.14648438 32.6328125 C141.16433535 39.29922761 141.1853263 45.96551771 141.22631836 52.63183594 C141.25919947 58.01352294 141.27691293 63.39507567 141.28463173 68.77685547 C141.2901241 70.81789256 141.30084736 72.85892329 141.31719017 74.89990234 C141.5502535 105.24587951 141.5502535 105.24587951 134.3125 118.4375 C133.78922119 119.42931274 133.78922119 119.42931274 133.25537109 120.44116211 C126.34495335 133.0781968 115.72403167 141.65842735 102 146 C92.20929498 148.62039099 82.92479787 149.48583185 72.8125 149.375 C72.13945831 149.37001495 71.46641663 149.36502991 70.77297974 149.3598938 C50.06611076 149.18076599 31.77414754 147.52776749 16.18359375 132.44921875 C0.90098791 115.30754816 -0.46491071 94.67742679 -0.29296875 72.8515625 C-0.2873616 70.74165145 -0.2830968 68.63173645 -0.28010559 66.52182007 C-0.26874484 61.01453543 -0.23935477 55.50749461 -0.20599365 50.00030518 C-0.16965428 43.36795082 -0.1560898 36.73551415 -0.13863373 30.10308838 C-0.10971098 20.06855689 -0.0521627 10.03455861 0 0 Z " fill="#FCFDFB" transform="translate(627,404)"/>
<path d="M0 0 C2.11068839 0.01604901 4.21944808 0.00007328 6.33007812 -0.01904297 C23.33409814 -0.04661037 39.87772412 2.85718313 52.70507812 14.98486328 C59.75711172 23.30680331 64.19098768 33.44336053 63.74414062 44.39111328 C49.41908229 45.6196022 35.11124527 45.49360031 20.74414062 45.39111328 C20.55440674 44.77478027 20.36467285 44.15844727 20.16918945 43.5234375 C19.91161865 42.71406738 19.65404785 41.90469727 19.38867188 41.07080078 C19.13706299 40.26884277 18.8854541 39.46688477 18.6262207 38.640625 C16.92340022 34.29803215 13.92955183 32.09081158 10.01757812 29.78173828 C6.32673711 28.2137915 3.67662668 27.99003067 -0.31835938 28.01611328 C-1.50558594 28.00837891 -2.6928125 28.00064453 -3.91601562 27.99267578 C-7.49672323 28.41984792 -9.34963483 29.31821477 -12.25585938 31.39111328 C-12.85398437 31.80361328 -13.45210937 32.21611328 -14.06835938 32.64111328 C-16.08534579 35.61351432 -15.73497117 37.9175528 -15.25585938 41.39111328 C-11.30818194 47.67815513 -4.09107091 48.69275115 2.74414062 50.39111328 C4.85045295 50.85335144 6.96027428 51.29585555 9.07128906 51.73608398 C26.91992488 55.46917022 48.56730037 60.81094929 60.74414062 75.39111328 C68.02408033 87.03969464 70.63018678 98.4758992 68.06054688 111.98486328 C64.0133809 126.09116794 56.22626823 136.83954673 43.38085938 144.07861328 C30.80860933 150.33679997 18.58752282 151.77993765 4.68164062 151.70361328 C3.99605072 151.70179047 3.31046082 151.69996765 2.60409546 151.6980896 C-15.86621299 151.61535736 -35.39482182 150.14552747 -49.25585938 136.39111328 C-51.87409637 133.2118255 -54.12007332 129.90986264 -56.25585938 126.39111328 C-56.65675781 125.73240234 -57.05765625 125.07369141 -57.47070312 124.39501953 C-61.50639207 117.06986337 -63.50312573 108.7239896 -63.25585938 100.39111328 C-58.04550117 99.54724547 -52.97052661 99.19200527 -47.69726562 99.07470703 C-46.90811264 99.05392593 -46.11895966 99.03314484 -45.30589294 99.01173401 C-42.81012828 98.94688023 -40.3142676 98.88765523 -37.81835938 98.82861328 C-36.11587589 98.78536686 -34.41340176 98.74175072 -32.7109375 98.69775391 C-28.55934064 98.59126565 -24.40764819 98.48982181 -20.25585938 98.39111328 C-19.76300049 100.3977712 -19.2701416 102.40442912 -18.77728271 104.41108704 C-16.78022089 111.99462719 -13.00542597 116.16413502 -6.62304688 120.50048828 C-2.92629288 121.89134622 0.70214218 121.75978534 4.61914062 121.76611328 C5.40933594 121.79060547 6.19953125 121.81509766 7.01367188 121.84033203 C13.3591066 121.87200641 16.72910097 119.9902854 21.55664062 115.82861328 C24.08982989 112.76212101 23.92267801 109.33841008 24.07226562 105.52392578 C23.47099842 101.61568897 21.7050949 99.10752363 18.56445312 96.76611328 C11.12414623 92.97047846 3.79743181 91.02814858 -4.3215332 89.21313477 C-21.97467494 85.26338829 -41.64447185 79.40854382 -52.69335938 64.01611328 C-58.39872898 54.54487648 -59.56795657 44.55921387 -57.82226562 33.69189453 C-55.3161365 23.77634015 -48.67068655 15.10367483 -40.25585938 9.39111328 C-27.47891102 2.19665631 -14.54246059 -0.13092243 0 0 Z " fill="#FDFDFD" transform="translate(842.255859375,401.60888671875)"/>
<path d="M0 0 C40.26 0 80.52 0 122 0 C122 11.88 122 23.76 122 36 C109.46 36 96.92 36 84 36 C84 72.63 84 109.26 84 147 C68.82 147 53.64 147 38 147 C38 110.37 38 73.74 38 36 C25.46 36 12.92 36 0 36 C0 24.12 0 12.24 0 0 Z " fill="#FCFDFB" transform="translate(363,404)"/>
<path d="M0 0 C39.93 0 79.86 0 121 0 C121 11.88 121 23.76 121 36 C108.79 36 96.58 36 84 36 C84 72.63 84 109.26 84 147 C68.82 147 53.64 147 38 147 C38 110.37 38 73.74 38 36 C25.46 36 12.92 36 0 36 C0 24.12 0 12.24 0 0 Z " fill="#FCFDFC" transform="translate(89,404)"/>
<path d="M0 0 C39.93 0 79.86 0 121 0 C121 11.88 121 23.76 121 36 C108.46 36 95.92 36 83 36 C83 72.63 83 109.26 83 147 C68.15 147 53.3 147 38 147 C38 110.37 38 73.74 38 36 C25.46 36 12.92 36 0 36 C0 24.12 0 12.24 0 0 Z " fill="#FEFEFE" transform="translate(496,404)"/>
<path d="M0 0 C9.91052732 6.12816093 17.769471 13.92173278 20.69140625 25.5546875 C22.74036915 38.48876583 20.5120251 49.5827164 12.87890625 60.25 C6.08140362 68.27651538 -2.7469224 72.11460476 -12.87109375 74.31640625 C-22.5486222 75.08446406 -31.95417131 72.88478916 -39.80859375 67.00390625 C-41.19195463 65.80769108 -42.54874782 64.57974283 -43.87109375 63.31640625 C-44.71607422 62.51396484 -44.71607422 62.51396484 -45.578125 61.6953125 C-53.50865505 53.32308204 -55.67970968 44.12285735 -55.60327148 32.88330078 C-55.1459559 22.88996919 -51.36715506 14.97479103 -44.80859375 7.37890625 C-32.69069576 -3.10722181 -14.9284364 -7.45123695 0 0 Z " fill="#3F7530" transform="translate(303.87109375,443.68359375)"/>
<path d="M0 0 C8.70420955 6.05895741 13.97257077 13.61693105 17.30078125 23.6015625 C18.14494569 36.44393307 17.4119407 47.47477611 8.91796875 57.828125 C1.60308377 65.84976215 -7.4877671 70.8839428 -18.42578125 71.83984375 C-31.4216289 72.17262152 -40.03897418 67.68598003 -49.4140625 59.015625 C-57.21758732 50.87454312 -59.42739975 41.05033261 -59.21606445 30.11401367 C-58.66241044 18.59238811 -54.10785435 11.42889371 -45.69921875 3.6015625 C-42.83395705 1.29478401 -39.92479448 -0.63426882 -36.69921875 -2.3984375 C-36.08820313 -2.73746094 -35.4771875 -3.07648438 -34.84765625 -3.42578125 C-23.95765729 -8.45371694 -9.97948834 -5.89462006 0 0 Z " fill="#FDFDFD" transform="translate(520.69921875,185.3984375)"/>
<path d="M0 0 C8.70377511 5.52787094 15.3722202 12.3681969 18.26953125 22.44140625 C20.05324086 33.57020314 18.66874946 42.98766861 12.26953125 52.44140625 C11.86347656 53.06402344 11.45742188 53.68664062 11.0390625 54.328125 C5.85587246 61.35108216 -2.40502833 64.80921504 -10.73046875 66.44140625 C-21.91685013 67.71337796 -30.53566489 64.36187348 -39.31640625 57.53515625 C-46.4030088 51.38884725 -49.7364815 43.28887398 -51.08203125 34.01953125 C-51.45825332 24.37456554 -47.77555869 15.7994569 -41.73046875 8.44140625 C-31.08371072 -2.92412025 -14.49104106 -7.08505755 0 0 Z " fill="#FDFDFD" transform="translate(515.73046875,276.55859375)"/>
<path d="M0 0 C6.58386526 5.26489392 11.43543193 11.95539974 12.80615234 20.41503906 C13.90011054 30.96015389 12.51023394 39.37757579 6.46484375 48.30859375 C6.05878906 48.93121094 5.65273438 49.55382812 5.234375 50.1953125 C0.06528381 57.19916643 -8.21524242 60.72901591 -16.53515625 62.30859375 C-26.41948019 63.5273925 -34.66193009 61.32147796 -42.890625 55.69921875 C-51.20391649 48.89885273 -55.47711129 40.22649063 -56.890625 29.6484375 C-57.42192222 19.66866539 -53.68237347 11.44130546 -47.34765625 3.87109375 C-34.36422513 -9.63341153 -15.24762054 -10.1729117 0 0 Z " fill="#FDFDFD" transform="translate(611.53515625,190.69140625)"/>
<path d="M0 0 C8.55999983 4.96706912 14.49835595 12.0770991 17.65234375 21.5390625 C18.83023981 40.88745349 18.83023981 40.88745349 13.65234375 48.5390625 C13.16636719 49.30476563 12.68039062 50.07046875 12.1796875 50.859375 C7.25484599 57.9148217 1.15714565 61.70377284 -6.72265625 64.9140625 C-18.59356908 66.96077161 -28.34901997 65.28526079 -38.20703125 58.33984375 C-44.2296783 53.27334687 -49.45381714 46.32075565 -50.6796875 38.39135742 C-51.48352257 27.77365528 -50.97908991 18.32196744 -44.34765625 9.5390625 C-32.65289069 -3.49101699 -15.94881395 -7.66399382 0 0 Z " fill="#FDFDFD" transform="translate(516.34765625,97.4609375)"/>
<path d="M0 0 C7.988033 4.34066699 14.94825572 10.54973656 18.40625 19.1796875 C20.5881997 28.85727616 20.90351967 40.49973635 15.55078125 49.12109375 C15.06222656 49.78238281 14.57367188 50.44367188 14.0703125 51.125 C13.61269531 51.77597656 13.15507812 52.42695313 12.68359375 53.09765625 C6.97517785 60.46385869 -0.87238046 64.40542432 -9.9296875 66.125 C-19.84168385 67.34721093 -27.99249297 65.09297578 -36.28515625 59.55078125 C-42.9167782 54.21313432 -46.66785543 47.25776141 -48.9296875 39.125 C-50.05880643 28.33322871 -49.57909604 19.1774802 -42.9296875 10.125 C-31.92401305 -2.17784418 -15.39796396 -7.31784426 0 0 Z " fill="#FDFDFD" transform="translate(424.9296875,186.875)"/>
<path d="M0 0 C7.71842104 4.40453374 13.89870334 10.92751262 17.15625 19.23046875 C19.54739089 29.15448488 18.21153264 37.32237361 13.15625 46.23046875 C7.82228192 53.35015658 0.84953915 57.48218735 -7.84375 59.23046875 C-17.96656439 60.1906273 -25.15409403 58.85516312 -33.09765625 52.3984375 C-39.73725002 46.19903779 -43.24474654 39.71148982 -44.08203125 30.65234375 C-44.34252737 21.27448348 -41.43952463 14.44037876 -35.69140625 7.08984375 C-26.45587959 -2.20425919 -12.1950235 -4.84615673 0 0 Z " fill="#FCFDFC" transform="translate(592.84375,109.76953125)"/>
<path d="M0 0 C1.36125 0.8353125 1.36125 0.8353125 2.75 1.6875 C9.02738603 8.13925787 12.86563932 16.25660046 13.375 25.25 C13.10010373 34.22994492 9.43549094 41.63201508 3.2890625 48.0546875 C-4.06741203 54.30643548 -12.22645152 56.49878008 -21.69921875 56.40625 C-29.82041841 55.40671773 -37.14911003 50.87037138 -42.6015625 44.859375 C-48.47186084 37.05417386 -49.9397584 28.62259659 -49 19 C-46.2153982 9.08681758 -40.16300182 2.1570431 -31.3671875 -2.87109375 C-21.27982989 -7.68173129 -9.0529005 -6.04113788 0 0 Z " fill="#FCFDFC" transform="translate(598,273)"/>
<path d="M0 0 C1.48683706 0.89160413 2.94948467 1.82581444 4.375 2.8125 C4.95636719 3.19664062 5.53773438 3.58078125 6.13671875 3.9765625 C11.80796446 8.17642708 15.89784421 14.9638686 17.375 21.8125 C18.33679828 31.01616969 16.79478838 38.9564005 11.421875 46.5859375 C5.20253374 54.00130593 -1.60529655 57.97732444 -11.21875 59.12109375 C-20.6664864 59.54014657 -27.81139372 56.94181911 -35.015625 50.76171875 C-41.00154222 44.52084579 -44.72085283 37.54500158 -45.0625 28.8125 C-44.58480692 19.27356639 -41.5299718 11.52531118 -34.625 4.8125 C-24.63936827 -2.40018696 -11.59946805 -5.64920657 0 0 Z " fill="#FCFDFC" transform="translate(433.625,270.1875)"/>
<path d="M0 0 C9.31975127 4.74099533 14.6704312 12.16355594 18.01953125 22.02734375 C19.01603102 30.56877033 17.37669513 37.66222545 13.33203125 45.15234375 C7.43912213 52.4786632 0.46644773 58.32258766 -9.125 59.37109375 C-18.95585257 59.64576251 -25.65940128 58.29147727 -33.23046875 51.90234375 C-39.10220385 46.30456208 -43.44465931 39.9933758 -44.18359375 31.765625 C-44.37281868 21.97323475 -41.655678 13.38478881 -34.98046875 6.02734375 C-24.5399332 -1.9486877 -12.70527773 -5.11511181 0 0 Z " fill="#FCFDFC" transform="translate(432.98046875,109.97265625)"/>
<path d="M0 0 C0 3 0 3 -1.93359375 5.19140625 C-2.75988281 5.97386719 -3.58617187 6.75632812 -4.4375 7.5625 C-7.63841178 10.46895693 -7.63841178 10.46895693 -10 14 C-10.66 13.67 -11.32 13.34 -12 13 C-8.43679155 7.90789714 -4.95258714 3.77339973 0 0 Z " fill="#497C39" transform="translate(265,447)"/>
</svg>
