<?xml version="1.0" encoding="UTF-8"?>
<svg version="1.1" xmlns="http://www.w3.org/2000/svg" width="225" height="225">
<path d="M0 0 C74.25 0 148.5 0 225 0 C225 74.25 225 148.5 225 225 C150.75 225 76.5 225 0 225 C0 150.75 0 76.5 0 0 Z " fill="#FEFEFE" transform="translate(0,0)"/>
<path d="M0 0 C8.82658964 0.39319677 17.50399489 1.24712251 26.25 2.5 C27.16676514 2.63059814 28.08353027 2.76119629 29.02807617 2.89575195 C32.48887077 3.40641401 35.67299701 3.890999 39 5 C41.3910898 12.1821253 42.08867215 19.83942476 43.125 27.3125 C43.30675781 28.58673828 43.48851563 29.86097656 43.67578125 31.17382812 C45 40.57777256 45 40.57777256 45 44 C37.7475182 44.28581209 30.89415001 43.18006049 23.75 42 C21.43273089 41.62229534 19.11503751 41.24718205 16.796875 40.875 C15.27078613 40.62363281 15.27078613 40.62363281 13.71386719 40.3671875 C10.79578536 39.91061414 10.79578536 39.91061414 7 40 C9.06637346 41.52479012 11.13299675 43.04923963 13.19995117 44.57324219 C14.94415958 45.85959792 16.68781065 47.1467097 18.4309082 48.43457031 C22.17279247 51.19606199 25.91399159 53.95513703 29.7109375 56.640625 C30.69320312 57.33671875 31.67546875 58.0328125 32.6875 58.75 C33.53699219 59.34296875 34.38648438 59.9359375 35.26171875 60.546875 C35.83535156 61.02640625 36.40898438 61.5059375 37 62 C37 62.66 37 63.32 37 64 C35.43041992 65.38525391 35.43041992 65.38525391 33.23046875 66.9765625 C32.42843018 67.56163574 31.6263916 68.14670898 30.80004883 68.74951172 C29.93790771 69.36842285 29.0757666 69.98733398 28.1875 70.625 C27.32342529 71.25293457 26.45935059 71.88086914 25.5690918 72.52783203 C23.04990514 74.35726665 20.5251211 76.17877062 18 78 C16.762292 78.90004025 15.52520848 79.80094062 14.2890625 80.703125 C11.86276119 82.47349708 9.43330304 84.23927286 7 86 C9.37521917 85.71003818 11.7501969 85.41833896 14.125 85.125 C14.84623047 85.03621582 15.56746094 84.94743164 16.31054688 84.85595703 C22.13008692 84.13042717 27.9255813 83.28115829 33.71875 82.3671875 C37.52130481 81.94166351 41.17541945 81.94179986 45 82 C44.91435791 82.73524902 44.82871582 83.47049805 44.74047852 84.22802734 C44.34699222 87.61025595 43.95473857 90.99262647 43.5625 94.375 C43.42779297 95.53128906 43.29308594 96.68757813 43.15429688 97.87890625 C42.37808235 104.58085606 41.64396077 111.2839978 41 118 C52.23199873 103.67471123 52.23199873 103.67471123 63 89 C67.70215177 93.3541747 71.31930747 98.31589666 75.0625 103.5 C76.28163227 105.1777521 77.50165942 106.85485436 78.72265625 108.53125 C79.57174561 109.69720703 79.57174561 109.69720703 80.43798828 110.88671875 C82.22933026 113.31026614 84.08671117 115.6716086 86 118 C85.32772203 105.92217849 83.63174555 93.97790263 82 82 C91.19715114 82.44158507 100.1609675 83.52350857 109.24511719 84.98364258 C110.06399414 85.11407959 110.88287109 85.2445166 111.7265625 85.37890625 C112.45439941 85.4982251 113.18223633 85.61754395 113.93212891 85.74047852 C116.31412887 86.08301662 116.31412887 86.08301662 120 86 C117.93362654 84.47520988 115.86700325 82.95076037 113.80004883 81.42675781 C112.05584042 80.14040208 110.31218935 78.8532903 108.5690918 77.56542969 C104.82720753 74.80393801 101.08600841 72.04486297 97.2890625 69.359375 C95.81566406 68.31523437 95.81566406 68.31523437 94.3125 67.25 C93.46300781 66.65703125 92.61351562 66.0640625 91.73828125 65.453125 C91.16464844 64.97359375 90.59101563 64.4940625 90 64 C90 63.34 90 62.68 90 62 C91.56958008 60.61474609 91.56958008 60.61474609 93.76953125 59.0234375 C94.57156982 58.43836426 95.3736084 57.85329102 96.19995117 57.25048828 C97.06209229 56.63157715 97.9242334 56.01266602 98.8125 55.375 C99.67657471 54.74706543 100.54064941 54.11913086 101.4309082 53.47216797 C103.95009486 51.64273335 106.4748789 49.82122938 109 48 C110.237708 47.09995975 111.47479152 46.19905938 112.7109375 45.296875 C115.13723881 43.52650292 117.56669696 41.76072714 120 40 C117.45804072 40.28927866 114.91639471 40.58082449 112.375 40.875 C111.60752441 40.96378418 110.84004883 41.05256836 110.04931641 41.14404297 C104.06011381 41.8485822 98.10598282 42.6951843 92.1484375 43.6328125 C88.74041356 44.03027435 85.42806649 44.0604445 82 44 C82.96838372 34.46426853 84.07750946 24.97057505 85.5625 15.5 C85.68923096 14.68168701 85.81596191 13.86337402 85.9465332 13.02026367 C86.87332624 7.25334752 86.87332624 7.25334752 88 5 C91.25236414 3.99045458 94.64898022 3.52661644 98 2.9375 C98.90234375 2.76412109 99.8046875 2.59074219 100.734375 2.41210938 C109.59497859 0.81499782 117.8202842 0.53998328 127 0 C124.525 19.8 124.525 19.8 122 40 C123.32 40.66 124.64 41.32 126 42 C127.44216514 42.98660142 128.86289292 44.00497031 130.265625 45.046875 C131.07386719 45.645 131.88210937 46.243125 132.71484375 46.859375 C133.96974609 47.79523438 133.96974609 47.79523438 135.25 48.75 C136.48169922 49.66265625 136.48169922 49.66265625 137.73828125 50.59375 C139.3690503 51.80325858 140.99735138 53.01610249 142.62304688 54.23242188 C144.20360404 55.40777458 145.79350143 56.57067327 147.39257812 57.72070312 C148.12412109 58.25115234 148.85566406 58.78160156 149.609375 59.328125 C150.26389648 59.79637695 150.91841797 60.26462891 151.59277344 60.74707031 C152.28935059 61.36727051 152.28935059 61.36727051 153 62 C153 62.66 153 63.32 153 64 C151.41455078 65.38525391 151.41455078 65.38525391 149.1953125 66.9765625 C148.38827881 67.56163574 147.58124512 68.14670898 146.74975586 68.74951172 C145.88358643 69.36842285 145.01741699 69.98733398 144.125 70.625 C137.8375567 75.17296595 131.65796166 79.74955066 125.71484375 84.7421875 C124 86 124 86 122 86 C122.22719727 87.60439941 122.22719727 87.60439941 122.45898438 89.24121094 C123.02084328 93.21412997 123.57908002 97.18755098 124.13623047 101.16113281 C124.37775673 102.88002175 124.62026174 104.59877347 124.86376953 106.31738281 C125.21384693 108.78935791 125.56038801 111.26180704 125.90625 113.734375 C126.07030334 114.88459137 126.07030334 114.88459137 126.2376709 116.05804443 C126.70509811 119.42210959 127 122.59506501 127 126 C119.44344831 126.30378097 112.20767588 125.1378722 104.75 124 C102.2451687 123.62248978 99.73997382 123.24738199 97.234375 122.875 C96.13319336 122.70742187 95.03201172 122.53984375 93.89746094 122.3671875 C90.82539541 121.91618545 90.82539541 121.91618545 87 122 C85.29889322 123.56079168 85.29889322 123.56079168 83.86328125 125.734375 C83.28980957 126.53125732 82.71633789 127.32813965 82.12548828 128.14916992 C81.52720215 129.00744385 80.92891602 129.86571777 80.3125 130.75 C79.0668211 132.49118228 77.82072691 134.23206753 76.57421875 135.97265625 C75.96755371 136.82875488 75.36088867 137.68485352 74.73583984 138.56689453 C72.41878468 141.8146824 70.03260524 145.00657295 67.625 148.1875 C66.91601562 149.12980469 66.20703125 150.07210937 65.4765625 151.04296875 C64.98929687 151.68878906 64.50203125 152.33460938 64 153 C59.33713996 148.67272459 55.72437135 143.76590575 52 138.625 C51.39671875 137.8 50.7934375 136.975 50.171875 136.125 C49.28242188 134.90683594 49.28242188 134.90683594 48.375 133.6640625 C47.79685547 132.87660645 47.21871094 132.08915039 46.62304688 131.27783203 C45.58952145 129.82735186 44.591272 128.35059296 43.64257812 126.84326172 C42.31216481 124.67116921 42.31216481 124.67116921 40 122 C37.36516678 121.25741603 37.36516678 121.25741603 34.5 121.875 C33.37464844 122.02582031 32.24929687 122.17664063 31.08984375 122.33203125 C30.4541748 122.43596191 29.81850586 122.53989258 29.16357422 122.64697266 C25.74317528 123.20507431 22.31040255 123.67435 18.87890625 124.15869141 C17.0298916 124.42379805 15.18214364 124.69792731 13.3359375 124.98193359 C12.47355469 125.11293457 11.61117187 125.24393555 10.72265625 125.37890625 C9.95703369 125.4982251 9.19141113 125.61754395 8.40258789 125.74047852 C5.58885817 126.0444105 2.82788245 126.04058429 0 126 C0.62368488 117.01643884 1.74700705 108.15630561 3.0625 99.25 C3.24876953 97.96867187 3.43503906 96.68734375 3.62695312 95.3671875 C4.08140254 92.24430437 4.53913882 89.12194219 5 86 C4.42797852 85.7328418 3.85595703 85.46568359 3.26660156 85.19042969 C0.90585205 83.95055306 -1.12570462 82.54258967 -3.265625 80.953125 C-4.07386719 80.355 -4.88210937 79.756875 -5.71484375 79.140625 C-6.55144531 78.51671875 -7.38804688 77.8928125 -8.25 77.25 C-9.07113281 76.6415625 -9.89226563 76.033125 -10.73828125 75.40625 C-15.83947034 71.62280072 -20.92292747 67.81573182 -26 64 C-24.83937117 60.51811352 -23.97451985 59.97996086 -21.0625 57.890625 C-20.24910156 57.30023438 -19.43570312 56.70984375 -18.59765625 56.1015625 C-17.74042969 55.49054688 -16.88320313 54.87953125 -16 54.25 C-14.33244256 53.04810993 -12.66577315 51.84498681 -11 50.640625 C-10.175 50.04701172 -9.35 49.45339844 -8.5 48.84179688 C-5.19835188 46.4094108 -1.9998418 43.85612196 1.1875 41.27636719 C3 40 3 40 5 40 C4.84853516 39.00145996 4.69707031 38.00291992 4.54101562 36.97412109 C3.97748731 33.25114915 3.41977504 29.52732487 2.86376953 25.80322266 C2.62283035 24.19491318 2.38033778 22.58683558 2.13623047 20.97900391 C1.78459528 18.66108217 1.43864945 16.34236987 1.09375 14.0234375 C0.9843811 13.31069672 0.87501221 12.59795593 0.7623291 11.86361694 C0.17507572 7.87295251 -0.11032814 4.03249352 0 0 Z " fill="#F37021" transform="translate(49,50)"/>
<path d="M0 0 C4.70215177 4.3541747 8.31930747 9.31589666 12.0625 14.5 C13.28163227 16.1777521 14.50165942 17.85485436 15.72265625 19.53125 C16.28871582 20.31113281 16.85477539 21.09101562 17.43798828 21.89453125 C18.72069418 23.62351776 20.06878257 25.3038118 21.43359375 26.96875 C23 29 23 29 23 31 C24.98 31 26.96 31 29 31 C27.68 31.33 26.36 31.66 25 32 C24.78065796 33.55895996 24.78065796 33.55895996 24.55688477 35.14941406 C24.01296633 39.01120948 23.46625291 42.87260493 22.91870117 46.73388672 C22.68226279 48.40402652 22.446579 50.07427332 22.21166992 51.74462891 C21.87357499 54.14774763 21.53275395 56.55046643 21.19140625 58.953125 C21.08719864 59.69806213 20.98299103 60.44299927 20.87562561 61.21051025 C20.40269092 64.52212444 19.91569111 67.77853249 19 71 C20.00377686 70.84853516 21.00755371 70.69707031 22.04174805 70.54101562 C25.77785455 69.97824581 29.51466749 69.42029379 33.25170898 68.86376953 C34.86681367 68.62256416 36.48172573 68.38006523 38.09643555 68.13623047 C40.42186436 67.78530342 42.74795378 67.43908519 45.07421875 67.09375 C45.79212082 66.9843811 46.51002289 66.87501221 47.24967957 66.7623291 C50.86407452 66.23050538 54.34569559 65.87538604 58 66 C53.6458253 70.70215177 48.68410334 74.31930747 43.5 78.0625 C41.8222479 79.28163227 40.14514564 80.50165942 38.46875 81.72265625 C37.29892578 82.57174561 37.29892578 82.57174561 36.10546875 83.43798828 C34.37648224 84.72069418 32.6961882 86.06878257 31.03125 87.43359375 C29 89 29 89 27 89 C27 89.66 27 90.32 27 91 C27.57202148 91.2671582 28.14404297 91.53431641 28.73339844 91.80957031 C31.09414795 93.04944694 33.12570462 94.45741033 35.265625 96.046875 C36.07386719 96.645 36.88210937 97.243125 37.71484375 97.859375 C38.55144531 98.48328125 39.38804687 99.1071875 40.25 99.75 C41.07113281 100.3584375 41.89226562 100.966875 42.73828125 101.59375 C44.36842576 102.80279537 45.9967156 104.01434579 47.62304688 105.22851562 C49.208546 106.41014891 50.7984161 107.58593966 52.39257812 108.75585938 C53.12412109 109.29533203 53.85566406 109.83480469 54.609375 110.390625 C55.26389648 110.87047852 55.91841797 111.35033203 56.59277344 111.84472656 C57.28935059 112.41658691 57.28935059 112.41658691 58 113 C58 113.33 58 113.66 58 114 C49.17595624 113.39245952 40.49001074 112.2802921 31.75 110.9375 C30.51636719 110.75123047 29.28273438 110.56496094 28.01171875 110.37304688 C25.0072596 109.91888445 22.00339338 109.46114843 19 109 C19.29648438 110.26714844 19.59296875 111.53429687 19.8984375 112.83984375 C21.0544702 118.05014635 21.87532885 123.28037827 22.625 128.5625 C22.7590625 129.45646484 22.893125 130.35042969 23.03125 131.27148438 C23.79165159 136.57489753 24.13751758 141.64306507 24 147 C21.29146232 144.38797216 18.94164034 141.73612876 16.72265625 138.69921875 C16.12646484 137.88646484 15.53027344 137.07371094 14.91601562 136.23632812 C14.30435547 135.39521484 13.69269531 134.55410156 13.0625 133.6875 C12.45470703 132.85798828 11.84691406 132.02847656 11.22070312 131.17382812 C7.78091263 126.47241005 4.37623478 121.74722955 1 117 C-1.72020875 119.61995353 -4.06285358 122.27877114 -6.27734375 125.3359375 C-6.87353516 126.15320313 -7.46972656 126.97046875 -8.08398438 127.8125 C-8.69564453 128.658125 -9.30730469 129.50375 -9.9375 130.375 C-17.94829607 141.41851526 -17.94829607 141.41851526 -22 146 C-22.33 146 -22.66 146 -23 146 C-22.31815695 137.91441851 -21.42356986 129.86619017 -20.4375 121.8125 C-20.29892578 120.66974609 -20.16035156 119.52699219 -20.01757812 118.34960938 C-19.67984533 115.56622527 -19.34062888 112.7830309 -19 110 C-27.9698532 110.46967741 -36.6649467 111.46299024 -45.51293945 112.98364258 C-49.38987972 113.64000212 -53.04931788 114.18282835 -57 114 C-52.6458253 109.29784823 -47.68410334 105.68069253 -42.5 101.9375 C-40.8222479 100.71836773 -39.14514564 99.49834058 -37.46875 98.27734375 C-36.68886719 97.71128418 -35.90898438 97.14522461 -35.10546875 96.56201172 C-33.37648224 95.27930582 -31.6961882 93.93121743 -30.03125 92.56640625 C-28 91 -28 91 -26 91 C-26 90.34 -26 89.68 -26 89 C-26.57202148 88.7328418 -27.14404297 88.46568359 -27.73339844 88.19042969 C-30.09414795 86.95055306 -32.12570462 85.54258967 -34.265625 83.953125 C-35.07386719 83.355 -35.88210937 82.756875 -36.71484375 82.140625 C-37.55144531 81.51671875 -38.38804688 80.8928125 -39.25 80.25 C-40.07113281 79.6415625 -40.89226562 79.033125 -41.73828125 78.40625 C-43.36842576 77.19720463 -44.9967156 75.98565421 -46.62304688 74.77148438 C-48.208546 73.58985109 -49.7984161 72.41406034 -51.39257812 71.24414062 C-52.12412109 70.70466797 -52.85566406 70.16519531 -53.609375 69.609375 C-54.26389648 69.12952148 -54.91841797 68.64966797 -55.59277344 68.15527344 C-56.0571582 67.7740332 -56.52154297 67.39279297 -57 67 C-57 66.67 -57 66.34 -57 66 C-48.58597838 66.74314346 -40.23822997 67.888495 -31.875 69.0625 C-30.52346193 69.25082642 -29.17189957 69.43897865 -27.8203125 69.62695312 C-24.54663303 70.08292991 -21.27320795 70.5406528 -18 71 C-18.11972168 70.29907227 -18.23944336 69.59814453 -18.36279297 68.87597656 C-19.7191413 60.84818017 -20.94425406 52.80531116 -22.125 44.75 C-22.30675781 43.51636719 -22.48851562 42.28273437 -22.67578125 41.01171875 C-23.11819544 38.00795925 -23.55958504 35.00405316 -24 32 C-24.99 31.67 -25.98 31.34 -27 31 C-25.35 31 -23.7 31 -22 31 C-21.7328418 30.42797852 -21.46568359 29.85595703 -21.19042969 29.26660156 C-19.95055306 26.90585205 -18.54258967 24.87429538 -16.953125 22.734375 C-16.355 21.92613281 -15.756875 21.11789063 -15.140625 20.28515625 C-14.51671875 19.44855469 -13.8928125 18.61195312 -13.25 17.75 C-12.33734375 16.51830078 -12.33734375 16.51830078 -11.40625 15.26171875 C-7.62280072 10.16052966 -3.81573182 5.07707253 0 0 Z " fill="#FEFCFB" transform="translate(112,23)"/>
<path d="M0 0 C4.66286004 4.32727541 8.27562865 9.23409425 12 14.375 C12.60328125 15.2 13.2065625 16.025 13.828125 16.875 C15.00861402 18.4917567 16.18203507 20.11370246 17.34765625 21.74121094 C18.40249538 23.18319847 19.49111008 24.60146192 20.62109375 25.98535156 C22.0625 27.7890625 22.0625 27.7890625 24 31 C22.93649092 34.87103121 20.92071193 37.69226566 18.48046875 40.8359375 C17.78759766 41.73570313 17.09472656 42.63546875 16.38085938 43.5625 C15.65705078 44.490625 14.93324219 45.41875 14.1875 46.375 C12.76337257 48.21541084 11.3401753 50.05654187 9.91796875 51.8984375 C9.24556152 52.76823242 8.5731543 53.63802734 7.88037109 54.53417969 C5.5118719 57.64010567 3.24214142 60.8019751 1 64 C-3.66286004 59.67272459 -7.27562865 54.76590575 -11 49.625 C-11.60328125 48.8 -12.2065625 47.975 -12.828125 47.125 C-14.00861402 45.5082433 -15.18203507 43.88629754 -16.34765625 42.25878906 C-17.40249538 40.81680153 -18.49111008 39.39853808 -19.62109375 38.01464844 C-21.0625 36.2109375 -21.0625 36.2109375 -23 33 C-21.93649092 29.12896879 -19.92071193 26.30773434 -17.48046875 23.1640625 C-16.78759766 22.26429687 -16.09472656 21.36453125 -15.38085938 20.4375 C-14.65705078 19.509375 -13.93324219 18.58125 -13.1875 17.625 C-11.76337257 15.78458916 -10.3401753 13.94345813 -8.91796875 12.1015625 C-8.24556152 11.23176758 -7.5731543 10.36197266 -6.88037109 9.46582031 C-4.5118719 6.35989433 -2.24214142 3.1980249 0 0 Z " fill="#F37021" transform="translate(112,23)"/>
</svg>
