<?xml version="1.0" encoding="UTF-8"?>
<svg version="1.1" xmlns="http://www.w3.org/2000/svg" width="345" height="345" viewBox="0 -99.5 345 345">
<rect x="0" y="-99.5" width="345" height="345" fill="#dc0208"/>
<path d="M0 0 C113.85 0 227.7 0 345 0 C345 48.18 345 96.36 345 146 C231.15 146 117.3 146 0 146 C0 97.82 0 49.64 0 0 Z " fill="#DC0208" transform="translate(0,0)"/>
<path d="M0 0 C0.495 0.99 0.495 0.99 1 2 C0.67 2.66 0.34 3.32 0 4 C-0.5160352 10.19242235 -0.03334408 13.03588421 4 18 C5.78485399 20.04324043 7.57749124 22.073342 9.4140625 24.0703125 C13.93729906 29.57395501 13.57837165 35.1227996 13 42 C11.75930275 47.28265626 8.55844657 51.05685651 5 55 C12.36807672 53.66034969 18.74525765 50.96572975 23.609375 45.0390625 C28.42266872 37.64924096 29.8225405 30.7613026 29 22 C28.29019083 19.16562504 27.27018278 16.62618872 26 14 C25.443125 12.845 24.88625 11.69 24.3125 10.5 C23.879375 9.675 23.44625 8.85 23 8 C29.39476248 10.50354236 33.09230356 17.39867207 36.18359375 23.234375 C40.13492867 33.29231844 38.81951707 44.32050271 34.60546875 54.0234375 C29.56727126 63.36432919 21.91927282 69.24554256 12.14453125 73.13671875 C0.70355027 76.27765887 -10.14518989 73.82287487 -20.25 68.1875 C-28.45527214 61.66057898 -33.45550229 55.35974067 -36 45 C-37.35976462 32.9546515 -35.81644756 24.16344576 -29 14 C-27.10238453 11.68252167 -25.31355167 9.91855505 -23 8 C-22.34 8.33 -21.68 8.66 -21 9 C-21.34933594 9.54269531 -21.69867188 10.08539063 -22.05859375 10.64453125 C-22.51363281 11.35996094 -22.96867188 12.07539062 -23.4375 12.8125 C-23.88996094 13.52019531 -24.34242188 14.22789063 -24.80859375 14.95703125 C-28.34046795 21.013327 -27.68622244 28.8511873 -26.57421875 35.57421875 C-24.50711123 42.84079918 -19.77959618 48.57115003 -13.3125 52.4375 C-8.20859429 54.84500269 -4.6787625 55.10920697 1 55 C1.52181194 47.5784058 1.52181194 47.5784058 -0.6875 40.625 C-2.2560577 38.84447505 -3.88460811 37.11539189 -5.5625 35.4375 C-10.2256711 30.7743289 -11.44600524 27.29510872 -11.5 20.6875 C-11.45185898 14.2785329 -10.49417842 9.71482284 -6 5 C-4.06904233 3.16400746 -2.14482962 1.59615228 0 0 Z " fill="#FBF8F8" transform="translate(172,36)"/>
<path d="M0 0 C6.39476248 2.50354236 10.09230356 9.39867207 13.18359375 15.234375 C17.34231482 25.82021045 15.44632147 36.51661836 11.09375 46.6484375 C10.7328125 47.42445312 10.371875 48.20046875 10 49 C9.01 49 8.02 49 7 49 C7.57634139 44.24518354 9.55068521 41.02951788 12 37 C8.535 37.495 8.535 37.495 5 38 C4.67 38.99 4.34 39.98 4 41 C3.34 41 2.68 41 2 41 C1.67 41.66 1.34 42.32 1 43 C0.34 43 -0.32 43 -1 43 C-2.7275749 44.05574022 -4.45415173 45.11427988 -6.1484375 46.22265625 C-8.48338124 47.20293854 -9.65525026 46.82117887 -12 46 C-11.02160156 45.50693359 -11.02160156 45.50693359 -10.0234375 45.00390625 C-2.20140524 40.7467825 1.57842519 36.06329279 5.375 28.125 C6.95150835 20.24245824 6.5021706 13.24097434 3 6 C2.443125 4.845 1.88625 3.69 1.3125 2.5 C0.879375 1.675 0.44625 0.85 0 0 Z " fill="#F9F3F0" transform="translate(195,44)"/>
<path d="M0 0 C0.33 0.99 0.66 1.98 1 3 C1.763125 3.144375 2.52625 3.28875 3.3125 3.4375 C6 4 6 4 9 5 C9.33 4.34 9.66 3.68 10 3 C10 3.99 10 4.98 10 6 C4.72222324 10.90346635 -1.01853689 12.89183125 -8 14 C-7.38511719 13.23816406 -7.38511719 13.23816406 -6.7578125 12.4609375 C-3.60713656 8.4359113 -1.26203939 5.04815754 0 0 Z " fill="#DD0D13" transform="translate(184,78)"/>
<path d="M0 0 C0.66 0.99 1.32 1.98 2 3 C3.32 3 4.64 3 6 3 C5.67 2.01 5.34 1.02 5 0 C6.32 0 7.64 0 9 0 C7.68775452 3.93673644 6.08089673 6.22719294 3 9 C4.65 9 6.3 9 8 9 C8 9.66 8 10.32 8 11 C6.68 11 5.36 11 4 11 C3.67 11.99 3.34 12.98 3 14 C0.9375 12.625 0.9375 12.625 -1 10 C-1.05863115 6.59939315 -0.58718592 3.34440677 0 0 Z " fill="#F9F2EC" transform="translate(174,82)"/>
<path d="M0 0 C0.66 0 1.32 0 2 0 C1.67 0.99 1.34 1.98 1 3 C1.00717787 6.21927558 1.07568445 9.42288196 1.21484375 12.63867188 C1.2578125 14.62890625 1.2578125 14.62890625 1 18 C0.01 18.66 -0.98 19.32 -2 20 C-2 20.66 -2 21.32 -2 22 C-3.32 21.67 -4.64 21.34 -6 21 C-5.71812064 19.20676747 -5.4241719 17.41542874 -5.125 15.625 C-4.96257812 14.62726563 -4.80015625 13.62953125 -4.6328125 12.6015625 C-4 10 -4 10 -2 8 C-1.32707499 6.03309626 -1.32707499 6.03309626 -0.875 3.875 C-0.441875 1.956875 -0.441875 1.956875 0 0 Z " fill="#DD0912" transform="translate(214,64)"/>
<path d="M0 0 C0.33 0.66 0.66 1.32 1 2 C1.66 2 2.32 2 3 2 C2.95875 2.7425 2.9175 3.485 2.875 4.25 C2.79807938 6.98837324 2.79807938 6.98837324 4.125 9.0625 C4.41375 9.701875 4.7025 10.34125 5 11 C4.0546875 13.12109375 4.0546875 13.12109375 3 15 C-1.8434238 8.02892932 -1.8434238 8.02892932 -2.4375 4.125 C-2 2 -2 2 0 0 Z " fill="#F8EFED" transform="translate(163,57)"/>
<path d="M0 0 C0.33 0.99 0.66 1.98 1 3 C1.556875 4.175625 1.556875 4.175625 2.125 5.375 C3.12619262 8.37857786 2.85806331 9.99677843 2 13 C0.35 13.33 -1.3 13.66 -3 14 C-3.34615998 8.34605369 -2.43425238 4.96993194 0 0 Z " fill="#DF090F" transform="translate(147,49)"/>
<path d="M0 0 C0.66 0.33 1.32 0.66 2 1 C1.20890398 2.27118864 0.41709922 3.54193623 -0.375 4.8125 C-1.03628906 5.87404297 -1.03628906 5.87404297 -1.7109375 6.95703125 C-2.78188476 8.65432039 -3.88676239 10.33014358 -5 12 C-5.66 11.67 -6.32 11.34 -7 11 C-7.33 12.65 -7.66 14.3 -8 16 C-8.99 16.33 -9.98 16.66 -11 17 C-9.27482021 10.09928082 -5.04663688 4.86586183 0 0 Z " fill="#F5EAE9" transform="translate(149,44)"/>
<path d="M0 0 C4.03630268 1.52724966 5.78985046 4.03756731 8.25 7.5 C8.95640625 8.4796875 9.6628125 9.459375 10.390625 10.46875 C12 13 12 13 12 15 C10.68 14.34 9.36 13.68 8 13 C7.67 13.33 7.34 13.66 7 14 C4.66666667 9.33333333 2.33333333 4.66666667 0 0 Z " fill="#F4DBD3" transform="translate(195,44)"/>
<path d="M0 0 C0.66 0 1.32 0 2 0 C1.94004678 1.79260132 1.8512759 3.58425795 1.75 5.375 C1.70359375 6.37273438 1.6571875 7.37046875 1.609375 8.3984375 C1 11 1 11 -1.046875 12.3515625 C-1.69140625 12.56554687 -2.3359375 12.77953125 -3 13 C-3.6875 9.6875 -3.6875 9.6875 -4 6 C-2.625 4.25 -2.625 4.25 -1 3 C-0.67 2.01 -0.34 1.02 0 0 Z " fill="#FAFAFB" transform="translate(142,55)"/>
<path d="M0 0 C0.99 1.485 0.99 1.485 2 3 C3.57779382 5.02742418 5.16320999 7.04826525 6.7578125 9.0625 C8 11 8 11 8 14 C6.68 14.33 5.36 14.66 4 15 C3.67 12.36 3.34 9.72 3 7 C2.01 6.67 1.02 6.34 0 6 C0 4.02 0 2.04 0 0 Z " fill="#F9EDE8" transform="translate(145,73)"/>
<path d="M0 0 C-3.95523655 2.75668002 -7.22423661 3.5317879 -12 4 C-8.61835749 -0.71014493 -8.61835749 -0.71014493 -6 -1.9375 C-3.50088598 -2.01559731 -2.1134673 -1.28317658 0 0 Z " fill="#D70810" transform="translate(188,88)"/>
<path d="M0 0 C0.33 0 0.66 0 1 0 C1.33 2.97 1.66 5.94 2 9 C3.98 9 5.96 9 8 9 C8 9.66 8 10.32 8 11 C6.68 11 5.36 11 4 11 C3.67 11.99 3.34 12.98 3 14 C0.9375 12.625 0.9375 12.625 -1 10 C-1.05863115 6.59939315 -0.58718592 3.34440677 0 0 Z " fill="#F4CBCB" transform="translate(174,82)"/>
<path d="M0 0 C2.0625 1.6875 2.0625 1.6875 4 4 C3.6875 6.375 3.6875 6.375 3 9 C3.38333662 12.22111592 3.38333662 12.22111592 4 15 C3.01 15.33 2.02 15.66 1 16 C1.01160156 15.18015625 1.02320313 14.3603125 1.03515625 13.515625 C1.04869141 11.89914063 1.04869141 11.89914063 1.0625 10.25 C1.07410156 9.18265625 1.08570313 8.1153125 1.09765625 7.015625 C1.01510087 4.46631499 0.74617558 2.42066409 0 0 Z " fill="#E40C18" transform="translate(168,73)"/>
<path d="M0 0 C0.66 0.99 1.32 1.98 2 3 C1.34 3 0.68 3 0 3 C-0.2165625 4.11375 -0.2165625 4.11375 -0.4375 5.25 C-0.90187492 7.52027739 -1.41863569 9.75759479 -2 12 C-3.65 12.33 -5.3 12.66 -7 13 C-6.67 12.01 -6.34 11.02 -6 10 C-5.34 10 -4.68 10 -4 10 C-3.71125 9.278125 -3.4225 8.55625 -3.125 7.8125 C-2.08333333 5.20833333 -1.04166667 2.60416667 0 0 Z " fill="#DB2229" transform="translate(207,86)"/>
<path d="M0 0 C0.99 0.33 1.98 0.66 3 1 C3 3.64 3 6.28 3 9 C0.5625 8.1875 0.5625 8.1875 -2 7 C-2.33 6.01 -2.66 5.02 -3 4 C-2.01 4 -1.02 4 0 4 C0.33 3.34 0.66 2.68 1 2 C0.34 1.67 -0.32 1.34 -1 1 C-0.67 0.67 -0.34 0.34 0 0 Z " fill="#DE0F16" transform="translate(157,80)"/>
<path d="M0 0 C3 2 3 2 3.6875 5.125 C3.790625 6.07375 3.89375 7.0225 4 8 C2.35 8.66 0.7 9.32 -1 10 C-1.125 2.25 -1.125 2.25 0 0 Z " fill="#E21620" transform="translate(172,38)"/>
<path d="M0 0 C0.66 0.33 1.32 0.66 2 1 C2 1.99 2 2.98 2 4 C-0.97 4.66 -3.94 5.32 -7 6 C-7.33 5.34 -7.66 4.68 -8 4 C-6.71349294 3.30289269 -5.42059335 2.61757124 -4.125 1.9375 C-3.40570313 1.55464844 -2.68640625 1.17179687 -1.9453125 0.77734375 C-1.30335938 0.52082031 -0.66140625 0.26429687 0 0 Z " fill="#DC1217" transform="translate(192,104)"/>
<path d="M0 0 C1.98 0.66 3.96 1.32 6 2 C6 2.66 6 3.32 6 4 C5.01 4.495 5.01 4.495 4 5 C4 5.99 4 6.98 4 8 C2 6.25 2 6.25 0 4 C0 2.68 0 1.36 0 0 Z " fill="#DA0F0F" transform="translate(173,48)"/>
<path d="M0 0 C2.89932357 2.39509338 3.50168276 4.31245243 4 8 C3.01 8 2.02 8 1 8 C-0.35439668 5.29120665 -0.06501451 2.99066732 0 0 Z " fill="#E11115" transform="translate(138,88)"/>
<path d="M0 0 C0.66 0.66 1.32 1.32 2 2 C-0.97 4.475 -0.97 4.475 -4 7 C-4.99 6.34 -5.98 5.68 -7 5 C-2.25 2 -2.25 2 0 2 C0 1.34 0 0.68 0 0 Z " fill="#DF1622" transform="translate(193,81)"/>
<path d="M0 0 C0.66 0 1.32 0 2 0 C2.33 0.99 2.66 1.98 3 3 C1.0625 5.6875 1.0625 5.6875 -1 8 C-1.625 5.125 -1.625 5.125 -2 2 C-1.34 1.34 -0.68 0.68 0 0 Z " fill="#DD1114" transform="translate(196,74)"/>
<path d="M0 0 C0.66 0.33 1.32 0.66 2 1 C-1.44615385 6.78461538 -1.44615385 6.78461538 -4.25 7.875 C-4.8275 7.91625 -5.405 7.9575 -6 8 C-4.55746343 4.63408134 -2.66735273 2.48952921 0 0 Z " fill="#F6D0C6" transform="translate(149,44)"/>
<path d="M0 0 C0.66 0.33 1.32 0.66 2 1 C1.42655063 3.86724686 1.1385485 4.8614515 -1 7 C-1.625 4.625 -1.625 4.625 -2 2 C-1.34 1.34 -0.68 0.68 0 0 Z " fill="#CD0507" transform="translate(197,49)"/>
</svg>
