<?xml version="1.0" encoding="iso-8859-1"?>
<!-- Generator: Adobe Illustrator 28.0.0, SVG Export Plug-In . SVG Version: 6.00 Build 0)  -->
<svg version="1.1" id="Capa_1" xmlns="http://www.w3.org/2000/svg" xmlns:xlink="http://www.w3.org/1999/xlink" x="0px" y="0px"
	 viewBox="0 0 135.31 68.38" style="enable-background:new 0 0 135.31 68.38;" xml:space="preserve">
<g>
	<polygon style="fill:#FDBA30;" points="130.31,5 5,5 5,63.38 130.31,63.38 130.31,5 	"/>
	<path d="M68.71,26.71V14.75h3.8v11.72c0,1.19,0.25,1.53,0.92,1.53c0.72,0,0.91-0.33,0.91-1.53V14.75h3.8v11.95
		c0,3.5-1.77,4.98-4.7,4.98C70.37,31.67,68.71,30.21,68.71,26.71L68.71,26.71z"/>
	<path d="M83.77,31.42h-3.73V14.75h4.7c3.38,0,4.72,1.34,4.72,4.17v2.94c0,2.8-1.34,4.45-4.72,4.45h-0.97V31.42L83.77,31.42
		L83.77,31.42z M83.77,22.99h0.77c0.73,0,1.11-0.42,1.11-1.23v-2.67c0-0.78-0.34-1.16-1.09-1.16h-0.78V22.99L83.77,22.99
		L83.77,22.99z"/>
	<polygon points="91.12,31.42 91.12,14.75 94.52,14.75 97.46,22.91 97.71,23.83 97.65,22.33 97.65,14.75 101.09,14.75 101.09,31.42 
		97.76,31.42 94.74,23.27 94.46,22.31 94.56,23.96 94.56,31.41 91.12,31.41 91.12,31.42 	"/>
	<path d="M48.32,14.75v38.82h-5.67V25.13l-0.16,0.14c-2.5,2.36-5.28,4.44-8.25,6.19v-6.42c1.56-1.09,3.05-2.3,4.44-3.59
		c2.16-2.02,4.11-4.27,5.8-6.7h3.84V14.75L48.32,14.75z"/>
	<path d="M64.51,25.05v6.42c-2.98-1.75-5.75-3.84-8.25-6.19l-0.16-0.14v28.44h-5.67V14.75h3.86c1.69,2.44,3.63,4.69,5.8,6.7
		C61.46,22.75,62.94,23.96,64.51,25.05L64.51,25.05z"/>
	<path d="M69.38,39.13v-3.17h0.81v3.13c0,0.44,0.11,0.59,0.41,0.59c0.3,0,0.41-0.16,0.41-0.59v-3.13h0.8v3.17
		c0,0.92-0.42,1.33-1.2,1.33C69.79,40.46,69.38,40.05,69.38,39.13L69.38,39.13z"/>
	<polygon points="72.41,40.38 72.41,35.96 73.12,35.96 74.13,38.46 74.29,38.96 74.24,38.36 74.24,35.97 74.96,35.97 74.96,40.39 
		74.27,40.39 73.23,37.88 73.07,37.35 73.12,38 73.12,40.39 72.41,40.39 72.41,40.38 	"/>
	<polygon points="75.49,39.63 76.01,39.63 76.01,36.69 75.49,36.69 75.49,35.96 77.29,35.96 77.29,36.69 76.79,36.69 76.79,39.63 
		77.29,39.63 77.29,40.38 75.49,40.38 75.49,39.63 	"/>
	<polygon points="77.62,35.96 78.43,35.96 78.96,38.6 79.01,39.25 79.05,38.6 79.57,35.96 80.38,35.96 79.41,40.38 78.62,40.38 
		77.62,35.96 	"/>
	<polygon points="80.77,40.38 80.77,35.96 82.84,35.96 82.84,36.68 81.55,36.68 81.55,37.77 82.68,37.77 82.68,38.5 81.55,38.5 
		81.55,39.63 82.87,39.63 82.87,40.38 80.77,40.38 80.77,40.38 	"/>
	<path d="M84.15,40.38h-0.77v-4.42h1.19c0.83,0,1.17,0.33,1.17,1.06v0.53c0,0.44-0.16,0.66-0.47,0.78c0.33,0.11,0.42,0.33,0.42,0.77
		v1c0,0.12,0.05,0.22,0.13,0.3h-0.83c-0.06-0.05-0.08-0.16-0.08-0.3v-0.95c0-0.31-0.09-0.44-0.42-0.44h-0.33v1.67H84.15L84.15,40.38
		z M84.15,37.99h0.38c0.31,0,0.44-0.14,0.44-0.44v-0.5c0-0.3-0.12-0.42-0.44-0.42h-0.38V37.99L84.15,37.99z"/>
	<path d="M86.2,39.3v-0.59h0.83v0.58c0,0.28,0.09,0.45,0.42,0.45c0.3,0,0.39-0.17,0.39-0.42v-0.23c0-0.13-0.03-0.22-0.09-0.31
		c-0.12-0.17-0.36-0.3-0.61-0.41c-0.14-0.08-0.28-0.16-0.41-0.25c-0.27-0.19-0.47-0.47-0.47-0.92V37c0-0.69,0.38-1.09,1.17-1.09
		c0.8,0,1.16,0.39,1.16,1.03v0.48h-0.78v-0.44c0-0.3-0.11-0.42-0.38-0.42c-0.27,0-0.38,0.17-0.38,0.44v0.12
		c0,0.12,0.03,0.2,0.09,0.28c0.13,0.16,0.36,0.27,0.59,0.39c0.14,0.08,0.28,0.16,0.42,0.25c0.27,0.19,0.47,0.47,0.47,0.94v0.34
		c0,0.7-0.41,1.13-1.2,1.13C86.51,40.46,86.2,40.05,86.2,39.3L86.2,39.3z"/>
	<polygon points="89.01,39.63 89.52,39.63 89.52,36.69 89.01,36.69 89.01,35.96 90.81,35.96 90.81,36.69 90.31,36.69 90.31,39.63 
		90.81,39.63 90.81,40.38 89.01,40.38 89.01,39.63 	"/>
	<path d="M92.46,35.96c0.27,0,0.48,0.05,0.69,0.14c0.39,0.17,0.64,0.55,0.64,1.19v1.78c0,0.31-0.06,0.56-0.17,0.75
		c-0.22,0.39-0.64,0.56-1.16,0.56h-1.14v-4.42H92.46L92.46,35.96z M92.12,39.68h0.31c0.34,0,0.53-0.2,0.53-0.69v-1.67
		c0-0.48-0.2-0.69-0.55-0.69h-0.3V39.68L92.12,39.68z"/>
	<path d="M94.96,39.72l-0.12,0.66h-0.8l0.98-4.42h0.8l1,4.42h-0.8l-0.13-0.66H94.96L94.96,39.72z M95.76,39.03l-0.3-1.47l-0.05-0.63
		l-0.05,0.63l-0.28,1.47H95.76L95.76,39.03z"/>
	<path d="M98.35,35.96c0.27,0,0.48,0.05,0.69,0.14c0.39,0.17,0.64,0.55,0.64,1.19v1.78c0,0.31-0.06,0.56-0.17,0.75
		c-0.22,0.39-0.64,0.56-1.16,0.56h-1.14v-4.42H98.35L98.35,35.96z M98.01,39.68h0.31c0.34,0,0.53-0.2,0.53-0.69v-1.67
		c0-0.48-0.2-0.69-0.55-0.69h-0.3V39.68L98.01,39.68z"/>
	<path d="M70.19,46.97h-0.78v-4.42h1.17c0.86,0,1.23,0.33,1.23,1.13v0.75c0,0.73-0.36,1.17-1.22,1.17h-0.39v1.38H70.19L70.19,46.97z
		 M70.19,44.88h0.36c0.31,0,0.47-0.17,0.47-0.48v-0.7c0-0.34-0.14-0.47-0.47-0.47h-0.36V44.88L70.19,44.88z"/>
	<path d="M73.09,46.97h-0.77v-4.42h1.19c0.83,0,1.17,0.33,1.17,1.06v0.53c0,0.44-0.16,0.66-0.47,0.78c0.33,0.11,0.42,0.33,0.42,0.77
		v1c0,0.12,0.05,0.22,0.12,0.3h-0.84c-0.06-0.05-0.08-0.16-0.08-0.3v-0.95c0-0.31-0.09-0.44-0.42-0.44h-0.33V46.97L73.09,46.97
		L73.09,46.97z M73.09,44.57h0.38c0.31,0,0.44-0.14,0.44-0.44v-0.5c0-0.3-0.13-0.42-0.44-0.42h-0.38V44.57L73.09,44.57z"/>
	<polygon points="75.12,46.22 75.63,46.22 75.63,43.29 75.12,43.29 75.12,42.55 76.91,42.55 76.91,43.29 76.4,43.29 76.4,46.22 
		76.9,46.22 76.9,46.97 75.1,46.97 75.1,46.22 75.12,46.22 	"/>
	<polygon points="77.24,42.54 78.05,42.54 78.59,45.18 78.63,45.83 78.68,45.18 79.19,42.54 80.01,42.54 79.04,46.96 78.24,46.96 
		77.24,42.54 	"/>
	<path d="M80.71,46.32l-0.12,0.66h-0.8l0.98-4.42h0.8l1,4.42h-0.8l-0.13-0.66H80.71L80.71,46.32z M81.52,45.61l-0.3-1.47l-0.05-0.63
		l-0.05,0.63l-0.28,1.47H81.52L81.52,45.61z"/>
	<path d="M84.12,42.54c0.27,0,0.48,0.05,0.69,0.14c0.39,0.17,0.64,0.55,0.64,1.19v1.8c0,0.31-0.06,0.56-0.17,0.75
		c-0.22,0.39-0.64,0.56-1.16,0.56h-1.14v-4.42h1.14V42.54L84.12,42.54z M83.77,46.27h0.31c0.34,0,0.53-0.2,0.53-0.69v-1.67
		c0-0.48-0.2-0.69-0.55-0.69h-0.3V46.27L83.77,46.27z"/>
	<path d="M86.6,46.32l-0.13,0.66h-0.8l0.98-4.42h0.8l1,4.42h-0.8l-0.12-0.66H86.6L86.6,46.32z M87.41,45.61l-0.3-1.47l-0.05-0.63
		l-0.05,0.63l-0.28,1.47H87.41L87.41,45.61z"/>
	<path d="M70.55,49.13c0.27,0,0.48,0.05,0.69,0.14c0.39,0.17,0.64,0.55,0.64,1.19v1.8c0,0.31-0.06,0.56-0.17,0.75
		c-0.22,0.39-0.64,0.56-1.16,0.56h-1.14v-4.42h1.14V49.13L70.55,49.13z M70.21,52.85h0.31c0.34,0,0.53-0.2,0.53-0.69v-1.67
		c0-0.48-0.2-0.69-0.55-0.69h-0.3V52.85L70.21,52.85z"/>
	<polygon points="72.46,53.55 72.46,49.13 74.52,49.13 74.52,49.85 73.24,49.85 73.24,50.94 74.37,50.94 74.37,51.68 73.24,51.68 
		73.24,52.8 74.55,52.8 74.55,53.55 72.46,53.55 	"/>
	<polygon points="75.07,49.13 75.88,49.13 75.88,52.76 77.07,52.76 77.07,53.55 75.07,53.55 75.07,49.13 	"/>
	<polygon points="78.9,53.55 78.9,49.13 79.6,49.13 80.62,51.63 80.77,52.13 80.73,51.54 80.73,49.15 81.45,49.15 81.45,53.57 
		80.76,53.57 79.71,51.05 79.55,50.52 79.6,51.18 79.6,53.57 78.9,53.57 78.9,53.55 	"/>
	<path d="M82.04,52.29v-1.86c0-0.91,0.5-1.34,1.28-1.34c0.78,0,1.28,0.44,1.28,1.34v1.86c0,0.92-0.5,1.34-1.28,1.34
		C82.51,53.63,82.04,53.21,82.04,52.29L82.04,52.29z M83.76,52.22v-1.77c0-0.47-0.12-0.67-0.45-0.67c-0.33,0-0.45,0.22-0.45,0.67
		v1.77c0,0.45,0.13,0.67,0.45,0.67C83.63,52.88,83.76,52.68,83.76,52.22L83.76,52.22z"/>
	<path d="M85.93,53.55h-0.77v-4.42h1.19c0.83,0,1.17,0.33,1.17,1.06v0.53c0,0.44-0.16,0.66-0.47,0.78c0.33,0.11,0.42,0.33,0.42,0.77
		v1c0,0.12,0.05,0.22,0.12,0.3h-0.84c-0.06-0.05-0.08-0.16-0.08-0.3v-0.95c0-0.31-0.09-0.44-0.42-0.44h-0.33V53.55L85.93,53.55z
		 M85.93,51.16h0.38c0.31,0,0.44-0.14,0.44-0.44v-0.5c0-0.3-0.13-0.42-0.44-0.42h-0.38V51.16L85.93,51.16z"/>
	<polygon points="89.4,53.55 88.6,53.55 88.6,49.85 87.87,49.85 87.87,49.11 90.13,49.11 90.13,49.85 89.4,49.85 89.4,53.55 
		89.4,53.55 	"/>
	<polygon points="90.59,53.55 90.59,49.13 92.65,49.13 92.65,49.85 91.37,49.85 91.37,50.94 92.49,50.94 92.49,51.68 91.37,51.68 
		91.37,52.8 92.68,52.8 92.68,53.55 90.59,53.55 	"/>
</g>
</svg>
