<?xml version="1.0" encoding="UTF-8"?>
<svg version="1.1" xmlns="http://www.w3.org/2000/svg" width="500" height="498">
<path d="M0 0 C165 0 330 0 500 0 C500 164.34 500 328.68 500 498 C335 498 170 498 0 498 C0 333.66 0 169.32 0 0 Z " fill="#07246C" transform="translate(0,0)"/>
<path d="M0 0 C1.71364746 0.01027222 1.71364746 0.01027222 3.46191406 0.02075195 C14.76124594 0.23339092 36.88827743 1.88827743 45.4375 10.4375 C45.68344105 13.42219198 45.86580393 16.38465956 46 19.375 C46.0424585 20.26348633 46.08491699 21.15197266 46.12866211 22.06738281 C46.51562747 30.85936043 46.53313364 39.63920477 46.4375 48.4375 C44.1275 48.4375 41.8175 48.4375 39.4375 48.4375 C39.10878906 47.11298828 39.10878906 47.11298828 38.7734375 45.76171875 C35.49710577 33.36226816 30.70317203 21.16400029 19.6875 13.6875 C9.11802898 7.65633292 -3.21231853 6.51114332 -15 9.5625 C-22.72363214 12.3081101 -28.54801837 17.31870261 -32.5625 24.4375 C-35.3730173 30.59387124 -35.55464287 37.17218339 -33.375 43.5625 C-29.66586119 52.13775669 -24.82395615 56.16511458 -16.5625 60.4375 C-15.59183594 60.95441406 -14.62117187 61.47132813 -13.62109375 62.00390625 C-5.58405833 66.01739453 2.35973995 68.09068082 11.07617188 69.93554688 C35.03961304 75.02951245 56.50021098 82.48731039 78.4375 93.4375 C78.37054206 86.53203828 78.28075202 79.6271446 78.17504883 72.72216797 C78.14178532 70.37295281 78.11375788 68.02365745 78.09106445 65.67431641 C78.05754532 62.2981548 78.00522951 58.92272907 77.94921875 55.546875 C77.93963387 53.97011993 77.93963387 53.97011993 77.92985535 52.36151123 C77.91006119 51.38079651 77.89026703 50.40008179 77.86987305 49.38964844 C77.85876999 48.52805115 77.84766693 47.66645386 77.83622742 46.77874756 C77.34795384 43.91170287 76.42653226 42.53735188 74.4375 40.4375 C71.42971479 39.43490493 68.89929353 39.13435358 65.75 38.875 C64.75613281 38.79121094 63.76226562 38.70742187 62.73828125 38.62109375 C61.59939453 38.53021484 61.59939453 38.53021484 60.4375 38.4375 C60.4375 36.7875 60.4375 35.1375 60.4375 33.4375 C94.7575 33.4375 129.0775 33.4375 164.4375 33.4375 C164.4375 34.7575 164.4375 36.0775 164.4375 37.4375 C163.22513672 37.56705078 163.22513672 37.56705078 161.98828125 37.69921875 C160.91964844 37.83972656 159.85101563 37.98023438 158.75 38.125 C157.69425781 38.25261719 156.63851563 38.38023437 155.55078125 38.51171875 C151.52105079 39.71002003 150.04159137 41.13964231 147.4375 44.4375 C146.95799682 47.43219597 146.7813286 49.84963493 146.83813477 52.83618164 C146.83222069 54.08584969 146.83222069 54.08584969 146.82618713 55.36076355 C146.8194892 58.10701158 146.84861113 60.85158688 146.87890625 63.59765625 C146.88315769 65.50906553 146.88548507 67.42047998 146.88597107 69.33189392 C146.89213288 73.33421287 146.91481665 77.33597137 146.95043945 81.33813477 C146.99574213 86.46853584 147.01046727 91.59842987 147.01417637 96.72901249 C147.01860473 100.67440288 147.03390769 104.61968685 147.0530529 108.56503105 C147.06193206 110.45686404 147.06866354 112.34870836 147.07321358 114.24055672 C147.08225585 116.88330295 147.10464576 119.52559087 147.13110352 122.16821289 C147.13176819 122.95014008 147.13243286 123.73206726 147.13311768 124.53768921 C147.18506301 128.29692157 147.25664145 131.28680931 149.4375 134.4375 C153.10406175 137.27919866 157.72185855 136.79759716 162.15625 136.84375 C163.00997192 136.85515015 163.86369385 136.86655029 164.74328613 136.8782959 C166.55211455 136.89717307 168.3610114 136.91025485 170.16992188 136.91796875 C172.90101283 136.9372425 175.62899944 136.99923279 178.359375 137.0625 C189.70047106 137.20049985 198.9127165 136.55713555 207.61572266 128.39453125 C209.95077843 125.8799555 211.91248742 123.2378794 213.79296875 120.37109375 C215.0625 118.4375 215.0625 118.4375 217.4375 115.4375 C220.0859375 115.25 220.0859375 115.25 222.4375 115.4375 C216.29135878 140.58364122 216.29135878 140.58364122 214.4375 142.4375 C211.75962027 142.53262944 209.10761131 142.56305279 206.42944336 142.55102539 C205.59049026 142.55117142 204.75153717 142.55131744 203.88716125 142.5514679 C201.10052956 142.5507685 198.31396384 142.54297485 195.52734375 142.53515625 C193.60063209 142.53329217 191.67391995 142.53186822 189.74720764 142.53086853 C184.66562603 142.52704259 179.5840728 142.51721166 174.50250244 142.50616455 C169.32133366 142.49595206 164.14016031 142.49137126 158.95898438 142.48632812 C148.78514375 142.47558946 138.61132423 142.45851213 128.4375 142.4375 C128.77740967 143.168479 129.11731934 143.89945801 129.4675293 144.65258789 C130.13909058 146.11039673 130.13909058 146.11039673 130.82421875 147.59765625 C131.26725342 148.55551025 131.71028809 149.51336426 132.16674805 150.50024414 C139.970486 168.53804843 137.6243735 190.09149268 130.84765625 208.05078125 C120.85051928 232.06052571 101.00878391 248.53160612 77.4375 258.4375 C65.03091697 263.31490644 52.62658009 266.60958911 39.4375 268.4375 C37.86355469 268.71207031 37.86355469 268.71207031 36.2578125 268.9921875 C6.52126895 272.45841037 -24.08360539 267.69813802 -48.80078125 250.13671875 C-51.48265965 247.98899041 -54.03671397 245.765762 -56.5625 243.4375 C-57.61630859 242.52097656 -57.61630859 242.52097656 -58.69140625 241.5859375 C-71.65325466 229.66408084 -80.8441245 211.12234128 -81.91796875 193.60546875 C-82.6518306 174.26910398 -77.98425688 157.85219793 -65.0625 143.0625 C-63.57788667 141.50601056 -62.07935602 139.96258489 -60.5625 138.4375 C-60.04558594 137.88578125 -59.52867187 137.3340625 -58.99609375 136.765625 C-55.09487042 132.97644725 -50.42947078 130.63455219 -45.625 128.1875 C-44.62231079 127.67485596 -44.62231079 127.67485596 -43.59936523 127.15185547 C-29.10608881 120.05635461 -11.39129673 120.31674856 3.79101562 125.24536133 C20.17099651 131.07744636 33.69276606 143.94803211 41.4375 159.4375 C47.42351633 173.47877287 47.05898775 187.36439619 41.4375 201.4375 C37.18445608 211.94708788 30.07315313 218.91680237 19.77734375 223.6640625 C7.84458932 228.54963795 -4.75845787 229.42584248 -16.94921875 224.69140625 C-26.82901267 219.95087733 -34.19879766 211.58118741 -37.8984375 201.23828125 C-39.97677218 192.47259909 -39.54360396 184.27252377 -34.9921875 176.4296875 C-32.21196263 172.55560366 -28.86384666 170.3297745 -24.5625 168.4375 C-18.16427378 167.40320027 -12.82159193 168.69082667 -7.5625 172.4375 C-3.49956598 176.29879958 -1.43943664 179.99175252 -1.25 185.625 C-1.31528482 190.63560991 -2.69565109 194.34597777 -5.5625 198.4375 C-9.90459169 202.56248711 -13.60360653 204.72490246 -19.625 204.625 C-20.91083984 204.61533203 -20.91083984 204.61533203 -22.22265625 204.60546875 C-24.5625 204.4375 -24.5625 204.4375 -27.5625 203.4375 C-24.04841863 212.37280237 -19.75539451 216.3086857 -11.3203125 220.5703125 C-2.25382748 223.42124688 9.60694499 222.41042066 18.1875 218.6171875 C18.93 218.22789062 19.6725 217.83859375 20.4375 217.4375 C21.3965625 216.94636719 21.3965625 216.94636719 22.375 216.4453125 C30.21924534 211.64771602 36.04657841 202.32130513 38.8125 193.71484375 C41.81246876 177.98375754 39.11940021 164.05061857 30.16015625 150.7734375 C28.12582059 148.01485989 26.0183735 145.69576431 23.4375 143.4375 C22.98503906 142.98246094 22.53257812 142.52742187 22.06640625 142.05859375 C11.83193595 132.28352611 -2.77344639 127.39546756 -16.6875 127.125 C-34.32787397 127.58922037 -48.99526685 134.3701227 -61.3125 147.0625 C-71.6524661 159.1999154 -76.38755965 174.48963018 -75.8359375 190.359375 C-74.16289194 209.19308791 -66.51478325 225.50611552 -52.5625 238.4375 C-51.99015625 238.98019531 -51.4178125 239.52289063 -50.828125 240.08203125 C-29.89590919 259.29780537 -3.3646213 263.33330986 23.95214844 262.61669922 C51.48018089 261.20134647 75.70079891 246.86663503 94.10693359 226.96777344 C104.4616207 215.05893329 108.52035536 200.77465709 110.4375 185.4375 C93.9375 185.4375 77.4375 185.4375 60.4375 185.4375 C60.4375 183.7875 60.4375 182.1375 60.4375 180.4375 C61.64986328 180.30794922 61.64986328 180.30794922 62.88671875 180.17578125 C63.95535156 180.03527344 65.02398437 179.89476562 66.125 179.75 C67.70861328 179.55857422 67.70861328 179.55857422 69.32421875 179.36328125 C73.44026565 178.13931247 74.83943351 176.88215175 77.4375 173.4375 C78.18630733 169.85182827 78.15886544 166.32113186 78.14453125 162.66796875 C78.15965256 161.63182938 78.17477386 160.59569 78.19035339 159.52815247 C78.23325535 156.22688069 78.24207116 152.92652287 78.25 149.625 C78.27314224 147.3834392 78.298507 145.14190017 78.32617188 142.90039062 C78.38904867 137.41275177 78.42396316 131.92547043 78.4375 126.4375 C77.81975204 126.13228424 77.20200409 125.82706848 76.5655365 125.51260376 C74.36974272 124.40326839 72.29270205 123.17728412 70.19140625 121.8984375 C44.00087617 106.22705475 15.26994947 98.43808992 -14.55712891 92.60302734 C-28.7880771 89.67722401 -40.10280862 82.38059371 -48.5625 70.4375 C-53.9301437 60.71923982 -56.28873142 49.34242567 -53.5625 38.4375 C-59.75623538 40.66483534 -59.75623538 40.66483534 -64.5625 44.9375 C-66.34516198 49.39415494 -66.69338992 53.1442377 -66.72021484 57.95922852 C-66.72529556 58.6053862 -66.73037628 59.25154388 -66.73561096 59.9172821 C-66.74628781 61.31734946 -66.75491846 62.7174336 -66.76173019 64.1175251 C-66.77357953 66.34308184 -66.79305113 68.56844974 -66.81484985 70.79393005 C-66.87623674 77.12077415 -66.93030146 83.44760045 -66.96386719 89.7746582 C-66.98497652 93.6503617 -67.02041263 97.52572225 -67.06462479 101.40122795 C-67.07866328 102.86857974 -67.08747936 104.33599222 -67.09067917 105.80340767 C-67.12432471 119.76511406 -68.86531071 132.56505098 -78.625 143.125 C-89.84525154 153.79343589 -103.98426912 155.00623921 -118.73046875 154.68359375 C-132.38670175 154.14015625 -145.48961555 150.76586567 -155.0625 140.43359375 C-160.63367059 133.01987456 -162.70288488 125.91661569 -162.73608398 116.79492188 C-162.742771 116.03023087 -162.74945801 115.26553986 -162.75634766 114.47767639 C-162.77037327 112.82058793 -162.7822752 111.16348044 -162.79229546 109.50636292 C-162.80873518 106.88368781 -162.83197274 104.2611543 -162.85719299 101.6385498 C-162.92789769 94.18309602 -162.98814493 86.72758577 -163.03930664 79.27197266 C-163.0710938 74.70909306 -163.11236354 70.146379 -163.15950203 65.58363342 C-163.17551754 63.84533155 -163.1878412 62.10699161 -163.19640923 60.36863708 C-163.20856075 57.93894623 -163.23270814 55.50964508 -163.25952148 53.08007812 C-163.26011063 52.36203506 -163.26069977 51.643992 -163.26130676 50.90419006 C-163.31441139 47.27345691 -163.48035674 44.48067493 -165.5625 41.4375 C-168.53389599 39.43503748 -171.28349403 39.09110573 -174.8125 38.8125 C-175.70453125 38.73773438 -176.5965625 38.66296875 -177.515625 38.5859375 C-178.19109375 38.53695312 -178.8665625 38.48796875 -179.5625 38.4375 C-179.5625 36.7875 -179.5625 35.1375 -179.5625 33.4375 C-162.7325 33.4375 -145.9025 33.4375 -128.5625 33.4375 C-128.5625 34.7575 -128.5625 36.0775 -128.5625 37.4375 C-129.37074219 37.52386719 -130.17898437 37.61023438 -131.01171875 37.69921875 C-132.08035156 37.83972656 -133.14898437 37.98023438 -134.25 38.125 C-135.30574219 38.25261719 -136.36148438 38.38023437 -137.44921875 38.51171875 C-141.45424691 39.70267443 -142.95187076 41.18549787 -145.5625 44.4375 C-146.05361732 47.19969344 -146.239275 49.34446901 -146.19360352 52.09838867 C-146.20075882 52.85358795 -146.20791412 53.60878723 -146.21528625 54.38687134 C-146.23215676 56.87702456 -146.21277296 59.36537201 -146.19140625 61.85546875 C-146.19223554 63.5955673 -146.1946972 65.33566578 -146.19871521 67.07575989 C-146.20157264 70.72335387 -146.18688549 74.37033371 -146.15942383 78.01782227 C-146.12546763 82.67032799 -146.13131732 87.32172669 -146.1500864 91.97428417 C-146.16071301 95.569962 -146.15166541 99.16538722 -146.13670158 102.76104164 C-146.13155214 104.47486938 -146.13196184 106.18872388 -146.13824654 107.90254784 C-146.16309263 118.75624486 -145.43275162 127.40446071 -139.4375 136.75 C-130.7045394 144.91341969 -119.56913138 146.96701006 -107.97265625 146.75 C-97.6493551 145.80399302 -88.70260626 142.34040741 -81.8515625 134.47265625 C-74.2979915 124.28454707 -74.10296365 112.26144274 -74.1640625 100.0390625 C-74.16203558 98.59084935 -74.15911904 97.1426372 -74.15536499 95.69442749 C-74.15097908 92.68404257 -74.15725623 89.67392742 -74.17138672 86.66357422 C-74.18856983 82.81701291 -74.17855692 78.97107559 -74.16066933 75.12453651 C-74.14980859 72.144148 -74.15328667 69.16390668 -74.1610527 66.18351364 C-74.1630436 64.76501769 -74.16063474 63.34650808 -74.15361404 61.92802811 C-74.14595213 59.947627 -74.15971066 57.96717847 -74.17431641 55.98681641 C-74.17789658 54.30236923 -74.17789658 54.30236923 -74.18154907 52.58389282 C-74.71613342 48.16859351 -76.21012755 44.76964466 -79.390625 41.63671875 C-82.03156271 40.17850314 -84.33631002 39.71060083 -87.3125 39.25 C-88.29734375 39.09144531 -89.2821875 38.93289062 -90.296875 38.76953125 C-91.04453125 38.65996094 -91.7921875 38.55039063 -92.5625 38.4375 C-92.5625 36.7875 -92.5625 35.1375 -92.5625 33.4375 C-79.0325 33.4375 -65.5025 33.4375 -51.5625 33.4375 C-51.2325 31.7875 -50.9025 30.1375 -50.5625 28.4375 C-45.04393621 16.13782276 -34.8768395 8.32179331 -22.5625 3.4375 C-14.99523219 0.58662359 -8.05454018 -0.07444673 0 0 Z " fill="#F9FAFA" transform="translate(228.5625,113.5625)"/>
<path d="M0 0 C13.8566836 10.56542312 24.84359491 23.21585039 28.26953125 40.73046875 C29.67848338 55.19379366 26.73660852 69.75462704 17.58203125 81.35546875 C10.13166597 89.55273781 -1.12964196 95.20833988 -12.19921875 95.96875 C-23.53070013 96.28163419 -33.86899437 94.9939371 -42.921875 87.484375 C-51.0762289 79.57658904 -55.82130958 71.18682176 -56.29296875 59.73046875 C-56.05123955 51.80520439 -53.87429171 45.7976131 -48.16796875 40.23046875 C-42.82545544 36.94276825 -39.01466266 35.90360113 -32.73046875 36.73046875 C-26.81463488 38.58973082 -23.25111767 41.7162112 -19.73046875 46.73046875 C-17.87242457 52.30460128 -17.92415491 57.67322443 -20.41796875 63.04296875 C-23.07329778 67.76251116 -26.77020666 70.64052107 -31.73046875 72.73046875 C-34.203125 72.9609375 -34.203125 72.9609375 -36.79296875 72.91796875 C-37.65019531 72.91152344 -38.50742188 72.90507812 -39.390625 72.8984375 C-41.73046875 72.73046875 -41.73046875 72.73046875 -44.73046875 71.73046875 C-41.21638738 80.66577112 -36.92336326 84.60165445 -28.48828125 88.86328125 C-19.42179623 91.71421563 -7.56102376 90.70338941 1.01953125 86.91015625 C1.76203125 86.52085937 2.50453125 86.1315625 3.26953125 85.73046875 C4.22859375 85.23933594 4.22859375 85.23933594 5.20703125 84.73828125 C13.05127659 79.94068477 18.87860966 70.61427388 21.64453125 62.0078125 C24.64450001 46.27672629 21.95143146 32.34358732 12.9921875 19.06640625 C10.95785184 16.30782864 8.85040475 13.98873306 6.26953125 11.73046875 C5.81707031 11.27542969 5.36460937 10.82039063 4.8984375 10.3515625 C-5.3360328 0.57649486 -19.94141514 -4.31156369 -33.85546875 -4.58203125 C-51.49584272 -4.11781088 -66.1632356 2.66309145 -78.48046875 15.35546875 C-88.82043485 27.49288415 -93.5555284 42.78259893 -93.00390625 58.65234375 C-91.33086069 77.48605666 -83.682752 93.79908427 -69.73046875 106.73046875 C-69.158125 107.27316406 -68.58578125 107.81585938 -67.99609375 108.375 C-55.48503153 119.86015512 -40.0358118 125.89657066 -23.73046875 129.73046875 C-24.22546875 132.70046875 -24.22546875 132.70046875 -24.73046875 135.73046875 C-48.1930409 130.93058858 -70.27926367 119.4575106 -84.73046875 99.73046875 C-96.16014711 81.88374979 -102.37719686 62.22889802 -97.85546875 41.00390625 C-94.40104591 27.43263739 -87.58417573 16.63763164 -77.73046875 6.73046875 C-76.95509766 5.90289062 -76.95509766 5.90289062 -76.1640625 5.05859375 C-72.26283917 1.269416 -67.59743953 -1.07247906 -62.79296875 -3.51953125 C-62.12450928 -3.86129395 -61.4560498 -4.20305664 -60.76733398 -4.55517578 C-42.21572622 -13.63752162 -17.15811284 -11.37053815 0 0 Z " fill="#EDF2F5" transform="translate(245.73046875,245.26953125)"/>
<path d="M0 0 C0.7425 -0.01611328 1.485 -0.03222656 2.25 -0.04882812 C8.23441294 -0.05411471 12.36074379 1.08898137 16.76307678 5.41210938 C19.15206264 9.13352609 19.18118699 12.23127973 19.12670898 16.51171875 C19.13211197 17.32371735 19.13751495 18.13571594 19.14308167 18.97232056 C19.1555591 21.64858783 19.13908495 24.32377723 19.12109375 27 C19.12124876 28.86417701 19.1227381 30.72835434 19.12550354 32.5925293 C19.12688709 36.49640172 19.11433684 40.39990656 19.09155273 44.30371094 C19.06316827 49.30405711 19.06590603 54.3037926 19.07864285 59.30418396 C19.08560271 63.1526815 19.07780721 67.00103826 19.06538582 70.84951782 C19.06087432 72.69307922 19.06053189 74.53665575 19.06445122 76.38021851 C19.06736646 78.95822044 19.05084187 81.53538519 19.02905273 84.11328125 C19.03355438 84.87291168 19.03805603 85.63254211 19.04269409 86.41519165 C18.98034593 90.86210194 18.45619055 93.82079274 15.625 97.3125 C14.14 97.8075 14.14 97.8075 12.625 98.3125 C12.068125 97.55066406 11.51125 96.78882813 10.9375 96.00390625 C3.7343646 86.25777204 -3.47832368 77.72254941 -13.0546875 70.16015625 C-17.32385236 66.76063608 -17.32385236 66.76063608 -17.64915466 63.91046143 C-17.65979446 62.90263611 -17.67043427 61.89481079 -17.68139648 60.85644531 C-17.69738388 59.71475891 -17.71337128 58.57307251 -17.72984314 57.39678955 C-17.73520584 56.15725525 -17.74056854 54.91772095 -17.74609375 53.640625 C-17.75512222 52.37031433 -17.7641507 51.10000366 -17.77345276 49.79119873 C-17.78798727 47.09763432 -17.79764482 44.4044949 -17.80053711 41.7109375 C-17.80590818 38.26960269 -17.84352553 34.82944895 -17.88928127 31.38844681 C-17.92630525 28.09757677 -17.92757185 24.80667529 -17.93359375 21.515625 C-17.95312607 20.28418762 -17.97265839 19.05275024 -17.99278259 17.78399658 C-17.94253713 8.24127163 -17.94253713 8.24127163 -14.9519043 4.57202148 C-10.04981127 0.27369169 -6.45085968 -0.02770988 0 0 Z " fill="#072367" transform="translate(340.375,151.6875)"/>
<path d="M0 0 C4.87384873 2.21538578 7.74940992 4.94991716 10.8125 9.3125 C12.67054418 14.88663253 12.61881384 20.25525568 10.125 25.625 C7.4667333 30.34976378 3.77131034 33.21039562 -1.1875 35.3125 C-3.625 35.578125 -3.625 35.578125 -6.1875 35.5625 C-7.033125 35.56765625 -7.87875 35.5728125 -8.75 35.578125 C-11.32228811 35.29781155 -12.9678108 34.6073187 -15.1875 33.3125 C-15.1875 34.055 -15.1875 34.7975 -15.1875 35.5625 C-15.1875 37.8125 -15.1875 40.0625 -15.1875 42.3125 C-17.51171875 42.13671875 -17.51171875 42.13671875 -20.1875 41.3125 C-25.55936562 33.73883266 -26.49741491 24.2827973 -25.1875 15.3125 C-22.94550895 8.35775224 -19.69134304 3.86747514 -13.30078125 0.2421875 C-9.03063677 -1.63636035 -4.40648912 -1.38489658 0 0 Z " fill="#FAFBFB" transform="translate(215.1875,282.6875)"/>
<path d="M0 0 C9.56855409 9.42037067 15.83907559 22.18361105 16.0625 35.8125 C16.041875 36.864375 16.02125 37.91625 16 39 C10.77028126 39.31378312 7.41426281 38.90940049 3 36 C-0.13188747 31.91092856 -0.35567321 28.8095304 -0.29296875 23.73046875 C-0.28872391 23.04946609 -0.28447906 22.36846344 -0.28010559 21.66682434 C-0.2634061 19.50663541 -0.22577312 17.34740358 -0.1875 15.1875 C-0.17244174 13.71681042 -0.15875534 12.24610611 -0.14648438 10.77539062 C-0.11353214 7.18328643 -0.06181173 3.59173674 0 0 Z " fill="#0C2368" transform="translate(323,255)"/>
<path d="M0 0 C0.33 0 0.66 0 1 0 C1 1.98 1 3.96 1 6 C1.66386719 5.96519531 2.32773437 5.93039063 3.01171875 5.89453125 C12.13137215 5.61495063 12.13137215 5.61495063 16 9 C18.45227028 12.6233422 18.27998279 16.31189626 18.25537109 20.53149414 C18.25899155 21.2849411 18.262612 22.03838806 18.26634216 22.81466675 C18.27322718 24.44882562 18.27574327 26.08300744 18.27439499 27.71718025 C18.27342732 30.31245972 18.28640321 32.90732769 18.30337524 35.50254822 C18.34955465 42.88081616 18.37422004 50.25904368 18.38085938 57.63745117 C18.38590401 62.1550664 18.41030857 66.67225553 18.44618607 71.18972588 C18.455922 72.9027086 18.45835026 74.61575044 18.45301437 76.32875252 C18.41547163 88.98261254 19.11915791 100.14840359 28.296875 109.8515625 C33.89525764 114.30114408 40.50034163 117.10512789 47 120 C43.20451078 121.10291912 40.79301599 120.72462858 36.9375 119.75 C35.89464844 119.49734375 34.85179687 119.2446875 33.77734375 118.984375 C31.02767906 118.0098103 29.72592861 117.31716367 28 115 C28 114.34 28 113.68 28 113 C27.34 112.67 26.68 112.34 26 112 C24.77456326 110.14161362 23.61766413 108.2376291 22.5 106.3125 C21.8915625 105.27738281 21.283125 104.24226563 20.65625 103.17578125 C16.94946446 96.06819483 15.85413949 89.34217323 15.84228516 81.41162109 C15.83720444 80.66468491 15.83212372 79.91774872 15.82688904 79.1481781 C15.81622333 77.53311696 15.8075884 75.9180414 15.80076981 74.30295944 C15.7889433 71.74768178 15.76948421 69.19257028 15.74765015 66.63735962 C15.68613636 59.37483208 15.63188833 52.11232587 15.59863281 44.84960938 C15.57772298 40.40222828 15.54245975 35.95515766 15.49787521 31.50795364 C15.48369641 29.81348947 15.47498854 28.11897046 15.47182083 26.42444992 C15.46692802 24.05916389 15.44381696 21.69470797 15.41650391 19.32958984 C15.42101311 18.27754112 15.42101311 18.27754112 15.4256134 17.20423889 C15.37675484 14.36429894 15.31548178 12.44902897 13.65634155 10.08755493 C11.16269579 8.45022552 8.74515177 8.22244057 5.8125 7.8125 C4.18248047 7.57466797 4.18248047 7.57466797 2.51953125 7.33203125 C1.27236328 7.16767578 1.27236328 7.16767578 0 7 C0 4.69 0 2.38 0 0 Z " fill="#060D4D" transform="translate(48,146)"/>
<path d="M0 0 C0.33 0 0.66 0 1 0 C1.88499086 4.54766348 2.12142607 8.84432544 2.11352539 13.47412109 C2.11367142 14.19676147 2.11381744 14.91940186 2.1139679 15.66394043 C2.11327561 18.03380416 2.10551546 20.40358763 2.09765625 22.7734375 C2.09578964 24.42395993 2.09436688 26.07448292 2.09336853 27.7250061 C2.0895625 32.05521187 2.07974866 36.38538374 2.06866455 40.71557617 C2.05840917 45.13980654 2.05386209 49.56404241 2.04882812 53.98828125 C2.03812458 62.65886967 2.02107128 71.32943061 2 80 C1.01 80 0.02 80 -1 80 C-1.02312376 69.71695462 -1.04091525 59.43391538 -1.05181217 49.15084934 C-1.05704093 44.3765172 -1.06413844 39.60220279 -1.07543945 34.82788086 C-1.0862686 30.22433738 -1.09227689 25.62081101 -1.09487724 21.01725578 C-1.09673144 19.25690377 -1.10035196 17.49655274 -1.10573006 15.73620796 C-1.11294086 13.27927723 -1.11399093 10.82241805 -1.11352539 8.36547852 C-1.11712067 7.63036545 -1.12071594 6.89525238 -1.12442017 6.13786316 C-1.11405216 1.11405216 -1.11405216 1.11405216 0 0 Z " fill="#032574" transform="translate(355,161)"/>
<path d="M0 0 C2.84409094 2.84409094 2.31519418 5.63624503 2.3347168 9.44726562 C2.34636871 10.21487717 2.35802063 10.98248871 2.37002563 11.77336121 C2.40609156 14.31763506 2.42790001 16.86181308 2.44921875 19.40625 C2.47046211 21.16980855 2.49242881 22.93335852 2.51509094 24.69689941 C2.56053699 28.39571358 2.59931743 32.0945179 2.63305664 35.79345703 C2.676601 40.54192875 2.73332355 45.29012632 2.7946043 50.03839874 C2.84072696 53.68080525 2.88154576 57.32325515 2.92057228 60.96574402 C2.93966077 62.71690788 2.96002368 64.46805832 2.98166466 66.2191925 C3.01074803 68.66368877 3.03310102 71.10815199 3.0534668 73.55273438 C3.06327072 74.28111008 3.07307465 75.00948578 3.08317566 75.75993347 C3.11446184 80.77107632 3.11446184 80.77107632 2 83 C2.763125 83.28875 3.52625 83.5775 4.3125 83.875 C7 85 7 85 10 87 C12.75218977 87.24073135 15.41217466 87.37282688 18.16796875 87.4140625 C18.96278152 87.43342865 19.7575943 87.4527948 20.57649231 87.4727478 C23.11338595 87.53249442 25.65032509 87.57890883 28.1875 87.625 C29.90822284 87.66318435 31.62892665 87.70223635 33.34960938 87.7421875 C37.56625165 87.83819179 41.7829834 87.92224076 46 88 C46 88.33 46 88.66 46 89 C40.53738362 89.07428762 35.07506284 89.12866714 29.61206055 89.16479492 C27.75458655 89.17985946 25.89714799 89.20031509 24.03979492 89.22631836 C21.36628461 89.26280459 18.69324556 89.2797497 16.01953125 89.29296875 C15.19226028 89.30845261 14.36498932 89.32393646 13.51264954 89.33988953 C8.87252239 89.34123676 5.70522222 89.11277286 2 86 C-0.56843101 82.29152864 -0.26848478 78.35397857 -0.22705078 74.01855469 C-0.22734283 73.2181778 -0.22763489 72.4178009 -0.22793579 71.59317017 C-0.22654455 68.95262744 -0.21099308 66.31236832 -0.1953125 63.671875 C-0.19158164 61.83913324 -0.18873501 60.00638949 -0.18673706 58.17364502 C-0.17910637 53.35345946 -0.15946269 48.53339471 -0.1373291 43.71325684 C-0.11685855 38.79322952 -0.10773275 33.87318265 -0.09765625 28.953125 C-0.0762163 19.3020303 -0.04208712 9.6510252 0 0 Z " fill="#06104A" transform="translate(375,162)"/>
<path d="M0 0 C1.17275118 3.51825355 0.80077874 5.43136041 0.1875 9.0625 C0.01605469 10.12597656 -0.15539062 11.18945312 -0.33203125 12.28515625 C-1 15 -1 15 -3 17 C-3.33 18.32 -3.66 19.64 -4 21 C-47.065 21.495 -47.065 21.495 -91 22 C-91.33 21.01 -91.66 20.02 -92 19 C-63.62 18.67 -35.24 18.34 -6 18 C-4.35 12.39 -2.7 6.78 -1 1 C-0.67 0.67 -0.34 0.34 0 0 Z " fill="#1C255D" transform="translate(449,237)"/>
<path d="M0 0 C1.09570312 0.00902344 2.19140625 0.01804688 3.3203125 0.02734375 C4.16335937 0.03894531 5.00640625 0.05054688 5.875 0.0625 C5.875 0.3925 5.875 0.7225 5.875 1.0625 C4.8025 1.18625 3.73 1.31 2.625 1.4375 C-0.58204798 1.972008 -2.43235106 2.39120066 -5.125 4.0625 C-6.15702545 4.6205835 -6.15702545 4.6205835 -7.2098999 5.18994141 C-9.43732757 6.99248968 -9.43732757 6.99248968 -9.60601807 10.21240234 C-9.59713562 11.51129395 -9.58825317 12.81018555 -9.57910156 14.1484375 C-9.57968567 14.86582092 -9.58026978 15.58320435 -9.58087158 16.32232666 C-9.57808424 18.69454291 -9.54695586 21.06550309 -9.515625 23.4375 C-9.50816256 25.08511672 -9.50246964 26.73274232 -9.49847412 28.38037109 C-9.48319885 32.71956864 -9.44391323 37.0582309 -9.3996582 41.3972168 C-9.35881786 45.81161293 -9.34046814 50.2260945 -9.3203125 54.640625 C-9.28200359 62.39815061 -9.22397041 70.15531518 -9.1519165 77.91259766 C-9.09968887 84.02453331 -9.09968887 84.02453331 -11.125 87.0625 C-12.627278 84.057944 -12.28975351 80.95925598 -12.30200195 77.6628418 C-12.30857315 76.90004913 -12.31514435 76.13725647 -12.32191467 75.35134888 C-12.34166062 72.82147121 -12.35331315 70.29165295 -12.36328125 67.76171875 C-12.36735678 66.89822123 -12.3714323 66.0347237 -12.37563133 65.14505959 C-12.39649767 60.57465478 -12.4107969 56.00428005 -12.42016602 51.43383789 C-12.43123131 46.71251113 -12.46563076 41.99165558 -12.50533772 37.27049541 C-12.53148064 33.64078392 -12.53985577 30.01118508 -12.54344749 26.38138771 C-12.54831954 24.64105866 -12.55995114 22.90073484 -12.57848549 21.16049767 C-12.60282807 18.72339912 -12.6019213 16.28752464 -12.5949707 13.8503418 C-12.60778076 13.13275192 -12.62059082 12.41516205 -12.63378906 11.67582703 C-12.58386649 6.86819988 -11.53214005 4.43733971 -8.125 1.0625 C-5.36047967 -0.31976016 -3.0788637 -0.03275387 0 0 Z " fill="#061048" transform="translate(94.125,151.9375)"/>
<path d="M0 0 C5.10479164 1.86521233 7.94238741 3.29598063 11 8 C12.1095917 11.32877511 12.13367665 13.82853031 12.14526367 17.33569336 C12.15164352 18.64392563 12.15802338 19.9521579 12.16459656 21.30003357 C12.1661252 22.72996992 12.16723918 24.15990677 12.16796875 25.58984375 C12.17118213 27.05571017 12.17454627 28.52157627 12.17805481 29.98744202 C12.18404236 33.05991357 12.18589507 36.13235701 12.18530273 39.20483398 C12.18520109 43.14026925 12.19885741 47.07552419 12.21607494 51.01091671 C12.22719718 54.03838427 12.22922188 57.06580825 12.22869301 60.09329414 C12.22987263 61.54415064 12.23429341 62.99500828 12.24202538 64.44584465 C12.25182997 66.47551014 12.24768175 68.50522852 12.24291992 70.53491211 C12.24434494 71.68946396 12.24576996 72.84401581 12.24723816 74.03355408 C12 77 12 77 10 81 C9.67 56.91 9.34 32.82 9 8 C5.60939756 6.30469878 2.36503582 5.01729546 -1.1953125 3.78125 C-3 3 -3 3 -5 1 C-2.525 1.495 -2.525 1.495 0 2 C0 1.34 0 0.68 0 0 Z " fill="#09154E" transform="translate(143,152)"/>
<path d="M0 0 C0.99 0.33 1.98 0.66 3 1 C2.34 1 1.68 1 1 1 C0.67 1.99 0.34 2.98 0 4 C-1.32 4.33 -2.64 4.66 -4 5 C-4 25.13 -4 45.26 -4 66 C-4.99 65.67 -5.98 65.34 -7 65 C-7.11609586 57.54153868 -7.20481645 50.08327369 -7.25906086 42.62409019 C-7.28510226 39.16003775 -7.32039692 35.69660562 -7.37719727 32.23291016 C-7.44215686 28.24649606 -7.46622587 24.26032894 -7.48828125 20.2734375 C-7.51408768 19.03572601 -7.5398941 17.79801453 -7.56648254 16.52279663 C-7.56960672 6.92041701 -7.56960672 6.92041701 -4.59448242 3.23291016 C-2 1 -2 1 0 0 Z " fill="#030E42" transform="translate(330,153)"/>
<path d="M0 0 C4.62 0 9.24 0 14 0 C12.515 1.485 12.515 1.485 11 3 C11.7425 3.2475 12.485 3.495 13.25 3.75 C16.23023087 5.10465039 17.89919252 6.5101541 20 9 C20 9.66 20 10.32 20 11 C20.66 11.33 21.32 11.66 22 12 C21.01 12 20.02 12 19 12 C19 28.17 19 44.34 19 61 C18.34 60.67 17.68 60.34 17 60 C17.00666183 59.39500671 17.01332367 58.79001343 17.02018738 58.16668701 C17.08653239 51.8727347 17.13179716 45.57888164 17.16479492 39.28466797 C17.1798859 36.93534307 17.20036092 34.58604637 17.22631836 32.23681641 C17.2626872 28.86093185 17.27972338 25.48541963 17.29296875 22.109375 C17.30845261 21.05820496 17.32393646 20.00703491 17.33988953 18.92401123 C17.34011612 17.94329651 17.34034271 16.96258179 17.34057617 15.95214844 C17.34723801 15.09055115 17.35389984 14.22895386 17.36076355 13.34124756 C16.91562006 10.45239943 16.00155929 9.10580086 14 7 C10.99221479 5.99740493 8.46179353 5.69685358 5.3125 5.4375 C4.31863281 5.35371094 3.32476562 5.26992187 2.30078125 5.18359375 C1.16189453 5.09271484 1.16189453 5.09271484 0 5 C0 3.35 0 1.7 0 0 Z " fill="#D5DAE6" transform="translate(289,147)"/>
<path d="M0 0 C0.33 0.66 0.66 1.32 1 2 C1.66 2 2.32 2 3 2 C5.5259232 5.40028123 6.45692201 7.77347138 6 12 C5.67 12.66 5.34 13.32 5 14 C5.99 14.66 6.98 15.32 8 16 C7.67 16.66 7.34 17.32 7 18 C6.34 17.67 5.68 17.34 5 17 C4.34 18.32 3.68 19.64 3 21 C2.34 21 1.68 21 1 21 C0.67 21.66 0.34 22.32 0 23 C-1.19219354 20.61561291 -1.12916022 19.12343998 -1.1328125 16.46484375 C-1.13410156 15.57345703 -1.13539063 14.68207031 -1.13671875 13.76367188 C-1.13285156 12.83103516 -1.12898438 11.89839844 -1.125 10.9375 C-1.12886719 10.00099609 -1.13273437 9.06449219 -1.13671875 8.09960938 C-1.13542969 7.20951172 -1.13414062 6.31941406 -1.1328125 5.40234375 C-1.13168457 4.58241943 -1.13055664 3.76249512 -1.12939453 2.91772461 C-1 1 -1 1 0 0 Z " fill="#072268" transform="translate(325,260)"/>
<path d="M0 0 C0.33 0.66 0.66 1.32 1 2 C1.54140625 1.83628906 2.0828125 1.67257812 2.640625 1.50390625 C5.40222593 0.91409413 7.92818139 0.90390692 10.75 0.9375 C11.73484375 0.94652344 12.7196875 0.95554687 13.734375 0.96484375 C14.85585937 0.98224609 14.85585937 0.98224609 16 1 C16 1.33 16 1.66 16 2 C15.3709375 2.01417969 14.741875 2.02835937 14.09375 2.04296875 C7.65793221 2.40159113 2.75111594 3.44904194 -2 8 C-6.86008726 14.24361575 -7.79709576 20.70394235 -7.4765625 28.47265625 C-6.09596487 38.69134202 -1.23401318 45.89163966 6 53 C3 53 3 53 1.24609375 51.390625 C0.35083984 50.33101563 0.35083984 50.33101563 -0.5625 49.25 C-1.16191406 48.55390625 -1.76132813 47.8578125 -2.37890625 47.140625 C-4 45 -4 45 -5.08984375 42.796875 C-5.86813451 40.81767071 -5.86813451 40.81767071 -8 40 C-10.53535699 31.09494982 -10.99455355 22.78247234 -7.75390625 14.078125 C-6.94545021 12.02037553 -6.94545021 12.02037553 -6.58984375 9.859375 C-6 8 -6 8 -3 6 C-2.74969023 3.41619823 -2.74969023 3.41619823 -3 1 C-2.34 1 -1.68 1 -1 1 C-1 1.99 -1 2.98 -1 4 C-0.67 2.68 -0.34 1.36 0 0 Z " fill="#0A1545" transform="translate(198,280)"/>
<path d="M0 0 C0.66 0.33 1.32 0.66 2 1 C1.236875 1.53625 0.47375 2.0725 -0.3125 2.625 C-3.18294537 4.80029601 -3.18294537 4.80029601 -4.1875 8 C-6.5699763 11.94340905 -8.89484563 12.80206879 -13.1484375 14.3203125 C-17.77883634 15.42399661 -22.27511638 15.32337607 -27 15 C-27 14.34 -27 13.68 -27 13 C-28.32 12.67 -29.64 12.34 -31 12 C-29.96101562 11.84144531 -28.92203125 11.68289063 -27.8515625 11.51953125 C-17.2482155 9.78985311 -8.21523576 7.39371219 0 0 Z " fill="#F2F6F9" transform="translate(257,325)"/>
<path d="M0 0 C0.99 0.33 1.98 0.66 3 1 C2.34 1 1.68 1 1 1 C0.92652344 1.75667969 0.85304688 2.51335937 0.77734375 3.29296875 C-0.21250241 6.74002096 -1.43105127 7.45090694 -4.4375 9.3125 C-5.24058594 9.82425781 -6.04367187 10.33601563 -6.87109375 10.86328125 C-9 12 -9 12 -11 12 C-11.165 12.78375 -11.33 13.5675 -11.5 14.375 C-13 17 -13 17 -16.28125 18.15625 C-22.13159174 19.45325972 -28.04012524 19.21374957 -34 19.125 C-35.15628906 19.11597656 -36.31257812 19.10695313 -37.50390625 19.09765625 C-40.33615647 19.07424922 -43.16796619 19.04145995 -46 19 C-46.33 18.34 -46.66 17.68 -47 17 C-45.76765625 17.04640625 -44.5353125 17.0928125 -43.265625 17.140625 C-27.43115237 17.55879735 -15.11964684 14.73454434 -3 4 C-1.23676495 1.87396815 -1.23676495 1.87396815 0 0 Z " fill="#0D1A4E" transform="translate(265,323)"/>
<path d="M0 0 C3.27417226 3.21116874 6.00392355 6.18925381 8.375 10.125 C8.89835937 10.97320312 9.42171875 11.82140625 9.9609375 12.6953125 C11 15 11 15 10 18 C10 17.34 10 16.68 10 16 C9.34 16 8.68 16 8 16 C7.81824219 15.36191406 7.63648438 14.72382813 7.44921875 14.06640625 C7.19785156 13.24011719 6.94648438 12.41382813 6.6875 11.5625 C6.44386719 10.73878906 6.20023437 9.91507812 5.94921875 9.06640625 C5.47935547 8.04353516 5.47935547 8.04353516 5 7 C4.01 6.67 3.02 6.34 2 6 C1.94119196 9.16658663 1.90613594 12.33302993 1.875 15.5 C1.85824219 16.386875 1.84148437 17.27375 1.82421875 18.1875 C1.78287848 23.80977619 2.18222032 28.65500546 4 34 C7.03525486 36.02350324 8.19426202 36.32124018 11.6875 36.625 C12.49574219 36.69976562 13.30398438 36.77453125 14.13671875 36.8515625 C14.75160156 36.90054688 15.36648438 36.94953125 16 37 C16 37.66 16 38.32 16 39 C10.77028126 39.31378312 7.41426281 38.90940049 3 36 C-0.13188747 31.91092856 -0.35567321 28.8095304 -0.29296875 23.73046875 C-0.28872391 23.04946609 -0.28447906 22.36846344 -0.28010559 21.66682434 C-0.2634061 19.50663541 -0.22577312 17.34740358 -0.1875 15.1875 C-0.17244174 13.71681042 -0.15875534 12.24610611 -0.14648438 10.77539062 C-0.11353214 7.18328643 -0.06181173 3.59173674 0 0 Z " fill="#0E1440" transform="translate(323,255)"/>
<path d="M0 0 C0.33 0 0.66 0 1 0 C1.0501123 0.58491211 1.10022461 1.16982422 1.15185547 1.77246094 C1.38451235 4.43245181 1.62962436 7.09115349 1.875 9.75 C1.95363281 10.67039063 2.03226563 11.59078125 2.11328125 12.5390625 C2.19707031 13.42851562 2.28085938 14.31796875 2.3671875 15.234375 C2.44050293 16.05131836 2.51381836 16.86826172 2.58935547 17.70996094 C3.50054458 22.79138416 6.2369284 25.58698158 10 29 C11.65661761 30.01656081 13.32111559 31.02065076 15 32 C15.33 32.66 15.66 33.32 16 34 C17.64363134 34.72159424 19.31050386 35.39351421 21 36 C20.01 36.495 20.01 36.495 19 37 C9.66467962 33.07916544 3.14022702 27.22066496 -1 18 C-2.85093584 12.07700531 -2.8720275 5.56455329 0 0 Z " fill="#172353" transform="translate(195,139)"/>
<path d="M0 0 C-1.32 5.28 -2.64 10.56 -4 16 C-4.99 16 -5.98 16 -7 16 C-7 14.35 -7 12.7 -7 11 C-8.65 11 -10.3 11 -12 11 C-10.7994555 8.27148977 -9.30061794 5.75084008 -7.6875 3.25 C-7.29949219 2.63640625 -6.91148437 2.0228125 -6.51171875 1.390625 C-5 0 -5 0 0 0 Z " fill="#EDF1F4" transform="translate(451,229)"/>
<path d="M0 0 C0.33 0 0.66 0 1 0 C1.3690205 16.8929385 1.3690205 16.8929385 -1 24 C-2.32 23.67 -3.64 23.34 -5 23 C-5.33 23.99 -5.66 24.98 -6 26 C-6.33 25.34 -6.66 24.68 -7 24 C-6.70351563 23.12085938 -6.40703125 22.24171875 -6.1015625 21.3359375 C-4.89292169 17.67572738 -4.59244175 14.466471 -4.375 10.625 C-4.30023438 9.37976563 -4.22546875 8.13453125 -4.1484375 6.8515625 C-4.09945313 5.91054688 -4.05046875 4.96953125 -4 4 C-3.01 5.485 -3.01 5.485 -2 7 C-1.34 7 -0.68 7 0 7 C0 4.69 0 2.38 0 0 Z " fill="#F7FAFA" transform="translate(273,286)"/>
<path d="M0 0 C1.87900793 5.63702379 -1.74997729 11.48480279 -4.2890625 16.59375 C-9.61418964 25.9945331 -17.30042957 33.52324672 -25 41 C-25.66 40.67 -26.32 40.34 -27 40 C-25.77083333 38.77083333 -24.54166667 37.54166667 -23.3125 36.3125 C-22.58546875 35.58289063 -21.8584375 34.85328125 -21.109375 34.1015625 C-19.88046975 32.87720875 -18.64433777 31.65987641 -17.390625 30.4609375 C-15.12036668 28.28416041 -14.01673501 27.05020504 -13 24 C-12.34 23.67 -11.68 23.34 -11 23 C-10.690625 22.21625 -10.38125 21.4325 -10.0625 20.625 C-9 18 -9 18 -7.5 16.5625 C-5.30065368 14.27151425 -4.73436136 12.059839 -4 9 C-4.28639786 6.22252318 -4.28639786 6.22252318 -5 4 C-4.01 4 -3.02 4 -2 4 C-1.34 2.68 -0.68 1.36 0 0 Z " fill="#0C1846" transform="translate(336,312)"/>
<path d="M0 0 C1.11169695 1.66754542 2.21153546 3.34382698 3.26171875 5.05078125 C9.71870305 15.29350429 16.90404691 19.29464846 28 24 C24.3158792 25.31385513 21.67787135 24.69552138 17.9375 23.75 C16.89464844 23.49734375 15.85179687 23.2446875 14.77734375 22.984375 C12.02767906 22.0098103 10.72592861 21.31716367 9 19 C9 18.34 9 17.68 9 17 C8.34 16.67 7.68 16.34 7 16 C5.73074077 14.10185441 4.53190409 12.15614132 3.375 10.1875 C2.74335937 9.12917969 2.11171875 8.07085937 1.4609375 6.98046875 C0 4 0 4 0 0 Z " fill="#111E58" transform="translate(67,242)"/>
<path d="M0 0 C1.39861681 4.19585044 -0.28942826 6.96392304 -1.875 10.875 C-2.43850706 12.2876273 -2.99849495 13.70166429 -3.5546875 15.1171875 C-3.80718262 15.74222168 -4.05967773 16.36725586 -4.31982422 17.01123047 C-5.70683255 21.0667114 -6.14183627 25.03628603 -6.31640625 29.30078125 C-6.35830078 30.27724609 -6.40019531 31.25371094 -6.44335938 32.25976562 C-6.48267578 33.26716797 -6.52199219 34.27457031 -6.5625 35.3125 C-6.60568359 36.33923828 -6.64886719 37.36597656 -6.69335938 38.42382812 C-6.79906825 40.94909569 -6.90116468 43.47445562 -7 46 C-7.33 46 -7.66 46 -8 46 C-9.9299381 35.75294769 -10.33486007 23.00458022 -7 13 C-6.34 13 -5.68 13 -5 13 C-4.80664062 12.39671875 -4.61328125 11.7934375 -4.4140625 11.171875 C-4.02347656 9.97304688 -4.02347656 9.97304688 -3.625 8.75 C-3.36976563 7.96109375 -3.11453125 7.1721875 -2.8515625 6.359375 C-2.04826333 4.13372042 -1.10288338 2.09068328 0 0 Z " fill="#0C1749" transform="translate(154,267)"/>
<path d="M0 0 C-0.56396484 0.02505615 -1.12792969 0.0501123 -1.70898438 0.07592773 C-4.30614882 0.19318301 -6.9030631 0.31531266 -9.5 0.4375 C-10.386875 0.47681641 -11.27375 0.51613281 -12.1875 0.55664062 C-17.49990774 0.81054247 -22.75508708 1.09176393 -28 2 C-28.33 2.66 -28.66 3.32 -29 4 C-29.66 3.67 -30.32 3.34 -31 3 C-31 3.66 -31 4.32 -31 5 C-36.625 8 -36.625 8 -40 8 C-39 5 -39 5 -36.62890625 3.68359375 C-26.54687303 -0.41343631 -9.98821772 -6.65881182 0 0 Z " fill="#172052" transform="translate(222,242)"/>
<path d="M0 0 C0.712771 0.00386719 1.42554199 0.00773438 2.15991211 0.01171875 C7.02025239 0.09095446 11.53716438 0.6539435 16.265625 1.828125 C18.64165899 2.39834253 18.64165899 2.39834253 22.1875 2 C25.375 2.25 25.375 2.25 26.9140625 3.578125 C28.3125 5.25 28.3125 5.25 30.375 8.25 C29.67375 8.05664062 28.9725 7.86328125 28.25 7.6640625 C27.30125 7.40367187 26.3525 7.14328125 25.375 6.875 C24.446875 6.61976563 23.51875 6.36453125 22.5625 6.1015625 C21.510625 5.82054687 20.45875 5.53953125 19.375 5.25 C18.17875 4.899375 16.9825 4.54875 15.75 4.1875 C10.35830071 2.84856134 4.90487964 2.79110402 -0.625 2.625 C-2.21634766 2.56699219 -2.21634766 2.56699219 -3.83984375 2.5078125 C-6.43473067 2.41430306 -9.02962449 2.32855098 -11.625 2.25 C-7.72990963 0.09663409 -4.37675582 -0.05721917 0 0 Z " fill="#142051" transform="translate(209.625,233.75)"/>
<path d="M0 0 C1.93166016 0.01740234 1.93166016 0.01740234 3.90234375 0.03515625 C5.19269531 0.04417969 6.48304688 0.05320313 7.8125 0.0625 C8.81152344 0.07410156 9.81054688 0.08570313 10.83984375 0.09765625 C9.84984375 0.59265625 9.84984375 0.59265625 8.83984375 1.09765625 C8.83984375 2.08765625 8.83984375 3.07765625 8.83984375 4.09765625 C5.12704906 5.33525448 1.52678029 5.45374522 -2.34765625 5.66015625 C-3.09724609 5.70333984 -3.84683594 5.74652344 -4.61914062 5.79101562 C-6.46594 5.8968831 -8.31302459 5.99775385 -10.16015625 6.09765625 C-9.83015625 5.10765625 -9.50015625 4.11765625 -9.16015625 3.09765625 C-6.66015625 1.97265625 -6.66015625 1.97265625 -4.16015625 1.09765625 C-3.16015625 0.09765625 -3.16015625 0.09765625 0 0 Z " fill="#E8ECF0" transform="translate(341.16015625,146.90234375)"/>
<path d="M0 0 C5.28 0.33 10.56 0.66 16 1 C15.01 1.66 14.02 2.32 13 3 C13 3.66 13 4.32 13 5 C15.31 5 17.62 5 20 5 C20 5.33 20 5.66 20 6 C17.4580411 6.05434116 14.91726318 6.0938339 12.375 6.125 C11.66214844 6.14175781 10.94929687 6.15851563 10.21484375 6.17578125 C5.7387836 6.21684602 2.22050722 5.69086567 -2 4 C-2 3.34 -2 2.68 -2 2 C-1.34 2 -0.68 2 0 2 C0 1.34 0 0.68 0 0 Z " fill="#E2E7EF" transform="translate(217,335)"/>
<path d="M0 0 C0 3.51716303 -0.82445585 4.37121748 -3 7 C-1.35 7 0.3 7 2 7 C-1.75 9 -1.75 9 -4 9 C-4 9.99 -4 10.98 -4 12 C-5.134375 12.433125 -6.26875 12.86625 -7.4375 13.3125 C-8.613125 13.869375 -9.78875 14.42625 -11 15 C-11.33 15.99 -11.66 16.98 -12 18 C-13.32 17.67 -14.64 17.34 -16 17 C-14.5969473 13.72143808 -12.98851532 11.8858673 -10.25 9.625 C-6.6385246 6.5736987 -3.30090396 3.38342656 0 0 Z " fill="#091953" transform="translate(347,342)"/>
<path d="M0 0 C1.3096875 -0.01417969 2.619375 -0.02835937 3.96875 -0.04296875 C7.17108832 0.16603342 8.85158038 0.47818836 11.5 2.1875 C9.5354874 4.1520126 5.82407149 3.55204474 3.125 3.6875 C-2.26355137 3.94026441 -2.26355137 3.94026441 -7.5 5.1875 C-8.82 5.1875 -10.14 5.1875 -11.5 5.1875 C-11.5 3.8675 -11.5 2.5475 -11.5 1.1875 C-7.68356718 -0.02947475 -3.98269899 0.0195999 0 0 Z " fill="#192760" transform="translate(226.5,120.8125)"/>
<path d="M0 0 C2.31 0 4.62 0 7 0 C5.9171875 0.84111328 5.9171875 0.84111328 4.8125 1.69921875 C-2.04187523 7.30647849 -8.15883153 13.57687502 -13 21 C-13.33 20.34 -13.66 19.68 -14 19 C-13.0126546 17.32580562 -12.01187895 15.65948148 -11 14 C-11 13.01 -11 12.02 -11 11 C-9.68 10.67 -8.36 10.34 -7 10 C-6.67 8.68 -6.34 7.36 -6 6 C-5.38125 5.938125 -4.7625 5.87625 -4.125 5.8125 C-1.72238859 5.171081 -1.72238859 5.171081 -0.75 2.4375 C-0.37875 1.2309375 -0.37875 1.2309375 0 0 Z " fill="#0C184C" transform="translate(170,245)"/>
<path d="M0 0 C2.97 0.495 2.97 0.495 6 1 C6 13.54 6 26.08 6 39 C5.67 39 5.34 39 5 39 C4.95512451 37.92516357 4.91024902 36.85032715 4.86401367 35.74291992 C4.69378878 31.75586265 4.50487745 27.76987261 4.31030273 23.78393555 C4.22869934 22.05858353 4.15216803 20.33298386 4.08081055 18.60717773 C3.97736459 16.12661495 3.85571452 13.64751454 3.73046875 11.16796875 C3.70220505 10.39599655 3.67394135 9.62402435 3.64482117 8.82865906 C3.43933315 4.60959191 3.43933315 4.60959191 1.4543457 0.98950195 C0.97441162 0.66296631 0.49447754 0.33643066 0 0 Z " fill="#0A1345" transform="translate(270,121)"/>
<path d="M0 0 C1.25 2.0625 1.25 2.0625 2 4 C0.98679688 4.19916016 0.98679688 4.19916016 -0.046875 4.40234375 C-1.38492188 4.66724609 -1.38492188 4.66724609 -2.75 4.9375 C-3.63171875 5.11152344 -4.5134375 5.28554687 -5.421875 5.46484375 C-7.63235053 5.92368488 -9.81512068 6.43336074 -12 7 C-12 6.34 -12 5.68 -12 5 C-12.66 4.67 -13.32 4.34 -14 4 C-13.01 4 -12.02 4 -11 4 C-11.33 3.01 -11.66 2.02 -12 1 C-3.34165367 -1.45319813 -3.34165367 -1.45319813 0 0 Z " fill="#E7EEF2" transform="translate(203,237)"/>
<path d="M0 0 C0.33 0.66 0.66 1.32 1 2 C1.66 2 2.32 2 3 2 C3 1.34 3 0.68 3 0 C4.79158489 -0.02696365 6.58328473 -0.04637917 8.375 -0.0625 C9.37273437 -0.07410156 10.37046875 -0.08570313 11.3984375 -0.09765625 C14 0 14 0 16 1 C15.67 2.32 15.34 3.64 15 5 C11.68757696 5 8.54069789 4.8133998 5.25 4.5 C4.26515625 4.4071875 3.2803125 4.314375 2.265625 4.21875 C1.51796875 4.1465625 0.7703125 4.074375 0 4 C0 2.68 0 1.36 0 0 Z " fill="#FCFDEF" transform="translate(136,148)"/>
<path d="M0 0 C1.89575251 -0.02721176 3.79161979 -0.04649136 5.6875 -0.0625 C6.74324219 -0.07410156 7.79898438 -0.08570313 8.88671875 -0.09765625 C11.72410262 -0.00865425 14.2438919 0.35060162 17 1 C16.67 1.99 16.34 2.98 16 4 C10.39 4 4.78 4 -1 4 C-0.67 2.68 -0.34 1.36 0 0 Z " fill="#FCFDFC" transform="translate(203,236)"/>
<path d="M0 0 C0.66 0 1.32 0 2 0 C2 6.93 2 13.86 2 21 C1.01 20.34 0.02 19.68 -1 19 C-1.35644531 17.13647461 -1.35644531 17.13647461 -1.328125 14.90234375 C-1.32296875 14.10119141 -1.3178125 13.30003906 -1.3125 12.47460938 C-1.291875 11.63736328 -1.27125 10.80011719 -1.25 9.9375 C-1.24484375 9.09638672 -1.2396875 8.25527344 -1.234375 7.38867188 C-1.15399235 1.15399235 -1.15399235 1.15399235 0 0 Z " fill="#FDFDF7" transform="translate(150,292)"/>
<path d="M0 0 C3.07558508 3.69457076 5.02967428 7.83457114 7.125 12.125 C7.48464844 12.85332031 7.84429687 13.58164062 8.21484375 14.33203125 C9.14648977 16.21974846 10.07355697 18.10972386 11 20 C11.33 20.66 11.66 21.32 12 22 C10.35 22 8.7 22 7 22 C6.80664062 21.44570313 6.61328125 20.89140625 6.4140625 20.3203125 C6.15367187 19.59585937 5.89328125 18.87140625 5.625 18.125 C5.36976563 17.40570313 5.11453125 16.68640625 4.8515625 15.9453125 C4.06122217 13.81842006 4.06122217 13.81842006 2 12 C0.60662804 7.89729367 -0.26289955 4.33784263 0 0 Z " fill="#132156" transform="translate(149,322)"/>
<path d="M0 0 C2 3 2 3 1.875 5.4375 C0.83142511 8.4936836 -0.74073364 9.74073364 -3 12 C-3.144375 12.804375 -3.28875 13.60875 -3.4375 14.4375 C-4.23494686 18.07031347 -6.28714354 19.54551082 -9 22 C-9.8971875 22.8971875 -9.8971875 22.8971875 -10.8125 23.8125 C-11.204375 24.204375 -11.59625 24.59625 -12 25 C-10.3033998 20.48456926 -8.17450282 16.23529452 -6 11.9375 C-5.64421875 11.23044922 -5.2884375 10.52339844 -4.921875 9.79492188 C-4.24300193 8.44604162 -3.56336117 7.09754736 -2.8828125 5.74951172 C-1.91696658 3.8354487 -0.95680677 1.9185969 0 0 Z " fill="#0F1A50" transform="translate(361,316)"/>
<path d="M0 0 C1.09570312 0.00902344 2.19140625 0.01804688 3.3203125 0.02734375 C4.16335937 0.03894531 5.00640625 0.05054688 5.875 0.0625 C5.875 0.3925 5.875 0.7225 5.875 1.0625 C4.8025 1.18625 3.73 1.31 2.625 1.4375 C-0.58204798 1.972008 -2.43235106 2.39120066 -5.125 4.0625 C-5.846875 4.413125 -6.56875 4.76375 -7.3125 5.125 C-10.21148746 8.22391763 -9.95278963 11.95528258 -10.125 16.0625 C-10.455 16.0625 -10.785 16.0625 -11.125 16.0625 C-12.72907345 7.08317582 -12.72907345 7.08317582 -10.3125 3 C-6.76028287 -0.14624945 -4.67602238 -0.04974492 0 0 Z " fill="#0D1A4E" transform="translate(94.125,151.9375)"/>
<path d="M0 0 C0.66 0.99 1.32 1.98 2 3 C-2.8226132 7.01884433 -5.87080911 9.29287344 -12.25 9.125 C-13.14203125 9.10695313 -14.0340625 9.08890625 -14.953125 9.0703125 C-15.96632812 9.03550781 -15.96632812 9.03550781 -17 9 C-17 8.67 -17 8.34 -17 8 C-14.69 8 -12.38 8 -10 8 C-10 7.34 -10 6.68 -10 6 C-7.8125 4.4921875 -7.8125 4.4921875 -5 2.875 C-4.071875 2.33617187 -3.14375 1.79734375 -2.1875 1.2421875 C-1.1046875 0.62730469 -1.1046875 0.62730469 0 0 Z " fill="#F3F8F3" transform="translate(221,309)"/>
<path d="M0 0 C1.98 0.99 1.98 0.99 4 2 C4 3.66666667 4 5.33333333 4 7 C4.66 7.33 5.32 7.66 6 8 C7.66666667 9.66666667 9.33333333 11.33333333 11 13 C13.6860286 14.79068573 15.6626589 15.66055791 18.6875 16.625 C19.49574219 16.88539063 20.30398437 17.14578125 21.13671875 17.4140625 C22.05904297 17.70410156 22.05904297 17.70410156 23 18 C23 18.33 23 18.66 23 19 C15.94845815 18.7435803 11.29412089 16.70913515 6 12 C0 4.76796715 0 4.76796715 0 0 Z " fill="#0A1744" transform="translate(84,240)"/>
<path d="M0 0 C0 0.99 0 1.98 0 3 C-0.99 3.495 -0.99 3.495 -2 4 C-1.34 2.68 -0.68 1.36 0 0 Z M-3 4 C-1.35 4.33 0.3 4.66 2 5 C0.62845496 7.95409701 -0.98863724 10.44008376 -3 13 C-3 12.34 -3 11.68 -3 11 C-4.98491642 11.26676204 -4.98491642 11.26676204 -7 12 C-7.33 12.99 -7.66 13.98 -8 15 C-8.33 14.34 -8.66 13.68 -9 13 C-7.02 10.03 -5.04 7.06 -3 4 Z " fill="#EEF3F5" transform="translate(163,257)"/>
<path d="M0 0 C3.3 0.66 6.6 1.32 10 2 C10 1.34 10 0.68 10 0 C10.66 0 11.32 0 12 0 C12.33 0.99 12.66 1.98 13 3 C16.01137896 4.47694961 16.01137896 4.47694961 19.5625 5.6875 C21.35880859 6.34298828 21.35880859 6.34298828 23.19140625 7.01171875 C24.11824219 7.33785156 25.04507812 7.66398438 26 8 C22.40294561 9.27673227 20.16974691 8.70375319 16.578125 7.56640625 C15.55332031 7.24736328 14.52851563 6.92832031 13.47265625 6.59960938 C12.40917969 6.25736328 11.34570312 5.91511719 10.25 5.5625 C9.17105469 5.22412109 8.09210938 4.88574219 6.98046875 4.53710938 C4.31730828 3.70045277 1.65748967 2.85446467 -1 2 C-0.67 1.34 -0.34 0.68 0 0 Z " fill="#121E52" transform="translate(257,186)"/>
<path d="M0 0 C4.50802601 1.25805377 7.4912812 2.90407165 11 6 C9.68 6.99 8.36 7.98 7 9 C4.03 7.35 1.06 5.7 -2 4 C-1.34 2.68 -0.68 1.36 0 0 Z " fill="#E7EAF2" transform="translate(236,241)"/>
<path d="M0 0 C4.96622349 -0.02465098 9.93241166 -0.04283649 14.89868164 -0.05493164 C16.58944316 -0.0599719 18.28020029 -0.06680405 19.97094727 -0.07543945 C22.39600707 -0.08751857 24.82100944 -0.09323123 27.24609375 -0.09765625 C28.38672523 -0.10539818 28.38672523 -0.10539818 29.55039978 -0.11329651 C31.3673257 -0.11349238 33.18413127 -0.06197277 35 0 C36 1 36 1 36.0625 4.0625 C36.041875 5.031875 36.02125 6.00125 36 7 C33 3.25 33 3.25 33 1 C22.11 1 11.22 1 0 1 C0 0.67 0 0.34 0 0 Z " fill="#172867" transform="translate(303,300)"/>
<path d="M0 0 C7.57142857 3 7.57142857 3 10 6 C9.67 6.99 9.34 7.98 9 9 C8.13375 8.38125 7.2675 7.7625 6.375 7.125 C3.23225669 5.14623569 0.50763906 4.11606697 -3 3 C-3.66 2.34 -4.32 1.68 -5 1 C-2.525 1.495 -2.525 1.495 0 2 C0 1.34 0 0.68 0 0 Z " fill="#0D1B57" transform="translate(143,152)"/>
<path d="M0 0 C-1.65 0.33 -3.3 0.66 -5 1 C-5 2.32 -5 3.64 -5 5 C-4.34 5.66 -3.68 6.32 -3 7 C-8.94 7.495 -8.94 7.495 -15 8 C-14.175 7.236875 -13.35 6.47375 -12.5 5.6875 C-9.65944803 3.24565858 -9.65944803 3.24565858 -10 0 C-6.33694766 -0.74926071 -3.57644848 -1.2380014 0 0 Z " fill="#E1E5ED" transform="translate(271,375)"/>
<path d="M0 0 C0 0.66 0 1.32 0 2 C-4.70461323 3.86132673 -8.8757696 4.2509496 -13.875 4.125 C-14.56335938 4.11597656 -15.25171875 4.10695313 -15.9609375 4.09765625 C-17.64077838 4.07432513 -19.32043746 4.03846326 -21 4 C-21 3.67 -21 3.34 -21 3 C-17.37 3 -13.74 3 -10 3 C-10 2.34 -10 1.68 -10 1 C-8.71073008 0.63720544 -7.41846728 0.28503302 -6.125 -0.0625 C-5.40570313 -0.25972656 -4.68640625 -0.45695312 -3.9453125 -0.66015625 C-2 -1 -2 -1 0 0 Z " fill="#0B164D" transform="translate(244,332)"/>
<path d="M0 0 C0.79664063 0.24556641 0.79664063 0.24556641 1.609375 0.49609375 C4.53876764 1.11356377 7.25822936 1.09501925 10.25 1.0625 C11.86648437 1.04896484 11.86648437 1.04896484 13.515625 1.03515625 C14.74539062 1.01775391 14.74539062 1.01775391 16 1 C15.67 1.66 15.34 2.32 15 3 C12.49609375 3.6328125 12.49609375 3.6328125 9.4375 4.125 C7.91962891 4.37636719 7.91962891 4.37636719 6.37109375 4.6328125 C5.19740234 4.81457031 5.19740234 4.81457031 4 5 C4.33 6.32 4.66 7.64 5 9 C1.9083091 6.47043472 1.09068668 3.77545388 0 0 Z " fill="#081144" transform="translate(200,316)"/>
<path d="M0 0 C0.99 0 1.98 0 3 0 C4.63241288 2.95746768 5.45432765 5.62066088 6.0625 8.9375 C6.21847656 9.77152344 6.37445313 10.60554688 6.53515625 11.46484375 C6.76525391 12.71974609 6.76525391 12.71974609 7 14 C7.33066482 15.66719815 7.66322859 17.33402464 8 19 C5.24020259 15.71414149 3.81690532 12.37771204 2.3125 8.375 C1.87550781 7.22773438 1.43851563 6.08046875 0.98828125 4.8984375 C0 2 0 2 0 0 Z " fill="#0D1A53" transform="translate(154,316)"/>
<path d="M0 0 C1.29608947 0.93137592 2.58671632 1.8703566 3.875 2.8125 C4.59429687 3.33457031 5.31359375 3.85664063 6.0546875 4.39453125 C8 6 8 6 10 9 C8.68 9.33 7.36 9.66 6 10 C6 9.01 6 8.02 6 7 C3.69 7 1.38 7 -1 7 C-1.33 6.34 -1.66 5.68 -2 5 C-1.34 5 -0.68 5 0 5 C-0.2784375 4.0409375 -0.2784375 4.0409375 -0.5625 3.0625 C-0.7790625 2.0415625 -0.7790625 2.0415625 -1 1 C-0.67 0.67 -0.34 0.34 0 0 Z " fill="#F2F6F4" transform="translate(331,225)"/>
<path d="M0 0 C3.96 0 7.92 0 12 0 C9.05442083 1.96371945 6.24961274 3.29765337 3 4.6875 C1.948125 5.14511719 0.89625 5.60273438 -0.1875 6.07421875 C-3 7 -3 7 -6 6 C-5.38125 5.7525 -4.7625 5.505 -4.125 5.25 C-1.54131114 3.98960746 -1.54131114 3.98960746 0 0 Z " fill="#0C1A4D" transform="translate(185,236)"/>
<path d="M0 0 C1.16165992 3.48497977 0.86070072 5.45314644 0.3125 9.0625 C0.09013672 10.65771484 0.09013672 10.65771484 -0.13671875 12.28515625 C-1 15 -1 15 -3.08203125 16.37109375 C-3.71496094 16.57863281 -4.34789062 16.78617188 -5 17 C-4.35841048 14.35307023 -3.71195217 11.70750071 -3.0625 9.0625 C-2.88009766 8.30775391 -2.69769531 7.55300781 -2.50976562 6.77539062 C-1.11328125 1.11328125 -1.11328125 1.11328125 0 0 Z " fill="#101C4F" transform="translate(449,237)"/>
<path d="M0 0 C0.556875 0.185625 1.11375 0.37125 1.6875 0.5625 C4.399133 1.07551165 6.34371039 0.6640724 9 0 C8.75 2.875 8.75 2.875 8 6 C5.9375 7.375 5.9375 7.375 4 8 C0 2.25 0 2.25 0 0 Z " fill="#0E1D52" transform="translate(349,242)"/>
<path d="M0 0 C4.31320068 1.75722991 7.9031084 4.8062168 10 9 C10.31658385 13.73944653 10.19110347 18.38447404 9 23 C8.67 23 8.34 23 8 23 C7.97421875 22.21496094 7.9484375 21.42992187 7.921875 20.62109375 C7.44368324 11.76367828 5.54825508 6.93531885 0 0 Z " fill="#081241" transform="translate(219,284)"/>
<path d="M0 0 C0.66 0.33 1.32 0.66 2 1 C1.360625 1.2475 0.72125 1.495 0.0625 1.75 C-2.19635114 2.78813195 -2.19635114 2.78813195 -2.5 5 C-3 7 -3 7 -4.9375 8.1875 C-5.618125 8.455625 -6.29875 8.72375 -7 9 C-7.99 9.495 -7.99 9.495 -9 10 C-9.12375 9.360625 -9.2475 8.72125 -9.375 8.0625 C-9.684375 7.0415625 -9.684375 7.0415625 -10 6 C-10.66 5.67 -11.32 5.34 -12 5 C-10.82630859 4.58427734 -10.82630859 4.58427734 -9.62890625 4.16015625 C-8.61699219 3.79792969 -7.60507813 3.43570312 -6.5625 3.0625 C-5.55316406 2.70285156 -4.54382813 2.34320313 -3.50390625 1.97265625 C-1.09686255 1.23122361 -1.09686255 1.23122361 0 0 Z " fill="#EDF1F3" transform="translate(140,254)"/>
<path d="M0 0 C0.99 0.33 1.98 0.66 3 1 C2.34 1 1.68 1 1 1 C0.67 1.99 0.34 2.98 0 4 C-1.32 4.33 -2.64 4.66 -4 5 C-4.33 10.94 -4.66 16.88 -5 23 C-5.33 23 -5.66 23 -6 23 C-6.30487331 20.45838288 -6.5693358 17.92264696 -6.8125 15.375 C-6.90208984 14.66214844 -6.99167969 13.94929687 -7.08398438 13.21484375 C-7.43975644 9.13282746 -7.27781475 6.78441954 -4.63671875 3.5390625 C-2 1 -2 1 0 0 Z " fill="#0E1E57" transform="translate(330,153)"/>
<path d="M0 0 C4.37859255 0.50522222 6.81651224 3.17827222 10 6 C6.79780242 7.06739919 6.05137926 7.10959246 3 6 C0.75 4.4375 0.75 4.4375 -1 3 C-0.67 2.01 -0.34 1.02 0 0 Z " fill="#F3F6F9" transform="translate(245,247)"/>
<path d="M0 0 C0.66 0 1.32 0 2 0 C2.185625 0.9590625 2.185625 0.9590625 2.375 1.9375 C2.684375 2.9584375 2.684375 2.9584375 3 4 C3.66 4.33 4.32 4.66 5 5 C5.4140625 7.28515625 5.4140625 7.28515625 5.625 10.0625 C5.69976562 10.98160156 5.77453125 11.90070313 5.8515625 12.84765625 C5.90054688 13.55792969 5.94953125 14.26820313 6 15 C3.57000464 12.72635823 2.57194165 11.31726155 2 8 C1.34 8 0.68 8 0 8 C0 5.36 0 2.72 0 0 Z " fill="#F9FAF5" transform="translate(151,317)"/>
<path d="M0 0 C-10.66923592 8.4189008 -10.66923592 8.4189008 -18 8 C-15 6 -15 6 -11.9375 5.125 C-8.47353169 3.79837384 -8.52038104 3.14212081 -7 0 C-4.12060581 -0.93580311 -2.74490212 -1.37245106 0 0 Z " fill="#0D184A" transform="translate(145,251)"/>
<path d="M0 0 C6.69679193 0.29116487 11.6366926 3.05841029 17 7 C17.99 8.485 17.99 8.485 19 10 C12.25 8.375 12.25 8.375 10 5 C7.5939111 3.77155177 7.5939111 3.77155177 4.875 2.8125 C3.96492187 2.46832031 3.05484375 2.12414062 2.1171875 1.76953125 C1.41851562 1.51558594 0.71984375 1.26164063 0 1 C0 0.67 0 0.34 0 0 Z " fill="#0D1647" transform="translate(231,245)"/>
<path d="M0 0 C2.59336185 1.29668093 2.90784262 2.54821551 4.1875 5.125 C6.75317486 9.92603828 9.96893955 13.38714755 14 17 C13.01 17.33 12.02 17.66 11 18 C10.67 17.01 10.34 16.02 10 15 C9.01 15 8.02 15 7 15 C6.66226563 14.38511719 6.32453125 13.77023438 5.9765625 13.13671875 C5.53054687 12.32847656 5.08453125 11.52023438 4.625 10.6875 C4.18414062 9.88699219 3.74328125 9.08648437 3.2890625 8.26171875 C2.26486665 6.46472057 1.14732862 4.72099292 0 3 C0 2.01 0 1.02 0 0 Z " fill="#17224C" transform="translate(176,177)"/>
<path d="M0 0 C0.99 0.33 1.98 0.66 3 1 C2.67 2.65 2.34 4.3 2 6 C1.34 6 0.68 6 0 6 C-0.66 7.32 -1.32 8.64 -2 10 C-2.66 9.67 -3.32 9.34 -4 9 C-3.46930939 5.17902761 -2.50298434 2.93828597 0 0 Z " fill="#F8FAFA" transform="translate(268,309)"/>
<path d="M0 0 C5.80342274 1.48805711 10.17590879 4.59097555 15 8 C14.67 8.99 14.34 9.98 14 11 C13.2884375 10.13375 13.2884375 10.13375 12.5625 9.25 C9.5556589 6.60984684 6.63400862 5.44144682 2.92578125 4.02734375 C1 3 1 3 0 0 Z " fill="#0F1A4A" transform="translate(287,229)"/>
<path d="M0 0 C0.8971875 0.5259375 0.8971875 0.5259375 1.8125 1.0625 C4.10813214 2.33304698 4.10813214 2.33304698 7 1 C7 1.66 7 2.32 7 3 C5.09392715 4.06092734 3.17467254 5.09820101 1.25 6.125 C0.18265625 6.70507812 -0.8846875 7.28515625 -1.984375 7.8828125 C-5 9 -5 9 -7.390625 8.1796875 C-8.18726563 7.59574219 -8.18726563 7.59574219 -9 7 C-6.36 6.67 -3.72 6.34 -1 6 C-1.020625 5.195625 -1.04125 4.39125 -1.0625 3.5625 C-1 1 -1 1 0 0 Z " fill="#0A1950" transform="translate(427,242)"/>
<path d="M0 0 C4.46333347 0.48559415 8.9227391 0.98320955 13.375 1.5625 C16.8878469 2.05991008 16.8878469 2.05991008 20 2 C19.67 2.99 19.34 3.98 19 5 C16.01885305 4.55238034 13.04053522 4.09249534 10.0625 3.625 C9.21236328 3.49867188 8.36222656 3.37234375 7.48632812 3.2421875 C6.67744141 3.11328125 5.86855469 2.984375 5.03515625 2.8515625 C4.2862915 2.73635254 3.53742676 2.62114258 2.76586914 2.50244141 C2.18313232 2.33663574 1.60039551 2.17083008 1 2 C0.67 1.34 0.34 0.68 0 0 Z " fill="#141F54" transform="translate(231,181)"/>
<path d="M0 0 C0.33 0 0.66 0 1 0 C1 5.94 1 11.88 1 18 C-1.31 18 -3.62 18 -6 18 C-6 17.01 -6 16.02 -6 15 C-4.35 14.67 -2.7 14.34 -1 14 C-0.67 9.38 -0.34 4.76 0 0 Z " fill="#D3DDED" transform="translate(274,144)"/>
<path d="M0 0 C1.32 0 2.64 0 4 0 C4 2.97 4 5.94 4 9 C3.34 9 2.68 9 2 9 C1.67 9.66 1.34 10.32 1 11 C0.67 7.37 0.34 3.74 0 0 Z " fill="#F9FDFD" transform="translate(269,284)"/>
<path d="M0 0 C0.33 0 0.66 0 1 0 C1 5.28 1 10.56 1 16 C0.67 16 0.34 16 0 16 C-0.12375 15.195625 -0.2475 14.39125 -0.375 13.5625 C-0.684375 12.2940625 -0.684375 12.2940625 -1 11 C-1.66 10.67 -2.32 10.34 -3 10 C-3.33 10.99 -3.66 11.98 -4 13 C-4 10.03 -4 7.06 -4 4 C-3.01 5.485 -3.01 5.485 -2 7 C-1.34 7 -0.68 7 0 7 C0 4.69 0 2.38 0 0 Z " fill="#CED6E4" transform="translate(273,286)"/>
<path d="M0 0 C1.65 0 3.3 0 5 0 C5.8638129 1.45264038 6.71580454 2.9123163 7.5625 4.375 C8.27599609 5.59316406 8.27599609 5.59316406 9.00390625 6.8359375 C9.33261719 7.55007812 9.66132813 8.26421875 10 9 C9.67 9.66 9.34 10.32 9 11 C7.49703315 9.35687553 5.99769719 7.71042916 4.5 6.0625 C3.6646875 5.14597656 2.829375 4.22945312 1.96875 3.28515625 C0 1 0 1 0 0 Z " fill="#0E1B55" transform="translate(338,230)"/>
<path d="M0 0 C0.99 0.33 1.98 0.66 3 1 C1.82744291 4.33727786 0.81131596 6.77437487 -2 9 C-2.66 9 -3.32 9 -4 9 C-3.38461538 3.46153846 -3.38461538 3.46153846 -1.4375 1.125 C-0.963125 0.75375 -0.48875 0.3825 0 0 Z " fill="#101D55" transform="translate(379,153)"/>
<path d="M0 0 C2.02910711 0.25327449 4.04962145 0.57730068 6.0625 0.9375 C7.16722656 1.13214844 8.27195312 1.32679688 9.41015625 1.52734375 C10.69212891 1.76130859 10.69212891 1.76130859 12 2 C8.99112219 3.58158962 6.36327963 4.43945339 3 5 C3 4.34 3 3.68 3 3 C2.01 3.33 1.02 3.66 0 4 C-0.33 3.01 -0.66 2.02 -1 1 C-0.67 0.67 -0.34 0.34 0 0 Z " fill="#E7EDF1" transform="translate(99,258)"/>
<path d="M0 0 C1.12781025 1.69171538 2.25263933 3.38545543 3.3671875 5.0859375 C6.08374563 9.21003871 8.82149753 13.21024706 12 17 C7.10885535 15.61846616 5.35630281 13.25083609 2.625 9.0625 C1.91601562 8.00160156 1.20703125 6.94070312 0.4765625 5.84765625 C-0.01070313 4.90792969 -0.49796875 3.96820313 -1 3 C-0.67 2.01 -0.34 1.02 0 0 Z " fill="#101A43" transform="translate(67,242)"/>
<path d="M0 0 C4.95 2.31 9.9 4.62 15 7 C13.68 7.33 12.36 7.66 11 8 C10.01 7.34 9.02 6.68 8 6 C5.37468476 5.83286431 5.37468476 5.83286431 3 6 C2.67 4.68 2.34 3.36 2 2 C1.34 2 0.68 2 0 2 C0 1.34 0 0.68 0 0 Z " fill="#0E1948" transform="translate(187,368)"/>
<path d="M0 0 C1.9375 0.0625 1.9375 0.0625 4 1 C5.69726294 4.73397847 6.23990744 7.92157346 6 12 C4 9 4 9 4 5 C2.35 4.67 0.7 4.34 -1 4 C-1 1 -1 1 0 0 Z " fill="#0E1C54" transform="translate(331,271)"/>
<path d="M0 0 C0.66 0.66 1.32 1.32 2 2 C1.67 2.66 1.34 3.32 1 4 C1.763125 4.268125 2.52625 4.53625 3.3125 4.8125 C5.87380884 5.94424112 7.19692938 6.91223401 9 9 C6 10 6 10 3.4375 8.9375 C0.44476659 6.55866062 -0.10633592 4.65589852 -1 1 C-0.67 0.67 -0.34 0.34 0 0 Z " fill="#0F1E4B" transform="translate(376,241)"/>
<path d="M0 0 C1.25541557 3.76624671 0.37061958 5.37188934 -1 9 C-1.33 9 -1.66 9 -2 9 C-1.67 6.69 -1.34 4.38 -1 2 C-3.31 2.66 -5.62 3.32 -8 4 C-7.67 2.68 -7.34 1.36 -7 0 C-3.98968256 -0.93423645 -3.13349732 -1.04449911 0 0 Z " fill="#0C194C" transform="translate(452,227)"/>
<path d="M0 0 C0.99 0.33 1.98 0.66 3 1 C3.928125 0.7215625 3.928125 0.7215625 4.875 0.4375 C7.75163253 -0.15474787 9.39719908 0.77089956 12 2 C11.67 2.99 11.34 3.98 11 5 C7.37 4.34 3.74 3.68 0 3 C0 2.01 0 1.02 0 0 Z " fill="#E7F0F2" transform="translate(208,202)"/>
<path d="M0 0 C0.66 0.33 1.32 0.66 2 1 C1.67 1.66 1.34 2.32 1 3 C1.66 3 2.32 3 3 3 C3 3.66 3 4.32 3 5 C2.01 5.33 1.02 5.66 0 6 C-0.33 5.67 -0.66 5.34 -1 5 C-1.99 7.64 -2.98 10.28 -4 13 C-4.66 12.34 -5.32 11.68 -6 11 C-5.18993474 9.35296694 -4.3768779 7.70740494 -3.5625 6.0625 C-3.11003906 5.14597656 -2.65757812 4.22945313 -2.19140625 3.28515625 C-1 1 -1 1 0 0 Z " fill="#0D194D" transform="translate(162,267)"/>
<path d="M0 0 C-0.4793247 4.31392226 -1.7457985 6.16569547 -5 9 C-5.6875 6.1875 -5.6875 6.1875 -6 3 C-4.11242974 0.16864461 -3.46862106 0 0 0 Z " fill="#0B1D57" transform="translate(150,241)"/>
<path d="M0 0 C2.015625 1.421875 2.015625 1.421875 4 4 C4.36537335 7.11926176 4.05679142 10.13338879 3.75 13.25 C3.65138672 14.51070312 3.65138672 14.51070312 3.55078125 15.796875 C3.38617731 17.86618164 3.19560475 19.93339331 3 22 C2.67 22 2.34 22 2 22 C1.93941406 20.91460937 1.87882812 19.82921875 1.81640625 18.7109375 C1.73193936 17.26561514 1.64729449 15.82030318 1.5625 14.375 C1.52318359 13.66214844 1.48386719 12.94929687 1.44335938 12.21484375 C1.19690319 8.08196318 0.76529947 4.07730976 0 0 Z " fill="#091D53" transform="translate(303,154)"/>
<path d="M0 0 C0.33 0.99 0.66 1.98 1 3 C0.67 3.66 0.34 4.32 0 5 C-3 5 -3 5 -4.5625 3.625 C-5.036875 3.08875 -5.51125 2.5525 -6 2 C-6.66 1.34 -7.32 0.68 -8 0 C-5.13822943 -1.43088528 -3.06624227 -0.59991697 0 0 Z " fill="#F6F8F6" transform="translate(207,371)"/>
<path d="M0 0 C0.598125 0.309375 1.19625 0.61875 1.8125 0.9375 C4.08956772 2.10209704 4.08956772 2.10209704 7 3 C8.38671875 4.62890625 8.38671875 4.62890625 9.6875 6.5625 C10.34298828 7.52349609 10.34298828 7.52349609 11.01171875 8.50390625 C11.50091797 9.24447266 11.50091797 9.24447266 12 10 C11.67 10.66 11.34 11.32 11 12 C9.16364422 10.19047409 7.33083792 8.37759362 5.5 6.5625 C4.97535156 6.04623047 4.45070312 5.52996094 3.91015625 4.99804688 C2.58775448 3.68423213 1.29164432 2.34406495 0 1 C0 0.67 0 0.34 0 0 Z " fill="#0C1749" transform="translate(250,248)"/>
<path d="M0 0 C0.66 0.66 1.32 1.32 2 2 C1.01 2.66 0.02 3.32 -1 4 C-1.99 5.485 -1.99 5.485 -3 7 C-3.98095748 8.01868662 -4.97702078 9.02351983 -6 10 C-6.33 9.34 -6.66 8.68 -7 8 C-4.54385965 3 -4.54385965 3 -3 1 C-2.01 0.67 -1.02 0.34 0 0 Z " fill="#F1F5F7" transform="translate(185,134)"/>
<path d="M0 0 C1.62490954 -0.02698189 3.24994633 -0.04638757 4.875 -0.0625 C5.77992188 -0.07410156 6.68484375 -0.08570313 7.6171875 -0.09765625 C10 0 10 0 12 1 C12 1.66 12 2.32 12 3 C9.36 3 6.72 3 4 3 C4 2.34 4 1.68 4 1 C2.68 0.67 1.36 0.34 0 0 Z " fill="#FBFBFB" transform="translate(226,337)"/>
<path d="M0 0 C1.98 0.66 3.96 1.32 6 2 C1.25 6.875 1.25 6.875 -1 8 C-0.67 5.36 -0.34 2.72 0 0 Z " fill="#0D1F58" transform="translate(249,324)"/>
<path d="M0 0 C2.00720923 0.28674418 4.0085944 0.61866701 6 1 C6 2.32 6 3.64 6 5 C4.35 4.67 2.7 4.34 1 4 C1 3.34 1 2.68 1 2 C0.34 1.67 -0.32 1.34 -1 1 C-0.67 0.67 -0.34 0.34 0 0 Z " fill="#F5F7F8" transform="translate(229,239)"/>
<path d="M0 0 C3.9492568 0.55105909 7.34920174 1.38935371 11 3 C10.67 3.66 10.34 4.32 10 5 C6.28111761 4.49287967 3.26545761 3.88391785 0 2 C0 1.34 0 0.68 0 0 Z " fill="#E9F0F5" transform="translate(273,193)"/>
<path d="M0 0 C0.33 0.66 0.66 1.32 1 2 C3.97 2 6.94 2 10 2 C10.33 2.99 10.66 3.98 11 5 C7.37 4.67 3.74 4.34 0 4 C0 2.68 0 1.36 0 0 Z " fill="#DADFED" transform="translate(136,148)"/>
<path d="M0 0 C3.63 1.65 7.26 3.3 11 5 C11 5.66 11 6.32 11 7 C8.0625 6.625 8.0625 6.625 5 6 C4.67 5.34 4.34 4.68 4 4 C1.98330173 2.86649466 1.98330173 2.86649466 0 2 C0 1.34 0 0.68 0 0 Z " fill="#EFF4FA" transform="translate(292,200)"/>
<path d="M0 0 C0 0.99 0 1.98 0 3 C-9.41002278 5.29612756 -9.41002278 5.29612756 -14 5 C-11.35493484 3.23662322 -9.40786033 2.3439149 -6.4375 1.375 C-5.65246094 1.11460937 -4.86742187 0.85421875 -4.05859375 0.5859375 C-2 0 -2 0 0 0 Z " fill="#162250" transform="translate(306,372)"/>
<path d="M0 0 C0 1.32 0 2.64 0 4 C-1.75 4.75 -1.75 4.75 -4 5 C-6.25 3.0625 -6.25 3.0625 -8 1 C-2.25 -1.125 -2.25 -1.125 0 0 Z " fill="#E8E7EC" transform="translate(187,361)"/>
<path d="M0 0 C2.31 0 4.62 0 7 0 C6.67 1.65 6.34 3.3 6 5 C4.02 4.01 2.04 3.02 0 2 C0 1.34 0 0.68 0 0 Z " fill="#0F2A65" transform="translate(250,322)"/>
<path d="M0 0 C2.475 0.99 2.475 0.99 5 2 C5 4.31 5 6.62 5 9 C4.67 8.01 4.34 7.02 4 6 C3.34 6 2.68 6 2 6 C1.34 5.34 0.68 4.68 0 4 C0 2.68 0 1.36 0 0 Z " fill="#E8EBEF" transform="translate(148,286)"/>
<path d="M0 0 C0.33 0 0.66 0 1 0 C1.24915939 1.76813112 1.47366632 3.53974982 1.6875 5.3125 C1.81511719 6.29863281 1.94273437 7.28476562 2.07421875 8.30078125 C2 11 2 11 0.51953125 12.85546875 C0.01808594 13.23316406 -0.48335938 13.61085938 -1 14 C-1 12.02 -1 10.04 -1 8 C-0.34 8 0.32 8 1 8 C0.67 7.34 0.34 6.68 0 6 C-0.039992 4.00039988 -0.04346799 1.99952758 0 0 Z " fill="#D7DCE2" transform="translate(363,274)"/>
<path d="M0 0 C1.32 0.33 2.64 0.66 4 1 C4.33 2.32 4.66 3.64 5 5 C3.35 5.33 1.7 5.66 0 6 C0 4.02 0 2.04 0 0 Z " fill="#F1F3F7" transform="translate(268,279)"/>
<path d="M0 0 C0.6875 1.75 0.6875 1.75 1 4 C-0.4375 6.25 -0.4375 6.25 -2 8 C-2.99 7.67 -3.98 7.34 -5 7 C-3.70700306 4.11562221 -2.34058637 2.12780579 0 0 Z " fill="#1D2C5E" transform="translate(152,253)"/>
<path d="M0 0 C1.5625 1.25 1.5625 1.25 3 3 C2.67 4.32 2.34 5.64 2 7 C-1.63 7 -5.26 7 -9 7 C-9 6.67 -9 6.34 -9 6 C-6.03 6 -3.06 6 0 6 C0 4.02 0 2.04 0 0 Z " fill="#051148" transform="translate(394,146)"/>
<path d="M0 0 C0.33 0.66 0.66 1.32 1 2 C0.0625 4.125 0.0625 4.125 -1 6 C-1.66 6 -2.32 6 -3 6 C-3.33 6.66 -3.66 7.32 -4 8 C-4.33 6.68 -4.66 5.36 -5 4 C-3.35 2.68 -1.7 1.36 0 0 Z M-7 5 C-6.34 5.33 -5.68 5.66 -5 6 C-5.99 6.66 -6.98 7.32 -8 8 C-7.67 7.01 -7.34 6.02 -7 5 Z " fill="#EBF0F3" transform="translate(197,121)"/>
<path d="M0 0 C2.31 0 4.62 0 7 0 C3.85408067 2.80045623 1.932936 3.35261589 -2.25 3.1875 C-3.14203125 3.16042969 -4.0340625 3.13335937 -4.953125 3.10546875 C-5.62859375 3.07066406 -6.3040625 3.03585937 -7 3 C-7 2.67 -7 2.34 -7 2 C-4.69 2 -2.38 2 0 2 C0 1.34 0 0.68 0 0 Z " fill="#D3DCEB" transform="translate(211,315)"/>
<path d="M0 0 C3.3 0.33 6.6 0.66 10 1 C9.67 2.32 9.34 3.64 9 5 C4.89198233 3.81323934 3.10551666 3.10551666 0 0 Z " fill="#17275B" transform="translate(210,280)"/>
<path d="M0 0 C2.475 0.99 2.475 0.99 5 2 C4.67 3.32 4.34 4.64 4 6 C1.69 5.01 -0.62 4.02 -3 3 C-2.01 2.01 -1.02 1.02 0 0 Z " fill="#ECF1F8" transform="translate(273,218)"/>
<path d="M0 0 C0.33 1.32 0.66 2.64 1 4 C-1.31 4.66 -3.62 5.32 -6 6 C-4.95125002 3.37812506 -4.35068687 2.20628639 -1.875 0.75 C-1.25625 0.5025 -0.6375 0.255 0 0 Z " fill="#F0F6F7" transform="translate(297,371)"/>
<path d="M0 0 C0.66 0.33 1.32 0.66 2 1 C2 1.99 2 2.98 2 4 C2.66 4 3.32 4 4 4 C4 4.66 4 5.32 4 6 C1.03 5.505 1.03 5.505 -2 5 C-2 4.01 -2 3.02 -2 2 C-1.34 2.33 -0.68 2.66 0 3 C0 2.01 0 1.02 0 0 Z " fill="#F8FBFA" transform="translate(187,362)"/>
<path d="M0 0 C2.33944736 0.28730055 4.6739143 0.61936779 7 1 C7 1.99 7 2.98 7 4 C4.125 4.1875 4.125 4.1875 1 4 C0.34 3.01 -0.32 2.02 -1 1 C-0.67 0.67 -0.34 0.34 0 0 Z " fill="#FCFDF7" transform="translate(177,358)"/>
<path d="M0 0 C1.875 0.1875 1.875 0.1875 4 1 C5.52164099 3.89111788 6 5.71823412 6 9 C4.99406757 7.8803014 3.9954151 6.7540588 3 5.625 C2.443125 4.99851562 1.88625 4.37203125 1.3125 3.7265625 C0 2 0 2 0 0 Z " fill="#091544" transform="translate(165,339)"/>
<path d="M0 0 C-0.33 1.65 -0.66 3.3 -1 5 C-2.32 4.67 -3.64 4.34 -5 4 C-5.33 4.99 -5.66 5.98 -6 7 C-6.33 6.34 -6.66 5.68 -7 5 C-6 2 -6 2 -4.0625 0.8125 C-2 0 -2 0 0 0 Z " fill="#E8ECF4" transform="translate(273,305)"/>
<path d="M0 0 C2.13586678 3.20380017 2.23132175 4.01939967 2.125 7.6875 C2.10695312 8.49574219 2.08890625 9.30398438 2.0703125 10.13671875 C2.04710937 10.75160156 2.02390625 11.36648438 2 12 C0.4284518 8.97877877 -0.56374175 6.40281437 -1 3 C-0.67 2.01 -0.34 1.02 0 0 Z " fill="#E8EDF2" transform="translate(225,292)"/>
<path d="M0 0 C2.31966166 2.84685749 3.91581154 5.4763875 5 9 C4.67 9.99 4.34 10.98 4 12 C-0.57142857 4.71428571 -0.57142857 4.71428571 0 0 Z " fill="#0E1847" transform="translate(149,322)"/>
<path d="M0 0 C2.475 0.99 2.475 0.99 5 2 C4.01 3.485 4.01 3.485 3 5 C3 4.34 3 3.68 3 3 C1.01508358 3.26676204 1.01508358 3.26676204 -1 4 C-1.33 4.99 -1.66 5.98 -2 7 C-2.33 6.34 -2.66 5.68 -3 5 C-1.5625 2.375 -1.5625 2.375 0 0 Z " fill="#E4EBEC" transform="translate(157,265)"/>
<path d="M0 0 C0.33 1.65 0.66 3.3 1 5 C-1.97 4.505 -1.97 4.505 -5 4 C-5 3.01 -5 2.02 -5 1 C-3 0 -3 0 0 0 Z " fill="#E6ECF3" transform="translate(229,238)"/>
<path d="M0 0 C0.33 0 0.66 0 1 0 C2.41538462 9.37692308 2.41538462 9.37692308 0 13 C-1.29676812 8.38926889 -0.71109139 4.66159911 0 0 Z " fill="#0B1B57" transform="translate(83,226)"/>
<path d="M0 0 C2.31 0.33 4.62 0.66 7 1 C6.01 1.495 6.01 1.495 5 2 C5 2.66 5 3.32 5 4 C3.02 4 1.04 4 -1 4 C-0.67 2.68 -0.34 1.36 0 0 Z " fill="#E7EDEE" transform="translate(241,184)"/>
<path d="M0 0 C0.66 0.33 1.32 0.66 2 1 C1.67 1.99 1.34 2.98 1 4 C-2.5625 5.1875 -2.5625 5.1875 -6 6 C-5 3 -5 3 -2.5625 1.25 C-1.716875 0.8375 -0.87125 0.425 0 0 Z " fill="#0D1847" transform="translate(146,259)"/>
<path d="M0 0 C0.99 0.66 1.98 1.32 3 2 C1.35 3.32 -0.3 4.64 -2 6 C-2.33 4.68 -2.66 3.36 -3 2 C-2.01 1.34 -1.02 0.68 0 0 Z " fill="#152257" transform="translate(166,250)"/>
<path d="M0 0 C-0.763125 0.45375 -1.52625 0.9075 -2.3125 1.375 C-4.23632814 2.53824492 -6.12941224 3.7529415 -8 5 C-8.33 3.68 -8.66 2.36 -9 1 C-5.57367167 -0.61798838 -3.61944899 -1.34053666 0 0 Z " fill="#122765" transform="translate(293,364)"/>
<path d="M0 0 C4.455 0.99 4.455 0.99 9 2 C9 2.66 9 3.32 9 4 C7.35 4 5.7 4 4 4 C4 3.34 4 2.68 4 2 C2.68 1.67 1.36 1.34 0 1 C0 0.67 0 0.34 0 0 Z " fill="#081647" transform="translate(202,203)"/>
<path d="M0 0 C2.64 0 5.28 0 8 0 C8.33 0.66 8.66 1.32 9 2 C5.67465243 3.10844919 3.37817425 2.84454356 0 2 C0 1.34 0 0.68 0 0 Z " fill="#071649" transform="translate(268,162)"/>
<path d="M0 0 C0.99 0.33 1.98 0.66 3 1 C2.34 1 1.68 1 1 1 C0.67 1.99 0.34 2.98 0 4 C-2.5625 5.1875 -2.5625 5.1875 -5 6 C-3.63016497 2.83884224 -3.0109362 2.0072908 0 0 Z " fill="#05133E" transform="translate(330,153)"/>
<path d="M0 0 C0.99 0 1.98 0 3 0 C3 0.99 3 1.98 3 3 C4.65 3.33 6.3 3.66 8 4 C8 4.33 8 4.66 8 5 C5.36 5 2.72 5 0 5 C0 3.35 0 1.7 0 0 Z " fill="#BEC5D6" transform="translate(289,147)"/>
<path d="M0 0 C3.465 1.485 3.465 1.485 7 3 C6.67 3.66 6.34 4.32 6 5 C4.68 5 3.36 5 2 5 C1.34 3.35 0.68 1.7 0 0 Z " fill="#E3E4EB" transform="translate(195,366)"/>
<path d="M0 0 C2.92879371 0.62759865 5.36095629 1.58622659 8 3 C7.01 3 6.02 3 5 3 C4.67 3.66 4.34 4.32 4 5 C3.34 4.34 2.68 3.68 2 3 C1.01 3.495 1.01 3.495 0 4 C0 2.68 0 1.36 0 0 Z " fill="#EEF3EE" transform="translate(175,356)"/>
<path d="M0 0 C1.32 0.66 2.64 1.32 4 2 C1 4 1 4 -2 5 C-2.33 4.01 -2.66 3.02 -3 2 C-2.01 2 -1.02 2 0 2 C0 1.34 0 0.68 0 0 Z " fill="#FAF8FC" transform="translate(203,326)"/>
<path d="M0 0 C0.556875 0.33 1.11375 0.66 1.6875 1 C4.30284522 2.1309601 6.1806646 2.15662974 9 2 C9 2.66 9 3.32 9 4 C6.03 4 3.06 4 0 4 C-0.33 3.34 -0.66 2.68 -1 2 C-0.67 1.34 -0.34 0.68 0 0 Z " fill="#F4F7F1" transform="translate(331,293)"/>
<path d="M0 0 C0.99 0 1.98 0 3 0 C3 1.65 3 3.3 3 5 C1.35 5.33 -0.3 5.66 -2 6 C-1.34 4.02 -0.68 2.04 0 0 Z " fill="#132367" transform="translate(154,262)"/>
<path d="M0 0 C1.98 0.66 3.96 1.32 6 2 C5.01 2.99 4.02 3.98 3 5 C2.01 4.34 1.02 3.68 0 3 C0 2.01 0 1.02 0 0 Z " fill="#142A67" transform="translate(433,237)"/>
<path d="M0 0 C3.68802044 1.22934015 4.72356973 2.93859378 7 6 C5.02 5.34 3.04 4.68 1 4 C1 3.34 1 2.68 1 2 C0.34 1.67 -0.32 1.34 -1 1 C-0.67 0.67 -0.34 0.34 0 0 Z " fill="#0E1C55" transform="translate(233,236)"/>
<path d="M0 0 C2.475 0.495 2.475 0.495 5 1 C5.33 1.99 5.66 2.98 6 4 C5.01 4.66 4.02 5.32 3 6 C3 5.34 3 4.68 3 4 C2.34 3.67 1.68 3.34 1 3 C0.67 2.01 0.34 1.02 0 0 Z " fill="#0D2474" transform="translate(344,233)"/>
<path d="M0 0 C3.16115776 1.36983503 3.9927092 1.9890638 6 5 C4.68 5.33 3.36 5.66 2 6 C2 5.01 2 4.02 2 3 C1.34 3 0.68 3 0 3 C0 2.01 0 1.02 0 0 Z " fill="#D7DFE6" transform="translate(335,229)"/>
<path d="M0 0 C0.99 0.33 1.98 0.66 3 1 C3 1.99 3 2.98 3 4 C4.32 4.33 5.64 4.66 7 5 C4.69 5 2.38 5 0 5 C0 3.35 0 1.7 0 0 Z " fill="#C4CFDE" transform="translate(49,147)"/>
</svg>
