<?xml version="1.0" encoding="UTF-8"?>
<svg version="1.1" xmlns="http://www.w3.org/2000/svg" width="381" height="274">
<path d="M0 0 C37.29 0 74.58 0 113 0 C113 37.29 113 74.58 113 113 C75.71 113 38.42 113 0 113 C0 75.71 0 38.42 0 0 Z M25 26 C25 30.29 25 34.58 25 39 C32.26 39 39.52 39 47 39 C47 55.17 47 71.34 47 88 C52.94 88 58.88 88 65 88 C65.33 72.16 65.66 56.32 66 40 C76.395 39.505 76.395 39.505 87 39 C87 34.71 87 30.42 87 26 C66.54 26 46.08 26 25 26 Z " fill="#020000" transform="translate(77,137)"/>
<path d="M0 0 C37.29 0 74.58 0 113 0 C113 37.29 113 74.58 113 113 C75.71 113 38.42 113 0 113 C0 75.71 0 38.42 0 0 Z M24 24 C23.70176088 31.34624122 23.48488938 38.68891075 23.34082031 46.03979492 C23.28073249 48.53586241 23.19903086 51.03151204 23.09472656 53.52612305 C21.84134386 68.92433401 21.84134386 68.92433401 27.32247925 82.72874451 C33.86167329 88.93694432 42.13690479 89.50397801 50.78515625 89.40625 C51.66316895 89.37917969 52.54118164 89.35210937 53.44580078 89.32421875 C56.1319017 89.24980881 58.80180906 89.28298245 61.48828125 89.328125 C69.64135856 89.31488304 75.76647333 89.22489234 82.1171875 83.546875 C83.45538723 82.0698924 84.76034913 80.56061586 86 79 C86.66 78.34 87.32 77.68 88 77 C88.29254562 74.65435562 88.29254562 74.65435562 88.22705078 71.90771484 C88.22689972 70.84676605 88.22674866 69.78581726 88.22659302 68.69271851 C88.21627045 67.54373077 88.20594788 66.39474304 88.1953125 65.2109375 C88.1924826 64.03737701 88.18965271 62.86381653 88.18673706 61.6546936 C88.17551355 57.89469338 88.15040492 54.13492861 88.125 50.375 C88.11497301 47.8307326 88.10584668 45.28646148 88.09765625 42.7421875 C88.0755671 36.49470051 88.04102236 30.24739021 88 24 C81.4 24 74.8 24 68 24 C67.67 39.84 67.34 55.68 67 72 C46 71 46 71 45 70 C44.87778475 68.55815707 44.82227242 67.11056856 44.79467773 65.66381836 C44.77473251 64.7429393 44.75478729 63.82206024 44.73423767 62.87327576 C44.71752518 61.87224319 44.70081268 60.87121063 44.68359375 59.83984375 C44.66281265 58.82024063 44.64203156 57.80063751 44.62062073 56.75013733 C44.55501148 53.47932952 44.49618766 50.20843863 44.4375 46.9375 C44.39432558 44.72590272 44.35071166 42.51431397 44.30664062 40.30273438 C44.19931855 34.86857564 44.09808355 29.43433302 44 24 C37.4 24 30.8 24 24 24 Z " fill="#D1042B" transform="translate(77,23)"/>
<path d="M0 0 C37.29 0 74.58 0 113 0 C113 37.29 113 74.58 113 113 C75.71 113 38.42 113 0 113 C0 75.71 0 38.42 0 0 Z M26 26 C26 46.46 26 66.92 26 88 C31.94 88 37.88 88 44 88 C44 82.06 44 76.12 44 70 C47.4340625 70.12181641 47.4340625 70.12181641 50.9375 70.24609375 C53.17815374 70.30083209 55.41873039 70.34324974 57.65966797 70.38452148 C59.2059107 70.41952406 60.75192509 70.46714551 62.29736328 70.52807617 C72.78970329 71.19602224 72.78970329 71.19602224 81.875 66.66015625 C82.95296051 65.47204949 83.99857999 64.25329745 85 63 C85.8192395 62.30487305 85.8192395 62.30487305 86.6550293 61.59570312 C89.57627398 58.12987353 88.73211627 52.76006999 88.8125 48.4375 C88.88275391 47.39013672 88.95300781 46.34277344 89.02539062 45.26367188 C89.13163727 39.36881503 88.15641512 35.04528886 84.61328125 30.26171875 C75.82981396 22.49488177 62.27634715 24.99673671 51.375 25.375 C43.00125 25.58125 34.6275 25.7875 26 26 Z " fill="#D1042B" transform="translate(191,137)"/>
<path d="M0 0 C3.79185383 -0.05374281 7.58295298 -0.09354937 11.375 -0.125 C12.45523438 -0.14175781 13.53546875 -0.15851563 14.6484375 -0.17578125 C15.6796875 -0.18222656 16.7109375 -0.18867188 17.7734375 -0.1953125 C19.20308838 -0.21102295 19.20308838 -0.21102295 20.66162109 -0.22705078 C23 0 23 0 25 2 C25.265625 5.1875 25.265625 5.1875 25.25 9 C25.25515625 10.258125 25.2603125 11.51625 25.265625 12.8125 C25 16 25 16 23 18 C20.66162109 18.22705078 20.66162109 18.22705078 17.7734375 18.1953125 C16.2265625 18.18564453 16.2265625 18.18564453 14.6484375 18.17578125 C13.56820312 18.15902344 12.48796875 18.14226562 11.375 18.125 C10.28703125 18.11597656 9.1990625 18.10695312 8.078125 18.09765625 C5.38532351 18.07403518 2.69263465 18.03816333 0 18 C0 12.06 0 6.12 0 0 Z " fill="#CB0427" transform="translate(235,176)"/>
</svg>
