<?xml version="1.0" encoding="UTF-8" standalone="no"?>
<svg
   version="1.1"
   width="595.27557pt"
   height="841.88977pt"
   id="svg25"
   viewBox="0 0 595.27557 841.88977"
   sodipodi:docname="utp-universidad-tecnologica-del-peru-37614_logosenvector.com_2.cdr"
   xmlns:inkscape="http://www.inkscape.org/namespaces/inkscape"
   xmlns:sodipodi="http://sodipodi.sourceforge.net/DTD/sodipodi-0.dtd"
   xmlns="http://www.w3.org/2000/svg"
   xmlns:svg="http://www.w3.org/2000/svg">
  <defs
     id="defs25" />
  <sodipodi:namedview
     id="namedview25"
     pagecolor="#ffffff"
     bordercolor="#000000"
     borderopacity="0.25"
     inkscape:showpageshadow="2"
     inkscape:pageopacity="0.0"
     inkscape:pagecheckerboard="0"
     inkscape:deskcolor="#d1d1d1"
     inkscape:document-units="pt" />
  <g
     id="Layer1000">
    <path
       d="m 377.2112,441.8608 h 0.5271 v -5.0469 h 2.6966 v 14.0838 h -2.6376 v -0.939 h -0.5272 c -0.528,0.704 -1.4072,1.1731 -2.8136,1.1731 -2.6375,0 -4.2199,-2.23 -4.2199,-5.2221 0,-2.9929 1.5824,-5.2229 4.2199,-5.2229 1.4654,0 2.2275,0.4699 2.7547,1.174 z m 0.5861,4.0489 c 0,-1.584 -0.7621,-2.9929 -2.4035,-2.9929 -1.6404,0 -2.4026,1.291 -2.4026,2.9929 0,1.643 0.7622,2.9921 2.4026,2.9921 1.7003,0 2.4035,-1.408 2.4035,-2.9921 z"
       style="fill:#000000;fill-rule:evenodd"
       id="path1" />
    <path
       d="m 391.6302,446.2618 h -7.1506 c 0.0581,1.7019 0.8792,2.699 2.4026,2.699 1.0552,0 1.5824,-0.352 1.8755,-1.056 h 2.7546 c -0.4101,1.995 -1.9336,3.286 -4.6301,3.286 -3.1647,0 -5.0991,-2.1121 -5.0991,-5.2811 0,-3.1689 1.9344,-5.1639 5.041,-5.1639 3.0477,0 4.7471,1.995 4.8061,4.753 z m -7.0335,-1.8191 h 4.2789 c -0.176,-0.9979 -0.8211,-1.7019 -2.0515,-1.7019 -1.2901,0 -1.9344,0.704 -2.2274,1.7019 z"
       style="fill:#000000;fill-rule:evenodd"
       id="path2" />
    <path
       d="m 395.7331,436.8139 h -2.6966 v 14.0838 h 2.6966 z"
       style="fill:#000000;fill-rule:evenodd"
       id="path3" />
    <path
       d="m 407.9827,437.0488 c 3.1656,0 4.9813,1.643 4.9813,4.401 0,2.8161 -1.8157,4.4599 -4.9813,4.4599 h -3.3988 v 4.988 h -2.8734 v -13.8489 z m -0.4092,6.3371 c 1.7575,0 2.4615,-0.7041 2.4615,-1.878 0,-1.232 -0.6459,-1.8771 -2.4615,-1.8771 h -3.0486 v 3.814 h 3.0486 z"
       style="fill:#000000;fill-rule:evenodd"
       id="path4" />
    <path
       d="m 422.87,446.2618 h -7.1497 c 0.0589,1.7019 0.88,2.699 2.4026,2.699 1.0552,0 1.5815,-0.352 1.8771,-1.056 h 2.7529 c -0.4093,1.995 -1.9344,3.286 -4.63,3.286 -3.1656,0 -5.1,-2.1121 -5.1,-5.2811 0,-3.1689 1.9344,-5.1639 5.0419,-5.1639 3.0485,0 4.7471,1.995 4.8052,4.753 z m -7.0327,-1.8191 h 4.2789 c -0.1752,-0.9979 -0.8211,-1.7019 -2.0514,-1.7019 -1.2893,0 -1.9353,0.704 -2.2275,1.7019 z"
       style="fill:#000000;fill-rule:evenodd"
       id="path5" />
    <path
       d="m 430.9578,443.4448 h -0.9962 c -2.1079,0 -3.046,1.0561 -3.046,3.0511 v 4.3429 h -2.6982 v -9.976 h 2.6401 v 1.115 h 0.5255 c 0.293,-0.4699 1.0552,-1.115 2.6982,-1.115 h 0.9356 v 2.582 z"
       style="fill:#000000;fill-rule:evenodd"
       id="path6" />
    <path
       d="m 434.5942,440.9218 v 5.633 c 0,1.4089 0.7015,2.1719 1.9327,2.1719 1.3474,0 2.2274,-1.174 2.2274,-2.5239 v -5.281 h 2.6974 v 9.9759 h -2.6393 v -0.939 h -0.5263 c -0.587,0.763 -1.5226,1.1731 -2.7563,1.1731 -2.5197,0 -3.6919,-1.5251 -3.6919,-4.1071 v -6.1029 z m 3.1049,-1.291 h -2.4034 l 1.76,-2.8169 h 2.87 z"
       style="fill:#000000;fill-rule:evenodd"
       id="path7" />
    <path
       d="m 381.197,420.559 h -4.2789 v 11.3258 h -2.8717 V 420.559 h -4.2789 v -2.523 h 11.4295 z"
       style="fill:#000000;fill-rule:evenodd"
       id="path8" />
    <path
       d="m 389.5787,427.19 h -7.0924 c 0.0589,1.7019 0.8792,2.6998 2.4034,2.6998 0.9963,0 1.5824,-0.352 1.8755,-1.056 h 2.7546 c -0.4101,1.995 -1.9344,3.286 -4.6301,3.286 -3.1655,0 -5.041,-2.1129 -5.041,-5.281 0,-3.169 1.9344,-5.164 4.9821,-5.164 2.9896,0 4.7479,1.995 4.8061,4.753 v 0.7622 z m -7.0335,-1.7601 h 4.2789 c -0.176,-0.9971 -0.8211,-1.702 -2.0523,-1.702 -1.2893,0 -1.9335,0.646 -2.2266,1.702 z"
       style="fill:#000000;fill-rule:evenodd"
       id="path9" />
    <path
       d="m 400.2461,428.5399 c -0.2342,2.171 -2.0523,3.5799 -4.572,3.5799 -3.0477,0 -4.9821,-2.054 -4.9821,-5.2229 0,-3.11 1.9344,-5.2221 4.9821,-5.2221 2.5197,0 4.2208,1.4081 4.4549,3.4031 h -2.6965 c -0.2341,-0.763 -0.7621,-1.1731 -1.7584,-1.1731 -1.6994,0 -2.3445,1.3491 -2.3445,2.934 0,1.6421 0.6451,2.9921 2.3445,2.9921 1.0552,0 1.7003,-0.528 1.8754,-1.35 h 2.6966 z"
       style="fill:#000000;fill-rule:evenodd"
       id="path10" />
    <path
       d="m 408.5091,431.8848 v -5.633 c 0,-1.4089 -0.7015,-2.1718 -1.9319,-2.1718 -1.3508,0 -2.2274,1.1739 -2.2274,2.5238 v 5.281 h -2.6982 v -9.9759 h 2.6401 v 0.939 h 0.5255 c 0.5878,-0.763 1.5234,-1.1731 2.7563,-1.1731 2.5196,0 3.6919,1.5251 3.6919,4.1071 v 6.1029 z"
       style="fill:#000000;fill-rule:evenodd"
       id="path11" />
    <path
       d="m 422.87,426.8969 c 0,3.11 -1.9933,5.2229 -5.1564,5.2229 -3.1066,0 -5.1589,-2.1129 -5.1589,-5.2229 0,-3.11 1.9933,-5.2221 5.1589,-5.2221 3.1631,0 5.1564,2.1121 5.1564,5.2221 z m -2.6948,0 c 0,-1.5841 -0.763,-2.934 -2.4616,-2.934 -1.7011,0 -2.4641,1.3499 -2.4641,2.934 0,1.584 0.763,2.9929 2.4641,2.9929 1.6986,0 2.4616,-1.4089 2.4616,-2.9929 z"
       style="fill:#000000;fill-rule:evenodd"
       id="path12" />
    <path
       d="m 426.9737,417.801 h -2.6974 v 14.0838 h 2.6974 z"
       style="fill:#000000;fill-rule:evenodd"
       id="path13" />
    <path
       d="m 438.6954,426.8969 c 0,3.11 -1.9934,5.2229 -5.1564,5.2229 -3.1067,0 -5.1589,-2.1129 -5.1589,-5.2229 0,-3.11 1.9933,-5.2229 5.1589,-5.2229 3.163,0 5.1564,2.1129 5.1564,5.2229 z m -2.6949,0 c 0,-1.5849 -0.7629,-2.934 -2.4615,-2.934 -1.7011,0 -2.4641,1.3491 -2.4641,2.934 0,1.584 0.763,2.9929 2.4641,2.9929 1.6986,0 2.4615,-1.4089 2.4615,-2.9929 z m -1.3474,-6.279 h -2.4026 l 1.7567,-2.8169 h 2.8734 z"
       style="fill:#000000;fill-rule:evenodd"
       id="path14" />
    <path
       d="m 449.7155,421.9089 v 9.4479 c 0,2.817 -2.0523,4.577 -4.9812,4.577 -2.7563,0 -4.5719,-1.1731 -4.8086,-3.3441 h 2.6982 c 0.1171,0.8211 0.8186,1.2321 2.0523,1.2321 1.6977,0 2.3437,-1.174 2.3437,-2.6999 v -0.5862 h -0.5289 c -0.4674,0.6451 -1.1723,1.1142 -2.5778,1.1142 -2.6367,0 -4.3378,-2.0531 -4.3378,-4.9871 0,-2.934 1.7011,-5.0469 4.3378,-5.0469 1.4055,0 2.2856,0.5869 2.6949,1.1739 h 0.5288 v -0.939 h 2.5786 z m -2.6367,4.812 c 0,-1.5251 -0.8211,-2.758 -2.4641,-2.758 -1.5226,0 -2.4026,1.1739 -2.4026,2.758 0,1.5849 0.88,2.758 2.4026,2.758 1.643,0 2.4641,-1.291 2.4641,-2.758 z"
       style="fill:#000000;fill-rule:evenodd"
       id="path15" />
    <path
       d="m 451.8259,417.801 h 2.7538 v 2.406 h -2.7538 z m 2.6948,14.0838 h -2.6948 v -9.9759 h 2.6948 z"
       style="fill:#000000;fill-rule:evenodd"
       id="path16" />
    <path
       d="m 465.482,428.5399 c -0.2333,2.171 -2.0515,3.5799 -4.5711,3.5799 -3.0494,0 -5.0427,-2.054 -5.0427,-5.2229 0,-3.11 1.9352,-5.2221 5.0427,-5.2221 2.5196,0 4.2207,1.4081 4.454,3.4031 h -2.6974 c -0.2341,-0.763 -0.7604,-1.1731 -1.7566,-1.1731 -1.7012,0 -2.3445,1.3491 -2.3445,2.934 0,1.6421 0.6433,2.9921 2.3445,2.9921 1.0551,0 1.6977,-0.528 1.8762,-1.35 h 2.6949 z"
       style="fill:#000000;fill-rule:evenodd"
       id="path17" />
    <path
       d="m 473.1024,431.004 h -0.5288 c -0.5845,0.7048 -1.4645,1.1158 -2.8119,1.1158 -2.2275,0 -3.5168,-1.5259 -3.5168,-3.2868 0,-1.5252 1.1142,-3.2861 4.0431,-3.2861 h 2.6393 v -0.2349 c 0,-0.9971 -0.5878,-1.5251 -1.7601,-1.5251 -1.0552,0 -1.5815,0.4109 -1.7011,1.056 h -2.6948 c 0.0581,-1.936 1.8181,-3.11 4.2207,-3.11 2.6949,0 4.513,1.0561 4.513,3.7551 v 6.4558 h -2.5196 v -0.9398 z m -0.117,-3.1092 v -0.6459 h -2.1104 c -1.1723,0 -1.8763,0.411 -1.8763,1.3499 0,0.9382 0.6459,1.3491 1.7592,1.3491 1.2893,0 2.2275,-0.821 2.2275,-2.0531 z"
       style="fill:#000000;fill-rule:evenodd"
       id="path18" />
    <path
       d="m 381.9002,398.906 v 8.7439 c 0,3.4031 -2.0515,5.34 -5.8023,5.34 -3.6928,0 -5.8032,-1.9369 -5.8032,-5.34 v -8.7439 h 2.8725 v 8.685 c 0,1.7019 1.0544,2.8169 2.9307,2.8169 1.8754,0 2.9306,-1.115 2.9306,-2.8169 v -8.685 z m 8.6748,13.8489 v -5.633 c 0,-1.4089 -0.7032,-2.1719 -1.9344,-2.1719 -1.3482,0 -2.2274,1.174 -2.2274,2.5239 v 5.281 h -2.6957 v -9.9759 h 2.6376 v 0.939 h 0.5271 c 0.5862,-0.763 1.5243,-1.1731 2.7547,-1.1731 2.5205,0 3.6927,1.5251 3.6927,4.1071 v 6.1029 z m 4.454,-14.083 h 2.7555 v 2.4052 h -2.7555 z m 2.7555,14.083 h -2.6965 v -9.9759 h 2.6965 z m 1.3474,-9.9759 h 2.7563 l 2.0498,7.511 h 0.8211 l 1.9933,-7.511 h 2.7538 l -2.8709,9.9759 h -4.6881 z m 20.5144,5.2819 h -7.1497 c 0.0581,1.7011 0.8792,2.699 2.4026,2.699 1.0552,0 1.5815,-0.352 1.8763,-1.056 h 2.7537 c -0.4092,1.995 -1.9352,3.286 -4.63,3.286 -3.1656,0 -5.0983,-2.1129 -5.0983,-5.2819 0,-3.1681 1.9327,-5.1631 5.0393,-5.1631 3.0494,0 4.7471,1.995 4.8061,4.6941 z M 412.6136,406.3 h 4.2789 c -0.1751,-0.9971 -0.8211,-1.702 -2.0523,-1.702 -1.3474,0 -1.9933,0.7049 -2.2266,1.702 z m 15.2991,-0.9971 h -0.9971 c -2.1104,0 -3.0485,1.056 -3.0485,3.051 v 4.3421 h -2.6957 v -9.9751 h 2.6367 v 1.1142 h 0.5264 c 0.2955,-0.4691 1.1141,-1.1142 2.6982,-1.1142 h 0.9381 v 2.582 z m 6.8575,0.2341 c -0.1171,-0.704 -0.763,-0.88 -1.5849,-0.88 -0.8186,0 -1.4645,0.2349 -1.4645,0.88 0,0.528 0.4093,0.704 1.0552,0.8219 l 1.8182,0.2931 c 1.8737,0.2939 3.163,1.1739 3.163,3.1689 0,1.643 -1.4644,3.2271 -4.3959,3.2271 -3.046,0 -4.4549,-1.291 -4.689,-3.4031 h 2.6982 c 0.117,0.8801 0.8185,1.291 1.9908,1.291 1.1133,0 1.7011,-0.352 1.7011,-1.056 0,-0.7049 -0.4682,-0.939 -1.4064,-1.115 l -1.9352,-0.2939 c -1.5815,-0.2931 -2.6948,-1.056 -2.6948,-2.758 0,-1.7011 1.2893,-3.11 4.2182,-3.11 2.5222,0 3.9867,1.1739 4.2208,2.993 h -2.6948 z m 4.3959,-6.8651 h 2.7538 v 2.4052 h -2.7538 z m 2.6948,14.083 h -2.6948 v -9.9759 h 2.6948 z m 8.322,-9.0369 h 0.5289 v -5.0461 h 2.6956 v 14.083 h -2.6367 v -0.88 h -0.5288 c -0.5264,0.704 -1.4064,1.1731 -2.8128,1.1731 -2.6358,0 -4.2207,-2.23 -4.2207,-5.2221 0,-2.9929 1.5849,-5.2229 4.2207,-5.2229 1.4645,-0.0581 2.2275,0.411 2.7538,1.115 z m 0.6459,4.049 c 0,-1.5841 -0.7629,-2.934 -2.4026,-2.934 -1.643,0 -2.4026,1.291 -2.4026,2.934 0,1.643 0.7596,2.9929 2.4026,2.9929 1.6397,0 2.4026,-1.4089 2.4026,-2.9929 z m 10.7861,4.1079 h -0.5289 c -0.5844,0.704 -1.4645,1.115 -2.8119,1.115 -2.2274,0 -3.5192,-1.526 -3.5192,-3.286 0,-1.526 1.1133,-3.2869 4.0456,-3.2869 h 2.6358 v -0.2341 c 0,-0.9979 -0.5844,-1.5259 -1.7566,-1.5259 -1.0552,0 -1.5841,0.4109 -1.7012,1.056 h -2.6948 c 0.0581,-1.9361 1.8182,-3.11 4.2208,-3.11 2.6948,0 4.513,1.056 4.513,3.7559 v 6.455 h -2.5222 v -0.939 z m -0.1196,-3.11 v -0.6459 h -2.1079 c -1.1747,0 -1.8762,0.4109 -1.8762,1.3499 0,0.8801 0.6433,1.3491 1.7567,1.3491 1.3499,0.059 2.2274,-0.8211 2.2274,-2.0531 z m 10.9612,-5.0469 h 0.5289 v -5.0461 h 2.6956 v 14.083 h -2.6367 v -0.88 h -0.5297 c -0.5255,0.704 -1.4055,1.1731 -2.8119,1.1731 -2.6392,0 -4.2207,-2.23 -4.2207,-5.2221 0,-2.9929 1.5815,-5.2229 4.2207,-5.2229 1.4064,-0.0581 2.2275,0.411 2.7538,1.115 z m 0.5878,4.049 c 0,-1.5841 -0.763,-2.934 -2.4034,-2.934 -1.6422,0 -2.4052,1.291 -2.4052,2.934 0,1.643 0.763,2.9929 2.4052,2.9929 1.6404,0 2.4034,-1.4089 2.4034,-2.9929 z"
       style="fill:#000000;fill-rule:evenodd"
       id="path19" />
    <path
       d="m 197.1453,381.9665 h -77.9547 v 77.9867 h 77.9547 z"
       style="fill:#d01a49;fill-rule:evenodd"
       id="path20" />
    <path
       d="m 166.4326,399.2774 h 13.422 v 35.384 l -8.5578,7.9219 h -26.2586 l -8.4988,-7.9219 v -35.384 h 13.4228 v 31.1009 l 1.8165,1.819 h 12.7785 l 1.8754,-1.819 z"
       style="fill:#ffffff;fill-rule:evenodd"
       id="path21" />
    <path
       d="m 275.1008,381.9665 h -77.9555 v 77.9867 h 77.9555 z"
       style="fill:#000000;fill-rule:evenodd"
       id="path22" />
    <path
       d="m 229.4411,442.5833 v -32.9198 h -14.9462 v -10.3861 h 43.3143 v 10.3861 h -14.9453 v 32.9198 z"
       style="fill:#ffffff;fill-rule:evenodd"
       id="path23" />
    <path
       d="M 353.0596,381.9665 H 275.105 v 77.9867 h 77.9546 z"
       style="fill:#d01a49;fill-rule:evenodd"
       id="path24" />
    <path
       d="m 305.8765,427.9462 v 11.853 h -13.4219 v -43.3059 h 35.4025 l 7.9127,7.335 v 16.7821 l -7.9127,7.3358 z m 14.654,-21.0079 h -14.654 v 10.68 h 14.654 l 1.8165,-1.8191 v -7.0419 z"
       style="fill:#ffffff;fill-rule:evenodd"
       id="path25" />
  </g>
</svg>
