<?xml version="1.0" encoding="UTF-8"?>
<svg version="1.1" xmlns="http://www.w3.org/2000/svg" width="225" height="225">
<path d="M0 0 C74.25 0 148.5 0 225 0 C225 74.25 225 148.5 225 225 C150.75 225 76.5 225 0 225 C0 150.75 0 76.5 0 0 Z " fill="#006136" transform="translate(0,0)"/>
<path d="M0 0 C0.33 0.99 0.66 1.98 1 3 C1.515625 2.649375 2.03125 2.29875 2.5625 1.9375 C6.10821105 0.57376498 8.3530138 1.04026679 12 2 C14.75 4.3125 14.75 4.3125 17 7 C17.598125 7.598125 18.19625 8.19625 18.8125 8.8125 C20.62115516 12.14423319 20.50913021 15.34416221 20 19 C18.14143173 24.26594344 15.39685804 26.79395768 11 30 C5.47973556 31.84008815 -0.97325868 32.15784866 -6.4609375 30.05859375 C-10.37928648 27.73526043 -13.4713028 25.39500446 -15 21 C-15.69924214 16.35760892 -16.12805696 11.99715746 -13.7578125 7.80078125 C-9.75128389 3.04676596 -6.24388042 0.83251739 0 0 Z " fill="#046036" transform="translate(110,89)"/>
<path d="M0 0 C0.66 0.33 1.32 0.66 2 1 C1.34 1.66 0.68 2.32 0 3 C-2.47903361 6.71855041 -2.84160118 9.69941795 -2 14 C0.10109092 18.05210392 1.76828108 20.32717248 6 22 C11.8252882 22.74017688 17.13802693 22.55754127 22 19 C24.69395482 14.95906777 25.6027963 11.8223704 25 7 C23.60075055 3.69898869 23.60075055 3.69898869 22 1 C26.14925924 2.38308641 26.97972737 4.16844846 29 8 C29.97086869 13.30811905 29.00682669 17.48975996 26 22 C21.49683766 26.55237723 17.67423905 28.16321355 11.3125 28.375 C5.26693788 28.32376642 1.48934969 27.03928957 -3 23 C-6.60668812 19.16789387 -6.60660781 14.79804482 -6.50390625 9.73828125 C-5.70031615 5.37148544 -3.27192097 2.85319299 0 0 Z " fill="#DD1359" transform="translate(101,92)"/>
<path d="M0 0 C1.32 0.33 2.64 0.66 4 1 C4 8.59 4 16.18 4 24 C2.68 23.67 1.36 23.34 0 23 C0 22.34 0 21.68 0 21 C-0.886875 21.33 -1.77375 21.66 -2.6875 22 C-5.73949862 22.92135807 -7.8545268 23.34949702 -11 23 C-11.66 22.34 -12.32 21.68 -13 21 C-12.83730081 17.90871548 -12.1906022 16.26391073 -10.375 13.75 C-7.26874201 11.46117832 -4.81222334 11.21179019 -1 11 C-0.34 11.33 0.32 11.66 1 12 C0.67 8.04 0.34 4.08 0 0 Z " fill="#DBE6E0" transform="translate(151,114)"/>
<path d="M0 0 C0.66 3.3 1.32 6.6 2 10 C0.35 10.33 -1.3 10.66 -3 11 C-3.33 10.34 -3.66 9.68 -4 9 C-4.680625 9.350625 -5.36125 9.70125 -6.0625 10.0625 C-9.7087789 11.22620603 -12.28489978 10.72845102 -16 10 C-16.3125 7.25 -16.3125 7.25 -16 4 C-10.41064262 -1.44226903 -7.36554546 -0.9469987 0 0 Z " fill="#E0E9E4" transform="translate(115,126)"/>
<path d="M0 0 C0.66 3.3 1.32 6.6 2 10 C0.68 10.33 -0.64 10.66 -2 11 C-2.66 10.34 -3.32 9.68 -4 9 C-4.53625 9.33 -5.0725 9.66 -5.625 10 C-8.5929092 11.24964598 -10.80799279 11.27756584 -14 11 C-14.66 10.34 -15.32 9.68 -16 9 C-16 5.26944022 -14.96784155 3.96301778 -12.5 1.125 C-8.43404631 -2.05834423 -4.82818112 -0.95100537 0 0 Z " fill="#E3ECE8" transform="translate(175,126)"/>
<path d="M0 0 C6.30289384 1.73329581 12.31937877 4.47906816 16 10 C15.96856707 12.73990408 15.44521663 15.28417854 15 18 C14.01 18.33 13.02 18.66 12 19 C11.34 17.02 10.68 15.04 10 13 C10 13.99 10 14.98 10 16 C6.14397632 14.48513355 4.2214143 12.48021573 2 9 C1.1135497 6.03188552 0.50572735 3.05432705 0 0 Z " fill="#00A350" transform="translate(99,73)"/>
<path d="M0 0 C0.99 0.33 1.98 0.66 3 1 C3.90369127 3.99982724 4.19573043 5.5194323 2.99609375 8.46484375 C-0.24996978 13.61461371 -3.47978051 17.9102776 -8 22 C-11 21 -11 21 -11.96728516 19.35766602 C-12.37406494 18.31630493 -12.37406494 18.31630493 -12.7890625 17.25390625 C-13.09070312 16.49916016 -13.39234375 15.74441406 -13.703125 14.96679688 C-14.00734375 14.17337891 -14.3115625 13.37996094 -14.625 12.5625 C-15.24188043 11.00118073 -15.8590544 9.43997738 -16.4765625 7.87890625 C-16.74549316 7.1835376 -17.01442383 6.48816895 -17.29150391 5.77172852 C-17.99615208 3.93841236 -17.99615208 3.93841236 -19 2 C-17.35 2 -15.7 2 -14 2 C-8 13.73786408 -8 13.73786408 -8 18 C-1.88987314 12.37225157 -0.81141537 7.97891781 0 0 Z " fill="#EFF3F1" transform="translate(67,115)"/>
<path d="M0 0 C1.32 0.33 2.64 0.66 4 1 C4.33 1.99 4.66 2.98 5 4 C5.763125 3.319375 6.52625 2.63875 7.3125 1.9375 C8.199375 1.298125 9.08625 0.65875 10 0 C10.99 0.33 11.98 0.66 13 1 C13.94921875 3.28515625 13.94921875 3.28515625 14.6875 6.0625 C15.06455078 7.44115234 15.06455078 7.44115234 15.44921875 8.84765625 C15.63097656 9.55792969 15.81273437 10.26820313 16 11 C14.68 11.33 13.36 11.66 12 12 C10.14223235 8.86501708 9.79859524 6.62528568 10 3 C7.35247996 5.57784846 5.05567935 7.91648098 3 11 C2.01 11 1.02 11 0 11 C0 7.37 0 3.74 0 0 Z " fill="#E1EAE5" transform="translate(120,125)"/>
<path d="M0 0 C1.32 0.33 2.64 0.66 4 1 C4 8.59 4 16.18 4 24 C3.01 23.67 2.02 23.34 1 23 C-0.08372641 20.17167209 -0.11795047 17.45666976 -0.09765625 14.453125 C-0.09443359 13.60878906 -0.09121094 12.76445313 -0.08789062 11.89453125 C-0.07951172 11.02183594 -0.07113281 10.14914063 -0.0625 9.25 C-0.05798828 8.36183594 -0.05347656 7.47367187 -0.04882812 6.55859375 C-0.037074 4.37232671 -0.02064249 2.18619821 0 0 Z " fill="#EFF4F2" transform="translate(151,114)"/>
<path d="M0 0 C0.99 0.33 1.98 0.66 3 1 C2.49572053 5.41244536 0.98672249 7.74974317 -2 11 C-5 13 -5 13 -8 13 C-8.99 9.7 -9.98 6.4 -11 3 C-11.66 3 -12.32 3 -13 3 C-13 2.34 -13 1.68 -13 1 C-10.6875 1.125 -10.6875 1.125 -8 2 C-5 6.86206897 -5 6.86206897 -5 10 C-1.70077803 7.80051868 -1.57190099 7.49675855 -0.8125 3.875 C-0.544375 2.59625 -0.27625 1.3175 0 0 Z " fill="#E5EDE9" transform="translate(94,124)"/>
<path d="M0 0 C3.0625 0.125 3.0625 0.125 5.0625 1.125 C5.0625 2.775 5.0625 4.425 5.0625 6.125 C1.28062119 7.96191257 -0.88318308 8.28337626 -4.9375 7.125 C-3.90105353 0.16600228 -3.90105353 0.16600228 0 0 Z " fill="#0A6338" transform="translate(146.9375,126.875)"/>
<path d="M0 0 C3 0.125 3 0.125 4 1.125 C4.04063832 2.79117115 4.042721 4.45888095 4 6.125 C1.42786866 7.74449011 0.32330841 8.16908751 -2.75 7.75 C-3.4925 7.54375 -4.235 7.3375 -5 7.125 C-3.96342551 0.16514273 -3.96342551 0.16514273 0 0 Z " fill="#0C6438" transform="translate(168,126.875)"/>
<path d="M0 0 C2.4375 0.1875 2.4375 0.1875 3.4375 1.1875 C3.6875 3.625 3.6875 3.625 3.4375 6.1875 C0.4375 8.1875 0.4375 8.1875 -2.25 7.8125 C-3.013125 7.60625 -3.77625 7.4 -4.5625 7.1875 C-4.6875 4.8125 -4.6875 4.8125 -4.5625 2.1875 C-2.5625 0.1875 -2.5625 0.1875 0 0 Z " fill="#025E30" transform="translate(107.5625,126.8125)"/>
<path d="M0 0 C0.99 0.33 1.98 0.66 3 1 C3.94981806 4.0938518 4.1783594 5.56739738 2.92578125 8.60546875 C2.39339844 9.45753906 1.86101562 10.30960938 1.3125 11.1875 C0.79300781 12.04730469 0.27351563 12.90710938 -0.26171875 13.79296875 C-2.05113464 16.06492375 -3.33693703 16.96146346 -6 18 C-5.65066406 17.3709375 -5.30132812 16.741875 -4.94140625 16.09375 C-2.01558215 10.59021685 -0.34617589 6.23116607 0 0 Z " fill="#D5E2DB" transform="translate(67,115)"/>
<path d="M0 0 C1.32 0.33 2.64 0.66 4 1 C4 4.63 4 8.26 4 12 C2.68 11.67 1.36 11.34 0 11 C0 7.37 0 3.74 0 0 Z " fill="#DAE5E0" transform="translate(74,125)"/>
<path d="M0 0 C0.33 0 0.66 0 1 0 C1.0825 0.94875 1.165 1.8975 1.25 2.875 C1.65074923 6.10461791 1.65074923 6.10461791 4.0625 7.375 C4.701875 7.58125 5.34125 7.7875 6 8 C5 9 5 9 2.0625 9.1875 C-1 9 -1 9 -3 7 C-2.67028521 3.70285207 -2.3773161 2.3773161 0 0 Z " fill="#EBF1EE" transform="translate(162,128)"/>
<path d="M0 0 C0.99 0 1.98 0 3 0 C3.99 2.97 4.98 5.94 6 9 C4.35 9.33 2.7 9.66 1 10 C0.67 6.7 0.34 3.4 0 0 Z " fill="#EEF3F0" transform="translate(111,127)"/>
<path d="M0 0 C1.22589844 0.15275391 1.22589844 0.15275391 2.4765625 0.30859375 C3.41628906 0.43427734 3.41628906 0.43427734 4.375 0.5625 C4.045 1.8825 3.715 3.2025 3.375 4.5625 C3.375 3.5725 3.375 2.5825 3.375 1.5625 C-1.08 2.0575 -1.08 2.0575 -5.625 2.5625 C-6.285 4.2125 -6.945 5.8625 -7.625 7.5625 C-8.945 6.5725 -10.265 5.5825 -11.625 4.5625 C-5.21098726 -0.66998408 -5.21098726 -0.66998408 0 0 Z " fill="#C9D9D1" transform="translate(110.625,125.4375)"/>
<path d="M0 0 C0.99 0.33 1.98 0.66 3 1 C2.49701212 5.40114397 0.91227269 7.71195019 -2 11 C-2.99 10.67 -3.98 10.34 -5 10 C-4.01 9.34 -3.02 8.68 -2 8 C-1.21011855 6.04614933 -1.21011855 6.04614933 -0.8125 3.875 C-0.544375 2.59625 -0.27625 1.3175 0 0 Z " fill="#D5E2DB" transform="translate(94,124)"/>
<path d="M0 0 C0.33 0.99 0.66 1.98 1 3 C-0.21484375 5.04296875 -0.21484375 5.04296875 -1.9375 7.1875 C-2.50339844 7.90292969 -3.06929688 8.61835938 -3.65234375 9.35546875 C-4.09707031 9.89816406 -4.54179688 10.44085938 -5 11 C-5.66 10.67 -6.32 10.34 -7 10 C-6.0409375 8.6078125 -6.0409375 8.6078125 -5.0625 7.1875 C-2.91377907 4.15780057 -2.91377907 4.15780057 -2 1 C-1.34 0.67 -0.68 0.34 0 0 Z " fill="#DEE8E3" transform="translate(68,122)"/>
<path d="M0 0 C0.66 0.33 1.32 0.66 2 1 C1.0409375 2.051875 1.0409375 2.051875 0.0625 3.125 C-2.16386102 6.22841233 -2.65080943 8.24620139 -3 12 C-3.33 11.01 -3.66 10.02 -4 9 C-4.66 9 -5.32 9 -6 9 C-4.68775452 5.06326356 -3.08089673 2.77280706 0 0 Z " fill="#C71D55" transform="translate(101,92)"/>
<path d="M0 0 C3.99996286 1.33332095 4.83782337 3.4957827 7 7 C6.67 7.66 6.34 8.32 6 9 C3.03134491 6.45543849 1.6380249 3.51005335 0 0 Z " fill="#C11E54" transform="translate(123,93)"/>
<path d="M0 0 C1.32 0.33 2.64 0.66 4 1 C4 2.32 4 3.64 4 5 C2.68 4.67 1.36 4.34 0 4 C0 2.68 0 1.36 0 0 Z " fill="#C9D9D1" transform="translate(74,118)"/>
</svg>
