<?xml version="1.0" encoding="UTF-8"?>
<svg version="1.1" xmlns="http://www.w3.org/2000/svg" width="3840" height="3840">
<path d="M0 0 C1267.2 0 2534.4 0 3840 0 C3840 1267.2 3840 2534.4 3840 3840 C2572.8 3840 1305.6 3840 0 3840 C0 2572.8 0 1305.6 0 0 Z " fill="#107C10" transform="translate(0,0)"/>
<path d="M0 0 C2.67443462 1.76970023 5.19758471 3.66710745 7.7265625 5.640625 C8.28432373 6.07463623 8.84208496 6.50864746 9.41674805 6.95581055 C10.64816954 7.91436308 11.87850474 8.8743123 13.10791016 9.83544922 C15.19828692 11.46607621 17.29569351 13.0873117 19.39453125 14.70703125 C27.4585345 20.93926582 35.44811149 27.24862283 43.33642578 33.7019043 C47.61191496 37.19581229 51.93210039 40.62404684 56.2890625 44.015625 C61.99041099 48.46092157 67.52186051 53.07983359 73.01953125 57.7734375 C75.84839263 60.18559024 78.71731372 62.54482498 81.6015625 64.890625 C86.20404716 68.63683345 90.73878661 72.45585287 95.2590332 76.30029297 C98.73399273 79.25021404 102.24609323 82.14726906 105.7890625 85.015625 C110.18526616 88.59111915 114.39142109 92.33153709 118.578125 96.1484375 C121.15238608 98.43578404 123.79445739 100.60610771 126.4765625 102.765625 C131.03257609 106.44893739 135.34233741 110.32214806 139.62719727 114.31079102 C142.79472106 117.24183355 146.04235853 120.01075694 149.4140625 122.703125 C155.4504512 127.55848113 161.03107202 132.85826545 166.6640625 138.16796875 C169.74195308 141.06631571 172.88636425 143.87016143 176.08984375 146.62890625 C179.29113271 149.43236512 182.41082012 152.32490759 185.54199219 155.20605469 C188.68958688 158.10073531 191.85402925 160.97454237 195.0390625 163.828125 C199.44664646 167.78437236 203.80387109 171.79246961 208.15087891 175.81494141 C211.72697119 179.12389636 215.31625737 182.41774799 218.9140625 185.703125 C223.77304985 190.15504294 228.60131116 194.63876774 233.4140625 199.140625 C234.40079956 200.06161987 234.40079956 200.06161987 235.4074707 201.0012207 C239.17779421 204.53527378 242.8713494 208.12836134 246.49267578 211.81518555 C248.15571588 213.44365258 249.88491205 214.95312195 251.6640625 216.453125 C256.29892662 220.43748187 260.55361529 224.78785996 264.82641602 229.15258789 C267.72316525 232.09228251 270.66116735 234.90954748 273.80078125 237.58984375 C278.22329898 241.44005956 282.35560866 245.53474566 286.4765625 249.703125 C287.24532715 250.47567627 288.0140918 251.24822754 288.80615234 252.04418945 C292.0601608 255.31438536 295.30812516 258.5905599 298.55664062 261.86621094 C300.94451602 264.27227785 303.33547043 266.67525538 305.7265625 269.078125 C306.44763184 269.80749268 307.16870117 270.53686035 307.91162109 271.28833008 C311.91567125 275.31142944 316.02272698 279.13530254 320.32223511 282.84060669 C322.56520256 284.7945139 324.68818908 286.84778493 326.79296875 288.94921875 C327.59283203 289.74779297 328.39269531 290.54636719 329.21679688 291.36914062 C330.42819336 292.58633789 330.42819336 292.58633789 331.6640625 293.828125 C332.88125977 295.03952148 332.88125977 295.03952148 334.12304688 296.27539062 C335.3209082 297.47518555 335.3209082 297.47518555 336.54296875 298.69921875 C337.25138916 299.40876709 337.95980957 300.11831543 338.68969727 300.84936523 C340.65630892 302.92148394 342.52941833 305.02588543 344.39428711 307.18774414 C348.07730468 311.42316962 351.98506578 315.384939 355.9765625 319.328125 C356.70472168 320.05249756 357.43288086 320.77687012 358.18310547 321.52319336 C360.48681896 323.81480803 362.79375724 326.10313152 365.1015625 328.390625 C368.14621029 331.40847581 371.18739217 334.42975916 374.2265625 337.453125 C375.25499268 338.46910767 375.25499268 338.46910767 376.30419922 339.50561523 C380.20364527 343.38547328 383.91125771 347.36701997 387.48400879 351.55041504 C390.36082145 354.82322093 393.49177778 357.84136362 396.6015625 360.890625 C401.07755666 365.31864261 405.43611766 369.75617496 409.5 374.5703125 C412.08117308 377.50403605 414.89186941 380.20211678 417.6953125 382.921875 C420.31767099 385.61234669 422.7614122 388.42159823 425.22314453 391.25830078 C428.32529929 394.77977461 431.55920492 398.17412978 434.7890625 401.578125 C443.89176484 411.21224886 452.90615319 420.91611352 461.75 430.7890625 C464.55088786 433.88771917 467.38742427 436.9520559 470.2265625 440.015625 C474.01209275 444.10300722 477.74887959 448.22024938 481.39453125 452.43359375 C483.43789681 454.7762165 485.51837109 457.08335922 487.6015625 459.390625 C492.42277525 464.73852486 497.18050277 470.13364715 501.8515625 475.61328125 C506.59235573 481.17184979 511.34242467 486.70000474 516.2890625 492.078125 C520.33577219 496.48684067 524.12909965 501.05128175 527.88671875 505.70703125 C530.05789077 508.33771057 532.30397607 510.87004924 534.6015625 513.390625 C538.45033916 517.61829677 542.0753019 521.98686191 545.671875 526.4296875 C548.32953352 529.66844178 551.05126616 532.84472082 553.7890625 536.015625 C560.08283402 543.31817541 566.20513001 550.75628387 572.31494141 558.21289062 C574.67352397 561.08779585 577.04057943 563.9556653 579.4074707 566.82373047 C589.99902118 579.66313328 600.51403897 592.55448274 610.75878906 605.67285156 C612.5753277 607.9966999 614.3979284 610.31575524 616.22094727 612.63452148 C617.14368515 613.80821796 618.06604664 614.98221045 618.98803711 616.15649414 C621.2125314 618.98963206 623.44006221 621.82024062 625.67578125 624.64453125 C637.0879094 639.07897098 648.2090526 653.73676605 659.09082031 668.57470703 C662.74756384 673.56070084 666.44113257 678.51640951 670.1640625 683.453125 C689.34476849 708.94586525 707.43234846 735.27121947 725.1015625 761.828125 C725.82156937 762.90954773 725.82156937 762.90954773 726.55612183 764.01281738 C752.94907473 803.66283259 777.77327375 844.30013442 800.1015625 886.390625 C800.66198242 887.4429834 801.22240234 888.4953418 801.79980469 889.57958984 C825.21615873 933.67180528 847.09181869 980.38595715 858.57714844 1029.17431641 C859.27216346 1032.11162851 860.03276835 1035.0310794 860.7890625 1037.953125 C868.40639155 1068.99767668 872.96013082 1102.62907852 867.1015625 1134.390625 C866.90691406 1135.52242187 866.71226563 1136.65421875 866.51171875 1137.8203125 C862.30726451 1159.76308552 853.40524155 1180.15078585 839.1015625 1197.390625 C838.24498047 1198.4734375 838.24498047 1198.4734375 837.37109375 1199.578125 C833.48040129 1204.30979849 829.03208557 1208.0437421 824.24609375 1211.84765625 C820.66319304 1214.70962836 817.23436089 1217.7407548 813.7890625 1220.765625 C808.45769946 1225.42390767 803.025179 1229.89930554 797.42895508 1234.23486328 C793.71975486 1237.10986794 790.06718288 1240.04209782 786.44311523 1243.02368164 C777.33358391 1250.51374073 767.94543333 1257.59341618 758.4765625 1264.62109375 C756.30138566 1266.2417436 754.13641892 1267.87464034 751.9765625 1269.515625 C735.28848117 1282.18701883 717.9581524 1293.88168542 700.5390625 1305.515625 C699.72138397 1306.06252991 698.90370544 1306.60943481 698.06124878 1307.1729126 C681.13770961 1318.4832522 664.00092316 1329.40882391 646.4765625 1339.765625 C645.79535339 1340.16893036 645.11414429 1340.57223572 644.41229248 1340.98776245 C602.2456065 1365.9339354 558.8522049 1388.46172981 514.1015625 1408.390625 C513.46692078 1408.67399719 512.83227905 1408.95736938 512.17840576 1409.24932861 C467.13874193 1429.35582166 420.88331333 1446.27360092 373.88574219 1461.18505859 C370.75681365 1462.18187467 367.63429039 1463.19433636 364.515625 1464.22265625 C353.30661829 1467.89623533 341.93760325 1470.83634933 330.5078125 1473.7421875 C326.16373371 1474.84967503 321.84292426 1476.00780903 317.53613281 1477.25146484 C283.00587723 1487.22218168 247.44740665 1493.77778383 212.09381104 1500.03457642 C210.05589994 1500.39878567 208.0198351 1500.77220204 205.98388672 1501.1472168 C195.60150486 1503.04480687 185.19863799 1504.5225487 174.7265625 1505.828125 C173.88608368 1505.93389862 173.04560486 1506.03967224 172.17965698 1506.14865112 C166.97165908 1506.80405348 161.76254244 1507.44988038 156.55255127 1508.0892334 C154.25725634 1508.37147974 151.96232744 1508.65652086 149.66748047 1508.94238281 C131.38796214 1511.2100107 113.07866963 1513.006091 94.7265625 1514.578125 C93.76082306 1514.66289093 92.79508362 1514.74765686 91.80007935 1514.83499146 C59.3670979 1517.65908451 26.88154793 1517.63658609 -5.6484375 1517.640625 C-7.28361391 1517.64106686 -7.28361391 1517.64106686 -8.95182419 1517.64151764 C-40.02136771 1517.64287157 -71.00087722 1517.64208894 -101.95684814 1514.67248535 C-105.16829948 1514.36476708 -108.38071919 1514.06856095 -111.59326172 1513.77246094 C-162.55092439 1509.02194666 -213.21063735 1502.2247385 -263.20898438 1491.19970703 C-267.06639227 1490.3537932 -270.92730871 1489.52498339 -274.7890625 1488.69921875 C-296.51910788 1484.03955237 -318.22123862 1479.17042878 -339.49609375 1472.703125 C-344.04769004 1471.32678594 -348.63055111 1470.06922199 -353.21411133 1468.80419922 C-362.27465142 1466.30294204 -371.24779033 1463.72386726 -380.13061523 1460.64550781 C-384.01285049 1459.35251946 -387.91569288 1458.19902577 -391.84765625 1457.0703125 C-400.20986841 1454.63534756 -408.47415217 1451.96899925 -416.7109375 1449.140625 C-417.43556183 1448.8923999 -418.16018616 1448.6441748 -418.9067688 1448.38842773 C-449.04983181 1438.02306664 -478.76255099 1426.31281734 -507.8984375 1413.390625 C-510.22652126 1412.36969762 -512.55464731 1411.34886667 -514.8828125 1410.328125 C-532.83108056 1402.41221538 -550.48959645 1393.94508703 -568.08666992 1385.28186035 C-569.76974675 1384.45392989 -571.45415515 1383.62870783 -573.13867188 1382.80371094 C-585.95467161 1376.52243487 -598.55345447 1369.90542749 -611.03271484 1362.97949219 C-613.9695422 1361.35120181 -616.91238631 1359.73413982 -619.85546875 1358.1171875 C-634.70556457 1349.91962205 -649.23488174 1341.25876733 -663.67724609 1332.37011719 C-666.57507225 1330.58933998 -669.47934808 1328.81981935 -672.38671875 1327.0546875 C-686.83325853 1318.24769868 -700.88338173 1308.86291694 -714.8984375 1299.390625 C-716.11950195 1298.56618896 -716.11950195 1298.56618896 -717.36523438 1297.72509766 C-728.03697927 1290.50273302 -738.49038456 1282.98669298 -748.8984375 1275.390625 C-750.06511963 1274.54129395 -750.06511963 1274.54129395 -751.25537109 1273.67480469 C-766.53262539 1262.54293168 -781.49989467 1251.0556196 -796.12817383 1239.08276367 C-800.46251573 1235.53855596 -804.85074897 1232.07365475 -809.2734375 1228.640625 C-814.19938095 1224.80735286 -818.88360388 1220.79854834 -823.47265625 1216.5625 C-826.03611673 1214.26735664 -828.69726034 1212.14634377 -831.3984375 1210.015625 C-857.86186742 1188.4280169 -870.25287129 1155.7877688 -874.22192383 1122.69335938 C-875.9740532 1105.28128122 -875.28129053 1087.69845909 -872.8984375 1070.390625 C-872.76163574 1069.3078125 -872.76163574 1069.3078125 -872.62207031 1068.203125 C-862.85887785 991.46785794 -824.83180535 915.10741702 -785.51708984 849.13574219 C-783.43763824 845.60914282 -781.42716155 842.04600554 -779.41894531 838.47851562 C-772.8477473 826.81496925 -765.81023827 815.47140279 -758.64892578 804.16259766 C-757.1051171 801.71791094 -755.57421358 799.26600602 -754.05078125 796.80859375 C-747.51777114 786.30377703 -740.69636928 775.99571966 -733.8359375 765.703125 C-733.14695877 764.66890915 -733.14695877 764.66890915 -732.44406128 763.61380005 C-713.79770486 735.64655628 -694.41290732 708.20922344 -674.43359375 681.1796875 C-672.07854995 677.99326058 -669.73266022 674.80042049 -667.39453125 671.6015625 C-659.92628226 661.39617159 -652.27294626 651.35838326 -644.47216797 641.40527344 C-642.20062734 638.49730675 -639.95485552 635.56992195 -637.7109375 632.640625 C-629.86102296 622.42550819 -621.87912249 612.33046157 -613.73291016 602.35009766 C-610.25983925 598.08811268 -606.84069066 593.78935329 -603.4609375 589.453125 C-594.82207091 578.38934126 -585.82296426 567.61415665 -576.73046875 556.92163086 C-573.91558515 553.60758429 -571.14361411 550.26257644 -568.3984375 546.890625 C-563.77290757 541.21159359 -559.04376706 535.62469678 -554.30126953 530.04345703 C-552.92366162 528.42034433 -551.54911993 526.7946946 -550.17578125 525.16796875 C-532.3065569 504.00213624 -532.3065569 504.00213624 -525.2109375 496.203125 C-522.23819727 492.93257895 -519.41357836 489.58826886 -516.6484375 486.140625 C-511.99184938 480.38116074 -506.97009573 475.01113801 -501.90625 469.61328125 C-499.0536734 466.57000559 -496.2891754 463.46118366 -493.5625 460.3046875 C-490.06549317 456.28230875 -486.46921004 452.347427 -482.8984375 448.390625 C-481.815625 447.1840625 -481.815625 447.1840625 -480.7109375 445.953125 C-476.16650783 440.88933194 -471.58621945 435.85985968 -466.98266602 430.84985352 C-464.12270363 427.73465307 -461.28343749 424.6022796 -458.4609375 421.453125 C-449.37881017 411.34222572 -440.08267684 401.42846345 -430.77734375 391.5234375 C-428.15474403 388.73157356 -425.53803431 385.93435926 -422.92578125 383.1328125 C-411.01577551 370.37071841 -411.01577551 370.37071841 -405.0234375 364.578125 C-403.18022021 362.68069544 -401.46449871 360.74007925 -399.7421875 358.734375 C-394.77115686 353.01080027 -389.32547669 347.77142345 -383.92578125 342.45703125 C-383.12269531 341.66167969 -382.31960938 340.86632813 -381.4921875 340.046875 C-380.42000977 338.99209961 -380.42000977 338.99209961 -379.32617188 337.91601562 C-377.36774792 335.87881356 -375.52035323 333.81264985 -373.67857361 331.67274475 C-370.25404639 327.74897076 -366.67630863 324.02662084 -362.98852539 320.35131836 C-362.01140343 319.37156792 -362.01140343 319.37156792 -361.01454163 318.37202454 C-358.88588001 316.23900425 -356.7536318 314.10961293 -354.62109375 311.98046875 C-353.12554079 310.48424103 -351.63013621 308.98786499 -350.13487244 307.49134827 C-347.01056351 304.36557047 -343.88446716 301.24159445 -340.75708008 298.11889648 C-336.76497061 294.13248378 -332.77736803 290.14159785 -328.7911005 286.14934444 C-325.70698821 283.06160463 -322.62048081 279.97626778 -319.53326225 276.89163399 C-318.06264458 275.42167952 -316.59275863 273.95099259 -315.12364388 272.47953606 C-313.06409924 270.41742876 -311.00133625 268.35859301 -308.93774414 266.30053711 C-308.04360809 265.40336472 -308.04360809 265.40336472 -307.13140869 264.48806763 C-303.43716714 260.81200465 -299.6165644 257.33275414 -295.66551113 253.93396091 C-293.27217586 251.84365737 -291.03459129 249.62215206 -288.8046875 247.359375 C-287.91910156 246.46605469 -287.03351562 245.57273437 -286.12109375 244.65234375 C-285.22261719 243.74097656 -284.32414062 242.82960938 -283.3984375 241.890625 C-277.96353806 236.37774996 -272.53585566 230.96091638 -266.65429688 225.92382812 C-264.10364696 223.69661992 -261.7643949 221.31359342 -259.3984375 218.890625 C-255.66841127 215.10381927 -251.83609671 211.51665191 -247.79296875 208.06640625 C-245.11382204 205.69660431 -242.63202097 203.15040788 -240.1484375 200.578125 C-238.20153524 198.68530336 -236.21396802 196.90372743 -234.1640625 195.125 C-229.88414513 191.40729194 -225.75980527 187.54283543 -221.6484375 183.640625 C-211.52859325 174.0770466 -201.26301305 164.68874905 -190.8984375 155.390625 C-189.23151103 153.89091372 -187.56484601 152.39091179 -185.8984375 150.890625 C-185.07601562 150.15070313 -184.25359375 149.41078125 -183.40625 148.6484375 C-181.71250856 147.12354256 -180.01982581 145.59747098 -178.328125 144.0703125 C-172.17393627 138.51836854 -165.98361119 133.01767207 -159.67578125 127.640625 C-154.11721271 122.89983177 -148.58905776 118.14976283 -143.2109375 113.203125 C-138.90181947 109.25153205 -134.45354521 105.53609662 -129.90625 101.86328125 C-126.39142244 98.97381911 -122.9543863 96.00374406 -119.5234375 93.015625 C-110.12121577 84.83154825 -100.63434126 76.76243388 -90.96484375 68.89453125 C-88.61147691 66.97286483 -86.26600983 65.04302978 -83.92578125 63.10546875 C-76.72734968 57.1484856 -69.50234701 51.24182313 -62.13085938 45.5 C-57.73129364 42.06643676 -53.40375566 38.55120308 -49.0859375 35.015625 C-42.95637286 30.00678922 -36.73049907 25.14413228 -30.42382812 20.3605957 C-26.58139359 17.44563013 -22.75924603 14.50859049 -18.96484375 11.53125 C-17.7425708 10.57303345 -17.7425708 10.57303345 -16.49560547 9.59545898 C-14.92340947 8.36079929 -13.35331876 7.12345267 -11.78564453 5.88305664 C-11.0739209 5.32481201 -10.36219727 4.76656738 -9.62890625 4.19140625 C-8.69147583 3.45144409 -8.69147583 3.45144409 -7.73510742 2.6965332 C-2.71633699 -0.87191064 -2.71633699 -0.87191064 0 0 Z " fill="#FEFEFE" transform="translate(1921.8984375,1670.609375)"/>
<path d="M0 0 C2.01206476 -0.00966526 4.02308726 -0.04076549 6.03491211 -0.07226562 C24.3230629 -0.14408949 36.67769649 3.54737479 49.84545898 16.24023438 C50.80838867 17.160625 50.80838867 17.160625 51.79077148 18.09960938 C54.68491489 20.92886167 57.40147399 23.85345143 60.03295898 26.92773438 C63.14164102 30.54166496 66.45685531 33.89281527 69.84545898 37.24023438 C73.6857371 41.03887234 77.37946579 44.87665192 80.88061523 48.99414062 C83.03562999 51.45762667 85.26413774 53.84028203 87.50463867 56.22583008 C92.78992179 61.8532879 97.84067948 67.56607642 102.66967773 73.59570312 C104.97577599 76.39862685 107.38697429 79.07026713 109.84545898 81.74023438 C114.26427818 86.55213871 118.4177966 91.5229307 122.51733398 96.60742188 C124.01977636 98.45454221 125.54062761 100.28551282 127.06420898 102.11523438 C134.10010315 110.57430702 140.92282599 119.15592589 147.56420898 127.92773438 C150.36403465 131.62269661 153.2137324 135.27599127 156.07641602 138.92236328 C163.59738992 148.51093035 170.7962632 158.30097496 177.84545898 168.24023438 C178.46777405 169.1133728 178.46777405 169.1133728 179.10266113 170.00415039 C186.87781382 180.91489675 194.43250001 191.9556396 201.84545898 203.11523438 C202.36937225 203.90282135 202.89328552 204.69040833 203.43307495 205.50186157 C211.06594447 216.98043644 218.66850428 228.46905221 225.84545898 240.24023438 C226.68367188 241.61453613 226.68367188 241.61453613 227.53881836 243.01660156 C242.73634044 268.01188305 257.2493959 293.33859043 270.84545898 319.24023438 C271.36039917 320.21920685 271.36039917 320.21920685 271.88574219 321.21795654 C281.52686136 339.55102614 290.78265247 357.98956601 299.31567383 376.87011719 C300.80263736 380.14589833 302.31528391 383.40864106 303.83374023 386.66992188 C330.44487166 444.31385788 352.20685004 504.97149809 368.84545898 566.24023438 C369.20391991 567.54808644 369.56265313 568.85586391 369.92163086 570.16357422 C375.27639972 589.70791804 380.08854011 609.34226385 384.48126221 629.12445068 C385.45407512 633.50433739 386.45093852 637.87782814 387.46655273 642.24804688 C391.29713571 658.85295644 394.35927098 675.5531223 397.19018555 692.35205078 C397.58961218 694.72212103 397.99187048 697.09171922 398.39916992 699.46044922 C410.07993333 767.46161864 415.46881186 836.12298407 415.10974121 905.08392334 C415.09044499 909.51718855 415.08656747 913.95041302 415.08302689 918.38371468 C415.07782924 923.79684341 415.06341379 929.20993749 415.04858398 934.62304688 C415.04670326 935.60588779 415.04482254 936.58872871 415.04288483 937.60135269 C414.99561485 956.63550558 414.3664013 975.62692013 412.79467773 994.59960938 C412.64666718 996.44056435 412.64666718 996.44056435 412.4956665 998.31871033 C412.18041616 1002.20970663 411.8576433 1006.10001467 411.53295898 1009.99023438 C411.42100099 1011.34281848 411.30911403 1012.69540846 411.19729614 1014.04800415 C408.84675434 1042.41064275 406.05342122 1070.6328188 401.42260742 1098.72753906 C401.01400451 1101.2144167 400.61043275 1103.70167893 400.21362305 1106.19042969 C394.7232534 1140.61560299 388.27371621 1174.77304661 379.75512695 1208.58349609 C378.62941402 1213.10870496 377.56911333 1217.64765241 376.51171875 1222.18920898 C373.42911377 1235.35921279 369.78192087 1248.30230674 365.84545898 1261.24023438 C365.39342147 1262.7362633 364.94161192 1264.23236112 364.48999023 1265.72851562 C347.07955754 1323.32336021 326.71544545 1379.42508177 301.84545898 1434.24023438 C301.36061035 1435.3143457 300.87576172 1436.38845703 300.3762207 1437.49511719 C287.05302244 1466.93430354 272.78952286 1496.12663989 256.84545898 1524.24023438 C256.21655762 1525.35317871 255.58765625 1526.46612305 254.93969727 1527.61279297 C240.30058593 1553.50004126 240.30058593 1553.50004126 233.05834961 1565.26708984 C232.19118824 1566.67779801 231.32839264 1568.09119356 230.46850586 1569.50634766 C221.56462382 1584.14030862 212.15446521 1598.42398642 202.65795898 1612.67773438 C202.06526215 1613.56852692 201.47256531 1614.45931946 200.86190796 1615.37710571 C190.21873758 1631.35924457 179.28913157 1647.10432532 167.81616211 1662.50341797 C165.28026332 1665.91427189 162.76043679 1669.31949334 160.39233398 1672.84960938 C159.71686523 1673.84476563 159.04139648 1674.83992188 158.34545898 1675.86523438 C157.79889648 1676.703125 157.25233398 1677.54101562 156.68920898 1678.40429688 C154.23514866 1680.84795864 152.22814606 1680.96467841 148.84545898 1681.24023438 C148.44516065 1676.13643065 149.00705046 1672.36543961 150.66186523 1667.51367188 C152.98469982 1660.18824477 154.37791621 1652.84381975 155.65576172 1645.2824707 C156.03454354 1643.04336758 156.42628083 1640.80682058 156.82006836 1638.5703125 C158.84159 1626.91068032 160.001453 1615.67155976 160.01342773 1603.82226562 C160.01675613 1602.64798508 160.02008453 1601.47370453 160.02351379 1600.26383972 C160.0285552 1597.78372587 160.03092299 1595.3036053 160.03076172 1592.82348633 C160.03292633 1589.10876623 160.05105172 1585.39435434 160.07006836 1581.6796875 C160.1058615 1566.75911248 159.50407115 1552.07007901 157.84545898 1537.24023438 C157.76740021 1536.53472443 157.68934143 1535.82921448 157.60891724 1535.10232544 C157.14622215 1531.01381926 156.60987492 1526.93904693 156.03295898 1522.86523438 C155.8619165 1521.64811768 155.69087402 1520.43100098 155.51464844 1519.17700195 C153.92556036 1508.21735589 151.87974038 1497.38736843 149.55493164 1486.56201172 C148.80443052 1483.04813758 148.08062524 1479.52930285 147.35717773 1476.00976562 C141.5952449 1448.41230656 134.96824282 1420.62528342 125.47827148 1394.05273438 C123.99103414 1389.83240143 122.75675611 1385.545936 121.51733398 1381.24804688 C118.96040656 1372.42967394 116.03482486 1363.7686534 112.97045898 1355.11523438 C112.69433777 1354.33254181 112.41821655 1353.54984924 112.13372803 1352.74343872 C101.08898928 1321.48863662 88.8281591 1290.73589129 75.84545898 1260.24023438 C75.56764587 1259.58619629 75.28983276 1258.9321582 75.00360107 1258.25830078 C62.2721469 1228.28678943 48.67899429 1198.72725688 34.389328 1169.46871948 C32.13022529 1164.83849048 29.91078467 1160.19041891 27.70385742 1155.53515625 C17.72700523 1134.49880928 7.33122949 1113.63685106 -3.63549805 1093.09863281 C-5.53773461 1089.51917514 -7.42192009 1085.93037117 -9.30688477 1082.34179688 C-16.5409581 1068.58403288 -23.81298099 1054.86806955 -31.53491211 1041.37573242 C-35.32867256 1034.74053746 -38.98063852 1028.03870017 -42.59204102 1021.30273438 C-47.48936096 1012.18758103 -52.60427851 1003.22381956 -57.85571289 994.30859375 C-62.03849692 987.19554997 -66.08995364 980.01875557 -70.09204102 972.80273438 C-75.32493793 963.3898035 -80.7584651 954.11945043 -86.33349609 944.90551758 C-90.85450367 937.42951935 -95.28953922 929.90811132 -99.68908691 922.36038208 C-106.43560733 910.78998251 -113.34489906 899.3379021 -120.44750977 887.98193359 C-123.0325527 883.83004113 -125.58766985 879.65989989 -128.14550781 875.49121094 C-134.92704489 864.43934356 -141.77562498 853.43449937 -148.7277832 842.48925781 C-150.67223643 839.42418199 -152.60795118 836.35362639 -154.54394531 833.28320312 C-170.06776814 808.66958888 -185.85304008 784.24123903 -201.84204102 759.92773438 C-202.37552155 759.1163501 -202.90900208 758.30496582 -203.45864868 757.46899414 C-214.02329954 741.40443807 -224.68772229 725.41152118 -235.46704102 709.49023438 C-235.97099396 708.74566986 -236.4749469 708.00110535 -236.99417114 707.23397827 C-257.41902373 677.06012042 -278.19333326 647.13241043 -299.22875977 617.38085938 C-301.19337968 614.60218493 -303.15408109 611.82081018 -305.11157227 609.03710938 C-311.84119917 599.47226955 -318.65564967 589.9720773 -325.51782227 580.50195312 C-327.13963166 578.26083704 -328.75719233 576.01672123 -330.37329102 573.77148438 C-337.64617699 563.6707448 -344.99962906 553.63226006 -352.3972168 543.62255859 C-354.13213892 541.27060388 -355.86109245 538.91438598 -357.58813477 536.55664062 C-364.35794829 527.32262653 -371.228423 518.17457696 -378.1887207 509.08325195 C-382.61858793 503.28684884 -386.9724067 497.44076897 -391.27954102 491.55273438 C-397.55365935 482.98333739 -404.04304781 474.59606759 -410.59399414 466.23730469 C-412.79744185 463.41749832 -414.97674536 460.5799091 -417.15454102 457.74023438 C-423.44931759 449.5435877 -429.79868827 441.38957032 -436.15454102 433.24023438 C-436.64599609 432.60939941 -437.13745117 431.97856445 -437.64379883 431.32861328 C-443.44963717 423.88111006 -449.34858828 416.51703196 -455.31884766 409.20068359 C-458.81017635 404.9155185 -462.25253495 400.5965678 -465.65454102 396.24023438 C-473.99376467 385.57389183 -482.5374635 375.07835807 -491.32226562 364.77587891 C-494.83863701 360.6433438 -498.23980441 356.42922411 -501.59594727 352.16601562 C-503.15913273 350.16577542 -503.15913273 350.16577542 -505.15454102 348.24023438 C-505.78149414 345.65600586 -505.78149414 345.65600586 -505.15454102 342.24023438 C-502.8082355 339.02710155 -499.98001534 336.34598723 -497.12329102 333.58789062 C-495.88657654 332.36035316 -495.88657654 332.36035316 -494.62487793 331.10801697 C-491.9818232 328.49191087 -489.31843394 325.89760082 -486.65454102 323.30273438 C-484.89020384 321.55992535 -483.12716735 319.81579851 -481.36547852 318.0703125 C-467.80445097 304.68395581 -467.80445097 304.68395581 -460.95410156 298.82579041 C-457.69796117 295.95687163 -454.69143749 292.83740876 -451.65454102 289.74023438 C-447.22652341 285.26424022 -442.78899105 280.90567921 -437.97485352 276.84179688 C-435.04112997 274.2606238 -432.34304924 271.44992747 -429.62329102 268.64648438 C-427.59451957 266.66907424 -425.53502142 264.80610817 -423.39672852 262.95117188 C-419.07861673 259.20424954 -414.92452328 255.30166408 -410.77954102 251.36523438 C-404.6461556 245.5666509 -398.45950189 239.85197965 -392.15454102 234.24023438 C-390.57119032 232.8027535 -388.9878576 231.36525282 -387.40454102 229.92773438 C-382.80869395 225.78642163 -378.11413489 221.76945861 -373.40429688 217.75927734 C-369.69423736 214.59017364 -366.05846412 211.35684363 -362.46704102 208.05273438 C-358.05832535 204.00602468 -353.49388427 200.21269723 -348.83813477 196.45507812 C-346.20745545 194.28390611 -343.67511677 192.03782081 -341.15454102 189.74023438 C-335.98267795 185.0340841 -330.59256969 180.63336834 -325.15454102 176.24023438 C-323.32016477 174.74150995 -321.48682877 173.2415114 -319.65454102 171.74023438 C-318.28749023 170.62261719 -318.28749023 170.62261719 -316.89282227 169.48242188 C-315.09621834 168.01130824 -313.30186645 166.53743909 -311.51000977 165.06054688 C-304.72633253 159.47866312 -297.84241252 154.0359334 -290.92211914 148.62548828 C-289.24064525 147.3077144 -287.56384911 145.98427621 -285.88891602 144.65820312 C-269.61185982 131.78243171 -253.08257641 119.24842372 -236.15454102 107.24023438 C-234.97408203 106.40177979 -234.97408203 106.40177979 -233.76977539 105.54638672 C-203.02598251 83.75417382 -171.37624173 63.07805793 -138.15454102 45.24023438 C-137.17130859 44.71171875 -136.18807617 44.18320313 -135.17504883 43.63867188 C-93.69795593 21.46355233 -47.95298201 0.13857575 0 0 Z " fill="#FEFEFE" transform="translate(2770.154541015625,1008.759765625)"/>
<path d="M0 0 C0.87591797 0.2779541 1.75183594 0.5559082 2.65429688 0.84228516 C36.80088424 11.75809855 69.12790591 27.93947359 100 46 C100.86222168 46.50096191 101.72444336 47.00192383 102.61279297 47.51806641 C116.337984 55.53420362 129.58368778 64.26081436 142.8125 73.0625 C143.62976562 73.60522552 144.44703125 74.14795105 145.2890625 74.7071228 C156.33843763 82.05556236 167.18073281 89.6448369 177.89651489 97.47114563 C180.88116596 99.64044876 183.88358488 101.78455783 186.88734436 103.92729187 C196.090017 110.50571894 205.04486256 117.37276534 213.93066406 124.37158203 C215.84308827 125.87652179 217.76019408 127.37518739 219.6796875 128.87109375 C228.55100584 135.7940791 237.28720551 142.87901106 246 150 C247.01320313 150.82757812 248.02640625 151.65515625 249.0703125 152.5078125 C250.86035159 153.9714627 252.6494574 155.43625525 254.4375 156.90234375 C256.16341791 158.31517594 257.89265902 159.72395709 259.625 161.12890625 C266.58177003 166.7812819 273.39471109 172.58753368 280.18408203 178.43847656 C282.00300648 180.0025853 283.82680079 181.56081076 285.65234375 183.1171875 C291.7648393 188.33124768 297.82222576 193.58954357 303.7734375 198.98828125 C305.83104391 200.84734669 307.90846763 202.67928358 310 204.5 C314.71704465 208.61083811 319.35500129 212.80817189 324 217 C324.804375 217.721875 325.60875 218.44375 326.4375 219.1875 C333.00149123 225.07826136 339.51006516 231.02796519 346 237 C346.51433594 237.47308594 347.02867187 237.94617187 347.55859375 238.43359375 C351.37873965 241.9488901 355.19162142 245.47196039 359 249 C359.6290625 249.58249512 360.258125 250.16499023 360.90625 250.76513672 C367.4172446 256.79975647 373.91233221 262.82421773 380.13012695 269.16308594 C381.83397977 270.83690609 383.58321336 272.37362846 385.41015625 273.91015625 C392.20194658 279.8139878 398.40589445 286.3513573 404.72753906 292.74804688 C413.12434169 301.24055176 413.12434169 301.24055176 421.984375 309.2421875 C426.47910514 313.1620103 430.7315187 317.33749479 435 321.5 C435.4842041 321.95681152 435.9684082 322.41362305 436.46728516 322.88427734 C437.89056844 324.22846286 439.28942744 325.59836205 440.6875 326.96875 C441.51636719 327.76732422 442.34523438 328.56589844 443.19921875 329.38867188 C445.56759088 332.82306833 445.51307501 334.90829275 445 339 C443.94946289 340.99707031 443.94946289 340.99707031 442.47265625 342.578125 C441.9322168 343.17592773 441.39177734 343.77373047 440.83496094 344.38964844 C440.25004883 345.00356445 439.66513672 345.61748047 439.0625 346.25 C437.85947627 347.57182477 436.65765865 348.89474823 435.45703125 350.21875 C434.56878662 351.18361328 434.56878662 351.18361328 433.66259766 352.16796875 C431.43404495 354.62363094 429.33525247 357.17213904 427.25 359.75 C426.5384375 360.62785156 425.826875 361.50570313 425.09375 362.41015625 C424.4028125 363.26480469 423.711875 364.11945313 423 365 C421.5843237 366.72997757 420.1676292 368.45912237 418.75 370.1875 C414.51672984 375.36149686 410.29829739 380.54745334 406.08569336 385.73828125 C403.27222917 389.20502407 400.45520944 392.66871293 397.62890625 396.125 C391.8146008 403.24264412 386.10071091 410.41495117 380.52734375 417.72265625 C377.73985358 421.35933026 374.87153664 424.92956362 372 428.5 C367.91262723 433.58610612 363.88176192 438.70655944 359.91870117 443.89038086 C357.55907713 446.97582915 355.18548395 450.04932899 352.79296875 453.109375 C345.87302197 461.96060707 339.05581129 470.87885471 332.33203125 479.88012695 C328.85787434 484.52944651 325.3608369 489.15703272 321.8125 493.75 C311.93549142 506.53966844 302.35762011 519.55298807 292.78662109 532.57226562 C291.01285994 534.98252539 289.23556356 537.39013424 287.45703125 539.796875 C280.11062094 549.74134398 272.83207915 559.73182741 265.60888672 569.76611328 C263.45119172 572.76200239 261.28940748 575.75492725 259.12719727 578.74755859 C258.0426223 580.24887722 256.9584749 581.75050482 255.87475586 583.25244141 C253.1737775 586.99525469 250.4674961 590.7340025 247.75 594.46484375 C241.53461674 603.01111237 235.46724744 611.63938388 229.52783203 620.37988281 C226.11015177 625.40275822 222.60205802 630.34157952 219 635.234375 C216.07957671 639.27277282 213.27524963 643.3883542 210.46362305 647.50292969 C207.98607092 651.12406355 205.49226268 654.73145541 202.95703125 658.3125 C194.34055569 670.4925149 186.03909433 682.8671095 177.81518555 695.31420898 C173.33668261 702.08038747 168.77705533 708.73722084 163.96191406 715.27075195 C160.14654653 720.57836689 156.62267286 726.08218036 153.0625 731.5625 C152.23400094 732.83318845 151.40521955 734.10369286 150.57617188 735.37402344 C148.88032415 737.97324492 147.1859365 740.57340894 145.49267578 743.17431641 C143.12422427 746.81116672 140.74895402 750.44351498 138.37109375 754.07421875 C121.01965507 780.57009021 103.84705589 807.17999039 87 834 C86.42427246 834.91571777 85.84854492 835.83143555 85.25537109 836.77490234 C76.68450395 850.41585991 68.22784883 864.12120583 59.88037109 877.89990234 C57.85805541 881.23401875 55.82990576 884.56455712 53.80078125 887.89453125 C45.68364848 901.22088554 37.63364319 914.58299726 29.73681641 928.04150391 C28.16872654 930.71259092 26.5975198 933.3818218 25.02526855 936.05046082 C10.30735506 961.03708096 -4.0861007 986.19152385 -18.10693359 1011.57714844 C-20.02010353 1015.03634918 -21.94102877 1018.49115185 -23.86328125 1021.9453125 C-33.81695993 1039.85381285 -43.46817719 1057.91446537 -52.98217773 1076.06005859 C-53.91555762 1077.83905513 -54.85122032 1079.61685346 -55.78710938 1081.39453125 C-64.97445893 1098.86449722 -73.81962893 1116.50911997 -82.6668663 1134.1529541 C-83.60452774 1136.02169909 -84.54358744 1137.88973471 -85.48306274 1139.75756836 C-94.33058898 1157.35517344 -102.80990701 1175.08544655 -111 1193 C-111.62835754 1194.3702684 -111.62835754 1194.3702684 -112.26940918 1195.76821899 C-139.43621498 1255.02389449 -165.32229758 1315.71747868 -184.15478516 1378.20214844 C-185.15606027 1381.51659464 -186.17850785 1384.82430132 -187.19921875 1388.1328125 C-191.71094242 1402.83164659 -195.78891991 1417.58739095 -199.39306641 1432.53613281 C-200.20044853 1435.81372751 -201.0965447 1439.06006092 -202 1442.3125 C-208.32292096 1465.81268957 -212.82807941 1489.77798255 -216.125 1513.875 C-216.28371582 1515.0194458 -216.44243164 1516.1638916 -216.60595703 1517.34301758 C-219.21993927 1537.18152103 -220.41074669 1556.99595275 -220.375 1577 C-220.37512085 1578.05462433 -220.3752417 1579.10924866 -220.37536621 1580.1958313 C-220.32940793 1608.56358193 -216.99841426 1635.84990943 -208.83203125 1663.08203125 C-208.08218052 1665.71178945 -207.49195916 1668.31161713 -207 1671 C-212.03517862 1671.78132082 -212.03517862 1671.78132082 -215 1671 C-216.49365234 1669.30371094 -216.49365234 1669.30371094 -217.8359375 1667.046875 C-219.8990007 1663.73432808 -222.01257887 1660.55665946 -224.375 1657.44921875 C-224.95950928 1656.68029297 -225.54401855 1655.91136719 -226.14624023 1655.11914062 C-227.06385132 1653.91547852 -227.06385132 1653.91547852 -228 1652.6875 C-261.50723945 1608.26797259 -291.09674724 1560.66941646 -318 1512 C-318.5067627 1511.08943848 -319.01352539 1510.17887695 -319.53564453 1509.24072266 C-337.594693 1476.69604794 -354.30201441 1443.19872053 -369 1409 C-369.43354797 1407.99431976 -369.43354797 1407.99431976 -369.87585449 1406.96832275 C-386.48923414 1368.39406855 -400.97276259 1329.10869019 -414.24160767 1289.26931763 C-414.95981225 1287.12025275 -415.68489029 1284.9736608 -416.4128418 1282.82788086 C-418.97633553 1275.25304156 -421.32607137 1267.65072969 -423.4375 1259.9375 C-423.73479004 1258.86226074 -424.03208008 1257.78702148 -424.33837891 1256.67919922 C-424.94373692 1254.48667322 -425.54728363 1252.29364622 -426.14892578 1250.10009766 C-426.91527443 1247.30861884 -427.68867846 1244.51923009 -428.46484375 1241.73046875 C-437.98145328 1207.3863459 -446.30054455 1172.95555849 -452.625 1137.875 C-452.90754639 1136.30829056 -452.90754639 1136.30829056 -453.19580078 1134.70993042 C-455.98762847 1119.16939746 -458.55855805 1103.59921086 -461 1088 C-461.20214111 1086.71464355 -461.40428223 1085.42928711 -461.61254883 1084.10498047 C-462.08464098 1081.07133828 -462.54563836 1078.03634475 -463 1075 C-463.17740723 1073.82695312 -463.35481445 1072.65390625 -463.53759766 1071.4453125 C-466.76116444 1049.70332515 -468.93950486 1027.90139486 -470.75 1006 C-470.85663971 1004.73526855 -470.96327942 1003.47053711 -471.07315063 1002.16748047 C-473.85576755 968.88506224 -474.21234511 935.68889443 -474.24023438 902.31225586 C-474.24459327 897.84277063 -474.25841746 893.37348124 -474.28125 888.90405273 C-474.47843497 849.42400016 -472.94490926 810.19188206 -468.5625 770.9375 C-468.34535623 768.92980637 -468.12856815 766.92207424 -467.91210938 764.91430664 C-464.36544449 732.34047098 -459.59151102 699.95976994 -453.51806641 667.75927734 C-452.96551825 664.8163465 -452.42624243 661.87112589 -451.88671875 658.92578125 C-448.91317544 642.8794961 -445.33671554 627.00639774 -441.51550293 611.14276123 C-440.97104223 608.87963291 -440.4291581 606.61589815 -439.88769531 604.35205078 C-438.91394107 600.2830423 -437.93553905 596.2151754 -436.95373535 592.14810181 C-436.57626368 590.58397496 -436.19952008 589.01967217 -435.8236084 587.45516968 C-432.36263689 573.07341938 -428.64854525 558.75637087 -424.0625 544.6875 C-422.25346701 539.09419389 -420.54900492 533.48512712 -418.97633362 527.8208313 C-415.5815068 515.61183577 -411.66911402 503.61080589 -407.5625 491.625 C-407.21751465 490.61486847 -406.8725293 489.60473694 -406.51708984 488.56399536 C-383.0768541 420.0700349 -354.00526693 352.54741046 -318.38916016 289.46191406 C-316.88770558 286.80098824 -315.4025772 284.13129567 -313.91796875 281.4609375 C-302.26454172 260.58269382 -289.9185164 240.11863732 -277 220 C-276.52046875 219.25250488 -276.0409375 218.50500977 -275.546875 217.73486328 C-262.2760357 197.07498476 -248.48203999 176.82931857 -234 157 C-233.14269287 155.8253418 -233.14269287 155.8253418 -232.26806641 154.62695312 C-220.36289151 138.33671102 -208.18786748 122.31851766 -195.39697266 106.71289062 C-193.53485769 104.42966821 -191.7041277 102.12219282 -189.875 99.8125 C-186.38179651 95.42944888 -182.77033076 91.15430133 -179.13623047 86.88818359 C-176.20623318 83.44404516 -173.33675907 79.959344 -170.5 76.4375 C-166.37309794 71.36392507 -161.99897442 66.56258858 -157.5546875 61.76953125 C-155.49886278 59.54081607 -153.48383043 57.29232081 -151.5 55 C-147.77335912 50.70683889 -143.92986112 46.52311922 -140.07714844 42.34350586 C-138.14916945 40.25073125 -136.22691122 38.1532136 -134.30834961 36.05175781 C-127.22121449 28.30176337 -119.97275352 20.7264651 -112.57128906 13.27612305 C-111.34548537 12.03865286 -110.12419946 10.79669285 -108.90722656 9.55053711 C-107.10939624 7.70993544 -105.29857375 5.88304726 -103.484375 4.05859375 C-102.68407867 3.23203529 -102.68407867 3.23203529 -101.86761475 2.38877869 C-77.36504769 -21.97626382 -28.54623082 -9.29200188 0 0 Z " fill="#FEFEFE" transform="translate(1127,1019)"/>
<path d="M0 0 C5.03035626 0.01042815 10.06068975 0.00065448 15.09104776 -0.00554466 C23.52655765 -0.01273872 31.96192561 -0.00345585 40.39741373 0.01581764 C50.02007937 0.03755581 59.64240528 0.03052312 69.26506269 0.00851202 C77.66393706 -0.0098989 86.06271182 -0.01207726 94.46159995 -0.0017333 C99.41772729 0.00436532 104.37369754 0.00573162 109.32981348 -0.00787926 C135.43458534 -0.06980115 161.06848202 1.34766731 187.01071072 4.27250481 C189.43238746 4.54491622 191.85458762 4.81218771 194.27697229 5.07822609 C248.80282752 11.08085874 302.89448982 21.00391141 356.17719889 33.97480202 C357.2956016 34.24602882 358.41400431 34.51725563 359.56629801 34.79670143 C374.34981527 38.39308127 388.99191918 42.32621926 403.56522989 46.69767189 C406.26140095 47.50632041 408.95976619 48.30717056 411.65888834 49.10590553 C467.95382407 65.81253099 522.93864761 86.15826411 576.36469889 110.53730202 C577.4136735 111.01103249 578.46264811 111.48476295 579.54340982 111.97284889 C609.23001136 125.38899578 638.69090395 139.67997061 666.84321451 156.09296608 C671.30007312 158.64590717 675.83916726 161.04647771 680.36469889 163.47480202 C688.41599697 167.82107151 696.2970365 172.40879683 704.11469889 177.16230202 C705.10985514 177.76679176 706.10501139 178.37128151 707.13032389 178.99408913 C714.09957116 183.27217429 714.09957116 183.27217429 716.36469889 185.53730202 C716.01170881 188.97895522 715.31888197 190.6060274 713.36469889 193.53730202 C706.78562639 192.93085681 700.26131389 192.14182267 693.72798014 191.16230202 C691.91485941 190.8964702 690.10170735 190.63085199 688.28852701 190.36542702 C685.48907647 189.95319004 682.689919 189.53920151 679.89131021 189.12128639 C661.08073608 186.31953495 642.68178463 185.30002262 623.67719889 185.28730202 C622.62556559 185.28629494 621.57393229 185.28528786 620.49043131 185.28425026 C600.97391337 185.29679206 581.75286084 186.37213238 562.36469889 188.53730202 C561.67928019 188.61226906 560.99386148 188.6872361 560.28767252 188.76447487 C529.31230774 192.15311743 498.90987609 197.57160562 468.56684732 204.57050514 C464.69266342 205.4639859 460.81442433 206.33865404 456.93501139 207.20917702 C445.59162018 209.7663811 434.32245253 212.46112116 423.16010904 215.72236061 C420.43692188 216.51624696 417.71072683 217.29926074 414.98406839 218.08112526 C381.67799563 227.64731324 348.79480436 238.32246857 316.36469889 250.53730202 C315.14103617 250.99686287 315.14103617 250.99686287 313.89265299 251.46570778 C286.46689664 261.77072111 259.41533081 272.79725219 232.5848527 284.56397438 C230.52486951 285.46708234 228.46381586 286.3676878 226.40229654 287.26728249 C173.32715298 310.46478676 121.34553525 336.1353366 70.86469889 364.53730202 C69.90257486 365.07758034 68.94045084 365.61785866 67.94917154 366.17450905 C66.59251383 366.94190407 66.59251383 366.94190407 65.20844889 367.72480202 C64.36024576 368.20433327 63.51204264 368.68386452 62.63813639 369.17792702 C60.67881454 370.34948029 58.90062166 371.60015319 57.08344889 372.97480202 C54.36469889 374.53730202 54.36469889 374.53730202 51.43501139 374.54511452 C47.69158278 373.31635551 44.55115901 371.4959633 41.23969889 369.41230202 C33.5432668 364.73346721 25.6872586 360.39846517 17.73969889 356.16230202 C17.14095957 355.842826 16.54222025 355.52334999 15.92533731 355.19419289 C6.70342762 350.27770728 -2.54950577 345.42055313 -11.82524252 340.60639381 C-16.36603961 338.24945811 -20.89051775 335.87005882 -25.38456869 333.42524147 C-33.85839969 328.82495921 -42.54329757 324.69747251 -51.25639486 320.57245827 C-55.61772841 318.50578013 -59.96169519 316.40727197 -64.29545736 314.28339577 C-82.82599434 305.21576025 -101.59040827 296.75184342 -120.48765707 288.47864723 C-122.55080052 287.57433992 -124.61260343 286.66705749 -126.67387533 285.75849342 C-145.16497476 277.61075681 -163.79961466 269.85425691 -182.63530111 262.53730202 C-183.68140554 262.13091499 -183.68140554 262.13091499 -184.7486434 261.71631813 C-207.28306477 252.9769237 -229.98865556 244.78171941 -252.83519125 236.89653969 C-256.63874053 235.58258399 -260.43704706 234.25611126 -264.22660971 232.90229225 C-271.68047638 230.23945978 -279.11637573 227.67166188 -286.76030111 225.59980202 C-293.04647494 223.85389965 -299.2971448 222.03781332 -305.52128744 220.08197975 C-347.09779316 207.07056059 -390.13548179 197.94677078 -433.24418783 191.88007545 C-435.64953337 191.53526178 -438.0503775 191.16677763 -440.45170736 190.79511452 C-490.49873587 183.24112139 -541.67499589 182.91652251 -591.64701986 191.11152077 C-592.41875036 191.23767265 -593.19048086 191.36382454 -593.98559713 191.49379921 C-597.92795218 192.12709569 -597.92795218 192.12709569 -601.63530111 193.53730202 C-605.13530111 193.72480202 -605.13530111 193.72480202 -608.63530111 193.53730202 C-610.63530111 191.53730202 -610.63530111 191.53730202 -611.05595541 188.62763405 C-610.63530111 185.53730202 -610.63530111 185.53730202 -608.67363119 183.66962624 C-607.75992758 183.14900612 -606.84622396 182.628386 -605.90483236 182.09198952 C-604.37499716 181.19830666 -604.37499716 181.19830666 -602.81425619 180.2865696 C-601.70332602 179.66806129 -600.59239584 179.04955299 -599.44780111 178.41230202 C-597.71944043 177.41543956 -595.9910803 176.41857614 -594.2627883 175.42159462 C-592.50882503 174.41536145 -590.74905576 173.42015751 -588.98686361 172.4284153 C-586.00275556 170.74463755 -583.03449637 169.03743013 -580.07280111 167.31464577 C-558.94874885 155.0615395 -537.37467087 143.65430276 -515.63530111 132.53730202 C-514.51381674 131.96221901 -513.39233236 131.387136 -512.23686361 130.79462624 C-454.80775144 101.42520585 -394.33859617 76.24328535 -332.60722494 57.44623756 C-330.12924157 56.68836916 -327.65951505 55.91232238 -325.19389486 55.11542702 C-303.76760651 48.19181728 -282.0982019 42.31049514 -260.26030111 36.84980202 C-259.34974966 36.62168831 -258.43919821 36.3935746 -257.50105429 36.15854836 C-245.58813489 33.18102351 -233.64545941 30.36496738 -221.66410971 27.67621803 C-217.37969383 26.71276149 -213.1067086 25.70566871 -208.83531332 24.68621254 C-197.77912171 22.053293 -186.62184265 19.97118116 -175.44780111 17.91230202 C-174.2616622 17.69299019 -174.2616622 17.69299019 -173.05156088 17.46924782 C-156.10070178 14.34540139 -139.12310463 11.61131826 -122.01030111 9.53730202 C-120.61444345 9.36627653 -119.21861063 9.19504817 -117.82280111 9.02363014 C-115.04144553 8.68260444 -112.25985342 8.34360645 -109.47807455 8.00605202 C-106.12579602 7.59713367 -102.77487652 7.17913553 -99.42436361 6.75605202 C-94.4336967 6.13050201 -89.43916151 5.54669464 -84.44203711 4.97527504 C-81.80626637 4.67202405 -79.17145162 4.36384367 -76.53696966 4.04989052 C-50.96797028 1.02708374 -25.73546816 -0.07057986 0 0 Z " fill="#FEFEFE" transform="translate(1866.6353011131287,652.4626979827881)"/>
</svg>
