<?xml version="1.0" encoding="UTF-8"?>
<svg version="1.1" xmlns="http://www.w3.org/2000/svg" width="1403" height="1403" viewBox="0 -205.5 1403 1403">
<rect x="0" y="-205.5" width="1403" height="1403" fill="#fe6c13"/>
<path d="M0 0 C462.99 0 925.98 0 1403 0 C1403 327.36 1403 654.72 1403 992 C940.01 992 477.02 992 0 992 C0 664.64 0 337.28 0 0 Z " fill="#FE6C13" transform="translate(0,0)"/>
<path d="M0 0 C-3.20892871 4.08409109 -6.50731234 7.43634824 -10.546875 10.703125 C-12.13287611 11.95780703 -12.13287611 11.95780703 -13 14 C-13.66 14 -14.32 14 -15 14 C-15 14.66 -15 15.32 -15 16 C-16.49609375 17.4375 -16.49609375 17.4375 -18.4375 19 C-21.15188238 21.14525044 -21.15188238 21.14525044 -23 24 C-23.66 24 -24.32 24 -25 24 C-25 24.66 -25 25.32 -25 26 C-26.875 28.125 -26.875 28.125 -29 30 C-29.66 30 -30.32 30 -31 30 C-31 30.66 -31 31.32 -31 32 C-32.35546875 33.33203125 -32.35546875 33.33203125 -34.1875 34.8125 C-37.30237295 37.3946482 -40.17375061 40.09937562 -43 43 C-43.825 43.804375 -44.65 44.60875 -45.5 45.4375 C-47.36981005 47.3540553 -49.02241847 49.23236882 -50.6875 51.3125 C-51.450625 52.199375 -52.21375 53.08625 -53 54 C-53.66 54 -54.32 54 -55 54 C-55 54.66 -55 55.32 -55 56 C-56.64351457 57.36176922 -58.31522656 58.68962066 -60 60 C-62.62325838 62.49529455 -64.96362446 64.95323145 -67.1875 67.8125 C-67.785625 68.534375 -68.38375 69.25625 -69 70 C-69.66 70 -70.32 70 -71 70 C-71.495 71.485 -71.495 71.485 -72 73 C-74.4375 75.6875 -74.4375 75.6875 -77 78 C-77.66 78 -78.32 78 -79 78 C-79.495 79.485 -79.495 79.485 -80 81 C-82.4375 83.6875 -82.4375 83.6875 -85 86 C-85.66 86 -86.32 86 -87 86 C-87.226875 86.5775 -87.45375 87.155 -87.6875 87.75 C-89.34761639 90.59591381 -91.39187957 91.99841921 -94 94 C-96.68627207 96.55195846 -99.0996537 99.1226507 -101.4375 102 C-104.06751232 105.07903881 -106.8625034 107.45078401 -110 110 C-110.886875 110.886875 -111.77375 111.77375 -112.6875 112.6875 C-115 115 -115 115 -118 117 C-116.823675 107.42714825 -113.6024533 98.87112779 -110 90 C-109.52433594 88.80890625 -109.04867187 87.6178125 -108.55859375 86.390625 C-106.98617334 82.96992095 -105.1298193 80.0982843 -103 77 C-101.58133337 74.62864725 -100.22761733 72.22201033 -98.875 69.8125 C-96.99723848 66.47929879 -95.12401088 63.18601632 -93 60 C-121.38 59.67 -149.76 59.34 -179 59 C-179 98.6 -179 138.2 -179 179 C-139.4 179 -99.8 179 -59 179 C-59.27696277 150.63796095 -59.27696277 150.63796095 -59.63061523 122.27685547 C-59.66223145 116.78149414 -59.66223145 116.78149414 -59.66810608 114.20584106 C-59.6788296 112.4134809 -59.70339766 110.62117013 -59.73902893 108.82913208 C-59.79041721 106.10769491 -59.7973386 103.38933143 -59.79467773 100.66748047 C-59.81986449 99.87402159 -59.84505125 99.08056271 -59.87100124 98.26305962 C-59.82683983 94.87961105 -59.70864189 92.82310667 -57.45096016 90.20074844 C-55.69218981 88.69347251 -53.88211647 87.34716305 -52 86 C-50.4533823 84.28755239 -49.06113838 82.53509103 -47.65234375 80.7109375 C-45.3850596 78.3632532 -42.72422395 76.78033144 -40 75 C-39.90649106 89.89044424 -39.83598872 104.7808657 -39.79275131 119.67154121 C-39.77214031 126.58581492 -39.74404802 133.49990601 -39.69824219 140.4140625 C-39.65406215 147.08600248 -39.63086528 153.75771351 -39.62049103 160.42980576 C-39.61309742 162.9759304 -39.59865959 165.5220446 -39.57707977 168.06808853 C-39.54806436 171.63302339 -39.54404339 175.19717318 -39.54589844 178.76220703 C-39.53151733 179.81597031 -39.51713623 180.86973358 -39.50231934 181.95542908 C-39.53511822 187.77641945 -39.88276944 191.51022902 -44 196 C-47.29859468 198.11070316 -49.96324526 198.2530252 -53.83824158 198.26069641 C-55.62786568 198.27132362 -55.62786568 198.27132362 -57.4536438 198.28216553 C-59.41199661 198.2784494 -59.41199661 198.2784494 -61.40991211 198.2746582 C-62.8013893 198.27900632 -64.19286409 198.2841898 -65.58433533 198.29014587 C-69.36120022 198.30353641 -73.13796504 198.3041145 -76.91484904 198.30158257 C-80.0684682 198.30051291 -83.22206711 198.3053961 -86.37568194 198.310188 C-93.81581834 198.32128334 -101.25590425 198.32172042 -108.69604492 198.31567383 C-116.37028342 198.30963287 -124.04433863 198.32194801 -131.71854585 198.3432439 C-138.30889554 198.36085931 -144.89918687 198.36686136 -151.48955923 198.36360615 C-155.42502009 198.36179307 -159.36035019 198.36443191 -163.29578972 198.37832069 C-166.99683325 198.39089353 -170.69759102 198.38896031 -174.39863014 198.37590981 C-176.40270354 198.37241556 -178.40678564 198.38372597 -180.41082764 198.39547729 C-181.60673019 198.38846298 -182.80263275 198.38144867 -184.03477478 198.3742218 C-185.07212737 198.37438954 -186.10947996 198.37455729 -187.17826748 198.37473011 C-191.6107355 197.78609202 -194.06795489 196.20684463 -196.78827 192.68448544 C-198.18630885 189.58724848 -198.37971644 187.439486 -198.38768005 184.04823303 C-198.402537 182.25871468 -198.402537 182.25871468 -198.41769409 180.43304443 C-198.41319244 179.13264221 -198.4086908 177.83223999 -198.40405273 176.49243164 C-198.40975801 175.10242667 -198.41672288 173.71242639 -198.42485046 172.32243347 C-198.44278007 168.55378417 -198.4416139 164.78536772 -198.43590808 161.01668859 C-198.43281585 157.86807534 -198.43890906 154.71950679 -198.44494683 151.5708999 C-198.45898985 144.14171114 -198.45743271 136.71263737 -198.44604492 129.28344727 C-198.4345642 121.62448421 -198.4486389 113.96587135 -198.4754414 106.30695444 C-198.49760783 99.72589755 -198.50423366 93.1449505 -198.49836498 86.56385893 C-198.49499639 82.63561234 -198.49740375 78.7075902 -198.51461601 74.77937508 C-198.53009826 71.08479858 -198.52611601 67.39074027 -198.50731087 63.69618416 C-198.50187578 61.69827593 -198.51612941 59.70034437 -198.53100586 57.70248413 C-198.43823707 46.42179003 -198.43823707 46.42179003 -194 42 C-190.59539563 40.35791449 -187.8881567 39.75239987 -184.12467957 39.76863098 C-182.69289116 39.76705994 -182.69289116 39.76705994 -181.23217773 39.76545715 C-180.19673828 39.77429428 -179.16129883 39.78313141 -178.09448242 39.79223633 C-176.99469559 39.79343475 -175.89490875 39.79463318 -174.76179504 39.79586792 C-172.37570028 39.79901613 -169.9896082 39.80632441 -167.60353661 39.8173008 C-163.82447226 39.83215307 -160.04576162 39.83055535 -156.26667786 39.82365417 C-145.52262822 39.8048202 -134.77888774 39.79773409 -124.03491211 39.84545898 C-117.4607653 39.87447518 -110.887262 39.86671598 -104.31307411 39.83844566 C-101.81048812 39.83418779 -99.30784642 39.84265364 -96.80534935 39.8641758 C-93.30059686 39.8930756 -89.79843538 39.87872353 -86.29370117 39.85473633 C-84.74965103 39.88317375 -84.74965103 39.88317375 -83.17440796 39.91218567 C-76.58577836 39.80855522 -73.25376467 38.40919076 -68.59480762 33.70795727 C-68.06852111 33.14433137 -67.54223459 32.58070547 -67 32 C-54.03706845 20.91812476 -18.40737152 -6.13579051 0 0 Z " fill="#FCFCF9" transform="translate(377,362)"/>
<path d="M0 0 C52.49264706 0 52.49264706 0 63.68359375 10.59375 C69.50876989 16.75303849 72.20603039 23.73901966 72.375 32.1875 C72.09552308 39.7141026 70.50174572 47.49825428 65 53 C65 53.99 65 54.98 65 56 C66.6030079 57.62974208 66.6030079 57.62974208 68.6875 59.1875 C74.75085734 64.28501281 78.60114402 70.115539 80 78 C80.99376914 90.24629354 79.29018824 101.34035415 71.19140625 110.9609375 C51.6350808 129.15773231 25.78186951 122 0 122 C0 81.74 0 41.48 0 0 Z " fill="#FDFBF7" transform="translate(885,438)"/>
<path d="M0 0 C6.6 0 13.2 0 20 0 C23.09179129 3.09179129 25.00967953 5.30406688 27.1875 8.9375 C27.69667969 9.77152344 28.20585938 10.60554688 28.73046875 11.46484375 C30.00566478 14.01131214 30.58356496 16.19533506 31 19 C31.66 19 32.32 19 33 19 C34.296875 20.80078125 34.296875 20.80078125 35.75 23.3125 C36.28625 24.23417969 36.8225 25.15585937 37.375 26.10546875 C38.86661517 28.76240826 40.31447589 31.43747048 41.75 34.125 C44.62268862 39.45144349 47.80226866 44.54519377 51.03491211 49.65673828 C54.64943285 55.38992946 58.10709136 61.20558456 61.51269531 67.06494141 C64.25172808 71.76913244 67.10036993 76.39336443 70 81 C71.06890806 82.72521279 72.13253003 84.45372897 73.1875 86.1875 C73.92033203 87.38439453 73.92033203 87.38439453 74.66796875 88.60546875 C76 91 76 91 77.05078125 93.73828125 C77.77857551 96.16081722 77.77857551 96.16081722 80 97 C80 64.99 80 32.98 80 0 C84.95 0 89.9 0 95 0 C95 39.93 95 79.86 95 121 C75 121 75 121 70.421875 116.6953125 C68.9765625 113.98828125 68.9765625 113.98828125 67.75 111.125 C67.26789063 110.18785156 66.78578125 109.25070312 66.2890625 108.28515625 C63 101.75401786 63 101.75401786 63 99 C62.34 99 61.68 99 61 99 C60.75507812 98.46375 60.51015625 97.9275 60.2578125 97.375 C57.16484917 90.8904424 53.50318459 84.88333703 49.66137695 78.82739258 C47.02229954 74.66081776 44.53802968 70.45858647 42.1953125 66.1171875 C40.78431343 63.61796692 39.24546124 61.22279879 37.6875 58.8125 C35.02066459 54.67688915 32.53796575 50.47615086 30.125 46.1875 C25.98968924 38.98203428 21.49250561 31.98834205 17 25 C16.67 56.68 16.34 88.36 16 121 C10.72 121 5.44 121 0 121 C0 81.07 0 41.14 0 0 Z " fill="#FDFBF7" transform="translate(725,439)"/>
<path d="M0 0 C5.94 0 11.88 0 18 0 C19.43897705 3.49939912 20.87622316 6.99949273 22.3125 10.5 C22.71662109 11.48226563 23.12074219 12.46453125 23.53710938 13.4765625 C26.72426306 21.25010806 29.68570659 29.06039933 32.4375 37 C33.76619532 40.74091004 35.06855829 44.37073429 36.9375 47.875 C39.89481467 53.48450957 41.88745592 59.52373031 44.06689453 65.46582031 C45.89954008 70.44302093 47.76436589 75.40821175 49.625 80.375 C49.99713623 81.37273437 50.36927246 82.37046875 50.75268555 83.3984375 C52.48924348 88.04057593 54.25417404 92.66558266 56.109375 97.26171875 C58.20159238 102.45041784 60.0284871 107.70685269 61.8515625 112.99609375 C62.91727911 116.11532985 62.91727911 116.11532985 65 119 C65 119.99 65 120.98 65 122 C59.72 122 54.44 122 49 122 C45.12438326 114.83598118 42.2370944 107.51753431 39.49975586 99.8659668 C37.81704338 95.16624301 35.98344685 90.58372972 34 86 C33.09042591 83.60934952 32.19535138 81.21314745 31.3125 78.8125 C29.01137879 72.60620202 26.60037572 66.451239 24.125 60.3125 C21.23301758 53.12627705 18.39617713 45.92122789 15.625 38.6875 C15.29129395 37.82229736 14.95758789 36.95709473 14.61376953 36.06567383 C12.84304806 31.42037495 11.28349951 26.80339967 10 22 C9.34 22 8.68 22 8 22 C7.9071875 23.3303125 7.9071875 23.3303125 7.8125 24.6875 C6.5296773 33.64919101 1.92508565 42.23858933 -1.55859375 50.52734375 C-6.42306788 62.24690338 -11.05266519 74.06508574 -15.62963867 85.89941406 C-17.11537462 89.73917879 -18.62806022 93.56438451 -20.1875 97.375 C-21.62129943 100.91373903 -22.82930021 104.49085856 -24 108.125 C-25.59924026 113.03695223 -27.55280694 117.45521288 -30 122 C-35.28 122 -40.56 122 -46 122 C-45.19867368 117.19204206 -44.11144438 113.296584 -42.3046875 108.86328125 C-42.03610428 108.18975616 -41.76752106 107.51623108 -41.49079895 106.82229614 C-40.91861576 105.38873211 -40.34384957 103.95619671 -39.76669312 102.52462769 C-38.27368687 98.820752 -36.79953149 95.10938838 -35.32421875 91.3984375 C-35.03462784 90.67126022 -34.74503693 89.94408295 -34.44667053 89.19487 C-31.13375987 80.85653797 -28.02804413 72.44549036 -25 64 C-24.34 64 -23.68 64 -23 64 C-22.89300781 63.16984375 -22.78601563 62.3396875 -22.67578125 61.484375 C-21.91398814 57.55651689 -20.6326758 53.96375538 -19.1875 50.25 C-18.91760254 49.54407715 -18.64770508 48.8381543 -18.36962891 48.11083984 C-16.01317294 41.96887858 -13.57326385 35.86172448 -11.09130859 29.76953125 C-8.49803403 23.35550777 -6.09602152 16.88303747 -3.75 10.375 C-3.38648438 9.37082031 -3.02296875 8.36664063 -2.6484375 7.33203125 C-1.76413364 4.88856005 -0.88185213 2.4443571 0 0 Z " fill="#FCFAF6" transform="translate(1046,438)"/>
<path d="M0 0 C5.94 0 11.88 0 18 0 C18.4125 1.464375 18.825 2.92875 19.25 4.4375 C20.51505636 8.65829551 22.06961002 12.56849763 23.9140625 16.5625 C25.61192975 20.37354017 27.04788442 24.27970604 28.52734375 28.1796875 C29.90425466 31.78319444 31.35025471 35.35709142 32.79858398 38.93237305 C36.09103253 47.06717068 39.21986133 55.24090591 42.1875 63.5 C44.52868961 70.0127435 46.93025548 76.46049504 49.65625 82.82421875 C52.57056402 89.71182718 55.30073766 96.67651007 58.05859375 103.62792969 C58.65337366 105.1266023 59.2495447 106.62472423 59.84765625 108.12207031 C60.57039079 109.93344646 61.2855094 111.74785625 62 113.5625 C62.5878125 115.04943359 62.5878125 115.04943359 63.1875 116.56640625 C64 119 64 119 64 122 C58.39 122 52.78 122 47 122 C41.35984955 106.97080625 41.35984955 106.97080625 38.71102905 99.86169434 C37.70697705 97.16741353 36.7010879 94.47382011 35.69506836 91.78027344 C35.18745828 90.41988496 34.68062996 89.05920455 34.17456055 87.69824219 C31.33750095 80.07097598 28.42027273 72.49538214 25.25268555 64.99755859 C22.89122192 59.34679843 20.67285147 53.63904139 18.4375 47.9375 C17.96892578 46.74833984 17.50035156 45.55917969 17.01757812 44.33398438 C14.23960641 37.25889837 11.55469889 30.15881169 9 23 C2.70105141 36.34003887 -2.59803351 50.11454112 -7.71948242 63.94262695 C-9.64657824 69.12109574 -11.68411209 74.25049835 -13.75 79.375 C-17.02879211 87.51483884 -20.22183228 95.68568151 -23.375 103.875 C-23.80393555 104.98665527 -24.23287109 106.09831055 -24.67480469 107.24365234 C-25.07860352 108.29504395 -25.48240234 109.34643555 -25.8984375 110.4296875 C-26.25599121 111.36022949 -26.61354492 112.29077148 -26.98193359 113.24951172 C-28.05296755 116.14310131 -29.02429644 119.07288931 -30 122 C-35.61 122 -41.22 122 -47 122 C-46.32776912 118.63884559 -45.75232011 116.05642957 -44.546875 112.9609375 C-44.25965576 112.22069336 -43.97243652 111.48044922 -43.67651367 110.71777344 C-43.2178894 109.55810059 -43.2178894 109.55810059 -42.75 108.375 C-42.43716064 107.57610352 -42.12432129 106.77720703 -41.80200195 105.95410156 C-39.71558128 100.674267 -37.49520833 95.48145904 -35.04296875 90.359375 C-33.83206701 87.62010665 -32.93977451 84.84542837 -32 82 C-30.63054351 78.2401167 -29.22119697 74.49533108 -27.8125 70.75 C-27.21139404 69.14970947 -27.21139404 69.14970947 -26.59814453 67.51708984 C-23.40946583 59.04736031 -20.15402062 50.60558533 -16.8515625 42.1796875 C-15.9580829 39.89270761 -15.07194581 37.60298786 -14.1875 35.3125 C-11.25969498 27.73585252 -8.28987434 20.18807957 -5.1328125 12.703125 C-3.36730935 8.4902692 -1.68565302 4.24534834 0 0 Z " fill="#FCFAF6" transform="translate(613,438)"/>
<path d="M0 0 C6.27 0 12.54 0 19 0 C19.7425 1.4025 20.485 2.805 21.25 4.25 C23.17116185 7.7331263 25.13515824 10.23394589 28 13 C28.69313908 14.65583225 29.36474424 16.32110979 30 18 C30.66 18.33 31.32 18.66 32 19 C33.02858276 20.64918018 34.02390912 22.31921912 35 24 C36.79918756 26.58485899 38.63577848 29.13996254 40.4765625 31.6953125 C42 34 42 34 43 37 C44.3191652 38.34735249 45.65462284 39.67882028 47 41 C48.28760691 42.68017 49.53782565 44.38962219 50.75 46.125 C51.67039062 47.42824219 51.67039062 47.42824219 52.609375 48.7578125 C54 51 54 51 54 53 C54.66 53 55.32 53 56 53 C56.2475 52.29875 56.495 51.5975 56.75 50.875 C58.17180238 47.60485452 59.87246288 44.858878 62 42 C62.66 42 63.32 42 64 42 C64.07347656 41.47019531 64.14695312 40.94039063 64.22265625 40.39453125 C65.31273519 37.03664989 67.35021149 34.48503825 69.4375 31.6875 C73.61901483 25.9684287 77.61930884 20.15849772 81.51147461 14.23901367 C82.66625079 12.48711481 83.82996899 10.7417452 85 9 C85.44005371 8.34112793 85.88010742 7.68225586 86.33349609 7.00341797 C87.50334778 5.29850788 88.7463315 3.64425869 90 2 C90.66 2 91.32 2 92 2 C92 1.34 92 0.68 92 0 C97.94 0 103.88 0 110 0 C109 4 109 4 108 6 C107.34 6 106.68 6 106 6 C105.72929688 6.73734375 105.45859375 7.4746875 105.1796875 8.234375 C104.04757562 10.88846511 102.81033427 12.91904016 101.125 15.25 C100.5165625 16.10078125 99.908125 16.9515625 99.28125 17.828125 C98.5284375 18.87484375 97.775625 19.9215625 97 21 C94.86978347 23.99631773 92.74745368 26.99818104 90.625 30 C90.08891113 30.75442383 89.55282227 31.50884766 89.00048828 32.28613281 C88.24614502 33.35105957 88.24614502 33.35105957 87.4765625 34.4375 C86.797146 35.39462891 86.797146 35.39462891 86.10400391 36.37109375 C84.93758238 38.01515919 84.93758238 38.01515919 84 40 C83.34 40 82.68 40 82 40 C81.01 42.97 81.01 42.97 80 46 C79.34 46 78.68 46 78 46 C77.87995605 46.59240479 77.75991211 47.18480957 77.63623047 47.79516602 C76.61812416 51.32337708 74.29006998 54.02722888 72.125 56.9375 C71.22998569 58.15363616 70.33671978 59.37106123 69.4453125 60.58984375 C69.04844238 61.12472412 68.65157227 61.65960449 68.24267578 62.21069336 C65.33877429 66.3919692 63.62953318 69.24511959 63.56762695 74.43286133 C63.54783279 75.49358353 63.52803864 76.55430573 63.50764465 77.64717102 C63.50125473 78.7806749 63.49486481 79.91417877 63.48828125 81.08203125 C63.47033005 82.25134689 63.45237885 83.42066254 63.43388367 84.62541199 C63.37976943 88.35440482 63.34588032 92.08326954 63.3125 95.8125 C63.27932803 98.34311679 63.24483849 100.87371667 63.20898438 103.40429688 C63.1240418 109.60277219 63.05723517 115.80120942 63 122 C57.72 122 52.44 122 47 122 C47.01683838 120.46778809 47.03367676 118.93557617 47.05102539 117.35693359 C47.10207602 111.61255659 47.0931609 105.86950179 47.06713867 100.125 C47.06407719 97.65003275 47.07677065 95.17498947 47.10620117 92.70019531 C47.27414368 77.56704898 47.24181616 66.71292535 37 55 C35.79300395 53.2843852 34.60160641 51.55750139 33.4375 49.8125 C30.27822555 45.34974867 27.04520502 40.9412076 23.796875 36.54296875 C22 34 22 34 20.515625 31.48828125 C18.87125327 28.78862972 16.99167632 26.45383325 15 24 C0 3.8774408 0 3.8774408 0 0 Z " fill="#FCFBF7" transform="translate(436,438)"/>
<path d="M0 0 C4.95 0 9.9 0 15 0 C15 34.65 15 69.3 15 105 C31.5 105 48 105 65 105 C65 110.28 65 115.56 65 121 C43.55 121 22.1 121 0 121 C0 81.07 0 41.14 0 0 Z " fill="#FEFDFA" transform="translate(1158,439)"/>
<path d="M0 0 C4.970625 -0.04125 9.94125 -0.0825 15.0625 -0.125 C17.39453491 -0.15231201 17.39453491 -0.15231201 19.77368164 -0.18017578 C21.01496826 -0.1851709 22.25625488 -0.19016602 23.53515625 -0.1953125 C25.42826538 -0.21102295 25.42826538 -0.21102295 27.35961914 -0.22705078 C31.25897529 0.0161523 34.30328756 0.79622547 38 2 C38 2.66 38 3.32 38 4 C38.556875 4.061875 39.11375 4.12375 39.6875 4.1875 C43.10386271 5.38784365 44.70636608 7.22349578 47 10 C49.19723107 15.54539271 50.24223807 21.3740078 48.27734375 27.109375 C45.32666398 33.46468527 41.54402197 37.67643253 34.95358276 40.3890686 C31.70113435 41.40618592 28.46569928 41.3693557 25.09765625 41.29296875 C24.45598511 41.28994751 23.81431396 41.28692627 23.15319824 41.28381348 C20.78946511 41.26828928 18.42596389 41.22640712 16.0625 41.1875 C10.761875 41.125625 5.46125 41.06375 0 41 C0 27.47 0 13.94 0 0 Z " fill="#FB6D16" transform="translate(901,503)"/>
<path d="M0 0 C6.991875 -0.12375 6.991875 -0.12375 14.125 -0.25 C15.58437988 -0.28641602 17.04375977 -0.32283203 18.54736328 -0.36035156 C19.70993652 -0.3703418 20.87250977 -0.38033203 22.0703125 -0.390625 C23.84559326 -0.4220459 23.84559326 -0.4220459 25.65673828 -0.45410156 C30.81008902 0.24585699 34.6004138 3.0339638 37.8125 7.0625 C41.0680852 11.43428584 41.59780764 14.61973123 41 20 C38.46192198 26.08764101 35.6095523 30.46472431 29.53710938 33.26098633 C24.15418529 34.8289339 18.55273631 34.40126789 13 34.25 C8.71 34.1675 4.42 34.085 0 34 C0 22.78 0 11.56 0 0 Z " fill="#FC6C13" transform="translate(901,454)"/>
<path d="M0 0 C6.6 0 13.2 0 20 0 C21.32 1.32 22.64 2.64 24 4 C23.67 4.66 23.34 5.32 23 6 C21.68 5.34 20.36 4.68 19 4 C19 3.34 19 2.68 19 2 C13.39 1.67 7.78 1.34 2 1 C2 39.94 2 78.88 2 119 C5.96 119 9.92 119 14 119 C14 86.99 14 54.98 14 22 C15.32 22 16.64 22 18 22 C17.67 22.99 17.34 23.98 17 25 C16.90110961 26.33247496 16.85400722 27.66921121 16.84178162 29.0052948 C16.82709839 30.22311897 16.82709839 30.22311897 16.81211853 31.46554565 C16.80636307 32.35243073 16.8006076 33.2393158 16.79467773 34.15307617 C16.77982834 35.55824745 16.77982834 35.55824745 16.76467896 36.99180603 C16.73305911 40.09216778 16.70830454 43.19254486 16.68359375 46.29296875 C16.66302465 48.44102886 16.64202819 50.58908492 16.62062073 52.73713684 C16.56539557 58.39404013 16.5159882 64.05097997 16.46777344 69.70794678 C16.41756169 75.47915912 16.36187392 81.2503183 16.30664062 87.02148438 C16.1990536 98.34761085 16.09760979 109.67378346 16 121 C10.72 121 5.44 121 0 121 C0 81.07 0 41.14 0 0 Z " fill="#FEE0C1" transform="translate(725,439)"/>
<path d="M0 0 C43 0 43 0 51 2 C51 2.33 51 2.66 51 3 C26.745 2.505 26.745 2.505 2 2 C2 40.94 2 79.88 2 120 C30.09192026 120.13021623 30.09192026 120.13021623 58 118 C58 117.34 58 116.68 58 116 C59.32 116.33 60.64 116.66 62 117 C43.5824694 128.91722568 22.21887522 122 0 122 C0 81.74 0 41.48 0 0 Z " fill="#FDDBBA" transform="translate(885,438)"/>
<path d="M0 0 C39.27 0 78.54 0 119 0 C119 0.33 119 0.66 119 1 C118.12562522 1.00496522 118.12562522 1.00496522 117.23358631 1.01003075 C103.04490552 1.09127829 88.85632978 1.18337649 74.66779804 1.28752708 C67.80630532 1.3376325 60.94482442 1.38407561 54.08325195 1.421875 C47.46313575 1.45835455 40.84314303 1.5050693 34.22313499 1.55806351 C31.69577484 1.57661527 29.168387 1.59172032 26.64098549 1.60334396 C23.10467894 1.62019269 19.56866875 1.64922521 16.0324707 1.68115234 C14.46045898 1.68439262 14.46045898 1.68439262 12.85668945 1.68769836 C11.40755913 1.70444359 11.40755913 1.70444359 9.92915344 1.7215271 C9.09308721 1.72705786 8.25702097 1.73258862 7.39561939 1.73828697 C4.53043275 2.05129858 2.53939067 2.61783865 0 4 C-2.87847683 7.62416816 -3.37496047 10.39613196 -3.3742218 14.95849609 C-3.38123611 16.15295349 -3.38825043 17.34741089 -3.39547729 18.57806396 C-3.38783356 19.88003723 -3.38018982 21.1820105 -3.37231445 22.5234375 C-3.3747437 23.91506217 -3.37846432 25.3066851 -3.38337708 26.69830322 C-3.39277153 30.47104329 -3.38337292 34.24352325 -3.37004495 38.01624298 C-3.35871608 41.96704642 -3.36283907 45.91783732 -3.36479187 49.86865234 C-3.36567439 56.50297283 -3.35460323 63.13719105 -3.33618164 69.77148438 C-3.31501464 77.4383299 -3.31150439 85.10502563 -3.3177436 92.77189445 C-3.32344121 100.15143687 -3.31778691 107.53092661 -3.30657005 114.91046143 C-3.30192933 118.04910253 -3.30104794 121.18771138 -3.3031559 124.32635498 C-3.3050416 128.02327343 -3.29691327 131.72003975 -3.2810955 135.41692352 C-3.27483941 137.41858462 -3.27835672 139.42026879 -3.28216553 141.42193604 C-3.27508072 142.61639343 -3.26799591 143.81085083 -3.26069641 145.04150391 C-3.25864354 146.07755768 -3.25659067 147.11361145 -3.25447559 148.18106079 C-2.98799998 151.13292958 -2.23825965 153.32184971 -1 156 C-1.61875 156.12375 -2.2375 156.2475 -2.875 156.375 C-5.19120832 156.87197356 -5.19120832 156.87197356 -7 159 C-6.83748025 158.13920019 -6.6749605 157.27840038 -6.50751591 156.39151573 C-6.01622277 153.10840995 -5.87689139 150.05220266 -5.87974548 146.73574829 C-5.87837082 145.49903381 -5.87699615 144.26231934 -5.87557983 142.98812866 C-5.87911824 141.63092016 -5.88275304 140.27371191 -5.88647461 138.91650391 C-5.8867569 137.47721356 -5.88659793 136.03792307 -5.8860321 134.59863281 C-5.88574575 130.70240547 -5.89161628 126.80620905 -5.89860606 122.90998888 C-5.90486659 118.83406768 -5.90544553 114.75814573 -5.90663147 110.68222046 C-5.90973683 102.96881578 -5.9179395 95.25542531 -5.92798096 87.54202688 C-5.93916679 78.75850179 -5.94465877 69.97497602 -5.94967639 61.19144559 C-5.96012277 43.12762234 -5.97770682 25.06381231 -6 7 C-5.34 7 -4.68 7 -4 7 C-3.67 5.35 -3.34 3.7 -3 2 C-2.01 2 -1.02 2 0 2 C0 1.34 0 0.68 0 0 Z " fill="#EB7324" transform="translate(183,401)"/>
<path d="M0 0 C5.94 0 11.88 0 18 0 C18.33 39.93 18.66 79.86 19 121 C17.515 121.495 17.515 121.495 16 122 C16 82.07 16 42.14 16 1 C11.05 1 6.1 1 1 1 C1 33.01 1 65.02 1 98 C0.01 97.67 -0.98 97.34 -2 97 C-2.6875 94.9375 -2.6875 94.9375 -3 93 C-2.01 93.33 -1.02 93.66 0 94 C0 62.98 0 31.96 0 0 Z " fill="#F37F3C" transform="translate(804,438)"/>
<path d="M0 0 C0.33 0 0.66 0 1 0 C1 39.27 1 78.54 1 119 C21.46 119 41.92 119 63 119 C62.67 115.04 62.34 111.08 62 107 C46.82 106.67 31.64 106.34 16 106 C16 105.67 16 105.34 16 105 C32.17 105 48.34 105 65 105 C65 110.28 65 115.56 65 121 C43.55 121 22.1 121 0 121 C0 81.07 0 41.14 0 0 Z " fill="#FEE6CD" transform="translate(1158,439)"/>
<path d="M0 0 C0.495 0.99 0.495 0.99 1 2 C0.67 2.66 0.34 3.32 0 4 C-0.12258264 6.74528831 -0.18571787 9.46686032 -0.20532227 12.21337891 C-0.21522186 13.0622316 -0.22512146 13.91108429 -0.23532104 14.78565979 C-0.26697917 17.59926538 -0.29171049 20.41288788 -0.31640625 23.2265625 C-0.33697206 25.17427008 -0.35796843 27.12197316 -0.37937927 29.06967163 C-0.43463852 34.2021521 -0.48403079 39.33467311 -0.53222656 44.46722412 C-0.58241348 49.70214455 -0.63811419 54.93700594 -0.69335938 60.171875 C-0.80098806 70.44786626 -0.90242256 80.72390873 -1 91 C-2.98 91.33 -4.96 91.66 -7 92 C-7 91.34 -7 90.68 -7 90 C-45.28 90 -83.56 90 -123 90 C-123 89.67 -123 89.34 -123 89 C-83.4 89 -43.8 89 -3 89 C-3.11881944 60.45816745 -3.11881944 60.45816745 -3.27026367 31.91650391 C-3.28381348 26.40307617 -3.28381348 26.40307617 -3.28633118 23.82406616 C-3.29094558 22.01829819 -3.3015125 20.21253961 -3.31672668 18.40682983 C-3.33859421 15.67551552 -3.34172118 12.94476725 -3.34057617 10.21337891 C-3.3513705 9.40552759 -3.36216482 8.59767628 -3.37328625 7.76534462 C-3.36076355 5.54336548 -3.36076355 5.54336548 -3 2 C-2.01 1.34 -1.02 0.68 0 0 Z " fill="#FDE0C0" transform="translate(321,452)"/>
<path d="M0 0 C2.0625 0.4375 2.0625 0.4375 4 1 C3.195625 1.45375 2.39125 1.9075 1.5625 2.375 C-1.08856572 3.74725665 -1.08856572 3.74725665 -2 6 C-2.09380577 7.92587806 -2.12190817 9.85507309 -2.12025452 11.78323364 C-2.12162918 13.01444946 -2.12300385 14.24566528 -2.12442017 15.51419067 C-2.1208808 16.88592553 -2.11724598 18.25766015 -2.11352539 19.62939453 C-2.11324344 21.06809487 -2.11340141 22.50679535 -2.1139679 23.94549561 C-2.11425556 27.85848805 -2.10836378 31.77145002 -2.10139394 35.68443537 C-2.09515531 39.77105716 -2.0945562 43.8576796 -2.09336853 47.94430542 C-2.09025672 55.68617603 -2.08204535 63.42803256 -2.07201904 71.16989696 C-2.06085325 79.98234931 -2.05534628 88.79480233 -2.05032361 97.60725999 C-2.03986262 115.73818131 -2.02226608 133.86908953 -2 152 C-4.28837781 150.22755444 -4.9496846 149.34001425 -5.38031673 146.42994976 C-5.38274663 145.39335122 -5.38517653 144.35675268 -5.38768005 143.28874207 C-5.39758469 142.09847916 -5.40748932 140.90821625 -5.41769409 139.68188477 C-5.41319244 138.37429199 -5.4086908 137.06669922 -5.40405273 135.71948242 C-5.40975448 134.32977244 -5.41671798 132.94006715 -5.42485046 131.55036926 C-5.44282269 127.77333771 -5.44160548 123.99653797 -5.43590808 120.21947646 C-5.43282086 117.06599287 -5.43890373 113.91255411 -5.44494683 110.75907689 C-5.4590049 103.31745552 -5.45742125 95.87594891 -5.44604492 88.43432617 C-5.43457292 80.760636 -5.44862079 73.08729569 -5.4754414 65.41365165 C-5.49760937 58.8241426 -5.50423301 52.23474328 -5.49836498 45.6451996 C-5.49499552 41.71021645 -5.49740906 37.77545736 -5.51461601 33.8405056 C-5.53009984 30.13774826 -5.52611423 26.43550794 -5.50731087 22.73277092 C-5.50187555 20.73007272 -5.51612975 18.72735125 -5.53100586 16.72470093 C-5.47161681 9.48553204 -5.22160693 5.22160693 0 0 Z " fill="#FEE1C2" transform="translate(184,403)"/>
<path d="M0 0 C0.66 0 1.32 0 2 0 C2.33 1.32 2.66 2.64 3 4 C3.99 3.67 4.98 3.34 6 3 C6 20.82 6 38.64 6 57 C9.96 57 13.92 57 18 57 C17.67 40.17 17.34 23.34 17 6 C18.65 5.01 20.3 4.02 22 3 C21.67 3.99 21.34 4.98 21 6 C20.88446109 7.73277162 20.82354865 9.46943121 20.79467773 11.20581055 C20.77473251 12.26668381 20.75478729 13.32755707 20.73423767 14.420578 C20.71752518 15.56440445 20.70081268 16.7082309 20.68359375 17.88671875 C20.66281265 19.05886429 20.64203156 20.23100983 20.62062073 21.43867493 C20.55516182 25.18822286 20.49625704 28.93784163 20.4375 32.6875 C20.39431132 35.22722091 20.35069692 37.76693462 20.30664062 40.30664062 C20.1994841 46.53768755 20.09820612 52.76880584 20 59 C14.72 59 9.44 59 4 59 C3.98541748 57.42589355 3.97083496 55.85178711 3.95581055 54.22998047 C3.89777403 48.38160657 3.82054047 42.53361551 3.73754883 36.68554688 C3.70432486 34.15598775 3.67628511 31.62635495 3.65356445 29.09667969 C3.61997296 25.45736333 3.56765246 21.81872066 3.51171875 18.1796875 C3.50532883 17.05134491 3.4989389 15.92300232 3.49235535 14.76046753 C3.38552736 9.03621582 3.17583765 4.84324484 0 0 Z " fill="#FEE0C0" transform="translate(479,501)"/>
<path d="M0 0 C0.33 0 0.66 0 1 0 C1 37.95 1 75.9 1 115 C0.67 115 0.34 115 0 115 C-0.495 61.045 -0.495 61.045 -1 6 C-1.99 7.32 -2.98 8.64 -4 10 C-6.97194 12.080358 -8.33815476 13 -12 13 C-12 13.66 -12 14.32 -12 15 C-12.66 14.67 -13.32 14.34 -14 14 C-11.03750349 9.92656729 -7.61640648 6.79433834 -3.8046875 3.55078125 C-1.92288746 1.97318991 -1.92288746 1.97318991 0 0 Z " fill="#FEE4B2" transform="translate(336,437)"/>
<path d="M0 0 C2.86724686 0.57344937 3.8614515 0.8614515 6 3 C8.55905074 3.31524934 8.55905074 3.31524934 11.59341431 3.2784729 C12.78255936 3.28963638 13.97170441 3.30079987 15.19688416 3.31230164 C16.50814774 3.31446182 17.81941132 3.31662201 19.17041016 3.31884766 C20.55985602 3.32814197 21.94929628 3.33830989 23.33872986 3.34928894 C27.11740461 3.37665926 30.89604194 3.39175905 34.67478991 3.40471697 C38.621321 3.42031687 42.56777531 3.44711703 46.51425171 3.4727478 C53.990467 3.51959138 61.46669665 3.55630841 68.94298398 3.58942068 C77.4531939 3.62760274 85.96332681 3.67702309 94.47347188 3.72740483 C111.98225894 3.83080763 129.49109051 3.92004078 147 4 C147 4.33 147 4.66 147 5 C128.57187597 5.07007601 110.14378652 5.12298126 91.71555805 5.15543652 C83.15904092 5.17090649 74.60260658 5.19199848 66.04614258 5.22631836 C58.58846853 5.25621675 51.13085443 5.27557406 43.67312211 5.28226548 C39.72416302 5.28617701 35.77537545 5.29537225 31.82647133 5.31719017 C28.10909816 5.33756234 24.39196707 5.34383237 20.67454338 5.33932304 C18.66086617 5.34054104 16.64721527 5.35667936 14.63360596 5.3732605 C13.43192276 5.36913651 12.23023956 5.36501251 10.99214172 5.36076355 C9.94959386 5.36352893 8.90704599 5.36629431 7.83290577 5.36914349 C4.54796967 4.94109792 2.63358261 3.98551307 0 2 C0 1.34 0 0.68 0 0 Z " fill="#FED0AE" transform="translate(182,555)"/>
<path d="M0 0 C1.32 0 2.64 0 4 0 C4 0.66 4 1.32 4 2 C0.82256362 3.05914546 -1.41391787 3.12320043 -4.75163269 3.12025452 C-5.95056656 3.12162918 -7.14950043 3.12300385 -8.38476562 3.12442017 C-9.70178467 3.12082489 -11.01880371 3.11722961 -12.37573242 3.11352539 C-13.7751719 3.11324335 -15.17461152 3.11340159 -16.5740509 3.1139679 C-20.37541784 3.11425521 -24.17675332 3.10836915 -27.97811294 3.10139394 C-31.94995067 3.0951494 -35.9217891 3.09455573 -39.89363098 3.09336853 C-47.41588949 3.09025847 -54.9381335 3.08204944 -62.46038562 3.07201904 C-71.02377273 3.06084783 -79.58716053 3.05534491 -88.15055311 3.05032361 C-105.76704363 3.03986657 -123.38352065 3.0222734 -141 3 C-141 2.67 -141 2.34 -141 2 C-140.27939927 1.99576806 -139.55879854 1.99153612 -138.81636143 1.98717594 C-121.30774023 1.88401125 -103.79916143 1.77539509 -86.29061222 1.66066074 C-77.82371992 1.6053092 -69.35682341 1.55182409 -60.88989258 1.50268555 C-53.51280261 1.4598673 -46.13574392 1.41359537 -38.75870222 1.36312145 C-34.85019783 1.33650142 -30.94169973 1.31164796 -27.03315926 1.29092598 C-23.35850519 1.27138954 -19.68391074 1.24725495 -16.00930977 1.21950912 C-14.00922779 1.2056286 -12.00911339 1.19669916 -10.00900269 1.18788147 C-8.82964645 1.17809265 -7.65029022 1.16830383 -6.43519592 1.15821838 C-5.40370957 1.15176583 -4.37222322 1.14531328 -3.30947971 1.1386652 C-1.0373864 1.25853841 -1.0373864 1.25853841 0 0 Z " fill="#FEF8EC" transform="translate(329,556)"/>
<path d="M0 0 C2.69362857 1.34681429 2.79561998 2.58232773 3.83984375 5.375 C4.18080078 6.27863281 4.52175781 7.18226563 4.87304688 8.11328125 C5.22431641 9.06589844 5.57558594 10.01851563 5.9375 11 C6.28490234 11.92167969 6.63230469 12.84335937 6.99023438 13.79296875 C9.1227891 19.48781356 11.12289955 25.21606709 13 31 C12.01 30.67 11.02 30.34 10 30 C9.67 29.34 9.34 28.68 9 28 C8.34 28 7.68 28 7 28 C6.01879536 24.94736336 6.01879536 23.05263664 7 20 C6.34 20 5.68 20 5 20 C4.67 20.66 4.34 21.32 4 22 C3.375 20.125 3.375 20.125 3 18 C3.66 17.34 4.32 16.68 5 16 C4.01 14.02 3.02 12.04 2 10 C1.67 10.66 1.34 11.32 1 12 C0.34 12.28875 -0.32 12.5775 -1 12.875 C-3.20005805 13.8234856 -3.20005805 13.8234856 -3.75 16.125 C-3.8325 16.74375 -3.915 17.3625 -4 18 C-4.66 18 -5.32 18 -6 18 C-6 19.65 -6 21.3 -6 23 C-6.66 23 -7.32 23 -8 23 C-7.38696372 17.59491957 -5.55619307 13.07560955 -3.4375 8.125 C-3.10814453 7.34125 -2.77878906 6.5575 -2.43945312 5.75 C-1.63203214 3.83091244 -0.81680231 1.9151135 0 0 Z " fill="#E87A35" transform="translate(621,460)"/>
<path d="M0 0 C39.27 0 78.54 0 119 0 C119 0.33 119 0.66 119 1 C118.12562522 1.00496522 118.12562522 1.00496522 117.23358631 1.01003075 C103.04490552 1.09127829 88.85632978 1.18337649 74.66779804 1.28752708 C67.80630532 1.3376325 60.94482442 1.38407561 54.08325195 1.421875 C47.46313575 1.45835455 40.84314303 1.5050693 34.22313499 1.55806351 C31.69577484 1.57661527 29.168387 1.59172032 26.64098549 1.60334396 C23.10467894 1.62019269 19.56866875 1.64922521 16.0324707 1.68115234 C14.46045898 1.68439262 14.46045898 1.68439262 12.85668945 1.68769836 C11.40755913 1.70444359 11.40755913 1.70444359 9.92915344 1.7215271 C9.09308721 1.72705786 8.25702097 1.73258862 7.39561939 1.73828697 C3.01745154 2.21658648 -0.12277567 3.66847709 -3 7 C-3 5.35 -3 3.7 -3 2 C-2.01 2 -1.02 2 0 2 C0 1.34 0 0.68 0 0 Z " fill="#E57732" transform="translate(183,401)"/>
<path d="M0 0 C5.28 0 10.56 0 16 0 C16 0.33 16 0.66 16 1 C11.05 1 6.1 1 1 1 C1 33.01 1 65.02 1 98 C0.01 97.67 -0.98 97.34 -2 97 C-2.6875 94.9375 -2.6875 94.9375 -3 93 C-2.01 93.33 -1.02 93.66 0 94 C0 62.98 0 31.96 0 0 Z " fill="#E4996A" transform="translate(804,438)"/>
<path d="M0 0 C3.04367695 3.80459619 4.52334445 5.69308797 6 10 C4.68 9.67 3.36 9.34 2 9 C1.67 38.04 1.34 67.08 1 97 C0.67 97 0.34 97 0 97 C0 64.99 0 32.98 0 0 Z " fill="#DE762A" transform="translate(741,462)"/>
<path d="M0 0 C0.33 0 0.66 0 1 0 C1 31.02 1 62.04 1 94 C-3.18199633 91.90900184 -3.99659367 91.00681267 -6 87 C-6 86.34 -6 85.68 -6 85 C-5.34 85 -4.68 85 -4 85 C-4 85.99 -4 86.98 -4 88 C-3.34 88 -2.68 88 -2 88 C-2 88.99 -2 89.98 -2 91 C-1.34 91 -0.68 91 0 91 C0 60.97 0 30.94 0 0 Z " fill="#EA7325" transform="translate(803,438)"/>
<path d="M0 0 C7.0228125 -0.0928125 7.0228125 -0.0928125 14.1875 -0.1875 C15.65598389 -0.21481201 17.12446777 -0.24212402 18.63745117 -0.27026367 C19.80252197 -0.27775635 20.96759277 -0.28524902 22.16796875 -0.29296875 C23.35672607 -0.3086792 24.5454834 -0.32438965 25.77026367 -0.34057617 C29.28064831 0.02959441 31.15535052 0.96676743 34 3 C33.34 3.33 32.68 3.66 32 4 C31.26112549 3.69916504 30.52225098 3.39833008 29.76098633 3.08837891 C26.63122309 1.8546284 24.17976766 1.68511629 20.82421875 1.5859375 C19.25933716 1.53252197 19.25933716 1.53252197 17.6628418 1.47802734 C16.350979 1.44402832 15.03911621 1.4100293 13.6875 1.375 C9.500625 1.25125 5.31375 1.1275 1 1 C1 11.56 1 22.12 1 33 C10.57 32.67 20.14 32.34 30 32 C26.45986775 34.36008817 24.98878045 34.23463644 20.80078125 34.1953125 C19.71192627 34.19031738 18.62307129 34.18532227 17.5012207 34.18017578 C16.11894287 34.16196777 14.73666504 34.14375977 13.3125 34.125 C8.919375 34.08375 4.52625 34.0425 0 34 C0 22.78 0 11.56 0 0 Z " fill="#E37F3C" transform="translate(901,454)"/>
<path d="M0 0 C5.94 0 11.88 0 18 0 C18.4125 1.464375 18.825 2.92875 19.25 4.4375 C20.50745489 8.63293362 22.04756374 12.52292855 23.8828125 16.4921875 C30 30.22377622 30 30.22377622 30 34 C29.01 34 28.02 34 27 34 C26.01 30.37 25.02 26.74 24 23 C22.35 23.33 20.7 23.66 19 24 C19.33 21.69 19.66 19.38 20 17 C20.66 17 21.32 17 22 17 C22 16.34 22 15.68 22 15 C21.34 15 20.68 15 20 15 C19.49038154 13.60764957 18.99275091 12.21090882 18.5 10.8125 C18.2215625 10.03519531 17.943125 9.25789063 17.65625 8.45703125 C17 6 17 6 17 1 C11.39 1 5.78 1 0 1 C0 0.67 0 0.34 0 0 Z " fill="#F7F5E6" transform="translate(613,438)"/>
<path d="M0 0 C0.66 0.33 1.32 0.66 2 1 C0.75794193 4.72617422 -1.1110675 6.39291457 -4 9 C-4.66 9 -5.32 9 -6 9 C-6.33 9.99 -6.66 10.98 -7 12 C-9.4375 14.6875 -9.4375 14.6875 -12 17 C-12.66 17 -13.32 17 -14 17 C-14.268125 17.639375 -14.53625 18.27875 -14.8125 18.9375 C-16 21 -16 21 -19 22 C-18.67 20.68 -18.34 19.36 -18 18 C-17.34 18.33 -16.68 18.66 -16 19 C-16.061875 17.906875 -16.12375 16.81375 -16.1875 15.6875 C-16 12 -16 12 -14.8125 10.125 C-12.5774211 8.73770965 -10.59094622 8.35012787 -8 8 C-7.979375 7.4225 -7.95875 6.845 -7.9375 6.25 C-6.39320987 2.5437037 -3.5632819 1.68787037 0 0 Z " fill="#FBF0E4" transform="translate(304,431)"/>
<path d="M0 0 C0 0.66 0 1.32 0 2 C-0.66 2.66 -1.32 3.32 -2 4 C-2.43570312 4.67933594 -2.87140625 5.35867188 -3.3203125 6.05859375 C-5.44450213 8.51376176 -6.70159091 8.64291552 -9.875 9.0625 C-13.89345569 9.71271659 -16.60472409 10.66574782 -20 13 C-20.66 13 -21.32 13 -22 13 C-22.33 13.99 -22.66 14.98 -23 16 C-24.98 16 -26.96 16 -29 16 C-25.2593727 11.88674316 -21.56162253 9.38296285 -16.625 6.875 C-15.67367188 6.37419922 -15.67367188 6.37419922 -14.703125 5.86328125 C-3.4364277 0 -3.4364277 0 0 0 Z " fill="#FCE4D1" transform="translate(354,368)"/>
<path d="M0 0 C0.87840996 3.09720845 0.99435406 4.90645403 0 8 C1.32 8.33 2.64 8.66 4 9 C4.75 10.6875 4.75 10.6875 5 13 C2.21006234 17.5336487 -1.66316727 20.08097797 -6 23 C-4.80398501 15.00558401 -2.73311633 7.602309 0 0 Z " fill="#FBF8F2" transform="translate(265,456)"/>
<path d="M0 0 C0.72087396 2.50715724 1.03422064 3.83317439 0.5 6.4375 C-0.20834528 9.01017484 -0.20834528 9.01017484 0.75 11.5 C0.87375 12.7375 0.87375 12.7375 1 14 C-1.3125 16.8125 -1.3125 16.8125 -4 19 C-4.66 19 -5.32 19 -6 19 C-5.95359375 19.58007812 -5.9071875 20.16015625 -5.859375 20.7578125 C-5.59198196 26.54496185 -6.15750506 29.59243227 -10 34 C-10.66 34 -11.32 34 -12 34 C-10.3918731 26.53237624 -7.66021447 19.59956629 -4.875 12.5 C-4.40707031 11.29601562 -3.93914062 10.09203125 -3.45703125 8.8515625 C-2.30894865 5.8993501 -1.15650242 2.94892187 0 0 Z " fill="#EC7A2E" transform="translate(1038,502)"/>
<path d="M0 0 C6.27 0 12.54 0 19 0 C20.23697917 2.31119792 21.47395833 4.62239583 22.7109375 6.93359375 C23.83418559 9.13466578 23.83418559 9.13466578 26 10 C26 10.66 26 11.32 26 12 C24.0625 11.1875 24.0625 11.1875 22 10 C21.67 9.01 21.34 8.02 21 7 C20.34 6.67 19.68 6.34 19 6 C19 5.01 19 4.02 19 3 C12.565 3.495 12.565 3.495 6 4 C6 5.98 6 7.96 6 10 C3.61405803 8.80702902 3.16265153 7.85642735 1.875 5.5625 C1.52179688 4.94503906 1.16859375 4.32757813 0.8046875 3.69140625 C0 2 0 2 0 0 Z " fill="#FEECD8" transform="translate(436,438)"/>
<path d="M0 0 C1.65 0 3.3 0 5 0 C4.814375 0.5775 4.62875 1.155 4.4375 1.75 C3.9462472 4.27644296 4.38203972 5.532684 5 8 C5.07766084 9.44098431 5.10796367 10.88508629 5.09765625 12.328125 C5.09443359 13.12734375 5.09121094 13.9265625 5.08789062 14.75 C5.07951172 15.575 5.07113281 16.4 5.0625 17.25 C5.05798828 18.09046875 5.05347656 18.9309375 5.04882812 19.796875 C5.03707961 21.86461401 5.01914522 23.93231624 5 26 C3.68 26 2.36 26 1 26 C0.319375 26.515625 -0.36125 27.03125 -1.0625 27.5625 C-1.701875 28.036875 -2.34125 28.51125 -3 29 C-3.99 28.67 -4.98 28.34 -6 28 C-4.8553125 26.9790625 -4.8553125 26.9790625 -3.6875 25.9375 C0.69359335 21.14886308 2.48136239 16.60400953 2.23828125 10.06640625 C1.83837752 6.59838868 0.95846586 3.3546305 0 0 Z " fill="#FAF0DD" transform="translate(947,512)"/>
<path d="M0 0 C2.03328989 2.03328989 2.59876092 3.17357047 3.5625 5.8125 C3.93568359 6.81216797 3.93568359 6.81216797 4.31640625 7.83203125 C5.05447707 10.17277014 5.51866344 12.59331718 6 15 C0.72 15 -4.56 15 -10 15 C-10.66 13.35 -11.32 11.7 -12 10 C-11.01 10.33 -10.02 10.66 -9 11 C-9 11.33 -9 11.66 -9 12 C-6.36 12.33 -3.72 12.66 -1 13 C-1 11.02 -1 9.04 -1 7 C-0.34 7 0.32 7 1 7 C0.649375 6.21625 0.29875 5.4325 -0.0625 4.625 C-0.371875 3.75875 -0.68125 2.8925 -1 2 C-0.67 1.34 -0.34 0.68 0 0 Z " fill="#FBE8D0" transform="translate(1105,545)"/>
<path d="M0 0 C0.33 0 0.66 0 1 0 C1.33 4.29 1.66 8.58 2 13 C0 12 0 12 -1 9 C-1.66 11.31 -2.32 13.62 -3 16 C-3.66 16 -4.32 16 -5 16 C-5.01417969 16.60585938 -5.02835938 17.21171875 -5.04296875 17.8359375 C-5.44250026 24.85473422 -7.50735351 29.94264262 -11 36 C-11.66 35.67 -12.32 35.34 -13 35 C-8.95947285 23.20461632 -4.76653527 11.52349185 0 0 Z " fill="#EF7E39" transform="translate(596,523)"/>
<path d="M0 0 C2.56679483 2.56679483 3.33348554 5.05010682 4.625 8.4375 C5.07101562 9.59121094 5.51703125 10.74492188 5.9765625 11.93359375 C7 15 7 15 7 18 C1.39 18 -4.22 18 -10 18 C-13.22265625 10.3828125 -13.22265625 10.3828125 -14 8 C-13.67 7.34 -13.34 6.68 -13 6 C-11.35 8.97 -9.7 11.94 -8 15 C-4.7 15 -1.4 15 2 15 C2.33 12.69 2.66 10.38 3 8 C2.34 8 1.68 8 1 8 C0.67 5.36 0.34 2.72 0 0 Z " fill="#FDE1C6" transform="translate(670,542)"/>
<path d="M0 0 C0.66 0 1.32 0 2 0 C-0.11974681 6.55712344 -2.46709904 13.00504645 -4.9375 19.4375 C-5.27201172 20.31470703 -5.60652344 21.19191406 -5.95117188 22.09570312 C-8.24276552 28.08740366 -10.60143078 34.05036465 -13 40 C-14.25977648 35.90176057 -13.41564958 34.12705006 -11.5625 30.25 C-9.27822359 25.10091285 -8.46367652 21.57776422 -9 16 C-8.38125 15.79375 -7.7625 15.5875 -7.125 15.375 C-4.08866054 13.41030976 -3.95875369 11.4515133 -3 8 C-2.4711048 6.53698641 -1.92913617 5.07864094 -1.375 3.625 C-0.92125 2.42875 -0.4675 1.2325 0 0 Z " fill="#FCECD5" transform="translate(619,460)"/>
<path d="M0 0 C0.66 0 1.32 0 2 0 C2.33 1.32 2.66 2.64 3 4 C2.34 4 1.68 4 1 4 C1.33 4.9075 1.66 5.815 2 6.75 C3 10 3 10 3 14 C3.66 14 4.32 14 5 14 C5.12375 14.804375 5.2475 15.60875 5.375 16.4375 C5.58125 17.283125 5.7875 18.12875 6 19 C6.66 19.33 7.32 19.66 8 20 C8.33 19.01 8.66 18.02 9 17 C9.33 19.31 9.66 21.62 10 24 C9.34 24 8.68 24 8 24 C8.33 25.98 8.66 27.96 9 30 C6.7931245 27.7931245 6.18287098 26.24914975 5.08984375 23.3515625 C4.73986328 22.42859375 4.38988281 21.505625 4.02929688 20.5546875 C3.48885742 19.10449219 3.48885742 19.10449219 2.9375 17.625 C2.57333984 16.6659375 2.20917969 15.706875 1.83398438 14.71875 C-1.09209125 6.95193929 -1.09209125 6.95193929 -2 3 C-1.34 3 -0.68 3 0 3 C0 2.01 0 1.02 0 0 Z " fill="#EF762D" transform="translate(660,506)"/>
<path d="M0 0 C0.66 0 1.32 0 2 0 C2.66 1.98 3.32 3.96 4 6 C4.66 5.01 5.32 4.02 6 3 C8.81115003 9.18453008 9.27947184 13.34058028 8 20 C8.66 20 9.32 20 10 20 C10.33 22.97 10.66 25.94 11 29 C8.31417886 24.97126828 6.72911803 20.67135264 4.9375 16.1875 C4.57333984 15.29740234 4.20917969 14.40730469 3.83398438 13.49023438 C2.03326363 9.00008228 0.52123047 4.85145286 0 0 Z " fill="#F46911" transform="translate(647,480)"/>
<path d="M0 0 C0.66 0 1.32 0 2 0 C4.87884807 6.59278183 7.50865808 12.95001999 9 20 C8.34 20 7.68 20 7 20 C4.01316914 17.01316914 3.02065173 15.60922617 2.875 11.3125 C2.91625 10.219375 2.9575 9.12625 3 8 C2.67 9.98 2.34 11.96 2 14 C1.34 14 0.68 14 0 14 C0.04125 13.21625 0.0825 12.4325 0.125 11.625 C0.28728734 8.83883881 0.28728734 8.83883881 -2 7 C-1.34 4.69 -0.68 2.38 0 0 Z " fill="#F27B2F" transform="translate(1054,460)"/>
<path d="M0 0 C0.33 0 0.66 0 1 0 C1.125 3.375 1.125 3.375 1 7 C0.34 7.66 -0.32 8.32 -1 9 C-1.49728779 11.16164398 -1.49728779 11.16164398 -1.8125 13.625 C-2.74696999 18.76832284 -4.53790751 23.0274708 -8 27 C-8.66 27 -9.32 27 -10 27 C-8.42457281 21.34633932 -6.67274388 16.23857801 -4 11 C-2.60126147 7.35618477 -1.29108074 3.68318465 0 0 Z " fill="#FDF6E5" transform="translate(610,445)"/>
<path d="M0 0 C2.875 -0.125 2.875 -0.125 6 0 C6.66 0.66 7.32 1.32 8 2 C8.639375 2.144375 9.27875 2.28875 9.9375 2.4375 C12.37972594 3.10356162 13.36177677 4.11604329 15 6 C14.67 6.66 14.34 7.32 14 8 C13.01 7.67 12.02 7.34 11 7 C11 6.34 11 5.68 11 5 C6.15325271 4.23271212 1.45011891 3.826352 -3.46484375 3.68359375 C-4.48210289 3.6524221 -4.48210289 3.6524221 -5.51991272 3.62062073 C-7.65901831 3.55590691 -9.79823296 3.4966091 -11.9375 3.4375 C-13.39909924 3.39424016 -14.86068797 3.35062366 -16.32226562 3.30664062 C-19.8813984 3.20030749 -23.44064997 3.0988267 -27 3 C-27 2.67 -27 2.34 -27 2 C-18.09 1.67 -9.18 1.34 0 1 C0 0.67 0 0.34 0 0 Z " fill="#FDECD1" transform="translate(928,500)"/>
<path d="M0 0 C0.66 0.66 1.32 1.32 2 2 C1.04637378 4.60597856 0.08732872 7.20973651 -0.875 9.8125 C-1.14441406 10.55048828 -1.41382813 11.28847656 -1.69140625 12.04882812 C-1.95566406 12.76103516 -2.21992187 13.47324219 -2.4921875 14.20703125 C-2.85352783 15.18893433 -2.85352783 15.18893433 -3.22216797 16.19067383 C-4 18 -4 18 -6 21 C-6.12605042 15.45378151 -6.12605042 15.45378151 -5.375 12.75 C-5.25125 12.1725 -5.1275 11.595 -5 11 C-5.66 10.34 -6.32 9.68 -7 9 C-7 8.01 -7 7.02 -7 6 C-6.34 5.67 -5.68 5.34 -5 5 C-4.34 4.01 -3.68 3.02 -3 2 C-2.01 3.485 -2.01 3.485 -1 5 C-0.67 3.35 -0.34 1.7 0 0 Z " fill="#F1721F" transform="translate(591,488)"/>
<path d="M0 0 C0.66 0.66 1.32 1.32 2 2 C1.7578125 4.1640625 1.7578125 4.1640625 1.125 6.625 C0.92132812 7.44226563 0.71765625 8.25953125 0.5078125 9.1015625 C0.25644531 10.04128906 0.25644531 10.04128906 0 11 C-0.61875 11.144375 -1.2375 11.28875 -1.875 11.4375 C-4.03258322 11.93152225 -4.03258322 11.93152225 -6 13 C-6 12.34 -6 11.68 -6 11 C-6.66 11 -7.32 11 -8 11 C-7.60404157 9.51515588 -7.18249294 8.0371169 -6.75 6.5625 C-6.40195313 5.32693359 -6.40195313 5.32693359 -6.046875 4.06640625 C-5 2 -5 2 -2.890625 1.21484375 C-1.95476562 1.10849609 -1.95476562 1.10849609 -1 1 C-1.33 2.98 -1.66 4.96 -2 7 C-1.34 7 -0.68 7 0 7 C0 4.69 0 2.38 0 0 Z " fill="#F16F1A" transform="translate(1056,467)"/>
<path d="M0 0 C6.78099776 -0.02532087 13.56198337 -0.04285457 20.34301758 -0.05493164 C22.6506394 -0.05996551 24.95825803 -0.06679305 27.26586914 -0.07543945 C30.57959786 -0.08754635 33.89328448 -0.09323773 37.20703125 -0.09765625 C38.2414888 -0.10281754 39.27594635 -0.10797882 40.3417511 -0.11329651 C41.3025206 -0.11337204 42.2632901 -0.11344757 43.25317383 -0.11352539 C44.09922684 -0.115746 44.94527985 -0.11796661 45.81697083 -0.12025452 C48 0 48 0 51 1 C51 1.66 51 2.32 51 3 C49.89011719 2.84152588 48.78023437 2.68305176 47.63671875 2.51977539 C42.69704217 1.90468701 37.7855116 1.77601349 32.8125 1.68359375 C31.86938965 1.66281265 30.9262793 1.64203156 29.95458984 1.62062073 C26.96979392 1.55572915 23.98491714 1.49652379 21 1.4375 C18.9648357 1.39425721 16.9296793 1.35064117 14.89453125 1.30664062 C9.92976837 1.20011051 4.96492493 1.09867661 0 1 C0 0.67 0 0.34 0 0 Z " fill="#E6772E" transform="translate(885,437)"/>
<path d="M0 0 C3.4625162 4.00706623 4.93572235 8.77357897 6.66210938 13.6875 C8.27438446 17.99257225 8.68265188 18.84132594 13 21 C12.67 24.3 12.34 27.6 12 31 C9.4781696 27.63755946 8.40474777 25.8052677 7.125 22 C5.30972228 16.75820968 3.1955252 11.70132357 0.953125 6.62890625 C0 4 0 4 0 0 Z " fill="#FCEDD8" transform="translate(632,484)"/>
<path d="M0 0 C0.99 0.33 1.98 0.66 3 1 C2.67 4.96 2.34 8.92 2 13 C0.35 12.67 -1.3 12.34 -3 12 C-3 12.99 -3 13.98 -3 15 C-3.66 15 -4.32 15 -5 15 C-3.78623966 9.67812773 -2.27376292 4.96093728 0 0 Z " fill="#F0731D" transform="translate(612,483)"/>
<path d="M0 0 C0.66 0.99 1.32 1.98 2 3 C1.34 3 0.68 3 0 3 C-0.12375 3.969375 -0.2475 4.93875 -0.375 5.9375 C-0.80662358 8.9163106 -1.3315917 11.86406432 -1.9375 14.8125 C-2.09089844 15.56144531 -2.24429688 16.31039062 -2.40234375 17.08203125 C-3 19 -3 19 -5 21 C-6.87939453 21.22705078 -6.87939453 21.22705078 -9.1328125 21.1953125 C-9.93847656 21.18886719 -10.74414062 21.18242188 -11.57421875 21.17578125 C-12.41597656 21.15902344 -13.25773438 21.14226563 -14.125 21.125 C-15.39923828 21.11146484 -15.39923828 21.11146484 -16.69921875 21.09765625 C-18.79959884 21.07405647 -20.89983444 21.03818483 -23 21 C-23 20.67 -23 20.34 -23 20 C-17.72 20 -12.44 20 -7 20 C-6.01 16.535 -6.01 16.535 -5 13 C-4.01488198 10.6603447 -3.01529541 8.32671865 -2 6 C-1.31163487 4.00736409 -0.63718601 2.00958663 0 0 Z " fill="#EB7D34" transform="translate(1023,540)"/>
<path d="M0 0 C2.08163365 3.12245047 3.32575613 6.07034881 4.6875 9.5625 C5.14511719 10.71878906 5.60273437 11.87507812 6.07421875 13.06640625 C7 16 7 16 6 18 C5.34 17.34 4.68 16.68 4 16 C3.67 16.66 3.34 17.32 3 18 C2.34 18 1.68 18 1 18 C-0.59412284 14.81175432 -0.10174735 11.37103338 -0.0625 7.875 C-0.05798828 7.12089844 -0.05347656 6.36679687 -0.04882812 5.58984375 C-0.03703499 3.72652873 -0.01909942 1.86325445 0 0 Z " fill="#ED7526" transform="translate(648,528)"/>
<path d="M0 0 C1.45166958 5.26518251 1.60655979 10.74216796 0 16 C-1.5625 17.8125 -1.5625 17.8125 -3 19 C-3.99 18.67 -4.98 18.34 -6 18 C-4.60061654 11.70277443 -2.50710309 5.93915684 0 0 Z " fill="#EF7725" transform="translate(605,500)"/>
<path d="M0 0 C0.66 0 1.32 0 2 0 C3 1.66666667 4 3.33333333 5 5 C5.66 5 6.32 5 7 5 C7 14.57 7 24.14 7 34 C6.01 34 5.02 34 4 34 C4.15984375 33.15050781 4.3196875 32.30101562 4.484375 31.42578125 C5.86484184 22.25404324 5.71524474 13.55412447 2 5 C1.608125 3.989375 1.21625 2.97875 0.8125 1.9375 C0.544375 1.298125 0.27625 0.65875 0 0 Z " fill="#E87B35" transform="translate(959,502)"/>
<path d="M0 0 C0.33 0.66 0.66 1.32 1 2 C1.66 2 2.32 2 3 2 C4.796875 4.484375 4.796875 4.484375 6.75 7.75 C7.40484375 8.81734375 8.0596875 9.8846875 8.734375 10.984375 C10 14 10 14 9.203125 16.390625 C8.80609375 16.92171875 8.4090625 17.4528125 8 18 C3.90050429 13.69027374 2.36881356 11.14689273 2 5 C1.34 5 0.68 5 0 5 C0 3.35 0 1.7 0 0 Z " fill="#F0792B" transform="translate(785,536)"/>
<path d="M0 0 C2 1 2 1 3.125 3.3125 C4 6 4 6 4 10 C4.66 10 5.32 10 6 10 C6.33 9.34 6.66 8.68 7 8 C7.33 8.66 7.66 9.32 8 10 C8.66 9.34 9.32 8.68 10 8 C10.33 10.31 10.66 12.62 11 15 C9.02 15.33 7.04 15.66 5 16 C4.1605118 13.89828133 3.32860344 11.79353375 2.5 9.6875 C2.0359375 8.51574219 1.571875 7.34398437 1.09375 6.13671875 C0 3 0 3 0 0 Z " fill="#F07121" transform="translate(669,536)"/>
<path d="M0 0 C5.94 0 11.88 0 18 0 C18.66 1.98 19.32 3.96 20 6 C19.01 5.67 18.02 5.34 17 5 C17 4.01 17 3.02 17 2 C12.05 2.33 7.1 2.66 2 3 C1.67 3.99 1.34 4.98 1 6 C0.34 6 -0.32 6 -1 6 C-0.67 4.02 -0.34 2.04 0 0 Z " fill="#FCDDBD" transform="translate(1046,438)"/>
<path d="M0 0 C0.66 0 1.32 0 2 0 C1.34 2.97 0.68 5.94 0 9 C-0.721875 9.103125 -1.44375 9.20625 -2.1875 9.3125 C-5.09552566 9.87460886 -5.09552566 9.87460886 -7.6875 11.625 C-8.450625 12.07875 -9.21375 12.5325 -10 13 C-10.66 12.67 -11.32 12.34 -12 12 C-11.0479279 10.99403703 -10.08812654 9.99538437 -9.125 9 C-8.32449219 8.1646875 -8.32449219 8.1646875 -7.5078125 7.3125 C-6 6 -6 6 -4 6 C-3.566875 5.071875 -3.566875 5.071875 -3.125 4.125 C-2 2 -2 2 0 0 Z " fill="#F3772D" transform="translate(320,418)"/>
<path d="M0 0 C1 3 1 3 -0.1875 5.6875 C-0.785625 6.780625 -1.38375 7.87375 -2 9 C-2.73440772 10.45570101 -3.46350928 11.91409015 -4.1875 13.375 C-4.79166667 14.58333333 -5.39583333 15.79166667 -6 17 C-6.99 17 -7.98 17 -9 17 C-9.33 19.64 -9.66 22.28 -10 25 C-10.99 25.33 -11.98 25.66 -13 26 C-11.51737109 19.6533078 -9.62821228 15.01015964 -5.49609375 9.9609375 C-3.13918666 6.87172769 -1.63262096 3.51641437 0 0 Z " fill="#FCEDD6" transform="translate(279,430)"/>
<path d="M0 0 C0 0.66 0 1.32 0 2 C-1.6396721 3.36639342 -3.31110128 4.6949419 -5 6 C-6.35147138 7.31494512 -7.69112542 8.64264858 -9 10 C-9.66 9.34 -10.32 8.68 -11 8 C-10.4375 4.625 -10.4375 4.625 -9 1 C-3.07692308 -1.53846154 -3.07692308 -1.53846154 0 0 Z " fill="#FAF3E7" transform="translate(322,416)"/>
<path d="M0 0 C-1.65 1.98 -3.3 3.96 -5 6 C-5.70125 5.443125 -6.4025 4.88625 -7.125 4.3125 C-8.548125 3.6628125 -8.548125 3.6628125 -10 3 C-12.03412421 3.92862192 -14.03247172 4.93753473 -16 6 C-19.875 6.1875 -19.875 6.1875 -23 6 C-19.31193524 3.54129016 -15.72194714 2.54948117 -11.5 1.3125 C-10.34177734 0.95575195 -10.34177734 0.95575195 -9.16015625 0.59179688 C-8.41636719 0.37201172 -7.67257812 0.15222656 -6.90625 -0.07421875 C-6.22884766 -0.27619873 -5.55144531 -0.47817871 -4.85351562 -0.6862793 C-3 -1 -3 -1 0 0 Z " fill="#FCE4C5" transform="translate(377,362)"/>
<path d="M0 0 C5.94 0 11.88 0 18 0 C17 4 17 4 16 6 C15.34 6 14.68 6 14 6 C13.566875 7.2065625 13.566875 7.2065625 13.125 8.4375 C12 11 12 11 10 12 C10.33 10.02 10.66 8.04 11 6 C11.66 6 12.32 6 13 6 C12.67 4.68 12.34 3.36 12 2 C8.04 1.67 4.08 1.34 0 1 C0 0.67 0 0.34 0 0 Z " fill="#FAD4B9" transform="translate(528,438)"/>
<path d="M0 0 C1.29519273 3.8855782 0.93404674 7.41507307 0.6875 11.4375 C0.63432617 12.5831543 0.63432617 12.5831543 0.58007812 13.75195312 C0.35603087 17.59419633 0.16473228 20.68663427 -2 24 C-2.66 24 -3.32 24 -4 24 C-3.505 22.7315625 -3.505 22.7315625 -3 21.4375 C-1.25623929 15.44332257 -1.74597532 10.77593824 -4 5 C-3.34 5 -2.68 5 -2 5 C-1.7834375 4.0409375 -1.7834375 4.0409375 -1.5625 3.0625 C-1 1 -1 1 0 0 Z " fill="#FBF1DE" transform="translate(943,456)"/>
<path d="M0 0 C2.07217485 3.10826228 3.28425355 6.01876359 4.625 9.5 C5.07101562 10.6446875 5.51703125 11.789375 5.9765625 12.96875 C7 16 7 16 7 19 C6.34 18.34 5.68 17.68 5 17 C5 16.01 5 15.02 5 14 C4.01 14 3.02 14 2 14 C2 14.66 2 15.32 2 16 C1.34 16 0.68 16 0 16 C0 10.72 0 5.44 0 0 Z " fill="#EF7224" transform="translate(1066,488)"/>
<path d="M0 0 C5.94 0 11.88 0 18 0 C18.433125 1.52625 18.86625 3.0525 19.3125 4.625 C20.25443696 7.81136091 21.232757 10.45720125 22.75 13.4375 C24 16 24 16 23 19 C22.67 17.68 22.34 16.36 22 15 C21.34 15 20.68 15 20 15 C19.49038154 13.60764957 18.99275091 12.21090882 18.5 10.8125 C18.2215625 10.03519531 17.943125 9.25789063 17.65625 8.45703125 C17 6 17 6 17 1 C11.39 1 5.78 1 0 1 C0 0.67 0 0.34 0 0 Z " fill="#FBD2B1" transform="translate(613,438)"/>
<path d="M0 0 C2.96926381 3.55391974 5.42318536 7.18517995 7.75 11.1875 C8.67039062 12.75564453 8.67039062 12.75564453 9.609375 14.35546875 C11 17 11 17 11 19 C9.02 19 7.04 19 5 19 C5.226875 18.2575 5.45375 17.515 5.6875 16.75 C6.3110679 13.96211139 6.3110679 13.96211139 4.5625 11.9375 C4.046875 11.298125 3.53125 10.65875 3 10 C3 8.68 3 7.36 3 6 C2.34 6 1.68 6 1 6 C0.67 4.02 0.34 2.04 0 0 Z " fill="#FCE4C7" transform="translate(773,485)"/>
<path d="M0 0 C3.04367695 3.80459619 4.52334445 5.69308797 6 10 C4.68 9.67 3.36 9.34 2 9 C1.67 15.93 1.34 22.86 1 30 C0.67 30 0.34 30 0 30 C0 20.1 0 10.2 0 0 Z " fill="#DE762A" transform="translate(741,462)"/>
<path d="M0 0 C2 3 2 3 2 5 C1.01 5 0.02 5 -1 5 C-1.598125 5.78375 -2.19625 6.5675 -2.8125 7.375 C-5.40231986 10.48278383 -7.079643 11.18325896 -11 12 C-13.1875 11.5390625 -13.1875 11.5390625 -15 11 C-13.37829621 9.99466333 -11.75252763 8.99588093 -10.125 8 C-8.76761719 7.1646875 -8.76761719 7.1646875 -7.3828125 6.3125 C-5 5 -5 5 -3 5 C-2.690625 4.360625 -2.38125 3.72125 -2.0625 3.0625 C-1 1 -1 1 0 0 Z " fill="#ED7A33" transform="translate(957,546)"/>
<path d="M0 0 C0.66 0 1.32 0 2 0 C2.375 2.1875 2.375 2.1875 2 5 C-0.6875 7.5 -0.6875 7.5 -2.33203125 8.73046875 C-4.79209781 10.60288475 -6.848194 12.78490559 -9 15 C-9.33 12.69 -9.66 10.38 -10 8 C-9.01 8.495 -9.01 8.495 -8 9 C-8 9.66 -8 10.32 -8 11 C-7.34 11 -6.68 11 -6 11 C-5.7525 10.29875 -5.505 9.5975 -5.25 8.875 C-3.82819762 5.60485452 -2.12753712 2.858878 0 0 Z " fill="#FBE5D2" transform="translate(498,480)"/>
<path d="M0 0 C2.95973115 2.80361347 5.28556131 5.68529564 7.5625 9.0625 C9.9158539 12.55772094 9.9158539 12.55772094 12.71484375 15.68359375 C14 17 14 17 14 19 C10.61537372 18.39560245 8.44634949 17.44634949 6 15 C5.2986716 12.67684969 4.63514826 10.34210921 4 8 C2.70211044 5.97681922 1.37535339 3.97133986 0 2 C0 1.34 0 0.68 0 0 Z " fill="#EA8039" transform="translate(444,452)"/>
<path d="M0 0 C1.33332095 2.6666419 0.67102033 4.16680303 0 7 C-0.99 7 -1.98 7 -3 7 C-3 9.64 -3 12.28 -3 15 C-3.99 14.67 -4.98 14.34 -6 14 C-6 13.01 -6 12.02 -6 11 C-6.66 10.67 -7.32 10.34 -8 10 C-8 9.34 -8 8.68 -8 8 C-7.34 8 -6.68 8 -6 8 C-5.7525 7.4225 -5.505 6.845 -5.25 6.25 C-3.83316683 3.6997003 -2.12372463 1.98214299 0 0 Z " fill="#F77121" transform="translate(330,408)"/>
<path d="M0 0 C1.32 0 2.64 0 4 0 C4.86355778 1.95421035 5.71559934 3.91351347 6.5625 5.875 C7.03816406 6.96554687 7.51382813 8.05609375 8.00390625 9.1796875 C8.33261719 10.11039062 8.66132812 11.04109375 9 12 C8.67 12.66 8.34 13.32 8 14 C7.54625 13.505 7.0925 13.01 6.625 12.5 C5.12364481 10.77390663 5.12364481 10.77390663 3 11 C2.01879536 7.94736336 2.01879536 6.05263664 3 3 C2.34 3 1.68 3 1 3 C0.67 3.66 0.34 4.32 0 5 C-0.5625 3.0625 -0.5625 3.0625 -1 1 C-0.67 0.67 -0.34 0.34 0 0 Z " fill="#EE772A" transform="translate(625,477)"/>
<path d="M0 0 C0 0.66 0 1.32 0 2 C-0.66 2.66 -1.32 3.32 -2 4 C-2.4125 4.70125 -2.825 5.4025 -3.25 6.125 C-5 8 -5 8 -8.1875 8.25 C-9.115625 8.1675 -10.04375 8.085 -11 8 C-11 7.01 -11 6.02 -11 5 C-8.75 3.4375 -8.75 3.4375 -6 2 C-5.278125 1.608125 -4.55625 1.21625 -3.8125 0.8125 C-2 0 -2 0 0 0 Z " fill="#FAEFDB" transform="translate(354,368)"/>
<path d="M0 0 C0.78347427 2.28937287 1.12854612 3.58765077 0.3984375 5.9296875 C-1.97850737 10.44769722 -4.47388706 14.28830217 -8 18 C-8.66 18 -9.32 18 -10 18 C-10 16.68 -10 15.36 -10 14 C-9.34 14 -8.68 14 -8 14 C-7.67 13.01 -7.34 12.02 -7 11 C-6.01 10.67 -5.02 10.34 -4 10 C-3.01296048 7.93502613 -3.01296048 7.93502613 -2.375 5.5 C-1.07174888 1.07174888 -1.07174888 1.07174888 0 0 Z " fill="#FAEDD8" transform="translate(962,533)"/>
<path d="M0 0 C6.27 0 12.54 0 19 0 C18.67 0.66 18.34 1.32 18 2 C13.71 2 9.42 2 5 2 C5.33 3.65 5.66 5.3 6 7 C5.67 7.99 5.34 8.98 5 10 C4.16121545 8.71186658 3.32913217 7.41936744 2.5 6.125 C2.0359375 5.40570313 1.571875 4.68640625 1.09375 3.9453125 C0 2 0 2 0 0 Z " fill="#FACEAC" transform="translate(436,438)"/>
<path d="M0 0 C0.66666667 2.66666667 1.33333333 5.33333333 2 8 C2.66 8 3.32 8 4 8 C4 8.66 4 9.32 4 10 C6.97 10 9.94 10 13 10 C13 10.33 13 10.66 13 11 C7.72 11 2.44 11 -3 11 C-2.2817669 6.6906014 -1.69268808 3.83675965 0 0 Z " fill="#FDDEC2" transform="translate(1003,549)"/>
<path d="M0 0 C1.14680101 3.44040303 0.87124738 4.00270384 -0.43359375 7.23046875 C-0.75263672 8.03291016 -1.07167969 8.83535156 -1.40039062 9.66210938 C-1.74263672 10.49548828 -2.08488281 11.32886719 -2.4375 12.1875 C-2.77587891 13.03248047 -3.11425781 13.87746094 -3.46289062 14.74804688 C-4.30025552 16.83556216 -5.14620197 18.91916409 -6 21 C-6.92382231 17.55056671 -7.30543938 14.58891277 -7 11 C-5.625 9.125 -5.625 9.125 -4 8 C-3.34 8 -2.68 8 -2 8 C-2.061875 6.8553125 -2.061875 6.8553125 -2.125 5.6875 C-2 3 -2 3 0 0 Z " fill="#FDEED8" transform="translate(591,533)"/>
<path d="M0 0 C2.61943903 2.61943903 3.44197838 5.57473973 4.625 9 C4.85445312 9.64195312 5.08390625 10.28390625 5.3203125 10.9453125 C7 15.72442336 7 15.72442336 7 18 C6.34 18 5.68 18 5 18 C4.34 15.36 3.68 12.72 3 10 C1.68 10 0.36 10 -1 10 C-1.33 8.35 -1.66 6.7 -2 5 C-1.34 4.67 -0.68 4.34 0 4 C0 2.68 0 1.36 0 0 Z " fill="#EE7E36" transform="translate(1074,508)"/>
<path d="M0 0 C-0.03480469 1.10408203 -0.03480469 1.10408203 -0.0703125 2.23046875 C-0.08835937 3.20628906 -0.10640625 4.18210937 -0.125 5.1875 C-0.15980469 6.63189453 -0.15980469 6.63189453 -0.1953125 8.10546875 C-0.14723785 11.03029169 -0.14723785 11.03029169 1.0703125 13.67578125 C2 16 2 16 1 19 C0.18167278 17.10667466 -0.62942268 15.21022267 -1.4375 13.3125 C-1.88996094 12.25675781 -2.34242188 11.20101563 -2.80859375 10.11328125 C-3.85447455 7.38027471 -4.53520748 4.87957663 -5 2 C-1.125 0 -1.125 0 0 0 Z " fill="#FDEFDC" transform="translate(630,465)"/>
<path d="M0 0 C0.58984375 1.859375 0.58984375 1.859375 1 4 C-0.4375 6.25 -0.4375 6.25 -2 8 C-1.67 8.66 -1.34 9.32 -1 10 C-2.27514492 12.55028983 -3.40341297 12.93081711 -6 14 C-6.99 14 -7.98 14 -9 14 C-7.45158425 10.65291949 -5.50894136 7.75332488 -3.375 4.75 C-2.74335937 3.85796875 -2.11171875 2.9659375 -1.4609375 2.046875 C-0.73777344 1.03367187 -0.73777344 1.03367187 0 0 Z " fill="#EE7426" transform="translate(537,452)"/>
<path d="M0 0 C2.62027436 2.62027436 3.48198873 5.57923297 4.6875 9 C4.92533203 9.64195312 5.16316406 10.28390625 5.40820312 10.9453125 C6.00166907 12.60910558 6.50730517 14.30363299 7 16 C6.67 16.66 6.34 17.32 6 18 C3.3144406 15.3144406 2.93950026 12.62378672 2 9 C1.01 9.66 0.02 10.32 -1 11 C-0.67 7.37 -0.34 3.74 0 0 Z " fill="#FCEBD5" transform="translate(649,488)"/>
<path d="M0 0 C0.66 0 1.32 0 2 0 C2.27714844 0.62648438 2.55429688 1.25296875 2.83984375 1.8984375 C3.20207031 2.71570313 3.56429688 3.53296875 3.9375 4.375 C4.29714844 5.18710937 4.65679688 5.99921875 5.02734375 6.8359375 C5.6569903 8.23683785 6.31312642 9.62625284 7 11 C7.66 10.67 8.32 10.34 9 10 C9.98120464 13.05263664 9.98120464 14.94736336 9 18 C8.34 18 7.68 18 7 18 C3.85180745 12.13784836 1.73624758 6.4188547 0 0 Z " fill="#EE772C" transform="translate(1077,472)"/>
<path d="M0 0 C0.66 0 1.32 0 2 0 C0.05797655 8.02071473 -2.66839495 15.45450713 -6 23 C-7.25686099 19.22941703 -6.82745636 16.86146303 -6 13 C-5.52433594 12.53980469 -5.04867188 12.07960938 -4.55859375 11.60546875 C-2.52300596 9.50866028 -2.07654977 7.61401583 -1.3125 4.8125 C-1.06113281 3.91144531 -0.80976562 3.01039063 -0.55078125 2.08203125 C-0.36902344 1.39496094 -0.18726563 0.70789063 0 0 Z " fill="#FDE7CE" transform="translate(1031,515)"/>
<path d="M0 0 C-0.82105953 3.96845438 -2.01141668 6.31559616 -5.4375 8.6875 C-8 10 -8 10 -11 10 C-11 10.66 -11 11.32 -11 12 C-11.66 11.67 -12.32 11.34 -13 11 C-4.91176471 0 -4.91176471 0 0 0 Z " fill="#FBEEDF" transform="translate(335,440)"/>
<path d="M0 0 C0.33 0 0.66 0 1 0 C0.64134677 7.41216681 -1.35920537 12.56479472 -5 19 C-5.66 18.67 -6.32 18.34 -7 18 C-6.02216461 15.37449704 -5.0427937 12.74958495 -4.0625 10.125 C-3.78470703 9.37863281 -3.50691406 8.63226562 -3.22070312 7.86328125 C-1.11328125 2.2265625 -1.11328125 2.2265625 0 0 Z " fill="#EA7831" transform="translate(590,540)"/>
<path d="M0 0 C1.32 0.33 2.64 0.66 4 1 C3.195625 1.45375 2.39125 1.9075 1.5625 2.375 C-1.08856572 3.74725665 -1.08856572 3.74725665 -2 6 C-2.15266612 7.73868744 -2.24932596 9.48247501 -2.31640625 11.2265625 C-2.35830078 12.2578125 -2.40019531 13.2890625 -2.44335938 14.3515625 C-2.48267578 15.43179687 -2.52199219 16.51203125 -2.5625 17.625 C-2.60568359 18.71296875 -2.64886719 19.8009375 -2.69335938 20.921875 C-2.7996453 23.6144517 -2.90168057 26.30712253 -3 29 C-3.33 29 -3.66 29 -4 29 C-4.11643304 25.10441912 -4.18732909 21.20928742 -4.25 17.3125 C-4.28351563 16.20970703 -4.31703125 15.10691406 -4.3515625 13.97070312 C-4.45112665 5.7317694 -4.45112665 5.7317694 -1.984375 1.73046875 C-1.32953125 1.15941406 -0.6746875 0.58835937 0 0 Z " fill="#FFF6E6" transform="translate(184,403)"/>
<path d="M0 0 C2 1.75 2 1.75 4 4 C4 5.32 4 6.64 4 8 C4.66 8 5.32 8 6 8 C6.66 9.98 7.32 11.96 8 14 C7.34 14 6.68 14 6 14 C6 13.01 6 12.02 6 11 C4.68 11 3.36 11 2 11 C2 9.68 2 8.36 2 7 C1.34 7 0.68 7 0 7 C0 4.69 0 2.38 0 0 Z " fill="#FBE9D2" transform="translate(752,450)"/>
<path d="M0 0 C2.47186455 2.96346786 3.66248361 5.54041689 4.6875 9.25 C4.93886719 10.14203125 5.19023438 11.0340625 5.44921875 11.953125 C5.72185547 12.96632813 5.72185547 12.96632813 6 14 C5.34 13.67 4.68 13.34 4 13 C3.01 14.32 2.02 15.64 1 17 C1 13.7 1 10.4 1 7 C0.67 7 0.34 7 0 7 C0 4.69 0 2.38 0 0 Z " fill="#ED7730" transform="translate(1081,527)"/>
<path d="M0 0 C0.33 0 0.66 0 1 0 C1.05411124 2.41696872 1.09372278 4.83271787 1.125 7.25 C1.14175781 7.93191406 1.15851562 8.61382812 1.17578125 9.31640625 C1.21213482 13.0608235 1.07944349 15.82352727 -1 19 C-1.33 19 -1.66 19 -2 19 C-1.85982174 16.02046641 -1.71313658 13.04150696 -1.5625 10.0625 C-1.52318359 9.21236328 -1.48386719 8.36222656 -1.44335938 7.48632812 C-1.40146484 6.67744141 -1.35957031 5.86855469 -1.31640625 5.03515625 C-1.27974854 4.2862915 -1.24309082 3.53742676 -1.20532227 2.76586914 C-1 1 -1 1 0 0 Z " fill="#EB772E" transform="translate(958,463)"/>
<path d="M0 0 C0.66 0 1.32 0 2 0 C0.50865808 7.04998001 -2.12115193 13.40721817 -5 20 C-5.33 20 -5.66 20 -6 20 C-6.19294408 15.17639811 -5.75747614 11.50353262 -4 7 C-3.34 7 -2.68 7 -2 7 C-1.34 4.69 -0.68 2.38 0 0 Z " fill="#EC7A31" transform="translate(599,468)"/>
<path d="M0 0 C1.9018055 3.29646287 2.41366257 6.26209888 3 10 C3.37125 11.216875 3.7425 12.43375 4.125 13.6875 C5 17 5 17 4 20 C3.2066145 17.95900065 2.4153697 15.9171691 1.625 13.875 C1.18414063 12.73804688 0.74328125 11.60109375 0.2890625 10.4296875 C-0.88454703 7.30717487 -1.96842774 4.17184369 -3 1 C-2.01 0.67 -1.02 0.34 0 0 Z " fill="#FBEBD4" transform="translate(1059,460)"/>
<path d="M0 0 C6.27 0 12.54 0 19 0 C19 0.33 19 0.66 19 1 C13.06 1 7.12 1 1 1 C1 1.66 1 2.32 1 3 C-0.3125 4.4375 -0.3125 4.4375 -2 6 C-2.556875 6.556875 -3.11375 7.11375 -3.6875 7.6875 C-4.120625 8.120625 -4.55375 8.55375 -5 9 C-5.33 8.01 -5.66 7.02 -6 6 C-4.75 3.8125 -4.75 3.8125 -3 2 C-2.01 2 -1.02 2 0 2 C0 1.34 0 0.68 0 0 Z " fill="#ED782B" transform="translate(527,437)"/>
<path d="M0 0 C0 0.66 0 1.32 0 2 C-0.66 2 -1.32 2 -2 2 C-2 2.66 -2 3.32 -2 4 C-3.875 6.125 -3.875 6.125 -6 8 C-6.66 8 -7.32 8 -8 8 C-8.33 6.68 -8.66 5.36 -9 4 C-8.34 4 -7.68 4 -7 4 C-7 2.68 -7 1.36 -7 0 C-2.25 -1.125 -2.25 -1.125 0 0 Z " fill="#FDEDDA" transform="translate(354,384)"/>
<path d="M0 0 C0.66 0 1.32 0 2 0 C2 0.66 2 1.32 2 2 C3.32 1.34 4.64 0.68 6 0 C7 1 7 1 7.1875 4.4375 C7 8 7 8 5 10 C4.1641146 8.52227402 3.33135744 7.04277811 2.5 5.5625 C2.0359375 4.73878906 1.571875 3.91507813 1.09375 3.06640625 C0 1 0 1 0 0 Z " fill="#FAF1E7" transform="translate(777,520)"/>
<path d="M0 0 C3 1 3 1 4.125 3.25 C5 6 5 6 5.45703125 8.33984375 C6.01216781 11.05961352 6.7488847 13.65940663 7.5625 16.3125 C7.83191406 17.19550781 8.10132813 18.07851563 8.37890625 18.98828125 C8.58386719 19.65214844 8.78882813 20.31601562 9 21 C8.34 21 7.68 21 7 21 C5.82807565 17.87694627 4.66336124 14.75125261 3.5 11.625 C3.16613281 10.73554688 2.83226562 9.84609375 2.48828125 8.9296875 C2.01455078 7.65351563 2.01455078 7.65351563 1.53125 6.3515625 C1.09135742 5.17327881 1.09135742 5.17327881 0.64257812 3.97119141 C0 2 0 2 0 0 Z " fill="#FDE7CF" transform="translate(1065,483)"/>
<path d="M0 0 C0.33 0.66 0.66 1.32 1 2 C0.04956626 3.33897583 -0.91059147 4.67105427 -1.875 6 C-2.40867187 6.7425 -2.94234375 7.485 -3.4921875 8.25 C-3.98976563 8.8275 -4.48734375 9.405 -5 10 C-5.66 10 -6.32 10 -7 10 C-7 10.66 -7 11.32 -7 12 C-8.65 12.66 -10.3 13.32 -12 14 C-12 13.34 -12 12.68 -12 12 C-11.34 12 -10.68 12 -10 12 C-9.79375 11.443125 -9.5875 10.88625 -9.375 10.3125 C-7.48959912 7.14159851 -4.84640641 5.31270521 -2 3 C-1.34 2.01 -0.68 1.02 0 0 Z " fill="#EE8044" transform="translate(374,364)"/>
<path d="M0 0 C3.3 0.33 6.6 0.66 10 1 C6.6325319 2.68373405 3.84984234 3.68218415 0.25 4.625 C-0.73484375 4.88539063 -1.7196875 5.14578125 -2.734375 5.4140625 C-3.85585938 5.70410156 -3.85585938 5.70410156 -5 6 C-4.67 4.68 -4.34 3.36 -4 2 C-4.66 1.67 -5.32 1.34 -6 1 C-0.25 1.875 -0.25 1.875 2 3 C2 2.34 2 1.68 2 1 C1.34 0.67 0.68 0.34 0 0 Z " fill="#EB752A" transform="translate(360,361)"/>
<path d="M0 0 C0.66 0.33 1.32 0.66 2 1 C1.5 3.3125 1.5 3.3125 0 6 C-2.55973271 7.34188631 -5.25123827 8.13082633 -8 9 C-9.3465266 9.63960014 -10.68922893 10.289999 -12 11 C-8.68542782 6.30435607 -4.63720719 3.27530896 0 0 Z " fill="#FBDEC6" transform="translate(320,386)"/>
<path d="M0 0 C0.66 0.66 1.32 1.32 2 2 C1.04832179 4.62758953 0.08902879 7.25194493 -0.875 9.875 C-1.14441406 10.62136719 -1.41382813 11.36773438 -1.69140625 12.13671875 C-3.7734375 17.7734375 -3.7734375 17.7734375 -6 20 C-5.25 13.375 -5.25 13.375 -3 10 C-2.58992103 8.47225481 -2.23847459 6.9279277 -1.9375 5.375 C-1.10060362 1.10060362 -1.10060362 1.10060362 0 0 Z " fill="#EA7A30" transform="translate(1017,508)"/>
<path d="M0 0 C0.66 1.32 1.32 2.64 2 4 C0.88625 4.86625 0.88625 4.86625 -0.25 5.75 C-2.66087643 7.72253526 -4.84042701 9.76044282 -7 12 C-7.33 11.01 -7.66 10.02 -8 9 C-7.01 9 -6.02 9 -5 9 C-5.33 7.68 -5.66 6.36 -6 5 C-4.68 4.01 -3.36 3.02 -2 2 C-1.34 2.33 -0.68 2.66 0 3 C0 2.01 0 1.02 0 0 Z " fill="#FBF1E1" transform="translate(336,398)"/>
<path d="M0 0 C0.99 0 1.98 0 3 0 C1.25192871 5.46737191 -0.65794081 10.75824848 -3 16 C-3.33 16 -3.66 16 -4 16 C-4.33 13.69 -4.66 11.38 -5 9 C-4.01 8.67 -3.02 8.34 -2 8 C-1.19787372 6.12612784 -1.19787372 6.12612784 -0.8125 3.9375 C-0.65394531 3.20402344 -0.49539063 2.47054687 -0.33203125 1.71484375 C-0.22246094 1.14894531 -0.11289062 0.58304688 0 0 Z " fill="#EA7325" transform="translate(575,528)"/>
<path d="M0 0 C0.66 0.33 1.32 0.66 2 1 C1.71640113 2.4391134 1.42278601 3.87625518 1.125 5.3125 C0.96257813 6.11300781 0.80015625 6.91351562 0.6328125 7.73828125 C0 10 0 10 -2 13 C-2.70812814 15.32108669 -3.38024152 17.65377147 -4 20 C-5.28080392 16.15758823 -4.30805584 14.77882797 -3 11 C-2.62468554 8.67305036 -2.28082798 6.34023315 -2 4 C-1.34 4 -0.68 4 0 4 C0 2.68 0 1.36 0 0 Z " fill="#EC8743" transform="translate(583,508)"/>
<path d="M0 0 C3.70668305 3.46754221 4.91463111 5.37799102 5.1875 10.5625 C5 14 5 14 3 16 C2.86722656 15.09636719 2.73445312 14.19273437 2.59765625 13.26171875 C2.42105469 12.08222656 2.24445312 10.90273438 2.0625 9.6875 C1.88847656 8.51574219 1.71445312 7.34398437 1.53515625 6.13671875 C1.07906969 2.98358597 1.07906969 2.98358597 0 0 Z " fill="#EA8849" transform="translate(937,460)"/>
<path d="M0 0 C0.66 0 1.32 0 2 0 C1.41164143 4.41599467 0.29784101 8.15109365 -1.4375 12.25 C-1.86933594 13.28640625 -2.30117188 14.3228125 -2.74609375 15.390625 C-4 18 -4 18 -6 20 C-6 18.68 -6 17.36 -6 16 C-5.34 16 -4.68 16 -4 16 C-3.95101562 15.37351562 -3.90203125 14.74703125 -3.8515625 14.1015625 C-3.73941406 12.87566406 -3.73941406 12.87566406 -3.625 11.625 C-3.52058594 10.40683594 -3.52058594 10.40683594 -3.4140625 9.1640625 C-3 7 -3 7 -1 5 C-0.35232207 2.42938689 -0.35232207 2.42938689 0 0 Z " fill="#EA8240" transform="translate(609,442)"/>
<path d="M0 0 C3.25548753 3.02295271 5.68977058 6.20462309 8 10 C8 10.66 8 11.32 8 12 C6.35 12 4.7 12 3 12 C3 9.69 3 7.38 3 5 C2.01 4.67 1.02 4.34 0 4 C0 2.68 0 1.36 0 0 Z " fill="#EC8541" transform="translate(464,480)"/>
<path d="M0 0 C1.90389849 2.85584773 2.69462177 4.9311762 3.625 8.1875 C4.01558594 9.53908203 4.01558594 9.53908203 4.4140625 10.91796875 C4.60742188 11.60503906 4.80078125 12.29210937 5 13 C4.01 13.33 3.02 13.66 2 14 C2 13.01 2 12.02 2 11 C1.34 11 0.68 11 0 11 C0 7.37 0 3.74 0 0 Z " fill="#F9ECDD" transform="translate(1066,445)"/>
<path d="M0 0 C0 0.66 0 1.32 0 2 C0.66 2.33 1.32 2.66 2 3 C0.71937515 4.7074998 -0.61767557 6.37373596 -2 8 C-2.66 8 -3.32 8 -4 8 C-4.33 5.69 -4.66 3.38 -5 1 C-3 0 -3 0 0 0 Z " fill="#FBF6E7" transform="translate(326,408)"/>
<path d="M0 0 C0.33 0 0.66 0 1 0 C0.45162532 5.20955943 -0.18837986 10.06836739 -2 15 C-2.99 15.33 -3.98 15.66 -5 16 C-3.90301833 10.30860098 -2.45946923 5.25432063 0 0 Z " fill="#F9EED8" transform="translate(583,514)"/>
<path d="M0 0 C0.99 0.99 1.98 1.98 3 3 C3.66 3.33 4.32 3.66 5 4 C5 4.66 5 5.32 5 6 C2.79189025 7.8588679 0.3918738 9.37694278 -2 11 C-1.34 7.37 -0.68 3.74 0 0 Z " fill="#FCEDD4" transform="translate(261,468)"/>
<path d="M0 0 C2.77982621 1.3899131 2.87463341 3.18658353 4 6 C4.66 6.33 5.32 6.66 6 7 C7.46410966 9.28401108 8.78696278 11.57392556 10 14 C8.35 14 6.7 14 5 14 C4.71125 13.05125 4.4225 12.1025 4.125 11.125 C3.23174891 7.94788422 3.23174891 7.94788422 1 6 C0.60235737 4.01178687 0.26224651 2.01055661 0 0 Z " fill="#FBE6D3" transform="translate(462,450)"/>
<path d="M0 0 C0.66 0 1.32 0 2 0 C2 0.66 2 1.32 2 2 C3.65 2 5.3 2 7 2 C7 5 7 8 7 11 C6.34 11 5.68 11 5 11 C4.731875 10.29875 4.46375 9.5975 4.1875 8.875 C2.9318551 5.8350176 1.49764877 2.9272226 0 0 Z " fill="#ED772C" transform="translate(751,447)"/>
<path d="M0 0 C0.33 0.66 0.66 1.32 1 2 C0.01 3.485 0.01 3.485 -1 5 C-1.33 6.010625 -1.66 7.02125 -2 8.0625 C-3 11 -3 11 -5 13 C-5 12.34 -5 11.68 -5 11 C-5.66 11 -6.32 11 -7 11 C-5.66666667 8.33333333 -4.33333333 5.66666667 -3 3 C-2.34 3 -1.68 3 -1 3 C-0.67 2.01 -0.34 1.02 0 0 Z " fill="#EB792F" transform="translate(545,441)"/>
<path d="M0 0 C0 0.66 0 1.32 0 2 C-1.75 3.5078125 -1.75 3.5078125 -4 5.125 C-4.7425 5.66382813 -5.485 6.20265625 -6.25 6.7578125 C-6.8275 7.16773438 -7.405 7.57765625 -8 8 C-8.33 7.01 -8.66 6.02 -9 5 C-8.01 5 -7.02 5 -6 5 C-6.33 3.35 -6.66 1.7 -7 0 C-2.25 -1.125 -2.25 -1.125 0 0 Z " fill="#FBF2DF" transform="translate(362,376)"/>
<path d="M0 0 C0.33 0 0.66 0 1 0 C0.70620893 6.34588709 -0.39230628 11.66333608 -4 17 C-4.66 17.33 -5.32 17.66 -6 18 C-4.23536928 11.89262558 -2.30442525 5.92566493 0 0 Z " fill="#FDE3C4" transform="translate(1036,464)"/>
<path d="M0 0 C0.33 0.99 0.66 1.98 1 3 C1.66 3.33 2.32 3.66 3 4 C2.21718695 5.33855056 1.42348123 6.67073644 0.625 8 C0.18414063 8.7425 -0.25671875 9.485 -0.7109375 10.25 C-1.13632812 10.8275 -1.56171875 11.405 -2 12 C-2.66 12 -3.32 12 -4 12 C-3.52309796 10.37433394 -3.04340334 8.74948689 -2.5625 7.125 C-2.29566406 6.22007812 -2.02882813 5.31515625 -1.75390625 4.3828125 C-1 2 -1 2 0 0 Z " fill="#FAE8CB" transform="translate(604,460)"/>
<path d="M0 0 C0.1875 2.375 0.1875 2.375 0 5 C-2.91765 6.9451 -4.62537285 7.45276317 -8 8 C-8 7.34 -8 6.68 -8 6 C-7.34 6 -6.68 6 -6 6 C-5.731875 5.38125 -5.46375 4.7625 -5.1875 4.125 C-4.0059864 2.01071251 -2.76412485 0 0 0 Z " fill="#F37B37" transform="translate(306,434)"/>
<path d="M0 0 C3.37244652 3.99697365 6.71374722 8.27090179 9 13 C8.67 13.66 8.34 14.32 8 15 C6 14 6 14 5.0625 11.625 C4.21457867 8.99154733 4.21457867 8.99154733 2.4375 7.5625 C0.3423475 5.28516033 0.33365644 3.00290797 0 0 Z " fill="#EA7E3A" transform="translate(771,512)"/>
<path d="M0 0 C0.33 0.66 0.66 1.32 1 2 C1.66 2.33 2.32 2.66 3 3 C1.68 6.63 0.36 10.26 -1 14 C-1.33 14 -1.66 14 -2 14 C-2.08066508 10.45073659 -1.94247192 7.41646071 -1 4 C-1 3.01 -1 2.02 -1 1 C-0.67 0.67 -0.34 0.34 0 0 Z " fill="#EB7729" transform="translate(587,495)"/>
<path d="M0 0 C0.33 0.99 0.66 1.98 1 3 C0.67 3.66 0.34 4.32 0 5 C-2.64860427 5.59355614 -5.29197322 5.74209269 -8 6 C-7.67 4.68 -7.34 3.36 -7 2 C-6.67 2.66 -6.34 3.32 -6 4 C-5.38125 3.34 -4.7625 2.68 -4.125 2 C-2 0 -2 0 0 0 Z " fill="#F08643" transform="translate(266,474)"/>
<path d="M0 0 C2.9375 0.75 2.9375 0.75 6 2 C6.875 4.125 6.875 4.125 7 6 C6.34 6 5.68 6 5 6 C4.67 7.32 4.34 8.64 4 10 C3.32845067 8.71086513 2.66291141 7.41859796 2 6.125 C1.62875 5.40570313 1.2575 4.68640625 0.875 3.9453125 C0 2 0 2 0 0 Z " fill="#F07B2B" transform="translate(640,464)"/>
<path d="M0 0 C0.33 0.99 0.66 1.98 1 3 C-3.10526316 8.70175439 -3.10526316 8.70175439 -7 10 C-5.6062718 5.56541027 -3.39417765 3.12621626 0 0 Z " fill="#FAE8D8" transform="translate(287,420)"/>
<path d="M0 0 C2 2 2 2 2.125 5.125 C2.08375 6.07375 2.0425 7.0225 2 8 C0.68 7.67 -0.64 7.34 -2 7 C-2.33 7.99 -2.66 8.98 -3 10 C-3.66 9.67 -4.32 9.34 -5 9 C-3.35 6.03 -1.7 3.06 0 0 Z " fill="#EB7428" transform="translate(963,536)"/>
<path d="M0 0 C0.66 0.33 1.32 0.66 2 1 C1.45276317 4.37462715 0.9451 6.08235 -1 9 C-1 7.68 -1 6.36 -1 5 C-1.66 5 -2.32 5 -3 5 C-3 5.66 -3 6.32 -3 7 C-3.66 7 -4.32 7 -5 7 C-4.67 5.68 -4.34 4.36 -4 3 C-3.01 3 -2.02 3 -1 3 C-0.67 2.01 -0.34 1.02 0 0 Z " fill="#F2711A" transform="translate(1029,533)"/>
<path d="M0 0 C0.33 0 0.66 0 1 0 C1.46450943 6.50313209 0.32575612 10.4174808 -3 16 C-3.33 16 -3.66 16 -4 16 C-3.25 9.25 -3.25 9.25 -1 7 C-0.59952556 4.67724823 -0.2602896 2.34260643 0 0 Z " fill="#E97C2F" transform="translate(949,520)"/>
<path d="M0 0 C0.66 0 1.32 0 2 0 C1.19534869 3.73654172 -0.17574885 7.19422782 -1.5625 10.75 C-2.24505859 12.50570312 -2.24505859 12.50570312 -2.94140625 14.296875 C-3.29074219 15.18890625 -3.64007812 16.0809375 -4 17 C-5.6852084 12.92320841 -4.16939007 10.16924407 -2.5625 6.25 C-2.08941406 5.07953125 -1.61632812 3.9090625 -1.12890625 2.703125 C-0.75636719 1.81109375 -0.38382813 0.9190625 0 0 Z " fill="#FDEBD1" transform="translate(597,516)"/>
<path d="M0 0 C2.95183101 2.95183101 3.08663988 5.95511947 4 10 C2.35 10 0.7 10 -1 10 C-0.67 6.7 -0.34 3.4 0 0 Z " fill="#FCECD5" transform="translate(1089,504)"/>
<path d="M0 0 C0.66 0 1.32 0 2 0 C2.33 2.31 2.66 4.62 3 7 C3.66 7 4.32 7 5 7 C5.33 9.97 5.66 12.94 6 16 C4.2133211 13.31998165 3.0677863 10.96871256 1.875 8 C1.52179687 7.13375 1.16859375 6.2675 0.8046875 5.375 C0 3 0 3 0 0 Z " fill="#EA7F37" transform="translate(652,493)"/>
<path d="M0 0 C1.32 0 2.64 0 4 0 C4 0.66 4 1.32 4 2 C4.99 1.67 5.98 1.34 7 1 C5.70700306 3.88437779 4.34058637 5.87219421 2 8 C1.34 5.36 0.68 2.72 0 0 Z " fill="#EE7427" transform="translate(504,461)"/>
<path d="M0 0 C0.33 1.32 0.66 2.64 1 4 C1.66 4 2.32 4 3 4 C2.34 5.32 1.68 6.64 1 8 C0.67 7.34 0.34 6.68 0 6 C-0.66 7.98 -1.32 9.96 -2 12 C-2.66 12 -3.32 12 -4 12 C-2 3.42857143 -2 3.42857143 0 0 Z " fill="#EB7F36" transform="translate(1043,490)"/>
<path d="M0 0 C0.66 0.33 1.32 0.66 2 1 C1.21718695 2.33855056 0.42348123 3.67073644 -0.375 5 C-0.81585938 5.7425 -1.25671875 6.485 -1.7109375 7.25 C-2.34902344 8.11625 -2.34902344 8.11625 -3 9 C-3.66 9 -4.32 9 -5 9 C-6.625 6.5 -6.625 6.5 -8 4 C-6.35 4 -4.7 4 -3 4 C-2.67 3.34 -2.34 2.68 -2 2 C-1.34 2 -0.68 2 0 2 C0 1.34 0 0.68 0 0 Z " fill="#E97936" transform="translate(495,482)"/>
<path d="M0 0 C2.52259061 1.97420135 2.9929808 2.96745642 3.6875 6.1875 C3.790625 7.115625 3.89375 8.04375 4 9 C4.66 9 5.32 9 6 9 C5.67 10.32 5.34 11.64 5 13 C-0.72535211 5.66901408 -0.72535211 5.66901408 -1 1 C-0.67 0.67 -0.34 0.34 0 0 Z " fill="#EC7E36" transform="translate(768,472)"/>
<path d="M0 0 C1.32 0 2.64 0 4 0 C4.66 1.65 5.32 3.3 6 5 C6.33 5 6.66 5 7 5 C7.33 7.31 7.66 9.62 8 12 C3.99543524 9.99771762 1.91252854 3.98443446 0 0 Z " fill="#EB8541" transform="translate(472,464)"/>
<path d="M0 0 C0.33 0.66 0.66 1.32 1 2 C-0.14099526 5.42298577 -1.00085621 6.14758766 -4 8 C-4.99 8 -5.98 8 -7 8 C-5.50902342 4.2047869 -3.24299151 2.38957269 0 0 Z " fill="#F17F3F" transform="translate(273,466)"/>
<path d="M0 0 C2.01822917 0.29296875 4.03645833 0.5859375 6.0546875 0.87890625 C8.08140667 1.1684297 8.08140667 1.1684297 10 0 C10 0.99 10 1.98 10 3 C10.99 3.33 11.98 3.66 13 4 C12.01 4 11.02 4 10 4 C9.67 4.66 9.34 5.32 9 6 C6.03 4.35 3.06 2.7 0 1 C0 0.67 0 0.34 0 0 Z " fill="#F0782A" transform="translate(936,440)"/>
<path d="M0 0 C1.41569064 -0.08167446 2.83276805 -0.13949698 4.25 -0.1875 C5.43335938 -0.23970703 5.43335938 -0.23970703 6.640625 -0.29296875 C9 0 9 0 13 3 C8.05 3 3.1 3 -2 3 C-1.34 2.67 -0.68 2.34 0 2 C0 1.34 0 0.68 0 0 Z " fill="#F7680D" transform="translate(615,434)"/>
<path d="M0 0 C0.66 0 1.32 0 2 0 C1.67 2.64 1.34 5.28 1 8 C-0.65 8 -2.3 8 -4 8 C-3.67 6.02 -3.34 4.04 -3 2 C-2.34 2.33 -1.68 2.66 -1 3 C-0.67 2.01 -0.34 1.02 0 0 Z " fill="#F8690A" transform="translate(564,552)"/>
<path d="M0 0 C2.22825644 2.22825644 2.69239369 3.65761628 3.625 6.625 C4.01558594 7.85089844 4.01558594 7.85089844 4.4140625 9.1015625 C4.60742188 9.72804688 4.80078125 10.35453125 5 11 C3.02 11.99 3.02 11.99 1 13 C0.67 8.71 0.34 4.42 0 0 Z " fill="#FAEED9" transform="translate(1095,520)"/>
<path d="M0 0 C2 2 2 2 2.125 4.625 C2.08375 5.40875 2.0425 6.1925 2 7 C1.34 7 0.68 7 0 7 C0.33 8.98 0.66 10.96 1 13 C-2.00617269 9.99382731 -1.59585316 7.17618402 -2 3 C-1.34 3 -0.68 3 0 3 C0 2.01 0 1.02 0 0 Z " fill="#F1701D" transform="translate(668,523)"/>
<path d="M0 0 C0.66 0.33 1.32 0.66 2 1 C1.67 2.32 1.34 3.64 1 5 C0.34 5 -0.32 5 -1 5 C-1.33 6.98 -1.66 8.96 -2 11 C-3.76462683 7.91190305 -4 6.76687864 -4 3 C-3.34 3 -2.68 3 -2 3 C-1.34 2.01 -0.68 1.02 0 0 Z " fill="#ED7932" transform="translate(1022,497)"/>
<path d="M0 0 C5.75 1.625 5.75 1.625 8 5 C8 5.99 8 6.98 8 8 C7.01 8.33 6.02 8.66 5 9 C3.35 6.03 1.7 3.06 0 0 Z " fill="#EE7425" transform="translate(774,486)"/>
<path d="M0 0 C2.9156164 3.54039134 5.50127818 7.1626772 8 11 C7.34 12.32 6.68 13.64 6 15 C5.71125 14.030625 5.4225 13.06125 5.125 12.0625 C4.35785318 8.89335797 4.35785318 8.89335797 2 8 C0.6250851 5.09740189 0 3.23861295 0 0 Z " fill="#E87D3B" transform="translate(747,472)"/>
<path d="M0 0 C0.66 1.32 1.32 2.64 2 4 C1.01 4.33 0.02 4.66 -1 5 C-1.33 5.99 -1.66 6.98 -2 8 C-4.0625 9.1875 -4.0625 9.1875 -6 10 C-6 9.34 -6 8.68 -6 8 C-5.34 8 -4.68 8 -4 8 C-3.7834375 7.071875 -3.7834375 7.071875 -3.5625 6.125 C-3 4 -3 4 -2 2 C-1.34 2 -0.68 2 0 2 C0 1.34 0 0.68 0 0 Z " fill="#F18845" transform="translate(520,476)"/>
<path d="M0 0 C0.33 0 0.66 0 1 0 C1 1.65 1 3.3 1 5 C0.01 5 -0.98 5 -2 5 C-1.67 6.65 -1.34 8.3 -1 10 C-2.65 10 -4.3 10 -6 10 C-4.34784004 6.42032008 -2.26875648 3.22017048 0 0 Z " fill="#F08340" transform="translate(527,466)"/>
<path d="M0 0 C0.66 0.33 1.32 0.66 2 1 C-0.31 4.63 -2.62 8.26 -5 12 C-6 8 -6 8 -5 5 C-4.34 5 -3.68 5 -3 5 C-2.67 4.01 -2.34 3.02 -2 2 C-1.34 2 -0.68 2 0 2 C0 1.34 0 0.68 0 0 Z " fill="#FCECD9" transform="translate(525,466)"/>
<path d="M0 0 C0.33 1.32 0.66 2.64 1 4 C-0.8125 6.75 -0.8125 6.75 -3 9 C-3.66 9 -4.32 9 -5 9 C-5 9.66 -5 10.32 -5 11 C-5.66 10.67 -6.32 10.34 -7 10 C-3.535 5.05 -3.535 5.05 0 0 Z " fill="#FDDFC8" transform="translate(518,452)"/>
<path d="M0 0 C0.66 0 1.32 0 2 0 C2.474375 0.495 2.94875 0.99 3.4375 1.5 C4.99969942 3.34626591 4.99969942 3.34626591 8 3 C8 5.31 8 7.62 8 10 C6 8.6875 6 8.6875 4 7 C4 6.01 4 5.02 4 4 C3.01 3.67 2.02 3.34 1 3 C0.67 2.01 0.34 1.02 0 0 Z " fill="#EF833D" transform="translate(464,453)"/>
<path d="M0 0 C0.99 0.495 0.99 0.495 2 1 C2.40729228 3.32156597 2.74438677 5.6568787 3 8 C3.99 8 4.98 8 6 8 C6 10.31 6 12.62 6 15 C5.34 14.01 4.68 13.02 4 12 C3.484375 11.2575 2.96875 10.515 2.4375 9.75 C0.73377795 6.49070565 0.35661846 3.6375083 0 0 Z " fill="#EA803F" transform="translate(631,439)"/>
<path d="M0 0 C1.37095624 3.69037278 0.60010967 5.70883835 -0.9375 9.25 C-1.31777344 10.14203125 -1.69804688 11.0340625 -2.08984375 11.953125 C-2.39019531 12.62859375 -2.69054687 13.3040625 -3 14 C-3.66 14 -4.32 14 -5 14 C-3.70022952 9.1008651 -2.07626313 4.62440425 0 0 Z " fill="#FCE6CB" transform="translate(577,530)"/>
<path d="M0 0 C0.33 0 0.66 0 1 0 C1 5.28 1 10.56 1 16 C0.01 16 -0.98 16 -2 16 C-1.34 10.72 -0.68 5.44 0 0 Z " fill="#E9915A" transform="translate(965,520)"/>
<path d="M0 0 C0.66 0 1.32 0 2 0 C6.59225513 9.22551253 6.59225513 9.22551253 6 15 C4.44650429 11.99797451 3.12697134 8.95170222 1.875 5.8125 C1.34519531 4.49185547 1.34519531 4.49185547 0.8046875 3.14453125 C0 1 0 1 0 0 Z " fill="#FDEDD2" transform="translate(1075,509)"/>
<path d="M0 0 C2.34914492 2.34914492 2.73140357 3.95679446 3.625 7.125 C3.88539062 8.03507812 4.14578125 8.94515625 4.4140625 9.8828125 C4.70410156 10.93082031 4.70410156 10.93082031 5 12 C4.34 12 3.68 12 3 12 C2.67 10.68 2.34 9.36 2 8 C1.34 8 0.68 8 0 8 C0 5.36 0 2.72 0 0 Z " fill="#FDE3C4" transform="translate(1075,468)"/>
<path d="M0 0 C0.66 0.33 1.32 0.66 2 1 C1.01 3.31 0.02 5.62 -1 8 C-2.32 8 -3.64 8 -5 8 C-3.8141763 4.62496331 -2.72426311 2.35277269 0 0 Z " fill="#FCEFDF" transform="translate(511,463)"/>
<path d="M0 0 C0.98120464 3.05263664 0.98120464 4.94736336 0 8 C1.32 8.33 2.64 8.66 4 9 C1.92446352 9.5534764 0.15634036 10 -2 10 C-2.33 10.66 -2.66 11.32 -3 12 C-2.40075776 7.80530429 -1.42500059 3.99000166 0 0 Z " fill="#FBE2CC" transform="translate(265,456)"/>
<path d="M0 0 C0.66 0.33 1.32 0.66 2 1 C2 1.66 2 2.32 2 3 C0.25 4.5078125 0.25 4.5078125 -2 6.125 C-2.7425 6.66382813 -3.485 7.20265625 -4.25 7.7578125 C-4.8275 8.16773438 -5.405 8.57765625 -6 9 C-5.67 7.35 -5.34 5.7 -5 4 C-4.34 4 -3.68 4 -3 4 C-3 3.34 -3 2.68 -3 2 C-2.01 1.34 -1.02 0.68 0 0 Z " fill="#FBF2DF" transform="translate(344,391)"/>
<path d="M0 0 C0.66 0 1.32 0 2 0 C1.67 3.3 1.34 6.6 1 10 C-0.32 10 -1.64 10 -3 10 C-2.01 6.7 -1.02 3.4 0 0 Z " fill="#FBDEC7" transform="translate(1021,502)"/>
<path d="M0 0 C1.04702186 3.7264085 1.07442057 7.13013042 1 11 C0.01 11 -0.98 11 -2 11 C-3.13643966 7.59068103 -2.86747764 6.99664544 -1.5625 3.8125 C-1.13130859 2.73935547 -1.13130859 2.73935547 -0.69140625 1.64453125 C-0.46324219 1.10183594 -0.23507812 0.55914062 0 0 Z " fill="#EE7D34" transform="translate(605,500)"/>
<path d="M0 0 C0.66 0 1.32 0 2 0 C2 0.66 2 1.32 2 2 C4.475 2.99 4.475 2.99 7 4 C7 5.98 7 7.96 7 10 C3.72713318 7.2180632 2.03572303 3.72045933 0 0 Z " fill="#FCE5CD" transform="translate(760,493)"/>
<path d="M0 0 C4 6 4 6 4 11 C3.01 11 2.02 11 1 11 C0.67 7.37 0.34 3.74 0 0 Z " fill="#FCDFC1" transform="translate(1081,483)"/>
<path d="M0 0 C0.99 0.33 1.98 0.66 3 1 C2.67 2.98 2.34 4.96 2 7 C1.34 6.67 0.68 6.34 0 6 C-0.33 6.99 -0.66 7.98 -1 9 C-1.66 9 -2.32 9 -3 9 C-2.01 6.03 -1.02 3.06 0 0 Z " fill="#E97526" transform="translate(612,483)"/>
<path d="M0 0 C4.875 4.625 4.875 4.625 6 8 C5.21625 7.649375 4.4325 7.29875 3.625 6.9375 C2.75875 6.628125 1.8925 6.31875 1 6 C0.01 6.495 0.01 6.495 -1 7 C-0.67 4.69 -0.34 2.38 0 0 Z " fill="#F07F35" transform="translate(458,472)"/>
<path d="M0 0 C2.28062828 3.42094242 2.21925007 4.68187222 2.125 8.6875 C2.10695313 9.68136719 2.08890625 10.67523438 2.0703125 11.69921875 C2.03550781 12.83810547 2.03550781 12.83810547 2 14 C-0.63091471 10.05362794 -1.40815007 6.27397897 -0.5625 1.5625 C-0.376875 1.046875 -0.19125 0.53125 0 0 Z " fill="#F9F5E6" transform="translate(1073,464)"/>
<path d="M0 0 C0.66 0.33 1.32 0.66 2 1 C1.375 3.375 1.375 3.375 0 6 C-3.125 7.3125 -3.125 7.3125 -6 8 C-6 7.34 -6 6.68 -6 6 C-5.34 6 -4.68 6 -4 6 C-3.34 4.68 -2.68 3.36 -2 2 C-1.34 2 -0.68 2 0 2 C0 1.34 0 0.68 0 0 Z " fill="#F27D3F" transform="translate(352,386)"/>
<path d="M0 0 C0.33 0.99 0.66 1.98 1 3 C1.66 3 2.32 3 3 3 C3.33 4.65 3.66 6.3 4 8 C2.35 8 0.7 8 -1 8 C-0.67 5.36 -0.34 2.72 0 0 Z " fill="#F46B09" transform="translate(1001,536)"/>
<path d="M0 0 C0.99 0 1.98 0 3 0 C3.69965443 1.26418246 4.38434763 2.53665402 5.0625 3.8125 C5.63677734 4.87404297 5.63677734 4.87404297 6.22265625 5.95703125 C7 8 7 8 6 11 C2.90407165 7.4912812 1.25805377 4.50802601 0 0 Z " fill="#E97C35" transform="translate(790,512)"/>
<path d="M0 0 C2.31 0.33 4.62 0.66 7 1 C7 1.66 7 2.32 7 3 C6.34 3 5.68 3 5 3 C5 4.65 5 6.3 5 8 C2.74754119 5.31158141 1.11786042 3.35358125 0 0 Z " fill="#EC742D" transform="translate(780,496)"/>
<path d="M0 0 C0.66 0 1.32 0 2 0 C1.67 1.65 1.34 3.3 1 5 C0.01 5 -0.98 5 -2 5 C-1.67 5.66 -1.34 6.32 -1 7 C-2.65 7 -4.3 7 -6 7 C-5.04882866 5.8274869 -4.08882991 4.66212985 -3.125 3.5 C-2.59132813 2.8503125 -2.05765625 2.200625 -1.5078125 1.53125 C-0.76144531 0.77328125 -0.76144531 0.77328125 0 0 Z " fill="#F4894A" transform="translate(280,458)"/>
<path d="M0 0 C0.33 1.32 0.66 2.64 1 4 C0.34 4 -0.32 4 -1 4 C-1.33 6.31 -1.66 8.62 -2 11 C-2.33 10.34 -2.66 9.68 -3 9 C-3.66 8.67 -4.32 8.34 -5 8 C-4.01 7.67 -3.02 7.34 -2 7 C-2.33 5.35 -2.66 3.7 -3 2 C-2.01 1.34 -1.02 0.68 0 0 Z " fill="#FAEEE2" transform="translate(1055,456)"/>
<path d="M0 0 C2.97 0.33 5.94 0.66 9 1 C8.34 2.65 7.68 4.3 7 6 C5.83054208 5.19152271 4.66449539 4.37810888 3.5 3.5625 C2.8503125 3.11003906 2.200625 2.65757812 1.53125 2.19140625 C1.0259375 1.79824219 0.520625 1.40507812 0 1 C0 0.67 0 0.34 0 0 Z " fill="#FAEEDA" transform="translate(932,455)"/>
<path d="M0 0 C0.66 0 1.32 0 2 0 C2 0.66 2 1.32 2 2 C2.66 2 3.32 2 4 2 C4 2.66 4 3.32 4 4 C4.99 4.33 5.98 4.66 7 5 C6.67 5.99 6.34 6.98 6 8 C6.66 8 7.32 8 8 8 C7.67 8.99 7.34 9.98 7 11 C7 10.34 7 9.68 7 9 C6.01 8.67 5.02 8.34 4 8 C2.83203125 6.15234375 2.83203125 6.15234375 1.8125 3.9375 C1.46832031 3.20402344 1.12414062 2.47054688 0.76953125 1.71484375 C0.51558594 1.14894531 0.26164062 0.58304687 0 0 Z " fill="#EB7B35" transform="translate(455,439)"/>
<path d="M0 0 C2.475 0.495 2.475 0.495 5 1 C5.33 2.65 5.66 4.3 6 6 C5.01 6 4.02 6 3 6 C2.67 4.68 2.34 3.36 2 2 C1.34 2 0.68 2 0 2 C0 1.34 0 0.68 0 0 Z " fill="#F8E9D8" transform="translate(786,536)"/>
<path d="M0 0 C3 1 3 1 4.25 3.3125 C5.0275526 6.09873015 4.98726527 7.33438378 4 10 C3.34 9.67 2.68 9.34 2 9 C1.3671875 6.93359375 1.3671875 6.93359375 0.875 4.4375 C0.70742188 3.61121094 0.53984375 2.78492188 0.3671875 1.93359375 C0.24601563 1.29550781 0.12484375 0.65742187 0 0 Z " fill="#FCE2C7" transform="translate(657,512)"/>
<path d="M0 0 C0.99 0.33 1.98 0.66 3 1 C3.66 4.96 4.32 8.92 5 13 C2.94876752 10.94876752 2.35852882 9.72994937 1.375 7.0625 C0.98441406 6.02802734 0.98441406 6.02802734 0.5859375 4.97265625 C0 3 0 3 0 0 Z " fill="#E87E34" transform="translate(1092,509)"/>
<path d="M0 0 C0.66 0 1.32 0 2 0 C2.433125 1.3921875 2.433125 1.3921875 2.875 2.8125 C3.8875 6.09791667 3.8875 6.09791667 6 9 C5.34 10.32 4.68 11.64 4 13 C3.32942113 11.2097939 2.6636531 9.41778511 2 7.625 C1.62875 6.62726563 1.2575 5.62953125 0.875 4.6015625 C0 2 0 2 0 0 Z " fill="#E87A2F" transform="translate(647,480)"/>
<path d="M0 0 C2.74277578 3.19990508 4.6302836 6.00499382 6 10 C4.68 9.67 3.36 9.34 2 9 C2 7.35 2 5.7 2 4 C1.34 4 0.68 4 0 4 C0 2.68 0 1.36 0 0 Z " fill="#E58243" transform="translate(741,462)"/>
<path d="M0 0 C1.32 0 2.64 0 4 0 C3.75 1.875 3.75 1.875 3 4 C0.9375 5.25 0.9375 5.25 -1 6 C-0.67 4.02 -0.34 2.04 0 0 Z " fill="#F86E0A" transform="translate(274,466)"/>
<path d="M0 0 C1.90389849 2.85584773 2.69462177 4.9311762 3.625 8.1875 C4.01558594 9.53908203 4.01558594 9.53908203 4.4140625 10.91796875 C4.60742188 11.60503906 4.80078125 12.29210937 5 13 C4.01 13 3.02 13 2 13 C-0.28571429 4.57142857 -0.28571429 4.57142857 0 0 Z " fill="#FCE4C4" transform="translate(638,459)"/>
<path d="M0 0 C0.33 0 0.66 0 1 0 C1 1.98 1 3.96 1 6 C0.34 6 -0.32 6 -1 6 C-1 7.65 -1 9.3 -1 11 C-1.99 11.33 -2.98 11.66 -4 12 C-3.52309796 10.37433394 -3.04340334 8.74948689 -2.5625 7.125 C-2.29566406 6.22007812 -2.02882813 5.31515625 -1.75390625 4.3828125 C-1 2 -1 2 0 0 Z " fill="#FCE1C6" transform="translate(1044,444)"/>
<path d="M0 0 C0.99 0.33 1.98 0.66 3 1 C2.04882866 2.1725131 1.08882991 3.33787015 0.125 4.5 C-0.40867187 5.1496875 -0.94234375 5.799375 -1.4921875 6.46875 C-1.98976563 6.9740625 -2.48734375 7.479375 -3 8 C-3.66 8 -4.32 8 -5 8 C-4.67 6.68 -4.34 5.36 -4 4 C-3.34 4 -2.68 4 -2 4 C-2 3.01 -2 2.02 -2 1 C-1.34 0.67 -0.68 0.34 0 0 Z " fill="#FDF0DA" transform="translate(367,368)"/>
<path d="M0 0 C0.99 0 1.98 0 3 0 C3 0.66 3 1.32 3 2 C3.928125 2.1546875 3.928125 2.1546875 4.875 2.3125 C7 3 7 3 9 6 C5.59687262 4.94124926 2.98646769 3.99097846 0 2 C0 1.34 0 0.68 0 0 Z " fill="#E7752B" transform="translate(936,505)"/>
<path d="M0 0 C0.33 0.66 0.66 1.32 1 2 C1.66 2 2.32 2 3 2 C3 2.66 3 3.32 3 4 C3.66 4 4.32 4 5 4 C5.33 5.65 5.66 7.3 6 9 C5.01 9.495 5.01 9.495 4 10 C0 3.375 0 3.375 0 0 Z " fill="#FDE6CF" transform="translate(768,504)"/>
<path d="M0 0 C5.75 1.875 5.75 1.875 8 3 C7.34 4.32 6.68 5.64 6 7 C4.02 4.69 2.04 2.38 0 0 Z " fill="#E87931" transform="translate(952,495)"/>
<path d="M0 0 C1 2 1 2 0.3125 5.0625 C-1 8 -1 8 -3.125 8.875 C-3.74375 8.91625 -4.3625 8.9575 -5 9 C-3.7508258 5.54074837 -2.32472205 2.85306797 0 0 Z " fill="#ED8340" transform="translate(511,489)"/>
<path d="M0 0 C3 4 3 4 3 6 C1.125 8.125 1.125 8.125 -1 10 C-1.66 10 -2.32 10 -3 10 C-2.01 6.7 -1.02 3.4 0 0 Z " fill="#FDE7CB" transform="translate(1029,482)"/>
<path d="M0 0 C0.99 0.33 1.98 0.66 3 1 C-0.625 6.875 -0.625 6.875 -4 8 C-3.67 6.68 -3.34 5.36 -3 4 C-2.34 4 -1.68 4 -1 4 C-0.67 2.68 -0.34 1.36 0 0 Z " fill="#E47321" transform="translate(937,477)"/>
<path d="M0 0 C2.22825644 2.22825644 2.69239369 3.65761628 3.625 6.625 C3.88539062 7.44226563 4.14578125 8.25953125 4.4140625 9.1015625 C4.60742188 9.72804688 4.80078125 10.35453125 5 11 C4.01 10.34 3.02 9.68 2 9 C2 8.01 2 7.02 2 6 C1.01 6 0.02 6 -1 6 C-0.67 4.02 -0.34 2.04 0 0 Z " fill="#EB7D36" transform="translate(1069,496)"/>
<path d="M0 0 C0.66 0 1.32 0 2 0 C2.33 1.98 2.66 3.96 3 6 C2.34 6 1.68 6 1 6 C0.67 6.66 0.34 7.32 0 8 C-0.66 7.67 -1.32 7.34 -2 7 C-1.34 4.69 -0.68 2.38 0 0 Z " fill="#E08549" transform="translate(1054,460)"/>
<path d="M0 0 C0.33 0.99 0.66 1.98 1 3 C-0.3125 4.5 -0.3125 4.5 -2 6 C-2.99 6 -3.98 6 -5 6 C-5 6.66 -5 7.32 -5 8 C-5.66 7.67 -6.32 7.34 -7 7 C-4.78071806 4.09197539 -3.07030857 2.04687238 0 0 Z " fill="#FDE0C7" transform="translate(329,444)"/>
<path d="M0 0 C0 3.3 0 6.6 0 10 C-2.6855594 7.3144406 -3.06049974 4.62378672 -4 1 C-1 0 -1 0 0 0 Z " fill="#EC782F" transform="translate(1069,440)"/>
<path d="M0 0 C0.66 0.99 1.32 1.98 2 3 C-0.97 5.475 -0.97 5.475 -4 8 C-4.33 6.68 -4.66 5.36 -5 4 C-4.34 4 -3.68 4 -3 4 C-3 3.34 -3 2.68 -3 2 C-2.01 1.34 -1.02 0.68 0 0 Z " fill="#FAE9D6" transform="translate(296,439)"/>
<path d="M0 0 C1.33332095 2.6666419 0.67102033 4.16680303 0 7 C-4 7 -4 7 -6 6 C-4.02 4.02 -2.04 2.04 0 0 Z " fill="#F58B4A" transform="translate(330,408)"/>
<path d="M0 0 C0.66 0 1.32 0 2 0 C2.33 1.32 2.66 2.64 3 4 C2.2575 4.12375 1.515 4.2475 0.75 4.375 C-1.81448542 4.9578376 -3.69166512 5.78664449 -6 7 C-5.04882866 5.8274869 -4.08882991 4.66212985 -3.125 3.5 C-2.59132813 2.8503125 -2.05765625 2.200625 -1.5078125 1.53125 C-0.76144531 0.77328125 -0.76144531 0.77328125 0 0 Z " fill="#F18C4D" transform="translate(344,394)"/>
<path d="M0 0 C3 4 3 4 2.8125 7.125 C2 10 2 10 0 12 C0 8.04 0 4.08 0 0 Z " fill="#ED752B" transform="translate(568,540)"/>
<path d="M0 0 C0.99 0.33 1.98 0.66 3 1 C3 2.98 3 4.96 3 7 C2.01 7 1.02 7 0 7 C-0.93423645 3.98968256 -1.04449911 3.13349732 0 0 Z " fill="#F6F1E1" transform="translate(1017,513)"/>
<path d="M0 0 C1.37562854 1.28965176 2.70766393 2.62689293 4 4 C4 4.66 4 5.32 4 6 C2.02 6 0.04 6 -2 6 C-1.34 4.02 -0.68 2.04 0 0 Z " fill="#F9EFDA" transform="translate(780,498)"/>
<path d="M0 0 C0.33 0.66 0.66 1.32 1 2 C1.66 2 2.32 2 3 2 C1.84826645 4.46800047 0.95216435 6.04783565 -1 8 C-1.625 5.6875 -1.625 5.6875 -2 3 C-1.34 2.01 -0.68 1.02 0 0 Z " fill="#EC7121" transform="translate(514,451)"/>
<path d="M0 0 C3.93673644 1.31224548 6.22719294 2.91910327 9 6 C8.01 6 7.02 6 6 6 C6 5.34 6 4.68 6 4 C5.401875 3.87625 4.80375 3.7525 4.1875 3.625 C2 3 2 3 -1 1 C-0.67 0.67 -0.34 0.34 0 0 Z " fill="#FEE6CB" transform="translate(937,441)"/>
<path d="M0 0 C0.66 0 1.32 0 2 0 C2 0.66 2 1.32 2 2 C2.66 2 3.32 2 4 2 C4.33 3.98 4.66 5.96 5 8 C2.20127563 5.47211993 0.54226981 3.79588866 0 0 Z " fill="#FDEACF" transform="translate(795,550)"/>
<path d="M0 0 C3 3.75 3 3.75 3 6 C1.02 6 -0.96 6 -3 6 C-3 5.34 -3 4.68 -3 4 C-2.01 4 -1.02 4 0 4 C0 2.68 0 1.36 0 0 Z " fill="#FDEBD9" transform="translate(662,522)"/>
<path d="M0 0 C1.485 0.99 1.485 0.99 3 2 C3.6875 5.625 3.6875 5.625 4 9 C3.34 9 2.68 9 2 9 C2 7.35 2 5.7 2 4 C1.34 4 0.68 4 0 4 C0 2.68 0 1.36 0 0 Z " fill="#E68240" transform="translate(945,511)"/>
<path d="M0 0 C0.33 0 0.66 0 1 0 C1.33 3.3 1.66 6.6 2 10 C1.01 10 0.02 10 -1 10 C-0.67 6.7 -0.34 3.4 0 0 Z " fill="#EF6E17" transform="translate(606,498)"/>
<path d="M0 0 C2.27521866 2.16687491 4.15794162 4.45620509 6 7 C5.67 7.66 5.34 8.32 5 9 C2.5 7.875 2.5 7.875 0 6 C-0.3125 2.8125 -0.3125 2.8125 0 0 Z " fill="#EC8A47" transform="translate(762,497)"/>
<path d="M0 0 C0.33 0 0.66 0 1 0 C0.67 2.31 0.34 4.62 0 7 C-1.32 7.33 -2.64 7.66 -4 8 C-2.68 5.36 -1.36 2.72 0 0 Z " fill="#ED7832" transform="translate(955,482)"/>
<path d="M0 0 C0.33 1.32 0.66 2.64 1 4 C-0.9375 6.25 -0.9375 6.25 -3 8 C-3.66 7.67 -4.32 7.34 -5 7 C-3.35 4.69 -1.7 2.38 0 0 Z " fill="#E87C38" transform="translate(537,452)"/>
<path d="M0 0 C1 2 1 2 0.44140625 4.1640625 C0.15136719 4.97617187 -0.13867188 5.78828125 -0.4375 6.625 C-0.72496094 7.44226563 -1.01242187 8.25953125 -1.30859375 9.1015625 C-1.53675781 9.72804688 -1.76492188 10.35453125 -2 11 C-2.66 11 -3.32 11 -4 11 C-3.5247412 9.35303396 -3.04468109 7.70745272 -2.5625 6.0625 C-2.29566406 5.14597656 -2.02882813 4.22945313 -1.75390625 3.28515625 C-1 1 -1 1 0 0 Z " fill="#FBD1AA" transform="translate(270,445)"/>
<path d="M0 0 C0.33 0 0.66 0 1 0 C1 2.31 1 4.62 1 7 C-0.98 7.99 -0.98 7.99 -3 9 C-2.01 6.03 -1.02 3.06 0 0 Z " fill="#FDE8CF" transform="translate(610,445)"/>
<path d="M0 0 C0 1.65 0 3.3 0 5 C-1.65 5 -3.3 5 -5 5 C-2.74193548 0 -2.74193548 0 0 0 Z " fill="#F47D37" transform="translate(298,442)"/>
<path d="M0 0 C0.99 0.66 1.98 1.32 3 2 C1.35 3.65 -0.3 5.3 -2 7 C-2.33 5.02 -2.66 3.04 -3 1 C-2.01 0.67 -1.02 0.34 0 0 Z " fill="#FBF2DD" transform="translate(309,425)"/>
<path d="M0 0 C1.32 0.33 2.64 0.66 4 1 C2.824375 1.928125 2.824375 1.928125 1.625 2.875 C-0.96837647 4.89858661 -0.96837647 4.89858661 -3 7 C-3 5.35 -3 3.7 -3 2 C-2.01 2 -1.02 2 0 2 C0 1.34 0 0.68 0 0 Z " fill="#E67828" transform="translate(183,401)"/>
<path d="M0 0 C2.25245881 2.68841859 3.88213958 4.64641875 5 8 C4.01 8 3.02 8 2 8 C0.74335022 5.09399739 0 3.20395416 0 0 Z " fill="#ED7A37" transform="translate(795,552)"/>
<path d="M0 0 C0.99 0 1.98 0 3 0 C2.01 2.97 1.02 5.94 0 9 C-1.15941038 5.52176885 -0.70820884 3.54104422 0 0 Z " fill="#E6833C" transform="translate(575,528)"/>
<path d="M0 0 C1.32 0.33 2.64 0.66 4 1 C4.33 3.31 4.66 5.62 5 8 C2.27573689 5.64722731 1.1858237 3.37503669 0 0 Z " fill="#E67C36" transform="translate(785,504)"/>
<path d="M0 0 C0.66 0.33 1.32 0.66 2 1 C2 1.99 2 2.98 2 4 C1.34 4 0.68 4 0 4 C-0.33 5.32 -0.66 6.64 -1 8 C-1.93065133 5.39417629 -2.14917407 4.35801776 -1.0625 1.75 C-0.711875 1.1725 -0.36125 0.595 0 0 Z " fill="#FCE9D5" transform="translate(514,480)"/>
<path d="M0 0 C0.33 0 0.66 0 1 0 C1 1.98 1 3.96 1 6 C0.01 6.495 0.01 6.495 -1 7 C-1.66 6.67 -2.32 6.34 -3 6 C-1.125 1.125 -1.125 1.125 0 0 Z " fill="#F9DABF" transform="translate(503,473)"/>
<path d="M0 0 C1.32 0.33 2.64 0.66 4 1 C4.33 2.98 4.66 4.96 5 7 C3.29115995 5.37660195 1.62553283 3.70680947 0 2 C0 1.34 0 0.68 0 0 Z " fill="#FDE7CD" transform="translate(451,460)"/>
<path d="M0 0 C0 1.65 0 3.3 0 5 C-3 5 -3 5 -6 4 C-1.125 0 -1.125 0 0 0 Z " fill="#F68136" transform="translate(290,450)"/>
<path d="M0 0 C1.65 1.65 3.3 3.3 5 5 C4.67 5.66 4.34 6.32 4 7 C2 5.75 2 5.75 0 4 C0 2.68 0 1.36 0 0 Z " fill="#FDE5D5" transform="translate(948,449)"/>
<path d="M0 0 C1.32 0.33 2.64 0.66 4 1 C3.01 1.495 3.01 1.495 2 2 C2 2.66 2 3.32 2 4 C0.68 4.33 -0.64 4.66 -2 5 C-2 4.01 -2 3.02 -2 2 C-1.34 2 -0.68 2 0 2 C0 1.34 0 0.68 0 0 Z " fill="#FAF8F0" transform="translate(324,450)"/>
<path d="M0 0 C1.32 0 2.64 0 4 0 C3.6875 1.9375 3.6875 1.9375 3 4 C2.01 4.33 1.02 4.66 0 5 C0 3.35 0 1.7 0 0 Z " fill="#F86F0A" transform="translate(290,450)"/>
<path d="M0 0 C2.8002232 1.4001116 3.56776098 3.26572551 5 6 C5 6.99 5 7.98 5 9 C2.5 6.75 2.5 6.75 0 4 C0 2.68 0 1.36 0 0 Z " fill="#E98035" transform="translate(438,443)"/>
<path d="M0 0 C1 2 1 2 0.375 4.0625 C-1 6 -1 6 -3.625 6.75 C-4.800625 6.87375 -4.800625 6.87375 -6 7 C-4.02 4.69 -2.04 2.38 0 0 Z " fill="#F29153" transform="translate(314,424)"/>
<path d="M0 0 C1.32 0.33 2.64 0.66 4 1 C3.195625 1.45375 2.39125 1.9075 1.5625 2.375 C-1.08856572 3.74725665 -1.08856572 3.74725665 -2 6 C-2.66 5.67 -3.32 5.34 -4 5 C-2.68 3.35 -1.36 1.7 0 0 Z " fill="#FEE1C8" transform="translate(184,403)"/>
<path d="M0 0 C0.66 0 1.32 0 2 0 C1.67 2.64 1.34 5.28 1 8 C0.34 8 -0.32 8 -1 8 C-1.33 6.68 -1.66 5.36 -2 4 C-1.34 4 -0.68 4 0 4 C0 2.68 0 1.36 0 0 Z " fill="#FBF1EB" transform="translate(347,384)"/>
</svg>
