<?xml version="1.0" encoding="UTF-8" standalone="no"?>
<svg
   version="1.1"
   width="595.27557pt"
   height="841.88977pt"
   id="svg3"
   viewBox="0 0 595.27557 841.88977"
   sodipodi:docname="bembos-37626_logosenvector.com_2.cdr"
   xmlns:inkscape="http://www.inkscape.org/namespaces/inkscape"
   xmlns:sodipodi="http://sodipodi.sourceforge.net/DTD/sodipodi-0.dtd"
   xmlns="http://www.w3.org/2000/svg"
   xmlns:svg="http://www.w3.org/2000/svg">
  <defs
     id="defs3" />
  <sodipodi:namedview
     id="namedview3"
     pagecolor="#ffffff"
     bordercolor="#000000"
     borderopacity="0.25"
     inkscape:showpageshadow="2"
     inkscape:pageopacity="0.0"
     inkscape:pagecheckerboard="0"
     inkscape:deskcolor="#d1d1d1"
     inkscape:document-units="pt" />
  <path
     d="m 399.6103,353.8037 -57.2319,4.9926 1.9262,-8.9929 57.1997,-4.9926 z"
     style="fill:#ffb500;fill-rule:evenodd"
     id="path1" />
  <path
     d="m 431.1762,290.3882 c 1.3046,-0.1243 4.5054,0.1857 5.9664,1.4882 l 3.0758,-14.3884 c -2.9207,-0.4036 -7.4575,-0.4036 -10.2853,-0.155 -14.3233,1.2088 -19.3252,12.28 -20.7841,16.9003 -2.8285,-8.7141 -11.0626,-14.1097 -21.9051,-13.1795 -15.5351,1.3339 -31.4124,15.2265 -34.8925,31.0416 -0.1243,0.558 -0.2486,1.1467 -0.3107,1.7054 -1.4289,-2.4192 -3.9767,-3.8145 -7.5497,-4.2174 2.4235,0.2479 9.0722,-4.2796 8.6685,-13.0245 -0.3415,-7.256 -6.4622,-10.5125 -17.2747,-9.4579 l -14.0748,1.2403 -8.5134,39.9407 -6.4315,-39.5378 -20.3197,24.5293 -11.7134,-21.2728 -17.9585,40.9024 -21.3764,1.8604 1.4603,-6.7601 16.9332,-1.489 2.5163,-11.8763 -16.9332,1.4882 1.4296,-6.7601 21.1278,-1.8605 3.0443,-14.2647 -35.4504,3.1007 -7.2081,33.925 c -0.1558,-5.5505 -3.2315,-8.6827 -8.8549,-9.3028 2.4234,0.2479 9.0721,-4.2796 8.6684,-13.0245 -0.3422,-7.256 -6.4629,-10.5117 -17.2754,-9.4579 l -14.0748,1.2403 -11.4955,53.9575 20.2269,-1.7675 c 11.2161,-0.9609 18.2378,-7.9383 21.0342,-13.3345 l -2.4856,11.722 47.6925,-4.1553 10.5017,-23.6605 8.4506,15.1021 13.0495,-15.6915 2.7034,21.2106 30.0135,-2.6041 c 13.0809,-1.1167 20.4755,-10.4196 22.0601,-15.8773 2.7028,8.9621 11.0297,14.5434 22.028,13.5824 15.5351,-1.3338 31.4116,-15.2264 34.9239,-31.0415 0.1228,-0.6201 0.2479,-1.2403 0.34,-1.829 3.1701,5.0541 9.7566,6.5737 8.7942,10.9461 -0.5901,2.6978 -2.7656,4.3103 -5.3762,4.5275 -1.3668,0.1243 -3.1679,0.0929 -6.493,-0.5894 l -2.9514,13.8618 c 0,0 6.6809,1.4575 13.0188,0.3408 9.1343,-1.6125 18.0206,-6.4501 19.0151,-19.536 1.1167,-14.3891 -12.4593,-13.148 -11.0304,-19.7224 0.6523,-3.1944 3.2629,-4.5275 6.2757,-4.7754 z m -225.1646,44.3439 c -0.4036,1.8611 -2.0197,5.0862 -6.4622,5.4584 l -3.6044,0.3101 2.0819,-9.7066 3.2,-0.2793 c 2.2991,-0.1858 5.6856,0.2486 4.7847,4.2174 z m 3.418,-20.7456 c -0.9946,4.2489 -4.909,4.6204 -6.5558,4.7754 l -2.3306,0.2172 1.8333,-8.5277 2.4549,-0.2172 c 1.6153,-0.155 5.5612,-0.4029 4.5982,3.7523 z m 127.5111,9.3029 c -0.4037,1.8612 -2.019,5.0862 -6.4622,5.4584 l -3.6044,0.3094 2.0819,-9.7059 3.2,-0.2793 c 2.2991,-0.155 5.6549,0.2486 4.7847,4.2174 z m 3.3865,-20.7148 c -0.9938,4.2488 -4.909,4.6211 -6.5558,4.7447 l -2.3298,0.2171 1.8333,-8.5277 2.4541,-0.2171 c 1.6468,-0.1551 5.5927,-0.403 4.5982,3.783 z m 54.4963,5.8921 c -1.6761,7.5046 -9.3815,14.6062 -17.0261,15.2571 -7.5796,0.6509 -12.5208,-5.0855 -10.7804,-12.9002 1.709,-7.8146 9.4444,-14.6369 17.0261,-15.2571 7.6425,-0.6509 12.4272,5.3963 10.7804,12.9002 z"
     style="fill:#002395;fill-rule:evenodd"
     id="path2" />
  <path
     d="m 350.3946,277.0229 -57.2005,4.9926 1.9269,-8.9621 57.1997,-4.9926 z"
     style="fill:#ff000f;fill-rule:evenodd"
     id="path3" />
</svg>
