<?xml version="1.0" standalone="no"?>
<!DOCTYPE svg PUBLIC "-//W3C//DTD SVG 20010904//EN"
 "http://www.w3.org/TR/2001/REC-SVG-20010904/DTD/svg10.dtd">
<svg version="1.0" xmlns="http://www.w3.org/2000/svg"
 width="334.000000pt" height="327.000000pt" viewBox="0 0 334.000000 327.000000"
 preserveAspectRatio="xMidYMid meet">

<g transform="translate(0.000000,327.000000) scale(0.100000,-0.100000)"
fill="#000000" stroke="none">
<path d="M0 1635 l0 -1635 1670 0 1670 0 0 1635 0 1635 -1670 0 -1670 0 0
-1635z m2729 80 c88 -165 163 -308 167 -318 6 -16 1 -18 -57 -15 l-63 3 -107
205 c-59 113 -113 205 -119 205 -7 0 -32 -38 -57 -85 -24 -47 -74 -140 -109
-207 l-65 -123 -60 0 c-44 0 -60 3 -57 13 2 7 79 156 172 330 137 257 172 315
182 305 7 -7 85 -148 173 -313z m-1903 206 c48 -22 80 -59 96 -112 14 -48 0
-104 -38 -149 -19 -22 -22 -30 -11 -30 23 0 65 -56 78 -103 8 -31 8 -55 0 -91
-15 -64 -42 -99 -96 -125 -41 -19 -62 -21 -250 -21 l-205 0 0 325 0 325 193 0
c165 0 198 -3 233 -19z m652 3 c107 -44 145 -172 75 -254 l-24 -29 34 -31 c62
-54 73 -168 24 -242 -12 -18 -42 -43 -67 -55 -42 -21 -59 -22 -252 -23 l-208
0 0 325 0 325 190 0 c150 0 199 -3 228 -16z m378 -194 c60 -115 114 -210 119
-210 6 0 59 95 120 210 l109 210 64 0 64 0 -57 -107 c-189 -359 -291 -543
-300 -543 -9 0 -64 100 -288 522 l-68 128 65 0 64 0 108 -210z m726 -540 c44
-13 58 -34 58 -89 0 -50 -32 -78 -101 -87 l-49 -7 0 -43 c0 -42 -1 -44 -30
-44 l-30 0 0 140 0 140 58 0 c31 0 74 -5 94 -10z m288 -20 l0 -30 -66 0 -65 0
3 -27 c3 -26 7 -28 56 -31 48 -3 52 -5 52 -28 0 -23 -3 -24 -55 -24 -54 0 -55
0 -55 -30 l0 -30 70 0 c68 0 70 -1 70 -25 l0 -25 -100 0 -100 0 0 133 c0 74 3
137 7 140 3 4 46 7 95 7 l88 0 0 -30z"/>
<path d="M510 1765 l0 -85 128 0 c144 0 167 8 178 64 14 79 -36 106 -196 106
l-110 0 0 -85z"/>
<path d="M510 1480 l0 -100 118 0 c152 0 189 10 208 57 11 25 13 46 7 72 -14
58 -51 71 -205 71 l-128 0 0 -100z"/>
<path d="M1177 1843 c-4 -3 -7 -42 -7 -85 l0 -78 128 0 c144 0 167 8 178 64
14 78 -37 106 -189 106 -57 0 -107 -3 -110 -7z"/>
<path d="M1172 1483 l3 -98 113 -3 c138 -3 186 8 207 48 22 42 19 85 -9 117
-24 28 -24 28 -170 31 l-147 4 3 -99z"/>
<path d="M2490 1101 c0 -38 2 -41 28 -41 40 0 65 21 60 51 -3 21 -9 24 -45 27
l-43 3 0 -40z"/>
</g>
</svg>
