<?xml version="1.0" encoding="UTF-8"?>
<svg version="1.1" xmlns="http://www.w3.org/2000/svg" width="334" height="334" viewBox="0 -3.5 334 334">
<rect x="0" y="-3.5" width="334" height="334" fill="#001091"/>
<path d="M0 0 C110.22 0 220.44 0 334 0 C334 107.91 334 215.82 334 327 C223.78 327 113.56 327 0 327 C0 219.09 0 111.18 0 0 Z " fill="#001091" transform="translate(0,0)"/>
<path d="M0 0 C6.084375 -0.0825 12.16875 -0.165 18.4375 -0.25 C20.33943115 -0.28641602 22.2413623 -0.32283203 24.20092773 -0.36035156 C42.21870293 -0.56346531 42.21870293 -0.56346531 48.59155273 5.51904297 C52.66308099 10.1615309 53.39422228 13.37646217 53.359375 19.37890625 C52.76982511 23.67877552 50.8972211 25.82685308 48 29 C47.34 29 46.68 29 46 29 C46 29.66 46 30.32 46 31 C46.763125 31.268125 47.52625 31.53625 48.3125 31.8125 C51.83628944 33.36952324 53.32109443 34.78511635 55.1875 38.125 C57.12093328 44.96637929 56.34274199 50.70912358 53.203125 57.0546875 C50.51138157 61.406922 46.7691028 63.51877464 42 65 C38.77274995 65.26955287 35.56072411 65.23288952 32.32421875 65.1953125 C31.50360962 65.19329834 30.68300049 65.19128418 29.83752441 65.18920898 C26.78745899 65.17878623 23.73747357 65.15086372 20.6875 65.125 C13.860625 65.08375 7.03375 65.0425 0 65 C0 43.55 0 22.1 0 0 Z " fill="#F7F9FC" transform="translate(106,133)"/>
<path d="M0 0 C6.27 -0.0825 12.54 -0.165 19 -0.25 C20.96324219 -0.28641602 22.92648438 -0.32283203 24.94921875 -0.36035156 C26.52863476 -0.3720486 28.10806295 -0.38223801 29.6875 -0.390625 C30.88922852 -0.4213208 30.88922852 -0.4213208 32.11523438 -0.45263672 C39.42408428 -0.45710423 44.50226011 1.76797712 49.9375 6.625 C52.65152907 11.06613847 53.16417025 14.84159779 53 20 C52.06620446 23.57954958 50.45943685 26.23313354 48 29 C47.34 29 46.68 29 46 29 C46 29.66 46 30.32 46 31 C46.7425 31.226875 47.485 31.45375 48.25 31.6875 C51.79304515 33.37849882 53.03793384 34.56638423 55 38 C56.56101936 44.77503641 56.57561009 50.91591926 53 57 C49.26584844 61.66768945 44.76274391 64.55728445 38.79348755 65.25961304 C36.30612696 65.34524163 33.836031 65.33792871 31.34765625 65.29296875 C30.54871948 65.28994751 29.74978271 65.28692627 28.92663574 65.28381348 C25.97179046 65.26824025 23.01713083 65.22635711 20.0625 65.1875 C13.441875 65.125625 6.82125 65.06375 0 65 C0 43.55 0 22.1 0 0 Z " fill="#F8FAFD" transform="translate(40,133)"/>
<path d="M0 0 C4.22159573 1.40719858 5.07481642 4.35669515 6.984375 8.11328125 C7.36305725 8.83807175 7.7417395 9.56286224 8.13189697 10.30961609 C9.34711371 12.63927039 10.54908957 14.97544356 11.75 17.3125 C13.32380589 20.35251484 14.90303579 23.38967917 16.484375 26.42578125 C16.8696788 27.16745544 17.2549826 27.90912964 17.65196228 28.67327881 C20.44340728 34.01712353 23.40886302 39.22079614 26.48583984 44.40600586 C28.62541415 48.07143265 30.55808862 51.8211614 32.4375 55.625 C32.78748047 56.31722656 33.13746094 57.00945312 33.49804688 57.72265625 C36 62.74614726 36 62.74614726 36 65 C32.04 65 28.08 65 24 65 C16.53906533 51.39853663 9.17818944 37.75290279 2 24 C1.34 24 0.68 24 0 24 C-0.40726318 24.77694214 -0.40726318 24.77694214 -0.82275391 25.56958008 C-5.81319453 35.08478543 -10.81792829 44.58736691 -16 54 C-17.12572687 56.06210336 -18.25073282 58.12460045 -19.375 60.1875 C-20.24125 61.775625 -21.1075 63.36375 -22 65 C-25.96 65 -29.92 65 -34 65 C-33.05402485 61.2160994 -31.82886657 58.48139569 -30.04296875 55.0390625 C-29.74380051 54.46028351 -29.44463226 53.88150452 -29.13639832 53.28518677 C-28.15796445 51.39606512 -27.1730424 49.51042168 -26.1875 47.625 C-25.50788681 46.31807985 -24.82836282 45.0111133 -24.14892578 43.70410156 C-18.25202727 32.38582709 -12.18082278 21.16565868 -6 10 C-5.5349707 9.15244141 -5.06994141 8.30488281 -4.59082031 7.43164062 C-4.14061523 6.61373047 -3.69041016 5.79582031 -3.2265625 4.953125 C-2.82260254 4.21739258 -2.41864258 3.48166016 -2.00244141 2.72363281 C-1 1 -1 1 0 0 Z " fill="#F5F7FC" transform="translate(254,124)"/>
<path d="M0 0 C3.96 0 7.92 0 12 0 C17.35850313 9.48718587 22.621818 18.98724971 27.3984375 28.78320312 C28.73965331 31.5260758 30.10557456 34.16925445 31.72265625 36.76171875 C33 39 33 39 33 42 C33.99 42 34.98 42 36 42 C36.26119629 41.14784912 36.52239258 40.29569824 36.79150391 39.41772461 C38.04963063 35.85964058 39.59474039 32.66360553 41.3359375 29.31640625 C41.81687363 28.3885154 41.81687363 28.3885154 42.30752563 27.44187927 C42.98292105 26.14077249 43.66039456 24.84074252 44.33984375 23.54174805 C45.36910591 21.57376967 46.39214041 19.60265756 47.4140625 17.63085938 C50.5034692 11.68812619 53.65084259 5.80044579 57 0 C61.29 0 65.58 0 70 0 C68.7101816 3.224546 67.58179288 5.91570246 65.8984375 8.86328125 C65.49488037 9.57693848 65.09132324 10.2905957 64.67553711 11.02587891 C64.24635986 11.78046387 63.81718262 12.53504883 63.375 13.3125 C60.07189168 19.1797929 56.89762012 25.07736981 53.9375 31.125 C50.89157202 37.3414797 47.59508437 43.37562491 44.1640625 49.38720703 C41.25264015 54.50141768 38.54007726 59.69008975 36 65 C35.01 65 34.02 65 33 65 C32.63874023 64.2972998 32.27748047 63.59459961 31.90527344 62.87060547 C25.56928478 50.56085618 19.21396296 38.26821117 12.5625 26.125 C11.82676758 24.78127319 11.82676758 24.78127319 11.07617188 23.41040039 C8.96018491 19.55334297 6.83477027 15.70172233 4.69921875 11.85546875 C4.04940132 10.674522 3.39965487 9.49353619 2.75 8.3125 C1.93789062 6.85263672 1.93789062 6.85263672 1.109375 5.36328125 C0 3 0 3 0 0 Z " fill="#F5F8FC" transform="translate(163,133)"/>
<path d="M0 0 C4.22933734 -0.05395328 8.45798605 -0.09365368 12.6875 -0.125 C13.88568359 -0.14175781 15.08386719 -0.15851563 16.31835938 -0.17578125 C17.47529297 -0.18222656 18.63222656 -0.18867188 19.82421875 -0.1953125 C21.41882935 -0.21102295 21.41882935 -0.21102295 23.0456543 -0.22705078 C26.98431469 0.07564769 29.85772805 0.97589411 32.8125 3.625 C34.53406432 7.06812863 34.80372839 10.2836779 34 14 C31.46546343 17.21954645 29.88702695 18.70432435 26 20 C24.0079697 20.08291953 22.01326287 20.10738177 20.01953125 20.09765625 C18.85615234 20.09443359 17.69277344 20.09121094 16.49414062 20.08789062 C15.27919922 20.07951172 14.06425781 20.07113281 12.8125 20.0625 C11.58595703 20.05798828 10.35941406 20.05347656 9.09570312 20.04882812 C6.06378135 20.03703076 3.0318846 20.01909514 0 20 C0 13.4 0 6.8 0 0 Z " fill="#061690" transform="translate(117,169)"/>
<path d="M0 0 C4.20872148 -0.08105241 8.4158763 -0.14053316 12.625 -0.1875 C14.40970703 -0.22520508 14.40970703 -0.22520508 16.23046875 -0.26367188 C27.41391766 -0.35738793 27.41391766 -0.35738793 32 3 C34.4486325 6.67294875 34.83183438 9.73268965 34 14 C31.46546343 17.21954645 29.88702695 18.70432435 26 20 C24.0079697 20.08291953 22.01326287 20.10738177 20.01953125 20.09765625 C18.85615234 20.09443359 17.69277344 20.09121094 16.49414062 20.08789062 C15.27919922 20.07951172 14.06425781 20.07113281 12.8125 20.0625 C11.58595703 20.05798828 10.35941406 20.05347656 9.09570312 20.04882812 C6.06378135 20.03703076 3.0318846 20.01909514 0 20 C0 13.4 0 6.8 0 0 Z " fill="#061690" transform="translate(51,169)"/>
<path d="M0 0 C3.70877584 -0.08114826 7.41576511 -0.14057594 11.125 -0.1875 C12.17171875 -0.21263672 13.2184375 -0.23777344 14.296875 -0.26367188 C19.95145821 -0.31735463 24.15295022 -0.28169108 29 3 C31.54731042 5.54731042 31.35323144 7.44515279 31.55859375 10.9296875 C30.68459194 14.16899492 28.7396658 15.17903015 26 17 C23.0456543 17.45410156 23.0456543 17.45410156 19.82421875 17.390625 C18.66728516 17.37773437 17.51035156 17.36484375 16.31835938 17.3515625 C15.12017578 17.31804687 13.92199219 17.28453125 12.6875 17.25 C10.8612207 17.22292969 10.8612207 17.22292969 8.99804688 17.1953125 C5.99836045 17.1482586 2.99907948 17.07651797 0 17 C0 11.39 0 5.78 0 0 Z " fill="#06178F" transform="translate(117,142)"/>
<path d="M0 0 C3.87575108 -0.1081605 7.74846959 -0.1874032 11.625 -0.25 C13.26662109 -0.30027344 13.26662109 -0.30027344 14.94140625 -0.3515625 C21.25899979 -0.42813939 25.25623595 -0.37138667 30 4 C31.44430855 6.88861709 31.37688506 8.79647701 31 12 C29.34628508 14.61997329 28.6617269 15.59221385 26 17 C21.54942507 17.62517075 17.17041452 17.46924526 12.6875 17.3125 C11.46998047 17.28994141 10.25246094 17.26738281 8.99804688 17.24414062 C5.99817071 17.18531952 2.99892804 17.09564264 0 17 C0 11.39 0 5.78 0 0 Z " fill="#04168F" transform="translate(51,142)"/>
<path d="M0 0 C14 0 14 0 20 3 C21.73156388 6.46312775 21.61171713 10.22214254 21 14 C18.40798407 16.80217939 16.60113499 17.79962167 13 19 C10.66700175 19.03954234 8.33291811 19.04401732 6 19 C6 21.97 6 24.94 6 28 C4.02 28 2.04 28 0 28 C0 18.76 0 9.52 0 0 Z " fill="#EEF2F9" transform="translate(243,207)"/>
<path d="M0 0 C6.27 0 12.54 0 19 0 C19 1.98 19 3.96 19 6 C14.71 6 10.42 6 6 6 C6 7.98 6 9.96 6 12 C9.63 12 13.26 12 17 12 C17 13.65 17 15.3 17 17 C13.7 17 10.4 17 7 17 C7 18.98 7 20.96 7 23 C11.29 23 15.58 23 20 23 C20 24.98 20 26.96 20 29 C13.4 29 6.8 29 0 29 C0 19.43 0 9.86 0 0 Z " fill="#DBE0EE" transform="translate(268,207)"/>
<path d="M0 0 C6.15234375 -0.09765625 6.15234375 -0.09765625 8 0 C9 1 9 1 9.1875 3.4375 C9 6 9 6 7 8 C3.375 8.125 3.375 8.125 0 8 C0 5.36 0 2.72 0 0 Z " fill="#071489" transform="translate(249,213)"/>
<path d="M0 0 C0.99 0.33 1.98 0.66 3 1 C2.67 2.32 2.34 3.64 2 5 C2.33 5 2.66 5 3 5 C3.99250545 10.70690634 4.10477512 16.21408489 4 22 C3.67 22 3.34 22 3 22 C2.93941406 21.38511719 2.87882812 20.77023438 2.81640625 20.13671875 C2.73261719 19.32847656 2.64882813 18.52023438 2.5625 17.6875 C2.48128906 16.88699219 2.40007812 16.08648437 2.31640625 15.26171875 C2.04734307 12.83912821 2.04734307 12.83912821 1 10 C0.34 10 -0.32 10 -1 10 C-1 10.66 -1 11.32 -1 12 C-1.99 12.33 -2.98 12.66 -4 13 C-4.33 12.34 -4.66 11.68 -5 11 C-4.360625 10.67 -3.72125 10.34 -3.0625 10 C0.0552764 6.97670168 -0.27956936 4.26343276 0 0 Z " fill="#15218F" transform="translate(264,213)"/>
<path d="M0 0 C0.66 0.66 1.32 1.32 2 2 C0.7027994 5.05866247 -0.65436381 7.62329578 -3 10 C-6.43621724 10.87928322 -9.56377729 10.89402609 -13 10 C-13.66 9.01 -14.32 8.02 -15 7 C-13.75283203 6.99613281 -13.75283203 6.99613281 -12.48046875 6.9921875 C-9.21814355 6.87609052 -6.192901 6.6907092 -3 6 C-0.60751405 3.14397465 -0.60751405 3.14397465 0 0 Z " fill="#0B1D88" transform="translate(235,182)"/>
<path d="M0 0 C0.33 0 0.66 0 1 0 C1 5.94 1 11.88 1 18 C0.67 18 0.34 18 0 18 C-0.144375 17.236875 -0.28875 16.47375 -0.4375 15.6875 C-0.9632594 12.91827092 -0.9632594 12.91827092 -2 10 C-1.67 9.01 -1.34 8.02 -1 7 C-1.66 6.67 -2.32 6.34 -3 6 C-1.125 1.125 -1.125 1.125 0 0 Z " fill="#041282" transform="translate(267,207)"/>
<path d="M0 0 C1.5625 1.125 1.5625 1.125 3 3 C2.6875 6.1875 2.6875 6.1875 2 9 C0.02 8.01 -1.96 7.02 -4 6 C-4 4 -4 4 -2 1.875 C-1.34 1.25625 -0.68 0.6375 0 0 Z " fill="#1C2991" transform="translate(90,158)"/>
<path d="M0 0 C4.29 0 8.58 0 13 0 C10.63546807 2.36453193 9.74130071 2.36652704 6.5 2.6875 C5.7059375 2.77386719 4.911875 2.86023438 4.09375 2.94921875 C2 3 2 3 0 2 C0 1.34 0 0.68 0 0 Z " fill="#041989" transform="translate(277,189)"/>
<path d="M0 0 C0.33 0 0.66 0 1 0 C1 1.65 1 3.3 1 5 C4.465 4.505 4.465 4.505 8 4 C7.01 5.485 7.01 5.485 6 7 C2.375 7.1875 2.375 7.1875 -1 7 C-0.67 4.69 -0.34 2.38 0 0 Z " fill="#263198" transform="translate(250,214)"/>
<path d="M0 0 C0.33 0 0.66 0 1 0 C1.36923077 5.53846154 1.36923077 5.53846154 -0.5 7.875 C-1.2425 8.431875 -1.2425 8.431875 -2 9 C-1.125 1.125 -1.125 1.125 0 0 Z " fill="#27328F" transform="translate(81,148)"/>
<path d="M0 0 C1.32 0 2.64 0 4 0 C4 2.97 4 5.94 4 9 C3.67 9 3.34 9 3 9 C2 6 1 3 0 0 Z " fill="#152389" transform="translate(92,167)"/>
<path d="M0 0 C3.0916909 2.52956528 3.90931332 5.22454612 5 9 C2.5 6.75 2.5 6.75 0 4 C0 2.68 0 1.36 0 0 Z " fill="#212F91" transform="translate(260,156)"/>
</svg>
