<?xml version="1.0" encoding="utf-8"?>
<!-- Generator: Adobe Illustrator 19.2.1, SVG Export Plug-In . SVG Version: 6.00 Build 0)  -->
<svg version="1.1" id="layer" xmlns="http://www.w3.org/2000/svg" xmlns:xlink="http://www.w3.org/1999/xlink" x="0px" y="0px"
	 viewBox="0 0 652 652" style="enable-background:new 0 0 652 652;" xml:space="preserve">
<style type="text/css">
	.st0{fill:#005496;}
	.st1{fill:#F5813E;}
</style>
<g>
	<path class="st0" d="M302.5,260.9c18.7-15.1,47-19.6,71.1-13c9,2.3,19.4,6.6,21.4,15.4c0.2,7.3-3.2,14.3-4.6,21.4
		c-11.4-9.2-28-12.2-43.1-10.1c-16.3,2.9-27.9,15.1-33.9,27.9c-7,15.1-10.2,32.4-3.9,48.1c3.3,8.4,11,15.6,20.9,18.3
		c15.7,4.1,32.6-1,44.3-10.5c-2.3,9.1-3.5,18.5-6.4,27.5c-3,7.4-12.5,10.1-20.6,11.4c-21.3,3.4-45.9-0.4-60.9-14.9
		c-14.8-14-18.1-33.9-17.4-52.2C270.5,304.9,280.3,278.4,302.5,260.9"/>
	<path class="st0" d="M177.2,329.7c-2.8,9.7-4.4,19.6-6.7,29.4c-0.8,4.2-3.2,8.8,0.4,12.5c11.3,0,23.4,0.7,33.3-5
		c11.8-6,15.7-22.2,5.9-31.1C201.1,328.5,188.3,330.1,177.2,329.7 M189.5,272.6c-2.1,10.2-4.7,20.3-6.4,30.5c-0.5,2.9,3.4,4.1,6,3.7
		c10.6,0.3,22.6-0.8,30.4-7.8c7.1-6.5,8-19.5-1.9-24.3C209.1,270.5,198.9,272.4,189.5,272.6 M160.2,250.9c15.7-2.5,31.7-4,47.6-3.6
		c14.6,0.7,30.3,3.4,41.2,12.7c12.9,10.7,13.3,29.8,2.9,42c-6.3,7.4-15.5,12.8-25.8,14.9c8.1,2.9,16.1,7.1,20,14.3
		c9.4,16.8,4.3,38.7-11.7,51c-12.7,10.2-30.3,13.8-47,14.8c-12.4,0.4-25.2,0.1-37.2-3.3c-6.4-1.7-11.4-6.2-13.5-11.7
		c-3.1-8-1.9-16.7,0-24.8C144.7,321.7,152.1,286.2,160.2,250.9"/>
	<path class="st0" d="M450.5,273.7c-3.1,14-6.3,28-9.1,42.1c-1,2.8,1.3,5.5,4.1,6.7c8.6,1.4,17.8,0.1,25.4-3.7
		c14.3-7.3,20.3-24.4,13.8-37.5C477.9,271,462.1,272.8,450.5,273.7 M418.6,251.7c11-3,22.8-3.3,34.3-3.7c15.9-0.2,32.8,0.2,46.8,7.6
		c10.8,5.3,17.2,15.6,18.5,26c3.7,23.2-9.6,48.2-33.7,59.4c-15.9,7.8-34.6,8.3-52.4,7.3c-2.9,11.5-4.8,23.2-7.9,34.6
		c-1.6,6.1-6,12-13.2,13.9c-8.2,0.7-16.4,0.1-24.6,0.3C397.7,348.7,407.5,300.1,418.6,251.7"/>
	<path class="st0" d="M534.5,284.1c5-10.4,11.8-21.4,24.2-25.9c6.3-2.1,12.9,0.8,16.6,5.3c7.4,16.1,5.6,34.1-0.2,50.3
		C563.9,301.7,550.2,291.4,534.5,284.1"/>
	<path class="st1" d="M575.3,263.5c14.1,6.4,24.3,17.9,33.9,28.8c7.4,8.1,12.3,18.4,11.1,29c-0.8,9-6.1,17-12.2,23.9
		c-12.1,13.9-27.1,25.7-43.4,35.7c-6.7,3.8-14.9,7.2-23,5c-11-2.5-18.4-11.2-22.8-20c24-11.8,46.3-28.8,56.3-52.1
		C581,297.6,582.7,279.6,575.3,263.5"/>
	<path class="st0" d="M36.1,284.1c5-10.4,11.8-21.4,24.2-25.9c6.3-2.1,12.9,0.8,16.6,5.3c7.4,16.1,5.6,34.1-0.2,50.3
		C65.6,301.7,51.8,291.4,36.1,284.1"/>
	<path class="st1" d="M77,263.5c14.1,6.4,24.3,17.9,33.9,28.8c7.4,8.1,12.3,18.4,11.1,29c-0.8,9-6.1,17-12.2,23.9
		c-12.1,13.9-27.1,25.7-43.4,35.7c-6.7,3.8-14.9,7.2-23,5c-11-2.5-18.4-11.2-22.8-20c24-11.8,46.3-28.8,56.3-52.1
		C82.6,297.6,84.4,279.6,77,263.5"/>
</g>
</svg>
