<?xml version="1.0" standalone="no"?>
<!DOCTYPE svg PUBLIC "-//W3C//DTD SVG 20010904//EN"
 "http://www.w3.org/TR/2001/REC-SVG-20010904/DTD/svg10.dtd">
<svg version="1.0" xmlns="http://www.w3.org/2000/svg"
 width="400.000000pt" height="400.000000pt" viewBox="0 0 400.000000 400.000000"
 preserveAspectRatio="xMidYMid meet">

<g transform="translate(0.000000,400.000000) scale(0.100000,-0.100000)"
fill="#000000" stroke="none">
<path d="M2095 3170 l-1040 -5 -47 -23 c-64 -32 -95 -57 -125 -104 -55 -89
-53 -36 -53 -1161 0 -572 1 -1042 3 -1044 3 -2 472 -3 1044 -3 1137 0 1080 -2
1168 58 22 15 52 45 67 67 60 86 58 45 60 1177 3 1058 3 1058 -30 1046 -4 -2
-475 -5 -1047 -8z m520 -1059 c0 -485 -3 -613 -13 -620 -7 -4 -49 -13 -95 -20
-45 -7 -91 -16 -102 -21 -11 -4 -69 -16 -130 -25 -60 -10 -141 -23 -180 -30
-38 -7 -135 -25 -215 -39 -80 -14 -192 -35 -250 -46 -152 -30 -223 -41 -237
-35 -11 3 -13 127 -13 614 0 345 4 613 9 616 8 4 103 23 206 41 95 16 326 57
390 69 44 8 130 24 190 35 242 43 352 63 385 70 19 4 40 7 45 5 7 -1 10 -214
10 -614z"/>
</g>
</svg>
