<?xml version="1.0" encoding="UTF-8" standalone="no"?>
<!-- Created with Inkscape (http://www.inkscape.org/) -->

<svg
   version="1.1"
   id="svg1"
   width="453.33334"
   height="453.33334"
   viewBox="0 0 453.33334 453.33334"
   sodipodi:docname="plin-interbank-4391_logosenvector.com_2.eps"
   xmlns:inkscape="http://www.inkscape.org/namespaces/inkscape"
   xmlns:sodipodi="http://sodipodi.sourceforge.net/DTD/sodipodi-0.dtd"
   xmlns="http://www.w3.org/2000/svg"
   xmlns:svg="http://www.w3.org/2000/svg">
  <defs
     id="defs1">
    <linearGradient
       x1="141.817"
       y1="410.08499"
       x2="416.694"
       y2="684.961"
       gradientUnits="userSpaceOnUse"
       gradientTransform="matrix(10,0,0,10,-1270,-3950)"
       spreadMethod="pad"
       id="linearGradient4">
      <stop
         style="stop-opacity:1;stop-color:#416bbd"
         offset="0"
         id="stop1" />
      <stop
         style="stop-opacity:1;stop-color:#3cb9d1"
         offset="0.328125"
         id="stop2" />
      <stop
         style="stop-opacity:1;stop-color:#4ac2b8"
         offset="0.601563"
         id="stop3" />
      <stop
         style="stop-opacity:1;stop-color:#52c4b0"
         offset="1"
         id="stop4" />
    </linearGradient>
    <clipPath
       clipPathUnits="userSpaceOnUse"
       id="clipPath4">
      <path
         d="m 1655.73,8.51563 v 0.22265 h -7.97 c -7.69,0.23438 -15.37,0.51563 -23.03,0.85547 v 0.14453 h -3.32 c -4.89,0.22266 -9.79,0.46872 -14.68,0.73442 v 0.2656 h -4.64 c -4.46,0.2539 -8.91,0.5273 -13.36,0.8164 v 0.1836 h -2.74 c -8.44,0.5625 -16.86,1.1836 -25.26,1.875 v 0.1211 h -1.5 c -3.17,0.2656 -6.34,0.539 -9.5,0.8164 v 0.1875 h -2.06 c -2.98,0.2656 -5.96,0.543 -8.94,0.8242 v 0.1758 h -1.85 l -8.15,0.8047 v 0.1953 h -1.91 c -3.03,0.3086 -6.06,0.6289 -9.09,0.9531 v 0.0469 h -0.44 l -8.56,0.9453 v 0.0547 h -0.46 l -7.54,0.8711 v 0.1289 h -1.1 l -6.9,0.8359 v 0.1641 h -1.35 l -6.65,0.832 v 0.168 h -1.3 l -5.7,0.7461 v 0.2539 h -1.91 l -6.09,0.8164 v 0.1836 h -1.33 l -6.67,0.9297 v 0.0703 h -0.48 c -4.51,0.6406 -9.02,1.3008 -13.52,1.9765 v 0.0235 h -0.16 l -5.84,0.8906 v 0.1094 h -0.71 l -5.29,0.8242 v 0.1758 h -1.1 l -4.9,0.7773 v 0.2227 h -1.36 l -4.64,0.7539 v 0.2461 h -1.47 l -4.53,0.7578 v 0.2383 h -1.44 l -4.56,0.7851 v 0.2188 h -1.27 c -8.93,1.5469 -17.84,3.164 -26.73,4.8476 v 0.1524 h -0.78 l -4.22,0.8047 v 0.1953 h -1.01 l -3.99,0.7773 v 0.2227 h -1.14 l -3.86,0.7656 v 0.2305 h -1.17 l -3.83,0.7656 v 0.2383 h -1.14 l -3.86,0.7851 v 0.2149 h -1.05 l -3.95,0.8203 v 0.1797 h -0.86 l -4.14,0.8672 v 0.1328 h -0.62 l -4.38,0.9336 v 0.0664 h -0.3 c -5.91,1.2695 -11.81,2.5742 -17.7,3.9062 v 0.0899 h -0.41 l -3.59,0.8164 v 0.1875 h -0.82 l -4.18,0.9648 v 0.0352 h -0.14 l -3.86,0.8945 v 0.1055 h -0.44 l -3.56,0.8398 v 0.1602 h -0.68 l -3.32,0.789 v 0.211 h -0.87 l -3.13,0.7539 v 0.2461 h -1.02 l -3.98,0.9726 v 0.0274 h -0.1 l -3.9,0.9531 v 0.0469 h -0.18 l -3.82,0.957 v 0.0391 h -0.17 l -3.83,0.9609 v 0.043 h -0.16 l -3.84,0.9805 v 0.0195 h -0.08 c -4.98,1.2734 -9.95,2.5664 -14.92,3.8828 v 0.1172 h -0.43 l -3.57,0.9492 v 0.0508 h -0.18 l -6.82,1.8437 v 0.1563 h -0.57 l -3.43,0.9375 v 0.0625 h -0.23 l -2.77,0.7617 v 0.2383 h -0.85 l -3.15,0.875 v 0.125 h -0.44 l -3.56,1 v 0 l -3,0.8476 v 0.1524 h -0.52 l -3.48,0.9922 v 0.0078 h -0.02 l -2.98,0.8555 v 0.1445 h -0.5 c -2.95,0.8515 -5.9,1.707 -8.85,2.5781 -1.08,0.2422 -2.06,0.3399 -3.18,0.6211 C 936.285,147.91 812.164,136.199 641.164,114.828 592.207,108.711 550.258,93.8359 509.797,80.7383 h -0.063 V 80.7188 C 503.395,78.668 497.09,76.6641 490.805,74.7383 h -0.071 v -0.0235 c -3.324,-1.0156 -6.648,-2.0117 -9.968,-2.9765 h -0.032 v -0.0078 c -8.898,-2.5821 -17.789,-4.9492 -26.726,-6.9922 h -0.274 v -0.0625 c -6.629,-1.5078 -13.285,-2.8399 -19.992,-3.9375 h -0.008 v -0.0039 c -2.203,-0.3594 -4.41,-0.6875 -6.621,-0.9961 h -0.379 v -0.0547 c -2.535,-0.3516 -5.078,-0.668 -7.629,-0.9492 h -0.371 v -0.0391 c -3.632,-0.3945 -7.289,-0.7226 -10.968,-0.957 h -2.032 V 57.625 c -8.839,-0.4961 -17.82,-0.5039 -27,0.0586 v 0.0547 h -0.953 c -3.324,0.2148 -6.672,0.5039 -10.047,0.8789 v 0.1172 h -0.996 c -2.8,0.3242 -5.621,0.6953 -8.465,1.1328 -6.726,1.0312 -16.804,1.4922 -29.539,2.8555 v 0.0156 h -0.148 c -7.969,0.8555 -16.977,2.0664 -26.852,3.9844 v 0.0156 h -0.082 c -6.601,1.2851 -13.589,2.8867 -20.918,4.918 v 0.082 h -0.296 c -2.204,0.6133 -4.438,1.2656 -6.704,1.9609 v 0.0391 h -0.136 c -6.403,1.9648 -13.032,4.2539 -19.864,6.9453 v 0.0547 h -0.14 c -1.606,0.6367 -3.231,1.3008 -4.864,1.9805 v 0.0195 h -0.05 c -2.946,1.2305 -5.93,2.539 -8.946,3.9219 v 0.0781 h -0.168 c -5.187,2.3828 -10.468,5.0039 -15.832,7.8867 v 0.1094 h -0.207 l -1.797,0.9687 v 0.0352 h -0.062 c -3.934,2.1523 -7.914,4.4567 -11.934,6.9067 v 0.093 h -0.156 c -2.598,1.586 -5.215,3.239 -7.844,4.95 v 0.05 h -0.078 l -2.922,1.93 v 0.07 h -0.101 c -3.278,2.192 -6.578,4.485 -9.899,6.891 v 0.109 h -0.152 c -1.277,0.926 -2.562,1.879 -3.848,2.836 v 0.164 h -0.222 c -2.582,1.93 -5.176,3.93 -7.782,5.996 v 0.004 h -0.003 c -1.993,1.578 -3.993,3.2 -5.993,4.864 v 0.132 h -0.164 c -1.941,1.614 -3.886,3.258 -5.836,4.946 v 0.058 h -0.066 c -2.969,2.571 -5.945,5.239 -8.934,7.996 v 0.004 h -0.004 l -0.996,0.938 v 0.062 h -0.066 l -0.934,0.871 v 0.129 h -0.136 l -0.864,0.809 v 0.191 h -0.203 l -0.797,0.746 v 0.254 h -0.265 c -3.063,2.91 -6.137,5.93 -9.215,9.047 -1.535,1.664 -3.039,3.309 -4.52,4.949 v 0.004 h -0.007 c -2.75,3.039 -5.414,6.032 -7.993,8.989 v 0.011 h -0.011 c -2.051,2.352 -4.047,4.676 -5.989,6.981 v 0.019 h -0.019 c -1.699,2.016 -3.36,4.012 -4.981,5.996 v 0.004 h -0.004 c -3.882,4.75 -7.546,9.399 -10.996,13.973 v 0.027 h -0.019 c -2.797,3.703 -5.453,7.356 -7.9806,10.961 v 0.039 H 99.707 l -1.9726,2.84 v 0.16 H 97.625 c -2.0469,2.989 -4.0156,5.95 -5.8906,8.883 v 0.117 h -0.0781 c -1.711,2.672 -3.3516,5.321 -4.9258,7.953 v 0.047 H 86.707 c -1.375,2.301 -2.6992,4.59 -3.9726,6.867 v 0.133 h -0.0742 c -5.4649,9.766 -10.043,19.325 -13.9297,28.867 v 0.133 h -0.0508 c -0.6719,1.641 -1.3203,3.282 -1.9453,4.926 v 0.074 H 66.707 c -2.6562,6.957 -4.957,13.914 -6.9726,20.953 v 0.047 h -0.0156 c -2.336,8.137 -4.293,16.379 -5.9844,24.825 v 0.175 h -0.0352 c -0.332,1.653 -0.6523,3.317 -0.9648,4.989 v 0.011 h -0.0039 c -1.9688,10.578 -3.5625,21.508 -4.9961,32.992 v 0.008 c -1.4571,11.637 -2.7383,23.84 -4.0821,36.832 -0.4335,4.196 -0.7304,8.328 -0.9179,12.422 v 1.746 h -0.086 c -0.1992,5.071 -0.2148,10.067 -0.0703,15 h 0.1563 v 4.012 c 0.1875,4.035 0.4804,8.031 0.875,11.988 h 0.125 v 1.176 c 0.707,6.703 1.6953,13.301 2.9179,19.824 h 0.0821 v 0.438 c 0.6054,3.207 1.2734,6.39 1.9922,9.562 h 0.0078 v 0.043 l 0.9219,3.957 h 0.0781 v 0.313 l 0.914,3.687 h 0.0821 v 0.325 c 0.9179,3.574 1.9023,7.128 2.9336,10.675 h 0.0703 v 0.246 c 1.2461,4.266 2.5664,8.516 3.9609,12.754 h 0.0391 v 0.121 l 0.957,2.879 h 0.043 v 0.125 l 0.9765,2.875 h 0.0235 v 0.071 c 1.5898,4.644 3.2578,9.285 4.9804,13.929 h 0.0196 v 0.055 c 0.9804,2.645 1.9804,5.293 2.9922,7.945 h 0.0078 v 0.02 c 16.9609,44.316 38.0316,89.406 48.3676,144.062 28.562,151.078 23.32,249.227 -15.297,470.1 -1.3753,3.91 -2.7269,7.83 -4.0706,11.75 v 0.07 h -0.0235 l -0.9804,2.85 v 0.15 h -0.0508 l -0.9453,2.78 v 0.22 h -0.0703 l -0.9297,2.76 v 0.24 h -0.0821 l -0.9179,2.73 v 0.27 h -0.0899 l -0.9101,2.73 v 0.27 h -0.0899 l -0.9101,2.75 v 0.25 h -0.0821 l -0.9179,2.78 v 0.22 h -0.0742 l -0.9258,2.84 v 0.16 h -0.0508 l -0.9492,2.92 v 1.08 h -0.3516 l -0.6523,2 v 0.99 h -0.3164 l -0.6797,2.13 v 0.88 H 85.457 l -0.7226,2.26 v 0.74 H 84.5 l -0.7656,2.42 v 0.58 h -0.1836 l -0.8164,2.61 v 0.39 h -0.125 l -0.875,2.78 v 0.22 H 81.668 c -1.3282,4.27 -2.6367,8.55 -3.9375,12.84 v 0.16 h -0.0469 l -1.9492,6.49 v 0.51 H 75.582 l -0.8476,2.86 v 0.14 h -0.0391 l -0.9609,3.25 v 0.75 h -0.2188 l -0.7812,2.67 v 0.32 h -0.0938 l -0.9062,3.12 v 0.89 h -0.2578 l -0.7422,2.6 v 0.4 h -0.1172 l -0.8828,3.1 v 0.9 h -0.2578 l -0.7461,2.63 v 0.37 h -0.1016 l -0.8945,3.19 v 0.8 h -0.2266 l -0.7734,2.77 v 1.24 h -0.3399 l -0.6601,2.4 v 0.6 h -0.1641 l -0.8359,3.05 v 0.95 h -0.2617 l -0.7383,2.73 v 0.27 h -0.0703 l -0.9297,3.45 v 0.55 h -0.1485 c -1.3046,4.89 -2.5898,9.78 -3.8515,14.69 v 0.31 h -0.0781 l -0.9219,3.58 v 0.42 H 57.625 l -0.8906,3.54 v 0.46 h -0.1172 l -0.8828,3.5 v 0.49 h -0.125 l -0.875,3.54 v 0.47 h -0.1172 l -0.8828,3.58 v 1.42 h -0.3477 l -0.6523,2.7 v 1.3 H 52.418 l -0.6836,2.85 v 1.15 H 51.457 l -0.7265,3.06 v 0.94 h -0.2188 l -0.7773,3.29 v 0.71 h -0.168 l -0.832,3.6 v 1.4 h -0.3242 l -0.6758,2.95 v 1.05 h -0.2422 l -0.7578,3.36 v 0.64 h -0.1446 l -0.8554,3.8 v 0.2 h -0.043 c -1.3516,6.06 -2.6719,12.14 -3.9609,18.23 v 0.77 h -0.1602 l -0.8359,4.02 v 0.98 h -0.2031 l -0.7969,3.85 v 1.15 H 39.5 l -0.7656,3.78 v 1.22 h -0.2461 l -0.7539,3.76 v 1.24 h -0.2461 l -0.7539,3.82 v 1.18 h -0.2305 l -0.7695,3.99 v 1.01 H 35.543 l -0.8086,4.21 v 1.79 h -0.336 l -0.664,3.58 v 1.42 h -0.2656 l -0.7383,4 v 1 h -0.1797 l -0.8164,4.52 v 0.48 h -0.086 c -0.6523,3.64 -1.289,7.28 -1.914,10.92 v 0.08 h -0.0156 l -0.9844,5.81 v 0.19 h -0.0352 l -0.9648,5.81 v 1.19 h -0.1953 l -0.8047,4.95 v 1.05 h -0.168 l -0.832,5.24 v 1.76 H 25.457 l -0.7226,4.72 v 2.28 h -0.3516 l -0.6523,4.35 v 1.64 h -0.2422 l -0.7539,5.14 v 1.87 h -0.2656 l -0.7344,5.15 v 1.85 h -0.2578 l -0.7422,5.4 v 0.6 h -0.0821 l -0.9179,6.9 v 0.1 h -0.0156 l -0.9844,7.63 v 0.37 h -0.0469 l -0.9531,7.67 v 1.33 h -0.1602 l -0.8398,7.06 v 1.94 h -0.2266 l -0.7734,6.82 v 3.17 h -0.3516 l -0.6484,6.03 v 2.98 h -0.3125 l -0.6875,6.71 v 2.29 h -0.2266 l -0.7734,8.03 v 1.97 h -0.1836 c -0.6485,6.97 -1.2578,13.95 -1.8164,20.94 v 2.06 h -0.1602 c -0.2929,3.69 -0.5742,7.39 -0.83982,11.09 v 4.91 H 9.37891 c -0.22657,3.24 -0.4375,6.48 -0.64453,9.73 v 5.27 H 8.41016 c -0.23828,3.89 -0.46875,7.79 -0.67578,11.69 v 4.31 H 7.51172 c -0.28906,5.63 -0.54688,11.26 -0.77734,16.9 v 2.09 H 6.64844 c -0.39063,9.72 -0.69141,19.46 -0.91797,29.22 v 17.79 H 5.42188 c -0.08985,7.03 -0.13672,14.06 -0.13672,21.1 0,77.64 5.33594,154.03 15.44924,228.89 v 0.01 c 4.4101,32.64 9.7539,64.97 15.9961,96.99 h 0.0039 v 0.02 c 10.7187,55 24.0976,109.04 39.9961,161.98 h 0.0039 v 0.01 c 14.0781,46.88 30.0666,92.92 47.9956,137.99 h 0.004 v 0.01 c 40.239,101.15 89.918,197.52 147.996,287.99 h 0.004 v 0.01 c 42.336,65.95 89.184,128.72 139.996,187.99 h 0.004 v 0 c 62.227,72.59 130.481,139.85 204,201 293.508,244.16 670.816,391.01 1082.446,391.01 421.09,0 806.24,-153.7 1102.55,-408.01 34.21,-29.35 67.24,-60.03 99,-91.99 v -0.01 0 c 121.36,-122.11 224.18,-262.64 304,-417 10.06,-19.43 19.69,-39.12 29,-58.99 v -0.01 0 c 34.21,-72.97 63.34,-148.79 87,-226.99 v -0.01 0 c 8.78,-29 16.76,-58.35 24,-87.99 v -0.01 0 c 16.49,-67.49 28.86,-136.59 37,-206.98 v -0.02 0 c 6.42,-55.54 10.09,-111.93 11,-168.98 v -0.02 c 0.15,-8.95 0.34,-17.9 0.34,-26.89 0,-35.3 -1.21,-70.33 -3.34,-105.1 v -0.02 c -0.84,-13.7 -1.84,-27.37 -3,-40.98 v 0 -0.02 c -2.35,-27.52 -5.35,-54.86 -9,-81.98 v -0.01 c -2.93,-21.8 -6.24,-43.47 -10,-65 v 0 0 c -33.17,-190.12 -98.08,-369.3 -189,-531.992 v 0 -0.004 c -28.5,-51.015 -59.55,-100.41 -93,-147.996 -35.97,-51.164 -74.72,-100.215 -116,-147 -13.74,-15.574 -27.7,-30.945 -42,-46 -41.41,-43.625 -85.18,-84.98 -131,-124 v 0 -0.004 c -115.35,-98.242 -244.07,-181.238 -383,-245.996 v 0 c -5,-2.328 -9.97,-4.718 -14.99,-7 h -0.01 v -0.004 C 2260.94,96.1484 2113.28,51.5039 1958.73,27.7383 v 0 c -4.65,-0.7149 -9.33,-1.3242 -13.98,-2 h -0.02 V 25.7344 C 1864.55,14.0859 1782.59,7.95703 1699.18,7.95703 c -14.52,0 -29.01,0.1875 -43.45,0.5586 z"
         transform="translate(0,-2.5e-5)"
         clip-rule="evenodd"
         id="path4" />
    </clipPath>
  </defs>
  <sodipodi:namedview
     id="namedview1"
     pagecolor="#ffffff"
     bordercolor="#000000"
     borderopacity="0.25"
     inkscape:showpageshadow="2"
     inkscape:pageopacity="0.0"
     inkscape:pagecheckerboard="0"
     inkscape:deskcolor="#d1d1d1">
    <inkscape:page
       x="0"
       y="0"
       inkscape:label="1"
       id="page1"
       width="453.33334"
       height="453.33334"
       margin="0"
       bleed="0" />
  </sodipodi:namedview>
  <g
     id="g1"
     inkscape:groupmode="layer"
     inkscape:label="1">
    <path
       id="path1"
       d="m 1655.73,8.51563 v 0.22265 h -7.97 c -7.69,0.23438 -15.37,0.51563 -23.03,0.85547 v 0.14453 h -3.32 c -4.89,0.22266 -9.79,0.46872 -14.68,0.73442 v 0.2656 h -4.64 c -4.46,0.2539 -8.91,0.5273 -13.36,0.8164 v 0.1836 h -2.74 c -8.44,0.5625 -16.86,1.1836 -25.26,1.875 v 0.1211 h -1.5 c -3.17,0.2656 -6.34,0.539 -9.5,0.8164 v 0.1875 h -2.06 c -2.98,0.2656 -5.96,0.543 -8.94,0.8242 v 0.1758 h -1.85 l -8.15,0.8047 v 0.1953 h -1.91 c -3.03,0.3086 -6.06,0.6289 -9.09,0.9531 v 0.0469 h -0.44 l -8.56,0.9453 v 0.0547 h -0.46 l -7.54,0.8711 v 0.1289 h -1.1 l -6.9,0.8359 v 0.1641 h -1.35 l -6.65,0.832 v 0.168 h -1.3 l -5.7,0.7461 v 0.2539 h -1.91 l -6.09,0.8164 v 0.1836 h -1.33 l -6.67,0.9297 v 0.0703 h -0.48 c -4.51,0.6406 -9.02,1.3008 -13.52,1.9765 v 0.0235 h -0.16 l -5.84,0.8906 v 0.1094 h -0.71 l -5.29,0.8242 v 0.1758 h -1.1 l -4.9,0.7773 v 0.2227 h -1.36 l -4.64,0.7539 v 0.2461 h -1.47 l -4.53,0.7578 v 0.2383 h -1.44 l -4.56,0.7851 v 0.2188 h -1.27 c -8.93,1.5469 -17.84,3.164 -26.73,4.8476 v 0.1524 h -0.78 l -4.22,0.8047 v 0.1953 h -1.01 l -3.99,0.7773 v 0.2227 h -1.14 l -3.86,0.7656 v 0.2305 h -1.17 l -3.83,0.7656 v 0.2383 h -1.14 l -3.86,0.7851 v 0.2149 h -1.05 l -3.95,0.8203 v 0.1797 h -0.86 l -4.14,0.8672 v 0.1328 h -0.62 l -4.38,0.9336 v 0.0664 h -0.3 c -5.91,1.2695 -11.81,2.5742 -17.7,3.9062 v 0.0899 h -0.41 l -3.59,0.8164 v 0.1875 h -0.82 l -4.18,0.9648 v 0.0352 h -0.14 l -3.86,0.8945 v 0.1055 h -0.44 l -3.56,0.8398 v 0.1602 h -0.68 l -3.32,0.789 v 0.211 h -0.87 l -3.13,0.7539 v 0.2461 h -1.02 l -3.98,0.9726 v 0.0274 h -0.1 l -3.9,0.9531 v 0.0469 h -0.18 l -3.82,0.957 v 0.0391 h -0.17 l -3.83,0.9609 v 0.043 h -0.16 l -3.84,0.9805 v 0.0195 h -0.08 c -4.98,1.2734 -9.95,2.5664 -14.92,3.8828 v 0.1172 h -0.43 l -3.57,0.9492 v 0.0508 h -0.18 l -6.82,1.8437 v 0.1563 h -0.57 l -3.43,0.9375 v 0.0625 h -0.23 l -2.77,0.7617 v 0.2383 h -0.85 l -3.15,0.875 v 0.125 h -0.44 l -3.56,1 v 0 l -3,0.8476 v 0.1524 h -0.52 l -3.48,0.9922 v 0.0078 h -0.02 l -2.98,0.8555 v 0.1445 h -0.5 c -2.95,0.8515 -5.9,1.707 -8.85,2.5781 -1.08,0.2422 -2.06,0.3399 -3.18,0.6211 C 936.285,147.91 812.164,136.199 641.164,114.828 592.207,108.711 550.258,93.8359 509.797,80.7383 h -0.063 V 80.7188 C 503.395,78.668 497.09,76.6641 490.805,74.7383 h -0.071 v -0.0235 c -3.324,-1.0156 -6.648,-2.0117 -9.968,-2.9765 h -0.032 v -0.0078 c -8.898,-2.5821 -17.789,-4.9492 -26.726,-6.9922 h -0.274 v -0.0625 c -6.629,-1.5078 -13.285,-2.8399 -19.992,-3.9375 h -0.008 v -0.0039 c -2.203,-0.3594 -4.41,-0.6875 -6.621,-0.9961 h -0.379 v -0.0547 c -2.535,-0.3516 -5.078,-0.668 -7.629,-0.9492 h -0.371 v -0.0391 c -3.632,-0.3945 -7.289,-0.7226 -10.968,-0.957 h -2.032 V 57.625 c -8.839,-0.4961 -17.82,-0.5039 -27,0.0586 v 0.0547 h -0.953 c -3.324,0.2148 -6.672,0.5039 -10.047,0.8789 v 0.1172 h -0.996 c -2.8,0.3242 -5.621,0.6953 -8.465,1.1328 -6.726,1.0312 -16.804,1.4922 -29.539,2.8555 v 0.0156 h -0.148 c -7.969,0.8555 -16.977,2.0664 -26.852,3.9844 v 0.0156 h -0.082 c -6.601,1.2851 -13.589,2.8867 -20.918,4.918 v 0.082 h -0.296 c -2.204,0.6133 -4.438,1.2656 -6.704,1.9609 v 0.0391 h -0.136 c -6.403,1.9648 -13.032,4.2539 -19.864,6.9453 v 0.0547 h -0.14 c -1.606,0.6367 -3.231,1.3008 -4.864,1.9805 v 0.0195 h -0.05 c -2.946,1.2305 -5.93,2.539 -8.946,3.9219 v 0.0781 h -0.168 c -5.187,2.3828 -10.468,5.0039 -15.832,7.8867 v 0.1094 h -0.207 l -1.797,0.9687 v 0.0352 h -0.062 c -3.934,2.1523 -7.914,4.4567 -11.934,6.9067 v 0.093 h -0.156 c -2.598,1.586 -5.215,3.239 -7.844,4.95 v 0.05 h -0.078 l -2.922,1.93 v 0.07 h -0.101 c -3.278,2.192 -6.578,4.485 -9.899,6.891 v 0.109 h -0.152 c -1.277,0.926 -2.562,1.879 -3.848,2.836 v 0.164 h -0.222 c -2.582,1.93 -5.176,3.93 -7.782,5.996 v 0.004 h -0.003 c -1.993,1.578 -3.993,3.2 -5.993,4.864 v 0.132 h -0.164 c -1.941,1.614 -3.886,3.258 -5.836,4.946 v 0.058 h -0.066 c -2.969,2.571 -5.945,5.239 -8.934,7.996 v 0.004 h -0.004 l -0.996,0.938 v 0.062 h -0.066 l -0.934,0.871 v 0.129 h -0.136 l -0.864,0.809 v 0.191 h -0.203 l -0.797,0.746 v 0.254 h -0.265 c -3.063,2.91 -6.137,5.93 -9.215,9.047 -1.535,1.664 -3.039,3.309 -4.52,4.949 v 0.004 h -0.007 c -2.75,3.039 -5.414,6.032 -7.993,8.989 v 0.011 h -0.011 c -2.051,2.352 -4.047,4.676 -5.989,6.981 v 0.019 h -0.019 c -1.699,2.016 -3.36,4.012 -4.981,5.996 v 0.004 h -0.004 c -3.882,4.75 -7.546,9.399 -10.996,13.973 v 0.027 h -0.019 c -2.797,3.703 -5.453,7.356 -7.9806,10.961 v 0.039 H 99.707 l -1.9726,2.84 v 0.16 H 97.625 c -2.0469,2.989 -4.0156,5.95 -5.8906,8.883 v 0.117 h -0.0781 c -1.711,2.672 -3.3516,5.321 -4.9258,7.953 v 0.047 H 86.707 c -1.375,2.301 -2.6992,4.59 -3.9726,6.867 v 0.133 h -0.0742 c -5.4649,9.766 -10.043,19.325 -13.9297,28.867 v 0.133 h -0.0508 c -0.6719,1.641 -1.3203,3.282 -1.9453,4.926 v 0.074 H 66.707 c -2.6562,6.957 -4.957,13.914 -6.9726,20.953 v 0.047 h -0.0156 c -2.336,8.137 -4.293,16.379 -5.9844,24.825 v 0.175 h -0.0352 c -0.332,1.653 -0.6523,3.317 -0.9648,4.989 v 0.011 h -0.0039 c -1.9688,10.578 -3.5625,21.508 -4.9961,32.992 v 0.008 c -1.4571,11.637 -2.7383,23.84 -4.0821,36.832 -0.4335,4.196 -0.7304,8.328 -0.9179,12.422 v 1.746 h -0.086 c -0.1992,5.071 -0.2148,10.067 -0.0703,15 h 0.1563 v 4.012 c 0.1875,4.035 0.4804,8.031 0.875,11.988 h 0.125 v 1.176 c 0.707,6.703 1.6953,13.301 2.9179,19.824 h 0.0821 v 0.438 c 0.6054,3.207 1.2734,6.39 1.9922,9.562 h 0.0078 v 0.043 l 0.9219,3.957 h 0.0781 v 0.313 l 0.914,3.687 h 0.0821 v 0.325 c 0.9179,3.574 1.9023,7.128 2.9336,10.675 h 0.0703 v 0.246 c 1.2461,4.266 2.5664,8.516 3.9609,12.754 h 0.0391 v 0.121 l 0.957,2.879 h 0.043 v 0.125 l 0.9765,2.875 h 0.0235 v 0.071 c 1.5898,4.644 3.2578,9.285 4.9804,13.929 h 0.0196 v 0.055 c 0.9804,2.645 1.9804,5.293 2.9922,7.945 h 0.0078 v 0.02 c 16.9609,44.316 38.0316,89.406 48.3676,144.062 28.562,151.078 23.32,249.227 -15.297,470.1 -1.3753,3.91 -2.7269,7.83 -4.0706,11.75 v 0.07 h -0.0235 l -0.9804,2.85 v 0.15 h -0.0508 l -0.9453,2.78 v 0.22 h -0.0703 l -0.9297,2.76 v 0.24 h -0.0821 l -0.9179,2.73 v 0.27 h -0.0899 l -0.9101,2.73 v 0.27 h -0.0899 l -0.9101,2.75 v 0.25 h -0.0821 l -0.9179,2.78 v 0.22 h -0.0742 l -0.9258,2.84 v 0.16 h -0.0508 l -0.9492,2.92 v 1.08 h -0.3516 l -0.6523,2 v 0.99 h -0.3164 l -0.6797,2.13 v 0.88 H 85.457 l -0.7226,2.26 v 0.74 H 84.5 l -0.7656,2.42 v 0.58 h -0.1836 l -0.8164,2.61 v 0.39 h -0.125 l -0.875,2.78 v 0.22 H 81.668 c -1.3282,4.27 -2.6367,8.55 -3.9375,12.84 v 0.16 h -0.0469 l -1.9492,6.49 v 0.51 H 75.582 l -0.8476,2.86 v 0.14 h -0.0391 l -0.9609,3.25 v 0.75 h -0.2188 l -0.7812,2.67 v 0.32 h -0.0938 l -0.9062,3.12 v 0.89 h -0.2578 l -0.7422,2.6 v 0.4 h -0.1172 l -0.8828,3.1 v 0.9 h -0.2578 l -0.7461,2.63 v 0.37 h -0.1016 l -0.8945,3.19 v 0.8 h -0.2266 l -0.7734,2.77 v 1.24 h -0.3399 l -0.6601,2.4 v 0.6 h -0.1641 l -0.8359,3.05 v 0.95 h -0.2617 l -0.7383,2.73 v 0.27 h -0.0703 l -0.9297,3.45 v 0.55 h -0.1485 c -1.3046,4.89 -2.5898,9.78 -3.8515,14.69 v 0.31 h -0.0781 l -0.9219,3.58 v 0.42 H 57.625 l -0.8906,3.54 v 0.46 h -0.1172 l -0.8828,3.5 v 0.49 h -0.125 l -0.875,3.54 v 0.47 h -0.1172 l -0.8828,3.58 v 1.42 h -0.3477 l -0.6523,2.7 v 1.3 H 52.418 l -0.6836,2.85 v 1.15 H 51.457 l -0.7265,3.06 v 0.94 h -0.2188 l -0.7773,3.29 v 0.71 h -0.168 l -0.832,3.6 v 1.4 h -0.3242 l -0.6758,2.95 v 1.05 h -0.2422 l -0.7578,3.36 v 0.64 h -0.1446 l -0.8554,3.8 v 0.2 h -0.043 c -1.3516,6.06 -2.6719,12.14 -3.9609,18.23 v 0.77 h -0.1602 l -0.8359,4.02 v 0.98 h -0.2031 l -0.7969,3.85 v 1.15 H 39.5 l -0.7656,3.78 v 1.22 h -0.2461 l -0.7539,3.76 v 1.24 h -0.2461 l -0.7539,3.82 v 1.18 h -0.2305 l -0.7695,3.99 v 1.01 H 35.543 l -0.8086,4.21 v 1.79 h -0.336 l -0.664,3.58 v 1.42 h -0.2656 l -0.7383,4 v 1 h -0.1797 l -0.8164,4.52 v 0.48 h -0.086 c -0.6523,3.64 -1.289,7.28 -1.914,10.92 v 0.08 h -0.0156 l -0.9844,5.81 v 0.19 h -0.0352 l -0.9648,5.81 v 1.19 h -0.1953 l -0.8047,4.95 v 1.05 h -0.168 l -0.832,5.24 v 1.76 H 25.457 l -0.7226,4.72 v 2.28 h -0.3516 l -0.6523,4.35 v 1.64 h -0.2422 l -0.7539,5.14 v 1.87 h -0.2656 l -0.7344,5.15 v 1.85 h -0.2578 l -0.7422,5.4 v 0.6 h -0.0821 l -0.9179,6.9 v 0.1 h -0.0156 l -0.9844,7.63 v 0.37 h -0.0469 l -0.9531,7.67 v 1.33 h -0.1602 l -0.8398,7.06 v 1.94 h -0.2266 l -0.7734,6.82 v 3.17 h -0.3516 l -0.6484,6.03 v 2.98 h -0.3125 l -0.6875,6.71 v 2.29 h -0.2266 l -0.7734,8.03 v 1.97 h -0.1836 c -0.6485,6.97 -1.2578,13.95 -1.8164,20.94 v 2.06 h -0.1602 c -0.2929,3.69 -0.5742,7.39 -0.83982,11.09 v 4.91 H 9.37891 c -0.22657,3.24 -0.4375,6.48 -0.64453,9.73 v 5.27 H 8.41016 c -0.23828,3.89 -0.46875,7.79 -0.67578,11.69 v 4.31 H 7.51172 c -0.28906,5.63 -0.54688,11.26 -0.77734,16.9 v 2.09 H 6.64844 c -0.39063,9.72 -0.69141,19.46 -0.91797,29.22 v 17.79 H 5.42188 c -0.08985,7.03 -0.13672,14.06 -0.13672,21.1 0,77.64 5.33594,154.03 15.44924,228.89 v 0.01 c 4.4101,32.64 9.7539,64.97 15.9961,96.99 h 0.0039 v 0.02 c 10.7187,55 24.0976,109.04 39.9961,161.98 h 0.0039 v 0.01 c 14.0781,46.88 30.0666,92.92 47.9956,137.99 h 0.004 v 0.01 c 40.239,101.15 89.918,197.52 147.996,287.99 h 0.004 v 0.01 c 42.336,65.95 89.184,128.72 139.996,187.99 h 0.004 v 0 c 62.227,72.59 130.481,139.85 204,201 293.508,244.16 670.816,391.01 1082.446,391.01 421.09,0 806.24,-153.7 1102.55,-408.01 34.21,-29.35 67.24,-60.03 99,-91.99 v -0.01 0 c 121.36,-122.11 224.18,-262.64 304,-417 10.06,-19.43 19.69,-39.12 29,-58.99 v -0.01 0 c 34.21,-72.97 63.34,-148.79 87,-226.99 v -0.01 0 c 8.78,-29 16.76,-58.35 24,-87.99 v -0.01 0 c 16.49,-67.49 28.86,-136.59 37,-206.98 v -0.02 0 c 6.42,-55.54 10.09,-111.93 11,-168.98 v -0.02 c 0.15,-8.95 0.34,-17.9 0.34,-26.89 0,-35.3 -1.21,-70.33 -3.34,-105.1 v -0.02 c -0.84,-13.7 -1.84,-27.37 -3,-40.98 v 0 -0.02 c -2.35,-27.52 -5.35,-54.86 -9,-81.98 v -0.01 c -2.93,-21.8 -6.24,-43.47 -10,-65 v 0 0 c -33.17,-190.12 -98.08,-369.3 -189,-531.992 v 0 -0.004 c -28.5,-51.015 -59.55,-100.41 -93,-147.996 -35.97,-51.164 -74.72,-100.215 -116,-147 -13.74,-15.574 -27.7,-30.945 -42,-46 -41.41,-43.625 -85.18,-84.98 -131,-124 v 0 -0.004 c -115.35,-98.242 -244.07,-181.238 -383,-245.996 v 0 c -5,-2.328 -9.97,-4.718 -14.99,-7 h -0.01 v -0.004 C 2260.94,96.1484 2113.28,51.5039 1958.73,27.7383 v 0 c -4.65,-0.7149 -9.33,-1.3242 -13.98,-2 h -0.02 V 25.7344 C 1864.55,14.0859 1782.59,7.95703 1699.18,7.95703 c -14.52,0 -29.01,0.1875 -43.45,0.5586"
       style="fill:url(#linearGradient4);fill-opacity:1;fill-rule:nonzero;stroke:none"
       transform="matrix(0.13333333,0,0,-0.13333333,0,453.33333)"
       clip-path="url(#clipPath4)" />
    <path
       id="path5"
       d="m 2048.93,2249.3 c 0,63.31 -51.33,114.63 -114.64,114.63 -63.31,0 -114.64,-51.32 -114.64,-114.63 0,-63.3 51.33,-114.62 114.64,-114.62 63.31,0 114.64,51.32 114.64,114.62"
       style="fill:#de3fa8;fill-opacity:1;fill-rule:nonzero;stroke:none"
       transform="matrix(0.13333333,0,0,-0.13333333,0,453.33333)" />
    <path
       id="path6"
       d="m 1544.15,2461.61 c -59.18,0 -108.22,-44.13 -114.09,-102.63 l -0.21,-2.12 V 1320.53 l 0.21,-2.13 c 5.87,-58.51 54.92,-102.63 114.09,-102.63 63.42,0 115.02,51.06 115.02,113.83 v 1018.17 c 0,62.78 -51.6,113.84 -115.02,113.84 z m 386.82,-369.36 c -47.66,0 -115.47,-28.66 -115.47,-93.98 V 1329.6 c 0,-93.7 67.81,-113.83 115.47,-113.83 62.76,0 113.85,51.06 113.85,113.83 v 648.82 c 0,62.78 -51.09,113.83 -113.85,113.83 z m 703.52,17.98 c -56.38,0 -109.83,-12.2 -157.49,-35.73 -20.01,-9.86 -67.7,-7.03 -79.66,-1.02 -12.19,6.08 -20.39,18.77 -34.92,18.77 h -128.33 c -24.89,0 -44.51,-21.12 -42.63,-45.93 4.49,-60.12 6.42,-123.19 6.42,-210.91 V 1329.6 c 1,-40.89 5.04,-42.75 5.04,-42.75 17.96,-44.17 67.85,-74.61 119.17,-70.75 60.46,4.53 105.09,59.06 105.09,119.69 v 398.3 c 0,20.37 2.71,39.96 7.24,52.39 l 0.7,2.12 c 17.8,58.15 71.7,116.81 151.97,116.81 93.11,0 140.31,-64.23 140.31,-190.93 V 1329.6 c 3.37,-100.28 72.87,-117.36 124.21,-113.5 60.46,4.53 105.08,59.06 105.08,119.69 v 395.03 c 0,280.05 -173.56,379.41 -322.2,379.41 z M 907.254,1396.04 c -82.34,0 -152.063,54.12 -173.961,134.86 -0.008,0.05 -0.02,0.09 -0.02,0.13 -2.949,16.35 -5.539,32.46 -5.539,49.43 v 135.65 c 0,15.4 4.739,34.52 8.457,48.18 22.153,86 94.524,146.05 175.961,146.05 133.048,0 192.598,-126.27 192.598,-251.43 0,-164.59 -73.84,-262.87 -197.496,-262.87 z m 49.027,714.19 c -63.156,0 -120.906,-12.79 -171.437,-37.59 -62.801,-33.87 -71.864,-5.17 -77.899,2.56 -6.082,7.76 -4.64,17.24 -35.523,17.05 H 563.594 c 0,0 -73.403,4.23 -70.043,-44.6 0,0 6.492,-157.61 6.492,-256.36 v -779.28 c 0,-59.971 43.68,-114.022 103.398,-119.365 67.454,-6.055 124.293,47.14 124.293,113.365 v 186.82 c 0,27.89 28.719,47.66 54.129,36.11 44.91,-20.39 95.891,-31.15 149.91,-31.15 193.767,0 402.297,146.33 402.297,467.67 0,257.72 -158.89,444.77 -377.789,444.77"
       style="fill:#ffffff;fill-opacity:1;fill-rule:nonzero;stroke:none"
       transform="matrix(0.13333333,0,0,-0.13333333,0,453.33333)" />
  </g>
</svg>
